M48
; DRILL file {KiCad 7.0.7} date Sun Nov  5 15:56:38 2023
; FORMAT={-:-/ absolute / inch / decimal}
; #@! TF.CreationDate,2023-11-05T15:56:38+00:00
; #@! TF.GenerationSoftware,Kicad,Pcbnew,7.0.7
; #@! TF.FileFunction,Plated,1,2,PTH
FMAT,2
INCH
; #@! TA.AperFunction,Plated,PTH,ViaDrill
T1C0.0157
; #@! TA.AperFunction,Plated,PTH,ComponentDrill
T2C0.1260
%
G90
G05
T1
X4.0354Y-0.0984
X4.0354Y-0.2953
X4.0354Y-0.4921
X4.0354Y-0.689
X4.0354Y-0.8858
X4.0354Y-1.0827
X4.0354Y-1.2795
X4.0354Y-1.4764
X4.0354Y-1.6732
X4.0354Y-1.8701
X4.0354Y-2.0669
X4.0354Y-2.2638
X4.0354Y-2.4606
X4.0354Y-2.6575
X4.0354Y-2.8543
X4.0354Y-3.0512
X4.0354Y-3.248
X4.0354Y-3.4449
X4.0354Y-3.6417
X4.0354Y-3.8386
X4.2323Y-0.0984
X4.2323Y-3.8386
X4.4291Y-0.0984
X4.4291Y-3.8386
X4.626Y-0.0984
X4.626Y-3.8386
X4.8228Y-0.0984
X4.8228Y-3.8386
X5.0197Y-0.0984
X5.0197Y-3.8386
X5.2165Y-0.0984
X5.2165Y-3.8386
X5.4134Y-0.0984
X5.4134Y-3.8386
X5.6102Y-0.0984
X5.6102Y-3.8386
X5.8071Y-0.0984
X5.8071Y-3.8386
X6.0039Y-0.0984
X6.0039Y-3.8386
X6.2008Y-0.0984
X6.2008Y-3.8386
X6.3976Y-0.0984
X6.3976Y-3.8386
X6.5945Y-0.0984
X6.5945Y-3.8386
X6.7913Y-0.0984
X6.7913Y-3.8386
X6.9882Y-0.0984
X6.9882Y-3.8386
X7.185Y-0.0984
X7.185Y-3.8386
X7.3819Y-0.0984
X7.3819Y-3.8386
X7.5787Y-0.0984
X7.5787Y-3.8386
X7.7756Y-0.0984
X7.7756Y-0.2953
X7.7756Y-0.4921
X7.7756Y-0.689
X7.7756Y-0.8858
X7.7756Y-1.0827
X7.7756Y-1.2795
X7.7756Y-1.4764
X7.7756Y-1.6732
X7.7756Y-1.8701
X7.7756Y-2.0669
X7.7756Y-2.2638
X7.7756Y-2.4606
X7.7756Y-2.6575
X7.7756Y-2.8543
X7.7756Y-3.0512
X7.7756Y-3.248
X7.7756Y-3.4449
X7.7756Y-3.6417
X7.7756Y-3.8386
T2
X4.2126Y-0.2756
X4.2126Y-3.6614
X7.5984Y-0.2756
X7.5984Y-3.6614
T0
M30
