%TF.GenerationSoftware,KiCad,Pcbnew,7.0.7*%
%TF.CreationDate,2023-11-05T15:56:38+00:00*%
%TF.ProjectId,RF_Screen,52465f53-6372-4656-956e-2e6b69636164,rev?*%
%TF.SameCoordinates,Original*%
%TF.FileFunction,Copper,L1,Top*%
%TF.FilePolarity,Positive*%
%FSLAX46Y46*%
G04 Gerber Fmt 4.6, Leading zero omitted, Abs format (unit mm)*
G04 Created by KiCad (PCBNEW 7.0.7) date 2023-11-05 15:56:38*
%MOMM*%
%LPD*%
G01*
G04 APERTURE LIST*
%TA.AperFunction,ComponentPad*%
%ADD10C,5.600000*%
%TD*%
%TA.AperFunction,ViaPad*%
%ADD11C,0.800000*%
%TD*%
G04 APERTURE END LIST*
D10*
%TO.P,H4,1,1*%
%TO.N,GND*%
X193000000Y-7000000D03*
%TD*%
%TO.P,H3,1,1*%
%TO.N,GND*%
X193000000Y-93000000D03*
%TD*%
%TO.P,H1,1,1*%
%TO.N,GND*%
X107000000Y-7000000D03*
%TD*%
%TO.P,H2,1,1*%
%TO.N,GND*%
X107000000Y-93000000D03*
%TD*%
D11*
%TO.N,GND*%
X192500000Y-97500000D03*
X187500000Y-97500000D03*
X182500000Y-97500000D03*
X177500000Y-97500000D03*
X172500000Y-97500000D03*
X167500000Y-97500000D03*
X162500000Y-97500000D03*
X157500000Y-97500000D03*
X152500000Y-97500000D03*
X147500000Y-97500000D03*
X142500000Y-97500000D03*
X137500000Y-97500000D03*
X132500000Y-97500000D03*
X127500000Y-97500000D03*
X122500000Y-97500000D03*
X117500000Y-97500000D03*
X112500000Y-97500000D03*
X107500000Y-97500000D03*
X197500000Y-97500000D03*
X197500000Y-92500000D03*
X197500000Y-87500000D03*
X197500000Y-82500000D03*
X197500000Y-77500000D03*
X197500000Y-72500000D03*
X197500000Y-67500000D03*
X197500000Y-62500000D03*
X197500000Y-57500000D03*
X197500000Y-52500000D03*
X197500000Y-47500000D03*
X197500000Y-42500000D03*
X197500000Y-37500000D03*
X197500000Y-32500000D03*
X197500000Y-27500000D03*
X197500000Y-22500000D03*
X197500000Y-17500000D03*
X197500000Y-12500000D03*
X197500000Y-7500000D03*
X102500000Y-97500000D03*
X102500000Y-92500000D03*
X102500000Y-87500000D03*
X102500000Y-82500000D03*
X102500000Y-77500000D03*
X102500000Y-72500000D03*
X102500000Y-67500000D03*
X102500000Y-62500000D03*
X102500000Y-57500000D03*
X102500000Y-52500000D03*
X102500000Y-47500000D03*
X102500000Y-42500000D03*
X102500000Y-37500000D03*
X102500000Y-32500000D03*
X102500000Y-27500000D03*
X102500000Y-22500000D03*
X102500000Y-17500000D03*
X102500000Y-12500000D03*
X102500000Y-7500000D03*
X197500000Y-2500000D03*
X192500000Y-2500000D03*
X187500000Y-2500000D03*
X182500000Y-2500000D03*
X177500000Y-2500000D03*
X172500000Y-2500000D03*
X167500000Y-2500000D03*
X162500000Y-2500000D03*
X157500000Y-2500000D03*
X152500000Y-2500000D03*
X147500000Y-2500000D03*
X142500000Y-2500000D03*
X137500000Y-2500000D03*
X132500000Y-2500000D03*
X127500000Y-2500000D03*
X122500000Y-2500000D03*
X117500000Y-2500000D03*
X112500000Y-2500000D03*
X107500000Y-2500000D03*
X102500000Y-2500000D03*
%TD*%
%TA.AperFunction,Conductor*%
%TO.N,GND*%
G36*
X199865751Y-9987D02*
G01*
X199932788Y-29678D01*
X199978538Y-82487D01*
X199989738Y-134248D01*
X199780259Y-99676520D01*
X199760433Y-99743518D01*
X199707533Y-99789162D01*
X199656520Y-99800259D01*
X105017500Y-99999500D01*
X100153987Y-99999500D01*
X100086948Y-99979815D01*
X100041193Y-99927011D01*
X100029987Y-99875512D01*
X100029299Y-93000002D01*
X103695153Y-93000002D01*
X103714526Y-93357314D01*
X103714527Y-93357331D01*
X103772415Y-93710431D01*
X103772421Y-93710457D01*
X103868147Y-94055232D01*
X103868149Y-94055239D01*
X104000597Y-94387659D01*
X104000606Y-94387677D01*
X104168218Y-94703827D01*
X104369033Y-95000007D01*
X104496441Y-95150003D01*
X104496442Y-95150004D01*
X105607413Y-94039032D01*
X105668736Y-94005547D01*
X105738427Y-94010531D01*
X105789381Y-94046179D01*
X105865130Y-94134870D01*
X105928855Y-94189296D01*
X105953816Y-94210615D01*
X105992009Y-94269122D01*
X105992507Y-94338990D01*
X105960965Y-94392586D01*
X104847255Y-95506295D01*
X104847256Y-95506296D01*
X104860485Y-95518828D01*
X104860486Y-95518829D01*
X105145367Y-95735388D01*
X105145370Y-95735390D01*
X105451990Y-95919876D01*
X105776739Y-96070122D01*
X105776744Y-96070123D01*
X106115855Y-96184383D01*
X106465339Y-96261311D01*
X106821075Y-96299999D01*
X106821085Y-96300000D01*
X107178915Y-96300000D01*
X107178924Y-96299999D01*
X107534660Y-96261311D01*
X107884144Y-96184383D01*
X108223255Y-96070123D01*
X108223260Y-96070122D01*
X108548009Y-95919876D01*
X108854629Y-95735390D01*
X108854632Y-95735388D01*
X109139504Y-95518836D01*
X109152742Y-95506294D01*
X108039033Y-94392586D01*
X108005548Y-94331263D01*
X108010532Y-94261571D01*
X108046180Y-94210617D01*
X108134870Y-94134870D01*
X108210617Y-94046180D01*
X108269121Y-94007990D01*
X108338989Y-94007490D01*
X108392586Y-94039033D01*
X109503556Y-95150003D01*
X109630964Y-95000008D01*
X109630975Y-94999994D01*
X109831781Y-94703827D01*
X109999393Y-94387677D01*
X109999402Y-94387659D01*
X110131850Y-94055239D01*
X110131852Y-94055232D01*
X110227578Y-93710457D01*
X110227584Y-93710431D01*
X110285472Y-93357331D01*
X110285473Y-93357314D01*
X110304847Y-93000002D01*
X189695153Y-93000002D01*
X189714526Y-93357314D01*
X189714527Y-93357331D01*
X189772415Y-93710431D01*
X189772421Y-93710457D01*
X189868147Y-94055232D01*
X189868149Y-94055239D01*
X190000597Y-94387659D01*
X190000606Y-94387677D01*
X190168218Y-94703827D01*
X190369033Y-95000007D01*
X190496441Y-95150003D01*
X190496442Y-95150004D01*
X191607413Y-94039032D01*
X191668736Y-94005547D01*
X191738427Y-94010531D01*
X191789381Y-94046179D01*
X191865130Y-94134870D01*
X191928855Y-94189296D01*
X191953816Y-94210615D01*
X191992009Y-94269122D01*
X191992507Y-94338990D01*
X191960965Y-94392586D01*
X190847255Y-95506295D01*
X190847256Y-95506296D01*
X190860485Y-95518828D01*
X190860486Y-95518829D01*
X191145367Y-95735388D01*
X191145370Y-95735390D01*
X191451990Y-95919876D01*
X191776739Y-96070122D01*
X191776744Y-96070123D01*
X192115855Y-96184383D01*
X192465339Y-96261311D01*
X192821075Y-96299999D01*
X192821085Y-96300000D01*
X193178915Y-96300000D01*
X193178924Y-96299999D01*
X193534660Y-96261311D01*
X193884144Y-96184383D01*
X194223255Y-96070123D01*
X194223260Y-96070122D01*
X194548009Y-95919876D01*
X194854629Y-95735390D01*
X194854632Y-95735388D01*
X195139504Y-95518836D01*
X195152742Y-95506294D01*
X194039033Y-94392586D01*
X194005548Y-94331263D01*
X194010532Y-94261571D01*
X194046180Y-94210617D01*
X194134870Y-94134870D01*
X194210617Y-94046180D01*
X194269121Y-94007990D01*
X194338989Y-94007490D01*
X194392586Y-94039033D01*
X195503556Y-95150003D01*
X195630964Y-95000008D01*
X195630975Y-94999994D01*
X195831781Y-94703827D01*
X195999393Y-94387677D01*
X195999402Y-94387659D01*
X196131850Y-94055239D01*
X196131852Y-94055232D01*
X196227578Y-93710457D01*
X196227584Y-93710431D01*
X196285472Y-93357331D01*
X196285473Y-93357314D01*
X196304846Y-93000002D01*
X196304846Y-92999997D01*
X196285473Y-92642685D01*
X196285472Y-92642668D01*
X196227584Y-92289568D01*
X196227578Y-92289542D01*
X196131852Y-91944767D01*
X196131850Y-91944760D01*
X195999402Y-91612340D01*
X195999393Y-91612322D01*
X195831781Y-91296172D01*
X195630966Y-90999992D01*
X195503557Y-90849995D01*
X195503556Y-90849994D01*
X194392586Y-91960965D01*
X194331263Y-91994450D01*
X194261571Y-91989466D01*
X194210615Y-91953816D01*
X194189296Y-91928855D01*
X194134870Y-91865130D01*
X194046179Y-91789381D01*
X194007989Y-91730878D01*
X194007489Y-91661010D01*
X194039032Y-91607413D01*
X195152743Y-90493703D01*
X195152742Y-90493702D01*
X195139514Y-90481171D01*
X195139513Y-90481170D01*
X194854632Y-90264611D01*
X194854629Y-90264609D01*
X194548009Y-90080123D01*
X194223260Y-89929877D01*
X194223255Y-89929876D01*
X193884144Y-89815616D01*
X193534660Y-89738688D01*
X193178924Y-89700000D01*
X192821075Y-89700000D01*
X192465339Y-89738688D01*
X192115855Y-89815616D01*
X191776744Y-89929876D01*
X191776739Y-89929877D01*
X191451990Y-90080123D01*
X191145370Y-90264609D01*
X191145367Y-90264611D01*
X190860491Y-90481166D01*
X190847256Y-90493703D01*
X190847255Y-90493703D01*
X191960966Y-91607413D01*
X191994451Y-91668736D01*
X191989467Y-91738428D01*
X191953817Y-91789384D01*
X191865130Y-91865130D01*
X191789384Y-91953817D01*
X191730877Y-91992010D01*
X191661009Y-91992508D01*
X191607413Y-91960966D01*
X190496442Y-90849994D01*
X190496441Y-90849995D01*
X190369040Y-90999983D01*
X190369033Y-90999993D01*
X190168218Y-91296172D01*
X190000606Y-91612322D01*
X190000597Y-91612340D01*
X189868149Y-91944760D01*
X189868147Y-91944767D01*
X189772421Y-92289542D01*
X189772415Y-92289568D01*
X189714527Y-92642668D01*
X189714526Y-92642685D01*
X189695153Y-92999997D01*
X189695153Y-93000002D01*
X110304847Y-93000002D01*
X110304847Y-92999997D01*
X110285473Y-92642685D01*
X110285472Y-92642668D01*
X110227584Y-92289568D01*
X110227578Y-92289542D01*
X110131852Y-91944767D01*
X110131850Y-91944760D01*
X109999402Y-91612340D01*
X109999393Y-91612322D01*
X109831781Y-91296172D01*
X109630966Y-90999992D01*
X109503557Y-90849995D01*
X109503556Y-90849994D01*
X108392586Y-91960965D01*
X108331263Y-91994450D01*
X108261571Y-91989466D01*
X108210615Y-91953816D01*
X108189296Y-91928855D01*
X108134870Y-91865130D01*
X108046179Y-91789381D01*
X108007989Y-91730878D01*
X108007489Y-91661010D01*
X108039032Y-91607413D01*
X109152743Y-90493703D01*
X109152742Y-90493702D01*
X109139514Y-90481171D01*
X109139513Y-90481170D01*
X108854632Y-90264611D01*
X108854629Y-90264609D01*
X108548009Y-90080123D01*
X108223260Y-89929877D01*
X108223255Y-89929876D01*
X107884144Y-89815616D01*
X107534660Y-89738688D01*
X107178924Y-89700000D01*
X106821075Y-89700000D01*
X106465339Y-89738688D01*
X106115855Y-89815616D01*
X105776744Y-89929876D01*
X105776739Y-89929877D01*
X105451990Y-90080123D01*
X105145370Y-90264609D01*
X105145367Y-90264611D01*
X104860491Y-90481166D01*
X104847256Y-90493703D01*
X104847255Y-90493703D01*
X105960966Y-91607413D01*
X105994451Y-91668736D01*
X105989467Y-91738428D01*
X105953817Y-91789384D01*
X105865130Y-91865130D01*
X105789384Y-91953817D01*
X105730877Y-91992010D01*
X105661009Y-91992508D01*
X105607413Y-91960966D01*
X104496442Y-90849994D01*
X104496441Y-90849995D01*
X104369040Y-90999983D01*
X104369033Y-90999993D01*
X104168218Y-91296172D01*
X104000606Y-91612322D01*
X104000597Y-91612340D01*
X103868149Y-91944760D01*
X103868147Y-91944767D01*
X103772421Y-92289542D01*
X103772415Y-92289568D01*
X103714527Y-92642668D01*
X103714526Y-92642685D01*
X103695153Y-92999997D01*
X103695153Y-93000002D01*
X100029299Y-93000002D01*
X100020973Y-9735388D01*
X100020699Y-7000002D01*
X103695153Y-7000002D01*
X103714526Y-7357314D01*
X103714527Y-7357331D01*
X103772415Y-7710431D01*
X103772421Y-7710457D01*
X103868147Y-8055232D01*
X103868149Y-8055239D01*
X104000597Y-8387659D01*
X104000606Y-8387677D01*
X104168218Y-8703827D01*
X104369033Y-9000007D01*
X104496441Y-9150003D01*
X104496442Y-9150004D01*
X105607413Y-8039032D01*
X105668736Y-8005547D01*
X105738427Y-8010531D01*
X105789381Y-8046179D01*
X105865130Y-8134870D01*
X105928855Y-8189296D01*
X105953816Y-8210615D01*
X105992009Y-8269122D01*
X105992507Y-8338990D01*
X105960965Y-8392586D01*
X104847255Y-9506295D01*
X104847256Y-9506296D01*
X104860485Y-9518828D01*
X104860486Y-9518829D01*
X105145367Y-9735388D01*
X105145370Y-9735390D01*
X105451990Y-9919876D01*
X105776739Y-10070122D01*
X105776744Y-10070123D01*
X106115855Y-10184383D01*
X106465339Y-10261311D01*
X106821075Y-10299999D01*
X106821085Y-10300000D01*
X107178915Y-10300000D01*
X107178924Y-10299999D01*
X107534660Y-10261311D01*
X107884144Y-10184383D01*
X108223255Y-10070123D01*
X108223260Y-10070122D01*
X108548009Y-9919876D01*
X108854629Y-9735390D01*
X108854632Y-9735388D01*
X109139504Y-9518836D01*
X109152742Y-9506294D01*
X108039033Y-8392586D01*
X108005548Y-8331263D01*
X108010532Y-8261571D01*
X108046180Y-8210617D01*
X108134870Y-8134870D01*
X108210617Y-8046180D01*
X108269121Y-8007990D01*
X108338989Y-8007490D01*
X108392586Y-8039033D01*
X109503556Y-9150003D01*
X109630964Y-9000008D01*
X109630975Y-8999994D01*
X109831781Y-8703827D01*
X109999393Y-8387677D01*
X109999402Y-8387659D01*
X110131850Y-8055239D01*
X110131852Y-8055232D01*
X110227578Y-7710457D01*
X110227584Y-7710431D01*
X110285472Y-7357331D01*
X110285473Y-7357314D01*
X110304847Y-7000002D01*
X189695153Y-7000002D01*
X189714526Y-7357314D01*
X189714527Y-7357331D01*
X189772415Y-7710431D01*
X189772421Y-7710457D01*
X189868147Y-8055232D01*
X189868149Y-8055239D01*
X190000597Y-8387659D01*
X190000606Y-8387677D01*
X190168218Y-8703827D01*
X190369033Y-9000007D01*
X190496441Y-9150003D01*
X190496442Y-9150004D01*
X191607413Y-8039032D01*
X191668736Y-8005547D01*
X191738427Y-8010531D01*
X191789381Y-8046179D01*
X191865130Y-8134870D01*
X191928855Y-8189296D01*
X191953816Y-8210615D01*
X191992009Y-8269122D01*
X191992507Y-8338990D01*
X191960965Y-8392586D01*
X190847255Y-9506295D01*
X190847256Y-9506296D01*
X190860485Y-9518828D01*
X190860486Y-9518829D01*
X191145367Y-9735388D01*
X191145370Y-9735390D01*
X191451990Y-9919876D01*
X191776739Y-10070122D01*
X191776744Y-10070123D01*
X192115855Y-10184383D01*
X192465339Y-10261311D01*
X192821075Y-10299999D01*
X192821085Y-10300000D01*
X193178915Y-10300000D01*
X193178924Y-10299999D01*
X193534660Y-10261311D01*
X193884144Y-10184383D01*
X194223255Y-10070123D01*
X194223260Y-10070122D01*
X194548009Y-9919876D01*
X194854629Y-9735390D01*
X194854632Y-9735388D01*
X195139504Y-9518836D01*
X195152742Y-9506294D01*
X194039033Y-8392586D01*
X194005548Y-8331263D01*
X194010532Y-8261571D01*
X194046180Y-8210617D01*
X194134870Y-8134870D01*
X194210617Y-8046180D01*
X194269121Y-8007990D01*
X194338989Y-8007490D01*
X194392586Y-8039033D01*
X195503556Y-9150003D01*
X195630964Y-9000008D01*
X195630975Y-8999994D01*
X195831781Y-8703827D01*
X195999393Y-8387677D01*
X195999402Y-8387659D01*
X196131850Y-8055239D01*
X196131852Y-8055232D01*
X196227578Y-7710457D01*
X196227584Y-7710431D01*
X196285472Y-7357331D01*
X196285473Y-7357314D01*
X196304846Y-7000002D01*
X196304846Y-6999997D01*
X196285473Y-6642685D01*
X196285472Y-6642668D01*
X196227584Y-6289568D01*
X196227578Y-6289542D01*
X196131852Y-5944767D01*
X196131850Y-5944760D01*
X195999402Y-5612340D01*
X195999393Y-5612322D01*
X195831781Y-5296172D01*
X195630966Y-4999992D01*
X195503557Y-4849995D01*
X195503556Y-4849994D01*
X194392586Y-5960965D01*
X194331263Y-5994450D01*
X194261571Y-5989466D01*
X194210615Y-5953816D01*
X194189296Y-5928855D01*
X194134870Y-5865130D01*
X194046179Y-5789381D01*
X194007989Y-5730878D01*
X194007489Y-5661010D01*
X194039032Y-5607413D01*
X195152743Y-4493703D01*
X195152742Y-4493702D01*
X195139514Y-4481171D01*
X195139513Y-4481170D01*
X194854632Y-4264611D01*
X194854629Y-4264609D01*
X194548009Y-4080123D01*
X194223260Y-3929877D01*
X194223255Y-3929876D01*
X193884144Y-3815616D01*
X193534660Y-3738688D01*
X193178924Y-3700000D01*
X192821075Y-3700000D01*
X192465339Y-3738688D01*
X192115855Y-3815616D01*
X191776744Y-3929876D01*
X191776739Y-3929877D01*
X191451990Y-4080123D01*
X191145370Y-4264609D01*
X191145367Y-4264611D01*
X190860491Y-4481166D01*
X190847256Y-4493703D01*
X190847255Y-4493703D01*
X191960966Y-5607413D01*
X191994451Y-5668736D01*
X191989467Y-5738428D01*
X191953817Y-5789384D01*
X191865130Y-5865130D01*
X191789384Y-5953817D01*
X191730877Y-5992010D01*
X191661009Y-5992508D01*
X191607413Y-5960966D01*
X190496442Y-4849994D01*
X190496441Y-4849995D01*
X190369040Y-4999983D01*
X190369033Y-4999993D01*
X190168218Y-5296172D01*
X190000606Y-5612322D01*
X190000597Y-5612340D01*
X189868149Y-5944760D01*
X189868147Y-5944767D01*
X189772421Y-6289542D01*
X189772415Y-6289568D01*
X189714527Y-6642668D01*
X189714526Y-6642685D01*
X189695153Y-6999997D01*
X189695153Y-7000002D01*
X110304847Y-7000002D01*
X110304847Y-6999997D01*
X110285473Y-6642685D01*
X110285472Y-6642668D01*
X110227584Y-6289568D01*
X110227578Y-6289542D01*
X110131852Y-5944767D01*
X110131850Y-5944760D01*
X109999402Y-5612340D01*
X109999393Y-5612322D01*
X109831781Y-5296172D01*
X109630966Y-4999992D01*
X109503557Y-4849995D01*
X109503556Y-4849994D01*
X108392586Y-5960965D01*
X108331263Y-5994450D01*
X108261571Y-5989466D01*
X108210615Y-5953816D01*
X108189296Y-5928855D01*
X108134870Y-5865130D01*
X108046179Y-5789381D01*
X108007989Y-5730878D01*
X108007489Y-5661010D01*
X108039032Y-5607413D01*
X109152743Y-4493703D01*
X109152742Y-4493702D01*
X109139514Y-4481171D01*
X109139513Y-4481170D01*
X108854632Y-4264611D01*
X108854629Y-4264609D01*
X108548009Y-4080123D01*
X108223260Y-3929877D01*
X108223255Y-3929876D01*
X107884144Y-3815616D01*
X107534660Y-3738688D01*
X107178924Y-3700000D01*
X106821075Y-3700000D01*
X106465339Y-3738688D01*
X106115855Y-3815616D01*
X105776744Y-3929876D01*
X105776739Y-3929877D01*
X105451990Y-4080123D01*
X105145370Y-4264609D01*
X105145367Y-4264611D01*
X104860491Y-4481166D01*
X104847256Y-4493703D01*
X104847255Y-4493703D01*
X105960966Y-5607413D01*
X105994451Y-5668736D01*
X105989467Y-5738428D01*
X105953817Y-5789384D01*
X105865130Y-5865130D01*
X105789384Y-5953817D01*
X105730877Y-5992010D01*
X105661009Y-5992508D01*
X105607413Y-5960966D01*
X104496442Y-4849994D01*
X104496441Y-4849995D01*
X104369040Y-4999983D01*
X104369033Y-4999993D01*
X104168218Y-5296172D01*
X104000606Y-5612322D01*
X104000597Y-5612340D01*
X103868149Y-5944760D01*
X103868147Y-5944767D01*
X103772421Y-6289542D01*
X103772415Y-6289568D01*
X103714527Y-6642668D01*
X103714526Y-6642685D01*
X103695153Y-6999997D01*
X103695153Y-7000002D01*
X100020699Y-7000002D01*
X100020012Y-124510D01*
X100039690Y-57471D01*
X100092489Y-11711D01*
X100144012Y-500D01*
X105018500Y-500D01*
X199865751Y-9987D01*
G37*
%TD.AperFunction*%
%TD*%
M02*
