%TF.GenerationSoftware,KiCad,Pcbnew,7.0.7*%
%TF.CreationDate,2023-11-05T15:56:38+00:00*%
%TF.ProjectId,RF_Screen,52465f53-6372-4656-956e-2e6b69636164,rev?*%
%TF.SameCoordinates,Original*%
%TF.FileFunction,Legend,Bot*%
%TF.FilePolarity,Positive*%
%FSLAX46Y46*%
G04 Gerber Fmt 4.6, Leading zero omitted, Abs format (unit mm)*
G04 Created by KiCad (PCBNEW 7.0.7) date 2023-11-05 15:56:38*
%MOMM*%
%LPD*%
G01*
G04 APERTURE LIST*
%ADD10C,0.150000*%
%ADD11C,5.600000*%
G04 APERTURE END LIST*
D10*
X158341792Y-46529819D02*
X158675125Y-46053628D01*
X158913220Y-46529819D02*
X158913220Y-45529819D01*
X158913220Y-45529819D02*
X158532268Y-45529819D01*
X158532268Y-45529819D02*
X158437030Y-45577438D01*
X158437030Y-45577438D02*
X158389411Y-45625057D01*
X158389411Y-45625057D02*
X158341792Y-45720295D01*
X158341792Y-45720295D02*
X158341792Y-45863152D01*
X158341792Y-45863152D02*
X158389411Y-45958390D01*
X158389411Y-45958390D02*
X158437030Y-46006009D01*
X158437030Y-46006009D02*
X158532268Y-46053628D01*
X158532268Y-46053628D02*
X158913220Y-46053628D01*
X157579887Y-46006009D02*
X157913220Y-46006009D01*
X157913220Y-46529819D02*
X157913220Y-45529819D01*
X157913220Y-45529819D02*
X157437030Y-45529819D01*
X156341791Y-46482200D02*
X156198934Y-46529819D01*
X156198934Y-46529819D02*
X155960839Y-46529819D01*
X155960839Y-46529819D02*
X155865601Y-46482200D01*
X155865601Y-46482200D02*
X155817982Y-46434580D01*
X155817982Y-46434580D02*
X155770363Y-46339342D01*
X155770363Y-46339342D02*
X155770363Y-46244104D01*
X155770363Y-46244104D02*
X155817982Y-46148866D01*
X155817982Y-46148866D02*
X155865601Y-46101247D01*
X155865601Y-46101247D02*
X155960839Y-46053628D01*
X155960839Y-46053628D02*
X156151315Y-46006009D01*
X156151315Y-46006009D02*
X156246553Y-45958390D01*
X156246553Y-45958390D02*
X156294172Y-45910771D01*
X156294172Y-45910771D02*
X156341791Y-45815533D01*
X156341791Y-45815533D02*
X156341791Y-45720295D01*
X156341791Y-45720295D02*
X156294172Y-45625057D01*
X156294172Y-45625057D02*
X156246553Y-45577438D01*
X156246553Y-45577438D02*
X156151315Y-45529819D01*
X156151315Y-45529819D02*
X155913220Y-45529819D01*
X155913220Y-45529819D02*
X155770363Y-45577438D01*
X154913220Y-46482200D02*
X155008458Y-46529819D01*
X155008458Y-46529819D02*
X155198934Y-46529819D01*
X155198934Y-46529819D02*
X155294172Y-46482200D01*
X155294172Y-46482200D02*
X155341791Y-46434580D01*
X155341791Y-46434580D02*
X155389410Y-46339342D01*
X155389410Y-46339342D02*
X155389410Y-46053628D01*
X155389410Y-46053628D02*
X155341791Y-45958390D01*
X155341791Y-45958390D02*
X155294172Y-45910771D01*
X155294172Y-45910771D02*
X155198934Y-45863152D01*
X155198934Y-45863152D02*
X155008458Y-45863152D01*
X155008458Y-45863152D02*
X154913220Y-45910771D01*
X154484648Y-46529819D02*
X154484648Y-45863152D01*
X154484648Y-46053628D02*
X154437029Y-45958390D01*
X154437029Y-45958390D02*
X154389410Y-45910771D01*
X154389410Y-45910771D02*
X154294172Y-45863152D01*
X154294172Y-45863152D02*
X154198934Y-45863152D01*
X153484648Y-46482200D02*
X153579886Y-46529819D01*
X153579886Y-46529819D02*
X153770362Y-46529819D01*
X153770362Y-46529819D02*
X153865600Y-46482200D01*
X153865600Y-46482200D02*
X153913219Y-46386961D01*
X153913219Y-46386961D02*
X153913219Y-46006009D01*
X153913219Y-46006009D02*
X153865600Y-45910771D01*
X153865600Y-45910771D02*
X153770362Y-45863152D01*
X153770362Y-45863152D02*
X153579886Y-45863152D01*
X153579886Y-45863152D02*
X153484648Y-45910771D01*
X153484648Y-45910771D02*
X153437029Y-46006009D01*
X153437029Y-46006009D02*
X153437029Y-46101247D01*
X153437029Y-46101247D02*
X153913219Y-46196485D01*
X152627505Y-46482200D02*
X152722743Y-46529819D01*
X152722743Y-46529819D02*
X152913219Y-46529819D01*
X152913219Y-46529819D02*
X153008457Y-46482200D01*
X153008457Y-46482200D02*
X153056076Y-46386961D01*
X153056076Y-46386961D02*
X153056076Y-46006009D01*
X153056076Y-46006009D02*
X153008457Y-45910771D01*
X153008457Y-45910771D02*
X152913219Y-45863152D01*
X152913219Y-45863152D02*
X152722743Y-45863152D01*
X152722743Y-45863152D02*
X152627505Y-45910771D01*
X152627505Y-45910771D02*
X152579886Y-46006009D01*
X152579886Y-46006009D02*
X152579886Y-46101247D01*
X152579886Y-46101247D02*
X153056076Y-46196485D01*
X152151314Y-45863152D02*
X152151314Y-46529819D01*
X152151314Y-45958390D02*
X152103695Y-45910771D01*
X152103695Y-45910771D02*
X152008457Y-45863152D01*
X152008457Y-45863152D02*
X151865600Y-45863152D01*
X151865600Y-45863152D02*
X151770362Y-45910771D01*
X151770362Y-45910771D02*
X151722743Y-46006009D01*
X151722743Y-46006009D02*
X151722743Y-46529819D01*
X150627504Y-45863152D02*
X150246552Y-45863152D01*
X150484647Y-46529819D02*
X150484647Y-45672676D01*
X150484647Y-45672676D02*
X150437028Y-45577438D01*
X150437028Y-45577438D02*
X150341790Y-45529819D01*
X150341790Y-45529819D02*
X150246552Y-45529819D01*
X149770361Y-46529819D02*
X149865599Y-46482200D01*
X149865599Y-46482200D02*
X149913218Y-46434580D01*
X149913218Y-46434580D02*
X149960837Y-46339342D01*
X149960837Y-46339342D02*
X149960837Y-46053628D01*
X149960837Y-46053628D02*
X149913218Y-45958390D01*
X149913218Y-45958390D02*
X149865599Y-45910771D01*
X149865599Y-45910771D02*
X149770361Y-45863152D01*
X149770361Y-45863152D02*
X149627504Y-45863152D01*
X149627504Y-45863152D02*
X149532266Y-45910771D01*
X149532266Y-45910771D02*
X149484647Y-45958390D01*
X149484647Y-45958390D02*
X149437028Y-46053628D01*
X149437028Y-46053628D02*
X149437028Y-46339342D01*
X149437028Y-46339342D02*
X149484647Y-46434580D01*
X149484647Y-46434580D02*
X149532266Y-46482200D01*
X149532266Y-46482200D02*
X149627504Y-46529819D01*
X149627504Y-46529819D02*
X149770361Y-46529819D01*
X149008456Y-46529819D02*
X149008456Y-45863152D01*
X149008456Y-46053628D02*
X148960837Y-45958390D01*
X148960837Y-45958390D02*
X148913218Y-45910771D01*
X148913218Y-45910771D02*
X148817980Y-45863152D01*
X148817980Y-45863152D02*
X148722742Y-45863152D01*
X158341792Y-48139819D02*
X158675125Y-47663628D01*
X158913220Y-48139819D02*
X158913220Y-47139819D01*
X158913220Y-47139819D02*
X158532268Y-47139819D01*
X158532268Y-47139819D02*
X158437030Y-47187438D01*
X158437030Y-47187438D02*
X158389411Y-47235057D01*
X158389411Y-47235057D02*
X158341792Y-47330295D01*
X158341792Y-47330295D02*
X158341792Y-47473152D01*
X158341792Y-47473152D02*
X158389411Y-47568390D01*
X158389411Y-47568390D02*
X158437030Y-47616009D01*
X158437030Y-47616009D02*
X158532268Y-47663628D01*
X158532268Y-47663628D02*
X158913220Y-47663628D01*
X157960839Y-47854104D02*
X157484649Y-47854104D01*
X158056077Y-48139819D02*
X157722744Y-47139819D01*
X157722744Y-47139819D02*
X157389411Y-48139819D01*
X157056077Y-48139819D02*
X157056077Y-47139819D01*
X157056077Y-47139819D02*
X156817982Y-47139819D01*
X156817982Y-47139819D02*
X156675125Y-47187438D01*
X156675125Y-47187438D02*
X156579887Y-47282676D01*
X156579887Y-47282676D02*
X156532268Y-47377914D01*
X156532268Y-47377914D02*
X156484649Y-47568390D01*
X156484649Y-47568390D02*
X156484649Y-47711247D01*
X156484649Y-47711247D02*
X156532268Y-47901723D01*
X156532268Y-47901723D02*
X156579887Y-47996961D01*
X156579887Y-47996961D02*
X156675125Y-48092200D01*
X156675125Y-48092200D02*
X156817982Y-48139819D01*
X156817982Y-48139819D02*
X157056077Y-48139819D01*
X156103696Y-47854104D02*
X155627506Y-47854104D01*
X156198934Y-48139819D02*
X155865601Y-47139819D01*
X155865601Y-47139819D02*
X155532268Y-48139819D01*
X154627506Y-48139819D02*
X154960839Y-47663628D01*
X155198934Y-48139819D02*
X155198934Y-47139819D01*
X155198934Y-47139819D02*
X154817982Y-47139819D01*
X154817982Y-47139819D02*
X154722744Y-47187438D01*
X154722744Y-47187438D02*
X154675125Y-47235057D01*
X154675125Y-47235057D02*
X154627506Y-47330295D01*
X154627506Y-47330295D02*
X154627506Y-47473152D01*
X154627506Y-47473152D02*
X154675125Y-47568390D01*
X154675125Y-47568390D02*
X154722744Y-47616009D01*
X154722744Y-47616009D02*
X154817982Y-47663628D01*
X154817982Y-47663628D02*
X155198934Y-47663628D01*
X153627506Y-48044580D02*
X153675125Y-48092200D01*
X153675125Y-48092200D02*
X153817982Y-48139819D01*
X153817982Y-48139819D02*
X153913220Y-48139819D01*
X153913220Y-48139819D02*
X154056077Y-48092200D01*
X154056077Y-48092200D02*
X154151315Y-47996961D01*
X154151315Y-47996961D02*
X154198934Y-47901723D01*
X154198934Y-47901723D02*
X154246553Y-47711247D01*
X154246553Y-47711247D02*
X154246553Y-47568390D01*
X154246553Y-47568390D02*
X154198934Y-47377914D01*
X154198934Y-47377914D02*
X154151315Y-47282676D01*
X154151315Y-47282676D02*
X154056077Y-47187438D01*
X154056077Y-47187438D02*
X153913220Y-47139819D01*
X153913220Y-47139819D02*
X153817982Y-47139819D01*
X153817982Y-47139819D02*
X153675125Y-47187438D01*
X153675125Y-47187438D02*
X153627506Y-47235057D01*
X152484648Y-47235057D02*
X152437029Y-47187438D01*
X152437029Y-47187438D02*
X152341791Y-47139819D01*
X152341791Y-47139819D02*
X152103696Y-47139819D01*
X152103696Y-47139819D02*
X152008458Y-47187438D01*
X152008458Y-47187438D02*
X151960839Y-47235057D01*
X151960839Y-47235057D02*
X151913220Y-47330295D01*
X151913220Y-47330295D02*
X151913220Y-47425533D01*
X151913220Y-47425533D02*
X151960839Y-47568390D01*
X151960839Y-47568390D02*
X152532267Y-48139819D01*
X152532267Y-48139819D02*
X151913220Y-48139819D01*
X151484648Y-48139819D02*
X151484648Y-47139819D01*
X151484648Y-47139819D02*
X151151315Y-47854104D01*
X151151315Y-47854104D02*
X150817982Y-47139819D01*
X150817982Y-47139819D02*
X150817982Y-48139819D01*
X149722743Y-47139819D02*
X149151315Y-47139819D01*
X149437029Y-48139819D02*
X149437029Y-47139819D01*
X148817981Y-48139819D02*
X148817981Y-47473152D01*
X148817981Y-47663628D02*
X148770362Y-47568390D01*
X148770362Y-47568390D02*
X148722743Y-47520771D01*
X148722743Y-47520771D02*
X148627505Y-47473152D01*
X148627505Y-47473152D02*
X148532267Y-47473152D01*
X147770362Y-48139819D02*
X147770362Y-47616009D01*
X147770362Y-47616009D02*
X147817981Y-47520771D01*
X147817981Y-47520771D02*
X147913219Y-47473152D01*
X147913219Y-47473152D02*
X148103695Y-47473152D01*
X148103695Y-47473152D02*
X148198933Y-47520771D01*
X147770362Y-48092200D02*
X147865600Y-48139819D01*
X147865600Y-48139819D02*
X148103695Y-48139819D01*
X148103695Y-48139819D02*
X148198933Y-48092200D01*
X148198933Y-48092200D02*
X148246552Y-47996961D01*
X148246552Y-47996961D02*
X148246552Y-47901723D01*
X148246552Y-47901723D02*
X148198933Y-47806485D01*
X148198933Y-47806485D02*
X148103695Y-47758866D01*
X148103695Y-47758866D02*
X147865600Y-47758866D01*
X147865600Y-47758866D02*
X147770362Y-47711247D01*
X147294171Y-47473152D02*
X147294171Y-48139819D01*
X147294171Y-47568390D02*
X147246552Y-47520771D01*
X147246552Y-47520771D02*
X147151314Y-47473152D01*
X147151314Y-47473152D02*
X147008457Y-47473152D01*
X147008457Y-47473152D02*
X146913219Y-47520771D01*
X146913219Y-47520771D02*
X146865600Y-47616009D01*
X146865600Y-47616009D02*
X146865600Y-48139819D01*
X146437028Y-48092200D02*
X146341790Y-48139819D01*
X146341790Y-48139819D02*
X146151314Y-48139819D01*
X146151314Y-48139819D02*
X146056076Y-48092200D01*
X146056076Y-48092200D02*
X146008457Y-47996961D01*
X146008457Y-47996961D02*
X146008457Y-47949342D01*
X146008457Y-47949342D02*
X146056076Y-47854104D01*
X146056076Y-47854104D02*
X146151314Y-47806485D01*
X146151314Y-47806485D02*
X146294171Y-47806485D01*
X146294171Y-47806485D02*
X146389409Y-47758866D01*
X146389409Y-47758866D02*
X146437028Y-47663628D01*
X146437028Y-47663628D02*
X146437028Y-47616009D01*
X146437028Y-47616009D02*
X146389409Y-47520771D01*
X146389409Y-47520771D02*
X146294171Y-47473152D01*
X146294171Y-47473152D02*
X146151314Y-47473152D01*
X146151314Y-47473152D02*
X146056076Y-47520771D01*
X145151314Y-48092200D02*
X145246552Y-48139819D01*
X145246552Y-48139819D02*
X145437028Y-48139819D01*
X145437028Y-48139819D02*
X145532266Y-48092200D01*
X145532266Y-48092200D02*
X145579885Y-48044580D01*
X145579885Y-48044580D02*
X145627504Y-47949342D01*
X145627504Y-47949342D02*
X145627504Y-47663628D01*
X145627504Y-47663628D02*
X145579885Y-47568390D01*
X145579885Y-47568390D02*
X145532266Y-47520771D01*
X145532266Y-47520771D02*
X145437028Y-47473152D01*
X145437028Y-47473152D02*
X145246552Y-47473152D01*
X145246552Y-47473152D02*
X145151314Y-47520771D01*
X144722742Y-48139819D02*
X144722742Y-47473152D01*
X144722742Y-47139819D02*
X144770361Y-47187438D01*
X144770361Y-47187438D02*
X144722742Y-47235057D01*
X144722742Y-47235057D02*
X144675123Y-47187438D01*
X144675123Y-47187438D02*
X144722742Y-47139819D01*
X144722742Y-47139819D02*
X144722742Y-47235057D01*
X143865600Y-48092200D02*
X143960838Y-48139819D01*
X143960838Y-48139819D02*
X144151314Y-48139819D01*
X144151314Y-48139819D02*
X144246552Y-48092200D01*
X144246552Y-48092200D02*
X144294171Y-47996961D01*
X144294171Y-47996961D02*
X144294171Y-47616009D01*
X144294171Y-47616009D02*
X144246552Y-47520771D01*
X144246552Y-47520771D02*
X144151314Y-47473152D01*
X144151314Y-47473152D02*
X143960838Y-47473152D01*
X143960838Y-47473152D02*
X143865600Y-47520771D01*
X143865600Y-47520771D02*
X143817981Y-47616009D01*
X143817981Y-47616009D02*
X143817981Y-47711247D01*
X143817981Y-47711247D02*
X144294171Y-47806485D01*
X143484647Y-47473152D02*
X143246552Y-48139819D01*
X143246552Y-48139819D02*
X143008457Y-47473152D01*
X142246552Y-48092200D02*
X142341790Y-48139819D01*
X142341790Y-48139819D02*
X142532266Y-48139819D01*
X142532266Y-48139819D02*
X142627504Y-48092200D01*
X142627504Y-48092200D02*
X142675123Y-47996961D01*
X142675123Y-47996961D02*
X142675123Y-47616009D01*
X142675123Y-47616009D02*
X142627504Y-47520771D01*
X142627504Y-47520771D02*
X142532266Y-47473152D01*
X142532266Y-47473152D02*
X142341790Y-47473152D01*
X142341790Y-47473152D02*
X142246552Y-47520771D01*
X142246552Y-47520771D02*
X142198933Y-47616009D01*
X142198933Y-47616009D02*
X142198933Y-47711247D01*
X142198933Y-47711247D02*
X142675123Y-47806485D01*
X141770361Y-48139819D02*
X141770361Y-47473152D01*
X141770361Y-47663628D02*
X141722742Y-47568390D01*
X141722742Y-47568390D02*
X141675123Y-47520771D01*
X141675123Y-47520771D02*
X141579885Y-47473152D01*
X141579885Y-47473152D02*
X141484647Y-47473152D01*
X158389411Y-48797438D02*
X158484649Y-48749819D01*
X158484649Y-48749819D02*
X158627506Y-48749819D01*
X158627506Y-48749819D02*
X158770363Y-48797438D01*
X158770363Y-48797438D02*
X158865601Y-48892676D01*
X158865601Y-48892676D02*
X158913220Y-48987914D01*
X158913220Y-48987914D02*
X158960839Y-49178390D01*
X158960839Y-49178390D02*
X158960839Y-49321247D01*
X158960839Y-49321247D02*
X158913220Y-49511723D01*
X158913220Y-49511723D02*
X158865601Y-49606961D01*
X158865601Y-49606961D02*
X158770363Y-49702200D01*
X158770363Y-49702200D02*
X158627506Y-49749819D01*
X158627506Y-49749819D02*
X158532268Y-49749819D01*
X158532268Y-49749819D02*
X158389411Y-49702200D01*
X158389411Y-49702200D02*
X158341792Y-49654580D01*
X158341792Y-49654580D02*
X158341792Y-49321247D01*
X158341792Y-49321247D02*
X158532268Y-49321247D01*
X157913220Y-49749819D02*
X157913220Y-48749819D01*
X157913220Y-48749819D02*
X157341792Y-49749819D01*
X157341792Y-49749819D02*
X157341792Y-48749819D01*
X156865601Y-49749819D02*
X156865601Y-48749819D01*
X156865601Y-48749819D02*
X156627506Y-48749819D01*
X156627506Y-48749819D02*
X156484649Y-48797438D01*
X156484649Y-48797438D02*
X156389411Y-48892676D01*
X156389411Y-48892676D02*
X156341792Y-48987914D01*
X156341792Y-48987914D02*
X156294173Y-49178390D01*
X156294173Y-49178390D02*
X156294173Y-49321247D01*
X156294173Y-49321247D02*
X156341792Y-49511723D01*
X156341792Y-49511723D02*
X156389411Y-49606961D01*
X156389411Y-49606961D02*
X156484649Y-49702200D01*
X156484649Y-49702200D02*
X156627506Y-49749819D01*
X156627506Y-49749819D02*
X156865601Y-49749819D01*
X155198934Y-49083152D02*
X154960839Y-49749819D01*
X154960839Y-49749819D02*
X154722744Y-49083152D01*
X154341791Y-49749819D02*
X154341791Y-49083152D01*
X154341791Y-48749819D02*
X154389410Y-48797438D01*
X154389410Y-48797438D02*
X154341791Y-48845057D01*
X154341791Y-48845057D02*
X154294172Y-48797438D01*
X154294172Y-48797438D02*
X154341791Y-48749819D01*
X154341791Y-48749819D02*
X154341791Y-48845057D01*
X153437030Y-49749819D02*
X153437030Y-49226009D01*
X153437030Y-49226009D02*
X153484649Y-49130771D01*
X153484649Y-49130771D02*
X153579887Y-49083152D01*
X153579887Y-49083152D02*
X153770363Y-49083152D01*
X153770363Y-49083152D02*
X153865601Y-49130771D01*
X153437030Y-49702200D02*
X153532268Y-49749819D01*
X153532268Y-49749819D02*
X153770363Y-49749819D01*
X153770363Y-49749819D02*
X153865601Y-49702200D01*
X153865601Y-49702200D02*
X153913220Y-49606961D01*
X153913220Y-49606961D02*
X153913220Y-49511723D01*
X153913220Y-49511723D02*
X153865601Y-49416485D01*
X153865601Y-49416485D02*
X153770363Y-49368866D01*
X153770363Y-49368866D02*
X153532268Y-49368866D01*
X153532268Y-49368866D02*
X153437030Y-49321247D01*
X152198934Y-49083152D02*
X152198934Y-50083152D01*
X152198934Y-49130771D02*
X152103696Y-49083152D01*
X152103696Y-49083152D02*
X151913220Y-49083152D01*
X151913220Y-49083152D02*
X151817982Y-49130771D01*
X151817982Y-49130771D02*
X151770363Y-49178390D01*
X151770363Y-49178390D02*
X151722744Y-49273628D01*
X151722744Y-49273628D02*
X151722744Y-49559342D01*
X151722744Y-49559342D02*
X151770363Y-49654580D01*
X151770363Y-49654580D02*
X151817982Y-49702200D01*
X151817982Y-49702200D02*
X151913220Y-49749819D01*
X151913220Y-49749819D02*
X152103696Y-49749819D01*
X152103696Y-49749819D02*
X152198934Y-49702200D01*
X151294172Y-49749819D02*
X151294172Y-49083152D01*
X151294172Y-48749819D02*
X151341791Y-48797438D01*
X151341791Y-48797438D02*
X151294172Y-48845057D01*
X151294172Y-48845057D02*
X151246553Y-48797438D01*
X151246553Y-48797438D02*
X151294172Y-48749819D01*
X151294172Y-48749819D02*
X151294172Y-48845057D01*
X150675125Y-49749819D02*
X150770363Y-49702200D01*
X150770363Y-49702200D02*
X150817982Y-49606961D01*
X150817982Y-49606961D02*
X150817982Y-48749819D01*
X150151315Y-49749819D02*
X150246553Y-49702200D01*
X150246553Y-49702200D02*
X150294172Y-49606961D01*
X150294172Y-49606961D02*
X150294172Y-48749819D01*
X149341791Y-49749819D02*
X149341791Y-49226009D01*
X149341791Y-49226009D02*
X149389410Y-49130771D01*
X149389410Y-49130771D02*
X149484648Y-49083152D01*
X149484648Y-49083152D02*
X149675124Y-49083152D01*
X149675124Y-49083152D02*
X149770362Y-49130771D01*
X149341791Y-49702200D02*
X149437029Y-49749819D01*
X149437029Y-49749819D02*
X149675124Y-49749819D01*
X149675124Y-49749819D02*
X149770362Y-49702200D01*
X149770362Y-49702200D02*
X149817981Y-49606961D01*
X149817981Y-49606961D02*
X149817981Y-49511723D01*
X149817981Y-49511723D02*
X149770362Y-49416485D01*
X149770362Y-49416485D02*
X149675124Y-49368866D01*
X149675124Y-49368866D02*
X149437029Y-49368866D01*
X149437029Y-49368866D02*
X149341791Y-49321247D01*
X148865600Y-49749819D02*
X148865600Y-49083152D01*
X148865600Y-49273628D02*
X148817981Y-49178390D01*
X148817981Y-49178390D02*
X148770362Y-49130771D01*
X148770362Y-49130771D02*
X148675124Y-49083152D01*
X148675124Y-49083152D02*
X148579886Y-49083152D01*
X147484647Y-49749819D02*
X147484647Y-48749819D01*
X147056076Y-49749819D02*
X147056076Y-49226009D01*
X147056076Y-49226009D02*
X147103695Y-49130771D01*
X147103695Y-49130771D02*
X147198933Y-49083152D01*
X147198933Y-49083152D02*
X147341790Y-49083152D01*
X147341790Y-49083152D02*
X147437028Y-49130771D01*
X147437028Y-49130771D02*
X147484647Y-49178390D01*
X146437028Y-49749819D02*
X146532266Y-49702200D01*
X146532266Y-49702200D02*
X146579885Y-49654580D01*
X146579885Y-49654580D02*
X146627504Y-49559342D01*
X146627504Y-49559342D02*
X146627504Y-49273628D01*
X146627504Y-49273628D02*
X146579885Y-49178390D01*
X146579885Y-49178390D02*
X146532266Y-49130771D01*
X146532266Y-49130771D02*
X146437028Y-49083152D01*
X146437028Y-49083152D02*
X146294171Y-49083152D01*
X146294171Y-49083152D02*
X146198933Y-49130771D01*
X146198933Y-49130771D02*
X146151314Y-49178390D01*
X146151314Y-49178390D02*
X146103695Y-49273628D01*
X146103695Y-49273628D02*
X146103695Y-49559342D01*
X146103695Y-49559342D02*
X146151314Y-49654580D01*
X146151314Y-49654580D02*
X146198933Y-49702200D01*
X146198933Y-49702200D02*
X146294171Y-49749819D01*
X146294171Y-49749819D02*
X146437028Y-49749819D01*
X145532266Y-49749819D02*
X145627504Y-49702200D01*
X145627504Y-49702200D02*
X145675123Y-49606961D01*
X145675123Y-49606961D02*
X145675123Y-48749819D01*
X144770361Y-49702200D02*
X144865599Y-49749819D01*
X144865599Y-49749819D02*
X145056075Y-49749819D01*
X145056075Y-49749819D02*
X145151313Y-49702200D01*
X145151313Y-49702200D02*
X145198932Y-49606961D01*
X145198932Y-49606961D02*
X145198932Y-49226009D01*
X145198932Y-49226009D02*
X145151313Y-49130771D01*
X145151313Y-49130771D02*
X145056075Y-49083152D01*
X145056075Y-49083152D02*
X144865599Y-49083152D01*
X144865599Y-49083152D02*
X144770361Y-49130771D01*
X144770361Y-49130771D02*
X144722742Y-49226009D01*
X144722742Y-49226009D02*
X144722742Y-49321247D01*
X144722742Y-49321247D02*
X145198932Y-49416485D01*
X144341789Y-49702200D02*
X144246551Y-49749819D01*
X144246551Y-49749819D02*
X144056075Y-49749819D01*
X144056075Y-49749819D02*
X143960837Y-49702200D01*
X143960837Y-49702200D02*
X143913218Y-49606961D01*
X143913218Y-49606961D02*
X143913218Y-49559342D01*
X143913218Y-49559342D02*
X143960837Y-49464104D01*
X143960837Y-49464104D02*
X144056075Y-49416485D01*
X144056075Y-49416485D02*
X144198932Y-49416485D01*
X144198932Y-49416485D02*
X144294170Y-49368866D01*
X144294170Y-49368866D02*
X144341789Y-49273628D01*
X144341789Y-49273628D02*
X144341789Y-49226009D01*
X144341789Y-49226009D02*
X144294170Y-49130771D01*
X144294170Y-49130771D02*
X144198932Y-49083152D01*
X144198932Y-49083152D02*
X144056075Y-49083152D01*
X144056075Y-49083152D02*
X143960837Y-49130771D01*
%LPC*%
D11*
%TO.C,H4*%
X193000000Y-7000000D03*
%TD*%
%TO.C,H3*%
X193000000Y-93000000D03*
%TD*%
%TO.C,H1*%
X107000000Y-7000000D03*
%TD*%
%TO.C,H2*%
X107000000Y-93000000D03*
%TD*%
G36*
X105059999Y-20000D02*
G01*
X105185933Y-19971D01*
X105252977Y-39640D01*
X105298745Y-92434D01*
X105309962Y-144008D01*
X105308546Y-4866050D01*
X105288841Y-4933084D01*
X105236024Y-4978823D01*
X105184533Y-4990013D01*
X105058508Y-4989999D01*
X105031487Y-95089988D01*
X105157338Y-95089876D01*
X105224395Y-95109500D01*
X105270197Y-95162263D01*
X105281449Y-95213913D01*
X105280052Y-99876037D01*
X105260347Y-99943071D01*
X105207530Y-99988810D01*
X105156052Y-100000000D01*
X100124067Y-100000000D01*
X100057028Y-99980315D01*
X100011273Y-99927511D01*
X100000067Y-99875938D01*
X100049937Y-134185D01*
X100069655Y-67155D01*
X100122482Y-21427D01*
X100174185Y-10247D01*
X105059999Y-20000D01*
G37*
G36*
X194942790Y-19712D02*
G01*
X194988545Y-72516D01*
X194999751Y-124275D01*
X194998260Y-869677D01*
X194978441Y-936677D01*
X194925546Y-982326D01*
X194856367Y-992131D01*
X194792870Y-962979D01*
X194755213Y-904126D01*
X194750260Y-869466D01*
X194750037Y-124064D01*
X194769702Y-57019D01*
X194822492Y-11248D01*
X194874037Y-27D01*
X194875751Y-27D01*
X194942790Y-19712D01*
G37*
G36*
X199943039Y-19685D02*
G01*
X199988794Y-72489D01*
X200000000Y-124000D01*
X200000000Y-99867209D01*
X199980315Y-99934248D01*
X199927511Y-99980003D01*
X199876737Y-99991207D01*
X198396667Y-100000000D01*
X194903957Y-100000000D01*
X194836918Y-99980315D01*
X194791163Y-99927511D01*
X194779957Y-99876037D01*
X194778534Y-95134175D01*
X194798198Y-95067130D01*
X194850989Y-95021359D01*
X194902424Y-95010138D01*
X195028496Y-95010026D01*
X195000037Y-124037D01*
X195019701Y-56992D01*
X195072492Y-11221D01*
X195124037Y0D01*
X199876000Y0D01*
X199943039Y-19685D01*
G37*
G36*
X195192792Y-19685D02*
G01*
X195238547Y-72489D01*
X195249753Y-124248D01*
X195248260Y-870176D01*
X195228441Y-937176D01*
X195175546Y-982825D01*
X195106367Y-992630D01*
X195042870Y-963478D01*
X195005213Y-904625D01*
X195000260Y-869965D01*
X195000037Y-124037D01*
X195019702Y-56992D01*
X195072492Y-11221D01*
X195124037Y0D01*
X195125753Y0D01*
X195192792Y-19685D01*
G37*
G36*
X194942767Y-19697D02*
G01*
X194988534Y-72490D01*
X194999751Y-124275D01*
X194990247Y-4876234D01*
X194970428Y-4943234D01*
X194917533Y-4988883D01*
X194866233Y-4999986D01*
X105058508Y-4989999D01*
X105058493Y-5039815D01*
X105038788Y-5106848D01*
X104985970Y-5152587D01*
X104916808Y-5162509D01*
X104853262Y-5133465D01*
X104822369Y-5092732D01*
X104820309Y-5088369D01*
X104817992Y-5082772D01*
X104811783Y-5065416D01*
X104810016Y-5059587D01*
X104805537Y-5041701D01*
X104804350Y-5035727D01*
X104801646Y-5017483D01*
X104801051Y-5011425D01*
X104800077Y-4991562D01*
X104800003Y-4988403D01*
X104809750Y-143498D01*
X104829570Y-76498D01*
X104882466Y-30849D01*
X104933999Y-19747D01*
X105060001Y-20000D01*
X194875723Y-27D01*
X194942767Y-19697D01*
G37*
G36*
X195233646Y-94831115D02*
G01*
X195244278Y-94841501D01*
X195251065Y-94848976D01*
X195254929Y-94853676D01*
X195265924Y-94868474D01*
X195269312Y-94873534D01*
X195278809Y-94889348D01*
X195281683Y-94894712D01*
X195289577Y-94911364D01*
X195291914Y-94916991D01*
X195298141Y-94934350D01*
X195299912Y-94940170D01*
X195304409Y-94958052D01*
X195305603Y-94964025D01*
X195308324Y-94982263D01*
X195308926Y-94988318D01*
X195309919Y-95008155D01*
X195309995Y-95011627D01*
X195280863Y-99876743D01*
X195260777Y-99943663D01*
X195207700Y-99989101D01*
X195156865Y-100000000D01*
X104903650Y-100000000D01*
X104836611Y-99980315D01*
X104790856Y-99927511D01*
X104779650Y-99876250D01*
X104770004Y-95092027D01*
X104770073Y-95088987D01*
X104771011Y-95069041D01*
X104771596Y-95062980D01*
X104774263Y-95044742D01*
X104775439Y-95038766D01*
X104779884Y-95020869D01*
X104781640Y-95015037D01*
X104787818Y-94997664D01*
X104790134Y-94992040D01*
X104795300Y-94981059D01*
X104841651Y-94928778D01*
X104908910Y-94909855D01*
X104975721Y-94930299D01*
X105020874Y-94983618D01*
X105031503Y-95033883D01*
X105031486Y-95089989D01*
X195028496Y-95010026D01*
X195028471Y-94924889D01*
X195048135Y-94857844D01*
X195100926Y-94812073D01*
X195170081Y-94802109D01*
X195233646Y-94831115D01*
G37*
%LPD*%
M02*
