%TF.GenerationSoftware,KiCad,Pcbnew,7.0.7*%
%TF.CreationDate,2023-11-05T15:56:38+00:00*%
%TF.ProjectId,RF_Screen,52465f53-6372-4656-956e-2e6b69636164,rev?*%
%TF.SameCoordinates,Original*%
%TF.FileFunction,Soldermask,Bot*%
%TF.FilePolarity,Negative*%
%FSLAX46Y46*%
G04 Gerber Fmt 4.6, Leading zero omitted, Abs format (unit mm)*
G04 Created by KiCad (PCBNEW 7.0.7) date 2023-11-05 15:56:38*
%MOMM*%
%LPD*%
G01*
G04 APERTURE LIST*
%ADD10C,5.600000*%
G04 APERTURE END LIST*
D10*
%TO.C,H4*%
X193000000Y-7000000D03*
%TD*%
%TO.C,H3*%
X193000000Y-93000000D03*
%TD*%
%TO.C,H1*%
X107000000Y-7000000D03*
%TD*%
%TO.C,H2*%
X107000000Y-93000000D03*
%TD*%
G36*
X105059999Y-20000D02*
G01*
X105185933Y-19971D01*
X105252977Y-39640D01*
X105298745Y-92434D01*
X105309962Y-144008D01*
X105308546Y-4866050D01*
X105288841Y-4933084D01*
X105236024Y-4978823D01*
X105184533Y-4990013D01*
X105058508Y-4989999D01*
X105031487Y-95089988D01*
X105157338Y-95089876D01*
X105224395Y-95109500D01*
X105270197Y-95162263D01*
X105281449Y-95213913D01*
X105280052Y-99876037D01*
X105260347Y-99943071D01*
X105207530Y-99988810D01*
X105156052Y-100000000D01*
X100124067Y-100000000D01*
X100057028Y-99980315D01*
X100011273Y-99927511D01*
X100000067Y-99875938D01*
X100049937Y-134185D01*
X100069655Y-67155D01*
X100122482Y-21427D01*
X100174185Y-10247D01*
X105059999Y-20000D01*
G37*
G36*
X194942790Y-19712D02*
G01*
X194988545Y-72516D01*
X194999751Y-124275D01*
X194998260Y-869677D01*
X194978441Y-936677D01*
X194925546Y-982326D01*
X194856367Y-992131D01*
X194792870Y-962979D01*
X194755213Y-904126D01*
X194750260Y-869466D01*
X194750037Y-124064D01*
X194769702Y-57019D01*
X194822492Y-11248D01*
X194874037Y-27D01*
X194875751Y-27D01*
X194942790Y-19712D01*
G37*
G36*
X199943039Y-19685D02*
G01*
X199988794Y-72489D01*
X200000000Y-124000D01*
X200000000Y-99867209D01*
X199980315Y-99934248D01*
X199927511Y-99980003D01*
X199876737Y-99991207D01*
X198396667Y-100000000D01*
X194903957Y-100000000D01*
X194836918Y-99980315D01*
X194791163Y-99927511D01*
X194779957Y-99876037D01*
X194778534Y-95134175D01*
X194798198Y-95067130D01*
X194850989Y-95021359D01*
X194902424Y-95010138D01*
X195028496Y-95010026D01*
X195000037Y-124037D01*
X195019701Y-56992D01*
X195072492Y-11221D01*
X195124037Y0D01*
X199876000Y0D01*
X199943039Y-19685D01*
G37*
G36*
X195192792Y-19685D02*
G01*
X195238547Y-72489D01*
X195249753Y-124248D01*
X195248260Y-870176D01*
X195228441Y-937176D01*
X195175546Y-982825D01*
X195106367Y-992630D01*
X195042870Y-963478D01*
X195005213Y-904625D01*
X195000260Y-869965D01*
X195000037Y-124037D01*
X195019702Y-56992D01*
X195072492Y-11221D01*
X195124037Y0D01*
X195125753Y0D01*
X195192792Y-19685D01*
G37*
G36*
X194942767Y-19697D02*
G01*
X194988534Y-72490D01*
X194999751Y-124275D01*
X194990247Y-4876234D01*
X194970428Y-4943234D01*
X194917533Y-4988883D01*
X194866233Y-4999986D01*
X105058508Y-4989999D01*
X105058493Y-5039815D01*
X105038788Y-5106848D01*
X104985970Y-5152587D01*
X104916808Y-5162509D01*
X104853262Y-5133465D01*
X104822369Y-5092732D01*
X104820309Y-5088369D01*
X104817992Y-5082772D01*
X104811783Y-5065416D01*
X104810016Y-5059587D01*
X104805537Y-5041701D01*
X104804350Y-5035727D01*
X104801646Y-5017483D01*
X104801051Y-5011425D01*
X104800077Y-4991562D01*
X104800003Y-4988403D01*
X104809750Y-143498D01*
X104829570Y-76498D01*
X104882466Y-30849D01*
X104933999Y-19747D01*
X105060001Y-20000D01*
X194875723Y-27D01*
X194942767Y-19697D01*
G37*
G36*
X195233646Y-94831115D02*
G01*
X195244278Y-94841501D01*
X195251065Y-94848976D01*
X195254929Y-94853676D01*
X195265924Y-94868474D01*
X195269312Y-94873534D01*
X195278809Y-94889348D01*
X195281683Y-94894712D01*
X195289577Y-94911364D01*
X195291914Y-94916991D01*
X195298141Y-94934350D01*
X195299912Y-94940170D01*
X195304409Y-94958052D01*
X195305603Y-94964025D01*
X195308324Y-94982263D01*
X195308926Y-94988318D01*
X195309919Y-95008155D01*
X195309995Y-95011627D01*
X195280863Y-99876743D01*
X195260777Y-99943663D01*
X195207700Y-99989101D01*
X195156865Y-100000000D01*
X104903650Y-100000000D01*
X104836611Y-99980315D01*
X104790856Y-99927511D01*
X104779650Y-99876250D01*
X104770004Y-95092027D01*
X104770073Y-95088987D01*
X104771011Y-95069041D01*
X104771596Y-95062980D01*
X104774263Y-95044742D01*
X104775439Y-95038766D01*
X104779884Y-95020869D01*
X104781640Y-95015037D01*
X104787818Y-94997664D01*
X104790134Y-94992040D01*
X104795300Y-94981059D01*
X104841651Y-94928778D01*
X104908910Y-94909855D01*
X104975721Y-94930299D01*
X105020874Y-94983618D01*
X105031503Y-95033883D01*
X105031486Y-95089989D01*
X195028496Y-95010026D01*
X195028471Y-94924889D01*
X195048135Y-94857844D01*
X195100926Y-94812073D01*
X195170081Y-94802109D01*
X195233646Y-94831115D01*
G37*
M02*
