M48
; DRILL file {KiCad (6.0.9)} date Wed Nov  9 00:10:47 2022
; FORMAT={-:-/ absolute / metric / decimal}
; #@! TF.CreationDate,2022-11-09T00:10:47+00:00
; #@! TF.GenerationSoftware,Kicad,Pcbnew,(6.0.9)
; #@! TF.FileFunction,MixedPlating,1,4
FMAT,2
METRIC
; #@! TA.AperFunction,Plated,PTH,ViaDrill
T1C0.400
; #@! TA.AperFunction,Plated,PTH,ComponentDrill
T2C0.500
; #@! TA.AperFunction,Plated,PTH,ComponentDrill
T3C0.600
; #@! TA.AperFunction,Plated,PTH,ComponentDrill
T4C0.800
; #@! TA.AperFunction,Plated,PTH,ComponentDrill
T5C0.850
; #@! TA.AperFunction,Plated,PTH,ComponentDrill
T6C1.100
; #@! TA.AperFunction,Plated,PTH,ComponentDrill
T7C1.400
; #@! TA.AperFunction,Plated,PTH,ComponentDrill
T8C3.000
; #@! TA.AperFunction,Plated,PTH,ComponentDrill
T9C4.300
; #@! TA.AperFunction,NonPlated,NPTH,ComponentDrill
T10C0.750
; #@! TA.AperFunction,NonPlated,NPTH,ComponentDrill
T11C1.500
%
G90
G05
T1
X100.9Y-89.5
X101.1Y-80.5
X101.8Y-52.0
X102.1Y-62.9
X103.6Y-89.5
X103.8Y-80.5
X104.1Y-71.2
X104.3Y-79.4
X105.475Y-87.825
X105.5Y-83.8
X105.5Y-86.2
X105.5Y-132.2
X105.6Y-82.0
X106.0Y-128.3
X106.7Y-66.1
X106.9Y-86.2
X108.0Y-63.2
X108.1Y-68.8
X108.375Y-86.2
X108.795Y-79.295
X109.6Y-131.6
X109.7Y-133.1
X109.8Y-129.6
X109.924Y-82.2
X109.924Y-84.3
X109.924Y-85.7
X110.1Y-73.8
X110.55Y-125.95
X110.6Y-97.0
X111.0Y-61.6
X111.0Y-70.4
X111.0Y-104.2
X111.335Y-73.835
X111.4Y-80.7
X111.4Y-79.4
X111.6Y-81.8
X111.7Y-84.5
X112.0Y-118.8
X112.3Y-87.4
X112.6Y-76.0
X112.605Y-73.795
X113.025Y-122.375
X113.4Y-52.1
X113.5Y-62.8
X113.7Y-82.0
X113.7Y-84.4
X113.8Y-58.0
X113.9Y-69.0
X113.9Y-72.3
X113.9Y-74.3
X113.925Y-77.675
X114.0Y-95.4
X114.1Y-149.0
X114.2Y-114.5
X114.6Y-100.2
X114.9Y-65.7
X115.3Y-82.2
X115.4Y-94.1
X115.5Y-84.0
X115.675Y-128.8
X115.799Y-117.992
X115.799Y-127.8
X115.9Y-105.9
X116.2Y-120.676
X116.4Y-130.2
X116.5Y-77.9
X116.5Y-79.3
X116.5Y-80.6
X116.8Y-74.2
X117.0Y-83.7
X117.2Y-84.7
X117.2Y-86.2
X118.1Y-77.5
X118.185Y-98.015
X118.2Y-99.3
X118.4Y-146.4
X119.7Y-77.9
X119.7Y-79.3
X119.7Y-80.6
X119.8Y-74.1
X119.9Y-90.5
X120.1Y-87.2
X120.4Y-136.3
X120.6Y-128.0
X120.6Y-131.8
X120.8Y-81.3
X120.8Y-83.0
X121.1Y-139.6
X121.2Y-124.4
X122.8Y-80.8
X122.9Y-74.2
X123.3Y-85.1
X123.303Y-127.966
X123.323Y-130.399
X123.585Y-95.917
X123.6Y-133.3
X123.7Y-148.5
X123.8Y-147.3
X124.298Y-99.402
X124.369Y-141.321
X124.4Y-81.1
X124.4Y-83.5
X124.801Y-102.946
X125.0Y-95.2
X125.0Y-120.6
X125.2Y-136.25
X125.7Y-76.3
X125.7Y-78.5
X125.8Y-80.8
X125.9Y-83.4
X126.0Y-85.5
X126.1Y-74.3
X126.115Y-135.525
X126.4Y-95.5
X126.4Y-103.0
X126.6Y-89.7
X126.972Y-136.596
X128.0Y-148.4
X128.1Y-137.8
X128.247Y-128.564
X128.4Y-86.1
X128.4Y-97.5
X128.4Y-98.6
X128.4Y-101.4
X128.5Y-74.0
X128.899Y-110.9
X129.4Y-100.2
X129.4Y-117.1
X129.6Y-122.4
X129.9Y-128.4
X130.0Y-113.7
X130.6Y-111.4
X130.7Y-74.1
X130.7Y-86.0
X131.0Y-76.2
X131.0Y-78.3
X131.0Y-80.7
X131.0Y-83.2
X131.0Y-120.5
X131.425Y-103.475
X131.6Y-117.3
X132.3Y-134.9
X132.4Y-99.6
X133.5Y-86.1
X133.5Y-103.45
X133.7Y-74.0
X133.9Y-96.2
X134.3Y-142.6
X134.5Y-99.7
X134.8Y-111.3
X135.5Y-117.4
X136.0Y-86.0
X136.2Y-122.7
X136.3Y-83.6
X136.4Y-74.8
X136.4Y-76.1
X136.4Y-78.1
X136.4Y-81.4
X136.4Y-127.5
X136.9Y-135.3
X136.924Y-93.4
X138.062Y-122.762
X138.7Y-143.825
X139.3Y-115.6
X139.7Y-76.9
X140.0Y-83.3
X140.5Y-131.0
X140.6Y-135.7
X141.0Y-98.9
X141.025Y-78.1
X141.125Y-81.8
X141.2Y-74.4
X141.4Y-86.1
X142.1Y-82.4
X142.2Y-77.2
X142.3Y-118.7
X142.4Y-93.6
X142.4Y-114.3
X142.8Y-127.2
X143.273Y-121.927
X143.7Y-93.6
X144.1Y-77.3
X144.1Y-82.3
X144.3Y-110.9
X144.4Y-112.8
X144.6Y-86.2
X144.6Y-106.6
X145.132Y-93.611
X145.4Y-74.4
X146.1Y-82.3
X146.2Y-77.2
X146.2Y-94.0
X146.2Y-106.6
X146.8Y-79.9
X147.4Y-106.4
X147.5Y-138.2
X147.561Y-96.861
X147.6Y-135.6
X147.8Y-82.4
X148.5Y-105.2
X149.2Y-74.5
X149.2Y-89.4
X149.3Y-92.7
X149.3Y-96.4
X149.4Y-141.5
X149.6Y-83.2
X151.1Y-87.5
X151.5Y-121.3
X151.7Y-145.4
X151.785Y-81.999
X151.8Y-102.6
X151.8Y-118.5
X151.8Y-124.1
X151.9Y-105.4
X152.3Y-77.3
X152.4Y-100.9
X152.7Y-79.8
X153.1Y-85.5
X153.1Y-116.2
X153.1Y-126.8
X153.2Y-89.0
X153.4Y-97.1
X153.8Y-82.5
X153.9Y-107.5
X154.5Y-85.5
X154.5Y-100.5
X154.7Y-128.6
X155.3Y-114.2
X155.8Y-85.5
X156.0Y-74.5
X156.0Y-82.5
X156.0Y-106.8
X156.2Y-92.8
X156.6Y-99.3
X156.9Y-130.0
X157.0Y-75.4
X157.6Y-108.0
X158.037Y-132.3
X158.2Y-85.6
X158.2Y-112.9
X158.8Y-100.1
X159.2Y-101.9
X159.4Y-130.5
X159.5Y-121.7
X159.8Y-97.1
X159.9Y-109.0
X160.3Y-103.7
X160.9Y-85.6
X161.0Y-120.7
X161.1Y-122.8
X161.2Y-89.0
X161.3Y-112.6
X161.8Y-95.8
X161.9Y-109.2
X161.9Y-130.6
X162.3Y-104.3
X162.6Y-86.9
X162.7Y-75.2
X162.8Y-82.7
X162.8Y-84.0
X163.3Y-146.0
X163.4Y-120.6
X163.4Y-122.7
X164.0Y-84.0
X164.2Y-104.2
X164.2Y-109.1
X164.2Y-110.6
X164.3Y-91.1
X164.3Y-112.6
X164.338Y-101.4
X164.4Y-102.7
X164.7Y-130.5
X164.9Y-121.6
X164.9Y-122.9
X165.2Y-84.0
X165.3Y-80.2
X166.3Y-121.425
X166.4Y-84.0
X166.9Y-86.9
X166.9Y-88.8
X167.0Y-97.0
X167.3Y-112.6
X167.5Y-145.1
X167.6Y-82.7
X167.6Y-84.0
X167.7Y-79.8
X167.7Y-81.2
X167.713Y-133.775
X167.8Y-121.425
X168.2Y-75.675
X168.4Y-102.9
X168.9Y-110.7
X169.0Y-131.4
X169.1Y-121.4
X169.4Y-89.0
X169.4Y-122.6
X169.4Y-124.3
X169.4Y-129.3
X169.7Y-143.6
X169.9Y-112.7
X170.0Y-102.8
X170.1Y-120.7
X170.1Y-146.6
X170.6Y-130.3
X170.6Y-132.0
X171.0Y-99.938
X171.1Y-124.7
X171.2Y-110.7
X171.9Y-133.8
X172.1Y-86.9
X172.1Y-102.8
X172.1Y-120.7
X172.7Y-112.7
X172.9Y-125.6
X173.0Y-97.0
X173.6Y-110.7
X174.3Y-120.6
X174.3Y-123.6
X174.4Y-122.1
X174.4Y-125.6
X174.4Y-127.6
X174.6Y-89.1
X174.6Y-102.8
X174.6Y-133.8
X175.1Y-112.7
X175.338Y-101.3
X175.6Y-87.0
X175.6Y-92.7
X175.8Y-131.8
X176.3Y-110.7
X176.4Y-75.6
X176.4Y-133.6
X177.2Y-102.7
X177.2Y-121.4
X177.6Y-112.6
X177.9Y-124.8
X178.0Y-128.1
X178.4Y-134.5
X178.5Y-87.0
X178.6Y-121.3
X178.9Y-95.7
X179.0Y-97.7
X179.0Y-111.1
X180.3Y-102.8
X180.8Y-121.3
X181.0Y-133.5
X181.1Y-74.0
X181.1Y-124.7
X181.6Y-145.8
X182.2Y-119.9
X182.5Y-78.2
X182.7Y-103.4
X182.8Y-131.7
X183.3Y-123.6
X183.575Y-98.225
X183.675Y-91.475
X183.8Y-133.7
X184.2Y-129.8
X184.5Y-87.1
X184.6Y-117.8
X184.7Y-75.5
X184.7Y-105.1
X184.8Y-93.4
X184.8Y-96.2
X185.1Y-121.5
X185.2Y-65.9
X186.0Y-82.9
X186.1Y-62.7
X186.1Y-79.8
X186.2Y-107.1
X186.3Y-69.0
X186.4Y-129.5
X186.4Y-134.4
X186.5Y-115.8
X186.5Y-127.5
X186.6Y-93.1
X186.6Y-94.8
X186.6Y-96.6
X186.7Y-73.9
X186.7Y-78.1
X186.7Y-122.0
X186.722Y-76.022
X186.9Y-89.4
X186.9Y-119.8
X187.045Y-81.355
X187.1Y-109.4
X187.2Y-52.5
X187.4Y-112.2
X187.6Y-87.4
X187.7Y-91.1
X187.9Y-79.7
X187.9Y-82.9
X188.1Y-114.1
X188.6Y-118.1
X188.9Y-126.7
X189.0Y-122.0
X189.3Y-61.9
X189.5Y-91.1
X189.5Y-129.5
X189.5Y-134.4
X189.522Y-70.177
X189.522Y-75.377
X189.522Y-87.477
X189.6Y-92.7
X189.7Y-96.6
X189.7Y-112.6
X190.3Y-116.6
X190.9Y-121.3
X191.2Y-111.0
X191.3Y-87.5
X191.3Y-126.7
X191.4Y-91.0
X191.4Y-115.2
X191.9Y-62.9
X192.0Y-134.3
X192.1Y-93.0
X192.1Y-96.5
X192.2Y-94.5
X192.2Y-119.8
X192.4Y-68.8
X192.5Y-74.7
X192.5Y-129.5
X192.6Y-83.2
X192.7Y-109.5
X192.9Y-113.7
X193.1Y-65.8
X193.3Y-118.6
X193.3Y-126.0
X194.1Y-108.2
X194.2Y-124.8
X194.5Y-134.2
X194.6Y-112.2
X194.6Y-115.5
X194.6Y-117.3
X194.6Y-136.0
X194.7Y-128.3
X194.7Y-129.5
X194.8Y-104.4
X194.8Y-105.6
X195.4Y-74.7
X195.4Y-106.9
X195.6Y-83.2
X195.6Y-103.5
X195.7Y-124.5
X196.0Y-127.4
X196.1Y-112.5
X196.2Y-115.4
X196.3Y-136.6
X197.4Y-103.5
X197.5Y-112.5
X197.5Y-124.8
X197.5Y-127.4
X197.7Y-115.4
X197.8Y-52.4
X197.9Y-136.7
X198.0Y-65.6
X198.4Y-74.7
X198.4Y-83.2
X198.9Y-103.5
X199.0Y-112.5
X199.0Y-124.7
X199.0Y-127.4
X199.1Y-115.4
X199.1Y-136.7
T2
X137.0Y-146.5
X139.0Y-146.5
X141.0Y-146.5
X143.0Y-146.5
X145.0Y-146.5
T4
X173.093Y-131.838
X173.093Y-139.457
X178.172Y-131.838
X185.792Y-131.838
X185.792Y-139.457
T5
X104.162Y-128.5
X104.162Y-133.5
T6
X156.6Y-89.6
X156.6Y-101.6
X162.75Y-93.4
X178.25Y-93.4
X181.1Y-76.1
X181.1Y-88.1
T7
X189.522Y-89.3
X189.522Y-94.3
T8
X111.0Y-66.0
X189.0Y-66.0
T9
X107.0Y-57.0
X107.0Y-143.0
X193.0Y-57.0
X193.0Y-143.0
T10
X156.6Y-145.025
X156.6Y-147.775
T11
X138.0Y-148.5
X144.0Y-148.5
T3
G00X101.112Y-127.5
M15
G01X101.812Y-127.5
M16
G05
G00X101.812Y-134.5
M15
G01X101.112Y-134.5
M16
G05
T0
M30
