%TF.GenerationSoftware,KiCad,Pcbnew,(6.0.9)*%
%TF.CreationDate,2022-11-09T00:10:41+00:00*%
%TF.ProjectId,Pi_TX_35W_PA,50695f54-585f-4333-9557-5f50412e6b69,rev?*%
%TF.SameCoordinates,Original*%
%TF.FileFunction,Soldermask,Top*%
%TF.FilePolarity,Negative*%
%FSLAX46Y46*%
G04 Gerber Fmt 4.6, Leading zero omitted, Abs format (unit mm)*
G04 Created by KiCad (PCBNEW (6.0.9)) date 2022-11-09 00:10:41*
%MOMM*%
%LPD*%
G01*
G04 APERTURE LIST*
G04 Aperture macros list*
%AMRoundRect*
0 Rectangle with rounded corners*
0 $1 Rounding radius*
0 $2 $3 $4 $5 $6 $7 $8 $9 X,Y pos of 4 corners*
0 Add a 4 corners polygon primitive as box body*
4,1,4,$2,$3,$4,$5,$6,$7,$8,$9,$2,$3,0*
0 Add four circle primitives for the rounded corners*
1,1,$1+$1,$2,$3*
1,1,$1+$1,$4,$5*
1,1,$1+$1,$6,$7*
1,1,$1+$1,$8,$9*
0 Add four rect primitives between the rounded corners*
20,1,$1+$1,$2,$3,$4,$5,0*
20,1,$1+$1,$4,$5,$6,$7,0*
20,1,$1+$1,$6,$7,$8,$9,0*
20,1,$1+$1,$8,$9,$2,$3,0*%
%AMFreePoly0*
4,1,9,3.862500,-0.866500,0.737500,-0.866500,0.737500,-0.450000,-0.737500,-0.450000,-0.737500,0.450000,0.737500,0.450000,0.737500,0.866500,3.862500,0.866500,3.862500,-0.866500,3.862500,-0.866500,$1*%
G04 Aperture macros list end*
%ADD10RoundRect,0.225000X-0.225000X-0.250000X0.225000X-0.250000X0.225000X0.250000X-0.225000X0.250000X0*%
%ADD11RoundRect,0.250000X-1.450000X0.250000X-1.450000X-0.250000X1.450000X-0.250000X1.450000X0.250000X0*%
%ADD12RoundRect,0.200000X0.275000X-0.200000X0.275000X0.200000X-0.275000X0.200000X-0.275000X-0.200000X0*%
%ADD13RoundRect,0.200000X-0.200000X-0.275000X0.200000X-0.275000X0.200000X0.275000X-0.200000X0.275000X0*%
%ADD14RoundRect,0.225000X0.225000X0.250000X-0.225000X0.250000X-0.225000X-0.250000X0.225000X-0.250000X0*%
%ADD15R,1.350000X0.400000*%
%ADD16R,1.900000X1.500000*%
%ADD17C,1.450000*%
%ADD18O,1.900000X1.200000*%
%ADD19R,1.900000X1.200000*%
%ADD20RoundRect,0.218750X0.218750X0.256250X-0.218750X0.256250X-0.218750X-0.256250X0.218750X-0.256250X0*%
%ADD21RoundRect,0.250000X-0.250000X-0.475000X0.250000X-0.475000X0.250000X0.475000X-0.250000X0.475000X0*%
%ADD22RoundRect,0.225000X-0.250000X0.225000X-0.250000X-0.225000X0.250000X-0.225000X0.250000X0.225000X0*%
%ADD23R,0.900000X1.300000*%
%ADD24FreePoly0,90.000000*%
%ADD25RoundRect,0.218750X-0.218750X-0.381250X0.218750X-0.381250X0.218750X0.381250X-0.218750X0.381250X0*%
%ADD26R,1.000000X0.700000*%
%ADD27R,0.600000X0.700000*%
%ADD28R,1.501140X1.501140*%
%ADD29C,1.501140*%
%ADD30C,1.500000*%
%ADD31RoundRect,0.200000X0.200000X0.275000X-0.200000X0.275000X-0.200000X-0.275000X0.200000X-0.275000X0*%
%ADD32RoundRect,0.150000X-0.825000X-0.150000X0.825000X-0.150000X0.825000X0.150000X-0.825000X0.150000X0*%
%ADD33RoundRect,0.250000X-0.275000X-0.700000X0.275000X-0.700000X0.275000X0.700000X-0.275000X0.700000X0*%
%ADD34R,2.200000X1.200000*%
%ADD35R,6.400000X5.800000*%
%ADD36R,3.600000X1.270000*%
%ADD37R,4.200000X1.350000*%
%ADD38R,0.700000X0.600000*%
%ADD39C,7.500000*%
%ADD40RoundRect,0.250000X0.275000X0.700000X-0.275000X0.700000X-0.275000X-0.700000X0.275000X-0.700000X0*%
%ADD41RoundRect,0.150000X0.150000X-0.825000X0.150000X0.825000X-0.150000X0.825000X-0.150000X-0.825000X0*%
%ADD42RoundRect,0.250000X-1.500000X0.250000X-1.500000X-0.250000X1.500000X-0.250000X1.500000X0.250000X0*%
%ADD43RoundRect,0.250001X-1.449999X0.499999X-1.449999X-0.499999X1.449999X-0.499999X1.449999X0.499999X0*%
%ADD44R,0.700000X1.000000*%
%ADD45RoundRect,0.250000X1.450000X-0.312500X1.450000X0.312500X-1.450000X0.312500X-1.450000X-0.312500X0*%
%ADD46RoundRect,0.218750X0.381250X-0.218750X0.381250X0.218750X-0.381250X0.218750X-0.381250X-0.218750X0*%
%ADD47C,1.800000*%
%ADD48RoundRect,0.200000X-0.275000X0.200000X-0.275000X-0.200000X0.275000X-0.200000X0.275000X0.200000X0*%
%ADD49RoundRect,0.250000X0.250000X0.475000X-0.250000X0.475000X-0.250000X-0.475000X0.250000X-0.475000X0*%
%ADD50RoundRect,0.150000X-0.150000X0.825000X-0.150000X-0.825000X0.150000X-0.825000X0.150000X0.825000X0*%
%ADD51R,3.300000X2.410000*%
%ADD52RoundRect,0.218750X0.218750X0.381250X-0.218750X0.381250X-0.218750X-0.381250X0.218750X-0.381250X0*%
%ADD53R,2.200000X1.500000*%
%ADD54RoundRect,0.218750X-0.218750X-0.256250X0.218750X-0.256250X0.218750X0.256250X-0.218750X0.256250X0*%
%ADD55RoundRect,0.250000X1.550000X-0.750000X1.550000X0.750000X-1.550000X0.750000X-1.550000X-0.750000X0*%
%ADD56O,3.600000X2.000000*%
%ADD57C,0.750000*%
%ADD58R,1.550000X1.000000*%
%ADD59RoundRect,0.225000X0.250000X-0.225000X0.250000X0.225000X-0.250000X0.225000X-0.250000X-0.225000X0*%
%ADD60R,1.600000X0.550000*%
%ADD61R,0.550000X1.600000*%
%ADD62R,0.900000X1.200000*%
%ADD63R,0.700000X0.450000*%
%ADD64RoundRect,0.150000X-0.512500X-0.150000X0.512500X-0.150000X0.512500X0.150000X-0.512500X0.150000X0*%
%ADD65RoundRect,0.250000X1.750000X1.000000X-1.750000X1.000000X-1.750000X-1.000000X1.750000X-1.000000X0*%
%ADD66R,2.500000X1.800000*%
%ADD67RoundRect,0.250000X-0.475000X0.250000X-0.475000X-0.250000X0.475000X-0.250000X0.475000X0.250000X0*%
%ADD68R,1.000000X0.500000*%
%ADD69R,0.500000X0.800000*%
%ADD70R,0.300000X0.800000*%
%ADD71R,1.480000X0.500000*%
%ADD72RoundRect,0.250000X-0.700000X0.275000X-0.700000X-0.275000X0.700000X-0.275000X0.700000X0.275000X0*%
%ADD73RoundRect,0.800000X-0.800000X-4.200000X0.800000X-4.200000X0.800000X4.200000X-0.800000X4.200000X0*%
%ADD74C,6.000000*%
G04 APERTURE END LIST*
D10*
%TO.C,C50*%
X164775000Y-144300000D03*
X166325000Y-144300000D03*
%TD*%
D11*
%TO.C,R36*%
X165300000Y-81200000D03*
X165300000Y-82700000D03*
%TD*%
D12*
%TO.C,R39*%
X108800000Y-83225000D03*
X108800000Y-81575000D03*
%TD*%
D13*
%TO.C,R26*%
X132875000Y-104700000D03*
X134525000Y-104700000D03*
%TD*%
D10*
%TO.C,C15*%
X129825000Y-106400000D03*
X131375000Y-106400000D03*
%TD*%
D14*
%TO.C,C53*%
X172900000Y-145600000D03*
X171350000Y-145600000D03*
%TD*%
D15*
%TO.C,J1*%
X104162500Y-129700000D03*
X104162500Y-130350000D03*
X104162500Y-131000000D03*
X104162500Y-131650000D03*
X104162500Y-132300000D03*
D16*
X101462500Y-130000000D03*
D17*
X104162500Y-128500000D03*
D18*
X101462500Y-127500000D03*
D16*
X101462500Y-132000000D03*
D19*
X101462500Y-133900000D03*
D18*
X101462500Y-134500000D03*
D17*
X104162500Y-133500000D03*
D19*
X101462500Y-128100000D03*
%TD*%
D14*
%TO.C,C14*%
X137975000Y-115800000D03*
X136425000Y-115800000D03*
%TD*%
D20*
%TO.C,D17*%
X184387500Y-148200000D03*
X182812500Y-148200000D03*
%TD*%
D21*
%TO.C,C32*%
X138075000Y-81800000D03*
X139975000Y-81800000D03*
%TD*%
D22*
%TO.C,C25*%
X142300000Y-120025000D03*
X142300000Y-121575000D03*
%TD*%
D23*
%TO.C,U9*%
X116600000Y-82187500D03*
D24*
X118100000Y-82100000D03*
D23*
X119600000Y-82187500D03*
%TD*%
D25*
%TO.C,L9*%
X162375000Y-132300000D03*
X164500000Y-132300000D03*
%TD*%
D26*
%TO.C,D1*%
X108450000Y-129600000D03*
D27*
X106750000Y-129600000D03*
X106750000Y-131600000D03*
X108650000Y-131600000D03*
%TD*%
D10*
%TO.C,C16*%
X125525000Y-100000000D03*
X127075000Y-100000000D03*
%TD*%
D28*
%TO.C,K1*%
X173092500Y-139457500D03*
D29*
X185792500Y-139457500D03*
X185792500Y-131837500D03*
X178172500Y-131837500D03*
X173092500Y-131837500D03*
%TD*%
D30*
%TO.C,J2*%
X144000000Y-148500000D03*
X138000000Y-148500000D03*
X137000000Y-146500000D03*
X139000000Y-146500000D03*
X141000000Y-146500000D03*
X143000000Y-146500000D03*
X145000000Y-146500000D03*
%TD*%
D14*
%TO.C,C12*%
X146375000Y-128065000D03*
X144825000Y-128065000D03*
%TD*%
D31*
%TO.C,R38*%
X108725000Y-84900000D03*
X107075000Y-84900000D03*
%TD*%
D32*
%TO.C,U3*%
X137150000Y-130460000D03*
X137150000Y-131730000D03*
X137150000Y-133000000D03*
X137150000Y-134270000D03*
X142100000Y-134270000D03*
X142100000Y-133000000D03*
X142100000Y-131730000D03*
X142100000Y-130460000D03*
%TD*%
D33*
%TO.C,C40*%
X180525000Y-96300000D03*
X183675000Y-96300000D03*
%TD*%
D10*
%TO.C,C51*%
X166162500Y-132300000D03*
X167712500Y-132300000D03*
%TD*%
D13*
%TO.C,R48*%
X182775000Y-145800000D03*
X184425000Y-145800000D03*
%TD*%
D34*
%TO.C,Q1*%
X189275000Y-76795000D03*
D35*
X195575000Y-79075000D03*
D34*
X189275000Y-81355000D03*
%TD*%
D36*
%TO.C,J7*%
X198050000Y-108000000D03*
D37*
X197850000Y-110825000D03*
X197850000Y-105175000D03*
%TD*%
D10*
%TO.C,C26*%
X142425000Y-98900000D03*
X143975000Y-98900000D03*
%TD*%
D38*
%TO.C,D15*%
X167937500Y-129100000D03*
X167937500Y-130500000D03*
%TD*%
D13*
%TO.C,R2*%
X135575000Y-142500000D03*
X137225000Y-142500000D03*
%TD*%
%TO.C,R20*%
X133300000Y-131565000D03*
X134950000Y-131565000D03*
%TD*%
D39*
%TO.C,H3*%
X107000000Y-57000000D03*
%TD*%
D40*
%TO.C,C41*%
X168375000Y-87300000D03*
X165225000Y-87300000D03*
%TD*%
D25*
%TO.C,L8*%
X168875000Y-101400000D03*
X171000000Y-101400000D03*
%TD*%
D41*
%TO.C,U2*%
X108795000Y-77575000D03*
X110065000Y-77575000D03*
X111335000Y-77575000D03*
X112605000Y-77575000D03*
X112605000Y-72625000D03*
X111335000Y-72625000D03*
X110065000Y-72625000D03*
X108795000Y-72625000D03*
%TD*%
D14*
%TO.C,C35*%
X123575000Y-82237500D03*
X122025000Y-82237500D03*
%TD*%
D27*
%TO.C,D16*%
X177875000Y-142050000D03*
X179275000Y-142050000D03*
%TD*%
D13*
%TO.C,R9*%
X105375000Y-78000000D03*
X107025000Y-78000000D03*
%TD*%
D14*
%TO.C,C7*%
X116575000Y-119000000D03*
X115025000Y-119000000D03*
%TD*%
D31*
%TO.C,R5*%
X117125000Y-99300000D03*
X115475000Y-99300000D03*
%TD*%
D42*
%TO.C,J3*%
X107950000Y-96000000D03*
X107950000Y-98000000D03*
X107950000Y-100000000D03*
X107950000Y-102000000D03*
X107950000Y-104000000D03*
D43*
X102200000Y-106350000D03*
X102200000Y-93650000D03*
%TD*%
D13*
%TO.C,R47*%
X177475000Y-147250000D03*
X179125000Y-147250000D03*
%TD*%
D10*
%TO.C,C49*%
X164775000Y-146000000D03*
X166325000Y-146000000D03*
%TD*%
D36*
%TO.C,J8*%
X198050000Y-120000000D03*
D37*
X197850000Y-117175000D03*
X197850000Y-122825000D03*
%TD*%
D33*
%TO.C,C42*%
X158025000Y-87300000D03*
X161175000Y-87300000D03*
%TD*%
D13*
%TO.C,R21*%
X144800000Y-131765000D03*
X146450000Y-131765000D03*
%TD*%
D22*
%TO.C,C33*%
X156000000Y-79725000D03*
X156000000Y-81275000D03*
%TD*%
D31*
%TO.C,R33*%
X130925000Y-94900000D03*
X129275000Y-94900000D03*
%TD*%
D44*
%TO.C,D4*%
X113600000Y-99250000D03*
D38*
X113600000Y-97550000D03*
X111600000Y-97550000D03*
X111600000Y-99450000D03*
%TD*%
D13*
%TO.C,R34*%
X132275000Y-96900000D03*
X133925000Y-96900000D03*
%TD*%
D12*
%TO.C,R32*%
X125400000Y-93125000D03*
X125400000Y-91475000D03*
%TD*%
D31*
%TO.C,R28*%
X131025000Y-115900000D03*
X129375000Y-115900000D03*
%TD*%
D45*
%TO.C,L3*%
X165300000Y-79237500D03*
X165300000Y-74962500D03*
%TD*%
D14*
%TO.C,C1*%
X126575000Y-122100000D03*
X125025000Y-122100000D03*
%TD*%
D46*
%TO.C,L4*%
X122100000Y-86262500D03*
X122100000Y-84137500D03*
%TD*%
D31*
%TO.C,R27*%
X134525000Y-106400000D03*
X132875000Y-106400000D03*
%TD*%
D13*
%TO.C,R24*%
X133100000Y-126165000D03*
X134750000Y-126165000D03*
%TD*%
D14*
%TO.C,C9*%
X106975000Y-72300000D03*
X105425000Y-72300000D03*
%TD*%
D39*
%TO.C,H2*%
X193000000Y-57000000D03*
%TD*%
D47*
%TO.C,L7*%
X156600000Y-89600000D03*
X156600000Y-101600000D03*
%TD*%
D48*
%TO.C,R35*%
X131900000Y-91175000D03*
X131900000Y-92825000D03*
%TD*%
D49*
%TO.C,C13*%
X134650000Y-116100000D03*
X132750000Y-116100000D03*
%TD*%
D50*
%TO.C,U4*%
X134580000Y-108725000D03*
X133310000Y-108725000D03*
X132040000Y-108725000D03*
X130770000Y-108725000D03*
X130770000Y-113675000D03*
X132040000Y-113675000D03*
X133310000Y-113675000D03*
X134580000Y-113675000D03*
D51*
X132675000Y-111200000D03*
%TD*%
D52*
%TO.C,L12*%
X184962500Y-142100000D03*
X182837500Y-142100000D03*
%TD*%
D22*
%TO.C,C23*%
X136200000Y-120100000D03*
X136200000Y-121650000D03*
%TD*%
D53*
%TO.C,L2*%
X139900000Y-103500000D03*
X139900000Y-109900000D03*
%TD*%
D54*
%TO.C,D3*%
X115712500Y-149000000D03*
X117287500Y-149000000D03*
%TD*%
D55*
%TO.C,J5*%
X189522500Y-94300000D03*
D56*
X189522500Y-89300000D03*
%TD*%
D57*
%TO.C,SW1*%
X156600000Y-145025000D03*
X156600000Y-147775000D03*
D58*
X159225000Y-147250000D03*
X153975000Y-147250000D03*
X159225000Y-145550000D03*
X153975000Y-145550000D03*
%TD*%
D59*
%TO.C,C27*%
X168200000Y-78450000D03*
X168200000Y-76900000D03*
%TD*%
D33*
%TO.C,C39*%
X180525000Y-93500000D03*
X183675000Y-93500000D03*
%TD*%
D31*
%TO.C,R8*%
X117125000Y-101100000D03*
X115475000Y-101100000D03*
%TD*%
D60*
%TO.C,U1*%
X126650000Y-133400000D03*
X126650000Y-132600000D03*
X126650000Y-131800000D03*
X126650000Y-131000000D03*
X126650000Y-130200000D03*
X126650000Y-129400000D03*
X126650000Y-128600000D03*
X126650000Y-127800000D03*
D61*
X125200000Y-126350000D03*
X124400000Y-126350000D03*
X123600000Y-126350000D03*
X122800000Y-126350000D03*
X122000000Y-126350000D03*
X121200000Y-126350000D03*
X120400000Y-126350000D03*
X119600000Y-126350000D03*
D60*
X118150000Y-127800000D03*
X118150000Y-128600000D03*
X118150000Y-129400000D03*
X118150000Y-130200000D03*
X118150000Y-131000000D03*
X118150000Y-131800000D03*
X118150000Y-132600000D03*
X118150000Y-133400000D03*
D61*
X119600000Y-134850000D03*
X120400000Y-134850000D03*
X121200000Y-134850000D03*
X122000000Y-134850000D03*
X122800000Y-134850000D03*
X123600000Y-134850000D03*
X124400000Y-134850000D03*
X125200000Y-134850000D03*
%TD*%
D31*
%TO.C,R18*%
X135050000Y-134965000D03*
X133400000Y-134965000D03*
%TD*%
D13*
%TO.C,R7*%
X105375000Y-76100000D03*
X107025000Y-76100000D03*
%TD*%
D38*
%TO.C,D13*%
X165737500Y-104200000D03*
X165737500Y-102800000D03*
%TD*%
D20*
%TO.C,L1*%
X129687500Y-123700000D03*
X128112500Y-123700000D03*
%TD*%
D14*
%TO.C,C29*%
X112375000Y-83200000D03*
X110825000Y-83200000D03*
%TD*%
D48*
%TO.C,R30*%
X128200000Y-104775000D03*
X128200000Y-106425000D03*
%TD*%
D31*
%TO.C,R14*%
X146425000Y-137100000D03*
X144775000Y-137100000D03*
%TD*%
D62*
%TO.C,D11*%
X115950000Y-104100000D03*
X112650000Y-104100000D03*
%TD*%
D14*
%TO.C,C8*%
X117075000Y-95800000D03*
X115525000Y-95800000D03*
%TD*%
D40*
%TO.C,C38*%
X173675000Y-87300000D03*
X170525000Y-87300000D03*
%TD*%
D48*
%TO.C,R41*%
X165800000Y-108975000D03*
X165800000Y-110625000D03*
%TD*%
D50*
%TO.C,U8*%
X146205000Y-91825000D03*
X144935000Y-91825000D03*
X143665000Y-91825000D03*
X142395000Y-91825000D03*
X142395000Y-96775000D03*
X143665000Y-96775000D03*
X144935000Y-96775000D03*
X146205000Y-96775000D03*
%TD*%
D10*
%TO.C,C47*%
X172562500Y-101300000D03*
X174112500Y-101300000D03*
%TD*%
D47*
%TO.C,L6*%
X178250000Y-93400000D03*
X162750000Y-93400000D03*
%TD*%
D22*
%TO.C,C24*%
X143900000Y-120025000D03*
X143900000Y-121575000D03*
%TD*%
D63*
%TO.C,Q2*%
X179100000Y-145350000D03*
X179100000Y-144050000D03*
X177100000Y-144700000D03*
%TD*%
D14*
%TO.C,C5*%
X123775000Y-140200000D03*
X122225000Y-140200000D03*
%TD*%
D48*
%TO.C,R44*%
X166300000Y-122700000D03*
X166300000Y-124350000D03*
%TD*%
D10*
%TO.C,C30*%
X118525000Y-86200000D03*
X120075000Y-86200000D03*
%TD*%
D12*
%TO.C,R37*%
X106900000Y-83225000D03*
X106900000Y-81575000D03*
%TD*%
D22*
%TO.C,C36*%
X153800000Y-79725000D03*
X153800000Y-81275000D03*
%TD*%
D31*
%TO.C,R17*%
X142525000Y-137100000D03*
X140875000Y-137100000D03*
%TD*%
D14*
%TO.C,C4*%
X123775000Y-138600000D03*
X122225000Y-138600000D03*
%TD*%
D42*
%TO.C,J4*%
X107950000Y-115000000D03*
X107950000Y-117000000D03*
X107950000Y-119000000D03*
X107950000Y-121000000D03*
D43*
X102200000Y-112650000D03*
X102200000Y-123350000D03*
%TD*%
D31*
%TO.C,R46*%
X172950000Y-147300000D03*
X171300000Y-147300000D03*
%TD*%
D64*
%TO.C,U7*%
X138062500Y-119850000D03*
X138062500Y-120800000D03*
X138062500Y-121750000D03*
X140337500Y-121750000D03*
X140337500Y-119850000D03*
%TD*%
D48*
%TO.C,R31*%
X128800000Y-108175000D03*
X128800000Y-109825000D03*
%TD*%
D31*
%TO.C,R13*%
X138550000Y-137065000D03*
X136900000Y-137065000D03*
%TD*%
D14*
%TO.C,C52*%
X172900000Y-143900000D03*
X171350000Y-143900000D03*
%TD*%
D10*
%TO.C,C11*%
X133150000Y-127965000D03*
X134700000Y-127965000D03*
%TD*%
D25*
%TO.C,L10*%
X164512500Y-142500000D03*
X166637500Y-142500000D03*
%TD*%
D13*
%TO.C,R3*%
X115675000Y-147300000D03*
X117325000Y-147300000D03*
%TD*%
D12*
%TO.C,R12*%
X133800000Y-92925000D03*
X133800000Y-91275000D03*
%TD*%
D13*
%TO.C,R19*%
X144800000Y-135165000D03*
X146450000Y-135165000D03*
%TD*%
D48*
%TO.C,R40*%
X167300000Y-108975000D03*
X167300000Y-110625000D03*
%TD*%
D25*
%TO.C,L11*%
X170962500Y-142200000D03*
X173087500Y-142200000D03*
%TD*%
D27*
%TO.C,D6*%
X145025000Y-133465000D03*
X146425000Y-133465000D03*
%TD*%
D10*
%TO.C,C34*%
X138050000Y-79800000D03*
X139600000Y-79800000D03*
%TD*%
D65*
%TO.C,C31*%
X150150000Y-79900000D03*
X144050000Y-79900000D03*
%TD*%
D31*
%TO.C,R25*%
X146450000Y-126365000D03*
X144800000Y-126365000D03*
%TD*%
%TO.C,R11*%
X116700000Y-117200000D03*
X115050000Y-117200000D03*
%TD*%
D14*
%TO.C,C48*%
X160812500Y-132300000D03*
X159262500Y-132300000D03*
%TD*%
D64*
%TO.C,U5*%
X124762500Y-96550000D03*
X124762500Y-97500000D03*
X124762500Y-98450000D03*
X127037500Y-98450000D03*
X127037500Y-97500000D03*
X127037500Y-96550000D03*
%TD*%
D31*
%TO.C,R4*%
X117125000Y-97500000D03*
X115475000Y-97500000D03*
%TD*%
D10*
%TO.C,C54*%
X182825000Y-144000000D03*
X184375000Y-144000000D03*
%TD*%
D66*
%TO.C,D8*%
X142400000Y-112800000D03*
X138400000Y-112800000D03*
%TD*%
D48*
%TO.C,R43*%
X175800000Y-124875000D03*
X175800000Y-126525000D03*
%TD*%
D13*
%TO.C,R29*%
X129775000Y-104700000D03*
X131425000Y-104700000D03*
%TD*%
%TO.C,R22*%
X144800000Y-129965000D03*
X146450000Y-129965000D03*
%TD*%
D39*
%TO.C,H1*%
X107000000Y-143000000D03*
%TD*%
D62*
%TO.C,D9*%
X132750000Y-120500000D03*
X129450000Y-120500000D03*
%TD*%
D67*
%TO.C,C17*%
X145437500Y-103475000D03*
X145437500Y-105375000D03*
%TD*%
D10*
%TO.C,C37*%
X138050000Y-78100000D03*
X139600000Y-78100000D03*
%TD*%
D22*
%TO.C,C21*%
X134500000Y-120100000D03*
X134500000Y-121650000D03*
%TD*%
D48*
%TO.C,R45*%
X167800000Y-122675000D03*
X167800000Y-124325000D03*
%TD*%
D31*
%TO.C,R23*%
X134850000Y-129865000D03*
X133200000Y-129865000D03*
%TD*%
D22*
%TO.C,C19*%
X123700000Y-91525000D03*
X123700000Y-93075000D03*
%TD*%
D14*
%TO.C,C44*%
X167212500Y-101400000D03*
X165662500Y-101400000D03*
%TD*%
D22*
%TO.C,C20*%
X136000000Y-91225000D03*
X136000000Y-92775000D03*
%TD*%
%TO.C,C18*%
X147437500Y-103600000D03*
X147437500Y-105150000D03*
%TD*%
D39*
%TO.C,H4*%
X193000000Y-143000000D03*
%TD*%
D68*
%TO.C,D2*%
X124860000Y-148300000D03*
D69*
X124800000Y-149150000D03*
D70*
X125700000Y-149150000D03*
D69*
X126600000Y-149150000D03*
X126600000Y-147450000D03*
D70*
X125700000Y-147450000D03*
D69*
X124800000Y-147450000D03*
D71*
X126300000Y-148300000D03*
%TD*%
D14*
%TO.C,C6*%
X123800000Y-137000000D03*
X122250000Y-137000000D03*
%TD*%
D10*
%TO.C,C46*%
X164775000Y-147700000D03*
X166325000Y-147700000D03*
%TD*%
D14*
%TO.C,C10*%
X142600000Y-128465000D03*
X141050000Y-128465000D03*
%TD*%
D31*
%TO.C,R10*%
X116700000Y-115600000D03*
X115050000Y-115600000D03*
%TD*%
D13*
%TO.C,R15*%
X132275000Y-98400000D03*
X133925000Y-98400000D03*
%TD*%
D44*
%TO.C,D5*%
X113500000Y-117650000D03*
D38*
X113500000Y-115950000D03*
X111500000Y-115950000D03*
X111500000Y-117850000D03*
%TD*%
D64*
%TO.C,U6*%
X127262500Y-91150000D03*
X127262500Y-92100000D03*
X127262500Y-93050000D03*
X129537500Y-93050000D03*
X129537500Y-91150000D03*
%TD*%
D72*
%TO.C,C45*%
X153800000Y-102625000D03*
X153800000Y-105775000D03*
%TD*%
D38*
%TO.C,D14*%
X166537500Y-130500000D03*
X166537500Y-129100000D03*
%TD*%
D22*
%TO.C,C22*%
X137900000Y-91325000D03*
X137900000Y-92875000D03*
%TD*%
D12*
%TO.C,R42*%
X175800000Y-122925000D03*
X175800000Y-121275000D03*
%TD*%
D10*
%TO.C,C28*%
X118525000Y-84500000D03*
X120075000Y-84500000D03*
%TD*%
D62*
%TO.C,D10*%
X110550000Y-127200000D03*
X107250000Y-127200000D03*
%TD*%
D10*
%TO.C,C2*%
X106925000Y-134700000D03*
X108475000Y-134700000D03*
%TD*%
D13*
%TO.C,R1*%
X106875000Y-133100000D03*
X108525000Y-133100000D03*
%TD*%
D27*
%TO.C,D7*%
X134725000Y-133265000D03*
X133325000Y-133265000D03*
%TD*%
D73*
%TO.C,U10*%
X128400000Y-80000000D03*
X133600000Y-80000000D03*
X159900000Y-80000000D03*
X172400000Y-80000000D03*
D74*
X111000000Y-66000000D03*
X189000000Y-66000000D03*
%TD*%
D36*
%TO.C,J9*%
X198050000Y-132000000D03*
D37*
X197850000Y-129175000D03*
X197850000Y-134825000D03*
%TD*%
D31*
%TO.C,R16*%
X135050000Y-136765000D03*
X133400000Y-136765000D03*
%TD*%
D47*
%TO.C,L5*%
X181100000Y-76100000D03*
X181100000Y-88100000D03*
%TD*%
D13*
%TO.C,R6*%
X105375000Y-74200000D03*
X107025000Y-74200000D03*
%TD*%
D36*
%TO.C,J6*%
X102000000Y-85000000D03*
D37*
X102200000Y-87825000D03*
X102200000Y-82175000D03*
%TD*%
D40*
%TO.C,C43*%
X155675000Y-87200000D03*
X152525000Y-87200000D03*
%TD*%
D14*
%TO.C,C3*%
X126575000Y-123700000D03*
X125025000Y-123700000D03*
%TD*%
D38*
%TO.C,D12*%
X167137500Y-102800000D03*
X167137500Y-104200000D03*
%TD*%
M02*
