%TF.GenerationSoftware,KiCad,Pcbnew,(6.0.9)*%
%TF.CreationDate,2022-11-09T00:10:41+00:00*%
%TF.ProjectId,Pi_TX_35W_PA,50695f54-585f-4333-9557-5f50412e6b69,rev?*%
%TF.SameCoordinates,Original*%
%TF.FileFunction,Soldermask,Bot*%
%TF.FilePolarity,Negative*%
%FSLAX46Y46*%
G04 Gerber Fmt 4.6, Leading zero omitted, Abs format (unit mm)*
G04 Created by KiCad (PCBNEW (6.0.9)) date 2022-11-09 00:10:41*
%MOMM*%
%LPD*%
G01*
G04 APERTURE LIST*
G04 Aperture macros list*
%AMRoundRect*
0 Rectangle with rounded corners*
0 $1 Rounding radius*
0 $2 $3 $4 $5 $6 $7 $8 $9 X,Y pos of 4 corners*
0 Add a 4 corners polygon primitive as box body*
4,1,4,$2,$3,$4,$5,$6,$7,$8,$9,$2,$3,0*
0 Add four circle primitives for the rounded corners*
1,1,$1+$1,$2,$3*
1,1,$1+$1,$4,$5*
1,1,$1+$1,$6,$7*
1,1,$1+$1,$8,$9*
0 Add four rect primitives between the rounded corners*
20,1,$1+$1,$2,$3,$4,$5,0*
20,1,$1+$1,$4,$5,$6,$7,0*
20,1,$1+$1,$6,$7,$8,$9,0*
20,1,$1+$1,$8,$9,$2,$3,0*%
G04 Aperture macros list end*
%ADD10C,1.450000*%
%ADD11O,1.900000X1.200000*%
%ADD12R,1.501140X1.501140*%
%ADD13C,1.501140*%
%ADD14C,1.500000*%
%ADD15R,4.200000X1.350000*%
%ADD16C,7.500000*%
%ADD17C,1.800000*%
%ADD18RoundRect,0.250000X1.550000X-0.750000X1.550000X0.750000X-1.550000X0.750000X-1.550000X-0.750000X0*%
%ADD19O,3.600000X2.000000*%
%ADD20C,0.750000*%
%ADD21C,6.000000*%
G04 APERTURE END LIST*
D10*
%TO.C,J1*%
X104162500Y-128500000D03*
D11*
X101462500Y-127500000D03*
X101462500Y-134500000D03*
D10*
X104162500Y-133500000D03*
%TD*%
D12*
%TO.C,K1*%
X173092500Y-139457500D03*
D13*
X185792500Y-139457500D03*
X185792500Y-131837500D03*
X178172500Y-131837500D03*
X173092500Y-131837500D03*
%TD*%
D14*
%TO.C,J2*%
X144000000Y-148500000D03*
X138000000Y-148500000D03*
X137000000Y-146500000D03*
X139000000Y-146500000D03*
X141000000Y-146500000D03*
X143000000Y-146500000D03*
X145000000Y-146500000D03*
%TD*%
D15*
%TO.C,J7*%
X197850000Y-110825000D03*
X197850000Y-105175000D03*
%TD*%
D16*
%TO.C,H3*%
X107000000Y-57000000D03*
%TD*%
D15*
%TO.C,J8*%
X197850000Y-117175000D03*
X197850000Y-122825000D03*
%TD*%
D16*
%TO.C,H2*%
X193000000Y-57000000D03*
%TD*%
D17*
%TO.C,L7*%
X156600000Y-89600000D03*
X156600000Y-101600000D03*
%TD*%
D18*
%TO.C,J5*%
X189522500Y-94300000D03*
D19*
X189522500Y-89300000D03*
%TD*%
D20*
%TO.C,SW1*%
X156600000Y-145025000D03*
X156600000Y-147775000D03*
%TD*%
D17*
%TO.C,L6*%
X178250000Y-93400000D03*
X162750000Y-93400000D03*
%TD*%
D16*
%TO.C,H1*%
X107000000Y-143000000D03*
%TD*%
%TO.C,H4*%
X193000000Y-143000000D03*
%TD*%
D21*
%TO.C,U10*%
X111000000Y-66000000D03*
X189000000Y-66000000D03*
%TD*%
D15*
%TO.C,J9*%
X197850000Y-129175000D03*
X197850000Y-134825000D03*
%TD*%
D17*
%TO.C,L5*%
X181100000Y-76100000D03*
X181100000Y-88100000D03*
%TD*%
D15*
%TO.C,J6*%
X102200000Y-87825000D03*
X102200000Y-82175000D03*
%TD*%
M02*
