M48
; DRILL file {KiCad 7.0.7} date Sun Jan  7 15:13:20 2024
; FORMAT={-:-/ absolute / inch / decimal}
; #@! TF.CreationDate,2024-01-07T15:13:20+00:00
; #@! TF.GenerationSoftware,Kicad,Pcbnew,7.0.7
; #@! TF.FileFunction,Plated,1,4,PTH
FMAT,2
INCH
; #@! TA.AperFunction,Plated,PTH,ViaDrill
T1C0.0157
; #@! TA.AperFunction,Plated,PTH,ComponentDrill
T2C0.0197
; #@! TA.AperFunction,Plated,PTH,ComponentDrill
T3C0.0236
; #@! TA.AperFunction,Plated,PTH,ComponentDrill
T4C0.0315
; #@! TA.AperFunction,Plated,PTH,ComponentDrill
T5C0.0335
; #@! TA.AperFunction,Plated,PTH,ComponentDrill
T6C0.0354
; #@! TA.AperFunction,Plated,PTH,ComponentDrill
T7C0.0433
; #@! TA.AperFunction,Plated,PTH,ComponentDrill
T8C0.0551
; #@! TA.AperFunction,Plated,PTH,ComponentDrill
T9C0.1181
; #@! TA.AperFunction,Plated,PTH,ComponentDrill
T10C0.1260
%
G90
G05
T1
X3.9724Y-3.5236
X3.9803Y-3.1693
X4.0079Y-2.0472
X4.0197Y-2.4764
X4.0787Y-3.5236
X4.0866Y-3.1693
X4.0984Y-2.8031
X4.1063Y-3.126
X4.111Y-3.3067
X4.1165Y-3.3866
X4.128Y-3.1862
X4.1685Y-3.402
X4.1693Y-3.4453
X4.1693Y-3.4909
X4.1717Y-3.185
X4.2008Y-2.6024
X4.2039Y-3.3071
X4.2043Y-3.2157
X4.2043Y-3.261
X4.2165Y-3.5256
X4.239Y-3.2984
X4.252Y-2.4882
X4.252Y-3.2681
X4.2559Y-2.7087
X4.2606Y-3.4059
X4.261Y-3.4543
X4.2622Y-3.5028
X4.274Y-3.3748
X4.2752Y-3.2354
X4.2833Y-3.1219
X4.3346Y-2.9055
X4.3602Y-3.1744
X4.3614Y-3.1193
X4.3618Y-4.9274
X4.3693Y-4.6205
X4.3701Y-2.4252
X4.3701Y-2.7717
X4.3833Y-2.9069
X4.3854Y-3.2409
X4.3854Y-3.3787
X4.3854Y-3.4213
X4.3854Y-3.463
X4.3854Y-3.5063
X4.3906Y-3.3382
X4.4001Y-3.8244
X4.4189Y-3.2094
X4.4276Y-5.1035
X4.4295Y-3.3299
X4.4303Y-4.3933
X4.4331Y-2.9921
X4.4333Y-2.9053
X4.4591Y-3.9878
X4.4646Y-2.0512
X4.4685Y-2.4724
X4.474Y-3.3028
X4.4744Y-3.2598
X4.4748Y-3.3508
X4.4764Y-3.2118
X4.4803Y-2.2835
X4.4843Y-2.7165
X4.4843Y-2.8465
X4.4843Y-2.9252
X4.4852Y-3.0581
X4.4874Y-4.274
X4.4933Y-5.2043
X4.5008Y-3.513
X4.5073Y-4.4017
X4.5079Y-4.3587
X4.5118Y-5.3154
X4.5146Y-5.498
X4.5197Y-3.2181
X4.5236Y-2.5866
X4.5264Y-3.3433
X4.5287Y-3.4272
X4.5331Y-3.1492
X4.5335Y-3.0587
X4.5339Y-3.1016
X4.5343Y-3.0134
X4.539Y-4.9791
X4.5539Y-3.2051
X4.5549Y-3.9886
X4.5563Y-5.7933
X4.5579Y-4.6465
X4.5669Y-5.8689
X4.572Y-2.9059
X4.5728Y-3.0
X4.5839Y-3.161
X4.589Y-5.0945
X4.5929Y-3.2047
X4.6126Y-3.0874
X4.6144Y-3.684
X4.6154Y-3.0004
X4.622Y-3.4059
X4.6228Y-3.452
X4.6319Y-3.837
X4.6447Y-4.471
X4.6465Y-4.2386
X4.6504Y-3.3701
X4.6587Y-3.0004
X4.6732Y-5.5295
X4.6827Y-4.6087
X4.6945Y-3.2921
X4.6953Y-3.2484
X4.6953Y-3.335
X4.7035Y-5.3642
X4.7055Y-5.6189
X4.7071Y-3.0004
X4.7075Y-3.202
X4.7098Y-5.0988
X4.7137Y-3.775
X4.7154Y-2.9075
X4.7445Y-3.2512
X4.7449Y-3.1146
X4.7449Y-3.1598
X4.7449Y-3.3055
X4.7469Y-3.3591
X4.7476Y-3.2035
X4.748Y-5.0394
X4.748Y-5.189
X4.7489Y-4.9194
X4.7543Y-3.4374
X4.7555Y-3.0618
X4.7567Y-3.0181
X4.7657Y-5.4966
X4.7886Y-3.2028
X4.7972Y-3.087
X4.8197Y-5.1969
X4.824Y-3.1157
X4.8315Y-3.4642
X4.8461Y-2.9091
X4.8545Y-5.038
X4.8552Y-5.1338
X4.865Y-3.1138
X4.8655Y-3.7763
X4.8661Y-5.248
X4.8685Y-3.2083
X4.8936Y-3.9134
X4.9043Y-3.3661
X4.9054Y-5.4154
X4.9071Y-3.4157
X4.9102Y-3.2524
X4.9122Y-3.2087
X4.9122Y-3.3189
X4.9126Y-3.1146
X4.913Y-5.6583
X4.916Y-4.0238
X4.9213Y-3.748
X4.9418Y-5.3757
X4.948Y-2.9776
X4.9488Y-3.0906
X4.9539Y-3.2941
X4.9555Y-3.2094
X4.9594Y-5.3091
X4.9614Y-2.9071
X4.9764Y-3.7598
X4.979Y-4.0318
X4.9843Y-3.5315
X5.0343Y-5.6071
X5.0417Y-5.0028
X5.0491Y-5.0616
X5.0524Y-3.3732
X5.0543Y-2.9063
X5.0549Y-4.0624
X5.0553Y-3.9905
X5.0839Y-3.8829
X5.0868Y-3.9444
X5.1118Y-4.6102
X5.1118Y-4.8189
X5.1142Y-5.0551
X5.1186Y-3.8309
X5.1488Y-4.1768
X5.1496Y-3.3732
X5.1575Y-3.0827
X5.1575Y-3.1772
X5.1575Y-3.2756
X5.1579Y-2.9106
X5.1587Y-2.9776
X5.1587Y-4.7429
X5.161Y-3.9457
X5.1803Y-4.4008
X5.1811Y-4.6181
X5.211Y-4.1819
X5.2251Y-5.309
X5.2472Y-5.7764
X5.2638Y-2.9102
X5.2638Y-3.3764
X5.2661Y-4.3295
X5.2717Y-3.7874
X5.2724Y-4.4638
X5.2897Y-4.1811
X5.2953Y-3.9252
X5.3012Y-5.5331
X5.3217Y-5.8083
X5.3531Y-4.3217
X5.3547Y-3.3728
X5.3622Y-4.8307
X5.3661Y-3.2913
X5.3685Y-3.7626
X5.3701Y-2.9079
X5.3701Y-3.0748
X5.3701Y-3.2047
X5.3701Y-5.0197
X5.3709Y-2.9736
X5.372Y-5.7764
X5.3862Y-5.3232
X5.3907Y-3.6772
X5.4355Y-4.8332
X5.4374Y-5.4844
X5.4612Y-3.4919
X5.476Y-2.9091
X5.5Y-3.0276
X5.5118Y-3.2795
X5.5315Y-5.1575
X5.5354Y-5.3425
X5.5522Y-3.0748
X5.5561Y-3.2205
X5.5776Y-5.8142
X5.5945Y-3.2441
X5.5984Y-3.0394
X5.6024Y-2.9098
X5.6105Y-3.6497
X5.622Y-5.0079
X5.6634Y-4.6752
X5.6661Y-3.2445
X5.6748Y-3.0382
X5.686Y-3.8449
X5.6969Y-4.8307
X5.6997Y-4.299
X5.7256Y-5.6819
X5.739Y-2.9071
X5.7417Y-3.2453
X5.7559Y-3.0394
X5.7593Y-3.6958
X5.7627Y-4.299
X5.7795Y-3.1457
X5.7886Y-3.385
X5.7898Y-5.3571
X5.7916Y-4.3918
X5.7921Y-3.9063
X5.7921Y-3.9496
X5.7921Y-3.9906
X5.7972Y-3.5854
X5.8071Y-5.4409
X5.8099Y-4.2911
X5.8157Y-4.247
X5.8189Y-3.2441
X5.8398Y-3.8929
X5.8409Y-4.022
X5.8474Y-5.6636
X5.8701Y-3.0079
X5.874Y-2.9331
X5.875Y-3.5198
X5.878Y-3.7953
X5.8791Y-3.3445
X5.8819Y-5.5709
X5.8898Y-3.2756
X5.8961Y-3.8909
X5.8992Y-3.6555
X5.9406Y-3.0079
X5.9409Y-4.026
X5.9425Y-2.9276
X5.9488Y-3.4449
X5.9575Y-3.8909
X5.9847Y-3.2433
X5.9972Y-3.5051
X6.0039Y-2.9882
X6.0091Y-4.0138
X6.0118Y-3.1417
X6.0276Y-3.3661
X6.0394Y-3.8228
X6.0551Y-3.2433
X6.0744Y-4.0134
X6.0827Y-3.3661
X6.0925Y-4.0567
X6.0933Y-5.79
X6.0941Y-2.9799
X6.102Y-4.2791
X6.1063Y-4.3319
X6.1236Y-4.1118
X6.1339Y-3.3661
X6.1358Y-4.3835
X6.1417Y-2.9331
X6.1417Y-3.2433
X6.1425Y-4.2539
X6.1496Y-3.6535
X6.152Y-4.165
X6.172Y-4.4177
X6.1803Y-4.2268
X6.2083Y-4.3969
X6.2283Y-3.3701
X6.2441Y-4.4594
X6.272Y-4.9937
X6.2772Y-4.9209
X6.2795Y-4.524
X6.2807Y-5.0764
X6.2823Y-4.0331
X6.2835Y-5.1244
X6.2913Y-3.8228
X6.3071Y-4.8697
X6.3138Y-4.5819
X6.3181Y-4.0791
X6.3346Y-3.3701
X6.3465Y-3.5039
X6.3496Y-4.6417
X6.3504Y-4.126
X6.3701Y-3.7717
X6.3752Y-4.8677
X6.3886Y-4.7059
X6.3984Y-5.122
X6.4016Y-3.4213
X6.4055Y-4.1
X6.4094Y-3.3071
X6.4116Y-3.2581
X6.428Y-4.778
X6.4354Y-4.8835
X6.4354Y-5.0717
X6.4551Y-3.3496
X6.4602Y-4.9567
X6.4614Y-3.0028
X6.4646Y-4.8472
X6.465Y-4.1244
X6.4685Y-3.5866
X6.4744Y-4.2319
X6.4819Y-4.9965
X6.4917Y-4.1622
X6.5031Y-3.3508
X6.5154Y-4.1031
X6.5181Y-4.3079
X6.5378Y-5.0063
X6.5386Y-4.0551
X6.5469Y-3.35
X6.5531Y-4.3713
X6.5535Y-3.0012
X6.5673Y-3.9839
X6.5748Y-3.8189
X6.5791Y-4.9866
X6.5811Y-5.6953
X6.5815Y-4.311
X6.5846Y-4.0551
X6.585Y-4.4307
X6.5894Y-3.3504
X6.5957Y-5.8248
X6.6024Y-3.1417
X6.6193Y-4.4913
X6.622Y-2.9793
X6.6232Y-5.0067
X6.6398Y-4.313
X6.6476Y-3.2795
X6.6488Y-4.5492
X6.6654Y-4.0469
X6.6669Y-4.2654
X6.6736Y-4.0862
X6.6748Y-4.1362
X6.6768Y-5.1043
X6.678Y-4.2205
X6.6827Y-4.6075
X6.6831Y-4.0039
X6.6937Y-3.3402
X6.6969Y-5.7717
X6.7083Y-5.652
X6.7134Y-4.6622
X6.7142Y-5.1846
X6.7457Y-4.7118
X6.7677Y-5.2677
X6.7701Y-4.8854
X6.7709Y-4.0024
X6.7898Y-4.6902
X6.7917Y-4.9362
X6.811Y-3.8189
X6.8201Y-4.7343
X6.8201Y-4.8587
X6.8205Y-4.9839
X6.8469Y-4.7846
X6.8579Y-5.0618
X6.8634Y-4.835
X6.8661Y-4.0024
X6.8681Y-4.913
X6.8717Y-4.9858
X6.8736Y-5.2575
X6.8941Y-4.8594
X6.9134Y-3.6496
X6.9213Y-5.189
X6.9406Y-4.8441
X6.9449Y-2.9764
X6.948Y-3.2492
X6.948Y-3.3429
X6.9547Y-5.2567
X6.9583Y-4.0024
X6.961Y-5.1193
X6.9772Y-5.0382
X6.9929Y-4.7941
X7.0228Y-5.072
X7.0236Y-5.2953
X7.0276Y-3.4252
X7.0433Y-3.7677
X7.0479Y-3.7982
X7.0524Y-4.7362
X7.0535Y-4.0024
X7.0567Y-5.0071
X7.0831Y-3.1752
X7.0894Y-5.248
X7.1067Y-4.6835
X7.113Y-5.015
X7.1299Y-2.9134
X7.1299Y-4.9094
X7.1504Y-4.0039
X7.1713Y-3.561
X7.1722Y-5.7421
X7.1744Y-4.6138
X7.1756Y-5.1965
X7.185Y-3.0787
X7.1898Y-4.963
X7.2063Y-4.837
X7.2118Y-5.815
X7.2274Y-3.8671
X7.228Y-5.2126
X7.2313Y-3.6014
X7.2343Y-5.1496
X7.2394Y-4.5476
X7.2531Y-4.0039
X7.2638Y-3.4291
X7.2681Y-5.2669
X7.2717Y-2.9724
X7.274Y-4.9067
X7.2756Y-3.6772
X7.2756Y-3.7874
X7.2839Y-4.7587
X7.2913Y-2.5945
X7.3071Y-5.1008
X7.3079Y-4.4819
X7.3264Y-3.2638
X7.3268Y-2.4685
X7.3268Y-3.1417
X7.3269Y-5.7576
X7.3346Y-2.7165
X7.3386Y-3.7425
X7.3398Y-3.8142
X7.3402Y-3.6531
X7.3469Y-3.2083
X7.35Y-2.8142
X7.3504Y-2.9094
X7.3504Y-3.0748
X7.3513Y-2.993
X7.3528Y-3.4886
X7.3531Y-4.0024
X7.3551Y-5.2803
X7.3559Y-4.687
X7.3701Y-2.0669
X7.3701Y-2.2949
X7.376Y-4.837
X7.378Y-5.0512
X7.3787Y-3.3299
X7.3787Y-4.4102
X7.3854Y-3.1394
X7.3858Y-3.2673
X7.3858Y-3.4409
X7.3898Y-3.5866
X7.426Y-4.6157
X7.4449Y-4.3425
X7.4484Y-5.2827
X7.4504Y-4.7858
X7.4528Y-2.437
X7.4535Y-2.8602
X7.4539Y-4.9992
X7.4559Y-4.0055
X7.4594Y-3.8028
X7.4606Y-3.5866
X7.4606Y-5.0984
X7.4615Y-2.7629
X7.4615Y-2.9676
X7.4615Y-3.444
X7.4646Y-3.6496
X7.4862Y-4.5551
X7.5059Y-4.2843
X7.5315Y-3.4449
X7.5354Y-3.5827
X7.5374Y-4.9457
X7.5402Y-4.7244
X7.5406Y-4.4972
X7.5496Y-4.0039
X7.5551Y-2.4764
X7.5618Y-4.228
X7.563Y-5.2819
X7.5665Y-3.8
X7.5669Y-3.728
X7.5681Y-3.6543
X7.5748Y-2.7087
X7.5787Y-2.9409
X7.5787Y-5.0984
X7.5827Y-3.2756
X7.6024Y-2.5906
X7.6055Y-4.6803
X7.6083Y-4.4319
X7.6094Y-4.1803
X7.615Y-4.8937
X7.6465Y-4.0024
X7.65Y-3.6016
X7.65Y-3.7961
X7.6543Y-3.4205
X7.6654Y-4.3768
X7.6654Y-5.0984
X7.6693Y-4.1102
X7.6693Y-4.1575
X7.6697Y-5.3402
X7.6701Y-5.0476
X7.6701Y-5.2795
X7.6713Y-4.5669
X7.6732Y-4.6339
X7.6862Y-4.8469
X7.6929Y-2.9409
X7.7008Y-3.2756
X7.7008Y-4.0748
X7.7047Y-4.9016
X7.7205Y-4.4291
X7.7213Y-5.3709
X7.7228Y-5.0228
X7.7244Y-4.5433
X7.737Y-4.0039
X7.7717Y-4.0748
X7.7756Y-4.4291
X7.7756Y-4.9134
X7.7835Y-4.5433
X7.7874Y-2.063
X7.7874Y-3.2756
X7.7874Y-5.022
X7.7882Y-5.3713
X7.7894Y-2.3043
X7.7953Y-2.5827
X7.7988Y-2.835
X7.8012Y-3.4205
X7.8043Y-3.6
X7.8059Y-3.7945
X7.811Y-2.9409
X7.8291Y-3.1626
X7.8307Y-3.0252
X7.8307Y-4.0748
X7.8339Y-4.0008
X7.8346Y-4.4291
X7.8346Y-4.9094
X7.8386Y-4.5433
X7.8524Y-5.3709
X7.8535Y-5.0228
T2
X5.6876Y-5.7734
X5.7663Y-5.7734
X5.845Y-5.7734
X5.9238Y-5.7734
X6.0025Y-5.7734
T4
X6.8147Y-5.1905
X6.8147Y-5.4905
X7.0147Y-5.1905
X7.3147Y-5.1905
X7.3147Y-5.4905
T5
X4.7634Y-5.705
X4.9602Y-5.705
T6
X4.3157Y-3.6913
X4.3157Y-3.7913
X4.3157Y-3.8913
X4.3157Y-3.9913
T7
X6.1654Y-3.5276
X6.1654Y-4.0
X6.4075Y-3.6772
X7.0177Y-3.6772
X7.1634Y-2.9941
X7.1634Y-3.4665
T8
X7.4615Y-3.5157
X7.4615Y-3.7126
T9
X4.3701Y-2.5984
X7.4409Y-2.5984
T10
X4.2126Y-2.2441
X4.2126Y-5.6299
X7.5984Y-2.2441
X7.5984Y-5.6299
T3
G00X4.724Y-5.8251
M15
G01X4.724Y-5.7975
M16
G05
G00X4.9996Y-5.7975
M15
G01X4.9996Y-5.8251
M16
G05
T0
M30
