M48
; DRILL file {KiCad 7.0.7} date Tue Nov  7 01:08:08 2023
; FORMAT={-:-/ absolute / inch / decimal}
; #@! TF.CreationDate,2023-11-07T01:08:08+00:00
; #@! TF.GenerationSoftware,Kicad,Pcbnew,7.0.7
; #@! TF.FileFunction,Plated,1,4,PTH
FMAT,2
INCH
; #@! TA.AperFunction,Plated,PTH,ViaDrill
T1C0.0157
; #@! TA.AperFunction,Plated,PTH,ComponentDrill
T2C0.0197
; #@! TA.AperFunction,Plated,PTH,ComponentDrill
T3C0.0236
; #@! TA.AperFunction,Plated,PTH,ComponentDrill
T4C0.0315
; #@! TA.AperFunction,Plated,PTH,ComponentDrill
T5C0.0335
; #@! TA.AperFunction,Plated,PTH,ComponentDrill
T6C0.0354
; #@! TA.AperFunction,Plated,PTH,ComponentDrill
T7C0.0433
; #@! TA.AperFunction,Plated,PTH,ComponentDrill
T8C0.0551
; #@! TA.AperFunction,Plated,PTH,ComponentDrill
T9C0.1181
; #@! TA.AperFunction,Plated,PTH,ComponentDrill
T10C0.1260
%
G90
G05
T1
X3.9724Y-3.5236
X3.9803Y-3.1693
X4.0079Y-2.0472
X4.0197Y-2.4764
X4.0787Y-3.5236
X4.0866Y-3.1693
X4.0984Y-2.8031
X4.1063Y-3.126
X4.1526Y-3.4577
X4.1535Y-3.2992
X4.1535Y-3.3937
X4.1575Y-3.2283
X4.2008Y-2.6024
X4.2087Y-3.3937
X4.252Y-2.4882
X4.2559Y-2.7087
X4.2668Y-3.3937
X4.2833Y-3.1219
X4.3277Y-3.2362
X4.3277Y-3.3189
X4.3277Y-3.374
X4.3346Y-2.9055
X4.3618Y-4.9303
X4.3693Y-4.6205
X4.3701Y-2.4252
X4.3701Y-2.7717
X4.3833Y-2.9069
X4.3858Y-3.1772
X4.3858Y-3.126
X4.3937Y-3.2205
X4.3976Y-3.3268
X4.4213Y-3.4409
X4.4276Y-5.1035
X4.4303Y-4.3933
X4.4331Y-2.9921
X4.4333Y-2.9053
X4.4591Y-3.9803
X4.4646Y-2.0512
X4.4685Y-2.4724
X4.4764Y-3.2283
X4.4764Y-3.3228
X4.4803Y-2.2835
X4.4843Y-2.7165
X4.4843Y-2.8465
X4.4843Y-2.9252
X4.4852Y-3.0581
X4.4874Y-4.274
X4.4933Y-5.2043
X4.5073Y-4.4017
X4.5079Y-4.3587
X4.5118Y-5.3154
X4.5146Y-5.498
X4.5236Y-2.5866
X4.539Y-4.9791
X4.5394Y-3.2362
X4.5472Y-3.3071
X4.55Y-3.8161
X4.5549Y-3.9886
X4.5563Y-5.7933
X4.5579Y-4.6465
X4.5669Y-5.8689
X4.5866Y-3.0669
X4.5866Y-3.122
X4.5866Y-3.1732
X4.589Y-5.0945
X4.5984Y-2.9213
X4.6043Y-3.2972
X4.6142Y-3.3937
X4.6362Y-3.824
X4.6447Y-4.471
X4.6465Y-4.2386
X4.6496Y-3.0512
X4.6732Y-5.5295
X4.6827Y-4.6087
X4.7035Y-5.3642
X4.7055Y-5.6189
X4.7098Y-5.0988
X4.7126Y-3.0669
X4.7126Y-3.122
X4.7126Y-3.1732
X4.7165Y-2.9173
X4.7283Y-3.4331
X4.7362Y-3.7925
X4.748Y-5.0394
X4.748Y-5.189
X4.7489Y-4.9194
X4.7559Y-3.2008
X4.7559Y-3.2677
X4.7654Y-5.5295
X4.8346Y-3.1811
X4.8386Y-2.9213
X4.8543Y-3.3504
X4.8545Y-5.038
X4.8552Y-5.1338
X4.8655Y-3.7763
X4.8661Y-5.248
X4.8936Y-3.9134
X4.8976Y-3.1929
X4.8976Y-3.2874
X4.913Y-5.6583
X4.9134Y-4.053
X4.9181Y-5.4154
X4.9213Y-3.748
X4.9436Y-5.374
X4.9488Y-3.0039
X4.9488Y-3.0906
X4.9528Y-3.1811
X4.9567Y-3.2835
X4.9577Y-5.3264
X4.9606Y-3.3661
X4.9646Y-2.9252
X4.9764Y-3.7598
X4.9764Y-4.0551
X4.9843Y-3.5315
X5.0343Y-5.6071
X5.0491Y-5.0616
X5.0551Y-3.3898
X5.0551Y-3.9921
X5.0591Y-2.9134
X5.0819Y-3.8819
X5.0945Y-3.9449
X5.0945Y-4.6102
X5.1024Y-4.8189
X5.1142Y-5.0551
X5.1185Y-3.8386
X5.1457Y-2.9173
X5.1457Y-3.3858
X5.1488Y-4.1768
X5.1575Y-3.0
X5.1575Y-3.0827
X5.1575Y-3.1772
X5.1575Y-3.2756
X5.1587Y-4.7429
X5.1803Y-4.4008
X5.1811Y-4.6181
X5.1925Y-5.8043
X5.211Y-4.1819
X5.2126Y-3.9213
X5.2251Y-5.309
X5.2323Y-5.8039
X5.245Y-5.6039
X5.2559Y-3.3898
X5.2638Y-2.9134
X5.2661Y-4.3295
X5.2717Y-3.7874
X5.2724Y-4.4638
X5.2897Y-4.1811
X5.2953Y-3.9252
X5.3012Y-5.5331
X5.3039Y-5.6627
X5.3531Y-4.3217
X5.3543Y-3.3858
X5.3622Y-4.8307
X5.3661Y-3.2913
X5.3685Y-3.7626
X5.3701Y-2.9449
X5.3701Y-2.9961
X5.3701Y-3.0748
X5.3701Y-3.2047
X5.3701Y-5.0197
X5.3752Y-5.5807
X5.3795Y-5.8039
X5.3862Y-5.3232
X5.3907Y-3.6772
X5.4355Y-4.8332
X5.4374Y-5.4844
X5.4441Y-5.8091
X5.4612Y-3.4919
X5.5Y-3.0276
X5.5118Y-3.2795
X5.5315Y-5.1575
X5.5354Y-5.3425
X5.5522Y-3.0748
X5.5561Y-3.2205
X5.5591Y-2.9291
X5.5945Y-3.2441
X5.5984Y-3.0394
X5.6105Y-3.6497
X5.622Y-5.0079
X5.6634Y-4.6752
X5.6732Y-3.0433
X5.6732Y-3.2402
X5.686Y-3.8449
X5.6969Y-4.8307
X5.6997Y-4.299
X5.7244Y-2.9291
X5.7269Y-5.6913
X5.752Y-3.2402
X5.7559Y-3.0394
X5.7593Y-3.6958
X5.7627Y-4.299
X5.7795Y-3.1457
X5.7886Y-3.385
X5.7916Y-4.3918
X5.7972Y-3.5854
X5.8071Y-5.4409
X5.8099Y-4.2911
X5.811Y-5.3386
X5.8189Y-3.2441
X5.8436Y-4.247
X5.8474Y-5.6636
X5.874Y-2.9331
X5.875Y-3.5198
X5.878Y-3.7953
X5.8791Y-3.3445
X5.8819Y-5.5709
X5.8898Y-3.2756
X5.8992Y-3.6555
X5.9114Y-5.276
X5.9488Y-3.4449
X5.9682Y-4.7745
X5.9764Y-4.0394
X5.9764Y-4.8858
X5.9803Y-4.1496
X5.9847Y-3.2433
X5.9972Y-3.5051
X6.0Y-3.9724
X6.0003Y-4.655
X6.0039Y-2.9882
X6.0118Y-3.1417
X6.0276Y-3.3661
X6.0276Y-4.5748
X6.0276Y-4.9921
X6.0394Y-3.8228
X6.0551Y-3.2433
X6.0591Y-4.2323
X6.0827Y-3.3661
X6.0827Y-3.9567
X6.0906Y-5.063
X6.0933Y-5.79
X6.1142Y-4.4961
X6.1339Y-3.3661
X6.1417Y-2.9331
X6.1417Y-3.2433
X6.1417Y-4.2047
X6.1496Y-3.6535
X6.1558Y-3.9232
X6.1772Y-5.1181
X6.2047Y-4.252
X6.2219Y-5.2087
X6.2283Y-3.3701
X6.2283Y-4.4449
X6.252Y-3.9409
X6.2677Y-4.0118
X6.2756Y-5.1378
X6.2795Y-4.7913
X6.2913Y-3.8228
X6.2953Y-4.2913
X6.311Y-4.0827
X6.3346Y-3.3701
X6.3386Y-4.752
X6.3425Y-4.8346
X6.3465Y-3.5039
X6.3504Y-4.4331
X6.3701Y-3.7717
X6.374Y-4.2992
X6.374Y-5.1417
X6.3898Y-4.1063
X6.4016Y-3.4213
X6.4094Y-3.3071
X6.4116Y-3.2581
X6.4331Y-4.748
X6.4331Y-4.8307
X6.4551Y-3.3496
X6.4646Y-4.1024
X6.4646Y-4.2953
X6.4646Y-4.3543
X6.4685Y-3.5866
X6.4685Y-4.4331
X6.47Y-3.9921
X6.4724Y-4.0433
X6.4843Y-5.1378
X6.4921Y-4.7874
X6.4921Y-4.8386
X6.5031Y-3.3508
X6.5469Y-3.35
X6.5472Y-4.7805
X6.5748Y-3.8189
X6.5811Y-5.6953
X6.5866Y-4.4331
X6.5894Y-3.3504
X6.5957Y-5.8248
X6.6024Y-3.1417
X6.6029Y-5.2667
X6.6063Y-4.7805
X6.622Y-2.9793
X6.6299Y-4.0512
X6.6496Y-4.3583
X6.6535Y-5.1732
X6.6575Y-4.7795
X6.6693Y-4.8268
X6.6693Y-4.8937
X6.6693Y-5.0906
X6.689Y-4.437
X6.6929Y-4.0472
X6.6969Y-4.752
X6.6969Y-5.7717
X6.7083Y-5.652
X6.7165Y-5.1299
X6.7165Y-5.1969
X6.7362Y-4.9094
X6.7402Y-4.3583
X6.7677Y-5.2677
X6.7756Y-4.0472
X6.7756Y-4.752
X6.7992Y-4.437
X6.8071Y-4.9449
X6.811Y-3.8189
X6.8346Y-4.3583
X6.8622Y-4.748
X6.8622Y-4.8661
X6.8661Y-4.8071
X6.8661Y-4.9449
X6.8661Y-5.0236
X6.874Y-4.0472
X6.874Y-5.2677
X6.8937Y-4.437
X6.9031Y-3.9882
X6.9134Y-3.6496
X6.9213Y-5.189
X6.9409Y-4.3583
X6.9449Y-2.9764
X6.9449Y-5.2598
X6.9764Y-4.0433
X6.9764Y-4.7795
X6.9921Y-4.4331
X7.0039Y-4.9134
X7.0079Y-5.0433
X7.0236Y-5.2953
X7.0276Y-3.4252
X7.0315Y-4.7756
X7.0433Y-3.7677
X7.0472Y-3.8465
X7.0472Y-4.374
X7.0984Y-4.0472
X7.1181Y-4.7756
X7.126Y-5.2559
X7.1299Y-2.9134
X7.1299Y-4.9094
X7.1722Y-5.7421
X7.1732Y-4.7205
X7.185Y-3.0787
X7.1929Y-4.0709
X7.1969Y-5.185
X7.2118Y-5.815
X7.2165Y-4.8661
X7.2274Y-3.8671
X7.2313Y-3.6014
X7.2362Y-5.2638
X7.252Y-5.1102
X7.2638Y-3.4291
X7.2677Y-4.6378
X7.2717Y-2.9724
X7.2717Y-4.1378
X7.2756Y-3.6772
X7.2756Y-3.7874
X7.2874Y-4.7835
X7.2913Y-2.5945
X7.3228Y-3.2638
X7.3268Y-2.4685
X7.3268Y-3.1417
X7.3269Y-5.7576
X7.3307Y-4.2165
X7.3346Y-2.7165
X7.3386Y-3.7425
X7.3386Y-5.0984
X7.3386Y-5.2913
X7.3398Y-3.8142
X7.3402Y-3.6531
X7.3425Y-4.5591
X7.3425Y-5.0197
X7.3504Y-2.9094
X7.3504Y-3.0748
X7.3504Y-4.8031
X7.3513Y-2.993
X7.3528Y-3.4886
X7.3583Y-4.7165
X7.364Y-3.203
X7.3661Y-4.3071
X7.3701Y-2.0669
X7.378Y-4.4173
X7.3858Y-3.4409
X7.3898Y-3.5866
X7.3976Y-3.1378
X7.3976Y-3.2638
X7.4055Y-4.4921
X7.4252Y-4.6496
X7.437Y-4.9882
X7.4409Y-4.8031
X7.4528Y-2.437
X7.4594Y-3.8028
X7.4606Y-3.5866
X7.4606Y-5.0984
X7.4606Y-5.2913
X7.4615Y-2.7629
X7.4615Y-2.9676
X7.4615Y-3.444
X7.4646Y-3.6496
X7.4685Y-4.4331
X7.4921Y-4.5906
X7.5157Y-4.7756
X7.5276Y-4.3701
X7.5315Y-3.4449
X7.5315Y-4.9882
X7.5354Y-3.5827
X7.5354Y-4.5354
X7.552Y-4.7059
X7.5551Y-2.4764
X7.5591Y-5.2874
X7.5665Y-3.8
X7.5669Y-3.728
X7.5681Y-3.6543
X7.5748Y-2.7087
X7.5787Y-2.9409
X7.5787Y-5.0984
X7.5827Y-3.2756
X7.5866Y-4.311
X7.5945Y-4.4764
X7.6024Y-2.5906
X7.6102Y-4.6693
X7.6102Y-4.9606
X7.6457Y-4.9134
X7.6575Y-5.2835
X7.6614Y-4.4173
X7.6614Y-4.5472
X7.6614Y-4.6181
X7.6614Y-5.3543
X7.6634Y-4.2736
X7.6654Y-5.0512
X7.6654Y-5.0984
X7.6693Y-4.1102
X7.6693Y-4.1575
X7.6929Y-2.9409
X7.6929Y-4.2087
X7.7008Y-3.2756
X7.7008Y-4.0748
X7.7047Y-4.9016
X7.7165Y-5.0157
X7.7205Y-4.4291
X7.7244Y-4.5433
X7.7283Y-5.378
X7.7717Y-4.0748
X7.7756Y-4.4291
X7.7756Y-4.9134
X7.7756Y-5.0157
X7.7835Y-4.5433
X7.7874Y-2.063
X7.7874Y-3.2756
X7.7913Y-5.3819
X7.7953Y-2.5827
X7.811Y-2.9409
X7.8307Y-4.0748
X7.8346Y-4.4291
X7.8346Y-4.9094
X7.8346Y-5.0157
X7.8386Y-4.5433
X7.8386Y-5.3819
T2
X5.6876Y-5.7734
X5.7663Y-5.7734
X5.845Y-5.7734
X5.9238Y-5.7734
X6.0025Y-5.7734
T4
X6.8147Y-5.1905
X6.8147Y-5.4905
X7.0147Y-5.1905
X7.3147Y-5.1905
X7.3147Y-5.4905
T5
X4.7634Y-5.705
X4.9602Y-5.705
T6
X4.3157Y-3.6913
X4.3157Y-3.7913
X4.3157Y-3.8913
X4.3157Y-3.9913
T7
X6.1654Y-3.5276
X6.1654Y-4.0
X6.4075Y-3.6772
X7.0177Y-3.6772
X7.1634Y-2.9941
X7.1634Y-3.4665
T8
X7.4615Y-3.5157
X7.4615Y-3.7126
T9
X4.3701Y-2.5984
X7.4409Y-2.5984
T10
X4.2126Y-2.2441
X4.2126Y-5.6299
X7.5984Y-2.2441
X7.5984Y-5.6299
T3
G00X4.724Y-5.8251
M15
G01X4.724Y-5.7975
M16
G05
G00X4.9996Y-5.7975
M15
G01X4.9996Y-5.8251
M16
G05
T0
M30
