%TF.GenerationSoftware,KiCad,Pcbnew,7.0.7*%
%TF.CreationDate,2023-11-07T01:08:08+00:00*%
%TF.ProjectId,Pi_TX_35W_PA_V2,50695f54-585f-4333-9557-5f50415f5632,rev?*%
%TF.SameCoordinates,Original*%
%TF.FileFunction,Copper,L2,Inr*%
%TF.FilePolarity,Positive*%
%FSLAX46Y46*%
G04 Gerber Fmt 4.6, Leading zero omitted, Abs format (unit mm)*
G04 Created by KiCad (PCBNEW 7.0.7) date 2023-11-07 01:08:08*
%MOMM*%
%LPD*%
G01*
G04 APERTURE LIST*
G04 Aperture macros list*
%AMRoundRect*
0 Rectangle with rounded corners*
0 $1 Rounding radius*
0 $2 $3 $4 $5 $6 $7 $8 $9 X,Y pos of 4 corners*
0 Add a 4 corners polygon primitive as box body*
4,1,4,$2,$3,$4,$5,$6,$7,$8,$9,$2,$3,0*
0 Add four circle primitives for the rounded corners*
1,1,$1+$1,$2,$3*
1,1,$1+$1,$4,$5*
1,1,$1+$1,$6,$7*
1,1,$1+$1,$8,$9*
0 Add four rect primitives between the rounded corners*
20,1,$1+$1,$2,$3,$4,$5,0*
20,1,$1+$1,$4,$5,$6,$7,0*
20,1,$1+$1,$6,$7,$8,$9,0*
20,1,$1+$1,$8,$9,$2,$3,0*%
G04 Aperture macros list end*
%TA.AperFunction,ComponentPad*%
%ADD10O,1.200000X1.900000*%
%TD*%
%TA.AperFunction,ComponentPad*%
%ADD11C,1.450000*%
%TD*%
%TA.AperFunction,ComponentPad*%
%ADD12R,1.501140X1.501140*%
%TD*%
%TA.AperFunction,ComponentPad*%
%ADD13C,1.501140*%
%TD*%
%TA.AperFunction,ComponentPad*%
%ADD14C,1.500000*%
%TD*%
%TA.AperFunction,ComponentPad*%
%ADD15C,5.600000*%
%TD*%
%TA.AperFunction,ComponentPad*%
%ADD16C,1.800000*%
%TD*%
%TA.AperFunction,ComponentPad*%
%ADD17RoundRect,0.250000X1.550000X-0.750000X1.550000X0.750000X-1.550000X0.750000X-1.550000X-0.750000X0*%
%TD*%
%TA.AperFunction,ComponentPad*%
%ADD18O,3.600000X2.000000*%
%TD*%
%TA.AperFunction,ComponentPad*%
%ADD19C,2.000000*%
%TD*%
%TA.AperFunction,ComponentPad*%
%ADD20C,6.000000*%
%TD*%
%TA.AperFunction,ViaPad*%
%ADD21C,0.800000*%
%TD*%
G04 APERTURE END LIST*
D10*
%TO.N,Net-(J1-Shield)*%
%TO.C,J1*%
X119990000Y-147607500D03*
D11*
X120990000Y-144907500D03*
X125990000Y-144907500D03*
D10*
X126990000Y-147607500D03*
%TD*%
D12*
%TO.N,Net-(K1-Pad1)*%
%TO.C,K1*%
X173092500Y-139457500D03*
D13*
%TO.N,Net-(K1-Pad6)*%
X185792500Y-139457500D03*
%TO.N,Net-(J9-In)*%
X185792500Y-131837500D03*
%TO.N,Net-(J8-In)*%
X178172500Y-131837500D03*
%TO.N,Net-(U11-RF)*%
X173092500Y-131837500D03*
%TD*%
D14*
%TO.N,+3.3V*%
%TO.C,J2*%
X144464196Y-146645000D03*
%TO.N,Net-(J2-Pin_2)*%
X146464196Y-146645000D03*
%TO.N,Net-(J2-Pin_3)*%
X148464196Y-146645000D03*
%TO.N,GND*%
X150464196Y-146645000D03*
%TO.N,Net-(J2-Pin_5)*%
X152464196Y-146645000D03*
%TD*%
D15*
%TO.N,GND*%
%TO.C,H3*%
X107000000Y-57000000D03*
%TD*%
%TO.N,GND*%
%TO.C,H2*%
X193000000Y-57000000D03*
%TD*%
D16*
%TO.N,Net-(C41-Pad2)*%
%TO.C,L7*%
X156600000Y-89600000D03*
%TO.N,Net-(U11-RF)*%
X156600000Y-101600000D03*
%TD*%
D17*
%TO.N,Net-(J5-Pin_1)*%
%TO.C,J5*%
X189522500Y-94300000D03*
D18*
%TO.N,GND*%
X189522500Y-89300000D03*
%TD*%
D16*
%TO.N,Net-(C38-Pad2)*%
%TO.C,L6*%
X178250000Y-93400000D03*
%TO.N,Net-(C41-Pad2)*%
X162750000Y-93400000D03*
%TD*%
D19*
%TO.N,GND*%
%TO.C,J10*%
X109620000Y-93760000D03*
%TO.N,+5V*%
X109620000Y-96300000D03*
%TO.N,/PA_Protection/Fan_RPM*%
X109620000Y-98840000D03*
%TO.N,Net-(J10-Pin_4)*%
X109620000Y-101380000D03*
%TD*%
D15*
%TO.N,GND*%
%TO.C,H1*%
X107000000Y-143000000D03*
%TD*%
%TO.N,GND*%
%TO.C,H4*%
X193000000Y-143000000D03*
%TD*%
D20*
%TO.N,GND*%
%TO.C,U10*%
X111000000Y-66000000D03*
X189000000Y-66000000D03*
%TD*%
D16*
%TO.N,Net-(U10-RF_Out)*%
%TO.C,L5*%
X181950000Y-76050000D03*
%TO.N,Net-(C38-Pad2)*%
X181950000Y-88050000D03*
%TD*%
D21*
%TO.N,GND*%
X117760000Y-97130000D03*
X113260000Y-101100000D03*
%TO.N,/PA_Protection/Fan PWM*%
X115695000Y-101310000D03*
%TO.N,/PA_Protection/Fan_RPM*%
X115570000Y-96930000D03*
%TO.N,+12V*%
X138715000Y-88695000D03*
X114670000Y-139650000D03*
X131580000Y-111780000D03*
X167530000Y-147950000D03*
X149400000Y-141500000D03*
X135970000Y-109770000D03*
X126600000Y-89700000D03*
X182174998Y-145850000D03*
%TO.N,GND*%
X183575000Y-98225000D03*
X155800000Y-85500000D03*
X189522500Y-70177500D03*
X116800000Y-74200000D03*
X156357584Y-99650000D03*
X119700000Y-80600000D03*
X177200000Y-102700000D03*
X191400000Y-115200000D03*
X158800000Y-100100000D03*
X186500000Y-127500000D03*
X156000000Y-82380000D03*
X154770000Y-147066321D03*
X122900000Y-74200000D03*
X175800000Y-131800000D03*
X111335000Y-73835000D03*
X170390000Y-143560000D03*
X104100000Y-71200000D03*
X153100000Y-116200000D03*
X171100000Y-124700000D03*
X192500000Y-129500000D03*
X132717531Y-134849203D03*
X166300000Y-121425000D03*
X112600000Y-76000000D03*
X133920000Y-113380000D03*
X126100000Y-74300000D03*
X120800000Y-81300000D03*
X170600000Y-130300000D03*
X189500000Y-134400000D03*
X179000000Y-97700000D03*
X182500000Y-78200000D03*
X171900000Y-133800000D03*
X102100000Y-62900000D03*
X174600000Y-133800000D03*
X114486527Y-111802176D03*
X125800000Y-80800000D03*
X131890000Y-147430000D03*
X191900000Y-62900000D03*
X113980000Y-108560000D03*
X182200000Y-119900000D03*
X172100000Y-120700000D03*
X161200000Y-89000000D03*
X159500000Y-121700000D03*
X167160000Y-144660000D03*
X173600000Y-110700000D03*
X136400000Y-81400000D03*
X164700000Y-130500000D03*
X125700000Y-78500000D03*
X176400000Y-75600000D03*
X136530000Y-141750000D03*
X186100000Y-62700000D03*
X187200000Y-52500000D03*
X125900000Y-83400000D03*
X197800000Y-52400000D03*
X152400000Y-100900000D03*
X189522500Y-87477500D03*
X163400000Y-122700000D03*
X169400000Y-124300000D03*
X184600000Y-117800000D03*
X186400000Y-129500000D03*
X113700000Y-84400000D03*
X119700000Y-77900000D03*
X119700000Y-79300000D03*
X197900000Y-136700000D03*
X146800000Y-79900000D03*
X194200000Y-124800000D03*
X109924500Y-82200000D03*
X153100000Y-126800000D03*
X194600000Y-136000000D03*
X110980000Y-117360000D03*
X195600000Y-103500000D03*
X109924500Y-85700000D03*
X113925000Y-77675000D03*
X168200000Y-75675000D03*
X161900000Y-109200000D03*
X177200000Y-121400000D03*
X103800000Y-80500000D03*
X147600000Y-135600000D03*
X116500000Y-77900000D03*
X192700000Y-109500000D03*
X171200000Y-110700000D03*
X149840000Y-92850000D03*
X191400000Y-91000000D03*
X164300000Y-112600000D03*
X186700000Y-73900000D03*
X191820000Y-119530000D03*
X140600000Y-135700000D03*
X194600000Y-117300000D03*
X181100000Y-124700000D03*
X172700000Y-112700000D03*
X199100000Y-115400000D03*
X123300000Y-85100000D03*
X144700000Y-122700000D03*
X136400000Y-74800000D03*
X164200000Y-110600000D03*
X174400000Y-125600000D03*
X167712500Y-133775000D03*
X197500000Y-112500000D03*
X186500000Y-115800000D03*
X148427610Y-107874762D03*
X156200000Y-92800000D03*
X190300000Y-116600000D03*
X170600000Y-132000000D03*
X185200000Y-65900000D03*
X179000000Y-111100000D03*
X167000000Y-97000000D03*
X141125000Y-81800000D03*
X108375500Y-86200000D03*
X136400000Y-76100000D03*
X116000000Y-149070000D03*
X133500000Y-86100000D03*
X105600000Y-82000000D03*
X194650000Y-108550000D03*
X117200000Y-86200000D03*
X178400000Y-134500000D03*
X197700000Y-115400000D03*
X191200000Y-111000000D03*
X195700000Y-124500000D03*
X113400000Y-52100000D03*
X168900000Y-110700000D03*
X130700000Y-74100000D03*
X113800000Y-58000000D03*
X140000000Y-83300000D03*
X159200000Y-101900000D03*
X174600000Y-102800000D03*
X154500000Y-85500000D03*
X193300000Y-126000000D03*
X158200000Y-112900000D03*
X111000000Y-61600000D03*
X180300000Y-102800000D03*
X120800000Y-83000000D03*
X149600000Y-83200000D03*
X144772500Y-109195000D03*
X146372500Y-109195000D03*
X164300000Y-91100000D03*
X153100000Y-85500000D03*
X197500000Y-127400000D03*
X141025000Y-78100000D03*
X175600000Y-92700000D03*
X187400000Y-112200000D03*
X178500000Y-87000000D03*
X129400000Y-100200000D03*
X142800000Y-127200000D03*
X152408766Y-118237006D03*
X105500000Y-86200000D03*
X192400000Y-68800000D03*
X184800000Y-93400000D03*
X113900000Y-72300000D03*
X151100000Y-87500000D03*
X152011569Y-82380000D03*
X194800000Y-105600000D03*
X170000000Y-102800000D03*
X182700000Y-103400000D03*
X187700000Y-91100000D03*
X174400000Y-122100000D03*
X184800000Y-96200000D03*
X116500000Y-79300000D03*
X144100000Y-82300000D03*
X193100000Y-65800000D03*
X181000000Y-133500000D03*
X161300000Y-112600000D03*
X192000000Y-134300000D03*
X152500000Y-75900000D03*
X197500000Y-124800000D03*
X151800000Y-102600000D03*
X113500000Y-62800000D03*
X105500000Y-83800000D03*
X194600000Y-115500000D03*
X159400000Y-130500000D03*
X187600000Y-87400000D03*
X189522500Y-75377500D03*
X168400000Y-102900000D03*
X156000000Y-74500000D03*
X198000000Y-65600000D03*
X172900000Y-125600000D03*
X161100000Y-122800000D03*
X180800000Y-121300000D03*
X147800000Y-82400000D03*
X156000000Y-106800000D03*
X186760000Y-88610000D03*
X196300000Y-136600000D03*
X125700000Y-76300000D03*
X130700000Y-86000000D03*
X167800000Y-121425000D03*
X164400000Y-102700000D03*
X116500000Y-80600000D03*
X113700000Y-82000000D03*
X153400000Y-97100000D03*
X174400000Y-127600000D03*
X159800000Y-97100000D03*
X155300000Y-114200000D03*
X123584541Y-95917471D03*
X186300000Y-69000000D03*
X169400000Y-122600000D03*
X124790000Y-143720000D03*
X153900000Y-107500000D03*
X142100000Y-82400000D03*
X186722500Y-76022500D03*
X118100000Y-77500000D03*
X160300000Y-103700000D03*
X142506403Y-92702326D03*
X131000000Y-80700000D03*
X183300000Y-123600000D03*
X186200000Y-107100000D03*
X154700000Y-128600000D03*
X194700000Y-129500000D03*
X163400000Y-120600000D03*
X177600000Y-112600000D03*
X175337500Y-101300000D03*
X131000000Y-83200000D03*
X170100000Y-120700000D03*
X106900000Y-86200000D03*
X111700000Y-84500000D03*
X134358231Y-106200162D03*
X105475000Y-87825000D03*
X183800000Y-133700000D03*
X188900000Y-126700000D03*
X128500000Y-74000000D03*
X198900000Y-103500000D03*
X122800000Y-80800000D03*
X177900000Y-124800000D03*
X129400000Y-117100000D03*
X187100000Y-109400000D03*
X188600000Y-118100000D03*
X194600000Y-112200000D03*
X161900000Y-130600000D03*
X153800000Y-82380000D03*
X141200000Y-74400000D03*
X113900000Y-69000000D03*
X189500000Y-91100000D03*
X186900000Y-119800000D03*
X173000000Y-97000000D03*
X184500000Y-87100000D03*
X106700000Y-66100000D03*
X151900000Y-105400000D03*
X101800000Y-52000000D03*
X178900000Y-95700000D03*
X174300000Y-123600000D03*
X162600000Y-86900000D03*
X194500000Y-134200000D03*
X115500000Y-84000000D03*
X199000000Y-112500000D03*
X119800000Y-74100000D03*
X184200000Y-129800000D03*
X149300000Y-96400000D03*
X110100000Y-73800000D03*
X157600000Y-108000000D03*
X164200000Y-109100000D03*
X172100000Y-102800000D03*
X184700000Y-105100000D03*
X136300000Y-83600000D03*
X188100000Y-114100000D03*
X133760000Y-109970000D03*
X103600000Y-89500000D03*
X121041120Y-140450000D03*
X178000000Y-128100000D03*
X196200000Y-115400000D03*
X186700000Y-78100000D03*
X189000000Y-122000000D03*
X189500000Y-129500000D03*
X196000000Y-127400000D03*
X174300000Y-120600000D03*
X134500000Y-99700000D03*
X162300000Y-104300000D03*
X164900000Y-122900000D03*
X146100000Y-82300000D03*
X164900000Y-121600000D03*
X167300000Y-112600000D03*
X145400000Y-74400000D03*
X128400000Y-86100000D03*
X108000000Y-63200000D03*
X151592375Y-121271263D03*
X176300000Y-110700000D03*
X113900000Y-74300000D03*
X139700000Y-76900000D03*
X108100000Y-68800000D03*
X164200000Y-104200000D03*
X190900000Y-121300000D03*
X112605000Y-73795000D03*
X149226041Y-89403245D03*
X197400000Y-103500000D03*
X169900000Y-112700000D03*
X185100000Y-121500000D03*
X100900000Y-89500000D03*
X154500000Y-100500000D03*
X169100000Y-121400000D03*
X192900000Y-113700000D03*
X136200000Y-122700000D03*
X131000000Y-78300000D03*
X182800000Y-131700000D03*
X158200000Y-85600000D03*
X115300000Y-82200000D03*
X136400000Y-78100000D03*
X144100000Y-77300000D03*
X101100000Y-80500000D03*
X111600000Y-81800000D03*
X116950000Y-83750000D03*
X186700000Y-122000000D03*
X191300000Y-87500000D03*
X175100000Y-112700000D03*
X196100000Y-112500000D03*
X133700000Y-74000000D03*
X181100000Y-74000000D03*
X114900000Y-65700000D03*
X199100000Y-136700000D03*
X159900000Y-109000000D03*
X193300000Y-118600000D03*
X149200000Y-74500000D03*
X161000000Y-120700000D03*
X199000000Y-124700000D03*
X189700000Y-112600000D03*
X130780000Y-106090000D03*
X158037500Y-132300000D03*
X183675000Y-91475000D03*
X176400000Y-133600000D03*
X194700000Y-128300000D03*
X147572500Y-108995000D03*
X138280000Y-147550000D03*
X126000000Y-85500000D03*
X146200000Y-77200000D03*
X161800000Y-95800000D03*
X178600000Y-121300000D03*
X151800000Y-124100000D03*
X109924500Y-84300000D03*
X142200000Y-77200000D03*
X169000000Y-131400000D03*
X134650000Y-140540000D03*
X160900000Y-85600000D03*
X131600000Y-117300000D03*
X136000000Y-86000000D03*
X156900000Y-130000000D03*
X191300000Y-126700000D03*
X131000000Y-76200000D03*
X189300000Y-61900000D03*
X136809314Y-135209314D03*
X152330000Y-89030000D03*
X194800000Y-104400000D03*
X136924443Y-93400500D03*
X136400000Y-127500000D03*
X124400000Y-83500000D03*
X111000000Y-70400000D03*
X169400000Y-129300000D03*
X124400000Y-81100000D03*
X199000000Y-127400000D03*
X186400000Y-134400000D03*
X164337500Y-101400000D03*
X184700000Y-75500000D03*
X195400000Y-106900000D03*
X132360000Y-106220000D03*
%TO.N,/PA_Power/VBus*%
X127870000Y-142420000D03*
X118700000Y-140450000D03*
X119520000Y-142720000D03*
%TO.N,VDC*%
X138062500Y-122762500D03*
X147107224Y-111551588D03*
X138109847Y-139304847D03*
X115771821Y-118020525D03*
%TO.N,/PA_Protection/Ext_SDA*%
X112460000Y-129630000D03*
X115290000Y-126470000D03*
%TO.N,+3.3V*%
X110790000Y-125230000D03*
X118020000Y-107660000D03*
X147250000Y-91070000D03*
X104300000Y-79400000D03*
X143850000Y-118750000D03*
X140500000Y-131000000D03*
X123600000Y-133300000D03*
X124920000Y-137550000D03*
X124298391Y-99401609D03*
X129600000Y-122400000D03*
X136360000Y-95570000D03*
X114129998Y-132190000D03*
%TO.N,Net-(U10-Vdd)*%
X152700000Y-79800000D03*
%TO.N,/PA_Power/VDD_PA*%
X167700000Y-79800000D03*
X149330000Y-84950000D03*
%TO.N,/PA_Protection/ADC_Vgg_PA*%
X132400000Y-99600000D03*
X129900000Y-128400000D03*
%TO.N,/PA_Protection/TX_Relay*%
X170100000Y-146600000D03*
X128246889Y-128563919D03*
%TO.N,/PA_Power/En_Vgg_PA*%
X126400000Y-95500000D03*
X120600000Y-128000000D03*
%TO.N,/PA_Protection/Temp_INT*%
X119630000Y-129510000D03*
X111400000Y-79400000D03*
%TO.N,Net-(D17-A)*%
X183180000Y-147700000D03*
X186102500Y-146242500D03*
%TO.N,Net-(D18-DOUT)*%
X132900000Y-147420000D03*
X136640000Y-147420000D03*
%TO.N,Net-(D18-DIN)*%
X133222104Y-142340000D03*
X134720000Y-143832785D03*
%TO.N,Net-(J2-Pin_2)*%
X125567317Y-136498746D03*
X145463094Y-144557789D03*
%TO.N,/PA_Power/Int_SDA*%
X123323132Y-130399500D03*
X112300000Y-87400000D03*
X129080000Y-98600000D03*
X108795000Y-79295000D03*
X144423344Y-97659610D03*
X128400000Y-101400000D03*
%TO.N,/PA_Power/Int_SCL*%
X126400500Y-103000000D03*
X130010000Y-97500000D03*
X120600000Y-131800000D03*
X146284997Y-93873392D03*
X124801500Y-102946022D03*
X111399998Y-80700000D03*
%TO.N,Net-(J2-Pin_3)*%
X148524196Y-143855578D03*
X125925500Y-135290000D03*
%TO.N,Net-(J2-Pin_5)*%
X119470000Y-136249502D03*
%TO.N,Net-(J5-Pin_1)*%
X195600000Y-83200000D03*
X192190000Y-96520000D03*
X192230000Y-92820000D03*
X189600000Y-92700000D03*
X186400000Y-95060000D03*
X186440000Y-92790000D03*
X197800000Y-83200000D03*
X198400000Y-74700000D03*
X192600000Y-83200000D03*
X192500000Y-74700000D03*
X192200000Y-94690000D03*
X189470000Y-96590000D03*
X186430000Y-96880000D03*
X195400000Y-74700000D03*
%TO.N,/PA_Protection/Fan PWM*%
X116560000Y-129400000D03*
%TO.N,/PA_Protection/VFwd*%
X150150000Y-134010000D03*
X147500000Y-138200000D03*
%TO.N,Net-(U1-PA10)*%
X115730000Y-147150000D03*
X123303301Y-127966035D03*
%TO.N,+5V*%
X120300000Y-96330000D03*
X120100000Y-87200000D03*
X131030000Y-120470000D03*
X114600000Y-135010000D03*
%TO.N,Net-(U5-VOUT)*%
X125000000Y-95200000D03*
X133900000Y-96199500D03*
%TO.N,/PA_Protection/Fan_RPM*%
X120623008Y-124953008D03*
%TO.N,/PA_Protection/Tx{slash}Rx*%
X114500000Y-110710000D03*
X118940000Y-117060000D03*
%TO.N,/PA_Protection/Pi_TxD*%
X117975686Y-113564314D03*
X112530000Y-111590000D03*
%TO.N,/PA_Power/VBAT*%
X162800000Y-84000000D03*
X147030000Y-85980000D03*
X162855686Y-82755686D03*
X186000000Y-82900000D03*
X166290000Y-85090000D03*
X167370000Y-85100000D03*
X186100000Y-79800000D03*
X187900000Y-82900000D03*
X165180000Y-85110000D03*
X163960000Y-85080000D03*
X187900000Y-79700000D03*
X187045000Y-81355000D03*
%TD*%
%TA.AperFunction,Conductor*%
%TO.N,Net-(J5-Pin_1)*%
G36*
X199941621Y-73720002D02*
G01*
X199988114Y-73773658D01*
X199999500Y-73826000D01*
X199999500Y-97574000D01*
X199979498Y-97642121D01*
X199925842Y-97688614D01*
X199873500Y-97700000D01*
X185826000Y-97700000D01*
X185757879Y-97679998D01*
X185711386Y-97626342D01*
X185700000Y-97574000D01*
X185700000Y-96331788D01*
X185700345Y-96325198D01*
X185713504Y-96200000D01*
X185700344Y-96074797D01*
X185700000Y-96068210D01*
X185700000Y-93531788D01*
X185700345Y-93525198D01*
X185713504Y-93400000D01*
X185700344Y-93274797D01*
X185700000Y-93268210D01*
X185700000Y-92426000D01*
X185720002Y-92357879D01*
X185773658Y-92311386D01*
X185826000Y-92300000D01*
X192700000Y-92300000D01*
X192700000Y-86200000D01*
X191526000Y-86200000D01*
X191457879Y-86179998D01*
X191411386Y-86126342D01*
X191400000Y-86074000D01*
X191400000Y-73826000D01*
X191420002Y-73757879D01*
X191473658Y-73711386D01*
X191526000Y-73700000D01*
X199873500Y-73700000D01*
X199941621Y-73720002D01*
G37*
%TD.AperFunction*%
%TD*%
%TA.AperFunction,Conductor*%
%TO.N,GND*%
G36*
X115441621Y-50020502D02*
G01*
X115488114Y-50074158D01*
X115499500Y-50126500D01*
X115499500Y-72975072D01*
X115499415Y-72975500D01*
X115499458Y-72999998D01*
X115499458Y-73000000D01*
X115499459Y-73000000D01*
X115499500Y-73000099D01*
X115499617Y-73000383D01*
X115500000Y-73000541D01*
X115500002Y-73000539D01*
X115525014Y-73000524D01*
X115525014Y-73000528D01*
X115525158Y-73000500D01*
X150153845Y-73000500D01*
X150130828Y-84520075D01*
X150069040Y-84413056D01*
X150069038Y-84413054D01*
X150069034Y-84413048D01*
X149941255Y-84271135D01*
X149786752Y-84158882D01*
X149612288Y-84081206D01*
X149425487Y-84041500D01*
X149234513Y-84041500D01*
X149047711Y-84081206D01*
X148873247Y-84158882D01*
X148718744Y-84271135D01*
X148590965Y-84413048D01*
X148590958Y-84413058D01*
X148495476Y-84578438D01*
X148495473Y-84578445D01*
X148436457Y-84760072D01*
X148416496Y-84950000D01*
X148436457Y-85139927D01*
X148452364Y-85188882D01*
X148495473Y-85321556D01*
X148495476Y-85321561D01*
X148590958Y-85486941D01*
X148590965Y-85486951D01*
X148718744Y-85628864D01*
X148718747Y-85628866D01*
X148873248Y-85741118D01*
X149047712Y-85818794D01*
X149234513Y-85858500D01*
X149425487Y-85858500D01*
X149612288Y-85818794D01*
X149786752Y-85741118D01*
X149941253Y-85628866D01*
X149959641Y-85608444D01*
X150069034Y-85486951D01*
X150069035Y-85486949D01*
X150069040Y-85486944D01*
X150129103Y-85382910D01*
X150078479Y-110721206D01*
X150033957Y-133004088D01*
X150013819Y-133072168D01*
X149960070Y-133118554D01*
X149934155Y-133127082D01*
X149867715Y-133141204D01*
X149693247Y-133218882D01*
X149538744Y-133331135D01*
X149410965Y-133473048D01*
X149410958Y-133473058D01*
X149315476Y-133638438D01*
X149315473Y-133638445D01*
X149256457Y-133820072D01*
X149236496Y-134010000D01*
X149256457Y-134199927D01*
X149286526Y-134292470D01*
X149315473Y-134381556D01*
X149315476Y-134381561D01*
X149410958Y-134546941D01*
X149410965Y-134546951D01*
X149538744Y-134688864D01*
X149538747Y-134688866D01*
X149693248Y-134801118D01*
X149867712Y-134878794D01*
X149930134Y-134892062D01*
X149992608Y-134925790D01*
X150026930Y-134987939D01*
X150029938Y-135015561D01*
X150026852Y-136560192D01*
X150026232Y-136871135D01*
X150026174Y-136900000D01*
X150018323Y-140828985D01*
X150011255Y-140821135D01*
X149856752Y-140708882D01*
X149682288Y-140631206D01*
X149495487Y-140591500D01*
X149304513Y-140591500D01*
X149117711Y-140631206D01*
X148943247Y-140708882D01*
X148788744Y-140821135D01*
X148660965Y-140963048D01*
X148660958Y-140963058D01*
X148565476Y-141128438D01*
X148565473Y-141128445D01*
X148506457Y-141310072D01*
X148486496Y-141499999D01*
X148506457Y-141689927D01*
X148523096Y-141741134D01*
X148565473Y-141871556D01*
X148565476Y-141871561D01*
X148660958Y-142036941D01*
X148660965Y-142036951D01*
X148788744Y-142178864D01*
X148788747Y-142178866D01*
X148943248Y-142291118D01*
X149117712Y-142368794D01*
X149304513Y-142408500D01*
X149495487Y-142408500D01*
X149682288Y-142368794D01*
X149856752Y-142291118D01*
X150011253Y-142178866D01*
X150015635Y-142173998D01*
X150000001Y-149999500D01*
X100126500Y-149999500D01*
X100058379Y-149979498D01*
X100011886Y-149925842D01*
X100000500Y-149873500D01*
X100000500Y-147149999D01*
X114816496Y-147149999D01*
X114836457Y-147339927D01*
X114859544Y-147410979D01*
X114895473Y-147521556D01*
X114895476Y-147521561D01*
X114990958Y-147686941D01*
X114990965Y-147686951D01*
X115118744Y-147828864D01*
X115132548Y-147838893D01*
X115273248Y-147941118D01*
X115447712Y-148018794D01*
X115634513Y-148058500D01*
X115825487Y-148058500D01*
X116012288Y-148018794D01*
X116031364Y-148010301D01*
X118881500Y-148010301D01*
X118881501Y-148010322D01*
X118896579Y-148168228D01*
X118896582Y-148168243D01*
X118956223Y-148371364D01*
X119053227Y-148559523D01*
X119184094Y-148725935D01*
X119344077Y-148864561D01*
X119344088Y-148864569D01*
X119527412Y-148970410D01*
X119527415Y-148970411D01*
X119527418Y-148970413D01*
X119727473Y-149039653D01*
X119937016Y-149069781D01*
X120086290Y-149062670D01*
X120148463Y-149059709D01*
X120148467Y-149059708D01*
X120148474Y-149059708D01*
X120354204Y-149009798D01*
X120546771Y-148921856D01*
X120719215Y-148799059D01*
X120865303Y-148645846D01*
X120979756Y-148467754D01*
X121058436Y-148271221D01*
X121098500Y-148063349D01*
X121098500Y-147204697D01*
X121083419Y-147046761D01*
X121023777Y-146843638D01*
X121023776Y-146843637D01*
X121023776Y-146843635D01*
X120926772Y-146655476D01*
X120926771Y-146655474D01*
X120795908Y-146489068D01*
X120795905Y-146489064D01*
X120635922Y-146350438D01*
X120635919Y-146350436D01*
X120635918Y-146350435D01*
X120621849Y-146342312D01*
X120572857Y-146290932D01*
X120559420Y-146221218D01*
X120585807Y-146155307D01*
X120643638Y-146114124D01*
X120714555Y-146110745D01*
X120717461Y-146111487D01*
X120774979Y-146126899D01*
X120774987Y-146126901D01*
X120990000Y-146145712D01*
X121205013Y-146126901D01*
X121413493Y-146071039D01*
X121609106Y-145979823D01*
X121785907Y-145856025D01*
X121938525Y-145703407D01*
X122062323Y-145526606D01*
X122153539Y-145330993D01*
X122209401Y-145122513D01*
X122228212Y-144907500D01*
X124751788Y-144907500D01*
X124770599Y-145122516D01*
X124826460Y-145330990D01*
X124826461Y-145330993D01*
X124840795Y-145361732D01*
X124917676Y-145526604D01*
X124917677Y-145526606D01*
X125041471Y-145703402D01*
X125041478Y-145703411D01*
X125194088Y-145856021D01*
X125194097Y-145856028D01*
X125264665Y-145905440D01*
X125370894Y-145979823D01*
X125566507Y-146071039D01*
X125709370Y-146109319D01*
X125774979Y-146126899D01*
X125774987Y-146126901D01*
X125990000Y-146145712D01*
X126205013Y-146126901D01*
X126270629Y-146109319D01*
X126341606Y-146111007D01*
X126400402Y-146150801D01*
X126428351Y-146216065D01*
X126416578Y-146286079D01*
X126376330Y-146333661D01*
X126260787Y-146415939D01*
X126260781Y-146415944D01*
X126114695Y-146569156D01*
X126000244Y-146747245D01*
X125921563Y-146943781D01*
X125881500Y-147151646D01*
X125881500Y-148010301D01*
X125881501Y-148010322D01*
X125896579Y-148168228D01*
X125896582Y-148168243D01*
X125956223Y-148371364D01*
X126053227Y-148559523D01*
X126184094Y-148725935D01*
X126344077Y-148864561D01*
X126344088Y-148864569D01*
X126527412Y-148970410D01*
X126527415Y-148970411D01*
X126527418Y-148970413D01*
X126727473Y-149039653D01*
X126937016Y-149069781D01*
X127086290Y-149062670D01*
X127148463Y-149059709D01*
X127148467Y-149059708D01*
X127148474Y-149059708D01*
X127354204Y-149009798D01*
X127546771Y-148921856D01*
X127719215Y-148799059D01*
X127865303Y-148645846D01*
X127979756Y-148467754D01*
X128058436Y-148271221D01*
X128098500Y-148063349D01*
X128098500Y-147420000D01*
X131986496Y-147420000D01*
X132006457Y-147609927D01*
X132036526Y-147702470D01*
X132065473Y-147791556D01*
X132065476Y-147791561D01*
X132160958Y-147956941D01*
X132160965Y-147956951D01*
X132288744Y-148098864D01*
X132308261Y-148113044D01*
X132443248Y-148211118D01*
X132617712Y-148288794D01*
X132804513Y-148328500D01*
X132995487Y-148328500D01*
X133182288Y-148288794D01*
X133356752Y-148211118D01*
X133511253Y-148098866D01*
X133566693Y-148037294D01*
X133639034Y-147956951D01*
X133639035Y-147956949D01*
X133639040Y-147956944D01*
X133734527Y-147791556D01*
X133793542Y-147609928D01*
X133813504Y-147420000D01*
X135726496Y-147420000D01*
X135746457Y-147609927D01*
X135776526Y-147702470D01*
X135805473Y-147791556D01*
X135805476Y-147791561D01*
X135900958Y-147956941D01*
X135900965Y-147956951D01*
X136028744Y-148098864D01*
X136048261Y-148113044D01*
X136183248Y-148211118D01*
X136357712Y-148288794D01*
X136544513Y-148328500D01*
X136735487Y-148328500D01*
X136922288Y-148288794D01*
X137096752Y-148211118D01*
X137251253Y-148098866D01*
X137306693Y-148037294D01*
X137379034Y-147956951D01*
X137379035Y-147956949D01*
X137379040Y-147956944D01*
X137474527Y-147791556D01*
X137533542Y-147609928D01*
X137553504Y-147420000D01*
X137533542Y-147230072D01*
X137474527Y-147048444D01*
X137379040Y-146883056D01*
X137379038Y-146883054D01*
X137379034Y-146883048D01*
X137251255Y-146741135D01*
X137118937Y-146645000D01*
X143200889Y-146645000D01*
X143209300Y-146741134D01*
X143220081Y-146864370D01*
X143277075Y-147077073D01*
X143277077Y-147077079D01*
X143370138Y-147276650D01*
X143370140Y-147276654D01*
X143464196Y-147410979D01*
X143496447Y-147457038D01*
X143496450Y-147457042D01*
X143652153Y-147612745D01*
X143652157Y-147612748D01*
X143652158Y-147612749D01*
X143832542Y-147739056D01*
X144032120Y-147832120D01*
X144244825Y-147889115D01*
X144464196Y-147908307D01*
X144504471Y-147904783D01*
X144574075Y-147918770D01*
X144625069Y-147968169D01*
X144641260Y-148037294D01*
X144617509Y-148104200D01*
X144615097Y-148107422D01*
X144610751Y-148113036D01*
X144610746Y-148113044D01*
X144521137Y-148295723D01*
X144470132Y-148492719D01*
X144470132Y-148492722D01*
X144459826Y-148695935D01*
X144475352Y-148797277D01*
X144490640Y-148897071D01*
X144517802Y-148970410D01*
X144561307Y-149087881D01*
X144561311Y-149087889D01*
X144668940Y-149260566D01*
X144668950Y-149260579D01*
X144809132Y-149408048D01*
X144809137Y-149408053D01*
X144809140Y-149408055D01*
X144976148Y-149524296D01*
X144976149Y-149524297D01*
X145163134Y-149604539D01*
X145163137Y-149604539D01*
X145163138Y-149604540D01*
X145362455Y-149645500D01*
X145362456Y-149645500D01*
X145514937Y-149645500D01*
X145514938Y-149645500D01*
X145514939Y-149645499D01*
X145514956Y-149645499D01*
X145609029Y-149635931D01*
X145666634Y-149630074D01*
X145860784Y-149569159D01*
X146038698Y-149470409D01*
X146038699Y-149470408D01*
X146038701Y-149470407D01*
X146193086Y-149337870D01*
X146193091Y-149337866D01*
X146317644Y-149176958D01*
X146384996Y-149039651D01*
X146407254Y-148994276D01*
X146407254Y-148994274D01*
X146407256Y-148994271D01*
X146458259Y-148797285D01*
X146468565Y-148594064D01*
X146437752Y-148392929D01*
X146367082Y-148202113D01*
X146301276Y-148096537D01*
X146282218Y-148028147D01*
X146303160Y-147960310D01*
X146357453Y-147914563D01*
X146419187Y-147904369D01*
X146464196Y-147908307D01*
X146683567Y-147889115D01*
X146896272Y-147832120D01*
X147095850Y-147739056D01*
X147276234Y-147612749D01*
X147279056Y-147609927D01*
X147375101Y-147513883D01*
X147437413Y-147479857D01*
X147508228Y-147484922D01*
X147553291Y-147513883D01*
X147652153Y-147612745D01*
X147652157Y-147612748D01*
X147652158Y-147612749D01*
X147832542Y-147739056D01*
X148032120Y-147832120D01*
X148244825Y-147889115D01*
X148464196Y-147908307D01*
X148683567Y-147889115D01*
X148896272Y-147832120D01*
X149095850Y-147739056D01*
X149276234Y-147612749D01*
X149431945Y-147457038D01*
X149558252Y-147276654D01*
X149651316Y-147077076D01*
X149708311Y-146864371D01*
X149727503Y-146645000D01*
X149708311Y-146425629D01*
X149651316Y-146212924D01*
X149558252Y-146013347D01*
X149431945Y-145832962D01*
X149276234Y-145677251D01*
X149095850Y-145550944D01*
X149043657Y-145526606D01*
X148896275Y-145457881D01*
X148896269Y-145457879D01*
X148779472Y-145426583D01*
X148683567Y-145400885D01*
X148464196Y-145381693D01*
X148464195Y-145381693D01*
X148244825Y-145400885D01*
X148032122Y-145457879D01*
X148032116Y-145457881D01*
X147832542Y-145550944D01*
X147652161Y-145677248D01*
X147553291Y-145776118D01*
X147490979Y-145810143D01*
X147420163Y-145805077D01*
X147375101Y-145776117D01*
X147276238Y-145677254D01*
X147276234Y-145677251D01*
X147193146Y-145619072D01*
X147095850Y-145550944D01*
X147043657Y-145526606D01*
X146896275Y-145457881D01*
X146896269Y-145457879D01*
X146779472Y-145426583D01*
X146683567Y-145400885D01*
X146464196Y-145381693D01*
X146244820Y-145400885D01*
X146236116Y-145403218D01*
X146165140Y-145401527D01*
X146106345Y-145361732D01*
X146078399Y-145296466D01*
X146090174Y-145226453D01*
X146109872Y-145197200D01*
X146110573Y-145196422D01*
X146202134Y-145094733D01*
X146297621Y-144929345D01*
X146356636Y-144747717D01*
X146376598Y-144557789D01*
X146356636Y-144367861D01*
X146297621Y-144186233D01*
X146202134Y-144020845D01*
X146202132Y-144020843D01*
X146202128Y-144020837D01*
X146074349Y-143878924D01*
X146042215Y-143855577D01*
X147610692Y-143855577D01*
X147630653Y-144045505D01*
X147652127Y-144111593D01*
X147689669Y-144227134D01*
X147689672Y-144227139D01*
X147785154Y-144392519D01*
X147785161Y-144392529D01*
X147912940Y-144534442D01*
X147974195Y-144578946D01*
X148067444Y-144646696D01*
X148241908Y-144724372D01*
X148428709Y-144764078D01*
X148619683Y-144764078D01*
X148806484Y-144724372D01*
X148980948Y-144646696D01*
X149135449Y-144534444D01*
X149180863Y-144484007D01*
X149263230Y-144392529D01*
X149263231Y-144392527D01*
X149263236Y-144392522D01*
X149358723Y-144227134D01*
X149417738Y-144045506D01*
X149437700Y-143855578D01*
X149417738Y-143665650D01*
X149358723Y-143484022D01*
X149263236Y-143318634D01*
X149263234Y-143318632D01*
X149263230Y-143318626D01*
X149135451Y-143176713D01*
X148980948Y-143064460D01*
X148806484Y-142986784D01*
X148619683Y-142947078D01*
X148428709Y-142947078D01*
X148241907Y-142986784D01*
X148067443Y-143064460D01*
X147912940Y-143176713D01*
X147785161Y-143318626D01*
X147785154Y-143318636D01*
X147689672Y-143484016D01*
X147689669Y-143484023D01*
X147630653Y-143665650D01*
X147610692Y-143855577D01*
X146042215Y-143855577D01*
X145919846Y-143766671D01*
X145745382Y-143688995D01*
X145558581Y-143649289D01*
X145367607Y-143649289D01*
X145180805Y-143688995D01*
X145006341Y-143766671D01*
X144851838Y-143878924D01*
X144724059Y-144020837D01*
X144724052Y-144020847D01*
X144628570Y-144186227D01*
X144628567Y-144186234D01*
X144569551Y-144367861D01*
X144549590Y-144557789D01*
X144569551Y-144747716D01*
X144599620Y-144840259D01*
X144628567Y-144929345D01*
X144628570Y-144929350D01*
X144724052Y-145094730D01*
X144724059Y-145094740D01*
X144815614Y-145196422D01*
X144846332Y-145260429D01*
X144837567Y-145330883D01*
X144792104Y-145385414D01*
X144724377Y-145406709D01*
X144689374Y-145402441D01*
X144683567Y-145400885D01*
X144464196Y-145381693D01*
X144464195Y-145381693D01*
X144244825Y-145400885D01*
X144032122Y-145457879D01*
X144032116Y-145457881D01*
X143832542Y-145550944D01*
X143652161Y-145677248D01*
X143652155Y-145677253D01*
X143496449Y-145832959D01*
X143496444Y-145832965D01*
X143370140Y-146013346D01*
X143277077Y-146212920D01*
X143277075Y-146212926D01*
X143220081Y-146425629D01*
X143207525Y-146569154D01*
X143200889Y-146645000D01*
X137118937Y-146645000D01*
X137096752Y-146628882D01*
X136922288Y-146551206D01*
X136735487Y-146511500D01*
X136544513Y-146511500D01*
X136357711Y-146551206D01*
X136183247Y-146628882D01*
X136028744Y-146741135D01*
X135900965Y-146883048D01*
X135900958Y-146883058D01*
X135805476Y-147048438D01*
X135805473Y-147048445D01*
X135746457Y-147230072D01*
X135726496Y-147420000D01*
X133813504Y-147420000D01*
X133793542Y-147230072D01*
X133734527Y-147048444D01*
X133639040Y-146883056D01*
X133639038Y-146883054D01*
X133639034Y-146883048D01*
X133511255Y-146741135D01*
X133356752Y-146628882D01*
X133182288Y-146551206D01*
X132995487Y-146511500D01*
X132804513Y-146511500D01*
X132617711Y-146551206D01*
X132443247Y-146628882D01*
X132288744Y-146741135D01*
X132160965Y-146883048D01*
X132160958Y-146883058D01*
X132065476Y-147048438D01*
X132065473Y-147048445D01*
X132006457Y-147230072D01*
X131986496Y-147420000D01*
X128098500Y-147420000D01*
X128098500Y-147204697D01*
X128083419Y-147046761D01*
X128023777Y-146843638D01*
X128023776Y-146843637D01*
X128023776Y-146843635D01*
X127926772Y-146655476D01*
X127926771Y-146655474D01*
X127795908Y-146489068D01*
X127795905Y-146489064D01*
X127635922Y-146350438D01*
X127635911Y-146350430D01*
X127452587Y-146244589D01*
X127452580Y-146244586D01*
X127252530Y-146175348D01*
X127252529Y-146175347D01*
X127252527Y-146175347D01*
X127252525Y-146175346D01*
X127252519Y-146175345D01*
X127042985Y-146145218D01*
X126831536Y-146155290D01*
X126831520Y-146155293D01*
X126756911Y-146173393D01*
X126685995Y-146170015D01*
X126628163Y-146128833D01*
X126601777Y-146062922D01*
X126615213Y-145993208D01*
X126654936Y-145947732D01*
X126753065Y-145879021D01*
X126785907Y-145856025D01*
X126938525Y-145703407D01*
X127062323Y-145526606D01*
X127153539Y-145330993D01*
X127209401Y-145122513D01*
X127228212Y-144907500D01*
X127209401Y-144692487D01*
X127153539Y-144484007D01*
X127062323Y-144288394D01*
X126938525Y-144111593D01*
X126938524Y-144111592D01*
X126938521Y-144111588D01*
X126785911Y-143958978D01*
X126785902Y-143958971D01*
X126609106Y-143835177D01*
X126609104Y-143835176D01*
X126603974Y-143832784D01*
X133806496Y-143832784D01*
X133826457Y-144022712D01*
X133855335Y-144111588D01*
X133885473Y-144204341D01*
X133913841Y-144253476D01*
X133980958Y-144369726D01*
X133980965Y-144369736D01*
X134108744Y-144511649D01*
X134108747Y-144511651D01*
X134263248Y-144623903D01*
X134437712Y-144701579D01*
X134624513Y-144741285D01*
X134815487Y-144741285D01*
X135002288Y-144701579D01*
X135176752Y-144623903D01*
X135331253Y-144511651D01*
X135356144Y-144484007D01*
X135459034Y-144369736D01*
X135459035Y-144369734D01*
X135459040Y-144369729D01*
X135554527Y-144204341D01*
X135613542Y-144022713D01*
X135633504Y-143832785D01*
X135613542Y-143642857D01*
X135554527Y-143461229D01*
X135459040Y-143295841D01*
X135459038Y-143295839D01*
X135459034Y-143295833D01*
X135331255Y-143153920D01*
X135176752Y-143041667D01*
X135002288Y-142963991D01*
X134815487Y-142924285D01*
X134624513Y-142924285D01*
X134437711Y-142963991D01*
X134263247Y-143041667D01*
X134108744Y-143153920D01*
X133980965Y-143295833D01*
X133980958Y-143295843D01*
X133885476Y-143461223D01*
X133885473Y-143461230D01*
X133826457Y-143642857D01*
X133806496Y-143832784D01*
X126603974Y-143832784D01*
X126413495Y-143743962D01*
X126413490Y-143743960D01*
X126205016Y-143688099D01*
X126043753Y-143673990D01*
X125990000Y-143669288D01*
X125989999Y-143669288D01*
X125774983Y-143688099D01*
X125566509Y-143743960D01*
X125566504Y-143743962D01*
X125370895Y-143835176D01*
X125370893Y-143835177D01*
X125194097Y-143958971D01*
X125194088Y-143958978D01*
X125041478Y-144111588D01*
X125041471Y-144111597D01*
X124917677Y-144288393D01*
X124917676Y-144288395D01*
X124826462Y-144484004D01*
X124826460Y-144484009D01*
X124770599Y-144692483D01*
X124751788Y-144907500D01*
X122228212Y-144907500D01*
X122209401Y-144692487D01*
X122153539Y-144484007D01*
X122062323Y-144288394D01*
X121938525Y-144111593D01*
X121938524Y-144111592D01*
X121938521Y-144111588D01*
X121785911Y-143958978D01*
X121785902Y-143958971D01*
X121609106Y-143835177D01*
X121609104Y-143835176D01*
X121413495Y-143743962D01*
X121413490Y-143743960D01*
X121205016Y-143688099D01*
X120990000Y-143669288D01*
X120774983Y-143688099D01*
X120566509Y-143743960D01*
X120566504Y-143743962D01*
X120370895Y-143835176D01*
X120370893Y-143835177D01*
X120194097Y-143958971D01*
X120194088Y-143958978D01*
X120041478Y-144111588D01*
X120041471Y-144111597D01*
X119917677Y-144288393D01*
X119917676Y-144288395D01*
X119826462Y-144484004D01*
X119826460Y-144484009D01*
X119770599Y-144692483D01*
X119751788Y-144907500D01*
X119770599Y-145122516D01*
X119826460Y-145330990D01*
X119826461Y-145330993D01*
X119840795Y-145361732D01*
X119917676Y-145526604D01*
X119917677Y-145526606D01*
X120041471Y-145703402D01*
X120041478Y-145703411D01*
X120194088Y-145856021D01*
X120194097Y-145856028D01*
X120319931Y-145944138D01*
X120364260Y-145999595D01*
X120371569Y-146070214D01*
X120339539Y-146133575D01*
X120278337Y-146169560D01*
X120229729Y-146172069D01*
X120042980Y-146145218D01*
X119831536Y-146155290D01*
X119831523Y-146155292D01*
X119625801Y-146205200D01*
X119625795Y-146205202D01*
X119433228Y-146293144D01*
X119433221Y-146293148D01*
X119260791Y-146415935D01*
X119260781Y-146415944D01*
X119114695Y-146569156D01*
X119000244Y-146747245D01*
X118921563Y-146943781D01*
X118881500Y-147151646D01*
X118881500Y-148010301D01*
X116031364Y-148010301D01*
X116186752Y-147941118D01*
X116341253Y-147828866D01*
X116374849Y-147791554D01*
X116469034Y-147686951D01*
X116469035Y-147686949D01*
X116469040Y-147686944D01*
X116564527Y-147521556D01*
X116623542Y-147339928D01*
X116643504Y-147150000D01*
X116623542Y-146960072D01*
X116564527Y-146778444D01*
X116469040Y-146613056D01*
X116469038Y-146613054D01*
X116469034Y-146613048D01*
X116341255Y-146471135D01*
X116186752Y-146358882D01*
X116012288Y-146281206D01*
X115825487Y-146241500D01*
X115634513Y-146241500D01*
X115447711Y-146281206D01*
X115273247Y-146358882D01*
X115118744Y-146471135D01*
X114990965Y-146613048D01*
X114990958Y-146613058D01*
X114895476Y-146778438D01*
X114895473Y-146778445D01*
X114836457Y-146960072D01*
X114816496Y-147149999D01*
X100000500Y-147149999D01*
X100000500Y-142720000D01*
X118606496Y-142720000D01*
X118626457Y-142909927D01*
X118644024Y-142963991D01*
X118685473Y-143091556D01*
X118708314Y-143131117D01*
X118780958Y-143256941D01*
X118780965Y-143256951D01*
X118908744Y-143398864D01*
X118908747Y-143398866D01*
X119063248Y-143511118D01*
X119237712Y-143588794D01*
X119424513Y-143628500D01*
X119615487Y-143628500D01*
X119802288Y-143588794D01*
X119976752Y-143511118D01*
X120131253Y-143398866D01*
X120194611Y-143328500D01*
X120259034Y-143256951D01*
X120259035Y-143256949D01*
X120259040Y-143256944D01*
X120354527Y-143091556D01*
X120413542Y-142909928D01*
X120433504Y-142720000D01*
X120413542Y-142530072D01*
X120377777Y-142420000D01*
X126956496Y-142420000D01*
X126976457Y-142609927D01*
X127006526Y-142702470D01*
X127035473Y-142791556D01*
X127035476Y-142791561D01*
X127130958Y-142956941D01*
X127130965Y-142956951D01*
X127258744Y-143098864D01*
X127303138Y-143131118D01*
X127413248Y-143211118D01*
X127587712Y-143288794D01*
X127774513Y-143328500D01*
X127965487Y-143328500D01*
X128152288Y-143288794D01*
X128326752Y-143211118D01*
X128481253Y-143098866D01*
X128481255Y-143098864D01*
X128609034Y-142956951D01*
X128609035Y-142956949D01*
X128609040Y-142956944D01*
X128704527Y-142791556D01*
X128763542Y-142609928D01*
X128783504Y-142420000D01*
X128775096Y-142340000D01*
X132308600Y-142340000D01*
X132328561Y-142529927D01*
X132354555Y-142609927D01*
X132387577Y-142711556D01*
X132387580Y-142711561D01*
X132483062Y-142876941D01*
X132483069Y-142876951D01*
X132610848Y-143018864D01*
X132610851Y-143018866D01*
X132765352Y-143131118D01*
X132939816Y-143208794D01*
X133126617Y-143248500D01*
X133317591Y-143248500D01*
X133504392Y-143208794D01*
X133678856Y-143131118D01*
X133833357Y-143018866D01*
X133882767Y-142963991D01*
X133961138Y-142876951D01*
X133961139Y-142876949D01*
X133961144Y-142876944D01*
X134056631Y-142711556D01*
X134115646Y-142529928D01*
X134135608Y-142340000D01*
X134115646Y-142150072D01*
X134056631Y-141968444D01*
X133961144Y-141803056D01*
X133961142Y-141803054D01*
X133961138Y-141803048D01*
X133833359Y-141661135D01*
X133678856Y-141548882D01*
X133504392Y-141471206D01*
X133317591Y-141431500D01*
X133126617Y-141431500D01*
X132939815Y-141471206D01*
X132765351Y-141548882D01*
X132610848Y-141661135D01*
X132483069Y-141803048D01*
X132483062Y-141803058D01*
X132387580Y-141968438D01*
X132387577Y-141968445D01*
X132328561Y-142150072D01*
X132308600Y-142340000D01*
X128775096Y-142340000D01*
X128763542Y-142230072D01*
X128704527Y-142048444D01*
X128609040Y-141883056D01*
X128609038Y-141883054D01*
X128609034Y-141883048D01*
X128481255Y-141741135D01*
X128326752Y-141628882D01*
X128152288Y-141551206D01*
X127965487Y-141511500D01*
X127774513Y-141511500D01*
X127587711Y-141551206D01*
X127413247Y-141628882D01*
X127258744Y-141741135D01*
X127130965Y-141883048D01*
X127130958Y-141883058D01*
X127035476Y-142048438D01*
X127035473Y-142048445D01*
X126976457Y-142230072D01*
X126956496Y-142420000D01*
X120377777Y-142420000D01*
X120354527Y-142348444D01*
X120259040Y-142183056D01*
X120259038Y-142183054D01*
X120259034Y-142183048D01*
X120131255Y-142041135D01*
X119976752Y-141928882D01*
X119802288Y-141851206D01*
X119615487Y-141811500D01*
X119424513Y-141811500D01*
X119237711Y-141851206D01*
X119063247Y-141928882D01*
X118908744Y-142041135D01*
X118780965Y-142183048D01*
X118780958Y-142183058D01*
X118685476Y-142348438D01*
X118685473Y-142348445D01*
X118626457Y-142530072D01*
X118606496Y-142720000D01*
X100000500Y-142720000D01*
X100000500Y-139650000D01*
X113756496Y-139650000D01*
X113776457Y-139839927D01*
X113806526Y-139932470D01*
X113835473Y-140021556D01*
X113835476Y-140021561D01*
X113930958Y-140186941D01*
X113930965Y-140186951D01*
X114058744Y-140328864D01*
X114058747Y-140328866D01*
X114213248Y-140441118D01*
X114387712Y-140518794D01*
X114574513Y-140558500D01*
X114765487Y-140558500D01*
X114952288Y-140518794D01*
X115106803Y-140450000D01*
X117786496Y-140450000D01*
X117806457Y-140639927D01*
X117828863Y-140708882D01*
X117865473Y-140821556D01*
X117865476Y-140821561D01*
X117960958Y-140986941D01*
X117960965Y-140986951D01*
X118088744Y-141128864D01*
X118088747Y-141128866D01*
X118243248Y-141241118D01*
X118417712Y-141318794D01*
X118604513Y-141358500D01*
X118795487Y-141358500D01*
X118982288Y-141318794D01*
X119156752Y-141241118D01*
X119311253Y-141128866D01*
X119311633Y-141128444D01*
X119439034Y-140986951D01*
X119439035Y-140986949D01*
X119439040Y-140986944D01*
X119534527Y-140821556D01*
X119593542Y-140639928D01*
X119613504Y-140450000D01*
X119593542Y-140260072D01*
X119534527Y-140078444D01*
X119439040Y-139913056D01*
X119439038Y-139913054D01*
X119439034Y-139913048D01*
X119311255Y-139771135D01*
X119156752Y-139658882D01*
X118982288Y-139581206D01*
X118795487Y-139541500D01*
X118604513Y-139541500D01*
X118417711Y-139581206D01*
X118243247Y-139658882D01*
X118088744Y-139771135D01*
X117960965Y-139913048D01*
X117960958Y-139913058D01*
X117898317Y-140021556D01*
X117865473Y-140078444D01*
X117859780Y-140095965D01*
X117806457Y-140260072D01*
X117786496Y-140450000D01*
X115106803Y-140450000D01*
X115126752Y-140441118D01*
X115281253Y-140328866D01*
X115281255Y-140328864D01*
X115409034Y-140186951D01*
X115409035Y-140186949D01*
X115409040Y-140186944D01*
X115504527Y-140021556D01*
X115563542Y-139839928D01*
X115583504Y-139650000D01*
X115563542Y-139460072D01*
X115513106Y-139304846D01*
X137196343Y-139304846D01*
X137216304Y-139494774D01*
X137231487Y-139541500D01*
X137275320Y-139676403D01*
X137275323Y-139676408D01*
X137370805Y-139841788D01*
X137370812Y-139841798D01*
X137498591Y-139983711D01*
X137498594Y-139983713D01*
X137653095Y-140095965D01*
X137827559Y-140173641D01*
X138014360Y-140213347D01*
X138205334Y-140213347D01*
X138392135Y-140173641D01*
X138566599Y-140095965D01*
X138721100Y-139983713D01*
X138848887Y-139841791D01*
X138944374Y-139676403D01*
X139003389Y-139494775D01*
X139023351Y-139304847D01*
X139003389Y-139114919D01*
X138944374Y-138933291D01*
X138848887Y-138767903D01*
X138848885Y-138767901D01*
X138848881Y-138767895D01*
X138721102Y-138625982D01*
X138566599Y-138513729D01*
X138392135Y-138436053D01*
X138205334Y-138396347D01*
X138014360Y-138396347D01*
X137827558Y-138436053D01*
X137653094Y-138513729D01*
X137498591Y-138625982D01*
X137370812Y-138767895D01*
X137370805Y-138767905D01*
X137275323Y-138933285D01*
X137275320Y-138933292D01*
X137216304Y-139114919D01*
X137196343Y-139304846D01*
X115513106Y-139304846D01*
X115504527Y-139278444D01*
X115409040Y-139113056D01*
X115409038Y-139113054D01*
X115409034Y-139113048D01*
X115281255Y-138971135D01*
X115126752Y-138858882D01*
X114952288Y-138781206D01*
X114765487Y-138741500D01*
X114574513Y-138741500D01*
X114387711Y-138781206D01*
X114213247Y-138858882D01*
X114058744Y-138971135D01*
X113930965Y-139113048D01*
X113930958Y-139113058D01*
X113929884Y-139114919D01*
X113835473Y-139278444D01*
X113826894Y-139304847D01*
X113776457Y-139460072D01*
X113756496Y-139650000D01*
X100000500Y-139650000D01*
X100000500Y-137550000D01*
X124006496Y-137550000D01*
X124026457Y-137739927D01*
X124055217Y-137828438D01*
X124085473Y-137921556D01*
X124085476Y-137921561D01*
X124180958Y-138086941D01*
X124180965Y-138086951D01*
X124308744Y-138228864D01*
X124308747Y-138228866D01*
X124463248Y-138341118D01*
X124637712Y-138418794D01*
X124824513Y-138458500D01*
X125015487Y-138458500D01*
X125202288Y-138418794D01*
X125376752Y-138341118D01*
X125531253Y-138228866D01*
X125557245Y-138199999D01*
X146586496Y-138199999D01*
X146606457Y-138389927D01*
X146636526Y-138482470D01*
X146665473Y-138571556D01*
X146665476Y-138571561D01*
X146760958Y-138736941D01*
X146760965Y-138736951D01*
X146888744Y-138878864D01*
X146888747Y-138878866D01*
X147043248Y-138991118D01*
X147217712Y-139068794D01*
X147404513Y-139108500D01*
X147595487Y-139108500D01*
X147782288Y-139068794D01*
X147956752Y-138991118D01*
X148111253Y-138878866D01*
X148129247Y-138858882D01*
X148239034Y-138736951D01*
X148239035Y-138736949D01*
X148239040Y-138736944D01*
X148334527Y-138571556D01*
X148393542Y-138389928D01*
X148413504Y-138200000D01*
X148393542Y-138010072D01*
X148334527Y-137828444D01*
X148239040Y-137663056D01*
X148239038Y-137663054D01*
X148239034Y-137663048D01*
X148111255Y-137521135D01*
X147956752Y-137408882D01*
X147782288Y-137331206D01*
X147595487Y-137291500D01*
X147404513Y-137291500D01*
X147217711Y-137331206D01*
X147043247Y-137408882D01*
X146888744Y-137521135D01*
X146760965Y-137663048D01*
X146760958Y-137663058D01*
X146665476Y-137828438D01*
X146665473Y-137828445D01*
X146606457Y-138010072D01*
X146586496Y-138199999D01*
X125557245Y-138199999D01*
X125659040Y-138086944D01*
X125754527Y-137921556D01*
X125813542Y-137739928D01*
X125833504Y-137550000D01*
X125825472Y-137473586D01*
X125838244Y-137403750D01*
X125886745Y-137351903D01*
X125899529Y-137345312D01*
X126024069Y-137289864D01*
X126178570Y-137177612D01*
X126196227Y-137158002D01*
X126306351Y-137035697D01*
X126306352Y-137035695D01*
X126306357Y-137035690D01*
X126401844Y-136870302D01*
X126460859Y-136688674D01*
X126480821Y-136498746D01*
X126460859Y-136308818D01*
X126414279Y-136165463D01*
X126412252Y-136094497D01*
X126448914Y-136033699D01*
X126460041Y-136024600D01*
X126536753Y-135968866D01*
X126543112Y-135961804D01*
X126664534Y-135826951D01*
X126664535Y-135826949D01*
X126664540Y-135826944D01*
X126760027Y-135661556D01*
X126819042Y-135479928D01*
X126839004Y-135290000D01*
X126819042Y-135100072D01*
X126760027Y-134918444D01*
X126664540Y-134753056D01*
X126664538Y-134753054D01*
X126664534Y-134753048D01*
X126536755Y-134611135D01*
X126382252Y-134498882D01*
X126207788Y-134421206D01*
X126020987Y-134381500D01*
X125830013Y-134381500D01*
X125643211Y-134421206D01*
X125468747Y-134498882D01*
X125314244Y-134611135D01*
X125186465Y-134753048D01*
X125186458Y-134753058D01*
X125090976Y-134918438D01*
X125090973Y-134918445D01*
X125031957Y-135100072D01*
X125011996Y-135289999D01*
X125031957Y-135479928D01*
X125078536Y-135623281D01*
X125080564Y-135694248D01*
X125043901Y-135755046D01*
X125032765Y-135764153D01*
X124956059Y-135819883D01*
X124828282Y-135961794D01*
X124828275Y-135961804D01*
X124732793Y-136127184D01*
X124732790Y-136127191D01*
X124673774Y-136308818D01*
X124653813Y-136498746D01*
X124661844Y-136575158D01*
X124649072Y-136644996D01*
X124600569Y-136696843D01*
X124587783Y-136703434D01*
X124463254Y-136758878D01*
X124463248Y-136758882D01*
X124308744Y-136871135D01*
X124180965Y-137013048D01*
X124180958Y-137013058D01*
X124085476Y-137178438D01*
X124085473Y-137178445D01*
X124026457Y-137360072D01*
X124006496Y-137550000D01*
X100000500Y-137550000D01*
X100000500Y-136249502D01*
X118556496Y-136249502D01*
X118576457Y-136439429D01*
X118595731Y-136498745D01*
X118635473Y-136621058D01*
X118635476Y-136621063D01*
X118730958Y-136786443D01*
X118730965Y-136786453D01*
X118858744Y-136928366D01*
X118858747Y-136928368D01*
X119013248Y-137040620D01*
X119187712Y-137118296D01*
X119374513Y-137158002D01*
X119565487Y-137158002D01*
X119752288Y-137118296D01*
X119926752Y-137040620D01*
X120081253Y-136928368D01*
X120132787Y-136871134D01*
X120209034Y-136786453D01*
X120209035Y-136786451D01*
X120209040Y-136786446D01*
X120304527Y-136621058D01*
X120363542Y-136439430D01*
X120383504Y-136249502D01*
X120363542Y-136059574D01*
X120304527Y-135877946D01*
X120209040Y-135712558D01*
X120209038Y-135712556D01*
X120209034Y-135712550D01*
X120081255Y-135570637D01*
X119926752Y-135458384D01*
X119752288Y-135380708D01*
X119565487Y-135341002D01*
X119374513Y-135341002D01*
X119187711Y-135380708D01*
X119013247Y-135458384D01*
X118858744Y-135570637D01*
X118730965Y-135712550D01*
X118730958Y-135712560D01*
X118635476Y-135877940D01*
X118635473Y-135877946D01*
X118622296Y-135918500D01*
X118576457Y-136059574D01*
X118556496Y-136249502D01*
X100000500Y-136249502D01*
X100000500Y-135010000D01*
X113686496Y-135010000D01*
X113688593Y-135029960D01*
X113706457Y-135199927D01*
X113735724Y-135289999D01*
X113765473Y-135381556D01*
X113765476Y-135381561D01*
X113860958Y-135546941D01*
X113860965Y-135546951D01*
X113988744Y-135688864D01*
X114021345Y-135712550D01*
X114143248Y-135801118D01*
X114317712Y-135878794D01*
X114504513Y-135918500D01*
X114695487Y-135918500D01*
X114882288Y-135878794D01*
X115056752Y-135801118D01*
X115211253Y-135688866D01*
X115339040Y-135546944D01*
X115434527Y-135381556D01*
X115493542Y-135199928D01*
X115513504Y-135010000D01*
X115493542Y-134820072D01*
X115434527Y-134638444D01*
X115339040Y-134473056D01*
X115339038Y-134473054D01*
X115339034Y-134473048D01*
X115211255Y-134331135D01*
X115056752Y-134218882D01*
X114882288Y-134141206D01*
X114695487Y-134101500D01*
X114504513Y-134101500D01*
X114317711Y-134141206D01*
X114143247Y-134218882D01*
X113988744Y-134331135D01*
X113860965Y-134473048D01*
X113860958Y-134473058D01*
X113765476Y-134638438D01*
X113765473Y-134638445D01*
X113706457Y-134820072D01*
X113686496Y-135009999D01*
X113686496Y-135010000D01*
X100000500Y-135010000D01*
X100000500Y-133299999D01*
X122686496Y-133299999D01*
X122706457Y-133489927D01*
X122736526Y-133582470D01*
X122765473Y-133671556D01*
X122765476Y-133671561D01*
X122860958Y-133836941D01*
X122860965Y-133836951D01*
X122988744Y-133978864D01*
X122988747Y-133978866D01*
X123143248Y-134091118D01*
X123317712Y-134168794D01*
X123504513Y-134208500D01*
X123695487Y-134208500D01*
X123882288Y-134168794D01*
X124056752Y-134091118D01*
X124211253Y-133978866D01*
X124339040Y-133836944D01*
X124434527Y-133671556D01*
X124493542Y-133489928D01*
X124513504Y-133300000D01*
X124493542Y-133110072D01*
X124434527Y-132928444D01*
X124339040Y-132763056D01*
X124339038Y-132763054D01*
X124339034Y-132763048D01*
X124211255Y-132621135D01*
X124056752Y-132508882D01*
X123882288Y-132431206D01*
X123695487Y-132391500D01*
X123504513Y-132391500D01*
X123317711Y-132431206D01*
X123143247Y-132508882D01*
X122988744Y-132621135D01*
X122860965Y-132763048D01*
X122860958Y-132763058D01*
X122765476Y-132928438D01*
X122765473Y-132928445D01*
X122706457Y-133110072D01*
X122686496Y-133299999D01*
X100000500Y-133299999D01*
X100000500Y-132189999D01*
X113216494Y-132189999D01*
X113236455Y-132379927D01*
X113253117Y-132431206D01*
X113295471Y-132561556D01*
X113295474Y-132561561D01*
X113390956Y-132726941D01*
X113390963Y-132726951D01*
X113518742Y-132868864D01*
X113518745Y-132868866D01*
X113673246Y-132981118D01*
X113847710Y-133058794D01*
X114034511Y-133098500D01*
X114225485Y-133098500D01*
X114412286Y-133058794D01*
X114586750Y-132981118D01*
X114741251Y-132868866D01*
X114869038Y-132726944D01*
X114964525Y-132561556D01*
X115023540Y-132379928D01*
X115043502Y-132190000D01*
X115023540Y-132000072D01*
X114964525Y-131818444D01*
X114953876Y-131799999D01*
X119686496Y-131799999D01*
X119706457Y-131989927D01*
X119736526Y-132082470D01*
X119765473Y-132171556D01*
X119765476Y-132171561D01*
X119860958Y-132336941D01*
X119860965Y-132336951D01*
X119988744Y-132478864D01*
X119988747Y-132478866D01*
X120143248Y-132591118D01*
X120317712Y-132668794D01*
X120504513Y-132708500D01*
X120695487Y-132708500D01*
X120882288Y-132668794D01*
X121056752Y-132591118D01*
X121211253Y-132478866D01*
X121339040Y-132336944D01*
X121434527Y-132171556D01*
X121493542Y-131989928D01*
X121513504Y-131800000D01*
X121493542Y-131610072D01*
X121434527Y-131428444D01*
X121339040Y-131263056D01*
X121339038Y-131263054D01*
X121339034Y-131263048D01*
X121211255Y-131121135D01*
X121056752Y-131008882D01*
X120882288Y-130931206D01*
X120695487Y-130891500D01*
X120504513Y-130891500D01*
X120317711Y-130931206D01*
X120143247Y-131008882D01*
X119988744Y-131121135D01*
X119860965Y-131263048D01*
X119860958Y-131263058D01*
X119765476Y-131428438D01*
X119765473Y-131428445D01*
X119706457Y-131610072D01*
X119686496Y-131799999D01*
X114953876Y-131799999D01*
X114869038Y-131653056D01*
X114869036Y-131653054D01*
X114869032Y-131653048D01*
X114741253Y-131511135D01*
X114586750Y-131398882D01*
X114412286Y-131321206D01*
X114225485Y-131281500D01*
X114034511Y-131281500D01*
X113847709Y-131321206D01*
X113673245Y-131398882D01*
X113518742Y-131511135D01*
X113390963Y-131653048D01*
X113390956Y-131653058D01*
X113295474Y-131818438D01*
X113295471Y-131818445D01*
X113236455Y-132000072D01*
X113216494Y-132189999D01*
X100000500Y-132189999D01*
X100000500Y-129630000D01*
X111546496Y-129630000D01*
X111566457Y-129819927D01*
X111586482Y-129881556D01*
X111625473Y-130001556D01*
X111625476Y-130001561D01*
X111720958Y-130166941D01*
X111720965Y-130166951D01*
X111848744Y-130308864D01*
X111848747Y-130308866D01*
X112003248Y-130421118D01*
X112177712Y-130498794D01*
X112364513Y-130538500D01*
X112555487Y-130538500D01*
X112742288Y-130498794D01*
X112916752Y-130421118D01*
X113071253Y-130308866D01*
X113071583Y-130308500D01*
X113199034Y-130166951D01*
X113199035Y-130166949D01*
X113199040Y-130166944D01*
X113294527Y-130001556D01*
X113353542Y-129819928D01*
X113373504Y-129630000D01*
X113353542Y-129440072D01*
X113340521Y-129399999D01*
X115646496Y-129399999D01*
X115666457Y-129589927D01*
X115672454Y-129608382D01*
X115725473Y-129771556D01*
X115725476Y-129771561D01*
X115820958Y-129936941D01*
X115820965Y-129936951D01*
X115948744Y-130078864D01*
X115948747Y-130078866D01*
X116103248Y-130191118D01*
X116277712Y-130268794D01*
X116464513Y-130308500D01*
X116655487Y-130308500D01*
X116842288Y-130268794D01*
X117016752Y-130191118D01*
X117171253Y-130078866D01*
X117171255Y-130078864D01*
X117299034Y-129936951D01*
X117299035Y-129936949D01*
X117299040Y-129936944D01*
X117394527Y-129771556D01*
X117453542Y-129589928D01*
X117461943Y-129509999D01*
X118716496Y-129509999D01*
X118736457Y-129699927D01*
X118759733Y-129771561D01*
X118795473Y-129881556D01*
X118795476Y-129881561D01*
X118890958Y-130046941D01*
X118890965Y-130046951D01*
X119018744Y-130188864D01*
X119047246Y-130209572D01*
X119173248Y-130301118D01*
X119347712Y-130378794D01*
X119534513Y-130418500D01*
X119725487Y-130418500D01*
X119814879Y-130399499D01*
X122409628Y-130399499D01*
X122429589Y-130589427D01*
X122442265Y-130628438D01*
X122488605Y-130771056D01*
X122488608Y-130771061D01*
X122584090Y-130936441D01*
X122584097Y-130936451D01*
X122711876Y-131078364D01*
X122711879Y-131078366D01*
X122866380Y-131190618D01*
X123040844Y-131268294D01*
X123227645Y-131308000D01*
X123418619Y-131308000D01*
X123605420Y-131268294D01*
X123779884Y-131190618D01*
X123934385Y-131078366D01*
X124004946Y-131000000D01*
X139586496Y-131000000D01*
X139606457Y-131189927D01*
X139631921Y-131268294D01*
X139665473Y-131371556D01*
X139665476Y-131371561D01*
X139760958Y-131536941D01*
X139760965Y-131536951D01*
X139888744Y-131678864D01*
X139888747Y-131678866D01*
X140043248Y-131791118D01*
X140217712Y-131868794D01*
X140404513Y-131908500D01*
X140595487Y-131908500D01*
X140782288Y-131868794D01*
X140956752Y-131791118D01*
X141111253Y-131678866D01*
X141134491Y-131653058D01*
X141239034Y-131536951D01*
X141239035Y-131536949D01*
X141239040Y-131536944D01*
X141334527Y-131371556D01*
X141393542Y-131189928D01*
X141413504Y-131000000D01*
X141393542Y-130810072D01*
X141334527Y-130628444D01*
X141239040Y-130463056D01*
X141239038Y-130463054D01*
X141239034Y-130463048D01*
X141111255Y-130321135D01*
X140956752Y-130208882D01*
X140782288Y-130131206D01*
X140595487Y-130091500D01*
X140404513Y-130091500D01*
X140217711Y-130131206D01*
X140043247Y-130208882D01*
X139888744Y-130321135D01*
X139760965Y-130463048D01*
X139760958Y-130463058D01*
X139665476Y-130628438D01*
X139665473Y-130628445D01*
X139606457Y-130810072D01*
X139586496Y-131000000D01*
X124004946Y-131000000D01*
X124062172Y-130936444D01*
X124157659Y-130771056D01*
X124216674Y-130589428D01*
X124236636Y-130399500D01*
X124216674Y-130209572D01*
X124157659Y-130027944D01*
X124062172Y-129862556D01*
X124062170Y-129862554D01*
X124062166Y-129862548D01*
X123934387Y-129720635D01*
X123779884Y-129608382D01*
X123605420Y-129530706D01*
X123418619Y-129491000D01*
X123227645Y-129491000D01*
X123040843Y-129530706D01*
X122866379Y-129608382D01*
X122711876Y-129720635D01*
X122584097Y-129862548D01*
X122584090Y-129862558D01*
X122503841Y-130001554D01*
X122488605Y-130027944D01*
X122482429Y-130046951D01*
X122429589Y-130209572D01*
X122409628Y-130399499D01*
X119814879Y-130399499D01*
X119912288Y-130378794D01*
X120086752Y-130301118D01*
X120241253Y-130188866D01*
X120241255Y-130188864D01*
X120369034Y-130046951D01*
X120369035Y-130046949D01*
X120369040Y-130046944D01*
X120464527Y-129881556D01*
X120523542Y-129699928D01*
X120543504Y-129510000D01*
X120523542Y-129320072D01*
X120464527Y-129138444D01*
X120440888Y-129097500D01*
X120424150Y-129028505D01*
X120447370Y-128961413D01*
X120503177Y-128917526D01*
X120550007Y-128908500D01*
X120695487Y-128908500D01*
X120882288Y-128868794D01*
X121056752Y-128791118D01*
X121211253Y-128678866D01*
X121211255Y-128678864D01*
X121339034Y-128536951D01*
X121339035Y-128536949D01*
X121339040Y-128536944D01*
X121434527Y-128371556D01*
X121493542Y-128189928D01*
X121513504Y-128000000D01*
X121509934Y-127966034D01*
X122389797Y-127966034D01*
X122409758Y-128155962D01*
X122420795Y-128189928D01*
X122468774Y-128337591D01*
X122468777Y-128337596D01*
X122564259Y-128502976D01*
X122564266Y-128502986D01*
X122692045Y-128644899D01*
X122692048Y-128644901D01*
X122846549Y-128757153D01*
X123021013Y-128834829D01*
X123207814Y-128874535D01*
X123398788Y-128874535D01*
X123585589Y-128834829D01*
X123760053Y-128757153D01*
X123914554Y-128644901D01*
X123946986Y-128608882D01*
X123987471Y-128563919D01*
X127333385Y-128563919D01*
X127353346Y-128753846D01*
X127379660Y-128834829D01*
X127412362Y-128935475D01*
X127413210Y-128936944D01*
X127507847Y-129100860D01*
X127507854Y-129100870D01*
X127635633Y-129242783D01*
X127635636Y-129242785D01*
X127790137Y-129355037D01*
X127964601Y-129432713D01*
X128151402Y-129472419D01*
X128342376Y-129472419D01*
X128529177Y-129432713D01*
X128703641Y-129355037D01*
X128858142Y-129242785D01*
X128952091Y-129138444D01*
X128985923Y-129100870D01*
X128985924Y-129100868D01*
X128985929Y-129100863D01*
X129025265Y-129032730D01*
X129076646Y-128983739D01*
X129146360Y-128970302D01*
X129212271Y-128996689D01*
X129228019Y-129011422D01*
X129288744Y-129078864D01*
X129314394Y-129097500D01*
X129443248Y-129191118D01*
X129617712Y-129268794D01*
X129804513Y-129308500D01*
X129995487Y-129308500D01*
X130182288Y-129268794D01*
X130356752Y-129191118D01*
X130511253Y-129078866D01*
X130571980Y-129011422D01*
X130639034Y-128936951D01*
X130639035Y-128936949D01*
X130639040Y-128936944D01*
X130734527Y-128771556D01*
X130793542Y-128589928D01*
X130813504Y-128400000D01*
X130793542Y-128210072D01*
X130734527Y-128028444D01*
X130639040Y-127863056D01*
X130639038Y-127863054D01*
X130639034Y-127863048D01*
X130511255Y-127721135D01*
X130356752Y-127608882D01*
X130182288Y-127531206D01*
X129995487Y-127491500D01*
X129804513Y-127491500D01*
X129617711Y-127531206D01*
X129443247Y-127608882D01*
X129288744Y-127721135D01*
X129160965Y-127863048D01*
X129160956Y-127863062D01*
X129121623Y-127931187D01*
X129070240Y-127980180D01*
X129000526Y-127993615D01*
X128934616Y-127967228D01*
X128918869Y-127952496D01*
X128858144Y-127885054D01*
X128703641Y-127772801D01*
X128529177Y-127695125D01*
X128342376Y-127655419D01*
X128151402Y-127655419D01*
X127964600Y-127695125D01*
X127790136Y-127772801D01*
X127635633Y-127885054D01*
X127507854Y-128026967D01*
X127507847Y-128026977D01*
X127412365Y-128192357D01*
X127412362Y-128192364D01*
X127353346Y-128373991D01*
X127333385Y-128563919D01*
X123987471Y-128563919D01*
X124042335Y-128502986D01*
X124042336Y-128502984D01*
X124042341Y-128502979D01*
X124137828Y-128337591D01*
X124196843Y-128155963D01*
X124216805Y-127966035D01*
X124196843Y-127776107D01*
X124137828Y-127594479D01*
X124042341Y-127429091D01*
X124042339Y-127429089D01*
X124042335Y-127429083D01*
X123914556Y-127287170D01*
X123760053Y-127174917D01*
X123585589Y-127097241D01*
X123398788Y-127057535D01*
X123207814Y-127057535D01*
X123021012Y-127097241D01*
X122846548Y-127174917D01*
X122692045Y-127287170D01*
X122564266Y-127429083D01*
X122564259Y-127429093D01*
X122468777Y-127594473D01*
X122468774Y-127594480D01*
X122409758Y-127776107D01*
X122389797Y-127966034D01*
X121509934Y-127966034D01*
X121493542Y-127810072D01*
X121434527Y-127628444D01*
X121339040Y-127463056D01*
X121339038Y-127463054D01*
X121339034Y-127463048D01*
X121211255Y-127321135D01*
X121056752Y-127208882D01*
X120882288Y-127131206D01*
X120695487Y-127091500D01*
X120504513Y-127091500D01*
X120317711Y-127131206D01*
X120143247Y-127208882D01*
X119988744Y-127321135D01*
X119860965Y-127463048D01*
X119860958Y-127463058D01*
X119765476Y-127628438D01*
X119765473Y-127628445D01*
X119706457Y-127810072D01*
X119686496Y-127999999D01*
X119706457Y-128189927D01*
X119713003Y-128210072D01*
X119765473Y-128371556D01*
X119765476Y-128371561D01*
X119789112Y-128412500D01*
X119805850Y-128481495D01*
X119782630Y-128548587D01*
X119726823Y-128592474D01*
X119679993Y-128601500D01*
X119534513Y-128601500D01*
X119347711Y-128641206D01*
X119173247Y-128718882D01*
X119018744Y-128831135D01*
X118890965Y-128973048D01*
X118890958Y-128973058D01*
X118795476Y-129138438D01*
X118795473Y-129138445D01*
X118736457Y-129320072D01*
X118716496Y-129509999D01*
X117461943Y-129509999D01*
X117473504Y-129400000D01*
X117453542Y-129210072D01*
X117394527Y-129028444D01*
X117299040Y-128863056D01*
X117299038Y-128863054D01*
X117299034Y-128863048D01*
X117171255Y-128721135D01*
X117016752Y-128608882D01*
X116842288Y-128531206D01*
X116655487Y-128491500D01*
X116464513Y-128491500D01*
X116277711Y-128531206D01*
X116103247Y-128608882D01*
X115948744Y-128721135D01*
X115820965Y-128863048D01*
X115820958Y-128863058D01*
X115725476Y-129028438D01*
X115725473Y-129028444D01*
X115724080Y-129032732D01*
X115666457Y-129210072D01*
X115646496Y-129399999D01*
X113340521Y-129399999D01*
X113294527Y-129258444D01*
X113199040Y-129093056D01*
X113199038Y-129093054D01*
X113199034Y-129093048D01*
X113071255Y-128951135D01*
X112916752Y-128838882D01*
X112742288Y-128761206D01*
X112555487Y-128721500D01*
X112364513Y-128721500D01*
X112177711Y-128761206D01*
X112003247Y-128838882D01*
X111848744Y-128951135D01*
X111720965Y-129093048D01*
X111720958Y-129093058D01*
X111625476Y-129258438D01*
X111625473Y-129258444D01*
X111622110Y-129268794D01*
X111566457Y-129440072D01*
X111546496Y-129630000D01*
X100000500Y-129630000D01*
X100000500Y-126470000D01*
X114376496Y-126470000D01*
X114396457Y-126659927D01*
X114426526Y-126752470D01*
X114455473Y-126841556D01*
X114455476Y-126841561D01*
X114550958Y-127006941D01*
X114550965Y-127006951D01*
X114678744Y-127148864D01*
X114678747Y-127148866D01*
X114833248Y-127261118D01*
X115007712Y-127338794D01*
X115194513Y-127378500D01*
X115385487Y-127378500D01*
X115572288Y-127338794D01*
X115746752Y-127261118D01*
X115901253Y-127148866D01*
X115917154Y-127131206D01*
X116029034Y-127006951D01*
X116029035Y-127006949D01*
X116029040Y-127006944D01*
X116124527Y-126841556D01*
X116183542Y-126659928D01*
X116203504Y-126470000D01*
X116183542Y-126280072D01*
X116124527Y-126098444D01*
X116029040Y-125933056D01*
X116029038Y-125933054D01*
X116029034Y-125933048D01*
X115901255Y-125791135D01*
X115746752Y-125678882D01*
X115572288Y-125601206D01*
X115385487Y-125561500D01*
X115194513Y-125561500D01*
X115007711Y-125601206D01*
X114833247Y-125678882D01*
X114678744Y-125791135D01*
X114550965Y-125933048D01*
X114550958Y-125933058D01*
X114500117Y-126021118D01*
X114455473Y-126098444D01*
X114442458Y-126138500D01*
X114396457Y-126280072D01*
X114376496Y-126470000D01*
X100000500Y-126470000D01*
X100000500Y-125229999D01*
X109876496Y-125229999D01*
X109896457Y-125419927D01*
X109926526Y-125512470D01*
X109955473Y-125601556D01*
X109955476Y-125601561D01*
X110050958Y-125766941D01*
X110050965Y-125766951D01*
X110178744Y-125908864D01*
X110212044Y-125933058D01*
X110333248Y-126021118D01*
X110507712Y-126098794D01*
X110694513Y-126138500D01*
X110885487Y-126138500D01*
X111072288Y-126098794D01*
X111246752Y-126021118D01*
X111401253Y-125908866D01*
X111401255Y-125908864D01*
X111529034Y-125766951D01*
X111529035Y-125766949D01*
X111529040Y-125766944D01*
X111624527Y-125601556D01*
X111683542Y-125419928D01*
X111703504Y-125230000D01*
X111683542Y-125040072D01*
X111655253Y-124953007D01*
X119709504Y-124953007D01*
X119729465Y-125142935D01*
X119757755Y-125229999D01*
X119788481Y-125324564D01*
X119788484Y-125324569D01*
X119883966Y-125489949D01*
X119883973Y-125489959D01*
X120011752Y-125631872D01*
X120011755Y-125631874D01*
X120166256Y-125744126D01*
X120340720Y-125821802D01*
X120527521Y-125861508D01*
X120718495Y-125861508D01*
X120905296Y-125821802D01*
X121079760Y-125744126D01*
X121234261Y-125631874D01*
X121261555Y-125601561D01*
X121362042Y-125489959D01*
X121362043Y-125489957D01*
X121362048Y-125489952D01*
X121457535Y-125324564D01*
X121516550Y-125142936D01*
X121536512Y-124953008D01*
X121516550Y-124763080D01*
X121457535Y-124581452D01*
X121362048Y-124416064D01*
X121362046Y-124416062D01*
X121362042Y-124416056D01*
X121234263Y-124274143D01*
X121079760Y-124161890D01*
X120905296Y-124084214D01*
X120718495Y-124044508D01*
X120527521Y-124044508D01*
X120340719Y-124084214D01*
X120166255Y-124161890D01*
X120011752Y-124274143D01*
X119883973Y-124416056D01*
X119883966Y-124416066D01*
X119788484Y-124581446D01*
X119788481Y-124581453D01*
X119729465Y-124763080D01*
X119709504Y-124953007D01*
X111655253Y-124953007D01*
X111624527Y-124858444D01*
X111529040Y-124693056D01*
X111529038Y-124693054D01*
X111529034Y-124693048D01*
X111401255Y-124551135D01*
X111246752Y-124438882D01*
X111072288Y-124361206D01*
X110885487Y-124321500D01*
X110694513Y-124321500D01*
X110507711Y-124361206D01*
X110333247Y-124438882D01*
X110178744Y-124551135D01*
X110050965Y-124693048D01*
X110050958Y-124693058D01*
X109955476Y-124858438D01*
X109955473Y-124858445D01*
X109896457Y-125040072D01*
X109876496Y-125229999D01*
X100000500Y-125229999D01*
X100000500Y-122400000D01*
X128686496Y-122400000D01*
X128706457Y-122589927D01*
X128736526Y-122682470D01*
X128765473Y-122771556D01*
X128765476Y-122771561D01*
X128860958Y-122936941D01*
X128860965Y-122936951D01*
X128988744Y-123078864D01*
X128988747Y-123078866D01*
X129143248Y-123191118D01*
X129317712Y-123268794D01*
X129504513Y-123308500D01*
X129695487Y-123308500D01*
X129882288Y-123268794D01*
X130056752Y-123191118D01*
X130211253Y-123078866D01*
X130339040Y-122936944D01*
X130434527Y-122771556D01*
X130437469Y-122762500D01*
X137148996Y-122762500D01*
X137168957Y-122952427D01*
X137199026Y-123044970D01*
X137227973Y-123134056D01*
X137227976Y-123134061D01*
X137323458Y-123299441D01*
X137323465Y-123299451D01*
X137451244Y-123441364D01*
X137451247Y-123441366D01*
X137605748Y-123553618D01*
X137780212Y-123631294D01*
X137967013Y-123671000D01*
X138157987Y-123671000D01*
X138344788Y-123631294D01*
X138519252Y-123553618D01*
X138673753Y-123441366D01*
X138801540Y-123299444D01*
X138897027Y-123134056D01*
X138956042Y-122952428D01*
X138976004Y-122762500D01*
X138956042Y-122572572D01*
X138897027Y-122390944D01*
X138801540Y-122225556D01*
X138801538Y-122225554D01*
X138801534Y-122225548D01*
X138673755Y-122083635D01*
X138519252Y-121971382D01*
X138344788Y-121893706D01*
X138157987Y-121854000D01*
X137967013Y-121854000D01*
X137780211Y-121893706D01*
X137605747Y-121971382D01*
X137451244Y-122083635D01*
X137323465Y-122225548D01*
X137323458Y-122225558D01*
X137227976Y-122390938D01*
X137227973Y-122390945D01*
X137168957Y-122572572D01*
X137148996Y-122762500D01*
X130437469Y-122762500D01*
X130493542Y-122589928D01*
X130513504Y-122400000D01*
X130493542Y-122210072D01*
X130434527Y-122028444D01*
X130339040Y-121863056D01*
X130339038Y-121863054D01*
X130339034Y-121863048D01*
X130211255Y-121721135D01*
X130056752Y-121608882D01*
X129882288Y-121531206D01*
X129695487Y-121491500D01*
X129504513Y-121491500D01*
X129317711Y-121531206D01*
X129143247Y-121608882D01*
X128988744Y-121721135D01*
X128860965Y-121863048D01*
X128860958Y-121863058D01*
X128765476Y-122028438D01*
X128765473Y-122028445D01*
X128706457Y-122210072D01*
X128686496Y-122400000D01*
X100000500Y-122400000D01*
X100000500Y-120470000D01*
X130116496Y-120470000D01*
X130136457Y-120659927D01*
X130166526Y-120752470D01*
X130195473Y-120841556D01*
X130195476Y-120841561D01*
X130290958Y-121006941D01*
X130290965Y-121006951D01*
X130418744Y-121148864D01*
X130418747Y-121148866D01*
X130573248Y-121261118D01*
X130747712Y-121338794D01*
X130934513Y-121378500D01*
X131125487Y-121378500D01*
X131312288Y-121338794D01*
X131486752Y-121261118D01*
X131641253Y-121148866D01*
X131769040Y-121006944D01*
X131864527Y-120841556D01*
X131923542Y-120659928D01*
X131943504Y-120470000D01*
X131923542Y-120280072D01*
X131864527Y-120098444D01*
X131769040Y-119933056D01*
X131769038Y-119933054D01*
X131769034Y-119933048D01*
X131641255Y-119791135D01*
X131486752Y-119678882D01*
X131312288Y-119601206D01*
X131125487Y-119561500D01*
X130934513Y-119561500D01*
X130747711Y-119601206D01*
X130573247Y-119678882D01*
X130418744Y-119791135D01*
X130290965Y-119933048D01*
X130290958Y-119933058D01*
X130195476Y-120098438D01*
X130195473Y-120098445D01*
X130136457Y-120280072D01*
X130116496Y-120470000D01*
X100000500Y-120470000D01*
X100000500Y-118020524D01*
X114858317Y-118020524D01*
X114878278Y-118210452D01*
X114879125Y-118213058D01*
X114937294Y-118392081D01*
X114937297Y-118392086D01*
X115032779Y-118557466D01*
X115032786Y-118557476D01*
X115160565Y-118699389D01*
X115160568Y-118699391D01*
X115315069Y-118811643D01*
X115489533Y-118889319D01*
X115676334Y-118929025D01*
X115867308Y-118929025D01*
X116054109Y-118889319D01*
X116228573Y-118811643D01*
X116313417Y-118750000D01*
X142936496Y-118750000D01*
X142956457Y-118939927D01*
X142986526Y-119032470D01*
X143015473Y-119121556D01*
X143015476Y-119121561D01*
X143110958Y-119286941D01*
X143110965Y-119286951D01*
X143238744Y-119428864D01*
X143238747Y-119428866D01*
X143393248Y-119541118D01*
X143567712Y-119618794D01*
X143754513Y-119658500D01*
X143945487Y-119658500D01*
X144132288Y-119618794D01*
X144306752Y-119541118D01*
X144461253Y-119428866D01*
X144589040Y-119286944D01*
X144684527Y-119121556D01*
X144743542Y-118939928D01*
X144763504Y-118750000D01*
X144743542Y-118560072D01*
X144684527Y-118378444D01*
X144589040Y-118213056D01*
X144589038Y-118213054D01*
X144589034Y-118213048D01*
X144461255Y-118071135D01*
X144306752Y-117958882D01*
X144132288Y-117881206D01*
X143945487Y-117841500D01*
X143754513Y-117841500D01*
X143567711Y-117881206D01*
X143393247Y-117958882D01*
X143238744Y-118071135D01*
X143110965Y-118213048D01*
X143110958Y-118213058D01*
X143015476Y-118378438D01*
X143015473Y-118378444D01*
X143000999Y-118422986D01*
X142956457Y-118560072D01*
X142936496Y-118750000D01*
X116313417Y-118750000D01*
X116383074Y-118699391D01*
X116383076Y-118699389D01*
X116510855Y-118557476D01*
X116510856Y-118557474D01*
X116510861Y-118557469D01*
X116606348Y-118392081D01*
X116665363Y-118210453D01*
X116685325Y-118020525D01*
X116665363Y-117830597D01*
X116606348Y-117648969D01*
X116510861Y-117483581D01*
X116510859Y-117483579D01*
X116510855Y-117483573D01*
X116383076Y-117341660D01*
X116228573Y-117229407D01*
X116054109Y-117151731D01*
X115867308Y-117112025D01*
X115676334Y-117112025D01*
X115489532Y-117151731D01*
X115315068Y-117229407D01*
X115160565Y-117341660D01*
X115032786Y-117483573D01*
X115032779Y-117483583D01*
X114937297Y-117648963D01*
X114937294Y-117648970D01*
X114878278Y-117830597D01*
X114858317Y-118020524D01*
X100000500Y-118020524D01*
X100000500Y-117059999D01*
X118026496Y-117059999D01*
X118046457Y-117249927D01*
X118076263Y-117341659D01*
X118105473Y-117431556D01*
X118105476Y-117431561D01*
X118200958Y-117596941D01*
X118200965Y-117596951D01*
X118328744Y-117738864D01*
X118328747Y-117738866D01*
X118483248Y-117851118D01*
X118657712Y-117928794D01*
X118844513Y-117968500D01*
X119035487Y-117968500D01*
X119222288Y-117928794D01*
X119396752Y-117851118D01*
X119551253Y-117738866D01*
X119679040Y-117596944D01*
X119774527Y-117431556D01*
X119833542Y-117249928D01*
X119853504Y-117060000D01*
X119833542Y-116870072D01*
X119774527Y-116688444D01*
X119679040Y-116523056D01*
X119679038Y-116523054D01*
X119679034Y-116523048D01*
X119551255Y-116381135D01*
X119396752Y-116268882D01*
X119222288Y-116191206D01*
X119035487Y-116151500D01*
X118844513Y-116151500D01*
X118657711Y-116191206D01*
X118483247Y-116268882D01*
X118328744Y-116381135D01*
X118200965Y-116523048D01*
X118200958Y-116523058D01*
X118105476Y-116688438D01*
X118105473Y-116688445D01*
X118046457Y-116870072D01*
X118026496Y-117059999D01*
X100000500Y-117059999D01*
X100000500Y-113564313D01*
X117062182Y-113564313D01*
X117082143Y-113754241D01*
X117112212Y-113846784D01*
X117141159Y-113935870D01*
X117141162Y-113935875D01*
X117236644Y-114101255D01*
X117236651Y-114101265D01*
X117364430Y-114243178D01*
X117364433Y-114243180D01*
X117518934Y-114355432D01*
X117693398Y-114433108D01*
X117880199Y-114472814D01*
X118071173Y-114472814D01*
X118257974Y-114433108D01*
X118432438Y-114355432D01*
X118586939Y-114243180D01*
X118714726Y-114101258D01*
X118810213Y-113935870D01*
X118869228Y-113754242D01*
X118889190Y-113564314D01*
X118869228Y-113374386D01*
X118810213Y-113192758D01*
X118714726Y-113027370D01*
X118714724Y-113027368D01*
X118714720Y-113027362D01*
X118586941Y-112885449D01*
X118432438Y-112773196D01*
X118257974Y-112695520D01*
X118071173Y-112655814D01*
X117880199Y-112655814D01*
X117693397Y-112695520D01*
X117518933Y-112773196D01*
X117364430Y-112885449D01*
X117236651Y-113027362D01*
X117236644Y-113027372D01*
X117141162Y-113192752D01*
X117141159Y-113192759D01*
X117082143Y-113374386D01*
X117062182Y-113564313D01*
X100000500Y-113564313D01*
X100000500Y-111589999D01*
X111616496Y-111589999D01*
X111636457Y-111779927D01*
X111636481Y-111780000D01*
X111695473Y-111961556D01*
X111695476Y-111961561D01*
X111790958Y-112126941D01*
X111790965Y-112126951D01*
X111918744Y-112268864D01*
X111918747Y-112268866D01*
X112073248Y-112381118D01*
X112247712Y-112458794D01*
X112434513Y-112498500D01*
X112625487Y-112498500D01*
X112812288Y-112458794D01*
X112986752Y-112381118D01*
X113141253Y-112268866D01*
X113141255Y-112268864D01*
X113269034Y-112126951D01*
X113269035Y-112126949D01*
X113269040Y-112126944D01*
X113364527Y-111961556D01*
X113423519Y-111779999D01*
X130666496Y-111779999D01*
X130686457Y-111969927D01*
X130716526Y-112062470D01*
X130745473Y-112151556D01*
X130745476Y-112151561D01*
X130840958Y-112316941D01*
X130840965Y-112316951D01*
X130968744Y-112458864D01*
X130968747Y-112458866D01*
X131123248Y-112571118D01*
X131297712Y-112648794D01*
X131484513Y-112688500D01*
X131675487Y-112688500D01*
X131862288Y-112648794D01*
X132036752Y-112571118D01*
X132191253Y-112458866D01*
X132261258Y-112381118D01*
X132319034Y-112316951D01*
X132319035Y-112316949D01*
X132319040Y-112316944D01*
X132414527Y-112151556D01*
X132473542Y-111969928D01*
X132493504Y-111780000D01*
X132473542Y-111590072D01*
X132461038Y-111551588D01*
X146193720Y-111551588D01*
X146213681Y-111741515D01*
X146226163Y-111779928D01*
X146272697Y-111923144D01*
X146272700Y-111923149D01*
X146368182Y-112088529D01*
X146368189Y-112088539D01*
X146495968Y-112230452D01*
X146495971Y-112230454D01*
X146650472Y-112342706D01*
X146824936Y-112420382D01*
X147011737Y-112460088D01*
X147202711Y-112460088D01*
X147389512Y-112420382D01*
X147563976Y-112342706D01*
X147718477Y-112230454D01*
X147718479Y-112230452D01*
X147846258Y-112088539D01*
X147846259Y-112088537D01*
X147846264Y-112088532D01*
X147941751Y-111923144D01*
X148000766Y-111741516D01*
X148020728Y-111551588D01*
X148000766Y-111361660D01*
X147941751Y-111180032D01*
X147846264Y-111014644D01*
X147846262Y-111014642D01*
X147846258Y-111014636D01*
X147718479Y-110872723D01*
X147563976Y-110760470D01*
X147389512Y-110682794D01*
X147202711Y-110643088D01*
X147011737Y-110643088D01*
X146824935Y-110682794D01*
X146650471Y-110760470D01*
X146495968Y-110872723D01*
X146368189Y-111014636D01*
X146368182Y-111014646D01*
X146272700Y-111180026D01*
X146272697Y-111180033D01*
X146213681Y-111361660D01*
X146193720Y-111551588D01*
X132461038Y-111551588D01*
X132414527Y-111408444D01*
X132319040Y-111243056D01*
X132319038Y-111243054D01*
X132319034Y-111243048D01*
X132191255Y-111101135D01*
X132036752Y-110988882D01*
X131862288Y-110911206D01*
X131675487Y-110871500D01*
X131484513Y-110871500D01*
X131297711Y-110911206D01*
X131123247Y-110988882D01*
X130968744Y-111101135D01*
X130840965Y-111243048D01*
X130840958Y-111243058D01*
X130745476Y-111408438D01*
X130745473Y-111408445D01*
X130686457Y-111590072D01*
X130666496Y-111779999D01*
X113423519Y-111779999D01*
X113423542Y-111779928D01*
X113443504Y-111590000D01*
X113423542Y-111400072D01*
X113364527Y-111218444D01*
X113269040Y-111053056D01*
X113269038Y-111053054D01*
X113269034Y-111053048D01*
X113141255Y-110911135D01*
X112986752Y-110798882D01*
X112812288Y-110721206D01*
X112759568Y-110710000D01*
X113586496Y-110710000D01*
X113606457Y-110899927D01*
X113610099Y-110911135D01*
X113665473Y-111081556D01*
X113665476Y-111081561D01*
X113760958Y-111246941D01*
X113760965Y-111246951D01*
X113888744Y-111388864D01*
X113915685Y-111408438D01*
X114043248Y-111501118D01*
X114217712Y-111578794D01*
X114404513Y-111618500D01*
X114595487Y-111618500D01*
X114782288Y-111578794D01*
X114956752Y-111501118D01*
X115111253Y-111388866D01*
X115111255Y-111388864D01*
X115239034Y-111246951D01*
X115239035Y-111246949D01*
X115239040Y-111246944D01*
X115334527Y-111081556D01*
X115393542Y-110899928D01*
X115413504Y-110710000D01*
X115393542Y-110520072D01*
X115334527Y-110338444D01*
X115239040Y-110173056D01*
X115239038Y-110173054D01*
X115239034Y-110173048D01*
X115111255Y-110031135D01*
X114956752Y-109918882D01*
X114782288Y-109841206D01*
X114595487Y-109801500D01*
X114404513Y-109801500D01*
X114217711Y-109841206D01*
X114043247Y-109918882D01*
X113888744Y-110031135D01*
X113760965Y-110173048D01*
X113760958Y-110173058D01*
X113665476Y-110338438D01*
X113665473Y-110338445D01*
X113606457Y-110520072D01*
X113586496Y-110710000D01*
X112759568Y-110710000D01*
X112625487Y-110681500D01*
X112434513Y-110681500D01*
X112247711Y-110721206D01*
X112073247Y-110798882D01*
X111918744Y-110911135D01*
X111790965Y-111053048D01*
X111790958Y-111053058D01*
X111695476Y-111218438D01*
X111695473Y-111218444D01*
X111680999Y-111262986D01*
X111636457Y-111400072D01*
X111616496Y-111589999D01*
X100000500Y-111589999D01*
X100000500Y-109770000D01*
X135056496Y-109770000D01*
X135076457Y-109959927D01*
X135099594Y-110031134D01*
X135135473Y-110141556D01*
X135135476Y-110141561D01*
X135230958Y-110306941D01*
X135230965Y-110306951D01*
X135358744Y-110448864D01*
X135358747Y-110448866D01*
X135513248Y-110561118D01*
X135687712Y-110638794D01*
X135874513Y-110678500D01*
X136065487Y-110678500D01*
X136252288Y-110638794D01*
X136426752Y-110561118D01*
X136581253Y-110448866D01*
X136581255Y-110448864D01*
X136709034Y-110306951D01*
X136709035Y-110306949D01*
X136709040Y-110306944D01*
X136804527Y-110141556D01*
X136863542Y-109959928D01*
X136883504Y-109770000D01*
X136863542Y-109580072D01*
X136804527Y-109398444D01*
X136709040Y-109233056D01*
X136709038Y-109233054D01*
X136709034Y-109233048D01*
X136581255Y-109091135D01*
X136426752Y-108978882D01*
X136252288Y-108901206D01*
X136065487Y-108861500D01*
X135874513Y-108861500D01*
X135687711Y-108901206D01*
X135513247Y-108978882D01*
X135358744Y-109091135D01*
X135230965Y-109233048D01*
X135230958Y-109233058D01*
X135135476Y-109398438D01*
X135135473Y-109398445D01*
X135076457Y-109580072D01*
X135056496Y-109770000D01*
X100000500Y-109770000D01*
X100000500Y-107659999D01*
X117106496Y-107659999D01*
X117126457Y-107849927D01*
X117156526Y-107942470D01*
X117185473Y-108031556D01*
X117185476Y-108031561D01*
X117280958Y-108196941D01*
X117280965Y-108196951D01*
X117408744Y-108338864D01*
X117408747Y-108338866D01*
X117563248Y-108451118D01*
X117737712Y-108528794D01*
X117924513Y-108568500D01*
X118115487Y-108568500D01*
X118302288Y-108528794D01*
X118476752Y-108451118D01*
X118631253Y-108338866D01*
X118759040Y-108196944D01*
X118854527Y-108031556D01*
X118913542Y-107849928D01*
X118933504Y-107660000D01*
X118913542Y-107470072D01*
X118854527Y-107288444D01*
X118759040Y-107123056D01*
X118759038Y-107123054D01*
X118759034Y-107123048D01*
X118631255Y-106981135D01*
X118476752Y-106868882D01*
X118302288Y-106791206D01*
X118115487Y-106751500D01*
X117924513Y-106751500D01*
X117737711Y-106791206D01*
X117563247Y-106868882D01*
X117408744Y-106981135D01*
X117280965Y-107123048D01*
X117280958Y-107123058D01*
X117185476Y-107288438D01*
X117185473Y-107288445D01*
X117126457Y-107470072D01*
X117106496Y-107659999D01*
X100000500Y-107659999D01*
X100000500Y-102946022D01*
X123887996Y-102946022D01*
X123907957Y-103135949D01*
X123938026Y-103228492D01*
X123966973Y-103317578D01*
X123966976Y-103317583D01*
X124062458Y-103482963D01*
X124062465Y-103482973D01*
X124190244Y-103624886D01*
X124190247Y-103624888D01*
X124344748Y-103737140D01*
X124519212Y-103814816D01*
X124706013Y-103854522D01*
X124896987Y-103854522D01*
X125083788Y-103814816D01*
X125258252Y-103737140D01*
X125412753Y-103624888D01*
X125483063Y-103546799D01*
X125543508Y-103509561D01*
X125614492Y-103510912D01*
X125670334Y-103546799D01*
X125789247Y-103678866D01*
X125943748Y-103791118D01*
X126118212Y-103868794D01*
X126305013Y-103908500D01*
X126495987Y-103908500D01*
X126682788Y-103868794D01*
X126857252Y-103791118D01*
X127011753Y-103678866D01*
X127139540Y-103536944D01*
X127235027Y-103371556D01*
X127294042Y-103189928D01*
X127314004Y-103000000D01*
X127294042Y-102810072D01*
X127235027Y-102628444D01*
X127139540Y-102463056D01*
X127139538Y-102463054D01*
X127139534Y-102463048D01*
X127011755Y-102321135D01*
X126857252Y-102208882D01*
X126682788Y-102131206D01*
X126495987Y-102091500D01*
X126305013Y-102091500D01*
X126118211Y-102131206D01*
X125943747Y-102208882D01*
X125789246Y-102321134D01*
X125718936Y-102399221D01*
X125658489Y-102436460D01*
X125587506Y-102435108D01*
X125531664Y-102399221D01*
X125412753Y-102267156D01*
X125258252Y-102154904D01*
X125083788Y-102077228D01*
X124896987Y-102037522D01*
X124706013Y-102037522D01*
X124519211Y-102077228D01*
X124344747Y-102154904D01*
X124190244Y-102267157D01*
X124062465Y-102409070D01*
X124062458Y-102409080D01*
X123966976Y-102574460D01*
X123966973Y-102574467D01*
X123907957Y-102756094D01*
X123887996Y-102946022D01*
X100000500Y-102946022D01*
X100000500Y-101380000D01*
X108106835Y-101380000D01*
X108125465Y-101616710D01*
X108180894Y-101847592D01*
X108239411Y-101988864D01*
X108271760Y-102066963D01*
X108395442Y-102268793D01*
X108395825Y-102269417D01*
X108395826Y-102269419D01*
X108550030Y-102449969D01*
X108695798Y-102574466D01*
X108730584Y-102604176D01*
X108933037Y-102728240D01*
X109152406Y-102819105D01*
X109383289Y-102874535D01*
X109620000Y-102893165D01*
X109856711Y-102874535D01*
X110087594Y-102819105D01*
X110306963Y-102728240D01*
X110509416Y-102604176D01*
X110689969Y-102449969D01*
X110844176Y-102269416D01*
X110968240Y-102066963D01*
X111059105Y-101847594D01*
X111114535Y-101616711D01*
X111133165Y-101380000D01*
X111127656Y-101310000D01*
X114781496Y-101310000D01*
X114801457Y-101499927D01*
X114830701Y-101589927D01*
X114860473Y-101681556D01*
X114860476Y-101681561D01*
X114955958Y-101846941D01*
X114955965Y-101846951D01*
X115083744Y-101988864D01*
X115083747Y-101988866D01*
X115238248Y-102101118D01*
X115412712Y-102178794D01*
X115599513Y-102218500D01*
X115790487Y-102218500D01*
X115977288Y-102178794D01*
X116151752Y-102101118D01*
X116306253Y-101988866D01*
X116306255Y-101988864D01*
X116434034Y-101846951D01*
X116434035Y-101846949D01*
X116434040Y-101846944D01*
X116529527Y-101681556D01*
X116588542Y-101499928D01*
X116599045Y-101399999D01*
X127486496Y-101399999D01*
X127506457Y-101589927D01*
X127515160Y-101616710D01*
X127565473Y-101771556D01*
X127565476Y-101771561D01*
X127660958Y-101936941D01*
X127660965Y-101936951D01*
X127788744Y-102078864D01*
X127788747Y-102078866D01*
X127943248Y-102191118D01*
X128117712Y-102268794D01*
X128304513Y-102308500D01*
X128495487Y-102308500D01*
X128682288Y-102268794D01*
X128856752Y-102191118D01*
X129011253Y-102078866D01*
X129012728Y-102077228D01*
X129139034Y-101936951D01*
X129139035Y-101936949D01*
X129139040Y-101936944D01*
X129234527Y-101771556D01*
X129293542Y-101589928D01*
X129313504Y-101400000D01*
X129293542Y-101210072D01*
X129234527Y-101028444D01*
X129139040Y-100863056D01*
X129139038Y-100863054D01*
X129139034Y-100863048D01*
X129011255Y-100721135D01*
X128856752Y-100608882D01*
X128682288Y-100531206D01*
X128495487Y-100491500D01*
X128304513Y-100491500D01*
X128117711Y-100531206D01*
X127943247Y-100608882D01*
X127788744Y-100721135D01*
X127660965Y-100863048D01*
X127660958Y-100863058D01*
X127565476Y-101028438D01*
X127565473Y-101028445D01*
X127506457Y-101210072D01*
X127486496Y-101399999D01*
X116599045Y-101399999D01*
X116608504Y-101310000D01*
X116588542Y-101120072D01*
X116529527Y-100938444D01*
X116434040Y-100773056D01*
X116434038Y-100773054D01*
X116434034Y-100773048D01*
X116306255Y-100631135D01*
X116151752Y-100518882D01*
X115977288Y-100441206D01*
X115790487Y-100401500D01*
X115599513Y-100401500D01*
X115412711Y-100441206D01*
X115238247Y-100518882D01*
X115083744Y-100631135D01*
X114955965Y-100773048D01*
X114955958Y-100773058D01*
X114860476Y-100938438D01*
X114860473Y-100938445D01*
X114801457Y-101120072D01*
X114781496Y-101310000D01*
X111127656Y-101310000D01*
X111114535Y-101143289D01*
X111059105Y-100912406D01*
X110968240Y-100693037D01*
X110844176Y-100490584D01*
X110825565Y-100468793D01*
X110689969Y-100310030D01*
X110567943Y-100205811D01*
X110529134Y-100146361D01*
X110528626Y-100075366D01*
X110566582Y-100015367D01*
X110567943Y-100014189D01*
X110689969Y-99909969D01*
X110792494Y-99789928D01*
X110844176Y-99729416D01*
X110968240Y-99526963D01*
X111020163Y-99401609D01*
X123384887Y-99401609D01*
X123386984Y-99421570D01*
X123404848Y-99591536D01*
X123434917Y-99684079D01*
X123463864Y-99773165D01*
X123463867Y-99773170D01*
X123559349Y-99938550D01*
X123559356Y-99938560D01*
X123687135Y-100080473D01*
X123748390Y-100124977D01*
X123841639Y-100192727D01*
X124016103Y-100270403D01*
X124202904Y-100310109D01*
X124393878Y-100310109D01*
X124580679Y-100270403D01*
X124755143Y-100192727D01*
X124909644Y-100080475D01*
X124924320Y-100064176D01*
X125037425Y-99938560D01*
X125037426Y-99938558D01*
X125037431Y-99938553D01*
X125132918Y-99773165D01*
X125189184Y-99599999D01*
X131486496Y-99599999D01*
X131506457Y-99789927D01*
X131536526Y-99882470D01*
X131565473Y-99971556D01*
X131565476Y-99971561D01*
X131660958Y-100136941D01*
X131660965Y-100136951D01*
X131788744Y-100278864D01*
X131831749Y-100310109D01*
X131943248Y-100391118D01*
X132117712Y-100468794D01*
X132304513Y-100508500D01*
X132495487Y-100508500D01*
X132682288Y-100468794D01*
X132856752Y-100391118D01*
X133011253Y-100278866D01*
X133088814Y-100192726D01*
X133139034Y-100136951D01*
X133139035Y-100136949D01*
X133139040Y-100136944D01*
X133234527Y-99971556D01*
X133293542Y-99789928D01*
X133313504Y-99600000D01*
X133293542Y-99410072D01*
X133234527Y-99228444D01*
X133139040Y-99063056D01*
X133139038Y-99063054D01*
X133139034Y-99063048D01*
X133011255Y-98921135D01*
X132856752Y-98808882D01*
X132682288Y-98731206D01*
X132495487Y-98691500D01*
X132304513Y-98691500D01*
X132117711Y-98731206D01*
X131943247Y-98808882D01*
X131788744Y-98921135D01*
X131660965Y-99063048D01*
X131660958Y-99063058D01*
X131565476Y-99228438D01*
X131565473Y-99228445D01*
X131506457Y-99410072D01*
X131486496Y-99599999D01*
X125189184Y-99599999D01*
X125191933Y-99591537D01*
X125211895Y-99401609D01*
X125191933Y-99211681D01*
X125132918Y-99030053D01*
X125037431Y-98864665D01*
X125037429Y-98864663D01*
X125037425Y-98864657D01*
X124909646Y-98722744D01*
X124755143Y-98610491D01*
X124731577Y-98599999D01*
X128166496Y-98599999D01*
X128186457Y-98789927D01*
X128210739Y-98864657D01*
X128245473Y-98971556D01*
X128245476Y-98971561D01*
X128340958Y-99136941D01*
X128340965Y-99136951D01*
X128468744Y-99278864D01*
X128529999Y-99323368D01*
X128623248Y-99391118D01*
X128797712Y-99468794D01*
X128984513Y-99508500D01*
X129175487Y-99508500D01*
X129362288Y-99468794D01*
X129536752Y-99391118D01*
X129691253Y-99278866D01*
X129819040Y-99136944D01*
X129914527Y-98971556D01*
X129973542Y-98789928D01*
X129993504Y-98600000D01*
X129987990Y-98547540D01*
X130000762Y-98477705D01*
X130049264Y-98425858D01*
X130100144Y-98409061D01*
X130105477Y-98408500D01*
X130105487Y-98408500D01*
X130292288Y-98368794D01*
X130466752Y-98291118D01*
X130621253Y-98178866D01*
X130749040Y-98036944D01*
X130844527Y-97871556D01*
X130903542Y-97689928D01*
X130906729Y-97659609D01*
X143509840Y-97659609D01*
X143529801Y-97849537D01*
X143553065Y-97921134D01*
X143588817Y-98031166D01*
X143588820Y-98031171D01*
X143684302Y-98196551D01*
X143684309Y-98196561D01*
X143812088Y-98338474D01*
X143812091Y-98338476D01*
X143966592Y-98450728D01*
X144141056Y-98528404D01*
X144327857Y-98568110D01*
X144518831Y-98568110D01*
X144705632Y-98528404D01*
X144880096Y-98450728D01*
X145034597Y-98338476D01*
X145034599Y-98338474D01*
X145162378Y-98196561D01*
X145162379Y-98196559D01*
X145162384Y-98196554D01*
X145257871Y-98031166D01*
X145316886Y-97849538D01*
X145336848Y-97659610D01*
X145316886Y-97469682D01*
X145257871Y-97288054D01*
X145162384Y-97122666D01*
X145162382Y-97122664D01*
X145162378Y-97122658D01*
X145034599Y-96980745D01*
X144880096Y-96868492D01*
X144705632Y-96790816D01*
X144518831Y-96751110D01*
X144327857Y-96751110D01*
X144141055Y-96790816D01*
X143966591Y-96868492D01*
X143812088Y-96980745D01*
X143684309Y-97122658D01*
X143684302Y-97122668D01*
X143588820Y-97288048D01*
X143588817Y-97288055D01*
X143529801Y-97469682D01*
X143509840Y-97659609D01*
X130906729Y-97659609D01*
X130923504Y-97500000D01*
X130903542Y-97310072D01*
X130844527Y-97128444D01*
X130749040Y-96963056D01*
X130749038Y-96963054D01*
X130749034Y-96963048D01*
X130621255Y-96821135D01*
X130466752Y-96708882D01*
X130292288Y-96631206D01*
X130105487Y-96591500D01*
X129914513Y-96591500D01*
X129727711Y-96631206D01*
X129553247Y-96708882D01*
X129398744Y-96821135D01*
X129270965Y-96963048D01*
X129270958Y-96963058D01*
X129175476Y-97128438D01*
X129175473Y-97128445D01*
X129116457Y-97310072D01*
X129096496Y-97500000D01*
X129102009Y-97552458D01*
X129089236Y-97622296D01*
X129040734Y-97674142D01*
X128989867Y-97690937D01*
X128984515Y-97691499D01*
X128797711Y-97731206D01*
X128623247Y-97808882D01*
X128468744Y-97921135D01*
X128340965Y-98063048D01*
X128340958Y-98063058D01*
X128245476Y-98228438D01*
X128245473Y-98228445D01*
X128186457Y-98410072D01*
X128166496Y-98599999D01*
X124731577Y-98599999D01*
X124580679Y-98532815D01*
X124393878Y-98493109D01*
X124202904Y-98493109D01*
X124016102Y-98532815D01*
X123841638Y-98610491D01*
X123687135Y-98722744D01*
X123559356Y-98864657D01*
X123559349Y-98864667D01*
X123463867Y-99030047D01*
X123463864Y-99030054D01*
X123404848Y-99211681D01*
X123384887Y-99401608D01*
X123384887Y-99401609D01*
X111020163Y-99401609D01*
X111059105Y-99307594D01*
X111114535Y-99076711D01*
X111133165Y-98840000D01*
X111114535Y-98603289D01*
X111059105Y-98372406D01*
X110968240Y-98153037D01*
X110844176Y-97950584D01*
X110844173Y-97950580D01*
X110689969Y-97770030D01*
X110585191Y-97680542D01*
X110567942Y-97665810D01*
X110529134Y-97606361D01*
X110528626Y-97535366D01*
X110566582Y-97475367D01*
X110567943Y-97474189D01*
X110576430Y-97466941D01*
X110689969Y-97369969D01*
X110844176Y-97189416D01*
X110968240Y-96986963D01*
X110991835Y-96930000D01*
X114656496Y-96930000D01*
X114676457Y-97119927D01*
X114699037Y-97189419D01*
X114735473Y-97301556D01*
X114735476Y-97301561D01*
X114830958Y-97466941D01*
X114830965Y-97466951D01*
X114958744Y-97608864D01*
X114958747Y-97608866D01*
X115113248Y-97721118D01*
X115287712Y-97798794D01*
X115474513Y-97838500D01*
X115665487Y-97838500D01*
X115852288Y-97798794D01*
X116026752Y-97721118D01*
X116181253Y-97608866D01*
X116257508Y-97524176D01*
X116309034Y-97466951D01*
X116309035Y-97466949D01*
X116309040Y-97466944D01*
X116404527Y-97301556D01*
X116463542Y-97119928D01*
X116483504Y-96930000D01*
X116463542Y-96740072D01*
X116404527Y-96558444D01*
X116309040Y-96393056D01*
X116309038Y-96393054D01*
X116309034Y-96393048D01*
X116252265Y-96330000D01*
X119386496Y-96330000D01*
X119406457Y-96519927D01*
X119423072Y-96571061D01*
X119465473Y-96701556D01*
X119465476Y-96701561D01*
X119560958Y-96866941D01*
X119560965Y-96866951D01*
X119688744Y-97008864D01*
X119688747Y-97008866D01*
X119843248Y-97121118D01*
X120017712Y-97198794D01*
X120204513Y-97238500D01*
X120395487Y-97238500D01*
X120582288Y-97198794D01*
X120756752Y-97121118D01*
X120911253Y-97008866D01*
X120927684Y-96990618D01*
X121039034Y-96866951D01*
X121039035Y-96866949D01*
X121039040Y-96866944D01*
X121134527Y-96701556D01*
X121193542Y-96519928D01*
X121213504Y-96330000D01*
X121193542Y-96140072D01*
X121134527Y-95958444D01*
X121039040Y-95793056D01*
X121039038Y-95793054D01*
X121039034Y-95793048D01*
X120911255Y-95651135D01*
X120756752Y-95538882D01*
X120582288Y-95461206D01*
X120395487Y-95421500D01*
X120204513Y-95421500D01*
X120017711Y-95461206D01*
X119843247Y-95538882D01*
X119688744Y-95651135D01*
X119560965Y-95793048D01*
X119560958Y-95793058D01*
X119475224Y-95941554D01*
X119465473Y-95958444D01*
X119450999Y-96002986D01*
X119406457Y-96140072D01*
X119386496Y-96330000D01*
X116252265Y-96330000D01*
X116181255Y-96251135D01*
X116026752Y-96138882D01*
X115852288Y-96061206D01*
X115665487Y-96021500D01*
X115474513Y-96021500D01*
X115287711Y-96061206D01*
X115113247Y-96138882D01*
X114958744Y-96251135D01*
X114830965Y-96393048D01*
X114830958Y-96393058D01*
X114735476Y-96558438D01*
X114735473Y-96558444D01*
X114724732Y-96591500D01*
X114676457Y-96740072D01*
X114656496Y-96930000D01*
X110991835Y-96930000D01*
X111059105Y-96767594D01*
X111114535Y-96536711D01*
X111133165Y-96300000D01*
X111114535Y-96063289D01*
X111059105Y-95832406D01*
X110968240Y-95613037D01*
X110844176Y-95410584D01*
X110844173Y-95410580D01*
X110689969Y-95230030D01*
X110654808Y-95200000D01*
X124086496Y-95200000D01*
X124106457Y-95389927D01*
X124116716Y-95421500D01*
X124165473Y-95571556D01*
X124165476Y-95571561D01*
X124260958Y-95736941D01*
X124260965Y-95736951D01*
X124388744Y-95878864D01*
X124388747Y-95878866D01*
X124543248Y-95991118D01*
X124717712Y-96068794D01*
X124904513Y-96108500D01*
X125095487Y-96108500D01*
X125282288Y-96068794D01*
X125456752Y-95991118D01*
X125468760Y-95982393D01*
X125535625Y-95958532D01*
X125604777Y-95974609D01*
X125651943Y-96021326D01*
X125660958Y-96036941D01*
X125660965Y-96036951D01*
X125788744Y-96178864D01*
X125788747Y-96178866D01*
X125943248Y-96291118D01*
X126117712Y-96368794D01*
X126304513Y-96408500D01*
X126495487Y-96408500D01*
X126682288Y-96368794D01*
X126856752Y-96291118D01*
X126982854Y-96199499D01*
X132986496Y-96199499D01*
X133006457Y-96389427D01*
X133022498Y-96438794D01*
X133065473Y-96571056D01*
X133065476Y-96571061D01*
X133160958Y-96736441D01*
X133160965Y-96736451D01*
X133288744Y-96878364D01*
X133288747Y-96878366D01*
X133443248Y-96990618D01*
X133617712Y-97068294D01*
X133804513Y-97108000D01*
X133995487Y-97108000D01*
X134182288Y-97068294D01*
X134356752Y-96990618D01*
X134511253Y-96878366D01*
X134521531Y-96866951D01*
X134639034Y-96736451D01*
X134639035Y-96736449D01*
X134639040Y-96736444D01*
X134734527Y-96571056D01*
X134793542Y-96389428D01*
X134813504Y-96199500D01*
X134793542Y-96009572D01*
X134734527Y-95827944D01*
X134639040Y-95662556D01*
X134639038Y-95662554D01*
X134639034Y-95662548D01*
X134555703Y-95570000D01*
X135446496Y-95570000D01*
X135466457Y-95759927D01*
X135488556Y-95827938D01*
X135525473Y-95941556D01*
X135525476Y-95941561D01*
X135620958Y-96106941D01*
X135620965Y-96106951D01*
X135748744Y-96248864D01*
X135751870Y-96251135D01*
X135903248Y-96361118D01*
X136077712Y-96438794D01*
X136264513Y-96478500D01*
X136455487Y-96478500D01*
X136642288Y-96438794D01*
X136816752Y-96361118D01*
X136971253Y-96248866D01*
X136971255Y-96248864D01*
X137099034Y-96106951D01*
X137099035Y-96106949D01*
X137099040Y-96106944D01*
X137194527Y-95941556D01*
X137253542Y-95759928D01*
X137273504Y-95570000D01*
X137253542Y-95380072D01*
X137194527Y-95198444D01*
X137099040Y-95033056D01*
X137099038Y-95033054D01*
X137099034Y-95033048D01*
X136971255Y-94891135D01*
X136816752Y-94778882D01*
X136642288Y-94701206D01*
X136455487Y-94661500D01*
X136264513Y-94661500D01*
X136077711Y-94701206D01*
X135903247Y-94778882D01*
X135748744Y-94891135D01*
X135620965Y-95033048D01*
X135620958Y-95033058D01*
X135525476Y-95198438D01*
X135525473Y-95198444D01*
X135515210Y-95230030D01*
X135466457Y-95380072D01*
X135446496Y-95570000D01*
X134555703Y-95570000D01*
X134511255Y-95520635D01*
X134356752Y-95408382D01*
X134182288Y-95330706D01*
X133995487Y-95291000D01*
X133804513Y-95291000D01*
X133617711Y-95330706D01*
X133443247Y-95408382D01*
X133288744Y-95520635D01*
X133160965Y-95662548D01*
X133160958Y-95662558D01*
X133065476Y-95827938D01*
X133065473Y-95827945D01*
X133006457Y-96009572D01*
X132986496Y-96199499D01*
X126982854Y-96199499D01*
X127011253Y-96178866D01*
X127074611Y-96108500D01*
X127139034Y-96036951D01*
X127139035Y-96036949D01*
X127139040Y-96036944D01*
X127234527Y-95871556D01*
X127293542Y-95689928D01*
X127313504Y-95500000D01*
X127293542Y-95310072D01*
X127234527Y-95128444D01*
X127139040Y-94963056D01*
X127139038Y-94963054D01*
X127139034Y-94963048D01*
X127011255Y-94821135D01*
X126856752Y-94708882D01*
X126682288Y-94631206D01*
X126495487Y-94591500D01*
X126304513Y-94591500D01*
X126117711Y-94631206D01*
X125943242Y-94708884D01*
X125943241Y-94708885D01*
X125931234Y-94717609D01*
X125864366Y-94741467D01*
X125795215Y-94725385D01*
X125748054Y-94678669D01*
X125739039Y-94663054D01*
X125611255Y-94521135D01*
X125456752Y-94408882D01*
X125282288Y-94331206D01*
X125095487Y-94291500D01*
X124904513Y-94291500D01*
X124717711Y-94331206D01*
X124543247Y-94408882D01*
X124388744Y-94521135D01*
X124260965Y-94663048D01*
X124260958Y-94663058D01*
X124165476Y-94828438D01*
X124165473Y-94828445D01*
X124106457Y-95010072D01*
X124086496Y-95200000D01*
X110654808Y-95200000D01*
X110509419Y-95075826D01*
X110509417Y-95075825D01*
X110509416Y-95075824D01*
X110306963Y-94951760D01*
X110160601Y-94891135D01*
X110087592Y-94860894D01*
X109921977Y-94821134D01*
X109856711Y-94805465D01*
X109620000Y-94786835D01*
X109383289Y-94805465D01*
X109152407Y-94860894D01*
X108933038Y-94951759D01*
X108730582Y-95075825D01*
X108730580Y-95075826D01*
X108550030Y-95230030D01*
X108395826Y-95410580D01*
X108395825Y-95410582D01*
X108271759Y-95613038D01*
X108180894Y-95832407D01*
X108131790Y-96036944D01*
X108125465Y-96063289D01*
X108106835Y-96300000D01*
X108125465Y-96536711D01*
X108133712Y-96571061D01*
X108180894Y-96767592D01*
X108222046Y-96866941D01*
X108271760Y-96986963D01*
X108358456Y-97128438D01*
X108395825Y-97189417D01*
X108395826Y-97189419D01*
X108498874Y-97310072D01*
X108550031Y-97369969D01*
X108663574Y-97466944D01*
X108672057Y-97474189D01*
X108710866Y-97533640D01*
X108711372Y-97604634D01*
X108673416Y-97664633D01*
X108672069Y-97665799D01*
X108644420Y-97689414D01*
X108550028Y-97770033D01*
X108395826Y-97950580D01*
X108395825Y-97950582D01*
X108271759Y-98153038D01*
X108180894Y-98372407D01*
X108143443Y-98528404D01*
X108125465Y-98603289D01*
X108106835Y-98840000D01*
X108124390Y-99063058D01*
X108125465Y-99076710D01*
X108180894Y-99307592D01*
X108219837Y-99401608D01*
X108271760Y-99526963D01*
X108316517Y-99600000D01*
X108395825Y-99729417D01*
X108395826Y-99729419D01*
X108433189Y-99773165D01*
X108550031Y-99909969D01*
X108583495Y-99938550D01*
X108672057Y-100014189D01*
X108710866Y-100073640D01*
X108711372Y-100144634D01*
X108673416Y-100204633D01*
X108672057Y-100205811D01*
X108550028Y-100310033D01*
X108395826Y-100490580D01*
X108395825Y-100490582D01*
X108271759Y-100693038D01*
X108180894Y-100912407D01*
X108125465Y-101143289D01*
X108106835Y-101380000D01*
X100000500Y-101380000D01*
X100000500Y-93873391D01*
X145371493Y-93873391D01*
X145391454Y-94063319D01*
X145421523Y-94155862D01*
X145450470Y-94244948D01*
X145450473Y-94244953D01*
X145545955Y-94410333D01*
X145545962Y-94410343D01*
X145673741Y-94552256D01*
X145673744Y-94552258D01*
X145828245Y-94664510D01*
X146002709Y-94742186D01*
X146189510Y-94781892D01*
X146380484Y-94781892D01*
X146567285Y-94742186D01*
X146741749Y-94664510D01*
X146896250Y-94552258D01*
X147024037Y-94410336D01*
X147119524Y-94244948D01*
X147178539Y-94063320D01*
X147198501Y-93873392D01*
X147178539Y-93683464D01*
X147119524Y-93501836D01*
X147024037Y-93336448D01*
X147024035Y-93336446D01*
X147024031Y-93336440D01*
X146896252Y-93194527D01*
X146741749Y-93082274D01*
X146567285Y-93004598D01*
X146380484Y-92964892D01*
X146189510Y-92964892D01*
X146002708Y-93004598D01*
X145828244Y-93082274D01*
X145673741Y-93194527D01*
X145545962Y-93336440D01*
X145545955Y-93336450D01*
X145450473Y-93501830D01*
X145450470Y-93501837D01*
X145391454Y-93683464D01*
X145371493Y-93873391D01*
X100000500Y-93873391D01*
X100000500Y-91069999D01*
X146336496Y-91069999D01*
X146356457Y-91259927D01*
X146386526Y-91352470D01*
X146415473Y-91441556D01*
X146415476Y-91441561D01*
X146510958Y-91606941D01*
X146510965Y-91606951D01*
X146638744Y-91748864D01*
X146638747Y-91748866D01*
X146793248Y-91861118D01*
X146967712Y-91938794D01*
X147154513Y-91978500D01*
X147345487Y-91978500D01*
X147532288Y-91938794D01*
X147706752Y-91861118D01*
X147861253Y-91748866D01*
X147989040Y-91606944D01*
X148084527Y-91441556D01*
X148143542Y-91259928D01*
X148163504Y-91070000D01*
X148143542Y-90880072D01*
X148084527Y-90698444D01*
X147989040Y-90533056D01*
X147989038Y-90533054D01*
X147989034Y-90533048D01*
X147861255Y-90391135D01*
X147706752Y-90278882D01*
X147532288Y-90201206D01*
X147345487Y-90161500D01*
X147154513Y-90161500D01*
X146967711Y-90201206D01*
X146793247Y-90278882D01*
X146638744Y-90391135D01*
X146510965Y-90533048D01*
X146510958Y-90533058D01*
X146415476Y-90698438D01*
X146415473Y-90698445D01*
X146356457Y-90880072D01*
X146336496Y-91069999D01*
X100000500Y-91069999D01*
X100000500Y-89700000D01*
X125686496Y-89700000D01*
X125706457Y-89889927D01*
X125736526Y-89982470D01*
X125765473Y-90071556D01*
X125765476Y-90071561D01*
X125860958Y-90236941D01*
X125860965Y-90236951D01*
X125988744Y-90378864D01*
X125988747Y-90378866D01*
X126143248Y-90491118D01*
X126317712Y-90568794D01*
X126504513Y-90608500D01*
X126695487Y-90608500D01*
X126882288Y-90568794D01*
X127056752Y-90491118D01*
X127211253Y-90378866D01*
X127339040Y-90236944D01*
X127434527Y-90071556D01*
X127493542Y-89889928D01*
X127513504Y-89700000D01*
X127493542Y-89510072D01*
X127434527Y-89328444D01*
X127339040Y-89163056D01*
X127339038Y-89163054D01*
X127339034Y-89163048D01*
X127211255Y-89021135D01*
X127056752Y-88908882D01*
X126882288Y-88831206D01*
X126695487Y-88791500D01*
X126504513Y-88791500D01*
X126317711Y-88831206D01*
X126143247Y-88908882D01*
X125988744Y-89021135D01*
X125860965Y-89163048D01*
X125860958Y-89163058D01*
X125765476Y-89328438D01*
X125765473Y-89328445D01*
X125706457Y-89510072D01*
X125686496Y-89700000D01*
X100000500Y-89700000D01*
X100000500Y-88694999D01*
X137801496Y-88694999D01*
X137821457Y-88884927D01*
X137829241Y-88908882D01*
X137880473Y-89066556D01*
X137880476Y-89066561D01*
X137975958Y-89231941D01*
X137975965Y-89231951D01*
X138103744Y-89373864D01*
X138103747Y-89373866D01*
X138258248Y-89486118D01*
X138432712Y-89563794D01*
X138619513Y-89603500D01*
X138810487Y-89603500D01*
X138997288Y-89563794D01*
X139171752Y-89486118D01*
X139326253Y-89373866D01*
X139454040Y-89231944D01*
X139549527Y-89066556D01*
X139608542Y-88884928D01*
X139628504Y-88695000D01*
X139608542Y-88505072D01*
X139549527Y-88323444D01*
X139454040Y-88158056D01*
X139454038Y-88158054D01*
X139454034Y-88158048D01*
X139326255Y-88016135D01*
X139171752Y-87903882D01*
X138997288Y-87826206D01*
X138810487Y-87786500D01*
X138619513Y-87786500D01*
X138432711Y-87826206D01*
X138258247Y-87903882D01*
X138103744Y-88016135D01*
X137975965Y-88158048D01*
X137975958Y-88158058D01*
X137880476Y-88323438D01*
X137880473Y-88323445D01*
X137821457Y-88505072D01*
X137801496Y-88694999D01*
X100000500Y-88694999D01*
X100000500Y-87400000D01*
X111386496Y-87400000D01*
X111406457Y-87589927D01*
X111436526Y-87682470D01*
X111465473Y-87771556D01*
X111465476Y-87771561D01*
X111560958Y-87936941D01*
X111560965Y-87936951D01*
X111688744Y-88078864D01*
X111749999Y-88123368D01*
X111843248Y-88191118D01*
X112017712Y-88268794D01*
X112204513Y-88308500D01*
X112395487Y-88308500D01*
X112582288Y-88268794D01*
X112756752Y-88191118D01*
X112911253Y-88078866D01*
X112990262Y-87991118D01*
X113039034Y-87936951D01*
X113039035Y-87936949D01*
X113039040Y-87936944D01*
X113134527Y-87771556D01*
X113193542Y-87589928D01*
X113213504Y-87400000D01*
X113193542Y-87210072D01*
X113190269Y-87200000D01*
X119186496Y-87200000D01*
X119206457Y-87389927D01*
X119236526Y-87482470D01*
X119265473Y-87571556D01*
X119265476Y-87571561D01*
X119360958Y-87736941D01*
X119360965Y-87736951D01*
X119488744Y-87878864D01*
X119488747Y-87878866D01*
X119643248Y-87991118D01*
X119817712Y-88068794D01*
X120004513Y-88108500D01*
X120195487Y-88108500D01*
X120382288Y-88068794D01*
X120556752Y-87991118D01*
X120711253Y-87878866D01*
X120807871Y-87771561D01*
X120839034Y-87736951D01*
X120839035Y-87736949D01*
X120839040Y-87736944D01*
X120934527Y-87571556D01*
X120993542Y-87389928D01*
X121013504Y-87200000D01*
X120993542Y-87010072D01*
X120934527Y-86828444D01*
X120839040Y-86663056D01*
X120839038Y-86663054D01*
X120839034Y-86663048D01*
X120711255Y-86521135D01*
X120556752Y-86408882D01*
X120382288Y-86331206D01*
X120195487Y-86291500D01*
X120004513Y-86291500D01*
X119817711Y-86331206D01*
X119643247Y-86408882D01*
X119488744Y-86521135D01*
X119360965Y-86663048D01*
X119360958Y-86663058D01*
X119265476Y-86828438D01*
X119265473Y-86828445D01*
X119206457Y-87010072D01*
X119186496Y-87200000D01*
X113190269Y-87200000D01*
X113134527Y-87028444D01*
X113039040Y-86863056D01*
X113039038Y-86863054D01*
X113039034Y-86863048D01*
X112911255Y-86721135D01*
X112756752Y-86608882D01*
X112582288Y-86531206D01*
X112395487Y-86491500D01*
X112204513Y-86491500D01*
X112017711Y-86531206D01*
X111843247Y-86608882D01*
X111688744Y-86721135D01*
X111560965Y-86863048D01*
X111560958Y-86863058D01*
X111465476Y-87028438D01*
X111465473Y-87028445D01*
X111406457Y-87210072D01*
X111386496Y-87400000D01*
X100000500Y-87400000D01*
X100000500Y-85979999D01*
X146116496Y-85979999D01*
X146136457Y-86169927D01*
X146166526Y-86262470D01*
X146195473Y-86351556D01*
X146195476Y-86351561D01*
X146290958Y-86516941D01*
X146290965Y-86516951D01*
X146418744Y-86658864D01*
X146418747Y-86658866D01*
X146573248Y-86771118D01*
X146747712Y-86848794D01*
X146934513Y-86888500D01*
X147125487Y-86888500D01*
X147312288Y-86848794D01*
X147486752Y-86771118D01*
X147641253Y-86658866D01*
X147686259Y-86608882D01*
X147769034Y-86516951D01*
X147769035Y-86516949D01*
X147769040Y-86516944D01*
X147864527Y-86351556D01*
X147923542Y-86169928D01*
X147943504Y-85980000D01*
X147923542Y-85790072D01*
X147864527Y-85608444D01*
X147769040Y-85443056D01*
X147769038Y-85443054D01*
X147769034Y-85443048D01*
X147641255Y-85301135D01*
X147486752Y-85188882D01*
X147312288Y-85111206D01*
X147125487Y-85071500D01*
X146934513Y-85071500D01*
X146747711Y-85111206D01*
X146573247Y-85188882D01*
X146418744Y-85301135D01*
X146290965Y-85443048D01*
X146290958Y-85443058D01*
X146195476Y-85608438D01*
X146195473Y-85608444D01*
X146180999Y-85652986D01*
X146136457Y-85790072D01*
X146116496Y-85979999D01*
X100000500Y-85979999D01*
X100000500Y-80700000D01*
X110486494Y-80700000D01*
X110506455Y-80889927D01*
X110536524Y-80982470D01*
X110565471Y-81071556D01*
X110565474Y-81071561D01*
X110660956Y-81236941D01*
X110660963Y-81236951D01*
X110788742Y-81378864D01*
X110788745Y-81378866D01*
X110943246Y-81491118D01*
X111117710Y-81568794D01*
X111304511Y-81608500D01*
X111495485Y-81608500D01*
X111682286Y-81568794D01*
X111856750Y-81491118D01*
X112011251Y-81378866D01*
X112139038Y-81236944D01*
X112234525Y-81071556D01*
X112293540Y-80889928D01*
X112313502Y-80700000D01*
X112293540Y-80510072D01*
X112234525Y-80328444D01*
X112139038Y-80163056D01*
X112139036Y-80163054D01*
X112139032Y-80163048D01*
X112113157Y-80134312D01*
X112082439Y-80070305D01*
X112091202Y-79999851D01*
X112113154Y-79965692D01*
X112139040Y-79936944D01*
X112234527Y-79771556D01*
X112293542Y-79589928D01*
X112313504Y-79400000D01*
X112293542Y-79210072D01*
X112234527Y-79028444D01*
X112139040Y-78863056D01*
X112139038Y-78863054D01*
X112139034Y-78863048D01*
X112011255Y-78721135D01*
X111856752Y-78608882D01*
X111682288Y-78531206D01*
X111495487Y-78491500D01*
X111304513Y-78491500D01*
X111117711Y-78531206D01*
X110943247Y-78608882D01*
X110788744Y-78721135D01*
X110660965Y-78863048D01*
X110660958Y-78863058D01*
X110565476Y-79028438D01*
X110565473Y-79028445D01*
X110506457Y-79210072D01*
X110486496Y-79399999D01*
X110506457Y-79589927D01*
X110531356Y-79666556D01*
X110565473Y-79771556D01*
X110660960Y-79936944D01*
X110686841Y-79965688D01*
X110717558Y-80029694D01*
X110708795Y-80100148D01*
X110686843Y-80134307D01*
X110660955Y-80163059D01*
X110565474Y-80328438D01*
X110565471Y-80328445D01*
X110506455Y-80510072D01*
X110486494Y-80700000D01*
X100000500Y-80700000D01*
X100000500Y-79399999D01*
X103386496Y-79399999D01*
X103406457Y-79589927D01*
X103431356Y-79666556D01*
X103465473Y-79771556D01*
X103465476Y-79771561D01*
X103560958Y-79936941D01*
X103560965Y-79936951D01*
X103688744Y-80078864D01*
X103688747Y-80078866D01*
X103843248Y-80191118D01*
X104017712Y-80268794D01*
X104204513Y-80308500D01*
X104395487Y-80308500D01*
X104582288Y-80268794D01*
X104756752Y-80191118D01*
X104911253Y-80078866D01*
X104911255Y-80078864D01*
X105039034Y-79936951D01*
X105039035Y-79936949D01*
X105039040Y-79936944D01*
X105134527Y-79771556D01*
X105193542Y-79589928D01*
X105213504Y-79400000D01*
X105202468Y-79295000D01*
X107881496Y-79295000D01*
X107901457Y-79484927D01*
X107931526Y-79577470D01*
X107960473Y-79666556D01*
X107960476Y-79666561D01*
X108055958Y-79831941D01*
X108055965Y-79831951D01*
X108183744Y-79973864D01*
X108183747Y-79973866D01*
X108338248Y-80086118D01*
X108512712Y-80163794D01*
X108699513Y-80203500D01*
X108890487Y-80203500D01*
X109077288Y-80163794D01*
X109251752Y-80086118D01*
X109406253Y-79973866D01*
X109413616Y-79965689D01*
X109534034Y-79831951D01*
X109534035Y-79831949D01*
X109534040Y-79831944D01*
X109629527Y-79666556D01*
X109688542Y-79484928D01*
X109708504Y-79295000D01*
X109688542Y-79105072D01*
X109629527Y-78923444D01*
X109534040Y-78758056D01*
X109534038Y-78758054D01*
X109534034Y-78758048D01*
X109406255Y-78616135D01*
X109251752Y-78503882D01*
X109077288Y-78426206D01*
X108890487Y-78386500D01*
X108699513Y-78386500D01*
X108512711Y-78426206D01*
X108338247Y-78503882D01*
X108183744Y-78616135D01*
X108055965Y-78758048D01*
X108055958Y-78758058D01*
X107960476Y-78923438D01*
X107960473Y-78923445D01*
X107901457Y-79105072D01*
X107881496Y-79295000D01*
X105202468Y-79295000D01*
X105193542Y-79210072D01*
X105134527Y-79028444D01*
X105039040Y-78863056D01*
X105039038Y-78863054D01*
X105039034Y-78863048D01*
X104911255Y-78721135D01*
X104756752Y-78608882D01*
X104582288Y-78531206D01*
X104395487Y-78491500D01*
X104204513Y-78491500D01*
X104017711Y-78531206D01*
X103843247Y-78608882D01*
X103688744Y-78721135D01*
X103560965Y-78863048D01*
X103560958Y-78863058D01*
X103465476Y-79028438D01*
X103465473Y-79028445D01*
X103406457Y-79210072D01*
X103386496Y-79399999D01*
X100000500Y-79399999D01*
X100000500Y-50126500D01*
X100020502Y-50058379D01*
X100074158Y-50011886D01*
X100126500Y-50000500D01*
X115373500Y-50000500D01*
X115441621Y-50020502D01*
G37*
%TD.AperFunction*%
%TD*%
%TA.AperFunction,Conductor*%
%TO.N,GND*%
G36*
X199941621Y-50020502D02*
G01*
X199988114Y-50074158D01*
X199999500Y-50126500D01*
X199999499Y-73060500D01*
X199979497Y-73128621D01*
X199925841Y-73175114D01*
X199873499Y-73186500D01*
X191525990Y-73186500D01*
X191437267Y-73196039D01*
X191416851Y-73198234D01*
X191416848Y-73198234D01*
X191416844Y-73198235D01*
X191416840Y-73198235D01*
X191364519Y-73209617D01*
X191364498Y-73209623D01*
X191260345Y-73244288D01*
X191137385Y-73323310D01*
X191085019Y-73368685D01*
X191083904Y-73369599D01*
X190988019Y-73480258D01*
X190988017Y-73480261D01*
X190927301Y-73613210D01*
X190907302Y-73681322D01*
X190907300Y-73681329D01*
X190886500Y-73826003D01*
X190886500Y-78602828D01*
X190866498Y-78670949D01*
X190812842Y-78717442D01*
X190743589Y-78727688D01*
X190668771Y-78717554D01*
X170120777Y-78885494D01*
X170120764Y-78885495D01*
X170013759Y-78897664D01*
X169962451Y-78909046D01*
X169962442Y-78909049D01*
X169860345Y-78943263D01*
X169860340Y-78943265D01*
X169737390Y-79022280D01*
X169737386Y-79022283D01*
X169685019Y-79067659D01*
X169683904Y-79068573D01*
X169588019Y-79179232D01*
X169588017Y-79179235D01*
X169527301Y-79312184D01*
X169507302Y-79380296D01*
X169507300Y-79380303D01*
X169486500Y-79524977D01*
X169486500Y-81560500D01*
X169466498Y-81628621D01*
X169412842Y-81675114D01*
X169360500Y-81686500D01*
X162325990Y-81686500D01*
X162237267Y-81696039D01*
X162216851Y-81698234D01*
X162216848Y-81698234D01*
X162216844Y-81698235D01*
X162216840Y-81698235D01*
X162164519Y-81709617D01*
X162164498Y-81709623D01*
X162060345Y-81744288D01*
X161937385Y-81823310D01*
X161885019Y-81868685D01*
X161883904Y-81869599D01*
X161788019Y-81980258D01*
X161788017Y-81980261D01*
X161727301Y-82113210D01*
X161707302Y-82181322D01*
X161707300Y-82181329D01*
X161686500Y-82326003D01*
X161686500Y-85774575D01*
X161697988Y-85882584D01*
X161709135Y-85934393D01*
X161709137Y-85934398D01*
X161709139Y-85934407D01*
X161743089Y-86037581D01*
X161797011Y-86122331D01*
X161821545Y-86160891D01*
X161821551Y-86160898D01*
X161867789Y-86214753D01*
X161867802Y-86214767D01*
X161915057Y-86256091D01*
X161977815Y-86310973D01*
X162110487Y-86372294D01*
X162145325Y-86382696D01*
X162178505Y-86392603D01*
X162178519Y-86392607D01*
X162323093Y-86414065D01*
X181370764Y-86500644D01*
X181438790Y-86520956D01*
X181485038Y-86574822D01*
X181494823Y-86645141D01*
X181465036Y-86709587D01*
X181411102Y-86745815D01*
X181382280Y-86755710D01*
X181382273Y-86755713D01*
X181176985Y-86866809D01*
X181176983Y-86866810D01*
X180992778Y-87010182D01*
X180992774Y-87010186D01*
X180834685Y-87181916D01*
X180707015Y-87377331D01*
X180613252Y-87591089D01*
X180613249Y-87591096D01*
X180555950Y-87817366D01*
X180536673Y-88050000D01*
X180555950Y-88282633D01*
X180613249Y-88508903D01*
X180613252Y-88508910D01*
X180707015Y-88722668D01*
X180834685Y-88918083D01*
X180992774Y-89089813D01*
X180992778Y-89089817D01*
X181058650Y-89141087D01*
X181176983Y-89233190D01*
X181382273Y-89344287D01*
X181603049Y-89420080D01*
X181833288Y-89458500D01*
X181833292Y-89458500D01*
X182066708Y-89458500D01*
X182066712Y-89458500D01*
X182296951Y-89420080D01*
X182517727Y-89344287D01*
X182723017Y-89233190D01*
X182907220Y-89089818D01*
X183065314Y-88918083D01*
X183192984Y-88722669D01*
X183286749Y-88508907D01*
X183344051Y-88282626D01*
X183363327Y-88050000D01*
X183344051Y-87817374D01*
X183286749Y-87591093D01*
X183192984Y-87377331D01*
X183192983Y-87377331D01*
X183065314Y-87181916D01*
X182907225Y-87010186D01*
X182907221Y-87010182D01*
X182815118Y-86938496D01*
X182723017Y-86866810D01*
X182517727Y-86755713D01*
X182517725Y-86755712D01*
X182517724Y-86755711D01*
X182504459Y-86751158D01*
X182446524Y-86710121D01*
X182419972Y-86644276D01*
X182433233Y-86574529D01*
X182482098Y-86523024D01*
X182545941Y-86505986D01*
X190671093Y-86542919D01*
X190781438Y-86531436D01*
X190834353Y-86520051D01*
X190939657Y-86485135D01*
X190939660Y-86485132D01*
X190939780Y-86485093D01*
X191010734Y-86482639D01*
X191061947Y-86509465D01*
X191180258Y-86611980D01*
X191180261Y-86611982D01*
X191313210Y-86672698D01*
X191381331Y-86692700D01*
X191526000Y-86713500D01*
X192060500Y-86713500D01*
X192128621Y-86733502D01*
X192175114Y-86787158D01*
X192186500Y-86839500D01*
X192186500Y-91660500D01*
X192166498Y-91728621D01*
X192112842Y-91775114D01*
X192060500Y-91786500D01*
X185825990Y-91786500D01*
X185737267Y-91796039D01*
X185716851Y-91798234D01*
X185716848Y-91798234D01*
X185716844Y-91798235D01*
X185716840Y-91798235D01*
X185664519Y-91809617D01*
X185664498Y-91809623D01*
X185560345Y-91844288D01*
X185437385Y-91923310D01*
X185385019Y-91968685D01*
X185383904Y-91969599D01*
X185288019Y-92080258D01*
X185288017Y-92080261D01*
X185227301Y-92213210D01*
X185207302Y-92281322D01*
X185207300Y-92281329D01*
X185186500Y-92426003D01*
X185186500Y-93274908D01*
X185186849Y-93288300D01*
X185187895Y-93308316D01*
X185188952Y-93321767D01*
X185195791Y-93386831D01*
X185195791Y-93413171D01*
X185188955Y-93478215D01*
X185187899Y-93491632D01*
X185186851Y-93511649D01*
X185186500Y-93525072D01*
X185186500Y-96074908D01*
X185186849Y-96088300D01*
X185187895Y-96108316D01*
X185188952Y-96121767D01*
X185195791Y-96186831D01*
X185195791Y-96213171D01*
X185188955Y-96278215D01*
X185187899Y-96291632D01*
X185186851Y-96311649D01*
X185186500Y-96325072D01*
X185186500Y-97574009D01*
X185198235Y-97683155D01*
X185198235Y-97683159D01*
X185209617Y-97735480D01*
X185209623Y-97735501D01*
X185244288Y-97839654D01*
X185244290Y-97839657D01*
X185323308Y-97962612D01*
X185323310Y-97962614D01*
X185348329Y-97991488D01*
X185377822Y-98056069D01*
X185367717Y-98126343D01*
X185321224Y-98179998D01*
X185253104Y-98200000D01*
X150100000Y-98200000D01*
X150109958Y-93400000D01*
X161336673Y-93400000D01*
X161345924Y-93511648D01*
X161355950Y-93632633D01*
X161413249Y-93858903D01*
X161413252Y-93858910D01*
X161507015Y-94072668D01*
X161634685Y-94268083D01*
X161792774Y-94439813D01*
X161792778Y-94439817D01*
X161858650Y-94491087D01*
X161976983Y-94583190D01*
X162182273Y-94694287D01*
X162403049Y-94770080D01*
X162633288Y-94808500D01*
X162633292Y-94808500D01*
X162866708Y-94808500D01*
X162866712Y-94808500D01*
X163096951Y-94770080D01*
X163317727Y-94694287D01*
X163523017Y-94583190D01*
X163707220Y-94439818D01*
X163865314Y-94268083D01*
X163992984Y-94072669D01*
X164086749Y-93858907D01*
X164144051Y-93632626D01*
X164163327Y-93400000D01*
X176836673Y-93400000D01*
X176845924Y-93511648D01*
X176855950Y-93632633D01*
X176913249Y-93858903D01*
X176913252Y-93858910D01*
X177007015Y-94072668D01*
X177134685Y-94268083D01*
X177292774Y-94439813D01*
X177292778Y-94439817D01*
X177358650Y-94491087D01*
X177476983Y-94583190D01*
X177682273Y-94694287D01*
X177903049Y-94770080D01*
X178133288Y-94808500D01*
X178133292Y-94808500D01*
X178366708Y-94808500D01*
X178366712Y-94808500D01*
X178596951Y-94770080D01*
X178817727Y-94694287D01*
X179023017Y-94583190D01*
X179207220Y-94439818D01*
X179365314Y-94268083D01*
X179492984Y-94072669D01*
X179586749Y-93858907D01*
X179644051Y-93632626D01*
X179663327Y-93400000D01*
X179644051Y-93167374D01*
X179586749Y-92941093D01*
X179492984Y-92727331D01*
X179365314Y-92531916D01*
X179207225Y-92360186D01*
X179207221Y-92360182D01*
X179105901Y-92281322D01*
X179023017Y-92216810D01*
X178817727Y-92105713D01*
X178817724Y-92105712D01*
X178817723Y-92105711D01*
X178596955Y-92029921D01*
X178596948Y-92029919D01*
X178498411Y-92013476D01*
X178366712Y-91991500D01*
X178133288Y-91991500D01*
X178018066Y-92010727D01*
X177903051Y-92029919D01*
X177903044Y-92029921D01*
X177682276Y-92105711D01*
X177682273Y-92105713D01*
X177476985Y-92216809D01*
X177476983Y-92216810D01*
X177292778Y-92360182D01*
X177292774Y-92360186D01*
X177134685Y-92531916D01*
X177007015Y-92727331D01*
X176913252Y-92941089D01*
X176913249Y-92941096D01*
X176855950Y-93167366D01*
X176855949Y-93167372D01*
X176855949Y-93167374D01*
X176836673Y-93400000D01*
X164163327Y-93400000D01*
X164144051Y-93167374D01*
X164086749Y-92941093D01*
X163992984Y-92727331D01*
X163992983Y-92727330D01*
X163865314Y-92531916D01*
X163707225Y-92360186D01*
X163707221Y-92360182D01*
X163605901Y-92281322D01*
X163523017Y-92216810D01*
X163317727Y-92105713D01*
X163317724Y-92105712D01*
X163317723Y-92105711D01*
X163096955Y-92029921D01*
X163096948Y-92029919D01*
X162998411Y-92013476D01*
X162866712Y-91991500D01*
X162633288Y-91991500D01*
X162518066Y-92010727D01*
X162403051Y-92029919D01*
X162403044Y-92029921D01*
X162182276Y-92105711D01*
X162182273Y-92105713D01*
X161976985Y-92216809D01*
X161976983Y-92216810D01*
X161792778Y-92360182D01*
X161792774Y-92360186D01*
X161634685Y-92531916D01*
X161507015Y-92727331D01*
X161413252Y-92941089D01*
X161413249Y-92941096D01*
X161355950Y-93167366D01*
X161355949Y-93167372D01*
X161355949Y-93167374D01*
X161336673Y-93400000D01*
X150109958Y-93400000D01*
X150117841Y-89600000D01*
X155186673Y-89600000D01*
X155205950Y-89832633D01*
X155263249Y-90058903D01*
X155263252Y-90058910D01*
X155357015Y-90272668D01*
X155484685Y-90468083D01*
X155642774Y-90639813D01*
X155642778Y-90639817D01*
X155708650Y-90691087D01*
X155826983Y-90783190D01*
X156032273Y-90894287D01*
X156253049Y-90970080D01*
X156483288Y-91008500D01*
X156483292Y-91008500D01*
X156716708Y-91008500D01*
X156716712Y-91008500D01*
X156946951Y-90970080D01*
X157167727Y-90894287D01*
X157373017Y-90783190D01*
X157557220Y-90639818D01*
X157715314Y-90468083D01*
X157842984Y-90272669D01*
X157936749Y-90058907D01*
X157994051Y-89832626D01*
X158013327Y-89600000D01*
X157994051Y-89367374D01*
X157936749Y-89141093D01*
X157842984Y-88927331D01*
X157836942Y-88918083D01*
X157715314Y-88731916D01*
X157557225Y-88560186D01*
X157557221Y-88560182D01*
X157465118Y-88488496D01*
X157373017Y-88416810D01*
X157167727Y-88305713D01*
X157167724Y-88305712D01*
X157167723Y-88305711D01*
X156946955Y-88229921D01*
X156946948Y-88229919D01*
X156848411Y-88213476D01*
X156716712Y-88191500D01*
X156483288Y-88191500D01*
X156368066Y-88210727D01*
X156253051Y-88229919D01*
X156253044Y-88229921D01*
X156032276Y-88305711D01*
X156032273Y-88305713D01*
X155826985Y-88416809D01*
X155826983Y-88416810D01*
X155642778Y-88560182D01*
X155642774Y-88560186D01*
X155484685Y-88731916D01*
X155357015Y-88927331D01*
X155263252Y-89141089D01*
X155263249Y-89141096D01*
X155205950Y-89367366D01*
X155186673Y-89600000D01*
X150117841Y-89600000D01*
X150126581Y-85387278D01*
X150164527Y-85321556D01*
X150223542Y-85139928D01*
X150243504Y-84950000D01*
X150223542Y-84760072D01*
X150164527Y-84578444D01*
X150128390Y-84515853D01*
X150138174Y-79800000D01*
X151786496Y-79800000D01*
X151806457Y-79989927D01*
X151836526Y-80082470D01*
X151865473Y-80171556D01*
X151865476Y-80171561D01*
X151960958Y-80336941D01*
X151960965Y-80336951D01*
X152088744Y-80478864D01*
X152088747Y-80478866D01*
X152243248Y-80591118D01*
X152417712Y-80668794D01*
X152604513Y-80708500D01*
X152795487Y-80708500D01*
X152982288Y-80668794D01*
X153156752Y-80591118D01*
X153311253Y-80478866D01*
X153439040Y-80336944D01*
X153534527Y-80171556D01*
X153593542Y-79989928D01*
X153613504Y-79800000D01*
X153613504Y-79799999D01*
X166786496Y-79799999D01*
X166806457Y-79989927D01*
X166836526Y-80082470D01*
X166865473Y-80171556D01*
X166865476Y-80171561D01*
X166960958Y-80336941D01*
X166960965Y-80336951D01*
X167088744Y-80478864D01*
X167088747Y-80478866D01*
X167243248Y-80591118D01*
X167417712Y-80668794D01*
X167604513Y-80708500D01*
X167795487Y-80708500D01*
X167982288Y-80668794D01*
X168156752Y-80591118D01*
X168311253Y-80478866D01*
X168439040Y-80336944D01*
X168534527Y-80171556D01*
X168593542Y-79989928D01*
X168613504Y-79800000D01*
X168593542Y-79610072D01*
X168534527Y-79428444D01*
X168439040Y-79263056D01*
X168439038Y-79263054D01*
X168439034Y-79263048D01*
X168311255Y-79121135D01*
X168156752Y-79008882D01*
X167982288Y-78931206D01*
X167795487Y-78891500D01*
X167604513Y-78891500D01*
X167417711Y-78931206D01*
X167243247Y-79008882D01*
X167088744Y-79121135D01*
X166960965Y-79263048D01*
X166960958Y-79263058D01*
X166865476Y-79428438D01*
X166865473Y-79428445D01*
X166806457Y-79610072D01*
X166786496Y-79799999D01*
X153613504Y-79799999D01*
X153593542Y-79610072D01*
X153534527Y-79428444D01*
X153439040Y-79263056D01*
X153439038Y-79263054D01*
X153439034Y-79263048D01*
X153311255Y-79121135D01*
X153156752Y-79008882D01*
X152982288Y-78931206D01*
X152795487Y-78891500D01*
X152604513Y-78891500D01*
X152417711Y-78931206D01*
X152243247Y-79008882D01*
X152088744Y-79121135D01*
X151960965Y-79263048D01*
X151960958Y-79263058D01*
X151865476Y-79428438D01*
X151865473Y-79428445D01*
X151806457Y-79610072D01*
X151786496Y-79800000D01*
X150138174Y-79800000D01*
X150145954Y-76050000D01*
X180536673Y-76050000D01*
X180555950Y-76282633D01*
X180613249Y-76508903D01*
X180613252Y-76508910D01*
X180707015Y-76722668D01*
X180834685Y-76918083D01*
X180992774Y-77089813D01*
X180992778Y-77089817D01*
X181058650Y-77141087D01*
X181176983Y-77233190D01*
X181382273Y-77344287D01*
X181603049Y-77420080D01*
X181833288Y-77458500D01*
X181833292Y-77458500D01*
X182066708Y-77458500D01*
X182066712Y-77458500D01*
X182296951Y-77420080D01*
X182517727Y-77344287D01*
X182723017Y-77233190D01*
X182907220Y-77089818D01*
X183065314Y-76918083D01*
X183192984Y-76722669D01*
X183286749Y-76508907D01*
X183344051Y-76282626D01*
X183363327Y-76050000D01*
X183344051Y-75817374D01*
X183286749Y-75591093D01*
X183192984Y-75377331D01*
X183192983Y-75377331D01*
X183065314Y-75181916D01*
X182907225Y-75010186D01*
X182907221Y-75010182D01*
X182815118Y-74938496D01*
X182723017Y-74866810D01*
X182517727Y-74755713D01*
X182517724Y-74755712D01*
X182517723Y-74755711D01*
X182296955Y-74679921D01*
X182296948Y-74679919D01*
X182198411Y-74663476D01*
X182066712Y-74641500D01*
X181833288Y-74641500D01*
X181718066Y-74660727D01*
X181603051Y-74679919D01*
X181603044Y-74679921D01*
X181382276Y-74755711D01*
X181382273Y-74755713D01*
X181176985Y-74866809D01*
X181176983Y-74866810D01*
X180992778Y-75010182D01*
X180992774Y-75010186D01*
X180834685Y-75181916D01*
X180707015Y-75377331D01*
X180613252Y-75591089D01*
X180613249Y-75591096D01*
X180555950Y-75817366D01*
X180536673Y-76050000D01*
X150145954Y-76050000D01*
X150152281Y-73000500D01*
X184474842Y-73000500D01*
X184474985Y-73000528D01*
X184474986Y-73000524D01*
X184499997Y-73000539D01*
X184500000Y-73000541D01*
X184500383Y-73000383D01*
X184500500Y-73000099D01*
X184500541Y-73000000D01*
X184500540Y-72999998D01*
X184500541Y-72999998D01*
X184500584Y-72975500D01*
X184500500Y-72975072D01*
X184500500Y-50126500D01*
X184520502Y-50058379D01*
X184574158Y-50011886D01*
X184626500Y-50000500D01*
X199873500Y-50000500D01*
X199941621Y-50020502D01*
G37*
%TD.AperFunction*%
%TD*%
%TA.AperFunction,Conductor*%
%TO.N,GND*%
G36*
X199941621Y-136920002D02*
G01*
X199988114Y-136973658D01*
X199999500Y-137026000D01*
X199999500Y-149873500D01*
X199979498Y-149941621D01*
X199925842Y-149988114D01*
X199873500Y-149999500D01*
X150000000Y-149999500D01*
X150000000Y-148695935D01*
X150459826Y-148695935D01*
X150475352Y-148797277D01*
X150490640Y-148897071D01*
X150518908Y-148973397D01*
X150561307Y-149087881D01*
X150561311Y-149087889D01*
X150668940Y-149260566D01*
X150668950Y-149260579D01*
X150809132Y-149408048D01*
X150809137Y-149408053D01*
X150809140Y-149408055D01*
X150976148Y-149524296D01*
X150976149Y-149524297D01*
X151163134Y-149604539D01*
X151163137Y-149604539D01*
X151163138Y-149604540D01*
X151362455Y-149645500D01*
X151362456Y-149645500D01*
X151514937Y-149645500D01*
X151514938Y-149645500D01*
X151514939Y-149645499D01*
X151514956Y-149645499D01*
X151609029Y-149635931D01*
X151666634Y-149630074D01*
X151860784Y-149569159D01*
X152038698Y-149470409D01*
X152038699Y-149470408D01*
X152038701Y-149470407D01*
X152193086Y-149337870D01*
X152193091Y-149337866D01*
X152317644Y-149176958D01*
X152407256Y-148994271D01*
X152458259Y-148797285D01*
X152468565Y-148594064D01*
X152437752Y-148392929D01*
X152367082Y-148202113D01*
X152301276Y-148096537D01*
X152282218Y-148028147D01*
X152303160Y-147960310D01*
X152315396Y-147950000D01*
X166616496Y-147950000D01*
X166617580Y-147960310D01*
X166636457Y-148139927D01*
X166656662Y-148202110D01*
X166695473Y-148321556D01*
X166695476Y-148321561D01*
X166790958Y-148486941D01*
X166790965Y-148486951D01*
X166918744Y-148628864D01*
X166918747Y-148628866D01*
X167073248Y-148741118D01*
X167247712Y-148818794D01*
X167434513Y-148858500D01*
X167625487Y-148858500D01*
X167812288Y-148818794D01*
X167986752Y-148741118D01*
X168141253Y-148628866D01*
X168195343Y-148568793D01*
X168269034Y-148486951D01*
X168269035Y-148486949D01*
X168269040Y-148486944D01*
X168364527Y-148321556D01*
X168423542Y-148139928D01*
X168443504Y-147950000D01*
X168423542Y-147760072D01*
X168404023Y-147700000D01*
X182266496Y-147700000D01*
X182286457Y-147889927D01*
X182306668Y-147952129D01*
X182345473Y-148071556D01*
X182345476Y-148071561D01*
X182440958Y-148236941D01*
X182440965Y-148236951D01*
X182568744Y-148378864D01*
X182568747Y-148378866D01*
X182723248Y-148491118D01*
X182897712Y-148568794D01*
X183084513Y-148608500D01*
X183275487Y-148608500D01*
X183462288Y-148568794D01*
X183636752Y-148491118D01*
X183791253Y-148378866D01*
X183919040Y-148236944D01*
X184014527Y-148071556D01*
X184073542Y-147889928D01*
X184093504Y-147700000D01*
X184073542Y-147510072D01*
X184014527Y-147328444D01*
X183919040Y-147163056D01*
X183919038Y-147163054D01*
X183919034Y-147163048D01*
X183791255Y-147021135D01*
X183636752Y-146908882D01*
X183462288Y-146831206D01*
X183275487Y-146791500D01*
X183084513Y-146791500D01*
X182897711Y-146831206D01*
X182723247Y-146908882D01*
X182568744Y-147021135D01*
X182440965Y-147163048D01*
X182440958Y-147163058D01*
X182345476Y-147328438D01*
X182345473Y-147328445D01*
X182286457Y-147510072D01*
X182266496Y-147700000D01*
X168404023Y-147700000D01*
X168364527Y-147578444D01*
X168269040Y-147413056D01*
X168269038Y-147413054D01*
X168269034Y-147413048D01*
X168141255Y-147271135D01*
X167986752Y-147158882D01*
X167812288Y-147081206D01*
X167625487Y-147041500D01*
X167434513Y-147041500D01*
X167247711Y-147081206D01*
X167073247Y-147158882D01*
X166918744Y-147271135D01*
X166790965Y-147413048D01*
X166790958Y-147413058D01*
X166695476Y-147578438D01*
X166695473Y-147578444D01*
X166684328Y-147612745D01*
X166636457Y-147760072D01*
X166616496Y-147949999D01*
X166616496Y-147950000D01*
X152315396Y-147950000D01*
X152357453Y-147914563D01*
X152419187Y-147904369D01*
X152464196Y-147908307D01*
X152683567Y-147889115D01*
X152896272Y-147832120D01*
X153095850Y-147739056D01*
X153276234Y-147612749D01*
X153431945Y-147457038D01*
X153558252Y-147276654D01*
X153651316Y-147077076D01*
X153708311Y-146864371D01*
X153727503Y-146645000D01*
X153723566Y-146599999D01*
X169186496Y-146599999D01*
X169206457Y-146789927D01*
X169219870Y-146831206D01*
X169265473Y-146971556D01*
X169265476Y-146971561D01*
X169360958Y-147136941D01*
X169360965Y-147136951D01*
X169488744Y-147278864D01*
X169488747Y-147278866D01*
X169643248Y-147391118D01*
X169817712Y-147468794D01*
X170004513Y-147508500D01*
X170195487Y-147508500D01*
X170382288Y-147468794D01*
X170556752Y-147391118D01*
X170711253Y-147278866D01*
X170713245Y-147276654D01*
X170839034Y-147136951D01*
X170839035Y-147136949D01*
X170839040Y-147136944D01*
X170934527Y-146971556D01*
X170993542Y-146789928D01*
X171013504Y-146600000D01*
X170993542Y-146410072D01*
X170934527Y-146228444D01*
X170839040Y-146063056D01*
X170839038Y-146063054D01*
X170839034Y-146063048D01*
X170711255Y-145921135D01*
X170613346Y-145850000D01*
X181261494Y-145850000D01*
X181281455Y-146039927D01*
X181288971Y-146063058D01*
X181340471Y-146221556D01*
X181352563Y-146242500D01*
X181435956Y-146386941D01*
X181435963Y-146386951D01*
X181563742Y-146528864D01*
X181563745Y-146528866D01*
X181718246Y-146641118D01*
X181892710Y-146718794D01*
X182079511Y-146758500D01*
X182270485Y-146758500D01*
X182457286Y-146718794D01*
X182631750Y-146641118D01*
X182786251Y-146528866D01*
X182879206Y-146425629D01*
X182914032Y-146386951D01*
X182914033Y-146386949D01*
X182914038Y-146386944D01*
X182997434Y-146242499D01*
X185188996Y-146242499D01*
X185208957Y-146432427D01*
X185239026Y-146524970D01*
X185267973Y-146614056D01*
X185267976Y-146614061D01*
X185363458Y-146779441D01*
X185363465Y-146779451D01*
X185491244Y-146921364D01*
X185491247Y-146921366D01*
X185645748Y-147033618D01*
X185820212Y-147111294D01*
X186007013Y-147151000D01*
X186197987Y-147151000D01*
X186384788Y-147111294D01*
X186559252Y-147033618D01*
X186713753Y-146921366D01*
X186724994Y-146908882D01*
X186841534Y-146779451D01*
X186841535Y-146779449D01*
X186841540Y-146779444D01*
X186937027Y-146614056D01*
X186996042Y-146432428D01*
X187016004Y-146242500D01*
X186996042Y-146052572D01*
X186937027Y-145870944D01*
X186841540Y-145705556D01*
X186841538Y-145705554D01*
X186841534Y-145705548D01*
X186713755Y-145563635D01*
X186559252Y-145451382D01*
X186384788Y-145373706D01*
X186197987Y-145334000D01*
X186007013Y-145334000D01*
X185820211Y-145373706D01*
X185645747Y-145451382D01*
X185491244Y-145563635D01*
X185363465Y-145705548D01*
X185363458Y-145705558D01*
X185267976Y-145870938D01*
X185267973Y-145870945D01*
X185208957Y-146052572D01*
X185188996Y-146242499D01*
X182997434Y-146242499D01*
X183009525Y-146221556D01*
X183068540Y-146039928D01*
X183088502Y-145850000D01*
X183068540Y-145660072D01*
X183009525Y-145478444D01*
X182914038Y-145313056D01*
X182914036Y-145313054D01*
X182914032Y-145313048D01*
X182786253Y-145171135D01*
X182631750Y-145058882D01*
X182457286Y-144981206D01*
X182270485Y-144941500D01*
X182079511Y-144941500D01*
X181892709Y-144981206D01*
X181718245Y-145058882D01*
X181563742Y-145171135D01*
X181435963Y-145313048D01*
X181435956Y-145313058D01*
X181340474Y-145478438D01*
X181340471Y-145478445D01*
X181281455Y-145660072D01*
X181261494Y-145850000D01*
X170613346Y-145850000D01*
X170556752Y-145808882D01*
X170382288Y-145731206D01*
X170195487Y-145691500D01*
X170004513Y-145691500D01*
X169817711Y-145731206D01*
X169643247Y-145808882D01*
X169488744Y-145921135D01*
X169360965Y-146063048D01*
X169360958Y-146063058D01*
X169265476Y-146228438D01*
X169265473Y-146228445D01*
X169206457Y-146410072D01*
X169186496Y-146599999D01*
X153723566Y-146599999D01*
X153708311Y-146425629D01*
X153651316Y-146212924D01*
X153558252Y-146013347D01*
X153431945Y-145832962D01*
X153276234Y-145677251D01*
X153095850Y-145550944D01*
X153095846Y-145550942D01*
X152896275Y-145457881D01*
X152896269Y-145457879D01*
X152806374Y-145433791D01*
X152683567Y-145400885D01*
X152464196Y-145381693D01*
X152464195Y-145381693D01*
X152244825Y-145400885D01*
X152032122Y-145457879D01*
X152032116Y-145457881D01*
X151832542Y-145550944D01*
X151652161Y-145677248D01*
X151652155Y-145677253D01*
X151496449Y-145832959D01*
X151496444Y-145832965D01*
X151370140Y-146013346D01*
X151277077Y-146212920D01*
X151277075Y-146212926D01*
X151230447Y-146386944D01*
X151220081Y-146425629D01*
X151200889Y-146645000D01*
X151220081Y-146864371D01*
X151235353Y-146921366D01*
X151277075Y-147077073D01*
X151277077Y-147077079D01*
X151370139Y-147276652D01*
X151370140Y-147276654D01*
X151490300Y-147448261D01*
X151512988Y-147515535D01*
X151495703Y-147584395D01*
X151443933Y-147632979D01*
X151399835Y-147645884D01*
X151261762Y-147659925D01*
X151261759Y-147659925D01*
X151261758Y-147659926D01*
X151209161Y-147676428D01*
X151067609Y-147720840D01*
X150889690Y-147819592D01*
X150735305Y-147952129D01*
X150735298Y-147952136D01*
X150610751Y-148113036D01*
X150610746Y-148113044D01*
X150521137Y-148295723D01*
X150495969Y-148392929D01*
X150470547Y-148491118D01*
X150470132Y-148492719D01*
X150470132Y-148492722D01*
X150459826Y-148695935D01*
X150000000Y-148695935D01*
X150000000Y-142187041D01*
X150011253Y-142178866D01*
X150139040Y-142036944D01*
X150234527Y-141871556D01*
X150293542Y-141689928D01*
X150313504Y-141500000D01*
X150293542Y-141310072D01*
X150234527Y-141128444D01*
X150139040Y-140963056D01*
X150139038Y-140963054D01*
X150139034Y-140963048D01*
X150011255Y-140821135D01*
X149999999Y-140812957D01*
X149999999Y-140256719D01*
X171833430Y-140256719D01*
X171839939Y-140317266D01*
X171839941Y-140317274D01*
X171891040Y-140454272D01*
X171891042Y-140454277D01*
X171978668Y-140571331D01*
X172095722Y-140658957D01*
X172095724Y-140658958D01*
X172095726Y-140658959D01*
X172154805Y-140680994D01*
X172232725Y-140710058D01*
X172232733Y-140710060D01*
X172293280Y-140716569D01*
X172293285Y-140716569D01*
X172293292Y-140716570D01*
X172293298Y-140716570D01*
X173891702Y-140716570D01*
X173891708Y-140716570D01*
X173891715Y-140716569D01*
X173891719Y-140716569D01*
X173952266Y-140710060D01*
X173952269Y-140710059D01*
X173952271Y-140710059D01*
X174089274Y-140658959D01*
X174179389Y-140591500D01*
X174206331Y-140571331D01*
X174293957Y-140454277D01*
X174293957Y-140454276D01*
X174293959Y-140454274D01*
X174345059Y-140317271D01*
X174351570Y-140256708D01*
X174351570Y-139457500D01*
X184528621Y-139457500D01*
X184547822Y-139676973D01*
X184604841Y-139889769D01*
X184604843Y-139889774D01*
X184697948Y-140089438D01*
X184697949Y-140089440D01*
X184824306Y-140269897D01*
X184824310Y-140269902D01*
X184824313Y-140269906D01*
X184980094Y-140425687D01*
X184980098Y-140425690D01*
X184980102Y-140425693D01*
X185083065Y-140497788D01*
X185160560Y-140552051D01*
X185360228Y-140645158D01*
X185573030Y-140702178D01*
X185792500Y-140721379D01*
X186011970Y-140702178D01*
X186224772Y-140645158D01*
X186424440Y-140552051D01*
X186604906Y-140425687D01*
X186760687Y-140269906D01*
X186887051Y-140089440D01*
X186980158Y-139889772D01*
X187037178Y-139676970D01*
X187056379Y-139457500D01*
X187037178Y-139238030D01*
X186980158Y-139025228D01*
X186887051Y-138825561D01*
X186760687Y-138645094D01*
X186604906Y-138489313D01*
X186604902Y-138489310D01*
X186604897Y-138489306D01*
X186424440Y-138362949D01*
X186424438Y-138362948D01*
X186224774Y-138269843D01*
X186224769Y-138269841D01*
X186011973Y-138212822D01*
X185792500Y-138193621D01*
X185573026Y-138212822D01*
X185360230Y-138269841D01*
X185360225Y-138269843D01*
X185160560Y-138362949D01*
X184980097Y-138489310D01*
X184980091Y-138489315D01*
X184824315Y-138645091D01*
X184824310Y-138645097D01*
X184697949Y-138825560D01*
X184604843Y-139025225D01*
X184604841Y-139025230D01*
X184547822Y-139238026D01*
X184528621Y-139457500D01*
X174351570Y-139457500D01*
X174351570Y-138658292D01*
X174351569Y-138658280D01*
X174345060Y-138597733D01*
X174345058Y-138597725D01*
X174304622Y-138489315D01*
X174293959Y-138460726D01*
X174293958Y-138460724D01*
X174293957Y-138460722D01*
X174206331Y-138343668D01*
X174089277Y-138256042D01*
X174089272Y-138256040D01*
X173952274Y-138204941D01*
X173952266Y-138204939D01*
X173891719Y-138198430D01*
X173891708Y-138198430D01*
X172293292Y-138198430D01*
X172293280Y-138198430D01*
X172232733Y-138204939D01*
X172232725Y-138204941D01*
X172095727Y-138256040D01*
X172095722Y-138256042D01*
X171978668Y-138343668D01*
X171891042Y-138460722D01*
X171891040Y-138460727D01*
X171839941Y-138597725D01*
X171839939Y-138597733D01*
X171833430Y-138658280D01*
X171833430Y-140256719D01*
X149999999Y-140256719D01*
X150000000Y-136900000D01*
X150026174Y-136900000D01*
X199873500Y-136900000D01*
X199941621Y-136920002D01*
G37*
%TD.AperFunction*%
%TD*%
%TA.AperFunction,Conductor*%
%TO.N,/PA_Power/VBAT*%
G36*
X190741252Y-79250483D02*
G01*
X190788182Y-79303757D01*
X190800000Y-79357034D01*
X190800000Y-85903425D01*
X190779998Y-85971546D01*
X190726342Y-86018039D01*
X190673427Y-86029424D01*
X162325427Y-85900570D01*
X162257398Y-85880258D01*
X162211150Y-85826392D01*
X162200000Y-85774571D01*
X162200000Y-82326000D01*
X162220002Y-82257879D01*
X162273658Y-82211386D01*
X162326000Y-82200000D01*
X170000000Y-82200000D01*
X170000000Y-79524974D01*
X170020002Y-79456853D01*
X170073658Y-79410360D01*
X170124967Y-79398978D01*
X190672970Y-79231038D01*
X190741252Y-79250483D01*
G37*
%TD.AperFunction*%
%TD*%
M02*
