%TF.GenerationSoftware,KiCad,Pcbnew,7.0.7*%
%TF.CreationDate,2023-10-29T13:34:45+00:00*%
%TF.ProjectId,Pi_TX_35W_PA_V2,50695f54-585f-4333-9557-5f50415f5632,rev?*%
%TF.SameCoordinates,Original*%
%TF.FileFunction,Copper,L2,Inr*%
%TF.FilePolarity,Positive*%
%FSLAX46Y46*%
G04 Gerber Fmt 4.6, Leading zero omitted, Abs format (unit mm)*
G04 Created by KiCad (PCBNEW 7.0.7) date 2023-10-29 13:34:45*
%MOMM*%
%LPD*%
G01*
G04 APERTURE LIST*
G04 Aperture macros list*
%AMRoundRect*
0 Rectangle with rounded corners*
0 $1 Rounding radius*
0 $2 $3 $4 $5 $6 $7 $8 $9 X,Y pos of 4 corners*
0 Add a 4 corners polygon primitive as box body*
4,1,4,$2,$3,$4,$5,$6,$7,$8,$9,$2,$3,0*
0 Add four circle primitives for the rounded corners*
1,1,$1+$1,$2,$3*
1,1,$1+$1,$4,$5*
1,1,$1+$1,$6,$7*
1,1,$1+$1,$8,$9*
0 Add four rect primitives between the rounded corners*
20,1,$1+$1,$2,$3,$4,$5,0*
20,1,$1+$1,$4,$5,$6,$7,0*
20,1,$1+$1,$6,$7,$8,$9,0*
20,1,$1+$1,$8,$9,$2,$3,0*%
G04 Aperture macros list end*
%TA.AperFunction,ComponentPad*%
%ADD10O,1.900000X1.200000*%
%TD*%
%TA.AperFunction,ComponentPad*%
%ADD11C,1.450000*%
%TD*%
%TA.AperFunction,ComponentPad*%
%ADD12R,1.501140X1.501140*%
%TD*%
%TA.AperFunction,ComponentPad*%
%ADD13C,1.501140*%
%TD*%
%TA.AperFunction,ComponentPad*%
%ADD14C,1.500000*%
%TD*%
%TA.AperFunction,ComponentPad*%
%ADD15C,7.500000*%
%TD*%
%TA.AperFunction,ComponentPad*%
%ADD16C,1.800000*%
%TD*%
%TA.AperFunction,ComponentPad*%
%ADD17RoundRect,0.250000X1.550000X-0.750000X1.550000X0.750000X-1.550000X0.750000X-1.550000X-0.750000X0*%
%TD*%
%TA.AperFunction,ComponentPad*%
%ADD18O,3.600000X2.000000*%
%TD*%
%TA.AperFunction,ComponentPad*%
%ADD19RoundRect,0.250000X-0.620000X-0.845000X0.620000X-0.845000X0.620000X0.845000X-0.620000X0.845000X0*%
%TD*%
%TA.AperFunction,ComponentPad*%
%ADD20O,1.740000X2.190000*%
%TD*%
%TA.AperFunction,ComponentPad*%
%ADD21C,6.000000*%
%TD*%
%TA.AperFunction,ViaPad*%
%ADD22C,0.800000*%
%TD*%
%TA.AperFunction,Conductor*%
%ADD23C,0.200000*%
%TD*%
G04 APERTURE END LIST*
D10*
%TO.N,Net-(J1-Shield)*%
%TO.C,J1*%
X101462500Y-127500000D03*
D11*
X104162500Y-128500000D03*
X104162500Y-133500000D03*
D10*
X101462500Y-134500000D03*
%TD*%
D12*
%TO.N,Net-(K1-Pad1)*%
%TO.C,K1*%
X173092500Y-139457500D03*
D13*
%TO.N,Net-(K1-Pad6)*%
X185792500Y-139457500D03*
%TO.N,Net-(J9-In)*%
X185792500Y-131837500D03*
%TO.N,Net-(J8-In)*%
X178172500Y-131837500D03*
%TO.N,Net-(U11-RF)*%
X173092500Y-131837500D03*
%TD*%
D14*
%TO.N,+3.3V*%
%TO.C,J2*%
X137000000Y-146500000D03*
%TO.N,Net-(J2-Pin_2)*%
X139000000Y-146500000D03*
%TO.N,Net-(J2-Pin_3)*%
X141000000Y-146500000D03*
%TO.N,GND*%
X143000000Y-146500000D03*
%TO.N,Net-(J2-Pin_5)*%
X145000000Y-146500000D03*
%TD*%
D15*
%TO.N,GND*%
%TO.C,H3*%
X107000000Y-57000000D03*
%TD*%
%TO.N,GND*%
%TO.C,H2*%
X193000000Y-57000000D03*
%TD*%
D16*
%TO.N,Net-(C41-Pad2)*%
%TO.C,L7*%
X156600000Y-89600000D03*
%TO.N,Net-(U11-RF)*%
X156600000Y-101600000D03*
%TD*%
D17*
%TO.N,Net-(J5-Pin_1)*%
%TO.C,J5*%
X189522500Y-94300000D03*
D18*
%TO.N,GND*%
X189522500Y-89300000D03*
%TD*%
D16*
%TO.N,Net-(C38-Pad2)*%
%TO.C,L6*%
X178250000Y-93400000D03*
%TO.N,Net-(C41-Pad2)*%
X162750000Y-93400000D03*
%TD*%
D19*
%TO.N,GND*%
%TO.C,J10*%
X108970000Y-89390000D03*
D20*
%TO.N,+5V*%
X111510000Y-89390000D03*
%TO.N,/PA_Protection/Fan_RPM*%
X114050000Y-89390000D03*
%TO.N,Net-(J10-Pin_4)*%
X116590000Y-89390000D03*
%TD*%
D15*
%TO.N,GND*%
%TO.C,H1*%
X107000000Y-143000000D03*
%TD*%
%TO.N,GND*%
%TO.C,H4*%
X193000000Y-143000000D03*
%TD*%
D21*
%TO.N,GND*%
%TO.C,U10*%
X111000000Y-66000000D03*
X189000000Y-66000000D03*
%TD*%
D16*
%TO.N,Net-(U10-RF_Out)*%
%TO.C,L5*%
X181100000Y-76100000D03*
%TO.N,Net-(C38-Pad2)*%
X181100000Y-88100000D03*
%TD*%
D22*
%TO.N,+12V*%
X147560757Y-96860757D03*
X135500000Y-117400000D03*
X162800000Y-84000000D03*
X162800000Y-82700000D03*
X133500000Y-103449500D03*
X186000000Y-82900000D03*
X167600000Y-82700000D03*
X163300000Y-146000000D03*
X166400000Y-84000000D03*
X167600000Y-84000000D03*
X186100000Y-79800000D03*
X149400000Y-141500000D03*
X187900000Y-82900000D03*
X165200000Y-84000000D03*
X164000000Y-84000000D03*
X187900000Y-79700000D03*
X187045000Y-81355000D03*
X126600000Y-89700000D03*
X181600000Y-145800000D03*
%TO.N,GND*%
X183575000Y-98225000D03*
X155800000Y-85500000D03*
X189522500Y-70177500D03*
X105500000Y-132200000D03*
X116800000Y-74200000D03*
X156600000Y-99300000D03*
X119700000Y-80600000D03*
X177200000Y-102700000D03*
X191400000Y-115200000D03*
X158800000Y-100100000D03*
X186500000Y-127500000D03*
X156000000Y-82500000D03*
X151700000Y-145400000D03*
X122900000Y-74200000D03*
X175800000Y-131800000D03*
X111335000Y-73835000D03*
X169700000Y-143600000D03*
X104100000Y-71200000D03*
X153100000Y-116200000D03*
X171100000Y-124700000D03*
X192500000Y-129500000D03*
X132300000Y-134900000D03*
X166300000Y-121425000D03*
X112600000Y-76000000D03*
X126100000Y-74300000D03*
X120800000Y-81300000D03*
X170600000Y-130300000D03*
X189500000Y-134400000D03*
X179000000Y-97700000D03*
X182500000Y-78200000D03*
X114600000Y-100200000D03*
X171900000Y-133800000D03*
X102100000Y-62900000D03*
X174600000Y-133800000D03*
X125800000Y-80800000D03*
X191900000Y-62900000D03*
X114000000Y-95400000D03*
X182200000Y-119900000D03*
X172100000Y-120700000D03*
X161200000Y-89000000D03*
X159500000Y-121700000D03*
X167500000Y-145100000D03*
X173600000Y-110700000D03*
X136400000Y-81400000D03*
X164700000Y-130500000D03*
X125700000Y-78500000D03*
X176400000Y-75600000D03*
X186100000Y-62700000D03*
X187200000Y-52500000D03*
X125900000Y-83400000D03*
X197800000Y-52400000D03*
X174600000Y-89100000D03*
X152400000Y-100900000D03*
X189522500Y-87477500D03*
X163400000Y-122700000D03*
X169400000Y-124300000D03*
X184600000Y-117800000D03*
X186400000Y-129500000D03*
X113700000Y-84400000D03*
X119700000Y-77900000D03*
X119700000Y-79300000D03*
X197900000Y-136700000D03*
X146800000Y-79900000D03*
X125000000Y-120600000D03*
X194200000Y-124800000D03*
X109924500Y-82200000D03*
X153100000Y-126800000D03*
X194600000Y-136000000D03*
X111000000Y-104200000D03*
X195600000Y-103500000D03*
X109924500Y-85700000D03*
X113925000Y-77675000D03*
X109800000Y-129600000D03*
X168200000Y-75675000D03*
X161900000Y-109200000D03*
X177200000Y-121400000D03*
X103800000Y-80500000D03*
X147600000Y-135600000D03*
X116500000Y-77900000D03*
X192700000Y-109500000D03*
X113025000Y-122375000D03*
X171200000Y-110700000D03*
X166900000Y-88800000D03*
X149300000Y-92700000D03*
X191400000Y-91000000D03*
X164300000Y-112600000D03*
X186700000Y-73900000D03*
X192200000Y-119800000D03*
X140600000Y-135700000D03*
X194600000Y-117300000D03*
X181100000Y-124700000D03*
X172700000Y-112700000D03*
X199100000Y-115400000D03*
X123300000Y-85100000D03*
X143272536Y-121927464D03*
X136400000Y-74800000D03*
X164200000Y-110600000D03*
X166900000Y-86900000D03*
X174400000Y-125600000D03*
X167712500Y-133775000D03*
X197500000Y-112500000D03*
X186500000Y-115800000D03*
X148500000Y-105200000D03*
X156200000Y-92800000D03*
X190300000Y-116600000D03*
X170600000Y-132000000D03*
X185200000Y-65900000D03*
X179000000Y-111100000D03*
X167000000Y-97000000D03*
X141125000Y-81800000D03*
X108375500Y-86200000D03*
X136400000Y-76100000D03*
X114100000Y-149000000D03*
X144300000Y-110900000D03*
X133500000Y-86100000D03*
X105600000Y-82000000D03*
X194100000Y-108200000D03*
X117200000Y-86200000D03*
X178400000Y-134500000D03*
X197700000Y-115400000D03*
X191200000Y-111000000D03*
X195700000Y-124500000D03*
X113400000Y-52100000D03*
X168900000Y-110700000D03*
X130700000Y-74100000D03*
X113800000Y-58000000D03*
X140000000Y-83300000D03*
X159200000Y-101900000D03*
X174600000Y-102800000D03*
X154500000Y-85500000D03*
X193300000Y-126000000D03*
X158200000Y-112900000D03*
X111000000Y-61600000D03*
X180300000Y-102800000D03*
X120800000Y-83000000D03*
X149600000Y-83200000D03*
X144600000Y-106600000D03*
X146200000Y-106600000D03*
X164300000Y-91100000D03*
X153100000Y-85500000D03*
X197500000Y-127400000D03*
X141025000Y-78100000D03*
X175600000Y-92700000D03*
X187400000Y-112200000D03*
X178500000Y-87000000D03*
X109700000Y-133100000D03*
X129400000Y-100200000D03*
X142800000Y-127200000D03*
X151800000Y-118500000D03*
X117000000Y-83700000D03*
X105500000Y-86200000D03*
X192400000Y-68800000D03*
X184800000Y-93400000D03*
X113900000Y-72300000D03*
X151100000Y-87500000D03*
X152000000Y-82500000D03*
X194800000Y-105600000D03*
X170000000Y-102800000D03*
X182700000Y-103400000D03*
X187700000Y-91100000D03*
X174400000Y-122100000D03*
X184800000Y-96200000D03*
X116500000Y-79300000D03*
X144100000Y-82300000D03*
X193100000Y-65800000D03*
X181000000Y-133500000D03*
X161300000Y-112600000D03*
X192000000Y-134300000D03*
X152500000Y-75900000D03*
X197500000Y-124800000D03*
X151800000Y-102600000D03*
X113500000Y-62800000D03*
X105500000Y-83800000D03*
X194600000Y-115500000D03*
X169400000Y-89000000D03*
X159400000Y-130500000D03*
X187600000Y-87400000D03*
X189522500Y-75377500D03*
X168400000Y-102900000D03*
X156000000Y-74500000D03*
X198000000Y-65600000D03*
X172900000Y-125600000D03*
X161100000Y-122800000D03*
X180800000Y-121300000D03*
X147800000Y-82400000D03*
X156000000Y-106800000D03*
X186900000Y-89400000D03*
X196300000Y-136600000D03*
X125700000Y-76300000D03*
X175600000Y-87000000D03*
X130700000Y-86000000D03*
X167800000Y-121425000D03*
X164400000Y-102700000D03*
X116500000Y-80600000D03*
X113700000Y-82000000D03*
X153400000Y-97100000D03*
X174400000Y-127600000D03*
X159800000Y-97100000D03*
X155300000Y-114200000D03*
X123584541Y-95917471D03*
X186300000Y-69000000D03*
X141400000Y-86100000D03*
X169400000Y-122600000D03*
X153900000Y-107500000D03*
X142100000Y-82400000D03*
X144400000Y-112800000D03*
X186722500Y-76022500D03*
X118100000Y-77500000D03*
X160300000Y-103700000D03*
X131000000Y-80700000D03*
X183300000Y-123600000D03*
X186200000Y-107100000D03*
X144600000Y-86200000D03*
X154700000Y-128600000D03*
X194700000Y-129500000D03*
X163400000Y-120600000D03*
X177600000Y-112600000D03*
X175337500Y-101300000D03*
X131000000Y-83200000D03*
X119720000Y-147740000D03*
X170100000Y-120700000D03*
X106900000Y-86200000D03*
X111700000Y-84500000D03*
X128780000Y-148790000D03*
X105475000Y-87825000D03*
X183800000Y-133700000D03*
X142400000Y-114300000D03*
X188900000Y-126700000D03*
X128500000Y-74000000D03*
X198900000Y-103500000D03*
X122800000Y-80800000D03*
X177900000Y-124800000D03*
X129400000Y-117100000D03*
X187100000Y-109400000D03*
X188600000Y-118100000D03*
X194600000Y-112200000D03*
X161900000Y-130600000D03*
X153800000Y-82500000D03*
X141200000Y-74400000D03*
X113900000Y-69000000D03*
X189500000Y-91100000D03*
X186900000Y-119800000D03*
X173000000Y-97000000D03*
X184500000Y-87100000D03*
X106700000Y-66100000D03*
X151900000Y-105400000D03*
X101800000Y-52000000D03*
X178900000Y-95700000D03*
X174300000Y-123600000D03*
X162600000Y-86900000D03*
X194500000Y-134200000D03*
X115500000Y-84000000D03*
X199000000Y-112500000D03*
X119800000Y-74100000D03*
X184200000Y-129800000D03*
X149300000Y-96400000D03*
X110100000Y-73800000D03*
X157600000Y-108000000D03*
X164200000Y-109100000D03*
X172100000Y-102800000D03*
X184700000Y-105100000D03*
X136300000Y-83600000D03*
X188100000Y-114100000D03*
X172100000Y-86900000D03*
X145131544Y-93611395D03*
X103600000Y-89500000D03*
X121100000Y-139600000D03*
X178000000Y-128100000D03*
X196200000Y-115400000D03*
X186700000Y-78100000D03*
X189000000Y-122000000D03*
X189500000Y-129500000D03*
X196000000Y-127400000D03*
X174300000Y-120600000D03*
X134500000Y-99700000D03*
X162300000Y-104300000D03*
X164900000Y-122900000D03*
X146100000Y-82300000D03*
X164900000Y-121600000D03*
X167300000Y-112600000D03*
X145400000Y-74400000D03*
X128400000Y-86100000D03*
X108000000Y-63200000D03*
X151500000Y-121300000D03*
X176300000Y-110700000D03*
X113900000Y-74300000D03*
X139700000Y-76900000D03*
X108100000Y-68800000D03*
X164200000Y-104200000D03*
X190900000Y-121300000D03*
X112605000Y-73795000D03*
X149200000Y-89400000D03*
X197400000Y-103500000D03*
X169900000Y-112700000D03*
X185100000Y-121500000D03*
X100900000Y-89500000D03*
X154500000Y-100500000D03*
X169100000Y-121400000D03*
X192900000Y-113700000D03*
X136200000Y-122700000D03*
X131000000Y-78300000D03*
X182800000Y-131700000D03*
X158200000Y-85600000D03*
X115300000Y-82200000D03*
X136400000Y-78100000D03*
X144100000Y-77300000D03*
X101100000Y-80500000D03*
X111600000Y-81800000D03*
X117200000Y-84700000D03*
X186700000Y-122000000D03*
X191300000Y-87500000D03*
X175100000Y-112700000D03*
X196100000Y-112500000D03*
X133700000Y-74000000D03*
X181100000Y-74000000D03*
X114900000Y-65700000D03*
X199100000Y-136700000D03*
X159900000Y-109000000D03*
X193300000Y-118600000D03*
X149200000Y-74500000D03*
X161000000Y-120700000D03*
X199000000Y-124700000D03*
X189700000Y-112600000D03*
X158037500Y-132300000D03*
X183675000Y-91475000D03*
X176400000Y-133600000D03*
X194700000Y-128300000D03*
X147400000Y-106400000D03*
X126000000Y-85500000D03*
X146200000Y-77200000D03*
X161800000Y-95800000D03*
X178600000Y-121300000D03*
X151800000Y-124100000D03*
X109924500Y-84300000D03*
X142200000Y-77200000D03*
X169000000Y-131400000D03*
X160900000Y-85600000D03*
X131600000Y-117300000D03*
X136000000Y-86000000D03*
X156900000Y-130000000D03*
X191300000Y-126700000D03*
X131000000Y-76200000D03*
X189300000Y-61900000D03*
X136809314Y-135209314D03*
X153200000Y-89000000D03*
X194800000Y-104400000D03*
X136924443Y-93400500D03*
X136400000Y-127500000D03*
X124400000Y-83500000D03*
X111000000Y-70400000D03*
X169400000Y-129300000D03*
X124400000Y-81100000D03*
X199000000Y-127400000D03*
X186400000Y-134400000D03*
X164337500Y-101400000D03*
X184700000Y-75500000D03*
X195400000Y-106900000D03*
%TO.N,/PA_Power/VBus*%
X106000000Y-128300000D03*
X109600000Y-131600000D03*
%TO.N,/PA_Protection/Slave_INT*%
X121200000Y-124400000D03*
X115400500Y-94100500D03*
%TO.N,VDC*%
X138062500Y-122762500D03*
X134670000Y-138750000D03*
X139300000Y-115600000D03*
X110550000Y-125950000D03*
X131000000Y-120500000D03*
X115900000Y-105900000D03*
%TO.N,/PA_Protection/Ext_SDA*%
X115799500Y-117992211D03*
X115799500Y-127800000D03*
%TO.N,/PA_Protection/Ext_SCL*%
X115675500Y-128799503D03*
X114200000Y-114500000D03*
%TO.N,+3.3V*%
X118200000Y-99300000D03*
X124368503Y-141320707D03*
X104300000Y-79400000D03*
X116200500Y-120676271D03*
X142300000Y-118700000D03*
X140500000Y-131000000D03*
X123600000Y-133300000D03*
X124298391Y-99401609D03*
X129600000Y-122400000D03*
X141000000Y-98900000D03*
X112000000Y-118800000D03*
%TO.N,Net-(U10-Vdd)*%
X162700000Y-75200000D03*
X157000000Y-75400000D03*
X152700000Y-79800000D03*
%TO.N,/PA_Protection/Slave_TxD*%
X118184668Y-98015332D03*
X110600000Y-97000000D03*
%TO.N,/PA_Power/VDD_PA*%
X167700000Y-81200000D03*
X167700000Y-79800000D03*
X146200000Y-94000000D03*
X165300000Y-80200000D03*
%TO.N,/PA_Protection/ADC_Vgg_PA*%
X132400000Y-99600000D03*
X129900000Y-128400000D03*
%TO.N,/PA_Protection/TX_Relay*%
X170100000Y-146600000D03*
X128246889Y-128563919D03*
%TO.N,/PA_Power/En_Vgg_PA*%
X126400000Y-95500000D03*
X120600000Y-128000000D03*
%TO.N,/PA_Protection/Temp_INT*%
X116400000Y-130200000D03*
X111400000Y-79400000D03*
%TO.N,Net-(J2-Pin_2)*%
X125200000Y-136249502D03*
X134300000Y-142600000D03*
%TO.N,/PA_Power/Int_SDA*%
X123323132Y-130399500D03*
X112300000Y-87400000D03*
X128400000Y-98600000D03*
X108795000Y-79295000D03*
X143700000Y-93600500D03*
X128400000Y-101400000D03*
%TO.N,/PA_Power/Int_SCL*%
X126400500Y-103000000D03*
X128400000Y-97500000D03*
X142400000Y-93600500D03*
X120600000Y-131800000D03*
X124801500Y-102946022D03*
X111399998Y-80700000D03*
%TO.N,Net-(J2-Pin_3)*%
X126115296Y-135525002D03*
X138700000Y-143824500D03*
%TO.N,Net-(J2-Pin_5)*%
X120400000Y-136300000D03*
%TO.N,Net-(J5-Pin_1)*%
X195600000Y-83200000D03*
X192100000Y-96500000D03*
X192100000Y-93000000D03*
X189600000Y-92700000D03*
X186600000Y-94800000D03*
X186600000Y-93100000D03*
X198400000Y-83200000D03*
X198400000Y-74700000D03*
X192600000Y-83200000D03*
X192500000Y-74700000D03*
X192200000Y-94500000D03*
X189700000Y-96600000D03*
X186600000Y-96600000D03*
X195400000Y-74700000D03*
%TO.N,/PA_Protection/VFwd*%
X147500000Y-138200000D03*
X171000000Y-99937500D03*
%TO.N,Net-(U1-PA10)*%
X118400000Y-146400000D03*
X123303301Y-127966035D03*
%TO.N,+5V*%
X119900000Y-90500000D03*
X120100000Y-87200000D03*
%TO.N,Net-(U5-VOUT)*%
X125000000Y-95200000D03*
X133900000Y-96199500D03*
%TD*%
D23*
%TO.N,GND*%
X144100000Y-145400000D02*
X143000000Y-146500000D01*
X151700000Y-145400000D02*
X144100000Y-145400000D01*
X114100000Y-149000000D02*
X115800000Y-147300000D01*
%TD*%
%TA.AperFunction,Conductor*%
%TO.N,Net-(J5-Pin_1)*%
G36*
X199941621Y-73720002D02*
G01*
X199988114Y-73773658D01*
X199999500Y-73826000D01*
X199999500Y-97574000D01*
X199979498Y-97642121D01*
X199925842Y-97688614D01*
X199873500Y-97700000D01*
X185826000Y-97700000D01*
X185757879Y-97679998D01*
X185711386Y-97626342D01*
X185700000Y-97574000D01*
X185700000Y-96331788D01*
X185700345Y-96325198D01*
X185713504Y-96200000D01*
X185700344Y-96074797D01*
X185700000Y-96068210D01*
X185700000Y-93531788D01*
X185700345Y-93525198D01*
X185713504Y-93400000D01*
X185700344Y-93274797D01*
X185700000Y-93268210D01*
X185700000Y-92426000D01*
X185720002Y-92357879D01*
X185773658Y-92311386D01*
X185826000Y-92300000D01*
X192700000Y-92300000D01*
X192700000Y-86200000D01*
X191526000Y-86200000D01*
X191457879Y-86179998D01*
X191411386Y-86126342D01*
X191400000Y-86074000D01*
X191400000Y-73826000D01*
X191420002Y-73757879D01*
X191473658Y-73711386D01*
X191526000Y-73700000D01*
X199873500Y-73700000D01*
X199941621Y-73720002D01*
G37*
%TD.AperFunction*%
%TD*%
%TA.AperFunction,Conductor*%
%TO.N,GND*%
G36*
X115441621Y-50020502D02*
G01*
X115488114Y-50074158D01*
X115499500Y-50126500D01*
X115499500Y-72975072D01*
X115499415Y-72975500D01*
X115499458Y-72999998D01*
X115499458Y-73000000D01*
X115499459Y-73000000D01*
X115499500Y-73000099D01*
X115499617Y-73000383D01*
X115500000Y-73000541D01*
X115500002Y-73000539D01*
X115525014Y-73000524D01*
X115525014Y-73000528D01*
X115525158Y-73000500D01*
X150153845Y-73000500D01*
X150018323Y-140828985D01*
X150011255Y-140821135D01*
X149856752Y-140708882D01*
X149682288Y-140631206D01*
X149495487Y-140591500D01*
X149304513Y-140591500D01*
X149117711Y-140631206D01*
X148943247Y-140708882D01*
X148788744Y-140821135D01*
X148660965Y-140963048D01*
X148660958Y-140963058D01*
X148565476Y-141128438D01*
X148565473Y-141128444D01*
X148550999Y-141172986D01*
X148506457Y-141310072D01*
X148486496Y-141499999D01*
X148506457Y-141689927D01*
X148507218Y-141692268D01*
X148565473Y-141871556D01*
X148565476Y-141871561D01*
X148660958Y-142036941D01*
X148660965Y-142036951D01*
X148788744Y-142178864D01*
X148788747Y-142178866D01*
X148943248Y-142291118D01*
X149117712Y-142368794D01*
X149304513Y-142408500D01*
X149495487Y-142408500D01*
X149682288Y-142368794D01*
X149856752Y-142291118D01*
X150011253Y-142178866D01*
X150015635Y-142173998D01*
X150000001Y-149999500D01*
X100126500Y-149999500D01*
X100058379Y-149979498D01*
X100011886Y-149925842D01*
X100000500Y-149873500D01*
X100000500Y-146399999D01*
X117486496Y-146399999D01*
X117506457Y-146589927D01*
X117536526Y-146682470D01*
X117565473Y-146771556D01*
X117565476Y-146771561D01*
X117660958Y-146936941D01*
X117660965Y-146936951D01*
X117788744Y-147078864D01*
X117788747Y-147078866D01*
X117943248Y-147191118D01*
X118117712Y-147268794D01*
X118304513Y-147308500D01*
X118495487Y-147308500D01*
X118682288Y-147268794D01*
X118856752Y-147191118D01*
X119011253Y-147078866D01*
X119139040Y-146936944D01*
X119234527Y-146771556D01*
X119293542Y-146589928D01*
X119302994Y-146500000D01*
X135736693Y-146500000D01*
X135755885Y-146719371D01*
X135788791Y-146842178D01*
X135812879Y-146932073D01*
X135812881Y-146932079D01*
X135815150Y-146936944D01*
X135905944Y-147131654D01*
X136001971Y-147268794D01*
X136032251Y-147312038D01*
X136032254Y-147312042D01*
X136187957Y-147467745D01*
X136187961Y-147467748D01*
X136187962Y-147467749D01*
X136368346Y-147594056D01*
X136567924Y-147687120D01*
X136780629Y-147744115D01*
X137000000Y-147763307D01*
X137040275Y-147759783D01*
X137109879Y-147773770D01*
X137160873Y-147823169D01*
X137177064Y-147892294D01*
X137153313Y-147959200D01*
X137150901Y-147962422D01*
X137146555Y-147968036D01*
X137146550Y-147968044D01*
X137056941Y-148150723D01*
X137005936Y-148347719D01*
X137005936Y-148347722D01*
X136995630Y-148550935D01*
X137011156Y-148652277D01*
X137026444Y-148752071D01*
X137054712Y-148828397D01*
X137097111Y-148942881D01*
X137097115Y-148942889D01*
X137204744Y-149115566D01*
X137204754Y-149115579D01*
X137344936Y-149263048D01*
X137344941Y-149263053D01*
X137344944Y-149263055D01*
X137511952Y-149379296D01*
X137511953Y-149379297D01*
X137698938Y-149459539D01*
X137698941Y-149459539D01*
X137698942Y-149459540D01*
X137898259Y-149500500D01*
X137898260Y-149500500D01*
X138050741Y-149500500D01*
X138050742Y-149500500D01*
X138050743Y-149500499D01*
X138050760Y-149500499D01*
X138144833Y-149490931D01*
X138202438Y-149485074D01*
X138396588Y-149424159D01*
X138574502Y-149325409D01*
X138574503Y-149325408D01*
X138574505Y-149325407D01*
X138728890Y-149192870D01*
X138728895Y-149192866D01*
X138853448Y-149031958D01*
X138943060Y-148849271D01*
X138994063Y-148652285D01*
X138999203Y-148550935D01*
X142995630Y-148550935D01*
X143011156Y-148652277D01*
X143026444Y-148752071D01*
X143054711Y-148828397D01*
X143097111Y-148942881D01*
X143097115Y-148942889D01*
X143204744Y-149115566D01*
X143204754Y-149115579D01*
X143344936Y-149263048D01*
X143344941Y-149263053D01*
X143344944Y-149263055D01*
X143511952Y-149379296D01*
X143511953Y-149379297D01*
X143698938Y-149459539D01*
X143698941Y-149459539D01*
X143698942Y-149459540D01*
X143898259Y-149500500D01*
X143898260Y-149500500D01*
X144050741Y-149500500D01*
X144050742Y-149500500D01*
X144050743Y-149500499D01*
X144050760Y-149500499D01*
X144144833Y-149490931D01*
X144202438Y-149485074D01*
X144396588Y-149424159D01*
X144574502Y-149325409D01*
X144574503Y-149325408D01*
X144574505Y-149325407D01*
X144728890Y-149192870D01*
X144728895Y-149192866D01*
X144853448Y-149031958D01*
X144943060Y-148849271D01*
X144994063Y-148652285D01*
X145004369Y-148449064D01*
X144973556Y-148247929D01*
X144902886Y-148057113D01*
X144837080Y-147951537D01*
X144818022Y-147883147D01*
X144838964Y-147815310D01*
X144893257Y-147769563D01*
X144954991Y-147759369D01*
X145000000Y-147763307D01*
X145219371Y-147744115D01*
X145432076Y-147687120D01*
X145631654Y-147594056D01*
X145812038Y-147467749D01*
X145967749Y-147312038D01*
X146094056Y-147131654D01*
X146187120Y-146932076D01*
X146244115Y-146719371D01*
X146263307Y-146500000D01*
X146244115Y-146280629D01*
X146187120Y-146067924D01*
X146094056Y-145868347D01*
X145967749Y-145687962D01*
X145812038Y-145532251D01*
X145631654Y-145405944D01*
X145631650Y-145405942D01*
X145432079Y-145312881D01*
X145432073Y-145312879D01*
X145342178Y-145288791D01*
X145219371Y-145255885D01*
X145000000Y-145236693D01*
X144999999Y-145236693D01*
X144780629Y-145255885D01*
X144567926Y-145312879D01*
X144567920Y-145312881D01*
X144368346Y-145405944D01*
X144187965Y-145532248D01*
X144187959Y-145532253D01*
X144032253Y-145687959D01*
X144032248Y-145687965D01*
X143905944Y-145868346D01*
X143812881Y-146067920D01*
X143812880Y-146067924D01*
X143755885Y-146280629D01*
X143736693Y-146500000D01*
X143755885Y-146719371D01*
X143788791Y-146842178D01*
X143812879Y-146932073D01*
X143812881Y-146932079D01*
X143905943Y-147131652D01*
X143905944Y-147131654D01*
X144026104Y-147303261D01*
X144048792Y-147370535D01*
X144031507Y-147439395D01*
X143979737Y-147487979D01*
X143935639Y-147500884D01*
X143797566Y-147514925D01*
X143797563Y-147514925D01*
X143797562Y-147514926D01*
X143744965Y-147531428D01*
X143603413Y-147575840D01*
X143425494Y-147674592D01*
X143271109Y-147807129D01*
X143271102Y-147807136D01*
X143146555Y-147968036D01*
X143146550Y-147968044D01*
X143056941Y-148150723D01*
X143005936Y-148347719D01*
X143005936Y-148347722D01*
X142995630Y-148550935D01*
X138999203Y-148550935D01*
X139004369Y-148449064D01*
X138973556Y-148247929D01*
X138902886Y-148057113D01*
X138837080Y-147951537D01*
X138818022Y-147883147D01*
X138838964Y-147815310D01*
X138893257Y-147769563D01*
X138954991Y-147759369D01*
X139000000Y-147763307D01*
X139219371Y-147744115D01*
X139432076Y-147687120D01*
X139631654Y-147594056D01*
X139812038Y-147467749D01*
X139840392Y-147439395D01*
X139910905Y-147368883D01*
X139973217Y-147334857D01*
X140044032Y-147339922D01*
X140089095Y-147368883D01*
X140187957Y-147467745D01*
X140187961Y-147467748D01*
X140187962Y-147467749D01*
X140368346Y-147594056D01*
X140567924Y-147687120D01*
X140780629Y-147744115D01*
X141000000Y-147763307D01*
X141219371Y-147744115D01*
X141432076Y-147687120D01*
X141631654Y-147594056D01*
X141812038Y-147467749D01*
X141967749Y-147312038D01*
X142094056Y-147131654D01*
X142187120Y-146932076D01*
X142244115Y-146719371D01*
X142263307Y-146500000D01*
X142244115Y-146280629D01*
X142187120Y-146067924D01*
X142094056Y-145868347D01*
X141967749Y-145687962D01*
X141812038Y-145532251D01*
X141631654Y-145405944D01*
X141631650Y-145405942D01*
X141432079Y-145312881D01*
X141432073Y-145312879D01*
X141342178Y-145288791D01*
X141219371Y-145255885D01*
X141000000Y-145236693D01*
X140999999Y-145236693D01*
X140780629Y-145255885D01*
X140567926Y-145312879D01*
X140567920Y-145312881D01*
X140368346Y-145405944D01*
X140187965Y-145532248D01*
X140089095Y-145631118D01*
X140026783Y-145665143D01*
X139955967Y-145660077D01*
X139910905Y-145631117D01*
X139812042Y-145532254D01*
X139812038Y-145532251D01*
X139753840Y-145491500D01*
X139631654Y-145405944D01*
X139631650Y-145405942D01*
X139432079Y-145312881D01*
X139432073Y-145312879D01*
X139342178Y-145288791D01*
X139219371Y-145255885D01*
X139000000Y-145236693D01*
X138780629Y-145255885D01*
X138567926Y-145312879D01*
X138567920Y-145312881D01*
X138368346Y-145405944D01*
X138187965Y-145532248D01*
X138089095Y-145631118D01*
X138026783Y-145665143D01*
X137955967Y-145660077D01*
X137910905Y-145631117D01*
X137812042Y-145532254D01*
X137812038Y-145532251D01*
X137753840Y-145491500D01*
X137631654Y-145405944D01*
X137631650Y-145405942D01*
X137432079Y-145312881D01*
X137432073Y-145312879D01*
X137342178Y-145288791D01*
X137219371Y-145255885D01*
X137000000Y-145236693D01*
X136999999Y-145236693D01*
X136780629Y-145255885D01*
X136567926Y-145312879D01*
X136567920Y-145312881D01*
X136368346Y-145405944D01*
X136187965Y-145532248D01*
X136187959Y-145532253D01*
X136032253Y-145687959D01*
X136032248Y-145687965D01*
X135905944Y-145868346D01*
X135812881Y-146067920D01*
X135812880Y-146067924D01*
X135755885Y-146280629D01*
X135736693Y-146500000D01*
X119302994Y-146500000D01*
X119313504Y-146400000D01*
X119293542Y-146210072D01*
X119234527Y-146028444D01*
X119139040Y-145863056D01*
X119139038Y-145863054D01*
X119139034Y-145863048D01*
X119011255Y-145721135D01*
X118856752Y-145608882D01*
X118682288Y-145531206D01*
X118495487Y-145491500D01*
X118304513Y-145491500D01*
X118117711Y-145531206D01*
X117943247Y-145608882D01*
X117788744Y-145721135D01*
X117660965Y-145863048D01*
X117660958Y-145863058D01*
X117565476Y-146028438D01*
X117565473Y-146028445D01*
X117506457Y-146210072D01*
X117486496Y-146399999D01*
X100000500Y-146399999D01*
X100000500Y-143824499D01*
X137786496Y-143824499D01*
X137806457Y-144014427D01*
X137836526Y-144106970D01*
X137865473Y-144196056D01*
X137865476Y-144196061D01*
X137960958Y-144361441D01*
X137960965Y-144361451D01*
X138088744Y-144503364D01*
X138088747Y-144503366D01*
X138243248Y-144615618D01*
X138417712Y-144693294D01*
X138604513Y-144733000D01*
X138795487Y-144733000D01*
X138982288Y-144693294D01*
X139156752Y-144615618D01*
X139311253Y-144503366D01*
X139439040Y-144361444D01*
X139534527Y-144196056D01*
X139593542Y-144014428D01*
X139613504Y-143824500D01*
X139593542Y-143634572D01*
X139534527Y-143452944D01*
X139439040Y-143287556D01*
X139439038Y-143287554D01*
X139439034Y-143287548D01*
X139311255Y-143145635D01*
X139156752Y-143033382D01*
X138982288Y-142955706D01*
X138795487Y-142916000D01*
X138604513Y-142916000D01*
X138417711Y-142955706D01*
X138243247Y-143033382D01*
X138088744Y-143145635D01*
X137960965Y-143287548D01*
X137960958Y-143287558D01*
X137901168Y-143391118D01*
X137865473Y-143452944D01*
X137860323Y-143468794D01*
X137806457Y-143634572D01*
X137786496Y-143824499D01*
X100000500Y-143824499D01*
X100000500Y-142599999D01*
X133386496Y-142599999D01*
X133406457Y-142789927D01*
X133436526Y-142882470D01*
X133465473Y-142971556D01*
X133465476Y-142971561D01*
X133560958Y-143136941D01*
X133560965Y-143136951D01*
X133688744Y-143278864D01*
X133688747Y-143278866D01*
X133843248Y-143391118D01*
X134017712Y-143468794D01*
X134204513Y-143508500D01*
X134395487Y-143508500D01*
X134582288Y-143468794D01*
X134756752Y-143391118D01*
X134911253Y-143278866D01*
X135031215Y-143145635D01*
X135039034Y-143136951D01*
X135039035Y-143136949D01*
X135039040Y-143136944D01*
X135134527Y-142971556D01*
X135193542Y-142789928D01*
X135213504Y-142600000D01*
X135193542Y-142410072D01*
X135134527Y-142228444D01*
X135039040Y-142063056D01*
X135039038Y-142063054D01*
X135039034Y-142063048D01*
X134911255Y-141921135D01*
X134756752Y-141808882D01*
X134582288Y-141731206D01*
X134395487Y-141691500D01*
X134204513Y-141691500D01*
X134017711Y-141731206D01*
X133843247Y-141808882D01*
X133688744Y-141921135D01*
X133560965Y-142063048D01*
X133560958Y-142063058D01*
X133465476Y-142228438D01*
X133465473Y-142228445D01*
X133406457Y-142410072D01*
X133386496Y-142599999D01*
X100000500Y-142599999D01*
X100000500Y-141320707D01*
X123454999Y-141320707D01*
X123474960Y-141510634D01*
X123505029Y-141603177D01*
X123533976Y-141692263D01*
X123533979Y-141692268D01*
X123629461Y-141857648D01*
X123629468Y-141857658D01*
X123757247Y-141999571D01*
X123757250Y-141999573D01*
X123911751Y-142111825D01*
X124086215Y-142189501D01*
X124273016Y-142229207D01*
X124463990Y-142229207D01*
X124650791Y-142189501D01*
X124825255Y-142111825D01*
X124979756Y-141999573D01*
X125050383Y-141921134D01*
X125107537Y-141857658D01*
X125107538Y-141857656D01*
X125107543Y-141857651D01*
X125203030Y-141692263D01*
X125262045Y-141510635D01*
X125282007Y-141320707D01*
X125262045Y-141130779D01*
X125203030Y-140949151D01*
X125107543Y-140783763D01*
X125107541Y-140783761D01*
X125107537Y-140783755D01*
X124979758Y-140641842D01*
X124825255Y-140529589D01*
X124650791Y-140451913D01*
X124463990Y-140412207D01*
X124273016Y-140412207D01*
X124086214Y-140451913D01*
X123911750Y-140529589D01*
X123757247Y-140641842D01*
X123629468Y-140783755D01*
X123629461Y-140783765D01*
X123533979Y-140949145D01*
X123533976Y-140949151D01*
X123519502Y-140993693D01*
X123474960Y-141130779D01*
X123454999Y-141320707D01*
X100000500Y-141320707D01*
X100000500Y-138750000D01*
X133756496Y-138750000D01*
X133776457Y-138939927D01*
X133806526Y-139032470D01*
X133835473Y-139121556D01*
X133835476Y-139121561D01*
X133930958Y-139286941D01*
X133930965Y-139286951D01*
X134058744Y-139428864D01*
X134058747Y-139428866D01*
X134213248Y-139541118D01*
X134387712Y-139618794D01*
X134574513Y-139658500D01*
X134765487Y-139658500D01*
X134952288Y-139618794D01*
X135126752Y-139541118D01*
X135281253Y-139428866D01*
X135409040Y-139286944D01*
X135504527Y-139121556D01*
X135563542Y-138939928D01*
X135583504Y-138750000D01*
X135563542Y-138560072D01*
X135504527Y-138378444D01*
X135409040Y-138213056D01*
X135409038Y-138213054D01*
X135409034Y-138213048D01*
X135397285Y-138199999D01*
X146586496Y-138199999D01*
X146606457Y-138389927D01*
X146636526Y-138482470D01*
X146665473Y-138571556D01*
X146665476Y-138571561D01*
X146760958Y-138736941D01*
X146760965Y-138736951D01*
X146888744Y-138878864D01*
X146888747Y-138878866D01*
X147043248Y-138991118D01*
X147217712Y-139068794D01*
X147404513Y-139108500D01*
X147595487Y-139108500D01*
X147782288Y-139068794D01*
X147956752Y-138991118D01*
X148111253Y-138878866D01*
X148111255Y-138878864D01*
X148239034Y-138736951D01*
X148239035Y-138736949D01*
X148239040Y-138736944D01*
X148334527Y-138571556D01*
X148393542Y-138389928D01*
X148413504Y-138200000D01*
X148393542Y-138010072D01*
X148334527Y-137828444D01*
X148239040Y-137663056D01*
X148239038Y-137663054D01*
X148239034Y-137663048D01*
X148111255Y-137521135D01*
X147956752Y-137408882D01*
X147782288Y-137331206D01*
X147595487Y-137291500D01*
X147404513Y-137291500D01*
X147217711Y-137331206D01*
X147043247Y-137408882D01*
X146888744Y-137521135D01*
X146760965Y-137663048D01*
X146760958Y-137663058D01*
X146665476Y-137828438D01*
X146665473Y-137828445D01*
X146606457Y-138010072D01*
X146586496Y-138199999D01*
X135397285Y-138199999D01*
X135281255Y-138071135D01*
X135126752Y-137958882D01*
X134952288Y-137881206D01*
X134765487Y-137841500D01*
X134574513Y-137841500D01*
X134387711Y-137881206D01*
X134213247Y-137958882D01*
X134058744Y-138071135D01*
X133930965Y-138213048D01*
X133930958Y-138213058D01*
X133835476Y-138378438D01*
X133835473Y-138378445D01*
X133776457Y-138560072D01*
X133756496Y-138750000D01*
X100000500Y-138750000D01*
X100000500Y-136300000D01*
X119486496Y-136300000D01*
X119506457Y-136489927D01*
X119516413Y-136520566D01*
X119565473Y-136671556D01*
X119565476Y-136671561D01*
X119660958Y-136836941D01*
X119660965Y-136836951D01*
X119788744Y-136978864D01*
X119788747Y-136978866D01*
X119943248Y-137091118D01*
X120117712Y-137168794D01*
X120304513Y-137208500D01*
X120495487Y-137208500D01*
X120682288Y-137168794D01*
X120856752Y-137091118D01*
X121011253Y-136978866D01*
X121056722Y-136928368D01*
X121139034Y-136836951D01*
X121139035Y-136836949D01*
X121139040Y-136836944D01*
X121234527Y-136671556D01*
X121293542Y-136489928D01*
X121313504Y-136300000D01*
X121308197Y-136249502D01*
X124286496Y-136249502D01*
X124306457Y-136439429D01*
X124322866Y-136489928D01*
X124365473Y-136621058D01*
X124365476Y-136621063D01*
X124460958Y-136786443D01*
X124460965Y-136786453D01*
X124588744Y-136928366D01*
X124588747Y-136928368D01*
X124743248Y-137040620D01*
X124917712Y-137118296D01*
X125104513Y-137158002D01*
X125295487Y-137158002D01*
X125482288Y-137118296D01*
X125656752Y-137040620D01*
X125811253Y-136928368D01*
X125893565Y-136836951D01*
X125939034Y-136786453D01*
X125939035Y-136786451D01*
X125939040Y-136786446D01*
X126034527Y-136621058D01*
X126067179Y-136520565D01*
X126107253Y-136461960D01*
X126172649Y-136434323D01*
X126187012Y-136433502D01*
X126210783Y-136433502D01*
X126397584Y-136393796D01*
X126572048Y-136316120D01*
X126726549Y-136203868D01*
X126854336Y-136061946D01*
X126949823Y-135896558D01*
X127008838Y-135714930D01*
X127028800Y-135525002D01*
X127008838Y-135335074D01*
X126949823Y-135153446D01*
X126854336Y-134988058D01*
X126854334Y-134988056D01*
X126854330Y-134988050D01*
X126726551Y-134846137D01*
X126572048Y-134733884D01*
X126397584Y-134656208D01*
X126210783Y-134616502D01*
X126019809Y-134616502D01*
X125833007Y-134656208D01*
X125658543Y-134733884D01*
X125504040Y-134846137D01*
X125376261Y-134988050D01*
X125376254Y-134988060D01*
X125280772Y-135153440D01*
X125280767Y-135153449D01*
X125248117Y-135253938D01*
X125208043Y-135312544D01*
X125142647Y-135340181D01*
X125128284Y-135341002D01*
X125104513Y-135341002D01*
X124917711Y-135380708D01*
X124743247Y-135458384D01*
X124588744Y-135570637D01*
X124460965Y-135712550D01*
X124460958Y-135712560D01*
X124365476Y-135877940D01*
X124365473Y-135877947D01*
X124306457Y-136059574D01*
X124286496Y-136249502D01*
X121308197Y-136249502D01*
X121293542Y-136110072D01*
X121234527Y-135928444D01*
X121139040Y-135763056D01*
X121139038Y-135763054D01*
X121139034Y-135763048D01*
X121011255Y-135621135D01*
X120856752Y-135508882D01*
X120682288Y-135431206D01*
X120495487Y-135391500D01*
X120304513Y-135391500D01*
X120117711Y-135431206D01*
X119943247Y-135508882D01*
X119788744Y-135621135D01*
X119660965Y-135763048D01*
X119660958Y-135763058D01*
X119565476Y-135928438D01*
X119565473Y-135928445D01*
X119506457Y-136110072D01*
X119486496Y-136300000D01*
X100000500Y-136300000D01*
X100000500Y-135243595D01*
X100020502Y-135175474D01*
X100074158Y-135128981D01*
X100144432Y-135118877D01*
X100209012Y-135148371D01*
X100229131Y-135170502D01*
X100270941Y-135229215D01*
X100424154Y-135375303D01*
X100602246Y-135489756D01*
X100798779Y-135568436D01*
X101006651Y-135608500D01*
X101006655Y-135608500D01*
X101865301Y-135608500D01*
X101865303Y-135608500D01*
X102023239Y-135593419D01*
X102226362Y-135533777D01*
X102414526Y-135436771D01*
X102580932Y-135305908D01*
X102719565Y-135145918D01*
X102825413Y-134962582D01*
X102894653Y-134762527D01*
X102915648Y-134616502D01*
X102924781Y-134552985D01*
X102914709Y-134341536D01*
X102914708Y-134341532D01*
X102914708Y-134341526D01*
X102896606Y-134266909D01*
X102899984Y-134195997D01*
X102941165Y-134138164D01*
X103007076Y-134111777D01*
X103076790Y-134125212D01*
X103122267Y-134164935D01*
X103213975Y-134295907D01*
X103213978Y-134295911D01*
X103366588Y-134448521D01*
X103366592Y-134448524D01*
X103366593Y-134448525D01*
X103543394Y-134572323D01*
X103739007Y-134663539D01*
X103947487Y-134719401D01*
X104162500Y-134738212D01*
X104377513Y-134719401D01*
X104585993Y-134663539D01*
X104781606Y-134572323D01*
X104958407Y-134448525D01*
X105111025Y-134295907D01*
X105234823Y-134119106D01*
X105326039Y-133923493D01*
X105381901Y-133715013D01*
X105400712Y-133500000D01*
X105383214Y-133299999D01*
X122686496Y-133299999D01*
X122706457Y-133489927D01*
X122713059Y-133510244D01*
X122765473Y-133671556D01*
X122765476Y-133671561D01*
X122860958Y-133836941D01*
X122860965Y-133836951D01*
X122988744Y-133978864D01*
X122988747Y-133978866D01*
X123143248Y-134091118D01*
X123317712Y-134168794D01*
X123504513Y-134208500D01*
X123695487Y-134208500D01*
X123882288Y-134168794D01*
X124056752Y-134091118D01*
X124211253Y-133978866D01*
X124261114Y-133923490D01*
X124339034Y-133836951D01*
X124339035Y-133836949D01*
X124339040Y-133836944D01*
X124434527Y-133671556D01*
X124493542Y-133489928D01*
X124513504Y-133300000D01*
X124493542Y-133110072D01*
X124434527Y-132928444D01*
X124339040Y-132763056D01*
X124339038Y-132763054D01*
X124339034Y-132763048D01*
X124211255Y-132621135D01*
X124056752Y-132508882D01*
X123882288Y-132431206D01*
X123695487Y-132391500D01*
X123504513Y-132391500D01*
X123317711Y-132431206D01*
X123143247Y-132508882D01*
X122988744Y-132621135D01*
X122860965Y-132763048D01*
X122860958Y-132763058D01*
X122765476Y-132928438D01*
X122765473Y-132928445D01*
X122706457Y-133110072D01*
X122686496Y-133299999D01*
X105383214Y-133299999D01*
X105381901Y-133284987D01*
X105326039Y-133076507D01*
X105234823Y-132880894D01*
X105111025Y-132704093D01*
X105111024Y-132704092D01*
X105111021Y-132704088D01*
X104958411Y-132551478D01*
X104958402Y-132551471D01*
X104781606Y-132427677D01*
X104781604Y-132427676D01*
X104585995Y-132336462D01*
X104585990Y-132336460D01*
X104377516Y-132280599D01*
X104162500Y-132261788D01*
X103947483Y-132280599D01*
X103739009Y-132336460D01*
X103739004Y-132336462D01*
X103543395Y-132427676D01*
X103543393Y-132427677D01*
X103366597Y-132551471D01*
X103366588Y-132551478D01*
X103213978Y-132704088D01*
X103213971Y-132704097D01*
X103090177Y-132880893D01*
X103090176Y-132880895D01*
X102998962Y-133076504D01*
X102998960Y-133076509D01*
X102943099Y-133284983D01*
X102924288Y-133499999D01*
X102943099Y-133715016D01*
X102960681Y-133780631D01*
X102958991Y-133851608D01*
X102919197Y-133910403D01*
X102853932Y-133938351D01*
X102783919Y-133926577D01*
X102736338Y-133886330D01*
X102654059Y-133770785D01*
X102500846Y-133624697D01*
X102322754Y-133510244D01*
X102126221Y-133431564D01*
X102126220Y-133431563D01*
X102126218Y-133431563D01*
X101918353Y-133391500D01*
X101918349Y-133391500D01*
X101059697Y-133391500D01*
X101059695Y-133391500D01*
X101059677Y-133391501D01*
X100901771Y-133406579D01*
X100901756Y-133406582D01*
X100698635Y-133466223D01*
X100510476Y-133563227D01*
X100344067Y-133694092D01*
X100221724Y-133835283D01*
X100161998Y-133873666D01*
X100091001Y-133873666D01*
X100031275Y-133835282D01*
X100001782Y-133770701D01*
X100000500Y-133752770D01*
X100000500Y-131599999D01*
X108686496Y-131599999D01*
X108706457Y-131789927D01*
X108732083Y-131868793D01*
X108765473Y-131971556D01*
X108765476Y-131971561D01*
X108860958Y-132136941D01*
X108860965Y-132136951D01*
X108988744Y-132278864D01*
X108988747Y-132278866D01*
X109143248Y-132391118D01*
X109317712Y-132468794D01*
X109504513Y-132508500D01*
X109695487Y-132508500D01*
X109882288Y-132468794D01*
X110056752Y-132391118D01*
X110211253Y-132278866D01*
X110307871Y-132171561D01*
X110339034Y-132136951D01*
X110339035Y-132136949D01*
X110339040Y-132136944D01*
X110434527Y-131971556D01*
X110490270Y-131799999D01*
X119686496Y-131799999D01*
X119706457Y-131989927D01*
X119736526Y-132082470D01*
X119765473Y-132171556D01*
X119765476Y-132171561D01*
X119860958Y-132336941D01*
X119860965Y-132336951D01*
X119988744Y-132478864D01*
X120030060Y-132508882D01*
X120143248Y-132591118D01*
X120317712Y-132668794D01*
X120504513Y-132708500D01*
X120695487Y-132708500D01*
X120882288Y-132668794D01*
X121056752Y-132591118D01*
X121211253Y-132478866D01*
X121290262Y-132391118D01*
X121339034Y-132336951D01*
X121339035Y-132336949D01*
X121339040Y-132336944D01*
X121434527Y-132171556D01*
X121493542Y-131989928D01*
X121513504Y-131800000D01*
X121493542Y-131610072D01*
X121434527Y-131428444D01*
X121339040Y-131263056D01*
X121339038Y-131263054D01*
X121339034Y-131263048D01*
X121211255Y-131121135D01*
X121056752Y-131008882D01*
X120882288Y-130931206D01*
X120695487Y-130891500D01*
X120504513Y-130891500D01*
X120317711Y-130931206D01*
X120143247Y-131008882D01*
X119988744Y-131121135D01*
X119860965Y-131263048D01*
X119860958Y-131263058D01*
X119765476Y-131428438D01*
X119765473Y-131428445D01*
X119706457Y-131610072D01*
X119686496Y-131799999D01*
X110490270Y-131799999D01*
X110493542Y-131789928D01*
X110513504Y-131600000D01*
X110493542Y-131410072D01*
X110434527Y-131228444D01*
X110339040Y-131063056D01*
X110339038Y-131063054D01*
X110339034Y-131063048D01*
X110211255Y-130921135D01*
X110056752Y-130808882D01*
X109882288Y-130731206D01*
X109695487Y-130691500D01*
X109504513Y-130691500D01*
X109317711Y-130731206D01*
X109143247Y-130808882D01*
X108988744Y-130921135D01*
X108860965Y-131063048D01*
X108860958Y-131063058D01*
X108765476Y-131228438D01*
X108765473Y-131228445D01*
X108706457Y-131410072D01*
X108686496Y-131599999D01*
X100000500Y-131599999D01*
X100000500Y-128243595D01*
X100020502Y-128175474D01*
X100074158Y-128128981D01*
X100144432Y-128118877D01*
X100209012Y-128148371D01*
X100229131Y-128170502D01*
X100270941Y-128229215D01*
X100424154Y-128375303D01*
X100602246Y-128489756D01*
X100798779Y-128568436D01*
X101006651Y-128608500D01*
X101006655Y-128608500D01*
X101865301Y-128608500D01*
X101865303Y-128608500D01*
X102023239Y-128593419D01*
X102226362Y-128533777D01*
X102414526Y-128436771D01*
X102580932Y-128305908D01*
X102586052Y-128300000D01*
X102648908Y-128227460D01*
X102719565Y-128145918D01*
X102727685Y-128131852D01*
X102779063Y-128082859D01*
X102848776Y-128069420D01*
X102914688Y-128095804D01*
X102955873Y-128153634D01*
X102959255Y-128224550D01*
X102958512Y-128227460D01*
X102943100Y-128284981D01*
X102943099Y-128284984D01*
X102943099Y-128284987D01*
X102934588Y-128382273D01*
X102924288Y-128500000D01*
X102943099Y-128715016D01*
X102998960Y-128923490D01*
X102998962Y-128923495D01*
X103090176Y-129119104D01*
X103090177Y-129119106D01*
X103213971Y-129295902D01*
X103213978Y-129295911D01*
X103366588Y-129448521D01*
X103366597Y-129448528D01*
X103409214Y-129478369D01*
X103543394Y-129572323D01*
X103739007Y-129663539D01*
X103947487Y-129719401D01*
X104162500Y-129738212D01*
X104377513Y-129719401D01*
X104585993Y-129663539D01*
X104781606Y-129572323D01*
X104958407Y-129448525D01*
X105111025Y-129295907D01*
X105234823Y-129119106D01*
X105258023Y-129069352D01*
X105304939Y-129016068D01*
X105373216Y-128996606D01*
X105441176Y-129017147D01*
X105446279Y-129020666D01*
X105462887Y-129032732D01*
X105543248Y-129091118D01*
X105717712Y-129168794D01*
X105904513Y-129208500D01*
X106095487Y-129208500D01*
X106282288Y-129168794D01*
X106456752Y-129091118D01*
X106611253Y-128978866D01*
X106618964Y-128970302D01*
X106739034Y-128836951D01*
X106739035Y-128836949D01*
X106739040Y-128836944D01*
X106760657Y-128799503D01*
X114761996Y-128799503D01*
X114781957Y-128989430D01*
X114792107Y-129020666D01*
X114840973Y-129171059D01*
X114840976Y-129171064D01*
X114936458Y-129336444D01*
X114936465Y-129336454D01*
X115064244Y-129478367D01*
X115064247Y-129478369D01*
X115218748Y-129590621D01*
X115393212Y-129668297D01*
X115464897Y-129683534D01*
X115466138Y-129683798D01*
X115528612Y-129717527D01*
X115562933Y-129779676D01*
X115559774Y-129845981D01*
X115506457Y-130010071D01*
X115486496Y-130200000D01*
X115506457Y-130389927D01*
X115536526Y-130482470D01*
X115565473Y-130571556D01*
X115565476Y-130571561D01*
X115660958Y-130736941D01*
X115660965Y-130736951D01*
X115788744Y-130878864D01*
X115788747Y-130878866D01*
X115943248Y-130991118D01*
X116117712Y-131068794D01*
X116304513Y-131108500D01*
X116495487Y-131108500D01*
X116682288Y-131068794D01*
X116856752Y-130991118D01*
X117011253Y-130878866D01*
X117011255Y-130878864D01*
X117139034Y-130736951D01*
X117139035Y-130736949D01*
X117139040Y-130736944D01*
X117234527Y-130571556D01*
X117290432Y-130399499D01*
X122409628Y-130399499D01*
X122429589Y-130589427D01*
X122442265Y-130628438D01*
X122488605Y-130771056D01*
X122488608Y-130771061D01*
X122584090Y-130936441D01*
X122584097Y-130936451D01*
X122711876Y-131078364D01*
X122711879Y-131078366D01*
X122866380Y-131190618D01*
X123040844Y-131268294D01*
X123227645Y-131308000D01*
X123418619Y-131308000D01*
X123605420Y-131268294D01*
X123779884Y-131190618D01*
X123934385Y-131078366D01*
X123943005Y-131068793D01*
X124004946Y-131000000D01*
X139586496Y-131000000D01*
X139606457Y-131189927D01*
X139631921Y-131268294D01*
X139665473Y-131371556D01*
X139665476Y-131371561D01*
X139760958Y-131536941D01*
X139760965Y-131536951D01*
X139888744Y-131678864D01*
X139888747Y-131678866D01*
X140043248Y-131791118D01*
X140217712Y-131868794D01*
X140404513Y-131908500D01*
X140595487Y-131908500D01*
X140782288Y-131868794D01*
X140956752Y-131791118D01*
X141111253Y-131678866D01*
X141111255Y-131678864D01*
X141239034Y-131536951D01*
X141239035Y-131536949D01*
X141239040Y-131536944D01*
X141334527Y-131371556D01*
X141393542Y-131189928D01*
X141413504Y-131000000D01*
X141393542Y-130810072D01*
X141334527Y-130628444D01*
X141239040Y-130463056D01*
X141239038Y-130463054D01*
X141239034Y-130463048D01*
X141111255Y-130321135D01*
X140956752Y-130208882D01*
X140782288Y-130131206D01*
X140595487Y-130091500D01*
X140404513Y-130091500D01*
X140217711Y-130131206D01*
X140043247Y-130208882D01*
X139888744Y-130321135D01*
X139760965Y-130463048D01*
X139760958Y-130463058D01*
X139665476Y-130628438D01*
X139665473Y-130628445D01*
X139606457Y-130810072D01*
X139586496Y-131000000D01*
X124004946Y-131000000D01*
X124062166Y-130936451D01*
X124062167Y-130936449D01*
X124062172Y-130936444D01*
X124157659Y-130771056D01*
X124216674Y-130589428D01*
X124236636Y-130399500D01*
X124216674Y-130209572D01*
X124157659Y-130027944D01*
X124062172Y-129862556D01*
X124062170Y-129862554D01*
X124062166Y-129862548D01*
X123934387Y-129720635D01*
X123779884Y-129608382D01*
X123605420Y-129530706D01*
X123418619Y-129491000D01*
X123227645Y-129491000D01*
X123040843Y-129530706D01*
X122866379Y-129608382D01*
X122711876Y-129720635D01*
X122584097Y-129862548D01*
X122584090Y-129862558D01*
X122488608Y-130027938D01*
X122488605Y-130027945D01*
X122429589Y-130209572D01*
X122409628Y-130399499D01*
X117290432Y-130399499D01*
X117293542Y-130389928D01*
X117313504Y-130200000D01*
X117293542Y-130010072D01*
X117234527Y-129828444D01*
X117139040Y-129663056D01*
X117139038Y-129663054D01*
X117139034Y-129663048D01*
X117011255Y-129521135D01*
X116856752Y-129408882D01*
X116682284Y-129331204D01*
X116609360Y-129315703D01*
X116546887Y-129281974D01*
X116512566Y-129219825D01*
X116515724Y-129153522D01*
X116569042Y-128989431D01*
X116589004Y-128799503D01*
X116569042Y-128609575D01*
X116518244Y-128453239D01*
X116516217Y-128382273D01*
X116536147Y-128340236D01*
X116538531Y-128336953D01*
X116538540Y-128336944D01*
X116634027Y-128171556D01*
X116689770Y-127999999D01*
X119686496Y-127999999D01*
X119706457Y-128189927D01*
X119728984Y-128259255D01*
X119765473Y-128371556D01*
X119777157Y-128391793D01*
X119860958Y-128536941D01*
X119860965Y-128536951D01*
X119988744Y-128678864D01*
X119988747Y-128678866D01*
X120143248Y-128791118D01*
X120317712Y-128868794D01*
X120504513Y-128908500D01*
X120695487Y-128908500D01*
X120882288Y-128868794D01*
X121056752Y-128791118D01*
X121211253Y-128678866D01*
X121211255Y-128678864D01*
X121339034Y-128536951D01*
X121339035Y-128536949D01*
X121339040Y-128536944D01*
X121434527Y-128371556D01*
X121493542Y-128189928D01*
X121513504Y-128000000D01*
X121509934Y-127966034D01*
X122389797Y-127966034D01*
X122409758Y-128155962D01*
X122432044Y-128224550D01*
X122468774Y-128337591D01*
X122468777Y-128337596D01*
X122564259Y-128502976D01*
X122564266Y-128502986D01*
X122692045Y-128644899D01*
X122728735Y-128671556D01*
X122846549Y-128757153D01*
X123021013Y-128834829D01*
X123207814Y-128874535D01*
X123398788Y-128874535D01*
X123585589Y-128834829D01*
X123760053Y-128757153D01*
X123914554Y-128644901D01*
X123947330Y-128608500D01*
X123987471Y-128563919D01*
X127333385Y-128563919D01*
X127353346Y-128753846D01*
X127379660Y-128834829D01*
X127412362Y-128935475D01*
X127413210Y-128936944D01*
X127507847Y-129100860D01*
X127507854Y-129100870D01*
X127635633Y-129242783D01*
X127635636Y-129242785D01*
X127790137Y-129355037D01*
X127964601Y-129432713D01*
X128151402Y-129472419D01*
X128342376Y-129472419D01*
X128529177Y-129432713D01*
X128703641Y-129355037D01*
X128858142Y-129242785D01*
X128878815Y-129219825D01*
X128985923Y-129100870D01*
X128985924Y-129100868D01*
X128985929Y-129100863D01*
X129025265Y-129032730D01*
X129076646Y-128983739D01*
X129146360Y-128970302D01*
X129212271Y-128996689D01*
X129228019Y-129011422D01*
X129288744Y-129078864D01*
X129288747Y-129078866D01*
X129443248Y-129191118D01*
X129617712Y-129268794D01*
X129804513Y-129308500D01*
X129995487Y-129308500D01*
X130182288Y-129268794D01*
X130356752Y-129191118D01*
X130511253Y-129078866D01*
X130552792Y-129032732D01*
X130639034Y-128936951D01*
X130639035Y-128936949D01*
X130639040Y-128936944D01*
X130734527Y-128771556D01*
X130793542Y-128589928D01*
X130813504Y-128400000D01*
X130793542Y-128210072D01*
X130734527Y-128028444D01*
X130639040Y-127863056D01*
X130639038Y-127863054D01*
X130639034Y-127863048D01*
X130511255Y-127721135D01*
X130356752Y-127608882D01*
X130182288Y-127531206D01*
X129995487Y-127491500D01*
X129804513Y-127491500D01*
X129617711Y-127531206D01*
X129443247Y-127608882D01*
X129288744Y-127721135D01*
X129160965Y-127863048D01*
X129160956Y-127863062D01*
X129121623Y-127931187D01*
X129070240Y-127980180D01*
X129000526Y-127993615D01*
X128934616Y-127967228D01*
X128918869Y-127952496D01*
X128858144Y-127885054D01*
X128703641Y-127772801D01*
X128529177Y-127695125D01*
X128342376Y-127655419D01*
X128151402Y-127655419D01*
X127964600Y-127695125D01*
X127790136Y-127772801D01*
X127635633Y-127885054D01*
X127507854Y-128026967D01*
X127507847Y-128026977D01*
X127412365Y-128192357D01*
X127412362Y-128192363D01*
X127401904Y-128224550D01*
X127353346Y-128373991D01*
X127333385Y-128563919D01*
X123987471Y-128563919D01*
X124042335Y-128502986D01*
X124042336Y-128502984D01*
X124042341Y-128502979D01*
X124137828Y-128337591D01*
X124196843Y-128155963D01*
X124216805Y-127966035D01*
X124196843Y-127776107D01*
X124137828Y-127594479D01*
X124042341Y-127429091D01*
X124042339Y-127429089D01*
X124042335Y-127429083D01*
X123914556Y-127287170D01*
X123760053Y-127174917D01*
X123585589Y-127097241D01*
X123398788Y-127057535D01*
X123207814Y-127057535D01*
X123021012Y-127097241D01*
X122846548Y-127174917D01*
X122692045Y-127287170D01*
X122564266Y-127429083D01*
X122564259Y-127429093D01*
X122468777Y-127594473D01*
X122468774Y-127594479D01*
X122460113Y-127621134D01*
X122409758Y-127776107D01*
X122389797Y-127966034D01*
X121509934Y-127966034D01*
X121493542Y-127810072D01*
X121434527Y-127628444D01*
X121339040Y-127463056D01*
X121339038Y-127463054D01*
X121339034Y-127463048D01*
X121211255Y-127321135D01*
X121056752Y-127208882D01*
X120882288Y-127131206D01*
X120695487Y-127091500D01*
X120504513Y-127091500D01*
X120317711Y-127131206D01*
X120143247Y-127208882D01*
X119988744Y-127321135D01*
X119860965Y-127463048D01*
X119860958Y-127463058D01*
X119765476Y-127628438D01*
X119765473Y-127628445D01*
X119706457Y-127810072D01*
X119686496Y-127999999D01*
X116689770Y-127999999D01*
X116693042Y-127989928D01*
X116713004Y-127800000D01*
X116693042Y-127610072D01*
X116634027Y-127428444D01*
X116538540Y-127263056D01*
X116538538Y-127263054D01*
X116538534Y-127263048D01*
X116410755Y-127121135D01*
X116256252Y-127008882D01*
X116081788Y-126931206D01*
X115894987Y-126891500D01*
X115704013Y-126891500D01*
X115517211Y-126931206D01*
X115342747Y-127008882D01*
X115188244Y-127121135D01*
X115060465Y-127263048D01*
X115060458Y-127263058D01*
X114964976Y-127428438D01*
X114964973Y-127428444D01*
X114964763Y-127429091D01*
X114905957Y-127610072D01*
X114885996Y-127799999D01*
X114905957Y-127989928D01*
X114956754Y-128146262D01*
X114958782Y-128217229D01*
X114938860Y-128259255D01*
X114936459Y-128262558D01*
X114857108Y-128400000D01*
X114840973Y-128427947D01*
X114826499Y-128472489D01*
X114781957Y-128609575D01*
X114761996Y-128799503D01*
X106760657Y-128799503D01*
X106834527Y-128671556D01*
X106893542Y-128489928D01*
X106913504Y-128300000D01*
X106893542Y-128110072D01*
X106834527Y-127928444D01*
X106739040Y-127763056D01*
X106739038Y-127763054D01*
X106739034Y-127763048D01*
X106611255Y-127621135D01*
X106456752Y-127508882D01*
X106282288Y-127431206D01*
X106095487Y-127391500D01*
X105904513Y-127391500D01*
X105717711Y-127431206D01*
X105543247Y-127508882D01*
X105388746Y-127621134D01*
X105305833Y-127713218D01*
X105245387Y-127750457D01*
X105174403Y-127749105D01*
X105115418Y-127709591D01*
X105113153Y-127706629D01*
X105111027Y-127704096D01*
X105111025Y-127704093D01*
X104958407Y-127551475D01*
X104958406Y-127551474D01*
X104958405Y-127551473D01*
X104958402Y-127551471D01*
X104781606Y-127427677D01*
X104781604Y-127427676D01*
X104585995Y-127336462D01*
X104585990Y-127336460D01*
X104377516Y-127280599D01*
X104162500Y-127261788D01*
X103947483Y-127280599D01*
X103739009Y-127336460D01*
X103739004Y-127336462D01*
X103543395Y-127427676D01*
X103543393Y-127427677D01*
X103366597Y-127551471D01*
X103366588Y-127551478D01*
X103213978Y-127704088D01*
X103213975Y-127704092D01*
X103125861Y-127829932D01*
X103070404Y-127874260D01*
X102999784Y-127881569D01*
X102936424Y-127849538D01*
X102900439Y-127788337D01*
X102897931Y-127739729D01*
X102924781Y-127552985D01*
X102914709Y-127341536D01*
X102914708Y-127341531D01*
X102914708Y-127341526D01*
X102864798Y-127135796D01*
X102776856Y-126943229D01*
X102776853Y-126943225D01*
X102776851Y-126943221D01*
X102654064Y-126770791D01*
X102654055Y-126770781D01*
X102622944Y-126741117D01*
X102500846Y-126624697D01*
X102322754Y-126510244D01*
X102126221Y-126431564D01*
X102126220Y-126431563D01*
X102126218Y-126431563D01*
X101918353Y-126391500D01*
X101918349Y-126391500D01*
X101059697Y-126391500D01*
X101059695Y-126391500D01*
X101059677Y-126391501D01*
X100901771Y-126406579D01*
X100901756Y-126406582D01*
X100698635Y-126466223D01*
X100510476Y-126563227D01*
X100344067Y-126694092D01*
X100221724Y-126835283D01*
X100161998Y-126873666D01*
X100091001Y-126873666D01*
X100031275Y-126835282D01*
X100001782Y-126770701D01*
X100000500Y-126752770D01*
X100000500Y-125949999D01*
X109636496Y-125949999D01*
X109656457Y-126139927D01*
X109686526Y-126232470D01*
X109715473Y-126321556D01*
X109715476Y-126321561D01*
X109810958Y-126486941D01*
X109810965Y-126486951D01*
X109938744Y-126628864D01*
X109938747Y-126628866D01*
X110093248Y-126741118D01*
X110267712Y-126818794D01*
X110454513Y-126858500D01*
X110645487Y-126858500D01*
X110832288Y-126818794D01*
X111006752Y-126741118D01*
X111161253Y-126628866D01*
X111289040Y-126486944D01*
X111384527Y-126321556D01*
X111443542Y-126139928D01*
X111463504Y-125950000D01*
X111443542Y-125760072D01*
X111384527Y-125578444D01*
X111289040Y-125413056D01*
X111289038Y-125413054D01*
X111289034Y-125413048D01*
X111161255Y-125271135D01*
X111006752Y-125158882D01*
X110832288Y-125081206D01*
X110645487Y-125041500D01*
X110454513Y-125041500D01*
X110267711Y-125081206D01*
X110093247Y-125158882D01*
X109938744Y-125271135D01*
X109810965Y-125413048D01*
X109810958Y-125413058D01*
X109715476Y-125578438D01*
X109715473Y-125578445D01*
X109656457Y-125760072D01*
X109636496Y-125949999D01*
X100000500Y-125949999D01*
X100000500Y-124400000D01*
X120286496Y-124400000D01*
X120306457Y-124589927D01*
X120336526Y-124682470D01*
X120365473Y-124771556D01*
X120365476Y-124771561D01*
X120460958Y-124936941D01*
X120460965Y-124936951D01*
X120588744Y-125078864D01*
X120649999Y-125123368D01*
X120743248Y-125191118D01*
X120917712Y-125268794D01*
X121104513Y-125308500D01*
X121295487Y-125308500D01*
X121482288Y-125268794D01*
X121656752Y-125191118D01*
X121811253Y-125078866D01*
X121811255Y-125078864D01*
X121939034Y-124936951D01*
X121939035Y-124936949D01*
X121939040Y-124936944D01*
X122034527Y-124771556D01*
X122093542Y-124589928D01*
X122113504Y-124400000D01*
X122093542Y-124210072D01*
X122034527Y-124028444D01*
X121939040Y-123863056D01*
X121939038Y-123863054D01*
X121939034Y-123863048D01*
X121811255Y-123721135D01*
X121656752Y-123608882D01*
X121482288Y-123531206D01*
X121295487Y-123491500D01*
X121104513Y-123491500D01*
X120917711Y-123531206D01*
X120743247Y-123608882D01*
X120588744Y-123721135D01*
X120460965Y-123863048D01*
X120460958Y-123863058D01*
X120365476Y-124028438D01*
X120365473Y-124028445D01*
X120306457Y-124210072D01*
X120286496Y-124400000D01*
X100000500Y-124400000D01*
X100000500Y-122400000D01*
X128686496Y-122400000D01*
X128706457Y-122589927D01*
X128736526Y-122682470D01*
X128765473Y-122771556D01*
X128765476Y-122771561D01*
X128860958Y-122936941D01*
X128860965Y-122936951D01*
X128988744Y-123078864D01*
X128988747Y-123078866D01*
X129143248Y-123191118D01*
X129317712Y-123268794D01*
X129504513Y-123308500D01*
X129695487Y-123308500D01*
X129882288Y-123268794D01*
X130056752Y-123191118D01*
X130211253Y-123078866D01*
X130339040Y-122936944D01*
X130434527Y-122771556D01*
X130437469Y-122762500D01*
X137148996Y-122762500D01*
X137168957Y-122952427D01*
X137199026Y-123044970D01*
X137227973Y-123134056D01*
X137227976Y-123134061D01*
X137323458Y-123299441D01*
X137323465Y-123299451D01*
X137451244Y-123441364D01*
X137451247Y-123441366D01*
X137605748Y-123553618D01*
X137780212Y-123631294D01*
X137967013Y-123671000D01*
X138157987Y-123671000D01*
X138344788Y-123631294D01*
X138519252Y-123553618D01*
X138673753Y-123441366D01*
X138801540Y-123299444D01*
X138897027Y-123134056D01*
X138956042Y-122952428D01*
X138976004Y-122762500D01*
X138956042Y-122572572D01*
X138897027Y-122390944D01*
X138801540Y-122225556D01*
X138801538Y-122225554D01*
X138801534Y-122225548D01*
X138673755Y-122083635D01*
X138519252Y-121971382D01*
X138344788Y-121893706D01*
X138157987Y-121854000D01*
X137967013Y-121854000D01*
X137780211Y-121893706D01*
X137605747Y-121971382D01*
X137451244Y-122083635D01*
X137323465Y-122225548D01*
X137323458Y-122225558D01*
X137227976Y-122390938D01*
X137227973Y-122390945D01*
X137168957Y-122572572D01*
X137148996Y-122762500D01*
X130437469Y-122762500D01*
X130493542Y-122589928D01*
X130513504Y-122400000D01*
X130493542Y-122210072D01*
X130434527Y-122028444D01*
X130339040Y-121863056D01*
X130339038Y-121863054D01*
X130339034Y-121863048D01*
X130211255Y-121721135D01*
X130056752Y-121608882D01*
X129882288Y-121531206D01*
X129695487Y-121491500D01*
X129504513Y-121491500D01*
X129317711Y-121531206D01*
X129143247Y-121608882D01*
X128988744Y-121721135D01*
X128860965Y-121863048D01*
X128860958Y-121863058D01*
X128765476Y-122028438D01*
X128765473Y-122028445D01*
X128706457Y-122210072D01*
X128686496Y-122400000D01*
X100000500Y-122400000D01*
X100000500Y-120676270D01*
X115286996Y-120676270D01*
X115306957Y-120866198D01*
X115308700Y-120871561D01*
X115365973Y-121047827D01*
X115365976Y-121047832D01*
X115461458Y-121213212D01*
X115461465Y-121213222D01*
X115589244Y-121355135D01*
X115589247Y-121355137D01*
X115743748Y-121467389D01*
X115918212Y-121545065D01*
X116105013Y-121584771D01*
X116295987Y-121584771D01*
X116482788Y-121545065D01*
X116657252Y-121467389D01*
X116811753Y-121355137D01*
X116939540Y-121213215D01*
X117035027Y-121047827D01*
X117094042Y-120866199D01*
X117114004Y-120676271D01*
X117095477Y-120499999D01*
X130086496Y-120499999D01*
X130106457Y-120689927D01*
X130136526Y-120782470D01*
X130165473Y-120871556D01*
X130165476Y-120871561D01*
X130260958Y-121036941D01*
X130260965Y-121036951D01*
X130388744Y-121178864D01*
X130388747Y-121178866D01*
X130543248Y-121291118D01*
X130717712Y-121368794D01*
X130904513Y-121408500D01*
X131095487Y-121408500D01*
X131282288Y-121368794D01*
X131456752Y-121291118D01*
X131611253Y-121178866D01*
X131611255Y-121178864D01*
X131739034Y-121036951D01*
X131739035Y-121036949D01*
X131739040Y-121036944D01*
X131834527Y-120871556D01*
X131893542Y-120689928D01*
X131913504Y-120500000D01*
X131893542Y-120310072D01*
X131834527Y-120128444D01*
X131739040Y-119963056D01*
X131739038Y-119963054D01*
X131739034Y-119963048D01*
X131611255Y-119821135D01*
X131456752Y-119708882D01*
X131282288Y-119631206D01*
X131095487Y-119591500D01*
X130904513Y-119591500D01*
X130717711Y-119631206D01*
X130543247Y-119708882D01*
X130388744Y-119821135D01*
X130260965Y-119963048D01*
X130260958Y-119963058D01*
X130165476Y-120128438D01*
X130165473Y-120128444D01*
X130161937Y-120139327D01*
X130106457Y-120310072D01*
X130086496Y-120499999D01*
X117095477Y-120499999D01*
X117094042Y-120486343D01*
X117035027Y-120304715D01*
X116939540Y-120139327D01*
X116939538Y-120139325D01*
X116939534Y-120139319D01*
X116811755Y-119997406D01*
X116657252Y-119885153D01*
X116482788Y-119807477D01*
X116295987Y-119767771D01*
X116105013Y-119767771D01*
X115918211Y-119807477D01*
X115743747Y-119885153D01*
X115589244Y-119997406D01*
X115461465Y-120139319D01*
X115461458Y-120139329D01*
X115365976Y-120304709D01*
X115365973Y-120304715D01*
X115351499Y-120349257D01*
X115306957Y-120486343D01*
X115286996Y-120676270D01*
X100000500Y-120676270D01*
X100000500Y-118800000D01*
X111086496Y-118800000D01*
X111106457Y-118989927D01*
X111132980Y-119071554D01*
X111165473Y-119171556D01*
X111165476Y-119171561D01*
X111260958Y-119336941D01*
X111260965Y-119336951D01*
X111388744Y-119478864D01*
X111388747Y-119478866D01*
X111543248Y-119591118D01*
X111717712Y-119668794D01*
X111904513Y-119708500D01*
X112095487Y-119708500D01*
X112282288Y-119668794D01*
X112456752Y-119591118D01*
X112611253Y-119478866D01*
X112611255Y-119478864D01*
X112739034Y-119336951D01*
X112739035Y-119336949D01*
X112739040Y-119336944D01*
X112834527Y-119171556D01*
X112893542Y-118989928D01*
X112913504Y-118800000D01*
X112893542Y-118610072D01*
X112834527Y-118428444D01*
X112739040Y-118263056D01*
X112739038Y-118263054D01*
X112739034Y-118263048D01*
X112611255Y-118121135D01*
X112456752Y-118008882D01*
X112419308Y-117992211D01*
X114885996Y-117992211D01*
X114905957Y-118182138D01*
X114908875Y-118191117D01*
X114964973Y-118363767D01*
X114964976Y-118363772D01*
X115060458Y-118529152D01*
X115060465Y-118529162D01*
X115188244Y-118671075D01*
X115188247Y-118671077D01*
X115342748Y-118783329D01*
X115517212Y-118861005D01*
X115704013Y-118900711D01*
X115894987Y-118900711D01*
X116081788Y-118861005D01*
X116256252Y-118783329D01*
X116370944Y-118700000D01*
X141386496Y-118700000D01*
X141406457Y-118889927D01*
X141436526Y-118982470D01*
X141465473Y-119071556D01*
X141465476Y-119071561D01*
X141560958Y-119236941D01*
X141560965Y-119236951D01*
X141688744Y-119378864D01*
X141688747Y-119378866D01*
X141843248Y-119491118D01*
X142017712Y-119568794D01*
X142204513Y-119608500D01*
X142395487Y-119608500D01*
X142582288Y-119568794D01*
X142756752Y-119491118D01*
X142911253Y-119378866D01*
X142911255Y-119378864D01*
X143039034Y-119236951D01*
X143039035Y-119236949D01*
X143039040Y-119236944D01*
X143134527Y-119071556D01*
X143193542Y-118889928D01*
X143213504Y-118700000D01*
X143193542Y-118510072D01*
X143134527Y-118328444D01*
X143039040Y-118163056D01*
X143039038Y-118163054D01*
X143039034Y-118163048D01*
X142911255Y-118021135D01*
X142756752Y-117908882D01*
X142582288Y-117831206D01*
X142395487Y-117791500D01*
X142204513Y-117791500D01*
X142017711Y-117831206D01*
X141843247Y-117908882D01*
X141688744Y-118021135D01*
X141560965Y-118163048D01*
X141560958Y-118163058D01*
X141465476Y-118328438D01*
X141465473Y-118328445D01*
X141406457Y-118510072D01*
X141386496Y-118700000D01*
X116370944Y-118700000D01*
X116410753Y-118671077D01*
X116538540Y-118529155D01*
X116634027Y-118363767D01*
X116693042Y-118182139D01*
X116713004Y-117992211D01*
X116693042Y-117802283D01*
X116634027Y-117620655D01*
X116538540Y-117455267D01*
X116538538Y-117455265D01*
X116538534Y-117455259D01*
X116488779Y-117400000D01*
X134586496Y-117400000D01*
X134606457Y-117589927D01*
X134616442Y-117620656D01*
X134665473Y-117771556D01*
X134665476Y-117771561D01*
X134760958Y-117936941D01*
X134760965Y-117936951D01*
X134888744Y-118078864D01*
X134888747Y-118078866D01*
X135043248Y-118191118D01*
X135217712Y-118268794D01*
X135404513Y-118308500D01*
X135595487Y-118308500D01*
X135782288Y-118268794D01*
X135956752Y-118191118D01*
X136111253Y-118078866D01*
X136174267Y-118008882D01*
X136239034Y-117936951D01*
X136239035Y-117936949D01*
X136239040Y-117936944D01*
X136334527Y-117771556D01*
X136393542Y-117589928D01*
X136413504Y-117400000D01*
X136393542Y-117210072D01*
X136334527Y-117028444D01*
X136239040Y-116863056D01*
X136239038Y-116863054D01*
X136239034Y-116863048D01*
X136111255Y-116721135D01*
X135956752Y-116608882D01*
X135782288Y-116531206D01*
X135595487Y-116491500D01*
X135404513Y-116491500D01*
X135217711Y-116531206D01*
X135043247Y-116608882D01*
X134888744Y-116721135D01*
X134760965Y-116863048D01*
X134760958Y-116863058D01*
X134665476Y-117028438D01*
X134665473Y-117028445D01*
X134606457Y-117210072D01*
X134586496Y-117400000D01*
X116488779Y-117400000D01*
X116410755Y-117313346D01*
X116256252Y-117201093D01*
X116081788Y-117123417D01*
X115894987Y-117083711D01*
X115704013Y-117083711D01*
X115517211Y-117123417D01*
X115342747Y-117201093D01*
X115188244Y-117313346D01*
X115060465Y-117455259D01*
X115060458Y-117455269D01*
X114964976Y-117620649D01*
X114964973Y-117620656D01*
X114905957Y-117802283D01*
X114885996Y-117992211D01*
X112419308Y-117992211D01*
X112282288Y-117931206D01*
X112095487Y-117891500D01*
X111904513Y-117891500D01*
X111717711Y-117931206D01*
X111543247Y-118008882D01*
X111388744Y-118121135D01*
X111260965Y-118263048D01*
X111260958Y-118263058D01*
X111165476Y-118428438D01*
X111165473Y-118428445D01*
X111106457Y-118610072D01*
X111086496Y-118800000D01*
X100000500Y-118800000D01*
X100000500Y-115600000D01*
X138386496Y-115600000D01*
X138406457Y-115789927D01*
X138436526Y-115882470D01*
X138465473Y-115971556D01*
X138465476Y-115971561D01*
X138560958Y-116136941D01*
X138560965Y-116136951D01*
X138688744Y-116278864D01*
X138688747Y-116278866D01*
X138843248Y-116391118D01*
X139017712Y-116468794D01*
X139204513Y-116508500D01*
X139395487Y-116508500D01*
X139582288Y-116468794D01*
X139756752Y-116391118D01*
X139911253Y-116278866D01*
X140039040Y-116136944D01*
X140134527Y-115971556D01*
X140193542Y-115789928D01*
X140213504Y-115600000D01*
X140193542Y-115410072D01*
X140134527Y-115228444D01*
X140039040Y-115063056D01*
X140039038Y-115063054D01*
X140039034Y-115063048D01*
X139911255Y-114921135D01*
X139756752Y-114808882D01*
X139582288Y-114731206D01*
X139395487Y-114691500D01*
X139204513Y-114691500D01*
X139017711Y-114731206D01*
X138843247Y-114808882D01*
X138688744Y-114921135D01*
X138560965Y-115063048D01*
X138560958Y-115063058D01*
X138465476Y-115228438D01*
X138465473Y-115228445D01*
X138406457Y-115410072D01*
X138386496Y-115600000D01*
X100000500Y-115600000D01*
X100000500Y-114500000D01*
X113286496Y-114500000D01*
X113306457Y-114689927D01*
X113319870Y-114731206D01*
X113365473Y-114871556D01*
X113365476Y-114871561D01*
X113460958Y-115036941D01*
X113460965Y-115036951D01*
X113588744Y-115178864D01*
X113588747Y-115178866D01*
X113743248Y-115291118D01*
X113917712Y-115368794D01*
X114104513Y-115408500D01*
X114295487Y-115408500D01*
X114482288Y-115368794D01*
X114656752Y-115291118D01*
X114811253Y-115178866D01*
X114939040Y-115036944D01*
X115034527Y-114871556D01*
X115093542Y-114689928D01*
X115113504Y-114500000D01*
X115093542Y-114310072D01*
X115034527Y-114128444D01*
X114939040Y-113963056D01*
X114939038Y-113963054D01*
X114939034Y-113963048D01*
X114811255Y-113821135D01*
X114656752Y-113708882D01*
X114482288Y-113631206D01*
X114295487Y-113591500D01*
X114104513Y-113591500D01*
X113917711Y-113631206D01*
X113743247Y-113708882D01*
X113588744Y-113821135D01*
X113460965Y-113963048D01*
X113460958Y-113963058D01*
X113365476Y-114128438D01*
X113365473Y-114128445D01*
X113306457Y-114310072D01*
X113286496Y-114500000D01*
X100000500Y-114500000D01*
X100000500Y-105900000D01*
X114986496Y-105900000D01*
X115006457Y-106089927D01*
X115036526Y-106182470D01*
X115065473Y-106271556D01*
X115065476Y-106271561D01*
X115160958Y-106436941D01*
X115160965Y-106436951D01*
X115288744Y-106578864D01*
X115288747Y-106578866D01*
X115443248Y-106691118D01*
X115617712Y-106768794D01*
X115804513Y-106808500D01*
X115995487Y-106808500D01*
X116182288Y-106768794D01*
X116356752Y-106691118D01*
X116511253Y-106578866D01*
X116639040Y-106436944D01*
X116734527Y-106271556D01*
X116793542Y-106089928D01*
X116813504Y-105900000D01*
X116793542Y-105710072D01*
X116734527Y-105528444D01*
X116639040Y-105363056D01*
X116639038Y-105363054D01*
X116639034Y-105363048D01*
X116511255Y-105221135D01*
X116356752Y-105108882D01*
X116182288Y-105031206D01*
X115995487Y-104991500D01*
X115804513Y-104991500D01*
X115617711Y-105031206D01*
X115443247Y-105108882D01*
X115288744Y-105221135D01*
X115160965Y-105363048D01*
X115160958Y-105363058D01*
X115065476Y-105528438D01*
X115065473Y-105528445D01*
X115006457Y-105710072D01*
X114986496Y-105900000D01*
X100000500Y-105900000D01*
X100000500Y-102946022D01*
X123887996Y-102946022D01*
X123907957Y-103135949D01*
X123938026Y-103228492D01*
X123966973Y-103317578D01*
X123966976Y-103317583D01*
X124062458Y-103482963D01*
X124062465Y-103482973D01*
X124190244Y-103624886D01*
X124251499Y-103669390D01*
X124344748Y-103737140D01*
X124519212Y-103814816D01*
X124706013Y-103854522D01*
X124896987Y-103854522D01*
X125083788Y-103814816D01*
X125258252Y-103737140D01*
X125412753Y-103624888D01*
X125483063Y-103546799D01*
X125543508Y-103509561D01*
X125614492Y-103510912D01*
X125670334Y-103546799D01*
X125789247Y-103678866D01*
X125943748Y-103791118D01*
X126118212Y-103868794D01*
X126305013Y-103908500D01*
X126495987Y-103908500D01*
X126682788Y-103868794D01*
X126857252Y-103791118D01*
X127011753Y-103678866D01*
X127139540Y-103536944D01*
X127190026Y-103449500D01*
X132586496Y-103449500D01*
X132606457Y-103639427D01*
X132619272Y-103678866D01*
X132665473Y-103821056D01*
X132665476Y-103821061D01*
X132760958Y-103986441D01*
X132760965Y-103986451D01*
X132888744Y-104128364D01*
X132888747Y-104128366D01*
X133043248Y-104240618D01*
X133217712Y-104318294D01*
X133404513Y-104358000D01*
X133595487Y-104358000D01*
X133782288Y-104318294D01*
X133956752Y-104240618D01*
X134111253Y-104128366D01*
X134239040Y-103986444D01*
X134334527Y-103821056D01*
X134393542Y-103639428D01*
X134413504Y-103449500D01*
X134393542Y-103259572D01*
X134334527Y-103077944D01*
X134239040Y-102912556D01*
X134239038Y-102912554D01*
X134239034Y-102912548D01*
X134111255Y-102770635D01*
X133956752Y-102658382D01*
X133782288Y-102580706D01*
X133595487Y-102541000D01*
X133404513Y-102541000D01*
X133217711Y-102580706D01*
X133043247Y-102658382D01*
X132888744Y-102770635D01*
X132760965Y-102912548D01*
X132760958Y-102912558D01*
X132665476Y-103077938D01*
X132665473Y-103077945D01*
X132606457Y-103259572D01*
X132586496Y-103449500D01*
X127190026Y-103449500D01*
X127235027Y-103371556D01*
X127294042Y-103189928D01*
X127314004Y-103000000D01*
X127294042Y-102810072D01*
X127235027Y-102628444D01*
X127139540Y-102463056D01*
X127139538Y-102463054D01*
X127139534Y-102463048D01*
X127011755Y-102321135D01*
X126857252Y-102208882D01*
X126682788Y-102131206D01*
X126495987Y-102091500D01*
X126305013Y-102091500D01*
X126118211Y-102131206D01*
X125943747Y-102208882D01*
X125789246Y-102321134D01*
X125718936Y-102399221D01*
X125658489Y-102436460D01*
X125587506Y-102435108D01*
X125531664Y-102399221D01*
X125412753Y-102267156D01*
X125258252Y-102154904D01*
X125083788Y-102077228D01*
X124896987Y-102037522D01*
X124706013Y-102037522D01*
X124519211Y-102077228D01*
X124344747Y-102154904D01*
X124190244Y-102267157D01*
X124062465Y-102409070D01*
X124062458Y-102409080D01*
X123966976Y-102574460D01*
X123966973Y-102574466D01*
X123952499Y-102619008D01*
X123907957Y-102756094D01*
X123887996Y-102946022D01*
X100000500Y-102946022D01*
X100000500Y-101399999D01*
X127486496Y-101399999D01*
X127506457Y-101589927D01*
X127536526Y-101682470D01*
X127565473Y-101771556D01*
X127565476Y-101771561D01*
X127660958Y-101936941D01*
X127660965Y-101936951D01*
X127788744Y-102078864D01*
X127788747Y-102078866D01*
X127943248Y-102191118D01*
X128117712Y-102268794D01*
X128304513Y-102308500D01*
X128495487Y-102308500D01*
X128682288Y-102268794D01*
X128856752Y-102191118D01*
X129011253Y-102078866D01*
X129139040Y-101936944D01*
X129234527Y-101771556D01*
X129293542Y-101589928D01*
X129313504Y-101400000D01*
X129293542Y-101210072D01*
X129234527Y-101028444D01*
X129139040Y-100863056D01*
X129139038Y-100863054D01*
X129139034Y-100863048D01*
X129011255Y-100721135D01*
X128856752Y-100608882D01*
X128682288Y-100531206D01*
X128495487Y-100491500D01*
X128304513Y-100491500D01*
X128117711Y-100531206D01*
X127943247Y-100608882D01*
X127788744Y-100721135D01*
X127660965Y-100863048D01*
X127660958Y-100863058D01*
X127565476Y-101028438D01*
X127565473Y-101028445D01*
X127506457Y-101210072D01*
X127486496Y-101399999D01*
X100000500Y-101399999D01*
X100000500Y-98015331D01*
X117271164Y-98015331D01*
X117291125Y-98205259D01*
X117298659Y-98228445D01*
X117350141Y-98386888D01*
X117350144Y-98386893D01*
X117445626Y-98552273D01*
X117445630Y-98552278D01*
X117472273Y-98581868D01*
X117502990Y-98645876D01*
X117494226Y-98716330D01*
X117472278Y-98750485D01*
X117460957Y-98763059D01*
X117365476Y-98928438D01*
X117365473Y-98928445D01*
X117306457Y-99110072D01*
X117286496Y-99299999D01*
X117306457Y-99489927D01*
X117312492Y-99508500D01*
X117365473Y-99671556D01*
X117365476Y-99671561D01*
X117460958Y-99836941D01*
X117460965Y-99836951D01*
X117588744Y-99978864D01*
X117588747Y-99978866D01*
X117743248Y-100091118D01*
X117917712Y-100168794D01*
X118104513Y-100208500D01*
X118295487Y-100208500D01*
X118482288Y-100168794D01*
X118656752Y-100091118D01*
X118811253Y-99978866D01*
X118811255Y-99978864D01*
X118939034Y-99836951D01*
X118939035Y-99836949D01*
X118939040Y-99836944D01*
X119034527Y-99671556D01*
X119093542Y-99489928D01*
X119102825Y-99401609D01*
X123384887Y-99401609D01*
X123386984Y-99421570D01*
X123404848Y-99591536D01*
X123434917Y-99684079D01*
X123463864Y-99773165D01*
X123463867Y-99773170D01*
X123559349Y-99938550D01*
X123559356Y-99938560D01*
X123687135Y-100080473D01*
X123687138Y-100080475D01*
X123841639Y-100192727D01*
X124016103Y-100270403D01*
X124202904Y-100310109D01*
X124393878Y-100310109D01*
X124580679Y-100270403D01*
X124755143Y-100192727D01*
X124909644Y-100080475D01*
X125001135Y-99978864D01*
X125037425Y-99938560D01*
X125037426Y-99938558D01*
X125037431Y-99938553D01*
X125132918Y-99773165D01*
X125189184Y-99599999D01*
X131486496Y-99599999D01*
X131506457Y-99789927D01*
X131536526Y-99882470D01*
X131565473Y-99971556D01*
X131593841Y-100020691D01*
X131660958Y-100136941D01*
X131660965Y-100136951D01*
X131788744Y-100278864D01*
X131788747Y-100278866D01*
X131943248Y-100391118D01*
X132117712Y-100468794D01*
X132304513Y-100508500D01*
X132495487Y-100508500D01*
X132682288Y-100468794D01*
X132856752Y-100391118D01*
X133011253Y-100278866D01*
X133139040Y-100136944D01*
X133234527Y-99971556D01*
X133293542Y-99789928D01*
X133313504Y-99600000D01*
X133293542Y-99410072D01*
X133234527Y-99228444D01*
X133139040Y-99063056D01*
X133139038Y-99063054D01*
X133139034Y-99063048D01*
X133011255Y-98921135D01*
X132982164Y-98899999D01*
X140086496Y-98899999D01*
X140106457Y-99089927D01*
X140136526Y-99182470D01*
X140165473Y-99271556D01*
X140181895Y-99299999D01*
X140260958Y-99436941D01*
X140260965Y-99436951D01*
X140388744Y-99578864D01*
X140388747Y-99578866D01*
X140543248Y-99691118D01*
X140717712Y-99768794D01*
X140904513Y-99808500D01*
X141095487Y-99808500D01*
X141282288Y-99768794D01*
X141456752Y-99691118D01*
X141611253Y-99578866D01*
X141739040Y-99436944D01*
X141834527Y-99271556D01*
X141893542Y-99089928D01*
X141913504Y-98900000D01*
X141893542Y-98710072D01*
X141834527Y-98528444D01*
X141739040Y-98363056D01*
X141739038Y-98363054D01*
X141739034Y-98363048D01*
X141611255Y-98221135D01*
X141456752Y-98108882D01*
X141282288Y-98031206D01*
X141095487Y-97991500D01*
X140904513Y-97991500D01*
X140717711Y-98031206D01*
X140543247Y-98108882D01*
X140388744Y-98221135D01*
X140260965Y-98363048D01*
X140260958Y-98363058D01*
X140165476Y-98528438D01*
X140165473Y-98528444D01*
X140157729Y-98552277D01*
X140106457Y-98710072D01*
X140086496Y-98899999D01*
X132982164Y-98899999D01*
X132856752Y-98808882D01*
X132682288Y-98731206D01*
X132495487Y-98691500D01*
X132304513Y-98691500D01*
X132117711Y-98731206D01*
X131943247Y-98808882D01*
X131788744Y-98921135D01*
X131660965Y-99063048D01*
X131660958Y-99063058D01*
X131565476Y-99228438D01*
X131565473Y-99228445D01*
X131506457Y-99410072D01*
X131486496Y-99599999D01*
X125189184Y-99599999D01*
X125191933Y-99591537D01*
X125211895Y-99401609D01*
X125191933Y-99211681D01*
X125132918Y-99030053D01*
X125037431Y-98864665D01*
X125037429Y-98864663D01*
X125037425Y-98864657D01*
X124909646Y-98722744D01*
X124755143Y-98610491D01*
X124731580Y-98600000D01*
X127486496Y-98600000D01*
X127506457Y-98789927D01*
X127530739Y-98864657D01*
X127565473Y-98971556D01*
X127565476Y-98971561D01*
X127660958Y-99136941D01*
X127660965Y-99136951D01*
X127788744Y-99278864D01*
X127788747Y-99278866D01*
X127943248Y-99391118D01*
X128117712Y-99468794D01*
X128304513Y-99508500D01*
X128495487Y-99508500D01*
X128682288Y-99468794D01*
X128856752Y-99391118D01*
X129011253Y-99278866D01*
X129011255Y-99278864D01*
X129139034Y-99136951D01*
X129139035Y-99136949D01*
X129139040Y-99136944D01*
X129234527Y-98971556D01*
X129293542Y-98789928D01*
X129313504Y-98600000D01*
X129293542Y-98410072D01*
X129234527Y-98228444D01*
X129167874Y-98112999D01*
X129151137Y-98044005D01*
X129167875Y-97987000D01*
X129234527Y-97871556D01*
X129293542Y-97689928D01*
X129313504Y-97500000D01*
X129293542Y-97310072D01*
X129234527Y-97128444D01*
X129139040Y-96963056D01*
X129139038Y-96963054D01*
X129139034Y-96963048D01*
X129011255Y-96821135D01*
X128856752Y-96708882D01*
X128682288Y-96631206D01*
X128495487Y-96591500D01*
X128304513Y-96591500D01*
X128117711Y-96631206D01*
X127943247Y-96708882D01*
X127788744Y-96821135D01*
X127660965Y-96963048D01*
X127660958Y-96963058D01*
X127565476Y-97128438D01*
X127565473Y-97128445D01*
X127506457Y-97310072D01*
X127486496Y-97500000D01*
X127506457Y-97689927D01*
X127519332Y-97729550D01*
X127565473Y-97871556D01*
X127565476Y-97871561D01*
X127632124Y-97987000D01*
X127648862Y-98055996D01*
X127632124Y-98113000D01*
X127565476Y-98228438D01*
X127565473Y-98228445D01*
X127506457Y-98410072D01*
X127486496Y-98600000D01*
X124731580Y-98600000D01*
X124580679Y-98532815D01*
X124393878Y-98493109D01*
X124202904Y-98493109D01*
X124016102Y-98532815D01*
X123841638Y-98610491D01*
X123687135Y-98722744D01*
X123559356Y-98864657D01*
X123559349Y-98864667D01*
X123463867Y-99030047D01*
X123463864Y-99030054D01*
X123404848Y-99211681D01*
X123384887Y-99401608D01*
X123384887Y-99401609D01*
X119102825Y-99401609D01*
X119113504Y-99300000D01*
X119093542Y-99110072D01*
X119034527Y-98928444D01*
X118939040Y-98763056D01*
X118912393Y-98733462D01*
X118881677Y-98669455D01*
X118890440Y-98599002D01*
X118912394Y-98564841D01*
X118923708Y-98552276D01*
X119019195Y-98386888D01*
X119078210Y-98205260D01*
X119098172Y-98015332D01*
X119078210Y-97825404D01*
X119019195Y-97643776D01*
X118923708Y-97478388D01*
X118923706Y-97478386D01*
X118923702Y-97478380D01*
X118795923Y-97336467D01*
X118641420Y-97224214D01*
X118466956Y-97146538D01*
X118280155Y-97106832D01*
X118089181Y-97106832D01*
X117902379Y-97146538D01*
X117727915Y-97224214D01*
X117573412Y-97336467D01*
X117445633Y-97478380D01*
X117445626Y-97478390D01*
X117350144Y-97643770D01*
X117350141Y-97643776D01*
X117335667Y-97688318D01*
X117291125Y-97825404D01*
X117271164Y-98015331D01*
X100000500Y-98015331D01*
X100000500Y-97000000D01*
X109686496Y-97000000D01*
X109706457Y-97189927D01*
X109720231Y-97232318D01*
X109765473Y-97371556D01*
X109765476Y-97371561D01*
X109860958Y-97536941D01*
X109860965Y-97536951D01*
X109988744Y-97678864D01*
X109988747Y-97678866D01*
X110143248Y-97791118D01*
X110317712Y-97868794D01*
X110504513Y-97908500D01*
X110695487Y-97908500D01*
X110882288Y-97868794D01*
X111056752Y-97791118D01*
X111211253Y-97678866D01*
X111339040Y-97536944D01*
X111434527Y-97371556D01*
X111493542Y-97189928D01*
X111513504Y-97000000D01*
X111493542Y-96810072D01*
X111434527Y-96628444D01*
X111339040Y-96463056D01*
X111339038Y-96463054D01*
X111339034Y-96463048D01*
X111211255Y-96321135D01*
X111056752Y-96208882D01*
X110882288Y-96131206D01*
X110695487Y-96091500D01*
X110504513Y-96091500D01*
X110317711Y-96131206D01*
X110143247Y-96208882D01*
X109988744Y-96321135D01*
X109860965Y-96463048D01*
X109860958Y-96463058D01*
X109765476Y-96628438D01*
X109765473Y-96628445D01*
X109706457Y-96810072D01*
X109686496Y-97000000D01*
X100000500Y-97000000D01*
X100000500Y-95200000D01*
X124086496Y-95200000D01*
X124106457Y-95389927D01*
X124112454Y-95408382D01*
X124165473Y-95571556D01*
X124165476Y-95571561D01*
X124260958Y-95736941D01*
X124260965Y-95736951D01*
X124388744Y-95878864D01*
X124388747Y-95878866D01*
X124543248Y-95991118D01*
X124717712Y-96068794D01*
X124904513Y-96108500D01*
X125095487Y-96108500D01*
X125282288Y-96068794D01*
X125456752Y-95991118D01*
X125468760Y-95982393D01*
X125535625Y-95958532D01*
X125604777Y-95974609D01*
X125651943Y-96021326D01*
X125660958Y-96036941D01*
X125660965Y-96036951D01*
X125788744Y-96178864D01*
X125792912Y-96181892D01*
X125943248Y-96291118D01*
X126117712Y-96368794D01*
X126304513Y-96408500D01*
X126495487Y-96408500D01*
X126682288Y-96368794D01*
X126856752Y-96291118D01*
X126982854Y-96199499D01*
X132986496Y-96199499D01*
X133006457Y-96389427D01*
X133030379Y-96463048D01*
X133065473Y-96571056D01*
X133065476Y-96571061D01*
X133160958Y-96736441D01*
X133160965Y-96736451D01*
X133288744Y-96878364D01*
X133288747Y-96878366D01*
X133443248Y-96990618D01*
X133617712Y-97068294D01*
X133804513Y-97108000D01*
X133995487Y-97108000D01*
X134182288Y-97068294D01*
X134356752Y-96990618D01*
X134511253Y-96878366D01*
X134527108Y-96860757D01*
X146647253Y-96860757D01*
X146667214Y-97050684D01*
X146685458Y-97106832D01*
X146726230Y-97232313D01*
X146726233Y-97232318D01*
X146821715Y-97397698D01*
X146821722Y-97397708D01*
X146949501Y-97539621D01*
X146949504Y-97539623D01*
X147104005Y-97651875D01*
X147278469Y-97729551D01*
X147465270Y-97769257D01*
X147656244Y-97769257D01*
X147843045Y-97729551D01*
X148017509Y-97651875D01*
X148172010Y-97539623D01*
X148207687Y-97500000D01*
X148299791Y-97397708D01*
X148299792Y-97397706D01*
X148299797Y-97397701D01*
X148395284Y-97232313D01*
X148454299Y-97050685D01*
X148474261Y-96860757D01*
X148454299Y-96670829D01*
X148395284Y-96489201D01*
X148299797Y-96323813D01*
X148299795Y-96323811D01*
X148299791Y-96323805D01*
X148172012Y-96181892D01*
X148017509Y-96069639D01*
X147843045Y-95991963D01*
X147656244Y-95952257D01*
X147465270Y-95952257D01*
X147278468Y-95991963D01*
X147104004Y-96069639D01*
X146949501Y-96181892D01*
X146821722Y-96323805D01*
X146821715Y-96323815D01*
X146726233Y-96489195D01*
X146726230Y-96489202D01*
X146667214Y-96670829D01*
X146647253Y-96860757D01*
X134527108Y-96860757D01*
X134639040Y-96736444D01*
X134734527Y-96571056D01*
X134793542Y-96389428D01*
X134813504Y-96199500D01*
X134793542Y-96009572D01*
X134734527Y-95827944D01*
X134639040Y-95662556D01*
X134639038Y-95662554D01*
X134639034Y-95662548D01*
X134511255Y-95520635D01*
X134356752Y-95408382D01*
X134182288Y-95330706D01*
X133995487Y-95291000D01*
X133804513Y-95291000D01*
X133617711Y-95330706D01*
X133443247Y-95408382D01*
X133288744Y-95520635D01*
X133160965Y-95662548D01*
X133160958Y-95662558D01*
X133065476Y-95827938D01*
X133065473Y-95827945D01*
X133006457Y-96009572D01*
X132986496Y-96199499D01*
X126982854Y-96199499D01*
X127011253Y-96178866D01*
X127089918Y-96091500D01*
X127139034Y-96036951D01*
X127139035Y-96036949D01*
X127139040Y-96036944D01*
X127234527Y-95871556D01*
X127293542Y-95689928D01*
X127313504Y-95500000D01*
X127293542Y-95310072D01*
X127234527Y-95128444D01*
X127139040Y-94963056D01*
X127139038Y-94963054D01*
X127139034Y-94963048D01*
X127011255Y-94821135D01*
X126856752Y-94708882D01*
X126682288Y-94631206D01*
X126495487Y-94591500D01*
X126304513Y-94591500D01*
X126117711Y-94631206D01*
X125943242Y-94708884D01*
X125943241Y-94708885D01*
X125931234Y-94717609D01*
X125864366Y-94741467D01*
X125795215Y-94725385D01*
X125748054Y-94678669D01*
X125739039Y-94663054D01*
X125611255Y-94521135D01*
X125456752Y-94408882D01*
X125282288Y-94331206D01*
X125095487Y-94291500D01*
X124904513Y-94291500D01*
X124717711Y-94331206D01*
X124543247Y-94408882D01*
X124388744Y-94521135D01*
X124260965Y-94663048D01*
X124260958Y-94663058D01*
X124165476Y-94828438D01*
X124165473Y-94828445D01*
X124106457Y-95010072D01*
X124086496Y-95200000D01*
X100000500Y-95200000D01*
X100000500Y-94100499D01*
X114486996Y-94100499D01*
X114506957Y-94290427D01*
X114533318Y-94371554D01*
X114565973Y-94472056D01*
X114565976Y-94472061D01*
X114661458Y-94637441D01*
X114661465Y-94637451D01*
X114789244Y-94779364D01*
X114789247Y-94779366D01*
X114943748Y-94891618D01*
X115118212Y-94969294D01*
X115305013Y-95009000D01*
X115495987Y-95009000D01*
X115682788Y-94969294D01*
X115857252Y-94891618D01*
X116011753Y-94779366D01*
X116011755Y-94779364D01*
X116139534Y-94637451D01*
X116139535Y-94637449D01*
X116139540Y-94637444D01*
X116235027Y-94472056D01*
X116294042Y-94290428D01*
X116314004Y-94100500D01*
X116294042Y-93910572D01*
X116235027Y-93728944D01*
X116160869Y-93600499D01*
X141486496Y-93600499D01*
X141506457Y-93790427D01*
X141536526Y-93882970D01*
X141565473Y-93972056D01*
X141565476Y-93972061D01*
X141660958Y-94137441D01*
X141660965Y-94137451D01*
X141788744Y-94279364D01*
X141788747Y-94279366D01*
X141943248Y-94391618D01*
X142117712Y-94469294D01*
X142304513Y-94509000D01*
X142495487Y-94509000D01*
X142682288Y-94469294D01*
X142856752Y-94391618D01*
X142975939Y-94305022D01*
X143042807Y-94281165D01*
X143111958Y-94297245D01*
X143124058Y-94305021D01*
X143243248Y-94391618D01*
X143417712Y-94469294D01*
X143604513Y-94509000D01*
X143795487Y-94509000D01*
X143982288Y-94469294D01*
X144156752Y-94391618D01*
X144311253Y-94279366D01*
X144350000Y-94236333D01*
X144439034Y-94137451D01*
X144439035Y-94137449D01*
X144439040Y-94137444D01*
X144518394Y-93999999D01*
X145286496Y-93999999D01*
X145306457Y-94189927D01*
X145321536Y-94236333D01*
X145365473Y-94371556D01*
X145365476Y-94371561D01*
X145460958Y-94536941D01*
X145460965Y-94536951D01*
X145588744Y-94678864D01*
X145588747Y-94678866D01*
X145743248Y-94791118D01*
X145917712Y-94868794D01*
X146104513Y-94908500D01*
X146295487Y-94908500D01*
X146482288Y-94868794D01*
X146656752Y-94791118D01*
X146811253Y-94678866D01*
X146811255Y-94678864D01*
X146939034Y-94536951D01*
X146939035Y-94536949D01*
X146939040Y-94536944D01*
X147034527Y-94371556D01*
X147093542Y-94189928D01*
X147113504Y-94000000D01*
X147093542Y-93810072D01*
X147034527Y-93628444D01*
X146939040Y-93463056D01*
X146939038Y-93463054D01*
X146939034Y-93463048D01*
X146811255Y-93321135D01*
X146656752Y-93208882D01*
X146482288Y-93131206D01*
X146295487Y-93091500D01*
X146104513Y-93091500D01*
X145917711Y-93131206D01*
X145743247Y-93208882D01*
X145588744Y-93321135D01*
X145460965Y-93463048D01*
X145460958Y-93463058D01*
X145365476Y-93628438D01*
X145365473Y-93628445D01*
X145306457Y-93810072D01*
X145286496Y-93999999D01*
X144518394Y-93999999D01*
X144534527Y-93972056D01*
X144593542Y-93790428D01*
X144613504Y-93600500D01*
X144593542Y-93410572D01*
X144534527Y-93228944D01*
X144439040Y-93063556D01*
X144439038Y-93063554D01*
X144439034Y-93063548D01*
X144311255Y-92921635D01*
X144156752Y-92809382D01*
X143982288Y-92731706D01*
X143795487Y-92692000D01*
X143604513Y-92692000D01*
X143417711Y-92731706D01*
X143243247Y-92809382D01*
X143124061Y-92895976D01*
X143057193Y-92919835D01*
X142988041Y-92903754D01*
X142975939Y-92895976D01*
X142856752Y-92809382D01*
X142682288Y-92731706D01*
X142495487Y-92692000D01*
X142304513Y-92692000D01*
X142117711Y-92731706D01*
X141943247Y-92809382D01*
X141788744Y-92921635D01*
X141660965Y-93063548D01*
X141660958Y-93063558D01*
X141565476Y-93228938D01*
X141565473Y-93228945D01*
X141506457Y-93410572D01*
X141486496Y-93600499D01*
X116160869Y-93600499D01*
X116139540Y-93563556D01*
X116139538Y-93563554D01*
X116139534Y-93563548D01*
X116011755Y-93421635D01*
X115857252Y-93309382D01*
X115682788Y-93231706D01*
X115495987Y-93192000D01*
X115305013Y-93192000D01*
X115118211Y-93231706D01*
X114943747Y-93309382D01*
X114789244Y-93421635D01*
X114661465Y-93563548D01*
X114661458Y-93563558D01*
X114565976Y-93728938D01*
X114565973Y-93728945D01*
X114506957Y-93910572D01*
X114486996Y-94100499D01*
X100000500Y-94100499D01*
X100000500Y-89047674D01*
X110131499Y-89047674D01*
X110131500Y-89673558D01*
X110146415Y-89848805D01*
X110146417Y-89848818D01*
X110205540Y-90075884D01*
X110205543Y-90075891D01*
X110205544Y-90075894D01*
X110302199Y-90289718D01*
X110433600Y-90484132D01*
X110433602Y-90484134D01*
X110433605Y-90484138D01*
X110518091Y-90572289D01*
X110595967Y-90653543D01*
X110784629Y-90793077D01*
X110994159Y-90898720D01*
X111218529Y-90967432D01*
X111451283Y-90997237D01*
X111685727Y-90987278D01*
X111915116Y-90937841D01*
X112132850Y-90850349D01*
X112332665Y-90727317D01*
X112508815Y-90572286D01*
X112656230Y-90389716D01*
X112671167Y-90362976D01*
X112721848Y-90313262D01*
X112791365Y-90298839D01*
X112857643Y-90324290D01*
X112885556Y-90353867D01*
X112973600Y-90484132D01*
X112973602Y-90484134D01*
X112973605Y-90484138D01*
X113058091Y-90572289D01*
X113135967Y-90653543D01*
X113324629Y-90793077D01*
X113534159Y-90898720D01*
X113758529Y-90967432D01*
X113991283Y-90997237D01*
X114225727Y-90987278D01*
X114455116Y-90937841D01*
X114672850Y-90850349D01*
X114872665Y-90727317D01*
X115048815Y-90572286D01*
X115196230Y-90389716D01*
X115211167Y-90362976D01*
X115261848Y-90313262D01*
X115331365Y-90298839D01*
X115397643Y-90324290D01*
X115425556Y-90353867D01*
X115513600Y-90484132D01*
X115513602Y-90484134D01*
X115513605Y-90484138D01*
X115598091Y-90572289D01*
X115675967Y-90653543D01*
X115864629Y-90793077D01*
X116074159Y-90898720D01*
X116298529Y-90967432D01*
X116531283Y-90997237D01*
X116765727Y-90987278D01*
X116995116Y-90937841D01*
X117212850Y-90850349D01*
X117412665Y-90727317D01*
X117588815Y-90572286D01*
X117647182Y-90500000D01*
X118986496Y-90500000D01*
X119006457Y-90689927D01*
X119018607Y-90727319D01*
X119065473Y-90871556D01*
X119065476Y-90871561D01*
X119160958Y-91036941D01*
X119160965Y-91036951D01*
X119288744Y-91178864D01*
X119288747Y-91178866D01*
X119443248Y-91291118D01*
X119617712Y-91368794D01*
X119804513Y-91408500D01*
X119995487Y-91408500D01*
X120182288Y-91368794D01*
X120356752Y-91291118D01*
X120511253Y-91178866D01*
X120639040Y-91036944D01*
X120734527Y-90871556D01*
X120793542Y-90689928D01*
X120813504Y-90500000D01*
X120793542Y-90310072D01*
X120734527Y-90128444D01*
X120639040Y-89963056D01*
X120639038Y-89963054D01*
X120639034Y-89963048D01*
X120511255Y-89821135D01*
X120356752Y-89708882D01*
X120336803Y-89700000D01*
X125686496Y-89700000D01*
X125706457Y-89889927D01*
X125730398Y-89963608D01*
X125765473Y-90071556D01*
X125765476Y-90071561D01*
X125860958Y-90236941D01*
X125860965Y-90236951D01*
X125988744Y-90378864D01*
X126049999Y-90423368D01*
X126143248Y-90491118D01*
X126317712Y-90568794D01*
X126504513Y-90608500D01*
X126695487Y-90608500D01*
X126882288Y-90568794D01*
X127056752Y-90491118D01*
X127211253Y-90378866D01*
X127225558Y-90362979D01*
X127339034Y-90236951D01*
X127339035Y-90236949D01*
X127339040Y-90236944D01*
X127434527Y-90071556D01*
X127493542Y-89889928D01*
X127513504Y-89700000D01*
X127493542Y-89510072D01*
X127434527Y-89328444D01*
X127339040Y-89163056D01*
X127339038Y-89163054D01*
X127339034Y-89163048D01*
X127211255Y-89021135D01*
X127056752Y-88908882D01*
X126882288Y-88831206D01*
X126695487Y-88791500D01*
X126504513Y-88791500D01*
X126317711Y-88831206D01*
X126143247Y-88908882D01*
X125988744Y-89021135D01*
X125860965Y-89163048D01*
X125860958Y-89163058D01*
X125765476Y-89328438D01*
X125765473Y-89328445D01*
X125706457Y-89510072D01*
X125686496Y-89700000D01*
X120336803Y-89700000D01*
X120182288Y-89631206D01*
X119995487Y-89591500D01*
X119804513Y-89591500D01*
X119617711Y-89631206D01*
X119443247Y-89708882D01*
X119288744Y-89821135D01*
X119160965Y-89963048D01*
X119160958Y-89963058D01*
X119065476Y-90128438D01*
X119065473Y-90128445D01*
X119006457Y-90310072D01*
X118986496Y-90500000D01*
X117647182Y-90500000D01*
X117736230Y-90389716D01*
X117850670Y-90184859D01*
X117928843Y-89963608D01*
X117968500Y-89732328D01*
X117968500Y-89106442D01*
X117953584Y-88931190D01*
X117953582Y-88931181D01*
X117894459Y-88704115D01*
X117894457Y-88704111D01*
X117894456Y-88704106D01*
X117797801Y-88490282D01*
X117666400Y-88295868D01*
X117666396Y-88295864D01*
X117666394Y-88295861D01*
X117504035Y-88126459D01*
X117504034Y-88126458D01*
X117504033Y-88126457D01*
X117315371Y-87986923D01*
X117105841Y-87881280D01*
X117105835Y-87881278D01*
X117105830Y-87881276D01*
X116881471Y-87812568D01*
X116881470Y-87812568D01*
X116648717Y-87782763D01*
X116648713Y-87782763D01*
X116648705Y-87782762D01*
X116414272Y-87792721D01*
X116184881Y-87842159D01*
X115967147Y-87929652D01*
X115967143Y-87929654D01*
X115767337Y-88052680D01*
X115591188Y-88207710D01*
X115443771Y-88390283D01*
X115428832Y-88417025D01*
X115378147Y-88466739D01*
X115308630Y-88481159D01*
X115242352Y-88455707D01*
X115214443Y-88426132D01*
X115126400Y-88295868D01*
X115126394Y-88295861D01*
X114964035Y-88126459D01*
X114964034Y-88126458D01*
X114964033Y-88126457D01*
X114775371Y-87986923D01*
X114565841Y-87881280D01*
X114565835Y-87881278D01*
X114565830Y-87881276D01*
X114341471Y-87812568D01*
X114108717Y-87782763D01*
X114108713Y-87782763D01*
X114108705Y-87782762D01*
X113874272Y-87792721D01*
X113644881Y-87842159D01*
X113427149Y-87929651D01*
X113255858Y-88035120D01*
X113187364Y-88053804D01*
X113119642Y-88032491D01*
X113074193Y-87977948D01*
X113065447Y-87907492D01*
X113080673Y-87864832D01*
X113134527Y-87771556D01*
X113193542Y-87589928D01*
X113213504Y-87400000D01*
X113193542Y-87210072D01*
X113190269Y-87200000D01*
X119186496Y-87200000D01*
X119206457Y-87389927D01*
X119236526Y-87482470D01*
X119265473Y-87571556D01*
X119265476Y-87571561D01*
X119360958Y-87736941D01*
X119360965Y-87736951D01*
X119488744Y-87878864D01*
X119528147Y-87907492D01*
X119643248Y-87991118D01*
X119817712Y-88068794D01*
X120004513Y-88108500D01*
X120195487Y-88108500D01*
X120382288Y-88068794D01*
X120556752Y-87991118D01*
X120711253Y-87878866D01*
X120770948Y-87812568D01*
X120839034Y-87736951D01*
X120839035Y-87736949D01*
X120839040Y-87736944D01*
X120934527Y-87571556D01*
X120993542Y-87389928D01*
X121013504Y-87200000D01*
X120993542Y-87010072D01*
X120934527Y-86828444D01*
X120839040Y-86663056D01*
X120839038Y-86663054D01*
X120839034Y-86663048D01*
X120711255Y-86521135D01*
X120556752Y-86408882D01*
X120382288Y-86331206D01*
X120195487Y-86291500D01*
X120004513Y-86291500D01*
X119817711Y-86331206D01*
X119643247Y-86408882D01*
X119488744Y-86521135D01*
X119360965Y-86663048D01*
X119360958Y-86663058D01*
X119265476Y-86828438D01*
X119265473Y-86828445D01*
X119206457Y-87010072D01*
X119186496Y-87200000D01*
X113190269Y-87200000D01*
X113134527Y-87028444D01*
X113039040Y-86863056D01*
X113039038Y-86863054D01*
X113039034Y-86863048D01*
X112911255Y-86721135D01*
X112756752Y-86608882D01*
X112582288Y-86531206D01*
X112395487Y-86491500D01*
X112204513Y-86491500D01*
X112017711Y-86531206D01*
X111843247Y-86608882D01*
X111688744Y-86721135D01*
X111560965Y-86863048D01*
X111560958Y-86863058D01*
X111465476Y-87028438D01*
X111465473Y-87028445D01*
X111406457Y-87210072D01*
X111386496Y-87400000D01*
X111406457Y-87589927D01*
X111420193Y-87632200D01*
X111422221Y-87703168D01*
X111385558Y-87763966D01*
X111326906Y-87794309D01*
X111104881Y-87842159D01*
X110887147Y-87929652D01*
X110887143Y-87929654D01*
X110687337Y-88052680D01*
X110511188Y-88207710D01*
X110511184Y-88207714D01*
X110511185Y-88207714D01*
X110363770Y-88390284D01*
X110327223Y-88455707D01*
X110249329Y-88595142D01*
X110171158Y-88816385D01*
X110131499Y-89047674D01*
X100000500Y-89047674D01*
X100000500Y-80700000D01*
X110486494Y-80700000D01*
X110506455Y-80889927D01*
X110536524Y-80982470D01*
X110565471Y-81071556D01*
X110565474Y-81071561D01*
X110660956Y-81236941D01*
X110660963Y-81236951D01*
X110788742Y-81378864D01*
X110788745Y-81378866D01*
X110943246Y-81491118D01*
X111117710Y-81568794D01*
X111304511Y-81608500D01*
X111495485Y-81608500D01*
X111682286Y-81568794D01*
X111856750Y-81491118D01*
X112011251Y-81378866D01*
X112139038Y-81236944D01*
X112234525Y-81071556D01*
X112293540Y-80889928D01*
X112313502Y-80700000D01*
X112293540Y-80510072D01*
X112234525Y-80328444D01*
X112139038Y-80163056D01*
X112139036Y-80163054D01*
X112139032Y-80163048D01*
X112113157Y-80134312D01*
X112082439Y-80070305D01*
X112091202Y-79999851D01*
X112113154Y-79965692D01*
X112139040Y-79936944D01*
X112234527Y-79771556D01*
X112293542Y-79589928D01*
X112313504Y-79400000D01*
X112293542Y-79210072D01*
X112234527Y-79028444D01*
X112139040Y-78863056D01*
X112139038Y-78863054D01*
X112139034Y-78863048D01*
X112011255Y-78721135D01*
X111856752Y-78608882D01*
X111682288Y-78531206D01*
X111495487Y-78491500D01*
X111304513Y-78491500D01*
X111117711Y-78531206D01*
X110943247Y-78608882D01*
X110788744Y-78721135D01*
X110660965Y-78863048D01*
X110660958Y-78863058D01*
X110565476Y-79028438D01*
X110565473Y-79028445D01*
X110506457Y-79210072D01*
X110486496Y-79399999D01*
X110506457Y-79589927D01*
X110531356Y-79666556D01*
X110565473Y-79771556D01*
X110660960Y-79936944D01*
X110686841Y-79965688D01*
X110717558Y-80029694D01*
X110708795Y-80100148D01*
X110686843Y-80134307D01*
X110660955Y-80163059D01*
X110565474Y-80328438D01*
X110565471Y-80328445D01*
X110506455Y-80510072D01*
X110486494Y-80700000D01*
X100000500Y-80700000D01*
X100000500Y-79399999D01*
X103386496Y-79399999D01*
X103406457Y-79589927D01*
X103431356Y-79666556D01*
X103465473Y-79771556D01*
X103465476Y-79771561D01*
X103560958Y-79936941D01*
X103560965Y-79936951D01*
X103688744Y-80078864D01*
X103688747Y-80078866D01*
X103843248Y-80191118D01*
X104017712Y-80268794D01*
X104204513Y-80308500D01*
X104395487Y-80308500D01*
X104582288Y-80268794D01*
X104756752Y-80191118D01*
X104911253Y-80078866D01*
X104911255Y-80078864D01*
X105039034Y-79936951D01*
X105039035Y-79936949D01*
X105039040Y-79936944D01*
X105134527Y-79771556D01*
X105193542Y-79589928D01*
X105213504Y-79400000D01*
X105202468Y-79295000D01*
X107881496Y-79295000D01*
X107901457Y-79484927D01*
X107931526Y-79577470D01*
X107960473Y-79666556D01*
X107960476Y-79666561D01*
X108055958Y-79831941D01*
X108055965Y-79831951D01*
X108183744Y-79973864D01*
X108183747Y-79973866D01*
X108338248Y-80086118D01*
X108512712Y-80163794D01*
X108699513Y-80203500D01*
X108890487Y-80203500D01*
X109077288Y-80163794D01*
X109251752Y-80086118D01*
X109406253Y-79973866D01*
X109413616Y-79965689D01*
X109534034Y-79831951D01*
X109534035Y-79831949D01*
X109534040Y-79831944D01*
X109629527Y-79666556D01*
X109688542Y-79484928D01*
X109708504Y-79295000D01*
X109688542Y-79105072D01*
X109629527Y-78923444D01*
X109534040Y-78758056D01*
X109534038Y-78758054D01*
X109534034Y-78758048D01*
X109406255Y-78616135D01*
X109251752Y-78503882D01*
X109077288Y-78426206D01*
X108890487Y-78386500D01*
X108699513Y-78386500D01*
X108512711Y-78426206D01*
X108338247Y-78503882D01*
X108183744Y-78616135D01*
X108055965Y-78758048D01*
X108055958Y-78758058D01*
X107960476Y-78923438D01*
X107960473Y-78923445D01*
X107901457Y-79105072D01*
X107881496Y-79295000D01*
X105202468Y-79295000D01*
X105193542Y-79210072D01*
X105134527Y-79028444D01*
X105039040Y-78863056D01*
X105039038Y-78863054D01*
X105039034Y-78863048D01*
X104911255Y-78721135D01*
X104756752Y-78608882D01*
X104582288Y-78531206D01*
X104395487Y-78491500D01*
X104204513Y-78491500D01*
X104017711Y-78531206D01*
X103843247Y-78608882D01*
X103688744Y-78721135D01*
X103560965Y-78863048D01*
X103560958Y-78863058D01*
X103465476Y-79028438D01*
X103465473Y-79028445D01*
X103406457Y-79210072D01*
X103386496Y-79399999D01*
X100000500Y-79399999D01*
X100000500Y-50126500D01*
X100020502Y-50058379D01*
X100074158Y-50011886D01*
X100126500Y-50000500D01*
X115373500Y-50000500D01*
X115441621Y-50020502D01*
G37*
%TD.AperFunction*%
%TD*%
%TA.AperFunction,Conductor*%
%TO.N,GND*%
G36*
X199941621Y-50020502D02*
G01*
X199988114Y-50074158D01*
X199999500Y-50126500D01*
X199999499Y-73060500D01*
X199979497Y-73128621D01*
X199925841Y-73175114D01*
X199873499Y-73186500D01*
X191525990Y-73186500D01*
X191437267Y-73196039D01*
X191416851Y-73198234D01*
X191416848Y-73198234D01*
X191416844Y-73198235D01*
X191416840Y-73198235D01*
X191364519Y-73209617D01*
X191364498Y-73209623D01*
X191260345Y-73244288D01*
X191137385Y-73323310D01*
X191085019Y-73368685D01*
X191083904Y-73369599D01*
X190988019Y-73480258D01*
X190988017Y-73480261D01*
X190927301Y-73613210D01*
X190907302Y-73681322D01*
X190907300Y-73681329D01*
X190886500Y-73826003D01*
X190886500Y-86074009D01*
X190887825Y-86086329D01*
X190895878Y-86161238D01*
X190898235Y-86183155D01*
X190898235Y-86183159D01*
X190909617Y-86235480D01*
X190909623Y-86235501D01*
X190944288Y-86339654D01*
X190944290Y-86339657D01*
X191023308Y-86462612D01*
X191023311Y-86462615D01*
X191023315Y-86462621D01*
X191068685Y-86514981D01*
X191069601Y-86516097D01*
X191180258Y-86611980D01*
X191180261Y-86611982D01*
X191313210Y-86672698D01*
X191381331Y-86692700D01*
X191526000Y-86713500D01*
X192060500Y-86713500D01*
X192128621Y-86733502D01*
X192175114Y-86787158D01*
X192186500Y-86839500D01*
X192186500Y-91660500D01*
X192166498Y-91728621D01*
X192112842Y-91775114D01*
X192060500Y-91786500D01*
X185825990Y-91786500D01*
X185737267Y-91796039D01*
X185716851Y-91798234D01*
X185716848Y-91798234D01*
X185716844Y-91798235D01*
X185716840Y-91798235D01*
X185664519Y-91809617D01*
X185664498Y-91809623D01*
X185560345Y-91844288D01*
X185437385Y-91923310D01*
X185385019Y-91968685D01*
X185383904Y-91969599D01*
X185288019Y-92080258D01*
X185288017Y-92080261D01*
X185227301Y-92213210D01*
X185207302Y-92281322D01*
X185207300Y-92281329D01*
X185186500Y-92426003D01*
X185186500Y-93274908D01*
X185186849Y-93288300D01*
X185187895Y-93308316D01*
X185188952Y-93321767D01*
X185195791Y-93386831D01*
X185195791Y-93413171D01*
X185188955Y-93478215D01*
X185187899Y-93491632D01*
X185186851Y-93511649D01*
X185186500Y-93525072D01*
X185186500Y-96074908D01*
X185186849Y-96088300D01*
X185187895Y-96108316D01*
X185188952Y-96121767D01*
X185195791Y-96186831D01*
X185195791Y-96213171D01*
X185188955Y-96278215D01*
X185187899Y-96291632D01*
X185186851Y-96311649D01*
X185186500Y-96325072D01*
X185186500Y-97574009D01*
X185198235Y-97683155D01*
X185198235Y-97683159D01*
X185209617Y-97735480D01*
X185209623Y-97735501D01*
X185244288Y-97839654D01*
X185244290Y-97839657D01*
X185323308Y-97962612D01*
X185323310Y-97962614D01*
X185348329Y-97991488D01*
X185377822Y-98056069D01*
X185367717Y-98126343D01*
X185321224Y-98179998D01*
X185253104Y-98200000D01*
X150100000Y-98200000D01*
X150109958Y-93400000D01*
X161336673Y-93400000D01*
X161345924Y-93511648D01*
X161355950Y-93632633D01*
X161413249Y-93858903D01*
X161413252Y-93858910D01*
X161507015Y-94072668D01*
X161634685Y-94268083D01*
X161792774Y-94439813D01*
X161792778Y-94439817D01*
X161858650Y-94491087D01*
X161976983Y-94583190D01*
X162182273Y-94694287D01*
X162403049Y-94770080D01*
X162633288Y-94808500D01*
X162633292Y-94808500D01*
X162866708Y-94808500D01*
X162866712Y-94808500D01*
X163096951Y-94770080D01*
X163317727Y-94694287D01*
X163523017Y-94583190D01*
X163707220Y-94439818D01*
X163865314Y-94268083D01*
X163992984Y-94072669D01*
X164086749Y-93858907D01*
X164144051Y-93632626D01*
X164163327Y-93400000D01*
X176836673Y-93400000D01*
X176845924Y-93511648D01*
X176855950Y-93632633D01*
X176913249Y-93858903D01*
X176913252Y-93858910D01*
X177007015Y-94072668D01*
X177134685Y-94268083D01*
X177292774Y-94439813D01*
X177292778Y-94439817D01*
X177358650Y-94491087D01*
X177476983Y-94583190D01*
X177682273Y-94694287D01*
X177903049Y-94770080D01*
X178133288Y-94808500D01*
X178133292Y-94808500D01*
X178366708Y-94808500D01*
X178366712Y-94808500D01*
X178596951Y-94770080D01*
X178817727Y-94694287D01*
X179023017Y-94583190D01*
X179207220Y-94439818D01*
X179365314Y-94268083D01*
X179492984Y-94072669D01*
X179586749Y-93858907D01*
X179644051Y-93632626D01*
X179663327Y-93400000D01*
X179644051Y-93167374D01*
X179586749Y-92941093D01*
X179492984Y-92727331D01*
X179365314Y-92531916D01*
X179207225Y-92360186D01*
X179207221Y-92360182D01*
X179105901Y-92281322D01*
X179023017Y-92216810D01*
X178817727Y-92105713D01*
X178817724Y-92105712D01*
X178817723Y-92105711D01*
X178596955Y-92029921D01*
X178596948Y-92029919D01*
X178498411Y-92013476D01*
X178366712Y-91991500D01*
X178133288Y-91991500D01*
X178018066Y-92010727D01*
X177903051Y-92029919D01*
X177903044Y-92029921D01*
X177682276Y-92105711D01*
X177682273Y-92105713D01*
X177476985Y-92216809D01*
X177476983Y-92216810D01*
X177292778Y-92360182D01*
X177292774Y-92360186D01*
X177134685Y-92531916D01*
X177007015Y-92727331D01*
X176913252Y-92941089D01*
X176913249Y-92941096D01*
X176855950Y-93167366D01*
X176855949Y-93167372D01*
X176855949Y-93167374D01*
X176836673Y-93400000D01*
X164163327Y-93400000D01*
X164144051Y-93167374D01*
X164086749Y-92941093D01*
X163992984Y-92727331D01*
X163992983Y-92727330D01*
X163865314Y-92531916D01*
X163707225Y-92360186D01*
X163707221Y-92360182D01*
X163605901Y-92281322D01*
X163523017Y-92216810D01*
X163317727Y-92105713D01*
X163317724Y-92105712D01*
X163317723Y-92105711D01*
X163096955Y-92029921D01*
X163096948Y-92029919D01*
X162998411Y-92013476D01*
X162866712Y-91991500D01*
X162633288Y-91991500D01*
X162518066Y-92010727D01*
X162403051Y-92029919D01*
X162403044Y-92029921D01*
X162182276Y-92105711D01*
X162182273Y-92105713D01*
X161976985Y-92216809D01*
X161976983Y-92216810D01*
X161792778Y-92360182D01*
X161792774Y-92360186D01*
X161634685Y-92531916D01*
X161507015Y-92727331D01*
X161413252Y-92941089D01*
X161413249Y-92941096D01*
X161355950Y-93167366D01*
X161355949Y-93167372D01*
X161355949Y-93167374D01*
X161336673Y-93400000D01*
X150109958Y-93400000D01*
X150117842Y-89600000D01*
X155186673Y-89600000D01*
X155205950Y-89832633D01*
X155263249Y-90058903D01*
X155263252Y-90058910D01*
X155357015Y-90272668D01*
X155484685Y-90468083D01*
X155642774Y-90639813D01*
X155642778Y-90639817D01*
X155708650Y-90691087D01*
X155826983Y-90783190D01*
X156032273Y-90894287D01*
X156253049Y-90970080D01*
X156483288Y-91008500D01*
X156483292Y-91008500D01*
X156716708Y-91008500D01*
X156716712Y-91008500D01*
X156946951Y-90970080D01*
X157167727Y-90894287D01*
X157373017Y-90783190D01*
X157557220Y-90639818D01*
X157715314Y-90468083D01*
X157842984Y-90272669D01*
X157936749Y-90058907D01*
X157994051Y-89832626D01*
X158013327Y-89600000D01*
X157994051Y-89367374D01*
X157936749Y-89141093D01*
X157842984Y-88927331D01*
X157741938Y-88772668D01*
X157715314Y-88731916D01*
X157557225Y-88560186D01*
X157557221Y-88560182D01*
X157465118Y-88488496D01*
X157373017Y-88416810D01*
X157167727Y-88305713D01*
X157167724Y-88305712D01*
X157167723Y-88305711D01*
X156946955Y-88229921D01*
X156946948Y-88229919D01*
X156848411Y-88213476D01*
X156716712Y-88191500D01*
X156483288Y-88191500D01*
X156368066Y-88210727D01*
X156253051Y-88229919D01*
X156253044Y-88229921D01*
X156032276Y-88305711D01*
X156032273Y-88305713D01*
X155826985Y-88416809D01*
X155826983Y-88416810D01*
X155642778Y-88560182D01*
X155642774Y-88560186D01*
X155484685Y-88731916D01*
X155357015Y-88927331D01*
X155263252Y-89141089D01*
X155263249Y-89141096D01*
X155205950Y-89367366D01*
X155186673Y-89600000D01*
X150117842Y-89600000D01*
X150125779Y-85774450D01*
X161686500Y-85774450D01*
X161686501Y-85774475D01*
X161698034Y-85882685D01*
X161698035Y-85882693D01*
X161709229Y-85934607D01*
X161709230Y-85934612D01*
X161709232Y-85934618D01*
X161731581Y-86002386D01*
X161743325Y-86037995D01*
X161821890Y-86161229D01*
X161821892Y-86161232D01*
X161821895Y-86161236D01*
X161840752Y-86183159D01*
X161867129Y-86213825D01*
X161868003Y-86214896D01*
X161868191Y-86215060D01*
X161868192Y-86215061D01*
X161868193Y-86215063D01*
X161916001Y-86256795D01*
X161978298Y-86311175D01*
X161978302Y-86311177D01*
X162111029Y-86372377D01*
X162179076Y-86392627D01*
X162179083Y-86392628D01*
X162323666Y-86413955D01*
X180725193Y-86481114D01*
X180793240Y-86501364D01*
X180839537Y-86555189D01*
X180849384Y-86625500D01*
X180819656Y-86689972D01*
X180759790Y-86728138D01*
X180755671Y-86729256D01*
X180753048Y-86729920D01*
X180532276Y-86805711D01*
X180532273Y-86805713D01*
X180326985Y-86916809D01*
X180326983Y-86916810D01*
X180142778Y-87060182D01*
X180142774Y-87060186D01*
X179984685Y-87231916D01*
X179857015Y-87427331D01*
X179763252Y-87641089D01*
X179763249Y-87641096D01*
X179705950Y-87867366D01*
X179705949Y-87867372D01*
X179705949Y-87867374D01*
X179686673Y-88100000D01*
X179697438Y-88229919D01*
X179705950Y-88332633D01*
X179763249Y-88558903D01*
X179763252Y-88558910D01*
X179857015Y-88772668D01*
X179984685Y-88968083D01*
X180142774Y-89139813D01*
X180142778Y-89139817D01*
X180208650Y-89191087D01*
X180326983Y-89283190D01*
X180532273Y-89394287D01*
X180753049Y-89470080D01*
X180983288Y-89508500D01*
X180983292Y-89508500D01*
X181216708Y-89508500D01*
X181216712Y-89508500D01*
X181446951Y-89470080D01*
X181667727Y-89394287D01*
X181873017Y-89283190D01*
X182057220Y-89139818D01*
X182215314Y-88968083D01*
X182342984Y-88772669D01*
X182436749Y-88558907D01*
X182494051Y-88332626D01*
X182513327Y-88100000D01*
X182494051Y-87867374D01*
X182436749Y-87641093D01*
X182342984Y-87427331D01*
X182342984Y-87427330D01*
X182215314Y-87231916D01*
X182057225Y-87060186D01*
X182057221Y-87060182D01*
X181965118Y-86988496D01*
X181873017Y-86916810D01*
X181667727Y-86805713D01*
X181667724Y-86805712D01*
X181667723Y-86805711D01*
X181509338Y-86751337D01*
X181446951Y-86729920D01*
X181446949Y-86729919D01*
X181444451Y-86729062D01*
X181386516Y-86688025D01*
X181359964Y-86622180D01*
X181373225Y-86552433D01*
X181422090Y-86500928D01*
X181485823Y-86483890D01*
X189471657Y-86513035D01*
X189471657Y-86513034D01*
X189471666Y-86513035D01*
X189561924Y-86503580D01*
X189581773Y-86501502D01*
X189607072Y-86496046D01*
X189634574Y-86490117D01*
X189739657Y-86455249D01*
X189862612Y-86376231D01*
X189915011Y-86330827D01*
X189916101Y-86329932D01*
X189997925Y-86235501D01*
X190011982Y-86219278D01*
X190072698Y-86086329D01*
X190092700Y-86018208D01*
X190113500Y-85873539D01*
X190113500Y-79327291D01*
X190101202Y-79215584D01*
X190089276Y-79162075D01*
X190052970Y-79055714D01*
X190052967Y-79055709D01*
X189972703Y-78933571D01*
X189925665Y-78880392D01*
X189925659Y-78880387D01*
X189814230Y-78785808D01*
X189814229Y-78785807D01*
X189718844Y-78743418D01*
X189680663Y-78726450D01*
X189680662Y-78726449D01*
X189612356Y-78707149D01*
X189612349Y-78707147D01*
X189612347Y-78707147D01*
X189570926Y-78701622D01*
X189467471Y-78687824D01*
X170119486Y-78885253D01*
X170119454Y-78885255D01*
X170013009Y-78897524D01*
X170013006Y-78897524D01*
X170013003Y-78897525D01*
X169982264Y-78904376D01*
X169961948Y-78908904D01*
X169961944Y-78908905D01*
X169860345Y-78943008D01*
X169860344Y-78943008D01*
X169737385Y-79022030D01*
X169685019Y-79067405D01*
X169683904Y-79068319D01*
X169588019Y-79178978D01*
X169588017Y-79178981D01*
X169527301Y-79311930D01*
X169507302Y-79380042D01*
X169507300Y-79380049D01*
X169507300Y-79380051D01*
X169487016Y-79521135D01*
X169486500Y-79524723D01*
X169486500Y-81560500D01*
X169466498Y-81628621D01*
X169412842Y-81675114D01*
X169360500Y-81686500D01*
X168670604Y-81686500D01*
X168602483Y-81666498D01*
X168555990Y-81612842D01*
X168545886Y-81542568D01*
X168550771Y-81521564D01*
X168593542Y-81389928D01*
X168613504Y-81200000D01*
X168593542Y-81010072D01*
X168534527Y-80828444D01*
X168439040Y-80663056D01*
X168368136Y-80584309D01*
X168337420Y-80520303D01*
X168346183Y-80449850D01*
X168368135Y-80415691D01*
X168439040Y-80336944D01*
X168534527Y-80171556D01*
X168593542Y-79989928D01*
X168613504Y-79800000D01*
X168593542Y-79610072D01*
X168534527Y-79428444D01*
X168439040Y-79263056D01*
X168439038Y-79263054D01*
X168439034Y-79263048D01*
X168311255Y-79121135D01*
X168156752Y-79008882D01*
X167982288Y-78931206D01*
X167795487Y-78891500D01*
X167604513Y-78891500D01*
X167417711Y-78931206D01*
X167243247Y-79008882D01*
X167088744Y-79121135D01*
X166960965Y-79263048D01*
X166960958Y-79263058D01*
X166865476Y-79428438D01*
X166865473Y-79428445D01*
X166806457Y-79610072D01*
X166786496Y-79799999D01*
X166806457Y-79989927D01*
X166813003Y-80010072D01*
X166865473Y-80171556D01*
X166865476Y-80171561D01*
X166960958Y-80336941D01*
X166960961Y-80336945D01*
X167031863Y-80415690D01*
X167062580Y-80479698D01*
X167053815Y-80550151D01*
X167031863Y-80584310D01*
X166960961Y-80663054D01*
X166960958Y-80663058D01*
X166865476Y-80828438D01*
X166865473Y-80828445D01*
X166806457Y-81010072D01*
X166786496Y-81200000D01*
X166806457Y-81389928D01*
X166849229Y-81521564D01*
X166851257Y-81592531D01*
X166814594Y-81653329D01*
X166750882Y-81684655D01*
X166729396Y-81686500D01*
X162325990Y-81686500D01*
X162237267Y-81696039D01*
X162216851Y-81698234D01*
X162216848Y-81698234D01*
X162216844Y-81698235D01*
X162216840Y-81698235D01*
X162164519Y-81709617D01*
X162164498Y-81709623D01*
X162060345Y-81744288D01*
X161937385Y-81823310D01*
X161885019Y-81868685D01*
X161883904Y-81869599D01*
X161788019Y-81980258D01*
X161788017Y-81980261D01*
X161727301Y-82113210D01*
X161707302Y-82181322D01*
X161707300Y-82181329D01*
X161686500Y-82326003D01*
X161686500Y-85774450D01*
X150125779Y-85774450D01*
X150138174Y-79800000D01*
X151786496Y-79800000D01*
X151806457Y-79989927D01*
X151813003Y-80010072D01*
X151865473Y-80171556D01*
X151865476Y-80171561D01*
X151960958Y-80336941D01*
X151960965Y-80336951D01*
X152088744Y-80478864D01*
X152088747Y-80478866D01*
X152243248Y-80591118D01*
X152417712Y-80668794D01*
X152604513Y-80708500D01*
X152795487Y-80708500D01*
X152982288Y-80668794D01*
X153156752Y-80591118D01*
X153311253Y-80478866D01*
X153439040Y-80336944D01*
X153518105Y-80199999D01*
X164386496Y-80199999D01*
X164406457Y-80389927D01*
X164425928Y-80449850D01*
X164465473Y-80571556D01*
X164465476Y-80571561D01*
X164560958Y-80736941D01*
X164560965Y-80736951D01*
X164688744Y-80878864D01*
X164688747Y-80878866D01*
X164843248Y-80991118D01*
X165017712Y-81068794D01*
X165204513Y-81108500D01*
X165395487Y-81108500D01*
X165582288Y-81068794D01*
X165756752Y-80991118D01*
X165911253Y-80878866D01*
X166039040Y-80736944D01*
X166134527Y-80571556D01*
X166193542Y-80389928D01*
X166213504Y-80200000D01*
X166193542Y-80010072D01*
X166134527Y-79828444D01*
X166039040Y-79663056D01*
X166039038Y-79663054D01*
X166039034Y-79663048D01*
X165911255Y-79521135D01*
X165756752Y-79408882D01*
X165582288Y-79331206D01*
X165395487Y-79291500D01*
X165204513Y-79291500D01*
X165017711Y-79331206D01*
X164843247Y-79408882D01*
X164688744Y-79521135D01*
X164560965Y-79663048D01*
X164560958Y-79663058D01*
X164465476Y-79828438D01*
X164465473Y-79828445D01*
X164406457Y-80010072D01*
X164386496Y-80199999D01*
X153518105Y-80199999D01*
X153534527Y-80171556D01*
X153593542Y-79989928D01*
X153613504Y-79800000D01*
X153593542Y-79610072D01*
X153534527Y-79428444D01*
X153439040Y-79263056D01*
X153439038Y-79263054D01*
X153439034Y-79263048D01*
X153311255Y-79121135D01*
X153156752Y-79008882D01*
X152982288Y-78931206D01*
X152795487Y-78891500D01*
X152604513Y-78891500D01*
X152417711Y-78931206D01*
X152243247Y-79008882D01*
X152088744Y-79121135D01*
X151960965Y-79263048D01*
X151960958Y-79263058D01*
X151865476Y-79428438D01*
X151865473Y-79428445D01*
X151806457Y-79610072D01*
X151786496Y-79800000D01*
X150138174Y-79800000D01*
X150147303Y-75399999D01*
X156086496Y-75399999D01*
X156106457Y-75589927D01*
X156136526Y-75682470D01*
X156165473Y-75771556D01*
X156165476Y-75771561D01*
X156260958Y-75936941D01*
X156260965Y-75936951D01*
X156388744Y-76078864D01*
X156449999Y-76123368D01*
X156543248Y-76191118D01*
X156717712Y-76268794D01*
X156904513Y-76308500D01*
X157095487Y-76308500D01*
X157282288Y-76268794D01*
X157456752Y-76191118D01*
X157611253Y-76078866D01*
X157690262Y-75991118D01*
X157739034Y-75936951D01*
X157739035Y-75936949D01*
X157739040Y-75936944D01*
X157834527Y-75771556D01*
X157893542Y-75589928D01*
X157913504Y-75400000D01*
X157893542Y-75210072D01*
X157890269Y-75200000D01*
X161786496Y-75200000D01*
X161806457Y-75389927D01*
X161818611Y-75427331D01*
X161865473Y-75571556D01*
X161865476Y-75571561D01*
X161960958Y-75736941D01*
X161960965Y-75736951D01*
X162088744Y-75878864D01*
X162088747Y-75878866D01*
X162243248Y-75991118D01*
X162417712Y-76068794D01*
X162604513Y-76108500D01*
X162795487Y-76108500D01*
X162835476Y-76100000D01*
X179686673Y-76100000D01*
X179705950Y-76332633D01*
X179763249Y-76558903D01*
X179763252Y-76558910D01*
X179857015Y-76772668D01*
X179984685Y-76968083D01*
X180142774Y-77139813D01*
X180142778Y-77139817D01*
X180208650Y-77191087D01*
X180326983Y-77283190D01*
X180532273Y-77394287D01*
X180753049Y-77470080D01*
X180983288Y-77508500D01*
X180983292Y-77508500D01*
X181216708Y-77508500D01*
X181216712Y-77508500D01*
X181446951Y-77470080D01*
X181667727Y-77394287D01*
X181873017Y-77283190D01*
X182057220Y-77139818D01*
X182215314Y-76968083D01*
X182342984Y-76772669D01*
X182436749Y-76558907D01*
X182494051Y-76332626D01*
X182513327Y-76100000D01*
X182494051Y-75867374D01*
X182469786Y-75771554D01*
X182436750Y-75641096D01*
X182436747Y-75641089D01*
X182342984Y-75427331D01*
X182215314Y-75231916D01*
X182057225Y-75060186D01*
X182057221Y-75060182D01*
X181965118Y-74988496D01*
X181873017Y-74916810D01*
X181667727Y-74805713D01*
X181667724Y-74805712D01*
X181667723Y-74805711D01*
X181446955Y-74729921D01*
X181446948Y-74729919D01*
X181348411Y-74713476D01*
X181216712Y-74691500D01*
X180983288Y-74691500D01*
X180868066Y-74710727D01*
X180753051Y-74729919D01*
X180753044Y-74729921D01*
X180532276Y-74805711D01*
X180532273Y-74805713D01*
X180326985Y-74916809D01*
X180326983Y-74916810D01*
X180142778Y-75060182D01*
X180142774Y-75060186D01*
X179984685Y-75231916D01*
X179857015Y-75427331D01*
X179763252Y-75641089D01*
X179763249Y-75641096D01*
X179705950Y-75867366D01*
X179705949Y-75867372D01*
X179705949Y-75867374D01*
X179700184Y-75936944D01*
X179686673Y-76100000D01*
X162835476Y-76100000D01*
X162982288Y-76068794D01*
X163156752Y-75991118D01*
X163311253Y-75878866D01*
X163311255Y-75878864D01*
X163439034Y-75736951D01*
X163439035Y-75736949D01*
X163439040Y-75736944D01*
X163534527Y-75571556D01*
X163593542Y-75389928D01*
X163613504Y-75200000D01*
X163593542Y-75010072D01*
X163534527Y-74828444D01*
X163439040Y-74663056D01*
X163439038Y-74663054D01*
X163439034Y-74663048D01*
X163311255Y-74521135D01*
X163156752Y-74408882D01*
X162982288Y-74331206D01*
X162795487Y-74291500D01*
X162604513Y-74291500D01*
X162417711Y-74331206D01*
X162243247Y-74408882D01*
X162088744Y-74521135D01*
X161960965Y-74663048D01*
X161960958Y-74663058D01*
X161865476Y-74828438D01*
X161865473Y-74828445D01*
X161806457Y-75010072D01*
X161786496Y-75200000D01*
X157890269Y-75200000D01*
X157834527Y-75028444D01*
X157739040Y-74863056D01*
X157739038Y-74863054D01*
X157739034Y-74863048D01*
X157611255Y-74721135D01*
X157456752Y-74608882D01*
X157282288Y-74531206D01*
X157095487Y-74491500D01*
X156904513Y-74491500D01*
X156717711Y-74531206D01*
X156543247Y-74608882D01*
X156388744Y-74721135D01*
X156260965Y-74863048D01*
X156260958Y-74863058D01*
X156165476Y-75028438D01*
X156165473Y-75028445D01*
X156106457Y-75210072D01*
X156086496Y-75399999D01*
X150147303Y-75399999D01*
X150152281Y-73000500D01*
X184474842Y-73000500D01*
X184474985Y-73000528D01*
X184474986Y-73000524D01*
X184499997Y-73000539D01*
X184500000Y-73000541D01*
X184500383Y-73000383D01*
X184500500Y-73000099D01*
X184500541Y-73000000D01*
X184500540Y-72999998D01*
X184500541Y-72999998D01*
X184500584Y-72975500D01*
X184500500Y-72975072D01*
X184500500Y-50126500D01*
X184520502Y-50058379D01*
X184574158Y-50011886D01*
X184626500Y-50000500D01*
X199873500Y-50000500D01*
X199941621Y-50020502D01*
G37*
%TD.AperFunction*%
%TD*%
%TA.AperFunction,Conductor*%
%TO.N,GND*%
G36*
X199941621Y-136920002D02*
G01*
X199988114Y-136973658D01*
X199999500Y-137026000D01*
X199999500Y-149873500D01*
X199979498Y-149941621D01*
X199925842Y-149988114D01*
X199873500Y-149999500D01*
X150000000Y-149999500D01*
X150000000Y-147735412D01*
X155970773Y-147735412D01*
X155980695Y-147893134D01*
X155980695Y-147893136D01*
X156029533Y-148043441D01*
X156029535Y-148043445D01*
X156073563Y-148112822D01*
X156114214Y-148176877D01*
X156229418Y-148285062D01*
X156367908Y-148361196D01*
X156367908Y-148361197D01*
X156367911Y-148361198D01*
X156463199Y-148385664D01*
X156520981Y-148400500D01*
X156520984Y-148400500D01*
X156639346Y-148400500D01*
X156639350Y-148400500D01*
X156756792Y-148385664D01*
X156903732Y-148327486D01*
X157031587Y-148234594D01*
X157132324Y-148112823D01*
X157199614Y-147969826D01*
X157229227Y-147814588D01*
X157219304Y-147656862D01*
X157170467Y-147506559D01*
X157085786Y-147373123D01*
X156970582Y-147264938D01*
X156970579Y-147264936D01*
X156832091Y-147188802D01*
X156832088Y-147188801D01*
X156679026Y-147149501D01*
X156679020Y-147149500D01*
X156679019Y-147149500D01*
X156560650Y-147149500D01*
X156560647Y-147149500D01*
X156560635Y-147149501D01*
X156443211Y-147164335D01*
X156296267Y-147222514D01*
X156296264Y-147222515D01*
X156168414Y-147315404D01*
X156168413Y-147315405D01*
X156067675Y-147437177D01*
X156000386Y-147580172D01*
X156000384Y-147580178D01*
X155970773Y-147735405D01*
X155970773Y-147735412D01*
X150000000Y-147735412D01*
X150000000Y-145999999D01*
X162386496Y-145999999D01*
X162406457Y-146189927D01*
X162418973Y-146228445D01*
X162465473Y-146371556D01*
X162465476Y-146371561D01*
X162560958Y-146536941D01*
X162560965Y-146536951D01*
X162688744Y-146678864D01*
X162749999Y-146723368D01*
X162843248Y-146791118D01*
X163017712Y-146868794D01*
X163204513Y-146908500D01*
X163395487Y-146908500D01*
X163582288Y-146868794D01*
X163756752Y-146791118D01*
X163911253Y-146678866D01*
X163982265Y-146599999D01*
X169186496Y-146599999D01*
X169206457Y-146789927D01*
X169232083Y-146868793D01*
X169265473Y-146971556D01*
X169265476Y-146971561D01*
X169360958Y-147136941D01*
X169360965Y-147136951D01*
X169488744Y-147278864D01*
X169488747Y-147278866D01*
X169643248Y-147391118D01*
X169817712Y-147468794D01*
X170004513Y-147508500D01*
X170195487Y-147508500D01*
X170382288Y-147468794D01*
X170556752Y-147391118D01*
X170711253Y-147278866D01*
X170839040Y-147136944D01*
X170934527Y-146971556D01*
X170993542Y-146789928D01*
X171013504Y-146600000D01*
X170993542Y-146410072D01*
X170934527Y-146228444D01*
X170839040Y-146063056D01*
X170839038Y-146063054D01*
X170839034Y-146063048D01*
X170711255Y-145921135D01*
X170556752Y-145808882D01*
X170536800Y-145799999D01*
X180686496Y-145799999D01*
X180706457Y-145989927D01*
X180736526Y-146082470D01*
X180765473Y-146171556D01*
X180765476Y-146171561D01*
X180860958Y-146336941D01*
X180860965Y-146336951D01*
X180988744Y-146478864D01*
X180988747Y-146478866D01*
X181143248Y-146591118D01*
X181317712Y-146668794D01*
X181504513Y-146708500D01*
X181695487Y-146708500D01*
X181882288Y-146668794D01*
X182056752Y-146591118D01*
X182211253Y-146478866D01*
X182211255Y-146478864D01*
X182339034Y-146336951D01*
X182339035Y-146336949D01*
X182339040Y-146336944D01*
X182434527Y-146171556D01*
X182493542Y-145989928D01*
X182513504Y-145800000D01*
X182493542Y-145610072D01*
X182434527Y-145428444D01*
X182339040Y-145263056D01*
X182339038Y-145263054D01*
X182339034Y-145263048D01*
X182211255Y-145121135D01*
X182056752Y-145008882D01*
X181882288Y-144931206D01*
X181695487Y-144891500D01*
X181504513Y-144891500D01*
X181317711Y-144931206D01*
X181143247Y-145008882D01*
X180988744Y-145121135D01*
X180860965Y-145263048D01*
X180860958Y-145263058D01*
X180765476Y-145428438D01*
X180765473Y-145428445D01*
X180706457Y-145610072D01*
X180686496Y-145799999D01*
X170536800Y-145799999D01*
X170382288Y-145731206D01*
X170195487Y-145691500D01*
X170004513Y-145691500D01*
X169817711Y-145731206D01*
X169643247Y-145808882D01*
X169488744Y-145921135D01*
X169360965Y-146063048D01*
X169360958Y-146063058D01*
X169265476Y-146228438D01*
X169265473Y-146228445D01*
X169206457Y-146410072D01*
X169186496Y-146599999D01*
X163982265Y-146599999D01*
X163990262Y-146591118D01*
X164039034Y-146536951D01*
X164039035Y-146536949D01*
X164039040Y-146536944D01*
X164134527Y-146371556D01*
X164193542Y-146189928D01*
X164213504Y-146000000D01*
X164193542Y-145810072D01*
X164134527Y-145628444D01*
X164039040Y-145463056D01*
X164039038Y-145463054D01*
X164039034Y-145463048D01*
X163911255Y-145321135D01*
X163756752Y-145208882D01*
X163582288Y-145131206D01*
X163395487Y-145091500D01*
X163204513Y-145091500D01*
X163017711Y-145131206D01*
X162843247Y-145208882D01*
X162688744Y-145321135D01*
X162560965Y-145463048D01*
X162560958Y-145463058D01*
X162465476Y-145628438D01*
X162465473Y-145628445D01*
X162406457Y-145810072D01*
X162386496Y-145999999D01*
X150000000Y-145999999D01*
X150000000Y-144985412D01*
X155970773Y-144985412D01*
X155980695Y-145143134D01*
X155980695Y-145143136D01*
X156029533Y-145293441D01*
X156029535Y-145293445D01*
X156047107Y-145321134D01*
X156114214Y-145426877D01*
X156229418Y-145535062D01*
X156365862Y-145610072D01*
X156367908Y-145611197D01*
X156367911Y-145611198D01*
X156463199Y-145635664D01*
X156520981Y-145650500D01*
X156520984Y-145650500D01*
X156639346Y-145650500D01*
X156639350Y-145650500D01*
X156756792Y-145635664D01*
X156903732Y-145577486D01*
X157031587Y-145484594D01*
X157132324Y-145362823D01*
X157199614Y-145219826D01*
X157229227Y-145064588D01*
X157225722Y-145008882D01*
X157223025Y-144966009D01*
X157219304Y-144906862D01*
X157170467Y-144756559D01*
X157085786Y-144623123D01*
X156970582Y-144514938D01*
X156970579Y-144514936D01*
X156832091Y-144438802D01*
X156832088Y-144438801D01*
X156679026Y-144399501D01*
X156679020Y-144399500D01*
X156679019Y-144399500D01*
X156560650Y-144399500D01*
X156560647Y-144399500D01*
X156560635Y-144399501D01*
X156443211Y-144414335D01*
X156296267Y-144472514D01*
X156296264Y-144472515D01*
X156168414Y-144565404D01*
X156168413Y-144565405D01*
X156067675Y-144687177D01*
X156000386Y-144830172D01*
X156000384Y-144830178D01*
X155970773Y-144985405D01*
X155970773Y-144985412D01*
X150000000Y-144985412D01*
X150000000Y-142187041D01*
X150011253Y-142178866D01*
X150139040Y-142036944D01*
X150234527Y-141871556D01*
X150293542Y-141689928D01*
X150313504Y-141500000D01*
X150293542Y-141310072D01*
X150234527Y-141128444D01*
X150139040Y-140963056D01*
X150139038Y-140963054D01*
X150139034Y-140963048D01*
X150011255Y-140821135D01*
X149999999Y-140812957D01*
X149999999Y-140256719D01*
X171833430Y-140256719D01*
X171839939Y-140317266D01*
X171839941Y-140317274D01*
X171891040Y-140454272D01*
X171891042Y-140454277D01*
X171978668Y-140571331D01*
X172095722Y-140658957D01*
X172095724Y-140658958D01*
X172095726Y-140658959D01*
X172154805Y-140680994D01*
X172232725Y-140710058D01*
X172232733Y-140710060D01*
X172293280Y-140716569D01*
X172293285Y-140716569D01*
X172293292Y-140716570D01*
X172293298Y-140716570D01*
X173891702Y-140716570D01*
X173891708Y-140716570D01*
X173891715Y-140716569D01*
X173891719Y-140716569D01*
X173952266Y-140710060D01*
X173952269Y-140710059D01*
X173952271Y-140710059D01*
X174089274Y-140658959D01*
X174179389Y-140591500D01*
X174206331Y-140571331D01*
X174293957Y-140454277D01*
X174293957Y-140454276D01*
X174293959Y-140454274D01*
X174345059Y-140317271D01*
X174351570Y-140256708D01*
X174351570Y-139457500D01*
X184528621Y-139457500D01*
X184547822Y-139676973D01*
X184604841Y-139889769D01*
X184604843Y-139889774D01*
X184697948Y-140089438D01*
X184697949Y-140089440D01*
X184824306Y-140269897D01*
X184824310Y-140269902D01*
X184824313Y-140269906D01*
X184980094Y-140425687D01*
X184980098Y-140425690D01*
X184980102Y-140425693D01*
X185083065Y-140497788D01*
X185160560Y-140552051D01*
X185360228Y-140645158D01*
X185573030Y-140702178D01*
X185792500Y-140721379D01*
X186011970Y-140702178D01*
X186224772Y-140645158D01*
X186424440Y-140552051D01*
X186604906Y-140425687D01*
X186760687Y-140269906D01*
X186887051Y-140089440D01*
X186980158Y-139889772D01*
X187037178Y-139676970D01*
X187056379Y-139457500D01*
X187037178Y-139238030D01*
X186980158Y-139025228D01*
X186887051Y-138825561D01*
X186760687Y-138645094D01*
X186604906Y-138489313D01*
X186604902Y-138489310D01*
X186604897Y-138489306D01*
X186424440Y-138362949D01*
X186424438Y-138362948D01*
X186224774Y-138269843D01*
X186224769Y-138269841D01*
X186011973Y-138212822D01*
X185792500Y-138193621D01*
X185573026Y-138212822D01*
X185360230Y-138269841D01*
X185360225Y-138269843D01*
X185160560Y-138362949D01*
X184980097Y-138489310D01*
X184980091Y-138489315D01*
X184824315Y-138645091D01*
X184824310Y-138645097D01*
X184697949Y-138825560D01*
X184604843Y-139025225D01*
X184604841Y-139025230D01*
X184547822Y-139238026D01*
X184528621Y-139457500D01*
X174351570Y-139457500D01*
X174351570Y-138658292D01*
X174351569Y-138658280D01*
X174345060Y-138597733D01*
X174345058Y-138597725D01*
X174304622Y-138489315D01*
X174293959Y-138460726D01*
X174293958Y-138460724D01*
X174293957Y-138460722D01*
X174206331Y-138343668D01*
X174089277Y-138256042D01*
X174089272Y-138256040D01*
X173952274Y-138204941D01*
X173952266Y-138204939D01*
X173891719Y-138198430D01*
X173891708Y-138198430D01*
X172293292Y-138198430D01*
X172293280Y-138198430D01*
X172232733Y-138204939D01*
X172232725Y-138204941D01*
X172095727Y-138256040D01*
X172095722Y-138256042D01*
X171978668Y-138343668D01*
X171891042Y-138460722D01*
X171891040Y-138460727D01*
X171839941Y-138597725D01*
X171839939Y-138597733D01*
X171833430Y-138658280D01*
X171833430Y-140256719D01*
X149999999Y-140256719D01*
X150000000Y-136900000D01*
X150026174Y-136900000D01*
X199873500Y-136900000D01*
X199941621Y-136920002D01*
G37*
%TD.AperFunction*%
%TD*%
%TA.AperFunction,Conductor*%
%TO.N,+12V*%
G36*
X189541036Y-79220603D02*
G01*
X189588074Y-79273782D01*
X189600000Y-79327291D01*
X189600000Y-85873539D01*
X189579998Y-85941660D01*
X189526342Y-85988153D01*
X189473540Y-85999538D01*
X162325540Y-85900458D01*
X162257493Y-85880208D01*
X162211196Y-85826383D01*
X162200000Y-85774459D01*
X162200000Y-82326000D01*
X162220002Y-82257879D01*
X162273658Y-82211386D01*
X162326000Y-82200000D01*
X170000000Y-82200000D01*
X170000000Y-79524720D01*
X170020002Y-79456599D01*
X170073658Y-79410106D01*
X170124712Y-79398727D01*
X189472716Y-79201298D01*
X189541036Y-79220603D01*
G37*
%TD.AperFunction*%
%TD*%
M02*
