%TF.GenerationSoftware,KiCad,Pcbnew,7.0.7*%
%TF.CreationDate,2023-11-07T01:08:08+00:00*%
%TF.ProjectId,Pi_TX_35W_PA_V2,50695f54-585f-4333-9557-5f50415f5632,rev?*%
%TF.SameCoordinates,Original*%
%TF.FileFunction,Soldermask,Top*%
%TF.FilePolarity,Negative*%
%FSLAX46Y46*%
G04 Gerber Fmt 4.6, Leading zero omitted, Abs format (unit mm)*
G04 Created by KiCad (PCBNEW 7.0.7) date 2023-11-07 01:08:08*
%MOMM*%
%LPD*%
G01*
G04 APERTURE LIST*
G04 Aperture macros list*
%AMRoundRect*
0 Rectangle with rounded corners*
0 $1 Rounding radius*
0 $2 $3 $4 $5 $6 $7 $8 $9 X,Y pos of 4 corners*
0 Add a 4 corners polygon primitive as box body*
4,1,4,$2,$3,$4,$5,$6,$7,$8,$9,$2,$3,0*
0 Add four circle primitives for the rounded corners*
1,1,$1+$1,$2,$3*
1,1,$1+$1,$4,$5*
1,1,$1+$1,$6,$7*
1,1,$1+$1,$8,$9*
0 Add four rect primitives between the rounded corners*
20,1,$1+$1,$2,$3,$4,$5,0*
20,1,$1+$1,$4,$5,$6,$7,0*
20,1,$1+$1,$6,$7,$8,$9,0*
20,1,$1+$1,$8,$9,$2,$3,0*%
%AMFreePoly0*
4,1,9,3.862500,-0.866500,0.737500,-0.866500,0.737500,-0.450000,-0.737500,-0.450000,-0.737500,0.450000,0.737500,0.450000,0.737500,0.866500,3.862500,0.866500,3.862500,-0.866500,3.862500,-0.866500,$1*%
%AMFreePoly1*
4,1,13,0.275000,-0.600000,-0.275000,-0.600000,-0.275000,-0.200500,-0.725000,-0.200500,-0.725354,-0.200354,-0.725500,-0.200000,-0.725500,0.350000,-0.725354,0.350354,-0.725000,0.350500,-0.275000,0.350500,-0.275000,0.600000,0.275000,0.600000,0.275000,-0.600000,0.275000,-0.600000,$1*%
%AMFreePoly2*
4,1,13,0.275000,0.350500,0.725000,0.350500,0.725354,0.350354,0.725500,0.350000,0.725500,-0.200000,0.725354,-0.200354,0.725000,-0.200500,0.275000,-0.200500,0.275000,-0.600000,-0.275000,-0.600000,-0.275000,0.600000,0.275000,0.600000,0.275000,0.350500,0.275000,0.350500,$1*%
G04 Aperture macros list end*
%ADD10R,0.650000X0.400000*%
%ADD11RoundRect,0.225000X-0.225000X-0.250000X0.225000X-0.250000X0.225000X0.250000X-0.225000X0.250000X0*%
%ADD12RoundRect,0.250001X-1.974999X1.262499X-1.974999X-1.262499X1.974999X-1.262499X1.974999X1.262499X0*%
%ADD13RoundRect,0.200000X0.275000X-0.200000X0.275000X0.200000X-0.275000X0.200000X-0.275000X-0.200000X0*%
%ADD14RoundRect,0.225000X0.225000X0.250000X-0.225000X0.250000X-0.225000X-0.250000X0.225000X-0.250000X0*%
%ADD15R,0.400000X1.350000*%
%ADD16O,1.200000X1.900000*%
%ADD17R,1.200000X1.900000*%
%ADD18C,1.450000*%
%ADD19R,1.500000X1.900000*%
%ADD20RoundRect,0.243750X0.243750X0.456250X-0.243750X0.456250X-0.243750X-0.456250X0.243750X-0.456250X0*%
%ADD21R,1.000000X0.600000*%
%ADD22RoundRect,0.250000X-0.250000X-0.475000X0.250000X-0.475000X0.250000X0.475000X-0.250000X0.475000X0*%
%ADD23RoundRect,0.225000X-0.250000X0.225000X-0.250000X-0.225000X0.250000X-0.225000X0.250000X0.225000X0*%
%ADD24R,0.900000X1.300000*%
%ADD25FreePoly0,90.000000*%
%ADD26RoundRect,0.218750X-0.218750X-0.381250X0.218750X-0.381250X0.218750X0.381250X-0.218750X0.381250X0*%
%ADD27R,1.000000X0.700000*%
%ADD28R,0.600000X0.700000*%
%ADD29R,1.501140X1.501140*%
%ADD30C,1.501140*%
%ADD31C,1.500000*%
%ADD32RoundRect,0.200000X0.200000X0.275000X-0.200000X0.275000X-0.200000X-0.275000X0.200000X-0.275000X0*%
%ADD33RoundRect,0.150000X-0.825000X-0.150000X0.825000X-0.150000X0.825000X0.150000X-0.825000X0.150000X0*%
%ADD34RoundRect,0.250000X-0.325000X-0.650000X0.325000X-0.650000X0.325000X0.650000X-0.325000X0.650000X0*%
%ADD35RoundRect,0.200000X-0.200000X-0.275000X0.200000X-0.275000X0.200000X0.275000X-0.200000X0.275000X0*%
%ADD36RoundRect,0.250000X-0.850000X-0.350000X0.850000X-0.350000X0.850000X0.350000X-0.850000X0.350000X0*%
%ADD37RoundRect,0.249997X-2.950003X-2.650003X2.950003X-2.650003X2.950003X2.650003X-2.950003X2.650003X0*%
%ADD38R,3.600000X1.270000*%
%ADD39R,4.200000X1.350000*%
%ADD40RoundRect,0.150000X0.200000X-0.150000X0.200000X0.150000X-0.200000X0.150000X-0.200000X-0.150000X0*%
%ADD41C,5.600000*%
%ADD42RoundRect,0.250000X0.325000X0.650000X-0.325000X0.650000X-0.325000X-0.650000X0.325000X-0.650000X0*%
%ADD43RoundRect,0.150000X0.150000X-0.825000X0.150000X0.825000X-0.150000X0.825000X-0.150000X-0.825000X0*%
%ADD44RoundRect,0.150000X0.150000X0.200000X-0.150000X0.200000X-0.150000X-0.200000X0.150000X-0.200000X0*%
%ADD45RoundRect,0.225000X0.250000X-0.225000X0.250000X0.225000X-0.250000X0.225000X-0.250000X-0.225000X0*%
%ADD46RoundRect,0.250000X-1.500000X0.250000X-1.500000X-0.250000X1.500000X-0.250000X1.500000X0.250000X0*%
%ADD47RoundRect,0.250001X-1.449999X0.499999X-1.449999X-0.499999X1.449999X-0.499999X1.449999X0.499999X0*%
%ADD48R,0.700000X1.000000*%
%ADD49R,0.700000X0.600000*%
%ADD50RoundRect,0.250000X1.450000X-0.312500X1.450000X0.312500X-1.450000X0.312500X-1.450000X-0.312500X0*%
%ADD51RoundRect,0.218750X0.381250X-0.218750X0.381250X0.218750X-0.381250X0.218750X-0.381250X-0.218750X0*%
%ADD52C,1.800000*%
%ADD53RoundRect,0.200000X-0.275000X0.200000X-0.275000X-0.200000X0.275000X-0.200000X0.275000X0.200000X0*%
%ADD54RoundRect,0.250000X0.250000X0.475000X-0.250000X0.475000X-0.250000X-0.475000X0.250000X-0.475000X0*%
%ADD55RoundRect,0.150000X0.512500X0.150000X-0.512500X0.150000X-0.512500X-0.150000X0.512500X-0.150000X0*%
%ADD56RoundRect,0.218750X0.218750X0.381250X-0.218750X0.381250X-0.218750X-0.381250X0.218750X-0.381250X0*%
%ADD57R,2.200000X1.500000*%
%ADD58RoundRect,0.250000X1.550000X-0.750000X1.550000X0.750000X-1.550000X0.750000X-1.550000X-0.750000X0*%
%ADD59O,3.600000X2.000000*%
%ADD60R,1.450000X1.000000*%
%ADD61R,1.600000X0.550000*%
%ADD62R,0.550000X1.600000*%
%ADD63RoundRect,0.150000X-0.200000X0.150000X-0.200000X-0.150000X0.200000X-0.150000X0.200000X0.150000X0*%
%ADD64RoundRect,0.218750X0.218750X0.256250X-0.218750X0.256250X-0.218750X-0.256250X0.218750X-0.256250X0*%
%ADD65RoundRect,0.225000X0.225000X0.375000X-0.225000X0.375000X-0.225000X-0.375000X0.225000X-0.375000X0*%
%ADD66R,0.700000X0.450000*%
%ADD67RoundRect,0.150000X-0.512500X-0.150000X0.512500X-0.150000X0.512500X0.150000X-0.512500X0.150000X0*%
%ADD68FreePoly1,0.000000*%
%ADD69R,0.700000X1.200000*%
%ADD70R,0.450000X1.200000*%
%ADD71FreePoly2,0.000000*%
%ADD72RoundRect,0.250000X0.787500X1.025000X-0.787500X1.025000X-0.787500X-1.025000X0.787500X-1.025000X0*%
%ADD73C,2.000000*%
%ADD74RoundRect,0.250000X-0.475000X0.250000X-0.475000X-0.250000X0.475000X-0.250000X0.475000X0.250000X0*%
%ADD75RoundRect,0.250000X0.375000X0.625000X-0.375000X0.625000X-0.375000X-0.625000X0.375000X-0.625000X0*%
%ADD76RoundRect,0.250000X-0.650000X0.325000X-0.650000X-0.325000X0.650000X-0.325000X0.650000X0.325000X0*%
%ADD77RoundRect,0.225000X-0.375000X0.225000X-0.375000X-0.225000X0.375000X-0.225000X0.375000X0.225000X0*%
%ADD78RoundRect,0.150000X-0.150000X-0.200000X0.150000X-0.200000X0.150000X0.200000X-0.150000X0.200000X0*%
%ADD79RoundRect,0.800000X-0.800000X-4.200000X0.800000X-4.200000X0.800000X4.200000X-0.800000X4.200000X0*%
%ADD80C,6.000000*%
G04 APERTURE END LIST*
D10*
%TO.C,U13*%
X112410000Y-99800000D03*
X112410000Y-100450000D03*
X112410000Y-101100000D03*
X114310000Y-101100000D03*
X114310000Y-99800000D03*
%TD*%
D11*
%TO.C,C50*%
X164815000Y-143920000D03*
X166365000Y-143920000D03*
%TD*%
D12*
%TO.C,R36*%
X165690000Y-82197500D03*
X165690000Y-87222500D03*
%TD*%
D13*
%TO.C,R39*%
X108800000Y-83225000D03*
X108800000Y-81575000D03*
%TD*%
D14*
%TO.C,C55*%
X132225000Y-143177500D03*
X130675000Y-143177500D03*
%TD*%
%TO.C,C15*%
X134875000Y-109070000D03*
X133325000Y-109070000D03*
%TD*%
%TO.C,C53*%
X172915000Y-145490000D03*
X171365000Y-145490000D03*
%TD*%
D15*
%TO.C,J1*%
X122190000Y-144907500D03*
X122840000Y-144907500D03*
X123490000Y-144907500D03*
X124140000Y-144907500D03*
X124790000Y-144907500D03*
D16*
X119990000Y-147607500D03*
D17*
X120590000Y-147607500D03*
D18*
X120990000Y-144907500D03*
D19*
X122490000Y-147607500D03*
X124490000Y-147607500D03*
D18*
X125990000Y-144907500D03*
D17*
X126390000Y-147607500D03*
D16*
X126990000Y-147607500D03*
%TD*%
D20*
%TO.C,F3*%
X113757500Y-136120000D03*
X111882500Y-136120000D03*
%TD*%
D11*
%TO.C,C14*%
X133025000Y-114350000D03*
X134575000Y-114350000D03*
%TD*%
D21*
%TO.C,D17*%
X185542500Y-148980000D03*
X183542500Y-148980000D03*
%TD*%
D22*
%TO.C,C32*%
X138075000Y-81800000D03*
X139975000Y-81800000D03*
%TD*%
D23*
%TO.C,C25*%
X142300000Y-120025000D03*
X142300000Y-121575000D03*
%TD*%
D24*
%TO.C,U9*%
X116600000Y-82487500D03*
D25*
X118100000Y-82400000D03*
D24*
X119600000Y-82487500D03*
%TD*%
D26*
%TO.C,L9*%
X162375000Y-132300000D03*
X164500000Y-132300000D03*
%TD*%
D27*
%TO.C,D1*%
X119270000Y-138190000D03*
D28*
X117570000Y-138190000D03*
X117570000Y-140190000D03*
X119470000Y-140190000D03*
%TD*%
D20*
%TO.C,F4*%
X113780000Y-138480000D03*
X111905000Y-138480000D03*
%TD*%
D11*
%TO.C,C16*%
X125525000Y-100000000D03*
X127075000Y-100000000D03*
%TD*%
D29*
%TO.C,K1*%
X173092500Y-139457500D03*
D30*
X185792500Y-139457500D03*
X185792500Y-131837500D03*
X178172500Y-131837500D03*
X173092500Y-131837500D03*
%TD*%
D31*
%TO.C,J2*%
X145464196Y-148645000D03*
X151464196Y-148645000D03*
X144464196Y-146645000D03*
X146464196Y-146645000D03*
X148464196Y-146645000D03*
X150464196Y-146645000D03*
X152464196Y-146645000D03*
%TD*%
D14*
%TO.C,C12*%
X146375000Y-128065000D03*
X144825000Y-128065000D03*
%TD*%
D32*
%TO.C,R53*%
X147945000Y-87820000D03*
X146295000Y-87820000D03*
%TD*%
%TO.C,R38*%
X108725000Y-84900000D03*
X107075000Y-84900000D03*
%TD*%
D33*
%TO.C,U3*%
X137150000Y-130460000D03*
X137150000Y-131730000D03*
X137150000Y-133000000D03*
X137150000Y-134270000D03*
X142100000Y-134270000D03*
X142100000Y-133000000D03*
X142100000Y-131730000D03*
X142100000Y-130460000D03*
%TD*%
D34*
%TO.C,C40*%
X180625000Y-96300000D03*
X183575000Y-96300000D03*
%TD*%
D11*
%TO.C,C51*%
X166162500Y-132300000D03*
X167712500Y-132300000D03*
%TD*%
D35*
%TO.C,R48*%
X183640000Y-145430000D03*
X185290000Y-145430000D03*
%TD*%
D36*
%TO.C,Q1*%
X188435000Y-76795000D03*
D37*
X194735000Y-79075000D03*
D36*
X188435000Y-81355000D03*
%TD*%
D38*
%TO.C,J7*%
X198050000Y-108000000D03*
D39*
X197850000Y-110825000D03*
X197850000Y-105175000D03*
%TD*%
D23*
%TO.C,C26*%
X147390000Y-92475000D03*
X147390000Y-94025000D03*
%TD*%
D40*
%TO.C,D15*%
X167937500Y-129100000D03*
X167937500Y-130500000D03*
%TD*%
D35*
%TO.C,R2*%
X144629196Y-143795578D03*
X146279196Y-143795578D03*
%TD*%
%TO.C,R20*%
X133300000Y-131565000D03*
X134950000Y-131565000D03*
%TD*%
D41*
%TO.C,H3*%
X107000000Y-57000000D03*
%TD*%
D42*
%TO.C,C41*%
X172005000Y-87410000D03*
X169055000Y-87410000D03*
%TD*%
D26*
%TO.C,L8*%
X168875000Y-101400000D03*
X171000000Y-101400000D03*
%TD*%
D43*
%TO.C,U2*%
X108795000Y-77575000D03*
X110065000Y-77575000D03*
X111335000Y-77575000D03*
X112605000Y-77575000D03*
X112605000Y-72625000D03*
X111335000Y-72625000D03*
X110065000Y-72625000D03*
X108795000Y-72625000D03*
%TD*%
D11*
%TO.C,C56*%
X143105000Y-87840000D03*
X144655000Y-87840000D03*
%TD*%
D14*
%TO.C,C35*%
X123575000Y-82237500D03*
X122025000Y-82237500D03*
%TD*%
D44*
%TO.C,D16*%
X177875000Y-142050000D03*
X179275000Y-142050000D03*
%TD*%
D35*
%TO.C,R9*%
X105375000Y-78000000D03*
X107025000Y-78000000D03*
%TD*%
D45*
%TO.C,C7*%
X115100000Y-131865000D03*
X115100000Y-130315000D03*
%TD*%
D46*
%TO.C,J3*%
X107980000Y-108270000D03*
X107980000Y-110270000D03*
X107980000Y-112270000D03*
X107980000Y-114270000D03*
X107980000Y-116270000D03*
D47*
X102230000Y-105920000D03*
X102230000Y-118620000D03*
%TD*%
D35*
%TO.C,R47*%
X177475000Y-147250000D03*
X179125000Y-147250000D03*
%TD*%
D11*
%TO.C,C49*%
X164795000Y-145510000D03*
X166345000Y-145510000D03*
%TD*%
D38*
%TO.C,J8*%
X198050000Y-120000000D03*
D39*
X197850000Y-122825000D03*
X197850000Y-117175000D03*
%TD*%
D34*
%TO.C,C42*%
X158125000Y-87300000D03*
X161075000Y-87300000D03*
%TD*%
D35*
%TO.C,R21*%
X144800000Y-131765000D03*
X146450000Y-131765000D03*
%TD*%
D23*
%TO.C,C33*%
X156000000Y-79725000D03*
X156000000Y-81275000D03*
%TD*%
D32*
%TO.C,R33*%
X130925000Y-94900000D03*
X129275000Y-94900000D03*
%TD*%
D48*
%TO.C,D4*%
X113580000Y-112410000D03*
D49*
X113580000Y-110710000D03*
X111580000Y-110710000D03*
X111580000Y-112610000D03*
%TD*%
D35*
%TO.C,R34*%
X132275000Y-96900000D03*
X133925000Y-96900000D03*
%TD*%
D13*
%TO.C,R32*%
X125400000Y-93125000D03*
X125400000Y-91475000D03*
%TD*%
D50*
%TO.C,L3*%
X165300000Y-79237500D03*
X165300000Y-74962500D03*
%TD*%
D14*
%TO.C,C1*%
X126575000Y-122100000D03*
X125025000Y-122100000D03*
%TD*%
D51*
%TO.C,L4*%
X122100000Y-86262500D03*
X122100000Y-84137500D03*
%TD*%
D35*
%TO.C,R24*%
X133100000Y-126165000D03*
X134750000Y-126165000D03*
%TD*%
D14*
%TO.C,C9*%
X106975000Y-72300000D03*
X105425000Y-72300000D03*
%TD*%
D41*
%TO.C,H2*%
X193000000Y-57000000D03*
%TD*%
D52*
%TO.C,L7*%
X156600000Y-89600000D03*
X156600000Y-101600000D03*
%TD*%
D53*
%TO.C,R35*%
X131900000Y-91175000D03*
X131900000Y-92825000D03*
%TD*%
D54*
%TO.C,C13*%
X135260000Y-107220000D03*
X133360000Y-107220000D03*
%TD*%
D55*
%TO.C,U4*%
X134935000Y-112730000D03*
X134935000Y-111780000D03*
X134935000Y-110830000D03*
X132660000Y-110830000D03*
X132660000Y-111780000D03*
X132660000Y-112730000D03*
%TD*%
D56*
%TO.C,L12*%
X185537500Y-142150000D03*
X183412500Y-142150000D03*
%TD*%
D23*
%TO.C,C23*%
X136200000Y-120100000D03*
X136200000Y-121650000D03*
%TD*%
D57*
%TO.C,L2*%
X140072500Y-106095000D03*
X140072500Y-112495000D03*
%TD*%
D21*
%TO.C,D3*%
X114790000Y-149020000D03*
X112790000Y-149020000D03*
%TD*%
D58*
%TO.C,J5*%
X189522500Y-94300000D03*
D59*
X189522500Y-89300000D03*
%TD*%
D10*
%TO.C,U12*%
X130510000Y-139837500D03*
X130510000Y-140487500D03*
X130510000Y-141137500D03*
X132410000Y-141137500D03*
X132410000Y-139837500D03*
%TD*%
D60*
%TO.C,SW1*%
X162245000Y-148916321D03*
X157095000Y-148916321D03*
X162245000Y-147216321D03*
X157095000Y-147216321D03*
%TD*%
D45*
%TO.C,C27*%
X168200000Y-78450000D03*
X168200000Y-76900000D03*
%TD*%
D34*
%TO.C,C39*%
X180625000Y-93500000D03*
X183575000Y-93500000D03*
%TD*%
D32*
%TO.C,R8*%
X117095000Y-112330000D03*
X115445000Y-112330000D03*
%TD*%
D61*
%TO.C,U1*%
X126650000Y-133400000D03*
X126650000Y-132600000D03*
X126650000Y-131800000D03*
X126650000Y-131000000D03*
X126650000Y-130200000D03*
X126650000Y-129400000D03*
X126650000Y-128600000D03*
X126650000Y-127800000D03*
D62*
X125200000Y-126350000D03*
X124400000Y-126350000D03*
X123600000Y-126350000D03*
X122800000Y-126350000D03*
X122000000Y-126350000D03*
X121200000Y-126350000D03*
X120400000Y-126350000D03*
X119600000Y-126350000D03*
D61*
X118150000Y-127800000D03*
X118150000Y-128600000D03*
X118150000Y-129400000D03*
X118150000Y-130200000D03*
X118150000Y-131000000D03*
X118150000Y-131800000D03*
X118150000Y-132600000D03*
X118150000Y-133400000D03*
D62*
X119600000Y-134850000D03*
X120400000Y-134850000D03*
X121200000Y-134850000D03*
X122000000Y-134850000D03*
X122800000Y-134850000D03*
X123600000Y-134850000D03*
X124400000Y-134850000D03*
X125200000Y-134850000D03*
%TD*%
D32*
%TO.C,R18*%
X135050000Y-134965000D03*
X133400000Y-134965000D03*
%TD*%
D35*
%TO.C,R7*%
X105375000Y-76100000D03*
X107025000Y-76100000D03*
%TD*%
D63*
%TO.C,D13*%
X165737500Y-104200000D03*
X165737500Y-102800000D03*
%TD*%
D64*
%TO.C,L1*%
X129687500Y-123700000D03*
X128112500Y-123700000D03*
%TD*%
D14*
%TO.C,C29*%
X112375000Y-83200000D03*
X110825000Y-83200000D03*
%TD*%
D35*
%TO.C,R30*%
X129735000Y-109000000D03*
X131385000Y-109000000D03*
%TD*%
D32*
%TO.C,R14*%
X146425000Y-137100000D03*
X144775000Y-137100000D03*
%TD*%
D65*
%TO.C,D11*%
X115930000Y-117260000D03*
X112630000Y-117260000D03*
%TD*%
D14*
%TO.C,C8*%
X117055000Y-108960000D03*
X115505000Y-108960000D03*
%TD*%
D34*
%TO.C,C38*%
X173745000Y-87410000D03*
X176695000Y-87410000D03*
%TD*%
D53*
%TO.C,R41*%
X165800000Y-108975000D03*
X165800000Y-110625000D03*
%TD*%
D43*
%TO.C,U8*%
X141860000Y-96020000D03*
X143130000Y-96020000D03*
X144400000Y-96020000D03*
X145670000Y-96020000D03*
X145670000Y-91070000D03*
X144400000Y-91070000D03*
X143130000Y-91070000D03*
X141860000Y-91070000D03*
%TD*%
D11*
%TO.C,C47*%
X172562500Y-101300000D03*
X174112500Y-101300000D03*
%TD*%
D52*
%TO.C,L6*%
X178250000Y-93400000D03*
X162750000Y-93400000D03*
%TD*%
D23*
%TO.C,C24*%
X143900000Y-120025000D03*
X143900000Y-121575000D03*
%TD*%
D66*
%TO.C,Q2*%
X179280000Y-145330000D03*
X179280000Y-144030000D03*
X177280000Y-144680000D03*
%TD*%
D14*
%TO.C,C5*%
X123775000Y-140200000D03*
X122225000Y-140200000D03*
%TD*%
D53*
%TO.C,R44*%
X166300000Y-122700000D03*
X166300000Y-124350000D03*
%TD*%
D11*
%TO.C,C30*%
X118525000Y-86200000D03*
X120075000Y-86200000D03*
%TD*%
D13*
%TO.C,R37*%
X106900000Y-83225000D03*
X106900000Y-81575000D03*
%TD*%
D23*
%TO.C,C36*%
X153800000Y-79725000D03*
X153800000Y-81275000D03*
%TD*%
D32*
%TO.C,R17*%
X142525000Y-137100000D03*
X140875000Y-137100000D03*
%TD*%
D14*
%TO.C,C4*%
X123775000Y-138600000D03*
X122225000Y-138600000D03*
%TD*%
D46*
%TO.C,J4*%
X107900000Y-125150000D03*
X107900000Y-127150000D03*
X107900000Y-129150000D03*
X107900000Y-131150000D03*
X107900000Y-133150000D03*
X107900000Y-135150000D03*
D47*
X102150000Y-122800000D03*
X102150000Y-137500000D03*
%TD*%
D32*
%TO.C,R46*%
X172965000Y-147080000D03*
X171315000Y-147080000D03*
%TD*%
D67*
%TO.C,U7*%
X138062500Y-119850000D03*
X138062500Y-120800000D03*
X138062500Y-121750000D03*
X140337500Y-121750000D03*
X140337500Y-119850000D03*
%TD*%
D35*
%TO.C,R31*%
X129730000Y-107410000D03*
X131380000Y-107410000D03*
%TD*%
D32*
%TO.C,R13*%
X138550000Y-137065000D03*
X136900000Y-137065000D03*
%TD*%
D14*
%TO.C,C52*%
X172900000Y-143900000D03*
X171350000Y-143900000D03*
%TD*%
D68*
%TO.C,D18*%
X137150000Y-148890000D03*
D69*
X138275000Y-148890000D03*
D70*
X139300000Y-148890000D03*
D71*
X140300000Y-148890000D03*
%TD*%
D11*
%TO.C,C11*%
X133150000Y-127965000D03*
X134700000Y-127965000D03*
%TD*%
D26*
%TO.C,L10*%
X164577500Y-142230000D03*
X166702500Y-142230000D03*
%TD*%
D35*
%TO.C,R3*%
X112855000Y-147480000D03*
X114505000Y-147480000D03*
%TD*%
D13*
%TO.C,R12*%
X133800000Y-92925000D03*
X133800000Y-91275000D03*
%TD*%
D35*
%TO.C,R19*%
X144800000Y-135165000D03*
X146450000Y-135165000D03*
%TD*%
D53*
%TO.C,R40*%
X167300000Y-108975000D03*
X167300000Y-110625000D03*
%TD*%
D26*
%TO.C,L11*%
X170962500Y-142200000D03*
X173087500Y-142200000D03*
%TD*%
D44*
%TO.C,D6*%
X145025000Y-133465000D03*
X146425000Y-133465000D03*
%TD*%
D35*
%TO.C,R52*%
X139665000Y-87820000D03*
X141315000Y-87820000D03*
%TD*%
%TO.C,R51*%
X112445000Y-96350000D03*
X114095000Y-96350000D03*
%TD*%
D11*
%TO.C,C34*%
X138050000Y-79800000D03*
X139600000Y-79800000D03*
%TD*%
D72*
%TO.C,C31*%
X150212500Y-79900000D03*
X143987500Y-79900000D03*
%TD*%
D32*
%TO.C,R25*%
X146450000Y-126365000D03*
X144800000Y-126365000D03*
%TD*%
D68*
%TO.C,D19*%
X130750000Y-148860000D03*
D69*
X131875000Y-148860000D03*
D70*
X132900000Y-148860000D03*
D71*
X133900000Y-148860000D03*
%TD*%
D53*
%TO.C,R11*%
X113900000Y-125125000D03*
X113900000Y-126775000D03*
%TD*%
D14*
%TO.C,C48*%
X160812500Y-132300000D03*
X159262500Y-132300000D03*
%TD*%
D67*
%TO.C,U5*%
X124762500Y-96550000D03*
X124762500Y-97500000D03*
X124762500Y-98450000D03*
X127037500Y-98450000D03*
X127037500Y-97500000D03*
X127037500Y-96550000D03*
%TD*%
D32*
%TO.C,R4*%
X117105000Y-110660000D03*
X115455000Y-110660000D03*
%TD*%
D11*
%TO.C,C54*%
X183705000Y-143860000D03*
X185255000Y-143860000D03*
%TD*%
D73*
%TO.C,J10*%
X109620000Y-93760000D03*
X109620000Y-96300000D03*
X109620000Y-98840000D03*
X109620000Y-101380000D03*
%TD*%
D53*
%TO.C,R43*%
X175800000Y-124875000D03*
X175800000Y-126525000D03*
%TD*%
D35*
%TO.C,R22*%
X144800000Y-129965000D03*
X146450000Y-129965000D03*
%TD*%
D41*
%TO.C,H1*%
X107000000Y-143000000D03*
%TD*%
D65*
%TO.C,D9*%
X132750000Y-120500000D03*
X129450000Y-120500000D03*
%TD*%
D74*
%TO.C,C17*%
X145610000Y-106070000D03*
X145610000Y-107970000D03*
%TD*%
D11*
%TO.C,C37*%
X138050000Y-78100000D03*
X139600000Y-78100000D03*
%TD*%
D23*
%TO.C,C21*%
X134500000Y-120100000D03*
X134500000Y-121650000D03*
%TD*%
D53*
%TO.C,R45*%
X167800000Y-122675000D03*
X167800000Y-124325000D03*
%TD*%
D32*
%TO.C,R23*%
X134850000Y-129865000D03*
X133200000Y-129865000D03*
%TD*%
D23*
%TO.C,C19*%
X123700000Y-91525000D03*
X123700000Y-93075000D03*
%TD*%
D14*
%TO.C,C44*%
X167212500Y-101400000D03*
X165662500Y-101400000D03*
%TD*%
D23*
%TO.C,C20*%
X136000000Y-91225000D03*
X136000000Y-92775000D03*
%TD*%
%TO.C,C18*%
X147610000Y-106195000D03*
X147610000Y-107745000D03*
%TD*%
D41*
%TO.C,H4*%
X193000000Y-143000000D03*
%TD*%
D14*
%TO.C,C6*%
X123800000Y-137000000D03*
X122250000Y-137000000D03*
%TD*%
D11*
%TO.C,C46*%
X164805000Y-147080000D03*
X166355000Y-147080000D03*
%TD*%
D14*
%TO.C,C10*%
X142600000Y-128465000D03*
X141050000Y-128465000D03*
%TD*%
D53*
%TO.C,R10*%
X111990000Y-125095000D03*
X111990000Y-126745000D03*
%TD*%
D35*
%TO.C,R15*%
X132275000Y-98400000D03*
X133925000Y-98400000D03*
%TD*%
D48*
%TO.C,D5*%
X113480000Y-130710000D03*
D49*
X113480000Y-129010000D03*
X111480000Y-129010000D03*
X111480000Y-130910000D03*
%TD*%
D75*
%TO.C,F1*%
X145570000Y-84570000D03*
X142770000Y-84570000D03*
%TD*%
D67*
%TO.C,U6*%
X127262500Y-91150000D03*
X127262500Y-92100000D03*
X127262500Y-93050000D03*
X129537500Y-93050000D03*
X129537500Y-91150000D03*
%TD*%
D76*
%TO.C,C45*%
X153800000Y-102725000D03*
X153800000Y-105675000D03*
%TD*%
D20*
%TO.C,F2*%
X113765000Y-133770000D03*
X111890000Y-133770000D03*
%TD*%
D63*
%TO.C,D14*%
X166537500Y-130500000D03*
X166537500Y-129100000D03*
%TD*%
D23*
%TO.C,C22*%
X137900000Y-91325000D03*
X137900000Y-92875000D03*
%TD*%
D13*
%TO.C,R42*%
X175800000Y-122925000D03*
X175800000Y-121275000D03*
%TD*%
D11*
%TO.C,C28*%
X118525000Y-84500000D03*
X120075000Y-84500000D03*
%TD*%
D77*
%TO.C,D10*%
X127830000Y-137280000D03*
X127830000Y-140580000D03*
%TD*%
D14*
%TO.C,C2*%
X116375000Y-142560000D03*
X114825000Y-142560000D03*
%TD*%
D32*
%TO.C,R1*%
X116425000Y-144160000D03*
X114775000Y-144160000D03*
%TD*%
D78*
%TO.C,D7*%
X134725000Y-133265000D03*
X133325000Y-133265000D03*
%TD*%
D79*
%TO.C,U10*%
X128400000Y-80000000D03*
X133600000Y-80000000D03*
X159900000Y-80000000D03*
X172400000Y-80000000D03*
D80*
X111000000Y-66000000D03*
X189000000Y-66000000D03*
%TD*%
D38*
%TO.C,J9*%
X198050000Y-132000000D03*
D39*
X197850000Y-134825000D03*
X197850000Y-129175000D03*
%TD*%
D32*
%TO.C,R16*%
X135050000Y-136765000D03*
X133400000Y-136765000D03*
%TD*%
D52*
%TO.C,L5*%
X181950000Y-76050000D03*
X181950000Y-88050000D03*
%TD*%
D35*
%TO.C,R6*%
X105375000Y-74200000D03*
X107025000Y-74200000D03*
%TD*%
D38*
%TO.C,J6*%
X102000000Y-85000000D03*
D39*
X102200000Y-82175000D03*
X102200000Y-87825000D03*
%TD*%
D42*
%TO.C,C43*%
X155575000Y-87200000D03*
X152625000Y-87200000D03*
%TD*%
D14*
%TO.C,C3*%
X126575000Y-123700000D03*
X125025000Y-123700000D03*
%TD*%
D40*
%TO.C,D12*%
X167137500Y-102800000D03*
X167137500Y-104200000D03*
%TD*%
M02*
