%TF.GenerationSoftware,KiCad,Pcbnew,(6.0.1)*%
%TF.CreationDate,2022-02-11T18:20:56+00:00*%
%TF.ProjectId,PE4302,50453433-3032-42e6-9b69-6361645f7063,rev?*%
%TF.SameCoordinates,Original*%
%TF.FileFunction,Copper,L3,Inr*%
%TF.FilePolarity,Positive*%
%FSLAX46Y46*%
G04 Gerber Fmt 4.6, Leading zero omitted, Abs format (unit mm)*
G04 Created by KiCad (PCBNEW (6.0.1)) date 2022-02-11 18:20:56*
%MOMM*%
%LPD*%
G01*
G04 APERTURE LIST*
G04 Aperture macros list*
%AMRoundRect*
0 Rectangle with rounded corners*
0 $1 Rounding radius*
0 $2 $3 $4 $5 $6 $7 $8 $9 X,Y pos of 4 corners*
0 Add a 4 corners polygon primitive as box body*
4,1,4,$2,$3,$4,$5,$6,$7,$8,$9,$2,$3,0*
0 Add four circle primitives for the rounded corners*
1,1,$1+$1,$2,$3*
1,1,$1+$1,$4,$5*
1,1,$1+$1,$6,$7*
1,1,$1+$1,$8,$9*
0 Add four rect primitives between the rounded corners*
20,1,$1+$1,$2,$3,$4,$5,0*
20,1,$1+$1,$4,$5,$6,$7,0*
20,1,$1+$1,$6,$7,$8,$9,0*
20,1,$1+$1,$8,$9,$2,$3,0*%
G04 Aperture macros list end*
%TA.AperFunction,ComponentPad*%
%ADD10RoundRect,0.250000X-0.350000X-0.625000X0.350000X-0.625000X0.350000X0.625000X-0.350000X0.625000X0*%
%TD*%
%TA.AperFunction,ComponentPad*%
%ADD11O,1.200000X1.750000*%
%TD*%
%TA.AperFunction,ViaPad*%
%ADD12C,0.800000*%
%TD*%
G04 APERTURE END LIST*
D10*
%TO.N,VDC*%
%TO.C,J3*%
X108471200Y-136203600D03*
D11*
%TO.N,Net-(J3-Pad2)*%
X110471200Y-136203600D03*
%TO.N,Net-(J3-Pad3)*%
X112471200Y-136203600D03*
%TO.N,Net-(J3-Pad4)*%
X114471200Y-136203600D03*
%TO.N,GND*%
X116471200Y-136203600D03*
%TD*%
D12*
%TO.N,Net-(J3-Pad2)*%
X113263375Y-126155914D03*
X120294400Y-121945400D03*
%TO.N,Net-(J3-Pad3)*%
X113309400Y-128143000D03*
X120319800Y-125933200D03*
%TO.N,Net-(Q1-Pad2)*%
X110998000Y-119786400D03*
X113131600Y-122986800D03*
%TO.N,Net-(Q3-Pad2)*%
X114875414Y-120887910D03*
X119049800Y-122691400D03*
%TO.N,GND*%
X100761800Y-107238800D03*
X118897400Y-113411000D03*
X116408200Y-114681000D03*
X109702600Y-106553000D03*
X117424200Y-110667800D03*
X122199400Y-116535200D03*
X119684800Y-114782600D03*
X101930200Y-132130800D03*
X106095800Y-107797600D03*
X118338600Y-116560600D03*
X120345200Y-113157000D03*
X104089200Y-116967000D03*
X117017800Y-107848400D03*
X117398800Y-113487200D03*
X103936800Y-107213400D03*
X118795800Y-107492800D03*
X115646200Y-110871000D03*
X122301000Y-107416600D03*
X123875800Y-107391200D03*
X107721400Y-110591600D03*
X106908600Y-133096000D03*
X122885200Y-126009400D03*
X105740200Y-116205000D03*
X112039400Y-117754400D03*
X100685600Y-116941600D03*
X105232200Y-109194600D03*
X120345200Y-116560600D03*
X122783600Y-131876800D03*
X108686600Y-107797600D03*
X118897400Y-110744000D03*
X101676200Y-125196600D03*
X122834400Y-119735600D03*
X107975400Y-122707400D03*
X110134400Y-109601000D03*
X104876600Y-113309400D03*
X116357400Y-133299200D03*
X120675400Y-107442000D03*
X117779800Y-115290600D03*
X102311200Y-107238800D03*
X104800400Y-110845600D03*
X114604800Y-106603800D03*
X116459000Y-109448600D03*
X119684800Y-109220000D03*
X123952000Y-116535200D03*
X118059200Y-109169200D03*
X104978200Y-114858800D03*
X120345200Y-110769400D03*
X101295200Y-119837200D03*
X102362000Y-116967000D03*
X111607600Y-106527600D03*
X107670600Y-116535200D03*
X114445669Y-109809288D03*
X115469078Y-113716362D03*
X105537000Y-126390400D03*
X107670600Y-113411000D03*
%TO.N,VCC*%
X103032600Y-120360400D03*
X102946200Y-127355600D03*
X113174820Y-115401648D03*
X102971600Y-122834400D03*
X107543600Y-107696000D03*
X113207800Y-106781600D03*
X110617000Y-105791000D03*
X115443000Y-112717200D03*
%TO.N,Net-(Q2-Pad2)*%
X114858800Y-122986800D03*
X110109000Y-118389400D03*
X116967000Y-124968000D03*
%TD*%
%TA.AperFunction,Conductor*%
%TO.N,VCC*%
G36*
X124434121Y-100528002D02*
G01*
X124480614Y-100581658D01*
X124492000Y-100634000D01*
X124492000Y-106477050D01*
X124471998Y-106545171D01*
X124418342Y-106591664D01*
X124348068Y-106601768D01*
X124314754Y-106592158D01*
X124158088Y-106522406D01*
X124064688Y-106502553D01*
X123977744Y-106484072D01*
X123977739Y-106484072D01*
X123971287Y-106482700D01*
X123780313Y-106482700D01*
X123773861Y-106484072D01*
X123773856Y-106484072D01*
X123686912Y-106502553D01*
X123593512Y-106522406D01*
X123587482Y-106525091D01*
X123587481Y-106525091D01*
X123425078Y-106597397D01*
X123425076Y-106597398D01*
X123419048Y-106600082D01*
X123413707Y-106603962D01*
X123413706Y-106603963D01*
X123384088Y-106625482D01*
X123264547Y-106712334D01*
X123260126Y-106717244D01*
X123260125Y-106717245D01*
X123245173Y-106733851D01*
X123176563Y-106810051D01*
X123170601Y-106816672D01*
X123110155Y-106853912D01*
X123039172Y-106852560D01*
X122983329Y-106816672D01*
X122916675Y-106742645D01*
X122916671Y-106742641D01*
X122912253Y-106737734D01*
X122792712Y-106650882D01*
X122763094Y-106629363D01*
X122763093Y-106629362D01*
X122757752Y-106625482D01*
X122751724Y-106622798D01*
X122751722Y-106622797D01*
X122589319Y-106550491D01*
X122589318Y-106550491D01*
X122583288Y-106547806D01*
X122476423Y-106525091D01*
X122402944Y-106509472D01*
X122402939Y-106509472D01*
X122396487Y-106508100D01*
X122205513Y-106508100D01*
X122199061Y-106509472D01*
X122199056Y-106509472D01*
X122125577Y-106525091D01*
X122018712Y-106547806D01*
X122012682Y-106550491D01*
X122012681Y-106550491D01*
X121850278Y-106622797D01*
X121850276Y-106622798D01*
X121844248Y-106625482D01*
X121838907Y-106629362D01*
X121838906Y-106629363D01*
X121809288Y-106650882D01*
X121689747Y-106737734D01*
X121570400Y-106870283D01*
X121509955Y-106907521D01*
X121438971Y-106906169D01*
X121383129Y-106870282D01*
X121370354Y-106856094D01*
X121286653Y-106763134D01*
X121175222Y-106682174D01*
X121137494Y-106654763D01*
X121137493Y-106654762D01*
X121132152Y-106650882D01*
X121126124Y-106648198D01*
X121126122Y-106648197D01*
X120963719Y-106575891D01*
X120963718Y-106575891D01*
X120957688Y-106573206D01*
X120850823Y-106550491D01*
X120777344Y-106534872D01*
X120777339Y-106534872D01*
X120770887Y-106533500D01*
X120579913Y-106533500D01*
X120573461Y-106534872D01*
X120573456Y-106534872D01*
X120499977Y-106550491D01*
X120393112Y-106573206D01*
X120387082Y-106575891D01*
X120387081Y-106575891D01*
X120224678Y-106648197D01*
X120224676Y-106648198D01*
X120218648Y-106650882D01*
X120213307Y-106654762D01*
X120213306Y-106654763D01*
X120175578Y-106682174D01*
X120064147Y-106763134D01*
X120059729Y-106768041D01*
X120059725Y-106768045D01*
X119967671Y-106870282D01*
X119936360Y-106905056D01*
X119840873Y-107070444D01*
X119838831Y-107076729D01*
X119837440Y-107079853D01*
X119791460Y-107133949D01*
X119723533Y-107154598D01*
X119655225Y-107135246D01*
X119613214Y-107091604D01*
X119608955Y-107084226D01*
X119534840Y-106955856D01*
X119511811Y-106930279D01*
X119411475Y-106818845D01*
X119411474Y-106818844D01*
X119407053Y-106813934D01*
X119252552Y-106701682D01*
X119246524Y-106698998D01*
X119246522Y-106698997D01*
X119084119Y-106626691D01*
X119084118Y-106626691D01*
X119078088Y-106624006D01*
X118973467Y-106601768D01*
X118897744Y-106585672D01*
X118897739Y-106585672D01*
X118891287Y-106584300D01*
X118700313Y-106584300D01*
X118693861Y-106585672D01*
X118693856Y-106585672D01*
X118618133Y-106601768D01*
X118513512Y-106624006D01*
X118507482Y-106626691D01*
X118507481Y-106626691D01*
X118345078Y-106698997D01*
X118345076Y-106698998D01*
X118339048Y-106701682D01*
X118184547Y-106813934D01*
X118180126Y-106818844D01*
X118180125Y-106818845D01*
X118079790Y-106930279D01*
X118056760Y-106955856D01*
X117961273Y-107121244D01*
X117929196Y-107219965D01*
X117929087Y-107220302D01*
X117889013Y-107278907D01*
X117823616Y-107306544D01*
X117753660Y-107294437D01*
X117715622Y-107265679D01*
X117629053Y-107169534D01*
X117484791Y-107064721D01*
X117479894Y-107061163D01*
X117479893Y-107061162D01*
X117474552Y-107057282D01*
X117468524Y-107054598D01*
X117468522Y-107054597D01*
X117306119Y-106982291D01*
X117306118Y-106982291D01*
X117300088Y-106979606D01*
X117188354Y-106955856D01*
X117119744Y-106941272D01*
X117119739Y-106941272D01*
X117113287Y-106939900D01*
X116922313Y-106939900D01*
X116915861Y-106941272D01*
X116915856Y-106941272D01*
X116847246Y-106955856D01*
X116735512Y-106979606D01*
X116729482Y-106982291D01*
X116729481Y-106982291D01*
X116567078Y-107054597D01*
X116567076Y-107054598D01*
X116561048Y-107057282D01*
X116555707Y-107061162D01*
X116555706Y-107061163D01*
X116550809Y-107064721D01*
X116406547Y-107169534D01*
X116402126Y-107174444D01*
X116402125Y-107174445D01*
X116304683Y-107282666D01*
X116278760Y-107311456D01*
X116232814Y-107391037D01*
X116201949Y-107444497D01*
X116183273Y-107476844D01*
X116124258Y-107658472D01*
X116123568Y-107665033D01*
X116123568Y-107665035D01*
X116109079Y-107802893D01*
X116104296Y-107848400D01*
X116104986Y-107854965D01*
X116120987Y-108007203D01*
X116124258Y-108038328D01*
X116183273Y-108219956D01*
X116186576Y-108225678D01*
X116186577Y-108225679D01*
X116278760Y-108385344D01*
X116277178Y-108386257D01*
X116298047Y-108444744D01*
X116281968Y-108513896D01*
X116231055Y-108563377D01*
X116198447Y-108575186D01*
X116183173Y-108578432D01*
X116183167Y-108578434D01*
X116176712Y-108579806D01*
X116170682Y-108582491D01*
X116170681Y-108582491D01*
X116008278Y-108654797D01*
X116008276Y-108654798D01*
X116002248Y-108657482D01*
X115996907Y-108661362D01*
X115996906Y-108661363D01*
X115959178Y-108688774D01*
X115847747Y-108769734D01*
X115843326Y-108774644D01*
X115843325Y-108774645D01*
X115729746Y-108900788D01*
X115719960Y-108911656D01*
X115701760Y-108943179D01*
X115631972Y-109064056D01*
X115624473Y-109077044D01*
X115565458Y-109258672D01*
X115564768Y-109265233D01*
X115564768Y-109265235D01*
X115547240Y-109432009D01*
X115545496Y-109448600D01*
X115546186Y-109455165D01*
X115546186Y-109460832D01*
X115526184Y-109528953D01*
X115472528Y-109575446D01*
X115402254Y-109585550D01*
X115337674Y-109556056D01*
X115300353Y-109499769D01*
X115282237Y-109444014D01*
X115280196Y-109437732D01*
X115184709Y-109272344D01*
X115143490Y-109226565D01*
X115061344Y-109135333D01*
X115061343Y-109135332D01*
X115056922Y-109130422D01*
X114902421Y-109018170D01*
X114896393Y-109015486D01*
X114896391Y-109015485D01*
X114733988Y-108943179D01*
X114733987Y-108943179D01*
X114727957Y-108940494D01*
X114634556Y-108920641D01*
X114547613Y-108902160D01*
X114547608Y-108902160D01*
X114541156Y-108900788D01*
X114350182Y-108900788D01*
X114343730Y-108902160D01*
X114343725Y-108902160D01*
X114256782Y-108920641D01*
X114163381Y-108940494D01*
X114157351Y-108943179D01*
X114157350Y-108943179D01*
X113994947Y-109015485D01*
X113994945Y-109015486D01*
X113988917Y-109018170D01*
X113834416Y-109130422D01*
X113829995Y-109135332D01*
X113829994Y-109135333D01*
X113747849Y-109226565D01*
X113706629Y-109272344D01*
X113611142Y-109437732D01*
X113552127Y-109619360D01*
X113551437Y-109625921D01*
X113551437Y-109625923D01*
X113537543Y-109758120D01*
X113532165Y-109809288D01*
X113532855Y-109815853D01*
X113550991Y-109988403D01*
X113552127Y-109999216D01*
X113611142Y-110180844D01*
X113614445Y-110186566D01*
X113614446Y-110186567D01*
X113623900Y-110202941D01*
X113706629Y-110346232D01*
X113711047Y-110351139D01*
X113711048Y-110351140D01*
X113819120Y-110471166D01*
X113834416Y-110488154D01*
X113933512Y-110560152D01*
X113976797Y-110591600D01*
X113988917Y-110600406D01*
X113994945Y-110603090D01*
X113994947Y-110603091D01*
X114133367Y-110664719D01*
X114163381Y-110678082D01*
X114256782Y-110697935D01*
X114343725Y-110716416D01*
X114343730Y-110716416D01*
X114350182Y-110717788D01*
X114541156Y-110717788D01*
X114547612Y-110716416D01*
X114547619Y-110716415D01*
X114583908Y-110708701D01*
X114654698Y-110714102D01*
X114711332Y-110756918D01*
X114735826Y-110823555D01*
X114735416Y-110845116D01*
X114733386Y-110864433D01*
X114732696Y-110871000D01*
X114733386Y-110877565D01*
X114749299Y-111028965D01*
X114752658Y-111060928D01*
X114811673Y-111242556D01*
X114814976Y-111248278D01*
X114814977Y-111248279D01*
X114827787Y-111270466D01*
X114907160Y-111407944D01*
X114911578Y-111412851D01*
X114911579Y-111412852D01*
X115007655Y-111519555D01*
X115034947Y-111549866D01*
X115053304Y-111563203D01*
X115174322Y-111651128D01*
X115189448Y-111662118D01*
X115195476Y-111664802D01*
X115195478Y-111664803D01*
X115306862Y-111714394D01*
X115363912Y-111739794D01*
X115457312Y-111759647D01*
X115544256Y-111778128D01*
X115544261Y-111778128D01*
X115550713Y-111779500D01*
X115741687Y-111779500D01*
X115748139Y-111778128D01*
X115748144Y-111778128D01*
X115835087Y-111759647D01*
X115928488Y-111739794D01*
X115985538Y-111714394D01*
X116096922Y-111664803D01*
X116096924Y-111664802D01*
X116102952Y-111662118D01*
X116118079Y-111651128D01*
X116239096Y-111563203D01*
X116257453Y-111549866D01*
X116284745Y-111519555D01*
X116380821Y-111412852D01*
X116380822Y-111412851D01*
X116385240Y-111407944D01*
X116480727Y-111242556D01*
X116481329Y-111240703D01*
X116526187Y-111187924D01*
X116594114Y-111167273D01*
X116662423Y-111186623D01*
X116688951Y-111208954D01*
X116812947Y-111346666D01*
X116967448Y-111458918D01*
X116973476Y-111461602D01*
X116973478Y-111461603D01*
X117114672Y-111524466D01*
X117141912Y-111536594D01*
X117235313Y-111556447D01*
X117322256Y-111574928D01*
X117322261Y-111574928D01*
X117328713Y-111576300D01*
X117519687Y-111576300D01*
X117526139Y-111574928D01*
X117526144Y-111574928D01*
X117613087Y-111556447D01*
X117706488Y-111536594D01*
X117733728Y-111524466D01*
X117874922Y-111461603D01*
X117874924Y-111461602D01*
X117880952Y-111458918D01*
X118035453Y-111346666D01*
X118039874Y-111341755D01*
X118041913Y-111339920D01*
X118105920Y-111309203D01*
X118176374Y-111317966D01*
X118219856Y-111349243D01*
X118286147Y-111422866D01*
X118440648Y-111535118D01*
X118446676Y-111537802D01*
X118446678Y-111537803D01*
X118609081Y-111610109D01*
X118615112Y-111612794D01*
X118708513Y-111632647D01*
X118795456Y-111651128D01*
X118795461Y-111651128D01*
X118801913Y-111652500D01*
X118992887Y-111652500D01*
X118999339Y-111651128D01*
X118999344Y-111651128D01*
X119086287Y-111632647D01*
X119179688Y-111612794D01*
X119185719Y-111610109D01*
X119348122Y-111537803D01*
X119348124Y-111537802D01*
X119354152Y-111535118D01*
X119404239Y-111498728D01*
X119487071Y-111438546D01*
X119508653Y-111422866D01*
X119513064Y-111417967D01*
X119513073Y-111417959D01*
X119516229Y-111414453D01*
X119576675Y-111377213D01*
X119647659Y-111378565D01*
X119703500Y-111414452D01*
X119729524Y-111443354D01*
X119733947Y-111448266D01*
X119833043Y-111520264D01*
X119857184Y-111537803D01*
X119888448Y-111560518D01*
X119894476Y-111563202D01*
X119894478Y-111563203D01*
X120005862Y-111612794D01*
X120062912Y-111638194D01*
X120156313Y-111658047D01*
X120243256Y-111676528D01*
X120243261Y-111676528D01*
X120249713Y-111677900D01*
X120440687Y-111677900D01*
X120447139Y-111676528D01*
X120447144Y-111676528D01*
X120534087Y-111658047D01*
X120627488Y-111638194D01*
X120684538Y-111612794D01*
X120795922Y-111563203D01*
X120795924Y-111563202D01*
X120801952Y-111560518D01*
X120833217Y-111537803D01*
X120857357Y-111520264D01*
X120956453Y-111448266D01*
X121084240Y-111306344D01*
X121179727Y-111140956D01*
X121238742Y-110959328D01*
X121241981Y-110928517D01*
X121258014Y-110775965D01*
X121258704Y-110769400D01*
X121252324Y-110708701D01*
X121239432Y-110586035D01*
X121239432Y-110586033D01*
X121238742Y-110579472D01*
X121179727Y-110397844D01*
X121174181Y-110388237D01*
X121128234Y-110308656D01*
X121084240Y-110232456D01*
X121046483Y-110190522D01*
X120960875Y-110095445D01*
X120960874Y-110095444D01*
X120956453Y-110090534D01*
X120839406Y-110005494D01*
X120807294Y-109982163D01*
X120807293Y-109982162D01*
X120801952Y-109978282D01*
X120795924Y-109975598D01*
X120795922Y-109975597D01*
X120633519Y-109903291D01*
X120633518Y-109903291D01*
X120627488Y-109900606D01*
X120621033Y-109899234D01*
X120621030Y-109899233D01*
X120582587Y-109891062D01*
X120541857Y-109882404D01*
X120479384Y-109848677D01*
X120445063Y-109786528D01*
X120449790Y-109715689D01*
X120458935Y-109696158D01*
X120516023Y-109597279D01*
X120516024Y-109597278D01*
X120519327Y-109591556D01*
X120578342Y-109409928D01*
X120581702Y-109377965D01*
X120597614Y-109226565D01*
X120598304Y-109220000D01*
X120588481Y-109126539D01*
X120579032Y-109036635D01*
X120579032Y-109036633D01*
X120578342Y-109030072D01*
X120519327Y-108848444D01*
X120423840Y-108683056D01*
X120408838Y-108666394D01*
X120300475Y-108546045D01*
X120300474Y-108546044D01*
X120296053Y-108541134D01*
X120285798Y-108533683D01*
X120242446Y-108477459D01*
X120236372Y-108406723D01*
X120269506Y-108343932D01*
X120331327Y-108309023D01*
X120392927Y-108311666D01*
X120393112Y-108310794D01*
X120399562Y-108312165D01*
X120399565Y-108312166D01*
X120573456Y-108349128D01*
X120573461Y-108349128D01*
X120579913Y-108350500D01*
X120770887Y-108350500D01*
X120777339Y-108349128D01*
X120777344Y-108349128D01*
X120864287Y-108330647D01*
X120957688Y-108310794D01*
X120963719Y-108308109D01*
X121126122Y-108235803D01*
X121126124Y-108235802D01*
X121132152Y-108233118D01*
X121158919Y-108213671D01*
X121252158Y-108145928D01*
X121286653Y-108120866D01*
X121406000Y-107988317D01*
X121466445Y-107951079D01*
X121537429Y-107952431D01*
X121593270Y-107988317D01*
X121689747Y-108095466D01*
X121757276Y-108144529D01*
X121829539Y-108197031D01*
X121844248Y-108207718D01*
X121850276Y-108210402D01*
X121850278Y-108210403D01*
X121961662Y-108259994D01*
X122018712Y-108285394D01*
X122089338Y-108300406D01*
X122199056Y-108323728D01*
X122199061Y-108323728D01*
X122205513Y-108325100D01*
X122396487Y-108325100D01*
X122402939Y-108323728D01*
X122402944Y-108323728D01*
X122512662Y-108300406D01*
X122583288Y-108285394D01*
X122640338Y-108259994D01*
X122751722Y-108210403D01*
X122751724Y-108210402D01*
X122757752Y-108207718D01*
X122772462Y-108197031D01*
X122844724Y-108144529D01*
X122912253Y-108095466D01*
X123006200Y-107991128D01*
X123066645Y-107953888D01*
X123137628Y-107955240D01*
X123193471Y-107991128D01*
X123264547Y-108070066D01*
X123343913Y-108127729D01*
X123392282Y-108162871D01*
X123419048Y-108182318D01*
X123425076Y-108185002D01*
X123425078Y-108185003D01*
X123580123Y-108254033D01*
X123593512Y-108259994D01*
X123686912Y-108279847D01*
X123773856Y-108298328D01*
X123773861Y-108298328D01*
X123780313Y-108299700D01*
X123971287Y-108299700D01*
X123977739Y-108298328D01*
X123977744Y-108298328D01*
X124064687Y-108279847D01*
X124158088Y-108259994D01*
X124314753Y-108190243D01*
X124385118Y-108180809D01*
X124449415Y-108210915D01*
X124487229Y-108271004D01*
X124492000Y-108305350D01*
X124492000Y-115587123D01*
X124471998Y-115655244D01*
X124418342Y-115701737D01*
X124348068Y-115711841D01*
X124314752Y-115702230D01*
X124240323Y-115669092D01*
X124240315Y-115669089D01*
X124234288Y-115666406D01*
X124138460Y-115646037D01*
X124053944Y-115628072D01*
X124053939Y-115628072D01*
X124047487Y-115626700D01*
X123856513Y-115626700D01*
X123850061Y-115628072D01*
X123850056Y-115628072D01*
X123765540Y-115646037D01*
X123669712Y-115666406D01*
X123663682Y-115669091D01*
X123663681Y-115669091D01*
X123501278Y-115741397D01*
X123501276Y-115741398D01*
X123495248Y-115744082D01*
X123489907Y-115747962D01*
X123489906Y-115747963D01*
X123463291Y-115767300D01*
X123340747Y-115856334D01*
X123336326Y-115861244D01*
X123336325Y-115861245D01*
X123238883Y-115969466D01*
X123212960Y-115998256D01*
X123194994Y-116029374D01*
X123184819Y-116046998D01*
X123133437Y-116095991D01*
X123063723Y-116109428D01*
X122997812Y-116083041D01*
X122966581Y-116046998D01*
X122956406Y-116029374D01*
X122938440Y-115998256D01*
X122912518Y-115969466D01*
X122815075Y-115861245D01*
X122815074Y-115861244D01*
X122810653Y-115856334D01*
X122688109Y-115767300D01*
X122661494Y-115747963D01*
X122661493Y-115747962D01*
X122656152Y-115744082D01*
X122650124Y-115741398D01*
X122650122Y-115741397D01*
X122487719Y-115669091D01*
X122487718Y-115669091D01*
X122481688Y-115666406D01*
X122385860Y-115646037D01*
X122301344Y-115628072D01*
X122301339Y-115628072D01*
X122294887Y-115626700D01*
X122103913Y-115626700D01*
X122097461Y-115628072D01*
X122097456Y-115628072D01*
X122012940Y-115646037D01*
X121917112Y-115666406D01*
X121911082Y-115669091D01*
X121911081Y-115669091D01*
X121748678Y-115741397D01*
X121748676Y-115741398D01*
X121742648Y-115744082D01*
X121737307Y-115747962D01*
X121737306Y-115747963D01*
X121710691Y-115767300D01*
X121588147Y-115856334D01*
X121583726Y-115861244D01*
X121583725Y-115861245D01*
X121486283Y-115969466D01*
X121460360Y-115998256D01*
X121374086Y-116147687D01*
X121322705Y-116196679D01*
X121252991Y-116210115D01*
X121187080Y-116183729D01*
X121155849Y-116147686D01*
X121128832Y-116100891D01*
X121084240Y-116023656D01*
X121038944Y-115973349D01*
X120960875Y-115886645D01*
X120960874Y-115886644D01*
X120956453Y-115881734D01*
X120801952Y-115769482D01*
X120795924Y-115766798D01*
X120795922Y-115766797D01*
X120633519Y-115694491D01*
X120633518Y-115694491D01*
X120627488Y-115691806D01*
X120514921Y-115667879D01*
X120447144Y-115653472D01*
X120447139Y-115653472D01*
X120440687Y-115652100D01*
X120407405Y-115652100D01*
X120339284Y-115632098D01*
X120292791Y-115578442D01*
X120282687Y-115508168D01*
X120313768Y-115441792D01*
X120423840Y-115319544D01*
X120519327Y-115154156D01*
X120578342Y-114972528D01*
X120589021Y-114870928D01*
X120597614Y-114789165D01*
X120598304Y-114782600D01*
X120580862Y-114616645D01*
X120579032Y-114599235D01*
X120579032Y-114599233D01*
X120578342Y-114592672D01*
X120519327Y-114411044D01*
X120512438Y-114399111D01*
X120465003Y-114316953D01*
X120424956Y-114247588D01*
X120423840Y-114245656D01*
X120424412Y-114245326D01*
X120402159Y-114182961D01*
X120418238Y-114113809D01*
X120469152Y-114064328D01*
X120501754Y-114052520D01*
X120627488Y-114025794D01*
X120652170Y-114014805D01*
X120795922Y-113950803D01*
X120795924Y-113950802D01*
X120801952Y-113948118D01*
X120956453Y-113835866D01*
X120960875Y-113830955D01*
X121079821Y-113698852D01*
X121079822Y-113698851D01*
X121084240Y-113693944D01*
X121179727Y-113528556D01*
X121238742Y-113346928D01*
X121243034Y-113306098D01*
X121258014Y-113163565D01*
X121258704Y-113157000D01*
X121258014Y-113150435D01*
X121239432Y-112973635D01*
X121239432Y-112973633D01*
X121238742Y-112967072D01*
X121179727Y-112785444D01*
X121172229Y-112772456D01*
X121128134Y-112696082D01*
X121084240Y-112620056D01*
X120992603Y-112518282D01*
X120960875Y-112483045D01*
X120960874Y-112483044D01*
X120956453Y-112478134D01*
X120801952Y-112365882D01*
X120795924Y-112363198D01*
X120795922Y-112363197D01*
X120633519Y-112290891D01*
X120633518Y-112290891D01*
X120627488Y-112288206D01*
X120534088Y-112268353D01*
X120447144Y-112249872D01*
X120447139Y-112249872D01*
X120440687Y-112248500D01*
X120249713Y-112248500D01*
X120243261Y-112249872D01*
X120243256Y-112249872D01*
X120156312Y-112268353D01*
X120062912Y-112288206D01*
X120056882Y-112290891D01*
X120056881Y-112290891D01*
X119894478Y-112363197D01*
X119894476Y-112363198D01*
X119888448Y-112365882D01*
X119733947Y-112478134D01*
X119729526Y-112483044D01*
X119729525Y-112483045D01*
X119697798Y-112518282D01*
X119606160Y-112620056D01*
X119601729Y-112627731D01*
X119600778Y-112628638D01*
X119598976Y-112631118D01*
X119598522Y-112630788D01*
X119550349Y-112676724D01*
X119480636Y-112690163D01*
X119418550Y-112666670D01*
X119354152Y-112619882D01*
X119348124Y-112617198D01*
X119348122Y-112617197D01*
X119185719Y-112544891D01*
X119185718Y-112544891D01*
X119179688Y-112542206D01*
X119085394Y-112522163D01*
X118999344Y-112503872D01*
X118999339Y-112503872D01*
X118992887Y-112502500D01*
X118801913Y-112502500D01*
X118795461Y-112503872D01*
X118795456Y-112503872D01*
X118709406Y-112522163D01*
X118615112Y-112542206D01*
X118609082Y-112544891D01*
X118609081Y-112544891D01*
X118446678Y-112617197D01*
X118446676Y-112617198D01*
X118440648Y-112619882D01*
X118435307Y-112623762D01*
X118435306Y-112623763D01*
X118432538Y-112625774D01*
X118286147Y-112732134D01*
X118281726Y-112737044D01*
X118281725Y-112737045D01*
X118207431Y-112819557D01*
X118146985Y-112856797D01*
X118076001Y-112855445D01*
X118020162Y-112819561D01*
X118019260Y-112818559D01*
X118010053Y-112808334D01*
X117855552Y-112696082D01*
X117849524Y-112693398D01*
X117849522Y-112693397D01*
X117687119Y-112621091D01*
X117687118Y-112621091D01*
X117681088Y-112618406D01*
X117587687Y-112598553D01*
X117500744Y-112580072D01*
X117500739Y-112580072D01*
X117494287Y-112578700D01*
X117303313Y-112578700D01*
X117296861Y-112580072D01*
X117296856Y-112580072D01*
X117209912Y-112598553D01*
X117116512Y-112618406D01*
X117110482Y-112621091D01*
X117110481Y-112621091D01*
X116948078Y-112693397D01*
X116948076Y-112693398D01*
X116942048Y-112696082D01*
X116787547Y-112808334D01*
X116783126Y-112813244D01*
X116783125Y-112813245D01*
X116752221Y-112847568D01*
X116659760Y-112950256D01*
X116564273Y-113115644D01*
X116532057Y-113214794D01*
X116510209Y-113282035D01*
X116470135Y-113340640D01*
X116404739Y-113368277D01*
X116334782Y-113356170D01*
X116281257Y-113306098D01*
X116211419Y-113185136D01*
X116208118Y-113179418D01*
X116154143Y-113119472D01*
X116084753Y-113042407D01*
X116084752Y-113042406D01*
X116080331Y-113037496D01*
X115951823Y-112944129D01*
X115931172Y-112929125D01*
X115931171Y-112929124D01*
X115925830Y-112925244D01*
X115919802Y-112922560D01*
X115919800Y-112922559D01*
X115757397Y-112850253D01*
X115757396Y-112850253D01*
X115751366Y-112847568D01*
X115657966Y-112827715D01*
X115571022Y-112809234D01*
X115571017Y-112809234D01*
X115564565Y-112807862D01*
X115373591Y-112807862D01*
X115367139Y-112809234D01*
X115367134Y-112809234D01*
X115280190Y-112827715D01*
X115186790Y-112847568D01*
X115180760Y-112850253D01*
X115180759Y-112850253D01*
X115018356Y-112922559D01*
X115018354Y-112922560D01*
X115012326Y-112925244D01*
X115006985Y-112929124D01*
X115006984Y-112929125D01*
X114986333Y-112944129D01*
X114857825Y-113037496D01*
X114853404Y-113042406D01*
X114853403Y-113042407D01*
X114784014Y-113119472D01*
X114730038Y-113179418D01*
X114634551Y-113344806D01*
X114575536Y-113526434D01*
X114574846Y-113532995D01*
X114574846Y-113532997D01*
X114559956Y-113674671D01*
X114555574Y-113716362D01*
X114556264Y-113722927D01*
X114568635Y-113840626D01*
X114575536Y-113906290D01*
X114634551Y-114087918D01*
X114637854Y-114093640D01*
X114637855Y-114093641D01*
X114665638Y-114141763D01*
X114730038Y-114253306D01*
X114734456Y-114258213D01*
X114734457Y-114258214D01*
X114851556Y-114388266D01*
X114857825Y-114395228D01*
X114898102Y-114424491D01*
X115001318Y-114499482D01*
X115012326Y-114507480D01*
X115018354Y-114510164D01*
X115018356Y-114510165D01*
X115180759Y-114582471D01*
X115186790Y-114585156D01*
X115280191Y-114605009D01*
X115367134Y-114623490D01*
X115367139Y-114623490D01*
X115373591Y-114624862D01*
X115380193Y-114624862D01*
X115386760Y-114625552D01*
X115386489Y-114628134D01*
X115443465Y-114644864D01*
X115489958Y-114698520D01*
X115500654Y-114737691D01*
X115512693Y-114852235D01*
X115514658Y-114870928D01*
X115573673Y-115052556D01*
X115669160Y-115217944D01*
X115673578Y-115222851D01*
X115673579Y-115222852D01*
X115765060Y-115324452D01*
X115796947Y-115359866D01*
X115838459Y-115390026D01*
X115932475Y-115458333D01*
X115951448Y-115472118D01*
X115957476Y-115474802D01*
X115957478Y-115474803D01*
X116098672Y-115537666D01*
X116125912Y-115549794D01*
X116219313Y-115569647D01*
X116306256Y-115588128D01*
X116306261Y-115588128D01*
X116312713Y-115589500D01*
X116503687Y-115589500D01*
X116510139Y-115588128D01*
X116510144Y-115588128D01*
X116597087Y-115569647D01*
X116690488Y-115549794D01*
X116753339Y-115521811D01*
X116823706Y-115512377D01*
X116888003Y-115542483D01*
X116924421Y-115597981D01*
X116945273Y-115662156D01*
X116948576Y-115667878D01*
X116948577Y-115667879D01*
X116951981Y-115673774D01*
X117040760Y-115827544D01*
X117045178Y-115832451D01*
X117045179Y-115832452D01*
X117159521Y-115959442D01*
X117168547Y-115969466D01*
X117240351Y-116021635D01*
X117310782Y-116072806D01*
X117323048Y-116081718D01*
X117329076Y-116084402D01*
X117329078Y-116084403D01*
X117408018Y-116119549D01*
X117462114Y-116165529D01*
X117482763Y-116233456D01*
X117476603Y-116273588D01*
X117445058Y-116370672D01*
X117444368Y-116377233D01*
X117444368Y-116377235D01*
X117438216Y-116435771D01*
X117425096Y-116560600D01*
X117425786Y-116567165D01*
X117441699Y-116718565D01*
X117445058Y-116750528D01*
X117504073Y-116932156D01*
X117599560Y-117097544D01*
X117603978Y-117102451D01*
X117603979Y-117102452D01*
X117658682Y-117163206D01*
X117727347Y-117239466D01*
X117763641Y-117265835D01*
X117855082Y-117332271D01*
X117881848Y-117351718D01*
X117887876Y-117354402D01*
X117887878Y-117354403D01*
X118050281Y-117426709D01*
X118056312Y-117429394D01*
X118140120Y-117447208D01*
X118236656Y-117467728D01*
X118236661Y-117467728D01*
X118243113Y-117469100D01*
X118434087Y-117469100D01*
X118440539Y-117467728D01*
X118440544Y-117467728D01*
X118537080Y-117447208D01*
X118620888Y-117429394D01*
X118626919Y-117426709D01*
X118789322Y-117354403D01*
X118789324Y-117354402D01*
X118795352Y-117351718D01*
X118822119Y-117332271D01*
X118913559Y-117265835D01*
X118949853Y-117239466D01*
X119018518Y-117163206D01*
X119073221Y-117102452D01*
X119073222Y-117102451D01*
X119077640Y-117097544D01*
X119173127Y-116932156D01*
X119222067Y-116781535D01*
X119262141Y-116722929D01*
X119327537Y-116695292D01*
X119397494Y-116707399D01*
X119449800Y-116755405D01*
X119461733Y-116781534D01*
X119510673Y-116932156D01*
X119606160Y-117097544D01*
X119610578Y-117102451D01*
X119610579Y-117102452D01*
X119665282Y-117163206D01*
X119733947Y-117239466D01*
X119770241Y-117265835D01*
X119861682Y-117332271D01*
X119888448Y-117351718D01*
X119894476Y-117354402D01*
X119894478Y-117354403D01*
X120056881Y-117426709D01*
X120062912Y-117429394D01*
X120146720Y-117447208D01*
X120243256Y-117467728D01*
X120243261Y-117467728D01*
X120249713Y-117469100D01*
X120440687Y-117469100D01*
X120447139Y-117467728D01*
X120447144Y-117467728D01*
X120543680Y-117447208D01*
X120627488Y-117429394D01*
X120633519Y-117426709D01*
X120795922Y-117354403D01*
X120795924Y-117354402D01*
X120801952Y-117351718D01*
X120828719Y-117332271D01*
X120920159Y-117265835D01*
X120956453Y-117239466D01*
X121025118Y-117163206D01*
X121079821Y-117102452D01*
X121079822Y-117102451D01*
X121084240Y-117097544D01*
X121170514Y-116948113D01*
X121221895Y-116899121D01*
X121291609Y-116885685D01*
X121357520Y-116912071D01*
X121388751Y-116948114D01*
X121460360Y-117072144D01*
X121464778Y-117077051D01*
X121464779Y-117077052D01*
X121583725Y-117209155D01*
X121588147Y-117214066D01*
X121742648Y-117326318D01*
X121748676Y-117329002D01*
X121748678Y-117329003D01*
X121911079Y-117401308D01*
X121917112Y-117403994D01*
X122010512Y-117423847D01*
X122097456Y-117442328D01*
X122097461Y-117442328D01*
X122103913Y-117443700D01*
X122294887Y-117443700D01*
X122301339Y-117442328D01*
X122301344Y-117442328D01*
X122388288Y-117423847D01*
X122481688Y-117403994D01*
X122487721Y-117401308D01*
X122650122Y-117329003D01*
X122650124Y-117329002D01*
X122656152Y-117326318D01*
X122810653Y-117214066D01*
X122815075Y-117209155D01*
X122934021Y-117077052D01*
X122934022Y-117077051D01*
X122938440Y-117072144D01*
X122966582Y-117023401D01*
X123017963Y-116974409D01*
X123087677Y-116960972D01*
X123153588Y-116987359D01*
X123184818Y-117023401D01*
X123212960Y-117072144D01*
X123217378Y-117077051D01*
X123217379Y-117077052D01*
X123336325Y-117209155D01*
X123340747Y-117214066D01*
X123495248Y-117326318D01*
X123501276Y-117329002D01*
X123501278Y-117329003D01*
X123663679Y-117401308D01*
X123669712Y-117403994D01*
X123763112Y-117423847D01*
X123850056Y-117442328D01*
X123850061Y-117442328D01*
X123856513Y-117443700D01*
X124047487Y-117443700D01*
X124053939Y-117442328D01*
X124053944Y-117442328D01*
X124140888Y-117423847D01*
X124234288Y-117403994D01*
X124240315Y-117401311D01*
X124240323Y-117401308D01*
X124314752Y-117368170D01*
X124385119Y-117358736D01*
X124449416Y-117388843D01*
X124487229Y-117448932D01*
X124492000Y-117483277D01*
X124492000Y-139366000D01*
X124471998Y-139434121D01*
X124418342Y-139480614D01*
X124366000Y-139492000D01*
X100634000Y-139492000D01*
X100565879Y-139471998D01*
X100519386Y-139418342D01*
X100508000Y-139366000D01*
X100508000Y-137000000D01*
X101386526Y-137000000D01*
X101406391Y-137252403D01*
X101407545Y-137257210D01*
X101407546Y-137257216D01*
X101437317Y-137381221D01*
X101465495Y-137498591D01*
X101467388Y-137503162D01*
X101467389Y-137503164D01*
X101503695Y-137590813D01*
X101562384Y-137732502D01*
X101694672Y-137948376D01*
X101859102Y-138140898D01*
X102051624Y-138305328D01*
X102267498Y-138437616D01*
X102272068Y-138439509D01*
X102272072Y-138439511D01*
X102496836Y-138532611D01*
X102501409Y-138534505D01*
X102586032Y-138554821D01*
X102742784Y-138592454D01*
X102742790Y-138592455D01*
X102747597Y-138593609D01*
X102847416Y-138601465D01*
X102934345Y-138608307D01*
X102934352Y-138608307D01*
X102936801Y-138608500D01*
X103063199Y-138608500D01*
X103065648Y-138608307D01*
X103065655Y-138608307D01*
X103152584Y-138601465D01*
X103252403Y-138593609D01*
X103257210Y-138592455D01*
X103257216Y-138592454D01*
X103413968Y-138554821D01*
X103498591Y-138534505D01*
X103503164Y-138532611D01*
X103727928Y-138439511D01*
X103727932Y-138439509D01*
X103732502Y-138437616D01*
X103948376Y-138305328D01*
X104140898Y-138140898D01*
X104305328Y-137948376D01*
X104437616Y-137732502D01*
X104496306Y-137590813D01*
X104532611Y-137503164D01*
X104532612Y-137503162D01*
X104534505Y-137498591D01*
X104562683Y-137381221D01*
X104592454Y-137257216D01*
X104592455Y-137257210D01*
X104593609Y-137252403D01*
X104613474Y-137000000D01*
X104603951Y-136879000D01*
X107362700Y-136879000D01*
X107373674Y-136984766D01*
X107375855Y-136991302D01*
X107375855Y-136991304D01*
X107378756Y-137000000D01*
X107429650Y-137152546D01*
X107522722Y-137302948D01*
X107647897Y-137427905D01*
X107654127Y-137431745D01*
X107654128Y-137431746D01*
X107791290Y-137516294D01*
X107798462Y-137520715D01*
X107823417Y-137528992D01*
X107959811Y-137574232D01*
X107959813Y-137574232D01*
X107966339Y-137576397D01*
X107973175Y-137577097D01*
X107973178Y-137577098D01*
X108011586Y-137581033D01*
X108070800Y-137587100D01*
X108871600Y-137587100D01*
X108874846Y-137586763D01*
X108874850Y-137586763D01*
X108970508Y-137576838D01*
X108970512Y-137576837D01*
X108977366Y-137576126D01*
X108983902Y-137573945D01*
X108983904Y-137573945D01*
X109118643Y-137528992D01*
X109145146Y-137520150D01*
X109295548Y-137427078D01*
X109420505Y-137301903D01*
X109452275Y-137250364D01*
X109505046Y-137202871D01*
X109575118Y-137191447D01*
X109640242Y-137219721D01*
X109658618Y-137238645D01*
X109664804Y-137246520D01*
X109669335Y-137250452D01*
X109669338Y-137250455D01*
X109755258Y-137325012D01*
X109824563Y-137385152D01*
X109829749Y-137388152D01*
X109829753Y-137388155D01*
X109926157Y-137443926D01*
X110007654Y-137491073D01*
X110207471Y-137560461D01*
X110213406Y-137561322D01*
X110213408Y-137561322D01*
X110410864Y-137589952D01*
X110410867Y-137589952D01*
X110416804Y-137590813D01*
X110628099Y-137581033D01*
X110759277Y-137549419D01*
X110827901Y-137532881D01*
X110827903Y-137532880D01*
X110833734Y-137531475D01*
X110839192Y-137528993D01*
X110839196Y-137528992D01*
X110954241Y-137476684D01*
X111026287Y-137443926D01*
X111198811Y-137321546D01*
X111345081Y-137168750D01*
X111356324Y-137151338D01*
X111365946Y-137136437D01*
X111419701Y-137090060D01*
X111489997Y-137080107D01*
X111554514Y-137109739D01*
X111570881Y-137126951D01*
X111664804Y-137246520D01*
X111669335Y-137250452D01*
X111669338Y-137250455D01*
X111755258Y-137325012D01*
X111824563Y-137385152D01*
X111829749Y-137388152D01*
X111829753Y-137388155D01*
X111926157Y-137443926D01*
X112007654Y-137491073D01*
X112207471Y-137560461D01*
X112213406Y-137561322D01*
X112213408Y-137561322D01*
X112410864Y-137589952D01*
X112410867Y-137589952D01*
X112416804Y-137590813D01*
X112628099Y-137581033D01*
X112759277Y-137549419D01*
X112827901Y-137532881D01*
X112827903Y-137532880D01*
X112833734Y-137531475D01*
X112839192Y-137528993D01*
X112839196Y-137528992D01*
X112954241Y-137476684D01*
X113026287Y-137443926D01*
X113198811Y-137321546D01*
X113345081Y-137168750D01*
X113356324Y-137151338D01*
X113365946Y-137136437D01*
X113419701Y-137090060D01*
X113489997Y-137080107D01*
X113554514Y-137109739D01*
X113570881Y-137126951D01*
X113664804Y-137246520D01*
X113669335Y-137250452D01*
X113669338Y-137250455D01*
X113755258Y-137325012D01*
X113824563Y-137385152D01*
X113829749Y-137388152D01*
X113829753Y-137388155D01*
X113926157Y-137443926D01*
X114007654Y-137491073D01*
X114207471Y-137560461D01*
X114213406Y-137561322D01*
X114213408Y-137561322D01*
X114410864Y-137589952D01*
X114410867Y-137589952D01*
X114416804Y-137590813D01*
X114628099Y-137581033D01*
X114759277Y-137549419D01*
X114827901Y-137532881D01*
X114827903Y-137532880D01*
X114833734Y-137531475D01*
X114839192Y-137528993D01*
X114839196Y-137528992D01*
X114954241Y-137476684D01*
X115026287Y-137443926D01*
X115198811Y-137321546D01*
X115345081Y-137168750D01*
X115356324Y-137151338D01*
X115365946Y-137136437D01*
X115419701Y-137090060D01*
X115489997Y-137080107D01*
X115554514Y-137109739D01*
X115570881Y-137126951D01*
X115664804Y-137246520D01*
X115669335Y-137250452D01*
X115669338Y-137250455D01*
X115755258Y-137325012D01*
X115824563Y-137385152D01*
X115829749Y-137388152D01*
X115829753Y-137388155D01*
X115926157Y-137443926D01*
X116007654Y-137491073D01*
X116207471Y-137560461D01*
X116213406Y-137561322D01*
X116213408Y-137561322D01*
X116410864Y-137589952D01*
X116410867Y-137589952D01*
X116416804Y-137590813D01*
X116628099Y-137581033D01*
X116759277Y-137549419D01*
X116827901Y-137532881D01*
X116827903Y-137532880D01*
X116833734Y-137531475D01*
X116839192Y-137528993D01*
X116839196Y-137528992D01*
X116954241Y-137476684D01*
X117026287Y-137443926D01*
X117198811Y-137321546D01*
X117345081Y-137168750D01*
X117454042Y-137000000D01*
X120386526Y-137000000D01*
X120406391Y-137252403D01*
X120407545Y-137257210D01*
X120407546Y-137257216D01*
X120437317Y-137381221D01*
X120465495Y-137498591D01*
X120467388Y-137503162D01*
X120467389Y-137503164D01*
X120503695Y-137590813D01*
X120562384Y-137732502D01*
X120694672Y-137948376D01*
X120859102Y-138140898D01*
X121051624Y-138305328D01*
X121267498Y-138437616D01*
X121272068Y-138439509D01*
X121272072Y-138439511D01*
X121496836Y-138532611D01*
X121501409Y-138534505D01*
X121586032Y-138554821D01*
X121742784Y-138592454D01*
X121742790Y-138592455D01*
X121747597Y-138593609D01*
X121847416Y-138601465D01*
X121934345Y-138608307D01*
X121934352Y-138608307D01*
X121936801Y-138608500D01*
X122063199Y-138608500D01*
X122065648Y-138608307D01*
X122065655Y-138608307D01*
X122152584Y-138601465D01*
X122252403Y-138593609D01*
X122257210Y-138592455D01*
X122257216Y-138592454D01*
X122413968Y-138554821D01*
X122498591Y-138534505D01*
X122503164Y-138532611D01*
X122727928Y-138439511D01*
X122727932Y-138439509D01*
X122732502Y-138437616D01*
X122948376Y-138305328D01*
X123140898Y-138140898D01*
X123305328Y-137948376D01*
X123437616Y-137732502D01*
X123496306Y-137590813D01*
X123532611Y-137503164D01*
X123532612Y-137503162D01*
X123534505Y-137498591D01*
X123562683Y-137381221D01*
X123592454Y-137257216D01*
X123592455Y-137257210D01*
X123593609Y-137252403D01*
X123613474Y-137000000D01*
X123593609Y-136747597D01*
X123534505Y-136501409D01*
X123437616Y-136267498D01*
X123305328Y-136051624D01*
X123140898Y-135859102D01*
X122948376Y-135694672D01*
X122732502Y-135562384D01*
X122727932Y-135560491D01*
X122727928Y-135560489D01*
X122503164Y-135467389D01*
X122503162Y-135467388D01*
X122498591Y-135465495D01*
X122413968Y-135445179D01*
X122257216Y-135407546D01*
X122257210Y-135407545D01*
X122252403Y-135406391D01*
X122152584Y-135398535D01*
X122065655Y-135391693D01*
X122065648Y-135391693D01*
X122063199Y-135391500D01*
X121936801Y-135391500D01*
X121934352Y-135391693D01*
X121934345Y-135391693D01*
X121847416Y-135398535D01*
X121747597Y-135406391D01*
X121742790Y-135407545D01*
X121742784Y-135407546D01*
X121586032Y-135445179D01*
X121501409Y-135465495D01*
X121496838Y-135467388D01*
X121496836Y-135467389D01*
X121272072Y-135560489D01*
X121272068Y-135560491D01*
X121267498Y-135562384D01*
X121051624Y-135694672D01*
X120859102Y-135859102D01*
X120694672Y-136051624D01*
X120562384Y-136267498D01*
X120465495Y-136501409D01*
X120406391Y-136747597D01*
X120386526Y-137000000D01*
X117454042Y-137000000D01*
X117459820Y-136991052D01*
X117538886Y-136794863D01*
X117579428Y-136587263D01*
X117579700Y-136581701D01*
X117579700Y-135875754D01*
X117564652Y-135718034D01*
X117505108Y-135515066D01*
X117479577Y-135465495D01*
X117411004Y-135332351D01*
X117411002Y-135332348D01*
X117408258Y-135327020D01*
X117277596Y-135160680D01*
X117273065Y-135156748D01*
X117273062Y-135156745D01*
X117122367Y-135025979D01*
X117117837Y-135022048D01*
X117112651Y-135019048D01*
X117112647Y-135019045D01*
X116939942Y-134919133D01*
X116934746Y-134916127D01*
X116734929Y-134846739D01*
X116728994Y-134845878D01*
X116728992Y-134845878D01*
X116531536Y-134817248D01*
X116531533Y-134817248D01*
X116525596Y-134816387D01*
X116314301Y-134826167D01*
X116183123Y-134857781D01*
X116114499Y-134874319D01*
X116114497Y-134874320D01*
X116108666Y-134875725D01*
X116103208Y-134878207D01*
X116103204Y-134878208D01*
X115988159Y-134930516D01*
X115916113Y-134963274D01*
X115743589Y-135085654D01*
X115597319Y-135238450D01*
X115594066Y-135243488D01*
X115576454Y-135270763D01*
X115522699Y-135317140D01*
X115452403Y-135327093D01*
X115387886Y-135297461D01*
X115371517Y-135280247D01*
X115357820Y-135262809D01*
X115277596Y-135160680D01*
X115273065Y-135156748D01*
X115273062Y-135156745D01*
X115122367Y-135025979D01*
X115117837Y-135022048D01*
X115112651Y-135019048D01*
X115112647Y-135019045D01*
X114939942Y-134919133D01*
X114934746Y-134916127D01*
X114734929Y-134846739D01*
X114728994Y-134845878D01*
X114728992Y-134845878D01*
X114531536Y-134817248D01*
X114531533Y-134817248D01*
X114525596Y-134816387D01*
X114314301Y-134826167D01*
X114183123Y-134857781D01*
X114114499Y-134874319D01*
X114114497Y-134874320D01*
X114108666Y-134875725D01*
X114103208Y-134878207D01*
X114103204Y-134878208D01*
X113988159Y-134930516D01*
X113916113Y-134963274D01*
X113743589Y-135085654D01*
X113597319Y-135238450D01*
X113594066Y-135243488D01*
X113576454Y-135270763D01*
X113522699Y-135317140D01*
X113452403Y-135327093D01*
X113387886Y-135297461D01*
X113371517Y-135280247D01*
X113357820Y-135262809D01*
X113277596Y-135160680D01*
X113273065Y-135156748D01*
X113273062Y-135156745D01*
X113122367Y-135025979D01*
X113117837Y-135022048D01*
X113112651Y-135019048D01*
X113112647Y-135019045D01*
X112939942Y-134919133D01*
X112934746Y-134916127D01*
X112734929Y-134846739D01*
X112728994Y-134845878D01*
X112728992Y-134845878D01*
X112531536Y-134817248D01*
X112531533Y-134817248D01*
X112525596Y-134816387D01*
X112314301Y-134826167D01*
X112183123Y-134857781D01*
X112114499Y-134874319D01*
X112114497Y-134874320D01*
X112108666Y-134875725D01*
X112103208Y-134878207D01*
X112103204Y-134878208D01*
X111988159Y-134930516D01*
X111916113Y-134963274D01*
X111743589Y-135085654D01*
X111597319Y-135238450D01*
X111594066Y-135243488D01*
X111576454Y-135270763D01*
X111522699Y-135317140D01*
X111452403Y-135327093D01*
X111387886Y-135297461D01*
X111371517Y-135280247D01*
X111357820Y-135262809D01*
X111277596Y-135160680D01*
X111273065Y-135156748D01*
X111273062Y-135156745D01*
X111122367Y-135025979D01*
X111117837Y-135022048D01*
X111112651Y-135019048D01*
X111112647Y-135019045D01*
X110939942Y-134919133D01*
X110934746Y-134916127D01*
X110734929Y-134846739D01*
X110728994Y-134845878D01*
X110728992Y-134845878D01*
X110531536Y-134817248D01*
X110531533Y-134817248D01*
X110525596Y-134816387D01*
X110314301Y-134826167D01*
X110183123Y-134857781D01*
X110114499Y-134874319D01*
X110114497Y-134874320D01*
X110108666Y-134875725D01*
X110103208Y-134878207D01*
X110103204Y-134878208D01*
X109988159Y-134930516D01*
X109916113Y-134963274D01*
X109743589Y-135085654D01*
X109739447Y-135089981D01*
X109739441Y-135089986D01*
X109652394Y-135180917D01*
X109590839Y-135216294D01*
X109519930Y-135212775D01*
X109462179Y-135171479D01*
X109454232Y-135160091D01*
X109419678Y-135104252D01*
X109294503Y-134979295D01*
X109192026Y-134916127D01*
X109150168Y-134890325D01*
X109150166Y-134890324D01*
X109143938Y-134886485D01*
X108983454Y-134833255D01*
X108982589Y-134832968D01*
X108982587Y-134832968D01*
X108976061Y-134830803D01*
X108969225Y-134830103D01*
X108969222Y-134830102D01*
X108926169Y-134825691D01*
X108871600Y-134820100D01*
X108070800Y-134820100D01*
X108067554Y-134820437D01*
X108067550Y-134820437D01*
X107971892Y-134830362D01*
X107971888Y-134830363D01*
X107965034Y-134831074D01*
X107958498Y-134833255D01*
X107958496Y-134833255D01*
X107835413Y-134874319D01*
X107797254Y-134887050D01*
X107646852Y-134980122D01*
X107521895Y-135105297D01*
X107518055Y-135111527D01*
X107518054Y-135111528D01*
X107481100Y-135171479D01*
X107429085Y-135255862D01*
X107373403Y-135423739D01*
X107362700Y-135528200D01*
X107362700Y-136879000D01*
X104603951Y-136879000D01*
X104593609Y-136747597D01*
X104534505Y-136501409D01*
X104437616Y-136267498D01*
X104305328Y-136051624D01*
X104140898Y-135859102D01*
X103948376Y-135694672D01*
X103732502Y-135562384D01*
X103727932Y-135560491D01*
X103727928Y-135560489D01*
X103503164Y-135467389D01*
X103503162Y-135467388D01*
X103498591Y-135465495D01*
X103413968Y-135445179D01*
X103257216Y-135407546D01*
X103257210Y-135407545D01*
X103252403Y-135406391D01*
X103152584Y-135398535D01*
X103065655Y-135391693D01*
X103065648Y-135391693D01*
X103063199Y-135391500D01*
X102936801Y-135391500D01*
X102934352Y-135391693D01*
X102934345Y-135391693D01*
X102847416Y-135398535D01*
X102747597Y-135406391D01*
X102742790Y-135407545D01*
X102742784Y-135407546D01*
X102586032Y-135445179D01*
X102501409Y-135465495D01*
X102496838Y-135467388D01*
X102496836Y-135467389D01*
X102272072Y-135560489D01*
X102272068Y-135560491D01*
X102267498Y-135562384D01*
X102051624Y-135694672D01*
X101859102Y-135859102D01*
X101694672Y-136051624D01*
X101562384Y-136267498D01*
X101465495Y-136501409D01*
X101406391Y-136747597D01*
X101386526Y-137000000D01*
X100508000Y-137000000D01*
X100508000Y-133096000D01*
X105995096Y-133096000D01*
X106015058Y-133285928D01*
X106074073Y-133467556D01*
X106077376Y-133473278D01*
X106077377Y-133473279D01*
X106090152Y-133495406D01*
X106169560Y-133632944D01*
X106297347Y-133774866D01*
X106451848Y-133887118D01*
X106457876Y-133889802D01*
X106457878Y-133889803D01*
X106620281Y-133962109D01*
X106626312Y-133964794D01*
X106719712Y-133984647D01*
X106806656Y-134003128D01*
X106806661Y-134003128D01*
X106813113Y-134004500D01*
X107004087Y-134004500D01*
X107010539Y-134003128D01*
X107010544Y-134003128D01*
X107097488Y-133984647D01*
X107190888Y-133964794D01*
X107196919Y-133962109D01*
X107359322Y-133889803D01*
X107359324Y-133889802D01*
X107365352Y-133887118D01*
X107519853Y-133774866D01*
X107647640Y-133632944D01*
X107727048Y-133495406D01*
X107739823Y-133473279D01*
X107739824Y-133473278D01*
X107743127Y-133467556D01*
X107797830Y-133299200D01*
X115443896Y-133299200D01*
X115463858Y-133489128D01*
X115522873Y-133670756D01*
X115618360Y-133836144D01*
X115746147Y-133978066D01*
X115900648Y-134090318D01*
X115906676Y-134093002D01*
X115906678Y-134093003D01*
X116069081Y-134165309D01*
X116075112Y-134167994D01*
X116168513Y-134187847D01*
X116255456Y-134206328D01*
X116255461Y-134206328D01*
X116261913Y-134207700D01*
X116452887Y-134207700D01*
X116459339Y-134206328D01*
X116459344Y-134206328D01*
X116546287Y-134187847D01*
X116639688Y-134167994D01*
X116645719Y-134165309D01*
X116808122Y-134093003D01*
X116808124Y-134093002D01*
X116814152Y-134090318D01*
X116968653Y-133978066D01*
X117096440Y-133836144D01*
X117191927Y-133670756D01*
X117250942Y-133489128D01*
X117270904Y-133299200D01*
X117250942Y-133109272D01*
X117191927Y-132927644D01*
X117186381Y-132918037D01*
X117099741Y-132767974D01*
X117096440Y-132762256D01*
X117081438Y-132745594D01*
X116973075Y-132625245D01*
X116973074Y-132625244D01*
X116968653Y-132620334D01*
X116814152Y-132508082D01*
X116808124Y-132505398D01*
X116808122Y-132505397D01*
X116645719Y-132433091D01*
X116645718Y-132433091D01*
X116639688Y-132430406D01*
X116534399Y-132408026D01*
X116459344Y-132392072D01*
X116459339Y-132392072D01*
X116452887Y-132390700D01*
X116261913Y-132390700D01*
X116255461Y-132392072D01*
X116255456Y-132392072D01*
X116180401Y-132408026D01*
X116075112Y-132430406D01*
X116069082Y-132433091D01*
X116069081Y-132433091D01*
X115906678Y-132505397D01*
X115906676Y-132505398D01*
X115900648Y-132508082D01*
X115746147Y-132620334D01*
X115741726Y-132625244D01*
X115741725Y-132625245D01*
X115633363Y-132745594D01*
X115618360Y-132762256D01*
X115615059Y-132767974D01*
X115528420Y-132918037D01*
X115522873Y-132927644D01*
X115463858Y-133109272D01*
X115443896Y-133299200D01*
X107797830Y-133299200D01*
X107802142Y-133285928D01*
X107822104Y-133096000D01*
X107816145Y-133039300D01*
X107802832Y-132912635D01*
X107802832Y-132912633D01*
X107802142Y-132906072D01*
X107743127Y-132724444D01*
X107647640Y-132559056D01*
X107519853Y-132417134D01*
X107365352Y-132304882D01*
X107359324Y-132302198D01*
X107359322Y-132302197D01*
X107196919Y-132229891D01*
X107196918Y-132229891D01*
X107190888Y-132227206D01*
X107097487Y-132207353D01*
X107010544Y-132188872D01*
X107010539Y-132188872D01*
X107004087Y-132187500D01*
X106813113Y-132187500D01*
X106806661Y-132188872D01*
X106806656Y-132188872D01*
X106719713Y-132207353D01*
X106626312Y-132227206D01*
X106620282Y-132229891D01*
X106620281Y-132229891D01*
X106457878Y-132302197D01*
X106457876Y-132302198D01*
X106451848Y-132304882D01*
X106297347Y-132417134D01*
X106169560Y-132559056D01*
X106074073Y-132724444D01*
X106015058Y-132906072D01*
X106014368Y-132912633D01*
X106014368Y-132912635D01*
X106001055Y-133039300D01*
X105995096Y-133096000D01*
X100508000Y-133096000D01*
X100508000Y-132130800D01*
X101016696Y-132130800D01*
X101017386Y-132137365D01*
X101034993Y-132304882D01*
X101036658Y-132320728D01*
X101095673Y-132502356D01*
X101098976Y-132508078D01*
X101098977Y-132508079D01*
X101123616Y-132550755D01*
X101191160Y-132667744D01*
X101318947Y-132809666D01*
X101473448Y-132921918D01*
X101479476Y-132924602D01*
X101479478Y-132924603D01*
X101500425Y-132933929D01*
X101647912Y-132999594D01*
X101741313Y-133019447D01*
X101828256Y-133037928D01*
X101828261Y-133037928D01*
X101834713Y-133039300D01*
X102025687Y-133039300D01*
X102032139Y-133037928D01*
X102032144Y-133037928D01*
X102119087Y-133019447D01*
X102212488Y-132999594D01*
X102359975Y-132933929D01*
X102380922Y-132924603D01*
X102380924Y-132924602D01*
X102386952Y-132921918D01*
X102541453Y-132809666D01*
X102669240Y-132667744D01*
X102736784Y-132550755D01*
X102761423Y-132508079D01*
X102761424Y-132508078D01*
X102764727Y-132502356D01*
X102823742Y-132320728D01*
X102825408Y-132304882D01*
X102843014Y-132137365D01*
X102843704Y-132130800D01*
X102823742Y-131940872D01*
X102802924Y-131876800D01*
X121870096Y-131876800D01*
X121890058Y-132066728D01*
X121949073Y-132248356D01*
X122044560Y-132413744D01*
X122048978Y-132418651D01*
X122048979Y-132418652D01*
X122129502Y-132508082D01*
X122172347Y-132555666D01*
X122326848Y-132667918D01*
X122332876Y-132670602D01*
X122332878Y-132670603D01*
X122495281Y-132742909D01*
X122501312Y-132745594D01*
X122594713Y-132765447D01*
X122681656Y-132783928D01*
X122681661Y-132783928D01*
X122688113Y-132785300D01*
X122879087Y-132785300D01*
X122885539Y-132783928D01*
X122885544Y-132783928D01*
X122972487Y-132765447D01*
X123065888Y-132745594D01*
X123071919Y-132742909D01*
X123234322Y-132670603D01*
X123234324Y-132670602D01*
X123240352Y-132667918D01*
X123394853Y-132555666D01*
X123437698Y-132508082D01*
X123518221Y-132418652D01*
X123518222Y-132418651D01*
X123522640Y-132413744D01*
X123618127Y-132248356D01*
X123677142Y-132066728D01*
X123697104Y-131876800D01*
X123677142Y-131686872D01*
X123618127Y-131505244D01*
X123522640Y-131339856D01*
X123394853Y-131197934D01*
X123240352Y-131085682D01*
X123234324Y-131082998D01*
X123234322Y-131082997D01*
X123071919Y-131010691D01*
X123071918Y-131010691D01*
X123065888Y-131008006D01*
X122972487Y-130988153D01*
X122885544Y-130969672D01*
X122885539Y-130969672D01*
X122879087Y-130968300D01*
X122688113Y-130968300D01*
X122681661Y-130969672D01*
X122681656Y-130969672D01*
X122594713Y-130988153D01*
X122501312Y-131008006D01*
X122495282Y-131010691D01*
X122495281Y-131010691D01*
X122332878Y-131082997D01*
X122332876Y-131082998D01*
X122326848Y-131085682D01*
X122172347Y-131197934D01*
X122044560Y-131339856D01*
X121949073Y-131505244D01*
X121890058Y-131686872D01*
X121870096Y-131876800D01*
X102802924Y-131876800D01*
X102764727Y-131759244D01*
X102669240Y-131593856D01*
X102589454Y-131505244D01*
X102545875Y-131456845D01*
X102545874Y-131456844D01*
X102541453Y-131451934D01*
X102386952Y-131339682D01*
X102380924Y-131336998D01*
X102380922Y-131336997D01*
X102218519Y-131264691D01*
X102218518Y-131264691D01*
X102212488Y-131262006D01*
X102119088Y-131242153D01*
X102032144Y-131223672D01*
X102032139Y-131223672D01*
X102025687Y-131222300D01*
X101834713Y-131222300D01*
X101828261Y-131223672D01*
X101828256Y-131223672D01*
X101741312Y-131242153D01*
X101647912Y-131262006D01*
X101641882Y-131264691D01*
X101641881Y-131264691D01*
X101479478Y-131336997D01*
X101479476Y-131336998D01*
X101473448Y-131339682D01*
X101318947Y-131451934D01*
X101314526Y-131456844D01*
X101314525Y-131456845D01*
X101270947Y-131505244D01*
X101191160Y-131593856D01*
X101095673Y-131759244D01*
X101036658Y-131940872D01*
X101016696Y-132130800D01*
X100508000Y-132130800D01*
X100508000Y-126390400D01*
X104623496Y-126390400D01*
X104643458Y-126580328D01*
X104702473Y-126761956D01*
X104797960Y-126927344D01*
X104802378Y-126932251D01*
X104802379Y-126932252D01*
X104902412Y-127043350D01*
X104925747Y-127069266D01*
X105006156Y-127127687D01*
X105066084Y-127171227D01*
X105080248Y-127181518D01*
X105086276Y-127184202D01*
X105086278Y-127184203D01*
X105248681Y-127256509D01*
X105254712Y-127259194D01*
X105348112Y-127279047D01*
X105435056Y-127297528D01*
X105435061Y-127297528D01*
X105441513Y-127298900D01*
X105632487Y-127298900D01*
X105638939Y-127297528D01*
X105638944Y-127297528D01*
X105725888Y-127279047D01*
X105819288Y-127259194D01*
X105825319Y-127256509D01*
X105987722Y-127184203D01*
X105987724Y-127184202D01*
X105993752Y-127181518D01*
X106007917Y-127171227D01*
X106067844Y-127127687D01*
X106148253Y-127069266D01*
X106171588Y-127043350D01*
X106271621Y-126932252D01*
X106271622Y-126932251D01*
X106276040Y-126927344D01*
X106371527Y-126761956D01*
X106430542Y-126580328D01*
X106450504Y-126390400D01*
X106430542Y-126200472D01*
X106416064Y-126155914D01*
X112349871Y-126155914D01*
X112369833Y-126345842D01*
X112428848Y-126527470D01*
X112432151Y-126533192D01*
X112432152Y-126533193D01*
X112455576Y-126573765D01*
X112524335Y-126692858D01*
X112652122Y-126834780D01*
X112806623Y-126947032D01*
X112812651Y-126949716D01*
X112812653Y-126949717D01*
X112975056Y-127022023D01*
X112981087Y-127024708D01*
X112987542Y-127026080D01*
X112987545Y-127026081D01*
X113014499Y-127031810D01*
X113076973Y-127065538D01*
X113111295Y-127127687D01*
X113106567Y-127198527D01*
X113064292Y-127255564D01*
X113029540Y-127273690D01*
X113027112Y-127274206D01*
X112974730Y-127297528D01*
X112858678Y-127349197D01*
X112858676Y-127349198D01*
X112852648Y-127351882D01*
X112698147Y-127464134D01*
X112570360Y-127606056D01*
X112474873Y-127771444D01*
X112415858Y-127953072D01*
X112395896Y-128143000D01*
X112415858Y-128332928D01*
X112474873Y-128514556D01*
X112570360Y-128679944D01*
X112698147Y-128821866D01*
X112852648Y-128934118D01*
X112858676Y-128936802D01*
X112858678Y-128936803D01*
X113021081Y-129009109D01*
X113027112Y-129011794D01*
X113120512Y-129031647D01*
X113207456Y-129050128D01*
X113207461Y-129050128D01*
X113213913Y-129051500D01*
X113404887Y-129051500D01*
X113411339Y-129050128D01*
X113411344Y-129050128D01*
X113498288Y-129031647D01*
X113591688Y-129011794D01*
X113597719Y-129009109D01*
X113760122Y-128936803D01*
X113760124Y-128936802D01*
X113766152Y-128934118D01*
X113920653Y-128821866D01*
X114048440Y-128679944D01*
X114143927Y-128514556D01*
X114202942Y-128332928D01*
X114222904Y-128143000D01*
X114202942Y-127953072D01*
X114143927Y-127771444D01*
X114048440Y-127606056D01*
X113920653Y-127464134D01*
X113766152Y-127351882D01*
X113760124Y-127349198D01*
X113760122Y-127349197D01*
X113597719Y-127276891D01*
X113597716Y-127276890D01*
X113591688Y-127274206D01*
X113585233Y-127272834D01*
X113585230Y-127272833D01*
X113558276Y-127267104D01*
X113495802Y-127233376D01*
X113461480Y-127171227D01*
X113466208Y-127100387D01*
X113508483Y-127043350D01*
X113543235Y-127025224D01*
X113545663Y-127024708D01*
X113613497Y-126994507D01*
X113714097Y-126949717D01*
X113714099Y-126949716D01*
X113720127Y-126947032D01*
X113874628Y-126834780D01*
X114002415Y-126692858D01*
X114071174Y-126573765D01*
X114094598Y-126533193D01*
X114094599Y-126533192D01*
X114097902Y-126527470D01*
X114156917Y-126345842D01*
X114176879Y-126155914D01*
X114156917Y-125965986D01*
X114146264Y-125933200D01*
X119406296Y-125933200D01*
X119426258Y-126123128D01*
X119485273Y-126304756D01*
X119580760Y-126470144D01*
X119585178Y-126475051D01*
X119585179Y-126475052D01*
X119644222Y-126540626D01*
X119708547Y-126612066D01*
X119863048Y-126724318D01*
X119869076Y-126727002D01*
X119869078Y-126727003D01*
X120025480Y-126796637D01*
X120037512Y-126801994D01*
X120130913Y-126821847D01*
X120217856Y-126840328D01*
X120217861Y-126840328D01*
X120224313Y-126841700D01*
X120415287Y-126841700D01*
X120421739Y-126840328D01*
X120421744Y-126840328D01*
X120508687Y-126821847D01*
X120602088Y-126801994D01*
X120614120Y-126796637D01*
X120770522Y-126727003D01*
X120770524Y-126727002D01*
X120776552Y-126724318D01*
X120931053Y-126612066D01*
X120995378Y-126540626D01*
X121054421Y-126475052D01*
X121054422Y-126475051D01*
X121058840Y-126470144D01*
X121154327Y-126304756D01*
X121213342Y-126123128D01*
X121225295Y-126009400D01*
X121971696Y-126009400D01*
X121991658Y-126199328D01*
X122050673Y-126380956D01*
X122053976Y-126386678D01*
X122053977Y-126386679D01*
X122059916Y-126396965D01*
X122146160Y-126546344D01*
X122150578Y-126551251D01*
X122150579Y-126551252D01*
X122269525Y-126683355D01*
X122273947Y-126688266D01*
X122428448Y-126800518D01*
X122434476Y-126803202D01*
X122434478Y-126803203D01*
X122596881Y-126875509D01*
X122602912Y-126878194D01*
X122696312Y-126898047D01*
X122783256Y-126916528D01*
X122783261Y-126916528D01*
X122789713Y-126917900D01*
X122980687Y-126917900D01*
X122987139Y-126916528D01*
X122987144Y-126916528D01*
X123074088Y-126898047D01*
X123167488Y-126878194D01*
X123173519Y-126875509D01*
X123335922Y-126803203D01*
X123335924Y-126803202D01*
X123341952Y-126800518D01*
X123496453Y-126688266D01*
X123500875Y-126683355D01*
X123619821Y-126551252D01*
X123619822Y-126551251D01*
X123624240Y-126546344D01*
X123710484Y-126396965D01*
X123716423Y-126386679D01*
X123716424Y-126386678D01*
X123719727Y-126380956D01*
X123778742Y-126199328D01*
X123798704Y-126009400D01*
X123780563Y-125836794D01*
X123779432Y-125826035D01*
X123779432Y-125826033D01*
X123778742Y-125819472D01*
X123719727Y-125637844D01*
X123712132Y-125624688D01*
X123651825Y-125520234D01*
X123624240Y-125472456D01*
X123509730Y-125345279D01*
X123500875Y-125335445D01*
X123500874Y-125335444D01*
X123496453Y-125330534D01*
X123341952Y-125218282D01*
X123335924Y-125215598D01*
X123335922Y-125215597D01*
X123173519Y-125143291D01*
X123173518Y-125143291D01*
X123167488Y-125140606D01*
X123074087Y-125120753D01*
X122987144Y-125102272D01*
X122987139Y-125102272D01*
X122980687Y-125100900D01*
X122789713Y-125100900D01*
X122783261Y-125102272D01*
X122783256Y-125102272D01*
X122696313Y-125120753D01*
X122602912Y-125140606D01*
X122596882Y-125143291D01*
X122596881Y-125143291D01*
X122434478Y-125215597D01*
X122434476Y-125215598D01*
X122428448Y-125218282D01*
X122273947Y-125330534D01*
X122269526Y-125335444D01*
X122269525Y-125335445D01*
X122260671Y-125345279D01*
X122146160Y-125472456D01*
X122118575Y-125520234D01*
X122058269Y-125624688D01*
X122050673Y-125637844D01*
X121991658Y-125819472D01*
X121990968Y-125826033D01*
X121990968Y-125826035D01*
X121989837Y-125836794D01*
X121971696Y-126009400D01*
X121225295Y-126009400D01*
X121233304Y-125933200D01*
X121227236Y-125875466D01*
X121214032Y-125749835D01*
X121214032Y-125749833D01*
X121213342Y-125743272D01*
X121154327Y-125561644D01*
X121058840Y-125396256D01*
X120996168Y-125326651D01*
X120935475Y-125259245D01*
X120935474Y-125259244D01*
X120931053Y-125254334D01*
X120776552Y-125142082D01*
X120770524Y-125139398D01*
X120770522Y-125139397D01*
X120608119Y-125067091D01*
X120608118Y-125067091D01*
X120602088Y-125064406D01*
X120508688Y-125044553D01*
X120421744Y-125026072D01*
X120421739Y-125026072D01*
X120415287Y-125024700D01*
X120224313Y-125024700D01*
X120217861Y-125026072D01*
X120217856Y-125026072D01*
X120130912Y-125044553D01*
X120037512Y-125064406D01*
X120031482Y-125067091D01*
X120031481Y-125067091D01*
X119869078Y-125139397D01*
X119869076Y-125139398D01*
X119863048Y-125142082D01*
X119708547Y-125254334D01*
X119704126Y-125259244D01*
X119704125Y-125259245D01*
X119643433Y-125326651D01*
X119580760Y-125396256D01*
X119485273Y-125561644D01*
X119426258Y-125743272D01*
X119425568Y-125749833D01*
X119425568Y-125749835D01*
X119412364Y-125875466D01*
X119406296Y-125933200D01*
X114146264Y-125933200D01*
X114097902Y-125784358D01*
X114068565Y-125733544D01*
X114053615Y-125707651D01*
X114002415Y-125618970D01*
X113988183Y-125603163D01*
X113879050Y-125481959D01*
X113879049Y-125481958D01*
X113874628Y-125477048D01*
X113756673Y-125391348D01*
X113725469Y-125368677D01*
X113725468Y-125368676D01*
X113720127Y-125364796D01*
X113714099Y-125362112D01*
X113714097Y-125362111D01*
X113551694Y-125289805D01*
X113551693Y-125289805D01*
X113545663Y-125287120D01*
X113452263Y-125267267D01*
X113365319Y-125248786D01*
X113365314Y-125248786D01*
X113358862Y-125247414D01*
X113167888Y-125247414D01*
X113161436Y-125248786D01*
X113161431Y-125248786D01*
X113074487Y-125267267D01*
X112981087Y-125287120D01*
X112975057Y-125289805D01*
X112975056Y-125289805D01*
X112812653Y-125362111D01*
X112812651Y-125362112D01*
X112806623Y-125364796D01*
X112801282Y-125368676D01*
X112801281Y-125368677D01*
X112770077Y-125391348D01*
X112652122Y-125477048D01*
X112647701Y-125481958D01*
X112647700Y-125481959D01*
X112538568Y-125603163D01*
X112524335Y-125618970D01*
X112473135Y-125707651D01*
X112458186Y-125733544D01*
X112428848Y-125784358D01*
X112369833Y-125965986D01*
X112349871Y-126155914D01*
X106416064Y-126155914D01*
X106371527Y-126018844D01*
X106366075Y-126009400D01*
X106289344Y-125876500D01*
X106276040Y-125853456D01*
X106261038Y-125836794D01*
X106152675Y-125716445D01*
X106152674Y-125716444D01*
X106148253Y-125711534D01*
X105993752Y-125599282D01*
X105987724Y-125596598D01*
X105987722Y-125596597D01*
X105825319Y-125524291D01*
X105825318Y-125524291D01*
X105819288Y-125521606D01*
X105713999Y-125499226D01*
X105638944Y-125483272D01*
X105638939Y-125483272D01*
X105632487Y-125481900D01*
X105441513Y-125481900D01*
X105435061Y-125483272D01*
X105435056Y-125483272D01*
X105360001Y-125499226D01*
X105254712Y-125521606D01*
X105248682Y-125524291D01*
X105248681Y-125524291D01*
X105086278Y-125596597D01*
X105086276Y-125596598D01*
X105080248Y-125599282D01*
X104925747Y-125711534D01*
X104921326Y-125716444D01*
X104921325Y-125716445D01*
X104812963Y-125836794D01*
X104797960Y-125853456D01*
X104784656Y-125876500D01*
X104707926Y-126009400D01*
X104702473Y-126018844D01*
X104643458Y-126200472D01*
X104623496Y-126390400D01*
X100508000Y-126390400D01*
X100508000Y-125196600D01*
X100762696Y-125196600D01*
X100763386Y-125203165D01*
X100778323Y-125345279D01*
X100782658Y-125386528D01*
X100841673Y-125568156D01*
X100844976Y-125573878D01*
X100844977Y-125573879D01*
X100874312Y-125624688D01*
X100937160Y-125733544D01*
X100941578Y-125738451D01*
X100941579Y-125738452D01*
X101031362Y-125838166D01*
X101064947Y-125875466D01*
X101135375Y-125926635D01*
X101189537Y-125965986D01*
X101219448Y-125987718D01*
X101225476Y-125990402D01*
X101225478Y-125990403D01*
X101387881Y-126062709D01*
X101393912Y-126065394D01*
X101487312Y-126085247D01*
X101574256Y-126103728D01*
X101574261Y-126103728D01*
X101580713Y-126105100D01*
X101771687Y-126105100D01*
X101778139Y-126103728D01*
X101778144Y-126103728D01*
X101865088Y-126085247D01*
X101958488Y-126065394D01*
X101964519Y-126062709D01*
X102126922Y-125990403D01*
X102126924Y-125990402D01*
X102132952Y-125987718D01*
X102162864Y-125965986D01*
X102217025Y-125926635D01*
X102287453Y-125875466D01*
X102321038Y-125838166D01*
X102410821Y-125738452D01*
X102410822Y-125738451D01*
X102415240Y-125733544D01*
X102478088Y-125624688D01*
X102507423Y-125573879D01*
X102507424Y-125573878D01*
X102510727Y-125568156D01*
X102569742Y-125386528D01*
X102574078Y-125345279D01*
X102589014Y-125203165D01*
X102589704Y-125196600D01*
X102569742Y-125006672D01*
X102557177Y-124968000D01*
X116053496Y-124968000D01*
X116054186Y-124974565D01*
X116071920Y-125143291D01*
X116073458Y-125157928D01*
X116132473Y-125339556D01*
X116227960Y-125504944D01*
X116232378Y-125509851D01*
X116232379Y-125509852D01*
X116351325Y-125641955D01*
X116355747Y-125646866D01*
X116439410Y-125707651D01*
X116475049Y-125733544D01*
X116510248Y-125759118D01*
X116516276Y-125761802D01*
X116516278Y-125761803D01*
X116678681Y-125834109D01*
X116684712Y-125836794D01*
X116778112Y-125856647D01*
X116865056Y-125875128D01*
X116865061Y-125875128D01*
X116871513Y-125876500D01*
X117062487Y-125876500D01*
X117068939Y-125875128D01*
X117068944Y-125875128D01*
X117155888Y-125856647D01*
X117249288Y-125836794D01*
X117255319Y-125834109D01*
X117417722Y-125761803D01*
X117417724Y-125761802D01*
X117423752Y-125759118D01*
X117458952Y-125733544D01*
X117494590Y-125707651D01*
X117578253Y-125646866D01*
X117582675Y-125641955D01*
X117701621Y-125509852D01*
X117701622Y-125509851D01*
X117706040Y-125504944D01*
X117801527Y-125339556D01*
X117860542Y-125157928D01*
X117862081Y-125143291D01*
X117879814Y-124974565D01*
X117880504Y-124968000D01*
X117879814Y-124961435D01*
X117861232Y-124784635D01*
X117861232Y-124784633D01*
X117860542Y-124778072D01*
X117801527Y-124596444D01*
X117706040Y-124431056D01*
X117613074Y-124327806D01*
X117582675Y-124294045D01*
X117582674Y-124294044D01*
X117578253Y-124289134D01*
X117423752Y-124176882D01*
X117417724Y-124174198D01*
X117417722Y-124174197D01*
X117255319Y-124101891D01*
X117255318Y-124101891D01*
X117249288Y-124099206D01*
X117155887Y-124079353D01*
X117068944Y-124060872D01*
X117068939Y-124060872D01*
X117062487Y-124059500D01*
X116871513Y-124059500D01*
X116865061Y-124060872D01*
X116865056Y-124060872D01*
X116778113Y-124079353D01*
X116684712Y-124099206D01*
X116678682Y-124101891D01*
X116678681Y-124101891D01*
X116516278Y-124174197D01*
X116516276Y-124174198D01*
X116510248Y-124176882D01*
X116355747Y-124289134D01*
X116351326Y-124294044D01*
X116351325Y-124294045D01*
X116320927Y-124327806D01*
X116227960Y-124431056D01*
X116132473Y-124596444D01*
X116073458Y-124778072D01*
X116072768Y-124784633D01*
X116072768Y-124784635D01*
X116054186Y-124961435D01*
X116053496Y-124968000D01*
X102557177Y-124968000D01*
X102510727Y-124825044D01*
X102415240Y-124659656D01*
X102287453Y-124517734D01*
X102176022Y-124436774D01*
X102138294Y-124409363D01*
X102138293Y-124409362D01*
X102132952Y-124405482D01*
X102126924Y-124402798D01*
X102126922Y-124402797D01*
X101964519Y-124330491D01*
X101964518Y-124330491D01*
X101958488Y-124327806D01*
X101865087Y-124307953D01*
X101778144Y-124289472D01*
X101778139Y-124289472D01*
X101771687Y-124288100D01*
X101580713Y-124288100D01*
X101574261Y-124289472D01*
X101574256Y-124289472D01*
X101487313Y-124307953D01*
X101393912Y-124327806D01*
X101387882Y-124330491D01*
X101387881Y-124330491D01*
X101225478Y-124402797D01*
X101225476Y-124402798D01*
X101219448Y-124405482D01*
X101214107Y-124409362D01*
X101214106Y-124409363D01*
X101176378Y-124436774D01*
X101064947Y-124517734D01*
X100937160Y-124659656D01*
X100841673Y-124825044D01*
X100782658Y-125006672D01*
X100762696Y-125196600D01*
X100508000Y-125196600D01*
X100508000Y-122707400D01*
X107061896Y-122707400D01*
X107062586Y-122713965D01*
X107079487Y-122874765D01*
X107081858Y-122897328D01*
X107140873Y-123078956D01*
X107236360Y-123244344D01*
X107240778Y-123249251D01*
X107240779Y-123249252D01*
X107353237Y-123374149D01*
X107364147Y-123386266D01*
X107463243Y-123458264D01*
X107500322Y-123485203D01*
X107518648Y-123498518D01*
X107524676Y-123501202D01*
X107524678Y-123501203D01*
X107687081Y-123573509D01*
X107693112Y-123576194D01*
X107786513Y-123596047D01*
X107873456Y-123614528D01*
X107873461Y-123614528D01*
X107879913Y-123615900D01*
X108070887Y-123615900D01*
X108077339Y-123614528D01*
X108077344Y-123614528D01*
X108164287Y-123596047D01*
X108257688Y-123576194D01*
X108263719Y-123573509D01*
X108426122Y-123501203D01*
X108426124Y-123501202D01*
X108432152Y-123498518D01*
X108450479Y-123485203D01*
X108487557Y-123458264D01*
X108586653Y-123386266D01*
X108597563Y-123374149D01*
X108710021Y-123249252D01*
X108710022Y-123249251D01*
X108714440Y-123244344D01*
X108809927Y-123078956D01*
X108839871Y-122986800D01*
X112218096Y-122986800D01*
X112238058Y-123176728D01*
X112297073Y-123358356D01*
X112300376Y-123364078D01*
X112300377Y-123364079D01*
X112313187Y-123386266D01*
X112392560Y-123523744D01*
X112396978Y-123528651D01*
X112396979Y-123528652D01*
X112515925Y-123660755D01*
X112520347Y-123665666D01*
X112674848Y-123777918D01*
X112680876Y-123780602D01*
X112680878Y-123780603D01*
X112843281Y-123852909D01*
X112849312Y-123855594D01*
X112942712Y-123875447D01*
X113029656Y-123893928D01*
X113029661Y-123893928D01*
X113036113Y-123895300D01*
X113227087Y-123895300D01*
X113233539Y-123893928D01*
X113233544Y-123893928D01*
X113320488Y-123875447D01*
X113413888Y-123855594D01*
X113419919Y-123852909D01*
X113582322Y-123780603D01*
X113582324Y-123780602D01*
X113588352Y-123777918D01*
X113742853Y-123665666D01*
X113747275Y-123660755D01*
X113866221Y-123528652D01*
X113866222Y-123528651D01*
X113870640Y-123523744D01*
X113886082Y-123496999D01*
X113937463Y-123448006D01*
X114007176Y-123434569D01*
X114073087Y-123460956D01*
X114104318Y-123496998D01*
X114119760Y-123523744D01*
X114124178Y-123528651D01*
X114124179Y-123528652D01*
X114243125Y-123660755D01*
X114247547Y-123665666D01*
X114402048Y-123777918D01*
X114408076Y-123780602D01*
X114408078Y-123780603D01*
X114570481Y-123852909D01*
X114576512Y-123855594D01*
X114669912Y-123875447D01*
X114756856Y-123893928D01*
X114756861Y-123893928D01*
X114763313Y-123895300D01*
X114954287Y-123895300D01*
X114960739Y-123893928D01*
X114960744Y-123893928D01*
X115047688Y-123875447D01*
X115141088Y-123855594D01*
X115147119Y-123852909D01*
X115309522Y-123780603D01*
X115309524Y-123780602D01*
X115315552Y-123777918D01*
X115470053Y-123665666D01*
X115474475Y-123660755D01*
X115593421Y-123528652D01*
X115593422Y-123528651D01*
X115597840Y-123523744D01*
X115677213Y-123386266D01*
X115690023Y-123364079D01*
X115690024Y-123364078D01*
X115693327Y-123358356D01*
X115752342Y-123176728D01*
X115772304Y-122986800D01*
X115762900Y-122897328D01*
X115753032Y-122803435D01*
X115753032Y-122803433D01*
X115752342Y-122796872D01*
X115718072Y-122691400D01*
X118136296Y-122691400D01*
X118136986Y-122697965D01*
X118153402Y-122854151D01*
X118156258Y-122881328D01*
X118215273Y-123062956D01*
X118218576Y-123068678D01*
X118218577Y-123068679D01*
X118227815Y-123084679D01*
X118310760Y-123228344D01*
X118315178Y-123233251D01*
X118315179Y-123233252D01*
X118347258Y-123268879D01*
X118438547Y-123370266D01*
X118527052Y-123434569D01*
X118563371Y-123460956D01*
X118593048Y-123482518D01*
X118599076Y-123485202D01*
X118599078Y-123485203D01*
X118696667Y-123528652D01*
X118767512Y-123560194D01*
X118860912Y-123580047D01*
X118947856Y-123598528D01*
X118947861Y-123598528D01*
X118954313Y-123599900D01*
X119145287Y-123599900D01*
X119151739Y-123598528D01*
X119151744Y-123598528D01*
X119238688Y-123580047D01*
X119332088Y-123560194D01*
X119402933Y-123528652D01*
X119500522Y-123485203D01*
X119500524Y-123485202D01*
X119506552Y-123482518D01*
X119536230Y-123460956D01*
X119572548Y-123434569D01*
X119661053Y-123370266D01*
X119752342Y-123268879D01*
X119784421Y-123233252D01*
X119784422Y-123233251D01*
X119788840Y-123228344D01*
X119871785Y-123084679D01*
X119881023Y-123068679D01*
X119881024Y-123068678D01*
X119884327Y-123062956D01*
X119933130Y-122912757D01*
X119973204Y-122854151D01*
X120038600Y-122826514D01*
X120079160Y-122828446D01*
X120192456Y-122852528D01*
X120192461Y-122852528D01*
X120198913Y-122853900D01*
X120389887Y-122853900D01*
X120396339Y-122852528D01*
X120396344Y-122852528D01*
X120483288Y-122834047D01*
X120576688Y-122814194D01*
X120582719Y-122811509D01*
X120745122Y-122739203D01*
X120745124Y-122739202D01*
X120751152Y-122736518D01*
X120782194Y-122713965D01*
X120822287Y-122684835D01*
X120905653Y-122624266D01*
X120910075Y-122619355D01*
X121029021Y-122487252D01*
X121029022Y-122487251D01*
X121033440Y-122482344D01*
X121128927Y-122316956D01*
X121187942Y-122135328D01*
X121189481Y-122120691D01*
X121207214Y-121951965D01*
X121207904Y-121945400D01*
X121196680Y-121838606D01*
X121188632Y-121762035D01*
X121188632Y-121762033D01*
X121187942Y-121755472D01*
X121128927Y-121573844D01*
X121033440Y-121408456D01*
X120905653Y-121266534D01*
X120751152Y-121154282D01*
X120745124Y-121151598D01*
X120745122Y-121151597D01*
X120582719Y-121079291D01*
X120582718Y-121079291D01*
X120576688Y-121076606D01*
X120483287Y-121056753D01*
X120396344Y-121038272D01*
X120396339Y-121038272D01*
X120389887Y-121036900D01*
X120198913Y-121036900D01*
X120192461Y-121038272D01*
X120192456Y-121038272D01*
X120105513Y-121056753D01*
X120012112Y-121076606D01*
X120006082Y-121079291D01*
X120006081Y-121079291D01*
X119843678Y-121151597D01*
X119843676Y-121151598D01*
X119837648Y-121154282D01*
X119683147Y-121266534D01*
X119555360Y-121408456D01*
X119459873Y-121573844D01*
X119457831Y-121580129D01*
X119411070Y-121724043D01*
X119370996Y-121782649D01*
X119305600Y-121810286D01*
X119265040Y-121808354D01*
X119151744Y-121784272D01*
X119151739Y-121784272D01*
X119145287Y-121782900D01*
X118954313Y-121782900D01*
X118947861Y-121784272D01*
X118947856Y-121784272D01*
X118860913Y-121802753D01*
X118767512Y-121822606D01*
X118761482Y-121825291D01*
X118761481Y-121825291D01*
X118599078Y-121897597D01*
X118599076Y-121897598D01*
X118593048Y-121900282D01*
X118587707Y-121904162D01*
X118587706Y-121904163D01*
X118571026Y-121916282D01*
X118438547Y-122012534D01*
X118434126Y-122017444D01*
X118434125Y-122017445D01*
X118424141Y-122028534D01*
X118310760Y-122154456D01*
X118215273Y-122319844D01*
X118156258Y-122501472D01*
X118155568Y-122508033D01*
X118155568Y-122508035D01*
X118153723Y-122525594D01*
X118136296Y-122691400D01*
X115718072Y-122691400D01*
X115693327Y-122615244D01*
X115597840Y-122449856D01*
X115483330Y-122322679D01*
X115474475Y-122312845D01*
X115474474Y-122312844D01*
X115470053Y-122307934D01*
X115315552Y-122195682D01*
X115309524Y-122192998D01*
X115309522Y-122192997D01*
X115147119Y-122120691D01*
X115147118Y-122120691D01*
X115141088Y-122118006D01*
X115047687Y-122098153D01*
X114960744Y-122079672D01*
X114960739Y-122079672D01*
X114954287Y-122078300D01*
X114763313Y-122078300D01*
X114756861Y-122079672D01*
X114756856Y-122079672D01*
X114669913Y-122098153D01*
X114576512Y-122118006D01*
X114570482Y-122120691D01*
X114570481Y-122120691D01*
X114408078Y-122192997D01*
X114408076Y-122192998D01*
X114402048Y-122195682D01*
X114247547Y-122307934D01*
X114243126Y-122312844D01*
X114243125Y-122312845D01*
X114234271Y-122322679D01*
X114119760Y-122449856D01*
X114104318Y-122476601D01*
X114052937Y-122525594D01*
X113983224Y-122539031D01*
X113917313Y-122512644D01*
X113886082Y-122476602D01*
X113870640Y-122449856D01*
X113756130Y-122322679D01*
X113747275Y-122312845D01*
X113747274Y-122312844D01*
X113742853Y-122307934D01*
X113588352Y-122195682D01*
X113582324Y-122192998D01*
X113582322Y-122192997D01*
X113419919Y-122120691D01*
X113419918Y-122120691D01*
X113413888Y-122118006D01*
X113320487Y-122098153D01*
X113233544Y-122079672D01*
X113233539Y-122079672D01*
X113227087Y-122078300D01*
X113036113Y-122078300D01*
X113029661Y-122079672D01*
X113029656Y-122079672D01*
X112942713Y-122098153D01*
X112849312Y-122118006D01*
X112843282Y-122120691D01*
X112843281Y-122120691D01*
X112680878Y-122192997D01*
X112680876Y-122192998D01*
X112674848Y-122195682D01*
X112520347Y-122307934D01*
X112515926Y-122312844D01*
X112515925Y-122312845D01*
X112507071Y-122322679D01*
X112392560Y-122449856D01*
X112297073Y-122615244D01*
X112238058Y-122796872D01*
X112237368Y-122803433D01*
X112237368Y-122803435D01*
X112227500Y-122897328D01*
X112218096Y-122986800D01*
X108839871Y-122986800D01*
X108868942Y-122897328D01*
X108871314Y-122874765D01*
X108888214Y-122713965D01*
X108888904Y-122707400D01*
X108886532Y-122684835D01*
X108869632Y-122524035D01*
X108869632Y-122524033D01*
X108868942Y-122517472D01*
X108809927Y-122335844D01*
X108800690Y-122319844D01*
X108717741Y-122176174D01*
X108714440Y-122170456D01*
X108695615Y-122149548D01*
X108591075Y-122033445D01*
X108591074Y-122033444D01*
X108586653Y-122028534D01*
X108472229Y-121945400D01*
X108437494Y-121920163D01*
X108437493Y-121920162D01*
X108432152Y-121916282D01*
X108426124Y-121913598D01*
X108426122Y-121913597D01*
X108263719Y-121841291D01*
X108263718Y-121841291D01*
X108257688Y-121838606D01*
X108164288Y-121818753D01*
X108077344Y-121800272D01*
X108077339Y-121800272D01*
X108070887Y-121798900D01*
X107879913Y-121798900D01*
X107873461Y-121800272D01*
X107873456Y-121800272D01*
X107786512Y-121818753D01*
X107693112Y-121838606D01*
X107687082Y-121841291D01*
X107687081Y-121841291D01*
X107524678Y-121913597D01*
X107524676Y-121913598D01*
X107518648Y-121916282D01*
X107513307Y-121920162D01*
X107513306Y-121920163D01*
X107478571Y-121945400D01*
X107364147Y-122028534D01*
X107359726Y-122033444D01*
X107359725Y-122033445D01*
X107255186Y-122149548D01*
X107236360Y-122170456D01*
X107233059Y-122176174D01*
X107150111Y-122319844D01*
X107140873Y-122335844D01*
X107081858Y-122517472D01*
X107081168Y-122524033D01*
X107081168Y-122524035D01*
X107064268Y-122684835D01*
X107061896Y-122707400D01*
X100508000Y-122707400D01*
X100508000Y-120887910D01*
X113961910Y-120887910D01*
X113981872Y-121077838D01*
X114040887Y-121259466D01*
X114136374Y-121424854D01*
X114264161Y-121566776D01*
X114418662Y-121679028D01*
X114424690Y-121681712D01*
X114424692Y-121681713D01*
X114576258Y-121749194D01*
X114593126Y-121756704D01*
X114686526Y-121776557D01*
X114773470Y-121795038D01*
X114773475Y-121795038D01*
X114779927Y-121796410D01*
X114970901Y-121796410D01*
X114977353Y-121795038D01*
X114977358Y-121795038D01*
X115064302Y-121776557D01*
X115157702Y-121756704D01*
X115174570Y-121749194D01*
X115326136Y-121681713D01*
X115326138Y-121681712D01*
X115332166Y-121679028D01*
X115486667Y-121566776D01*
X115614454Y-121424854D01*
X115709941Y-121259466D01*
X115768956Y-121077838D01*
X115788918Y-120887910D01*
X115768956Y-120697982D01*
X115709941Y-120516354D01*
X115614454Y-120350966D01*
X115560217Y-120290729D01*
X115491089Y-120213955D01*
X115491088Y-120213954D01*
X115486667Y-120209044D01*
X115346431Y-120107156D01*
X115337508Y-120100673D01*
X115337507Y-120100672D01*
X115332166Y-120096792D01*
X115326138Y-120094108D01*
X115326136Y-120094107D01*
X115163733Y-120021801D01*
X115163732Y-120021801D01*
X115157702Y-120019116D01*
X115064301Y-119999263D01*
X114977358Y-119980782D01*
X114977353Y-119980782D01*
X114970901Y-119979410D01*
X114779927Y-119979410D01*
X114773475Y-119980782D01*
X114773470Y-119980782D01*
X114686527Y-119999263D01*
X114593126Y-120019116D01*
X114587096Y-120021801D01*
X114587095Y-120021801D01*
X114424692Y-120094107D01*
X114424690Y-120094108D01*
X114418662Y-120096792D01*
X114413321Y-120100672D01*
X114413320Y-120100673D01*
X114404397Y-120107156D01*
X114264161Y-120209044D01*
X114259740Y-120213954D01*
X114259739Y-120213955D01*
X114190612Y-120290729D01*
X114136374Y-120350966D01*
X114040887Y-120516354D01*
X113981872Y-120697982D01*
X113961910Y-120887910D01*
X100508000Y-120887910D01*
X100508000Y-120635522D01*
X100528002Y-120567401D01*
X100581658Y-120520908D01*
X100651932Y-120510804D01*
X100708061Y-120533586D01*
X100805520Y-120604394D01*
X100838448Y-120628318D01*
X100844476Y-120631002D01*
X100844478Y-120631003D01*
X101006881Y-120703309D01*
X101012912Y-120705994D01*
X101106313Y-120725847D01*
X101193256Y-120744328D01*
X101193261Y-120744328D01*
X101199713Y-120745700D01*
X101390687Y-120745700D01*
X101397139Y-120744328D01*
X101397144Y-120744328D01*
X101484087Y-120725847D01*
X101577488Y-120705994D01*
X101583519Y-120703309D01*
X101745922Y-120631003D01*
X101745924Y-120631002D01*
X101751952Y-120628318D01*
X101784881Y-120604394D01*
X101835797Y-120567401D01*
X101906453Y-120516066D01*
X101948697Y-120469149D01*
X102029821Y-120379052D01*
X102029822Y-120379051D01*
X102034240Y-120374144D01*
X102129727Y-120208756D01*
X102188742Y-120027128D01*
X102193422Y-119982606D01*
X102208014Y-119843765D01*
X102208704Y-119837200D01*
X102188742Y-119647272D01*
X102129727Y-119465644D01*
X102034240Y-119300256D01*
X101984081Y-119244548D01*
X101910875Y-119163245D01*
X101910874Y-119163244D01*
X101906453Y-119158334D01*
X101751952Y-119046082D01*
X101745924Y-119043398D01*
X101745922Y-119043397D01*
X101583519Y-118971091D01*
X101583518Y-118971091D01*
X101577488Y-118968406D01*
X101483194Y-118948363D01*
X101397144Y-118930072D01*
X101397139Y-118930072D01*
X101390687Y-118928700D01*
X101199713Y-118928700D01*
X101193261Y-118930072D01*
X101193256Y-118930072D01*
X101107206Y-118948363D01*
X101012912Y-118968406D01*
X101006882Y-118971091D01*
X101006881Y-118971091D01*
X100844478Y-119043397D01*
X100844476Y-119043398D01*
X100838448Y-119046082D01*
X100833107Y-119049962D01*
X100833106Y-119049963D01*
X100708061Y-119140814D01*
X100641193Y-119164672D01*
X100572042Y-119148592D01*
X100522562Y-119097678D01*
X100508000Y-119038878D01*
X100508000Y-118389400D01*
X109195496Y-118389400D01*
X109196186Y-118395965D01*
X109212187Y-118548203D01*
X109215458Y-118579328D01*
X109274473Y-118760956D01*
X109369960Y-118926344D01*
X109374378Y-118931251D01*
X109374379Y-118931252D01*
X109491785Y-119061645D01*
X109497747Y-119068266D01*
X109652248Y-119180518D01*
X109658276Y-119183202D01*
X109658278Y-119183203D01*
X109796062Y-119244548D01*
X109826712Y-119258194D01*
X109920113Y-119278047D01*
X110007056Y-119296528D01*
X110007061Y-119296528D01*
X110013513Y-119297900D01*
X110028046Y-119297900D01*
X110096167Y-119317902D01*
X110142660Y-119371558D01*
X110152764Y-119441832D01*
X110147879Y-119462836D01*
X110104458Y-119596472D01*
X110103768Y-119603033D01*
X110103768Y-119603035D01*
X110099119Y-119647272D01*
X110084496Y-119786400D01*
X110085186Y-119792965D01*
X110099779Y-119931806D01*
X110104458Y-119976328D01*
X110163473Y-120157956D01*
X110258960Y-120323344D01*
X110263378Y-120328251D01*
X110263379Y-120328252D01*
X110344503Y-120418349D01*
X110386747Y-120465266D01*
X110541248Y-120577518D01*
X110547276Y-120580202D01*
X110547278Y-120580203D01*
X110690794Y-120644100D01*
X110715712Y-120655194D01*
X110809113Y-120675047D01*
X110896056Y-120693528D01*
X110896061Y-120693528D01*
X110902513Y-120694900D01*
X111093487Y-120694900D01*
X111099939Y-120693528D01*
X111099944Y-120693528D01*
X111186887Y-120675047D01*
X111280288Y-120655194D01*
X111305206Y-120644100D01*
X111448722Y-120580203D01*
X111448724Y-120580202D01*
X111454752Y-120577518D01*
X111609253Y-120465266D01*
X111651497Y-120418349D01*
X111732621Y-120328252D01*
X111732622Y-120328251D01*
X111737040Y-120323344D01*
X111832527Y-120157956D01*
X111891542Y-119976328D01*
X111896222Y-119931806D01*
X111910814Y-119792965D01*
X111911504Y-119786400D01*
X111906165Y-119735600D01*
X121920896Y-119735600D01*
X121940858Y-119925528D01*
X121999873Y-120107156D01*
X122095360Y-120272544D01*
X122099778Y-120277451D01*
X122099779Y-120277452D01*
X122161552Y-120346058D01*
X122223147Y-120414466D01*
X122322243Y-120486464D01*
X122372034Y-120522639D01*
X122377648Y-120526718D01*
X122383676Y-120529402D01*
X122383678Y-120529403D01*
X122546081Y-120601709D01*
X122552112Y-120604394D01*
X122645512Y-120624247D01*
X122732456Y-120642728D01*
X122732461Y-120642728D01*
X122738913Y-120644100D01*
X122929887Y-120644100D01*
X122936339Y-120642728D01*
X122936344Y-120642728D01*
X123023288Y-120624247D01*
X123116688Y-120604394D01*
X123122719Y-120601709D01*
X123285122Y-120529403D01*
X123285124Y-120529402D01*
X123291152Y-120526718D01*
X123296767Y-120522639D01*
X123346557Y-120486464D01*
X123445653Y-120414466D01*
X123507248Y-120346058D01*
X123569021Y-120277452D01*
X123569022Y-120277451D01*
X123573440Y-120272544D01*
X123668927Y-120107156D01*
X123727942Y-119925528D01*
X123747904Y-119735600D01*
X123739310Y-119653835D01*
X123728632Y-119552235D01*
X123728632Y-119552233D01*
X123727942Y-119545672D01*
X123668927Y-119364044D01*
X123573440Y-119198656D01*
X123557109Y-119180518D01*
X123450075Y-119061645D01*
X123450074Y-119061644D01*
X123445653Y-119056734D01*
X123327776Y-118971091D01*
X123296494Y-118948363D01*
X123296493Y-118948362D01*
X123291152Y-118944482D01*
X123285124Y-118941798D01*
X123285122Y-118941797D01*
X123122719Y-118869491D01*
X123122718Y-118869491D01*
X123116688Y-118866806D01*
X123023288Y-118846953D01*
X122936344Y-118828472D01*
X122936339Y-118828472D01*
X122929887Y-118827100D01*
X122738913Y-118827100D01*
X122732461Y-118828472D01*
X122732456Y-118828472D01*
X122645512Y-118846953D01*
X122552112Y-118866806D01*
X122546082Y-118869491D01*
X122546081Y-118869491D01*
X122383678Y-118941797D01*
X122383676Y-118941798D01*
X122377648Y-118944482D01*
X122372307Y-118948362D01*
X122372306Y-118948363D01*
X122341024Y-118971091D01*
X122223147Y-119056734D01*
X122218726Y-119061644D01*
X122218725Y-119061645D01*
X122111692Y-119180518D01*
X122095360Y-119198656D01*
X121999873Y-119364044D01*
X121940858Y-119545672D01*
X121940168Y-119552233D01*
X121940168Y-119552235D01*
X121929490Y-119653835D01*
X121920896Y-119735600D01*
X111906165Y-119735600D01*
X111896881Y-119647272D01*
X111892232Y-119603035D01*
X111892232Y-119603033D01*
X111891542Y-119596472D01*
X111832527Y-119414844D01*
X111737040Y-119249456D01*
X111686881Y-119193748D01*
X111613675Y-119112445D01*
X111613674Y-119112444D01*
X111609253Y-119107534D01*
X111454752Y-118995282D01*
X111448724Y-118992598D01*
X111448722Y-118992597D01*
X111286319Y-118920291D01*
X111286318Y-118920291D01*
X111280288Y-118917606D01*
X111186887Y-118897753D01*
X111099944Y-118879272D01*
X111099939Y-118879272D01*
X111093487Y-118877900D01*
X111078954Y-118877900D01*
X111010833Y-118857898D01*
X110964340Y-118804242D01*
X110954236Y-118733968D01*
X110959121Y-118712964D01*
X111000502Y-118585606D01*
X111002542Y-118579328D01*
X111005814Y-118548203D01*
X111021814Y-118395965D01*
X111022504Y-118389400D01*
X111010027Y-118270685D01*
X111022799Y-118200847D01*
X111071301Y-118149000D01*
X111140134Y-118131606D01*
X111207444Y-118154188D01*
X111244455Y-118194514D01*
X111300360Y-118291344D01*
X111428147Y-118433266D01*
X111582648Y-118545518D01*
X111588676Y-118548202D01*
X111588678Y-118548203D01*
X111751081Y-118620509D01*
X111757112Y-118623194D01*
X111850513Y-118643047D01*
X111937456Y-118661528D01*
X111937461Y-118661528D01*
X111943913Y-118662900D01*
X112134887Y-118662900D01*
X112141339Y-118661528D01*
X112141344Y-118661528D01*
X112228287Y-118643047D01*
X112321688Y-118623194D01*
X112327719Y-118620509D01*
X112490122Y-118548203D01*
X112490124Y-118548202D01*
X112496152Y-118545518D01*
X112650653Y-118433266D01*
X112778440Y-118291344D01*
X112873927Y-118125956D01*
X112932942Y-117944328D01*
X112936763Y-117907979D01*
X112952214Y-117760965D01*
X112952904Y-117754400D01*
X112938311Y-117615555D01*
X112933632Y-117571035D01*
X112933632Y-117571033D01*
X112932942Y-117564472D01*
X112873927Y-117382844D01*
X112851662Y-117344279D01*
X112806372Y-117265835D01*
X112778440Y-117217456D01*
X112723941Y-117156928D01*
X112655075Y-117080445D01*
X112655074Y-117080444D01*
X112650653Y-117075534D01*
X112496152Y-116963282D01*
X112490124Y-116960598D01*
X112490122Y-116960597D01*
X112327719Y-116888291D01*
X112327718Y-116888291D01*
X112321688Y-116885606D01*
X112228288Y-116865753D01*
X112141344Y-116847272D01*
X112141339Y-116847272D01*
X112134887Y-116845900D01*
X111943913Y-116845900D01*
X111937461Y-116847272D01*
X111937456Y-116847272D01*
X111850512Y-116865753D01*
X111757112Y-116885606D01*
X111751082Y-116888291D01*
X111751081Y-116888291D01*
X111588678Y-116960597D01*
X111588676Y-116960598D01*
X111582648Y-116963282D01*
X111428147Y-117075534D01*
X111423726Y-117080444D01*
X111423725Y-117080445D01*
X111354860Y-117156928D01*
X111300360Y-117217456D01*
X111272428Y-117265835D01*
X111227139Y-117344279D01*
X111204873Y-117382844D01*
X111145858Y-117564472D01*
X111145168Y-117571033D01*
X111145168Y-117571035D01*
X111140489Y-117615555D01*
X111125896Y-117754400D01*
X111126586Y-117760965D01*
X111138373Y-117873115D01*
X111125601Y-117942953D01*
X111077099Y-117994800D01*
X111008266Y-118012194D01*
X110940956Y-117989612D01*
X110903944Y-117949285D01*
X110900289Y-117942953D01*
X110848040Y-117852456D01*
X110833038Y-117835794D01*
X110724675Y-117715445D01*
X110724674Y-117715444D01*
X110720253Y-117710534D01*
X110565752Y-117598282D01*
X110559724Y-117595598D01*
X110559722Y-117595597D01*
X110397319Y-117523291D01*
X110397318Y-117523291D01*
X110391288Y-117520606D01*
X110285999Y-117498226D01*
X110210944Y-117482272D01*
X110210939Y-117482272D01*
X110204487Y-117480900D01*
X110013513Y-117480900D01*
X110007061Y-117482272D01*
X110007056Y-117482272D01*
X109932001Y-117498226D01*
X109826712Y-117520606D01*
X109820682Y-117523291D01*
X109820681Y-117523291D01*
X109658278Y-117595597D01*
X109658276Y-117595598D01*
X109652248Y-117598282D01*
X109497747Y-117710534D01*
X109493326Y-117715444D01*
X109493325Y-117715445D01*
X109384963Y-117835794D01*
X109369960Y-117852456D01*
X109274473Y-118017844D01*
X109215458Y-118199472D01*
X109195496Y-118389400D01*
X100508000Y-118389400D01*
X100508000Y-117976100D01*
X100528002Y-117907979D01*
X100581658Y-117861486D01*
X100634000Y-117850100D01*
X100781087Y-117850100D01*
X100787539Y-117848728D01*
X100787544Y-117848728D01*
X100874488Y-117830247D01*
X100967888Y-117810394D01*
X101079272Y-117760803D01*
X101136322Y-117735403D01*
X101136324Y-117735402D01*
X101142352Y-117732718D01*
X101296853Y-117620466D01*
X101420542Y-117483095D01*
X101480987Y-117445856D01*
X101551970Y-117447208D01*
X101610955Y-117486721D01*
X101616113Y-117493345D01*
X101619657Y-117498222D01*
X101622960Y-117503944D01*
X101750747Y-117645866D01*
X101834410Y-117706651D01*
X101891095Y-117747835D01*
X101905248Y-117758118D01*
X101911276Y-117760802D01*
X101911278Y-117760803D01*
X102022662Y-117810394D01*
X102079712Y-117835794D01*
X102173113Y-117855647D01*
X102260056Y-117874128D01*
X102260061Y-117874128D01*
X102266513Y-117875500D01*
X102457487Y-117875500D01*
X102463939Y-117874128D01*
X102463944Y-117874128D01*
X102550887Y-117855647D01*
X102644288Y-117835794D01*
X102701338Y-117810394D01*
X102812722Y-117760803D01*
X102812724Y-117760802D01*
X102818752Y-117758118D01*
X102832906Y-117747835D01*
X102889590Y-117706651D01*
X102973253Y-117645866D01*
X103016098Y-117598282D01*
X103096621Y-117508852D01*
X103096622Y-117508851D01*
X103101040Y-117503944D01*
X103116482Y-117477199D01*
X103167863Y-117428206D01*
X103237576Y-117414769D01*
X103303487Y-117441156D01*
X103334718Y-117477198D01*
X103350160Y-117503944D01*
X103354578Y-117508851D01*
X103354579Y-117508852D01*
X103435102Y-117598282D01*
X103477947Y-117645866D01*
X103561610Y-117706651D01*
X103618295Y-117747835D01*
X103632448Y-117758118D01*
X103638476Y-117760802D01*
X103638478Y-117760803D01*
X103749862Y-117810394D01*
X103806912Y-117835794D01*
X103900313Y-117855647D01*
X103987256Y-117874128D01*
X103987261Y-117874128D01*
X103993713Y-117875500D01*
X104184687Y-117875500D01*
X104191139Y-117874128D01*
X104191144Y-117874128D01*
X104278087Y-117855647D01*
X104371488Y-117835794D01*
X104428538Y-117810394D01*
X104539922Y-117760803D01*
X104539924Y-117760802D01*
X104545952Y-117758118D01*
X104560106Y-117747835D01*
X104616790Y-117706651D01*
X104700453Y-117645866D01*
X104743298Y-117598282D01*
X104823821Y-117508852D01*
X104823822Y-117508851D01*
X104828240Y-117503944D01*
X104898157Y-117382844D01*
X104920423Y-117344279D01*
X104920424Y-117344278D01*
X104923727Y-117338556D01*
X104982742Y-117156928D01*
X104987307Y-117113500D01*
X104996966Y-117021594D01*
X105023979Y-116955937D01*
X105082201Y-116915307D01*
X105153146Y-116912604D01*
X105196337Y-116932828D01*
X105243371Y-116967000D01*
X105283448Y-116996118D01*
X105289476Y-116998802D01*
X105289478Y-116998803D01*
X105340668Y-117021594D01*
X105457912Y-117073794D01*
X105551313Y-117093647D01*
X105638256Y-117112128D01*
X105638261Y-117112128D01*
X105644713Y-117113500D01*
X105835687Y-117113500D01*
X105842139Y-117112128D01*
X105842144Y-117112128D01*
X105929087Y-117093647D01*
X106022488Y-117073794D01*
X106139732Y-117021594D01*
X106190922Y-116998803D01*
X106190924Y-116998802D01*
X106196952Y-116996118D01*
X106351453Y-116883866D01*
X106479240Y-116741944D01*
X106482539Y-116736231D01*
X106482542Y-116736226D01*
X106538793Y-116638796D01*
X106590176Y-116589803D01*
X106659889Y-116576367D01*
X106725800Y-116602754D01*
X106766982Y-116660586D01*
X106773221Y-116688624D01*
X106777058Y-116725128D01*
X106836073Y-116906756D01*
X106931560Y-117072144D01*
X106935978Y-117077051D01*
X106935979Y-117077052D01*
X107054925Y-117209155D01*
X107059347Y-117214066D01*
X107213848Y-117326318D01*
X107219876Y-117329002D01*
X107219878Y-117329003D01*
X107382279Y-117401308D01*
X107388312Y-117403994D01*
X107481712Y-117423847D01*
X107568656Y-117442328D01*
X107568661Y-117442328D01*
X107575113Y-117443700D01*
X107766087Y-117443700D01*
X107772539Y-117442328D01*
X107772544Y-117442328D01*
X107859488Y-117423847D01*
X107952888Y-117403994D01*
X107958921Y-117401308D01*
X108121322Y-117329003D01*
X108121324Y-117329002D01*
X108127352Y-117326318D01*
X108281853Y-117214066D01*
X108286275Y-117209155D01*
X108405221Y-117077052D01*
X108405222Y-117077051D01*
X108409640Y-117072144D01*
X108505127Y-116906756D01*
X108564142Y-116725128D01*
X108566006Y-116707399D01*
X108583414Y-116541765D01*
X108584104Y-116535200D01*
X108572194Y-116421879D01*
X108564832Y-116351835D01*
X108564832Y-116351833D01*
X108564142Y-116345272D01*
X108505127Y-116163644D01*
X108409640Y-115998256D01*
X108383718Y-115969466D01*
X108286275Y-115861245D01*
X108286274Y-115861244D01*
X108281853Y-115856334D01*
X108159309Y-115767300D01*
X108132694Y-115747963D01*
X108132693Y-115747962D01*
X108127352Y-115744082D01*
X108121324Y-115741398D01*
X108121322Y-115741397D01*
X107958919Y-115669091D01*
X107958918Y-115669091D01*
X107952888Y-115666406D01*
X107857060Y-115646037D01*
X107772544Y-115628072D01*
X107772539Y-115628072D01*
X107766087Y-115626700D01*
X107575113Y-115626700D01*
X107568661Y-115628072D01*
X107568656Y-115628072D01*
X107484140Y-115646037D01*
X107388312Y-115666406D01*
X107382282Y-115669091D01*
X107382281Y-115669091D01*
X107219878Y-115741397D01*
X107219876Y-115741398D01*
X107213848Y-115744082D01*
X107208507Y-115747962D01*
X107208506Y-115747963D01*
X107181891Y-115767300D01*
X107059347Y-115856334D01*
X107054926Y-115861244D01*
X107054925Y-115861245D01*
X106957483Y-115969466D01*
X106931560Y-115998256D01*
X106928261Y-116003969D01*
X106928258Y-116003974D01*
X106872007Y-116101404D01*
X106820624Y-116150397D01*
X106750911Y-116163833D01*
X106685000Y-116137446D01*
X106643818Y-116079614D01*
X106637578Y-116051573D01*
X106637098Y-116046998D01*
X106633742Y-116015072D01*
X106574727Y-115833444D01*
X106479240Y-115668056D01*
X106464238Y-115651394D01*
X106355875Y-115531045D01*
X106355874Y-115531044D01*
X106351453Y-115526134D01*
X106196952Y-115413882D01*
X106190924Y-115411198D01*
X106190922Y-115411197D01*
X106028519Y-115338891D01*
X106028518Y-115338891D01*
X106022488Y-115336206D01*
X106016033Y-115334834D01*
X106016030Y-115334833D01*
X105967167Y-115324447D01*
X105930986Y-115316757D01*
X105868513Y-115283029D01*
X105834191Y-115220879D01*
X105837350Y-115154575D01*
X105871742Y-115048728D01*
X105891704Y-114858800D01*
X105886368Y-114808030D01*
X105872432Y-114675435D01*
X105872432Y-114675433D01*
X105871742Y-114668872D01*
X105812727Y-114487244D01*
X105717240Y-114321856D01*
X105655518Y-114253306D01*
X105593875Y-114184845D01*
X105593874Y-114184844D01*
X105589453Y-114179934D01*
X105570366Y-114166066D01*
X105536915Y-114141763D01*
X105493561Y-114085541D01*
X105487486Y-114014805D01*
X105517338Y-113955519D01*
X105615640Y-113846344D01*
X105700795Y-113698852D01*
X105707823Y-113686679D01*
X105707824Y-113686678D01*
X105711127Y-113680956D01*
X105770142Y-113499328D01*
X105779426Y-113411000D01*
X106757096Y-113411000D01*
X106757786Y-113417565D01*
X106768569Y-113520156D01*
X106777058Y-113600928D01*
X106836073Y-113782556D01*
X106931560Y-113947944D01*
X106935978Y-113952851D01*
X106935979Y-113952852D01*
X107037408Y-114065500D01*
X107059347Y-114089866D01*
X107213848Y-114202118D01*
X107219876Y-114204802D01*
X107219878Y-114204803D01*
X107339842Y-114258214D01*
X107388312Y-114279794D01*
X107481713Y-114299647D01*
X107568656Y-114318128D01*
X107568661Y-114318128D01*
X107575113Y-114319500D01*
X107766087Y-114319500D01*
X107772539Y-114318128D01*
X107772544Y-114318128D01*
X107859487Y-114299647D01*
X107952888Y-114279794D01*
X108001358Y-114258214D01*
X108121322Y-114204803D01*
X108121324Y-114204802D01*
X108127352Y-114202118D01*
X108281853Y-114089866D01*
X108303792Y-114065500D01*
X108405221Y-113952852D01*
X108405222Y-113952851D01*
X108409640Y-113947944D01*
X108505127Y-113782556D01*
X108564142Y-113600928D01*
X108572632Y-113520156D01*
X108583414Y-113417565D01*
X108584104Y-113411000D01*
X108573426Y-113309400D01*
X108564832Y-113227635D01*
X108564832Y-113227633D01*
X108564142Y-113221072D01*
X108505127Y-113039444D01*
X108501761Y-113033613D01*
X108453634Y-112950256D01*
X108409640Y-112874056D01*
X108346968Y-112804451D01*
X108286275Y-112737045D01*
X108286274Y-112737044D01*
X108281853Y-112732134D01*
X108135462Y-112625774D01*
X108132694Y-112623763D01*
X108132693Y-112623762D01*
X108127352Y-112619882D01*
X108121324Y-112617198D01*
X108121322Y-112617197D01*
X107958919Y-112544891D01*
X107958918Y-112544891D01*
X107952888Y-112542206D01*
X107858594Y-112522163D01*
X107772544Y-112503872D01*
X107772539Y-112503872D01*
X107766087Y-112502500D01*
X107575113Y-112502500D01*
X107568661Y-112503872D01*
X107568656Y-112503872D01*
X107482606Y-112522163D01*
X107388312Y-112542206D01*
X107382282Y-112544891D01*
X107382281Y-112544891D01*
X107219878Y-112617197D01*
X107219876Y-112617198D01*
X107213848Y-112619882D01*
X107208507Y-112623762D01*
X107208506Y-112623763D01*
X107205738Y-112625774D01*
X107059347Y-112732134D01*
X107054926Y-112737044D01*
X107054925Y-112737045D01*
X106994233Y-112804451D01*
X106931560Y-112874056D01*
X106887566Y-112950256D01*
X106839440Y-113033613D01*
X106836073Y-113039444D01*
X106777058Y-113221072D01*
X106776368Y-113227633D01*
X106776368Y-113227635D01*
X106767774Y-113309400D01*
X106757096Y-113411000D01*
X105779426Y-113411000D01*
X105786850Y-113340365D01*
X105789414Y-113315965D01*
X105790104Y-113309400D01*
X105781510Y-113227635D01*
X105770832Y-113126035D01*
X105770832Y-113126033D01*
X105770142Y-113119472D01*
X105711127Y-112937844D01*
X105703853Y-112925244D01*
X105642834Y-112819557D01*
X105615640Y-112772456D01*
X105599319Y-112754329D01*
X105492275Y-112635445D01*
X105492274Y-112635444D01*
X105487853Y-112630534D01*
X105369976Y-112544891D01*
X105338694Y-112522163D01*
X105338693Y-112522162D01*
X105333352Y-112518282D01*
X105327324Y-112515598D01*
X105327322Y-112515597D01*
X105164919Y-112443291D01*
X105164918Y-112443291D01*
X105158888Y-112440606D01*
X105065488Y-112420753D01*
X104978544Y-112402272D01*
X104978539Y-112402272D01*
X104972087Y-112400900D01*
X104781113Y-112400900D01*
X104774661Y-112402272D01*
X104774656Y-112402272D01*
X104687712Y-112420753D01*
X104594312Y-112440606D01*
X104588282Y-112443291D01*
X104588281Y-112443291D01*
X104425878Y-112515597D01*
X104425876Y-112515598D01*
X104419848Y-112518282D01*
X104414507Y-112522162D01*
X104414506Y-112522163D01*
X104383224Y-112544891D01*
X104265347Y-112630534D01*
X104260926Y-112635444D01*
X104260925Y-112635445D01*
X104153882Y-112754329D01*
X104137560Y-112772456D01*
X104110366Y-112819557D01*
X104049348Y-112925244D01*
X104042073Y-112937844D01*
X103983058Y-113119472D01*
X103982368Y-113126033D01*
X103982368Y-113126035D01*
X103971690Y-113227635D01*
X103963096Y-113309400D01*
X103963786Y-113315965D01*
X103966351Y-113340365D01*
X103983058Y-113499328D01*
X104042073Y-113680956D01*
X104045376Y-113686678D01*
X104045377Y-113686679D01*
X104052405Y-113698852D01*
X104137560Y-113846344D01*
X104141975Y-113851247D01*
X104141979Y-113851252D01*
X104231615Y-113950803D01*
X104265347Y-113988266D01*
X104270689Y-113992147D01*
X104270691Y-113992149D01*
X104317885Y-114026437D01*
X104361239Y-114082659D01*
X104367314Y-114153395D01*
X104337462Y-114212681D01*
X104239160Y-114321856D01*
X104143673Y-114487244D01*
X104084658Y-114668872D01*
X104083968Y-114675433D01*
X104083968Y-114675435D01*
X104070032Y-114808030D01*
X104064696Y-114858800D01*
X104084658Y-115048728D01*
X104143673Y-115230356D01*
X104146976Y-115236078D01*
X104146977Y-115236079D01*
X104163773Y-115265170D01*
X104239160Y-115395744D01*
X104243578Y-115400651D01*
X104243579Y-115400652D01*
X104360985Y-115531045D01*
X104366947Y-115537666D01*
X104521448Y-115649918D01*
X104527476Y-115652602D01*
X104527478Y-115652603D01*
X104638943Y-115702230D01*
X104695912Y-115727594D01*
X104702367Y-115728966D01*
X104702370Y-115728967D01*
X104749193Y-115738919D01*
X104787414Y-115747043D01*
X104849887Y-115780771D01*
X104884209Y-115842921D01*
X104881050Y-115909225D01*
X104846658Y-116015072D01*
X104845968Y-116021633D01*
X104845968Y-116021635D01*
X104832434Y-116150406D01*
X104805421Y-116216063D01*
X104747199Y-116256693D01*
X104676254Y-116259396D01*
X104633063Y-116239172D01*
X104551294Y-116179763D01*
X104551293Y-116179762D01*
X104545952Y-116175882D01*
X104539924Y-116173198D01*
X104539922Y-116173197D01*
X104377519Y-116100891D01*
X104377518Y-116100891D01*
X104371488Y-116098206D01*
X104264623Y-116075491D01*
X104191144Y-116059872D01*
X104191139Y-116059872D01*
X104184687Y-116058500D01*
X103993713Y-116058500D01*
X103987261Y-116059872D01*
X103987256Y-116059872D01*
X103913777Y-116075491D01*
X103806912Y-116098206D01*
X103800882Y-116100891D01*
X103800881Y-116100891D01*
X103638478Y-116173197D01*
X103638476Y-116173198D01*
X103632448Y-116175882D01*
X103627107Y-116179762D01*
X103627106Y-116179763D01*
X103577144Y-116216063D01*
X103477947Y-116288134D01*
X103473526Y-116293044D01*
X103473525Y-116293045D01*
X103357523Y-116421879D01*
X103350160Y-116430056D01*
X103334718Y-116456801D01*
X103283337Y-116505794D01*
X103213624Y-116519231D01*
X103147713Y-116492844D01*
X103116482Y-116456802D01*
X103101040Y-116430056D01*
X103093678Y-116421879D01*
X102977675Y-116293045D01*
X102977674Y-116293044D01*
X102973253Y-116288134D01*
X102874056Y-116216063D01*
X102824094Y-116179763D01*
X102824093Y-116179762D01*
X102818752Y-116175882D01*
X102812724Y-116173198D01*
X102812722Y-116173197D01*
X102650319Y-116100891D01*
X102650318Y-116100891D01*
X102644288Y-116098206D01*
X102537423Y-116075491D01*
X102463944Y-116059872D01*
X102463939Y-116059872D01*
X102457487Y-116058500D01*
X102266513Y-116058500D01*
X102260061Y-116059872D01*
X102260056Y-116059872D01*
X102186577Y-116075491D01*
X102079712Y-116098206D01*
X102073682Y-116100891D01*
X102073681Y-116100891D01*
X101911278Y-116173197D01*
X101911276Y-116173198D01*
X101905248Y-116175882D01*
X101899907Y-116179762D01*
X101899906Y-116179763D01*
X101849944Y-116216063D01*
X101750747Y-116288134D01*
X101627380Y-116425148D01*
X101627059Y-116425504D01*
X101566613Y-116462744D01*
X101495630Y-116461392D01*
X101436645Y-116421879D01*
X101431487Y-116415255D01*
X101427943Y-116410378D01*
X101424640Y-116404656D01*
X101377080Y-116351835D01*
X101301275Y-116267645D01*
X101301274Y-116267644D01*
X101296853Y-116262734D01*
X101177312Y-116175882D01*
X101147694Y-116154363D01*
X101147693Y-116154362D01*
X101142352Y-116150482D01*
X101136324Y-116147798D01*
X101136322Y-116147797D01*
X100973919Y-116075491D01*
X100973918Y-116075491D01*
X100967888Y-116072806D01*
X100846472Y-116046998D01*
X100787544Y-116034472D01*
X100787539Y-116034472D01*
X100781087Y-116033100D01*
X100634000Y-116033100D01*
X100565879Y-116013098D01*
X100519386Y-115959442D01*
X100508000Y-115907100D01*
X100508000Y-110845600D01*
X103886896Y-110845600D01*
X103906858Y-111035528D01*
X103965873Y-111217156D01*
X104061360Y-111382544D01*
X104065778Y-111387451D01*
X104065779Y-111387452D01*
X104126633Y-111455037D01*
X104189147Y-111524466D01*
X104238768Y-111560518D01*
X104310720Y-111612794D01*
X104343648Y-111636718D01*
X104349676Y-111639402D01*
X104349678Y-111639403D01*
X104512081Y-111711709D01*
X104518112Y-111714394D01*
X104611513Y-111734247D01*
X104698456Y-111752728D01*
X104698461Y-111752728D01*
X104704913Y-111754100D01*
X104895887Y-111754100D01*
X104902339Y-111752728D01*
X104902344Y-111752728D01*
X104989288Y-111734247D01*
X105082688Y-111714394D01*
X105088719Y-111711709D01*
X105251122Y-111639403D01*
X105251124Y-111639402D01*
X105257152Y-111636718D01*
X105290081Y-111612794D01*
X105362032Y-111560518D01*
X105411653Y-111524466D01*
X105474167Y-111455037D01*
X105535021Y-111387452D01*
X105535022Y-111387451D01*
X105539440Y-111382544D01*
X105634927Y-111217156D01*
X105693942Y-111035528D01*
X105713904Y-110845600D01*
X105700471Y-110717788D01*
X105694632Y-110662235D01*
X105694632Y-110662233D01*
X105693942Y-110655672D01*
X105673124Y-110591600D01*
X106807896Y-110591600D01*
X106808586Y-110598165D01*
X106821015Y-110716416D01*
X106827858Y-110781528D01*
X106886873Y-110963156D01*
X106982360Y-111128544D01*
X106986778Y-111133451D01*
X106986779Y-111133452D01*
X107079358Y-111236271D01*
X107110147Y-111270466D01*
X107264648Y-111382718D01*
X107270676Y-111385402D01*
X107270678Y-111385403D01*
X107411872Y-111448266D01*
X107439112Y-111460394D01*
X107532512Y-111480247D01*
X107619456Y-111498728D01*
X107619461Y-111498728D01*
X107625913Y-111500100D01*
X107816887Y-111500100D01*
X107823339Y-111498728D01*
X107823344Y-111498728D01*
X107910287Y-111480247D01*
X108003688Y-111460394D01*
X108030928Y-111448266D01*
X108172122Y-111385403D01*
X108172124Y-111385402D01*
X108178152Y-111382718D01*
X108332653Y-111270466D01*
X108363442Y-111236271D01*
X108456021Y-111133452D01*
X108456022Y-111133451D01*
X108460440Y-111128544D01*
X108555927Y-110963156D01*
X108614942Y-110781528D01*
X108621786Y-110716416D01*
X108634214Y-110598165D01*
X108634904Y-110591600D01*
X108614942Y-110401672D01*
X108555927Y-110220044D01*
X108538883Y-110190522D01*
X108488409Y-110103100D01*
X108460440Y-110054656D01*
X108416175Y-110005494D01*
X108337075Y-109917645D01*
X108337074Y-109917644D01*
X108332653Y-109912734D01*
X108226350Y-109835500D01*
X108183494Y-109804363D01*
X108183493Y-109804362D01*
X108178152Y-109800482D01*
X108172124Y-109797798D01*
X108172122Y-109797797D01*
X108009719Y-109725491D01*
X108009718Y-109725491D01*
X108003688Y-109722806D01*
X107905014Y-109701832D01*
X107823344Y-109684472D01*
X107823339Y-109684472D01*
X107816887Y-109683100D01*
X107625913Y-109683100D01*
X107619461Y-109684472D01*
X107619456Y-109684472D01*
X107537786Y-109701832D01*
X107439112Y-109722806D01*
X107433082Y-109725491D01*
X107433081Y-109725491D01*
X107270678Y-109797797D01*
X107270676Y-109797798D01*
X107264648Y-109800482D01*
X107259307Y-109804362D01*
X107259306Y-109804363D01*
X107216450Y-109835500D01*
X107110147Y-109912734D01*
X107105726Y-109917644D01*
X107105725Y-109917645D01*
X107026626Y-110005494D01*
X106982360Y-110054656D01*
X106954391Y-110103100D01*
X106903918Y-110190522D01*
X106886873Y-110220044D01*
X106827858Y-110401672D01*
X106807896Y-110591600D01*
X105673124Y-110591600D01*
X105634927Y-110474044D01*
X105539440Y-110308656D01*
X105513518Y-110279866D01*
X105490704Y-110254529D01*
X105459986Y-110190522D01*
X105468751Y-110120068D01*
X105514214Y-110065537D01*
X105533091Y-110055112D01*
X105682922Y-109988403D01*
X105682924Y-109988402D01*
X105688952Y-109985718D01*
X105701219Y-109976806D01*
X105794750Y-109908851D01*
X105843453Y-109873466D01*
X105847875Y-109868555D01*
X105966821Y-109736452D01*
X105966822Y-109736451D01*
X105971240Y-109731544D01*
X106039634Y-109613082D01*
X106046610Y-109601000D01*
X109220896Y-109601000D01*
X109221586Y-109607565D01*
X109237904Y-109762819D01*
X109240858Y-109790928D01*
X109299873Y-109972556D01*
X109303176Y-109978278D01*
X109303177Y-109978279D01*
X109307108Y-109985088D01*
X109395360Y-110137944D01*
X109399778Y-110142851D01*
X109399779Y-110142852D01*
X109428328Y-110174559D01*
X109523147Y-110279866D01*
X109677648Y-110392118D01*
X109683676Y-110394802D01*
X109683678Y-110394803D01*
X109846081Y-110467109D01*
X109852112Y-110469794D01*
X109938489Y-110488154D01*
X110032456Y-110508128D01*
X110032461Y-110508128D01*
X110038913Y-110509500D01*
X110229887Y-110509500D01*
X110236339Y-110508128D01*
X110236344Y-110508128D01*
X110330311Y-110488154D01*
X110416688Y-110469794D01*
X110422719Y-110467109D01*
X110585122Y-110394803D01*
X110585124Y-110394802D01*
X110591152Y-110392118D01*
X110745653Y-110279866D01*
X110840472Y-110174559D01*
X110869021Y-110142852D01*
X110869022Y-110142851D01*
X110873440Y-110137944D01*
X110961692Y-109985088D01*
X110965623Y-109978279D01*
X110965624Y-109978278D01*
X110968927Y-109972556D01*
X111027942Y-109790928D01*
X111030897Y-109762819D01*
X111047214Y-109607565D01*
X111047904Y-109601000D01*
X111027942Y-109411072D01*
X110968927Y-109229444D01*
X110963475Y-109220000D01*
X110914592Y-109135333D01*
X110873440Y-109064056D01*
X110819971Y-109004672D01*
X110750075Y-108927045D01*
X110750074Y-108927044D01*
X110745653Y-108922134D01*
X110636351Y-108842721D01*
X110596494Y-108813763D01*
X110596493Y-108813762D01*
X110591152Y-108809882D01*
X110585124Y-108807198D01*
X110585122Y-108807197D01*
X110422719Y-108734891D01*
X110422718Y-108734891D01*
X110416688Y-108732206D01*
X110293870Y-108706100D01*
X110236344Y-108693872D01*
X110236339Y-108693872D01*
X110229887Y-108692500D01*
X110038913Y-108692500D01*
X110032461Y-108693872D01*
X110032456Y-108693872D01*
X109974930Y-108706100D01*
X109852112Y-108732206D01*
X109846082Y-108734891D01*
X109846081Y-108734891D01*
X109683678Y-108807197D01*
X109683676Y-108807198D01*
X109677648Y-108809882D01*
X109672307Y-108813762D01*
X109672306Y-108813763D01*
X109632449Y-108842721D01*
X109523147Y-108922134D01*
X109518726Y-108927044D01*
X109518725Y-108927045D01*
X109448830Y-109004672D01*
X109395360Y-109064056D01*
X109354208Y-109135333D01*
X109305326Y-109220000D01*
X109299873Y-109229444D01*
X109240858Y-109411072D01*
X109220896Y-109601000D01*
X106046610Y-109601000D01*
X106063423Y-109571879D01*
X106063424Y-109571878D01*
X106066727Y-109566156D01*
X106125742Y-109384528D01*
X106145704Y-109194600D01*
X106132747Y-109071321D01*
X106126432Y-109011235D01*
X106126432Y-109011233D01*
X106125742Y-109004672D01*
X106081962Y-108869932D01*
X106079934Y-108798965D01*
X106116597Y-108738167D01*
X106180309Y-108706841D01*
X106185644Y-108706100D01*
X106191287Y-108706100D01*
X106378088Y-108666394D01*
X106398105Y-108657482D01*
X106546522Y-108591403D01*
X106546524Y-108591402D01*
X106552552Y-108588718D01*
X106564819Y-108579806D01*
X106687965Y-108490334D01*
X106707053Y-108476466D01*
X106772768Y-108403482D01*
X106830421Y-108339452D01*
X106830422Y-108339451D01*
X106834840Y-108334544D01*
X106916425Y-108193235D01*
X106927023Y-108174879D01*
X106927024Y-108174878D01*
X106930327Y-108169156D01*
X106989342Y-107987528D01*
X106995584Y-107928144D01*
X107008614Y-107804165D01*
X107009304Y-107797600D01*
X107773096Y-107797600D01*
X107773786Y-107804165D01*
X107786817Y-107928144D01*
X107793058Y-107987528D01*
X107852073Y-108169156D01*
X107855376Y-108174878D01*
X107855377Y-108174879D01*
X107865975Y-108193235D01*
X107947560Y-108334544D01*
X107951978Y-108339451D01*
X107951979Y-108339452D01*
X108009632Y-108403482D01*
X108075347Y-108476466D01*
X108094435Y-108490334D01*
X108217582Y-108579806D01*
X108229848Y-108588718D01*
X108235876Y-108591402D01*
X108235878Y-108591403D01*
X108384295Y-108657482D01*
X108404312Y-108666394D01*
X108497712Y-108686247D01*
X108584656Y-108704728D01*
X108584661Y-108704728D01*
X108591113Y-108706100D01*
X108782087Y-108706100D01*
X108788539Y-108704728D01*
X108788544Y-108704728D01*
X108875488Y-108686247D01*
X108968888Y-108666394D01*
X108988905Y-108657482D01*
X109137322Y-108591403D01*
X109137324Y-108591402D01*
X109143352Y-108588718D01*
X109155619Y-108579806D01*
X109278765Y-108490334D01*
X109297853Y-108476466D01*
X109363568Y-108403482D01*
X109421221Y-108339452D01*
X109421222Y-108339451D01*
X109425640Y-108334544D01*
X109507225Y-108193235D01*
X109517823Y-108174879D01*
X109517824Y-108174878D01*
X109521127Y-108169156D01*
X109580142Y-107987528D01*
X109586384Y-107928144D01*
X109599414Y-107804165D01*
X109600104Y-107797600D01*
X109580142Y-107607672D01*
X109581184Y-107607562D01*
X109586121Y-107542901D01*
X109628940Y-107486270D01*
X109695579Y-107461779D01*
X109703964Y-107461500D01*
X109798087Y-107461500D01*
X109804539Y-107460128D01*
X109804544Y-107460128D01*
X109891487Y-107441647D01*
X109984888Y-107421794D01*
X110038856Y-107397766D01*
X110153322Y-107346803D01*
X110153324Y-107346802D01*
X110159352Y-107344118D01*
X110190617Y-107321403D01*
X110227732Y-107294437D01*
X110313853Y-107231866D01*
X110383425Y-107154598D01*
X110437221Y-107094852D01*
X110437222Y-107094851D01*
X110441640Y-107089944D01*
X110537127Y-106924556D01*
X110539168Y-106918274D01*
X110539170Y-106918270D01*
X110540330Y-106914699D01*
X110541561Y-106912899D01*
X110541853Y-106912243D01*
X110541973Y-106912296D01*
X110580405Y-106856094D01*
X110645802Y-106828459D01*
X110715758Y-106840567D01*
X110768063Y-106888574D01*
X110772232Y-106896567D01*
X110773073Y-106899156D01*
X110868560Y-107064544D01*
X110872978Y-107069451D01*
X110872979Y-107069452D01*
X110914460Y-107115521D01*
X110996347Y-107206466D01*
X111095443Y-107278464D01*
X111140853Y-107311456D01*
X111150848Y-107318718D01*
X111156876Y-107321402D01*
X111156878Y-107321403D01*
X111213928Y-107346803D01*
X111325312Y-107396394D01*
X111418713Y-107416247D01*
X111505656Y-107434728D01*
X111505661Y-107434728D01*
X111512113Y-107436100D01*
X111703087Y-107436100D01*
X111709539Y-107434728D01*
X111709544Y-107434728D01*
X111796487Y-107416247D01*
X111889888Y-107396394D01*
X112001272Y-107346803D01*
X112058322Y-107321403D01*
X112058324Y-107321402D01*
X112064352Y-107318718D01*
X112074348Y-107311456D01*
X112119757Y-107278464D01*
X112218853Y-107206466D01*
X112300740Y-107115521D01*
X112342221Y-107069452D01*
X112342222Y-107069451D01*
X112346640Y-107064544D01*
X112433153Y-106914699D01*
X112438823Y-106904879D01*
X112438824Y-106904878D01*
X112442127Y-106899156D01*
X112501142Y-106717528D01*
X112502808Y-106701682D01*
X112513095Y-106603800D01*
X113691296Y-106603800D01*
X113691986Y-106610365D01*
X113708559Y-106768045D01*
X113711258Y-106793728D01*
X113770273Y-106975356D01*
X113865760Y-107140744D01*
X113870178Y-107145651D01*
X113870179Y-107145652D01*
X113951303Y-107235749D01*
X113993547Y-107282666D01*
X114148048Y-107394918D01*
X114154076Y-107397602D01*
X114154078Y-107397603D01*
X114297594Y-107461500D01*
X114322512Y-107472594D01*
X114415912Y-107492447D01*
X114502856Y-107510928D01*
X114502861Y-107510928D01*
X114509313Y-107512300D01*
X114700287Y-107512300D01*
X114706739Y-107510928D01*
X114706744Y-107510928D01*
X114793687Y-107492447D01*
X114887088Y-107472594D01*
X114912006Y-107461500D01*
X115055522Y-107397603D01*
X115055524Y-107397602D01*
X115061552Y-107394918D01*
X115216053Y-107282666D01*
X115258297Y-107235749D01*
X115339421Y-107145652D01*
X115339422Y-107145651D01*
X115343840Y-107140744D01*
X115439327Y-106975356D01*
X115498342Y-106793728D01*
X115501042Y-106768045D01*
X115517614Y-106610365D01*
X115518304Y-106603800D01*
X115516399Y-106585672D01*
X115499032Y-106420435D01*
X115499032Y-106420433D01*
X115498342Y-106413872D01*
X115439327Y-106232244D01*
X115434860Y-106224506D01*
X115347141Y-106072574D01*
X115343840Y-106066856D01*
X115293681Y-106011148D01*
X115220475Y-105929845D01*
X115220474Y-105929844D01*
X115216053Y-105924934D01*
X115061552Y-105812682D01*
X115055524Y-105809998D01*
X115055522Y-105809997D01*
X114893119Y-105737691D01*
X114893118Y-105737691D01*
X114887088Y-105735006D01*
X114793688Y-105715153D01*
X114706744Y-105696672D01*
X114706739Y-105696672D01*
X114700287Y-105695300D01*
X114509313Y-105695300D01*
X114502861Y-105696672D01*
X114502856Y-105696672D01*
X114415912Y-105715153D01*
X114322512Y-105735006D01*
X114316482Y-105737691D01*
X114316481Y-105737691D01*
X114154078Y-105809997D01*
X114154076Y-105809998D01*
X114148048Y-105812682D01*
X113993547Y-105924934D01*
X113989126Y-105929844D01*
X113989125Y-105929845D01*
X113915920Y-106011148D01*
X113865760Y-106066856D01*
X113862459Y-106072574D01*
X113774741Y-106224506D01*
X113770273Y-106232244D01*
X113711258Y-106413872D01*
X113710568Y-106420433D01*
X113710568Y-106420435D01*
X113693201Y-106585672D01*
X113691296Y-106603800D01*
X112513095Y-106603800D01*
X112520414Y-106534165D01*
X112521104Y-106527600D01*
X112519199Y-106509472D01*
X112501832Y-106344235D01*
X112501832Y-106344233D01*
X112501142Y-106337672D01*
X112442127Y-106156044D01*
X112346640Y-105990656D01*
X112283968Y-105921051D01*
X112223275Y-105853645D01*
X112223274Y-105853644D01*
X112218853Y-105848734D01*
X112099312Y-105761882D01*
X112069694Y-105740363D01*
X112069693Y-105740362D01*
X112064352Y-105736482D01*
X112058324Y-105733798D01*
X112058322Y-105733797D01*
X111895919Y-105661491D01*
X111895918Y-105661491D01*
X111889888Y-105658806D01*
X111796487Y-105638953D01*
X111709544Y-105620472D01*
X111709539Y-105620472D01*
X111703087Y-105619100D01*
X111512113Y-105619100D01*
X111505661Y-105620472D01*
X111505656Y-105620472D01*
X111418713Y-105638953D01*
X111325312Y-105658806D01*
X111319282Y-105661491D01*
X111319281Y-105661491D01*
X111156878Y-105733797D01*
X111156876Y-105733798D01*
X111150848Y-105736482D01*
X111145507Y-105740362D01*
X111145506Y-105740363D01*
X111115888Y-105761882D01*
X110996347Y-105848734D01*
X110991926Y-105853644D01*
X110991925Y-105853645D01*
X110931233Y-105921051D01*
X110868560Y-105990656D01*
X110773073Y-106156044D01*
X110771032Y-106162326D01*
X110771030Y-106162330D01*
X110769870Y-106165901D01*
X110768639Y-106167701D01*
X110768347Y-106168357D01*
X110768227Y-106168304D01*
X110729795Y-106224506D01*
X110664398Y-106252141D01*
X110594442Y-106240033D01*
X110542137Y-106192026D01*
X110537968Y-106184033D01*
X110537127Y-106181444D01*
X110441640Y-106016056D01*
X110359594Y-105924934D01*
X110318275Y-105879045D01*
X110318274Y-105879044D01*
X110313853Y-105874134D01*
X110159352Y-105761882D01*
X110153324Y-105759198D01*
X110153322Y-105759197D01*
X109990919Y-105686891D01*
X109990918Y-105686891D01*
X109984888Y-105684206D01*
X109878023Y-105661491D01*
X109804544Y-105645872D01*
X109804539Y-105645872D01*
X109798087Y-105644500D01*
X109607113Y-105644500D01*
X109600661Y-105645872D01*
X109600656Y-105645872D01*
X109527177Y-105661491D01*
X109420312Y-105684206D01*
X109414282Y-105686891D01*
X109414281Y-105686891D01*
X109251878Y-105759197D01*
X109251876Y-105759198D01*
X109245848Y-105761882D01*
X109091347Y-105874134D01*
X109086926Y-105879044D01*
X109086925Y-105879045D01*
X109045607Y-105924934D01*
X108963560Y-106016056D01*
X108960259Y-106021774D01*
X108876008Y-106167701D01*
X108868073Y-106181444D01*
X108809058Y-106363072D01*
X108808368Y-106369633D01*
X108808368Y-106369635D01*
X108791076Y-106534165D01*
X108789096Y-106553000D01*
X108808459Y-106737230D01*
X108808459Y-106737232D01*
X108809058Y-106742928D01*
X108808016Y-106743038D01*
X108803079Y-106807699D01*
X108760260Y-106864330D01*
X108693621Y-106888821D01*
X108685236Y-106889100D01*
X108591113Y-106889100D01*
X108584661Y-106890472D01*
X108584656Y-106890472D01*
X108510810Y-106906169D01*
X108404312Y-106928806D01*
X108398282Y-106931491D01*
X108398281Y-106931491D01*
X108235878Y-107003797D01*
X108235876Y-107003798D01*
X108229848Y-107006482D01*
X108075347Y-107118734D01*
X108070926Y-107123644D01*
X108070925Y-107123645D01*
X107973483Y-107231866D01*
X107947560Y-107260656D01*
X107921064Y-107306548D01*
X107861564Y-107409606D01*
X107852073Y-107426044D01*
X107793058Y-107607672D01*
X107792368Y-107614233D01*
X107792368Y-107614235D01*
X107787719Y-107658472D01*
X107773096Y-107797600D01*
X107009304Y-107797600D01*
X106994681Y-107658472D01*
X106990032Y-107614235D01*
X106990032Y-107614233D01*
X106989342Y-107607672D01*
X106930327Y-107426044D01*
X106920837Y-107409606D01*
X106861336Y-107306548D01*
X106834840Y-107260656D01*
X106808918Y-107231866D01*
X106711475Y-107123645D01*
X106711474Y-107123644D01*
X106707053Y-107118734D01*
X106552552Y-107006482D01*
X106546524Y-107003798D01*
X106546522Y-107003797D01*
X106384119Y-106931491D01*
X106384118Y-106931491D01*
X106378088Y-106928806D01*
X106271590Y-106906169D01*
X106197744Y-106890472D01*
X106197739Y-106890472D01*
X106191287Y-106889100D01*
X106000313Y-106889100D01*
X105993861Y-106890472D01*
X105993856Y-106890472D01*
X105920010Y-106906169D01*
X105813512Y-106928806D01*
X105807482Y-106931491D01*
X105807481Y-106931491D01*
X105645078Y-107003797D01*
X105645076Y-107003798D01*
X105639048Y-107006482D01*
X105484547Y-107118734D01*
X105480126Y-107123644D01*
X105480125Y-107123645D01*
X105382683Y-107231866D01*
X105356760Y-107260656D01*
X105330264Y-107306548D01*
X105270764Y-107409606D01*
X105261273Y-107426044D01*
X105202258Y-107607672D01*
X105201568Y-107614233D01*
X105201568Y-107614235D01*
X105196919Y-107658472D01*
X105182296Y-107797600D01*
X105182986Y-107804165D01*
X105196017Y-107928144D01*
X105202258Y-107987528D01*
X105216632Y-108031765D01*
X105246038Y-108122268D01*
X105248066Y-108193235D01*
X105211403Y-108254033D01*
X105147691Y-108285359D01*
X105142356Y-108286100D01*
X105136713Y-108286100D01*
X104949912Y-108325806D01*
X104943882Y-108328491D01*
X104943881Y-108328491D01*
X104781478Y-108400797D01*
X104781476Y-108400798D01*
X104775448Y-108403482D01*
X104620947Y-108515734D01*
X104616526Y-108520644D01*
X104616525Y-108520645D01*
X104519806Y-108628063D01*
X104493160Y-108657656D01*
X104397673Y-108823044D01*
X104338658Y-109004672D01*
X104337968Y-109011233D01*
X104337968Y-109011235D01*
X104331653Y-109071321D01*
X104318696Y-109194600D01*
X104338658Y-109384528D01*
X104397673Y-109566156D01*
X104400976Y-109571878D01*
X104400977Y-109571879D01*
X104424766Y-109613082D01*
X104493160Y-109731544D01*
X104497578Y-109736451D01*
X104497579Y-109736452D01*
X104541896Y-109785671D01*
X104572614Y-109849678D01*
X104563849Y-109920132D01*
X104518386Y-109974663D01*
X104499509Y-109985088D01*
X104349678Y-110051797D01*
X104349676Y-110051798D01*
X104343648Y-110054482D01*
X104338307Y-110058362D01*
X104338306Y-110058363D01*
X104328987Y-110065134D01*
X104189147Y-110166734D01*
X104184726Y-110171644D01*
X104184725Y-110171645D01*
X104087283Y-110279866D01*
X104061360Y-110308656D01*
X103965873Y-110474044D01*
X103906858Y-110655672D01*
X103906168Y-110662233D01*
X103906168Y-110662235D01*
X103900329Y-110717788D01*
X103886896Y-110845600D01*
X100508000Y-110845600D01*
X100508000Y-108269247D01*
X100528002Y-108201126D01*
X100581658Y-108154633D01*
X100651932Y-108144529D01*
X100659694Y-108145911D01*
X100659861Y-108145929D01*
X100666313Y-108147300D01*
X100857287Y-108147300D01*
X100863739Y-108145928D01*
X100863744Y-108145928D01*
X100950688Y-108127447D01*
X101044088Y-108107594D01*
X101071328Y-108095466D01*
X101212522Y-108032603D01*
X101212524Y-108032602D01*
X101218552Y-108029918D01*
X101249817Y-108007203D01*
X101288711Y-107978944D01*
X101373053Y-107917666D01*
X101415901Y-107870079D01*
X101442864Y-107840133D01*
X101503310Y-107802893D01*
X101574294Y-107804245D01*
X101630136Y-107840133D01*
X101657100Y-107870079D01*
X101699947Y-107917666D01*
X101784289Y-107978944D01*
X101823184Y-108007203D01*
X101854448Y-108029918D01*
X101860476Y-108032602D01*
X101860478Y-108032603D01*
X102001672Y-108095466D01*
X102028912Y-108107594D01*
X102122313Y-108127447D01*
X102209256Y-108145928D01*
X102209261Y-108145928D01*
X102215713Y-108147300D01*
X102406687Y-108147300D01*
X102413139Y-108145928D01*
X102413144Y-108145928D01*
X102500088Y-108127447D01*
X102593488Y-108107594D01*
X102620728Y-108095466D01*
X102761922Y-108032603D01*
X102761924Y-108032602D01*
X102767952Y-108029918D01*
X102799217Y-108007203D01*
X102838111Y-107978944D01*
X102922453Y-107917666D01*
X103041800Y-107785117D01*
X103102245Y-107747879D01*
X103173229Y-107749231D01*
X103229070Y-107785117D01*
X103325547Y-107892266D01*
X103374929Y-107928144D01*
X103444849Y-107978944D01*
X103480048Y-108004518D01*
X103486076Y-108007202D01*
X103486078Y-108007203D01*
X103627272Y-108070066D01*
X103654512Y-108082194D01*
X103747912Y-108102047D01*
X103834856Y-108120528D01*
X103834861Y-108120528D01*
X103841313Y-108121900D01*
X104032287Y-108121900D01*
X104038739Y-108120528D01*
X104038744Y-108120528D01*
X104125687Y-108102047D01*
X104219088Y-108082194D01*
X104246328Y-108070066D01*
X104387522Y-108007203D01*
X104387524Y-108007202D01*
X104393552Y-108004518D01*
X104428752Y-107978944D01*
X104498671Y-107928144D01*
X104548053Y-107892266D01*
X104618924Y-107813556D01*
X104671421Y-107755252D01*
X104671422Y-107755251D01*
X104675840Y-107750344D01*
X104758212Y-107607672D01*
X104768023Y-107590679D01*
X104768024Y-107590678D01*
X104771327Y-107584956D01*
X104830342Y-107403328D01*
X104850304Y-107213400D01*
X104844124Y-107154598D01*
X104831032Y-107030035D01*
X104831032Y-107030033D01*
X104830342Y-107023472D01*
X104771327Y-106841844D01*
X104758049Y-106818845D01*
X104708977Y-106733851D01*
X104675840Y-106676456D01*
X104631032Y-106626691D01*
X104552475Y-106539445D01*
X104552471Y-106539441D01*
X104548053Y-106534534D01*
X104428512Y-106447682D01*
X104398894Y-106426163D01*
X104398893Y-106426162D01*
X104393552Y-106422282D01*
X104387524Y-106419598D01*
X104387522Y-106419597D01*
X104225119Y-106347291D01*
X104225118Y-106347291D01*
X104219088Y-106344606D01*
X104125687Y-106324753D01*
X104038744Y-106306272D01*
X104038739Y-106306272D01*
X104032287Y-106304900D01*
X103841313Y-106304900D01*
X103834861Y-106306272D01*
X103834856Y-106306272D01*
X103747912Y-106324753D01*
X103654512Y-106344606D01*
X103648482Y-106347291D01*
X103648481Y-106347291D01*
X103486078Y-106419597D01*
X103486076Y-106419598D01*
X103480048Y-106422282D01*
X103474707Y-106426162D01*
X103474706Y-106426163D01*
X103445088Y-106447682D01*
X103325547Y-106534534D01*
X103206200Y-106667083D01*
X103145755Y-106704321D01*
X103074771Y-106702969D01*
X103018929Y-106667082D01*
X103007837Y-106654763D01*
X102922453Y-106559934D01*
X102816150Y-106482700D01*
X102773294Y-106451563D01*
X102773293Y-106451562D01*
X102767952Y-106447682D01*
X102761924Y-106444998D01*
X102761922Y-106444997D01*
X102599519Y-106372691D01*
X102599518Y-106372691D01*
X102593488Y-106370006D01*
X102486623Y-106347291D01*
X102413144Y-106331672D01*
X102413139Y-106331672D01*
X102406687Y-106330300D01*
X102215713Y-106330300D01*
X102209261Y-106331672D01*
X102209256Y-106331672D01*
X102135777Y-106347291D01*
X102028912Y-106370006D01*
X102022882Y-106372691D01*
X102022881Y-106372691D01*
X101860478Y-106444997D01*
X101860476Y-106444998D01*
X101854448Y-106447682D01*
X101849107Y-106451562D01*
X101849106Y-106451563D01*
X101806250Y-106482700D01*
X101699947Y-106559934D01*
X101695529Y-106564841D01*
X101695525Y-106564845D01*
X101630136Y-106637467D01*
X101569690Y-106674707D01*
X101498706Y-106673355D01*
X101442864Y-106637467D01*
X101377475Y-106564845D01*
X101377471Y-106564841D01*
X101373053Y-106559934D01*
X101266750Y-106482700D01*
X101223894Y-106451563D01*
X101223893Y-106451562D01*
X101218552Y-106447682D01*
X101212524Y-106444998D01*
X101212522Y-106444997D01*
X101050119Y-106372691D01*
X101050118Y-106372691D01*
X101044088Y-106370006D01*
X100937223Y-106347291D01*
X100863744Y-106331672D01*
X100863739Y-106331672D01*
X100857287Y-106330300D01*
X100666313Y-106330300D01*
X100659856Y-106331672D01*
X100653285Y-106332363D01*
X100653148Y-106331062D01*
X100589406Y-106326198D01*
X100532774Y-106283381D01*
X100508280Y-106216743D01*
X100508000Y-106208353D01*
X100508000Y-103000000D01*
X101386526Y-103000000D01*
X101406391Y-103252403D01*
X101465495Y-103498591D01*
X101562384Y-103732502D01*
X101694672Y-103948376D01*
X101859102Y-104140898D01*
X102051624Y-104305328D01*
X102267498Y-104437616D01*
X102272068Y-104439509D01*
X102272072Y-104439511D01*
X102496836Y-104532611D01*
X102501409Y-104534505D01*
X102586032Y-104554821D01*
X102742784Y-104592454D01*
X102742790Y-104592455D01*
X102747597Y-104593609D01*
X102847416Y-104601465D01*
X102934345Y-104608307D01*
X102934352Y-104608307D01*
X102936801Y-104608500D01*
X103063199Y-104608500D01*
X103065648Y-104608307D01*
X103065655Y-104608307D01*
X103152584Y-104601465D01*
X103252403Y-104593609D01*
X103257210Y-104592455D01*
X103257216Y-104592454D01*
X103413968Y-104554821D01*
X103498591Y-104534505D01*
X103503164Y-104532611D01*
X103727928Y-104439511D01*
X103727932Y-104439509D01*
X103732502Y-104437616D01*
X103948376Y-104305328D01*
X104140898Y-104140898D01*
X104305328Y-103948376D01*
X104437616Y-103732502D01*
X104534505Y-103498591D01*
X104593609Y-103252403D01*
X104613474Y-103000000D01*
X120386526Y-103000000D01*
X120406391Y-103252403D01*
X120465495Y-103498591D01*
X120562384Y-103732502D01*
X120694672Y-103948376D01*
X120859102Y-104140898D01*
X121051624Y-104305328D01*
X121267498Y-104437616D01*
X121272068Y-104439509D01*
X121272072Y-104439511D01*
X121496836Y-104532611D01*
X121501409Y-104534505D01*
X121586032Y-104554821D01*
X121742784Y-104592454D01*
X121742790Y-104592455D01*
X121747597Y-104593609D01*
X121847416Y-104601465D01*
X121934345Y-104608307D01*
X121934352Y-104608307D01*
X121936801Y-104608500D01*
X122063199Y-104608500D01*
X122065648Y-104608307D01*
X122065655Y-104608307D01*
X122152584Y-104601465D01*
X122252403Y-104593609D01*
X122257210Y-104592455D01*
X122257216Y-104592454D01*
X122413968Y-104554821D01*
X122498591Y-104534505D01*
X122503164Y-104532611D01*
X122727928Y-104439511D01*
X122727932Y-104439509D01*
X122732502Y-104437616D01*
X122948376Y-104305328D01*
X123140898Y-104140898D01*
X123305328Y-103948376D01*
X123437616Y-103732502D01*
X123534505Y-103498591D01*
X123593609Y-103252403D01*
X123613474Y-103000000D01*
X123593609Y-102747597D01*
X123534505Y-102501409D01*
X123437616Y-102267498D01*
X123305328Y-102051624D01*
X123140898Y-101859102D01*
X122948376Y-101694672D01*
X122732502Y-101562384D01*
X122727932Y-101560491D01*
X122727928Y-101560489D01*
X122503164Y-101467389D01*
X122503162Y-101467388D01*
X122498591Y-101465495D01*
X122413968Y-101445179D01*
X122257216Y-101407546D01*
X122257210Y-101407545D01*
X122252403Y-101406391D01*
X122152584Y-101398535D01*
X122065655Y-101391693D01*
X122065648Y-101391693D01*
X122063199Y-101391500D01*
X121936801Y-101391500D01*
X121934352Y-101391693D01*
X121934345Y-101391693D01*
X121847416Y-101398535D01*
X121747597Y-101406391D01*
X121742790Y-101407545D01*
X121742784Y-101407546D01*
X121586032Y-101445179D01*
X121501409Y-101465495D01*
X121496838Y-101467388D01*
X121496836Y-101467389D01*
X121272072Y-101560489D01*
X121272068Y-101560491D01*
X121267498Y-101562384D01*
X121051624Y-101694672D01*
X120859102Y-101859102D01*
X120694672Y-102051624D01*
X120562384Y-102267498D01*
X120465495Y-102501409D01*
X120406391Y-102747597D01*
X120386526Y-103000000D01*
X104613474Y-103000000D01*
X104593609Y-102747597D01*
X104534505Y-102501409D01*
X104437616Y-102267498D01*
X104305328Y-102051624D01*
X104140898Y-101859102D01*
X103948376Y-101694672D01*
X103732502Y-101562384D01*
X103727932Y-101560491D01*
X103727928Y-101560489D01*
X103503164Y-101467389D01*
X103503162Y-101467388D01*
X103498591Y-101465495D01*
X103413968Y-101445179D01*
X103257216Y-101407546D01*
X103257210Y-101407545D01*
X103252403Y-101406391D01*
X103152584Y-101398535D01*
X103065655Y-101391693D01*
X103065648Y-101391693D01*
X103063199Y-101391500D01*
X102936801Y-101391500D01*
X102934352Y-101391693D01*
X102934345Y-101391693D01*
X102847416Y-101398535D01*
X102747597Y-101406391D01*
X102742790Y-101407545D01*
X102742784Y-101407546D01*
X102586032Y-101445179D01*
X102501409Y-101465495D01*
X102496838Y-101467388D01*
X102496836Y-101467389D01*
X102272072Y-101560489D01*
X102272068Y-101560491D01*
X102267498Y-101562384D01*
X102051624Y-101694672D01*
X101859102Y-101859102D01*
X101694672Y-102051624D01*
X101562384Y-102267498D01*
X101465495Y-102501409D01*
X101406391Y-102747597D01*
X101386526Y-103000000D01*
X100508000Y-103000000D01*
X100508000Y-100634000D01*
X100528002Y-100565879D01*
X100581658Y-100519386D01*
X100634000Y-100508000D01*
X124366000Y-100508000D01*
X124434121Y-100528002D01*
G37*
%TD.AperFunction*%
%TD*%
M02*
