%TF.GenerationSoftware,KiCad,Pcbnew,(6.0.1)*%
%TF.CreationDate,2022-02-11T18:20:56+00:00*%
%TF.ProjectId,PE4302,50453433-3032-42e6-9b69-6361645f7063,rev?*%
%TF.SameCoordinates,Original*%
%TF.FileFunction,Paste,Top*%
%TF.FilePolarity,Positive*%
%FSLAX46Y46*%
G04 Gerber Fmt 4.6, Leading zero omitted, Abs format (unit mm)*
G04 Created by KiCad (PCBNEW (6.0.1)) date 2022-02-11 18:20:56*
%MOMM*%
%LPD*%
G01*
G04 APERTURE LIST*
G04 Aperture macros list*
%AMRoundRect*
0 Rectangle with rounded corners*
0 $1 Rounding radius*
0 $2 $3 $4 $5 $6 $7 $8 $9 X,Y pos of 4 corners*
0 Add a 4 corners polygon primitive as box body*
4,1,4,$2,$3,$4,$5,$6,$7,$8,$9,$2,$3,0*
0 Add four circle primitives for the rounded corners*
1,1,$1+$1,$2,$3*
1,1,$1+$1,$4,$5*
1,1,$1+$1,$6,$7*
1,1,$1+$1,$8,$9*
0 Add four rect primitives between the rounded corners*
20,1,$1+$1,$2,$3,$4,$5,0*
20,1,$1+$1,$4,$5,$6,$7,0*
20,1,$1+$1,$6,$7,$8,$9,0*
20,1,$1+$1,$8,$9,$2,$3,0*%
G04 Aperture macros list end*
%ADD10R,3.600000X1.270000*%
%ADD11R,4.200000X1.350000*%
%ADD12RoundRect,0.150000X0.512500X0.150000X-0.512500X0.150000X-0.512500X-0.150000X0.512500X-0.150000X0*%
%ADD13RoundRect,0.200000X-0.200000X-0.275000X0.200000X-0.275000X0.200000X0.275000X-0.200000X0.275000X0*%
%ADD14RoundRect,0.200000X0.200000X0.275000X-0.200000X0.275000X-0.200000X-0.275000X0.200000X-0.275000X0*%
%ADD15RoundRect,0.250000X-0.250000X-0.475000X0.250000X-0.475000X0.250000X0.475000X-0.250000X0.475000X0*%
%ADD16RoundRect,0.225000X0.225000X0.250000X-0.225000X0.250000X-0.225000X-0.250000X0.225000X-0.250000X0*%
%ADD17RoundRect,0.225000X-0.225000X-0.250000X0.225000X-0.250000X0.225000X0.250000X-0.225000X0.250000X0*%
%ADD18RoundRect,0.150000X-0.587500X-0.150000X0.587500X-0.150000X0.587500X0.150000X-0.587500X0.150000X0*%
%ADD19RoundRect,0.062500X-0.350000X-0.062500X0.350000X-0.062500X0.350000X0.062500X-0.350000X0.062500X0*%
%ADD20RoundRect,0.062500X-0.062500X-0.350000X0.062500X-0.350000X0.062500X0.350000X-0.062500X0.350000X0*%
%ADD21RoundRect,0.250000X0.250000X0.475000X-0.250000X0.475000X-0.250000X-0.475000X0.250000X-0.475000X0*%
G04 APERTURE END LIST*
D10*
%TO.C,J2*%
X123000000Y-112000000D03*
D11*
X122800000Y-114825000D03*
X122800000Y-109175000D03*
%TD*%
D12*
%TO.C,U2*%
X106753000Y-127355600D03*
X106753000Y-126405600D03*
X106753000Y-125455600D03*
X104478000Y-125455600D03*
X104478000Y-127355600D03*
%TD*%
D13*
%TO.C,R9*%
X113754400Y-108077000D03*
X115404400Y-108077000D03*
%TD*%
D14*
%TO.C,R1*%
X112257100Y-130164800D03*
X110607100Y-130164800D03*
%TD*%
D13*
%TO.C,R5*%
X114008400Y-122072400D03*
X115658400Y-122072400D03*
%TD*%
D15*
%TO.C,C3*%
X104602300Y-130469600D03*
X106502300Y-130469600D03*
%TD*%
D10*
%TO.C,J1*%
X102000000Y-112000000D03*
D11*
X102200000Y-109175000D03*
X102200000Y-114825000D03*
%TD*%
D13*
%TO.C,R4*%
X113983000Y-123977400D03*
X115633000Y-123977400D03*
%TD*%
D16*
%TO.C,C9*%
X106339700Y-120360400D03*
X104789700Y-120360400D03*
%TD*%
%TO.C,C1*%
X107709000Y-112039400D03*
X106159000Y-112039400D03*
%TD*%
D13*
%TO.C,R6*%
X114008400Y-120065800D03*
X115658400Y-120065800D03*
%TD*%
D16*
%TO.C,C6*%
X112382600Y-116306600D03*
X110832600Y-116306600D03*
%TD*%
D17*
%TO.C,C8*%
X110096000Y-108077000D03*
X111646000Y-108077000D03*
%TD*%
D18*
%TO.C,Q2*%
X118061500Y-124043400D03*
X118061500Y-125943400D03*
X119936500Y-124993400D03*
%TD*%
D14*
%TO.C,R3*%
X112234000Y-126166800D03*
X110584000Y-126166800D03*
%TD*%
%TO.C,R7*%
X108571800Y-114960400D03*
X106921800Y-114960400D03*
%TD*%
D13*
%TO.C,R8*%
X107023400Y-109296200D03*
X108673400Y-109296200D03*
%TD*%
D19*
%TO.C,U1*%
X110457500Y-111471200D03*
X110457500Y-111971200D03*
X110457500Y-112471200D03*
X110457500Y-112971200D03*
X110457500Y-113471200D03*
D20*
X111395000Y-114408700D03*
X111895000Y-114408700D03*
X112395000Y-114408700D03*
X112895000Y-114408700D03*
X113395000Y-114408700D03*
D19*
X114332500Y-113471200D03*
X114332500Y-112971200D03*
X114332500Y-112471200D03*
X114332500Y-111971200D03*
X114332500Y-111471200D03*
D20*
X113395000Y-110533700D03*
X112895000Y-110533700D03*
X112395000Y-110533700D03*
X111895000Y-110533700D03*
X111395000Y-110533700D03*
%TD*%
D17*
%TO.C,C5*%
X114058400Y-118186200D03*
X115608400Y-118186200D03*
%TD*%
D21*
%TO.C,C4*%
X106565500Y-122798800D03*
X104665500Y-122798800D03*
%TD*%
D16*
%TO.C,C2*%
X118427800Y-112074800D03*
X116877800Y-112074800D03*
%TD*%
D17*
%TO.C,C10*%
X110629400Y-123977400D03*
X112179400Y-123977400D03*
%TD*%
D18*
%TO.C,Q1*%
X118086900Y-128163200D03*
X118086900Y-130063200D03*
X119961900Y-129113200D03*
%TD*%
D14*
%TO.C,R2*%
X112231700Y-128158200D03*
X110581700Y-128158200D03*
%TD*%
D18*
%TO.C,Q3*%
X118086900Y-120009800D03*
X118086900Y-121909800D03*
X119961900Y-120959800D03*
%TD*%
D17*
%TO.C,C7*%
X114287000Y-116357400D03*
X115837000Y-116357400D03*
%TD*%
M02*
