%TF.GenerationSoftware,KiCad,Pcbnew,(6.0.1)*%
%TF.CreationDate,2022-02-11T18:20:56+00:00*%
%TF.ProjectId,PE4302,50453433-3032-42e6-9b69-6361645f7063,rev?*%
%TF.SameCoordinates,Original*%
%TF.FileFunction,Legend,Top*%
%TF.FilePolarity,Positive*%
%FSLAX46Y46*%
G04 Gerber Fmt 4.6, Leading zero omitted, Abs format (unit mm)*
G04 Created by KiCad (PCBNEW (6.0.1)) date 2022-02-11 18:20:56*
%MOMM*%
%LPD*%
G01*
G04 APERTURE LIST*
%ADD10C,0.150000*%
%ADD11C,0.120000*%
G04 APERTURE END LIST*
D10*
X109445752Y-102974580D02*
X109445752Y-101974580D01*
X109826704Y-101974580D01*
X109921942Y-102022200D01*
X109969561Y-102069819D01*
X110017180Y-102165057D01*
X110017180Y-102307914D01*
X109969561Y-102403152D01*
X109921942Y-102450771D01*
X109826704Y-102498390D01*
X109445752Y-102498390D01*
X110445752Y-102450771D02*
X110779085Y-102450771D01*
X110921942Y-102974580D02*
X110445752Y-102974580D01*
X110445752Y-101974580D01*
X110921942Y-101974580D01*
X111779085Y-102307914D02*
X111779085Y-102974580D01*
X111540990Y-101926961D02*
X111302895Y-102641247D01*
X111921942Y-102641247D01*
X112207657Y-101974580D02*
X112826704Y-101974580D01*
X112493371Y-102355533D01*
X112636228Y-102355533D01*
X112731466Y-102403152D01*
X112779085Y-102450771D01*
X112826704Y-102546009D01*
X112826704Y-102784104D01*
X112779085Y-102879342D01*
X112731466Y-102926961D01*
X112636228Y-102974580D01*
X112350514Y-102974580D01*
X112255276Y-102926961D01*
X112207657Y-102879342D01*
X113445752Y-101974580D02*
X113540990Y-101974580D01*
X113636228Y-102022200D01*
X113683847Y-102069819D01*
X113731466Y-102165057D01*
X113779085Y-102355533D01*
X113779085Y-102593628D01*
X113731466Y-102784104D01*
X113683847Y-102879342D01*
X113636228Y-102926961D01*
X113540990Y-102974580D01*
X113445752Y-102974580D01*
X113350514Y-102926961D01*
X113302895Y-102879342D01*
X113255276Y-102784104D01*
X113207657Y-102593628D01*
X113207657Y-102355533D01*
X113255276Y-102165057D01*
X113302895Y-102069819D01*
X113350514Y-102022200D01*
X113445752Y-101974580D01*
X114160038Y-102069819D02*
X114207657Y-102022200D01*
X114302895Y-101974580D01*
X114540990Y-101974580D01*
X114636228Y-102022200D01*
X114683847Y-102069819D01*
X114731466Y-102165057D01*
X114731466Y-102260295D01*
X114683847Y-102403152D01*
X114112419Y-102974580D01*
X114731466Y-102974580D01*
X108421942Y-104298866D02*
X108898133Y-104298866D01*
X108326704Y-104584580D02*
X108660038Y-103584580D01*
X108993371Y-104584580D01*
X109183847Y-103917914D02*
X109564800Y-103917914D01*
X109326704Y-103584580D02*
X109326704Y-104441723D01*
X109374323Y-104536961D01*
X109469561Y-104584580D01*
X109564800Y-104584580D01*
X109755276Y-103917914D02*
X110136228Y-103917914D01*
X109898133Y-103584580D02*
X109898133Y-104441723D01*
X109945752Y-104536961D01*
X110040990Y-104584580D01*
X110136228Y-104584580D01*
X110850514Y-104536961D02*
X110755276Y-104584580D01*
X110564800Y-104584580D01*
X110469561Y-104536961D01*
X110421942Y-104441723D01*
X110421942Y-104060771D01*
X110469561Y-103965533D01*
X110564800Y-103917914D01*
X110755276Y-103917914D01*
X110850514Y-103965533D01*
X110898133Y-104060771D01*
X110898133Y-104156009D01*
X110421942Y-104251247D01*
X111326704Y-103917914D02*
X111326704Y-104584580D01*
X111326704Y-104013152D02*
X111374323Y-103965533D01*
X111469561Y-103917914D01*
X111612419Y-103917914D01*
X111707657Y-103965533D01*
X111755276Y-104060771D01*
X111755276Y-104584580D01*
X112660038Y-103917914D02*
X112660038Y-104584580D01*
X112231466Y-103917914D02*
X112231466Y-104441723D01*
X112279085Y-104536961D01*
X112374323Y-104584580D01*
X112517180Y-104584580D01*
X112612419Y-104536961D01*
X112660038Y-104489342D01*
X113564800Y-104584580D02*
X113564800Y-104060771D01*
X113517180Y-103965533D01*
X113421942Y-103917914D01*
X113231466Y-103917914D01*
X113136228Y-103965533D01*
X113564800Y-104536961D02*
X113469561Y-104584580D01*
X113231466Y-104584580D01*
X113136228Y-104536961D01*
X113088609Y-104441723D01*
X113088609Y-104346485D01*
X113136228Y-104251247D01*
X113231466Y-104203628D01*
X113469561Y-104203628D01*
X113564800Y-104156009D01*
X113898133Y-103917914D02*
X114279085Y-103917914D01*
X114040990Y-103584580D02*
X114040990Y-104441723D01*
X114088609Y-104536961D01*
X114183847Y-104584580D01*
X114279085Y-104584580D01*
X114755276Y-104584580D02*
X114660038Y-104536961D01*
X114612419Y-104489342D01*
X114564800Y-104394104D01*
X114564800Y-104108390D01*
X114612419Y-104013152D01*
X114660038Y-103965533D01*
X114755276Y-103917914D01*
X114898133Y-103917914D01*
X114993371Y-103965533D01*
X115040990Y-104013152D01*
X115088609Y-104108390D01*
X115088609Y-104394104D01*
X115040990Y-104489342D01*
X114993371Y-104536961D01*
X114898133Y-104584580D01*
X114755276Y-104584580D01*
X115517180Y-104584580D02*
X115517180Y-103917914D01*
X115517180Y-104108390D02*
X115564800Y-104013152D01*
X115612419Y-103965533D01*
X115707657Y-103917914D01*
X115802895Y-103917914D01*
%TO.C,J2*%
X122577266Y-117105180D02*
X122577266Y-117819466D01*
X122529647Y-117962323D01*
X122434409Y-118057561D01*
X122291552Y-118105180D01*
X122196314Y-118105180D01*
X123005838Y-117200419D02*
X123053457Y-117152800D01*
X123148695Y-117105180D01*
X123386790Y-117105180D01*
X123482028Y-117152800D01*
X123529647Y-117200419D01*
X123577266Y-117295657D01*
X123577266Y-117390895D01*
X123529647Y-117533752D01*
X122958219Y-118105180D01*
X123577266Y-118105180D01*
%TO.C,J3*%
X112137866Y-132755980D02*
X112137866Y-133470266D01*
X112090247Y-133613123D01*
X111995009Y-133708361D01*
X111852152Y-133755980D01*
X111756914Y-133755980D01*
X112518819Y-132755980D02*
X113137866Y-132755980D01*
X112804533Y-133136933D01*
X112947390Y-133136933D01*
X113042628Y-133184552D01*
X113090247Y-133232171D01*
X113137866Y-133327409D01*
X113137866Y-133565504D01*
X113090247Y-133660742D01*
X113042628Y-133708361D01*
X112947390Y-133755980D01*
X112661676Y-133755980D01*
X112566438Y-133708361D01*
X112518819Y-133660742D01*
%TO.C,U2*%
X101701695Y-124877580D02*
X101701695Y-125687104D01*
X101749314Y-125782342D01*
X101796933Y-125829961D01*
X101892171Y-125877580D01*
X102082647Y-125877580D01*
X102177885Y-125829961D01*
X102225504Y-125782342D01*
X102273123Y-125687104D01*
X102273123Y-124877580D01*
X102701695Y-124972819D02*
X102749314Y-124925200D01*
X102844552Y-124877580D01*
X103082647Y-124877580D01*
X103177885Y-124925200D01*
X103225504Y-124972819D01*
X103273123Y-125068057D01*
X103273123Y-125163295D01*
X103225504Y-125306152D01*
X102654076Y-125877580D01*
X103273123Y-125877580D01*
%TO.C,R9*%
X114412733Y-107099380D02*
X114079400Y-106623190D01*
X113841304Y-107099380D02*
X113841304Y-106099380D01*
X114222257Y-106099380D01*
X114317495Y-106147000D01*
X114365114Y-106194619D01*
X114412733Y-106289857D01*
X114412733Y-106432714D01*
X114365114Y-106527952D01*
X114317495Y-106575571D01*
X114222257Y-106623190D01*
X113841304Y-106623190D01*
X114888923Y-107099380D02*
X115079400Y-107099380D01*
X115174638Y-107051761D01*
X115222257Y-107004142D01*
X115317495Y-106861285D01*
X115365114Y-106670809D01*
X115365114Y-106289857D01*
X115317495Y-106194619D01*
X115269876Y-106147000D01*
X115174638Y-106099380D01*
X114984161Y-106099380D01*
X114888923Y-106147000D01*
X114841304Y-106194619D01*
X114793685Y-106289857D01*
X114793685Y-106527952D01*
X114841304Y-106623190D01*
X114888923Y-106670809D01*
X114984161Y-106718428D01*
X115174638Y-106718428D01*
X115269876Y-106670809D01*
X115317495Y-106623190D01*
X115365114Y-106527952D01*
%TO.C,R1*%
X108824733Y-130652780D02*
X108491400Y-130176590D01*
X108253304Y-130652780D02*
X108253304Y-129652780D01*
X108634257Y-129652780D01*
X108729495Y-129700400D01*
X108777114Y-129748019D01*
X108824733Y-129843257D01*
X108824733Y-129986114D01*
X108777114Y-130081352D01*
X108729495Y-130128971D01*
X108634257Y-130176590D01*
X108253304Y-130176590D01*
X109777114Y-130652780D02*
X109205685Y-130652780D01*
X109491400Y-130652780D02*
X109491400Y-129652780D01*
X109396161Y-129795638D01*
X109300923Y-129890876D01*
X109205685Y-129938495D01*
%TO.C,R5*%
X112126733Y-122346980D02*
X111793400Y-121870790D01*
X111555304Y-122346980D02*
X111555304Y-121346980D01*
X111936257Y-121346980D01*
X112031495Y-121394600D01*
X112079114Y-121442219D01*
X112126733Y-121537457D01*
X112126733Y-121680314D01*
X112079114Y-121775552D01*
X112031495Y-121823171D01*
X111936257Y-121870790D01*
X111555304Y-121870790D01*
X113031495Y-121346980D02*
X112555304Y-121346980D01*
X112507685Y-121823171D01*
X112555304Y-121775552D01*
X112650542Y-121727933D01*
X112888638Y-121727933D01*
X112983876Y-121775552D01*
X113031495Y-121823171D01*
X113079114Y-121918409D01*
X113079114Y-122156504D01*
X113031495Y-122251742D01*
X112983876Y-122299361D01*
X112888638Y-122346980D01*
X112650542Y-122346980D01*
X112555304Y-122299361D01*
X112507685Y-122251742D01*
%TO.C,C3*%
X102500133Y-130836942D02*
X102452514Y-130884561D01*
X102309657Y-130932180D01*
X102214419Y-130932180D01*
X102071561Y-130884561D01*
X101976323Y-130789323D01*
X101928704Y-130694085D01*
X101881085Y-130503609D01*
X101881085Y-130360752D01*
X101928704Y-130170276D01*
X101976323Y-130075038D01*
X102071561Y-129979800D01*
X102214419Y-129932180D01*
X102309657Y-129932180D01*
X102452514Y-129979800D01*
X102500133Y-130027419D01*
X102833466Y-129932180D02*
X103452514Y-129932180D01*
X103119180Y-130313133D01*
X103262038Y-130313133D01*
X103357276Y-130360752D01*
X103404895Y-130408371D01*
X103452514Y-130503609D01*
X103452514Y-130741704D01*
X103404895Y-130836942D01*
X103357276Y-130884561D01*
X103262038Y-130932180D01*
X102976323Y-130932180D01*
X102881085Y-130884561D01*
X102833466Y-130836942D01*
%TO.C,J1*%
X102257266Y-117816380D02*
X102257266Y-118530666D01*
X102209647Y-118673523D01*
X102114409Y-118768761D01*
X101971552Y-118816380D01*
X101876314Y-118816380D01*
X103257266Y-118816380D02*
X102685838Y-118816380D01*
X102971552Y-118816380D02*
X102971552Y-117816380D01*
X102876314Y-117959238D01*
X102781076Y-118054476D01*
X102685838Y-118102095D01*
%TO.C,R4*%
X114666733Y-125801380D02*
X114333400Y-125325190D01*
X114095304Y-125801380D02*
X114095304Y-124801380D01*
X114476257Y-124801380D01*
X114571495Y-124849000D01*
X114619114Y-124896619D01*
X114666733Y-124991857D01*
X114666733Y-125134714D01*
X114619114Y-125229952D01*
X114571495Y-125277571D01*
X114476257Y-125325190D01*
X114095304Y-125325190D01*
X115523876Y-125134714D02*
X115523876Y-125801380D01*
X115285780Y-124753761D02*
X115047685Y-125468047D01*
X115666733Y-125468047D01*
%TO.C,C9*%
X102500133Y-120905542D02*
X102452514Y-120953161D01*
X102309657Y-121000780D01*
X102214419Y-121000780D01*
X102071561Y-120953161D01*
X101976323Y-120857923D01*
X101928704Y-120762685D01*
X101881085Y-120572209D01*
X101881085Y-120429352D01*
X101928704Y-120238876D01*
X101976323Y-120143638D01*
X102071561Y-120048400D01*
X102214419Y-120000780D01*
X102309657Y-120000780D01*
X102452514Y-120048400D01*
X102500133Y-120096019D01*
X102976323Y-121000780D02*
X103166800Y-121000780D01*
X103262038Y-120953161D01*
X103309657Y-120905542D01*
X103404895Y-120762685D01*
X103452514Y-120572209D01*
X103452514Y-120191257D01*
X103404895Y-120096019D01*
X103357276Y-120048400D01*
X103262038Y-120000780D01*
X103071561Y-120000780D01*
X102976323Y-120048400D01*
X102928704Y-120096019D01*
X102881085Y-120191257D01*
X102881085Y-120429352D01*
X102928704Y-120524590D01*
X102976323Y-120572209D01*
X103071561Y-120619828D01*
X103262038Y-120619828D01*
X103357276Y-120572209D01*
X103404895Y-120524590D01*
X103452514Y-120429352D01*
%TO.C,C1*%
X106767333Y-113826542D02*
X106719714Y-113874161D01*
X106576857Y-113921780D01*
X106481619Y-113921780D01*
X106338761Y-113874161D01*
X106243523Y-113778923D01*
X106195904Y-113683685D01*
X106148285Y-113493209D01*
X106148285Y-113350352D01*
X106195904Y-113159876D01*
X106243523Y-113064638D01*
X106338761Y-112969400D01*
X106481619Y-112921780D01*
X106576857Y-112921780D01*
X106719714Y-112969400D01*
X106767333Y-113017019D01*
X107719714Y-113921780D02*
X107148285Y-113921780D01*
X107434000Y-113921780D02*
X107434000Y-112921780D01*
X107338761Y-113064638D01*
X107243523Y-113159876D01*
X107148285Y-113207495D01*
%TO.C,R6*%
X112101333Y-120543580D02*
X111768000Y-120067390D01*
X111529904Y-120543580D02*
X111529904Y-119543580D01*
X111910857Y-119543580D01*
X112006095Y-119591200D01*
X112053714Y-119638819D01*
X112101333Y-119734057D01*
X112101333Y-119876914D01*
X112053714Y-119972152D01*
X112006095Y-120019771D01*
X111910857Y-120067390D01*
X111529904Y-120067390D01*
X112958476Y-119543580D02*
X112768000Y-119543580D01*
X112672761Y-119591200D01*
X112625142Y-119638819D01*
X112529904Y-119781676D01*
X112482285Y-119972152D01*
X112482285Y-120353104D01*
X112529904Y-120448342D01*
X112577523Y-120495961D01*
X112672761Y-120543580D01*
X112863238Y-120543580D01*
X112958476Y-120495961D01*
X113006095Y-120448342D01*
X113053714Y-120353104D01*
X113053714Y-120115009D01*
X113006095Y-120019771D01*
X112958476Y-119972152D01*
X112863238Y-119924533D01*
X112672761Y-119924533D01*
X112577523Y-119972152D01*
X112529904Y-120019771D01*
X112482285Y-120115009D01*
%TO.C,C6*%
X111440933Y-118093742D02*
X111393314Y-118141361D01*
X111250457Y-118188980D01*
X111155219Y-118188980D01*
X111012361Y-118141361D01*
X110917123Y-118046123D01*
X110869504Y-117950885D01*
X110821885Y-117760409D01*
X110821885Y-117617552D01*
X110869504Y-117427076D01*
X110917123Y-117331838D01*
X111012361Y-117236600D01*
X111155219Y-117188980D01*
X111250457Y-117188980D01*
X111393314Y-117236600D01*
X111440933Y-117284219D01*
X112298076Y-117188980D02*
X112107600Y-117188980D01*
X112012361Y-117236600D01*
X111964742Y-117284219D01*
X111869504Y-117427076D01*
X111821885Y-117617552D01*
X111821885Y-117998504D01*
X111869504Y-118093742D01*
X111917123Y-118141361D01*
X112012361Y-118188980D01*
X112202838Y-118188980D01*
X112298076Y-118141361D01*
X112345695Y-118093742D01*
X112393314Y-117998504D01*
X112393314Y-117760409D01*
X112345695Y-117665171D01*
X112298076Y-117617552D01*
X112202838Y-117569933D01*
X112012361Y-117569933D01*
X111917123Y-117617552D01*
X111869504Y-117665171D01*
X111821885Y-117760409D01*
%TO.C,C8*%
X110704333Y-107004142D02*
X110656714Y-107051761D01*
X110513857Y-107099380D01*
X110418619Y-107099380D01*
X110275761Y-107051761D01*
X110180523Y-106956523D01*
X110132904Y-106861285D01*
X110085285Y-106670809D01*
X110085285Y-106527952D01*
X110132904Y-106337476D01*
X110180523Y-106242238D01*
X110275761Y-106147000D01*
X110418619Y-106099380D01*
X110513857Y-106099380D01*
X110656714Y-106147000D01*
X110704333Y-106194619D01*
X111275761Y-106527952D02*
X111180523Y-106480333D01*
X111132904Y-106432714D01*
X111085285Y-106337476D01*
X111085285Y-106289857D01*
X111132904Y-106194619D01*
X111180523Y-106147000D01*
X111275761Y-106099380D01*
X111466238Y-106099380D01*
X111561476Y-106147000D01*
X111609095Y-106194619D01*
X111656714Y-106289857D01*
X111656714Y-106337476D01*
X111609095Y-106432714D01*
X111561476Y-106480333D01*
X111466238Y-106527952D01*
X111275761Y-106527952D01*
X111180523Y-106575571D01*
X111132904Y-106623190D01*
X111085285Y-106718428D01*
X111085285Y-106908904D01*
X111132904Y-107004142D01*
X111180523Y-107051761D01*
X111275761Y-107099380D01*
X111466238Y-107099380D01*
X111561476Y-107051761D01*
X111609095Y-107004142D01*
X111656714Y-106908904D01*
X111656714Y-106718428D01*
X111609095Y-106623190D01*
X111561476Y-106575571D01*
X111466238Y-106527952D01*
%TO.C,Q2*%
X122027961Y-125439419D02*
X121932723Y-125391800D01*
X121837485Y-125296561D01*
X121694628Y-125153704D01*
X121599390Y-125106085D01*
X121504152Y-125106085D01*
X121551771Y-125344180D02*
X121456533Y-125296561D01*
X121361295Y-125201323D01*
X121313676Y-125010847D01*
X121313676Y-124677514D01*
X121361295Y-124487038D01*
X121456533Y-124391800D01*
X121551771Y-124344180D01*
X121742247Y-124344180D01*
X121837485Y-124391800D01*
X121932723Y-124487038D01*
X121980342Y-124677514D01*
X121980342Y-125010847D01*
X121932723Y-125201323D01*
X121837485Y-125296561D01*
X121742247Y-125344180D01*
X121551771Y-125344180D01*
X122361295Y-124439419D02*
X122408914Y-124391800D01*
X122504152Y-124344180D01*
X122742247Y-124344180D01*
X122837485Y-124391800D01*
X122885104Y-124439419D01*
X122932723Y-124534657D01*
X122932723Y-124629895D01*
X122885104Y-124772752D01*
X122313676Y-125344180D01*
X122932723Y-125344180D01*
%TO.C,R3*%
X108723133Y-126614180D02*
X108389800Y-126137990D01*
X108151704Y-126614180D02*
X108151704Y-125614180D01*
X108532657Y-125614180D01*
X108627895Y-125661800D01*
X108675514Y-125709419D01*
X108723133Y-125804657D01*
X108723133Y-125947514D01*
X108675514Y-126042752D01*
X108627895Y-126090371D01*
X108532657Y-126137990D01*
X108151704Y-126137990D01*
X109056466Y-125614180D02*
X109675514Y-125614180D01*
X109342180Y-125995133D01*
X109485038Y-125995133D01*
X109580276Y-126042752D01*
X109627895Y-126090371D01*
X109675514Y-126185609D01*
X109675514Y-126423704D01*
X109627895Y-126518942D01*
X109580276Y-126566561D01*
X109485038Y-126614180D01*
X109199323Y-126614180D01*
X109104085Y-126566561D01*
X109056466Y-126518942D01*
%TO.C,R7*%
X107580133Y-116842780D02*
X107246800Y-116366590D01*
X107008704Y-116842780D02*
X107008704Y-115842780D01*
X107389657Y-115842780D01*
X107484895Y-115890400D01*
X107532514Y-115938019D01*
X107580133Y-116033257D01*
X107580133Y-116176114D01*
X107532514Y-116271352D01*
X107484895Y-116318971D01*
X107389657Y-116366590D01*
X107008704Y-116366590D01*
X107913466Y-115842780D02*
X108580133Y-115842780D01*
X108151561Y-116842780D01*
%TO.C,R8*%
X107503933Y-108173780D02*
X107170600Y-107697590D01*
X106932504Y-108173780D02*
X106932504Y-107173780D01*
X107313457Y-107173780D01*
X107408695Y-107221400D01*
X107456314Y-107269019D01*
X107503933Y-107364257D01*
X107503933Y-107507114D01*
X107456314Y-107602352D01*
X107408695Y-107649971D01*
X107313457Y-107697590D01*
X106932504Y-107697590D01*
X108075361Y-107602352D02*
X107980123Y-107554733D01*
X107932504Y-107507114D01*
X107884885Y-107411876D01*
X107884885Y-107364257D01*
X107932504Y-107269019D01*
X107980123Y-107221400D01*
X108075361Y-107173780D01*
X108265838Y-107173780D01*
X108361076Y-107221400D01*
X108408695Y-107269019D01*
X108456314Y-107364257D01*
X108456314Y-107411876D01*
X108408695Y-107507114D01*
X108361076Y-107554733D01*
X108265838Y-107602352D01*
X108075361Y-107602352D01*
X107980123Y-107649971D01*
X107932504Y-107697590D01*
X107884885Y-107792828D01*
X107884885Y-107983304D01*
X107932504Y-108078542D01*
X107980123Y-108126161D01*
X108075361Y-108173780D01*
X108265838Y-108173780D01*
X108361076Y-108126161D01*
X108408695Y-108078542D01*
X108456314Y-107983304D01*
X108456314Y-107792828D01*
X108408695Y-107697590D01*
X108361076Y-107649971D01*
X108265838Y-107602352D01*
%TO.C,U1*%
X115316095Y-109205780D02*
X115316095Y-110015304D01*
X115363714Y-110110542D01*
X115411333Y-110158161D01*
X115506571Y-110205780D01*
X115697047Y-110205780D01*
X115792285Y-110158161D01*
X115839904Y-110110542D01*
X115887523Y-110015304D01*
X115887523Y-109205780D01*
X116887523Y-110205780D02*
X116316095Y-110205780D01*
X116601809Y-110205780D02*
X116601809Y-109205780D01*
X116506571Y-109348638D01*
X116411333Y-109443876D01*
X116316095Y-109491495D01*
%TO.C,C5*%
X117333733Y-118619542D02*
X117286114Y-118667161D01*
X117143257Y-118714780D01*
X117048019Y-118714780D01*
X116905161Y-118667161D01*
X116809923Y-118571923D01*
X116762304Y-118476685D01*
X116714685Y-118286209D01*
X116714685Y-118143352D01*
X116762304Y-117952876D01*
X116809923Y-117857638D01*
X116905161Y-117762400D01*
X117048019Y-117714780D01*
X117143257Y-117714780D01*
X117286114Y-117762400D01*
X117333733Y-117810019D01*
X118238495Y-117714780D02*
X117762304Y-117714780D01*
X117714685Y-118190971D01*
X117762304Y-118143352D01*
X117857542Y-118095733D01*
X118095638Y-118095733D01*
X118190876Y-118143352D01*
X118238495Y-118190971D01*
X118286114Y-118286209D01*
X118286114Y-118524304D01*
X118238495Y-118619542D01*
X118190876Y-118667161D01*
X118095638Y-118714780D01*
X117857542Y-118714780D01*
X117762304Y-118667161D01*
X117714685Y-118619542D01*
%TO.C,C4*%
X102373133Y-123216942D02*
X102325514Y-123264561D01*
X102182657Y-123312180D01*
X102087419Y-123312180D01*
X101944561Y-123264561D01*
X101849323Y-123169323D01*
X101801704Y-123074085D01*
X101754085Y-122883609D01*
X101754085Y-122740752D01*
X101801704Y-122550276D01*
X101849323Y-122455038D01*
X101944561Y-122359800D01*
X102087419Y-122312180D01*
X102182657Y-122312180D01*
X102325514Y-122359800D01*
X102373133Y-122407419D01*
X103230276Y-122645514D02*
X103230276Y-123312180D01*
X102992180Y-122264561D02*
X102754085Y-122978847D01*
X103373133Y-122978847D01*
%TO.C,C2*%
X117486133Y-113861942D02*
X117438514Y-113909561D01*
X117295657Y-113957180D01*
X117200419Y-113957180D01*
X117057561Y-113909561D01*
X116962323Y-113814323D01*
X116914704Y-113719085D01*
X116867085Y-113528609D01*
X116867085Y-113385752D01*
X116914704Y-113195276D01*
X116962323Y-113100038D01*
X117057561Y-113004800D01*
X117200419Y-112957180D01*
X117295657Y-112957180D01*
X117438514Y-113004800D01*
X117486133Y-113052419D01*
X117867085Y-113052419D02*
X117914704Y-113004800D01*
X118009942Y-112957180D01*
X118248038Y-112957180D01*
X118343276Y-113004800D01*
X118390895Y-113052419D01*
X118438514Y-113147657D01*
X118438514Y-113242895D01*
X118390895Y-113385752D01*
X117819466Y-113957180D01*
X118438514Y-113957180D01*
%TO.C,C10*%
X107738942Y-124410742D02*
X107691323Y-124458361D01*
X107548466Y-124505980D01*
X107453228Y-124505980D01*
X107310371Y-124458361D01*
X107215133Y-124363123D01*
X107167514Y-124267885D01*
X107119895Y-124077409D01*
X107119895Y-123934552D01*
X107167514Y-123744076D01*
X107215133Y-123648838D01*
X107310371Y-123553600D01*
X107453228Y-123505980D01*
X107548466Y-123505980D01*
X107691323Y-123553600D01*
X107738942Y-123601219D01*
X108691323Y-124505980D02*
X108119895Y-124505980D01*
X108405609Y-124505980D02*
X108405609Y-123505980D01*
X108310371Y-123648838D01*
X108215133Y-123744076D01*
X108119895Y-123791695D01*
X109310371Y-123505980D02*
X109405609Y-123505980D01*
X109500847Y-123553600D01*
X109548466Y-123601219D01*
X109596085Y-123696457D01*
X109643704Y-123886933D01*
X109643704Y-124125028D01*
X109596085Y-124315504D01*
X109548466Y-124410742D01*
X109500847Y-124458361D01*
X109405609Y-124505980D01*
X109310371Y-124505980D01*
X109215133Y-124458361D01*
X109167514Y-124410742D01*
X109119895Y-124315504D01*
X109072276Y-124125028D01*
X109072276Y-123886933D01*
X109119895Y-123696457D01*
X109167514Y-123601219D01*
X109215133Y-123553600D01*
X109310371Y-123505980D01*
%TO.C,Q1*%
X122078761Y-129655819D02*
X121983523Y-129608200D01*
X121888285Y-129512961D01*
X121745428Y-129370104D01*
X121650190Y-129322485D01*
X121554952Y-129322485D01*
X121602571Y-129560580D02*
X121507333Y-129512961D01*
X121412095Y-129417723D01*
X121364476Y-129227247D01*
X121364476Y-128893914D01*
X121412095Y-128703438D01*
X121507333Y-128608200D01*
X121602571Y-128560580D01*
X121793047Y-128560580D01*
X121888285Y-128608200D01*
X121983523Y-128703438D01*
X122031142Y-128893914D01*
X122031142Y-129227247D01*
X121983523Y-129417723D01*
X121888285Y-129512961D01*
X121793047Y-129560580D01*
X121602571Y-129560580D01*
X122983523Y-129560580D02*
X122412095Y-129560580D01*
X122697809Y-129560580D02*
X122697809Y-128560580D01*
X122602571Y-128703438D01*
X122507333Y-128798676D01*
X122412095Y-128846295D01*
%TO.C,R2*%
X108697733Y-128595380D02*
X108364400Y-128119190D01*
X108126304Y-128595380D02*
X108126304Y-127595380D01*
X108507257Y-127595380D01*
X108602495Y-127643000D01*
X108650114Y-127690619D01*
X108697733Y-127785857D01*
X108697733Y-127928714D01*
X108650114Y-128023952D01*
X108602495Y-128071571D01*
X108507257Y-128119190D01*
X108126304Y-128119190D01*
X109078685Y-127690619D02*
X109126304Y-127643000D01*
X109221542Y-127595380D01*
X109459638Y-127595380D01*
X109554876Y-127643000D01*
X109602495Y-127690619D01*
X109650114Y-127785857D01*
X109650114Y-127881095D01*
X109602495Y-128023952D01*
X109031066Y-128595380D01*
X109650114Y-128595380D01*
%TO.C,Q3*%
X122078761Y-121934219D02*
X121983523Y-121886600D01*
X121888285Y-121791361D01*
X121745428Y-121648504D01*
X121650190Y-121600885D01*
X121554952Y-121600885D01*
X121602571Y-121838980D02*
X121507333Y-121791361D01*
X121412095Y-121696123D01*
X121364476Y-121505647D01*
X121364476Y-121172314D01*
X121412095Y-120981838D01*
X121507333Y-120886600D01*
X121602571Y-120838980D01*
X121793047Y-120838980D01*
X121888285Y-120886600D01*
X121983523Y-120981838D01*
X122031142Y-121172314D01*
X122031142Y-121505647D01*
X121983523Y-121696123D01*
X121888285Y-121791361D01*
X121793047Y-121838980D01*
X121602571Y-121838980D01*
X122364476Y-120838980D02*
X122983523Y-120838980D01*
X122650190Y-121219933D01*
X122793047Y-121219933D01*
X122888285Y-121267552D01*
X122935904Y-121315171D01*
X122983523Y-121410409D01*
X122983523Y-121648504D01*
X122935904Y-121743742D01*
X122888285Y-121791361D01*
X122793047Y-121838980D01*
X122507333Y-121838980D01*
X122412095Y-121791361D01*
X122364476Y-121743742D01*
%TO.C,C7*%
X117587733Y-116790742D02*
X117540114Y-116838361D01*
X117397257Y-116885980D01*
X117302019Y-116885980D01*
X117159161Y-116838361D01*
X117063923Y-116743123D01*
X117016304Y-116647885D01*
X116968685Y-116457409D01*
X116968685Y-116314552D01*
X117016304Y-116124076D01*
X117063923Y-116028838D01*
X117159161Y-115933600D01*
X117302019Y-115885980D01*
X117397257Y-115885980D01*
X117540114Y-115933600D01*
X117587733Y-115981219D01*
X117921066Y-115885980D02*
X118587733Y-115885980D01*
X118159161Y-116885980D01*
D11*
%TO.C,J2*%
X120040000Y-112250000D02*
X120540000Y-112000000D01*
X121090000Y-111160000D02*
X121090000Y-110050000D01*
X124800000Y-111160000D02*
X124800000Y-110050000D01*
X120540000Y-112000000D02*
X120040000Y-111750000D01*
X120040000Y-111750000D02*
X120040000Y-112250000D01*
X121090000Y-113950000D02*
X121090000Y-112840000D01*
X124800000Y-113950000D02*
X124800000Y-112840000D01*
%TO.C,J3*%
X107021200Y-135003600D02*
X107021200Y-138503600D01*
X115471200Y-138503600D02*
X115471200Y-138003600D01*
X113371200Y-138003600D02*
X113571200Y-138003600D01*
X108171200Y-134193600D02*
X107871200Y-134193600D01*
X115971200Y-135003600D02*
X115971200Y-134393600D01*
X118531200Y-139113600D02*
X118531200Y-134393600D01*
X106411200Y-134393600D02*
X106411200Y-139113600D01*
X109371200Y-138503600D02*
X109371200Y-138003600D01*
X106411200Y-139113600D02*
X118531200Y-139113600D01*
X111371200Y-138003600D02*
X111571200Y-138003600D01*
X113371200Y-138503600D02*
X113371200Y-138003600D01*
X106111200Y-134093600D02*
X106111200Y-135343600D01*
X115371200Y-138503600D02*
X115371200Y-138003600D01*
X115371200Y-138003600D02*
X115571200Y-138003600D01*
X117921200Y-138503600D02*
X117921200Y-135003600D01*
X117921200Y-135003600D02*
X115971200Y-135003600D01*
X118531200Y-134393600D02*
X106411200Y-134393600D01*
X111371200Y-138503600D02*
X111371200Y-138003600D01*
X107871200Y-134193600D02*
X107871200Y-134393600D01*
X107021200Y-138503600D02*
X117921200Y-138503600D01*
X118531200Y-135703600D02*
X117921200Y-135703600D01*
X106411200Y-137003600D02*
X107021200Y-137003600D01*
X111571200Y-138003600D02*
X111571200Y-138503600D01*
X108171200Y-134293600D02*
X107871200Y-134293600D01*
X108971200Y-134393600D02*
X108971200Y-135003600D01*
X108971200Y-135003600D02*
X107021200Y-135003600D01*
X109371200Y-138003600D02*
X109571200Y-138003600D01*
X118531200Y-137003600D02*
X117921200Y-137003600D01*
X113471200Y-138503600D02*
X113471200Y-138003600D01*
X111471200Y-138503600D02*
X111471200Y-138003600D01*
X115571200Y-138003600D02*
X115571200Y-138503600D01*
X109471200Y-138503600D02*
X109471200Y-138003600D01*
X113571200Y-138003600D02*
X113571200Y-138503600D01*
X107361200Y-134093600D02*
X106111200Y-134093600D01*
X106411200Y-135703600D02*
X107021200Y-135703600D01*
X108171200Y-134393600D02*
X108171200Y-134193600D01*
X109571200Y-138003600D02*
X109571200Y-138503600D01*
%TO.C,U2*%
X105615500Y-127965600D02*
X107415500Y-127965600D01*
X105615500Y-124845600D02*
X106415500Y-124845600D01*
X105615500Y-124845600D02*
X104815500Y-124845600D01*
X105615500Y-127965600D02*
X104815500Y-127965600D01*
%TO.C,R9*%
X114342142Y-108599500D02*
X114816658Y-108599500D01*
X114342142Y-107554500D02*
X114816658Y-107554500D01*
%TO.C,R1*%
X111669358Y-130687300D02*
X111194842Y-130687300D01*
X111669358Y-129642300D02*
X111194842Y-129642300D01*
%TO.C,R5*%
X114596142Y-122594900D02*
X115070658Y-122594900D01*
X114596142Y-121549900D02*
X115070658Y-121549900D01*
%TO.C,C3*%
X105291048Y-129734600D02*
X105813552Y-129734600D01*
X105291048Y-131204600D02*
X105813552Y-131204600D01*
%TO.C,J1*%
X103910000Y-112840000D02*
X103910000Y-113950000D01*
X104960000Y-111750000D02*
X104460000Y-112000000D01*
X100200000Y-110050000D02*
X100200000Y-111160000D01*
X104960000Y-112250000D02*
X104960000Y-111750000D01*
X103910000Y-110050000D02*
X103910000Y-111160000D01*
X104460000Y-112000000D02*
X104960000Y-112250000D01*
X100200000Y-112840000D02*
X100200000Y-113950000D01*
%TO.C,R4*%
X114570742Y-123454900D02*
X115045258Y-123454900D01*
X114570742Y-124499900D02*
X115045258Y-124499900D01*
%TO.C,C9*%
X105705280Y-119850400D02*
X105424120Y-119850400D01*
X105705280Y-120870400D02*
X105424120Y-120870400D01*
%TO.C,C1*%
X107074580Y-111529400D02*
X106793420Y-111529400D01*
X107074580Y-112549400D02*
X106793420Y-112549400D01*
%TO.C,R6*%
X114596142Y-119543300D02*
X115070658Y-119543300D01*
X114596142Y-120588300D02*
X115070658Y-120588300D01*
%TO.C,C6*%
X111748180Y-116816600D02*
X111467020Y-116816600D01*
X111748180Y-115796600D02*
X111467020Y-115796600D01*
%TO.C,C8*%
X110730420Y-107567000D02*
X111011580Y-107567000D01*
X110730420Y-108587000D02*
X111011580Y-108587000D01*
%TO.C,Q2*%
X118999000Y-123433400D02*
X117324000Y-123433400D01*
X118999000Y-123433400D02*
X119649000Y-123433400D01*
X118999000Y-126553400D02*
X119649000Y-126553400D01*
X118999000Y-126553400D02*
X118349000Y-126553400D01*
%TO.C,R3*%
X111646258Y-125644300D02*
X111171742Y-125644300D01*
X111646258Y-126689300D02*
X111171742Y-126689300D01*
%TO.C,R7*%
X107984058Y-114437900D02*
X107509542Y-114437900D01*
X107984058Y-115482900D02*
X107509542Y-115482900D01*
%TO.C,R8*%
X107611142Y-109818700D02*
X108085658Y-109818700D01*
X107611142Y-108773700D02*
X108085658Y-108773700D01*
%TO.C,U1*%
X111010000Y-110361200D02*
X110285000Y-110361200D01*
X113780000Y-110361200D02*
X114505000Y-110361200D01*
X114505000Y-114581200D02*
X114505000Y-113856200D01*
X114505000Y-110361200D02*
X114505000Y-111086200D01*
X113780000Y-114581200D02*
X114505000Y-114581200D01*
X110285000Y-114581200D02*
X110285000Y-113856200D01*
X111010000Y-114581200D02*
X110285000Y-114581200D01*
%TO.C,C5*%
X114692820Y-118696200D02*
X114973980Y-118696200D01*
X114692820Y-117676200D02*
X114973980Y-117676200D01*
%TO.C,C4*%
X105876752Y-122063800D02*
X105354248Y-122063800D01*
X105876752Y-123533800D02*
X105354248Y-123533800D01*
%TO.C,C2*%
X117793380Y-112584800D02*
X117512220Y-112584800D01*
X117793380Y-111564800D02*
X117512220Y-111564800D01*
%TO.C,C10*%
X111263820Y-124487400D02*
X111544980Y-124487400D01*
X111263820Y-123467400D02*
X111544980Y-123467400D01*
%TO.C,Q1*%
X119024400Y-127553200D02*
X119674400Y-127553200D01*
X119024400Y-127553200D02*
X117349400Y-127553200D01*
X119024400Y-130673200D02*
X119674400Y-130673200D01*
X119024400Y-130673200D02*
X118374400Y-130673200D01*
%TO.C,R2*%
X111643958Y-128680700D02*
X111169442Y-128680700D01*
X111643958Y-127635700D02*
X111169442Y-127635700D01*
%TO.C,Q3*%
X119024400Y-122519800D02*
X118374400Y-122519800D01*
X119024400Y-119399800D02*
X119674400Y-119399800D01*
X119024400Y-122519800D02*
X119674400Y-122519800D01*
X119024400Y-119399800D02*
X117349400Y-119399800D01*
%TO.C,C7*%
X114921420Y-116867400D02*
X115202580Y-116867400D01*
X114921420Y-115847400D02*
X115202580Y-115847400D01*
%TD*%
M02*
