M48
; DRILL file {KiCad (6.0.1)} date Fri Feb 11 18:21:17 2022
; FORMAT={-:-/ absolute / metric / decimal}
; #@! TF.CreationDate,2022-02-11T18:21:17+00:00
; #@! TF.GenerationSoftware,Kicad,Pcbnew,(6.0.1)
; #@! TF.FileFunction,MixedPlating,1,4
FMAT,2
METRIC
; #@! TA.AperFunction,Plated,PTH,ViaDrill
T1C0.400
; #@! TA.AperFunction,Plated,PTH,ComponentDrill
T2C0.750
; #@! TA.AperFunction,NonPlated,NPTH,ComponentDrill
T3C2.200
%
G90
G05
T1
X100.686Y-116.942
X100.762Y-107.239
X101.295Y-119.837
X101.676Y-125.197
X101.93Y-132.131
X102.311Y-107.239
X102.362Y-116.967
X102.946Y-127.356
X102.972Y-122.834
X103.033Y-120.36
X103.937Y-107.213
X104.089Y-116.967
X104.8Y-110.846
X104.877Y-113.309
X104.978Y-114.859
X105.232Y-109.195
X105.537Y-126.39
X105.74Y-116.205
X106.096Y-107.798
X106.909Y-133.096
X107.544Y-107.696
X107.671Y-113.411
X107.671Y-116.535
X107.721Y-110.592
X107.975Y-122.707
X108.687Y-107.798
X109.703Y-106.553
X110.109Y-118.389
X110.134Y-109.601
X110.617Y-105.791
X110.998Y-119.786
X111.608Y-106.528
X112.039Y-117.754
X113.132Y-122.987
X113.175Y-115.402
X113.208Y-106.782
X113.263Y-126.156
X113.309Y-128.143
X114.446Y-109.809
X114.605Y-106.604
X114.859Y-122.987
X114.875Y-120.888
X115.443Y-112.717
X115.469Y-113.716
X115.646Y-110.871
X116.357Y-133.299
X116.408Y-114.681
X116.459Y-109.449
X116.967Y-124.968
X117.018Y-107.848
X117.399Y-113.487
X117.424Y-110.668
X117.78Y-115.291
X118.059Y-109.169
X118.339Y-116.561
X118.796Y-107.493
X118.897Y-110.744
X118.897Y-113.411
X119.05Y-122.691
X119.685Y-109.22
X119.685Y-114.783
X120.294Y-121.945
X120.32Y-125.933
X120.345Y-110.769
X120.345Y-113.157
X120.345Y-116.561
X120.675Y-107.442
X122.199Y-116.535
X122.301Y-107.417
X122.784Y-131.877
X122.834Y-119.736
X122.885Y-126.009
X123.876Y-107.391
X123.952Y-116.535
T2
X108.471Y-136.204
X110.471Y-136.204
X112.471Y-136.204
X114.471Y-136.204
X116.471Y-136.204
T3
X103.0Y-103.0
X103.0Y-137.0
X122.0Y-103.0
X122.0Y-137.0
T0
M30
