%TF.GenerationSoftware,KiCad,Pcbnew,(6.0.1)*%
%TF.CreationDate,2022-02-11T17:03:31+00:00*%
%TF.ProjectId,Coupler,436f7570-6c65-4722-9e6b-696361645f70,rev?*%
%TF.SameCoordinates,Original*%
%TF.FileFunction,Legend,Top*%
%TF.FilePolarity,Positive*%
%FSLAX46Y46*%
G04 Gerber Fmt 4.6, Leading zero omitted, Abs format (unit mm)*
G04 Created by KiCad (PCBNEW (6.0.1)) date 2022-02-11 17:03:31*
%MOMM*%
%LPD*%
G01*
G04 APERTURE LIST*
%ADD10C,0.300000*%
%ADD11C,0.150000*%
%ADD12C,0.120000*%
G04 APERTURE END LIST*
D10*
X124677114Y-106641200D02*
X124534257Y-106569771D01*
X124319971Y-106569771D01*
X124105685Y-106641200D01*
X123962828Y-106784057D01*
X123891399Y-106926914D01*
X123819971Y-107212628D01*
X123819971Y-107426914D01*
X123891399Y-107712628D01*
X123962828Y-107855485D01*
X124105685Y-107998342D01*
X124319971Y-108069771D01*
X124462828Y-108069771D01*
X124677114Y-107998342D01*
X124748542Y-107926914D01*
X124748542Y-107426914D01*
X124462828Y-107426914D01*
X126248542Y-108069771D02*
X125748542Y-107355485D01*
X125391399Y-108069771D02*
X125391399Y-106569771D01*
X125962828Y-106569771D01*
X126105685Y-106641200D01*
X126177114Y-106712628D01*
X126248542Y-106855485D01*
X126248542Y-107069771D01*
X126177114Y-107212628D01*
X126105685Y-107284057D01*
X125962828Y-107355485D01*
X125391399Y-107355485D01*
X127391399Y-107284057D02*
X126891399Y-107284057D01*
X126891399Y-108069771D02*
X126891399Y-106569771D01*
X127605685Y-106569771D01*
X128962828Y-108069771D02*
X128105685Y-108069771D01*
X128534257Y-108069771D02*
X128534257Y-106569771D01*
X128391399Y-106784057D01*
X128248542Y-106926914D01*
X128105685Y-106998342D01*
X129534257Y-106712628D02*
X129605685Y-106641200D01*
X129748542Y-106569771D01*
X130105685Y-106569771D01*
X130248542Y-106641200D01*
X130319971Y-106712628D01*
X130391399Y-106855485D01*
X130391399Y-106998342D01*
X130319971Y-107212628D01*
X129462828Y-108069771D01*
X130391399Y-108069771D01*
X131319971Y-106569771D02*
X131462828Y-106569771D01*
X131605685Y-106641200D01*
X131677114Y-106712628D01*
X131748542Y-106855485D01*
X131819971Y-107141200D01*
X131819971Y-107498342D01*
X131748542Y-107784057D01*
X131677114Y-107926914D01*
X131605685Y-107998342D01*
X131462828Y-108069771D01*
X131319971Y-108069771D01*
X131177114Y-107998342D01*
X131105685Y-107926914D01*
X131034257Y-107784057D01*
X130962828Y-107498342D01*
X130962828Y-107141200D01*
X131034257Y-106855485D01*
X131105685Y-106712628D01*
X131177114Y-106641200D01*
X131319971Y-106569771D01*
X133248542Y-108069771D02*
X132391399Y-108069771D01*
X132819971Y-108069771D02*
X132819971Y-106569771D01*
X132677114Y-106784057D01*
X132534257Y-106926914D01*
X132391399Y-106998342D01*
X135034257Y-108069771D02*
X135034257Y-106569771D01*
X135391400Y-106569771D01*
X135605685Y-106641200D01*
X135748542Y-106784057D01*
X135819971Y-106926914D01*
X135891400Y-107212628D01*
X135891400Y-107426914D01*
X135819971Y-107712628D01*
X135748542Y-107855485D01*
X135605685Y-107998342D01*
X135391400Y-108069771D01*
X135034257Y-108069771D01*
X137105685Y-107998342D02*
X136962828Y-108069771D01*
X136677114Y-108069771D01*
X136534257Y-107998342D01*
X136462828Y-107855485D01*
X136462828Y-107284057D01*
X136534257Y-107141200D01*
X136677114Y-107069771D01*
X136962828Y-107069771D01*
X137105685Y-107141200D01*
X137177114Y-107284057D01*
X137177114Y-107426914D01*
X136462828Y-107569771D01*
X137605685Y-107069771D02*
X138177114Y-107069771D01*
X137819971Y-106569771D02*
X137819971Y-107855485D01*
X137891400Y-107998342D01*
X138034257Y-108069771D01*
X138177114Y-108069771D01*
X139248542Y-107998342D02*
X139105685Y-108069771D01*
X138819971Y-108069771D01*
X138677114Y-107998342D01*
X138605685Y-107855485D01*
X138605685Y-107284057D01*
X138677114Y-107141200D01*
X138819971Y-107069771D01*
X139105685Y-107069771D01*
X139248542Y-107141200D01*
X139319971Y-107284057D01*
X139319971Y-107426914D01*
X138605685Y-107569771D01*
X140605685Y-107998342D02*
X140462828Y-108069771D01*
X140177114Y-108069771D01*
X140034257Y-107998342D01*
X139962828Y-107926914D01*
X139891400Y-107784057D01*
X139891400Y-107355485D01*
X139962828Y-107212628D01*
X140034257Y-107141200D01*
X140177114Y-107069771D01*
X140462828Y-107069771D01*
X140605685Y-107141200D01*
X141034257Y-107069771D02*
X141605685Y-107069771D01*
X141248542Y-106569771D02*
X141248542Y-107855485D01*
X141319971Y-107998342D01*
X141462828Y-108069771D01*
X141605685Y-108069771D01*
X142319971Y-108069771D02*
X142177114Y-107998342D01*
X142105685Y-107926914D01*
X142034257Y-107784057D01*
X142034257Y-107355485D01*
X142105685Y-107212628D01*
X142177114Y-107141200D01*
X142319971Y-107069771D01*
X142534257Y-107069771D01*
X142677114Y-107141200D01*
X142748542Y-107212628D01*
X142819971Y-107355485D01*
X142819971Y-107784057D01*
X142748542Y-107926914D01*
X142677114Y-107998342D01*
X142534257Y-108069771D01*
X142319971Y-108069771D01*
X143462828Y-108069771D02*
X143462828Y-107069771D01*
X143462828Y-107355485D02*
X143534257Y-107212628D01*
X143605685Y-107141200D01*
X143748542Y-107069771D01*
X143891400Y-107069771D01*
X144319971Y-107998342D02*
X144462828Y-108069771D01*
X144748542Y-108069771D01*
X144891400Y-107998342D01*
X144962828Y-107855485D01*
X144962828Y-107784057D01*
X144891400Y-107641200D01*
X144748542Y-107569771D01*
X144534257Y-107569771D01*
X144391400Y-107498342D01*
X144319971Y-107355485D01*
X144319971Y-107284057D01*
X144391400Y-107141200D01*
X144534257Y-107069771D01*
X144748542Y-107069771D01*
X144891400Y-107141200D01*
X123921571Y-105478971D02*
X123921571Y-103978971D01*
X124278714Y-103978971D01*
X124493000Y-104050400D01*
X124635857Y-104193257D01*
X124707285Y-104336114D01*
X124778714Y-104621828D01*
X124778714Y-104836114D01*
X124707285Y-105121828D01*
X124635857Y-105264685D01*
X124493000Y-105407542D01*
X124278714Y-105478971D01*
X123921571Y-105478971D01*
X125421571Y-105478971D02*
X125421571Y-104478971D01*
X125421571Y-103978971D02*
X125350142Y-104050400D01*
X125421571Y-104121828D01*
X125493000Y-104050400D01*
X125421571Y-103978971D01*
X125421571Y-104121828D01*
X126135857Y-105478971D02*
X126135857Y-104478971D01*
X126135857Y-104764685D02*
X126207285Y-104621828D01*
X126278714Y-104550400D01*
X126421571Y-104478971D01*
X126564428Y-104478971D01*
X127635857Y-105407542D02*
X127493000Y-105478971D01*
X127207285Y-105478971D01*
X127064428Y-105407542D01*
X126993000Y-105264685D01*
X126993000Y-104693257D01*
X127064428Y-104550400D01*
X127207285Y-104478971D01*
X127493000Y-104478971D01*
X127635857Y-104550400D01*
X127707285Y-104693257D01*
X127707285Y-104836114D01*
X126993000Y-104978971D01*
X128993000Y-105407542D02*
X128850142Y-105478971D01*
X128564428Y-105478971D01*
X128421571Y-105407542D01*
X128350142Y-105336114D01*
X128278714Y-105193257D01*
X128278714Y-104764685D01*
X128350142Y-104621828D01*
X128421571Y-104550400D01*
X128564428Y-104478971D01*
X128850142Y-104478971D01*
X128993000Y-104550400D01*
X129421571Y-104478971D02*
X129993000Y-104478971D01*
X129635857Y-103978971D02*
X129635857Y-105264685D01*
X129707285Y-105407542D01*
X129850142Y-105478971D01*
X129993000Y-105478971D01*
X130493000Y-105478971D02*
X130493000Y-104478971D01*
X130493000Y-103978971D02*
X130421571Y-104050400D01*
X130493000Y-104121828D01*
X130564428Y-104050400D01*
X130493000Y-103978971D01*
X130493000Y-104121828D01*
X131421571Y-105478971D02*
X131278714Y-105407542D01*
X131207285Y-105336114D01*
X131135857Y-105193257D01*
X131135857Y-104764685D01*
X131207285Y-104621828D01*
X131278714Y-104550400D01*
X131421571Y-104478971D01*
X131635857Y-104478971D01*
X131778714Y-104550400D01*
X131850142Y-104621828D01*
X131921571Y-104764685D01*
X131921571Y-105193257D01*
X131850142Y-105336114D01*
X131778714Y-105407542D01*
X131635857Y-105478971D01*
X131421571Y-105478971D01*
X132564428Y-104478971D02*
X132564428Y-105478971D01*
X132564428Y-104621828D02*
X132635857Y-104550400D01*
X132778714Y-104478971D01*
X132993000Y-104478971D01*
X133135857Y-104550400D01*
X133207285Y-104693257D01*
X133207285Y-105478971D01*
X134564428Y-105478971D02*
X134564428Y-104693257D01*
X134493000Y-104550400D01*
X134350142Y-104478971D01*
X134064428Y-104478971D01*
X133921571Y-104550400D01*
X134564428Y-105407542D02*
X134421571Y-105478971D01*
X134064428Y-105478971D01*
X133921571Y-105407542D01*
X133850142Y-105264685D01*
X133850142Y-105121828D01*
X133921571Y-104978971D01*
X134064428Y-104907542D01*
X134421571Y-104907542D01*
X134564428Y-104836114D01*
X135493000Y-105478971D02*
X135350142Y-105407542D01*
X135278714Y-105264685D01*
X135278714Y-103978971D01*
X138064428Y-105336114D02*
X137993000Y-105407542D01*
X137778714Y-105478971D01*
X137635857Y-105478971D01*
X137421571Y-105407542D01*
X137278714Y-105264685D01*
X137207285Y-105121828D01*
X137135857Y-104836114D01*
X137135857Y-104621828D01*
X137207285Y-104336114D01*
X137278714Y-104193257D01*
X137421571Y-104050400D01*
X137635857Y-103978971D01*
X137778714Y-103978971D01*
X137993000Y-104050400D01*
X138064428Y-104121828D01*
X138921571Y-105478971D02*
X138778714Y-105407542D01*
X138707285Y-105336114D01*
X138635857Y-105193257D01*
X138635857Y-104764685D01*
X138707285Y-104621828D01*
X138778714Y-104550400D01*
X138921571Y-104478971D01*
X139135857Y-104478971D01*
X139278714Y-104550400D01*
X139350142Y-104621828D01*
X139421571Y-104764685D01*
X139421571Y-105193257D01*
X139350142Y-105336114D01*
X139278714Y-105407542D01*
X139135857Y-105478971D01*
X138921571Y-105478971D01*
X140707285Y-104478971D02*
X140707285Y-105478971D01*
X140064428Y-104478971D02*
X140064428Y-105264685D01*
X140135857Y-105407542D01*
X140278714Y-105478971D01*
X140493000Y-105478971D01*
X140635857Y-105407542D01*
X140707285Y-105336114D01*
X141421571Y-104478971D02*
X141421571Y-105978971D01*
X141421571Y-104550400D02*
X141564428Y-104478971D01*
X141850142Y-104478971D01*
X141993000Y-104550400D01*
X142064428Y-104621828D01*
X142135857Y-104764685D01*
X142135857Y-105193257D01*
X142064428Y-105336114D01*
X141993000Y-105407542D01*
X141850142Y-105478971D01*
X141564428Y-105478971D01*
X141421571Y-105407542D01*
X142993000Y-105478971D02*
X142850142Y-105407542D01*
X142778714Y-105264685D01*
X142778714Y-103978971D01*
X144135857Y-105407542D02*
X143993000Y-105478971D01*
X143707285Y-105478971D01*
X143564428Y-105407542D01*
X143493000Y-105264685D01*
X143493000Y-104693257D01*
X143564428Y-104550400D01*
X143707285Y-104478971D01*
X143993000Y-104478971D01*
X144135857Y-104550400D01*
X144207285Y-104693257D01*
X144207285Y-104836114D01*
X143493000Y-104978971D01*
X144850142Y-105478971D02*
X144850142Y-104478971D01*
X144850142Y-104764685D02*
X144921571Y-104621828D01*
X144993000Y-104550400D01*
X145135857Y-104478971D01*
X145278714Y-104478971D01*
D11*
%TO.C,C6*%
X175829933Y-106630742D02*
X175782314Y-106678361D01*
X175639457Y-106725980D01*
X175544219Y-106725980D01*
X175401361Y-106678361D01*
X175306123Y-106583123D01*
X175258504Y-106487885D01*
X175210885Y-106297409D01*
X175210885Y-106154552D01*
X175258504Y-105964076D01*
X175306123Y-105868838D01*
X175401361Y-105773600D01*
X175544219Y-105725980D01*
X175639457Y-105725980D01*
X175782314Y-105773600D01*
X175829933Y-105821219D01*
X176687076Y-105725980D02*
X176496600Y-105725980D01*
X176401361Y-105773600D01*
X176353742Y-105821219D01*
X176258504Y-105964076D01*
X176210885Y-106154552D01*
X176210885Y-106535504D01*
X176258504Y-106630742D01*
X176306123Y-106678361D01*
X176401361Y-106725980D01*
X176591838Y-106725980D01*
X176687076Y-106678361D01*
X176734695Y-106630742D01*
X176782314Y-106535504D01*
X176782314Y-106297409D01*
X176734695Y-106202171D01*
X176687076Y-106154552D01*
X176591838Y-106106933D01*
X176401361Y-106106933D01*
X176306123Y-106154552D01*
X176258504Y-106202171D01*
X176210885Y-106297409D01*
%TO.C,R7*%
X111186933Y-133141980D02*
X110853600Y-132665790D01*
X110615504Y-133141980D02*
X110615504Y-132141980D01*
X110996457Y-132141980D01*
X111091695Y-132189600D01*
X111139314Y-132237219D01*
X111186933Y-132332457D01*
X111186933Y-132475314D01*
X111139314Y-132570552D01*
X111091695Y-132618171D01*
X110996457Y-132665790D01*
X110615504Y-132665790D01*
X111520266Y-132141980D02*
X112186933Y-132141980D01*
X111758361Y-133141980D01*
%TO.C,R12*%
X179189142Y-103449380D02*
X178855809Y-102973190D01*
X178617714Y-103449380D02*
X178617714Y-102449380D01*
X178998666Y-102449380D01*
X179093904Y-102497000D01*
X179141523Y-102544619D01*
X179189142Y-102639857D01*
X179189142Y-102782714D01*
X179141523Y-102877952D01*
X179093904Y-102925571D01*
X178998666Y-102973190D01*
X178617714Y-102973190D01*
X180141523Y-103449380D02*
X179570095Y-103449380D01*
X179855809Y-103449380D02*
X179855809Y-102449380D01*
X179760571Y-102592238D01*
X179665333Y-102687476D01*
X179570095Y-102735095D01*
X180522476Y-102544619D02*
X180570095Y-102497000D01*
X180665333Y-102449380D01*
X180903428Y-102449380D01*
X180998666Y-102497000D01*
X181046285Y-102544619D01*
X181093904Y-102639857D01*
X181093904Y-102735095D01*
X181046285Y-102877952D01*
X180474857Y-103449380D01*
X181093904Y-103449380D01*
%TO.C,R8*%
X189749133Y-102077780D02*
X189415800Y-101601590D01*
X189177704Y-102077780D02*
X189177704Y-101077780D01*
X189558657Y-101077780D01*
X189653895Y-101125400D01*
X189701514Y-101173019D01*
X189749133Y-101268257D01*
X189749133Y-101411114D01*
X189701514Y-101506352D01*
X189653895Y-101553971D01*
X189558657Y-101601590D01*
X189177704Y-101601590D01*
X190320561Y-101506352D02*
X190225323Y-101458733D01*
X190177704Y-101411114D01*
X190130085Y-101315876D01*
X190130085Y-101268257D01*
X190177704Y-101173019D01*
X190225323Y-101125400D01*
X190320561Y-101077780D01*
X190511038Y-101077780D01*
X190606276Y-101125400D01*
X190653895Y-101173019D01*
X190701514Y-101268257D01*
X190701514Y-101315876D01*
X190653895Y-101411114D01*
X190606276Y-101458733D01*
X190511038Y-101506352D01*
X190320561Y-101506352D01*
X190225323Y-101553971D01*
X190177704Y-101601590D01*
X190130085Y-101696828D01*
X190130085Y-101887304D01*
X190177704Y-101982542D01*
X190225323Y-102030161D01*
X190320561Y-102077780D01*
X190511038Y-102077780D01*
X190606276Y-102030161D01*
X190653895Y-101982542D01*
X190701514Y-101887304D01*
X190701514Y-101696828D01*
X190653895Y-101601590D01*
X190606276Y-101553971D01*
X190511038Y-101506352D01*
%TO.C,R5*%
X111059933Y-137663180D02*
X110726600Y-137186990D01*
X110488504Y-137663180D02*
X110488504Y-136663180D01*
X110869457Y-136663180D01*
X110964695Y-136710800D01*
X111012314Y-136758419D01*
X111059933Y-136853657D01*
X111059933Y-136996514D01*
X111012314Y-137091752D01*
X110964695Y-137139371D01*
X110869457Y-137186990D01*
X110488504Y-137186990D01*
X111964695Y-136663180D02*
X111488504Y-136663180D01*
X111440885Y-137139371D01*
X111488504Y-137091752D01*
X111583742Y-137044133D01*
X111821838Y-137044133D01*
X111917076Y-137091752D01*
X111964695Y-137139371D01*
X112012314Y-137234609D01*
X112012314Y-137472704D01*
X111964695Y-137567942D01*
X111917076Y-137615561D01*
X111821838Y-137663180D01*
X111583742Y-137663180D01*
X111488504Y-137615561D01*
X111440885Y-137567942D01*
%TO.C,J3*%
X134972466Y-135875780D02*
X134972466Y-136590066D01*
X134924847Y-136732923D01*
X134829609Y-136828161D01*
X134686752Y-136875780D01*
X134591514Y-136875780D01*
X135353419Y-135875780D02*
X135972466Y-135875780D01*
X135639133Y-136256733D01*
X135781990Y-136256733D01*
X135877228Y-136304352D01*
X135924847Y-136351971D01*
X135972466Y-136447209D01*
X135972466Y-136685304D01*
X135924847Y-136780542D01*
X135877228Y-136828161D01*
X135781990Y-136875780D01*
X135496276Y-136875780D01*
X135401038Y-136828161D01*
X135353419Y-136780542D01*
%TO.C,U2*%
X181635495Y-102728780D02*
X181635495Y-103538304D01*
X181683114Y-103633542D01*
X181730733Y-103681161D01*
X181825971Y-103728780D01*
X182016447Y-103728780D01*
X182111685Y-103681161D01*
X182159304Y-103633542D01*
X182206923Y-103538304D01*
X182206923Y-102728780D01*
X182635495Y-102824019D02*
X182683114Y-102776400D01*
X182778352Y-102728780D01*
X183016447Y-102728780D01*
X183111685Y-102776400D01*
X183159304Y-102824019D01*
X183206923Y-102919257D01*
X183206923Y-103014495D01*
X183159304Y-103157352D01*
X182587876Y-103728780D01*
X183206923Y-103728780D01*
%TO.C,R10*%
X186301142Y-106649780D02*
X185967809Y-106173590D01*
X185729714Y-106649780D02*
X185729714Y-105649780D01*
X186110666Y-105649780D01*
X186205904Y-105697400D01*
X186253523Y-105745019D01*
X186301142Y-105840257D01*
X186301142Y-105983114D01*
X186253523Y-106078352D01*
X186205904Y-106125971D01*
X186110666Y-106173590D01*
X185729714Y-106173590D01*
X187253523Y-106649780D02*
X186682095Y-106649780D01*
X186967809Y-106649780D02*
X186967809Y-105649780D01*
X186872571Y-105792638D01*
X186777333Y-105887876D01*
X186682095Y-105935495D01*
X187872571Y-105649780D02*
X187967809Y-105649780D01*
X188063047Y-105697400D01*
X188110666Y-105745019D01*
X188158285Y-105840257D01*
X188205904Y-106030733D01*
X188205904Y-106268828D01*
X188158285Y-106459304D01*
X188110666Y-106554542D01*
X188063047Y-106602161D01*
X187967809Y-106649780D01*
X187872571Y-106649780D01*
X187777333Y-106602161D01*
X187729714Y-106554542D01*
X187682095Y-106459304D01*
X187634476Y-106268828D01*
X187634476Y-106030733D01*
X187682095Y-105840257D01*
X187729714Y-105745019D01*
X187777333Y-105697400D01*
X187872571Y-105649780D01*
%TO.C,C3*%
X118273533Y-131700542D02*
X118225914Y-131748161D01*
X118083057Y-131795780D01*
X117987819Y-131795780D01*
X117844961Y-131748161D01*
X117749723Y-131652923D01*
X117702104Y-131557685D01*
X117654485Y-131367209D01*
X117654485Y-131224352D01*
X117702104Y-131033876D01*
X117749723Y-130938638D01*
X117844961Y-130843400D01*
X117987819Y-130795780D01*
X118083057Y-130795780D01*
X118225914Y-130843400D01*
X118273533Y-130891019D01*
X118606866Y-130795780D02*
X119225914Y-130795780D01*
X118892580Y-131176733D01*
X119035438Y-131176733D01*
X119130676Y-131224352D01*
X119178295Y-131271971D01*
X119225914Y-131367209D01*
X119225914Y-131605304D01*
X119178295Y-131700542D01*
X119130676Y-131748161D01*
X119035438Y-131795780D01*
X118749723Y-131795780D01*
X118654485Y-131748161D01*
X118606866Y-131700542D01*
%TO.C,C8*%
X129119333Y-131057942D02*
X129071714Y-131105561D01*
X128928857Y-131153180D01*
X128833619Y-131153180D01*
X128690761Y-131105561D01*
X128595523Y-131010323D01*
X128547904Y-130915085D01*
X128500285Y-130724609D01*
X128500285Y-130581752D01*
X128547904Y-130391276D01*
X128595523Y-130296038D01*
X128690761Y-130200800D01*
X128833619Y-130153180D01*
X128928857Y-130153180D01*
X129071714Y-130200800D01*
X129119333Y-130248419D01*
X129690761Y-130581752D02*
X129595523Y-130534133D01*
X129547904Y-130486514D01*
X129500285Y-130391276D01*
X129500285Y-130343657D01*
X129547904Y-130248419D01*
X129595523Y-130200800D01*
X129690761Y-130153180D01*
X129881238Y-130153180D01*
X129976476Y-130200800D01*
X130024095Y-130248419D01*
X130071714Y-130343657D01*
X130071714Y-130391276D01*
X130024095Y-130486514D01*
X129976476Y-130534133D01*
X129881238Y-130581752D01*
X129690761Y-130581752D01*
X129595523Y-130629371D01*
X129547904Y-130676990D01*
X129500285Y-130772228D01*
X129500285Y-130962704D01*
X129547904Y-131057942D01*
X129595523Y-131105561D01*
X129690761Y-131153180D01*
X129881238Y-131153180D01*
X129976476Y-131105561D01*
X130024095Y-131057942D01*
X130071714Y-130962704D01*
X130071714Y-130772228D01*
X130024095Y-130676990D01*
X129976476Y-130629371D01*
X129881238Y-130581752D01*
%TO.C,J4*%
X166138266Y-102246180D02*
X166138266Y-102960466D01*
X166090647Y-103103323D01*
X165995409Y-103198561D01*
X165852552Y-103246180D01*
X165757314Y-103246180D01*
X167043028Y-102579514D02*
X167043028Y-103246180D01*
X166804933Y-102198561D02*
X166566838Y-102912847D01*
X167185885Y-102912847D01*
%TO.C,R1*%
X186726533Y-133954780D02*
X186393200Y-133478590D01*
X186155104Y-133954780D02*
X186155104Y-132954780D01*
X186536057Y-132954780D01*
X186631295Y-133002400D01*
X186678914Y-133050019D01*
X186726533Y-133145257D01*
X186726533Y-133288114D01*
X186678914Y-133383352D01*
X186631295Y-133430971D01*
X186536057Y-133478590D01*
X186155104Y-133478590D01*
X187678914Y-133954780D02*
X187107485Y-133954780D01*
X187393200Y-133954780D02*
X187393200Y-132954780D01*
X187297961Y-133097638D01*
X187202723Y-133192876D01*
X187107485Y-133240495D01*
%TO.C,J1*%
X105152380Y-120333333D02*
X105866666Y-120333333D01*
X106009523Y-120380952D01*
X106104761Y-120476190D01*
X106152380Y-120619047D01*
X106152380Y-120714285D01*
X106152380Y-119333333D02*
X106152380Y-119904761D01*
X106152380Y-119619047D02*
X105152380Y-119619047D01*
X105295238Y-119714285D01*
X105390476Y-119809523D01*
X105438095Y-119904761D01*
%TO.C,R6*%
X189825333Y-106649780D02*
X189492000Y-106173590D01*
X189253904Y-106649780D02*
X189253904Y-105649780D01*
X189634857Y-105649780D01*
X189730095Y-105697400D01*
X189777714Y-105745019D01*
X189825333Y-105840257D01*
X189825333Y-105983114D01*
X189777714Y-106078352D01*
X189730095Y-106125971D01*
X189634857Y-106173590D01*
X189253904Y-106173590D01*
X190682476Y-105649780D02*
X190492000Y-105649780D01*
X190396761Y-105697400D01*
X190349142Y-105745019D01*
X190253904Y-105887876D01*
X190206285Y-106078352D01*
X190206285Y-106459304D01*
X190253904Y-106554542D01*
X190301523Y-106602161D01*
X190396761Y-106649780D01*
X190587238Y-106649780D01*
X190682476Y-106602161D01*
X190730095Y-106554542D01*
X190777714Y-106459304D01*
X190777714Y-106221209D01*
X190730095Y-106125971D01*
X190682476Y-106078352D01*
X190587238Y-106030733D01*
X190396761Y-106030733D01*
X190301523Y-106078352D01*
X190253904Y-106125971D01*
X190206285Y-106221209D01*
%TO.C,J2*%
X193752380Y-120333333D02*
X194466666Y-120333333D01*
X194609523Y-120380952D01*
X194704761Y-120476190D01*
X194752380Y-120619047D01*
X194752380Y-120714285D01*
X193847619Y-119904761D02*
X193800000Y-119857142D01*
X193752380Y-119761904D01*
X193752380Y-119523809D01*
X193800000Y-119428571D01*
X193847619Y-119380952D01*
X193942857Y-119333333D01*
X194038095Y-119333333D01*
X194180952Y-119380952D01*
X194752380Y-119952380D01*
X194752380Y-119333333D01*
%TO.C,R4*%
X113853933Y-106319580D02*
X113520600Y-105843390D01*
X113282504Y-106319580D02*
X113282504Y-105319580D01*
X113663457Y-105319580D01*
X113758695Y-105367200D01*
X113806314Y-105414819D01*
X113853933Y-105510057D01*
X113853933Y-105652914D01*
X113806314Y-105748152D01*
X113758695Y-105795771D01*
X113663457Y-105843390D01*
X113282504Y-105843390D01*
X114711076Y-105652914D02*
X114711076Y-106319580D01*
X114472980Y-105271961D02*
X114234885Y-105986247D01*
X114853933Y-105986247D01*
%TO.C,U1*%
X117602095Y-136561580D02*
X117602095Y-137371104D01*
X117649714Y-137466342D01*
X117697333Y-137513961D01*
X117792571Y-137561580D01*
X117983047Y-137561580D01*
X118078285Y-137513961D01*
X118125904Y-137466342D01*
X118173523Y-137371104D01*
X118173523Y-136561580D01*
X119173523Y-137561580D02*
X118602095Y-137561580D01*
X118887809Y-137561580D02*
X118887809Y-136561580D01*
X118792571Y-136704438D01*
X118697333Y-136799676D01*
X118602095Y-136847295D01*
%TO.C,R9*%
X113193533Y-133116580D02*
X112860200Y-132640390D01*
X112622104Y-133116580D02*
X112622104Y-132116580D01*
X113003057Y-132116580D01*
X113098295Y-132164200D01*
X113145914Y-132211819D01*
X113193533Y-132307057D01*
X113193533Y-132449914D01*
X113145914Y-132545152D01*
X113098295Y-132592771D01*
X113003057Y-132640390D01*
X112622104Y-132640390D01*
X113669723Y-133116580D02*
X113860200Y-133116580D01*
X113955438Y-133068961D01*
X114003057Y-133021342D01*
X114098295Y-132878485D01*
X114145914Y-132688009D01*
X114145914Y-132307057D01*
X114098295Y-132211819D01*
X114050676Y-132164200D01*
X113955438Y-132116580D01*
X113764961Y-132116580D01*
X113669723Y-132164200D01*
X113622104Y-132211819D01*
X113574485Y-132307057D01*
X113574485Y-132545152D01*
X113622104Y-132640390D01*
X113669723Y-132688009D01*
X113764961Y-132735628D01*
X113955438Y-132735628D01*
X114050676Y-132688009D01*
X114098295Y-132640390D01*
X114145914Y-132545152D01*
%TO.C,C4*%
X182179933Y-109246942D02*
X182132314Y-109294561D01*
X181989457Y-109342180D01*
X181894219Y-109342180D01*
X181751361Y-109294561D01*
X181656123Y-109199323D01*
X181608504Y-109104085D01*
X181560885Y-108913609D01*
X181560885Y-108770752D01*
X181608504Y-108580276D01*
X181656123Y-108485038D01*
X181751361Y-108389800D01*
X181894219Y-108342180D01*
X181989457Y-108342180D01*
X182132314Y-108389800D01*
X182179933Y-108437419D01*
X183037076Y-108675514D02*
X183037076Y-109342180D01*
X182798980Y-108294561D02*
X182560885Y-109008847D01*
X183179933Y-109008847D01*
%TO.C,R2*%
X186675733Y-136139180D02*
X186342400Y-135662990D01*
X186104304Y-136139180D02*
X186104304Y-135139180D01*
X186485257Y-135139180D01*
X186580495Y-135186800D01*
X186628114Y-135234419D01*
X186675733Y-135329657D01*
X186675733Y-135472514D01*
X186628114Y-135567752D01*
X186580495Y-135615371D01*
X186485257Y-135662990D01*
X186104304Y-135662990D01*
X187056685Y-135234419D02*
X187104304Y-135186800D01*
X187199542Y-135139180D01*
X187437638Y-135139180D01*
X187532876Y-135186800D01*
X187580495Y-135234419D01*
X187628114Y-135329657D01*
X187628114Y-135424895D01*
X187580495Y-135567752D01*
X187009066Y-136139180D01*
X187628114Y-136139180D01*
%TO.C,C7*%
X172858133Y-108688142D02*
X172810514Y-108735761D01*
X172667657Y-108783380D01*
X172572419Y-108783380D01*
X172429561Y-108735761D01*
X172334323Y-108640523D01*
X172286704Y-108545285D01*
X172239085Y-108354809D01*
X172239085Y-108211952D01*
X172286704Y-108021476D01*
X172334323Y-107926238D01*
X172429561Y-107831000D01*
X172572419Y-107783380D01*
X172667657Y-107783380D01*
X172810514Y-107831000D01*
X172858133Y-107878619D01*
X173191466Y-107783380D02*
X173858133Y-107783380D01*
X173429561Y-108783380D01*
%TO.C,C1*%
X115200133Y-133021342D02*
X115152514Y-133068961D01*
X115009657Y-133116580D01*
X114914419Y-133116580D01*
X114771561Y-133068961D01*
X114676323Y-132973723D01*
X114628704Y-132878485D01*
X114581085Y-132688009D01*
X114581085Y-132545152D01*
X114628704Y-132354676D01*
X114676323Y-132259438D01*
X114771561Y-132164200D01*
X114914419Y-132116580D01*
X115009657Y-132116580D01*
X115152514Y-132164200D01*
X115200133Y-132211819D01*
X116152514Y-133116580D02*
X115581085Y-133116580D01*
X115866800Y-133116580D02*
X115866800Y-132116580D01*
X115771561Y-132259438D01*
X115676323Y-132354676D01*
X115581085Y-132402295D01*
%TO.C,R11*%
X120413542Y-133116580D02*
X120080209Y-132640390D01*
X119842114Y-133116580D02*
X119842114Y-132116580D01*
X120223066Y-132116580D01*
X120318304Y-132164200D01*
X120365923Y-132211819D01*
X120413542Y-132307057D01*
X120413542Y-132449914D01*
X120365923Y-132545152D01*
X120318304Y-132592771D01*
X120223066Y-132640390D01*
X119842114Y-132640390D01*
X121365923Y-133116580D02*
X120794495Y-133116580D01*
X121080209Y-133116580D02*
X121080209Y-132116580D01*
X120984971Y-132259438D01*
X120889733Y-132354676D01*
X120794495Y-132402295D01*
X122318304Y-133116580D02*
X121746876Y-133116580D01*
X122032590Y-133116580D02*
X122032590Y-132116580D01*
X121937352Y-132259438D01*
X121842114Y-132354676D01*
X121746876Y-132402295D01*
%TO.C,C2*%
X184872333Y-101703142D02*
X184824714Y-101750761D01*
X184681857Y-101798380D01*
X184586619Y-101798380D01*
X184443761Y-101750761D01*
X184348523Y-101655523D01*
X184300904Y-101560285D01*
X184253285Y-101369809D01*
X184253285Y-101226952D01*
X184300904Y-101036476D01*
X184348523Y-100941238D01*
X184443761Y-100846000D01*
X184586619Y-100798380D01*
X184681857Y-100798380D01*
X184824714Y-100846000D01*
X184872333Y-100893619D01*
X185253285Y-100893619D02*
X185300904Y-100846000D01*
X185396142Y-100798380D01*
X185634238Y-100798380D01*
X185729476Y-100846000D01*
X185777095Y-100893619D01*
X185824714Y-100988857D01*
X185824714Y-101084095D01*
X185777095Y-101226952D01*
X185205666Y-101798380D01*
X185824714Y-101798380D01*
%TO.C,C5*%
X122515333Y-137466342D02*
X122467714Y-137513961D01*
X122324857Y-137561580D01*
X122229619Y-137561580D01*
X122086761Y-137513961D01*
X121991523Y-137418723D01*
X121943904Y-137323485D01*
X121896285Y-137133009D01*
X121896285Y-136990152D01*
X121943904Y-136799676D01*
X121991523Y-136704438D01*
X122086761Y-136609200D01*
X122229619Y-136561580D01*
X122324857Y-136561580D01*
X122467714Y-136609200D01*
X122515333Y-136656819D01*
X123420095Y-136561580D02*
X122943904Y-136561580D01*
X122896285Y-137037771D01*
X122943904Y-136990152D01*
X123039142Y-136942533D01*
X123277238Y-136942533D01*
X123372476Y-136990152D01*
X123420095Y-137037771D01*
X123467714Y-137133009D01*
X123467714Y-137371104D01*
X123420095Y-137466342D01*
X123372476Y-137513961D01*
X123277238Y-137561580D01*
X123039142Y-137561580D01*
X122943904Y-137513961D01*
X122896285Y-137466342D01*
%TO.C,R3*%
X113853933Y-104236780D02*
X113520600Y-103760590D01*
X113282504Y-104236780D02*
X113282504Y-103236780D01*
X113663457Y-103236780D01*
X113758695Y-103284400D01*
X113806314Y-103332019D01*
X113853933Y-103427257D01*
X113853933Y-103570114D01*
X113806314Y-103665352D01*
X113758695Y-103712971D01*
X113663457Y-103760590D01*
X113282504Y-103760590D01*
X114187266Y-103236780D02*
X114806314Y-103236780D01*
X114472980Y-103617733D01*
X114615838Y-103617733D01*
X114711076Y-103665352D01*
X114758695Y-103712971D01*
X114806314Y-103808209D01*
X114806314Y-104046304D01*
X114758695Y-104141542D01*
X114711076Y-104189161D01*
X114615838Y-104236780D01*
X114330123Y-104236780D01*
X114234885Y-104189161D01*
X114187266Y-104141542D01*
D12*
%TO.C,C6*%
X178259200Y-105218620D02*
X178259200Y-105499780D01*
X177239200Y-105218620D02*
X177239200Y-105499780D01*
%TO.C,R7*%
X111032058Y-133538700D02*
X110557542Y-133538700D01*
X111032058Y-134583700D02*
X110557542Y-134583700D01*
%TO.C,R12*%
X179258700Y-105121942D02*
X179258700Y-105596458D01*
X180303700Y-105121942D02*
X180303700Y-105596458D01*
%TO.C,R8*%
X190008742Y-102499900D02*
X190483258Y-102499900D01*
X190008742Y-103544900D02*
X190483258Y-103544900D01*
%TO.C,R5*%
X110544342Y-135189700D02*
X111018858Y-135189700D01*
X110544342Y-136234700D02*
X111018858Y-136234700D01*
%TO.C,J3*%
X128335200Y-134952800D02*
X128335200Y-135452800D01*
X125175200Y-134342800D02*
X125175200Y-139062800D01*
X128135200Y-135452800D02*
X128135200Y-134952800D01*
X130335200Y-134952800D02*
X130335200Y-135452800D01*
X125175200Y-139062800D02*
X133295200Y-139062800D01*
X130735200Y-138452800D02*
X132685200Y-138452800D01*
X130335200Y-135452800D02*
X130135200Y-135452800D01*
X132685200Y-134952800D02*
X125785200Y-134952800D01*
X131535200Y-139162800D02*
X131835200Y-139162800D01*
X125175200Y-136452800D02*
X125785200Y-136452800D01*
X125785200Y-138452800D02*
X127735200Y-138452800D01*
X130735200Y-139062800D02*
X130735200Y-138452800D01*
X132345200Y-139362800D02*
X133595200Y-139362800D01*
X128335200Y-135452800D02*
X128135200Y-135452800D01*
X133295200Y-139062800D02*
X133295200Y-134342800D01*
X133295200Y-137752800D02*
X132685200Y-137752800D01*
X133295200Y-134342800D02*
X125175200Y-134342800D01*
X127735200Y-138452800D02*
X127735200Y-139062800D01*
X128235200Y-134952800D02*
X128235200Y-135452800D01*
X131535200Y-139062800D02*
X131535200Y-139262800D01*
X131535200Y-139262800D02*
X131835200Y-139262800D01*
X132685200Y-138452800D02*
X132685200Y-134952800D01*
X130135200Y-135452800D02*
X130135200Y-134952800D01*
X131835200Y-139262800D02*
X131835200Y-139062800D01*
X133595200Y-139362800D02*
X133595200Y-138112800D01*
X125785200Y-134952800D02*
X125785200Y-138452800D01*
X130235200Y-134952800D02*
X130235200Y-135452800D01*
X133295200Y-136452800D02*
X132685200Y-136452800D01*
X125175200Y-137752800D02*
X125785200Y-137752800D01*
%TO.C,U2*%
X183071200Y-104280600D02*
X181571200Y-104280600D01*
X182321200Y-105980600D02*
X181571200Y-105980600D01*
%TO.C,R10*%
X187390300Y-103521742D02*
X187390300Y-103996258D01*
X186345300Y-103521742D02*
X186345300Y-103996258D01*
%TO.C,C3*%
X118428380Y-133402800D02*
X118147220Y-133402800D01*
X118428380Y-132382800D02*
X118147220Y-132382800D01*
%TO.C,C8*%
X129145420Y-131620800D02*
X129426580Y-131620800D01*
X129145420Y-132640800D02*
X129426580Y-132640800D01*
%TO.C,J4*%
X173559600Y-101043800D02*
X173559600Y-100433800D01*
X167999600Y-100433800D02*
X167999600Y-105153800D01*
X170959600Y-104043800D02*
X171159600Y-104043800D01*
X173059600Y-104543800D02*
X173059600Y-104043800D01*
X172959600Y-104043800D02*
X173159600Y-104043800D01*
X170959600Y-104543800D02*
X170959600Y-104043800D01*
X175509600Y-104543800D02*
X175509600Y-101043800D01*
X167999600Y-103043800D02*
X168609600Y-103043800D01*
X167999600Y-105153800D02*
X176119600Y-105153800D01*
X169759600Y-100233800D02*
X169459600Y-100233800D01*
X176119600Y-101743800D02*
X175509600Y-101743800D01*
X171159600Y-104043800D02*
X171159600Y-104543800D01*
X168949600Y-100133800D02*
X167699600Y-100133800D01*
X172959600Y-104543800D02*
X172959600Y-104043800D01*
X170559600Y-101043800D02*
X168609600Y-101043800D01*
X167999600Y-101743800D02*
X168609600Y-101743800D01*
X176119600Y-100433800D02*
X167999600Y-100433800D01*
X176119600Y-103043800D02*
X175509600Y-103043800D01*
X169459600Y-100233800D02*
X169459600Y-100433800D01*
X176119600Y-105153800D02*
X176119600Y-100433800D01*
X168609600Y-104543800D02*
X175509600Y-104543800D01*
X168609600Y-101043800D02*
X168609600Y-104543800D01*
X169759600Y-100333800D02*
X169459600Y-100333800D01*
X173159600Y-104043800D02*
X173159600Y-104543800D01*
X167699600Y-100133800D02*
X167699600Y-101383800D01*
X170559600Y-100433800D02*
X170559600Y-101043800D01*
X171059600Y-104543800D02*
X171059600Y-104043800D01*
X169759600Y-100433800D02*
X169759600Y-100233800D01*
X175509600Y-101043800D02*
X173559600Y-101043800D01*
%TO.C,R1*%
X190356258Y-133999500D02*
X189881742Y-133999500D01*
X190356258Y-132954500D02*
X189881742Y-132954500D01*
%TO.C,J1*%
X103910000Y-118050000D02*
X103910000Y-119160000D01*
X100200000Y-120840000D02*
X100200000Y-121950000D01*
X100200000Y-118050000D02*
X100200000Y-119160000D01*
X104460000Y-120000000D02*
X104960000Y-120250000D01*
X103910000Y-120840000D02*
X103910000Y-121950000D01*
X104960000Y-120250000D02*
X104960000Y-119750000D01*
X104960000Y-119750000D02*
X104460000Y-120000000D01*
%TO.C,R6*%
X190483258Y-105246700D02*
X190008742Y-105246700D01*
X190483258Y-104201700D02*
X190008742Y-104201700D01*
%TO.C,J2*%
X199800000Y-121950000D02*
X199800000Y-120840000D01*
X195040000Y-119750000D02*
X195040000Y-120250000D01*
X196090000Y-121950000D02*
X196090000Y-120840000D01*
X195040000Y-120250000D02*
X195540000Y-120000000D01*
X199800000Y-119160000D02*
X199800000Y-118050000D01*
X195540000Y-120000000D02*
X195040000Y-119750000D01*
X196090000Y-119160000D02*
X196090000Y-118050000D01*
%TO.C,R4*%
X110455942Y-105370100D02*
X110930458Y-105370100D01*
X110455942Y-106415100D02*
X110930458Y-106415100D01*
%TO.C,U1*%
X118186200Y-134303400D02*
X118936200Y-134303400D01*
X117436200Y-136003400D02*
X118936200Y-136003400D01*
%TO.C,R9*%
X113984300Y-134611342D02*
X113984300Y-135085858D01*
X112939300Y-134611342D02*
X112939300Y-135085858D01*
%TO.C,C4*%
X182129820Y-106932000D02*
X182410980Y-106932000D01*
X182129820Y-107952000D02*
X182410980Y-107952000D01*
%TO.C,R2*%
X190381658Y-135088100D02*
X189907142Y-135088100D01*
X190381658Y-136133100D02*
X189907142Y-136133100D01*
%TO.C,C7*%
X172909620Y-106246200D02*
X173190780Y-106246200D01*
X172909620Y-107266200D02*
X173190780Y-107266200D01*
%TO.C,C1*%
X114780600Y-134771820D02*
X114780600Y-135052980D01*
X115800600Y-134771820D02*
X115800600Y-135052980D01*
%TO.C,R11*%
X121578900Y-135085858D02*
X121578900Y-134611342D01*
X120533900Y-135085858D02*
X120533900Y-134611342D01*
%TO.C,C2*%
X185549000Y-103618420D02*
X185549000Y-103899580D01*
X184529000Y-103618420D02*
X184529000Y-103899580D01*
%TO.C,C5*%
X122273600Y-135014580D02*
X122273600Y-134733420D01*
X123293600Y-135014580D02*
X123293600Y-134733420D01*
%TO.C,R3*%
X110405142Y-103236500D02*
X110879658Y-103236500D01*
X110405142Y-104281500D02*
X110879658Y-104281500D01*
%TD*%
M02*
