%TF.GenerationSoftware,KiCad,Pcbnew,(6.0.1)*%
%TF.CreationDate,2022-02-11T17:03:31+00:00*%
%TF.ProjectId,Coupler,436f7570-6c65-4722-9e6b-696361645f70,rev?*%
%TF.SameCoordinates,Original*%
%TF.FileFunction,Soldermask,Top*%
%TF.FilePolarity,Negative*%
%FSLAX46Y46*%
G04 Gerber Fmt 4.6, Leading zero omitted, Abs format (unit mm)*
G04 Created by KiCad (PCBNEW (6.0.1)) date 2022-02-11 17:03:31*
%MOMM*%
%LPD*%
G01*
G04 APERTURE LIST*
G04 Aperture macros list*
%AMRoundRect*
0 Rectangle with rounded corners*
0 $1 Rounding radius*
0 $2 $3 $4 $5 $6 $7 $8 $9 X,Y pos of 4 corners*
0 Add a 4 corners polygon primitive as box body*
4,1,4,$2,$3,$4,$5,$6,$7,$8,$9,$2,$3,0*
0 Add four circle primitives for the rounded corners*
1,1,$1+$1,$2,$3*
1,1,$1+$1,$4,$5*
1,1,$1+$1,$6,$7*
1,1,$1+$1,$8,$9*
0 Add four rect primitives between the rounded corners*
20,1,$1+$1,$2,$3,$4,$5,0*
20,1,$1+$1,$4,$5,$6,$7,0*
20,1,$1+$1,$6,$7,$8,$9,0*
20,1,$1+$1,$8,$9,$2,$3,0*%
G04 Aperture macros list end*
%ADD10RoundRect,0.225000X-0.250000X0.225000X-0.250000X-0.225000X0.250000X-0.225000X0.250000X0.225000X0*%
%ADD11RoundRect,0.200000X0.200000X0.275000X-0.200000X0.275000X-0.200000X-0.275000X0.200000X-0.275000X0*%
%ADD12RoundRect,0.200000X-0.275000X0.200000X-0.275000X-0.200000X0.275000X-0.200000X0.275000X0.200000X0*%
%ADD13RoundRect,0.200000X-0.200000X-0.275000X0.200000X-0.275000X0.200000X0.275000X-0.200000X0.275000X0*%
%ADD14RoundRect,0.250000X0.350000X0.625000X-0.350000X0.625000X-0.350000X-0.625000X0.350000X-0.625000X0*%
%ADD15O,1.200000X1.750000*%
%ADD16C,2.200000*%
%ADD17RoundRect,0.050000X0.150000X0.050000X-0.150000X0.050000X-0.150000X-0.050000X0.150000X-0.050000X0*%
%ADD18R,0.600000X1.100000*%
%ADD19RoundRect,0.225000X0.225000X0.250000X-0.225000X0.250000X-0.225000X-0.250000X0.225000X-0.250000X0*%
%ADD20RoundRect,0.225000X-0.225000X-0.250000X0.225000X-0.250000X0.225000X0.250000X-0.225000X0.250000X0*%
%ADD21RoundRect,0.250000X-0.350000X-0.625000X0.350000X-0.625000X0.350000X0.625000X-0.350000X0.625000X0*%
%ADD22R,3.600000X1.270000*%
%ADD23R,4.200000X1.350000*%
%ADD24RoundRect,0.050000X-0.150000X-0.050000X0.150000X-0.050000X0.150000X0.050000X-0.150000X0.050000X0*%
%ADD25RoundRect,0.200000X0.275000X-0.200000X0.275000X0.200000X-0.275000X0.200000X-0.275000X-0.200000X0*%
%ADD26RoundRect,0.225000X0.250000X-0.225000X0.250000X0.225000X-0.250000X0.225000X-0.250000X-0.225000X0*%
G04 APERTURE END LIST*
D10*
%TO.C,C6*%
X177749200Y-104584200D03*
X177749200Y-106134200D03*
%TD*%
D11*
%TO.C,R7*%
X111619800Y-134061200D03*
X109969800Y-134061200D03*
%TD*%
D12*
%TO.C,R12*%
X179781200Y-104534200D03*
X179781200Y-106184200D03*
%TD*%
D13*
%TO.C,R8*%
X189421000Y-103022400D03*
X191071000Y-103022400D03*
%TD*%
%TO.C,R5*%
X109956600Y-135712200D03*
X111606600Y-135712200D03*
%TD*%
D14*
%TO.C,J3*%
X131235200Y-137252800D03*
D15*
X129235200Y-137252800D03*
X127235200Y-137252800D03*
%TD*%
D16*
%TO.C,H2*%
X197000000Y-103000000D03*
%TD*%
D17*
%TO.C,U2*%
X183071200Y-105630600D03*
X183071200Y-105130600D03*
X183071200Y-104630600D03*
X181571200Y-104630600D03*
X181571200Y-105130600D03*
X181571200Y-105630600D03*
D18*
X182321200Y-105130600D03*
%TD*%
D12*
%TO.C,R10*%
X186867800Y-102934000D03*
X186867800Y-104584000D03*
%TD*%
D16*
%TO.C,H4*%
X197000000Y-137000000D03*
%TD*%
D19*
%TO.C,C3*%
X119062800Y-132892800D03*
X117512800Y-132892800D03*
%TD*%
D20*
%TO.C,C8*%
X128511000Y-132130800D03*
X130061000Y-132130800D03*
%TD*%
D21*
%TO.C,J4*%
X170059600Y-102243800D03*
D15*
X172059600Y-102243800D03*
X174059600Y-102243800D03*
%TD*%
D11*
%TO.C,R1*%
X190944000Y-133477000D03*
X189294000Y-133477000D03*
%TD*%
D22*
%TO.C,J1*%
X102000000Y-120000000D03*
D23*
X102200000Y-117175000D03*
X102200000Y-122825000D03*
%TD*%
D16*
%TO.C,H1*%
X103000000Y-103000000D03*
%TD*%
D11*
%TO.C,R6*%
X191071000Y-104724200D03*
X189421000Y-104724200D03*
%TD*%
D22*
%TO.C,J2*%
X198000000Y-120000000D03*
D23*
X197800000Y-117175000D03*
X197800000Y-122825000D03*
%TD*%
D13*
%TO.C,R4*%
X109868200Y-105892600D03*
X111518200Y-105892600D03*
%TD*%
D24*
%TO.C,U1*%
X117436200Y-134653400D03*
X117436200Y-135153400D03*
X117436200Y-135653400D03*
X118936200Y-135653400D03*
X118936200Y-135153400D03*
X118936200Y-134653400D03*
D18*
X118186200Y-135153400D03*
%TD*%
D16*
%TO.C,H3*%
X103000000Y-137000000D03*
%TD*%
D12*
%TO.C,R9*%
X113461800Y-134023600D03*
X113461800Y-135673600D03*
%TD*%
D20*
%TO.C,C4*%
X181495400Y-107442000D03*
X183045400Y-107442000D03*
%TD*%
D11*
%TO.C,R2*%
X190969400Y-135610600D03*
X189319400Y-135610600D03*
%TD*%
D20*
%TO.C,C7*%
X172275200Y-106756200D03*
X173825200Y-106756200D03*
%TD*%
D10*
%TO.C,C1*%
X115290600Y-134137400D03*
X115290600Y-135687400D03*
%TD*%
D25*
%TO.C,R11*%
X121056400Y-135673600D03*
X121056400Y-134023600D03*
%TD*%
D10*
%TO.C,C2*%
X185039000Y-102984000D03*
X185039000Y-104534000D03*
%TD*%
D26*
%TO.C,C5*%
X122783600Y-135649000D03*
X122783600Y-134099000D03*
%TD*%
D13*
%TO.C,R3*%
X109817400Y-103759000D03*
X111467400Y-103759000D03*
%TD*%
M02*
