%TF.GenerationSoftware,KiCad,Pcbnew,(6.0.1)*%
%TF.CreationDate,2022-02-11T17:03:31+00:00*%
%TF.ProjectId,Coupler,436f7570-6c65-4722-9e6b-696361645f70,rev?*%
%TF.SameCoordinates,Original*%
%TF.FileFunction,Copper,L1,Top*%
%TF.FilePolarity,Positive*%
%FSLAX46Y46*%
G04 Gerber Fmt 4.6, Leading zero omitted, Abs format (unit mm)*
G04 Created by KiCad (PCBNEW (6.0.1)) date 2022-02-11 17:03:31*
%MOMM*%
%LPD*%
G01*
G04 APERTURE LIST*
G04 Aperture macros list*
%AMRoundRect*
0 Rectangle with rounded corners*
0 $1 Rounding radius*
0 $2 $3 $4 $5 $6 $7 $8 $9 X,Y pos of 4 corners*
0 Add a 4 corners polygon primitive as box body*
4,1,4,$2,$3,$4,$5,$6,$7,$8,$9,$2,$3,0*
0 Add four circle primitives for the rounded corners*
1,1,$1+$1,$2,$3*
1,1,$1+$1,$4,$5*
1,1,$1+$1,$6,$7*
1,1,$1+$1,$8,$9*
0 Add four rect primitives between the rounded corners*
20,1,$1+$1,$2,$3,$4,$5,0*
20,1,$1+$1,$4,$5,$6,$7,0*
20,1,$1+$1,$6,$7,$8,$9,0*
20,1,$1+$1,$8,$9,$2,$3,0*%
G04 Aperture macros list end*
%TA.AperFunction,SMDPad,CuDef*%
%ADD10RoundRect,0.225000X-0.250000X0.225000X-0.250000X-0.225000X0.250000X-0.225000X0.250000X0.225000X0*%
%TD*%
%TA.AperFunction,SMDPad,CuDef*%
%ADD11RoundRect,0.200000X0.200000X0.275000X-0.200000X0.275000X-0.200000X-0.275000X0.200000X-0.275000X0*%
%TD*%
%TA.AperFunction,SMDPad,CuDef*%
%ADD12RoundRect,0.200000X-0.275000X0.200000X-0.275000X-0.200000X0.275000X-0.200000X0.275000X0.200000X0*%
%TD*%
%TA.AperFunction,SMDPad,CuDef*%
%ADD13RoundRect,0.200000X-0.200000X-0.275000X0.200000X-0.275000X0.200000X0.275000X-0.200000X0.275000X0*%
%TD*%
%TA.AperFunction,ComponentPad*%
%ADD14RoundRect,0.250000X0.350000X0.625000X-0.350000X0.625000X-0.350000X-0.625000X0.350000X-0.625000X0*%
%TD*%
%TA.AperFunction,ComponentPad*%
%ADD15O,1.200000X1.750000*%
%TD*%
%TA.AperFunction,SMDPad,CuDef*%
%ADD16RoundRect,0.050000X0.150000X0.050000X-0.150000X0.050000X-0.150000X-0.050000X0.150000X-0.050000X0*%
%TD*%
%TA.AperFunction,SMDPad,CuDef*%
%ADD17R,0.600000X1.100000*%
%TD*%
%TA.AperFunction,SMDPad,CuDef*%
%ADD18RoundRect,0.225000X0.225000X0.250000X-0.225000X0.250000X-0.225000X-0.250000X0.225000X-0.250000X0*%
%TD*%
%TA.AperFunction,SMDPad,CuDef*%
%ADD19RoundRect,0.225000X-0.225000X-0.250000X0.225000X-0.250000X0.225000X0.250000X-0.225000X0.250000X0*%
%TD*%
%TA.AperFunction,ComponentPad*%
%ADD20RoundRect,0.250000X-0.350000X-0.625000X0.350000X-0.625000X0.350000X0.625000X-0.350000X0.625000X0*%
%TD*%
%TA.AperFunction,SMDPad,CuDef*%
%ADD21R,3.600000X1.270000*%
%TD*%
%TA.AperFunction,SMDPad,CuDef*%
%ADD22R,4.200000X1.350000*%
%TD*%
%TA.AperFunction,SMDPad,CuDef*%
%ADD23RoundRect,0.050000X-0.150000X-0.050000X0.150000X-0.050000X0.150000X0.050000X-0.150000X0.050000X0*%
%TD*%
%TA.AperFunction,SMDPad,CuDef*%
%ADD24RoundRect,0.200000X0.275000X-0.200000X0.275000X0.200000X-0.275000X0.200000X-0.275000X-0.200000X0*%
%TD*%
%TA.AperFunction,SMDPad,CuDef*%
%ADD25RoundRect,0.225000X0.250000X-0.225000X0.250000X0.225000X-0.250000X0.225000X-0.250000X-0.225000X0*%
%TD*%
%TA.AperFunction,ViaPad*%
%ADD26C,0.800000*%
%TD*%
%TA.AperFunction,Conductor*%
%ADD27C,0.250000*%
%TD*%
%TA.AperFunction,Conductor*%
%ADD28C,3.000000*%
%TD*%
%TA.AperFunction,Conductor*%
%ADD29C,2.850000*%
%TD*%
G04 APERTURE END LIST*
D10*
%TO.P,C6,1*%
%TO.N,Net-(C6-Pad1)*%
X177749200Y-104584200D03*
%TO.P,C6,2*%
%TO.N,GND*%
X177749200Y-106134200D03*
%TD*%
D11*
%TO.P,R7,1*%
%TO.N,Net-(C1-Pad1)*%
X111619800Y-134061200D03*
%TO.P,R7,2*%
%TO.N,Net-(R1-Pad1)*%
X109969800Y-134061200D03*
%TD*%
D12*
%TO.P,R12,1*%
%TO.N,Net-(C6-Pad1)*%
X179781200Y-104534200D03*
%TO.P,R12,2*%
%TO.N,GND*%
X179781200Y-106184200D03*
%TD*%
D13*
%TO.P,R8,1*%
%TO.N,Net-(C2-Pad1)*%
X189421000Y-103022400D03*
%TO.P,R8,2*%
%TO.N,Net-(R3-Pad1)*%
X191071000Y-103022400D03*
%TD*%
%TO.P,R5,1*%
%TO.N,Net-(R1-Pad1)*%
X109956600Y-135712200D03*
%TO.P,R5,2*%
%TO.N,GND*%
X111606600Y-135712200D03*
%TD*%
D14*
%TO.P,J3,1,Pin_1*%
%TO.N,/Vcc2*%
X131235200Y-137252800D03*
D15*
%TO.P,J3,2,Pin_2*%
%TO.N,Net-(C5-Pad1)*%
X129235200Y-137252800D03*
%TO.P,J3,3,Pin_3*%
%TO.N,GND*%
X127235200Y-137252800D03*
%TD*%
D16*
%TO.P,U2,1,GND*%
%TO.N,GND*%
X183071200Y-105630600D03*
%TO.P,U2,2,GND*%
X183071200Y-105130600D03*
%TO.P,U2,3,RF_In*%
%TO.N,Net-(C2-Pad2)*%
X183071200Y-104630600D03*
%TO.P,U2,4,DC_OUT*%
%TO.N,Net-(C6-Pad1)*%
X181571200Y-104630600D03*
%TO.P,U2,5,GND*%
%TO.N,GND*%
X181571200Y-105130600D03*
%TO.P,U2,6,VCC*%
%TO.N,/Vcc1*%
X181571200Y-105630600D03*
D17*
%TO.P,U2,7,GND*%
%TO.N,GND*%
X182321200Y-105130600D03*
%TD*%
D12*
%TO.P,R10,1*%
%TO.N,Net-(C2-Pad1)*%
X186867800Y-102934000D03*
%TO.P,R10,2*%
%TO.N,GND*%
X186867800Y-104584000D03*
%TD*%
D18*
%TO.P,C3,1*%
%TO.N,/Vcc2*%
X119062800Y-132892800D03*
%TO.P,C3,2*%
%TO.N,GND*%
X117512800Y-132892800D03*
%TD*%
D19*
%TO.P,C8,1*%
%TO.N,/Vcc2*%
X128511000Y-132130800D03*
%TO.P,C8,2*%
%TO.N,GND*%
X130061000Y-132130800D03*
%TD*%
D20*
%TO.P,J4,1,Pin_1*%
%TO.N,/Vcc1*%
X170059600Y-102243800D03*
D15*
%TO.P,J4,2,Pin_2*%
%TO.N,Net-(C6-Pad1)*%
X172059600Y-102243800D03*
%TO.P,J4,3,Pin_3*%
%TO.N,GND*%
X174059600Y-102243800D03*
%TD*%
D11*
%TO.P,R1,1*%
%TO.N,Net-(R1-Pad1)*%
X190944000Y-133477000D03*
%TO.P,R1,2*%
%TO.N,GND*%
X189294000Y-133477000D03*
%TD*%
D21*
%TO.P,J1,1,In*%
%TO.N,Net-(J1-Pad1)*%
X102000000Y-120000000D03*
D22*
%TO.P,J1,2,Ext*%
%TO.N,GND*%
X102200000Y-117175000D03*
X102200000Y-122825000D03*
%TD*%
D11*
%TO.P,R6,1*%
%TO.N,Net-(R3-Pad1)*%
X191071000Y-104724200D03*
%TO.P,R6,2*%
%TO.N,GND*%
X189421000Y-104724200D03*
%TD*%
D21*
%TO.P,J2,1,In*%
%TO.N,Net-(J1-Pad1)*%
X198000000Y-120000000D03*
D22*
%TO.P,J2,2,Ext*%
%TO.N,GND*%
X197800000Y-117175000D03*
X197800000Y-122825000D03*
%TD*%
D13*
%TO.P,R4,1*%
%TO.N,Net-(R3-Pad1)*%
X109868200Y-105892600D03*
%TO.P,R4,2*%
%TO.N,GND*%
X111518200Y-105892600D03*
%TD*%
D23*
%TO.P,U1,1,GND*%
%TO.N,GND*%
X117436200Y-134653400D03*
%TO.P,U1,2,GND*%
X117436200Y-135153400D03*
%TO.P,U1,3,RF_In*%
%TO.N,Net-(C1-Pad2)*%
X117436200Y-135653400D03*
%TO.P,U1,4,DC_OUT*%
%TO.N,Net-(C5-Pad1)*%
X118936200Y-135653400D03*
%TO.P,U1,5,GND*%
%TO.N,GND*%
X118936200Y-135153400D03*
%TO.P,U1,6,VCC*%
%TO.N,/Vcc2*%
X118936200Y-134653400D03*
D17*
%TO.P,U1,7,GND*%
%TO.N,GND*%
X118186200Y-135153400D03*
%TD*%
D12*
%TO.P,R9,1*%
%TO.N,Net-(C1-Pad1)*%
X113461800Y-134023600D03*
%TO.P,R9,2*%
%TO.N,GND*%
X113461800Y-135673600D03*
%TD*%
D19*
%TO.P,C4,1*%
%TO.N,/Vcc1*%
X181495400Y-107442000D03*
%TO.P,C4,2*%
%TO.N,GND*%
X183045400Y-107442000D03*
%TD*%
D11*
%TO.P,R2,1*%
%TO.N,Net-(R1-Pad1)*%
X190969400Y-135610600D03*
%TO.P,R2,2*%
%TO.N,GND*%
X189319400Y-135610600D03*
%TD*%
D19*
%TO.P,C7,1*%
%TO.N,/Vcc1*%
X172275200Y-106756200D03*
%TO.P,C7,2*%
%TO.N,GND*%
X173825200Y-106756200D03*
%TD*%
D10*
%TO.P,C1,1*%
%TO.N,Net-(C1-Pad1)*%
X115290600Y-134137400D03*
%TO.P,C1,2*%
%TO.N,Net-(C1-Pad2)*%
X115290600Y-135687400D03*
%TD*%
D24*
%TO.P,R11,1*%
%TO.N,Net-(C5-Pad1)*%
X121056400Y-135673600D03*
%TO.P,R11,2*%
%TO.N,GND*%
X121056400Y-134023600D03*
%TD*%
D10*
%TO.P,C2,1*%
%TO.N,Net-(C2-Pad1)*%
X185039000Y-102984000D03*
%TO.P,C2,2*%
%TO.N,Net-(C2-Pad2)*%
X185039000Y-104534000D03*
%TD*%
D25*
%TO.P,C5,1*%
%TO.N,Net-(C5-Pad1)*%
X122783600Y-135649000D03*
%TO.P,C5,2*%
%TO.N,GND*%
X122783600Y-134099000D03*
%TD*%
D13*
%TO.P,R3,1*%
%TO.N,Net-(R3-Pad1)*%
X109817400Y-103759000D03*
%TO.P,R3,2*%
%TO.N,GND*%
X111467400Y-103759000D03*
%TD*%
D26*
%TO.N,GND*%
X105359200Y-124663200D03*
X176276000Y-103301800D03*
X194589400Y-124409200D03*
X170535600Y-104851200D03*
X118186200Y-136728200D03*
X113512600Y-136855200D03*
X125492600Y-137252800D03*
X105435400Y-115519200D03*
X112547400Y-103733600D03*
X120523000Y-131749800D03*
X198882000Y-124587000D03*
X188239400Y-104597200D03*
X196951600Y-124536200D03*
X105460800Y-117170200D03*
X167868600Y-103505000D03*
X101015800Y-124815600D03*
X124383800Y-134188200D03*
X112623600Y-105841800D03*
X178816000Y-103225600D03*
X179781200Y-107264200D03*
X188188600Y-135636000D03*
X184327800Y-107391200D03*
X177723800Y-107264200D03*
X120040400Y-134137400D03*
X113258600Y-131927600D03*
X185013600Y-101041200D03*
X176301400Y-101092000D03*
X184607200Y-105918000D03*
X102997000Y-115392200D03*
X170815000Y-108559600D03*
X183413400Y-103149400D03*
X103073200Y-124714000D03*
X194462400Y-115392200D03*
X194487800Y-117170200D03*
X188163200Y-133527800D03*
X165506400Y-108585000D03*
X198678800Y-115366800D03*
X167868600Y-101193600D03*
X101117400Y-115290600D03*
X130378200Y-133477000D03*
X111658400Y-136779000D03*
X181305200Y-103149400D03*
X121920000Y-136880600D03*
X116763800Y-133959600D03*
X127508000Y-134213600D03*
X187604400Y-101117400D03*
X196723000Y-115366800D03*
X126238000Y-131699000D03*
X105435400Y-122961400D03*
X194589400Y-122859800D03*
X169418000Y-106984800D03*
%TD*%
D27*
%TO.N,Net-(C1-Pad1)*%
X113461800Y-134023600D02*
X111657400Y-134023600D01*
X111657400Y-134023600D02*
X111619800Y-134061200D01*
X115290600Y-134137400D02*
X113575600Y-134137400D01*
X113575600Y-134137400D02*
X113461800Y-134023600D01*
%TO.N,Net-(C1-Pad2)*%
X115290600Y-135687400D02*
X117214700Y-135687400D01*
X117214700Y-135687400D02*
X117248700Y-135653400D01*
%TO.N,Net-(C2-Pad1)*%
X189421000Y-103022400D02*
X186956200Y-103022400D01*
X186817800Y-102984000D02*
X186867800Y-102934000D01*
X185039000Y-102984000D02*
X186817800Y-102984000D01*
X186956200Y-103022400D02*
X186867800Y-102934000D01*
%TO.N,Net-(C2-Pad2)*%
X184942400Y-104630600D02*
X185039000Y-104534000D01*
X183258700Y-104630600D02*
X184942400Y-104630600D01*
%TO.N,GND*%
X122708200Y-134023600D02*
X122783600Y-134099000D01*
X113512600Y-135724400D02*
X113461800Y-135673600D01*
X116763800Y-133540200D02*
X117436600Y-132867400D01*
X119608528Y-135153400D02*
X120040400Y-134721528D01*
X120154200Y-134023600D02*
X120040400Y-134137400D01*
X116763800Y-133959600D02*
X116763800Y-134168500D01*
X183258700Y-105130600D02*
X183819800Y-105130600D01*
X119123700Y-135153400D02*
X119608528Y-135153400D01*
X121056400Y-134023600D02*
X122708200Y-134023600D01*
X130378200Y-133477000D02*
X130378200Y-132381800D01*
X111658400Y-135764000D02*
X111606600Y-135712200D01*
X183258700Y-105130600D02*
X182321200Y-105130600D01*
X117686200Y-134653400D02*
X118186200Y-135153400D01*
X112572800Y-105892600D02*
X112623600Y-105841800D01*
X183258700Y-105630600D02*
X184319800Y-105630600D01*
X119123700Y-135153400D02*
X118186200Y-135153400D01*
X188366400Y-104724200D02*
X188239400Y-104597200D01*
X130378200Y-132381800D02*
X130169200Y-132172800D01*
X111658400Y-136779000D02*
X111658400Y-135764000D01*
X112522000Y-103759000D02*
X112547400Y-103733600D01*
X184319800Y-105630600D02*
X184607200Y-105918000D01*
X127235200Y-137252800D02*
X125492600Y-137252800D01*
X120040400Y-134721528D02*
X120040400Y-134137400D01*
X189421000Y-104724200D02*
X188366400Y-104724200D01*
X179781200Y-106184200D02*
X180834800Y-105130600D01*
X188188600Y-135636000D02*
X189294000Y-135636000D01*
X188163200Y-133527800D02*
X189243200Y-133527800D01*
X118186200Y-135153400D02*
X117248700Y-135153400D01*
X180834800Y-105130600D02*
X181383700Y-105130600D01*
X111518200Y-105892600D02*
X112572800Y-105892600D01*
X121056400Y-134023600D02*
X120154200Y-134023600D01*
X111467400Y-103759000D02*
X112522000Y-103759000D01*
X113512600Y-136855200D02*
X113512600Y-135724400D01*
X183819800Y-105130600D02*
X184607200Y-105918000D01*
X117248700Y-134653400D02*
X117686200Y-134653400D01*
X189243200Y-133527800D02*
X189294000Y-133477000D01*
X116763800Y-134168500D02*
X117248700Y-134653400D01*
X181383700Y-105130600D02*
X182321200Y-105130600D01*
X116763800Y-133959600D02*
X116763800Y-133540200D01*
X189294000Y-135636000D02*
X189319400Y-135610600D01*
%TO.N,Net-(C5-Pad1)*%
X121056400Y-135673600D02*
X122759000Y-135673600D01*
X127631400Y-135649000D02*
X122783600Y-135649000D01*
X122759000Y-135673600D02*
X122783600Y-135649000D01*
X121036200Y-135653400D02*
X121056400Y-135673600D01*
X129235200Y-137252800D02*
X127631400Y-135649000D01*
X119123700Y-135653400D02*
X121036200Y-135653400D01*
%TO.N,Net-(C6-Pad1)*%
X177799200Y-104534200D02*
X177749200Y-104584200D01*
X181383700Y-104630600D02*
X179877600Y-104630600D01*
X179781200Y-104534200D02*
X177799200Y-104534200D01*
X174400000Y-104584200D02*
X172059600Y-102243800D01*
X179877600Y-104630600D02*
X179781200Y-104534200D01*
X177749200Y-104584200D02*
X174400000Y-104584200D01*
D28*
%TO.N,Net-(J1-Pad1)*%
X102000000Y-120000000D02*
X198000000Y-120000000D01*
D29*
%TO.N,Net-(R1-Pad1)*%
X192000000Y-126593600D02*
X192000000Y-135763000D01*
X110000000Y-125889800D02*
X108915200Y-126974600D01*
X110000000Y-125850000D02*
X110000000Y-125889800D01*
X108915200Y-126974600D02*
X108915200Y-135763000D01*
X191178800Y-125850000D02*
X191922400Y-126593600D01*
X110000000Y-125850000D02*
X191178800Y-125850000D01*
%TO.N,Net-(R3-Pad1)*%
X109882800Y-114150000D02*
X190295800Y-114150000D01*
X108864400Y-113131600D02*
X109882800Y-114150000D01*
X108864400Y-103936800D02*
X108864400Y-113131600D01*
X190295800Y-114150000D02*
X192000000Y-112445800D01*
X192000000Y-112445800D02*
X192000000Y-103098600D01*
D27*
%TO.N,/Vcc2*%
X119123700Y-134653400D02*
X119123700Y-133004500D01*
X119123700Y-133004500D02*
X118986600Y-132867400D01*
X118986600Y-132867400D02*
X127924600Y-132867400D01*
X127924600Y-132867400D02*
X128619200Y-132172800D01*
X131235200Y-137252800D02*
X131235200Y-136178000D01*
X131235200Y-136178000D02*
X127924600Y-132867400D01*
%TO.N,/Vcc1*%
X181383700Y-105630600D02*
X181383700Y-107203300D01*
X170059600Y-102243800D02*
X172352000Y-104536200D01*
X180987400Y-108026200D02*
X181597000Y-107416600D01*
X172352000Y-106984800D02*
X173393400Y-108026200D01*
X173393400Y-108026200D02*
X180987400Y-108026200D01*
X181383700Y-107203300D02*
X181597000Y-107416600D01*
X172352000Y-104536200D02*
X172352000Y-106984800D01*
%TD*%
%TA.AperFunction,Conductor*%
%TO.N,GND*%
G36*
X134536721Y-131211002D02*
G01*
X134583214Y-131264658D01*
X134594600Y-131317000D01*
X134594600Y-139374000D01*
X134574598Y-139442121D01*
X134520942Y-139488614D01*
X134468600Y-139500000D01*
X112649750Y-139500000D01*
X112581629Y-139479998D01*
X112535136Y-139426342D01*
X112523751Y-139373636D01*
X112528941Y-137577632D01*
X126127200Y-137577632D01*
X126127485Y-137583608D01*
X126141671Y-137732294D01*
X126143930Y-137744028D01*
X126200072Y-137935399D01*
X126204502Y-137946475D01*
X126295819Y-138123778D01*
X126302269Y-138133824D01*
X126425462Y-138290657D01*
X126433699Y-138299306D01*
X126584323Y-138430012D01*
X126594047Y-138436947D01*
X126766667Y-138536810D01*
X126777531Y-138541784D01*
X126965927Y-138607207D01*
X126966916Y-138607448D01*
X126977208Y-138605980D01*
X126981200Y-138592415D01*
X126981200Y-137524915D01*
X126976725Y-137509676D01*
X126975335Y-137508471D01*
X126967652Y-137506800D01*
X126145315Y-137506800D01*
X126130076Y-137511275D01*
X126128871Y-137512665D01*
X126127200Y-137520348D01*
X126127200Y-137577632D01*
X112528941Y-137577632D01*
X112530250Y-137124800D01*
X112531987Y-136523849D01*
X112552185Y-136455786D01*
X112605975Y-136409449D01*
X112676278Y-136399548D01*
X112735734Y-136425060D01*
X112753227Y-136438777D01*
X112886812Y-136519679D01*
X112900557Y-136525885D01*
X113050444Y-136572856D01*
X113063494Y-136575469D01*
X113127321Y-136581334D01*
X113133109Y-136581600D01*
X113189685Y-136581600D01*
X113204924Y-136577125D01*
X113206129Y-136575735D01*
X113207800Y-136568052D01*
X113207800Y-135545600D01*
X113227802Y-135477479D01*
X113281458Y-135430986D01*
X113333800Y-135419600D01*
X113589800Y-135419600D01*
X113657921Y-135439602D01*
X113704414Y-135493258D01*
X113715800Y-135545600D01*
X113715800Y-136563484D01*
X113720275Y-136578723D01*
X113721665Y-136579928D01*
X113729348Y-136581599D01*
X113790505Y-136581599D01*
X113796254Y-136581336D01*
X113860115Y-136575468D01*
X113873151Y-136572857D01*
X114023043Y-136525885D01*
X114036788Y-136519679D01*
X114170374Y-136438776D01*
X114182243Y-136429469D01*
X114270572Y-136341140D01*
X114332884Y-136307114D01*
X114403699Y-136312179D01*
X114460535Y-136354726D01*
X114462483Y-136357583D01*
X114464306Y-136359883D01*
X114468160Y-136366111D01*
X114587889Y-136485631D01*
X114594119Y-136489471D01*
X114594120Y-136489472D01*
X114721600Y-136568052D01*
X114731903Y-136574403D01*
X114892476Y-136627663D01*
X114899312Y-136628363D01*
X114899315Y-136628364D01*
X114949397Y-136633495D01*
X114992393Y-136637900D01*
X115288300Y-136637900D01*
X115588806Y-136637899D01*
X115592050Y-136637562D01*
X115592058Y-136637562D01*
X115636480Y-136632953D01*
X115689972Y-136627403D01*
X115850452Y-136573863D01*
X115994311Y-136484840D01*
X116113831Y-136365111D01*
X116116743Y-136360387D01*
X116174065Y-136319745D01*
X116215031Y-136312900D01*
X117136997Y-136312900D01*
X117147957Y-136313417D01*
X117155367Y-136315073D01*
X117163293Y-136314824D01*
X117163294Y-136314824D01*
X117222541Y-136312962D01*
X117226499Y-136312900D01*
X117254050Y-136312900D01*
X117257973Y-136312404D01*
X117258088Y-136312397D01*
X117269768Y-136311477D01*
X117313327Y-136310109D01*
X117332416Y-136304563D01*
X117351762Y-136300556D01*
X117371492Y-136298064D01*
X117412023Y-136282016D01*
X117423224Y-136278181D01*
X117465090Y-136266018D01*
X117468819Y-136263813D01*
X117516684Y-136253900D01*
X117628972Y-136253900D01*
X117686639Y-136246922D01*
X117710708Y-136244009D01*
X117710709Y-136244009D01*
X117718747Y-136243036D01*
X117778160Y-136219513D01*
X117831359Y-136210849D01*
X117841530Y-136211400D01*
X117914085Y-136211400D01*
X117929324Y-136206925D01*
X117930529Y-136205535D01*
X117932200Y-136197852D01*
X117932200Y-136193786D01*
X117952202Y-136125665D01*
X117969107Y-136104688D01*
X117972278Y-136101517D01*
X117979122Y-136096322D01*
X118070313Y-135976183D01*
X118073475Y-135968196D01*
X118076426Y-135962959D01*
X118127292Y-135913430D01*
X118196860Y-135899263D01*
X118263045Y-135924957D01*
X118295974Y-135962959D01*
X118298925Y-135968196D01*
X118302087Y-135976183D01*
X118393278Y-136096322D01*
X118400122Y-136101517D01*
X118403293Y-136104688D01*
X118437320Y-136167000D01*
X118440115Y-136192994D01*
X118444675Y-136208523D01*
X118446065Y-136209728D01*
X118453748Y-136211399D01*
X118530868Y-136211399D01*
X118541039Y-136210848D01*
X118594237Y-136219512D01*
X118653653Y-136243036D01*
X118743428Y-136253900D01*
X118931398Y-136253900D01*
X118962733Y-136257859D01*
X119044681Y-136278900D01*
X120143805Y-136278900D01*
X120211926Y-136298902D01*
X120232900Y-136315805D01*
X120345992Y-136428897D01*
X120491017Y-136516727D01*
X120498264Y-136518998D01*
X120498266Y-136518999D01*
X120540273Y-136532163D01*
X120652806Y-136567429D01*
X120725407Y-136574100D01*
X120728305Y-136574100D01*
X121057258Y-136574099D01*
X121387392Y-136574099D01*
X121390250Y-136573836D01*
X121390259Y-136573836D01*
X121425881Y-136570563D01*
X121459994Y-136567429D01*
X121466379Y-136565428D01*
X121614534Y-136518999D01*
X121614536Y-136518998D01*
X121621783Y-136516727D01*
X121766808Y-136428897D01*
X121825519Y-136370186D01*
X121887831Y-136336160D01*
X121958646Y-136341225D01*
X122003630Y-136370106D01*
X122080889Y-136447231D01*
X122087119Y-136451071D01*
X122087120Y-136451072D01*
X122208489Y-136525885D01*
X122224903Y-136536003D01*
X122385476Y-136589263D01*
X122392312Y-136589963D01*
X122392315Y-136589964D01*
X122442397Y-136595095D01*
X122485393Y-136599500D01*
X122781300Y-136599500D01*
X123081806Y-136599499D01*
X123085050Y-136599162D01*
X123085058Y-136599162D01*
X123129480Y-136594553D01*
X123182972Y-136589003D01*
X123343452Y-136535463D01*
X123487311Y-136446440D01*
X123606831Y-136326711D01*
X123609743Y-136321987D01*
X123667065Y-136281345D01*
X123708031Y-136274500D01*
X126139480Y-136274500D01*
X126207601Y-136294502D01*
X126254094Y-136348158D01*
X126264198Y-136418432D01*
X126251346Y-136458483D01*
X126244782Y-136471146D01*
X126170239Y-136656112D01*
X126166845Y-136667570D01*
X126128343Y-136864728D01*
X126127266Y-136873591D01*
X126127200Y-136876300D01*
X126127200Y-136980685D01*
X126131675Y-136995924D01*
X126133065Y-136997129D01*
X126140748Y-136998800D01*
X127363200Y-136998800D01*
X127431321Y-137018802D01*
X127477814Y-137072458D01*
X127489200Y-137124800D01*
X127489200Y-138588202D01*
X127493173Y-138601733D01*
X127502599Y-138603088D01*
X127591737Y-138581606D01*
X127603032Y-138577717D01*
X127784582Y-138495171D01*
X127794924Y-138489224D01*
X127957597Y-138373832D01*
X127966625Y-138366039D01*
X128104542Y-138221969D01*
X128111941Y-138212601D01*
X128134209Y-138178114D01*
X128187965Y-138131737D01*
X128258260Y-138121784D01*
X128322777Y-138151417D01*
X128339146Y-138168630D01*
X128430918Y-138285462D01*
X128430922Y-138285467D01*
X128434624Y-138290179D01*
X128439154Y-138294110D01*
X128439155Y-138294111D01*
X128588698Y-138423879D01*
X128588703Y-138423883D01*
X128593229Y-138427810D01*
X128774999Y-138532966D01*
X128847666Y-138558200D01*
X128967709Y-138599886D01*
X128967711Y-138599886D01*
X128973374Y-138601853D01*
X128979309Y-138602714D01*
X128979311Y-138602714D01*
X129175256Y-138631125D01*
X129175259Y-138631125D01*
X129181196Y-138631986D01*
X129390967Y-138622277D01*
X129532355Y-138588202D01*
X129589285Y-138574482D01*
X129589287Y-138574481D01*
X129595118Y-138573076D01*
X129600576Y-138570594D01*
X129600580Y-138570593D01*
X129780826Y-138488640D01*
X129786281Y-138486160D01*
X129957560Y-138364663D01*
X130055373Y-138262486D01*
X130116928Y-138227110D01*
X130187838Y-138230629D01*
X130245588Y-138271925D01*
X130253526Y-138283301D01*
X130293034Y-138347145D01*
X130416889Y-138470784D01*
X130565866Y-138562614D01*
X130572814Y-138564919D01*
X130572815Y-138564919D01*
X130725441Y-138615544D01*
X130725443Y-138615545D01*
X130731972Y-138617710D01*
X130835334Y-138628300D01*
X131635066Y-138628300D01*
X131638312Y-138627963D01*
X131638316Y-138627963D01*
X131732861Y-138618153D01*
X131732865Y-138618152D01*
X131739719Y-138617441D01*
X131746255Y-138615260D01*
X131746257Y-138615260D01*
X131898781Y-138564374D01*
X131905729Y-138562056D01*
X132054545Y-138469966D01*
X132178184Y-138346111D01*
X132270014Y-138197134D01*
X132285178Y-138151417D01*
X132322944Y-138037559D01*
X132322945Y-138037557D01*
X132325110Y-138031028D01*
X132335700Y-137927666D01*
X132335700Y-136577934D01*
X132334935Y-136570563D01*
X132325553Y-136480139D01*
X132325552Y-136480135D01*
X132324841Y-136473281D01*
X132314158Y-136441258D01*
X132271774Y-136314219D01*
X132269456Y-136307271D01*
X132177366Y-136158455D01*
X132053511Y-136034816D01*
X131904534Y-135942986D01*
X131897586Y-135940681D01*
X131897583Y-135940680D01*
X131856954Y-135927204D01*
X131853371Y-135926016D01*
X131795012Y-135885585D01*
X131788071Y-135875240D01*
X131787686Y-135874268D01*
X131784192Y-135869459D01*
X131784178Y-135869438D01*
X131762073Y-135839013D01*
X131755557Y-135829094D01*
X131737406Y-135798402D01*
X131737402Y-135798397D01*
X131733370Y-135791579D01*
X131719317Y-135777526D01*
X131706476Y-135762492D01*
X131699454Y-135752827D01*
X131694794Y-135746413D01*
X131661216Y-135718635D01*
X131652436Y-135710645D01*
X129120188Y-133178397D01*
X129086162Y-133116085D01*
X129091227Y-133045270D01*
X129133774Y-132988434D01*
X129142980Y-132982158D01*
X129172650Y-132963798D01*
X129189711Y-132953240D01*
X129194884Y-132948058D01*
X129200621Y-132943511D01*
X129202222Y-132945531D01*
X129253880Y-132917254D01*
X129324701Y-132922244D01*
X129369811Y-132951175D01*
X129373425Y-132954783D01*
X129384840Y-132963798D01*
X129517880Y-133045804D01*
X129531061Y-133051951D01*
X129679814Y-133101291D01*
X129693190Y-133104158D01*
X129784097Y-133113472D01*
X129789126Y-133113729D01*
X129804124Y-133109325D01*
X129805329Y-133107935D01*
X129807000Y-133100252D01*
X129807000Y-133095685D01*
X130315000Y-133095685D01*
X130319475Y-133110924D01*
X130320865Y-133112129D01*
X130328548Y-133113800D01*
X130331438Y-133113800D01*
X130337953Y-133113463D01*
X130430057Y-133103906D01*
X130443456Y-133101012D01*
X130592107Y-133051419D01*
X130605286Y-133045245D01*
X130738173Y-132963012D01*
X130749574Y-132953976D01*
X130859986Y-132843371D01*
X130868998Y-132831960D01*
X130951004Y-132698920D01*
X130957151Y-132685739D01*
X131006491Y-132536986D01*
X131009358Y-132523610D01*
X131018672Y-132432703D01*
X131019000Y-132426287D01*
X131019000Y-132402915D01*
X131014525Y-132387676D01*
X131013135Y-132386471D01*
X131005452Y-132384800D01*
X130333115Y-132384800D01*
X130317876Y-132389275D01*
X130316671Y-132390665D01*
X130315000Y-132398348D01*
X130315000Y-133095685D01*
X129807000Y-133095685D01*
X129807000Y-132002800D01*
X129827002Y-131934679D01*
X129880658Y-131888186D01*
X129933000Y-131876800D01*
X131000885Y-131876800D01*
X131016124Y-131872325D01*
X131017329Y-131870935D01*
X131019000Y-131863252D01*
X131019000Y-131835362D01*
X131018663Y-131828847D01*
X131009106Y-131736743D01*
X131006212Y-131723344D01*
X130956619Y-131574693D01*
X130950445Y-131561514D01*
X130868212Y-131428627D01*
X130859176Y-131417225D01*
X130848103Y-131406172D01*
X130814025Y-131343889D01*
X130819028Y-131273069D01*
X130861526Y-131216197D01*
X130928025Y-131191329D01*
X130937122Y-131191000D01*
X134468600Y-131191000D01*
X134536721Y-131211002D01*
G37*
%TD.AperFunction*%
%TA.AperFunction,Conductor*%
G36*
X127681441Y-133512902D02*
G01*
X127702415Y-133529805D01*
X130179609Y-136007000D01*
X130198357Y-136041333D01*
X130218469Y-136048308D01*
X130234412Y-136061803D01*
X130236998Y-136064389D01*
X130271024Y-136126701D01*
X130265959Y-136197516D01*
X130255175Y-136219581D01*
X130254931Y-136219977D01*
X130202167Y-136267480D01*
X130132098Y-136278915D01*
X130066969Y-136250653D01*
X130048567Y-136231705D01*
X130046225Y-136228723D01*
X130038112Y-136208419D01*
X130030129Y-136206683D01*
X130007933Y-136191260D01*
X129881702Y-136081721D01*
X129881697Y-136081717D01*
X129877171Y-136077790D01*
X129695401Y-135972634D01*
X129574611Y-135930689D01*
X129502691Y-135905714D01*
X129502689Y-135905714D01*
X129497026Y-135903747D01*
X129491091Y-135902886D01*
X129491089Y-135902886D01*
X129295144Y-135874475D01*
X129295141Y-135874475D01*
X129289204Y-135873614D01*
X129079433Y-135883323D01*
X129073611Y-135884726D01*
X129073605Y-135884727D01*
X128994687Y-135903747D01*
X128882896Y-135930689D01*
X128811987Y-135927204D01*
X128764281Y-135897291D01*
X128128636Y-135261645D01*
X128121252Y-135253530D01*
X128117186Y-135247123D01*
X128068193Y-135201115D01*
X128065351Y-135198360D01*
X128045871Y-135178880D01*
X128042741Y-135176452D01*
X128042659Y-135176380D01*
X128033751Y-135168771D01*
X128001982Y-135138938D01*
X127984567Y-135129364D01*
X127968038Y-135118507D01*
X127958600Y-135111186D01*
X127952336Y-135106327D01*
X127912342Y-135089020D01*
X127901682Y-135083798D01*
X127889716Y-135077220D01*
X127863492Y-135062803D01*
X127844236Y-135057859D01*
X127825547Y-135051460D01*
X127807296Y-135043562D01*
X127764241Y-135036743D01*
X127752637Y-135034340D01*
X127710419Y-135023500D01*
X127690544Y-135023500D01*
X127670834Y-135021949D01*
X127659033Y-135020080D01*
X127651204Y-135018840D01*
X127643312Y-135019586D01*
X127607821Y-135022941D01*
X127595963Y-135023500D01*
X123708043Y-135023500D01*
X123639922Y-135003498D01*
X123609595Y-134976034D01*
X123606040Y-134970289D01*
X123600856Y-134965114D01*
X123596310Y-134959378D01*
X123598331Y-134957777D01*
X123570054Y-134906120D01*
X123575044Y-134835299D01*
X123603975Y-134790189D01*
X123607583Y-134786575D01*
X123616598Y-134775160D01*
X123698604Y-134642120D01*
X123704751Y-134628939D01*
X123754091Y-134480186D01*
X123756958Y-134466810D01*
X123766272Y-134375903D01*
X123766529Y-134370874D01*
X123762125Y-134355876D01*
X123760735Y-134354671D01*
X123753052Y-134353000D01*
X121871743Y-134353000D01*
X121803622Y-134332998D01*
X121764097Y-134287383D01*
X121754735Y-134279271D01*
X121747052Y-134277600D01*
X120091516Y-134277600D01*
X120076277Y-134282075D01*
X120075072Y-134283465D01*
X120074109Y-134287894D01*
X120079532Y-134346915D01*
X120082143Y-134359951D01*
X120129115Y-134509843D01*
X120135321Y-134523588D01*
X120216224Y-134657174D01*
X120225531Y-134669043D01*
X120321297Y-134764809D01*
X120355323Y-134827121D01*
X120350258Y-134897936D01*
X120321301Y-134942994D01*
X120273298Y-134990997D01*
X120210987Y-135025021D01*
X120184205Y-135027900D01*
X119835771Y-135027900D01*
X119767650Y-135007898D01*
X119721157Y-134954242D01*
X119711053Y-134883968D01*
X119713730Y-134870565D01*
X119738755Y-134773100D01*
X119749200Y-134732419D01*
X119749200Y-133759663D01*
X119769202Y-133691542D01*
X119786021Y-133670653D01*
X119861031Y-133595511D01*
X119861031Y-133595510D01*
X119861658Y-133596136D01*
X119914573Y-133558619D01*
X119985496Y-133555387D01*
X120046908Y-133591012D01*
X120079310Y-133654184D01*
X120079128Y-133693537D01*
X120080143Y-133693630D01*
X120074487Y-133755186D01*
X120077875Y-133766724D01*
X120079265Y-133767929D01*
X120086948Y-133769600D01*
X121968257Y-133769600D01*
X122036378Y-133789602D01*
X122075903Y-133835217D01*
X122085265Y-133843329D01*
X122092948Y-133845000D01*
X123748485Y-133845000D01*
X123763724Y-133840525D01*
X123764929Y-133839135D01*
X123766600Y-133831452D01*
X123766600Y-133828562D01*
X123766263Y-133822047D01*
X123756706Y-133729943D01*
X123753810Y-133716536D01*
X123734540Y-133658776D01*
X123731955Y-133587827D01*
X123768138Y-133526743D01*
X123831602Y-133494918D01*
X123854063Y-133492900D01*
X127613320Y-133492900D01*
X127681441Y-133512902D01*
G37*
%TD.AperFunction*%
%TA.AperFunction,Conductor*%
G36*
X118337126Y-133684242D02*
G01*
X118373284Y-133707435D01*
X118374163Y-133706322D01*
X118379908Y-133710859D01*
X118385089Y-133716031D01*
X118438318Y-133748842D01*
X118485810Y-133801614D01*
X118498200Y-133856101D01*
X118498200Y-133989366D01*
X118478198Y-134057487D01*
X118464426Y-134069420D01*
X118467304Y-134071914D01*
X118441871Y-134101265D01*
X118440200Y-134108948D01*
X118440200Y-134113014D01*
X118420198Y-134181135D01*
X118403293Y-134202112D01*
X118400122Y-134205283D01*
X118393278Y-134210478D01*
X118302087Y-134330617D01*
X118292086Y-134355876D01*
X118264530Y-134425477D01*
X118246564Y-134470853D01*
X118235700Y-134560628D01*
X118235700Y-134746172D01*
X118246564Y-134835947D01*
X118249544Y-134843475D01*
X118249545Y-134843477D01*
X118259406Y-134868383D01*
X118302087Y-134976183D01*
X118307280Y-134983025D01*
X118307282Y-134983028D01*
X118378778Y-135077220D01*
X118404032Y-135143573D01*
X118389404Y-135213047D01*
X118378778Y-135229580D01*
X118307282Y-135323772D01*
X118307280Y-135323775D01*
X118302087Y-135330617D01*
X118298925Y-135338604D01*
X118295974Y-135343841D01*
X118245108Y-135393370D01*
X118175540Y-135407537D01*
X118109355Y-135381843D01*
X118076426Y-135343841D01*
X118073475Y-135338604D01*
X118070313Y-135330617D01*
X117979122Y-135210478D01*
X117972278Y-135205283D01*
X117969107Y-135202112D01*
X117935080Y-135139800D01*
X117932200Y-135113014D01*
X117932200Y-134113516D01*
X117927725Y-134098277D01*
X117921526Y-134092905D01*
X117868711Y-134064066D01*
X117834686Y-134001754D01*
X117839752Y-133930938D01*
X117882299Y-133874102D01*
X117917932Y-133855447D01*
X118043905Y-133813420D01*
X118057086Y-133807245D01*
X118189973Y-133725012D01*
X118201373Y-133715977D01*
X118204024Y-133713321D01*
X118206285Y-133712084D01*
X118207111Y-133711429D01*
X118207223Y-133711570D01*
X118266306Y-133679240D01*
X118337126Y-133684242D01*
G37*
%TD.AperFunction*%
%TA.AperFunction,Conductor*%
G36*
X127713749Y-131211002D02*
G01*
X127760242Y-131264658D01*
X127770346Y-131334932D01*
X127740852Y-131399512D01*
X127734802Y-131406017D01*
X127723614Y-131417225D01*
X127712769Y-131428089D01*
X127623997Y-131572103D01*
X127570737Y-131732676D01*
X127560500Y-131832593D01*
X127560501Y-132002800D01*
X127560501Y-132115900D01*
X127540499Y-132184020D01*
X127486844Y-132230513D01*
X127434501Y-132241900D01*
X119961927Y-132241900D01*
X119893806Y-132221898D01*
X119863636Y-132194578D01*
X119860240Y-132189089D01*
X119740511Y-132069569D01*
X119724666Y-132059802D01*
X119602727Y-131984637D01*
X119602725Y-131984636D01*
X119596497Y-131980797D01*
X119435924Y-131927537D01*
X119429088Y-131926837D01*
X119429085Y-131926836D01*
X119379003Y-131921705D01*
X119336007Y-131917300D01*
X119064907Y-131917300D01*
X118789594Y-131917301D01*
X118786350Y-131917638D01*
X118786342Y-131917638D01*
X118741920Y-131922247D01*
X118688428Y-131927797D01*
X118527948Y-131981337D01*
X118384089Y-132070360D01*
X118378916Y-132075542D01*
X118373179Y-132080089D01*
X118371578Y-132078069D01*
X118319920Y-132106346D01*
X118249099Y-132101356D01*
X118203989Y-132072425D01*
X118200375Y-132068817D01*
X118188960Y-132059802D01*
X118055920Y-131977796D01*
X118042739Y-131971649D01*
X117893986Y-131922309D01*
X117880610Y-131919442D01*
X117789703Y-131910128D01*
X117784674Y-131909871D01*
X117769676Y-131914275D01*
X117768471Y-131915665D01*
X117766800Y-131923348D01*
X117766800Y-133020800D01*
X117746798Y-133088921D01*
X117693142Y-133135414D01*
X117640800Y-133146800D01*
X116572915Y-133146800D01*
X116557676Y-133151275D01*
X116556471Y-133152665D01*
X116554800Y-133160348D01*
X116554800Y-133188238D01*
X116555137Y-133194753D01*
X116564694Y-133286857D01*
X116567588Y-133300256D01*
X116617181Y-133448907D01*
X116623355Y-133462086D01*
X116705588Y-133594973D01*
X116714624Y-133606374D01*
X116825229Y-133716786D01*
X116836640Y-133725798D01*
X116969680Y-133807804D01*
X116982861Y-133813951D01*
X117079016Y-133845845D01*
X117137376Y-133886276D01*
X117164612Y-133951841D01*
X117152078Y-134021722D01*
X117103753Y-134073734D01*
X117085731Y-134082590D01*
X117017692Y-134109528D01*
X117002852Y-134117890D01*
X116894765Y-134199933D01*
X116882733Y-134211965D01*
X116800690Y-134320052D01*
X116792328Y-134334892D01*
X116742192Y-134461523D01*
X116738241Y-134477081D01*
X116728655Y-134556287D01*
X116728200Y-134563839D01*
X116728201Y-134742953D01*
X116728656Y-134750512D01*
X116738241Y-134829720D01*
X116742192Y-134845278D01*
X116746840Y-134857017D01*
X116753319Y-134927717D01*
X116746840Y-134949783D01*
X116742193Y-134961521D01*
X116740824Y-134966911D01*
X116704672Y-135028013D01*
X116641224Y-135059870D01*
X116618700Y-135061900D01*
X116215043Y-135061900D01*
X116146922Y-135041898D01*
X116116594Y-135014431D01*
X116113040Y-135008689D01*
X116105823Y-135001484D01*
X116104873Y-134999750D01*
X116103310Y-134997777D01*
X116103648Y-134997509D01*
X116071742Y-134939203D01*
X116076743Y-134868383D01*
X116105666Y-134823290D01*
X116108660Y-134820291D01*
X116113831Y-134815111D01*
X116138457Y-134775160D01*
X116198763Y-134677327D01*
X116198764Y-134677325D01*
X116202603Y-134671097D01*
X116255863Y-134510524D01*
X116259290Y-134477081D01*
X116265772Y-134413806D01*
X116266100Y-134410607D01*
X116266099Y-133864194D01*
X116265260Y-133856101D01*
X116260831Y-133813420D01*
X116255603Y-133763028D01*
X116202063Y-133602548D01*
X116113040Y-133458689D01*
X115993311Y-133339169D01*
X115930183Y-133300256D01*
X115855527Y-133254237D01*
X115855525Y-133254236D01*
X115849297Y-133250397D01*
X115688724Y-133197137D01*
X115681888Y-133196437D01*
X115681885Y-133196436D01*
X115628883Y-133191006D01*
X115588807Y-133186900D01*
X115292900Y-133186900D01*
X114992394Y-133186901D01*
X114989150Y-133187238D01*
X114989142Y-133187238D01*
X114944720Y-133191847D01*
X114891228Y-133197397D01*
X114730748Y-133250937D01*
X114586889Y-133339960D01*
X114522563Y-133404399D01*
X114498860Y-133428143D01*
X114436578Y-133462222D01*
X114365758Y-133457219D01*
X114308885Y-133414722D01*
X114301913Y-133404399D01*
X114296036Y-133394696D01*
X114292097Y-133388192D01*
X114172208Y-133268303D01*
X114027183Y-133180473D01*
X114019936Y-133178202D01*
X114019934Y-133178201D01*
X113919733Y-133146800D01*
X113865394Y-133129771D01*
X113792793Y-133123100D01*
X113789895Y-133123100D01*
X113460942Y-133123101D01*
X113130808Y-133123101D01*
X113127950Y-133123364D01*
X113127941Y-133123364D01*
X113092557Y-133126615D01*
X113058206Y-133129771D01*
X113051828Y-133131770D01*
X113051827Y-133131770D01*
X112903666Y-133178201D01*
X112903664Y-133178202D01*
X112896417Y-133180473D01*
X112751392Y-133268303D01*
X112746016Y-133273679D01*
X112745414Y-133274151D01*
X112679466Y-133300444D01*
X112609771Y-133286910D01*
X112558458Y-133237844D01*
X112541667Y-133174634D01*
X112543268Y-132620685D01*
X116554800Y-132620685D01*
X116559275Y-132635924D01*
X116560665Y-132637129D01*
X116568348Y-132638800D01*
X117240685Y-132638800D01*
X117255924Y-132634325D01*
X117257129Y-132632935D01*
X117258800Y-132625252D01*
X117258800Y-131927915D01*
X117254325Y-131912676D01*
X117252935Y-131911471D01*
X117245252Y-131909800D01*
X117242362Y-131909800D01*
X117235847Y-131910137D01*
X117143743Y-131919694D01*
X117130344Y-131922588D01*
X116981693Y-131972181D01*
X116968514Y-131978355D01*
X116835627Y-132060588D01*
X116824226Y-132069624D01*
X116713814Y-132180229D01*
X116704802Y-132191640D01*
X116622796Y-132324680D01*
X116616649Y-132337861D01*
X116567309Y-132486614D01*
X116564442Y-132499990D01*
X116555128Y-132590897D01*
X116554800Y-132597314D01*
X116554800Y-132620685D01*
X112543268Y-132620685D01*
X112547037Y-131316636D01*
X112567235Y-131248573D01*
X112621025Y-131202236D01*
X112673036Y-131191000D01*
X127645628Y-131191000D01*
X127713749Y-131211002D01*
G37*
%TD.AperFunction*%
%TD*%
%TA.AperFunction,Conductor*%
%TO.N,GND*%
G36*
X188587925Y-100520002D02*
G01*
X188634418Y-100573658D01*
X188645800Y-100627011D01*
X188632606Y-102271911D01*
X188612058Y-102339869D01*
X188558031Y-102385930D01*
X188506610Y-102396900D01*
X187828631Y-102396900D01*
X187760510Y-102376898D01*
X187720856Y-102336172D01*
X187698097Y-102298592D01*
X187578208Y-102178703D01*
X187433183Y-102090873D01*
X187425936Y-102088602D01*
X187425934Y-102088601D01*
X187360694Y-102068156D01*
X187271394Y-102040171D01*
X187198793Y-102033500D01*
X187195895Y-102033500D01*
X186866942Y-102033501D01*
X186536808Y-102033501D01*
X186533950Y-102033764D01*
X186533941Y-102033764D01*
X186498557Y-102037015D01*
X186464206Y-102040171D01*
X186457828Y-102042170D01*
X186457827Y-102042170D01*
X186309666Y-102088601D01*
X186309664Y-102088602D01*
X186302417Y-102090873D01*
X186157392Y-102178703D01*
X186037503Y-102298592D01*
X186035731Y-102296820D01*
X185987784Y-102331071D01*
X185916873Y-102334554D01*
X185857379Y-102301235D01*
X185746892Y-102190940D01*
X185746887Y-102190936D01*
X185741711Y-102185769D01*
X185597697Y-102096997D01*
X185437124Y-102043737D01*
X185430288Y-102043037D01*
X185430285Y-102043036D01*
X185380203Y-102037905D01*
X185337207Y-102033500D01*
X185041300Y-102033500D01*
X184740794Y-102033501D01*
X184737550Y-102033838D01*
X184737542Y-102033838D01*
X184693120Y-102038447D01*
X184639628Y-102043997D01*
X184479148Y-102097537D01*
X184335289Y-102186560D01*
X184215769Y-102306289D01*
X184126997Y-102450303D01*
X184073737Y-102610876D01*
X184073037Y-102617712D01*
X184073036Y-102617715D01*
X184072771Y-102620300D01*
X184063500Y-102710793D01*
X184063501Y-103257206D01*
X184073997Y-103358372D01*
X184127537Y-103518852D01*
X184150475Y-103555919D01*
X184212706Y-103656484D01*
X184212709Y-103656487D01*
X184216560Y-103662711D01*
X184223752Y-103669890D01*
X184223777Y-103669915D01*
X184224725Y-103671648D01*
X184226289Y-103673621D01*
X184225951Y-103673889D01*
X184257858Y-103732197D01*
X184252857Y-103803017D01*
X184223935Y-103848109D01*
X184215769Y-103856289D01*
X184211929Y-103862519D01*
X184211928Y-103862520D01*
X184160953Y-103945216D01*
X184108180Y-103992710D01*
X184053693Y-104005100D01*
X183219350Y-104005100D01*
X183215425Y-104005596D01*
X183215422Y-104005596D01*
X183109767Y-104018943D01*
X183109765Y-104018943D01*
X183101908Y-104019936D01*
X183094542Y-104022852D01*
X183086860Y-104024825D01*
X183086533Y-104023551D01*
X183052200Y-104030100D01*
X182878428Y-104030100D01*
X182820761Y-104037078D01*
X182796692Y-104039991D01*
X182796691Y-104039991D01*
X182788653Y-104040964D01*
X182729240Y-104064487D01*
X182676041Y-104073151D01*
X182665870Y-104072600D01*
X182593315Y-104072600D01*
X182578076Y-104077075D01*
X182576871Y-104078465D01*
X182575200Y-104086148D01*
X182575200Y-104090214D01*
X182555198Y-104158335D01*
X182538293Y-104179312D01*
X182535122Y-104182483D01*
X182528278Y-104187678D01*
X182437087Y-104307817D01*
X182433925Y-104315804D01*
X182430974Y-104321041D01*
X182380108Y-104370570D01*
X182310540Y-104384737D01*
X182244355Y-104359043D01*
X182211426Y-104321041D01*
X182208475Y-104315804D01*
X182205313Y-104307817D01*
X182114122Y-104187678D01*
X182107278Y-104182483D01*
X182104107Y-104179312D01*
X182070080Y-104117000D01*
X182067285Y-104091006D01*
X182062725Y-104075477D01*
X182061335Y-104074272D01*
X182053652Y-104072601D01*
X181976532Y-104072601D01*
X181966361Y-104073152D01*
X181913163Y-104064488D01*
X181853747Y-104040964D01*
X181763972Y-104030100D01*
X181576002Y-104030100D01*
X181544667Y-104026141D01*
X181516633Y-104018943D01*
X181462719Y-104005100D01*
X180746876Y-104005100D01*
X180678755Y-103985098D01*
X180639101Y-103944372D01*
X180611497Y-103898792D01*
X180491608Y-103778903D01*
X180346583Y-103691073D01*
X180339336Y-103688802D01*
X180339334Y-103688801D01*
X180269419Y-103666891D01*
X180184794Y-103640371D01*
X180112193Y-103633700D01*
X180109295Y-103633700D01*
X179780342Y-103633701D01*
X179450208Y-103633701D01*
X179447350Y-103633964D01*
X179447341Y-103633964D01*
X179411957Y-103637215D01*
X179377606Y-103640371D01*
X179371228Y-103642370D01*
X179371227Y-103642370D01*
X179223066Y-103688801D01*
X179223064Y-103688802D01*
X179215817Y-103691073D01*
X179070792Y-103778903D01*
X178977900Y-103871795D01*
X178915588Y-103905821D01*
X178888805Y-103908700D01*
X178626983Y-103908700D01*
X178558862Y-103888698D01*
X178537965Y-103871873D01*
X178529072Y-103862995D01*
X178451911Y-103785969D01*
X178408054Y-103758935D01*
X178314127Y-103701037D01*
X178314125Y-103701036D01*
X178307897Y-103697197D01*
X178147324Y-103643937D01*
X178140488Y-103643237D01*
X178140485Y-103643236D01*
X178090403Y-103638105D01*
X178047407Y-103633700D01*
X177751500Y-103633700D01*
X177450994Y-103633701D01*
X177447750Y-103634038D01*
X177447742Y-103634038D01*
X177403320Y-103638647D01*
X177349828Y-103644197D01*
X177189348Y-103697737D01*
X177045489Y-103786760D01*
X176925969Y-103906489D01*
X176923057Y-103911213D01*
X176865735Y-103951855D01*
X176824769Y-103958700D01*
X174711281Y-103958700D01*
X174643160Y-103938698D01*
X174622186Y-103921795D01*
X174447144Y-103746753D01*
X174413118Y-103684441D01*
X174418183Y-103613626D01*
X174460730Y-103556790D01*
X174484088Y-103542957D01*
X174608982Y-103486171D01*
X174619324Y-103480224D01*
X174781997Y-103364832D01*
X174791025Y-103357039D01*
X174928942Y-103212969D01*
X174936338Y-103203604D01*
X175044521Y-103036059D01*
X175050017Y-103025455D01*
X175124561Y-102840488D01*
X175127955Y-102829030D01*
X175166457Y-102631872D01*
X175167534Y-102623009D01*
X175167600Y-102620300D01*
X175167600Y-102515915D01*
X175163125Y-102500676D01*
X175161735Y-102499471D01*
X175154052Y-102497800D01*
X173931600Y-102497800D01*
X173863479Y-102477798D01*
X173816986Y-102424142D01*
X173805600Y-102371800D01*
X173805600Y-101971685D01*
X174313600Y-101971685D01*
X174318075Y-101986924D01*
X174319465Y-101988129D01*
X174327148Y-101989800D01*
X175149485Y-101989800D01*
X175164724Y-101985325D01*
X175165929Y-101983935D01*
X175167600Y-101976252D01*
X175167600Y-101918968D01*
X175167315Y-101912992D01*
X175153129Y-101764306D01*
X175150870Y-101752572D01*
X175094728Y-101561201D01*
X175090298Y-101550125D01*
X174998981Y-101372822D01*
X174992531Y-101362776D01*
X174869338Y-101205943D01*
X174861101Y-101197294D01*
X174710477Y-101066588D01*
X174700753Y-101059653D01*
X174528133Y-100959790D01*
X174517269Y-100954816D01*
X174328873Y-100889393D01*
X174327884Y-100889152D01*
X174317592Y-100890620D01*
X174313600Y-100904185D01*
X174313600Y-101971685D01*
X173805600Y-101971685D01*
X173805600Y-100908398D01*
X173801627Y-100894867D01*
X173792201Y-100893512D01*
X173703063Y-100914994D01*
X173691768Y-100918883D01*
X173510218Y-101001429D01*
X173499876Y-101007376D01*
X173337203Y-101122768D01*
X173328175Y-101130561D01*
X173190258Y-101274631D01*
X173182859Y-101283999D01*
X173160591Y-101318486D01*
X173106835Y-101364863D01*
X173036540Y-101374816D01*
X172972023Y-101345183D01*
X172955654Y-101327970D01*
X172863882Y-101211138D01*
X172863878Y-101211133D01*
X172860176Y-101206421D01*
X172802901Y-101156720D01*
X172706102Y-101072721D01*
X172706097Y-101072717D01*
X172701571Y-101068790D01*
X172519801Y-100963634D01*
X172348605Y-100904185D01*
X172327091Y-100896714D01*
X172327089Y-100896714D01*
X172321426Y-100894747D01*
X172315491Y-100893886D01*
X172315489Y-100893886D01*
X172119544Y-100865475D01*
X172119541Y-100865475D01*
X172113604Y-100864614D01*
X171903833Y-100874323D01*
X171779926Y-100904185D01*
X171705515Y-100922118D01*
X171705513Y-100922119D01*
X171699682Y-100923524D01*
X171694224Y-100926006D01*
X171694220Y-100926007D01*
X171577870Y-100978908D01*
X171508519Y-101010440D01*
X171337240Y-101131937D01*
X171314511Y-101155680D01*
X171239427Y-101234114D01*
X171177872Y-101269490D01*
X171106962Y-101265971D01*
X171049212Y-101224675D01*
X171041274Y-101213299D01*
X171001766Y-101149455D01*
X170877911Y-101025816D01*
X170728934Y-100933986D01*
X170671676Y-100914994D01*
X170569359Y-100881056D01*
X170569357Y-100881055D01*
X170562828Y-100878890D01*
X170459466Y-100868300D01*
X169659734Y-100868300D01*
X169656488Y-100868637D01*
X169656484Y-100868637D01*
X169561939Y-100878447D01*
X169561935Y-100878448D01*
X169555081Y-100879159D01*
X169548545Y-100881340D01*
X169548543Y-100881340D01*
X169447670Y-100914994D01*
X169389071Y-100934544D01*
X169240255Y-101026634D01*
X169116616Y-101150489D01*
X169024786Y-101299466D01*
X169022481Y-101306414D01*
X169022481Y-101306415D01*
X169003787Y-101362776D01*
X168969690Y-101465572D01*
X168959100Y-101568934D01*
X168959100Y-102918666D01*
X168969959Y-103023319D01*
X169025344Y-103189329D01*
X169117434Y-103338145D01*
X169241289Y-103461784D01*
X169390266Y-103553614D01*
X169397214Y-103555919D01*
X169397215Y-103555919D01*
X169549841Y-103606544D01*
X169549843Y-103606545D01*
X169556372Y-103608710D01*
X169659734Y-103619300D01*
X170459466Y-103619300D01*
X170482276Y-103616933D01*
X170552096Y-103629797D01*
X170584375Y-103653165D01*
X171163677Y-104232468D01*
X171689595Y-104758386D01*
X171723621Y-104820698D01*
X171726500Y-104847481D01*
X171726500Y-105783104D01*
X171706498Y-105851225D01*
X171666803Y-105890248D01*
X171596489Y-105933760D01*
X171476969Y-106053489D01*
X171473129Y-106059719D01*
X171473128Y-106059720D01*
X171393686Y-106188599D01*
X171388197Y-106197503D01*
X171334937Y-106358076D01*
X171334237Y-106364912D01*
X171334236Y-106364915D01*
X171331679Y-106389871D01*
X171324700Y-106457993D01*
X171324701Y-107054406D01*
X171325038Y-107057650D01*
X171325038Y-107057658D01*
X171328595Y-107091936D01*
X171335197Y-107155572D01*
X171388737Y-107316052D01*
X171477760Y-107459911D01*
X171597489Y-107579431D01*
X171741503Y-107668203D01*
X171902076Y-107721463D01*
X171908912Y-107722163D01*
X171908915Y-107722164D01*
X171958997Y-107727295D01*
X172001993Y-107731700D01*
X172162119Y-107731700D01*
X172230240Y-107751702D01*
X172251214Y-107768605D01*
X172896156Y-108413547D01*
X172903547Y-108421669D01*
X172907614Y-108428077D01*
X172913389Y-108433500D01*
X172913393Y-108433505D01*
X172956623Y-108474101D01*
X172959465Y-108476856D01*
X172978929Y-108496320D01*
X172982059Y-108498748D01*
X172982141Y-108498820D01*
X172991049Y-108506429D01*
X173022818Y-108536262D01*
X173029765Y-108540081D01*
X173040232Y-108545835D01*
X173056761Y-108556692D01*
X173072464Y-108568873D01*
X173101881Y-108581603D01*
X173112458Y-108586180D01*
X173123118Y-108591402D01*
X173161308Y-108612397D01*
X173180564Y-108617341D01*
X173199253Y-108623740D01*
X173217504Y-108631638D01*
X173260559Y-108638457D01*
X173272163Y-108640860D01*
X173314381Y-108651700D01*
X173334256Y-108651700D01*
X173353966Y-108653251D01*
X173373596Y-108656360D01*
X173381488Y-108655614D01*
X173416979Y-108652259D01*
X173428837Y-108651700D01*
X180909697Y-108651700D01*
X180920657Y-108652217D01*
X180928067Y-108653873D01*
X180935993Y-108653624D01*
X180935994Y-108653624D01*
X180995241Y-108651762D01*
X180999199Y-108651700D01*
X181026750Y-108651700D01*
X181030673Y-108651204D01*
X181030788Y-108651197D01*
X181042468Y-108650277D01*
X181086027Y-108648909D01*
X181105116Y-108643363D01*
X181124462Y-108639356D01*
X181144192Y-108636864D01*
X181184723Y-108620816D01*
X181195924Y-108616981D01*
X181237790Y-108604818D01*
X181254899Y-108594700D01*
X181272645Y-108586005D01*
X181291132Y-108578686D01*
X181326391Y-108553069D01*
X181336310Y-108546554D01*
X181366990Y-108528410D01*
X181366994Y-108528407D01*
X181373820Y-108524370D01*
X181387870Y-108510320D01*
X181402904Y-108497479D01*
X181412573Y-108490454D01*
X181418987Y-108485794D01*
X181431409Y-108470778D01*
X181437692Y-108463184D01*
X181496526Y-108423446D01*
X181534775Y-108417500D01*
X181752205Y-108417499D01*
X181768606Y-108417499D01*
X181771850Y-108417162D01*
X181771858Y-108417162D01*
X181819565Y-108412212D01*
X181869772Y-108407003D01*
X182030252Y-108353463D01*
X182174111Y-108264440D01*
X182179284Y-108259258D01*
X182185021Y-108254711D01*
X182186622Y-108256731D01*
X182238280Y-108228454D01*
X182309101Y-108233444D01*
X182354211Y-108262375D01*
X182357825Y-108265983D01*
X182369240Y-108274998D01*
X182502280Y-108357004D01*
X182515461Y-108363151D01*
X182664214Y-108412491D01*
X182677590Y-108415358D01*
X182768497Y-108424672D01*
X182773526Y-108424929D01*
X182788524Y-108420525D01*
X182789729Y-108419135D01*
X182791400Y-108411452D01*
X182791400Y-108406885D01*
X183299400Y-108406885D01*
X183303875Y-108422124D01*
X183305265Y-108423329D01*
X183312948Y-108425000D01*
X183315838Y-108425000D01*
X183322353Y-108424663D01*
X183414457Y-108415106D01*
X183427856Y-108412212D01*
X183576507Y-108362619D01*
X183589686Y-108356445D01*
X183722573Y-108274212D01*
X183733974Y-108265176D01*
X183844386Y-108154571D01*
X183853398Y-108143160D01*
X183935404Y-108010120D01*
X183941551Y-107996939D01*
X183990891Y-107848186D01*
X183993758Y-107834810D01*
X184003072Y-107743903D01*
X184003400Y-107737487D01*
X184003400Y-107714115D01*
X183998925Y-107698876D01*
X183997535Y-107697671D01*
X183989852Y-107696000D01*
X183317515Y-107696000D01*
X183302276Y-107700475D01*
X183301071Y-107701865D01*
X183299400Y-107709548D01*
X183299400Y-108406885D01*
X182791400Y-108406885D01*
X182791400Y-107314000D01*
X182811402Y-107245879D01*
X182865058Y-107199386D01*
X182917400Y-107188000D01*
X183985285Y-107188000D01*
X184000524Y-107183525D01*
X184001729Y-107182135D01*
X184003400Y-107174452D01*
X184003400Y-107146562D01*
X184003063Y-107140047D01*
X183993506Y-107047943D01*
X183990612Y-107034544D01*
X183941019Y-106885893D01*
X183934845Y-106872714D01*
X183852612Y-106739827D01*
X183843576Y-106728426D01*
X183732971Y-106618014D01*
X183721560Y-106609002D01*
X183588520Y-106526996D01*
X183575339Y-106520849D01*
X183426586Y-106471509D01*
X183413210Y-106468642D01*
X183396943Y-106466975D01*
X183331216Y-106440133D01*
X183290434Y-106382018D01*
X183287546Y-106311080D01*
X183323468Y-106249842D01*
X183363403Y-106224479D01*
X183489708Y-106174472D01*
X183504548Y-106166110D01*
X183612635Y-106084067D01*
X183624667Y-106072035D01*
X183706710Y-105963948D01*
X183715072Y-105949108D01*
X183765208Y-105822477D01*
X183769159Y-105806919D01*
X183778745Y-105727713D01*
X183779200Y-105720161D01*
X183779199Y-105541047D01*
X183778744Y-105533488D01*
X183769159Y-105454280D01*
X183765207Y-105438719D01*
X183761154Y-105428482D01*
X183754675Y-105357782D01*
X183787448Y-105294802D01*
X183849068Y-105259539D01*
X183878306Y-105256100D01*
X184207898Y-105256100D01*
X184276019Y-105276102D01*
X184296915Y-105292926D01*
X184303189Y-105299189D01*
X184336289Y-105332231D01*
X184342519Y-105336071D01*
X184342520Y-105336072D01*
X184468026Y-105413435D01*
X184480303Y-105421003D01*
X184640876Y-105474263D01*
X184647712Y-105474963D01*
X184647715Y-105474964D01*
X184697797Y-105480095D01*
X184740793Y-105484500D01*
X185036700Y-105484500D01*
X185337206Y-105484499D01*
X185340450Y-105484162D01*
X185340458Y-105484162D01*
X185384880Y-105479553D01*
X185438372Y-105474003D01*
X185598852Y-105420463D01*
X185742711Y-105331440D01*
X185747884Y-105326258D01*
X185747889Y-105326254D01*
X185851762Y-105222199D01*
X185914044Y-105188119D01*
X185984864Y-105193122D01*
X186029727Y-105225901D01*
X186031558Y-105224070D01*
X186147357Y-105339869D01*
X186159226Y-105349176D01*
X186292812Y-105430079D01*
X186306557Y-105436285D01*
X186456444Y-105483256D01*
X186469494Y-105485869D01*
X186533321Y-105491734D01*
X186539109Y-105492000D01*
X186595685Y-105492000D01*
X186610924Y-105487525D01*
X186612129Y-105486135D01*
X186613800Y-105478452D01*
X186613800Y-105473884D01*
X187121800Y-105473884D01*
X187126275Y-105489123D01*
X187127665Y-105490328D01*
X187135348Y-105491999D01*
X187196505Y-105491999D01*
X187202254Y-105491736D01*
X187266115Y-105485868D01*
X187279151Y-105483257D01*
X187429043Y-105436285D01*
X187442788Y-105430079D01*
X187576374Y-105349176D01*
X187588243Y-105339869D01*
X187698669Y-105229443D01*
X187707976Y-105217574D01*
X187788879Y-105083988D01*
X187795085Y-105070243D01*
X187842056Y-104920356D01*
X187844669Y-104907306D01*
X187849713Y-104852414D01*
X187846325Y-104840876D01*
X187844935Y-104839671D01*
X187837252Y-104838000D01*
X187139915Y-104838000D01*
X187124676Y-104842475D01*
X187123471Y-104843865D01*
X187121800Y-104851548D01*
X187121800Y-105473884D01*
X186613800Y-105473884D01*
X186613800Y-104456000D01*
X186633802Y-104387879D01*
X186687458Y-104341386D01*
X186739800Y-104330000D01*
X187832684Y-104330000D01*
X187847923Y-104325525D01*
X187849128Y-104324135D01*
X187850091Y-104319706D01*
X187844668Y-104260685D01*
X187842057Y-104247649D01*
X187795085Y-104097757D01*
X187788879Y-104084012D01*
X187707976Y-103950426D01*
X187698669Y-103938557D01*
X187623107Y-103862995D01*
X187589081Y-103800683D01*
X187594146Y-103729868D01*
X187636693Y-103673032D01*
X187703213Y-103648221D01*
X187712202Y-103647900D01*
X188494554Y-103647900D01*
X188562675Y-103667902D01*
X188609168Y-103721558D01*
X188620550Y-103774910D01*
X188618500Y-104030556D01*
X188618398Y-104043247D01*
X188600177Y-104107509D01*
X188574924Y-104149206D01*
X188568715Y-104162957D01*
X188521744Y-104312844D01*
X188519131Y-104325894D01*
X188513266Y-104389721D01*
X188513000Y-104395509D01*
X188513000Y-104452085D01*
X188517475Y-104467324D01*
X188518865Y-104468529D01*
X188526548Y-104470200D01*
X188614973Y-104470200D01*
X188610898Y-104978200D01*
X188531116Y-104978200D01*
X188515877Y-104982675D01*
X188514672Y-104984065D01*
X188513001Y-104991748D01*
X188513001Y-105052905D01*
X188513264Y-105058654D01*
X188519132Y-105122515D01*
X188521743Y-105135551D01*
X188568715Y-105285443D01*
X188574922Y-105299189D01*
X188589380Y-105323062D01*
X188607600Y-105389344D01*
X188599565Y-106391076D01*
X188581448Y-108649729D01*
X188577178Y-109182000D01*
X188556630Y-109249958D01*
X188502603Y-109296019D01*
X188451531Y-109306989D01*
X164845346Y-109372052D01*
X164777172Y-109352237D01*
X164730531Y-109298710D01*
X164719000Y-109246052D01*
X164719000Y-100626000D01*
X164739002Y-100557879D01*
X164792658Y-100511386D01*
X164845000Y-100500000D01*
X188519804Y-100500000D01*
X188587925Y-100520002D01*
G37*
%TD.AperFunction*%
%TA.AperFunction,Conductor*%
G36*
X173117393Y-104203800D02*
G01*
X173164828Y-104233619D01*
X173902758Y-104971549D01*
X173910147Y-104979669D01*
X173914214Y-104986077D01*
X173919992Y-104991503D01*
X173963207Y-105032085D01*
X173966049Y-105034840D01*
X173985529Y-105054320D01*
X173988659Y-105056748D01*
X173988741Y-105056820D01*
X173997649Y-105064429D01*
X174029418Y-105094262D01*
X174036365Y-105098081D01*
X174046832Y-105103835D01*
X174063361Y-105114692D01*
X174079064Y-105126873D01*
X174119057Y-105144179D01*
X174129713Y-105149400D01*
X174160955Y-105166576D01*
X174160964Y-105166580D01*
X174167908Y-105170397D01*
X174175584Y-105172368D01*
X174175587Y-105172369D01*
X174187160Y-105175340D01*
X174205865Y-105181744D01*
X174224104Y-105189637D01*
X174267148Y-105196454D01*
X174278771Y-105198862D01*
X174313304Y-105207729D01*
X174313305Y-105207729D01*
X174320981Y-105209700D01*
X174340856Y-105209700D01*
X174360566Y-105211251D01*
X174380196Y-105214360D01*
X174423580Y-105210259D01*
X174435437Y-105209700D01*
X176824757Y-105209700D01*
X176892878Y-105229702D01*
X176923205Y-105257166D01*
X176926760Y-105262911D01*
X176931944Y-105268086D01*
X176936490Y-105273822D01*
X176934469Y-105275423D01*
X176962746Y-105327080D01*
X176957756Y-105397901D01*
X176928825Y-105443011D01*
X176925217Y-105446625D01*
X176916202Y-105458040D01*
X176834196Y-105591080D01*
X176828049Y-105604261D01*
X176778709Y-105753014D01*
X176775842Y-105766390D01*
X176766528Y-105857297D01*
X176766271Y-105862326D01*
X176770675Y-105877324D01*
X176772065Y-105878529D01*
X176779748Y-105880200D01*
X178701295Y-105880200D01*
X178769416Y-105900202D01*
X178783807Y-105910975D01*
X178804065Y-105928529D01*
X178811748Y-105930200D01*
X179909200Y-105930200D01*
X179977321Y-105950202D01*
X180023814Y-106003858D01*
X180035200Y-106056200D01*
X180035200Y-107074084D01*
X180039675Y-107089323D01*
X180041065Y-107090528D01*
X180048748Y-107092199D01*
X180109905Y-107092199D01*
X180115654Y-107091936D01*
X180179515Y-107086068D01*
X180192551Y-107083457D01*
X180342443Y-107036485D01*
X180363116Y-107027151D01*
X180363958Y-107029016D01*
X180422492Y-107013517D01*
X180490053Y-107035334D01*
X180535094Y-107090215D01*
X180544582Y-107143793D01*
X180544900Y-107143793D01*
X180544900Y-107274700D01*
X180524898Y-107342821D01*
X180471242Y-107389314D01*
X180418900Y-107400700D01*
X174866188Y-107400700D01*
X174798067Y-107380698D01*
X174751574Y-107327042D01*
X174741470Y-107256768D01*
X174746595Y-107235033D01*
X174770690Y-107162389D01*
X174773558Y-107149010D01*
X174782872Y-107058103D01*
X174783200Y-107051687D01*
X174783200Y-107028315D01*
X174778725Y-107013076D01*
X174777335Y-107011871D01*
X174769652Y-107010200D01*
X173697200Y-107010200D01*
X173629079Y-106990198D01*
X173582586Y-106936542D01*
X173571200Y-106884200D01*
X173571200Y-106484085D01*
X174079200Y-106484085D01*
X174083675Y-106499324D01*
X174085065Y-106500529D01*
X174092748Y-106502200D01*
X174765085Y-106502200D01*
X174780324Y-106497725D01*
X174781529Y-106496335D01*
X174783200Y-106488652D01*
X174783200Y-106460762D01*
X174782863Y-106454247D01*
X174777715Y-106404638D01*
X176766200Y-106404638D01*
X176766537Y-106411153D01*
X176776094Y-106503257D01*
X176778988Y-106516656D01*
X176828581Y-106665307D01*
X176834755Y-106678486D01*
X176916988Y-106811373D01*
X176926024Y-106822774D01*
X177036629Y-106933186D01*
X177048040Y-106942198D01*
X177181080Y-107024204D01*
X177194261Y-107030351D01*
X177343014Y-107079691D01*
X177356390Y-107082558D01*
X177447297Y-107091872D01*
X177453713Y-107092200D01*
X177477085Y-107092200D01*
X177492324Y-107087725D01*
X177493529Y-107086335D01*
X177495200Y-107078652D01*
X177495200Y-107074085D01*
X178003200Y-107074085D01*
X178007675Y-107089324D01*
X178009065Y-107090529D01*
X178016748Y-107092200D01*
X178044638Y-107092200D01*
X178051153Y-107091863D01*
X178143257Y-107082306D01*
X178156656Y-107079412D01*
X178305307Y-107029819D01*
X178318486Y-107023645D01*
X178451373Y-106941412D01*
X178462774Y-106932376D01*
X178573186Y-106821771D01*
X178582198Y-106810360D01*
X178652720Y-106695951D01*
X178705492Y-106648458D01*
X178775563Y-106637034D01*
X178840687Y-106665308D01*
X178867756Y-106696795D01*
X178941024Y-106817774D01*
X178950331Y-106829643D01*
X179060757Y-106940069D01*
X179072626Y-106949376D01*
X179206212Y-107030279D01*
X179219957Y-107036485D01*
X179369844Y-107083456D01*
X179382894Y-107086069D01*
X179446721Y-107091934D01*
X179452509Y-107092200D01*
X179509085Y-107092200D01*
X179524324Y-107087725D01*
X179525529Y-107086335D01*
X179527200Y-107078652D01*
X179527200Y-106456315D01*
X179522725Y-106441076D01*
X179521335Y-106439871D01*
X179513652Y-106438200D01*
X178829105Y-106438200D01*
X178760984Y-106418198D01*
X178746593Y-106407425D01*
X178726335Y-106389871D01*
X178718652Y-106388200D01*
X178021315Y-106388200D01*
X178006076Y-106392675D01*
X178004871Y-106394065D01*
X178003200Y-106401748D01*
X178003200Y-107074085D01*
X177495200Y-107074085D01*
X177495200Y-106406315D01*
X177490725Y-106391076D01*
X177489335Y-106389871D01*
X177481652Y-106388200D01*
X176784315Y-106388200D01*
X176769076Y-106392675D01*
X176767871Y-106394065D01*
X176766200Y-106401748D01*
X176766200Y-106404638D01*
X174777715Y-106404638D01*
X174773306Y-106362143D01*
X174770412Y-106348744D01*
X174720819Y-106200093D01*
X174714645Y-106186914D01*
X174632412Y-106054027D01*
X174623376Y-106042626D01*
X174512771Y-105932214D01*
X174501360Y-105923202D01*
X174368320Y-105841196D01*
X174355139Y-105835049D01*
X174206386Y-105785709D01*
X174193010Y-105782842D01*
X174102103Y-105773528D01*
X174097074Y-105773271D01*
X174082076Y-105777675D01*
X174080871Y-105779065D01*
X174079200Y-105786748D01*
X174079200Y-106484085D01*
X173571200Y-106484085D01*
X173571200Y-105791315D01*
X173566725Y-105776076D01*
X173565335Y-105774871D01*
X173557652Y-105773200D01*
X173554762Y-105773200D01*
X173548247Y-105773537D01*
X173456143Y-105783094D01*
X173442744Y-105785988D01*
X173294093Y-105835581D01*
X173280915Y-105841754D01*
X173169803Y-105910513D01*
X173101351Y-105929351D01*
X173033582Y-105908190D01*
X172988010Y-105853749D01*
X172977500Y-105803369D01*
X172977500Y-104613899D01*
X172978017Y-104602938D01*
X172979672Y-104595533D01*
X172977562Y-104528377D01*
X172977500Y-104524420D01*
X172977500Y-104496850D01*
X172977003Y-104492915D01*
X172976996Y-104492805D01*
X172976078Y-104481134D01*
X172974958Y-104445500D01*
X172974709Y-104437573D01*
X172969163Y-104418484D01*
X172965156Y-104399138D01*
X172962664Y-104379408D01*
X172958583Y-104369101D01*
X172958356Y-104366625D01*
X172957774Y-104364358D01*
X172958140Y-104364264D01*
X172952101Y-104298401D01*
X172984872Y-104235420D01*
X173046490Y-104200154D01*
X173117393Y-104203800D01*
G37*
%TD.AperFunction*%
%TA.AperFunction,Conductor*%
G36*
X182398045Y-104902157D02*
G01*
X182430974Y-104940159D01*
X182433925Y-104945396D01*
X182437087Y-104953383D01*
X182528278Y-105073522D01*
X182535122Y-105078717D01*
X182538293Y-105081888D01*
X182572320Y-105144200D01*
X182575200Y-105170986D01*
X182575200Y-106170484D01*
X182579675Y-106185723D01*
X182581065Y-106186928D01*
X182588748Y-106188599D01*
X182664338Y-106188599D01*
X182710722Y-106197447D01*
X182768487Y-106220318D01*
X182824461Y-106263993D01*
X182847937Y-106330996D01*
X182831461Y-106400054D01*
X182780265Y-106449243D01*
X182735107Y-106462797D01*
X182676343Y-106468894D01*
X182662944Y-106471788D01*
X182514293Y-106521381D01*
X182501114Y-106527555D01*
X182368227Y-106609788D01*
X182356827Y-106618823D01*
X182354176Y-106621479D01*
X182351915Y-106622716D01*
X182351089Y-106623371D01*
X182350977Y-106623230D01*
X182291894Y-106655560D01*
X182221074Y-106650558D01*
X182184916Y-106627365D01*
X182184037Y-106628478D01*
X182178291Y-106623940D01*
X182173111Y-106618769D01*
X182166883Y-106614930D01*
X182166878Y-106614926D01*
X182069083Y-106554644D01*
X182021590Y-106501872D01*
X182009200Y-106447385D01*
X182009200Y-106294634D01*
X182029202Y-106226513D01*
X182042974Y-106214580D01*
X182040096Y-106212086D01*
X182065529Y-106182735D01*
X182067200Y-106175052D01*
X182067200Y-106170986D01*
X182087202Y-106102865D01*
X182104107Y-106081888D01*
X182107278Y-106078717D01*
X182114122Y-106073522D01*
X182205313Y-105953383D01*
X182251954Y-105835581D01*
X182257855Y-105820677D01*
X182257856Y-105820675D01*
X182260836Y-105813147D01*
X182271700Y-105723372D01*
X182271700Y-105537828D01*
X182260836Y-105448053D01*
X182257560Y-105439777D01*
X182212931Y-105327059D01*
X182205313Y-105307817D01*
X182200120Y-105300975D01*
X182200118Y-105300972D01*
X182128622Y-105206780D01*
X182103368Y-105140427D01*
X182117996Y-105070953D01*
X182128622Y-105054420D01*
X182200118Y-104960228D01*
X182200121Y-104960223D01*
X182205313Y-104953383D01*
X182208475Y-104945396D01*
X182211426Y-104940159D01*
X182262292Y-104890630D01*
X182331860Y-104876463D01*
X182398045Y-104902157D01*
G37*
%TD.AperFunction*%
%TD*%
%TA.AperFunction,Conductor*%
%TO.N,GND*%
G36*
X195134121Y-122020502D02*
G01*
X195180614Y-122074158D01*
X195192000Y-122126500D01*
X195192000Y-122552885D01*
X195196475Y-122568124D01*
X195197865Y-122569329D01*
X195205548Y-122571000D01*
X197928000Y-122571000D01*
X197996121Y-122591002D01*
X198042614Y-122644658D01*
X198054000Y-122697000D01*
X198054000Y-123989884D01*
X198058475Y-124005123D01*
X198059865Y-124006328D01*
X198067548Y-124007999D01*
X199374000Y-124007999D01*
X199442121Y-124028001D01*
X199488614Y-124081657D01*
X199500000Y-124133999D01*
X199500000Y-124915559D01*
X199479998Y-124983680D01*
X199426342Y-125030173D01*
X199373468Y-125041558D01*
X194105268Y-125019329D01*
X194037233Y-124999040D01*
X193990967Y-124945188D01*
X193979800Y-124893330D01*
X193979800Y-123544669D01*
X195192001Y-123544669D01*
X195192371Y-123551490D01*
X195197895Y-123602352D01*
X195201521Y-123617604D01*
X195246676Y-123738054D01*
X195255214Y-123753649D01*
X195331715Y-123855724D01*
X195344276Y-123868285D01*
X195446351Y-123944786D01*
X195461946Y-123953324D01*
X195582394Y-123998478D01*
X195597649Y-124002105D01*
X195648514Y-124007631D01*
X195655328Y-124008000D01*
X197527885Y-124008000D01*
X197543124Y-124003525D01*
X197544329Y-124002135D01*
X197546000Y-123994452D01*
X197546000Y-123097115D01*
X197541525Y-123081876D01*
X197540135Y-123080671D01*
X197532452Y-123079000D01*
X195210116Y-123079000D01*
X195194877Y-123083475D01*
X195193672Y-123084865D01*
X195192001Y-123092548D01*
X195192001Y-123544669D01*
X193979800Y-123544669D01*
X193979800Y-122126500D01*
X193999802Y-122058379D01*
X194053458Y-122011886D01*
X194105800Y-122000500D01*
X195066000Y-122000500D01*
X195134121Y-122020502D01*
G37*
%TD.AperFunction*%
%TA.AperFunction,Conductor*%
G36*
X199374529Y-114195667D02*
G01*
X199442566Y-114215955D01*
X199488833Y-114269806D01*
X199500000Y-114321666D01*
X199500000Y-115866000D01*
X199479998Y-115934121D01*
X199426342Y-115980614D01*
X199374000Y-115992000D01*
X198072115Y-115992000D01*
X198056876Y-115996475D01*
X198055671Y-115997865D01*
X198054000Y-116005548D01*
X198054000Y-117303000D01*
X198033998Y-117371121D01*
X197980342Y-117417614D01*
X197928000Y-117429000D01*
X195210116Y-117429000D01*
X195194877Y-117433475D01*
X195193672Y-117434865D01*
X195192001Y-117442548D01*
X195192001Y-117873500D01*
X195171999Y-117941621D01*
X195118343Y-117988114D01*
X195066001Y-117999500D01*
X194105800Y-117999500D01*
X194037679Y-117979498D01*
X193991186Y-117925842D01*
X193979800Y-117873500D01*
X193979800Y-116902885D01*
X195192000Y-116902885D01*
X195196475Y-116918124D01*
X195197865Y-116919329D01*
X195205548Y-116921000D01*
X197527885Y-116921000D01*
X197543124Y-116916525D01*
X197544329Y-116915135D01*
X197546000Y-116907452D01*
X197546000Y-116010116D01*
X197541525Y-115994877D01*
X197540135Y-115993672D01*
X197532452Y-115992001D01*
X195655331Y-115992001D01*
X195648510Y-115992371D01*
X195597648Y-115997895D01*
X195582396Y-116001521D01*
X195461946Y-116046676D01*
X195446351Y-116055214D01*
X195344276Y-116131715D01*
X195331715Y-116144276D01*
X195255214Y-116246351D01*
X195246676Y-116261946D01*
X195201522Y-116382394D01*
X195197895Y-116397649D01*
X195192369Y-116448514D01*
X195192000Y-116455328D01*
X195192000Y-116902885D01*
X193979800Y-116902885D01*
X193979800Y-114299531D01*
X193999802Y-114231410D01*
X194053458Y-114184917D01*
X194106329Y-114173532D01*
X199374529Y-114195667D01*
G37*
%TD.AperFunction*%
%TD*%
%TA.AperFunction,Conductor*%
%TO.N,GND*%
G36*
X105910921Y-122020502D02*
G01*
X105957414Y-122074158D01*
X105968800Y-122126500D01*
X105968800Y-125324600D01*
X105948798Y-125392721D01*
X105895142Y-125439214D01*
X105842800Y-125450600D01*
X100626000Y-125450600D01*
X100557879Y-125430598D01*
X100511386Y-125376942D01*
X100500000Y-125324600D01*
X100500000Y-124134000D01*
X100520002Y-124065879D01*
X100573658Y-124019386D01*
X100626000Y-124008000D01*
X101927885Y-124008000D01*
X101943124Y-124003525D01*
X101944329Y-124002135D01*
X101946000Y-123994452D01*
X101946000Y-123989884D01*
X102454000Y-123989884D01*
X102458475Y-124005123D01*
X102459865Y-124006328D01*
X102467548Y-124007999D01*
X104344669Y-124007999D01*
X104351490Y-124007629D01*
X104402352Y-124002105D01*
X104417604Y-123998479D01*
X104538054Y-123953324D01*
X104553649Y-123944786D01*
X104655724Y-123868285D01*
X104668285Y-123855724D01*
X104744786Y-123753649D01*
X104753324Y-123738054D01*
X104798478Y-123617606D01*
X104802105Y-123602351D01*
X104807631Y-123551486D01*
X104808000Y-123544672D01*
X104808000Y-123097115D01*
X104803525Y-123081876D01*
X104802135Y-123080671D01*
X104794452Y-123079000D01*
X102472115Y-123079000D01*
X102456876Y-123083475D01*
X102455671Y-123084865D01*
X102454000Y-123092548D01*
X102454000Y-123989884D01*
X101946000Y-123989884D01*
X101946000Y-122697000D01*
X101966002Y-122628879D01*
X102019658Y-122582386D01*
X102072000Y-122571000D01*
X104789884Y-122571000D01*
X104805123Y-122566525D01*
X104806328Y-122565135D01*
X104807999Y-122557452D01*
X104807999Y-122126500D01*
X104828001Y-122058379D01*
X104881657Y-122011886D01*
X104933999Y-122000500D01*
X105842800Y-122000500D01*
X105910921Y-122020502D01*
G37*
%TD.AperFunction*%
%TA.AperFunction,Conductor*%
G36*
X105910921Y-114777202D02*
G01*
X105957414Y-114830858D01*
X105968800Y-114883200D01*
X105968800Y-117873500D01*
X105948798Y-117941621D01*
X105895142Y-117988114D01*
X105842800Y-117999500D01*
X104934000Y-117999500D01*
X104865879Y-117979498D01*
X104819386Y-117925842D01*
X104808000Y-117873500D01*
X104808000Y-117447115D01*
X104803525Y-117431876D01*
X104802135Y-117430671D01*
X104794452Y-117429000D01*
X102072000Y-117429000D01*
X102003879Y-117408998D01*
X101957386Y-117355342D01*
X101946000Y-117303000D01*
X101946000Y-116902885D01*
X102454000Y-116902885D01*
X102458475Y-116918124D01*
X102459865Y-116919329D01*
X102467548Y-116921000D01*
X104789884Y-116921000D01*
X104805123Y-116916525D01*
X104806328Y-116915135D01*
X104807999Y-116907452D01*
X104807999Y-116455331D01*
X104807629Y-116448510D01*
X104802105Y-116397648D01*
X104798479Y-116382396D01*
X104753324Y-116261946D01*
X104744786Y-116246351D01*
X104668285Y-116144276D01*
X104655724Y-116131715D01*
X104553649Y-116055214D01*
X104538054Y-116046676D01*
X104417606Y-116001522D01*
X104402351Y-115997895D01*
X104351486Y-115992369D01*
X104344672Y-115992000D01*
X102472115Y-115992000D01*
X102456876Y-115996475D01*
X102455671Y-115997865D01*
X102454000Y-116005548D01*
X102454000Y-116902885D01*
X101946000Y-116902885D01*
X101946000Y-116010116D01*
X101941525Y-115994877D01*
X101940135Y-115993672D01*
X101932452Y-115992001D01*
X100626000Y-115992001D01*
X100557879Y-115971999D01*
X100511386Y-115918343D01*
X100500000Y-115866001D01*
X100500000Y-114883200D01*
X100520002Y-114815079D01*
X100573658Y-114768586D01*
X100626000Y-114757200D01*
X105842800Y-114757200D01*
X105910921Y-114777202D01*
G37*
%TD.AperFunction*%
%TD*%
M02*
