M48
; DRILL file {KiCad (6.0.1)} date Fri Feb 11 17:03:37 2022
; FORMAT={-:-/ absolute / metric / decimal}
; #@! TF.CreationDate,2022-02-11T17:03:37+00:00
; #@! TF.GenerationSoftware,Kicad,Pcbnew,(6.0.1)
; #@! TF.FileFunction,MixedPlating,1,2
FMAT,2
METRIC
; #@! TA.AperFunction,Plated,PTH,ViaDrill
T1C0.400
; #@! TA.AperFunction,Plated,PTH,ComponentDrill
T2C0.750
; #@! TA.AperFunction,NonPlated,NPTH,ComponentDrill
T3C2.200
%
G90
G05
T1
X101.016Y-124.816
X101.117Y-115.291
X102.997Y-115.392
X103.073Y-124.714
X105.359Y-124.663
X105.435Y-115.519
X105.435Y-122.961
X105.461Y-117.17
X111.658Y-136.779
X112.547Y-103.734
X112.624Y-105.842
X113.259Y-131.928
X113.513Y-136.855
X116.764Y-133.96
X118.186Y-136.728
X120.04Y-134.137
X120.523Y-131.75
X121.92Y-136.881
X124.384Y-134.188
X125.493Y-137.253
X126.238Y-131.699
X127.508Y-134.214
X130.378Y-133.477
X165.506Y-108.585
X167.869Y-101.194
X167.869Y-103.505
X169.418Y-106.985
X170.536Y-104.851
X170.815Y-108.56
X176.276Y-103.302
X176.301Y-101.092
X177.724Y-107.264
X178.816Y-103.226
X179.781Y-107.264
X181.305Y-103.149
X183.413Y-103.149
X184.328Y-107.391
X184.607Y-105.918
X185.014Y-101.041
X187.604Y-101.117
X188.163Y-133.528
X188.189Y-135.636
X188.239Y-104.597
X194.462Y-115.392
X194.488Y-117.17
X194.589Y-122.86
X194.589Y-124.409
X196.723Y-115.367
X196.952Y-124.536
X198.679Y-115.367
X198.882Y-124.587
T2
X127.235Y-137.253
X129.235Y-137.253
X131.235Y-137.253
X170.06Y-102.244
X172.06Y-102.244
X174.06Y-102.244
T3
X103.0Y-103.0
X103.0Y-137.0
X197.0Y-103.0
X197.0Y-137.0
T0
M30
