M48
; DRILL file {KiCad 8.0.5} date 2024-11-15T14:38:43+0000
; FORMAT={-:-/ absolute / inch / decimal}
; #@! TF.CreationDate,2024-11-15T14:38:43+00:00
; #@! TF.GenerationSoftware,Kicad,Pcbnew,8.0.5
; #@! TF.FileFunction,Plated,1,2,PTH
FMAT,2
INCH
; #@! TA.AperFunction,Plated,PTH,ViaDrill
T1C0.0118
; #@! TA.AperFunction,Plated,PTH,ViaDrill
T2C0.0157
; #@! TA.AperFunction,Plated,PTH,ComponentDrill
T3C0.0354
; #@! TA.AperFunction,Plated,PTH,ComponentDrill
T4C0.0374
; #@! TA.AperFunction,Plated,PTH,ComponentDrill
T5C0.0402
; #@! TA.AperFunction,Plated,PTH,ComponentDrill
T6C0.0512
; #@! TA.AperFunction,Plated,PTH,ComponentDrill
T7C0.1260
%
G90
G05
T1
X4.1415Y-2.6983
X4.3264Y-2.5441
X4.3575Y-2.2677
X4.5268Y-2.7
X4.6614Y-2.4839
X4.774Y-4.1055
X4.7756Y-2.6402
X4.8012Y-4.8122
X4.8193Y-4.3224
X4.8197Y-4.5681
X4.8461Y-2.6024
X4.8472Y-4.4929
X4.8472Y-4.8412
X4.8547Y-3.989
X4.888Y-2.725
X4.9177Y-2.2469
X4.9484Y-2.5878
X4.9528Y-2.9807
X5.0717Y-2.6799
X5.2185Y-2.6382
X5.2205Y-2.9764
X5.222Y-4.9673
X5.2402Y-2.7693
X5.2945Y-2.274
X5.3126Y-4.8177
X5.3579Y-2.5874
X5.372Y-2.2657
X5.3953Y-2.3531
X5.4047Y-3.0602
X5.4185Y-4.4783
X5.446Y-2.3666
X5.4884Y-2.7224
X5.502Y-2.2213
X5.5193Y-4.3453
X5.5354Y-4.9535
X5.5517Y-4.5934
X5.5724Y-5.3421
X5.5917Y-2.4906
X5.5957Y-2.0811
X5.6307Y-2.6815
X5.652Y-4.8701
X5.6921Y-4.7118
X5.6923Y-5.0243
X5.722Y-3.5307
X5.7626Y-2.6382
X5.7949Y-4.715
X5.8067Y-5.3343
X5.8189Y-3.2508
X5.8366Y-3.0134
X5.8459Y-4.926
X5.846Y-5.0702
X5.8638Y-4.6854
X5.9437Y-2.5484
X5.9555Y-4.6378
X5.976Y-4.0961
X5.9772Y-4.1358
X5.9772Y-5.5878
X5.9811Y-4.8906
X5.9856Y-3.4693
X5.9862Y-2.3835
X6.0146Y-2.2382
X6.0146Y-2.7748
X6.0197Y-2.3949
X6.0244Y-2.0677
X6.0362Y-3.1618
X6.0395Y-3.4324
X6.048Y-2.7754
X6.0614Y-5.3323
X6.0657Y-3.202
X6.0776Y-3.0114
X6.0785Y-3.0829
X6.0814Y-2.7783
X6.0961Y-2.2366
X6.1028Y-2.6875
X6.1039Y-3.3732
X6.144Y-3.2095
X6.1547Y-2.7965
X6.1606Y-5.2803
X6.1898Y-4.3295
X6.1937Y-2.4854
X6.2051Y-3.6807
X6.2177Y-2.6654
X6.261Y-3.3531
X6.2654Y-3.213
X6.3173Y-2.8413
X6.3307Y-5.1319
X6.3776Y-2.7165
X6.3917Y-3.3583
X6.3957Y-5.7721
X6.3986Y-2.8463
X6.4015Y-5.5846
X6.4071Y-3.0472
X6.4167Y-5.1935
X6.4169Y-2.9035
X6.4354Y-3.2783
X6.4366Y-3.3116
X6.4543Y-5.6815
X6.4795Y-5.585
X6.4843Y-5.6556
X6.4854Y-5.6232
X6.5327Y-3.4445
X6.5516Y-5.0941
X6.5528Y-4.122
X6.5622Y-5.4909
X6.5701Y-5.3972
X6.5827Y-3.4693
X6.585Y-2.9134
X6.5884Y-2.8335
X6.6365Y-3.2735
X6.6421Y-3.5756
X6.6602Y-4.6913
X6.6634Y-4.7945
X6.6693Y-2.552
X6.7441Y-4.6846
X6.7453Y-4.7913
X6.7457Y-3.1398
X6.7949Y-3.4382
X6.7957Y-4.6335
X6.7969Y-3.3933
X6.8031Y-5.5516
X6.8177Y-4.7878
X6.8342Y-2.726
X6.8539Y-4.5858
X6.8571Y-2.6768
X6.8646Y-2.6198
X6.8681Y-4.7362
X6.9098Y-4.5417
X6.9272Y-4.6878
X6.9315Y-2.7657
X6.9709Y-4.4941
X6.9854Y-4.6303
X6.9969Y-4.2752
X7.0138Y-4.2122
X7.0157Y-4.3228
X7.0306Y-2.8483
X7.0465Y-4.5677
X7.0646Y-4.2008
X7.0661Y-4.3476
X7.1189Y-4.7244
X7.1197Y-4.4177
X7.1197Y-4.5177
X7.1197Y-4.6008
X7.1205Y-4.213
X7.1205Y-4.3256
X7.178Y-4.5197
X7.178Y-4.7244
X7.1787Y-4.4177
X7.1787Y-4.6008
X7.1795Y-4.213
X7.1795Y-4.3256
X7.2051Y-2.2445
X7.237Y-4.7236
X7.2378Y-4.4169
X7.2378Y-4.6
X7.2386Y-4.2122
X7.2386Y-4.3248
X7.2421Y-4.5201
X7.2732Y-2.2464
X7.2878Y-2.3256
X7.2884Y-2.1537
X7.3043Y-4.9909
X7.3047Y-4.7217
X7.3051Y-4.7701
X7.3051Y-4.9291
X7.3055Y-4.415
X7.3055Y-4.598
X7.3063Y-4.2102
X7.3063Y-4.3228
X7.3063Y-4.8232
X7.3063Y-4.8776
X7.3079Y-4.5205
X7.3398Y-5.0335
X7.3563Y-4.5358
X7.3575Y-4.5917
X7.3583Y-4.398
X7.3626Y-4.1969
X7.3634Y-4.3362
X7.3807Y-5.552
X7.3839Y-5.0815
X7.4035Y-2.8528
X7.4118Y-4.9264
X7.413Y-4.7118
X7.413Y-4.7642
X7.413Y-4.8748
X7.4138Y-4.5764
X7.415Y-4.8232
X7.4161Y-4.4165
X7.4185Y-2.2865
X7.4252Y-4.663
X7.4264Y-4.3236
X7.4276Y-4.2189
X7.4331Y-4.9748
X7.4346Y-5.1236
X7.4587Y-4.4547
X7.46Y-4.6254
X7.4732Y-5.0169
X7.4791Y-5.172
X7.4815Y-4.2189
X7.5015Y-4.4938
X7.5047Y-4.3248
X7.5091Y-4.6728
X7.515Y-5.0626
X7.5154Y-5.2098
X7.5417Y-4.2177
X7.5446Y-4.5369
X7.552Y-4.7193
X7.5551Y-4.3579
X7.5587Y-5.2535
X7.5594Y-5.1035
X7.5854Y-4.2417
X7.59Y-4.5824
X7.5914Y-4.7697
X7.6008Y-5.2988
X7.6012Y-5.1445
X7.6028Y-4.4
X7.6236Y-4.2799
X7.6304Y-4.6227
X7.639Y-4.1618
X7.6409Y-4.2236
X7.6421Y-5.1854
X7.6453Y-5.3398
X7.6476Y-4.4417
X7.6484Y-4.4
X7.6484Y-4.4866
X7.6512Y-5.3902
X7.6547Y-4.9165
X7.6594Y-4.8232
X7.6676Y-4.66
X7.6803Y-4.6189
X7.7Y-4.5142
X7.7Y-5.2232
X7.7028Y-4.3799
X7.7035Y-5.3299
X7.7067Y-4.2819
X7.7091Y-4.9764
X7.7091Y-5.4524
X7.7114Y-4.1492
X7.717Y-4.8602
X7.7248Y-4.6189
X7.7681Y-5.4504
X7.7689Y-4.9791
X7.7713Y-4.5102
X7.7713Y-5.2197
X7.7713Y-5.3299
X7.7724Y-4.6185
X7.7732Y-4.3787
X7.7752Y-4.2807
X7.776Y-4.8602
X7.7768Y-4.7286
X7.7772Y-4.1472
X7.8122Y-4.7547
X7.824Y-5.224
X7.8283Y-4.1472
X7.8287Y-5.3272
X7.8291Y-5.4531
X7.8303Y-4.6173
X7.8331Y-4.978
X7.8343Y-4.3799
X7.837Y-4.2787
X7.837Y-4.852
X7.8382Y-4.5102
T2
X4.4567Y-2.5819
T3
X5.0315Y-2.3469
X5.1315Y-2.3469
X5.2315Y-2.3469
X5.3315Y-2.3469
X5.5843Y-2.3492
X5.6843Y-2.3492
X5.7843Y-2.3492
X5.8843Y-2.3492
X6.1531Y-2.3492
X6.2531Y-2.3492
X6.3531Y-2.3492
X6.4531Y-2.3492
T4
X4.5315Y-2.3543
X4.6299Y-2.3543
X4.7283Y-2.3543
T5
X4.0205Y-2.9047
X4.0205Y-3.6047
X4.1205Y-2.9047
X4.1205Y-3.6047
X4.2205Y-2.9047
X4.2205Y-3.6047
X4.3205Y-2.9047
X4.3205Y-3.6047
X4.4205Y-2.9047
X4.4205Y-3.6047
X4.5205Y-2.9047
X4.5205Y-3.6047
X4.6205Y-2.9047
X4.6205Y-3.6047
X4.7205Y-2.9047
X4.7205Y-3.6047
X4.8205Y-2.9047
X4.8205Y-3.6047
X4.9205Y-2.9047
X4.9205Y-3.6047
X5.0205Y-2.9047
X5.0205Y-3.6047
X5.1205Y-2.9047
X5.1205Y-3.6047
X5.2205Y-2.9047
X5.2205Y-3.6047
X5.3205Y-2.9047
X5.3205Y-3.6047
X5.4205Y-2.9047
X5.4205Y-3.6047
X5.5205Y-2.9047
X5.5205Y-3.6047
X5.6205Y-2.9047
X5.6205Y-3.6047
X5.7205Y-2.9047
X5.7205Y-3.6047
X5.8205Y-2.9047
X5.8205Y-3.6047
X5.9114Y-3.1547
X5.9114Y-3.2547
X5.9114Y-3.3547
X5.9205Y-2.9047
X5.9205Y-3.6047
T6
X7.0645Y-4.2708
X7.0645Y-4.4676
X7.0645Y-4.6645
X7.0645Y-5.255
X7.3597Y-4.2708
X7.3597Y-4.4676
X7.3597Y-4.6645
X7.3597Y-5.255
T7
X4.1732Y-2.2047
X4.1732Y-3.937
X4.1732Y-5.6693
X7.6378Y-2.2047
X7.6378Y-3.937
X7.6378Y-5.6693
M30
