%TF.GenerationSoftware,KiCad,Pcbnew,8.0.5*%
%TF.CreationDate,2024-11-15T14:38:43+00:00*%
%TF.ProjectId,HF PA Radio Interface,48462050-4120-4526-9164-696f20496e74,rev?*%
%TF.SameCoordinates,Original*%
%TF.FileFunction,Soldermask,Bot*%
%TF.FilePolarity,Negative*%
%FSLAX46Y46*%
G04 Gerber Fmt 4.6, Leading zero omitted, Abs format (unit mm)*
G04 Created by KiCad (PCBNEW 8.0.5) date 2024-11-15 14:38:43*
%MOMM*%
%LPD*%
G01*
G04 APERTURE LIST*
G04 Aperture macros list*
%AMRoundRect*
0 Rectangle with rounded corners*
0 $1 Rounding radius*
0 $2 $3 $4 $5 $6 $7 $8 $9 X,Y pos of 4 corners*
0 Add a 4 corners polygon primitive as box body*
4,1,4,$2,$3,$4,$5,$6,$7,$8,$9,$2,$3,0*
0 Add four circle primitives for the rounded corners*
1,1,$1+$1,$2,$3*
1,1,$1+$1,$4,$5*
1,1,$1+$1,$6,$7*
1,1,$1+$1,$8,$9*
0 Add four rect primitives between the rounded corners*
20,1,$1+$1,$2,$3,$4,$5,0*
20,1,$1+$1,$4,$5,$6,$7,0*
20,1,$1+$1,$6,$7,$8,$9,0*
20,1,$1+$1,$8,$9,$2,$3,0*%
G04 Aperture macros list end*
%ADD10C,2.000000*%
%ADD11R,2.000000X2.000000*%
%ADD12RoundRect,0.250000X0.600000X0.725000X-0.600000X0.725000X-0.600000X-0.725000X0.600000X-0.725000X0*%
%ADD13O,1.700000X1.950000*%
%ADD14C,5.600000*%
%ADD15O,1.800000X1.800000*%
%ADD16O,1.500000X1.500000*%
%ADD17O,1.700000X1.700000*%
%ADD18R,1.700000X1.700000*%
%ADD19R,4.200000X1.350000*%
G04 APERTURE END LIST*
D10*
%TO.C,K1*%
X186937500Y-113477500D03*
X179437500Y-113477500D03*
X186937500Y-118477500D03*
X179437500Y-118477500D03*
X186937500Y-108477500D03*
X179437500Y-108477500D03*
D11*
X186937500Y-133477500D03*
D10*
X179437500Y-133477500D03*
%TD*%
D12*
%TO.C,J7*%
X120100000Y-59800000D03*
D13*
X117600000Y-59800000D03*
X115100000Y-59800000D03*
%TD*%
D10*
%TO.C,J16*%
X135420000Y-59610000D03*
X132880000Y-59610000D03*
X130340000Y-59610000D03*
X127800000Y-59610000D03*
%TD*%
D14*
%TO.C,H2*%
X194000000Y-56000000D03*
%TD*%
%TO.C,H6*%
X106000000Y-100000000D03*
%TD*%
D10*
%TO.C,J18*%
X163910000Y-59670000D03*
X161370000Y-59670000D03*
X158830000Y-59670000D03*
X156290000Y-59670000D03*
%TD*%
D15*
%TO.C,A1*%
X102250000Y-85395000D03*
D16*
X105280000Y-85095000D03*
X105280000Y-80245000D03*
D15*
X102250000Y-79945000D03*
D17*
X102120000Y-91560000D03*
X104660000Y-91560000D03*
D18*
X107200000Y-91560000D03*
D17*
X109740000Y-91560000D03*
X112280000Y-91560000D03*
X114820000Y-91560000D03*
X117360000Y-91560000D03*
D18*
X119900000Y-91560000D03*
D17*
X122440000Y-91560000D03*
X124980000Y-91560000D03*
X127520000Y-91560000D03*
X130060000Y-91560000D03*
D18*
X132600000Y-91560000D03*
D17*
X135140000Y-91560000D03*
X137680000Y-91560000D03*
X140220000Y-91560000D03*
X142760000Y-91560000D03*
D18*
X145300000Y-91560000D03*
D17*
X147840000Y-91560000D03*
X150380000Y-91560000D03*
X150380000Y-73780000D03*
X147840000Y-73780000D03*
D18*
X145300000Y-73780000D03*
D17*
X142760000Y-73780000D03*
X140220000Y-73780000D03*
X137680000Y-73780000D03*
X135140000Y-73780000D03*
D18*
X132600000Y-73780000D03*
D17*
X130060000Y-73780000D03*
X127520000Y-73780000D03*
X124980000Y-73780000D03*
X122440000Y-73780000D03*
D18*
X119900000Y-73780000D03*
D17*
X117360000Y-73780000D03*
X114820000Y-73780000D03*
X112280000Y-73780000D03*
X109740000Y-73780000D03*
D18*
X107200000Y-73780000D03*
D17*
X104660000Y-73780000D03*
X102120000Y-73780000D03*
X150150000Y-85210000D03*
D18*
X150150000Y-82670000D03*
D17*
X150150000Y-80130000D03*
%TD*%
D19*
%TO.C,J2*%
X197400000Y-124825000D03*
X197400000Y-119175000D03*
%TD*%
%TO.C,J4*%
X197400000Y-112825000D03*
X197400000Y-107175000D03*
%TD*%
D14*
%TO.C,H3*%
X106000000Y-144000000D03*
%TD*%
%TO.C,H5*%
X194000000Y-100000000D03*
%TD*%
%TO.C,H1*%
X106000000Y-56000000D03*
%TD*%
%TO.C,H4*%
X194000000Y-144000000D03*
%TD*%
D10*
%TO.C,J17*%
X149460000Y-59670000D03*
X146920000Y-59670000D03*
X144380000Y-59670000D03*
X141840000Y-59670000D03*
%TD*%
D19*
%TO.C,J3*%
X197400000Y-136825000D03*
X197400000Y-131175000D03*
%TD*%
M02*
