%TF.GenerationSoftware,KiCad,Pcbnew,8.0.5*%
%TF.CreationDate,2024-11-15T14:38:43+00:00*%
%TF.ProjectId,HF PA Radio Interface,48462050-4120-4526-9164-696f20496e74,rev?*%
%TF.SameCoordinates,Original*%
%TF.FileFunction,Paste,Top*%
%TF.FilePolarity,Positive*%
%FSLAX46Y46*%
G04 Gerber Fmt 4.6, Leading zero omitted, Abs format (unit mm)*
G04 Created by KiCad (PCBNEW 8.0.5) date 2024-11-15 14:38:43*
%MOMM*%
%LPD*%
G01*
G04 APERTURE LIST*
G04 Aperture macros list*
%AMRoundRect*
0 Rectangle with rounded corners*
0 $1 Rounding radius*
0 $2 $3 $4 $5 $6 $7 $8 $9 X,Y pos of 4 corners*
0 Add a 4 corners polygon primitive as box body*
4,1,4,$2,$3,$4,$5,$6,$7,$8,$9,$2,$3,0*
0 Add four circle primitives for the rounded corners*
1,1,$1+$1,$2,$3*
1,1,$1+$1,$4,$5*
1,1,$1+$1,$6,$7*
1,1,$1+$1,$8,$9*
0 Add four rect primitives between the rounded corners*
20,1,$1+$1,$2,$3,$4,$5,0*
20,1,$1+$1,$4,$5,$6,$7,0*
20,1,$1+$1,$6,$7,$8,$9,0*
20,1,$1+$1,$8,$9,$2,$3,0*%
G04 Aperture macros list end*
%ADD10RoundRect,0.200000X0.200000X0.275000X-0.200000X0.275000X-0.200000X-0.275000X0.200000X-0.275000X0*%
%ADD11RoundRect,0.200000X-0.200000X-0.275000X0.200000X-0.275000X0.200000X0.275000X-0.200000X0.275000X0*%
%ADD12RoundRect,0.150000X-0.650000X-0.150000X0.650000X-0.150000X0.650000X0.150000X-0.650000X0.150000X0*%
%ADD13RoundRect,0.225000X-0.250000X0.225000X-0.250000X-0.225000X0.250000X-0.225000X0.250000X0.225000X0*%
%ADD14RoundRect,0.218750X-0.218750X-0.256250X0.218750X-0.256250X0.218750X0.256250X-0.218750X0.256250X0*%
%ADD15RoundRect,0.225000X-0.225000X-0.250000X0.225000X-0.250000X0.225000X0.250000X-0.225000X0.250000X0*%
%ADD16RoundRect,0.087500X-0.725000X-0.087500X0.725000X-0.087500X0.725000X0.087500X-0.725000X0.087500X0*%
%ADD17RoundRect,0.200000X-0.275000X0.200000X-0.275000X-0.200000X0.275000X-0.200000X0.275000X0.200000X0*%
%ADD18RoundRect,0.225000X0.225000X0.375000X-0.225000X0.375000X-0.225000X-0.375000X0.225000X-0.375000X0*%
%ADD19RoundRect,0.175000X0.325000X-0.175000X0.325000X0.175000X-0.325000X0.175000X-0.325000X-0.175000X0*%
%ADD20RoundRect,0.150000X0.150000X-0.200000X0.150000X0.200000X-0.150000X0.200000X-0.150000X-0.200000X0*%
%ADD21RoundRect,0.250000X0.250000X1.500000X-0.250000X1.500000X-0.250000X-1.500000X0.250000X-1.500000X0*%
%ADD22RoundRect,0.250001X0.499999X1.449999X-0.499999X1.449999X-0.499999X-1.449999X0.499999X-1.449999X0*%
%ADD23RoundRect,0.112500X-0.187500X-0.112500X0.187500X-0.112500X0.187500X0.112500X-0.187500X0.112500X0*%
%ADD24RoundRect,0.250000X2.500000X-0.250000X2.500000X0.250000X-2.500000X0.250000X-2.500000X-0.250000X0*%
%ADD25RoundRect,0.250000X1.250000X-0.550000X1.250000X0.550000X-1.250000X0.550000X-1.250000X-0.550000X0*%
%ADD26RoundRect,0.175000X-0.325000X0.175000X-0.325000X-0.175000X0.325000X-0.175000X0.325000X0.175000X0*%
%ADD27RoundRect,0.150000X-0.150000X0.200000X-0.150000X-0.200000X0.150000X-0.200000X0.150000X0.200000X0*%
%ADD28RoundRect,0.225000X0.225000X0.250000X-0.225000X0.250000X-0.225000X-0.250000X0.225000X-0.250000X0*%
%ADD29RoundRect,0.250000X-0.250000X-2.500000X0.250000X-2.500000X0.250000X2.500000X-0.250000X2.500000X0*%
%ADD30RoundRect,0.250000X-0.550000X-1.250000X0.550000X-1.250000X0.550000X1.250000X-0.550000X1.250000X0*%
%ADD31RoundRect,0.175000X-0.175000X-0.325000X0.175000X-0.325000X0.175000X0.325000X-0.175000X0.325000X0*%
%ADD32RoundRect,0.150000X-0.200000X-0.150000X0.200000X-0.150000X0.200000X0.150000X-0.200000X0.150000X0*%
%ADD33RoundRect,0.150000X0.150000X0.200000X-0.150000X0.200000X-0.150000X-0.200000X0.150000X-0.200000X0*%
%ADD34RoundRect,0.100000X-0.225000X-0.100000X0.225000X-0.100000X0.225000X0.100000X-0.225000X0.100000X0*%
%ADD35RoundRect,0.218750X-0.256250X0.218750X-0.256250X-0.218750X0.256250X-0.218750X0.256250X0.218750X0*%
%ADD36RoundRect,0.200000X0.275000X-0.200000X0.275000X0.200000X-0.275000X0.200000X-0.275000X-0.200000X0*%
%ADD37RoundRect,0.150000X-0.150000X0.512500X-0.150000X-0.512500X0.150000X-0.512500X0.150000X0.512500X0*%
%ADD38RoundRect,0.112500X-0.237500X0.112500X-0.237500X-0.112500X0.237500X-0.112500X0.237500X0.112500X0*%
%ADD39R,3.600000X1.270000*%
%ADD40R,4.200000X1.350000*%
%ADD41RoundRect,0.250000X-0.250000X-1.500000X0.250000X-1.500000X0.250000X1.500000X-0.250000X1.500000X0*%
%ADD42RoundRect,0.250001X-0.499999X-1.449999X0.499999X-1.449999X0.499999X1.449999X-0.499999X1.449999X0*%
%ADD43RoundRect,0.150000X0.587500X0.150000X-0.587500X0.150000X-0.587500X-0.150000X0.587500X-0.150000X0*%
%ADD44RoundRect,0.218750X0.256250X-0.218750X0.256250X0.218750X-0.256250X0.218750X-0.256250X-0.218750X0*%
%ADD45RoundRect,0.150000X-0.150000X-0.200000X0.150000X-0.200000X0.150000X0.200000X-0.150000X0.200000X0*%
%ADD46RoundRect,0.225000X0.250000X-0.225000X0.250000X0.225000X-0.250000X0.225000X-0.250000X-0.225000X0*%
%ADD47RoundRect,0.250000X1.500000X-0.250000X1.500000X0.250000X-1.500000X0.250000X-1.500000X-0.250000X0*%
%ADD48RoundRect,0.250001X1.449999X-0.499999X1.449999X0.499999X-1.449999X0.499999X-1.449999X-0.499999X0*%
%ADD49RoundRect,0.150000X-0.512500X-0.150000X0.512500X-0.150000X0.512500X0.150000X-0.512500X0.150000X0*%
%ADD50RoundRect,0.218750X0.218750X0.256250X-0.218750X0.256250X-0.218750X-0.256250X0.218750X-0.256250X0*%
%ADD51RoundRect,0.150000X0.200000X-0.150000X0.200000X0.150000X-0.200000X0.150000X-0.200000X-0.150000X0*%
%ADD52RoundRect,0.250000X-2.500000X0.250000X-2.500000X-0.250000X2.500000X-0.250000X2.500000X0.250000X0*%
%ADD53RoundRect,0.250000X-1.250000X0.550000X-1.250000X-0.550000X1.250000X-0.550000X1.250000X0.550000X0*%
%ADD54RoundRect,0.175000X0.175000X0.325000X-0.175000X0.325000X-0.175000X-0.325000X0.175000X-0.325000X0*%
%ADD55RoundRect,0.150000X0.200000X0.150000X-0.200000X0.150000X-0.200000X-0.150000X0.200000X-0.150000X0*%
%ADD56RoundRect,0.250000X0.250000X0.475000X-0.250000X0.475000X-0.250000X-0.475000X0.250000X-0.475000X0*%
%ADD57RoundRect,0.150000X-0.587500X-0.150000X0.587500X-0.150000X0.587500X0.150000X-0.587500X0.150000X0*%
%ADD58R,1.100000X0.250000*%
%ADD59RoundRect,0.150000X-0.200000X0.150000X-0.200000X-0.150000X0.200000X-0.150000X0.200000X0.150000X0*%
%ADD60RoundRect,0.150000X-0.825000X-0.150000X0.825000X-0.150000X0.825000X0.150000X-0.825000X0.150000X0*%
%ADD61RoundRect,0.100000X-0.637500X-0.100000X0.637500X-0.100000X0.637500X0.100000X-0.637500X0.100000X0*%
G04 APERTURE END LIST*
D10*
%TO.C,R22*%
X139840000Y-129320000D03*
X138190000Y-129320000D03*
%TD*%
D11*
%TO.C,R29*%
X171405000Y-74760000D03*
X173055000Y-74760000D03*
%TD*%
D12*
%TO.C,U8*%
X169640000Y-77195000D03*
X169640000Y-78465000D03*
X169640000Y-79735000D03*
X169640000Y-81005000D03*
X176840000Y-81005000D03*
X176840000Y-79735000D03*
X176840000Y-78465000D03*
X176840000Y-77195000D03*
%TD*%
D13*
%TO.C,C5*%
X134040000Y-121535000D03*
X134040000Y-123085000D03*
%TD*%
D14*
%TO.C,L17*%
X160582500Y-62070000D03*
X162157500Y-62070000D03*
%TD*%
D15*
%TO.C,C28*%
X179095000Y-77130000D03*
X180645000Y-77130000D03*
%TD*%
D16*
%TO.C,U6*%
X155130000Y-87120000D03*
X155130000Y-87620000D03*
X155130000Y-88120000D03*
X155130000Y-88620000D03*
X155130000Y-89120000D03*
X159355000Y-89120000D03*
X159355000Y-88620000D03*
X159355000Y-88120000D03*
X159355000Y-87620000D03*
X159355000Y-87120000D03*
%TD*%
D11*
%TO.C,R9*%
X138785000Y-134030000D03*
X140435000Y-134030000D03*
%TD*%
%TO.C,R42*%
X162750000Y-91700000D03*
X164400000Y-91700000D03*
%TD*%
D17*
%TO.C,R12*%
X135830000Y-121440000D03*
X135830000Y-123090000D03*
%TD*%
D18*
%TO.C,D8*%
X184050000Y-140290000D03*
X180750000Y-140290000D03*
%TD*%
D19*
%TO.C,D10*%
X141680000Y-110020000D03*
D20*
X143380000Y-110020000D03*
X143380000Y-108020000D03*
X141480000Y-108020000D03*
%TD*%
D11*
%TO.C,R47*%
X129135000Y-65480000D03*
X130785000Y-65480000D03*
%TD*%
D10*
%TO.C,R34*%
X176815000Y-68990000D03*
X175165000Y-68990000D03*
%TD*%
D11*
%TO.C,R52*%
X160565000Y-64880000D03*
X162215000Y-64880000D03*
%TD*%
%TO.C,R53*%
X125815000Y-62140000D03*
X127465000Y-62140000D03*
%TD*%
D21*
%TO.C,J15*%
X177140000Y-58020000D03*
X175140000Y-58020000D03*
X173140000Y-58020000D03*
D22*
X179490000Y-52270000D03*
X170790000Y-52270000D03*
%TD*%
D11*
%TO.C,R26*%
X168052500Y-67300000D03*
X169702500Y-67300000D03*
%TD*%
D14*
%TO.C,L4*%
X151032500Y-137050000D03*
X152607500Y-137050000D03*
%TD*%
D15*
%TO.C,C14*%
X148205000Y-117840000D03*
X149755000Y-117840000D03*
%TD*%
D11*
%TO.C,R30*%
X168105000Y-71340000D03*
X169755000Y-71340000D03*
%TD*%
%TO.C,R11*%
X150995000Y-133930000D03*
X152645000Y-133930000D03*
%TD*%
D10*
%TO.C,R27*%
X169692500Y-69020000D03*
X168042500Y-69020000D03*
%TD*%
D15*
%TO.C,C31*%
X188625000Y-87090000D03*
X190175000Y-87090000D03*
%TD*%
D23*
%TO.C,D21*%
X188390000Y-92920000D03*
X190490000Y-92920000D03*
%TD*%
D24*
%TO.C,J9*%
X128740000Y-118190000D03*
X128740000Y-116190000D03*
X128740000Y-114190000D03*
X128740000Y-112190000D03*
D25*
X126490000Y-120590000D03*
X126490000Y-109790000D03*
%TD*%
D26*
%TO.C,D19*%
X173365000Y-95335000D03*
D27*
X171665000Y-95335000D03*
X171665000Y-97335000D03*
X173565000Y-97335000D03*
%TD*%
D11*
%TO.C,R49*%
X142762500Y-64690000D03*
X144412500Y-64690000D03*
%TD*%
D24*
%TO.C,J8*%
X118130000Y-118030000D03*
X118130000Y-116030000D03*
X118130000Y-114030000D03*
X118130000Y-112030000D03*
D25*
X115880000Y-120430000D03*
X115880000Y-109630000D03*
%TD*%
D17*
%TO.C,R40*%
X183080000Y-59922592D03*
X183080000Y-61572592D03*
%TD*%
D14*
%TO.C,L2*%
X138792500Y-137180000D03*
X140367500Y-137180000D03*
%TD*%
D28*
%TO.C,C38*%
X127335000Y-64350000D03*
X125785000Y-64350000D03*
%TD*%
D29*
%TO.C,J6*%
X156470000Y-103660000D03*
X158470000Y-103660000D03*
X160470000Y-103660000D03*
X162470000Y-103660000D03*
X164470000Y-103660000D03*
D30*
X154070000Y-101410000D03*
X166870000Y-101410000D03*
%TD*%
D31*
%TO.C,D17*%
X102800000Y-121500000D03*
D32*
X102800000Y-123200000D03*
X104800000Y-123200000D03*
X104800000Y-121300000D03*
%TD*%
D10*
%TO.C,R56*%
X121585000Y-100320000D03*
X119935000Y-100320000D03*
%TD*%
D24*
%TO.C,J10*%
X107170000Y-116120000D03*
X107170000Y-114120000D03*
X107170000Y-112120000D03*
D25*
X104920000Y-118520000D03*
X104920000Y-109720000D03*
%TD*%
D33*
%TO.C,D27*%
X163990000Y-62240000D03*
X165390000Y-62240000D03*
%TD*%
D11*
%TO.C,R8*%
X166270000Y-130712500D03*
X167920000Y-130712500D03*
%TD*%
D10*
%TO.C,R18*%
X151035000Y-127670000D03*
X149385000Y-127670000D03*
%TD*%
D34*
%TO.C,U9*%
X171680000Y-85080000D03*
X171680000Y-85730000D03*
X171680000Y-86380000D03*
X173580000Y-86380000D03*
X173580000Y-85080000D03*
%TD*%
D10*
%TO.C,R13*%
X140465000Y-132440000D03*
X138815000Y-132440000D03*
%TD*%
D11*
%TO.C,R10*%
X144645000Y-133910000D03*
X146295000Y-133910000D03*
%TD*%
D35*
%TO.C,L8*%
X114920000Y-63732500D03*
X114920000Y-65307500D03*
%TD*%
D14*
%TO.C,L12*%
X185245000Y-74270000D03*
X186820000Y-74270000D03*
%TD*%
%TO.C,L16*%
X146255000Y-61970000D03*
X147830000Y-61970000D03*
%TD*%
D36*
%TO.C,R33*%
X155710000Y-92565000D03*
X155710000Y-90915000D03*
%TD*%
D28*
%TO.C,C23*%
X114760000Y-69990000D03*
X113210000Y-69990000D03*
%TD*%
D15*
%TO.C,C24*%
X185275000Y-72460000D03*
X186825000Y-72460000D03*
%TD*%
D14*
%TO.C,L6*%
X185792500Y-140030000D03*
X187367500Y-140030000D03*
%TD*%
D36*
%TO.C,R31*%
X157550000Y-92575000D03*
X157550000Y-90925000D03*
%TD*%
D37*
%TO.C,U7*%
X185690000Y-55832592D03*
X184740000Y-55832592D03*
X183790000Y-55832592D03*
X183790000Y-58107592D03*
X185690000Y-58107592D03*
%TD*%
D33*
%TO.C,D25*%
X135760000Y-62960000D03*
X137160000Y-62960000D03*
%TD*%
D15*
%TO.C,C34*%
X179075000Y-81100000D03*
X180625000Y-81100000D03*
%TD*%
D11*
%TO.C,R16*%
X134085000Y-124910000D03*
X135735000Y-124910000D03*
%TD*%
D28*
%TO.C,C39*%
X139725000Y-125130000D03*
X138175000Y-125130000D03*
%TD*%
D38*
%TO.C,D5*%
X160800000Y-125372500D03*
X160800000Y-126672500D03*
X162800000Y-126022500D03*
%TD*%
D33*
%TO.C,D4*%
X179470000Y-145400000D03*
X180870000Y-145400000D03*
%TD*%
D11*
%TO.C,R41*%
X162750000Y-89190000D03*
X164400000Y-89190000D03*
%TD*%
D39*
%TO.C,J2*%
X197600000Y-122000000D03*
D40*
X197400000Y-124825000D03*
X197400000Y-119175000D03*
%TD*%
D39*
%TO.C,J4*%
X197600000Y-110000000D03*
D40*
X197400000Y-112825000D03*
X197400000Y-107175000D03*
%TD*%
D41*
%TO.C,J1*%
X140100000Y-142000000D03*
X142100000Y-142000000D03*
X144100000Y-142000000D03*
X146100000Y-142000000D03*
X148100000Y-142000000D03*
X150100000Y-142000000D03*
D42*
X137750000Y-147750000D03*
X152450000Y-147750000D03*
%TD*%
D28*
%TO.C,C40*%
X130757500Y-63010000D03*
X129207500Y-63010000D03*
%TD*%
D14*
%TO.C,L15*%
X132552500Y-62980000D03*
X134127500Y-62980000D03*
%TD*%
D15*
%TO.C,C12*%
X171295000Y-67270000D03*
X172845000Y-67270000D03*
%TD*%
D31*
%TO.C,D29*%
X137760000Y-57480000D03*
D32*
X137760000Y-59180000D03*
X139760000Y-59180000D03*
X139760000Y-57280000D03*
%TD*%
D11*
%TO.C,R6*%
X161385000Y-135272500D03*
X163035000Y-135272500D03*
%TD*%
D15*
%TO.C,C16*%
X137515000Y-111950000D03*
X139065000Y-111950000D03*
%TD*%
%TO.C,C4*%
X180925000Y-138120000D03*
X182475000Y-138120000D03*
%TD*%
%TO.C,C26*%
X156515000Y-85120000D03*
X158065000Y-85120000D03*
%TD*%
D43*
%TO.C,Q2*%
X190750000Y-90740000D03*
X190750000Y-88840000D03*
X188875000Y-89790000D03*
%TD*%
D28*
%TO.C,C42*%
X158895000Y-62100000D03*
X157345000Y-62100000D03*
%TD*%
D11*
%TO.C,R23*%
X149355000Y-129280000D03*
X151005000Y-129280000D03*
%TD*%
D14*
%TO.C,L3*%
X144632500Y-137030000D03*
X146207500Y-137030000D03*
%TD*%
D44*
%TO.C,L14*%
X188750000Y-84937500D03*
X188750000Y-83362500D03*
%TD*%
D33*
%TO.C,D3*%
X144910000Y-138940000D03*
X146310000Y-138940000D03*
%TD*%
D19*
%TO.C,D16*%
X118900000Y-124770000D03*
D20*
X120600000Y-124770000D03*
X120600000Y-122770000D03*
X118700000Y-122770000D03*
%TD*%
D28*
%TO.C,C19*%
X118445000Y-68920000D03*
X116895000Y-68920000D03*
%TD*%
D15*
%TO.C,C9*%
X166705000Y-138522500D03*
X168255000Y-138522500D03*
%TD*%
D36*
%TO.C,R39*%
X186550000Y-61632592D03*
X186550000Y-59982592D03*
%TD*%
D15*
%TO.C,C6*%
X138865000Y-135660000D03*
X140415000Y-135660000D03*
%TD*%
%TO.C,C8*%
X151095000Y-135450000D03*
X152645000Y-135450000D03*
%TD*%
D11*
%TO.C,R4*%
X161335000Y-133192500D03*
X162985000Y-133192500D03*
%TD*%
D33*
%TO.C,D26*%
X149772500Y-62080000D03*
X151172500Y-62080000D03*
%TD*%
D45*
%TO.C,D24*%
X175147500Y-61630000D03*
X173747500Y-61630000D03*
%TD*%
D11*
%TO.C,R50*%
X146315000Y-64700000D03*
X147965000Y-64700000D03*
%TD*%
D46*
%TO.C,C25*%
X184650000Y-53732592D03*
X184650000Y-52182592D03*
%TD*%
D36*
%TO.C,R43*%
X193010000Y-90555000D03*
X193010000Y-88905000D03*
%TD*%
D29*
%TO.C,J5*%
X139330000Y-103750000D03*
X141330000Y-103750000D03*
X143330000Y-103750000D03*
X145330000Y-103750000D03*
X147330000Y-103750000D03*
D30*
X136930000Y-101500000D03*
X149730000Y-101500000D03*
%TD*%
D15*
%TO.C,C33*%
X109690000Y-62895000D03*
X111240000Y-62895000D03*
%TD*%
D28*
%TO.C,C35*%
X173405000Y-88220000D03*
X171855000Y-88220000D03*
%TD*%
D14*
%TO.C,L11*%
X123772500Y-124230000D03*
X125347500Y-124230000D03*
%TD*%
D10*
%TO.C,R5*%
X167720000Y-120422500D03*
X166070000Y-120422500D03*
%TD*%
D14*
%TO.C,L10*%
X154342500Y-109970000D03*
X155917500Y-109970000D03*
%TD*%
D36*
%TO.C,R25*%
X139270000Y-122975000D03*
X139270000Y-121325000D03*
%TD*%
D38*
%TO.C,D2*%
X160800000Y-129050000D03*
X160800000Y-130350000D03*
X162800000Y-129700000D03*
%TD*%
D17*
%TO.C,R38*%
X184850000Y-59972592D03*
X184850000Y-61622592D03*
%TD*%
D14*
%TO.C,L1*%
X176492500Y-138180000D03*
X178067500Y-138180000D03*
%TD*%
D45*
%TO.C,D9*%
X184180000Y-145390000D03*
X182780000Y-145390000D03*
%TD*%
D47*
%TO.C,J14*%
X192010000Y-65610000D03*
X192010000Y-63610000D03*
D48*
X197760000Y-67960000D03*
X197760000Y-61260000D03*
%TD*%
D49*
%TO.C,U5*%
X174822500Y-71100000D03*
X174822500Y-72050000D03*
X174822500Y-73000000D03*
X177097500Y-73000000D03*
X177097500Y-71100000D03*
%TD*%
D28*
%TO.C,C2*%
X167650000Y-125442500D03*
X166100000Y-125442500D03*
%TD*%
D50*
%TO.C,D23*%
X121382500Y-98390000D03*
X119807500Y-98390000D03*
%TD*%
D28*
%TO.C,C41*%
X144347500Y-61980000D03*
X142797500Y-61980000D03*
%TD*%
D13*
%TO.C,C29*%
X186990000Y-52197592D03*
X186990000Y-53747592D03*
%TD*%
D15*
%TO.C,C22*%
X127105000Y-124210000D03*
X128655000Y-124210000D03*
%TD*%
D10*
%TO.C,R14*%
X146325000Y-132420000D03*
X144675000Y-132420000D03*
%TD*%
D14*
%TO.C,L9*%
X137502500Y-110260000D03*
X139077500Y-110260000D03*
%TD*%
D28*
%TO.C,C18*%
X173005000Y-71340000D03*
X171455000Y-71340000D03*
%TD*%
D33*
%TO.C,D7*%
X166155000Y-118342500D03*
X167555000Y-118342500D03*
%TD*%
D51*
%TO.C,D20*%
X188740000Y-56037592D03*
X188740000Y-57437592D03*
%TD*%
D10*
%TO.C,R21*%
X161815000Y-138502500D03*
X160165000Y-138502500D03*
%TD*%
D28*
%TO.C,C37*%
X159345000Y-73240000D03*
X157795000Y-73240000D03*
%TD*%
D14*
%TO.C,L18*%
X176662500Y-63420000D03*
X178237500Y-63420000D03*
%TD*%
D33*
%TO.C,D6*%
X138912500Y-138890000D03*
X140312500Y-138890000D03*
%TD*%
D34*
%TO.C,U1*%
X165220000Y-134712500D03*
X165220000Y-135362500D03*
X165220000Y-136012500D03*
X167120000Y-136012500D03*
X167120000Y-134712500D03*
%TD*%
D11*
%TO.C,R54*%
X153915000Y-62140000D03*
X155565000Y-62140000D03*
%TD*%
D52*
%TO.C,J13*%
X179520000Y-98030000D03*
X179520000Y-100030000D03*
D53*
X181770000Y-95630000D03*
X181770000Y-102430000D03*
%TD*%
D54*
%TO.C,D30*%
X153900000Y-58540000D03*
D55*
X153900000Y-56840000D03*
X151900000Y-56840000D03*
X151900000Y-58740000D03*
%TD*%
D11*
%TO.C,R51*%
X157160000Y-64880000D03*
X158810000Y-64880000D03*
%TD*%
D35*
%TO.C,L13*%
X188780000Y-52205092D03*
X188780000Y-53780092D03*
%TD*%
D11*
%TO.C,R35*%
X185245000Y-70690000D03*
X186895000Y-70690000D03*
%TD*%
%TO.C,R28*%
X168105000Y-73080000D03*
X169755000Y-73080000D03*
%TD*%
D56*
%TO.C,C21*%
X114980000Y-67340000D03*
X113080000Y-67340000D03*
%TD*%
D15*
%TO.C,C3*%
X179425000Y-143610000D03*
X180975000Y-143610000D03*
%TD*%
D57*
%TO.C,Q3*%
X104370000Y-64150000D03*
X104370000Y-66050000D03*
X106245000Y-65100000D03*
%TD*%
D28*
%TO.C,C1*%
X167650000Y-122932500D03*
X166100000Y-122932500D03*
%TD*%
D33*
%TO.C,D1*%
X151200000Y-138880000D03*
X152600000Y-138880000D03*
%TD*%
D11*
%TO.C,R1*%
X175745000Y-140970000D03*
X177395000Y-140970000D03*
%TD*%
%TO.C,R46*%
X139405000Y-62030000D03*
X141055000Y-62030000D03*
%TD*%
D15*
%TO.C,C15*%
X154355000Y-111730000D03*
X155905000Y-111730000D03*
%TD*%
D28*
%TO.C,C36*%
X165055000Y-138502500D03*
X163505000Y-138502500D03*
%TD*%
D13*
%TO.C,C32*%
X167120000Y-78880000D03*
X167120000Y-80430000D03*
%TD*%
D15*
%TO.C,C20*%
X179042500Y-71080000D03*
X180592500Y-71080000D03*
%TD*%
D11*
%TO.C,R24*%
X149375000Y-121290000D03*
X151025000Y-121290000D03*
%TD*%
D15*
%TO.C,C7*%
X144725000Y-135540000D03*
X146275000Y-135540000D03*
%TD*%
D33*
%TO.C,D14*%
X154487500Y-108010000D03*
X155887500Y-108010000D03*
%TD*%
D10*
%TO.C,R15*%
X152695000Y-132420000D03*
X151045000Y-132420000D03*
%TD*%
D51*
%TO.C,D22*%
X188900000Y-80170000D03*
X188900000Y-81570000D03*
%TD*%
D36*
%TO.C,R20*%
X137810000Y-123085000D03*
X137810000Y-121435000D03*
%TD*%
D50*
%TO.C,L5*%
X187377500Y-138230000D03*
X185802500Y-138230000D03*
%TD*%
D11*
%TO.C,R2*%
X175725000Y-143630000D03*
X177375000Y-143630000D03*
%TD*%
D15*
%TO.C,C11*%
X185815000Y-142000000D03*
X187365000Y-142000000D03*
%TD*%
D11*
%TO.C,R36*%
X164305000Y-73110000D03*
X165955000Y-73110000D03*
%TD*%
D52*
%TO.C,J12*%
X179585000Y-87965000D03*
X179585000Y-89965000D03*
D53*
X181835000Y-85565000D03*
X181835000Y-92365000D03*
%TD*%
D11*
%TO.C,R7*%
X166270000Y-128202500D03*
X167920000Y-128202500D03*
%TD*%
D28*
%TO.C,C13*%
X166545000Y-67240000D03*
X164995000Y-67240000D03*
%TD*%
D58*
%TO.C,U4*%
X142265000Y-116672500D03*
X142265000Y-117172500D03*
X142265000Y-117672500D03*
X142265000Y-118172500D03*
X142265000Y-118672500D03*
X146565000Y-118672500D03*
X146565000Y-118172500D03*
X146565000Y-117672500D03*
X146565000Y-117172500D03*
X146565000Y-116672500D03*
%TD*%
D11*
%TO.C,R55*%
X123155000Y-100390000D03*
X124805000Y-100390000D03*
%TD*%
D19*
%TO.C,D11*%
X159267500Y-109980000D03*
D20*
X160967500Y-109980000D03*
X160967500Y-107980000D03*
X159067500Y-107980000D03*
%TD*%
D11*
%TO.C,R48*%
X132545000Y-65480000D03*
X134195000Y-65480000D03*
%TD*%
D59*
%TO.C,D18*%
X188870000Y-77520000D03*
X188870000Y-76120000D03*
%TD*%
D33*
%TO.C,D13*%
X137590000Y-108280000D03*
X138990000Y-108280000D03*
%TD*%
D11*
%TO.C,R19*%
X149380000Y-122910000D03*
X151030000Y-122910000D03*
%TD*%
D60*
%TO.C,U3*%
X142060000Y-121310000D03*
X142060000Y-122580000D03*
X142060000Y-123850000D03*
X142060000Y-125120000D03*
X142060000Y-126390000D03*
X142060000Y-127660000D03*
X142060000Y-128930000D03*
X147010000Y-128930000D03*
X147010000Y-127660000D03*
X147010000Y-126390000D03*
X147010000Y-125120000D03*
X147010000Y-123850000D03*
X147010000Y-122580000D03*
X147010000Y-121310000D03*
%TD*%
D11*
%TO.C,R32*%
X171395000Y-73060000D03*
X173045000Y-73060000D03*
%TD*%
D28*
%TO.C,C10*%
X184225000Y-143620000D03*
X182675000Y-143620000D03*
%TD*%
D51*
%TO.C,D12*%
X123090000Y-64000000D03*
X123090000Y-65400000D03*
%TD*%
D33*
%TO.C,D28*%
X176780000Y-61590000D03*
X178180000Y-61590000D03*
%TD*%
D51*
%TO.C,D15*%
X116720000Y-63812500D03*
X116720000Y-65212500D03*
%TD*%
D56*
%TO.C,C17*%
X118820000Y-67110000D03*
X116920000Y-67110000D03*
%TD*%
D15*
%TO.C,C30*%
X109590000Y-65825000D03*
X111140000Y-65825000D03*
%TD*%
D35*
%TO.C,L7*%
X120910000Y-63922500D03*
X120910000Y-65497500D03*
%TD*%
D38*
%TO.C,Q1*%
X175340000Y-145732500D03*
X175340000Y-147032500D03*
X177340000Y-146382500D03*
%TD*%
D11*
%TO.C,R45*%
X123080000Y-98390000D03*
X124730000Y-98390000D03*
%TD*%
%TO.C,R37*%
X164325000Y-71370000D03*
X165975000Y-71370000D03*
%TD*%
D15*
%TO.C,C43*%
X176715000Y-65320000D03*
X178265000Y-65320000D03*
%TD*%
D60*
%TO.C,U2*%
X161100000Y-140262500D03*
X161100000Y-141532500D03*
X161100000Y-142802500D03*
X161100000Y-144072500D03*
X161100000Y-145342500D03*
X161100000Y-146612500D03*
X161100000Y-147882500D03*
X166050000Y-147882500D03*
X166050000Y-146612500D03*
X166050000Y-145342500D03*
X166050000Y-144072500D03*
X166050000Y-142802500D03*
X166050000Y-141532500D03*
X166050000Y-140262500D03*
%TD*%
D61*
%TO.C,U10*%
X155757500Y-75210000D03*
X155757500Y-75860000D03*
X155757500Y-76510000D03*
X155757500Y-77160000D03*
X155757500Y-77810000D03*
X155757500Y-78460000D03*
X155757500Y-79110000D03*
X161482500Y-79110000D03*
X161482500Y-78460000D03*
X161482500Y-77810000D03*
X161482500Y-77160000D03*
X161482500Y-76510000D03*
X161482500Y-75860000D03*
X161482500Y-75210000D03*
%TD*%
D10*
%TO.C,R3*%
X162845000Y-123290000D03*
X161195000Y-123290000D03*
%TD*%
D11*
%TO.C,R44*%
X168425000Y-85780000D03*
X170075000Y-85780000D03*
%TD*%
D39*
%TO.C,J3*%
X197600000Y-134000000D03*
D40*
X197400000Y-136825000D03*
X197400000Y-131175000D03*
%TD*%
D13*
%TO.C,C27*%
X188390000Y-60052592D03*
X188390000Y-61602592D03*
%TD*%
D11*
%TO.C,R17*%
X138235000Y-127730000D03*
X139885000Y-127730000D03*
%TD*%
D52*
%TO.C,J11*%
X193060000Y-75750000D03*
X193060000Y-77750000D03*
X193060000Y-79750000D03*
X193060000Y-81750000D03*
D53*
X195310000Y-73350000D03*
X195310000Y-84150000D03*
%TD*%
M02*
