%TF.GenerationSoftware,KiCad,Pcbnew,(6.0.1)*%
%TF.CreationDate,2022-02-11T18:02:55+00:00*%
%TF.ProjectId,Broadcast_Filter,42726f61-6463-4617-9374-5f46696c7465,rev?*%
%TF.SameCoordinates,Original*%
%TF.FileFunction,Copper,L3,Inr*%
%TF.FilePolarity,Positive*%
%FSLAX46Y46*%
G04 Gerber Fmt 4.6, Leading zero omitted, Abs format (unit mm)*
G04 Created by KiCad (PCBNEW (6.0.1)) date 2022-02-11 18:02:55*
%MOMM*%
%LPD*%
G01*
G04 APERTURE LIST*
G04 Aperture macros list*
%AMRoundRect*
0 Rectangle with rounded corners*
0 $1 Rounding radius*
0 $2 $3 $4 $5 $6 $7 $8 $9 X,Y pos of 4 corners*
0 Add a 4 corners polygon primitive as box body*
4,1,4,$2,$3,$4,$5,$6,$7,$8,$9,$2,$3,0*
0 Add four circle primitives for the rounded corners*
1,1,$1+$1,$2,$3*
1,1,$1+$1,$4,$5*
1,1,$1+$1,$6,$7*
1,1,$1+$1,$8,$9*
0 Add four rect primitives between the rounded corners*
20,1,$1+$1,$2,$3,$4,$5,0*
20,1,$1+$1,$4,$5,$6,$7,0*
20,1,$1+$1,$6,$7,$8,$9,0*
20,1,$1+$1,$8,$9,$2,$3,0*%
G04 Aperture macros list end*
%TA.AperFunction,ComponentPad*%
%ADD10RoundRect,0.250000X0.350000X0.625000X-0.350000X0.625000X-0.350000X-0.625000X0.350000X-0.625000X0*%
%TD*%
%TA.AperFunction,ComponentPad*%
%ADD11O,1.200000X1.750000*%
%TD*%
%TA.AperFunction,ViaPad*%
%ADD12C,0.800000*%
%TD*%
%TA.AperFunction,Conductor*%
%ADD13C,0.250000*%
%TD*%
G04 APERTURE END LIST*
D10*
%TO.N,Net-(J2-Pad1)*%
%TO.C,J2*%
X126333000Y-104232800D03*
D11*
%TO.N,Net-(J2-Pad2)*%
X124333000Y-104232800D03*
%TO.N,GND*%
X122333000Y-104232800D03*
%TD*%
D12*
%TO.N,GND*%
X127838200Y-122910600D03*
X148082000Y-115392200D03*
X100914200Y-102590600D03*
X106375200Y-111074200D03*
X140665200Y-113588800D03*
X110032800Y-104013000D03*
X125018800Y-111125000D03*
X107467400Y-115062000D03*
X126187200Y-119786400D03*
X126314200Y-116611400D03*
X119507000Y-116484400D03*
X105206800Y-116408200D03*
X129184400Y-111175800D03*
X106197400Y-119634000D03*
X131177900Y-126632100D03*
X116332000Y-113588800D03*
X146685000Y-113207800D03*
X107950000Y-119684800D03*
X126199500Y-126530500D03*
X105460800Y-106197400D03*
X104749600Y-107111800D03*
X110032800Y-100990400D03*
X128104500Y-126530500D03*
X111035700Y-126479700D03*
X104698800Y-108458000D03*
X140639800Y-111099600D03*
X133527800Y-113614200D03*
X124333000Y-116306600D03*
X136220200Y-119964200D03*
X108000800Y-123139200D03*
X102006400Y-110693200D03*
X109575600Y-127914400D03*
X123037600Y-122986800D03*
X130987800Y-104648000D03*
X106908600Y-102463600D03*
X115976400Y-123240800D03*
X148437600Y-108483400D03*
X140081000Y-100863400D03*
X122897500Y-126530500D03*
X139700000Y-128295400D03*
X117830600Y-114884200D03*
X138252200Y-111099600D03*
X106324400Y-107721400D03*
X101930200Y-106095800D03*
X129260600Y-113614200D03*
X148945600Y-101015800D03*
X120345200Y-104267000D03*
X140030200Y-102438200D03*
X118237000Y-104521000D03*
X132892800Y-116890800D03*
X112750600Y-114833400D03*
X116128800Y-114782600D03*
X108077000Y-105029000D03*
X112813700Y-126479700D03*
X138277600Y-119938800D03*
X141325600Y-123088400D03*
X121716800Y-107365800D03*
X116001800Y-119888000D03*
X135991600Y-113588800D03*
X143129000Y-102438200D03*
X143332200Y-119913400D03*
X120700800Y-113563400D03*
X102336600Y-113055400D03*
X120954800Y-123063000D03*
X127279400Y-113614200D03*
X116217300Y-126530500D03*
X145846800Y-104444800D03*
X102336600Y-117449600D03*
X112750600Y-119710200D03*
X120777000Y-111099600D03*
X143459200Y-104698800D03*
X143103600Y-100965000D03*
X141605000Y-114147600D03*
X131368800Y-113639600D03*
X100939600Y-104013000D03*
X136194800Y-123012200D03*
X114477800Y-116484400D03*
X108000800Y-126542800D03*
X148996400Y-102539800D03*
X110083600Y-113614200D03*
X111023400Y-121437400D03*
X100914200Y-100990400D03*
X104775000Y-118999000D03*
X145948400Y-102565200D03*
X108051600Y-107289600D03*
X142875000Y-107518200D03*
X107823000Y-116636800D03*
X112064800Y-111125000D03*
X125044200Y-113639600D03*
X147548600Y-105689400D03*
X102006400Y-111861600D03*
X120904000Y-114681000D03*
X139725400Y-116916200D03*
X118516400Y-111125000D03*
X106908600Y-103987600D03*
X122910600Y-113614200D03*
X123012200Y-119761000D03*
X110032800Y-102412800D03*
X104114600Y-102489000D03*
X135940800Y-111125000D03*
X145923000Y-101015800D03*
X112826800Y-124866400D03*
X101904800Y-107594400D03*
X143840200Y-114452400D03*
X148132800Y-111582200D03*
X145440400Y-109016800D03*
X137959700Y-126632100D03*
X131191000Y-123113800D03*
X129717800Y-128168400D03*
X110972600Y-124841000D03*
X103555800Y-105029000D03*
X140081000Y-104571800D03*
X144399000Y-118491000D03*
X109423200Y-116535200D03*
X144094200Y-106045000D03*
X114147600Y-111125000D03*
X106883200Y-100736400D03*
X108102400Y-111074200D03*
X121005600Y-119862600D03*
X131292600Y-111150400D03*
X112750600Y-123037600D03*
X141884400Y-106019600D03*
X117983000Y-123164600D03*
X127177800Y-111125000D03*
X131114800Y-119837200D03*
X111150400Y-104648000D03*
X104063800Y-103936800D03*
X114198400Y-113512600D03*
X102438200Y-105054400D03*
X125958600Y-122936000D03*
X148920200Y-104165400D03*
X122910600Y-111048800D03*
X145440400Y-107391200D03*
X146558000Y-117144800D03*
X107696000Y-113360200D03*
X134823200Y-128143000D03*
X129590800Y-116865400D03*
X104343200Y-110007400D03*
X101930200Y-109143800D03*
X145745200Y-110845600D03*
X138303000Y-113588800D03*
X119481600Y-128016000D03*
X111023400Y-119684800D03*
X104800400Y-117576600D03*
X133045200Y-119710200D03*
X141198600Y-126619000D03*
X110032800Y-111125000D03*
X136334100Y-126632100D03*
X101396800Y-114300000D03*
X105232200Y-114630200D03*
X133553200Y-111150400D03*
X138353800Y-104571800D03*
X121043300Y-126530500D03*
X118618000Y-113614200D03*
X112191800Y-113512600D03*
X144322800Y-117017800D03*
X108000800Y-124815600D03*
X117944500Y-126530500D03*
X122377200Y-101447600D03*
X133082900Y-126632100D03*
X141630400Y-116941600D03*
X127863600Y-119786400D03*
X110972600Y-123139200D03*
X122809000Y-114681000D03*
X117957600Y-119761000D03*
X133121400Y-123063000D03*
X136372600Y-116865400D03*
X104165400Y-100863400D03*
X114528600Y-128092200D03*
X141605000Y-115519200D03*
X124561600Y-128066800D03*
X111099600Y-114884200D03*
X138176000Y-123063000D03*
X141325600Y-119913400D03*
X112826800Y-121412000D03*
X143433800Y-111150400D03*
X148107400Y-109931200D03*
X148463000Y-107010200D03*
X106299000Y-105181400D03*
X116306600Y-111125000D03*
X108000800Y-121361200D03*
%TO.N,/Thru*%
X103022400Y-114350800D03*
X122782468Y-107365800D03*
X145694400Y-114300000D03*
%TD*%
D13*
%TO.N,/Thru*%
X144864814Y-114300000D02*
X137930614Y-107365800D01*
X103022400Y-113402386D02*
X108334475Y-108090311D01*
X103022400Y-114350800D02*
X103022400Y-113402386D01*
X145694400Y-114300000D02*
X144864814Y-114300000D01*
X137930614Y-107365800D02*
X122782468Y-107365800D01*
X122057957Y-108090311D02*
X122782468Y-107365800D01*
X108334475Y-108090311D02*
X122057957Y-108090311D01*
%TD*%
M02*
