%TF.GenerationSoftware,KiCad,Pcbnew,(6.0.1)*%
%TF.CreationDate,2022-02-11T18:02:55+00:00*%
%TF.ProjectId,Broadcast_Filter,42726f61-6463-4617-9374-5f46696c7465,rev?*%
%TF.SameCoordinates,Original*%
%TF.FileFunction,Legend,Top*%
%TF.FilePolarity,Positive*%
%FSLAX46Y46*%
G04 Gerber Fmt 4.6, Leading zero omitted, Abs format (unit mm)*
G04 Created by KiCad (PCBNEW (6.0.1)) date 2022-02-11 18:02:55*
%MOMM*%
%LPD*%
G01*
G04 APERTURE LIST*
%ADD10C,0.300000*%
%ADD11C,0.150000*%
%ADD12C,0.120000*%
G04 APERTURE END LIST*
D10*
X110621171Y-112748142D02*
X110835457Y-112819571D01*
X111192599Y-112819571D01*
X111335457Y-112748142D01*
X111406885Y-112676714D01*
X111478314Y-112533857D01*
X111478314Y-112391000D01*
X111406885Y-112248142D01*
X111335457Y-112176714D01*
X111192599Y-112105285D01*
X110906885Y-112033857D01*
X110764028Y-111962428D01*
X110692599Y-111891000D01*
X110621171Y-111748142D01*
X110621171Y-111605285D01*
X110692599Y-111462428D01*
X110764028Y-111391000D01*
X110906885Y-111319571D01*
X111264028Y-111319571D01*
X111478314Y-111391000D01*
X111978314Y-111819571D02*
X112264028Y-112819571D01*
X112549742Y-112105285D01*
X112835457Y-112819571D01*
X113121171Y-111819571D01*
X113692599Y-112819571D02*
X113692599Y-111819571D01*
X113692599Y-111319571D02*
X113621171Y-111391000D01*
X113692599Y-111462428D01*
X113764028Y-111391000D01*
X113692599Y-111319571D01*
X113692599Y-111462428D01*
X114192599Y-111819571D02*
X114764028Y-111819571D01*
X114406885Y-111319571D02*
X114406885Y-112605285D01*
X114478314Y-112748142D01*
X114621171Y-112819571D01*
X114764028Y-112819571D01*
X115906885Y-112748142D02*
X115764028Y-112819571D01*
X115478314Y-112819571D01*
X115335457Y-112748142D01*
X115264028Y-112676714D01*
X115192599Y-112533857D01*
X115192599Y-112105285D01*
X115264028Y-111962428D01*
X115335457Y-111891000D01*
X115478314Y-111819571D01*
X115764028Y-111819571D01*
X115906885Y-111891000D01*
X116549742Y-112819571D02*
X116549742Y-111319571D01*
X117192599Y-112819571D02*
X117192599Y-112033857D01*
X117121171Y-111891000D01*
X116978314Y-111819571D01*
X116764028Y-111819571D01*
X116621171Y-111891000D01*
X116549742Y-111962428D01*
X118478314Y-112748142D02*
X118335457Y-112819571D01*
X118049742Y-112819571D01*
X117906885Y-112748142D01*
X117835457Y-112605285D01*
X117835457Y-112033857D01*
X117906885Y-111891000D01*
X118049742Y-111819571D01*
X118335457Y-111819571D01*
X118478314Y-111891000D01*
X118549742Y-112033857D01*
X118549742Y-112176714D01*
X117835457Y-112319571D01*
X119835457Y-112819571D02*
X119835457Y-111319571D01*
X119835457Y-112748142D02*
X119692599Y-112819571D01*
X119406885Y-112819571D01*
X119264028Y-112748142D01*
X119192599Y-112676714D01*
X119121171Y-112533857D01*
X119121171Y-112105285D01*
X119192599Y-111962428D01*
X119264028Y-111891000D01*
X119406885Y-111819571D01*
X119692599Y-111819571D01*
X119835457Y-111891000D01*
X122192599Y-112033857D02*
X122406885Y-112105285D01*
X122478314Y-112176714D01*
X122549742Y-112319571D01*
X122549742Y-112533857D01*
X122478314Y-112676714D01*
X122406885Y-112748142D01*
X122264028Y-112819571D01*
X121692599Y-112819571D01*
X121692599Y-111319571D01*
X122192599Y-111319571D01*
X122335457Y-111391000D01*
X122406885Y-111462428D01*
X122478314Y-111605285D01*
X122478314Y-111748142D01*
X122406885Y-111891000D01*
X122335457Y-111962428D01*
X122192599Y-112033857D01*
X121692599Y-112033857D01*
X123192599Y-112819571D02*
X123192599Y-111819571D01*
X123192599Y-112105285D02*
X123264028Y-111962428D01*
X123335457Y-111891000D01*
X123478314Y-111819571D01*
X123621171Y-111819571D01*
X124335457Y-112819571D02*
X124192600Y-112748142D01*
X124121171Y-112676714D01*
X124049742Y-112533857D01*
X124049742Y-112105285D01*
X124121171Y-111962428D01*
X124192600Y-111891000D01*
X124335457Y-111819571D01*
X124549742Y-111819571D01*
X124692600Y-111891000D01*
X124764028Y-111962428D01*
X124835457Y-112105285D01*
X124835457Y-112533857D01*
X124764028Y-112676714D01*
X124692600Y-112748142D01*
X124549742Y-112819571D01*
X124335457Y-112819571D01*
X126121171Y-112819571D02*
X126121171Y-112033857D01*
X126049742Y-111891000D01*
X125906885Y-111819571D01*
X125621171Y-111819571D01*
X125478314Y-111891000D01*
X126121171Y-112748142D02*
X125978314Y-112819571D01*
X125621171Y-112819571D01*
X125478314Y-112748142D01*
X125406885Y-112605285D01*
X125406885Y-112462428D01*
X125478314Y-112319571D01*
X125621171Y-112248142D01*
X125978314Y-112248142D01*
X126121171Y-112176714D01*
X127478314Y-112819571D02*
X127478314Y-111319571D01*
X127478314Y-112748142D02*
X127335457Y-112819571D01*
X127049742Y-112819571D01*
X126906885Y-112748142D01*
X126835457Y-112676714D01*
X126764028Y-112533857D01*
X126764028Y-112105285D01*
X126835457Y-111962428D01*
X126906885Y-111891000D01*
X127049742Y-111819571D01*
X127335457Y-111819571D01*
X127478314Y-111891000D01*
X128835457Y-112748142D02*
X128692600Y-112819571D01*
X128406885Y-112819571D01*
X128264028Y-112748142D01*
X128192600Y-112676714D01*
X128121171Y-112533857D01*
X128121171Y-112105285D01*
X128192600Y-111962428D01*
X128264028Y-111891000D01*
X128406885Y-111819571D01*
X128692600Y-111819571D01*
X128835457Y-111891000D01*
X130121171Y-112819571D02*
X130121171Y-112033857D01*
X130049742Y-111891000D01*
X129906885Y-111819571D01*
X129621171Y-111819571D01*
X129478314Y-111891000D01*
X130121171Y-112748142D02*
X129978314Y-112819571D01*
X129621171Y-112819571D01*
X129478314Y-112748142D01*
X129406885Y-112605285D01*
X129406885Y-112462428D01*
X129478314Y-112319571D01*
X129621171Y-112248142D01*
X129978314Y-112248142D01*
X130121171Y-112176714D01*
X130764028Y-112748142D02*
X130906885Y-112819571D01*
X131192600Y-112819571D01*
X131335457Y-112748142D01*
X131406885Y-112605285D01*
X131406885Y-112533857D01*
X131335457Y-112391000D01*
X131192600Y-112319571D01*
X130978314Y-112319571D01*
X130835457Y-112248142D01*
X130764028Y-112105285D01*
X130764028Y-112033857D01*
X130835457Y-111891000D01*
X130978314Y-111819571D01*
X131192600Y-111819571D01*
X131335457Y-111891000D01*
X131835457Y-111819571D02*
X132406885Y-111819571D01*
X132049742Y-111319571D02*
X132049742Y-112605285D01*
X132121171Y-112748142D01*
X132264028Y-112819571D01*
X132406885Y-112819571D01*
X134549742Y-112033857D02*
X134049742Y-112033857D01*
X134049742Y-112819571D02*
X134049742Y-111319571D01*
X134764028Y-111319571D01*
X135335457Y-112819571D02*
X135335457Y-111819571D01*
X135335457Y-111319571D02*
X135264028Y-111391000D01*
X135335457Y-111462428D01*
X135406885Y-111391000D01*
X135335457Y-111319571D01*
X135335457Y-111462428D01*
X136264028Y-112819571D02*
X136121171Y-112748142D01*
X136049742Y-112605285D01*
X136049742Y-111319571D01*
X136621171Y-111819571D02*
X137192600Y-111819571D01*
X136835457Y-111319571D02*
X136835457Y-112605285D01*
X136906885Y-112748142D01*
X137049742Y-112819571D01*
X137192600Y-112819571D01*
X138264028Y-112748142D02*
X138121171Y-112819571D01*
X137835457Y-112819571D01*
X137692600Y-112748142D01*
X137621171Y-112605285D01*
X137621171Y-112033857D01*
X137692600Y-111891000D01*
X137835457Y-111819571D01*
X138121171Y-111819571D01*
X138264028Y-111891000D01*
X138335457Y-112033857D01*
X138335457Y-112176714D01*
X137621171Y-112319571D01*
X138978314Y-112819571D02*
X138978314Y-111819571D01*
X138978314Y-112105285D02*
X139049742Y-111962428D01*
X139121171Y-111891000D01*
X139264028Y-111819571D01*
X139406885Y-111819571D01*
D11*
%TO.C,L9*%
X121804133Y-120365780D02*
X121327942Y-120365780D01*
X121327942Y-119365780D01*
X122185085Y-120365780D02*
X122375561Y-120365780D01*
X122470800Y-120318161D01*
X122518419Y-120270542D01*
X122613657Y-120127685D01*
X122661276Y-119937209D01*
X122661276Y-119556257D01*
X122613657Y-119461019D01*
X122566038Y-119413400D01*
X122470800Y-119365780D01*
X122280323Y-119365780D01*
X122185085Y-119413400D01*
X122137466Y-119461019D01*
X122089847Y-119556257D01*
X122089847Y-119794352D01*
X122137466Y-119889590D01*
X122185085Y-119937209D01*
X122280323Y-119984828D01*
X122470800Y-119984828D01*
X122566038Y-119937209D01*
X122613657Y-119889590D01*
X122661276Y-119794352D01*
%TO.C,J2*%
X119554666Y-106614980D02*
X119554666Y-107329266D01*
X119507047Y-107472123D01*
X119411809Y-107567361D01*
X119268952Y-107614980D01*
X119173714Y-107614980D01*
X119983238Y-106710219D02*
X120030857Y-106662600D01*
X120126095Y-106614980D01*
X120364190Y-106614980D01*
X120459428Y-106662600D01*
X120507047Y-106710219D01*
X120554666Y-106805457D01*
X120554666Y-106900695D01*
X120507047Y-107043552D01*
X119935619Y-107614980D01*
X120554666Y-107614980D01*
%TO.C,C8*%
X112558533Y-126061742D02*
X112510914Y-126109361D01*
X112368057Y-126156980D01*
X112272819Y-126156980D01*
X112129961Y-126109361D01*
X112034723Y-126014123D01*
X111987104Y-125918885D01*
X111939485Y-125728409D01*
X111939485Y-125585552D01*
X111987104Y-125395076D01*
X112034723Y-125299838D01*
X112129961Y-125204600D01*
X112272819Y-125156980D01*
X112368057Y-125156980D01*
X112510914Y-125204600D01*
X112558533Y-125252219D01*
X113129961Y-125585552D02*
X113034723Y-125537933D01*
X112987104Y-125490314D01*
X112939485Y-125395076D01*
X112939485Y-125347457D01*
X112987104Y-125252219D01*
X113034723Y-125204600D01*
X113129961Y-125156980D01*
X113320438Y-125156980D01*
X113415676Y-125204600D01*
X113463295Y-125252219D01*
X113510914Y-125347457D01*
X113510914Y-125395076D01*
X113463295Y-125490314D01*
X113415676Y-125537933D01*
X113320438Y-125585552D01*
X113129961Y-125585552D01*
X113034723Y-125633171D01*
X112987104Y-125680790D01*
X112939485Y-125776028D01*
X112939485Y-125966504D01*
X112987104Y-126061742D01*
X113034723Y-126109361D01*
X113129961Y-126156980D01*
X113320438Y-126156980D01*
X113415676Y-126109361D01*
X113463295Y-126061742D01*
X113510914Y-125966504D01*
X113510914Y-125776028D01*
X113463295Y-125680790D01*
X113415676Y-125633171D01*
X113320438Y-125585552D01*
%TO.C,C5*%
X102855733Y-117509542D02*
X102808114Y-117557161D01*
X102665257Y-117604780D01*
X102570019Y-117604780D01*
X102427161Y-117557161D01*
X102331923Y-117461923D01*
X102284304Y-117366685D01*
X102236685Y-117176209D01*
X102236685Y-117033352D01*
X102284304Y-116842876D01*
X102331923Y-116747638D01*
X102427161Y-116652400D01*
X102570019Y-116604780D01*
X102665257Y-116604780D01*
X102808114Y-116652400D01*
X102855733Y-116700019D01*
X103760495Y-116604780D02*
X103284304Y-116604780D01*
X103236685Y-117080971D01*
X103284304Y-117033352D01*
X103379542Y-116985733D01*
X103617638Y-116985733D01*
X103712876Y-117033352D01*
X103760495Y-117080971D01*
X103808114Y-117176209D01*
X103808114Y-117414304D01*
X103760495Y-117509542D01*
X103712876Y-117557161D01*
X103617638Y-117604780D01*
X103379542Y-117604780D01*
X103284304Y-117557161D01*
X103236685Y-117509542D01*
%TO.C,L4*%
X114336533Y-117165380D02*
X113860342Y-117165380D01*
X113860342Y-116165380D01*
X115098438Y-116498714D02*
X115098438Y-117165380D01*
X114860342Y-116117761D02*
X114622247Y-116832047D01*
X115241295Y-116832047D01*
%TO.C,C1*%
X102203542Y-107774066D02*
X102251161Y-107821685D01*
X102298780Y-107964542D01*
X102298780Y-108059780D01*
X102251161Y-108202638D01*
X102155923Y-108297876D01*
X102060685Y-108345495D01*
X101870209Y-108393114D01*
X101727352Y-108393114D01*
X101536876Y-108345495D01*
X101441638Y-108297876D01*
X101346400Y-108202638D01*
X101298780Y-108059780D01*
X101298780Y-107964542D01*
X101346400Y-107821685D01*
X101394019Y-107774066D01*
X102298780Y-106821685D02*
X102298780Y-107393114D01*
X102298780Y-107107400D02*
X101298780Y-107107400D01*
X101441638Y-107202638D01*
X101536876Y-107297876D01*
X101584495Y-107393114D01*
%TO.C,L10*%
X124299742Y-117089180D02*
X123823552Y-117089180D01*
X123823552Y-116089180D01*
X125156885Y-117089180D02*
X124585457Y-117089180D01*
X124871171Y-117089180D02*
X124871171Y-116089180D01*
X124775933Y-116232038D01*
X124680695Y-116327276D01*
X124585457Y-116374895D01*
X125775933Y-116089180D02*
X125871171Y-116089180D01*
X125966409Y-116136800D01*
X126014028Y-116184419D01*
X126061647Y-116279657D01*
X126109266Y-116470133D01*
X126109266Y-116708228D01*
X126061647Y-116898704D01*
X126014028Y-116993942D01*
X125966409Y-117041561D01*
X125871171Y-117089180D01*
X125775933Y-117089180D01*
X125680695Y-117041561D01*
X125633076Y-116993942D01*
X125585457Y-116898704D01*
X125537838Y-116708228D01*
X125537838Y-116470133D01*
X125585457Y-116279657D01*
X125633076Y-116184419D01*
X125680695Y-116136800D01*
X125775933Y-116089180D01*
%TO.C,J3*%
X138324666Y-102222280D02*
X138324666Y-102936566D01*
X138277047Y-103079423D01*
X138181809Y-103174661D01*
X138038952Y-103222280D01*
X137943714Y-103222280D01*
X138705619Y-102222280D02*
X139324666Y-102222280D01*
X138991333Y-102603233D01*
X139134190Y-102603233D01*
X139229428Y-102650852D01*
X139277047Y-102698471D01*
X139324666Y-102793709D01*
X139324666Y-103031804D01*
X139277047Y-103127042D01*
X139229428Y-103174661D01*
X139134190Y-103222280D01*
X138848476Y-103222280D01*
X138753238Y-103174661D01*
X138705619Y-103127042D01*
%TO.C,L15*%
X131818142Y-123058180D02*
X131341952Y-123058180D01*
X131341952Y-122058180D01*
X132675285Y-123058180D02*
X132103857Y-123058180D01*
X132389571Y-123058180D02*
X132389571Y-122058180D01*
X132294333Y-122201038D01*
X132199095Y-122296276D01*
X132103857Y-122343895D01*
X133580047Y-122058180D02*
X133103857Y-122058180D01*
X133056238Y-122534371D01*
X133103857Y-122486752D01*
X133199095Y-122439133D01*
X133437190Y-122439133D01*
X133532428Y-122486752D01*
X133580047Y-122534371D01*
X133627666Y-122629609D01*
X133627666Y-122867704D01*
X133580047Y-122962942D01*
X133532428Y-123010561D01*
X133437190Y-123058180D01*
X133199095Y-123058180D01*
X133103857Y-123010561D01*
X133056238Y-122962942D01*
%TO.C,C10*%
X116654342Y-125934742D02*
X116606723Y-125982361D01*
X116463866Y-126029980D01*
X116368628Y-126029980D01*
X116225771Y-125982361D01*
X116130533Y-125887123D01*
X116082914Y-125791885D01*
X116035295Y-125601409D01*
X116035295Y-125458552D01*
X116082914Y-125268076D01*
X116130533Y-125172838D01*
X116225771Y-125077600D01*
X116368628Y-125029980D01*
X116463866Y-125029980D01*
X116606723Y-125077600D01*
X116654342Y-125125219D01*
X117606723Y-126029980D02*
X117035295Y-126029980D01*
X117321009Y-126029980D02*
X117321009Y-125029980D01*
X117225771Y-125172838D01*
X117130533Y-125268076D01*
X117035295Y-125315695D01*
X118225771Y-125029980D02*
X118321009Y-125029980D01*
X118416247Y-125077600D01*
X118463866Y-125125219D01*
X118511485Y-125220457D01*
X118559104Y-125410933D01*
X118559104Y-125649028D01*
X118511485Y-125839504D01*
X118463866Y-125934742D01*
X118416247Y-125982361D01*
X118321009Y-126029980D01*
X118225771Y-126029980D01*
X118130533Y-125982361D01*
X118082914Y-125934742D01*
X118035295Y-125839504D01*
X117987676Y-125649028D01*
X117987676Y-125410933D01*
X118035295Y-125220457D01*
X118082914Y-125125219D01*
X118130533Y-125077600D01*
X118225771Y-125029980D01*
%TO.C,L1*%
X107681733Y-120340380D02*
X107205542Y-120340380D01*
X107205542Y-119340380D01*
X108538876Y-120340380D02*
X107967447Y-120340380D01*
X108253161Y-120340380D02*
X108253161Y-119340380D01*
X108157923Y-119483238D01*
X108062685Y-119578476D01*
X107967447Y-119626095D01*
%TO.C,L3*%
X112482333Y-120441980D02*
X112006142Y-120441980D01*
X112006142Y-119441980D01*
X112720428Y-119441980D02*
X113339476Y-119441980D01*
X113006142Y-119822933D01*
X113149000Y-119822933D01*
X113244238Y-119870552D01*
X113291857Y-119918171D01*
X113339476Y-120013409D01*
X113339476Y-120251504D01*
X113291857Y-120346742D01*
X113244238Y-120394361D01*
X113149000Y-120441980D01*
X112863285Y-120441980D01*
X112768047Y-120394361D01*
X112720428Y-120346742D01*
%TO.C,C12*%
X121632742Y-125934742D02*
X121585123Y-125982361D01*
X121442266Y-126029980D01*
X121347028Y-126029980D01*
X121204171Y-125982361D01*
X121108933Y-125887123D01*
X121061314Y-125791885D01*
X121013695Y-125601409D01*
X121013695Y-125458552D01*
X121061314Y-125268076D01*
X121108933Y-125172838D01*
X121204171Y-125077600D01*
X121347028Y-125029980D01*
X121442266Y-125029980D01*
X121585123Y-125077600D01*
X121632742Y-125125219D01*
X122585123Y-126029980D02*
X122013695Y-126029980D01*
X122299409Y-126029980D02*
X122299409Y-125029980D01*
X122204171Y-125172838D01*
X122108933Y-125268076D01*
X122013695Y-125315695D01*
X122966076Y-125125219D02*
X123013695Y-125077600D01*
X123108933Y-125029980D01*
X123347028Y-125029980D01*
X123442266Y-125077600D01*
X123489885Y-125125219D01*
X123537504Y-125220457D01*
X123537504Y-125315695D01*
X123489885Y-125458552D01*
X122918457Y-126029980D01*
X123537504Y-126029980D01*
%TO.C,C14*%
X126839742Y-125909342D02*
X126792123Y-125956961D01*
X126649266Y-126004580D01*
X126554028Y-126004580D01*
X126411171Y-125956961D01*
X126315933Y-125861723D01*
X126268314Y-125766485D01*
X126220695Y-125576009D01*
X126220695Y-125433152D01*
X126268314Y-125242676D01*
X126315933Y-125147438D01*
X126411171Y-125052200D01*
X126554028Y-125004580D01*
X126649266Y-125004580D01*
X126792123Y-125052200D01*
X126839742Y-125099819D01*
X127792123Y-126004580D02*
X127220695Y-126004580D01*
X127506409Y-126004580D02*
X127506409Y-125004580D01*
X127411171Y-125147438D01*
X127315933Y-125242676D01*
X127220695Y-125290295D01*
X128649266Y-125337914D02*
X128649266Y-126004580D01*
X128411171Y-124956961D02*
X128173076Y-125671247D01*
X128792123Y-125671247D01*
%TO.C,R1*%
X126426933Y-110713780D02*
X126093600Y-110237590D01*
X125855504Y-110713780D02*
X125855504Y-109713780D01*
X126236457Y-109713780D01*
X126331695Y-109761400D01*
X126379314Y-109809019D01*
X126426933Y-109904257D01*
X126426933Y-110047114D01*
X126379314Y-110142352D01*
X126331695Y-110189971D01*
X126236457Y-110237590D01*
X125855504Y-110237590D01*
X127379314Y-110713780D02*
X126807885Y-110713780D01*
X127093600Y-110713780D02*
X127093600Y-109713780D01*
X126998361Y-109856638D01*
X126903123Y-109951876D01*
X126807885Y-109999495D01*
%TO.C,L17*%
X136847342Y-122956580D02*
X136371152Y-122956580D01*
X136371152Y-121956580D01*
X137704485Y-122956580D02*
X137133057Y-122956580D01*
X137418771Y-122956580D02*
X137418771Y-121956580D01*
X137323533Y-122099438D01*
X137228295Y-122194676D01*
X137133057Y-122242295D01*
X138037819Y-121956580D02*
X138704485Y-121956580D01*
X138275914Y-122956580D01*
%TO.C,R3*%
X106843533Y-117038380D02*
X106510200Y-116562190D01*
X106272104Y-117038380D02*
X106272104Y-116038380D01*
X106653057Y-116038380D01*
X106748295Y-116086000D01*
X106795914Y-116133619D01*
X106843533Y-116228857D01*
X106843533Y-116371714D01*
X106795914Y-116466952D01*
X106748295Y-116514571D01*
X106653057Y-116562190D01*
X106272104Y-116562190D01*
X107176866Y-116038380D02*
X107795914Y-116038380D01*
X107462580Y-116419333D01*
X107605438Y-116419333D01*
X107700676Y-116466952D01*
X107748295Y-116514571D01*
X107795914Y-116609809D01*
X107795914Y-116847904D01*
X107748295Y-116943142D01*
X107700676Y-116990761D01*
X107605438Y-117038380D01*
X107319723Y-117038380D01*
X107224485Y-116990761D01*
X107176866Y-116943142D01*
%TO.C,L11*%
X121810542Y-122829580D02*
X121334352Y-122829580D01*
X121334352Y-121829580D01*
X122667685Y-122829580D02*
X122096257Y-122829580D01*
X122381971Y-122829580D02*
X122381971Y-121829580D01*
X122286733Y-121972438D01*
X122191495Y-122067676D01*
X122096257Y-122115295D01*
X123620066Y-122829580D02*
X123048638Y-122829580D01*
X123334352Y-122829580D02*
X123334352Y-121829580D01*
X123239114Y-121972438D01*
X123143876Y-122067676D01*
X123048638Y-122115295D01*
%TO.C,R2*%
X124013933Y-110764580D02*
X123680600Y-110288390D01*
X123442504Y-110764580D02*
X123442504Y-109764580D01*
X123823457Y-109764580D01*
X123918695Y-109812200D01*
X123966314Y-109859819D01*
X124013933Y-109955057D01*
X124013933Y-110097914D01*
X123966314Y-110193152D01*
X123918695Y-110240771D01*
X123823457Y-110288390D01*
X123442504Y-110288390D01*
X124394885Y-109859819D02*
X124442504Y-109812200D01*
X124537742Y-109764580D01*
X124775838Y-109764580D01*
X124871076Y-109812200D01*
X124918695Y-109859819D01*
X124966314Y-109955057D01*
X124966314Y-110050295D01*
X124918695Y-110193152D01*
X124347266Y-110764580D01*
X124966314Y-110764580D01*
%TO.C,L16*%
X139133342Y-117317780D02*
X138657152Y-117317780D01*
X138657152Y-116317780D01*
X139990485Y-117317780D02*
X139419057Y-117317780D01*
X139704771Y-117317780D02*
X139704771Y-116317780D01*
X139609533Y-116460638D01*
X139514295Y-116555876D01*
X139419057Y-116603495D01*
X140847628Y-116317780D02*
X140657152Y-116317780D01*
X140561914Y-116365400D01*
X140514295Y-116413019D01*
X140419057Y-116555876D01*
X140371438Y-116746352D01*
X140371438Y-117127304D01*
X140419057Y-117222542D01*
X140466676Y-117270161D01*
X140561914Y-117317780D01*
X140752390Y-117317780D01*
X140847628Y-117270161D01*
X140895247Y-117222542D01*
X140942866Y-117127304D01*
X140942866Y-116889209D01*
X140895247Y-116793971D01*
X140847628Y-116746352D01*
X140752390Y-116698733D01*
X140561914Y-116698733D01*
X140466676Y-116746352D01*
X140419057Y-116793971D01*
X140371438Y-116889209D01*
%TO.C,J1*%
X110856266Y-102541380D02*
X110856266Y-103255666D01*
X110808647Y-103398523D01*
X110713409Y-103493761D01*
X110570552Y-103541380D01*
X110475314Y-103541380D01*
X111856266Y-103541380D02*
X111284838Y-103541380D01*
X111570552Y-103541380D02*
X111570552Y-102541380D01*
X111475314Y-102684238D01*
X111380076Y-102779476D01*
X111284838Y-102827095D01*
%TO.C,L5*%
X112482333Y-122981980D02*
X112006142Y-122981980D01*
X112006142Y-121981980D01*
X113291857Y-121981980D02*
X112815666Y-121981980D01*
X112768047Y-122458171D01*
X112815666Y-122410552D01*
X112910904Y-122362933D01*
X113149000Y-122362933D01*
X113244238Y-122410552D01*
X113291857Y-122458171D01*
X113339476Y-122553409D01*
X113339476Y-122791504D01*
X113291857Y-122886742D01*
X113244238Y-122934361D01*
X113149000Y-122981980D01*
X112910904Y-122981980D01*
X112815666Y-122934361D01*
X112768047Y-122886742D01*
%TO.C,C13*%
X126382542Y-120219742D02*
X126334923Y-120267361D01*
X126192066Y-120314980D01*
X126096828Y-120314980D01*
X125953971Y-120267361D01*
X125858733Y-120172123D01*
X125811114Y-120076885D01*
X125763495Y-119886409D01*
X125763495Y-119743552D01*
X125811114Y-119553076D01*
X125858733Y-119457838D01*
X125953971Y-119362600D01*
X126096828Y-119314980D01*
X126192066Y-119314980D01*
X126334923Y-119362600D01*
X126382542Y-119410219D01*
X127334923Y-120314980D02*
X126763495Y-120314980D01*
X127049209Y-120314980D02*
X127049209Y-119314980D01*
X126953971Y-119457838D01*
X126858733Y-119553076D01*
X126763495Y-119600695D01*
X127668257Y-119314980D02*
X128287304Y-119314980D01*
X127953971Y-119695933D01*
X128096828Y-119695933D01*
X128192066Y-119743552D01*
X128239685Y-119791171D01*
X128287304Y-119886409D01*
X128287304Y-120124504D01*
X128239685Y-120219742D01*
X128192066Y-120267361D01*
X128096828Y-120314980D01*
X127811114Y-120314980D01*
X127715876Y-120267361D01*
X127668257Y-120219742D01*
%TO.C,L2*%
X107681733Y-122880380D02*
X107205542Y-122880380D01*
X107205542Y-121880380D01*
X107967447Y-121975619D02*
X108015066Y-121928000D01*
X108110304Y-121880380D01*
X108348400Y-121880380D01*
X108443638Y-121928000D01*
X108491257Y-121975619D01*
X108538876Y-122070857D01*
X108538876Y-122166095D01*
X108491257Y-122308952D01*
X107919828Y-122880380D01*
X108538876Y-122880380D01*
%TO.C,L6*%
X117613133Y-120314980D02*
X117136942Y-120314980D01*
X117136942Y-119314980D01*
X118375038Y-119314980D02*
X118184561Y-119314980D01*
X118089323Y-119362600D01*
X118041704Y-119410219D01*
X117946466Y-119553076D01*
X117898847Y-119743552D01*
X117898847Y-120124504D01*
X117946466Y-120219742D01*
X117994085Y-120267361D01*
X118089323Y-120314980D01*
X118279800Y-120314980D01*
X118375038Y-120267361D01*
X118422657Y-120219742D01*
X118470276Y-120124504D01*
X118470276Y-119886409D01*
X118422657Y-119791171D01*
X118375038Y-119743552D01*
X118279800Y-119695933D01*
X118089323Y-119695933D01*
X117994085Y-119743552D01*
X117946466Y-119791171D01*
X117898847Y-119886409D01*
%TO.C,C3*%
X107630933Y-126036342D02*
X107583314Y-126083961D01*
X107440457Y-126131580D01*
X107345219Y-126131580D01*
X107202361Y-126083961D01*
X107107123Y-125988723D01*
X107059504Y-125893485D01*
X107011885Y-125703009D01*
X107011885Y-125560152D01*
X107059504Y-125369676D01*
X107107123Y-125274438D01*
X107202361Y-125179200D01*
X107345219Y-125131580D01*
X107440457Y-125131580D01*
X107583314Y-125179200D01*
X107630933Y-125226819D01*
X107964266Y-125131580D02*
X108583314Y-125131580D01*
X108249980Y-125512533D01*
X108392838Y-125512533D01*
X108488076Y-125560152D01*
X108535695Y-125607771D01*
X108583314Y-125703009D01*
X108583314Y-125941104D01*
X108535695Y-126036342D01*
X108488076Y-126083961D01*
X108392838Y-126131580D01*
X108107123Y-126131580D01*
X108011885Y-126083961D01*
X107964266Y-126036342D01*
%TO.C,C7*%
X145324533Y-117628942D02*
X145276914Y-117676561D01*
X145134057Y-117724180D01*
X145038819Y-117724180D01*
X144895961Y-117676561D01*
X144800723Y-117581323D01*
X144753104Y-117486085D01*
X144705485Y-117295609D01*
X144705485Y-117152752D01*
X144753104Y-116962276D01*
X144800723Y-116867038D01*
X144895961Y-116771800D01*
X145038819Y-116724180D01*
X145134057Y-116724180D01*
X145276914Y-116771800D01*
X145324533Y-116819419D01*
X145657866Y-116724180D02*
X146324533Y-116724180D01*
X145895961Y-117724180D01*
%TO.C,C6*%
X111948933Y-115292142D02*
X111901314Y-115339761D01*
X111758457Y-115387380D01*
X111663219Y-115387380D01*
X111520361Y-115339761D01*
X111425123Y-115244523D01*
X111377504Y-115149285D01*
X111329885Y-114958809D01*
X111329885Y-114815952D01*
X111377504Y-114625476D01*
X111425123Y-114530238D01*
X111520361Y-114435000D01*
X111663219Y-114387380D01*
X111758457Y-114387380D01*
X111901314Y-114435000D01*
X111948933Y-114482619D01*
X112806076Y-114387380D02*
X112615600Y-114387380D01*
X112520361Y-114435000D01*
X112472742Y-114482619D01*
X112377504Y-114625476D01*
X112329885Y-114815952D01*
X112329885Y-115196904D01*
X112377504Y-115292142D01*
X112425123Y-115339761D01*
X112520361Y-115387380D01*
X112710838Y-115387380D01*
X112806076Y-115339761D01*
X112853695Y-115292142D01*
X112901314Y-115196904D01*
X112901314Y-114958809D01*
X112853695Y-114863571D01*
X112806076Y-114815952D01*
X112710838Y-114768333D01*
X112520361Y-114768333D01*
X112425123Y-114815952D01*
X112377504Y-114863571D01*
X112329885Y-114958809D01*
%TO.C,C16*%
X131843542Y-126010942D02*
X131795923Y-126058561D01*
X131653066Y-126106180D01*
X131557828Y-126106180D01*
X131414971Y-126058561D01*
X131319733Y-125963323D01*
X131272114Y-125868085D01*
X131224495Y-125677609D01*
X131224495Y-125534752D01*
X131272114Y-125344276D01*
X131319733Y-125249038D01*
X131414971Y-125153800D01*
X131557828Y-125106180D01*
X131653066Y-125106180D01*
X131795923Y-125153800D01*
X131843542Y-125201419D01*
X132795923Y-126106180D02*
X132224495Y-126106180D01*
X132510209Y-126106180D02*
X132510209Y-125106180D01*
X132414971Y-125249038D01*
X132319733Y-125344276D01*
X132224495Y-125391895D01*
X133653066Y-125106180D02*
X133462590Y-125106180D01*
X133367352Y-125153800D01*
X133319733Y-125201419D01*
X133224495Y-125344276D01*
X133176876Y-125534752D01*
X133176876Y-125915704D01*
X133224495Y-126010942D01*
X133272114Y-126058561D01*
X133367352Y-126106180D01*
X133557828Y-126106180D01*
X133653066Y-126058561D01*
X133700685Y-126010942D01*
X133748304Y-125915704D01*
X133748304Y-125677609D01*
X133700685Y-125582371D01*
X133653066Y-125534752D01*
X133557828Y-125487133D01*
X133367352Y-125487133D01*
X133272114Y-125534752D01*
X133224495Y-125582371D01*
X133176876Y-125677609D01*
%TO.C,U2*%
X143002095Y-110431580D02*
X143002095Y-111241104D01*
X143049714Y-111336342D01*
X143097333Y-111383961D01*
X143192571Y-111431580D01*
X143383047Y-111431580D01*
X143478285Y-111383961D01*
X143525904Y-111336342D01*
X143573523Y-111241104D01*
X143573523Y-110431580D01*
X144002095Y-110526819D02*
X144049714Y-110479200D01*
X144144952Y-110431580D01*
X144383047Y-110431580D01*
X144478285Y-110479200D01*
X144525904Y-110526819D01*
X144573523Y-110622057D01*
X144573523Y-110717295D01*
X144525904Y-110860152D01*
X143954476Y-111431580D01*
X144573523Y-111431580D01*
%TO.C,C17*%
X136440942Y-120372142D02*
X136393323Y-120419761D01*
X136250466Y-120467380D01*
X136155228Y-120467380D01*
X136012371Y-120419761D01*
X135917133Y-120324523D01*
X135869514Y-120229285D01*
X135821895Y-120038809D01*
X135821895Y-119895952D01*
X135869514Y-119705476D01*
X135917133Y-119610238D01*
X136012371Y-119515000D01*
X136155228Y-119467380D01*
X136250466Y-119467380D01*
X136393323Y-119515000D01*
X136440942Y-119562619D01*
X137393323Y-120467380D02*
X136821895Y-120467380D01*
X137107609Y-120467380D02*
X137107609Y-119467380D01*
X137012371Y-119610238D01*
X136917133Y-119705476D01*
X136821895Y-119753095D01*
X137726657Y-119467380D02*
X138393323Y-119467380D01*
X137964752Y-120467380D01*
%TO.C,L13*%
X126865142Y-122829580D02*
X126388952Y-122829580D01*
X126388952Y-121829580D01*
X127722285Y-122829580D02*
X127150857Y-122829580D01*
X127436571Y-122829580D02*
X127436571Y-121829580D01*
X127341333Y-121972438D01*
X127246095Y-122067676D01*
X127150857Y-122115295D01*
X128055619Y-121829580D02*
X128674666Y-121829580D01*
X128341333Y-122210533D01*
X128484190Y-122210533D01*
X128579428Y-122258152D01*
X128627047Y-122305771D01*
X128674666Y-122401009D01*
X128674666Y-122639104D01*
X128627047Y-122734342D01*
X128579428Y-122781961D01*
X128484190Y-122829580D01*
X128198476Y-122829580D01*
X128103238Y-122781961D01*
X128055619Y-122734342D01*
%TO.C,C20*%
X144137142Y-108230942D02*
X144089523Y-108278561D01*
X143946666Y-108326180D01*
X143851428Y-108326180D01*
X143708571Y-108278561D01*
X143613333Y-108183323D01*
X143565714Y-108088085D01*
X143518095Y-107897609D01*
X143518095Y-107754752D01*
X143565714Y-107564276D01*
X143613333Y-107469038D01*
X143708571Y-107373800D01*
X143851428Y-107326180D01*
X143946666Y-107326180D01*
X144089523Y-107373800D01*
X144137142Y-107421419D01*
X144518095Y-107421419D02*
X144565714Y-107373800D01*
X144660952Y-107326180D01*
X144899047Y-107326180D01*
X144994285Y-107373800D01*
X145041904Y-107421419D01*
X145089523Y-107516657D01*
X145089523Y-107611895D01*
X145041904Y-107754752D01*
X144470476Y-108326180D01*
X145089523Y-108326180D01*
X145708571Y-107326180D02*
X145803809Y-107326180D01*
X145899047Y-107373800D01*
X145946666Y-107421419D01*
X145994285Y-107516657D01*
X146041904Y-107707133D01*
X146041904Y-107945228D01*
X145994285Y-108135704D01*
X145946666Y-108230942D01*
X145899047Y-108278561D01*
X145803809Y-108326180D01*
X145708571Y-108326180D01*
X145613333Y-108278561D01*
X145565714Y-108230942D01*
X145518095Y-108135704D01*
X145470476Y-107945228D01*
X145470476Y-107707133D01*
X145518095Y-107516657D01*
X145565714Y-107421419D01*
X145613333Y-107373800D01*
X145708571Y-107326180D01*
%TO.C,C9*%
X116774933Y-115393742D02*
X116727314Y-115441361D01*
X116584457Y-115488980D01*
X116489219Y-115488980D01*
X116346361Y-115441361D01*
X116251123Y-115346123D01*
X116203504Y-115250885D01*
X116155885Y-115060409D01*
X116155885Y-114917552D01*
X116203504Y-114727076D01*
X116251123Y-114631838D01*
X116346361Y-114536600D01*
X116489219Y-114488980D01*
X116584457Y-114488980D01*
X116727314Y-114536600D01*
X116774933Y-114584219D01*
X117251123Y-115488980D02*
X117441600Y-115488980D01*
X117536838Y-115441361D01*
X117584457Y-115393742D01*
X117679695Y-115250885D01*
X117727314Y-115060409D01*
X117727314Y-114679457D01*
X117679695Y-114584219D01*
X117632076Y-114536600D01*
X117536838Y-114488980D01*
X117346361Y-114488980D01*
X117251123Y-114536600D01*
X117203504Y-114584219D01*
X117155885Y-114679457D01*
X117155885Y-114917552D01*
X117203504Y-115012790D01*
X117251123Y-115060409D01*
X117346361Y-115108028D01*
X117536838Y-115108028D01*
X117632076Y-115060409D01*
X117679695Y-115012790D01*
X117727314Y-114917552D01*
%TO.C,L14*%
X134231142Y-117368580D02*
X133754952Y-117368580D01*
X133754952Y-116368580D01*
X135088285Y-117368580D02*
X134516857Y-117368580D01*
X134802571Y-117368580D02*
X134802571Y-116368580D01*
X134707333Y-116511438D01*
X134612095Y-116606676D01*
X134516857Y-116654295D01*
X135945428Y-116701914D02*
X135945428Y-117368580D01*
X135707333Y-116320961D02*
X135469238Y-117035247D01*
X136088285Y-117035247D01*
%TO.C,C2*%
X106360933Y-108680542D02*
X106313314Y-108728161D01*
X106170457Y-108775780D01*
X106075219Y-108775780D01*
X105932361Y-108728161D01*
X105837123Y-108632923D01*
X105789504Y-108537685D01*
X105741885Y-108347209D01*
X105741885Y-108204352D01*
X105789504Y-108013876D01*
X105837123Y-107918638D01*
X105932361Y-107823400D01*
X106075219Y-107775780D01*
X106170457Y-107775780D01*
X106313314Y-107823400D01*
X106360933Y-107871019D01*
X106741885Y-107871019D02*
X106789504Y-107823400D01*
X106884742Y-107775780D01*
X107122838Y-107775780D01*
X107218076Y-107823400D01*
X107265695Y-107871019D01*
X107313314Y-107966257D01*
X107313314Y-108061495D01*
X107265695Y-108204352D01*
X106694266Y-108775780D01*
X107313314Y-108775780D01*
%TO.C,L12*%
X129024142Y-117241580D02*
X128547952Y-117241580D01*
X128547952Y-116241580D01*
X129881285Y-117241580D02*
X129309857Y-117241580D01*
X129595571Y-117241580D02*
X129595571Y-116241580D01*
X129500333Y-116384438D01*
X129405095Y-116479676D01*
X129309857Y-116527295D01*
X130262238Y-116336819D02*
X130309857Y-116289200D01*
X130405095Y-116241580D01*
X130643190Y-116241580D01*
X130738428Y-116289200D01*
X130786047Y-116336819D01*
X130833666Y-116432057D01*
X130833666Y-116527295D01*
X130786047Y-116670152D01*
X130214619Y-117241580D01*
X130833666Y-117241580D01*
%TO.C,C4*%
X140244533Y-110059742D02*
X140196914Y-110107361D01*
X140054057Y-110154980D01*
X139958819Y-110154980D01*
X139815961Y-110107361D01*
X139720723Y-110012123D01*
X139673104Y-109916885D01*
X139625485Y-109726409D01*
X139625485Y-109583552D01*
X139673104Y-109393076D01*
X139720723Y-109297838D01*
X139815961Y-109202600D01*
X139958819Y-109154980D01*
X140054057Y-109154980D01*
X140196914Y-109202600D01*
X140244533Y-109250219D01*
X141101676Y-109488314D02*
X141101676Y-110154980D01*
X140863580Y-109107361D02*
X140625485Y-109821647D01*
X141244533Y-109821647D01*
%TO.C,U1*%
X104571895Y-114533180D02*
X104571895Y-115342704D01*
X104619514Y-115437942D01*
X104667133Y-115485561D01*
X104762371Y-115533180D01*
X104952847Y-115533180D01*
X105048085Y-115485561D01*
X105095704Y-115437942D01*
X105143323Y-115342704D01*
X105143323Y-114533180D01*
X106143323Y-115533180D02*
X105571895Y-115533180D01*
X105857609Y-115533180D02*
X105857609Y-114533180D01*
X105762371Y-114676038D01*
X105667133Y-114771276D01*
X105571895Y-114818895D01*
%TO.C,C19*%
X141507842Y-120227442D02*
X141460223Y-120275061D01*
X141317366Y-120322680D01*
X141222128Y-120322680D01*
X141079271Y-120275061D01*
X140984033Y-120179823D01*
X140936414Y-120084585D01*
X140888795Y-119894109D01*
X140888795Y-119751252D01*
X140936414Y-119560776D01*
X140984033Y-119465538D01*
X141079271Y-119370300D01*
X141222128Y-119322680D01*
X141317366Y-119322680D01*
X141460223Y-119370300D01*
X141507842Y-119417919D01*
X142460223Y-120322680D02*
X141888795Y-120322680D01*
X142174509Y-120322680D02*
X142174509Y-119322680D01*
X142079271Y-119465538D01*
X141984033Y-119560776D01*
X141888795Y-119608395D01*
X142936414Y-120322680D02*
X143126890Y-120322680D01*
X143222128Y-120275061D01*
X143269747Y-120227442D01*
X143364985Y-120084585D01*
X143412604Y-119894109D01*
X143412604Y-119513157D01*
X143364985Y-119417919D01*
X143317366Y-119370300D01*
X143222128Y-119322680D01*
X143031652Y-119322680D01*
X142936414Y-119370300D01*
X142888795Y-119417919D01*
X142841176Y-119513157D01*
X142841176Y-119751252D01*
X142888795Y-119846490D01*
X142936414Y-119894109D01*
X143031652Y-119941728D01*
X143222128Y-119941728D01*
X143317366Y-119894109D01*
X143364985Y-119846490D01*
X143412604Y-119751252D01*
%TO.C,L8*%
X117587733Y-122880380D02*
X117111542Y-122880380D01*
X117111542Y-121880380D01*
X118063923Y-122308952D02*
X117968685Y-122261333D01*
X117921066Y-122213714D01*
X117873447Y-122118476D01*
X117873447Y-122070857D01*
X117921066Y-121975619D01*
X117968685Y-121928000D01*
X118063923Y-121880380D01*
X118254400Y-121880380D01*
X118349638Y-121928000D01*
X118397257Y-121975619D01*
X118444876Y-122070857D01*
X118444876Y-122118476D01*
X118397257Y-122213714D01*
X118349638Y-122261333D01*
X118254400Y-122308952D01*
X118063923Y-122308952D01*
X117968685Y-122356571D01*
X117921066Y-122404190D01*
X117873447Y-122499428D01*
X117873447Y-122689904D01*
X117921066Y-122785142D01*
X117968685Y-122832761D01*
X118063923Y-122880380D01*
X118254400Y-122880380D01*
X118349638Y-122832761D01*
X118397257Y-122785142D01*
X118444876Y-122689904D01*
X118444876Y-122499428D01*
X118397257Y-122404190D01*
X118349638Y-122356571D01*
X118254400Y-122308952D01*
%TO.C,C15*%
X131525642Y-120125842D02*
X131478023Y-120173461D01*
X131335166Y-120221080D01*
X131239928Y-120221080D01*
X131097071Y-120173461D01*
X131001833Y-120078223D01*
X130954214Y-119982985D01*
X130906595Y-119792509D01*
X130906595Y-119649652D01*
X130954214Y-119459176D01*
X131001833Y-119363938D01*
X131097071Y-119268700D01*
X131239928Y-119221080D01*
X131335166Y-119221080D01*
X131478023Y-119268700D01*
X131525642Y-119316319D01*
X132478023Y-120221080D02*
X131906595Y-120221080D01*
X132192309Y-120221080D02*
X132192309Y-119221080D01*
X132097071Y-119363938D01*
X132001833Y-119459176D01*
X131906595Y-119506795D01*
X133382785Y-119221080D02*
X132906595Y-119221080D01*
X132858976Y-119697271D01*
X132906595Y-119649652D01*
X133001833Y-119602033D01*
X133239928Y-119602033D01*
X133335166Y-119649652D01*
X133382785Y-119697271D01*
X133430404Y-119792509D01*
X133430404Y-120030604D01*
X133382785Y-120125842D01*
X133335166Y-120173461D01*
X133239928Y-120221080D01*
X133001833Y-120221080D01*
X132906595Y-120173461D01*
X132858976Y-120125842D01*
%TO.C,C11*%
X121391042Y-115520742D02*
X121343423Y-115568361D01*
X121200566Y-115615980D01*
X121105328Y-115615980D01*
X120962471Y-115568361D01*
X120867233Y-115473123D01*
X120819614Y-115377885D01*
X120771995Y-115187409D01*
X120771995Y-115044552D01*
X120819614Y-114854076D01*
X120867233Y-114758838D01*
X120962471Y-114663600D01*
X121105328Y-114615980D01*
X121200566Y-114615980D01*
X121343423Y-114663600D01*
X121391042Y-114711219D01*
X122343423Y-115615980D02*
X121771995Y-115615980D01*
X122057709Y-115615980D02*
X122057709Y-114615980D01*
X121962471Y-114758838D01*
X121867233Y-114854076D01*
X121771995Y-114901695D01*
X123295804Y-115615980D02*
X122724376Y-115615980D01*
X123010090Y-115615980D02*
X123010090Y-114615980D01*
X122914852Y-114758838D01*
X122819614Y-114854076D01*
X122724376Y-114901695D01*
%TO.C,L7*%
X119289533Y-117393980D02*
X118813342Y-117393980D01*
X118813342Y-116393980D01*
X119527628Y-116393980D02*
X120194295Y-116393980D01*
X119765723Y-117393980D01*
%TO.C,C18*%
X136847342Y-126163342D02*
X136799723Y-126210961D01*
X136656866Y-126258580D01*
X136561628Y-126258580D01*
X136418771Y-126210961D01*
X136323533Y-126115723D01*
X136275914Y-126020485D01*
X136228295Y-125830009D01*
X136228295Y-125687152D01*
X136275914Y-125496676D01*
X136323533Y-125401438D01*
X136418771Y-125306200D01*
X136561628Y-125258580D01*
X136656866Y-125258580D01*
X136799723Y-125306200D01*
X136847342Y-125353819D01*
X137799723Y-126258580D02*
X137228295Y-126258580D01*
X137514009Y-126258580D02*
X137514009Y-125258580D01*
X137418771Y-125401438D01*
X137323533Y-125496676D01*
X137228295Y-125544295D01*
X138371152Y-125687152D02*
X138275914Y-125639533D01*
X138228295Y-125591914D01*
X138180676Y-125496676D01*
X138180676Y-125449057D01*
X138228295Y-125353819D01*
X138275914Y-125306200D01*
X138371152Y-125258580D01*
X138561628Y-125258580D01*
X138656866Y-125306200D01*
X138704485Y-125353819D01*
X138752104Y-125449057D01*
X138752104Y-125496676D01*
X138704485Y-125591914D01*
X138656866Y-125639533D01*
X138561628Y-125687152D01*
X138371152Y-125687152D01*
X138275914Y-125734771D01*
X138228295Y-125782390D01*
X138180676Y-125877628D01*
X138180676Y-126068104D01*
X138228295Y-126163342D01*
X138275914Y-126210961D01*
X138371152Y-126258580D01*
X138561628Y-126258580D01*
X138656866Y-126210961D01*
X138704485Y-126163342D01*
X138752104Y-126068104D01*
X138752104Y-125877628D01*
X138704485Y-125782390D01*
X138656866Y-125734771D01*
X138561628Y-125687152D01*
D12*
%TO.C,L9*%
X121845721Y-117777900D02*
X122171279Y-117777900D01*
X121845721Y-118797900D02*
X122171279Y-118797900D01*
%TO.C,J2*%
X126633000Y-106042800D02*
X126633000Y-106242800D01*
X125233000Y-102432800D02*
X125233000Y-101932800D01*
X128393000Y-101322800D02*
X120273000Y-101322800D01*
X120273000Y-104732800D02*
X120883000Y-104732800D01*
X123433000Y-101932800D02*
X123433000Y-102432800D01*
X126933000Y-106242800D02*
X126933000Y-106042800D01*
X123233000Y-102432800D02*
X123233000Y-101932800D01*
X123333000Y-101932800D02*
X123333000Y-102432800D01*
X128393000Y-103432800D02*
X127783000Y-103432800D01*
X128393000Y-106042800D02*
X128393000Y-101322800D01*
X123433000Y-102432800D02*
X123233000Y-102432800D01*
X128393000Y-104732800D02*
X127783000Y-104732800D01*
X126633000Y-106142800D02*
X126933000Y-106142800D01*
X120883000Y-105432800D02*
X122833000Y-105432800D01*
X125833000Y-106042800D02*
X125833000Y-105432800D01*
X127783000Y-101932800D02*
X120883000Y-101932800D01*
X128693000Y-106342800D02*
X128693000Y-105092800D01*
X122833000Y-105432800D02*
X122833000Y-106042800D01*
X125433000Y-101932800D02*
X125433000Y-102432800D01*
X120273000Y-101322800D02*
X120273000Y-106042800D01*
X127783000Y-105432800D02*
X127783000Y-101932800D01*
X127443000Y-106342800D02*
X128693000Y-106342800D01*
X120273000Y-106042800D02*
X128393000Y-106042800D01*
X120273000Y-103432800D02*
X120883000Y-103432800D01*
X125333000Y-101932800D02*
X125333000Y-102432800D01*
X125433000Y-102432800D02*
X125233000Y-102432800D01*
X120883000Y-101932800D02*
X120883000Y-105432800D01*
X126633000Y-106242800D02*
X126933000Y-106242800D01*
X125833000Y-105432800D02*
X127783000Y-105432800D01*
%TO.C,C8*%
X115025500Y-125845280D02*
X115025500Y-125564120D01*
X114005500Y-125845280D02*
X114005500Y-125564120D01*
%TO.C,C5*%
X103162980Y-115212400D02*
X102881820Y-115212400D01*
X103162980Y-116232400D02*
X102881820Y-116232400D01*
%TO.C,L4*%
X114005500Y-118810921D02*
X114005500Y-119136479D01*
X115025500Y-118810921D02*
X115025500Y-119136479D01*
%TO.C,C1*%
X102766400Y-107747980D02*
X102766400Y-107466820D01*
X103786400Y-107747980D02*
X103786400Y-107466820D01*
%TO.C,L10*%
X125083900Y-118887121D02*
X125083900Y-119212679D01*
X124063900Y-118887121D02*
X124063900Y-119212679D01*
%TO.C,J3*%
X144750000Y-104960000D02*
X144500000Y-104460000D01*
X143660000Y-103910000D02*
X142550000Y-103910000D01*
X143660000Y-100200000D02*
X142550000Y-100200000D01*
X144500000Y-104460000D02*
X144250000Y-104960000D01*
X146450000Y-103910000D02*
X145340000Y-103910000D01*
X144250000Y-104960000D02*
X144750000Y-104960000D01*
X146450000Y-100200000D02*
X145340000Y-100200000D01*
%TO.C,L15*%
X134274700Y-122214521D02*
X134274700Y-122540079D01*
X135294700Y-122214521D02*
X135294700Y-122540079D01*
%TO.C,C10*%
X120003900Y-125896080D02*
X120003900Y-125614920D01*
X118983900Y-125896080D02*
X118983900Y-125614920D01*
%TO.C,L1*%
X108976300Y-118760121D02*
X108976300Y-119085679D01*
X109996300Y-118760121D02*
X109996300Y-119085679D01*
%TO.C,L3*%
X111863521Y-118721700D02*
X112189079Y-118721700D01*
X111863521Y-117701700D02*
X112189079Y-117701700D01*
%TO.C,C12*%
X125083900Y-125896080D02*
X125083900Y-125614920D01*
X124063900Y-125896080D02*
X124063900Y-125614920D01*
%TO.C,C14*%
X129169300Y-126023080D02*
X129169300Y-125741920D01*
X130189300Y-126023080D02*
X130189300Y-125741920D01*
%TO.C,R1*%
X125944100Y-108238058D02*
X125944100Y-107763542D01*
X126989100Y-108238058D02*
X126989100Y-107763542D01*
%TO.C,L17*%
X140171500Y-122265321D02*
X140171500Y-122590879D01*
X139151500Y-122265321D02*
X139151500Y-122590879D01*
%TO.C,R3*%
X107234358Y-117714600D02*
X106759842Y-117714600D01*
X107234358Y-118759600D02*
X106759842Y-118759600D01*
%TO.C,L11*%
X124038500Y-122214521D02*
X124038500Y-122540079D01*
X125058500Y-122214521D02*
X125058500Y-122540079D01*
%TO.C,R2*%
X124753900Y-108301058D02*
X124753900Y-107826542D01*
X123708900Y-108301058D02*
X123708900Y-107826542D01*
%TO.C,L16*%
X139176900Y-119014121D02*
X139176900Y-119339679D01*
X140196900Y-119014121D02*
X140196900Y-119339679D01*
%TO.C,J1*%
X105500000Y-104460000D02*
X105250000Y-104960000D01*
X104660000Y-103910000D02*
X103550000Y-103910000D01*
X107450000Y-103910000D02*
X106340000Y-103910000D01*
X107450000Y-100200000D02*
X106340000Y-100200000D01*
X105250000Y-104960000D02*
X105750000Y-104960000D01*
X105750000Y-104960000D02*
X105500000Y-104460000D01*
X104660000Y-100200000D02*
X103550000Y-100200000D01*
%TO.C,L5*%
X114005500Y-122189121D02*
X114005500Y-122514679D01*
X115025500Y-122189121D02*
X115025500Y-122514679D01*
%TO.C,C13*%
X127254480Y-118823300D02*
X126973320Y-118823300D01*
X127254480Y-117803300D02*
X126973320Y-117803300D01*
%TO.C,L2*%
X110021700Y-122138421D02*
X110021700Y-122463979D01*
X109001700Y-122138421D02*
X109001700Y-122463979D01*
%TO.C,L6*%
X116841921Y-118747100D02*
X117167479Y-118747100D01*
X116841921Y-117727100D02*
X117167479Y-117727100D01*
%TO.C,C3*%
X110021700Y-125769180D02*
X110021700Y-125488020D01*
X109001700Y-125769180D02*
X109001700Y-125488020D01*
%TO.C,C7*%
X145553820Y-114933000D02*
X145834980Y-114933000D01*
X145553820Y-115953000D02*
X145834980Y-115953000D01*
%TO.C,C6*%
X112166880Y-116969100D02*
X111885720Y-116969100D01*
X112166880Y-115949100D02*
X111885720Y-115949100D01*
%TO.C,C16*%
X134274700Y-125997680D02*
X134274700Y-125716520D01*
X135294700Y-125997680D02*
X135294700Y-125716520D01*
%TO.C,U2*%
X143064000Y-114139200D02*
X144464000Y-114139200D01*
X144464000Y-111819200D02*
X142564000Y-111819200D01*
%TO.C,C17*%
X137363680Y-117904900D02*
X137082520Y-117904900D01*
X137363680Y-118924900D02*
X137082520Y-118924900D01*
%TO.C,L13*%
X129143900Y-122290721D02*
X129143900Y-122616279D01*
X130163900Y-122290721D02*
X130163900Y-122616279D01*
%TO.C,C20*%
X147474400Y-107758620D02*
X147474400Y-108039780D01*
X146454400Y-107758620D02*
X146454400Y-108039780D01*
%TO.C,C9*%
X117170680Y-116994500D02*
X116889520Y-116994500D01*
X117170680Y-115974500D02*
X116889520Y-115974500D01*
%TO.C,L14*%
X135243900Y-118963321D02*
X135243900Y-119288879D01*
X134223900Y-118963321D02*
X134223900Y-119288879D01*
%TO.C,C2*%
X106387020Y-109243400D02*
X106668180Y-109243400D01*
X106387020Y-110263400D02*
X106668180Y-110263400D01*
%TO.C,L12*%
X129143900Y-118912521D02*
X129143900Y-119238079D01*
X130163900Y-118912521D02*
X130163900Y-119238079D01*
%TO.C,C4*%
X143167980Y-110238000D02*
X142886820Y-110238000D01*
X143167980Y-109218000D02*
X142886820Y-109218000D01*
%TO.C,U1*%
X104633800Y-114240800D02*
X106533800Y-114240800D01*
X106033800Y-111920800D02*
X104633800Y-111920800D01*
%TO.C,C19*%
X142291280Y-117930300D02*
X142010120Y-117930300D01*
X142291280Y-118950300D02*
X142010120Y-118950300D01*
%TO.C,L8*%
X118983900Y-122214521D02*
X118983900Y-122540079D01*
X120003900Y-122214521D02*
X120003900Y-122540079D01*
%TO.C,C15*%
X132309080Y-118848700D02*
X132027920Y-118848700D01*
X132309080Y-117828700D02*
X132027920Y-117828700D01*
%TO.C,C11*%
X122174480Y-116994500D02*
X121893320Y-116994500D01*
X122174480Y-115974500D02*
X121893320Y-115974500D01*
%TO.C,L7*%
X120003900Y-118861721D02*
X120003900Y-119187279D01*
X118983900Y-118861721D02*
X118983900Y-119187279D01*
%TO.C,C18*%
X140171500Y-125997680D02*
X140171500Y-125716520D01*
X139151500Y-125997680D02*
X139151500Y-125716520D01*
%TD*%
M02*
