%TF.GenerationSoftware,KiCad,Pcbnew,(6.0.1)*%
%TF.CreationDate,2022-02-11T18:02:55+00:00*%
%TF.ProjectId,Broadcast_Filter,42726f61-6463-4617-9374-5f46696c7465,rev?*%
%TF.SameCoordinates,Original*%
%TF.FileFunction,Copper,L1,Top*%
%TF.FilePolarity,Positive*%
%FSLAX46Y46*%
G04 Gerber Fmt 4.6, Leading zero omitted, Abs format (unit mm)*
G04 Created by KiCad (PCBNEW (6.0.1)) date 2022-02-11 18:02:55*
%MOMM*%
%LPD*%
G01*
G04 APERTURE LIST*
G04 Aperture macros list*
%AMRoundRect*
0 Rectangle with rounded corners*
0 $1 Rounding radius*
0 $2 $3 $4 $5 $6 $7 $8 $9 X,Y pos of 4 corners*
0 Add a 4 corners polygon primitive as box body*
4,1,4,$2,$3,$4,$5,$6,$7,$8,$9,$2,$3,0*
0 Add four circle primitives for the rounded corners*
1,1,$1+$1,$2,$3*
1,1,$1+$1,$4,$5*
1,1,$1+$1,$6,$7*
1,1,$1+$1,$8,$9*
0 Add four rect primitives between the rounded corners*
20,1,$1+$1,$2,$3,$4,$5,0*
20,1,$1+$1,$4,$5,$6,$7,0*
20,1,$1+$1,$6,$7,$8,$9,0*
20,1,$1+$1,$8,$9,$2,$3,0*%
G04 Aperture macros list end*
%TA.AperFunction,SMDPad,CuDef*%
%ADD10RoundRect,0.218750X-0.218750X-0.256250X0.218750X-0.256250X0.218750X0.256250X-0.218750X0.256250X0*%
%TD*%
%TA.AperFunction,ComponentPad*%
%ADD11RoundRect,0.250000X0.350000X0.625000X-0.350000X0.625000X-0.350000X-0.625000X0.350000X-0.625000X0*%
%TD*%
%TA.AperFunction,ComponentPad*%
%ADD12O,1.200000X1.750000*%
%TD*%
%TA.AperFunction,SMDPad,CuDef*%
%ADD13RoundRect,0.225000X0.250000X-0.225000X0.250000X0.225000X-0.250000X0.225000X-0.250000X-0.225000X0*%
%TD*%
%TA.AperFunction,SMDPad,CuDef*%
%ADD14RoundRect,0.225000X0.225000X0.250000X-0.225000X0.250000X-0.225000X-0.250000X0.225000X-0.250000X0*%
%TD*%
%TA.AperFunction,SMDPad,CuDef*%
%ADD15RoundRect,0.218750X-0.256250X0.218750X-0.256250X-0.218750X0.256250X-0.218750X0.256250X0.218750X0*%
%TD*%
%TA.AperFunction,SMDPad,CuDef*%
%ADD16R,1.270000X3.600000*%
%TD*%
%TA.AperFunction,SMDPad,CuDef*%
%ADD17R,1.350000X4.200000*%
%TD*%
%TA.AperFunction,SMDPad,CuDef*%
%ADD18RoundRect,0.200000X0.275000X-0.200000X0.275000X0.200000X-0.275000X0.200000X-0.275000X-0.200000X0*%
%TD*%
%TA.AperFunction,SMDPad,CuDef*%
%ADD19RoundRect,0.200000X0.200000X0.275000X-0.200000X0.275000X-0.200000X-0.275000X0.200000X-0.275000X0*%
%TD*%
%TA.AperFunction,SMDPad,CuDef*%
%ADD20RoundRect,0.225000X-0.225000X-0.250000X0.225000X-0.250000X0.225000X0.250000X-0.225000X0.250000X0*%
%TD*%
%TA.AperFunction,SMDPad,CuDef*%
%ADD21R,0.650000X0.400000*%
%TD*%
%TA.AperFunction,SMDPad,CuDef*%
%ADD22RoundRect,0.225000X-0.250000X0.225000X-0.250000X-0.225000X0.250000X-0.225000X0.250000X0.225000X0*%
%TD*%
%TA.AperFunction,ViaPad*%
%ADD23C,0.800000*%
%TD*%
%TA.AperFunction,Conductor*%
%ADD24C,0.293000*%
%TD*%
%TA.AperFunction,Conductor*%
%ADD25C,0.250000*%
%TD*%
G04 APERTURE END LIST*
D10*
%TO.P,L9,1,1*%
%TO.N,Net-(C11-Pad2)*%
X121221000Y-118287900D03*
%TO.P,L9,2,2*%
%TO.N,Net-(C11-Pad1)*%
X122796000Y-118287900D03*
%TD*%
D11*
%TO.P,J2,1,Pin_1*%
%TO.N,Net-(J2-Pad1)*%
X126333000Y-104232800D03*
D12*
%TO.P,J2,2,Pin_2*%
%TO.N,Net-(J2-Pad2)*%
X124333000Y-104232800D03*
%TO.P,J2,3,Pin_3*%
%TO.N,GND*%
X122333000Y-104232800D03*
%TD*%
D13*
%TO.P,C8,1*%
%TO.N,GND*%
X114515500Y-126479700D03*
%TO.P,C8,2*%
%TO.N,Net-(C8-Pad2)*%
X114515500Y-124929700D03*
%TD*%
D14*
%TO.P,C5,1*%
%TO.N,/Thru*%
X103797400Y-115722400D03*
%TO.P,C5,2*%
%TO.N,GND*%
X102247400Y-115722400D03*
%TD*%
D15*
%TO.P,L4,1,1*%
%TO.N,Net-(C6-Pad1)*%
X114515500Y-118186200D03*
%TO.P,L4,2,2*%
%TO.N,Net-(L4-Pad2)*%
X114515500Y-119761200D03*
%TD*%
D13*
%TO.P,C1,1*%
%TO.N,Net-(C1-Pad1)*%
X103276400Y-108382400D03*
%TO.P,C1,2*%
%TO.N,Net-(C1-Pad2)*%
X103276400Y-106832400D03*
%TD*%
D15*
%TO.P,L10,1,1*%
%TO.N,Net-(C11-Pad1)*%
X124573900Y-118262400D03*
%TO.P,L10,2,2*%
%TO.N,Net-(L10-Pad2)*%
X124573900Y-119837400D03*
%TD*%
D16*
%TO.P,J3,1,In*%
%TO.N,Net-(C20-Pad1)*%
X144500000Y-102000000D03*
D17*
%TO.P,J3,2,Ext*%
%TO.N,GND*%
X147325000Y-102200000D03*
X141675000Y-102200000D03*
%TD*%
D15*
%TO.P,L15,1,1*%
%TO.N,Net-(L14-Pad2)*%
X134784700Y-121589800D03*
%TO.P,L15,2,2*%
%TO.N,Net-(C16-Pad2)*%
X134784700Y-123164800D03*
%TD*%
D13*
%TO.P,C10,1*%
%TO.N,GND*%
X119493900Y-126530500D03*
%TO.P,C10,2*%
%TO.N,Net-(C10-Pad2)*%
X119493900Y-124980500D03*
%TD*%
D15*
%TO.P,L1,1,1*%
%TO.N,Net-(C6-Pad2)*%
X109486300Y-118135400D03*
%TO.P,L1,2,2*%
%TO.N,Net-(L1-Pad2)*%
X109486300Y-119710400D03*
%TD*%
D10*
%TO.P,L3,1,1*%
%TO.N,Net-(C6-Pad2)*%
X111238800Y-118211700D03*
%TO.P,L3,2,2*%
%TO.N,Net-(C6-Pad1)*%
X112813800Y-118211700D03*
%TD*%
D13*
%TO.P,C12,1*%
%TO.N,GND*%
X124573900Y-126530500D03*
%TO.P,C12,2*%
%TO.N,Net-(C12-Pad2)*%
X124573900Y-124980500D03*
%TD*%
%TO.P,C14,1*%
%TO.N,GND*%
X129679300Y-126657500D03*
%TO.P,C14,2*%
%TO.N,Net-(C14-Pad2)*%
X129679300Y-125107500D03*
%TD*%
D18*
%TO.P,R1,1*%
%TO.N,/Fil*%
X126466600Y-108825800D03*
%TO.P,R1,2*%
%TO.N,Net-(J2-Pad1)*%
X126466600Y-107175800D03*
%TD*%
D15*
%TO.P,L17,1,1*%
%TO.N,Net-(L16-Pad2)*%
X139661500Y-121640600D03*
%TO.P,L17,2,2*%
%TO.N,Net-(C18-Pad2)*%
X139661500Y-123215600D03*
%TD*%
D19*
%TO.P,R3,1*%
%TO.N,Net-(C6-Pad2)*%
X107822100Y-118237100D03*
%TO.P,R3,2*%
%TO.N,Net-(U1-Pad1)*%
X106172100Y-118237100D03*
%TD*%
D15*
%TO.P,L11,1,1*%
%TO.N,Net-(L10-Pad2)*%
X124548500Y-121589800D03*
%TO.P,L11,2,2*%
%TO.N,Net-(C12-Pad2)*%
X124548500Y-123164800D03*
%TD*%
D18*
%TO.P,R2,1*%
%TO.N,/Thru*%
X124231400Y-108888800D03*
%TO.P,R2,2*%
%TO.N,Net-(J2-Pad2)*%
X124231400Y-107238800D03*
%TD*%
D15*
%TO.P,L16,1,1*%
%TO.N,Net-(C17-Pad1)*%
X139686900Y-118389400D03*
%TO.P,L16,2,2*%
%TO.N,Net-(L16-Pad2)*%
X139686900Y-119964400D03*
%TD*%
D16*
%TO.P,J1,1,In*%
%TO.N,Net-(C1-Pad2)*%
X105500000Y-102000000D03*
D17*
%TO.P,J1,2,Ext*%
%TO.N,GND*%
X108325000Y-102200000D03*
X102675000Y-102200000D03*
%TD*%
D15*
%TO.P,L5,1,1*%
%TO.N,Net-(L4-Pad2)*%
X114515500Y-121564400D03*
%TO.P,L5,2,2*%
%TO.N,Net-(C8-Pad2)*%
X114515500Y-123139400D03*
%TD*%
D14*
%TO.P,C13,1*%
%TO.N,Net-(C13-Pad1)*%
X127888900Y-118313300D03*
%TO.P,C13,2*%
%TO.N,Net-(C11-Pad1)*%
X126338900Y-118313300D03*
%TD*%
D15*
%TO.P,L2,1,1*%
%TO.N,Net-(L1-Pad2)*%
X109511700Y-121513700D03*
%TO.P,L2,2,2*%
%TO.N,Net-(C3-Pad2)*%
X109511700Y-123088700D03*
%TD*%
D10*
%TO.P,L6,1,1*%
%TO.N,Net-(C6-Pad1)*%
X116217200Y-118237100D03*
%TO.P,L6,2,2*%
%TO.N,Net-(C11-Pad2)*%
X117792200Y-118237100D03*
%TD*%
D13*
%TO.P,C3,1*%
%TO.N,GND*%
X109511700Y-126403600D03*
%TO.P,C3,2*%
%TO.N,Net-(C3-Pad2)*%
X109511700Y-124853600D03*
%TD*%
D20*
%TO.P,C7,1*%
%TO.N,/Thru*%
X144919400Y-115443000D03*
%TO.P,C7,2*%
%TO.N,GND*%
X146469400Y-115443000D03*
%TD*%
D14*
%TO.P,C6,1*%
%TO.N,Net-(C6-Pad1)*%
X112801300Y-116459100D03*
%TO.P,C6,2*%
%TO.N,Net-(C6-Pad2)*%
X111251300Y-116459100D03*
%TD*%
D13*
%TO.P,C16,1*%
%TO.N,GND*%
X134784700Y-126632100D03*
%TO.P,C16,2*%
%TO.N,Net-(C16-Pad2)*%
X134784700Y-125082100D03*
%TD*%
D21*
%TO.P,U2,1,J3*%
%TO.N,Net-(U1-Pad3)*%
X142814000Y-112329200D03*
%TO.P,U2,2,GND*%
%TO.N,GND*%
X142814000Y-112979200D03*
%TO.P,U2,3,J2*%
%TO.N,Net-(C19-Pad1)*%
X142814000Y-113629200D03*
%TO.P,U2,4,V1*%
%TO.N,/Thru*%
X144714000Y-113629200D03*
%TO.P,U2,5,J1*%
%TO.N,Net-(C20-Pad2)*%
X144714000Y-112979200D03*
%TO.P,U2,6,V2*%
%TO.N,/Fil*%
X144714000Y-112329200D03*
%TD*%
D14*
%TO.P,C17,1*%
%TO.N,Net-(C17-Pad1)*%
X137998100Y-118414900D03*
%TO.P,C17,2*%
%TO.N,Net-(C15-Pad1)*%
X136448100Y-118414900D03*
%TD*%
D15*
%TO.P,L13,1,1*%
%TO.N,Net-(L12-Pad2)*%
X129653900Y-121666000D03*
%TO.P,L13,2,2*%
%TO.N,Net-(C14-Pad2)*%
X129653900Y-123241000D03*
%TD*%
D22*
%TO.P,C20,1*%
%TO.N,Net-(C20-Pad1)*%
X146964400Y-107124200D03*
%TO.P,C20,2*%
%TO.N,Net-(C20-Pad2)*%
X146964400Y-108674200D03*
%TD*%
D14*
%TO.P,C9,1*%
%TO.N,Net-(C11-Pad2)*%
X117805100Y-116484500D03*
%TO.P,C9,2*%
%TO.N,Net-(C6-Pad1)*%
X116255100Y-116484500D03*
%TD*%
D15*
%TO.P,L14,1,1*%
%TO.N,Net-(C15-Pad1)*%
X134733900Y-118338600D03*
%TO.P,L14,2,2*%
%TO.N,Net-(L14-Pad2)*%
X134733900Y-119913600D03*
%TD*%
D20*
%TO.P,C2,1*%
%TO.N,/Fil*%
X105752600Y-109753400D03*
%TO.P,C2,2*%
%TO.N,GND*%
X107302600Y-109753400D03*
%TD*%
D15*
%TO.P,L12,1,1*%
%TO.N,Net-(C13-Pad1)*%
X129653900Y-118287800D03*
%TO.P,L12,2,2*%
%TO.N,Net-(L12-Pad2)*%
X129653900Y-119862800D03*
%TD*%
D14*
%TO.P,C4,1*%
%TO.N,/Fil*%
X143802400Y-109728000D03*
%TO.P,C4,2*%
%TO.N,GND*%
X142252400Y-109728000D03*
%TD*%
D21*
%TO.P,U1,1,J3*%
%TO.N,Net-(U1-Pad1)*%
X106283800Y-113730800D03*
%TO.P,U1,2,GND*%
%TO.N,GND*%
X106283800Y-113080800D03*
%TO.P,U1,3,J2*%
%TO.N,Net-(U1-Pad3)*%
X106283800Y-112430800D03*
%TO.P,U1,4,V1*%
%TO.N,/Fil*%
X104383800Y-112430800D03*
%TO.P,U1,5,J1*%
%TO.N,Net-(C1-Pad1)*%
X104383800Y-113080800D03*
%TO.P,U1,6,V2*%
%TO.N,/Thru*%
X104383800Y-113730800D03*
%TD*%
D14*
%TO.P,C19,1*%
%TO.N,Net-(C19-Pad1)*%
X142925700Y-118440300D03*
%TO.P,C19,2*%
%TO.N,Net-(C17-Pad1)*%
X141375700Y-118440300D03*
%TD*%
D15*
%TO.P,L8,1,1*%
%TO.N,Net-(L7-Pad2)*%
X119493900Y-121589800D03*
%TO.P,L8,2,2*%
%TO.N,Net-(C10-Pad2)*%
X119493900Y-123164800D03*
%TD*%
D14*
%TO.P,C15,1*%
%TO.N,Net-(C15-Pad1)*%
X132943500Y-118338700D03*
%TO.P,C15,2*%
%TO.N,Net-(C13-Pad1)*%
X131393500Y-118338700D03*
%TD*%
%TO.P,C11,1*%
%TO.N,Net-(C11-Pad1)*%
X122808900Y-116484500D03*
%TO.P,C11,2*%
%TO.N,Net-(C11-Pad2)*%
X121258900Y-116484500D03*
%TD*%
D15*
%TO.P,L7,1,1*%
%TO.N,Net-(C11-Pad2)*%
X119493900Y-118237000D03*
%TO.P,L7,2,2*%
%TO.N,Net-(L7-Pad2)*%
X119493900Y-119812000D03*
%TD*%
D13*
%TO.P,C18,1*%
%TO.N,GND*%
X139661500Y-126632100D03*
%TO.P,C18,2*%
%TO.N,Net-(C18-Pad2)*%
X139661500Y-125082100D03*
%TD*%
D23*
%TO.N,GND*%
X127838200Y-122910600D03*
X148082000Y-115392200D03*
X100914200Y-102590600D03*
X106375200Y-111074200D03*
X140665200Y-113588800D03*
X110032800Y-104013000D03*
X125018800Y-111125000D03*
X107467400Y-115062000D03*
X126187200Y-119786400D03*
X126314200Y-116611400D03*
X119507000Y-116484400D03*
X105206800Y-116408200D03*
X129184400Y-111175800D03*
X106197400Y-119634000D03*
X131177900Y-126632100D03*
X116332000Y-113588800D03*
X146685000Y-113207800D03*
X107950000Y-119684800D03*
X126199500Y-126530500D03*
X105460800Y-106197400D03*
X104749600Y-107111800D03*
X110032800Y-100990400D03*
X128104500Y-126530500D03*
X111035700Y-126479700D03*
X104698800Y-108458000D03*
X140639800Y-111099600D03*
X133527800Y-113614200D03*
X124333000Y-116306600D03*
X136220200Y-119964200D03*
X108000800Y-123139200D03*
X102006400Y-110693200D03*
X109575600Y-127914400D03*
X123037600Y-122986800D03*
X130987800Y-104648000D03*
X106908600Y-102463600D03*
X115976400Y-123240800D03*
X148437600Y-108483400D03*
X140081000Y-100863400D03*
X122897500Y-126530500D03*
X139700000Y-128295400D03*
X117830600Y-114884200D03*
X138252200Y-111099600D03*
X106324400Y-107721400D03*
X101930200Y-106095800D03*
X129260600Y-113614200D03*
X148945600Y-101015800D03*
X120345200Y-104267000D03*
X140030200Y-102438200D03*
X118237000Y-104521000D03*
X132892800Y-116890800D03*
X112750600Y-114833400D03*
X116128800Y-114782600D03*
X108077000Y-105029000D03*
X112813700Y-126479700D03*
X138277600Y-119938800D03*
X141325600Y-123088400D03*
X121716800Y-107365800D03*
X116001800Y-119888000D03*
X135991600Y-113588800D03*
X143129000Y-102438200D03*
X143332200Y-119913400D03*
X120700800Y-113563400D03*
X102336600Y-113055400D03*
X120954800Y-123063000D03*
X127279400Y-113614200D03*
X116217300Y-126530500D03*
X145846800Y-104444800D03*
X102336600Y-117449600D03*
X112750600Y-119710200D03*
X120777000Y-111099600D03*
X143459200Y-104698800D03*
X143103600Y-100965000D03*
X141605000Y-114147600D03*
X131368800Y-113639600D03*
X100939600Y-104013000D03*
X136194800Y-123012200D03*
X114477800Y-116484400D03*
X108000800Y-126542800D03*
X148996400Y-102539800D03*
X110083600Y-113614200D03*
X111023400Y-121437400D03*
X100914200Y-100990400D03*
X104775000Y-118999000D03*
X145948400Y-102565200D03*
X108051600Y-107289600D03*
X142875000Y-107518200D03*
X107823000Y-116636800D03*
X112064800Y-111125000D03*
X125044200Y-113639600D03*
X147548600Y-105689400D03*
X102006400Y-111861600D03*
X120904000Y-114681000D03*
X139725400Y-116916200D03*
X118516400Y-111125000D03*
X106908600Y-103987600D03*
X122910600Y-113614200D03*
X123012200Y-119761000D03*
X110032800Y-102412800D03*
X104114600Y-102489000D03*
X135940800Y-111125000D03*
X145923000Y-101015800D03*
X112826800Y-124866400D03*
X101904800Y-107594400D03*
X143840200Y-114452400D03*
X148132800Y-111582200D03*
X145440400Y-109016800D03*
X137959700Y-126632100D03*
X131191000Y-123113800D03*
X129717800Y-128168400D03*
X110972600Y-124841000D03*
X103555800Y-105029000D03*
X140081000Y-104571800D03*
X144399000Y-118491000D03*
X109423200Y-116535200D03*
X144094200Y-106045000D03*
X114147600Y-111125000D03*
X106883200Y-100736400D03*
X108102400Y-111074200D03*
X121005600Y-119862600D03*
X131292600Y-111150400D03*
X112750600Y-123037600D03*
X141884400Y-106019600D03*
X117983000Y-123164600D03*
X127177800Y-111125000D03*
X131114800Y-119837200D03*
X111150400Y-104648000D03*
X104063800Y-103936800D03*
X114198400Y-113512600D03*
X102438200Y-105054400D03*
X125958600Y-122936000D03*
X148920200Y-104165400D03*
X122910600Y-111048800D03*
X145440400Y-107391200D03*
X146558000Y-117144800D03*
X107696000Y-113360200D03*
X134823200Y-128143000D03*
X129590800Y-116865400D03*
X104343200Y-110007400D03*
X101930200Y-109143800D03*
X145745200Y-110845600D03*
X138303000Y-113588800D03*
X119481600Y-128016000D03*
X111023400Y-119684800D03*
X104800400Y-117576600D03*
X133045200Y-119710200D03*
X141198600Y-126619000D03*
X110032800Y-111125000D03*
X136334100Y-126632100D03*
X101396800Y-114300000D03*
X105232200Y-114630200D03*
X133553200Y-111150400D03*
X138353800Y-104571800D03*
X121043300Y-126530500D03*
X118618000Y-113614200D03*
X112191800Y-113512600D03*
X144322800Y-117017800D03*
X108000800Y-124815600D03*
X117944500Y-126530500D03*
X122377200Y-101447600D03*
X133082900Y-126632100D03*
X141630400Y-116941600D03*
X127863600Y-119786400D03*
X110972600Y-123139200D03*
X122809000Y-114681000D03*
X117957600Y-119761000D03*
X133121400Y-123063000D03*
X136372600Y-116865400D03*
X104165400Y-100863400D03*
X114528600Y-128092200D03*
X141605000Y-115519200D03*
X124561600Y-128066800D03*
X111099600Y-114884200D03*
X138176000Y-123063000D03*
X141325600Y-119913400D03*
X112826800Y-121412000D03*
X143433800Y-111150400D03*
X148107400Y-109931200D03*
X148463000Y-107010200D03*
X106299000Y-105181400D03*
X116306600Y-111125000D03*
X108000800Y-121361200D03*
%TO.N,/Thru*%
X103022400Y-114350800D03*
X122782468Y-107365800D03*
X145694400Y-114300000D03*
%TD*%
D24*
%TO.N,Net-(C1-Pad1)*%
X103276400Y-108382400D02*
X103276400Y-111617373D01*
X103862187Y-113031587D02*
X103911400Y-113080800D01*
X103911400Y-113080800D02*
X104383800Y-113080800D01*
X103276401Y-111617373D02*
G75*
G03*
X103862188Y-113031586I1999999J0D01*
G01*
%TO.N,Net-(C1-Pad2)*%
X104671813Y-105436987D02*
X103276400Y-106832400D01*
X105257600Y-101958800D02*
X105257600Y-104022773D01*
X104671813Y-105436987D02*
G75*
G03*
X105257600Y-104022773I-1414213J1414214D01*
G01*
D25*
%TO.N,GND*%
X129704700Y-126632100D02*
X129679300Y-126657500D01*
X136334100Y-126632100D02*
X134784700Y-126632100D01*
X129679300Y-126657500D02*
X129552300Y-126530500D01*
X134784700Y-126632100D02*
X133082900Y-126632100D01*
X116217300Y-126530500D02*
X114566300Y-126530500D01*
X128104500Y-126530500D02*
X126199500Y-126530500D01*
X142289978Y-112979200D02*
X142814000Y-112979200D01*
X131177900Y-126632100D02*
X129704700Y-126632100D01*
X121043300Y-126530500D02*
X119493900Y-126530500D01*
X122897500Y-126530500D02*
X121043300Y-126530500D01*
X117944500Y-126530500D02*
X116217300Y-126530500D01*
X124573900Y-126530500D02*
X122897500Y-126530500D01*
X114566300Y-126530500D02*
X114515500Y-126479700D01*
X112813700Y-126479700D02*
X111035700Y-126479700D01*
X141605000Y-114147600D02*
X141605000Y-113664178D01*
X129552300Y-126530500D02*
X128104500Y-126530500D01*
X119493900Y-126530500D02*
X117944500Y-126530500D01*
X111035700Y-126479700D02*
X109587800Y-126479700D01*
X106283800Y-113080800D02*
X107416600Y-113080800D01*
X114515500Y-126479700D02*
X112813700Y-126479700D01*
X141605000Y-113664178D02*
X142289978Y-112979200D01*
X107416600Y-113080800D02*
X107696000Y-113360200D01*
X139661500Y-126632100D02*
X137959700Y-126632100D01*
X133082900Y-126632100D02*
X131177900Y-126632100D01*
X137959700Y-126632100D02*
X136334100Y-126632100D01*
X126199500Y-126530500D02*
X124573900Y-126530500D01*
%TO.N,Net-(C3-Pad2)*%
X109511700Y-123088700D02*
X109511700Y-124853600D01*
D24*
%TO.N,Net-(C6-Pad1)*%
X114515500Y-118186200D02*
X112839300Y-118186200D01*
D25*
X116255100Y-118199200D02*
X116217200Y-118237100D01*
X114566400Y-118237100D02*
X114515500Y-118186200D01*
X116255100Y-116484500D02*
X116255100Y-118199200D01*
X112813800Y-116471600D02*
X112801300Y-116459100D01*
D24*
X116217200Y-118237100D02*
X114566400Y-118237100D01*
X112813800Y-118211700D02*
X112813800Y-116471600D01*
D25*
X112839300Y-118186200D02*
X112813800Y-118211700D01*
D24*
%TO.N,Net-(C6-Pad2)*%
X109486300Y-118135400D02*
X107923800Y-118135400D01*
D25*
X109562600Y-118211700D02*
X109486300Y-118135400D01*
D24*
X111238800Y-118211700D02*
X109562600Y-118211700D01*
D25*
X107923800Y-118135400D02*
X107822100Y-118237100D01*
X111251300Y-118199200D02*
X111238800Y-118211700D01*
D24*
X111251300Y-116459100D02*
X111251300Y-118199200D01*
D25*
%TO.N,Net-(C8-Pad2)*%
X114515500Y-123139400D02*
X114515500Y-124929700D01*
D24*
%TO.N,Net-(C11-Pad2)*%
X121221000Y-118287900D02*
X119544800Y-118287900D01*
X119493900Y-118237000D02*
X117792300Y-118237000D01*
D25*
X121258900Y-118250000D02*
X121221000Y-118287900D01*
X117805100Y-116484500D02*
X117805100Y-118224200D01*
D24*
X121258900Y-116484500D02*
X121258900Y-118250000D01*
D25*
X119544800Y-118287900D02*
X119493900Y-118237000D01*
X117792300Y-118237000D02*
X117792200Y-118237100D01*
X117805100Y-118224200D02*
X117792200Y-118237100D01*
%TO.N,Net-(C10-Pad2)*%
X119493900Y-123164800D02*
X119493900Y-124980500D01*
%TO.N,Net-(C11-Pad1)*%
X124624800Y-118313300D02*
X124573900Y-118262400D01*
D24*
X124573900Y-118262400D02*
X122821500Y-118262400D01*
D25*
X122796000Y-116497400D02*
X122808900Y-116484500D01*
X122821500Y-118262400D02*
X122796000Y-118287900D01*
D24*
X122796000Y-118287900D02*
X122796000Y-116497400D01*
X126338900Y-118313300D02*
X124624800Y-118313300D01*
D25*
%TO.N,Net-(C12-Pad2)*%
X124548500Y-123164800D02*
X124548500Y-124955100D01*
X124548500Y-124955100D02*
X124573900Y-124980500D01*
D24*
%TO.N,Net-(C13-Pad1)*%
X131393500Y-118338700D02*
X129704800Y-118338700D01*
X129653900Y-118287800D02*
X127914400Y-118287800D01*
D25*
X129704800Y-118338700D02*
X129653900Y-118287800D01*
X127914400Y-118287800D02*
X127888900Y-118313300D01*
%TO.N,Net-(C14-Pad2)*%
X129653900Y-123241000D02*
X129653900Y-125082100D01*
X129653900Y-125082100D02*
X129679300Y-125107500D01*
%TO.N,Net-(C15-Pad1)*%
X134810200Y-118414900D02*
X134733900Y-118338600D01*
X136448100Y-118414900D02*
X134810200Y-118414900D01*
X132943600Y-118338600D02*
X132943500Y-118338700D01*
D24*
X134733900Y-118338600D02*
X132943600Y-118338600D01*
D25*
%TO.N,Net-(C16-Pad2)*%
X134784700Y-123164800D02*
X134784700Y-125082100D01*
%TO.N,Net-(C17-Pad1)*%
X138023600Y-118389400D02*
X137998100Y-118414900D01*
D24*
X141375700Y-118440300D02*
X139737800Y-118440300D01*
D25*
X139737800Y-118440300D02*
X139686900Y-118389400D01*
D24*
X139686900Y-118389400D02*
X138023600Y-118389400D01*
D25*
%TO.N,Net-(C18-Pad2)*%
X139661500Y-123215600D02*
X139661500Y-125082100D01*
D24*
%TO.N,Net-(C19-Pad1)*%
X142814000Y-113629200D02*
X142814000Y-118328600D01*
D25*
X142814000Y-118328600D02*
X142925700Y-118440300D01*
D24*
%TO.N,Net-(C20-Pad1)*%
X144729200Y-104060573D02*
X144729200Y-102506500D01*
X146964400Y-107124200D02*
X145314986Y-105474786D01*
X144729201Y-104060573D02*
G75*
G03*
X145314987Y-105474785I1999999J0D01*
G01*
%TO.N,Net-(C20-Pad2)*%
X145289000Y-112979200D02*
X146378614Y-111889586D01*
X146964400Y-110475373D02*
X146964400Y-108674200D01*
X144714000Y-112979200D02*
X145289000Y-112979200D01*
X146964399Y-110475373D02*
G75*
G02*
X146378613Y-111889585I-1999999J0D01*
G01*
D25*
%TO.N,Net-(J2-Pad1)*%
X126333000Y-104232800D02*
X126333000Y-107042200D01*
X126333000Y-107042200D02*
X126466600Y-107175800D01*
%TO.N,Net-(J2-Pad2)*%
X124333000Y-107137200D02*
X124231400Y-107238800D01*
X124333000Y-104232800D02*
X124333000Y-107137200D01*
%TO.N,Net-(L1-Pad2)*%
X109486300Y-119710400D02*
X109486300Y-121488300D01*
X109486300Y-121488300D02*
X109511700Y-121513700D01*
%TO.N,Net-(L4-Pad2)*%
X114515500Y-119761200D02*
X114515500Y-121564400D01*
%TO.N,Net-(L7-Pad2)*%
X119493900Y-119812000D02*
X119493900Y-121589800D01*
%TO.N,Net-(L10-Pad2)*%
X124573900Y-119837400D02*
X124573900Y-121564400D01*
X124573900Y-121564400D02*
X124548500Y-121589800D01*
%TO.N,Net-(L12-Pad2)*%
X129653900Y-119862800D02*
X129653900Y-121666000D01*
%TO.N,Net-(L14-Pad2)*%
X134733900Y-119913600D02*
X134733900Y-121539000D01*
X134733900Y-121539000D02*
X134784700Y-121589800D01*
%TO.N,Net-(L16-Pad2)*%
X139686900Y-119964400D02*
X139686900Y-121615200D01*
X139686900Y-121615200D02*
X139661500Y-121640600D01*
%TO.N,Net-(U1-Pad1)*%
X106283800Y-118125400D02*
X106172100Y-118237100D01*
D24*
X106283800Y-113730800D02*
X106283800Y-118125400D01*
%TO.N,Net-(U1-Pad3)*%
X106283800Y-112430800D02*
X142712400Y-112430800D01*
D25*
X142712400Y-112430800D02*
X142814000Y-112329200D01*
%TO.N,/Thru*%
X103022400Y-114350800D02*
X103763800Y-114350800D01*
X103797400Y-115722400D02*
X103797400Y-114317200D01*
X103763800Y-114350800D02*
X103797400Y-114317200D01*
X145384800Y-114300000D02*
X145694400Y-114300000D01*
X122782468Y-107439868D02*
X124231400Y-108888800D01*
X144714000Y-113629200D02*
X145359400Y-114274600D01*
X145359400Y-114274600D02*
X145384800Y-114300000D01*
X122782468Y-107365800D02*
X122782468Y-107439868D01*
X144919400Y-115443000D02*
X144919400Y-113834600D01*
X144919400Y-113834600D02*
X144714000Y-113629200D01*
X103797400Y-114317200D02*
X104383800Y-113730800D01*
%TO.N,/Fil*%
X125679080Y-109613320D02*
X126466600Y-108825800D01*
X104383800Y-111477800D02*
X105752600Y-110109000D01*
X105752600Y-109753400D02*
X107034720Y-108471280D01*
X144714000Y-110639600D02*
X143802400Y-109728000D01*
X142900200Y-108825800D02*
X126466600Y-108825800D01*
X143802400Y-109728000D02*
X142900200Y-108825800D01*
X123739137Y-109613320D02*
X125679080Y-109613320D01*
X105752600Y-110109000D02*
X105752600Y-109753400D01*
X104383800Y-112430800D02*
X104383800Y-111477800D01*
X144714000Y-112329200D02*
X144714000Y-110639600D01*
X107034720Y-108471280D02*
X122597097Y-108471280D01*
X122597097Y-108471280D02*
X123739137Y-109613320D01*
%TD*%
%TA.AperFunction,Conductor*%
%TO.N,GND*%
G36*
X101434121Y-100520002D02*
G01*
X101480614Y-100573658D01*
X101492000Y-100626000D01*
X101492000Y-101927885D01*
X101496475Y-101943124D01*
X101497865Y-101944329D01*
X101505548Y-101946000D01*
X103839884Y-101946000D01*
X103855123Y-101941525D01*
X103856328Y-101940135D01*
X103857999Y-101932452D01*
X103857999Y-100626000D01*
X103878001Y-100557879D01*
X103931657Y-100511386D01*
X103983999Y-100500000D01*
X104238500Y-100500000D01*
X104306621Y-100520002D01*
X104353114Y-100573658D01*
X104364500Y-100626000D01*
X104364501Y-103847376D01*
X104371149Y-103908580D01*
X104421474Y-104042824D01*
X104426854Y-104050003D01*
X104426856Y-104050006D01*
X104487905Y-104131462D01*
X104507454Y-104157546D01*
X104530894Y-104175113D01*
X104573407Y-104231972D01*
X104578906Y-104300519D01*
X104566109Y-104364854D01*
X104561843Y-104380774D01*
X104510264Y-104532721D01*
X104503957Y-104547949D01*
X104432981Y-104691873D01*
X104424745Y-104706137D01*
X104335593Y-104839564D01*
X104325567Y-104852630D01*
X104241311Y-104948706D01*
X104223280Y-104965593D01*
X104215806Y-104971328D01*
X104211057Y-104977256D01*
X104193264Y-104999465D01*
X104184025Y-105009779D01*
X103348809Y-105844995D01*
X103286497Y-105879021D01*
X103259714Y-105881900D01*
X102997853Y-105881901D01*
X102978194Y-105881901D01*
X102974950Y-105882238D01*
X102974942Y-105882238D01*
X102930520Y-105886847D01*
X102877028Y-105892397D01*
X102716548Y-105945937D01*
X102572689Y-106034960D01*
X102453169Y-106154689D01*
X102449329Y-106160919D01*
X102449328Y-106160920D01*
X102433806Y-106186102D01*
X102364397Y-106298703D01*
X102311137Y-106459276D01*
X102310437Y-106466112D01*
X102310436Y-106466115D01*
X102308104Y-106488879D01*
X102300900Y-106559193D01*
X102300901Y-107105606D01*
X102301238Y-107108850D01*
X102301238Y-107108858D01*
X102305847Y-107153280D01*
X102311397Y-107206772D01*
X102364937Y-107367252D01*
X102403083Y-107428895D01*
X102450106Y-107504884D01*
X102450109Y-107504887D01*
X102453960Y-107511111D01*
X102461152Y-107518290D01*
X102461177Y-107518315D01*
X102462125Y-107520048D01*
X102463689Y-107522021D01*
X102463351Y-107522289D01*
X102495258Y-107580597D01*
X102490257Y-107651417D01*
X102461335Y-107696509D01*
X102453169Y-107704689D01*
X102449329Y-107710919D01*
X102449328Y-107710920D01*
X102384196Y-107816584D01*
X102364397Y-107848703D01*
X102311137Y-108009276D01*
X102300900Y-108109193D01*
X102300901Y-108655606D01*
X102311397Y-108756772D01*
X102364937Y-108917252D01*
X102453960Y-109061111D01*
X102573689Y-109180631D01*
X102579923Y-109184474D01*
X102581491Y-109185712D01*
X102622554Y-109243629D01*
X102629400Y-109284595D01*
X102629400Y-111562418D01*
X102628143Y-111580171D01*
X102624791Y-111603724D01*
X102624648Y-111617373D01*
X102625248Y-111622329D01*
X102625961Y-111630381D01*
X102641900Y-111914210D01*
X102691700Y-112207314D01*
X102774005Y-112492999D01*
X102775359Y-112496267D01*
X102775359Y-112496268D01*
X102886055Y-112763510D01*
X102887779Y-112767673D01*
X102889489Y-112770768D01*
X102889490Y-112770769D01*
X102893733Y-112778446D01*
X103031591Y-113027881D01*
X103033639Y-113030767D01*
X103033640Y-113030769D01*
X103190177Y-113251388D01*
X103213283Y-113318519D01*
X103196428Y-113387486D01*
X103144962Y-113436391D01*
X103087416Y-113450300D01*
X102927754Y-113450300D01*
X102921301Y-113451672D01*
X102921297Y-113451672D01*
X102840612Y-113468822D01*
X102742597Y-113489656D01*
X102569670Y-113566649D01*
X102416529Y-113677912D01*
X102412116Y-113682814D01*
X102412114Y-113682815D01*
X102330456Y-113773505D01*
X102289867Y-113818584D01*
X102286564Y-113824305D01*
X102227855Y-113925993D01*
X102195221Y-113982516D01*
X102136726Y-114162544D01*
X102136036Y-114169105D01*
X102136036Y-114169107D01*
X102121589Y-114306567D01*
X102116940Y-114350800D01*
X102117630Y-114357365D01*
X102135564Y-114527996D01*
X102136726Y-114539056D01*
X102138765Y-114545330D01*
X102148231Y-114574463D01*
X102150259Y-114645431D01*
X102113597Y-114706229D01*
X102049885Y-114737554D01*
X102028398Y-114739400D01*
X101976962Y-114739400D01*
X101970447Y-114739737D01*
X101878343Y-114749294D01*
X101864944Y-114752188D01*
X101716293Y-114801781D01*
X101703114Y-114807955D01*
X101570227Y-114890188D01*
X101558826Y-114899224D01*
X101448414Y-115009829D01*
X101439402Y-115021240D01*
X101357396Y-115154280D01*
X101351249Y-115167461D01*
X101301909Y-115316214D01*
X101299042Y-115329590D01*
X101289728Y-115420497D01*
X101289400Y-115426914D01*
X101289400Y-115450285D01*
X101293875Y-115465524D01*
X101295265Y-115466729D01*
X101302948Y-115468400D01*
X102375400Y-115468400D01*
X102443521Y-115488402D01*
X102490014Y-115542058D01*
X102501400Y-115594400D01*
X102501400Y-116687285D01*
X102505875Y-116702524D01*
X102507265Y-116703729D01*
X102514948Y-116705400D01*
X102517838Y-116705400D01*
X102524353Y-116705063D01*
X102616457Y-116695506D01*
X102629856Y-116692612D01*
X102778507Y-116643019D01*
X102791686Y-116636845D01*
X102924573Y-116554612D01*
X102935973Y-116545577D01*
X102938624Y-116542921D01*
X102940885Y-116541684D01*
X102941711Y-116541029D01*
X102941823Y-116541170D01*
X103000906Y-116508840D01*
X103071726Y-116513842D01*
X103107884Y-116537035D01*
X103108763Y-116535922D01*
X103114509Y-116540460D01*
X103119689Y-116545631D01*
X103263703Y-116634403D01*
X103424276Y-116687663D01*
X103431112Y-116688363D01*
X103431115Y-116688364D01*
X103472580Y-116692612D01*
X103524193Y-116697900D01*
X103795293Y-116697900D01*
X104070606Y-116697899D01*
X104073850Y-116697562D01*
X104073858Y-116697562D01*
X104121565Y-116692612D01*
X104171772Y-116687403D01*
X104332252Y-116633863D01*
X104476111Y-116544840D01*
X104595631Y-116425111D01*
X104599908Y-116418172D01*
X104680563Y-116287327D01*
X104680564Y-116287325D01*
X104684403Y-116281097D01*
X104737663Y-116120524D01*
X104741290Y-116085128D01*
X104747572Y-116023806D01*
X104747900Y-116020607D01*
X104747899Y-115424194D01*
X104747516Y-115420497D01*
X104738114Y-115329885D01*
X104737403Y-115323028D01*
X104683863Y-115162548D01*
X104594840Y-115018689D01*
X104475111Y-114899169D01*
X104470387Y-114896257D01*
X104429745Y-114838935D01*
X104422900Y-114797969D01*
X104422900Y-114628480D01*
X104442902Y-114560359D01*
X104459805Y-114539385D01*
X104530986Y-114468204D01*
X104593298Y-114434178D01*
X104620081Y-114431299D01*
X104756176Y-114431299D01*
X104759570Y-114430930D01*
X104759576Y-114430930D01*
X104809522Y-114425505D01*
X104809526Y-114425504D01*
X104817380Y-114424651D01*
X104951624Y-114374326D01*
X104958803Y-114368946D01*
X104958806Y-114368944D01*
X105059165Y-114293728D01*
X105066346Y-114288346D01*
X105122526Y-114213386D01*
X105146944Y-114180806D01*
X105146946Y-114180803D01*
X105152326Y-114173624D01*
X105202651Y-114039380D01*
X105208146Y-113988801D01*
X105208538Y-113985194D01*
X105235781Y-113919632D01*
X105294144Y-113879206D01*
X105365099Y-113876752D01*
X105426116Y-113913048D01*
X105457824Y-113976570D01*
X105459063Y-113985190D01*
X105464949Y-114039380D01*
X105515274Y-114173624D01*
X105520654Y-114180803D01*
X105520656Y-114180806D01*
X105545074Y-114213386D01*
X105601254Y-114288346D01*
X105601873Y-114288810D01*
X105633921Y-114347500D01*
X105636800Y-114374283D01*
X105636800Y-117275178D01*
X105616798Y-117343299D01*
X105576072Y-117382954D01*
X105536692Y-117406803D01*
X105416803Y-117526692D01*
X105328973Y-117671717D01*
X105326702Y-117678964D01*
X105326701Y-117678966D01*
X105310264Y-117731416D01*
X105278271Y-117833506D01*
X105271600Y-117906107D01*
X105271601Y-118568092D01*
X105278271Y-118640694D01*
X105328973Y-118802483D01*
X105416803Y-118947508D01*
X105536692Y-119067397D01*
X105681717Y-119155227D01*
X105688964Y-119157498D01*
X105688966Y-119157499D01*
X105743577Y-119174613D01*
X105843506Y-119205929D01*
X105916107Y-119212600D01*
X105919005Y-119212600D01*
X106172764Y-119212599D01*
X106428092Y-119212599D01*
X106430950Y-119212336D01*
X106430959Y-119212336D01*
X106466343Y-119209085D01*
X106500694Y-119205929D01*
X106510347Y-119202904D01*
X106655234Y-119157499D01*
X106655236Y-119157498D01*
X106662483Y-119155227D01*
X106807508Y-119067397D01*
X106908005Y-118966900D01*
X106970317Y-118932874D01*
X107041132Y-118937939D01*
X107086195Y-118966900D01*
X107186692Y-119067397D01*
X107331717Y-119155227D01*
X107338964Y-119157498D01*
X107338966Y-119157499D01*
X107393577Y-119174613D01*
X107493506Y-119205929D01*
X107566107Y-119212600D01*
X107569005Y-119212600D01*
X107822764Y-119212599D01*
X108078092Y-119212599D01*
X108080950Y-119212336D01*
X108080959Y-119212336D01*
X108116343Y-119209085D01*
X108150694Y-119205929D01*
X108160347Y-119202904D01*
X108305234Y-119157499D01*
X108305236Y-119157498D01*
X108312483Y-119155227D01*
X108359506Y-119126749D01*
X108428136Y-119108570D01*
X108495699Y-119130380D01*
X108540745Y-119185256D01*
X108548972Y-119255775D01*
X108544370Y-119274192D01*
X108536465Y-119298025D01*
X108520950Y-119344802D01*
X108520250Y-119351635D01*
X108520249Y-119351639D01*
X108514975Y-119403122D01*
X108510800Y-119443865D01*
X108510801Y-119976934D01*
X108521207Y-120077235D01*
X108523386Y-120083766D01*
X108523387Y-120083771D01*
X108552410Y-120170761D01*
X108574286Y-120236332D01*
X108662542Y-120378952D01*
X108781239Y-120497443D01*
X108787467Y-120501282D01*
X108787471Y-120501285D01*
X108800914Y-120509571D01*
X108848408Y-120562342D01*
X108860800Y-120616832D01*
X108860800Y-120623900D01*
X108840798Y-120692021D01*
X108813064Y-120722646D01*
X108811874Y-120723590D01*
X108805648Y-120727442D01*
X108687157Y-120846139D01*
X108683317Y-120852369D01*
X108683316Y-120852370D01*
X108668817Y-120875892D01*
X108599151Y-120988913D01*
X108546350Y-121148102D01*
X108536200Y-121247165D01*
X108536201Y-121780234D01*
X108546607Y-121880535D01*
X108548786Y-121887066D01*
X108548787Y-121887071D01*
X108588944Y-122007435D01*
X108599686Y-122039632D01*
X108687942Y-122182252D01*
X108693124Y-122187425D01*
X108717819Y-122212077D01*
X108751898Y-122274360D01*
X108746895Y-122345180D01*
X108717974Y-122390267D01*
X108692330Y-122415955D01*
X108692322Y-122415965D01*
X108687157Y-122421139D01*
X108683317Y-122427369D01*
X108683316Y-122427370D01*
X108674935Y-122440967D01*
X108599151Y-122563913D01*
X108546350Y-122723102D01*
X108536200Y-122822165D01*
X108536201Y-123355234D01*
X108546607Y-123455535D01*
X108548786Y-123462066D01*
X108548787Y-123462071D01*
X108588944Y-123582435D01*
X108599686Y-123614632D01*
X108687942Y-123757252D01*
X108693124Y-123762425D01*
X108806639Y-123875743D01*
X108804794Y-123877591D01*
X108838788Y-123925555D01*
X108842008Y-123996479D01*
X108807599Y-124055770D01*
X108807989Y-124056160D01*
X108806516Y-124057635D01*
X108806515Y-124057636D01*
X108805594Y-124058559D01*
X108805593Y-124058560D01*
X108780336Y-124083861D01*
X108688469Y-124175889D01*
X108684629Y-124182119D01*
X108684628Y-124182120D01*
X108607024Y-124308017D01*
X108599697Y-124319903D01*
X108546437Y-124480476D01*
X108536200Y-124580393D01*
X108536201Y-125126806D01*
X108546697Y-125227972D01*
X108600237Y-125388452D01*
X108689260Y-125532311D01*
X108694442Y-125537484D01*
X108698989Y-125543221D01*
X108696969Y-125544822D01*
X108725246Y-125596480D01*
X108720256Y-125667301D01*
X108691325Y-125712411D01*
X108687717Y-125716025D01*
X108678702Y-125727440D01*
X108596696Y-125860480D01*
X108590549Y-125873661D01*
X108541209Y-126022414D01*
X108538342Y-126035790D01*
X108529028Y-126126697D01*
X108528771Y-126131726D01*
X108533175Y-126146724D01*
X108534565Y-126147929D01*
X108542248Y-126149600D01*
X110476585Y-126149600D01*
X110491824Y-126145125D01*
X110493029Y-126143735D01*
X110494700Y-126136052D01*
X110494700Y-126133162D01*
X110494363Y-126126647D01*
X110484806Y-126034543D01*
X110481912Y-126021144D01*
X110432319Y-125872493D01*
X110426145Y-125859314D01*
X110343912Y-125726427D01*
X110334877Y-125715027D01*
X110332221Y-125712376D01*
X110330984Y-125710115D01*
X110330329Y-125709289D01*
X110330470Y-125709177D01*
X110298140Y-125650094D01*
X110303142Y-125579274D01*
X110326335Y-125543116D01*
X110325222Y-125542237D01*
X110329760Y-125536491D01*
X110334931Y-125531311D01*
X110361376Y-125488409D01*
X110419863Y-125393527D01*
X110419864Y-125393525D01*
X110423703Y-125387297D01*
X110476963Y-125226724D01*
X110479076Y-125206106D01*
X110486872Y-125130006D01*
X110487200Y-125126807D01*
X110487199Y-124580394D01*
X110486516Y-124573803D01*
X110477414Y-124486085D01*
X110476703Y-124479228D01*
X110423163Y-124318748D01*
X110334140Y-124174889D01*
X110293842Y-124134661D01*
X110214719Y-124055676D01*
X110180640Y-123993394D01*
X110185643Y-123922573D01*
X110219193Y-123876397D01*
X110217752Y-123874958D01*
X110331074Y-123761439D01*
X110336243Y-123756261D01*
X110424249Y-123613487D01*
X110477050Y-123454298D01*
X110479733Y-123428118D01*
X110483141Y-123394854D01*
X110487200Y-123355235D01*
X110487199Y-122822166D01*
X110476793Y-122721865D01*
X110474614Y-122715334D01*
X110474613Y-122715329D01*
X110427274Y-122573439D01*
X110423714Y-122562768D01*
X110335458Y-122420148D01*
X110305581Y-122390323D01*
X110271502Y-122328040D01*
X110276505Y-122257220D01*
X110305426Y-122212133D01*
X110331070Y-122186445D01*
X110331078Y-122186435D01*
X110336243Y-122181261D01*
X110424249Y-122038487D01*
X110477050Y-121879298D01*
X110479733Y-121853118D01*
X110483141Y-121819854D01*
X110487200Y-121780235D01*
X110487199Y-121247166D01*
X110476793Y-121146865D01*
X110474614Y-121140334D01*
X110474613Y-121140329D01*
X110427274Y-120998439D01*
X110423714Y-120987768D01*
X110335458Y-120845148D01*
X110216761Y-120726657D01*
X110192001Y-120711395D01*
X110144507Y-120658624D01*
X110133083Y-120588552D01*
X110161356Y-120523428D01*
X110181266Y-120506158D01*
X110180392Y-120505055D01*
X110186124Y-120500512D01*
X110192352Y-120496658D01*
X110310843Y-120377961D01*
X110316724Y-120368421D01*
X110371113Y-120280184D01*
X110398849Y-120235187D01*
X110406948Y-120210771D01*
X110449486Y-120082522D01*
X110451650Y-120075998D01*
X110461800Y-119976935D01*
X110461799Y-119443866D01*
X110451393Y-119343565D01*
X110446428Y-119328681D01*
X110416217Y-119238131D01*
X110401148Y-119192962D01*
X110398564Y-119122014D01*
X110434747Y-119060930D01*
X110498211Y-119029105D01*
X110568807Y-119036644D01*
X110586787Y-119045827D01*
X110606458Y-119057952D01*
X110714013Y-119124249D01*
X110720961Y-119126554D01*
X110720962Y-119126554D01*
X110777353Y-119145258D01*
X110873202Y-119177050D01*
X110880035Y-119177750D01*
X110880039Y-119177751D01*
X110932646Y-119183141D01*
X110972265Y-119187200D01*
X111236744Y-119187200D01*
X111505334Y-119187199D01*
X111605635Y-119176793D01*
X111612166Y-119174614D01*
X111612171Y-119174613D01*
X111756834Y-119126349D01*
X111764732Y-119123714D01*
X111907352Y-119035458D01*
X111937177Y-119005581D01*
X111999460Y-118971502D01*
X112070280Y-118976505D01*
X112115367Y-119005426D01*
X112141055Y-119031070D01*
X112141065Y-119031078D01*
X112146239Y-119036243D01*
X112152469Y-119040083D01*
X112152470Y-119040084D01*
X112179054Y-119056470D01*
X112289013Y-119124249D01*
X112295961Y-119126554D01*
X112295962Y-119126554D01*
X112352353Y-119145258D01*
X112448202Y-119177050D01*
X112455035Y-119177750D01*
X112455039Y-119177751D01*
X112507646Y-119183141D01*
X112547265Y-119187200D01*
X112811744Y-119187200D01*
X113080334Y-119187199D01*
X113180635Y-119176793D01*
X113187166Y-119174614D01*
X113187171Y-119174613D01*
X113331834Y-119126349D01*
X113339732Y-119123714D01*
X113426060Y-119070293D01*
X113494511Y-119051455D01*
X113562281Y-119072616D01*
X113607852Y-119127057D01*
X113616756Y-119197493D01*
X113606632Y-119230441D01*
X113602951Y-119236413D01*
X113600646Y-119243361D01*
X113600646Y-119243362D01*
X113580396Y-119304414D01*
X113550150Y-119395602D01*
X113549450Y-119402435D01*
X113549449Y-119402439D01*
X113544059Y-119455046D01*
X113540000Y-119494665D01*
X113540001Y-120027734D01*
X113550407Y-120128035D01*
X113552586Y-120134566D01*
X113552587Y-120134571D01*
X113598199Y-120271285D01*
X113603486Y-120287132D01*
X113691742Y-120429752D01*
X113810439Y-120548243D01*
X113816669Y-120552083D01*
X113816670Y-120552084D01*
X113822393Y-120555612D01*
X113869887Y-120608385D01*
X113881310Y-120678456D01*
X113853036Y-120743580D01*
X113822582Y-120770014D01*
X113809448Y-120778142D01*
X113690957Y-120896839D01*
X113687117Y-120903069D01*
X113687116Y-120903070D01*
X113679100Y-120916075D01*
X113602951Y-121039613D01*
X113550150Y-121198802D01*
X113549450Y-121205635D01*
X113549449Y-121205639D01*
X113546972Y-121229821D01*
X113540000Y-121297865D01*
X113540001Y-121830934D01*
X113550407Y-121931235D01*
X113552586Y-121937766D01*
X113552587Y-121937771D01*
X113575829Y-122007435D01*
X113603486Y-122090332D01*
X113691742Y-122232952D01*
X113721387Y-122262545D01*
X113721619Y-122262777D01*
X113755698Y-122325060D01*
X113750695Y-122395880D01*
X113721774Y-122440967D01*
X113696130Y-122466655D01*
X113696122Y-122466665D01*
X113690957Y-122471839D01*
X113602951Y-122614613D01*
X113550150Y-122773802D01*
X113549450Y-122780635D01*
X113549449Y-122780639D01*
X113546972Y-122804821D01*
X113540000Y-122872865D01*
X113540001Y-123405934D01*
X113550407Y-123506235D01*
X113552586Y-123512766D01*
X113552587Y-123512771D01*
X113575829Y-123582435D01*
X113603486Y-123665332D01*
X113691742Y-123807952D01*
X113810439Y-123926443D01*
X113816671Y-123930284D01*
X113817572Y-123930996D01*
X113858633Y-123988914D01*
X113861864Y-124059837D01*
X113826238Y-124121248D01*
X113817929Y-124128460D01*
X113811789Y-124132260D01*
X113692269Y-124251989D01*
X113688429Y-124258219D01*
X113688428Y-124258220D01*
X113657733Y-124308017D01*
X113603497Y-124396003D01*
X113550237Y-124556576D01*
X113549537Y-124563412D01*
X113549536Y-124563415D01*
X113547878Y-124579596D01*
X113540000Y-124656493D01*
X113540001Y-125202906D01*
X113540338Y-125206150D01*
X113540338Y-125206158D01*
X113543149Y-125233250D01*
X113550497Y-125304072D01*
X113604037Y-125464552D01*
X113693060Y-125608411D01*
X113698242Y-125613584D01*
X113702789Y-125619321D01*
X113700769Y-125620922D01*
X113729046Y-125672580D01*
X113724056Y-125743401D01*
X113695125Y-125788511D01*
X113691517Y-125792125D01*
X113682502Y-125803540D01*
X113600496Y-125936580D01*
X113594349Y-125949761D01*
X113545009Y-126098514D01*
X113542142Y-126111890D01*
X113532828Y-126202797D01*
X113532571Y-126207826D01*
X113536975Y-126222824D01*
X113538365Y-126224029D01*
X113546048Y-126225700D01*
X115480385Y-126225700D01*
X115495624Y-126221225D01*
X115496829Y-126219835D01*
X115498500Y-126212152D01*
X115498500Y-126209262D01*
X115498163Y-126202747D01*
X115488606Y-126110643D01*
X115485712Y-126097244D01*
X115436119Y-125948593D01*
X115429945Y-125935414D01*
X115347712Y-125802527D01*
X115338677Y-125791127D01*
X115336021Y-125788476D01*
X115334784Y-125786215D01*
X115334129Y-125785389D01*
X115334270Y-125785277D01*
X115301940Y-125726194D01*
X115306942Y-125655374D01*
X115330135Y-125619216D01*
X115329022Y-125618337D01*
X115333560Y-125612591D01*
X115338731Y-125607411D01*
X115392349Y-125520427D01*
X115423663Y-125469627D01*
X115423664Y-125469625D01*
X115427503Y-125463397D01*
X115480763Y-125302824D01*
X115491000Y-125202907D01*
X115490999Y-124656494D01*
X115480503Y-124555328D01*
X115426963Y-124394848D01*
X115337940Y-124250989D01*
X115218211Y-124131469D01*
X115213114Y-124128327D01*
X115172369Y-124070854D01*
X115169139Y-123999931D01*
X115204766Y-123938521D01*
X115213263Y-123931146D01*
X115215327Y-123929510D01*
X115221552Y-123925658D01*
X115340043Y-123806961D01*
X115428049Y-123664187D01*
X115453412Y-123587722D01*
X115478686Y-123511522D01*
X115480850Y-123504998D01*
X115482860Y-123485387D01*
X115488070Y-123434533D01*
X115491000Y-123405935D01*
X115490999Y-122872866D01*
X115480593Y-122772565D01*
X115478414Y-122766034D01*
X115478413Y-122766029D01*
X115429832Y-122620416D01*
X115427514Y-122613468D01*
X115339258Y-122470848D01*
X115309381Y-122441023D01*
X115275302Y-122378740D01*
X115280305Y-122307920D01*
X115309226Y-122262833D01*
X115334870Y-122237145D01*
X115334878Y-122237135D01*
X115340043Y-122231961D01*
X115428049Y-122089187D01*
X115453412Y-122012722D01*
X115478686Y-121936522D01*
X115480850Y-121929998D01*
X115482860Y-121910387D01*
X115488070Y-121859533D01*
X115491000Y-121830935D01*
X115490999Y-121297866D01*
X115480593Y-121197565D01*
X115478414Y-121191034D01*
X115478413Y-121191029D01*
X115429832Y-121045416D01*
X115427514Y-121038468D01*
X115339258Y-120895848D01*
X115220561Y-120777357D01*
X115214330Y-120773516D01*
X115208607Y-120769988D01*
X115161113Y-120717215D01*
X115149690Y-120647144D01*
X115177964Y-120582020D01*
X115208418Y-120555586D01*
X115221552Y-120547458D01*
X115340043Y-120428761D01*
X115428049Y-120285987D01*
X115453412Y-120209522D01*
X115478686Y-120133322D01*
X115480850Y-120126798D01*
X115482860Y-120107187D01*
X115486941Y-120067354D01*
X115491000Y-120027735D01*
X115490999Y-119494666D01*
X115480593Y-119394365D01*
X115478414Y-119387834D01*
X115478413Y-119387829D01*
X115432832Y-119251207D01*
X115430248Y-119180257D01*
X115466432Y-119119174D01*
X115529896Y-119087349D01*
X115600491Y-119094888D01*
X115618470Y-119104071D01*
X115692413Y-119149649D01*
X115699361Y-119151954D01*
X115699362Y-119151954D01*
X115754013Y-119170081D01*
X115851602Y-119202450D01*
X115858435Y-119203150D01*
X115858439Y-119203151D01*
X115908717Y-119208302D01*
X115950665Y-119212600D01*
X116215144Y-119212600D01*
X116483734Y-119212599D01*
X116584035Y-119202193D01*
X116590566Y-119200014D01*
X116590571Y-119200013D01*
X116736184Y-119151432D01*
X116743132Y-119149114D01*
X116885752Y-119060858D01*
X116915577Y-119030981D01*
X116977860Y-118996902D01*
X117048680Y-119001905D01*
X117093767Y-119030826D01*
X117119455Y-119056470D01*
X117119465Y-119056478D01*
X117124639Y-119061643D01*
X117130869Y-119065483D01*
X117130870Y-119065484D01*
X117146657Y-119075215D01*
X117267413Y-119149649D01*
X117274361Y-119151954D01*
X117274362Y-119151954D01*
X117329013Y-119170081D01*
X117426602Y-119202450D01*
X117433435Y-119203150D01*
X117433439Y-119203151D01*
X117483717Y-119208302D01*
X117525665Y-119212600D01*
X117790144Y-119212600D01*
X118058734Y-119212599D01*
X118159035Y-119202193D01*
X118165566Y-119200014D01*
X118165571Y-119200013D01*
X118311184Y-119151432D01*
X118318132Y-119149114D01*
X118428038Y-119081102D01*
X118496490Y-119062264D01*
X118564260Y-119083425D01*
X118609831Y-119137866D01*
X118618735Y-119208302D01*
X118601601Y-119254361D01*
X118581351Y-119287213D01*
X118579046Y-119294161D01*
X118579046Y-119294162D01*
X118572400Y-119314199D01*
X118528550Y-119446402D01*
X118527850Y-119453235D01*
X118527849Y-119453239D01*
X118522459Y-119505846D01*
X118518400Y-119545465D01*
X118518401Y-120078534D01*
X118528807Y-120178835D01*
X118530986Y-120185366D01*
X118530987Y-120185371D01*
X118576599Y-120322085D01*
X118581886Y-120337932D01*
X118670142Y-120480552D01*
X118788839Y-120599043D01*
X118794206Y-120602351D01*
X118835028Y-120659928D01*
X118838260Y-120730851D01*
X118802635Y-120792262D01*
X118794138Y-120799638D01*
X118794071Y-120799691D01*
X118787848Y-120803542D01*
X118669357Y-120922239D01*
X118581351Y-121065013D01*
X118528550Y-121224202D01*
X118527850Y-121231035D01*
X118527849Y-121231039D01*
X118522459Y-121283646D01*
X118518400Y-121323265D01*
X118518401Y-121856334D01*
X118528807Y-121956635D01*
X118530986Y-121963166D01*
X118530987Y-121963171D01*
X118571094Y-122083384D01*
X118581886Y-122115732D01*
X118670142Y-122258352D01*
X118675324Y-122263525D01*
X118700019Y-122288177D01*
X118734098Y-122350460D01*
X118729095Y-122421280D01*
X118700174Y-122466367D01*
X118674530Y-122492055D01*
X118674522Y-122492065D01*
X118669357Y-122497239D01*
X118581351Y-122640013D01*
X118528550Y-122799202D01*
X118527850Y-122806035D01*
X118527849Y-122806039D01*
X118522459Y-122858646D01*
X118518400Y-122898265D01*
X118518401Y-123431334D01*
X118528807Y-123531635D01*
X118530986Y-123538166D01*
X118530987Y-123538171D01*
X118571094Y-123658384D01*
X118581886Y-123690732D01*
X118670142Y-123833352D01*
X118788839Y-123951843D01*
X118795069Y-123955683D01*
X118795070Y-123955684D01*
X118803032Y-123960592D01*
X118850525Y-124013364D01*
X118861949Y-124083435D01*
X118833675Y-124148559D01*
X118803220Y-124174996D01*
X118790189Y-124183060D01*
X118670669Y-124302789D01*
X118666829Y-124309019D01*
X118666828Y-124309020D01*
X118592385Y-124429789D01*
X118581897Y-124446803D01*
X118528637Y-124607376D01*
X118518400Y-124707293D01*
X118518401Y-125253706D01*
X118528897Y-125354872D01*
X118582437Y-125515352D01*
X118671460Y-125659211D01*
X118676642Y-125664384D01*
X118681189Y-125670121D01*
X118679169Y-125671722D01*
X118707446Y-125723380D01*
X118702456Y-125794201D01*
X118673525Y-125839311D01*
X118669917Y-125842925D01*
X118660902Y-125854340D01*
X118578896Y-125987380D01*
X118572749Y-126000561D01*
X118523409Y-126149314D01*
X118520542Y-126162690D01*
X118511228Y-126253597D01*
X118510971Y-126258626D01*
X118515375Y-126273624D01*
X118516765Y-126274829D01*
X118524448Y-126276500D01*
X120458785Y-126276500D01*
X120474024Y-126272025D01*
X120475229Y-126270635D01*
X120476900Y-126262952D01*
X120476900Y-126260062D01*
X120476563Y-126253547D01*
X120467006Y-126161443D01*
X120464112Y-126148044D01*
X120414519Y-125999393D01*
X120408345Y-125986214D01*
X120326112Y-125853327D01*
X120317077Y-125841927D01*
X120314421Y-125839276D01*
X120313184Y-125837015D01*
X120312529Y-125836189D01*
X120312670Y-125836077D01*
X120280340Y-125776994D01*
X120285342Y-125706174D01*
X120308535Y-125670016D01*
X120307422Y-125669137D01*
X120311960Y-125663391D01*
X120317131Y-125658211D01*
X120321551Y-125651040D01*
X120402063Y-125520427D01*
X120402064Y-125520425D01*
X120405903Y-125514197D01*
X120459163Y-125353624D01*
X120469400Y-125253707D01*
X120469399Y-124707294D01*
X120468897Y-124702450D01*
X120459614Y-124612985D01*
X120458903Y-124606128D01*
X120405363Y-124445648D01*
X120316340Y-124301789D01*
X120196611Y-124182269D01*
X120184770Y-124174970D01*
X120137278Y-124122196D01*
X120125856Y-124052125D01*
X120154131Y-123987001D01*
X120184582Y-123960569D01*
X120199952Y-123951058D01*
X120272959Y-123877924D01*
X120313274Y-123837539D01*
X120318443Y-123832361D01*
X120406449Y-123689587D01*
X120431812Y-123613122D01*
X120457086Y-123536922D01*
X120459250Y-123530398D01*
X120461260Y-123510787D01*
X120467748Y-123447461D01*
X120469400Y-123431335D01*
X120469399Y-122898266D01*
X120458993Y-122797965D01*
X120456814Y-122791434D01*
X120456813Y-122791429D01*
X120408232Y-122645816D01*
X120405914Y-122638868D01*
X120317658Y-122496248D01*
X120287781Y-122466423D01*
X120253702Y-122404140D01*
X120258705Y-122333320D01*
X120287626Y-122288233D01*
X120313270Y-122262545D01*
X120313278Y-122262535D01*
X120318443Y-122257361D01*
X120406449Y-122114587D01*
X120431812Y-122038122D01*
X120457086Y-121961922D01*
X120459250Y-121955398D01*
X120461260Y-121935787D01*
X120467748Y-121872461D01*
X120469400Y-121856335D01*
X120469399Y-121323266D01*
X120458993Y-121222965D01*
X120456814Y-121216434D01*
X120456813Y-121216429D01*
X120408232Y-121070816D01*
X120405914Y-121063868D01*
X120317658Y-120921248D01*
X120198961Y-120802757D01*
X120193594Y-120799449D01*
X120152772Y-120741872D01*
X120149540Y-120670949D01*
X120185165Y-120609538D01*
X120193662Y-120602162D01*
X120193729Y-120602109D01*
X120199952Y-120598258D01*
X120318443Y-120479561D01*
X120406449Y-120336787D01*
X120459250Y-120177598D01*
X120465156Y-120119961D01*
X120466470Y-120107133D01*
X120469400Y-120078535D01*
X120469399Y-119545466D01*
X120458993Y-119445165D01*
X120456814Y-119438634D01*
X120456813Y-119438629D01*
X120405914Y-119286068D01*
X120407827Y-119285430D01*
X120398580Y-119225255D01*
X120427447Y-119160392D01*
X120486799Y-119121433D01*
X120557793Y-119120746D01*
X120589576Y-119134718D01*
X120696213Y-119200449D01*
X120703161Y-119202754D01*
X120703162Y-119202754D01*
X120759568Y-119221463D01*
X120855402Y-119253250D01*
X120862235Y-119253950D01*
X120862239Y-119253951D01*
X120914846Y-119259341D01*
X120954465Y-119263400D01*
X121218944Y-119263400D01*
X121487534Y-119263399D01*
X121587835Y-119252993D01*
X121594366Y-119250814D01*
X121594371Y-119250813D01*
X121734901Y-119203928D01*
X121746932Y-119199914D01*
X121889552Y-119111658D01*
X121919377Y-119081781D01*
X121981660Y-119047702D01*
X122052480Y-119052705D01*
X122097567Y-119081626D01*
X122123255Y-119107270D01*
X122123265Y-119107278D01*
X122128439Y-119112443D01*
X122134669Y-119116283D01*
X122134670Y-119116284D01*
X122157827Y-119130558D01*
X122271213Y-119200449D01*
X122278161Y-119202754D01*
X122278162Y-119202754D01*
X122334568Y-119221463D01*
X122430402Y-119253250D01*
X122437235Y-119253950D01*
X122437239Y-119253951D01*
X122489846Y-119259341D01*
X122529465Y-119263400D01*
X122793944Y-119263400D01*
X123062534Y-119263399D01*
X123162835Y-119252993D01*
X123169366Y-119250814D01*
X123169371Y-119250813D01*
X123309901Y-119203928D01*
X123321932Y-119199914D01*
X123464552Y-119111658D01*
X123539346Y-119036734D01*
X123601629Y-119002655D01*
X123672449Y-119007658D01*
X123729322Y-119050155D01*
X123754190Y-119116654D01*
X123735779Y-119191867D01*
X123661351Y-119312613D01*
X123659046Y-119319561D01*
X123659046Y-119319562D01*
X123635662Y-119390062D01*
X123608550Y-119471802D01*
X123607850Y-119478635D01*
X123607849Y-119478639D01*
X123605372Y-119502821D01*
X123598400Y-119570865D01*
X123598401Y-120103934D01*
X123608807Y-120204235D01*
X123610986Y-120210766D01*
X123610987Y-120210771D01*
X123650765Y-120329998D01*
X123661886Y-120363332D01*
X123750142Y-120505952D01*
X123857599Y-120613222D01*
X123891677Y-120675504D01*
X123886674Y-120746324D01*
X123847262Y-120800563D01*
X123842448Y-120803542D01*
X123723957Y-120922239D01*
X123635951Y-121065013D01*
X123583150Y-121224202D01*
X123582450Y-121231035D01*
X123582449Y-121231039D01*
X123577059Y-121283646D01*
X123573000Y-121323265D01*
X123573001Y-121856334D01*
X123583407Y-121956635D01*
X123585586Y-121963166D01*
X123585587Y-121963171D01*
X123625694Y-122083384D01*
X123636486Y-122115732D01*
X123724742Y-122258352D01*
X123729924Y-122263525D01*
X123754619Y-122288177D01*
X123788698Y-122350460D01*
X123783695Y-122421280D01*
X123754774Y-122466367D01*
X123729130Y-122492055D01*
X123729122Y-122492065D01*
X123723957Y-122497239D01*
X123635951Y-122640013D01*
X123583150Y-122799202D01*
X123582450Y-122806035D01*
X123582449Y-122806039D01*
X123577059Y-122858646D01*
X123573000Y-122898265D01*
X123573001Y-123431334D01*
X123583407Y-123531635D01*
X123585586Y-123538166D01*
X123585587Y-123538171D01*
X123625694Y-123658384D01*
X123636486Y-123690732D01*
X123724742Y-123833352D01*
X123843439Y-123951843D01*
X123849667Y-123955682D01*
X123849671Y-123955685D01*
X123863114Y-123963971D01*
X123910608Y-124016742D01*
X123923000Y-124071232D01*
X123923000Y-124081373D01*
X123902998Y-124149494D01*
X123875678Y-124179664D01*
X123870189Y-124183060D01*
X123750669Y-124302789D01*
X123746829Y-124309019D01*
X123746828Y-124309020D01*
X123672385Y-124429789D01*
X123661897Y-124446803D01*
X123608637Y-124607376D01*
X123598400Y-124707293D01*
X123598401Y-125253706D01*
X123608897Y-125354872D01*
X123662437Y-125515352D01*
X123751460Y-125659211D01*
X123756642Y-125664384D01*
X123761189Y-125670121D01*
X123759169Y-125671722D01*
X123787446Y-125723380D01*
X123782456Y-125794201D01*
X123753525Y-125839311D01*
X123749917Y-125842925D01*
X123740902Y-125854340D01*
X123658896Y-125987380D01*
X123652749Y-126000561D01*
X123603409Y-126149314D01*
X123600542Y-126162690D01*
X123591228Y-126253597D01*
X123590971Y-126258626D01*
X123595375Y-126273624D01*
X123596765Y-126274829D01*
X123604448Y-126276500D01*
X125538785Y-126276500D01*
X125554024Y-126272025D01*
X125555229Y-126270635D01*
X125556900Y-126262952D01*
X125556900Y-126260062D01*
X125556563Y-126253547D01*
X125547006Y-126161443D01*
X125544112Y-126148044D01*
X125494519Y-125999393D01*
X125488345Y-125986214D01*
X125406112Y-125853327D01*
X125397077Y-125841927D01*
X125394421Y-125839276D01*
X125393184Y-125837015D01*
X125392529Y-125836189D01*
X125392670Y-125836077D01*
X125360340Y-125776994D01*
X125365342Y-125706174D01*
X125388535Y-125670016D01*
X125387422Y-125669137D01*
X125391960Y-125663391D01*
X125397131Y-125658211D01*
X125401551Y-125651040D01*
X125482063Y-125520427D01*
X125482064Y-125520425D01*
X125485903Y-125514197D01*
X125539163Y-125353624D01*
X125549400Y-125253707D01*
X125549399Y-124707294D01*
X125548897Y-124702450D01*
X125539614Y-124612985D01*
X125538903Y-124606128D01*
X125485363Y-124445648D01*
X125396340Y-124301789D01*
X125276611Y-124182269D01*
X125252048Y-124167128D01*
X125204554Y-124114357D01*
X125193130Y-124044286D01*
X125221403Y-123979162D01*
X125243208Y-123960233D01*
X125242592Y-123959455D01*
X125248324Y-123954912D01*
X125254552Y-123951058D01*
X125327559Y-123877924D01*
X125367874Y-123837539D01*
X125373043Y-123832361D01*
X125461049Y-123689587D01*
X125486412Y-123613122D01*
X125511686Y-123536922D01*
X125513850Y-123530398D01*
X125515860Y-123510787D01*
X125522348Y-123447461D01*
X125524000Y-123431335D01*
X125523999Y-122898266D01*
X125513593Y-122797965D01*
X125511414Y-122791434D01*
X125511413Y-122791429D01*
X125462832Y-122645816D01*
X125460514Y-122638868D01*
X125372258Y-122496248D01*
X125342381Y-122466423D01*
X125308302Y-122404140D01*
X125313305Y-122333320D01*
X125342226Y-122288233D01*
X125367870Y-122262545D01*
X125367878Y-122262535D01*
X125373043Y-122257361D01*
X125461049Y-122114587D01*
X125486412Y-122038122D01*
X125511686Y-121961922D01*
X125513850Y-121955398D01*
X125515860Y-121935787D01*
X125522348Y-121872461D01*
X125524000Y-121856335D01*
X125523999Y-121323266D01*
X125513593Y-121222965D01*
X125511414Y-121216434D01*
X125511413Y-121216429D01*
X125462832Y-121070816D01*
X125460514Y-121063868D01*
X125372258Y-120921248D01*
X125264801Y-120813978D01*
X125230723Y-120751696D01*
X125235726Y-120680876D01*
X125275138Y-120626637D01*
X125279952Y-120623658D01*
X125398443Y-120504961D01*
X125404324Y-120495421D01*
X125448641Y-120423524D01*
X125486449Y-120362187D01*
X125494548Y-120337771D01*
X125526506Y-120241421D01*
X125539250Y-120202998D01*
X125541260Y-120183387D01*
X125546470Y-120132533D01*
X125549400Y-120103935D01*
X125549399Y-119570866D01*
X125538993Y-119470565D01*
X125536814Y-119464034D01*
X125536813Y-119464029D01*
X125488232Y-119318416D01*
X125485914Y-119311468D01*
X125482058Y-119305237D01*
X125478957Y-119298617D01*
X125480220Y-119298025D01*
X125463487Y-119237214D01*
X125484650Y-119169444D01*
X125539091Y-119123874D01*
X125609528Y-119114972D01*
X125660631Y-119137437D01*
X125661189Y-119136531D01*
X125784167Y-119212336D01*
X125805203Y-119225303D01*
X125965776Y-119278563D01*
X125972612Y-119279263D01*
X125972615Y-119279264D01*
X126022697Y-119284395D01*
X126065693Y-119288800D01*
X126336793Y-119288800D01*
X126612106Y-119288799D01*
X126615350Y-119288462D01*
X126615358Y-119288462D01*
X126659780Y-119283853D01*
X126713272Y-119278303D01*
X126873752Y-119224763D01*
X126969080Y-119165772D01*
X127011384Y-119139594D01*
X127011387Y-119139591D01*
X127017611Y-119135740D01*
X127024816Y-119128523D01*
X127026548Y-119127575D01*
X127028521Y-119126011D01*
X127028789Y-119126349D01*
X127087097Y-119094442D01*
X127157917Y-119099443D01*
X127203009Y-119128365D01*
X127211189Y-119136531D01*
X127217419Y-119140371D01*
X127217420Y-119140372D01*
X127334167Y-119212336D01*
X127355203Y-119225303D01*
X127515776Y-119278563D01*
X127522612Y-119279263D01*
X127522615Y-119279264D01*
X127572697Y-119284395D01*
X127615693Y-119288800D01*
X127886793Y-119288800D01*
X128162106Y-119288799D01*
X128165350Y-119288462D01*
X128165358Y-119288462D01*
X128209780Y-119283853D01*
X128263272Y-119278303D01*
X128423752Y-119224763D01*
X128567611Y-119135740D01*
X128584248Y-119119074D01*
X128646531Y-119084995D01*
X128717351Y-119089998D01*
X128774223Y-119132495D01*
X128799092Y-119198994D01*
X128780681Y-119274207D01*
X128778156Y-119278303D01*
X128741351Y-119338013D01*
X128739046Y-119344961D01*
X128739046Y-119344962D01*
X128718796Y-119406014D01*
X128688550Y-119497202D01*
X128687850Y-119504035D01*
X128687849Y-119504039D01*
X128682459Y-119556646D01*
X128678400Y-119596265D01*
X128678401Y-120129334D01*
X128688807Y-120229635D01*
X128690986Y-120236166D01*
X128690987Y-120236171D01*
X128731094Y-120356384D01*
X128741886Y-120388732D01*
X128830142Y-120531352D01*
X128948839Y-120649843D01*
X128955069Y-120653683D01*
X128955070Y-120653684D01*
X128960793Y-120657212D01*
X129008287Y-120709985D01*
X129019710Y-120780056D01*
X128991436Y-120845180D01*
X128960982Y-120871614D01*
X128947848Y-120879742D01*
X128829357Y-120998439D01*
X128741351Y-121141213D01*
X128739046Y-121148161D01*
X128739046Y-121148162D01*
X128714235Y-121222965D01*
X128688550Y-121300402D01*
X128687850Y-121307235D01*
X128687849Y-121307239D01*
X128682459Y-121359846D01*
X128678400Y-121399465D01*
X128678401Y-121932534D01*
X128688807Y-122032835D01*
X128690986Y-122039366D01*
X128690987Y-122039371D01*
X128731094Y-122159584D01*
X128741886Y-122191932D01*
X128830142Y-122334552D01*
X128840789Y-122345180D01*
X128860019Y-122364377D01*
X128894098Y-122426660D01*
X128889095Y-122497480D01*
X128860174Y-122542567D01*
X128834530Y-122568255D01*
X128834522Y-122568265D01*
X128829357Y-122573439D01*
X128741351Y-122716213D01*
X128739046Y-122723161D01*
X128739046Y-122723162D01*
X128714235Y-122797965D01*
X128688550Y-122875402D01*
X128687850Y-122882235D01*
X128687849Y-122882239D01*
X128682459Y-122934846D01*
X128678400Y-122974465D01*
X128678401Y-123507534D01*
X128688807Y-123607835D01*
X128690986Y-123614366D01*
X128690987Y-123614371D01*
X128731094Y-123734584D01*
X128741886Y-123766932D01*
X128830142Y-123909552D01*
X128948839Y-124028043D01*
X128955067Y-124031882D01*
X128955071Y-124031885D01*
X128968514Y-124040171D01*
X129016008Y-124092942D01*
X129028400Y-124147432D01*
X129028400Y-124208373D01*
X129008398Y-124276494D01*
X128981078Y-124306664D01*
X128975589Y-124310060D01*
X128856069Y-124429789D01*
X128852229Y-124436019D01*
X128852228Y-124436020D01*
X128781939Y-124550050D01*
X128767297Y-124573803D01*
X128714037Y-124734376D01*
X128703800Y-124834293D01*
X128703801Y-125380706D01*
X128704138Y-125383950D01*
X128704138Y-125383958D01*
X128705131Y-125393527D01*
X128714297Y-125481872D01*
X128767837Y-125642352D01*
X128856860Y-125786211D01*
X128862042Y-125791384D01*
X128866589Y-125797121D01*
X128864569Y-125798722D01*
X128892846Y-125850380D01*
X128887856Y-125921201D01*
X128858925Y-125966311D01*
X128855317Y-125969925D01*
X128846302Y-125981340D01*
X128764296Y-126114380D01*
X128758149Y-126127561D01*
X128708809Y-126276314D01*
X128705942Y-126289690D01*
X128696628Y-126380597D01*
X128696371Y-126385626D01*
X128700775Y-126400624D01*
X128702165Y-126401829D01*
X128709848Y-126403500D01*
X130644185Y-126403500D01*
X130659424Y-126399025D01*
X130660629Y-126397635D01*
X130662300Y-126389952D01*
X130662300Y-126387062D01*
X130661963Y-126380547D01*
X130652406Y-126288443D01*
X130649512Y-126275044D01*
X130599919Y-126126393D01*
X130593745Y-126113214D01*
X130511512Y-125980327D01*
X130502477Y-125968927D01*
X130499821Y-125966276D01*
X130498584Y-125964015D01*
X130497929Y-125963189D01*
X130498070Y-125963077D01*
X130465740Y-125903994D01*
X130470742Y-125833174D01*
X130493935Y-125797016D01*
X130492822Y-125796137D01*
X130497360Y-125790391D01*
X130502531Y-125785211D01*
X130509860Y-125773322D01*
X130587463Y-125647427D01*
X130587464Y-125647425D01*
X130591303Y-125641197D01*
X130644563Y-125480624D01*
X130645450Y-125471972D01*
X130652855Y-125399693D01*
X130654800Y-125380707D01*
X130654799Y-124834294D01*
X130652498Y-124812110D01*
X130645014Y-124739985D01*
X130644303Y-124733128D01*
X130590763Y-124572648D01*
X130501740Y-124428789D01*
X130482535Y-124409617D01*
X130387191Y-124314440D01*
X130382011Y-124309269D01*
X130371499Y-124302789D01*
X130339283Y-124282930D01*
X130291790Y-124230157D01*
X130279400Y-124175671D01*
X130279400Y-124147307D01*
X130299402Y-124079186D01*
X130339099Y-124040162D01*
X130359952Y-124027258D01*
X130461376Y-123925658D01*
X130473274Y-123913739D01*
X130478443Y-123908561D01*
X130566449Y-123765787D01*
X130619250Y-123606598D01*
X130621853Y-123581198D01*
X130627758Y-123523561D01*
X130629400Y-123507535D01*
X130629399Y-122974466D01*
X130618993Y-122874165D01*
X130616814Y-122867634D01*
X130616813Y-122867629D01*
X130568232Y-122722016D01*
X130565914Y-122715068D01*
X130477658Y-122572448D01*
X130447781Y-122542623D01*
X130413702Y-122480340D01*
X130418705Y-122409520D01*
X130447626Y-122364433D01*
X130473270Y-122338745D01*
X130473278Y-122338735D01*
X130478443Y-122333561D01*
X130566449Y-122190787D01*
X130619250Y-122031598D01*
X130621853Y-122006198D01*
X130627758Y-121948561D01*
X130629400Y-121932535D01*
X130629399Y-121399466D01*
X130618993Y-121299165D01*
X130616814Y-121292634D01*
X130616813Y-121292629D01*
X130568232Y-121147016D01*
X130565914Y-121140068D01*
X130477658Y-120997448D01*
X130358961Y-120878957D01*
X130352730Y-120875116D01*
X130347007Y-120871588D01*
X130299513Y-120818815D01*
X130288090Y-120748744D01*
X130316364Y-120683620D01*
X130346818Y-120657186D01*
X130359952Y-120649058D01*
X130478443Y-120530361D01*
X130496366Y-120501285D01*
X130537270Y-120434925D01*
X130566449Y-120387587D01*
X130619250Y-120228398D01*
X130621853Y-120202998D01*
X130625341Y-120168954D01*
X130629400Y-120129335D01*
X130629399Y-119596266D01*
X130618993Y-119495965D01*
X130616814Y-119489434D01*
X130616813Y-119489429D01*
X130568230Y-119343809D01*
X130568229Y-119343807D01*
X130565914Y-119336868D01*
X130566666Y-119336617D01*
X130556761Y-119272182D01*
X130585625Y-119207317D01*
X130644975Y-119168355D01*
X130715968Y-119167664D01*
X130747762Y-119181640D01*
X130777569Y-119200013D01*
X130852237Y-119246039D01*
X130859803Y-119250703D01*
X131020376Y-119303963D01*
X131027212Y-119304663D01*
X131027215Y-119304664D01*
X131077297Y-119309795D01*
X131120293Y-119314200D01*
X131391393Y-119314200D01*
X131666706Y-119314199D01*
X131669950Y-119313862D01*
X131669958Y-119313862D01*
X131714380Y-119309253D01*
X131767872Y-119303703D01*
X131928352Y-119250163D01*
X132011040Y-119198994D01*
X132065984Y-119164994D01*
X132065987Y-119164991D01*
X132072211Y-119161140D01*
X132079416Y-119153923D01*
X132081148Y-119152975D01*
X132083121Y-119151411D01*
X132083389Y-119151749D01*
X132141697Y-119119842D01*
X132212517Y-119124843D01*
X132257609Y-119153765D01*
X132265789Y-119161931D01*
X132272019Y-119165771D01*
X132272020Y-119165772D01*
X132402237Y-119246039D01*
X132409803Y-119250703D01*
X132570376Y-119303963D01*
X132577212Y-119304663D01*
X132577215Y-119304664D01*
X132627297Y-119309795D01*
X132670293Y-119314200D01*
X132941393Y-119314200D01*
X133216706Y-119314199D01*
X133219950Y-119313862D01*
X133219958Y-119313862D01*
X133264380Y-119309253D01*
X133317872Y-119303703D01*
X133478352Y-119250163D01*
X133622211Y-119161140D01*
X133646529Y-119136780D01*
X133730457Y-119052705D01*
X133741731Y-119041411D01*
X133743863Y-119037952D01*
X133800686Y-118997664D01*
X133871609Y-118994431D01*
X133930671Y-119027646D01*
X133940020Y-119036978D01*
X133974099Y-119099261D01*
X133969094Y-119170081D01*
X133940174Y-119215167D01*
X133914530Y-119240855D01*
X133914522Y-119240865D01*
X133909357Y-119246039D01*
X133905517Y-119252269D01*
X133905516Y-119252270D01*
X133892003Y-119274192D01*
X133821351Y-119388813D01*
X133819046Y-119395761D01*
X133819046Y-119395762D01*
X133794235Y-119470565D01*
X133768550Y-119548002D01*
X133767850Y-119554835D01*
X133767849Y-119554839D01*
X133762459Y-119607446D01*
X133758400Y-119647065D01*
X133758401Y-120180134D01*
X133768807Y-120280435D01*
X133770986Y-120286966D01*
X133770987Y-120286971D01*
X133816214Y-120422530D01*
X133821886Y-120439532D01*
X133910142Y-120582152D01*
X134011787Y-120683620D01*
X134016063Y-120687889D01*
X134050142Y-120750172D01*
X134045139Y-120820992D01*
X134016218Y-120866080D01*
X134002580Y-120879742D01*
X133960157Y-120922239D01*
X133872151Y-121065013D01*
X133819350Y-121224202D01*
X133818650Y-121231035D01*
X133818649Y-121231039D01*
X133813259Y-121283646D01*
X133809200Y-121323265D01*
X133809201Y-121856334D01*
X133819607Y-121956635D01*
X133821786Y-121963166D01*
X133821787Y-121963171D01*
X133861894Y-122083384D01*
X133872686Y-122115732D01*
X133960942Y-122258352D01*
X133966124Y-122263525D01*
X133990819Y-122288177D01*
X134024898Y-122350460D01*
X134019895Y-122421280D01*
X133990974Y-122466367D01*
X133965330Y-122492055D01*
X133965322Y-122492065D01*
X133960157Y-122497239D01*
X133872151Y-122640013D01*
X133819350Y-122799202D01*
X133818650Y-122806035D01*
X133818649Y-122806039D01*
X133813259Y-122858646D01*
X133809200Y-122898265D01*
X133809201Y-123431334D01*
X133819607Y-123531635D01*
X133821786Y-123538166D01*
X133821787Y-123538171D01*
X133861894Y-123658384D01*
X133872686Y-123690732D01*
X133960942Y-123833352D01*
X134079639Y-123951843D01*
X134085867Y-123955682D01*
X134085871Y-123955685D01*
X134099314Y-123963971D01*
X134146808Y-124016742D01*
X134159200Y-124071232D01*
X134159200Y-124166058D01*
X134139198Y-124234179D01*
X134099505Y-124273201D01*
X134087214Y-124280807D01*
X134087209Y-124280811D01*
X134080989Y-124284660D01*
X134075819Y-124289839D01*
X134045808Y-124319903D01*
X133961469Y-124404389D01*
X133957629Y-124410619D01*
X133957628Y-124410620D01*
X133911111Y-124486085D01*
X133872697Y-124548403D01*
X133819437Y-124708976D01*
X133818737Y-124715812D01*
X133818736Y-124715815D01*
X133816260Y-124739985D01*
X133809200Y-124808893D01*
X133809201Y-125355306D01*
X133809538Y-125358550D01*
X133809538Y-125358558D01*
X133812520Y-125387297D01*
X133819697Y-125456472D01*
X133873237Y-125616952D01*
X133962260Y-125760811D01*
X133967442Y-125765984D01*
X133971989Y-125771721D01*
X133969969Y-125773322D01*
X133998246Y-125824980D01*
X133993256Y-125895801D01*
X133964325Y-125940911D01*
X133960717Y-125944525D01*
X133951702Y-125955940D01*
X133869696Y-126088980D01*
X133863549Y-126102161D01*
X133814209Y-126250914D01*
X133811342Y-126264290D01*
X133802028Y-126355197D01*
X133801771Y-126360226D01*
X133806175Y-126375224D01*
X133807565Y-126376429D01*
X133815248Y-126378100D01*
X135749585Y-126378100D01*
X135764824Y-126373625D01*
X135766029Y-126372235D01*
X135767700Y-126364552D01*
X135767700Y-126361662D01*
X135767363Y-126355147D01*
X135757806Y-126263043D01*
X135754912Y-126249644D01*
X135705319Y-126100993D01*
X135699145Y-126087814D01*
X135616912Y-125954927D01*
X135607877Y-125943527D01*
X135605221Y-125940876D01*
X135603984Y-125938615D01*
X135603329Y-125937789D01*
X135603470Y-125937677D01*
X135571140Y-125878594D01*
X135576142Y-125807774D01*
X135599335Y-125771616D01*
X135598222Y-125770737D01*
X135602760Y-125764991D01*
X135607931Y-125759811D01*
X135634921Y-125716025D01*
X135692863Y-125622027D01*
X135692864Y-125622025D01*
X135696703Y-125615797D01*
X135749963Y-125455224D01*
X135760200Y-125355307D01*
X135760199Y-124808894D01*
X135749703Y-124707728D01*
X135696163Y-124547248D01*
X135607140Y-124403389D01*
X135487411Y-124283869D01*
X135481180Y-124280028D01*
X135470082Y-124273187D01*
X135422590Y-124220413D01*
X135410200Y-124165928D01*
X135410200Y-124071107D01*
X135430202Y-124002986D01*
X135469899Y-123963962D01*
X135475345Y-123960592D01*
X135490752Y-123951058D01*
X135563759Y-123877924D01*
X135604074Y-123837539D01*
X135609243Y-123832361D01*
X135697249Y-123689587D01*
X135722612Y-123613122D01*
X135747886Y-123536922D01*
X135750050Y-123530398D01*
X135752060Y-123510787D01*
X135758548Y-123447461D01*
X135760200Y-123431335D01*
X135760199Y-122898266D01*
X135749793Y-122797965D01*
X135747614Y-122791434D01*
X135747613Y-122791429D01*
X135699032Y-122645816D01*
X135696714Y-122638868D01*
X135608458Y-122496248D01*
X135578581Y-122466423D01*
X135544502Y-122404140D01*
X135549505Y-122333320D01*
X135578426Y-122288233D01*
X135604070Y-122262545D01*
X135604078Y-122262535D01*
X135609243Y-122257361D01*
X135697249Y-122114587D01*
X135722612Y-122038122D01*
X135747886Y-121961922D01*
X135750050Y-121955398D01*
X135752060Y-121935787D01*
X135758548Y-121872461D01*
X135760200Y-121856335D01*
X135760199Y-121323266D01*
X135749793Y-121222965D01*
X135747614Y-121216434D01*
X135747613Y-121216429D01*
X135699032Y-121070816D01*
X135696714Y-121063868D01*
X135608458Y-120921248D01*
X135502537Y-120815511D01*
X135468458Y-120753228D01*
X135473461Y-120682408D01*
X135502382Y-120637320D01*
X135553273Y-120586340D01*
X135558443Y-120581161D01*
X135574192Y-120555612D01*
X135608641Y-120499724D01*
X135646449Y-120438387D01*
X135699250Y-120279198D01*
X135703760Y-120235187D01*
X135707758Y-120196161D01*
X135709400Y-120180135D01*
X135709399Y-119647066D01*
X135698993Y-119546765D01*
X135696814Y-119540234D01*
X135696813Y-119540229D01*
X135660741Y-119432109D01*
X135658157Y-119361159D01*
X135694341Y-119300076D01*
X135757805Y-119268251D01*
X135828400Y-119275790D01*
X135846382Y-119284974D01*
X135908171Y-119323062D01*
X135908174Y-119323063D01*
X135914403Y-119326903D01*
X136074976Y-119380163D01*
X136081812Y-119380863D01*
X136081815Y-119380864D01*
X136131897Y-119385995D01*
X136174893Y-119390400D01*
X136445993Y-119390400D01*
X136721306Y-119390399D01*
X136724550Y-119390062D01*
X136724558Y-119390062D01*
X136768980Y-119385453D01*
X136822472Y-119379903D01*
X136982952Y-119326363D01*
X137078280Y-119267372D01*
X137120584Y-119241194D01*
X137120587Y-119241191D01*
X137126811Y-119237340D01*
X137134016Y-119230123D01*
X137135748Y-119229175D01*
X137137721Y-119227611D01*
X137137989Y-119227949D01*
X137196297Y-119196042D01*
X137267117Y-119201043D01*
X137312209Y-119229965D01*
X137320389Y-119238131D01*
X137326619Y-119241971D01*
X137326620Y-119241972D01*
X137458172Y-119323062D01*
X137464403Y-119326903D01*
X137624976Y-119380163D01*
X137631812Y-119380863D01*
X137631815Y-119380864D01*
X137681897Y-119385995D01*
X137724893Y-119390400D01*
X137995993Y-119390400D01*
X138271306Y-119390399D01*
X138274550Y-119390062D01*
X138274558Y-119390062D01*
X138318980Y-119385453D01*
X138372472Y-119379903D01*
X138532952Y-119326363D01*
X138588971Y-119291697D01*
X138657420Y-119272860D01*
X138725190Y-119294021D01*
X138770761Y-119348461D01*
X138779666Y-119418897D01*
X138773400Y-119439298D01*
X138774351Y-119439613D01*
X138721550Y-119598802D01*
X138711400Y-119697865D01*
X138711401Y-120230934D01*
X138721807Y-120331235D01*
X138723986Y-120337766D01*
X138723987Y-120337771D01*
X138769214Y-120473330D01*
X138774886Y-120490332D01*
X138863142Y-120632952D01*
X138930165Y-120699858D01*
X138930897Y-120700589D01*
X138964976Y-120762871D01*
X138959973Y-120833692D01*
X138931052Y-120878780D01*
X138843110Y-120966875D01*
X138836957Y-120973039D01*
X138748951Y-121115813D01*
X138746646Y-121122761D01*
X138746646Y-121122762D01*
X138721835Y-121197565D01*
X138696150Y-121275002D01*
X138695450Y-121281835D01*
X138695449Y-121281839D01*
X138692972Y-121306021D01*
X138686000Y-121374065D01*
X138686001Y-121907134D01*
X138696407Y-122007435D01*
X138698586Y-122013966D01*
X138698587Y-122013971D01*
X138744199Y-122150685D01*
X138749486Y-122166532D01*
X138837742Y-122309152D01*
X138867387Y-122338745D01*
X138867619Y-122338977D01*
X138901698Y-122401260D01*
X138896695Y-122472080D01*
X138867774Y-122517167D01*
X138842130Y-122542855D01*
X138842122Y-122542865D01*
X138836957Y-122548039D01*
X138748951Y-122690813D01*
X138746646Y-122697761D01*
X138746646Y-122697762D01*
X138721835Y-122772565D01*
X138696150Y-122850002D01*
X138695450Y-122856835D01*
X138695449Y-122856839D01*
X138692972Y-122881021D01*
X138686000Y-122949065D01*
X138686001Y-123482134D01*
X138696407Y-123582435D01*
X138698586Y-123588966D01*
X138698587Y-123588971D01*
X138744199Y-123725685D01*
X138749486Y-123741532D01*
X138837742Y-123884152D01*
X138956439Y-124002643D01*
X138962667Y-124006482D01*
X138962671Y-124006485D01*
X138976114Y-124014771D01*
X139023608Y-124067542D01*
X139036000Y-124122032D01*
X139036000Y-124166058D01*
X139015998Y-124234179D01*
X138976305Y-124273201D01*
X138964014Y-124280807D01*
X138964009Y-124280811D01*
X138957789Y-124284660D01*
X138952619Y-124289839D01*
X138922608Y-124319903D01*
X138838269Y-124404389D01*
X138834429Y-124410619D01*
X138834428Y-124410620D01*
X138787911Y-124486085D01*
X138749497Y-124548403D01*
X138696237Y-124708976D01*
X138695537Y-124715812D01*
X138695536Y-124715815D01*
X138693060Y-124739985D01*
X138686000Y-124808893D01*
X138686001Y-125355306D01*
X138686338Y-125358550D01*
X138686338Y-125358558D01*
X138689320Y-125387297D01*
X138696497Y-125456472D01*
X138750037Y-125616952D01*
X138839060Y-125760811D01*
X138844242Y-125765984D01*
X138848789Y-125771721D01*
X138846769Y-125773322D01*
X138875046Y-125824980D01*
X138870056Y-125895801D01*
X138841125Y-125940911D01*
X138837517Y-125944525D01*
X138828502Y-125955940D01*
X138746496Y-126088980D01*
X138740349Y-126102161D01*
X138691009Y-126250914D01*
X138688142Y-126264290D01*
X138678828Y-126355197D01*
X138678571Y-126360226D01*
X138682975Y-126375224D01*
X138684365Y-126376429D01*
X138692048Y-126378100D01*
X140626385Y-126378100D01*
X140641624Y-126373625D01*
X140642829Y-126372235D01*
X140644500Y-126364552D01*
X140644500Y-126361662D01*
X140644163Y-126355147D01*
X140634606Y-126263043D01*
X140631712Y-126249644D01*
X140582119Y-126100993D01*
X140575945Y-126087814D01*
X140493712Y-125954927D01*
X140484677Y-125943527D01*
X140482021Y-125940876D01*
X140480784Y-125938615D01*
X140480129Y-125937789D01*
X140480270Y-125937677D01*
X140447940Y-125878594D01*
X140452942Y-125807774D01*
X140476135Y-125771616D01*
X140475022Y-125770737D01*
X140479560Y-125764991D01*
X140484731Y-125759811D01*
X140511721Y-125716025D01*
X140569663Y-125622027D01*
X140569664Y-125622025D01*
X140573503Y-125615797D01*
X140626763Y-125455224D01*
X140637000Y-125355307D01*
X140636999Y-124808894D01*
X140626503Y-124707728D01*
X140572963Y-124547248D01*
X140483940Y-124403389D01*
X140364211Y-124283869D01*
X140357980Y-124280028D01*
X140346882Y-124273187D01*
X140299390Y-124220413D01*
X140287000Y-124165928D01*
X140287000Y-124121907D01*
X140307002Y-124053786D01*
X140346699Y-124014762D01*
X140348958Y-124013364D01*
X140367552Y-124001858D01*
X140486043Y-123883161D01*
X140490213Y-123876397D01*
X140536241Y-123801724D01*
X140574049Y-123740387D01*
X140626850Y-123581198D01*
X140632756Y-123523561D01*
X140634070Y-123510733D01*
X140637000Y-123482135D01*
X140636999Y-122949066D01*
X140626593Y-122848765D01*
X140624414Y-122842234D01*
X140624413Y-122842229D01*
X140575832Y-122696616D01*
X140573514Y-122689668D01*
X140485258Y-122547048D01*
X140455381Y-122517223D01*
X140421302Y-122454940D01*
X140426305Y-122384120D01*
X140455226Y-122339033D01*
X140480870Y-122313345D01*
X140480878Y-122313335D01*
X140486043Y-122308161D01*
X140490282Y-122301285D01*
X140536241Y-122226724D01*
X140574049Y-122165387D01*
X140626850Y-122006198D01*
X140632756Y-121948561D01*
X140634070Y-121935733D01*
X140637000Y-121907135D01*
X140636999Y-121374066D01*
X140626593Y-121273765D01*
X140624414Y-121267234D01*
X140624413Y-121267229D01*
X140575832Y-121121616D01*
X140573514Y-121114668D01*
X140485258Y-120972048D01*
X140417503Y-120904410D01*
X140383424Y-120842129D01*
X140388427Y-120771308D01*
X140417348Y-120726220D01*
X140506273Y-120637140D01*
X140511443Y-120631961D01*
X140522995Y-120613221D01*
X140554356Y-120562342D01*
X140599449Y-120489187D01*
X140652250Y-120329998D01*
X140656760Y-120285987D01*
X140658341Y-120270554D01*
X140662400Y-120230935D01*
X140662399Y-119697866D01*
X140651993Y-119597565D01*
X140649814Y-119591034D01*
X140649813Y-119591029D01*
X140609649Y-119470644D01*
X140607065Y-119399695D01*
X140643249Y-119338611D01*
X140706713Y-119306786D01*
X140777308Y-119314325D01*
X140795289Y-119323508D01*
X140830094Y-119344962D01*
X140842003Y-119352303D01*
X141002576Y-119405563D01*
X141009412Y-119406263D01*
X141009415Y-119406264D01*
X141059497Y-119411395D01*
X141102493Y-119415800D01*
X141373593Y-119415800D01*
X141648906Y-119415799D01*
X141652150Y-119415462D01*
X141652158Y-119415462D01*
X141696580Y-119410853D01*
X141750072Y-119405303D01*
X141910552Y-119351763D01*
X142012299Y-119288800D01*
X142048184Y-119266594D01*
X142048187Y-119266591D01*
X142054411Y-119262740D01*
X142061616Y-119255523D01*
X142063348Y-119254575D01*
X142065321Y-119253011D01*
X142065589Y-119253349D01*
X142123897Y-119221442D01*
X142194717Y-119226443D01*
X142239809Y-119255365D01*
X142247989Y-119263531D01*
X142254219Y-119267371D01*
X142254220Y-119267372D01*
X142380094Y-119344962D01*
X142392003Y-119352303D01*
X142552576Y-119405563D01*
X142559412Y-119406263D01*
X142559415Y-119406264D01*
X142609497Y-119411395D01*
X142652493Y-119415800D01*
X142923593Y-119415800D01*
X143198906Y-119415799D01*
X143202150Y-119415462D01*
X143202158Y-119415462D01*
X143246580Y-119410853D01*
X143300072Y-119405303D01*
X143460552Y-119351763D01*
X143604411Y-119262740D01*
X143723931Y-119143011D01*
X143732862Y-119128523D01*
X143808863Y-119005227D01*
X143808864Y-119005225D01*
X143812703Y-118998997D01*
X143865963Y-118838424D01*
X143869381Y-118805069D01*
X143875872Y-118741706D01*
X143876200Y-118738507D01*
X143876199Y-118142094D01*
X143865703Y-118040928D01*
X143812163Y-117880448D01*
X143723140Y-117736589D01*
X143707372Y-117720848D01*
X143608591Y-117622240D01*
X143603411Y-117617069D01*
X143520882Y-117566197D01*
X143473390Y-117513425D01*
X143461000Y-117458938D01*
X143461000Y-114272683D01*
X143481002Y-114204562D01*
X143493551Y-114188991D01*
X143496546Y-114186746D01*
X143501928Y-114179565D01*
X143577144Y-114079206D01*
X143577146Y-114079203D01*
X143582526Y-114072024D01*
X143632851Y-113937780D01*
X143635538Y-113913048D01*
X143638738Y-113883594D01*
X143665981Y-113818032D01*
X143724344Y-113777606D01*
X143795299Y-113775152D01*
X143856316Y-113811448D01*
X143888024Y-113874970D01*
X143889264Y-113883598D01*
X143893869Y-113925993D01*
X143895149Y-113937780D01*
X143945474Y-114072024D01*
X143950854Y-114079203D01*
X143950856Y-114079206D01*
X144026072Y-114179565D01*
X144031454Y-114186746D01*
X144038635Y-114192128D01*
X144138994Y-114267344D01*
X144138997Y-114267346D01*
X144146176Y-114272726D01*
X144154580Y-114275876D01*
X144154581Y-114275877D01*
X144212128Y-114297450D01*
X144268893Y-114340091D01*
X144293594Y-114406652D01*
X144293900Y-114415432D01*
X144293900Y-114518557D01*
X144273898Y-114586678D01*
X144246434Y-114617005D01*
X144240689Y-114620560D01*
X144121169Y-114740289D01*
X144117329Y-114746519D01*
X144117328Y-114746520D01*
X144083265Y-114801781D01*
X144032397Y-114884303D01*
X143979137Y-115044876D01*
X143968900Y-115144793D01*
X143968901Y-115741206D01*
X143969238Y-115744450D01*
X143969238Y-115744458D01*
X143972471Y-115775616D01*
X143979397Y-115842372D01*
X144032937Y-116002852D01*
X144121960Y-116146711D01*
X144127142Y-116151884D01*
X144158355Y-116183042D01*
X144241689Y-116266231D01*
X144247919Y-116270071D01*
X144247920Y-116270072D01*
X144267680Y-116282252D01*
X144385703Y-116355003D01*
X144546276Y-116408263D01*
X144553112Y-116408963D01*
X144553115Y-116408964D01*
X144594580Y-116413212D01*
X144646193Y-116418500D01*
X144917293Y-116418500D01*
X145192606Y-116418499D01*
X145195850Y-116418162D01*
X145195858Y-116418162D01*
X145243565Y-116413212D01*
X145293772Y-116408003D01*
X145454252Y-116354463D01*
X145598111Y-116265440D01*
X145603284Y-116260258D01*
X145609021Y-116255711D01*
X145610622Y-116257731D01*
X145662280Y-116229454D01*
X145733101Y-116234444D01*
X145778211Y-116263375D01*
X145781825Y-116266983D01*
X145793240Y-116275998D01*
X145926280Y-116358004D01*
X145939461Y-116364151D01*
X146088214Y-116413491D01*
X146101590Y-116416358D01*
X146192497Y-116425672D01*
X146197526Y-116425929D01*
X146212524Y-116421525D01*
X146213729Y-116420135D01*
X146215400Y-116412452D01*
X146215400Y-116407885D01*
X146723400Y-116407885D01*
X146727875Y-116423124D01*
X146729265Y-116424329D01*
X146736948Y-116426000D01*
X146739838Y-116426000D01*
X146746353Y-116425663D01*
X146838457Y-116416106D01*
X146851856Y-116413212D01*
X147000507Y-116363619D01*
X147013686Y-116357445D01*
X147146573Y-116275212D01*
X147157974Y-116266176D01*
X147268386Y-116155571D01*
X147277398Y-116144160D01*
X147359404Y-116011120D01*
X147365551Y-115997939D01*
X147414891Y-115849186D01*
X147417758Y-115835810D01*
X147427072Y-115744903D01*
X147427400Y-115738487D01*
X147427400Y-115715115D01*
X147422925Y-115699876D01*
X147421535Y-115698671D01*
X147413852Y-115697000D01*
X146741515Y-115697000D01*
X146726276Y-115701475D01*
X146725071Y-115702865D01*
X146723400Y-115710548D01*
X146723400Y-116407885D01*
X146215400Y-116407885D01*
X146215400Y-115315000D01*
X146235402Y-115246879D01*
X146289058Y-115200386D01*
X146341400Y-115189000D01*
X147409285Y-115189000D01*
X147424524Y-115184525D01*
X147425729Y-115183135D01*
X147427400Y-115175452D01*
X147427400Y-115147562D01*
X147427063Y-115141047D01*
X147417506Y-115048943D01*
X147414612Y-115035544D01*
X147365019Y-114886893D01*
X147358845Y-114873714D01*
X147276612Y-114740827D01*
X147267576Y-114729426D01*
X147156971Y-114619014D01*
X147145560Y-114610002D01*
X147012520Y-114527996D01*
X146999339Y-114521849D01*
X146850586Y-114472509D01*
X146837210Y-114469642D01*
X146746303Y-114460328D01*
X146739886Y-114460000D01*
X146722981Y-114460000D01*
X146654860Y-114439998D01*
X146608367Y-114386342D01*
X146597671Y-114320831D01*
X146599170Y-114306567D01*
X146599170Y-114306565D01*
X146599860Y-114300000D01*
X146589829Y-114204562D01*
X146580764Y-114118307D01*
X146580764Y-114118305D01*
X146580074Y-114111744D01*
X146521579Y-113931716D01*
X146491263Y-113879206D01*
X146430236Y-113773505D01*
X146426933Y-113767784D01*
X146422514Y-113762876D01*
X146304686Y-113632015D01*
X146304684Y-113632014D01*
X146300271Y-113627112D01*
X146217644Y-113567080D01*
X146152472Y-113519730D01*
X146152471Y-113519729D01*
X146147130Y-113515849D01*
X145982629Y-113442607D01*
X145928537Y-113396631D01*
X145907888Y-113328703D01*
X145927240Y-113260395D01*
X145944787Y-113238409D01*
X146797251Y-112385945D01*
X146810693Y-112374280D01*
X146826416Y-112362475D01*
X146826419Y-112362473D01*
X146829720Y-112359994D01*
X146839472Y-112350444D01*
X146842537Y-112346534D01*
X146847740Y-112340321D01*
X146990302Y-112180794D01*
X147037169Y-112128350D01*
X147209210Y-111885880D01*
X147353022Y-111625672D01*
X147358173Y-111613238D01*
X147465441Y-111354268D01*
X147465441Y-111354267D01*
X147466795Y-111350999D01*
X147549100Y-111065314D01*
X147598900Y-110772210D01*
X147610862Y-110559201D01*
X147612331Y-110559284D01*
X147612063Y-110557108D01*
X147611400Y-110557108D01*
X147611400Y-110553169D01*
X147611433Y-110551998D01*
X147611400Y-110551731D01*
X147611400Y-110549630D01*
X147611446Y-110548802D01*
X147611544Y-110548031D01*
X147611598Y-110546104D01*
X147613717Y-110508374D01*
X147614776Y-110497688D01*
X147615427Y-110493110D01*
X147616009Y-110489022D01*
X147616152Y-110475373D01*
X147612313Y-110443648D01*
X147611400Y-110428512D01*
X147611400Y-109576417D01*
X147631402Y-109508296D01*
X147659138Y-109477670D01*
X147661886Y-109475492D01*
X147668111Y-109471640D01*
X147688416Y-109451300D01*
X147782460Y-109357091D01*
X147787631Y-109351911D01*
X147801983Y-109328628D01*
X147872563Y-109214127D01*
X147872564Y-109214125D01*
X147876403Y-109207897D01*
X147929663Y-109047324D01*
X147939900Y-108947407D01*
X147939899Y-108400994D01*
X147937366Y-108376574D01*
X147931616Y-108321162D01*
X147929403Y-108299828D01*
X147875863Y-108139348D01*
X147817642Y-108045264D01*
X147790694Y-108001716D01*
X147790691Y-108001713D01*
X147786840Y-107995489D01*
X147779623Y-107988284D01*
X147778675Y-107986552D01*
X147777111Y-107984579D01*
X147777449Y-107984311D01*
X147745542Y-107926003D01*
X147750543Y-107855183D01*
X147779466Y-107810090D01*
X147782460Y-107807091D01*
X147787631Y-107801911D01*
X147828457Y-107735680D01*
X147872563Y-107664127D01*
X147872564Y-107664125D01*
X147876403Y-107657897D01*
X147929663Y-107497324D01*
X147939900Y-107397407D01*
X147939899Y-106850994D01*
X147938845Y-106840827D01*
X147934953Y-106803320D01*
X147929403Y-106749828D01*
X147875863Y-106589348D01*
X147786840Y-106445489D01*
X147667111Y-106325969D01*
X147640629Y-106309645D01*
X147529327Y-106241037D01*
X147529325Y-106241036D01*
X147523097Y-106237197D01*
X147362524Y-106183937D01*
X147355688Y-106183237D01*
X147355685Y-106183236D01*
X147305603Y-106178105D01*
X147262607Y-106173700D01*
X147243231Y-106173700D01*
X146981086Y-106173701D01*
X146912967Y-106153699D01*
X146891992Y-106136796D01*
X145808483Y-105053287D01*
X145797616Y-105040896D01*
X145785270Y-105024806D01*
X145785269Y-105024805D01*
X145780645Y-105018779D01*
X145766256Y-105007251D01*
X145750303Y-104991993D01*
X145661236Y-104890431D01*
X145651203Y-104877356D01*
X145562056Y-104743939D01*
X145553815Y-104729665D01*
X145547494Y-104716846D01*
X145490119Y-104600500D01*
X145482845Y-104585750D01*
X145476538Y-104570524D01*
X145424958Y-104418575D01*
X145420692Y-104402654D01*
X145409158Y-104344669D01*
X146142001Y-104344669D01*
X146142371Y-104351490D01*
X146147895Y-104402352D01*
X146151521Y-104417604D01*
X146196676Y-104538054D01*
X146205214Y-104553649D01*
X146281715Y-104655724D01*
X146294276Y-104668285D01*
X146396351Y-104744786D01*
X146411946Y-104753324D01*
X146532394Y-104798478D01*
X146547649Y-104802105D01*
X146598514Y-104807631D01*
X146605328Y-104808000D01*
X147052885Y-104808000D01*
X147068124Y-104803525D01*
X147069329Y-104802135D01*
X147071000Y-104794452D01*
X147071000Y-104789884D01*
X147579000Y-104789884D01*
X147583475Y-104805123D01*
X147584865Y-104806328D01*
X147592548Y-104807999D01*
X148044669Y-104807999D01*
X148051490Y-104807629D01*
X148102352Y-104802105D01*
X148117604Y-104798479D01*
X148238054Y-104753324D01*
X148253649Y-104744786D01*
X148355724Y-104668285D01*
X148368285Y-104655724D01*
X148444786Y-104553649D01*
X148453324Y-104538054D01*
X148498478Y-104417606D01*
X148502105Y-104402351D01*
X148507631Y-104351486D01*
X148508000Y-104344672D01*
X148508000Y-102472115D01*
X148503525Y-102456876D01*
X148502135Y-102455671D01*
X148494452Y-102454000D01*
X147597115Y-102454000D01*
X147581876Y-102458475D01*
X147580671Y-102459865D01*
X147579000Y-102467548D01*
X147579000Y-104789884D01*
X147071000Y-104789884D01*
X147071000Y-102472115D01*
X147066525Y-102456876D01*
X147065135Y-102455671D01*
X147057452Y-102454000D01*
X146160116Y-102454000D01*
X146144877Y-102458475D01*
X146143672Y-102459865D01*
X146142001Y-102467548D01*
X146142001Y-104344669D01*
X145409158Y-104344669D01*
X145403064Y-104314032D01*
X145409392Y-104243318D01*
X145451076Y-104188626D01*
X145492546Y-104157546D01*
X145512095Y-104131462D01*
X145573144Y-104050006D01*
X145573146Y-104050003D01*
X145578526Y-104042824D01*
X145628851Y-103908580D01*
X145635500Y-103847377D01*
X145635499Y-100626000D01*
X145655501Y-100557879D01*
X145709157Y-100511386D01*
X145761499Y-100500000D01*
X146016000Y-100500000D01*
X146084121Y-100520002D01*
X146130614Y-100573658D01*
X146142000Y-100626000D01*
X146142000Y-101927885D01*
X146146475Y-101943124D01*
X146147865Y-101944329D01*
X146155548Y-101946000D01*
X148489884Y-101946000D01*
X148505123Y-101941525D01*
X148506328Y-101940135D01*
X148507999Y-101932452D01*
X148507999Y-100626000D01*
X148528001Y-100557879D01*
X148581657Y-100511386D01*
X148633999Y-100500000D01*
X149374000Y-100500000D01*
X149442121Y-100520002D01*
X149488614Y-100573658D01*
X149500000Y-100626000D01*
X149500000Y-129374000D01*
X149479998Y-129442121D01*
X149426342Y-129488614D01*
X149374000Y-129500000D01*
X100626000Y-129500000D01*
X100557879Y-129479998D01*
X100511386Y-129426342D01*
X100500000Y-129374000D01*
X100500000Y-127000000D01*
X101394551Y-127000000D01*
X101414317Y-127251148D01*
X101415471Y-127255955D01*
X101415472Y-127255961D01*
X101444255Y-127375851D01*
X101473127Y-127496111D01*
X101475020Y-127500682D01*
X101475021Y-127500684D01*
X101522440Y-127615163D01*
X101569534Y-127728859D01*
X101701164Y-127943659D01*
X101704376Y-127947419D01*
X101704379Y-127947424D01*
X101849256Y-128117052D01*
X101864776Y-128135224D01*
X101868538Y-128138437D01*
X102052576Y-128295621D01*
X102052581Y-128295624D01*
X102056341Y-128298836D01*
X102271141Y-128430466D01*
X102275711Y-128432359D01*
X102275715Y-128432361D01*
X102499316Y-128524979D01*
X102503889Y-128526873D01*
X102588289Y-128547135D01*
X102744039Y-128584528D01*
X102744045Y-128584529D01*
X102748852Y-128585683D01*
X102837149Y-128592632D01*
X102934661Y-128600307D01*
X102934670Y-128600307D01*
X102937118Y-128600500D01*
X103062882Y-128600500D01*
X103065330Y-128600307D01*
X103065339Y-128600307D01*
X103162851Y-128592632D01*
X103251148Y-128585683D01*
X103255955Y-128584529D01*
X103255961Y-128584528D01*
X103411711Y-128547135D01*
X103496111Y-128526873D01*
X103500684Y-128524979D01*
X103724285Y-128432361D01*
X103724289Y-128432359D01*
X103728859Y-128430466D01*
X103943659Y-128298836D01*
X103947419Y-128295624D01*
X103947424Y-128295621D01*
X104131462Y-128138437D01*
X104135224Y-128135224D01*
X104150744Y-128117052D01*
X104295621Y-127947424D01*
X104295624Y-127947419D01*
X104298836Y-127943659D01*
X104430466Y-127728859D01*
X104477561Y-127615163D01*
X104524979Y-127500684D01*
X104524980Y-127500682D01*
X104526873Y-127496111D01*
X104555745Y-127375851D01*
X104584528Y-127255961D01*
X104584529Y-127255955D01*
X104585683Y-127251148D01*
X104605449Y-127000000D01*
X104585683Y-126748852D01*
X104583454Y-126739565D01*
X104567722Y-126674038D01*
X108528700Y-126674038D01*
X108529037Y-126680553D01*
X108538594Y-126772657D01*
X108541488Y-126786056D01*
X108591081Y-126934707D01*
X108597255Y-126947886D01*
X108679488Y-127080773D01*
X108688524Y-127092174D01*
X108799129Y-127202586D01*
X108810540Y-127211598D01*
X108943580Y-127293604D01*
X108956761Y-127299751D01*
X109105514Y-127349091D01*
X109118890Y-127351958D01*
X109209797Y-127361272D01*
X109216213Y-127361600D01*
X109239585Y-127361600D01*
X109254824Y-127357125D01*
X109256029Y-127355735D01*
X109257700Y-127348052D01*
X109257700Y-127343485D01*
X109765700Y-127343485D01*
X109770175Y-127358724D01*
X109771565Y-127359929D01*
X109779248Y-127361600D01*
X109807138Y-127361600D01*
X109813653Y-127361263D01*
X109905757Y-127351706D01*
X109919156Y-127348812D01*
X110067807Y-127299219D01*
X110080986Y-127293045D01*
X110213873Y-127210812D01*
X110225274Y-127201776D01*
X110335686Y-127091171D01*
X110344698Y-127079760D01*
X110426704Y-126946720D01*
X110432851Y-126933539D01*
X110482191Y-126784786D01*
X110485058Y-126771410D01*
X110487237Y-126750138D01*
X113532500Y-126750138D01*
X113532837Y-126756653D01*
X113542394Y-126848757D01*
X113545288Y-126862156D01*
X113594881Y-127010807D01*
X113601055Y-127023986D01*
X113683288Y-127156873D01*
X113692324Y-127168274D01*
X113802929Y-127278686D01*
X113814340Y-127287698D01*
X113947380Y-127369704D01*
X113960561Y-127375851D01*
X114109314Y-127425191D01*
X114122690Y-127428058D01*
X114213597Y-127437372D01*
X114220013Y-127437700D01*
X114243385Y-127437700D01*
X114258624Y-127433225D01*
X114259829Y-127431835D01*
X114261500Y-127424152D01*
X114261500Y-127419585D01*
X114769500Y-127419585D01*
X114773975Y-127434824D01*
X114775365Y-127436029D01*
X114783048Y-127437700D01*
X114810938Y-127437700D01*
X114817453Y-127437363D01*
X114909557Y-127427806D01*
X114922956Y-127424912D01*
X115071607Y-127375319D01*
X115084786Y-127369145D01*
X115217673Y-127286912D01*
X115229074Y-127277876D01*
X115339486Y-127167271D01*
X115348498Y-127155860D01*
X115430504Y-127022820D01*
X115436651Y-127009639D01*
X115485991Y-126860886D01*
X115488858Y-126847510D01*
X115493630Y-126800938D01*
X118510900Y-126800938D01*
X118511237Y-126807453D01*
X118520794Y-126899557D01*
X118523688Y-126912956D01*
X118573281Y-127061607D01*
X118579455Y-127074786D01*
X118661688Y-127207673D01*
X118670724Y-127219074D01*
X118781329Y-127329486D01*
X118792740Y-127338498D01*
X118925780Y-127420504D01*
X118938961Y-127426651D01*
X119087714Y-127475991D01*
X119101090Y-127478858D01*
X119191997Y-127488172D01*
X119198413Y-127488500D01*
X119221785Y-127488500D01*
X119237024Y-127484025D01*
X119238229Y-127482635D01*
X119239900Y-127474952D01*
X119239900Y-127470385D01*
X119747900Y-127470385D01*
X119752375Y-127485624D01*
X119753765Y-127486829D01*
X119761448Y-127488500D01*
X119789338Y-127488500D01*
X119795853Y-127488163D01*
X119887957Y-127478606D01*
X119901356Y-127475712D01*
X120050007Y-127426119D01*
X120063186Y-127419945D01*
X120196073Y-127337712D01*
X120207474Y-127328676D01*
X120317886Y-127218071D01*
X120326898Y-127206660D01*
X120408904Y-127073620D01*
X120415051Y-127060439D01*
X120464391Y-126911686D01*
X120467258Y-126898310D01*
X120476572Y-126807403D01*
X120476829Y-126802374D01*
X120476407Y-126800938D01*
X123590900Y-126800938D01*
X123591237Y-126807453D01*
X123600794Y-126899557D01*
X123603688Y-126912956D01*
X123653281Y-127061607D01*
X123659455Y-127074786D01*
X123741688Y-127207673D01*
X123750724Y-127219074D01*
X123861329Y-127329486D01*
X123872740Y-127338498D01*
X124005780Y-127420504D01*
X124018961Y-127426651D01*
X124167714Y-127475991D01*
X124181090Y-127478858D01*
X124271997Y-127488172D01*
X124278413Y-127488500D01*
X124301785Y-127488500D01*
X124317024Y-127484025D01*
X124318229Y-127482635D01*
X124319900Y-127474952D01*
X124319900Y-127470385D01*
X124827900Y-127470385D01*
X124832375Y-127485624D01*
X124833765Y-127486829D01*
X124841448Y-127488500D01*
X124869338Y-127488500D01*
X124875853Y-127488163D01*
X124967957Y-127478606D01*
X124981356Y-127475712D01*
X125130007Y-127426119D01*
X125143186Y-127419945D01*
X125276073Y-127337712D01*
X125287474Y-127328676D01*
X125397886Y-127218071D01*
X125406898Y-127206660D01*
X125488904Y-127073620D01*
X125495051Y-127060439D01*
X125539000Y-126927938D01*
X128696300Y-126927938D01*
X128696637Y-126934453D01*
X128706194Y-127026557D01*
X128709088Y-127039956D01*
X128758681Y-127188607D01*
X128764855Y-127201786D01*
X128847088Y-127334673D01*
X128856124Y-127346074D01*
X128966729Y-127456486D01*
X128978140Y-127465498D01*
X129111180Y-127547504D01*
X129124361Y-127553651D01*
X129273114Y-127602991D01*
X129286490Y-127605858D01*
X129377397Y-127615172D01*
X129383813Y-127615500D01*
X129407185Y-127615500D01*
X129422424Y-127611025D01*
X129423629Y-127609635D01*
X129425300Y-127601952D01*
X129425300Y-127597385D01*
X129933300Y-127597385D01*
X129937775Y-127612624D01*
X129939165Y-127613829D01*
X129946848Y-127615500D01*
X129974738Y-127615500D01*
X129981253Y-127615163D01*
X130073357Y-127605606D01*
X130086756Y-127602712D01*
X130235407Y-127553119D01*
X130248586Y-127546945D01*
X130381473Y-127464712D01*
X130392874Y-127455676D01*
X130503286Y-127345071D01*
X130512298Y-127333660D01*
X130594304Y-127200620D01*
X130600451Y-127187439D01*
X130649791Y-127038686D01*
X130652658Y-127025310D01*
X130661972Y-126934403D01*
X130662229Y-126929374D01*
X130657825Y-126914376D01*
X130656435Y-126913171D01*
X130648752Y-126911500D01*
X129951415Y-126911500D01*
X129936176Y-126915975D01*
X129934971Y-126917365D01*
X129933300Y-126925048D01*
X129933300Y-127597385D01*
X129425300Y-127597385D01*
X129425300Y-126929615D01*
X129420825Y-126914376D01*
X129419435Y-126913171D01*
X129411752Y-126911500D01*
X128714415Y-126911500D01*
X128699176Y-126915975D01*
X128697971Y-126917365D01*
X128696300Y-126925048D01*
X128696300Y-126927938D01*
X125539000Y-126927938D01*
X125544391Y-126911686D01*
X125546352Y-126902538D01*
X133801700Y-126902538D01*
X133802037Y-126909053D01*
X133811594Y-127001157D01*
X133814488Y-127014556D01*
X133864081Y-127163207D01*
X133870255Y-127176386D01*
X133952488Y-127309273D01*
X133961524Y-127320674D01*
X134072129Y-127431086D01*
X134083540Y-127440098D01*
X134216580Y-127522104D01*
X134229761Y-127528251D01*
X134378514Y-127577591D01*
X134391890Y-127580458D01*
X134482797Y-127589772D01*
X134489213Y-127590100D01*
X134512585Y-127590100D01*
X134527824Y-127585625D01*
X134529029Y-127584235D01*
X134530700Y-127576552D01*
X134530700Y-127571985D01*
X135038700Y-127571985D01*
X135043175Y-127587224D01*
X135044565Y-127588429D01*
X135052248Y-127590100D01*
X135080138Y-127590100D01*
X135086653Y-127589763D01*
X135178757Y-127580206D01*
X135192156Y-127577312D01*
X135340807Y-127527719D01*
X135353986Y-127521545D01*
X135486873Y-127439312D01*
X135498274Y-127430276D01*
X135608686Y-127319671D01*
X135617698Y-127308260D01*
X135699704Y-127175220D01*
X135705851Y-127162039D01*
X135755191Y-127013286D01*
X135758058Y-126999910D01*
X135767372Y-126909003D01*
X135767629Y-126903974D01*
X135767207Y-126902538D01*
X138678500Y-126902538D01*
X138678837Y-126909053D01*
X138688394Y-127001157D01*
X138691288Y-127014556D01*
X138740881Y-127163207D01*
X138747055Y-127176386D01*
X138829288Y-127309273D01*
X138838324Y-127320674D01*
X138948929Y-127431086D01*
X138960340Y-127440098D01*
X139093380Y-127522104D01*
X139106561Y-127528251D01*
X139255314Y-127577591D01*
X139268690Y-127580458D01*
X139359597Y-127589772D01*
X139366013Y-127590100D01*
X139389385Y-127590100D01*
X139404624Y-127585625D01*
X139405829Y-127584235D01*
X139407500Y-127576552D01*
X139407500Y-127571985D01*
X139915500Y-127571985D01*
X139919975Y-127587224D01*
X139921365Y-127588429D01*
X139929048Y-127590100D01*
X139956938Y-127590100D01*
X139963453Y-127589763D01*
X140055557Y-127580206D01*
X140068956Y-127577312D01*
X140217607Y-127527719D01*
X140230786Y-127521545D01*
X140363673Y-127439312D01*
X140375074Y-127430276D01*
X140485486Y-127319671D01*
X140494498Y-127308260D01*
X140576504Y-127175220D01*
X140582651Y-127162039D01*
X140631991Y-127013286D01*
X140634839Y-127000000D01*
X145394551Y-127000000D01*
X145414317Y-127251148D01*
X145415471Y-127255955D01*
X145415472Y-127255961D01*
X145444255Y-127375851D01*
X145473127Y-127496111D01*
X145475020Y-127500682D01*
X145475021Y-127500684D01*
X145522440Y-127615163D01*
X145569534Y-127728859D01*
X145701164Y-127943659D01*
X145704376Y-127947419D01*
X145704379Y-127947424D01*
X145849256Y-128117052D01*
X145864776Y-128135224D01*
X145868538Y-128138437D01*
X146052576Y-128295621D01*
X146052581Y-128295624D01*
X146056341Y-128298836D01*
X146271141Y-128430466D01*
X146275711Y-128432359D01*
X146275715Y-128432361D01*
X146499316Y-128524979D01*
X146503889Y-128526873D01*
X146588289Y-128547135D01*
X146744039Y-128584528D01*
X146744045Y-128584529D01*
X146748852Y-128585683D01*
X146837149Y-128592632D01*
X146934661Y-128600307D01*
X146934670Y-128600307D01*
X146937118Y-128600500D01*
X147062882Y-128600500D01*
X147065330Y-128600307D01*
X147065339Y-128600307D01*
X147162851Y-128592632D01*
X147251148Y-128585683D01*
X147255955Y-128584529D01*
X147255961Y-128584528D01*
X147411711Y-128547135D01*
X147496111Y-128526873D01*
X147500684Y-128524979D01*
X147724285Y-128432361D01*
X147724289Y-128432359D01*
X147728859Y-128430466D01*
X147943659Y-128298836D01*
X147947419Y-128295624D01*
X147947424Y-128295621D01*
X148131462Y-128138437D01*
X148135224Y-128135224D01*
X148150744Y-128117052D01*
X148295621Y-127947424D01*
X148295624Y-127947419D01*
X148298836Y-127943659D01*
X148430466Y-127728859D01*
X148477561Y-127615163D01*
X148524979Y-127500684D01*
X148524980Y-127500682D01*
X148526873Y-127496111D01*
X148555745Y-127375851D01*
X148584528Y-127255961D01*
X148584529Y-127255955D01*
X148585683Y-127251148D01*
X148605449Y-127000000D01*
X148585683Y-126748852D01*
X148583454Y-126739565D01*
X148528028Y-126508701D01*
X148526873Y-126503889D01*
X148484599Y-126401829D01*
X148432361Y-126275715D01*
X148432359Y-126275711D01*
X148430466Y-126271141D01*
X148298836Y-126056341D01*
X148295624Y-126052581D01*
X148295621Y-126052576D01*
X148147026Y-125878594D01*
X148135224Y-125864776D01*
X148064182Y-125804100D01*
X147947424Y-125704379D01*
X147947419Y-125704376D01*
X147943659Y-125701164D01*
X147728859Y-125569534D01*
X147724289Y-125567641D01*
X147724285Y-125567639D01*
X147500684Y-125475021D01*
X147500682Y-125475020D01*
X147496111Y-125473127D01*
X147398176Y-125449615D01*
X147255961Y-125415472D01*
X147255955Y-125415471D01*
X147251148Y-125414317D01*
X147162851Y-125407368D01*
X147065339Y-125399693D01*
X147065330Y-125399693D01*
X147062882Y-125399500D01*
X146937118Y-125399500D01*
X146934670Y-125399693D01*
X146934661Y-125399693D01*
X146837149Y-125407368D01*
X146748852Y-125414317D01*
X146744045Y-125415471D01*
X146744039Y-125415472D01*
X146601824Y-125449615D01*
X146503889Y-125473127D01*
X146499318Y-125475020D01*
X146499316Y-125475021D01*
X146275715Y-125567639D01*
X146275711Y-125567641D01*
X146271141Y-125569534D01*
X146056341Y-125701164D01*
X146052581Y-125704376D01*
X146052576Y-125704379D01*
X145935818Y-125804100D01*
X145864776Y-125864776D01*
X145852974Y-125878594D01*
X145704379Y-126052576D01*
X145704376Y-126052581D01*
X145701164Y-126056341D01*
X145569534Y-126271141D01*
X145567641Y-126275711D01*
X145567639Y-126275715D01*
X145515401Y-126401829D01*
X145473127Y-126503889D01*
X145471972Y-126508701D01*
X145416547Y-126739565D01*
X145414317Y-126748852D01*
X145394551Y-127000000D01*
X140634839Y-127000000D01*
X140634858Y-126999910D01*
X140644172Y-126909003D01*
X140644429Y-126903974D01*
X140640025Y-126888976D01*
X140638635Y-126887771D01*
X140630952Y-126886100D01*
X139933615Y-126886100D01*
X139918376Y-126890575D01*
X139917171Y-126891965D01*
X139915500Y-126899648D01*
X139915500Y-127571985D01*
X139407500Y-127571985D01*
X139407500Y-126904215D01*
X139403025Y-126888976D01*
X139401635Y-126887771D01*
X139393952Y-126886100D01*
X138696615Y-126886100D01*
X138681376Y-126890575D01*
X138680171Y-126891965D01*
X138678500Y-126899648D01*
X138678500Y-126902538D01*
X135767207Y-126902538D01*
X135763225Y-126888976D01*
X135761835Y-126887771D01*
X135754152Y-126886100D01*
X135056815Y-126886100D01*
X135041576Y-126890575D01*
X135040371Y-126891965D01*
X135038700Y-126899648D01*
X135038700Y-127571985D01*
X134530700Y-127571985D01*
X134530700Y-126904215D01*
X134526225Y-126888976D01*
X134524835Y-126887771D01*
X134517152Y-126886100D01*
X133819815Y-126886100D01*
X133804576Y-126890575D01*
X133803371Y-126891965D01*
X133801700Y-126899648D01*
X133801700Y-126902538D01*
X125546352Y-126902538D01*
X125547258Y-126898310D01*
X125556572Y-126807403D01*
X125556829Y-126802374D01*
X125552425Y-126787376D01*
X125551035Y-126786171D01*
X125543352Y-126784500D01*
X124846015Y-126784500D01*
X124830776Y-126788975D01*
X124829571Y-126790365D01*
X124827900Y-126798048D01*
X124827900Y-127470385D01*
X124319900Y-127470385D01*
X124319900Y-126802615D01*
X124315425Y-126787376D01*
X124314035Y-126786171D01*
X124306352Y-126784500D01*
X123609015Y-126784500D01*
X123593776Y-126788975D01*
X123592571Y-126790365D01*
X123590900Y-126798048D01*
X123590900Y-126800938D01*
X120476407Y-126800938D01*
X120472425Y-126787376D01*
X120471035Y-126786171D01*
X120463352Y-126784500D01*
X119766015Y-126784500D01*
X119750776Y-126788975D01*
X119749571Y-126790365D01*
X119747900Y-126798048D01*
X119747900Y-127470385D01*
X119239900Y-127470385D01*
X119239900Y-126802615D01*
X119235425Y-126787376D01*
X119234035Y-126786171D01*
X119226352Y-126784500D01*
X118529015Y-126784500D01*
X118513776Y-126788975D01*
X118512571Y-126790365D01*
X118510900Y-126798048D01*
X118510900Y-126800938D01*
X115493630Y-126800938D01*
X115498172Y-126756603D01*
X115498429Y-126751574D01*
X115494025Y-126736576D01*
X115492635Y-126735371D01*
X115484952Y-126733700D01*
X114787615Y-126733700D01*
X114772376Y-126738175D01*
X114771171Y-126739565D01*
X114769500Y-126747248D01*
X114769500Y-127419585D01*
X114261500Y-127419585D01*
X114261500Y-126751815D01*
X114257025Y-126736576D01*
X114255635Y-126735371D01*
X114247952Y-126733700D01*
X113550615Y-126733700D01*
X113535376Y-126738175D01*
X113534171Y-126739565D01*
X113532500Y-126747248D01*
X113532500Y-126750138D01*
X110487237Y-126750138D01*
X110494372Y-126680503D01*
X110494629Y-126675474D01*
X110490225Y-126660476D01*
X110488835Y-126659271D01*
X110481152Y-126657600D01*
X109783815Y-126657600D01*
X109768576Y-126662075D01*
X109767371Y-126663465D01*
X109765700Y-126671148D01*
X109765700Y-127343485D01*
X109257700Y-127343485D01*
X109257700Y-126675715D01*
X109253225Y-126660476D01*
X109251835Y-126659271D01*
X109244152Y-126657600D01*
X108546815Y-126657600D01*
X108531576Y-126662075D01*
X108530371Y-126663465D01*
X108528700Y-126671148D01*
X108528700Y-126674038D01*
X104567722Y-126674038D01*
X104528028Y-126508701D01*
X104526873Y-126503889D01*
X104484599Y-126401829D01*
X104432361Y-126275715D01*
X104432359Y-126275711D01*
X104430466Y-126271141D01*
X104298836Y-126056341D01*
X104295624Y-126052581D01*
X104295621Y-126052576D01*
X104147026Y-125878594D01*
X104135224Y-125864776D01*
X104064182Y-125804100D01*
X103947424Y-125704379D01*
X103947419Y-125704376D01*
X103943659Y-125701164D01*
X103728859Y-125569534D01*
X103724289Y-125567641D01*
X103724285Y-125567639D01*
X103500684Y-125475021D01*
X103500682Y-125475020D01*
X103496111Y-125473127D01*
X103398176Y-125449615D01*
X103255961Y-125415472D01*
X103255955Y-125415471D01*
X103251148Y-125414317D01*
X103162851Y-125407368D01*
X103065339Y-125399693D01*
X103065330Y-125399693D01*
X103062882Y-125399500D01*
X102937118Y-125399500D01*
X102934670Y-125399693D01*
X102934661Y-125399693D01*
X102837149Y-125407368D01*
X102748852Y-125414317D01*
X102744045Y-125415471D01*
X102744039Y-125415472D01*
X102601824Y-125449615D01*
X102503889Y-125473127D01*
X102499318Y-125475020D01*
X102499316Y-125475021D01*
X102275715Y-125567639D01*
X102275711Y-125567641D01*
X102271141Y-125569534D01*
X102056341Y-125701164D01*
X102052581Y-125704376D01*
X102052576Y-125704379D01*
X101935818Y-125804100D01*
X101864776Y-125864776D01*
X101852974Y-125878594D01*
X101704379Y-126052576D01*
X101704376Y-126052581D01*
X101701164Y-126056341D01*
X101569534Y-126271141D01*
X101567641Y-126275711D01*
X101567639Y-126275715D01*
X101515401Y-126401829D01*
X101473127Y-126503889D01*
X101471972Y-126508701D01*
X101416547Y-126739565D01*
X101414317Y-126748852D01*
X101394551Y-127000000D01*
X100500000Y-127000000D01*
X100500000Y-116017838D01*
X101289400Y-116017838D01*
X101289737Y-116024353D01*
X101299294Y-116116457D01*
X101302188Y-116129856D01*
X101351781Y-116278507D01*
X101357955Y-116291686D01*
X101440188Y-116424573D01*
X101449224Y-116435974D01*
X101559829Y-116546386D01*
X101571240Y-116555398D01*
X101704280Y-116637404D01*
X101717461Y-116643551D01*
X101866214Y-116692891D01*
X101879590Y-116695758D01*
X101970497Y-116705072D01*
X101975526Y-116705329D01*
X101990524Y-116700925D01*
X101991729Y-116699535D01*
X101993400Y-116691852D01*
X101993400Y-115994515D01*
X101988925Y-115979276D01*
X101987535Y-115978071D01*
X101979852Y-115976400D01*
X101307515Y-115976400D01*
X101292276Y-115980875D01*
X101291071Y-115982265D01*
X101289400Y-115989948D01*
X101289400Y-116017838D01*
X100500000Y-116017838D01*
X100500000Y-104344669D01*
X101492001Y-104344669D01*
X101492371Y-104351490D01*
X101497895Y-104402352D01*
X101501521Y-104417604D01*
X101546676Y-104538054D01*
X101555214Y-104553649D01*
X101631715Y-104655724D01*
X101644276Y-104668285D01*
X101746351Y-104744786D01*
X101761946Y-104753324D01*
X101882394Y-104798478D01*
X101897649Y-104802105D01*
X101948514Y-104807631D01*
X101955328Y-104808000D01*
X102402885Y-104808000D01*
X102418124Y-104803525D01*
X102419329Y-104802135D01*
X102421000Y-104794452D01*
X102421000Y-104789884D01*
X102929000Y-104789884D01*
X102933475Y-104805123D01*
X102934865Y-104806328D01*
X102942548Y-104807999D01*
X103394669Y-104807999D01*
X103401490Y-104807629D01*
X103452352Y-104802105D01*
X103467604Y-104798479D01*
X103588054Y-104753324D01*
X103603649Y-104744786D01*
X103705724Y-104668285D01*
X103718285Y-104655724D01*
X103794786Y-104553649D01*
X103803324Y-104538054D01*
X103848478Y-104417606D01*
X103852105Y-104402351D01*
X103857631Y-104351486D01*
X103858000Y-104344672D01*
X103858000Y-102472115D01*
X103853525Y-102456876D01*
X103852135Y-102455671D01*
X103844452Y-102454000D01*
X102947115Y-102454000D01*
X102931876Y-102458475D01*
X102930671Y-102459865D01*
X102929000Y-102467548D01*
X102929000Y-104789884D01*
X102421000Y-104789884D01*
X102421000Y-102472115D01*
X102416525Y-102456876D01*
X102415135Y-102455671D01*
X102407452Y-102454000D01*
X101510116Y-102454000D01*
X101494877Y-102458475D01*
X101493672Y-102459865D01*
X101492001Y-102467548D01*
X101492001Y-104344669D01*
X100500000Y-104344669D01*
X100500000Y-100626000D01*
X100520002Y-100557879D01*
X100573658Y-100511386D01*
X100626000Y-100500000D01*
X101366000Y-100500000D01*
X101434121Y-100520002D01*
G37*
%TD.AperFunction*%
%TA.AperFunction,Conductor*%
G36*
X141923122Y-113097802D02*
G01*
X141969615Y-113151458D01*
X141981001Y-113203800D01*
X141981001Y-113223869D01*
X141981371Y-113230690D01*
X141986895Y-113281554D01*
X141990446Y-113296490D01*
X141993126Y-113339238D01*
X141988500Y-113381823D01*
X141988501Y-113876576D01*
X141988870Y-113879970D01*
X141988870Y-113879976D01*
X141993869Y-113925993D01*
X141995149Y-113937780D01*
X142045474Y-114072024D01*
X142050854Y-114079203D01*
X142050856Y-114079206D01*
X142126072Y-114179565D01*
X142131454Y-114186746D01*
X142132073Y-114187210D01*
X142164121Y-114245900D01*
X142167000Y-114272683D01*
X142167000Y-117461404D01*
X142146998Y-117529525D01*
X142093342Y-117576018D01*
X142023068Y-117586122D01*
X141974884Y-117568664D01*
X141915627Y-117532137D01*
X141915625Y-117532136D01*
X141909397Y-117528297D01*
X141748824Y-117475037D01*
X141741988Y-117474337D01*
X141741985Y-117474336D01*
X141691903Y-117469205D01*
X141648907Y-117464800D01*
X141377807Y-117464800D01*
X141102494Y-117464801D01*
X141099250Y-117465138D01*
X141099242Y-117465138D01*
X141054820Y-117469747D01*
X141001328Y-117475297D01*
X140840848Y-117528837D01*
X140696989Y-117617860D01*
X140691816Y-117623042D01*
X140641510Y-117673436D01*
X140579228Y-117707515D01*
X140508408Y-117702512D01*
X140463319Y-117673591D01*
X140397139Y-117607526D01*
X140391961Y-117602357D01*
X140383013Y-117596841D01*
X140311169Y-117552557D01*
X140249187Y-117514351D01*
X140240978Y-117511628D01*
X140133991Y-117476142D01*
X140089998Y-117461550D01*
X140083165Y-117460850D01*
X140083161Y-117460849D01*
X140027300Y-117455126D01*
X139990935Y-117451400D01*
X139689245Y-117451400D01*
X139382866Y-117451401D01*
X139282565Y-117461807D01*
X139276034Y-117463986D01*
X139276029Y-117463987D01*
X139139315Y-117509599D01*
X139123468Y-117514886D01*
X138980848Y-117603142D01*
X138975675Y-117608324D01*
X138923350Y-117660740D01*
X138861067Y-117694819D01*
X138790247Y-117689816D01*
X138745160Y-117660896D01*
X138680992Y-117596841D01*
X138680991Y-117596840D01*
X138675811Y-117591669D01*
X138661486Y-117582839D01*
X138538027Y-117506737D01*
X138538025Y-117506736D01*
X138531797Y-117502897D01*
X138371224Y-117449637D01*
X138364388Y-117448937D01*
X138364385Y-117448936D01*
X138314303Y-117443805D01*
X138271307Y-117439400D01*
X138000207Y-117439400D01*
X137724894Y-117439401D01*
X137721650Y-117439738D01*
X137721642Y-117439738D01*
X137677220Y-117444347D01*
X137623728Y-117449897D01*
X137463248Y-117503437D01*
X137396718Y-117544607D01*
X137325616Y-117588606D01*
X137325613Y-117588609D01*
X137319389Y-117592460D01*
X137313344Y-117598516D01*
X137312185Y-117599677D01*
X137310452Y-117600625D01*
X137308479Y-117602189D01*
X137308211Y-117601851D01*
X137249903Y-117633758D01*
X137179083Y-117628757D01*
X137133990Y-117599834D01*
X137130991Y-117596840D01*
X137125811Y-117591669D01*
X137111486Y-117582839D01*
X136988027Y-117506737D01*
X136988025Y-117506736D01*
X136981797Y-117502897D01*
X136821224Y-117449637D01*
X136814388Y-117448937D01*
X136814385Y-117448936D01*
X136764303Y-117443805D01*
X136721307Y-117439400D01*
X136450207Y-117439400D01*
X136174894Y-117439401D01*
X136171650Y-117439738D01*
X136171642Y-117439738D01*
X136127220Y-117444347D01*
X136073728Y-117449897D01*
X135913248Y-117503437D01*
X135769389Y-117592460D01*
X135764217Y-117597641D01*
X135764216Y-117597642D01*
X135713932Y-117648014D01*
X135651650Y-117682093D01*
X135580830Y-117677090D01*
X135535741Y-117648169D01*
X135444139Y-117556726D01*
X135438961Y-117551557D01*
X135427938Y-117544762D01*
X135375708Y-117512568D01*
X135296187Y-117463551D01*
X135288786Y-117461096D01*
X135152606Y-117415927D01*
X135136998Y-117410750D01*
X135130165Y-117410050D01*
X135130161Y-117410049D01*
X135074300Y-117404326D01*
X135037935Y-117400600D01*
X134736245Y-117400600D01*
X134429866Y-117400601D01*
X134329565Y-117411007D01*
X134323034Y-117413186D01*
X134323029Y-117413187D01*
X134206460Y-117452078D01*
X134170468Y-117464086D01*
X134027848Y-117552342D01*
X133932188Y-117648169D01*
X133930801Y-117649558D01*
X133868518Y-117683637D01*
X133797698Y-117678634D01*
X133743643Y-117639357D01*
X133740940Y-117634989D01*
X133725172Y-117619248D01*
X133638966Y-117533193D01*
X133621211Y-117515469D01*
X133607024Y-117506724D01*
X133483427Y-117430537D01*
X133483425Y-117430536D01*
X133477197Y-117426697D01*
X133316624Y-117373437D01*
X133309788Y-117372737D01*
X133309785Y-117372736D01*
X133258618Y-117367494D01*
X133216707Y-117363200D01*
X132945607Y-117363200D01*
X132670294Y-117363201D01*
X132667050Y-117363538D01*
X132667042Y-117363538D01*
X132622620Y-117368147D01*
X132569128Y-117373697D01*
X132408648Y-117427237D01*
X132347417Y-117465128D01*
X132271016Y-117512406D01*
X132271013Y-117512409D01*
X132264789Y-117516260D01*
X132257585Y-117523477D01*
X132255852Y-117524425D01*
X132253879Y-117525989D01*
X132253611Y-117525651D01*
X132195303Y-117557558D01*
X132124483Y-117552557D01*
X132079390Y-117523634D01*
X132076391Y-117520640D01*
X132071211Y-117515469D01*
X132057024Y-117506724D01*
X131933427Y-117430537D01*
X131933425Y-117430536D01*
X131927197Y-117426697D01*
X131766624Y-117373437D01*
X131759788Y-117372737D01*
X131759785Y-117372736D01*
X131708618Y-117367494D01*
X131666707Y-117363200D01*
X131395607Y-117363200D01*
X131120294Y-117363201D01*
X131117050Y-117363538D01*
X131117042Y-117363538D01*
X131072620Y-117368147D01*
X131019128Y-117373697D01*
X130858648Y-117427237D01*
X130714789Y-117516260D01*
X130709617Y-117521441D01*
X130709616Y-117521442D01*
X130633954Y-117597236D01*
X130571672Y-117631315D01*
X130500851Y-117626312D01*
X130455763Y-117597391D01*
X130364139Y-117505926D01*
X130358961Y-117500757D01*
X130336653Y-117487006D01*
X130277923Y-117450805D01*
X130216187Y-117412751D01*
X130208786Y-117410296D01*
X130063522Y-117362114D01*
X130063523Y-117362114D01*
X130056998Y-117359950D01*
X130050165Y-117359250D01*
X130050161Y-117359249D01*
X129989996Y-117353085D01*
X129957935Y-117349800D01*
X129656245Y-117349800D01*
X129349866Y-117349801D01*
X129249565Y-117360207D01*
X129243034Y-117362386D01*
X129243029Y-117362387D01*
X129113227Y-117405693D01*
X129090468Y-117413286D01*
X128947848Y-117501542D01*
X128942675Y-117506724D01*
X128852316Y-117597240D01*
X128790033Y-117631319D01*
X128719213Y-117626316D01*
X128674126Y-117597395D01*
X128571796Y-117495244D01*
X128571791Y-117495240D01*
X128566611Y-117490069D01*
X128552424Y-117481324D01*
X128428827Y-117405137D01*
X128428825Y-117405136D01*
X128422597Y-117401297D01*
X128262024Y-117348037D01*
X128255188Y-117347337D01*
X128255185Y-117347336D01*
X128205103Y-117342205D01*
X128162107Y-117337800D01*
X127891007Y-117337800D01*
X127615694Y-117337801D01*
X127612450Y-117338138D01*
X127612442Y-117338138D01*
X127568020Y-117342747D01*
X127514528Y-117348297D01*
X127354048Y-117401837D01*
X127292817Y-117439728D01*
X127216416Y-117487006D01*
X127216413Y-117487009D01*
X127210189Y-117490860D01*
X127204144Y-117496916D01*
X127202985Y-117498077D01*
X127201252Y-117499025D01*
X127199279Y-117500589D01*
X127199011Y-117500251D01*
X127140703Y-117532158D01*
X127069883Y-117527157D01*
X127024790Y-117498234D01*
X127021791Y-117495240D01*
X127016611Y-117490069D01*
X127002424Y-117481324D01*
X126878827Y-117405137D01*
X126878825Y-117405136D01*
X126872597Y-117401297D01*
X126712024Y-117348037D01*
X126705188Y-117347337D01*
X126705185Y-117347336D01*
X126655103Y-117342205D01*
X126612107Y-117337800D01*
X126341007Y-117337800D01*
X126065694Y-117337801D01*
X126062450Y-117338138D01*
X126062442Y-117338138D01*
X126018020Y-117342747D01*
X125964528Y-117348297D01*
X125804048Y-117401837D01*
X125660189Y-117490860D01*
X125655017Y-117496041D01*
X125655016Y-117496042D01*
X125566676Y-117584536D01*
X125504393Y-117618615D01*
X125433573Y-117613612D01*
X125388485Y-117584691D01*
X125373207Y-117569439D01*
X125278961Y-117475357D01*
X125267972Y-117468583D01*
X125211889Y-117434014D01*
X125136187Y-117387351D01*
X125110160Y-117378718D01*
X125020991Y-117349142D01*
X124976998Y-117334550D01*
X124970165Y-117333850D01*
X124970161Y-117333849D01*
X124917554Y-117328459D01*
X124877935Y-117324400D01*
X124576245Y-117324400D01*
X124269866Y-117324401D01*
X124169565Y-117334807D01*
X124163034Y-117336986D01*
X124163029Y-117336987D01*
X124046460Y-117375878D01*
X124010468Y-117387886D01*
X123867848Y-117476142D01*
X123768146Y-117576018D01*
X123765750Y-117578418D01*
X123703467Y-117612497D01*
X123676577Y-117615400D01*
X123667995Y-117615400D01*
X123599874Y-117595398D01*
X123578977Y-117578573D01*
X123568835Y-117568448D01*
X123511916Y-117511628D01*
X123486432Y-117486188D01*
X123452353Y-117423905D01*
X123457356Y-117353085D01*
X123489512Y-117308837D01*
X123487611Y-117306940D01*
X123586571Y-117207807D01*
X123607131Y-117187211D01*
X123619595Y-117166991D01*
X123692063Y-117049427D01*
X123692064Y-117049425D01*
X123695903Y-117043197D01*
X123749163Y-116882624D01*
X123751638Y-116858472D01*
X123759072Y-116785906D01*
X123759400Y-116782707D01*
X123759399Y-116186294D01*
X123757098Y-116164110D01*
X123754453Y-116138620D01*
X123748903Y-116085128D01*
X123695363Y-115924648D01*
X123606340Y-115780789D01*
X123587135Y-115761617D01*
X123526887Y-115701475D01*
X123486611Y-115661269D01*
X123480380Y-115657428D01*
X123348827Y-115576337D01*
X123348825Y-115576336D01*
X123342597Y-115572497D01*
X123182024Y-115519237D01*
X123175188Y-115518537D01*
X123175185Y-115518536D01*
X123125103Y-115513405D01*
X123082107Y-115509000D01*
X122811007Y-115509000D01*
X122535694Y-115509001D01*
X122532450Y-115509338D01*
X122532442Y-115509338D01*
X122488020Y-115513947D01*
X122434528Y-115519497D01*
X122274048Y-115573037D01*
X122195101Y-115621891D01*
X122136416Y-115658206D01*
X122136413Y-115658209D01*
X122130189Y-115662060D01*
X122122985Y-115669277D01*
X122121252Y-115670225D01*
X122119279Y-115671789D01*
X122119011Y-115671451D01*
X122060703Y-115703358D01*
X121989883Y-115698357D01*
X121944790Y-115669434D01*
X121941791Y-115666440D01*
X121936611Y-115661269D01*
X121930380Y-115657428D01*
X121798827Y-115576337D01*
X121798825Y-115576336D01*
X121792597Y-115572497D01*
X121632024Y-115519237D01*
X121625188Y-115518537D01*
X121625185Y-115518536D01*
X121575103Y-115513405D01*
X121532107Y-115509000D01*
X121261007Y-115509000D01*
X120985694Y-115509001D01*
X120982450Y-115509338D01*
X120982442Y-115509338D01*
X120938020Y-115513947D01*
X120884528Y-115519497D01*
X120724048Y-115573037D01*
X120580189Y-115662060D01*
X120460669Y-115781789D01*
X120456829Y-115788019D01*
X120456828Y-115788020D01*
X120419125Y-115849186D01*
X120371897Y-115925803D01*
X120318637Y-116086376D01*
X120317937Y-116093212D01*
X120317936Y-116093215D01*
X120314470Y-116127050D01*
X120308400Y-116186293D01*
X120308401Y-116782706D01*
X120318897Y-116883872D01*
X120372437Y-117044352D01*
X120461460Y-117188211D01*
X120466642Y-117193384D01*
X120556238Y-117282824D01*
X120590317Y-117345107D01*
X120585314Y-117415927D01*
X120551192Y-117462889D01*
X120552447Y-117464142D01*
X120472121Y-117544607D01*
X120409839Y-117578686D01*
X120339019Y-117573683D01*
X120293931Y-117544762D01*
X120204139Y-117455126D01*
X120198961Y-117449957D01*
X120182383Y-117439738D01*
X120128951Y-117406803D01*
X120056187Y-117361951D01*
X120048786Y-117359496D01*
X119903522Y-117311314D01*
X119903523Y-117311314D01*
X119896998Y-117309150D01*
X119890165Y-117308450D01*
X119890161Y-117308449D01*
X119837554Y-117303059D01*
X119797935Y-117299000D01*
X119496245Y-117299000D01*
X119189866Y-117299001D01*
X119089565Y-117309407D01*
X119083034Y-117311586D01*
X119083029Y-117311587D01*
X118966460Y-117350478D01*
X118930468Y-117362486D01*
X118787848Y-117450742D01*
X118733038Y-117505648D01*
X118732200Y-117506487D01*
X118669917Y-117540566D01*
X118599097Y-117535563D01*
X118554010Y-117506642D01*
X118508170Y-117460882D01*
X118474092Y-117398599D01*
X118479095Y-117327779D01*
X118508015Y-117282694D01*
X118603331Y-117187211D01*
X118615795Y-117166991D01*
X118688263Y-117049427D01*
X118688264Y-117049425D01*
X118692103Y-117043197D01*
X118745363Y-116882624D01*
X118747838Y-116858472D01*
X118755272Y-116785906D01*
X118755600Y-116782707D01*
X118755599Y-116186294D01*
X118753298Y-116164110D01*
X118750653Y-116138620D01*
X118745103Y-116085128D01*
X118691563Y-115924648D01*
X118602540Y-115780789D01*
X118583335Y-115761617D01*
X118523087Y-115701475D01*
X118482811Y-115661269D01*
X118476580Y-115657428D01*
X118345027Y-115576337D01*
X118345025Y-115576336D01*
X118338797Y-115572497D01*
X118178224Y-115519237D01*
X118171388Y-115518537D01*
X118171385Y-115518536D01*
X118121303Y-115513405D01*
X118078307Y-115509000D01*
X117807207Y-115509000D01*
X117531894Y-115509001D01*
X117528650Y-115509338D01*
X117528642Y-115509338D01*
X117484220Y-115513947D01*
X117430728Y-115519497D01*
X117270248Y-115573037D01*
X117191301Y-115621891D01*
X117132616Y-115658206D01*
X117132613Y-115658209D01*
X117126389Y-115662060D01*
X117119185Y-115669277D01*
X117117452Y-115670225D01*
X117115479Y-115671789D01*
X117115211Y-115671451D01*
X117056903Y-115703358D01*
X116986083Y-115698357D01*
X116940990Y-115669434D01*
X116937991Y-115666440D01*
X116932811Y-115661269D01*
X116926580Y-115657428D01*
X116795027Y-115576337D01*
X116795025Y-115576336D01*
X116788797Y-115572497D01*
X116628224Y-115519237D01*
X116621388Y-115518537D01*
X116621385Y-115518536D01*
X116571303Y-115513405D01*
X116528307Y-115509000D01*
X116257207Y-115509000D01*
X115981894Y-115509001D01*
X115978650Y-115509338D01*
X115978642Y-115509338D01*
X115934220Y-115513947D01*
X115880728Y-115519497D01*
X115720248Y-115573037D01*
X115576389Y-115662060D01*
X115456869Y-115781789D01*
X115453029Y-115788019D01*
X115453028Y-115788020D01*
X115415325Y-115849186D01*
X115368097Y-115925803D01*
X115314837Y-116086376D01*
X115314137Y-116093212D01*
X115314136Y-116093215D01*
X115310670Y-116127050D01*
X115304600Y-116186293D01*
X115304601Y-116782706D01*
X115315097Y-116883872D01*
X115368637Y-117044352D01*
X115457660Y-117188211D01*
X115526626Y-117257056D01*
X115560705Y-117319338D01*
X115555702Y-117390158D01*
X115526780Y-117435248D01*
X115480999Y-117481108D01*
X115418716Y-117515186D01*
X115347896Y-117510183D01*
X115302809Y-117481262D01*
X115225739Y-117404326D01*
X115220561Y-117399157D01*
X115208532Y-117391742D01*
X115140488Y-117349800D01*
X115077787Y-117311151D01*
X115070386Y-117308696D01*
X114984273Y-117280134D01*
X114918598Y-117258350D01*
X114911765Y-117257650D01*
X114911761Y-117257649D01*
X114859154Y-117252259D01*
X114819535Y-117248200D01*
X114517845Y-117248200D01*
X114211466Y-117248201D01*
X114111165Y-117258607D01*
X114104634Y-117260786D01*
X114104629Y-117260787D01*
X113967915Y-117306399D01*
X113952068Y-117311686D01*
X113809448Y-117399942D01*
X113745360Y-117464142D01*
X113741100Y-117468409D01*
X113678817Y-117502488D01*
X113607997Y-117497485D01*
X113562909Y-117468564D01*
X113517048Y-117422782D01*
X113482970Y-117360499D01*
X113487973Y-117289679D01*
X113516893Y-117244593D01*
X113599531Y-117161811D01*
X113688303Y-117017797D01*
X113741563Y-116857224D01*
X113751800Y-116757307D01*
X113751799Y-116160894D01*
X113750865Y-116151884D01*
X113744777Y-116093215D01*
X113741303Y-116059728D01*
X113687763Y-115899248D01*
X113598740Y-115755389D01*
X113581260Y-115737939D01*
X113484191Y-115641040D01*
X113479011Y-115635869D01*
X113472780Y-115632028D01*
X113341227Y-115550937D01*
X113341225Y-115550936D01*
X113334997Y-115547097D01*
X113174424Y-115493837D01*
X113167588Y-115493137D01*
X113167585Y-115493136D01*
X113117503Y-115488005D01*
X113074507Y-115483600D01*
X112803407Y-115483600D01*
X112528094Y-115483601D01*
X112524850Y-115483938D01*
X112524842Y-115483938D01*
X112481819Y-115488402D01*
X112426928Y-115494097D01*
X112266448Y-115547637D01*
X112190880Y-115594400D01*
X112128816Y-115632806D01*
X112128813Y-115632809D01*
X112122589Y-115636660D01*
X112115385Y-115643877D01*
X112113652Y-115644825D01*
X112111679Y-115646389D01*
X112111411Y-115646051D01*
X112053103Y-115677958D01*
X111982283Y-115672957D01*
X111937190Y-115644034D01*
X111934191Y-115641040D01*
X111929011Y-115635869D01*
X111922780Y-115632028D01*
X111791227Y-115550937D01*
X111791225Y-115550936D01*
X111784997Y-115547097D01*
X111624424Y-115493837D01*
X111617588Y-115493137D01*
X111617585Y-115493136D01*
X111567503Y-115488005D01*
X111524507Y-115483600D01*
X111253407Y-115483600D01*
X110978094Y-115483601D01*
X110974850Y-115483938D01*
X110974842Y-115483938D01*
X110931819Y-115488402D01*
X110876928Y-115494097D01*
X110716448Y-115547637D01*
X110572589Y-115636660D01*
X110453069Y-115756389D01*
X110449229Y-115762619D01*
X110449228Y-115762620D01*
X110396039Y-115848909D01*
X110364297Y-115900403D01*
X110311037Y-116060976D01*
X110310337Y-116067812D01*
X110310336Y-116067815D01*
X110307860Y-116091985D01*
X110300800Y-116160893D01*
X110300801Y-116757306D01*
X110301138Y-116760550D01*
X110301138Y-116760558D01*
X110305747Y-116804980D01*
X110311297Y-116858472D01*
X110364837Y-117018952D01*
X110453860Y-117162811D01*
X110459042Y-117167984D01*
X110459046Y-117167989D01*
X110535547Y-117244356D01*
X110569627Y-117306638D01*
X110564624Y-117377458D01*
X110535703Y-117422547D01*
X110496914Y-117461404D01*
X110489747Y-117468583D01*
X110427464Y-117502662D01*
X110356644Y-117497659D01*
X110311816Y-117465087D01*
X110310058Y-117466848D01*
X110196539Y-117353526D01*
X110191361Y-117348357D01*
X110183156Y-117343299D01*
X110126617Y-117308449D01*
X110048587Y-117260351D01*
X110041186Y-117257896D01*
X109955073Y-117229334D01*
X109889398Y-117207550D01*
X109882565Y-117206850D01*
X109882561Y-117206849D01*
X109829954Y-117201459D01*
X109790335Y-117197400D01*
X109488645Y-117197400D01*
X109182266Y-117197401D01*
X109081965Y-117207807D01*
X109075434Y-117209986D01*
X109075429Y-117209987D01*
X108959909Y-117248528D01*
X108922868Y-117260886D01*
X108780248Y-117349142D01*
X108679307Y-117450259D01*
X108617025Y-117484337D01*
X108546205Y-117479334D01*
X108501040Y-117450335D01*
X108457508Y-117406803D01*
X108312483Y-117318973D01*
X108305236Y-117316702D01*
X108305234Y-117316701D01*
X108195559Y-117282331D01*
X108150694Y-117268271D01*
X108078093Y-117261600D01*
X108075195Y-117261600D01*
X107821436Y-117261601D01*
X107566108Y-117261601D01*
X107563250Y-117261864D01*
X107563241Y-117261864D01*
X107527857Y-117265115D01*
X107493506Y-117268271D01*
X107487128Y-117270270D01*
X107487127Y-117270270D01*
X107338966Y-117316701D01*
X107338964Y-117316702D01*
X107331717Y-117318973D01*
X107186692Y-117406803D01*
X107145895Y-117447600D01*
X107083583Y-117481626D01*
X107012768Y-117476561D01*
X106955932Y-117434014D01*
X106931121Y-117367494D01*
X106930800Y-117358505D01*
X106930800Y-114374283D01*
X106950802Y-114306162D01*
X106963351Y-114290591D01*
X106966346Y-114288346D01*
X107022526Y-114213386D01*
X107046944Y-114180806D01*
X107046946Y-114180803D01*
X107052326Y-114173624D01*
X107102651Y-114039380D01*
X107109300Y-113978177D01*
X107109299Y-113483424D01*
X107108931Y-113480033D01*
X107108930Y-113480021D01*
X107104674Y-113440840D01*
X107107354Y-113398090D01*
X107110905Y-113383154D01*
X107116431Y-113332286D01*
X107116800Y-113325472D01*
X107116800Y-113203800D01*
X107136802Y-113135679D01*
X107190458Y-113089186D01*
X107242800Y-113077800D01*
X141855001Y-113077800D01*
X141923122Y-113097802D01*
G37*
%TD.AperFunction*%
%TA.AperFunction,Conductor*%
G36*
X122353937Y-109116782D02*
G01*
X122374912Y-109133685D01*
X122816947Y-109575721D01*
X123241899Y-110000673D01*
X123249285Y-110008790D01*
X123253351Y-110015197D01*
X123259126Y-110020620D01*
X123259130Y-110020625D01*
X123302360Y-110061221D01*
X123305202Y-110063976D01*
X123324666Y-110083440D01*
X123327796Y-110085868D01*
X123327878Y-110085940D01*
X123336786Y-110093549D01*
X123368555Y-110123382D01*
X123375502Y-110127201D01*
X123385969Y-110132955D01*
X123402498Y-110143812D01*
X123418201Y-110155993D01*
X123458194Y-110173299D01*
X123468850Y-110178520D01*
X123500092Y-110195696D01*
X123500101Y-110195700D01*
X123507045Y-110199517D01*
X123514721Y-110201488D01*
X123514724Y-110201489D01*
X123526297Y-110204460D01*
X123545002Y-110210864D01*
X123563241Y-110218757D01*
X123606285Y-110225574D01*
X123617908Y-110227982D01*
X123652441Y-110236849D01*
X123652442Y-110236849D01*
X123660118Y-110238820D01*
X123679993Y-110238820D01*
X123699703Y-110240371D01*
X123719333Y-110243480D01*
X123762717Y-110239379D01*
X123774574Y-110238820D01*
X125601377Y-110238820D01*
X125612337Y-110239337D01*
X125619747Y-110240993D01*
X125627673Y-110240744D01*
X125627674Y-110240744D01*
X125686921Y-110238882D01*
X125690879Y-110238820D01*
X125718430Y-110238820D01*
X125722353Y-110238324D01*
X125722468Y-110238317D01*
X125734148Y-110237397D01*
X125777707Y-110236029D01*
X125796796Y-110230483D01*
X125816142Y-110226476D01*
X125835872Y-110223984D01*
X125876403Y-110207936D01*
X125887604Y-110204101D01*
X125929470Y-110191938D01*
X125946579Y-110181820D01*
X125964325Y-110173125D01*
X125982812Y-110165806D01*
X126018071Y-110140189D01*
X126027990Y-110133674D01*
X126058670Y-110115530D01*
X126058674Y-110115527D01*
X126065500Y-110111490D01*
X126079550Y-110097440D01*
X126094584Y-110084599D01*
X126104253Y-110077574D01*
X126110667Y-110072914D01*
X126128294Y-110051607D01*
X126138444Y-110039337D01*
X126146434Y-110030556D01*
X126153552Y-110023438D01*
X141294400Y-110023438D01*
X141294737Y-110029953D01*
X141304294Y-110122057D01*
X141307188Y-110135456D01*
X141356781Y-110284107D01*
X141362955Y-110297286D01*
X141445188Y-110430173D01*
X141454224Y-110441574D01*
X141564829Y-110551986D01*
X141576240Y-110560998D01*
X141709280Y-110643004D01*
X141722461Y-110649151D01*
X141871214Y-110698491D01*
X141884590Y-110701358D01*
X141975497Y-110710672D01*
X141980526Y-110710929D01*
X141995524Y-110706525D01*
X141996729Y-110705135D01*
X141998400Y-110697452D01*
X141998400Y-110000115D01*
X141993925Y-109984876D01*
X141992535Y-109983671D01*
X141984852Y-109982000D01*
X141312515Y-109982000D01*
X141297276Y-109986475D01*
X141296071Y-109987865D01*
X141294400Y-109995548D01*
X141294400Y-110023438D01*
X126153552Y-110023438D01*
X126413787Y-109763204D01*
X126476099Y-109729179D01*
X126502882Y-109726300D01*
X126779433Y-109726299D01*
X126797592Y-109726299D01*
X126800450Y-109726036D01*
X126800459Y-109726036D01*
X126835843Y-109722785D01*
X126870194Y-109719629D01*
X126972746Y-109687491D01*
X127024734Y-109671199D01*
X127024736Y-109671198D01*
X127031983Y-109668927D01*
X127177008Y-109581097D01*
X127269900Y-109488205D01*
X127332212Y-109454179D01*
X127358995Y-109451300D01*
X141229001Y-109451300D01*
X141297122Y-109471302D01*
X141297768Y-109471785D01*
X141307948Y-109474000D01*
X142380400Y-109474000D01*
X142448521Y-109494002D01*
X142495014Y-109547658D01*
X142506400Y-109600000D01*
X142506400Y-110692885D01*
X142510875Y-110708124D01*
X142512265Y-110709329D01*
X142519948Y-110711000D01*
X142522838Y-110711000D01*
X142529353Y-110710663D01*
X142621457Y-110701106D01*
X142634856Y-110698212D01*
X142783507Y-110648619D01*
X142796686Y-110642445D01*
X142929573Y-110560212D01*
X142940973Y-110551177D01*
X142943624Y-110548521D01*
X142945885Y-110547284D01*
X142946711Y-110546629D01*
X142946823Y-110546770D01*
X143005906Y-110514440D01*
X143076726Y-110519442D01*
X143112884Y-110542635D01*
X143113763Y-110541522D01*
X143119509Y-110546060D01*
X143124689Y-110551231D01*
X143130919Y-110555071D01*
X143130920Y-110555072D01*
X143248939Y-110627820D01*
X143268703Y-110640003D01*
X143429276Y-110693263D01*
X143436112Y-110693963D01*
X143436115Y-110693964D01*
X143477580Y-110698212D01*
X143529193Y-110703500D01*
X143550334Y-110703500D01*
X143841118Y-110703499D01*
X143909238Y-110723501D01*
X143930214Y-110740404D01*
X144051596Y-110861787D01*
X144085621Y-110924099D01*
X144088500Y-110950882D01*
X144088500Y-111665873D01*
X144068498Y-111733994D01*
X144044667Y-111759606D01*
X144044984Y-111759923D01*
X144038635Y-111766272D01*
X144031454Y-111771654D01*
X144026072Y-111778835D01*
X143950856Y-111879194D01*
X143950854Y-111879197D01*
X143945474Y-111886376D01*
X143895149Y-112020620D01*
X143894296Y-112028469D01*
X143894296Y-112028470D01*
X143889262Y-112074806D01*
X143862019Y-112140368D01*
X143803656Y-112180794D01*
X143732701Y-112183248D01*
X143671684Y-112146952D01*
X143639976Y-112083430D01*
X143638736Y-112074802D01*
X143633705Y-112028479D01*
X143633704Y-112028476D01*
X143632851Y-112020620D01*
X143582526Y-111886376D01*
X143577146Y-111879197D01*
X143577144Y-111879194D01*
X143501928Y-111778835D01*
X143496546Y-111771654D01*
X143489365Y-111766272D01*
X143389006Y-111691056D01*
X143389003Y-111691054D01*
X143381824Y-111685674D01*
X143292439Y-111652166D01*
X143254975Y-111638121D01*
X143254973Y-111638121D01*
X143247580Y-111635349D01*
X143239730Y-111634496D01*
X143239729Y-111634496D01*
X143189774Y-111629069D01*
X143189773Y-111629069D01*
X143186377Y-111628700D01*
X142814055Y-111628700D01*
X142441624Y-111628701D01*
X142438230Y-111629070D01*
X142438224Y-111629070D01*
X142388278Y-111634495D01*
X142388274Y-111634496D01*
X142380420Y-111635349D01*
X142246176Y-111685674D01*
X142238997Y-111691054D01*
X142238994Y-111691056D01*
X142148837Y-111758626D01*
X142082331Y-111783474D01*
X142073272Y-111783800D01*
X106865198Y-111783800D01*
X106820969Y-111775782D01*
X106724775Y-111739721D01*
X106724773Y-111739721D01*
X106717380Y-111736949D01*
X106709530Y-111736096D01*
X106709529Y-111736096D01*
X106659574Y-111730669D01*
X106659573Y-111730669D01*
X106656177Y-111730300D01*
X106283855Y-111730300D01*
X105911424Y-111730301D01*
X105908030Y-111730670D01*
X105908024Y-111730670D01*
X105858078Y-111736095D01*
X105858074Y-111736096D01*
X105850220Y-111736949D01*
X105715976Y-111787274D01*
X105708797Y-111792654D01*
X105708794Y-111792656D01*
X105658300Y-111830500D01*
X105601254Y-111873254D01*
X105595872Y-111880435D01*
X105520656Y-111980794D01*
X105520654Y-111980797D01*
X105515274Y-111987976D01*
X105464949Y-112122220D01*
X105464096Y-112130069D01*
X105464096Y-112130070D01*
X105459062Y-112176406D01*
X105431819Y-112241968D01*
X105373456Y-112282394D01*
X105302501Y-112284848D01*
X105241484Y-112248552D01*
X105209776Y-112185030D01*
X105208536Y-112176402D01*
X105203505Y-112130079D01*
X105203504Y-112130076D01*
X105202651Y-112122220D01*
X105152326Y-111987976D01*
X105146946Y-111980797D01*
X105146944Y-111980794D01*
X105071728Y-111880435D01*
X105066346Y-111873254D01*
X105059165Y-111867872D01*
X105057837Y-111866544D01*
X105023811Y-111804232D01*
X105028876Y-111733417D01*
X105057836Y-111688354D01*
X105984689Y-110761501D01*
X106047000Y-110727477D01*
X106060775Y-110725271D01*
X106085118Y-110722745D01*
X106120114Y-110719115D01*
X106120118Y-110719114D01*
X106126972Y-110718403D01*
X106287452Y-110664863D01*
X106431311Y-110575840D01*
X106436484Y-110570658D01*
X106442221Y-110566111D01*
X106443822Y-110568131D01*
X106495480Y-110539854D01*
X106566301Y-110544844D01*
X106611411Y-110573775D01*
X106615025Y-110577383D01*
X106626440Y-110586398D01*
X106759480Y-110668404D01*
X106772661Y-110674551D01*
X106921414Y-110723891D01*
X106934790Y-110726758D01*
X107025697Y-110736072D01*
X107030726Y-110736329D01*
X107045724Y-110731925D01*
X107046929Y-110730535D01*
X107048600Y-110722852D01*
X107048600Y-110718285D01*
X107556600Y-110718285D01*
X107561075Y-110733524D01*
X107562465Y-110734729D01*
X107570148Y-110736400D01*
X107573038Y-110736400D01*
X107579553Y-110736063D01*
X107671657Y-110726506D01*
X107685056Y-110723612D01*
X107833707Y-110674019D01*
X107846886Y-110667845D01*
X107979773Y-110585612D01*
X107991174Y-110576576D01*
X108101586Y-110465971D01*
X108110598Y-110454560D01*
X108192604Y-110321520D01*
X108198751Y-110308339D01*
X108248091Y-110159586D01*
X108250958Y-110146210D01*
X108260272Y-110055303D01*
X108260600Y-110048887D01*
X108260600Y-110025515D01*
X108256125Y-110010276D01*
X108254735Y-110009071D01*
X108247052Y-110007400D01*
X107574715Y-110007400D01*
X107559476Y-110011875D01*
X107558271Y-110013265D01*
X107556600Y-110020948D01*
X107556600Y-110718285D01*
X107048600Y-110718285D01*
X107048600Y-109625400D01*
X107068602Y-109557279D01*
X107122258Y-109510786D01*
X107174600Y-109499400D01*
X108242485Y-109499400D01*
X108257724Y-109494925D01*
X108258929Y-109493535D01*
X108260600Y-109485852D01*
X108260600Y-109457962D01*
X108260263Y-109451447D01*
X108250706Y-109359343D01*
X108247812Y-109345944D01*
X108220025Y-109262656D01*
X108217441Y-109191707D01*
X108253624Y-109130623D01*
X108317089Y-109098798D01*
X108339549Y-109096780D01*
X122285816Y-109096780D01*
X122353937Y-109116782D01*
G37*
%TD.AperFunction*%
%TA.AperFunction,Conductor*%
G36*
X107084121Y-100520002D02*
G01*
X107130614Y-100573658D01*
X107142000Y-100626000D01*
X107142000Y-101927885D01*
X107146475Y-101943124D01*
X107147865Y-101944329D01*
X107155548Y-101946000D01*
X109489884Y-101946000D01*
X109505123Y-101941525D01*
X109506328Y-101940135D01*
X109507999Y-101932452D01*
X109507999Y-100626000D01*
X109528001Y-100557879D01*
X109581657Y-100511386D01*
X109633999Y-100500000D01*
X140366000Y-100500000D01*
X140434121Y-100520002D01*
X140480614Y-100573658D01*
X140492000Y-100626000D01*
X140492000Y-101927885D01*
X140496475Y-101943124D01*
X140497865Y-101944329D01*
X140505548Y-101946000D01*
X142839884Y-101946000D01*
X142855123Y-101941525D01*
X142856328Y-101940135D01*
X142857999Y-101932452D01*
X142857999Y-100626000D01*
X142878001Y-100557879D01*
X142931657Y-100511386D01*
X142983999Y-100500000D01*
X143238500Y-100500000D01*
X143306621Y-100520002D01*
X143353114Y-100573658D01*
X143364500Y-100626000D01*
X143364501Y-103847376D01*
X143371149Y-103908580D01*
X143421474Y-104042824D01*
X143426854Y-104050003D01*
X143426856Y-104050006D01*
X143487905Y-104131462D01*
X143507454Y-104157546D01*
X143514635Y-104162928D01*
X143614994Y-104238144D01*
X143614997Y-104238146D01*
X143622176Y-104243526D01*
X143711561Y-104277034D01*
X143749025Y-104291079D01*
X143749027Y-104291079D01*
X143756420Y-104293851D01*
X143764270Y-104294704D01*
X143764271Y-104294704D01*
X143802306Y-104298836D01*
X143817623Y-104300500D01*
X143978633Y-104300500D01*
X144046754Y-104320502D01*
X144093247Y-104374158D01*
X144102852Y-104405392D01*
X144144500Y-104650514D01*
X144226805Y-104936199D01*
X144228159Y-104939467D01*
X144228159Y-104939468D01*
X144339020Y-105207110D01*
X144340578Y-105210872D01*
X144484390Y-105471080D01*
X144486438Y-105473966D01*
X144486439Y-105473968D01*
X144534750Y-105542056D01*
X144656431Y-105713550D01*
X144658785Y-105716184D01*
X144798594Y-105872631D01*
X144797494Y-105873614D01*
X144799222Y-105874960D01*
X144799693Y-105874489D01*
X144802462Y-105877258D01*
X144803273Y-105878116D01*
X144803486Y-105878282D01*
X144804974Y-105879770D01*
X144805525Y-105880386D01*
X144806004Y-105881004D01*
X144807317Y-105882393D01*
X144832514Y-105910588D01*
X144839313Y-105918881D01*
X144844577Y-105925892D01*
X144854128Y-105935644D01*
X144864299Y-105943619D01*
X144879280Y-105955366D01*
X144890628Y-105965424D01*
X145951995Y-107026791D01*
X145986021Y-107089103D01*
X145988900Y-107115886D01*
X145988901Y-107397406D01*
X145989238Y-107400650D01*
X145989238Y-107400658D01*
X145992469Y-107431793D01*
X145999397Y-107498572D01*
X146052937Y-107659052D01*
X146081178Y-107704689D01*
X146138106Y-107796684D01*
X146138109Y-107796687D01*
X146141960Y-107802911D01*
X146149152Y-107810090D01*
X146149177Y-107810115D01*
X146150125Y-107811848D01*
X146151689Y-107813821D01*
X146151351Y-107814089D01*
X146183258Y-107872397D01*
X146178257Y-107943217D01*
X146149335Y-107988309D01*
X146141169Y-107996489D01*
X146137329Y-108002719D01*
X146137328Y-108002720D01*
X146099678Y-108063800D01*
X146052397Y-108140503D01*
X145999137Y-108301076D01*
X145998437Y-108307912D01*
X145998436Y-108307915D01*
X145994876Y-108342666D01*
X145988900Y-108400993D01*
X145988901Y-108947406D01*
X145989238Y-108950650D01*
X145989238Y-108950658D01*
X145993094Y-108987820D01*
X145999397Y-109048572D01*
X146052937Y-109209052D01*
X146141960Y-109352911D01*
X146261689Y-109472431D01*
X146267923Y-109476274D01*
X146269491Y-109477512D01*
X146310554Y-109535429D01*
X146317400Y-109576395D01*
X146317400Y-110424468D01*
X146316322Y-110440914D01*
X146314526Y-110454560D01*
X146312684Y-110468548D01*
X146314489Y-110484897D01*
X146314708Y-110486881D01*
X146315198Y-110508943D01*
X146306364Y-110643732D01*
X146304213Y-110660073D01*
X146272908Y-110817454D01*
X146268642Y-110833375D01*
X146217062Y-110985324D01*
X146210755Y-111000550D01*
X146139785Y-111144465D01*
X146131544Y-111158739D01*
X146042397Y-111292156D01*
X146032364Y-111305231D01*
X145948107Y-111401309D01*
X145930077Y-111418195D01*
X145922607Y-111423927D01*
X145917861Y-111429851D01*
X145917858Y-111429854D01*
X145900074Y-111452053D01*
X145890835Y-111462368D01*
X145687331Y-111665873D01*
X145577244Y-111775960D01*
X145514931Y-111809985D01*
X145444116Y-111804921D01*
X145400442Y-111776853D01*
X145396546Y-111771654D01*
X145389365Y-111766272D01*
X145383016Y-111759923D01*
X145384075Y-111758864D01*
X145347418Y-111709836D01*
X145339500Y-111665873D01*
X145339500Y-110717299D01*
X145340017Y-110706338D01*
X145341672Y-110698933D01*
X145339562Y-110631777D01*
X145339500Y-110627820D01*
X145339500Y-110600250D01*
X145339003Y-110596315D01*
X145338996Y-110596205D01*
X145338078Y-110584534D01*
X145336958Y-110548900D01*
X145336709Y-110540973D01*
X145331163Y-110521884D01*
X145327156Y-110502538D01*
X145324664Y-110482808D01*
X145308616Y-110442277D01*
X145304781Y-110431076D01*
X145292618Y-110389210D01*
X145282500Y-110372101D01*
X145273805Y-110354355D01*
X145266486Y-110335868D01*
X145240869Y-110300609D01*
X145234354Y-110290690D01*
X145216210Y-110260010D01*
X145216207Y-110260006D01*
X145212170Y-110253180D01*
X145198120Y-110239130D01*
X145185279Y-110224096D01*
X145178254Y-110214427D01*
X145173594Y-110208013D01*
X145140012Y-110180231D01*
X145131233Y-110172242D01*
X144789805Y-109830814D01*
X144755779Y-109768502D01*
X144752900Y-109741719D01*
X144752899Y-109433061D01*
X144752899Y-109429794D01*
X144742403Y-109328628D01*
X144688863Y-109168148D01*
X144599840Y-109024289D01*
X144480111Y-108904769D01*
X144410437Y-108861821D01*
X144342327Y-108819837D01*
X144342325Y-108819836D01*
X144336097Y-108815997D01*
X144175524Y-108762737D01*
X144168688Y-108762037D01*
X144168685Y-108762036D01*
X144105122Y-108755524D01*
X144075607Y-108752500D01*
X144054466Y-108752500D01*
X143763682Y-108752501D01*
X143695562Y-108732499D01*
X143674587Y-108715596D01*
X143397442Y-108438451D01*
X143390053Y-108430331D01*
X143385986Y-108423923D01*
X143366545Y-108405666D01*
X143336993Y-108377915D01*
X143334151Y-108375160D01*
X143314671Y-108355680D01*
X143311541Y-108353252D01*
X143311459Y-108353180D01*
X143302551Y-108345571D01*
X143270782Y-108315738D01*
X143253367Y-108306164D01*
X143236838Y-108295307D01*
X143227400Y-108287986D01*
X143221136Y-108283127D01*
X143181142Y-108265820D01*
X143170482Y-108260598D01*
X143147595Y-108248016D01*
X143132292Y-108239603D01*
X143113036Y-108234659D01*
X143094347Y-108228260D01*
X143076096Y-108220362D01*
X143033041Y-108213543D01*
X143021437Y-108211140D01*
X142979219Y-108200300D01*
X142959344Y-108200300D01*
X142939634Y-108198749D01*
X142927833Y-108196880D01*
X142920004Y-108195640D01*
X142912112Y-108196386D01*
X142876621Y-108199741D01*
X142864763Y-108200300D01*
X127358995Y-108200300D01*
X127290874Y-108180298D01*
X127269900Y-108163395D01*
X127196400Y-108089895D01*
X127162374Y-108027583D01*
X127167439Y-107956768D01*
X127196400Y-107911705D01*
X127296897Y-107811208D01*
X127384727Y-107666183D01*
X127389355Y-107651417D01*
X127433428Y-107510778D01*
X127435429Y-107504394D01*
X127442100Y-107431793D01*
X127442099Y-106919808D01*
X127441834Y-106916916D01*
X127436040Y-106853860D01*
X127435429Y-106847206D01*
X127428184Y-106824087D01*
X127386999Y-106692666D01*
X127386998Y-106692664D01*
X127384727Y-106685417D01*
X127296897Y-106540392D01*
X127177008Y-106420503D01*
X127089777Y-106367674D01*
X127038481Y-106336608D01*
X127038479Y-106336607D01*
X127031983Y-106332673D01*
X127030644Y-106332253D01*
X126978793Y-106287710D01*
X126958500Y-106219138D01*
X126958500Y-105640123D01*
X126978502Y-105572002D01*
X127018197Y-105532979D01*
X127106277Y-105478474D01*
X127152345Y-105449966D01*
X127172097Y-105430180D01*
X127270813Y-105331291D01*
X127275984Y-105326111D01*
X127367814Y-105177134D01*
X127382978Y-105131417D01*
X127420744Y-105017559D01*
X127420745Y-105017557D01*
X127422910Y-105011028D01*
X127433500Y-104907666D01*
X127433500Y-103557934D01*
X127422641Y-103453281D01*
X127392652Y-103363391D01*
X127369574Y-103294219D01*
X127367256Y-103287271D01*
X127275166Y-103138455D01*
X127151311Y-103014816D01*
X127127275Y-103000000D01*
X133394551Y-103000000D01*
X133414317Y-103251148D01*
X133415471Y-103255955D01*
X133415472Y-103255961D01*
X133441264Y-103363391D01*
X133473127Y-103496111D01*
X133475020Y-103500682D01*
X133475021Y-103500684D01*
X133500088Y-103561200D01*
X133569534Y-103728859D01*
X133701164Y-103943659D01*
X133704376Y-103947419D01*
X133704379Y-103947424D01*
X133729750Y-103977129D01*
X133864776Y-104135224D01*
X133868538Y-104138437D01*
X134052576Y-104295621D01*
X134052581Y-104295624D01*
X134056341Y-104298836D01*
X134271141Y-104430466D01*
X134275711Y-104432359D01*
X134275715Y-104432361D01*
X134450877Y-104504915D01*
X134503889Y-104526873D01*
X134588289Y-104547135D01*
X134744039Y-104584528D01*
X134744045Y-104584529D01*
X134748852Y-104585683D01*
X134837149Y-104592632D01*
X134934661Y-104600307D01*
X134934670Y-104600307D01*
X134937118Y-104600500D01*
X135062882Y-104600500D01*
X135065330Y-104600307D01*
X135065339Y-104600307D01*
X135162851Y-104592632D01*
X135251148Y-104585683D01*
X135255955Y-104584529D01*
X135255961Y-104584528D01*
X135411711Y-104547135D01*
X135496111Y-104526873D01*
X135549123Y-104504915D01*
X135724285Y-104432361D01*
X135724289Y-104432359D01*
X135728859Y-104430466D01*
X135868867Y-104344669D01*
X140492001Y-104344669D01*
X140492371Y-104351490D01*
X140497895Y-104402352D01*
X140501521Y-104417604D01*
X140546676Y-104538054D01*
X140555214Y-104553649D01*
X140631715Y-104655724D01*
X140644276Y-104668285D01*
X140746351Y-104744786D01*
X140761946Y-104753324D01*
X140882394Y-104798478D01*
X140897649Y-104802105D01*
X140948514Y-104807631D01*
X140955328Y-104808000D01*
X141402885Y-104808000D01*
X141418124Y-104803525D01*
X141419329Y-104802135D01*
X141421000Y-104794452D01*
X141421000Y-104789884D01*
X141929000Y-104789884D01*
X141933475Y-104805123D01*
X141934865Y-104806328D01*
X141942548Y-104807999D01*
X142394669Y-104807999D01*
X142401490Y-104807629D01*
X142452352Y-104802105D01*
X142467604Y-104798479D01*
X142588054Y-104753324D01*
X142603649Y-104744786D01*
X142705724Y-104668285D01*
X142718285Y-104655724D01*
X142794786Y-104553649D01*
X142803324Y-104538054D01*
X142848478Y-104417606D01*
X142852105Y-104402351D01*
X142857631Y-104351486D01*
X142858000Y-104344672D01*
X142858000Y-102472115D01*
X142853525Y-102456876D01*
X142852135Y-102455671D01*
X142844452Y-102454000D01*
X141947115Y-102454000D01*
X141931876Y-102458475D01*
X141930671Y-102459865D01*
X141929000Y-102467548D01*
X141929000Y-104789884D01*
X141421000Y-104789884D01*
X141421000Y-102472115D01*
X141416525Y-102456876D01*
X141415135Y-102455671D01*
X141407452Y-102454000D01*
X140510116Y-102454000D01*
X140494877Y-102458475D01*
X140493672Y-102459865D01*
X140492001Y-102467548D01*
X140492001Y-104344669D01*
X135868867Y-104344669D01*
X135943659Y-104298836D01*
X135947419Y-104295624D01*
X135947424Y-104295621D01*
X136131462Y-104138437D01*
X136135224Y-104135224D01*
X136270250Y-103977129D01*
X136295621Y-103947424D01*
X136295624Y-103947419D01*
X136298836Y-103943659D01*
X136430466Y-103728859D01*
X136499913Y-103561200D01*
X136524979Y-103500684D01*
X136524980Y-103500682D01*
X136526873Y-103496111D01*
X136558736Y-103363391D01*
X136584528Y-103255961D01*
X136584529Y-103255955D01*
X136585683Y-103251148D01*
X136605449Y-103000000D01*
X136585683Y-102748852D01*
X136526873Y-102503889D01*
X136506901Y-102455671D01*
X136432361Y-102275715D01*
X136432359Y-102275711D01*
X136430466Y-102271141D01*
X136298836Y-102056341D01*
X136295624Y-102052581D01*
X136295621Y-102052576D01*
X136138437Y-101868538D01*
X136135224Y-101864776D01*
X136117052Y-101849256D01*
X135947424Y-101704379D01*
X135947419Y-101704376D01*
X135943659Y-101701164D01*
X135728859Y-101569534D01*
X135724289Y-101567641D01*
X135724285Y-101567639D01*
X135500684Y-101475021D01*
X135500682Y-101475020D01*
X135496111Y-101473127D01*
X135411711Y-101452865D01*
X135255961Y-101415472D01*
X135255955Y-101415471D01*
X135251148Y-101414317D01*
X135162851Y-101407368D01*
X135065339Y-101399693D01*
X135065330Y-101399693D01*
X135062882Y-101399500D01*
X134937118Y-101399500D01*
X134934670Y-101399693D01*
X134934661Y-101399693D01*
X134837149Y-101407368D01*
X134748852Y-101414317D01*
X134744045Y-101415471D01*
X134744039Y-101415472D01*
X134588289Y-101452865D01*
X134503889Y-101473127D01*
X134499318Y-101475020D01*
X134499316Y-101475021D01*
X134275715Y-101567639D01*
X134275711Y-101567641D01*
X134271141Y-101569534D01*
X134056341Y-101701164D01*
X134052581Y-101704376D01*
X134052576Y-101704379D01*
X133882948Y-101849256D01*
X133864776Y-101864776D01*
X133861563Y-101868538D01*
X133704379Y-102052576D01*
X133704376Y-102052581D01*
X133701164Y-102056341D01*
X133569534Y-102271141D01*
X133567641Y-102275711D01*
X133567639Y-102275715D01*
X133493099Y-102455671D01*
X133473127Y-102503889D01*
X133414317Y-102748852D01*
X133394551Y-103000000D01*
X127127275Y-103000000D01*
X127002334Y-102922986D01*
X126945076Y-102903994D01*
X126842759Y-102870056D01*
X126842757Y-102870055D01*
X126836228Y-102867890D01*
X126732866Y-102857300D01*
X125933134Y-102857300D01*
X125929888Y-102857637D01*
X125929884Y-102857637D01*
X125835339Y-102867447D01*
X125835335Y-102867448D01*
X125828481Y-102868159D01*
X125821945Y-102870340D01*
X125821943Y-102870340D01*
X125721070Y-102903994D01*
X125662471Y-102923544D01*
X125513655Y-103015634D01*
X125390016Y-103139489D01*
X125386176Y-103145719D01*
X125386175Y-103145720D01*
X125352719Y-103199996D01*
X125299947Y-103247489D01*
X125229875Y-103258913D01*
X125164751Y-103230639D01*
X125146376Y-103211716D01*
X125133576Y-103195421D01*
X125075106Y-103144683D01*
X124979502Y-103061721D01*
X124979497Y-103061717D01*
X124974971Y-103057790D01*
X124793201Y-102952634D01*
X124622005Y-102893185D01*
X124600491Y-102885714D01*
X124600489Y-102885714D01*
X124594826Y-102883747D01*
X124588891Y-102882886D01*
X124588889Y-102882886D01*
X124392944Y-102854475D01*
X124392941Y-102854475D01*
X124387004Y-102853614D01*
X124177233Y-102863323D01*
X124053326Y-102893185D01*
X123978915Y-102911118D01*
X123978913Y-102911119D01*
X123973082Y-102912524D01*
X123967624Y-102915006D01*
X123967620Y-102915007D01*
X123851270Y-102967908D01*
X123781919Y-102999440D01*
X123610640Y-103120937D01*
X123465425Y-103272631D01*
X123451486Y-103294219D01*
X123443196Y-103307058D01*
X123389441Y-103353437D01*
X123319146Y-103363391D01*
X123254628Y-103333760D01*
X123238257Y-103316545D01*
X123142738Y-103194943D01*
X123134501Y-103186294D01*
X122983877Y-103055588D01*
X122974153Y-103048653D01*
X122801533Y-102948790D01*
X122790669Y-102943816D01*
X122602273Y-102878393D01*
X122601284Y-102878152D01*
X122590992Y-102879620D01*
X122587000Y-102893185D01*
X122587000Y-105568202D01*
X122590973Y-105581733D01*
X122600399Y-105583088D01*
X122689537Y-105561606D01*
X122700832Y-105557717D01*
X122882382Y-105475171D01*
X122892724Y-105469224D01*
X123055397Y-105353832D01*
X123064425Y-105346039D01*
X123202342Y-105201969D01*
X123209741Y-105192601D01*
X123232009Y-105158114D01*
X123285765Y-105111737D01*
X123356060Y-105101784D01*
X123420577Y-105131417D01*
X123436946Y-105148630D01*
X123528718Y-105265462D01*
X123528722Y-105265467D01*
X123532424Y-105270179D01*
X123536954Y-105274110D01*
X123536955Y-105274111D01*
X123664081Y-105384426D01*
X123702422Y-105444179D01*
X123707500Y-105479591D01*
X123707500Y-106299553D01*
X123687498Y-106367674D01*
X123646772Y-106407328D01*
X123520992Y-106483503D01*
X123419977Y-106584518D01*
X123357665Y-106618544D01*
X123286850Y-106613479D01*
X123256825Y-106597361D01*
X123235198Y-106581649D01*
X123229166Y-106578963D01*
X123229162Y-106578961D01*
X123114904Y-106528090D01*
X123062271Y-106504656D01*
X122944231Y-106479566D01*
X122883571Y-106466672D01*
X122883567Y-106466672D01*
X122877114Y-106465300D01*
X122687822Y-106465300D01*
X122681369Y-106466672D01*
X122681365Y-106466672D01*
X122620705Y-106479566D01*
X122502665Y-106504656D01*
X122329738Y-106581649D01*
X122324399Y-106585528D01*
X122324396Y-106585530D01*
X122278956Y-106618544D01*
X122176597Y-106692912D01*
X122049935Y-106833584D01*
X122046632Y-106839305D01*
X121963781Y-106982808D01*
X121955289Y-106997516D01*
X121896794Y-107177544D01*
X121877008Y-107365800D01*
X121877698Y-107372365D01*
X121893038Y-107518315D01*
X121896794Y-107554056D01*
X121898834Y-107560334D01*
X121937990Y-107680844D01*
X121940018Y-107751811D01*
X121903355Y-107812609D01*
X121839643Y-107843935D01*
X121818157Y-107845780D01*
X107112418Y-107845780D01*
X107101457Y-107845263D01*
X107094052Y-107843608D01*
X107032193Y-107845552D01*
X107026896Y-107845718D01*
X107022939Y-107845780D01*
X106995370Y-107845780D01*
X106991435Y-107846277D01*
X106991325Y-107846284D01*
X106979654Y-107847202D01*
X106944016Y-107848322D01*
X106936092Y-107848571D01*
X106928479Y-107850783D01*
X106928472Y-107850784D01*
X106917002Y-107854116D01*
X106897646Y-107858125D01*
X106895586Y-107858385D01*
X106877928Y-107860616D01*
X106870562Y-107863533D01*
X106870556Y-107863534D01*
X106837403Y-107876661D01*
X106826170Y-107880507D01*
X106791940Y-107890451D01*
X106791933Y-107890454D01*
X106784330Y-107892663D01*
X106777514Y-107896694D01*
X106777511Y-107896695D01*
X106767224Y-107902779D01*
X106749472Y-107911475D01*
X106742055Y-107914412D01*
X106730988Y-107918794D01*
X106724573Y-107923455D01*
X106724569Y-107923457D01*
X106695733Y-107944407D01*
X106685814Y-107950923D01*
X106655122Y-107969074D01*
X106655117Y-107969078D01*
X106648299Y-107973110D01*
X106634246Y-107987163D01*
X106619213Y-108000003D01*
X106603133Y-108011686D01*
X106598080Y-108017794D01*
X106575355Y-108045264D01*
X106567365Y-108054044D01*
X105880414Y-108740995D01*
X105818102Y-108775021D01*
X105791319Y-108777900D01*
X105500844Y-108777901D01*
X105479394Y-108777901D01*
X105476150Y-108778238D01*
X105476142Y-108778238D01*
X105431720Y-108782847D01*
X105378228Y-108788397D01*
X105217748Y-108841937D01*
X105073889Y-108930960D01*
X104954369Y-109050689D01*
X104950529Y-109056919D01*
X104950528Y-109056920D01*
X104874759Y-109179840D01*
X104865597Y-109194703D01*
X104812337Y-109355276D01*
X104802100Y-109455193D01*
X104802101Y-110051606D01*
X104802438Y-110054850D01*
X104802438Y-110054858D01*
X104807500Y-110103643D01*
X104794635Y-110173464D01*
X104771268Y-110205742D01*
X104138495Y-110838514D01*
X104076183Y-110872539D01*
X104005367Y-110867474D01*
X103948532Y-110824927D01*
X103923721Y-110758407D01*
X103923400Y-110749418D01*
X103923400Y-109284617D01*
X103943402Y-109216496D01*
X103971138Y-109185870D01*
X103973886Y-109183692D01*
X103980111Y-109179840D01*
X104099631Y-109060111D01*
X104176047Y-108936142D01*
X104184563Y-108922327D01*
X104184564Y-108922325D01*
X104188403Y-108916097D01*
X104241663Y-108755524D01*
X104251900Y-108655607D01*
X104251899Y-108109194D01*
X104241403Y-108008028D01*
X104187863Y-107847548D01*
X104117649Y-107734084D01*
X104102694Y-107709916D01*
X104102691Y-107709913D01*
X104098840Y-107703689D01*
X104091623Y-107696484D01*
X104090675Y-107694752D01*
X104089111Y-107692779D01*
X104089449Y-107692511D01*
X104057542Y-107634203D01*
X104062543Y-107563383D01*
X104091466Y-107518290D01*
X104094460Y-107515291D01*
X104099631Y-107510111D01*
X104183851Y-107373482D01*
X104184563Y-107372327D01*
X104184564Y-107372325D01*
X104188403Y-107366097D01*
X104241663Y-107205524D01*
X104251900Y-107105607D01*
X104251899Y-106824086D01*
X104271901Y-106755967D01*
X104288804Y-106734992D01*
X105090446Y-105933350D01*
X105103888Y-105921685D01*
X105113337Y-105914590D01*
X105122919Y-105907396D01*
X105132671Y-105897845D01*
X105135735Y-105893937D01*
X105140937Y-105887725D01*
X105328023Y-105678376D01*
X105330368Y-105675752D01*
X105502410Y-105433282D01*
X105646222Y-105173073D01*
X105759996Y-104898400D01*
X105764080Y-104884226D01*
X105786147Y-104807629D01*
X105842301Y-104612714D01*
X105877526Y-104405393D01*
X105907152Y-104344669D01*
X107142001Y-104344669D01*
X107142371Y-104351490D01*
X107147895Y-104402352D01*
X107151521Y-104417604D01*
X107196676Y-104538054D01*
X107205214Y-104553649D01*
X107281715Y-104655724D01*
X107294276Y-104668285D01*
X107396351Y-104744786D01*
X107411946Y-104753324D01*
X107532394Y-104798478D01*
X107547649Y-104802105D01*
X107598514Y-104807631D01*
X107605328Y-104808000D01*
X108052885Y-104808000D01*
X108068124Y-104803525D01*
X108069329Y-104802135D01*
X108071000Y-104794452D01*
X108071000Y-104789884D01*
X108579000Y-104789884D01*
X108583475Y-104805123D01*
X108584865Y-104806328D01*
X108592548Y-104807999D01*
X109044669Y-104807999D01*
X109051490Y-104807629D01*
X109102352Y-104802105D01*
X109117604Y-104798479D01*
X109238054Y-104753324D01*
X109253649Y-104744786D01*
X109355724Y-104668285D01*
X109368285Y-104655724D01*
X109444786Y-104553649D01*
X109453324Y-104538054D01*
X109498478Y-104417606D01*
X109502105Y-104402351D01*
X109507631Y-104351486D01*
X109508000Y-104344672D01*
X109508000Y-103000000D01*
X113394551Y-103000000D01*
X113414317Y-103251148D01*
X113415471Y-103255955D01*
X113415472Y-103255961D01*
X113441264Y-103363391D01*
X113473127Y-103496111D01*
X113475020Y-103500682D01*
X113475021Y-103500684D01*
X113500088Y-103561200D01*
X113569534Y-103728859D01*
X113701164Y-103943659D01*
X113704376Y-103947419D01*
X113704379Y-103947424D01*
X113729750Y-103977129D01*
X113864776Y-104135224D01*
X113868538Y-104138437D01*
X114052576Y-104295621D01*
X114052581Y-104295624D01*
X114056341Y-104298836D01*
X114271141Y-104430466D01*
X114275711Y-104432359D01*
X114275715Y-104432361D01*
X114450877Y-104504915D01*
X114503889Y-104526873D01*
X114588289Y-104547135D01*
X114744039Y-104584528D01*
X114744045Y-104584529D01*
X114748852Y-104585683D01*
X114837149Y-104592632D01*
X114934661Y-104600307D01*
X114934670Y-104600307D01*
X114937118Y-104600500D01*
X115062882Y-104600500D01*
X115065330Y-104600307D01*
X115065339Y-104600307D01*
X115162851Y-104592632D01*
X115251148Y-104585683D01*
X115255955Y-104584529D01*
X115255961Y-104584528D01*
X115367989Y-104557632D01*
X121225000Y-104557632D01*
X121225285Y-104563608D01*
X121239471Y-104712294D01*
X121241730Y-104724028D01*
X121297872Y-104915399D01*
X121302302Y-104926475D01*
X121393619Y-105103778D01*
X121400069Y-105113824D01*
X121523262Y-105270657D01*
X121531499Y-105279306D01*
X121682123Y-105410012D01*
X121691847Y-105416947D01*
X121864467Y-105516810D01*
X121875331Y-105521784D01*
X122063727Y-105587207D01*
X122064716Y-105587448D01*
X122075008Y-105585980D01*
X122079000Y-105572415D01*
X122079000Y-104504915D01*
X122074525Y-104489676D01*
X122073135Y-104488471D01*
X122065452Y-104486800D01*
X121243115Y-104486800D01*
X121227876Y-104491275D01*
X121226671Y-104492665D01*
X121225000Y-104500348D01*
X121225000Y-104557632D01*
X115367989Y-104557632D01*
X115411711Y-104547135D01*
X115496111Y-104526873D01*
X115549123Y-104504915D01*
X115724285Y-104432361D01*
X115724289Y-104432359D01*
X115728859Y-104430466D01*
X115943659Y-104298836D01*
X115947419Y-104295624D01*
X115947424Y-104295621D01*
X116131462Y-104138437D01*
X116135224Y-104135224D01*
X116270250Y-103977129D01*
X116284295Y-103960685D01*
X121225000Y-103960685D01*
X121229475Y-103975924D01*
X121230865Y-103977129D01*
X121238548Y-103978800D01*
X122060885Y-103978800D01*
X122076124Y-103974325D01*
X122077329Y-103972935D01*
X122079000Y-103965252D01*
X122079000Y-102897398D01*
X122075027Y-102883867D01*
X122065601Y-102882512D01*
X121976463Y-102903994D01*
X121965168Y-102907883D01*
X121783618Y-102990429D01*
X121773276Y-102996376D01*
X121610603Y-103111768D01*
X121601575Y-103119561D01*
X121463658Y-103263631D01*
X121456262Y-103272996D01*
X121348079Y-103440541D01*
X121342583Y-103451145D01*
X121268039Y-103636112D01*
X121264645Y-103647570D01*
X121226143Y-103844728D01*
X121225066Y-103853591D01*
X121225000Y-103856300D01*
X121225000Y-103960685D01*
X116284295Y-103960685D01*
X116295621Y-103947424D01*
X116295624Y-103947419D01*
X116298836Y-103943659D01*
X116430466Y-103728859D01*
X116499913Y-103561200D01*
X116524979Y-103500684D01*
X116524980Y-103500682D01*
X116526873Y-103496111D01*
X116558736Y-103363391D01*
X116584528Y-103255961D01*
X116584529Y-103255955D01*
X116585683Y-103251148D01*
X116605449Y-103000000D01*
X116585683Y-102748852D01*
X116526873Y-102503889D01*
X116506901Y-102455671D01*
X116432361Y-102275715D01*
X116432359Y-102275711D01*
X116430466Y-102271141D01*
X116298836Y-102056341D01*
X116295624Y-102052581D01*
X116295621Y-102052576D01*
X116138437Y-101868538D01*
X116135224Y-101864776D01*
X116117052Y-101849256D01*
X115947424Y-101704379D01*
X115947419Y-101704376D01*
X115943659Y-101701164D01*
X115728859Y-101569534D01*
X115724289Y-101567641D01*
X115724285Y-101567639D01*
X115500684Y-101475021D01*
X115500682Y-101475020D01*
X115496111Y-101473127D01*
X115411711Y-101452865D01*
X115255961Y-101415472D01*
X115255955Y-101415471D01*
X115251148Y-101414317D01*
X115162851Y-101407368D01*
X115065339Y-101399693D01*
X115065330Y-101399693D01*
X115062882Y-101399500D01*
X114937118Y-101399500D01*
X114934670Y-101399693D01*
X114934661Y-101399693D01*
X114837149Y-101407368D01*
X114748852Y-101414317D01*
X114744045Y-101415471D01*
X114744039Y-101415472D01*
X114588289Y-101452865D01*
X114503889Y-101473127D01*
X114499318Y-101475020D01*
X114499316Y-101475021D01*
X114275715Y-101567639D01*
X114275711Y-101567641D01*
X114271141Y-101569534D01*
X114056341Y-101701164D01*
X114052581Y-101704376D01*
X114052576Y-101704379D01*
X113882948Y-101849256D01*
X113864776Y-101864776D01*
X113861563Y-101868538D01*
X113704379Y-102052576D01*
X113704376Y-102052581D01*
X113701164Y-102056341D01*
X113569534Y-102271141D01*
X113567641Y-102275711D01*
X113567639Y-102275715D01*
X113493099Y-102455671D01*
X113473127Y-102503889D01*
X113414317Y-102748852D01*
X113394551Y-103000000D01*
X109508000Y-103000000D01*
X109508000Y-102472115D01*
X109503525Y-102456876D01*
X109502135Y-102455671D01*
X109494452Y-102454000D01*
X108597115Y-102454000D01*
X108581876Y-102458475D01*
X108580671Y-102459865D01*
X108579000Y-102467548D01*
X108579000Y-104789884D01*
X108071000Y-104789884D01*
X108071000Y-102472115D01*
X108066525Y-102456876D01*
X108065135Y-102455671D01*
X108057452Y-102454000D01*
X107160116Y-102454000D01*
X107144877Y-102458475D01*
X107143672Y-102459865D01*
X107142001Y-102467548D01*
X107142001Y-104344669D01*
X105907152Y-104344669D01*
X105908656Y-104341586D01*
X105969342Y-104304737D01*
X106001746Y-104300499D01*
X106182376Y-104300499D01*
X106185770Y-104300130D01*
X106185776Y-104300130D01*
X106235722Y-104294705D01*
X106235726Y-104294704D01*
X106243580Y-104293851D01*
X106377824Y-104243526D01*
X106385003Y-104238146D01*
X106385006Y-104238144D01*
X106485365Y-104162928D01*
X106492546Y-104157546D01*
X106512095Y-104131462D01*
X106573144Y-104050006D01*
X106573146Y-104050003D01*
X106578526Y-104042824D01*
X106628851Y-103908580D01*
X106635500Y-103847377D01*
X106635499Y-100626000D01*
X106655501Y-100557879D01*
X106709157Y-100511386D01*
X106761499Y-100500000D01*
X107016000Y-100500000D01*
X107084121Y-100520002D01*
G37*
%TD.AperFunction*%
%TD*%
M02*
