M48
; DRILL file {KiCad (6.0.1)} date Fri Feb 11 18:03:00 2022
; FORMAT={-:-/ absolute / metric / decimal}
; #@! TF.CreationDate,2022-02-11T18:03:00+00:00
; #@! TF.GenerationSoftware,Kicad,Pcbnew,(6.0.1)
; #@! TF.FileFunction,MixedPlating,1,4
FMAT,2
METRIC
; #@! TA.AperFunction,Plated,PTH,ViaDrill
T1C0.400
; #@! TA.AperFunction,Plated,PTH,ComponentDrill
T2C0.750
; #@! TA.AperFunction,NonPlated,NPTH,ComponentDrill
T3C2.200
%
G90
G05
T1
X100.914Y-100.99
X100.914Y-102.591
X100.94Y-104.013
X101.397Y-114.3
X101.905Y-107.594
X101.93Y-106.096
X101.93Y-109.144
X102.006Y-110.693
X102.006Y-111.862
X102.337Y-113.055
X102.337Y-117.45
X102.438Y-105.054
X103.022Y-114.351
X103.556Y-105.029
X104.064Y-103.937
X104.115Y-102.489
X104.165Y-100.863
X104.343Y-110.007
X104.699Y-108.458
X104.75Y-107.112
X104.775Y-118.999
X104.8Y-117.577
X105.207Y-116.408
X105.232Y-114.63
X105.461Y-106.197
X106.197Y-119.634
X106.299Y-105.181
X106.324Y-107.721
X106.375Y-111.074
X106.883Y-100.736
X106.909Y-102.464
X106.909Y-103.988
X107.467Y-115.062
X107.696Y-113.36
X107.823Y-116.637
X107.95Y-119.685
X108.001Y-121.361
X108.001Y-123.139
X108.001Y-124.816
X108.001Y-126.543
X108.052Y-107.29
X108.077Y-105.029
X108.102Y-111.074
X109.423Y-116.535
X109.576Y-127.914
X110.033Y-100.99
X110.033Y-102.413
X110.033Y-104.013
X110.033Y-111.125
X110.084Y-113.614
X110.973Y-123.139
X110.973Y-124.841
X111.023Y-119.685
X111.023Y-121.437
X111.036Y-126.48
X111.1Y-114.884
X111.15Y-104.648
X112.065Y-111.125
X112.192Y-113.513
X112.751Y-114.833
X112.751Y-119.71
X112.751Y-123.038
X112.814Y-126.48
X112.827Y-121.412
X112.827Y-124.866
X114.148Y-111.125
X114.198Y-113.513
X114.478Y-116.484
X114.529Y-128.092
X115.976Y-123.241
X116.002Y-119.888
X116.129Y-114.783
X116.217Y-126.53
X116.307Y-111.125
X116.332Y-113.589
X117.831Y-114.884
X117.944Y-126.53
X117.958Y-119.761
X117.983Y-123.165
X118.237Y-104.521
X118.516Y-111.125
X118.618Y-113.614
X119.482Y-128.016
X119.507Y-116.484
X120.345Y-104.267
X120.701Y-113.563
X120.777Y-111.1
X120.904Y-114.681
X120.955Y-123.063
X121.006Y-119.863
X121.043Y-126.53
X121.717Y-107.366
X122.377Y-101.448
X122.782Y-107.366
X122.809Y-114.681
X122.897Y-126.53
X122.911Y-111.049
X122.911Y-113.614
X123.012Y-119.761
X123.038Y-122.987
X124.333Y-116.307
X124.562Y-128.067
X125.019Y-111.125
X125.044Y-113.64
X125.959Y-122.936
X126.187Y-119.786
X126.2Y-126.53
X126.314Y-116.611
X127.178Y-111.125
X127.279Y-113.614
X127.838Y-122.911
X127.864Y-119.786
X128.105Y-126.53
X129.184Y-111.176
X129.261Y-113.614
X129.591Y-116.865
X129.718Y-128.168
X130.988Y-104.648
X131.115Y-119.837
X131.178Y-126.632
X131.191Y-123.114
X131.293Y-111.15
X131.369Y-113.64
X132.893Y-116.891
X133.045Y-119.71
X133.083Y-126.632
X133.121Y-123.063
X133.528Y-113.614
X133.553Y-111.15
X134.823Y-128.143
X135.941Y-111.125
X135.992Y-113.589
X136.195Y-123.012
X136.22Y-119.964
X136.334Y-126.632
X136.373Y-116.865
X137.96Y-126.632
X138.176Y-123.063
X138.252Y-111.1
X138.278Y-119.939
X138.303Y-113.589
X138.354Y-104.572
X139.7Y-128.295
X139.725Y-116.916
X140.03Y-102.438
X140.081Y-100.863
X140.081Y-104.572
X140.64Y-111.1
X140.665Y-113.589
X141.199Y-126.619
X141.326Y-119.913
X141.326Y-123.088
X141.605Y-114.148
X141.605Y-115.519
X141.63Y-116.942
X141.884Y-106.02
X142.875Y-107.518
X143.104Y-100.965
X143.129Y-102.438
X143.332Y-119.913
X143.434Y-111.15
X143.459Y-104.699
X143.84Y-114.452
X144.094Y-106.045
X144.323Y-117.018
X144.399Y-118.491
X145.44Y-107.391
X145.44Y-109.017
X145.694Y-114.3
X145.745Y-110.846
X145.847Y-104.445
X145.923Y-101.016
X145.948Y-102.565
X146.558Y-117.145
X146.685Y-113.208
X147.549Y-105.689
X148.082Y-115.392
X148.107Y-109.931
X148.133Y-111.582
X148.438Y-108.483
X148.463Y-107.01
X148.92Y-104.165
X148.946Y-101.016
X148.996Y-102.54
T2
X122.333Y-104.233
X124.333Y-104.233
X126.333Y-104.233
T3
X103.0Y-127.0
X115.0Y-103.0
X135.0Y-103.0
X147.0Y-127.0
T0
M30
