%TF.GenerationSoftware,KiCad,Pcbnew,(6.0.1)*%
%TF.CreationDate,2022-02-11T18:02:55+00:00*%
%TF.ProjectId,Broadcast_Filter,42726f61-6463-4617-9374-5f46696c7465,rev?*%
%TF.SameCoordinates,Original*%
%TF.FileFunction,Copper,L2,Inr*%
%TF.FilePolarity,Positive*%
%FSLAX46Y46*%
G04 Gerber Fmt 4.6, Leading zero omitted, Abs format (unit mm)*
G04 Created by KiCad (PCBNEW (6.0.1)) date 2022-02-11 18:02:55*
%MOMM*%
%LPD*%
G01*
G04 APERTURE LIST*
G04 Aperture macros list*
%AMRoundRect*
0 Rectangle with rounded corners*
0 $1 Rounding radius*
0 $2 $3 $4 $5 $6 $7 $8 $9 X,Y pos of 4 corners*
0 Add a 4 corners polygon primitive as box body*
4,1,4,$2,$3,$4,$5,$6,$7,$8,$9,$2,$3,0*
0 Add four circle primitives for the rounded corners*
1,1,$1+$1,$2,$3*
1,1,$1+$1,$4,$5*
1,1,$1+$1,$6,$7*
1,1,$1+$1,$8,$9*
0 Add four rect primitives between the rounded corners*
20,1,$1+$1,$2,$3,$4,$5,0*
20,1,$1+$1,$4,$5,$6,$7,0*
20,1,$1+$1,$6,$7,$8,$9,0*
20,1,$1+$1,$8,$9,$2,$3,0*%
G04 Aperture macros list end*
%TA.AperFunction,ComponentPad*%
%ADD10RoundRect,0.250000X0.350000X0.625000X-0.350000X0.625000X-0.350000X-0.625000X0.350000X-0.625000X0*%
%TD*%
%TA.AperFunction,ComponentPad*%
%ADD11O,1.200000X1.750000*%
%TD*%
%TA.AperFunction,ViaPad*%
%ADD12C,0.800000*%
%TD*%
G04 APERTURE END LIST*
D10*
%TO.N,Net-(J2-Pad1)*%
%TO.C,J2*%
X126333000Y-104232800D03*
D11*
%TO.N,Net-(J2-Pad2)*%
X124333000Y-104232800D03*
%TO.N,GND*%
X122333000Y-104232800D03*
%TD*%
D12*
%TO.N,GND*%
X127838200Y-122910600D03*
X148082000Y-115392200D03*
X100914200Y-102590600D03*
X106375200Y-111074200D03*
X140665200Y-113588800D03*
X110032800Y-104013000D03*
X125018800Y-111125000D03*
X107467400Y-115062000D03*
X126187200Y-119786400D03*
X126314200Y-116611400D03*
X119507000Y-116484400D03*
X105206800Y-116408200D03*
X129184400Y-111175800D03*
X106197400Y-119634000D03*
X131177900Y-126632100D03*
X116332000Y-113588800D03*
X146685000Y-113207800D03*
X107950000Y-119684800D03*
X126199500Y-126530500D03*
X105460800Y-106197400D03*
X104749600Y-107111800D03*
X110032800Y-100990400D03*
X128104500Y-126530500D03*
X111035700Y-126479700D03*
X104698800Y-108458000D03*
X140639800Y-111099600D03*
X133527800Y-113614200D03*
X124333000Y-116306600D03*
X136220200Y-119964200D03*
X108000800Y-123139200D03*
X102006400Y-110693200D03*
X109575600Y-127914400D03*
X123037600Y-122986800D03*
X130987800Y-104648000D03*
X106908600Y-102463600D03*
X115976400Y-123240800D03*
X148437600Y-108483400D03*
X140081000Y-100863400D03*
X122897500Y-126530500D03*
X139700000Y-128295400D03*
X117830600Y-114884200D03*
X138252200Y-111099600D03*
X106324400Y-107721400D03*
X101930200Y-106095800D03*
X129260600Y-113614200D03*
X148945600Y-101015800D03*
X120345200Y-104267000D03*
X140030200Y-102438200D03*
X118237000Y-104521000D03*
X132892800Y-116890800D03*
X112750600Y-114833400D03*
X116128800Y-114782600D03*
X108077000Y-105029000D03*
X112813700Y-126479700D03*
X138277600Y-119938800D03*
X141325600Y-123088400D03*
X121716800Y-107365800D03*
X116001800Y-119888000D03*
X135991600Y-113588800D03*
X143129000Y-102438200D03*
X143332200Y-119913400D03*
X120700800Y-113563400D03*
X102336600Y-113055400D03*
X120954800Y-123063000D03*
X127279400Y-113614200D03*
X116217300Y-126530500D03*
X145846800Y-104444800D03*
X102336600Y-117449600D03*
X112750600Y-119710200D03*
X120777000Y-111099600D03*
X143459200Y-104698800D03*
X143103600Y-100965000D03*
X141605000Y-114147600D03*
X131368800Y-113639600D03*
X100939600Y-104013000D03*
X136194800Y-123012200D03*
X114477800Y-116484400D03*
X108000800Y-126542800D03*
X148996400Y-102539800D03*
X110083600Y-113614200D03*
X111023400Y-121437400D03*
X100914200Y-100990400D03*
X104775000Y-118999000D03*
X145948400Y-102565200D03*
X108051600Y-107289600D03*
X142875000Y-107518200D03*
X107823000Y-116636800D03*
X112064800Y-111125000D03*
X125044200Y-113639600D03*
X147548600Y-105689400D03*
X102006400Y-111861600D03*
X120904000Y-114681000D03*
X139725400Y-116916200D03*
X118516400Y-111125000D03*
X106908600Y-103987600D03*
X122910600Y-113614200D03*
X123012200Y-119761000D03*
X110032800Y-102412800D03*
X104114600Y-102489000D03*
X135940800Y-111125000D03*
X145923000Y-101015800D03*
X112826800Y-124866400D03*
X101904800Y-107594400D03*
X143840200Y-114452400D03*
X148132800Y-111582200D03*
X145440400Y-109016800D03*
X137959700Y-126632100D03*
X131191000Y-123113800D03*
X129717800Y-128168400D03*
X110972600Y-124841000D03*
X103555800Y-105029000D03*
X140081000Y-104571800D03*
X144399000Y-118491000D03*
X109423200Y-116535200D03*
X144094200Y-106045000D03*
X114147600Y-111125000D03*
X106883200Y-100736400D03*
X108102400Y-111074200D03*
X121005600Y-119862600D03*
X131292600Y-111150400D03*
X112750600Y-123037600D03*
X141884400Y-106019600D03*
X117983000Y-123164600D03*
X127177800Y-111125000D03*
X131114800Y-119837200D03*
X111150400Y-104648000D03*
X104063800Y-103936800D03*
X114198400Y-113512600D03*
X102438200Y-105054400D03*
X125958600Y-122936000D03*
X148920200Y-104165400D03*
X122910600Y-111048800D03*
X145440400Y-107391200D03*
X146558000Y-117144800D03*
X107696000Y-113360200D03*
X134823200Y-128143000D03*
X129590800Y-116865400D03*
X104343200Y-110007400D03*
X101930200Y-109143800D03*
X145745200Y-110845600D03*
X138303000Y-113588800D03*
X119481600Y-128016000D03*
X111023400Y-119684800D03*
X104800400Y-117576600D03*
X133045200Y-119710200D03*
X141198600Y-126619000D03*
X110032800Y-111125000D03*
X136334100Y-126632100D03*
X101396800Y-114300000D03*
X105232200Y-114630200D03*
X133553200Y-111150400D03*
X138353800Y-104571800D03*
X121043300Y-126530500D03*
X118618000Y-113614200D03*
X112191800Y-113512600D03*
X144322800Y-117017800D03*
X108000800Y-124815600D03*
X117944500Y-126530500D03*
X122377200Y-101447600D03*
X133082900Y-126632100D03*
X141630400Y-116941600D03*
X127863600Y-119786400D03*
X110972600Y-123139200D03*
X122809000Y-114681000D03*
X117957600Y-119761000D03*
X133121400Y-123063000D03*
X136372600Y-116865400D03*
X104165400Y-100863400D03*
X114528600Y-128092200D03*
X141605000Y-115519200D03*
X124561600Y-128066800D03*
X111099600Y-114884200D03*
X138176000Y-123063000D03*
X141325600Y-119913400D03*
X112826800Y-121412000D03*
X143433800Y-111150400D03*
X148107400Y-109931200D03*
X148463000Y-107010200D03*
X106299000Y-105181400D03*
X116306600Y-111125000D03*
X108000800Y-121361200D03*
%TO.N,/Thru*%
X103022400Y-114350800D03*
X122782468Y-107365800D03*
X145694400Y-114300000D03*
%TD*%
%TA.AperFunction,Conductor*%
%TO.N,GND*%
G36*
X149442121Y-100520002D02*
G01*
X149488614Y-100573658D01*
X149500000Y-100626000D01*
X149500000Y-129374000D01*
X149479998Y-129442121D01*
X149426342Y-129488614D01*
X149374000Y-129500000D01*
X100626000Y-129500000D01*
X100557879Y-129479998D01*
X100511386Y-129426342D01*
X100500000Y-129374000D01*
X100500000Y-127000000D01*
X101394551Y-127000000D01*
X101414317Y-127251148D01*
X101473127Y-127496111D01*
X101569534Y-127728859D01*
X101701164Y-127943659D01*
X101704376Y-127947419D01*
X101704379Y-127947424D01*
X101849256Y-128117052D01*
X101864776Y-128135224D01*
X101868538Y-128138437D01*
X102052576Y-128295621D01*
X102052581Y-128295624D01*
X102056341Y-128298836D01*
X102271141Y-128430466D01*
X102275711Y-128432359D01*
X102275715Y-128432361D01*
X102499316Y-128524979D01*
X102503889Y-128526873D01*
X102588289Y-128547135D01*
X102744039Y-128584528D01*
X102744045Y-128584529D01*
X102748852Y-128585683D01*
X102837149Y-128592632D01*
X102934661Y-128600307D01*
X102934670Y-128600307D01*
X102937118Y-128600500D01*
X103062882Y-128600500D01*
X103065330Y-128600307D01*
X103065339Y-128600307D01*
X103162851Y-128592632D01*
X103251148Y-128585683D01*
X103255955Y-128584529D01*
X103255961Y-128584528D01*
X103411711Y-128547135D01*
X103496111Y-128526873D01*
X103500684Y-128524979D01*
X103724285Y-128432361D01*
X103724289Y-128432359D01*
X103728859Y-128430466D01*
X103943659Y-128298836D01*
X103947419Y-128295624D01*
X103947424Y-128295621D01*
X104131462Y-128138437D01*
X104135224Y-128135224D01*
X104150744Y-128117052D01*
X104295621Y-127947424D01*
X104295624Y-127947419D01*
X104298836Y-127943659D01*
X104430466Y-127728859D01*
X104526873Y-127496111D01*
X104585683Y-127251148D01*
X104605449Y-127000000D01*
X145394551Y-127000000D01*
X145414317Y-127251148D01*
X145473127Y-127496111D01*
X145569534Y-127728859D01*
X145701164Y-127943659D01*
X145704376Y-127947419D01*
X145704379Y-127947424D01*
X145849256Y-128117052D01*
X145864776Y-128135224D01*
X145868538Y-128138437D01*
X146052576Y-128295621D01*
X146052581Y-128295624D01*
X146056341Y-128298836D01*
X146271141Y-128430466D01*
X146275711Y-128432359D01*
X146275715Y-128432361D01*
X146499316Y-128524979D01*
X146503889Y-128526873D01*
X146588289Y-128547135D01*
X146744039Y-128584528D01*
X146744045Y-128584529D01*
X146748852Y-128585683D01*
X146837149Y-128592632D01*
X146934661Y-128600307D01*
X146934670Y-128600307D01*
X146937118Y-128600500D01*
X147062882Y-128600500D01*
X147065330Y-128600307D01*
X147065339Y-128600307D01*
X147162851Y-128592632D01*
X147251148Y-128585683D01*
X147255955Y-128584529D01*
X147255961Y-128584528D01*
X147411711Y-128547135D01*
X147496111Y-128526873D01*
X147500684Y-128524979D01*
X147724285Y-128432361D01*
X147724289Y-128432359D01*
X147728859Y-128430466D01*
X147943659Y-128298836D01*
X147947419Y-128295624D01*
X147947424Y-128295621D01*
X148131462Y-128138437D01*
X148135224Y-128135224D01*
X148150744Y-128117052D01*
X148295621Y-127947424D01*
X148295624Y-127947419D01*
X148298836Y-127943659D01*
X148430466Y-127728859D01*
X148526873Y-127496111D01*
X148585683Y-127251148D01*
X148605449Y-127000000D01*
X148585683Y-126748852D01*
X148526873Y-126503889D01*
X148430466Y-126271141D01*
X148298836Y-126056341D01*
X148295624Y-126052581D01*
X148295621Y-126052576D01*
X148138437Y-125868538D01*
X148135224Y-125864776D01*
X148117052Y-125849256D01*
X147947424Y-125704379D01*
X147947419Y-125704376D01*
X147943659Y-125701164D01*
X147728859Y-125569534D01*
X147724289Y-125567641D01*
X147724285Y-125567639D01*
X147500684Y-125475021D01*
X147500682Y-125475020D01*
X147496111Y-125473127D01*
X147411711Y-125452865D01*
X147255961Y-125415472D01*
X147255955Y-125415471D01*
X147251148Y-125414317D01*
X147162851Y-125407368D01*
X147065339Y-125399693D01*
X147065330Y-125399693D01*
X147062882Y-125399500D01*
X146937118Y-125399500D01*
X146934670Y-125399693D01*
X146934661Y-125399693D01*
X146837149Y-125407368D01*
X146748852Y-125414317D01*
X146744045Y-125415471D01*
X146744039Y-125415472D01*
X146588289Y-125452865D01*
X146503889Y-125473127D01*
X146499318Y-125475020D01*
X146499316Y-125475021D01*
X146275715Y-125567639D01*
X146275711Y-125567641D01*
X146271141Y-125569534D01*
X146056341Y-125701164D01*
X146052581Y-125704376D01*
X146052576Y-125704379D01*
X145882948Y-125849256D01*
X145864776Y-125864776D01*
X145861563Y-125868538D01*
X145704379Y-126052576D01*
X145704376Y-126052581D01*
X145701164Y-126056341D01*
X145569534Y-126271141D01*
X145473127Y-126503889D01*
X145414317Y-126748852D01*
X145394551Y-127000000D01*
X104605449Y-127000000D01*
X104585683Y-126748852D01*
X104526873Y-126503889D01*
X104430466Y-126271141D01*
X104298836Y-126056341D01*
X104295624Y-126052581D01*
X104295621Y-126052576D01*
X104138437Y-125868538D01*
X104135224Y-125864776D01*
X104117052Y-125849256D01*
X103947424Y-125704379D01*
X103947419Y-125704376D01*
X103943659Y-125701164D01*
X103728859Y-125569534D01*
X103724289Y-125567641D01*
X103724285Y-125567639D01*
X103500684Y-125475021D01*
X103500682Y-125475020D01*
X103496111Y-125473127D01*
X103411711Y-125452865D01*
X103255961Y-125415472D01*
X103255955Y-125415471D01*
X103251148Y-125414317D01*
X103162851Y-125407368D01*
X103065339Y-125399693D01*
X103065330Y-125399693D01*
X103062882Y-125399500D01*
X102937118Y-125399500D01*
X102934670Y-125399693D01*
X102934661Y-125399693D01*
X102837149Y-125407368D01*
X102748852Y-125414317D01*
X102744045Y-125415471D01*
X102744039Y-125415472D01*
X102588289Y-125452865D01*
X102503889Y-125473127D01*
X102499318Y-125475020D01*
X102499316Y-125475021D01*
X102275715Y-125567639D01*
X102275711Y-125567641D01*
X102271141Y-125569534D01*
X102056341Y-125701164D01*
X102052581Y-125704376D01*
X102052576Y-125704379D01*
X101882948Y-125849256D01*
X101864776Y-125864776D01*
X101861563Y-125868538D01*
X101704379Y-126052576D01*
X101704376Y-126052581D01*
X101701164Y-126056341D01*
X101569534Y-126271141D01*
X101473127Y-126503889D01*
X101414317Y-126748852D01*
X101394551Y-127000000D01*
X100500000Y-127000000D01*
X100500000Y-114350800D01*
X102116940Y-114350800D01*
X102117630Y-114357365D01*
X102132047Y-114494534D01*
X102136726Y-114539056D01*
X102195221Y-114719084D01*
X102289867Y-114883016D01*
X102294285Y-114887923D01*
X102294286Y-114887924D01*
X102366374Y-114967985D01*
X102416529Y-115023688D01*
X102421868Y-115027567D01*
X102499750Y-115084151D01*
X102569670Y-115134951D01*
X102742597Y-115211944D01*
X102840612Y-115232778D01*
X102921297Y-115249928D01*
X102921301Y-115249928D01*
X102927754Y-115251300D01*
X103117046Y-115251300D01*
X103123499Y-115249928D01*
X103123503Y-115249928D01*
X103204188Y-115232778D01*
X103302203Y-115211944D01*
X103475130Y-115134951D01*
X103545051Y-115084151D01*
X103622932Y-115027567D01*
X103628271Y-115023688D01*
X103678427Y-114967985D01*
X103750514Y-114887924D01*
X103750515Y-114887923D01*
X103754933Y-114883016D01*
X103849579Y-114719084D01*
X103908074Y-114539056D01*
X103912754Y-114494534D01*
X103927170Y-114357365D01*
X103927860Y-114350800D01*
X103922521Y-114300000D01*
X144788940Y-114300000D01*
X144808726Y-114488256D01*
X144867221Y-114668284D01*
X144870524Y-114674006D01*
X144870525Y-114674007D01*
X144951632Y-114814488D01*
X144961867Y-114832216D01*
X144966285Y-114837123D01*
X144966286Y-114837124D01*
X145007608Y-114883016D01*
X145088529Y-114972888D01*
X145241670Y-115084151D01*
X145414597Y-115161144D01*
X145512612Y-115181978D01*
X145593297Y-115199128D01*
X145593301Y-115199128D01*
X145599754Y-115200500D01*
X145789046Y-115200500D01*
X145795499Y-115199128D01*
X145795503Y-115199128D01*
X145876188Y-115181978D01*
X145974203Y-115161144D01*
X146147130Y-115084151D01*
X146300271Y-114972888D01*
X146381193Y-114883016D01*
X146422514Y-114837124D01*
X146422515Y-114837123D01*
X146426933Y-114832216D01*
X146437168Y-114814488D01*
X146518275Y-114674007D01*
X146518276Y-114674006D01*
X146521579Y-114668284D01*
X146580074Y-114488256D01*
X146599860Y-114300000D01*
X146585413Y-114162544D01*
X146580764Y-114118307D01*
X146580764Y-114118305D01*
X146580074Y-114111744D01*
X146521579Y-113931716D01*
X146426933Y-113767784D01*
X146422514Y-113762876D01*
X146304686Y-113632015D01*
X146304684Y-113632014D01*
X146300271Y-113627112D01*
X146222392Y-113570530D01*
X146152472Y-113519730D01*
X146152471Y-113519729D01*
X146147130Y-113515849D01*
X145974203Y-113438856D01*
X145876188Y-113418022D01*
X145795503Y-113400872D01*
X145795499Y-113400872D01*
X145789046Y-113399500D01*
X145599754Y-113399500D01*
X145593301Y-113400872D01*
X145593297Y-113400872D01*
X145512612Y-113418022D01*
X145414597Y-113438856D01*
X145241670Y-113515849D01*
X145236329Y-113519729D01*
X145236328Y-113519730D01*
X145166408Y-113570530D01*
X145088529Y-113627112D01*
X145084116Y-113632014D01*
X145084114Y-113632015D01*
X144966286Y-113762876D01*
X144961867Y-113767784D01*
X144867221Y-113931716D01*
X144808726Y-114111744D01*
X144808036Y-114118305D01*
X144808036Y-114118307D01*
X144803387Y-114162544D01*
X144788940Y-114300000D01*
X103922521Y-114300000D01*
X103908074Y-114162544D01*
X103849579Y-113982516D01*
X103816946Y-113925993D01*
X103758236Y-113824305D01*
X103754933Y-113818584D01*
X103714344Y-113773505D01*
X103632686Y-113682815D01*
X103632684Y-113682814D01*
X103628271Y-113677912D01*
X103475130Y-113566649D01*
X103302203Y-113489656D01*
X103204188Y-113468822D01*
X103123503Y-113451672D01*
X103123499Y-113451672D01*
X103117046Y-113450300D01*
X102927754Y-113450300D01*
X102921301Y-113451672D01*
X102921297Y-113451672D01*
X102840612Y-113468822D01*
X102742597Y-113489656D01*
X102569670Y-113566649D01*
X102416529Y-113677912D01*
X102412116Y-113682814D01*
X102412114Y-113682815D01*
X102330456Y-113773505D01*
X102289867Y-113818584D01*
X102286564Y-113824305D01*
X102227855Y-113925993D01*
X102195221Y-113982516D01*
X102136726Y-114162544D01*
X102116940Y-114350800D01*
X100500000Y-114350800D01*
X100500000Y-107365800D01*
X121877008Y-107365800D01*
X121896794Y-107554056D01*
X121955289Y-107734084D01*
X122049935Y-107898016D01*
X122176597Y-108038688D01*
X122329738Y-108149951D01*
X122502665Y-108226944D01*
X122600680Y-108247778D01*
X122681365Y-108264928D01*
X122681369Y-108264928D01*
X122687822Y-108266300D01*
X122877114Y-108266300D01*
X122883567Y-108264928D01*
X122883571Y-108264928D01*
X122964256Y-108247778D01*
X123062271Y-108226944D01*
X123235198Y-108149951D01*
X123388339Y-108038688D01*
X123515001Y-107898016D01*
X123609647Y-107734084D01*
X123668142Y-107554056D01*
X123687928Y-107365800D01*
X123668142Y-107177544D01*
X123609647Y-106997516D01*
X123515001Y-106833584D01*
X123388339Y-106692912D01*
X123235198Y-106581649D01*
X123062271Y-106504656D01*
X122964256Y-106483822D01*
X122883571Y-106466672D01*
X122883567Y-106466672D01*
X122877114Y-106465300D01*
X122687822Y-106465300D01*
X122681369Y-106466672D01*
X122681365Y-106466672D01*
X122600680Y-106483822D01*
X122502665Y-106504656D01*
X122329738Y-106581649D01*
X122176597Y-106692912D01*
X122049935Y-106833584D01*
X121955289Y-106997516D01*
X121896794Y-107177544D01*
X121877008Y-107365800D01*
X100500000Y-107365800D01*
X100500000Y-103000000D01*
X113394551Y-103000000D01*
X113414317Y-103251148D01*
X113415471Y-103255955D01*
X113415472Y-103255961D01*
X113441264Y-103363391D01*
X113473127Y-103496111D01*
X113475020Y-103500682D01*
X113475021Y-103500684D01*
X113500088Y-103561200D01*
X113569534Y-103728859D01*
X113701164Y-103943659D01*
X113704376Y-103947419D01*
X113704379Y-103947424D01*
X113729750Y-103977129D01*
X113864776Y-104135224D01*
X113868538Y-104138437D01*
X114052576Y-104295621D01*
X114052581Y-104295624D01*
X114056341Y-104298836D01*
X114271141Y-104430466D01*
X114275711Y-104432359D01*
X114275715Y-104432361D01*
X114450877Y-104504915D01*
X114503889Y-104526873D01*
X114588289Y-104547135D01*
X114744039Y-104584528D01*
X114744045Y-104584529D01*
X114748852Y-104585683D01*
X114837149Y-104592632D01*
X114934661Y-104600307D01*
X114934670Y-104600307D01*
X114937118Y-104600500D01*
X115062882Y-104600500D01*
X115065330Y-104600307D01*
X115065339Y-104600307D01*
X115162851Y-104592632D01*
X115251148Y-104585683D01*
X115255955Y-104584529D01*
X115255961Y-104584528D01*
X115367989Y-104557632D01*
X121225000Y-104557632D01*
X121225285Y-104563608D01*
X121239471Y-104712294D01*
X121241730Y-104724028D01*
X121297872Y-104915399D01*
X121302302Y-104926475D01*
X121393619Y-105103778D01*
X121400069Y-105113824D01*
X121523262Y-105270657D01*
X121531499Y-105279306D01*
X121682123Y-105410012D01*
X121691847Y-105416947D01*
X121864467Y-105516810D01*
X121875331Y-105521784D01*
X122063727Y-105587207D01*
X122064716Y-105587448D01*
X122075008Y-105585980D01*
X122079000Y-105572415D01*
X122079000Y-105568202D01*
X122587000Y-105568202D01*
X122590973Y-105581733D01*
X122600399Y-105583088D01*
X122689537Y-105561606D01*
X122700832Y-105557717D01*
X122882382Y-105475171D01*
X122892724Y-105469224D01*
X123055397Y-105353832D01*
X123064425Y-105346039D01*
X123202342Y-105201969D01*
X123209741Y-105192601D01*
X123232009Y-105158114D01*
X123285765Y-105111737D01*
X123356060Y-105101784D01*
X123420577Y-105131417D01*
X123436946Y-105148630D01*
X123528718Y-105265462D01*
X123528722Y-105265467D01*
X123532424Y-105270179D01*
X123536954Y-105274110D01*
X123536955Y-105274111D01*
X123686498Y-105403879D01*
X123686503Y-105403883D01*
X123691029Y-105407810D01*
X123872799Y-105512966D01*
X123945466Y-105538200D01*
X124065509Y-105579886D01*
X124065511Y-105579886D01*
X124071174Y-105581853D01*
X124077109Y-105582714D01*
X124077111Y-105582714D01*
X124273056Y-105611125D01*
X124273059Y-105611125D01*
X124278996Y-105611986D01*
X124488767Y-105602277D01*
X124630155Y-105568202D01*
X124687085Y-105554482D01*
X124687087Y-105554481D01*
X124692918Y-105553076D01*
X124698376Y-105550594D01*
X124698380Y-105550593D01*
X124878626Y-105468640D01*
X124884081Y-105466160D01*
X125055360Y-105344663D01*
X125153173Y-105242486D01*
X125214728Y-105207110D01*
X125285638Y-105210629D01*
X125343388Y-105251925D01*
X125351326Y-105263301D01*
X125390834Y-105327145D01*
X125514689Y-105450784D01*
X125663666Y-105542614D01*
X125670614Y-105544919D01*
X125670615Y-105544919D01*
X125823241Y-105595544D01*
X125823243Y-105595545D01*
X125829772Y-105597710D01*
X125933134Y-105608300D01*
X126732866Y-105608300D01*
X126736112Y-105607963D01*
X126736116Y-105607963D01*
X126830661Y-105598153D01*
X126830665Y-105598152D01*
X126837519Y-105597441D01*
X126844055Y-105595260D01*
X126844057Y-105595260D01*
X126996581Y-105544374D01*
X127003529Y-105542056D01*
X127152345Y-105449966D01*
X127275984Y-105326111D01*
X127367814Y-105177134D01*
X127382978Y-105131417D01*
X127420744Y-105017559D01*
X127420745Y-105017557D01*
X127422910Y-105011028D01*
X127433500Y-104907666D01*
X127433500Y-103557934D01*
X127422641Y-103453281D01*
X127392652Y-103363391D01*
X127369574Y-103294219D01*
X127367256Y-103287271D01*
X127275166Y-103138455D01*
X127151311Y-103014816D01*
X127127275Y-103000000D01*
X133394551Y-103000000D01*
X133414317Y-103251148D01*
X133415471Y-103255955D01*
X133415472Y-103255961D01*
X133441264Y-103363391D01*
X133473127Y-103496111D01*
X133475020Y-103500682D01*
X133475021Y-103500684D01*
X133500088Y-103561200D01*
X133569534Y-103728859D01*
X133701164Y-103943659D01*
X133704376Y-103947419D01*
X133704379Y-103947424D01*
X133729750Y-103977129D01*
X133864776Y-104135224D01*
X133868538Y-104138437D01*
X134052576Y-104295621D01*
X134052581Y-104295624D01*
X134056341Y-104298836D01*
X134271141Y-104430466D01*
X134275711Y-104432359D01*
X134275715Y-104432361D01*
X134450877Y-104504915D01*
X134503889Y-104526873D01*
X134588289Y-104547135D01*
X134744039Y-104584528D01*
X134744045Y-104584529D01*
X134748852Y-104585683D01*
X134837149Y-104592632D01*
X134934661Y-104600307D01*
X134934670Y-104600307D01*
X134937118Y-104600500D01*
X135062882Y-104600500D01*
X135065330Y-104600307D01*
X135065339Y-104600307D01*
X135162851Y-104592632D01*
X135251148Y-104585683D01*
X135255955Y-104584529D01*
X135255961Y-104584528D01*
X135411711Y-104547135D01*
X135496111Y-104526873D01*
X135549123Y-104504915D01*
X135724285Y-104432361D01*
X135724289Y-104432359D01*
X135728859Y-104430466D01*
X135943659Y-104298836D01*
X135947419Y-104295624D01*
X135947424Y-104295621D01*
X136131462Y-104138437D01*
X136135224Y-104135224D01*
X136270250Y-103977129D01*
X136295621Y-103947424D01*
X136295624Y-103947419D01*
X136298836Y-103943659D01*
X136430466Y-103728859D01*
X136499913Y-103561200D01*
X136524979Y-103500684D01*
X136524980Y-103500682D01*
X136526873Y-103496111D01*
X136558736Y-103363391D01*
X136584528Y-103255961D01*
X136584529Y-103255955D01*
X136585683Y-103251148D01*
X136605449Y-103000000D01*
X136585683Y-102748852D01*
X136526873Y-102503889D01*
X136430466Y-102271141D01*
X136298836Y-102056341D01*
X136295624Y-102052581D01*
X136295621Y-102052576D01*
X136138437Y-101868538D01*
X136135224Y-101864776D01*
X136117052Y-101849256D01*
X135947424Y-101704379D01*
X135947419Y-101704376D01*
X135943659Y-101701164D01*
X135728859Y-101569534D01*
X135724289Y-101567641D01*
X135724285Y-101567639D01*
X135500684Y-101475021D01*
X135500682Y-101475020D01*
X135496111Y-101473127D01*
X135411711Y-101452865D01*
X135255961Y-101415472D01*
X135255955Y-101415471D01*
X135251148Y-101414317D01*
X135162851Y-101407368D01*
X135065339Y-101399693D01*
X135065330Y-101399693D01*
X135062882Y-101399500D01*
X134937118Y-101399500D01*
X134934670Y-101399693D01*
X134934661Y-101399693D01*
X134837149Y-101407368D01*
X134748852Y-101414317D01*
X134744045Y-101415471D01*
X134744039Y-101415472D01*
X134588289Y-101452865D01*
X134503889Y-101473127D01*
X134499318Y-101475020D01*
X134499316Y-101475021D01*
X134275715Y-101567639D01*
X134275711Y-101567641D01*
X134271141Y-101569534D01*
X134056341Y-101701164D01*
X134052581Y-101704376D01*
X134052576Y-101704379D01*
X133882948Y-101849256D01*
X133864776Y-101864776D01*
X133861563Y-101868538D01*
X133704379Y-102052576D01*
X133704376Y-102052581D01*
X133701164Y-102056341D01*
X133569534Y-102271141D01*
X133473127Y-102503889D01*
X133414317Y-102748852D01*
X133394551Y-103000000D01*
X127127275Y-103000000D01*
X127002334Y-102922986D01*
X126945076Y-102903994D01*
X126842759Y-102870056D01*
X126842757Y-102870055D01*
X126836228Y-102867890D01*
X126732866Y-102857300D01*
X125933134Y-102857300D01*
X125929888Y-102857637D01*
X125929884Y-102857637D01*
X125835339Y-102867447D01*
X125835335Y-102867448D01*
X125828481Y-102868159D01*
X125821945Y-102870340D01*
X125821943Y-102870340D01*
X125721070Y-102903994D01*
X125662471Y-102923544D01*
X125513655Y-103015634D01*
X125390016Y-103139489D01*
X125386176Y-103145719D01*
X125386175Y-103145720D01*
X125352719Y-103199996D01*
X125299947Y-103247489D01*
X125229875Y-103258913D01*
X125164751Y-103230639D01*
X125146376Y-103211716D01*
X125133576Y-103195421D01*
X125075106Y-103144683D01*
X124979502Y-103061721D01*
X124979497Y-103061717D01*
X124974971Y-103057790D01*
X124793201Y-102952634D01*
X124622005Y-102893185D01*
X124600491Y-102885714D01*
X124600489Y-102885714D01*
X124594826Y-102883747D01*
X124588891Y-102882886D01*
X124588889Y-102882886D01*
X124392944Y-102854475D01*
X124392941Y-102854475D01*
X124387004Y-102853614D01*
X124177233Y-102863323D01*
X124053326Y-102893185D01*
X123978915Y-102911118D01*
X123978913Y-102911119D01*
X123973082Y-102912524D01*
X123967624Y-102915006D01*
X123967620Y-102915007D01*
X123851270Y-102967908D01*
X123781919Y-102999440D01*
X123610640Y-103120937D01*
X123465425Y-103272631D01*
X123451486Y-103294219D01*
X123443196Y-103307058D01*
X123389441Y-103353437D01*
X123319146Y-103363391D01*
X123254628Y-103333760D01*
X123238257Y-103316545D01*
X123142738Y-103194943D01*
X123134501Y-103186294D01*
X122983877Y-103055588D01*
X122974153Y-103048653D01*
X122801533Y-102948790D01*
X122790669Y-102943816D01*
X122602273Y-102878393D01*
X122601284Y-102878152D01*
X122590992Y-102879620D01*
X122587000Y-102893185D01*
X122587000Y-105568202D01*
X122079000Y-105568202D01*
X122079000Y-104504915D01*
X122074525Y-104489676D01*
X122073135Y-104488471D01*
X122065452Y-104486800D01*
X121243115Y-104486800D01*
X121227876Y-104491275D01*
X121226671Y-104492665D01*
X121225000Y-104500348D01*
X121225000Y-104557632D01*
X115367989Y-104557632D01*
X115411711Y-104547135D01*
X115496111Y-104526873D01*
X115549123Y-104504915D01*
X115724285Y-104432361D01*
X115724289Y-104432359D01*
X115728859Y-104430466D01*
X115943659Y-104298836D01*
X115947419Y-104295624D01*
X115947424Y-104295621D01*
X116131462Y-104138437D01*
X116135224Y-104135224D01*
X116270250Y-103977129D01*
X116284295Y-103960685D01*
X121225000Y-103960685D01*
X121229475Y-103975924D01*
X121230865Y-103977129D01*
X121238548Y-103978800D01*
X122060885Y-103978800D01*
X122076124Y-103974325D01*
X122077329Y-103972935D01*
X122079000Y-103965252D01*
X122079000Y-102897398D01*
X122075027Y-102883867D01*
X122065601Y-102882512D01*
X121976463Y-102903994D01*
X121965168Y-102907883D01*
X121783618Y-102990429D01*
X121773276Y-102996376D01*
X121610603Y-103111768D01*
X121601575Y-103119561D01*
X121463658Y-103263631D01*
X121456262Y-103272996D01*
X121348079Y-103440541D01*
X121342583Y-103451145D01*
X121268039Y-103636112D01*
X121264645Y-103647570D01*
X121226143Y-103844728D01*
X121225066Y-103853591D01*
X121225000Y-103856300D01*
X121225000Y-103960685D01*
X116284295Y-103960685D01*
X116295621Y-103947424D01*
X116295624Y-103947419D01*
X116298836Y-103943659D01*
X116430466Y-103728859D01*
X116499913Y-103561200D01*
X116524979Y-103500684D01*
X116524980Y-103500682D01*
X116526873Y-103496111D01*
X116558736Y-103363391D01*
X116584528Y-103255961D01*
X116584529Y-103255955D01*
X116585683Y-103251148D01*
X116605449Y-103000000D01*
X116585683Y-102748852D01*
X116526873Y-102503889D01*
X116430466Y-102271141D01*
X116298836Y-102056341D01*
X116295624Y-102052581D01*
X116295621Y-102052576D01*
X116138437Y-101868538D01*
X116135224Y-101864776D01*
X116117052Y-101849256D01*
X115947424Y-101704379D01*
X115947419Y-101704376D01*
X115943659Y-101701164D01*
X115728859Y-101569534D01*
X115724289Y-101567641D01*
X115724285Y-101567639D01*
X115500684Y-101475021D01*
X115500682Y-101475020D01*
X115496111Y-101473127D01*
X115411711Y-101452865D01*
X115255961Y-101415472D01*
X115255955Y-101415471D01*
X115251148Y-101414317D01*
X115162851Y-101407368D01*
X115065339Y-101399693D01*
X115065330Y-101399693D01*
X115062882Y-101399500D01*
X114937118Y-101399500D01*
X114934670Y-101399693D01*
X114934661Y-101399693D01*
X114837149Y-101407368D01*
X114748852Y-101414317D01*
X114744045Y-101415471D01*
X114744039Y-101415472D01*
X114588289Y-101452865D01*
X114503889Y-101473127D01*
X114499318Y-101475020D01*
X114499316Y-101475021D01*
X114275715Y-101567639D01*
X114275711Y-101567641D01*
X114271141Y-101569534D01*
X114056341Y-101701164D01*
X114052581Y-101704376D01*
X114052576Y-101704379D01*
X113882948Y-101849256D01*
X113864776Y-101864776D01*
X113861563Y-101868538D01*
X113704379Y-102052576D01*
X113704376Y-102052581D01*
X113701164Y-102056341D01*
X113569534Y-102271141D01*
X113473127Y-102503889D01*
X113414317Y-102748852D01*
X113394551Y-103000000D01*
X100500000Y-103000000D01*
X100500000Y-100626000D01*
X100520002Y-100557879D01*
X100573658Y-100511386D01*
X100626000Y-100500000D01*
X149374000Y-100500000D01*
X149442121Y-100520002D01*
G37*
%TD.AperFunction*%
%TD*%
M02*
