%TF.GenerationSoftware,KiCad,Pcbnew,(6.0.1)*%
%TF.CreationDate,2022-02-11T18:02:55+00:00*%
%TF.ProjectId,Broadcast_Filter,42726f61-6463-4617-9374-5f46696c7465,rev?*%
%TF.SameCoordinates,Original*%
%TF.FileFunction,Paste,Top*%
%TF.FilePolarity,Positive*%
%FSLAX46Y46*%
G04 Gerber Fmt 4.6, Leading zero omitted, Abs format (unit mm)*
G04 Created by KiCad (PCBNEW (6.0.1)) date 2022-02-11 18:02:55*
%MOMM*%
%LPD*%
G01*
G04 APERTURE LIST*
G04 Aperture macros list*
%AMRoundRect*
0 Rectangle with rounded corners*
0 $1 Rounding radius*
0 $2 $3 $4 $5 $6 $7 $8 $9 X,Y pos of 4 corners*
0 Add a 4 corners polygon primitive as box body*
4,1,4,$2,$3,$4,$5,$6,$7,$8,$9,$2,$3,0*
0 Add four circle primitives for the rounded corners*
1,1,$1+$1,$2,$3*
1,1,$1+$1,$4,$5*
1,1,$1+$1,$6,$7*
1,1,$1+$1,$8,$9*
0 Add four rect primitives between the rounded corners*
20,1,$1+$1,$2,$3,$4,$5,0*
20,1,$1+$1,$4,$5,$6,$7,0*
20,1,$1+$1,$6,$7,$8,$9,0*
20,1,$1+$1,$8,$9,$2,$3,0*%
G04 Aperture macros list end*
%ADD10RoundRect,0.218750X-0.218750X-0.256250X0.218750X-0.256250X0.218750X0.256250X-0.218750X0.256250X0*%
%ADD11RoundRect,0.225000X0.250000X-0.225000X0.250000X0.225000X-0.250000X0.225000X-0.250000X-0.225000X0*%
%ADD12RoundRect,0.225000X0.225000X0.250000X-0.225000X0.250000X-0.225000X-0.250000X0.225000X-0.250000X0*%
%ADD13RoundRect,0.218750X-0.256250X0.218750X-0.256250X-0.218750X0.256250X-0.218750X0.256250X0.218750X0*%
%ADD14R,1.270000X3.600000*%
%ADD15R,1.350000X4.200000*%
%ADD16RoundRect,0.200000X0.275000X-0.200000X0.275000X0.200000X-0.275000X0.200000X-0.275000X-0.200000X0*%
%ADD17RoundRect,0.200000X0.200000X0.275000X-0.200000X0.275000X-0.200000X-0.275000X0.200000X-0.275000X0*%
%ADD18RoundRect,0.225000X-0.225000X-0.250000X0.225000X-0.250000X0.225000X0.250000X-0.225000X0.250000X0*%
%ADD19R,0.650000X0.400000*%
%ADD20RoundRect,0.225000X-0.250000X0.225000X-0.250000X-0.225000X0.250000X-0.225000X0.250000X0.225000X0*%
G04 APERTURE END LIST*
D10*
%TO.C,L9*%
X121221000Y-118287900D03*
X122796000Y-118287900D03*
%TD*%
D11*
%TO.C,C8*%
X114515500Y-126479700D03*
X114515500Y-124929700D03*
%TD*%
D12*
%TO.C,C5*%
X103797400Y-115722400D03*
X102247400Y-115722400D03*
%TD*%
D13*
%TO.C,L4*%
X114515500Y-118186200D03*
X114515500Y-119761200D03*
%TD*%
D11*
%TO.C,C1*%
X103276400Y-108382400D03*
X103276400Y-106832400D03*
%TD*%
D13*
%TO.C,L10*%
X124573900Y-118262400D03*
X124573900Y-119837400D03*
%TD*%
D14*
%TO.C,J3*%
X144500000Y-102000000D03*
D15*
X147325000Y-102200000D03*
X141675000Y-102200000D03*
%TD*%
D13*
%TO.C,L15*%
X134784700Y-121589800D03*
X134784700Y-123164800D03*
%TD*%
D11*
%TO.C,C10*%
X119493900Y-126530500D03*
X119493900Y-124980500D03*
%TD*%
D13*
%TO.C,L1*%
X109486300Y-118135400D03*
X109486300Y-119710400D03*
%TD*%
D10*
%TO.C,L3*%
X111238800Y-118211700D03*
X112813800Y-118211700D03*
%TD*%
D11*
%TO.C,C12*%
X124573900Y-126530500D03*
X124573900Y-124980500D03*
%TD*%
%TO.C,C14*%
X129679300Y-126657500D03*
X129679300Y-125107500D03*
%TD*%
D16*
%TO.C,R1*%
X126466600Y-108825800D03*
X126466600Y-107175800D03*
%TD*%
D13*
%TO.C,L17*%
X139661500Y-121640600D03*
X139661500Y-123215600D03*
%TD*%
D17*
%TO.C,R3*%
X107822100Y-118237100D03*
X106172100Y-118237100D03*
%TD*%
D13*
%TO.C,L11*%
X124548500Y-121589800D03*
X124548500Y-123164800D03*
%TD*%
D16*
%TO.C,R2*%
X124231400Y-108888800D03*
X124231400Y-107238800D03*
%TD*%
D13*
%TO.C,L16*%
X139686900Y-118389400D03*
X139686900Y-119964400D03*
%TD*%
D14*
%TO.C,J1*%
X105500000Y-102000000D03*
D15*
X108325000Y-102200000D03*
X102675000Y-102200000D03*
%TD*%
D13*
%TO.C,L5*%
X114515500Y-121564400D03*
X114515500Y-123139400D03*
%TD*%
D12*
%TO.C,C13*%
X127888900Y-118313300D03*
X126338900Y-118313300D03*
%TD*%
D13*
%TO.C,L2*%
X109511700Y-121513700D03*
X109511700Y-123088700D03*
%TD*%
D10*
%TO.C,L6*%
X116217200Y-118237100D03*
X117792200Y-118237100D03*
%TD*%
D11*
%TO.C,C3*%
X109511700Y-126403600D03*
X109511700Y-124853600D03*
%TD*%
D18*
%TO.C,C7*%
X144919400Y-115443000D03*
X146469400Y-115443000D03*
%TD*%
D12*
%TO.C,C6*%
X112801300Y-116459100D03*
X111251300Y-116459100D03*
%TD*%
D11*
%TO.C,C16*%
X134784700Y-126632100D03*
X134784700Y-125082100D03*
%TD*%
D19*
%TO.C,U2*%
X142814000Y-112329200D03*
X142814000Y-112979200D03*
X142814000Y-113629200D03*
X144714000Y-113629200D03*
X144714000Y-112979200D03*
X144714000Y-112329200D03*
%TD*%
D12*
%TO.C,C17*%
X137998100Y-118414900D03*
X136448100Y-118414900D03*
%TD*%
D13*
%TO.C,L13*%
X129653900Y-121666000D03*
X129653900Y-123241000D03*
%TD*%
D20*
%TO.C,C20*%
X146964400Y-107124200D03*
X146964400Y-108674200D03*
%TD*%
D12*
%TO.C,C9*%
X117805100Y-116484500D03*
X116255100Y-116484500D03*
%TD*%
D13*
%TO.C,L14*%
X134733900Y-118338600D03*
X134733900Y-119913600D03*
%TD*%
D18*
%TO.C,C2*%
X105752600Y-109753400D03*
X107302600Y-109753400D03*
%TD*%
D13*
%TO.C,L12*%
X129653900Y-118287800D03*
X129653900Y-119862800D03*
%TD*%
D12*
%TO.C,C4*%
X143802400Y-109728000D03*
X142252400Y-109728000D03*
%TD*%
D19*
%TO.C,U1*%
X106283800Y-113730800D03*
X106283800Y-113080800D03*
X106283800Y-112430800D03*
X104383800Y-112430800D03*
X104383800Y-113080800D03*
X104383800Y-113730800D03*
%TD*%
D12*
%TO.C,C19*%
X142925700Y-118440300D03*
X141375700Y-118440300D03*
%TD*%
D13*
%TO.C,L8*%
X119493900Y-121589800D03*
X119493900Y-123164800D03*
%TD*%
D12*
%TO.C,C15*%
X132943500Y-118338700D03*
X131393500Y-118338700D03*
%TD*%
%TO.C,C11*%
X122808900Y-116484500D03*
X121258900Y-116484500D03*
%TD*%
D13*
%TO.C,L7*%
X119493900Y-118237000D03*
X119493900Y-119812000D03*
%TD*%
D11*
%TO.C,C18*%
X139661500Y-126632100D03*
X139661500Y-125082100D03*
%TD*%
M02*
