%TF.GenerationSoftware,KiCad,Pcbnew,(6.0.1)*%
%TF.CreationDate,2022-02-13T11:50:16+00:00*%
%TF.ProjectId,Relay_RF_EE2,52656c61-795f-4524-965f-4545322e6b69,rev?*%
%TF.SameCoordinates,Original*%
%TF.FileFunction,Copper,L1,Top*%
%TF.FilePolarity,Positive*%
%FSLAX46Y46*%
G04 Gerber Fmt 4.6, Leading zero omitted, Abs format (unit mm)*
G04 Created by KiCad (PCBNEW (6.0.1)) date 2022-02-13 11:50:16*
%MOMM*%
%LPD*%
G01*
G04 APERTURE LIST*
G04 Aperture macros list*
%AMRoundRect*
0 Rectangle with rounded corners*
0 $1 Rounding radius*
0 $2 $3 $4 $5 $6 $7 $8 $9 X,Y pos of 4 corners*
0 Add a 4 corners polygon primitive as box body*
4,1,4,$2,$3,$4,$5,$6,$7,$8,$9,$2,$3,0*
0 Add four circle primitives for the rounded corners*
1,1,$1+$1,$2,$3*
1,1,$1+$1,$4,$5*
1,1,$1+$1,$6,$7*
1,1,$1+$1,$8,$9*
0 Add four rect primitives between the rounded corners*
20,1,$1+$1,$2,$3,$4,$5,0*
20,1,$1+$1,$4,$5,$6,$7,0*
20,1,$1+$1,$6,$7,$8,$9,0*
20,1,$1+$1,$8,$9,$2,$3,0*%
G04 Aperture macros list end*
%TA.AperFunction,SMDPad,CuDef*%
%ADD10R,3.600000X1.270000*%
%TD*%
%TA.AperFunction,SMDPad,CuDef*%
%ADD11R,4.200000X1.350000*%
%TD*%
%TA.AperFunction,SMDPad,CuDef*%
%ADD12RoundRect,0.200000X0.200000X0.275000X-0.200000X0.275000X-0.200000X-0.275000X0.200000X-0.275000X0*%
%TD*%
%TA.AperFunction,SMDPad,CuDef*%
%ADD13RoundRect,0.200000X0.275000X-0.200000X0.275000X0.200000X-0.275000X0.200000X-0.275000X-0.200000X0*%
%TD*%
%TA.AperFunction,SMDPad,CuDef*%
%ADD14RoundRect,0.225000X0.225000X0.250000X-0.225000X0.250000X-0.225000X-0.250000X0.225000X-0.250000X0*%
%TD*%
%TA.AperFunction,SMDPad,CuDef*%
%ADD15RoundRect,0.200000X-0.275000X0.200000X-0.275000X-0.200000X0.275000X-0.200000X0.275000X0.200000X0*%
%TD*%
%TA.AperFunction,SMDPad,CuDef*%
%ADD16RoundRect,0.225000X0.250000X-0.225000X0.250000X0.225000X-0.250000X0.225000X-0.250000X-0.225000X0*%
%TD*%
%TA.AperFunction,SMDPad,CuDef*%
%ADD17RoundRect,0.250000X-0.250000X-2.500000X0.250000X-2.500000X0.250000X2.500000X-0.250000X2.500000X0*%
%TD*%
%TA.AperFunction,SMDPad,CuDef*%
%ADD18RoundRect,0.250000X-0.550000X-1.250000X0.550000X-1.250000X0.550000X1.250000X-0.550000X1.250000X0*%
%TD*%
%TA.AperFunction,SMDPad,CuDef*%
%ADD19RoundRect,0.218750X-0.218750X-0.256250X0.218750X-0.256250X0.218750X0.256250X-0.218750X0.256250X0*%
%TD*%
%TA.AperFunction,SMDPad,CuDef*%
%ADD20RoundRect,0.150000X-0.587500X-0.150000X0.587500X-0.150000X0.587500X0.150000X-0.587500X0.150000X0*%
%TD*%
%TA.AperFunction,SMDPad,CuDef*%
%ADD21RoundRect,0.249750X-0.750250X0.305250X-0.750250X-0.305250X0.750250X-0.305250X0.750250X0.305250X0*%
%TD*%
%TA.AperFunction,SMDPad,CuDef*%
%ADD22R,0.900000X1.200000*%
%TD*%
%TA.AperFunction,ViaPad*%
%ADD23C,0.800000*%
%TD*%
%TA.AperFunction,Conductor*%
%ADD24C,1.000000*%
%TD*%
%TA.AperFunction,Conductor*%
%ADD25C,0.500000*%
%TD*%
%TA.AperFunction,Conductor*%
%ADD26C,0.293000*%
%TD*%
G04 APERTURE END LIST*
D10*
%TO.P,J2,1,In*%
%TO.N,Net-(J2-Pad1)*%
X101900000Y-124500000D03*
D11*
%TO.P,J2,2,Ext*%
%TO.N,GND*%
X102100000Y-127325000D03*
X102100000Y-121675000D03*
%TD*%
D12*
%TO.P,R2,1*%
%TO.N,Net-(C2-Pad1)*%
X106612500Y-114550000D03*
%TO.P,R2,2*%
%TO.N,Net-(D2-Pad1)*%
X104962500Y-114550000D03*
%TD*%
D13*
%TO.P,R1,1*%
%TO.N,Net-(J1-Pad2)*%
X117450000Y-111775000D03*
%TO.P,R1,2*%
%TO.N,GND*%
X117450000Y-110125000D03*
%TD*%
D14*
%TO.P,C2,1*%
%TO.N,Net-(C2-Pad1)*%
X115250000Y-113575000D03*
%TO.P,C2,2*%
%TO.N,Net-(C1-Pad1)*%
X113700000Y-113575000D03*
%TD*%
D15*
%TO.P,R3,1*%
%TO.N,Net-(J1-Pad2)*%
X119500000Y-110175000D03*
%TO.P,R3,2*%
%TO.N,Net-(Q1-Pad1)*%
X119500000Y-111825000D03*
%TD*%
D16*
%TO.P,C1,1*%
%TO.N,Net-(C1-Pad1)*%
X110550000Y-111725000D03*
%TO.P,C1,2*%
%TO.N,GND*%
X110550000Y-110175000D03*
%TD*%
D17*
%TO.P,J1,1,Pin_1*%
%TO.N,Net-(C1-Pad1)*%
X113000000Y-105500000D03*
%TO.P,J1,2,Pin_2*%
%TO.N,Net-(J1-Pad2)*%
X115000000Y-105500000D03*
%TO.P,J1,3,Pin_3*%
%TO.N,GND*%
X117000000Y-105500000D03*
D18*
%TO.P,J1,MP*%
%TO.N,N/C*%
X119400000Y-103250000D03*
X110600000Y-103250000D03*
%TD*%
D10*
%TO.P,J4,1,In*%
%TO.N,Net-(J4-Pad1)*%
X128100000Y-128000000D03*
D11*
%TO.P,J4,2,Ext*%
%TO.N,GND*%
X127900000Y-125175000D03*
X127900000Y-130825000D03*
%TD*%
D19*
%TO.P,D2,1,K*%
%TO.N,Net-(D2-Pad1)*%
X104962500Y-112450000D03*
%TO.P,D2,2,A*%
%TO.N,Net-(C1-Pad1)*%
X106537500Y-112450000D03*
%TD*%
D20*
%TO.P,Q1,1,B*%
%TO.N,Net-(Q1-Pad1)*%
X121662500Y-110200000D03*
%TO.P,Q1,2,E*%
%TO.N,GND*%
X121662500Y-112100000D03*
%TO.P,Q1,3,C*%
%TO.N,Net-(C2-Pad1)*%
X123537500Y-111150000D03*
%TD*%
D10*
%TO.P,J3,1,In*%
%TO.N,Net-(K1-Pad4)*%
X128100000Y-117500000D03*
D11*
%TO.P,J3,2,Ext*%
%TO.N,GND*%
X127900000Y-114675000D03*
X127900000Y-120325000D03*
%TD*%
D21*
%TO.P,K1,1*%
%TO.N,Net-(C1-Pad1)*%
X111305000Y-119450000D03*
%TO.P,K1,3*%
%TO.N,Net-(J2-Pad1)*%
X111305000Y-124530000D03*
%TO.P,K1,4*%
%TO.N,Net-(K1-Pad4)*%
X111305000Y-127070000D03*
%TO.P,K1,5*%
%TO.N,unconnected-(K1-Pad5)*%
X111305000Y-129610000D03*
%TO.P,K1,8*%
%TO.N,Net-(J4-Pad1)*%
X117595000Y-129610000D03*
%TO.P,K1,9*%
%TO.N,Net-(K1-Pad4)*%
X117595000Y-127070000D03*
%TO.P,K1,10*%
%TO.N,unconnected-(K1-Pad10)*%
X117595000Y-124530000D03*
%TO.P,K1,12*%
%TO.N,Net-(C2-Pad1)*%
X117595000Y-119450000D03*
%TD*%
D22*
%TO.P,D1,1,K*%
%TO.N,Net-(C1-Pad1)*%
X112825000Y-115825000D03*
%TO.P,D1,2,A*%
%TO.N,Net-(C2-Pad1)*%
X116125000Y-115825000D03*
%TD*%
D23*
%TO.N,GND*%
X125150000Y-126850000D03*
X128950000Y-113250000D03*
X109200000Y-125700000D03*
X101300000Y-129100000D03*
X119650000Y-128250000D03*
X104950000Y-128100000D03*
X109150000Y-129150000D03*
X117450000Y-122950000D03*
X115550000Y-129600000D03*
X129000000Y-132150000D03*
X122800000Y-117400000D03*
X103250000Y-120350000D03*
X121350000Y-119550000D03*
X109200000Y-123300000D03*
X127987500Y-123950000D03*
X114750000Y-110500000D03*
X123650000Y-120000000D03*
X113300000Y-129450000D03*
X107200000Y-125650000D03*
X117700000Y-131100000D03*
X107150000Y-123350000D03*
X105000000Y-120750000D03*
X104350000Y-117750000D03*
X120350000Y-112700000D03*
X124850000Y-122650000D03*
X115650000Y-123950000D03*
X126800000Y-121550000D03*
X119250000Y-130800000D03*
X109500000Y-135100000D03*
X125937500Y-123950000D03*
X113250000Y-123950000D03*
X111250000Y-123000000D03*
X120200000Y-134650000D03*
X116000000Y-128300000D03*
X103400000Y-129050000D03*
X123400000Y-130000000D03*
X125100000Y-114250000D03*
X111000000Y-131150000D03*
X112900000Y-125750000D03*
X121600000Y-128250000D03*
X122250000Y-126600000D03*
X125400000Y-118800000D03*
X126650000Y-132250000D03*
X129050000Y-121700000D03*
X124987500Y-130950000D03*
X126650000Y-113200000D03*
X105050000Y-123300000D03*
X109350000Y-130750000D03*
X125100000Y-116150000D03*
X109150000Y-127400000D03*
X115800000Y-125800000D03*
X121200000Y-121750000D03*
X116150000Y-131000000D03*
X109400000Y-115200000D03*
X101250000Y-120350000D03*
X125050000Y-129200000D03*
X113000000Y-130900000D03*
X119350000Y-125600000D03*
X113200000Y-128250000D03*
X123550000Y-122200000D03*
X109250000Y-110200000D03*
X118850000Y-116400000D03*
X121550000Y-130750000D03*
X125137500Y-125300000D03*
X121100000Y-124000000D03*
X123600000Y-124700000D03*
X105000000Y-125700000D03*
X119550000Y-123950000D03*
%TD*%
D24*
%TO.N,GND*%
X110550000Y-110175000D02*
X109275000Y-110175000D01*
D25*
X121662500Y-112100000D02*
X120950000Y-112100000D01*
X120950000Y-112100000D02*
X120350000Y-112700000D01*
D24*
X109275000Y-110175000D02*
X109250000Y-110200000D01*
D26*
%TO.N,Net-(J1-Pad2)*%
X115000000Y-109325000D02*
X117450000Y-111775000D01*
D25*
X117450000Y-111775000D02*
X117900000Y-111775000D01*
X117900000Y-111775000D02*
X119500000Y-110175000D01*
D26*
X115000000Y-105500000D02*
X115000000Y-109325000D01*
%TO.N,Net-(J2-Pad1)*%
X111275000Y-124500000D02*
X111305000Y-124530000D01*
X101900000Y-124500000D02*
X111275000Y-124500000D01*
%TO.N,Net-(J4-Pad1)*%
X128100000Y-128000000D02*
X124521778Y-128000000D01*
X123107564Y-128585787D02*
X122634741Y-129058610D01*
X120897359Y-129610000D02*
X117595000Y-129610000D01*
X120897359Y-129609999D02*
G75*
G03*
X122634741Y-129058609I-3926J3025233D01*
G01*
X123107564Y-128585787D02*
G75*
G02*
X124521778Y-128000000I1414214J-1414213D01*
G01*
%TO.N,Net-(D2-Pad1)*%
X104962500Y-112450000D02*
X104962500Y-114550000D01*
D25*
%TO.N,Net-(Q1-Pad1)*%
X120037500Y-111825000D02*
X121662500Y-110200000D01*
X119500000Y-111825000D02*
X120037500Y-111825000D01*
D26*
%TO.N,Net-(C1-Pad1)*%
X106537500Y-112450000D02*
X109825000Y-112450000D01*
D24*
X112825000Y-117930000D02*
X111305000Y-119450000D01*
X113000000Y-105500000D02*
X113000000Y-112050000D01*
X111850000Y-113200000D02*
X111850000Y-113025000D01*
X112825000Y-115825000D02*
X112825000Y-117930000D01*
X111850000Y-114850000D02*
X112825000Y-115825000D01*
X111850000Y-113025000D02*
X110550000Y-111725000D01*
X113000000Y-112050000D02*
X111850000Y-113200000D01*
X111850000Y-113200000D02*
X111850000Y-114850000D01*
D26*
X109825000Y-112450000D02*
X110550000Y-111725000D01*
D25*
X113700000Y-115150000D02*
X112825000Y-116025000D01*
X113700000Y-113575000D02*
X113700000Y-115150000D01*
D24*
%TO.N,Net-(C2-Pad1)*%
X116125000Y-115825000D02*
X116125000Y-117980000D01*
D25*
X115250000Y-115150000D02*
X116125000Y-116025000D01*
X115250000Y-113575000D02*
X122625000Y-113575000D01*
X122625000Y-113575000D02*
X123537500Y-112662500D01*
D26*
X106612500Y-114550000D02*
X106612500Y-116655546D01*
X116693980Y-120351020D02*
X117595000Y-119450000D01*
X106612500Y-116655546D02*
X110307974Y-120351020D01*
X110307974Y-120351020D02*
X116693980Y-120351020D01*
D24*
X116125000Y-117980000D02*
X117595000Y-119450000D01*
D25*
X115250000Y-113575000D02*
X115250000Y-115150000D01*
X123537500Y-112662500D02*
X123537500Y-111150000D01*
D26*
%TO.N,Net-(K1-Pad4)*%
X117595000Y-127070000D02*
X119101573Y-127070000D01*
X122400000Y-123771573D02*
X122400000Y-120328427D01*
X120515787Y-126484213D02*
X121814214Y-125185786D01*
X125228427Y-117500000D02*
X128100000Y-117500000D01*
X122985787Y-118914213D02*
X123814214Y-118085786D01*
X111305000Y-127070000D02*
X117595000Y-127070000D01*
X125228427Y-117500001D02*
G75*
G03*
X123814215Y-118085787I0J-1999999D01*
G01*
X121814214Y-125185786D02*
G75*
G03*
X122400000Y-123771573I-1414214J1414213D01*
G01*
X120515787Y-126484213D02*
G75*
G02*
X119101573Y-127070000I-1414214J1414213D01*
G01*
X122985787Y-118914213D02*
G75*
G03*
X122400000Y-120328427I1414213J-1414214D01*
G01*
%TD*%
%TA.AperFunction,Conductor*%
%TO.N,GND*%
G36*
X129442121Y-100520002D02*
G01*
X129488614Y-100573658D01*
X129500000Y-100626000D01*
X129500000Y-116238500D01*
X129479998Y-116306621D01*
X129426342Y-116353114D01*
X129374000Y-116364500D01*
X126338389Y-116364501D01*
X126252624Y-116364501D01*
X126249230Y-116364870D01*
X126249224Y-116364870D01*
X126199278Y-116370295D01*
X126199274Y-116370296D01*
X126191420Y-116371149D01*
X126057176Y-116421474D01*
X126049997Y-116426854D01*
X126049994Y-116426856D01*
X125949635Y-116502072D01*
X125942454Y-116507454D01*
X125937072Y-116514635D01*
X125861856Y-116614994D01*
X125861854Y-116614997D01*
X125856474Y-116622176D01*
X125806149Y-116756420D01*
X125805932Y-116758415D01*
X125772012Y-116817792D01*
X125709057Y-116850613D01*
X125684646Y-116853000D01*
X125283382Y-116853000D01*
X125265629Y-116851743D01*
X125246160Y-116848972D01*
X125246157Y-116848972D01*
X125242076Y-116848391D01*
X125235780Y-116848325D01*
X125232562Y-116848291D01*
X125232557Y-116848291D01*
X125228427Y-116848248D01*
X125223471Y-116848848D01*
X125215419Y-116849561D01*
X124931590Y-116865500D01*
X124638486Y-116915300D01*
X124352801Y-116997605D01*
X124349533Y-116998959D01*
X124349532Y-116998959D01*
X124081396Y-117110024D01*
X124081391Y-117110027D01*
X124078128Y-117111378D01*
X123817920Y-117255190D01*
X123575450Y-117427231D01*
X123416372Y-117569391D01*
X123415391Y-117568293D01*
X123414042Y-117570023D01*
X123414511Y-117570492D01*
X123411732Y-117573271D01*
X123410896Y-117574061D01*
X123410734Y-117574269D01*
X123409221Y-117575782D01*
X123408625Y-117576315D01*
X123407998Y-117576801D01*
X123406597Y-117578126D01*
X123378412Y-117603314D01*
X123370119Y-117610113D01*
X123363108Y-117615377D01*
X123353356Y-117624928D01*
X123333634Y-117650080D01*
X123323585Y-117661418D01*
X122945139Y-118039865D01*
X122567151Y-118417853D01*
X122553714Y-118429514D01*
X122534681Y-118443804D01*
X122524929Y-118453355D01*
X122522386Y-118456599D01*
X122521866Y-118457262D01*
X122516663Y-118463475D01*
X122363262Y-118635131D01*
X122327232Y-118675448D01*
X122155190Y-118917918D01*
X122011378Y-119178127D01*
X121897604Y-119452800D01*
X121815299Y-119738486D01*
X121765499Y-120031590D01*
X121753537Y-120244602D01*
X121752069Y-120244520D01*
X121752337Y-120246692D01*
X121753000Y-120246692D01*
X121753000Y-120250619D01*
X121752967Y-120251796D01*
X121753000Y-120252063D01*
X121753000Y-120254158D01*
X121752953Y-120255003D01*
X121752856Y-120255768D01*
X121752802Y-120257685D01*
X121750167Y-120304600D01*
X121749618Y-120310445D01*
X121749720Y-120310697D01*
X121748284Y-120321602D01*
X121748899Y-120327175D01*
X121748829Y-120328427D01*
X121749037Y-120328427D01*
X121750544Y-120342076D01*
X121752239Y-120357430D01*
X121753000Y-120371257D01*
X121753000Y-123720668D01*
X121751922Y-123737114D01*
X121749417Y-123756145D01*
X121748284Y-123764748D01*
X121749117Y-123772294D01*
X121749117Y-123772302D01*
X121750308Y-123783087D01*
X121750799Y-123805152D01*
X121741965Y-123939933D01*
X121739814Y-123956273D01*
X121708509Y-124113654D01*
X121704243Y-124129574D01*
X121652663Y-124281524D01*
X121646356Y-124296751D01*
X121575386Y-124440665D01*
X121567145Y-124454939D01*
X121477997Y-124588357D01*
X121467964Y-124601433D01*
X121383710Y-124697506D01*
X121365688Y-124714386D01*
X121358207Y-124720127D01*
X121353461Y-124726051D01*
X121353459Y-124726053D01*
X121335666Y-124748263D01*
X121326426Y-124758578D01*
X120094288Y-125990716D01*
X120081897Y-126001583D01*
X120059780Y-126018554D01*
X120055031Y-126024483D01*
X120055027Y-126024486D01*
X120048246Y-126032950D01*
X120032989Y-126048903D01*
X119931431Y-126137967D01*
X119918364Y-126147993D01*
X119784937Y-126237145D01*
X119770673Y-126245381D01*
X119626749Y-126316357D01*
X119611522Y-126322664D01*
X119459576Y-126374243D01*
X119443655Y-126378509D01*
X119286273Y-126409814D01*
X119269933Y-126411965D01*
X119142430Y-126420322D01*
X119117745Y-126419514D01*
X119115933Y-126419275D01*
X119115924Y-126419275D01*
X119108398Y-126418284D01*
X119098353Y-126419393D01*
X119096547Y-126419072D01*
X119093253Y-126419038D01*
X119093259Y-126418489D01*
X119028449Y-126406991D01*
X118977378Y-126360459D01*
X118941069Y-126301784D01*
X118941066Y-126301780D01*
X118937218Y-126295562D01*
X118813404Y-126171964D01*
X118774529Y-126148001D01*
X118670708Y-126084004D01*
X118670706Y-126084003D01*
X118664478Y-126080164D01*
X118498427Y-126025087D01*
X118491591Y-126024387D01*
X118491588Y-126024386D01*
X118434663Y-126018554D01*
X118395095Y-126014500D01*
X117601170Y-126014500D01*
X116794906Y-126014501D01*
X116791662Y-126014838D01*
X116791654Y-126014838D01*
X116745967Y-126019579D01*
X116690282Y-126025356D01*
X116524328Y-126080722D01*
X116375562Y-126172782D01*
X116251964Y-126296596D01*
X116212598Y-126360459D01*
X116210960Y-126363117D01*
X116158187Y-126410610D01*
X116103700Y-126423000D01*
X112796283Y-126423000D01*
X112728162Y-126402998D01*
X112689139Y-126363304D01*
X112651069Y-126301785D01*
X112651068Y-126301784D01*
X112647218Y-126295562D01*
X112523404Y-126171964D01*
X112484529Y-126148001D01*
X112380708Y-126084004D01*
X112380706Y-126084003D01*
X112374478Y-126080164D01*
X112208427Y-126025087D01*
X112201591Y-126024387D01*
X112201588Y-126024386D01*
X112144663Y-126018554D01*
X112105095Y-126014500D01*
X111311170Y-126014500D01*
X110504906Y-126014501D01*
X110501662Y-126014838D01*
X110501654Y-126014838D01*
X110455967Y-126019579D01*
X110400282Y-126025356D01*
X110234328Y-126080722D01*
X110085562Y-126172782D01*
X109961964Y-126296596D01*
X109958125Y-126302824D01*
X109958123Y-126302827D01*
X109885698Y-126420322D01*
X109870164Y-126445522D01*
X109815087Y-126611573D01*
X109804500Y-126714905D01*
X109804501Y-127425094D01*
X109804838Y-127428338D01*
X109804838Y-127428346D01*
X109808120Y-127459973D01*
X109815356Y-127529718D01*
X109870722Y-127695672D01*
X109874576Y-127701900D01*
X109874577Y-127701902D01*
X109907553Y-127755190D01*
X109962782Y-127844438D01*
X110086596Y-127968036D01*
X110092826Y-127971876D01*
X110092827Y-127971877D01*
X110228363Y-128055423D01*
X110235522Y-128059836D01*
X110401573Y-128114913D01*
X110408409Y-128115613D01*
X110408412Y-128115614D01*
X110460158Y-128120915D01*
X110504905Y-128125500D01*
X111298830Y-128125500D01*
X112105094Y-128125499D01*
X112108338Y-128125162D01*
X112108346Y-128125162D01*
X112154033Y-128120421D01*
X112209718Y-128114644D01*
X112375672Y-128059278D01*
X112524438Y-127967218D01*
X112648036Y-127843404D01*
X112689041Y-127776882D01*
X112741813Y-127729390D01*
X112796300Y-127717000D01*
X116103717Y-127717000D01*
X116171838Y-127737002D01*
X116210861Y-127776696D01*
X116248284Y-127837170D01*
X116252782Y-127844438D01*
X116376596Y-127968036D01*
X116382826Y-127971876D01*
X116382827Y-127971877D01*
X116518363Y-128055423D01*
X116525522Y-128059836D01*
X116691573Y-128114913D01*
X116698409Y-128115613D01*
X116698412Y-128115614D01*
X116750158Y-128120915D01*
X116794905Y-128125500D01*
X117588830Y-128125500D01*
X118395094Y-128125499D01*
X118398338Y-128125162D01*
X118398346Y-128125162D01*
X118444033Y-128120421D01*
X118499718Y-128114644D01*
X118665672Y-128059278D01*
X118814438Y-127967218D01*
X118938036Y-127843404D01*
X118941879Y-127837170D01*
X118976345Y-127781257D01*
X119029117Y-127733764D01*
X119087912Y-127722720D01*
X119087924Y-127721609D01*
X119097447Y-127721709D01*
X119097450Y-127721709D01*
X119101573Y-127721752D01*
X119105740Y-127721248D01*
X119106519Y-127721154D01*
X119114580Y-127720441D01*
X119294379Y-127710343D01*
X119398410Y-127704501D01*
X119691514Y-127654701D01*
X119977200Y-127572396D01*
X120251873Y-127458622D01*
X120512082Y-127314810D01*
X120754552Y-127142768D01*
X120913634Y-127000603D01*
X120914614Y-127001699D01*
X120915959Y-126999975D01*
X120915490Y-126999506D01*
X120918253Y-126996743D01*
X120919124Y-126995919D01*
X120919291Y-126995705D01*
X120920764Y-126994232D01*
X120921409Y-126993656D01*
X120922017Y-126993184D01*
X120923388Y-126991888D01*
X120951601Y-126966675D01*
X120959894Y-126959876D01*
X120966893Y-126954621D01*
X120976645Y-126945071D01*
X120996367Y-126919919D01*
X121006425Y-126908571D01*
X122232851Y-125682145D01*
X122246293Y-125670480D01*
X122262016Y-125658675D01*
X122262019Y-125658673D01*
X122265320Y-125656194D01*
X122275072Y-125646644D01*
X122277616Y-125643400D01*
X122277621Y-125643394D01*
X122278149Y-125642721D01*
X122283346Y-125636516D01*
X122470409Y-125427191D01*
X122470410Y-125427190D01*
X122472769Y-125424550D01*
X122644811Y-125182080D01*
X122788623Y-124921873D01*
X122802511Y-124888346D01*
X122901042Y-124650468D01*
X122901042Y-124650467D01*
X122902396Y-124647199D01*
X122984701Y-124361514D01*
X123034501Y-124068410D01*
X123046463Y-123855399D01*
X123047930Y-123855481D01*
X123047662Y-123853308D01*
X123047000Y-123853308D01*
X123047000Y-123849378D01*
X123047033Y-123848206D01*
X123047000Y-123847939D01*
X123047000Y-123845839D01*
X123047047Y-123845006D01*
X123047144Y-123844236D01*
X123047198Y-123842314D01*
X123049317Y-123804575D01*
X123050377Y-123793878D01*
X123051029Y-123789302D01*
X123051030Y-123789290D01*
X123051609Y-123785222D01*
X123051752Y-123771573D01*
X123050694Y-123762825D01*
X123047913Y-123739849D01*
X123047000Y-123724712D01*
X123047000Y-120383382D01*
X123048257Y-120365629D01*
X123051028Y-120346160D01*
X123051028Y-120346157D01*
X123051609Y-120342076D01*
X123051752Y-120328427D01*
X123050080Y-120314607D01*
X123049438Y-120291234D01*
X123058035Y-120160067D01*
X123060186Y-120143727D01*
X123091491Y-119986345D01*
X123095757Y-119970424D01*
X123147336Y-119818478D01*
X123153643Y-119803251D01*
X123224619Y-119659327D01*
X123232855Y-119645063D01*
X123322007Y-119511636D01*
X123332033Y-119498570D01*
X123416289Y-119402494D01*
X123434320Y-119385607D01*
X123441794Y-119379872D01*
X123464336Y-119351735D01*
X123473575Y-119341421D01*
X124235713Y-118579283D01*
X124248104Y-118568416D01*
X124264194Y-118556070D01*
X124264195Y-118556069D01*
X124270221Y-118551445D01*
X124274972Y-118545515D01*
X124281749Y-118537056D01*
X124297007Y-118521103D01*
X124398569Y-118432036D01*
X124411644Y-118422003D01*
X124489344Y-118370085D01*
X124545065Y-118332854D01*
X124559332Y-118324617D01*
X124631292Y-118289130D01*
X124703250Y-118253645D01*
X124718476Y-118247338D01*
X124870425Y-118195758D01*
X124886346Y-118191492D01*
X125043727Y-118160187D01*
X125060068Y-118158036D01*
X125187578Y-118149679D01*
X125212258Y-118150486D01*
X125214071Y-118150725D01*
X125214074Y-118150725D01*
X125221602Y-118151716D01*
X125257427Y-118147761D01*
X125271253Y-118147000D01*
X125684646Y-118147000D01*
X125752767Y-118167002D01*
X125799260Y-118220658D01*
X125805693Y-118239385D01*
X125806149Y-118243580D01*
X125808923Y-118250979D01*
X125808923Y-118250980D01*
X125816127Y-118270198D01*
X125856474Y-118377824D01*
X125861854Y-118385003D01*
X125861856Y-118385006D01*
X125918603Y-118460722D01*
X125942454Y-118492546D01*
X125949635Y-118497928D01*
X126049994Y-118573144D01*
X126049997Y-118573146D01*
X126057176Y-118578526D01*
X126146561Y-118612034D01*
X126184025Y-118626079D01*
X126184027Y-118626079D01*
X126191420Y-118628851D01*
X126199270Y-118629704D01*
X126199271Y-118629704D01*
X126249226Y-118635131D01*
X126252623Y-118635500D01*
X126338364Y-118635500D01*
X129374000Y-118635499D01*
X129442121Y-118655501D01*
X129488614Y-118709157D01*
X129500000Y-118761499D01*
X129500000Y-126738500D01*
X129479998Y-126806621D01*
X129426342Y-126853114D01*
X129374000Y-126864500D01*
X126338389Y-126864501D01*
X126252624Y-126864501D01*
X126249230Y-126864870D01*
X126249224Y-126864870D01*
X126199278Y-126870295D01*
X126199274Y-126870296D01*
X126191420Y-126871149D01*
X126057176Y-126921474D01*
X126049997Y-126926854D01*
X126049994Y-126926856D01*
X125953059Y-126999506D01*
X125942454Y-127007454D01*
X125937072Y-127014635D01*
X125861856Y-127114994D01*
X125861854Y-127114997D01*
X125856474Y-127122176D01*
X125806149Y-127256420D01*
X125805932Y-127258415D01*
X125772012Y-127317792D01*
X125709057Y-127350613D01*
X125684646Y-127353000D01*
X124576733Y-127353000D01*
X124558980Y-127351743D01*
X124539511Y-127348972D01*
X124539508Y-127348972D01*
X124535427Y-127348391D01*
X124528666Y-127348320D01*
X124525904Y-127348291D01*
X124525901Y-127348291D01*
X124521778Y-127348248D01*
X124517678Y-127348744D01*
X124517679Y-127348744D01*
X124516832Y-127348846D01*
X124508771Y-127349559D01*
X124328972Y-127359657D01*
X124224941Y-127365499D01*
X123931837Y-127415299D01*
X123646151Y-127497604D01*
X123371478Y-127611378D01*
X123111269Y-127755190D01*
X122868799Y-127927232D01*
X122709720Y-128069394D01*
X122708736Y-128068293D01*
X122707390Y-128070022D01*
X122707861Y-128070493D01*
X122705089Y-128073265D01*
X122704230Y-128074077D01*
X122704064Y-128074290D01*
X122702578Y-128075776D01*
X122701962Y-128076327D01*
X122701341Y-128076808D01*
X122699954Y-128078120D01*
X122671750Y-128103325D01*
X122663457Y-128110124D01*
X122656458Y-128115379D01*
X122646706Y-128124929D01*
X122644157Y-128128180D01*
X122644155Y-128128182D01*
X122626991Y-128150072D01*
X122616934Y-128161420D01*
X122235776Y-128542579D01*
X122213858Y-128560082D01*
X122062622Y-128655390D01*
X122051430Y-128661670D01*
X121886240Y-128743580D01*
X121845697Y-128763683D01*
X121833913Y-128768795D01*
X121669428Y-128830392D01*
X121618870Y-128849325D01*
X121606626Y-128853211D01*
X121384496Y-128911427D01*
X121371929Y-128914043D01*
X121291245Y-128926593D01*
X121145032Y-128949335D01*
X121132254Y-128950660D01*
X120938719Y-128960791D01*
X120915852Y-128959907D01*
X120903338Y-128958276D01*
X120875445Y-128961392D01*
X120868024Y-128962221D01*
X120854035Y-128963000D01*
X119086283Y-128963000D01*
X119018162Y-128942998D01*
X118979139Y-128903304D01*
X118941069Y-128841785D01*
X118937218Y-128835562D01*
X118813404Y-128711964D01*
X118787112Y-128695757D01*
X118670708Y-128624004D01*
X118670706Y-128624003D01*
X118664478Y-128620164D01*
X118498427Y-128565087D01*
X118491591Y-128564387D01*
X118491588Y-128564386D01*
X118439842Y-128559085D01*
X118395095Y-128554500D01*
X117601170Y-128554500D01*
X116794906Y-128554501D01*
X116791662Y-128554838D01*
X116791654Y-128554838D01*
X116745967Y-128559579D01*
X116690282Y-128565356D01*
X116524328Y-128620722D01*
X116518100Y-128624576D01*
X116518098Y-128624577D01*
X116468310Y-128655387D01*
X116375562Y-128712782D01*
X116251964Y-128836596D01*
X116248124Y-128842826D01*
X116248123Y-128842827D01*
X116175409Y-128960791D01*
X116160164Y-128985522D01*
X116105087Y-129151573D01*
X116094500Y-129254905D01*
X116094501Y-129965094D01*
X116105356Y-130069718D01*
X116160722Y-130235672D01*
X116164576Y-130241900D01*
X116164577Y-130241902D01*
X116210977Y-130316883D01*
X116252782Y-130384438D01*
X116376596Y-130508036D01*
X116382826Y-130511876D01*
X116382827Y-130511877D01*
X116518363Y-130595423D01*
X116525522Y-130599836D01*
X116691573Y-130654913D01*
X116698409Y-130655613D01*
X116698412Y-130655614D01*
X116750158Y-130660915D01*
X116794905Y-130665500D01*
X117588830Y-130665500D01*
X118395094Y-130665499D01*
X118398338Y-130665162D01*
X118398346Y-130665162D01*
X118444033Y-130660421D01*
X118499718Y-130654644D01*
X118665672Y-130599278D01*
X118814438Y-130507218D01*
X118938036Y-130383404D01*
X118979041Y-130316882D01*
X119031813Y-130269390D01*
X119086300Y-130257000D01*
X120842907Y-130257000D01*
X120860499Y-130258234D01*
X120884556Y-130261626D01*
X120888667Y-130261664D01*
X120888672Y-130261664D01*
X120891265Y-130261687D01*
X120898205Y-130261751D01*
X120909649Y-130260351D01*
X120919265Y-130259548D01*
X121219157Y-130246040D01*
X121221887Y-130245676D01*
X121221890Y-130245676D01*
X121358090Y-130227530D01*
X121537622Y-130203611D01*
X121540316Y-130203009D01*
X121540321Y-130203008D01*
X121848459Y-130134141D01*
X121848464Y-130134140D01*
X121851165Y-130133536D01*
X121893805Y-130120003D01*
X122154763Y-130037184D01*
X122154776Y-130037179D01*
X122157392Y-130036349D01*
X122453963Y-129912794D01*
X122563128Y-129855658D01*
X122736168Y-129765092D01*
X122736174Y-129765088D01*
X122738611Y-129763813D01*
X122740931Y-129762327D01*
X122740940Y-129762322D01*
X122977867Y-129610589D01*
X122988531Y-129604472D01*
X122994963Y-129601189D01*
X122994975Y-129601182D01*
X122998642Y-129599310D01*
X123002034Y-129596976D01*
X123002038Y-129596973D01*
X123006496Y-129593904D01*
X123009886Y-129591571D01*
X123012941Y-129588817D01*
X123016192Y-129586250D01*
X123016470Y-129586603D01*
X123021461Y-129582934D01*
X123021355Y-129582798D01*
X123027617Y-129577941D01*
X123034444Y-129573903D01*
X123077679Y-129530668D01*
X123082396Y-129526188D01*
X123120543Y-129491790D01*
X123126186Y-129486702D01*
X123130451Y-129480416D01*
X123135443Y-129474686D01*
X123135472Y-129474711D01*
X123144230Y-129464117D01*
X123529063Y-129079284D01*
X123541454Y-129068417D01*
X123557544Y-129056071D01*
X123557545Y-129056070D01*
X123563571Y-129051446D01*
X123568320Y-129045517D01*
X123568324Y-129045514D01*
X123575105Y-129037050D01*
X123590362Y-129021097D01*
X123691920Y-128932033D01*
X123704987Y-128922007D01*
X123838414Y-128832855D01*
X123852678Y-128824619D01*
X123996602Y-128753643D01*
X124011829Y-128747336D01*
X124163775Y-128695757D01*
X124179696Y-128691491D01*
X124337078Y-128660186D01*
X124353418Y-128658035D01*
X124480921Y-128649678D01*
X124505606Y-128650486D01*
X124507418Y-128650725D01*
X124507427Y-128650725D01*
X124514953Y-128651716D01*
X124550778Y-128647761D01*
X124564604Y-128647000D01*
X125684646Y-128647000D01*
X125752767Y-128667002D01*
X125799260Y-128720658D01*
X125805693Y-128739385D01*
X125806149Y-128743580D01*
X125856474Y-128877824D01*
X125861854Y-128885003D01*
X125861856Y-128885006D01*
X125936295Y-128984328D01*
X125942454Y-128992546D01*
X125949635Y-128997928D01*
X126049994Y-129073144D01*
X126049997Y-129073146D01*
X126057176Y-129078526D01*
X126146561Y-129112034D01*
X126184025Y-129126079D01*
X126184027Y-129126079D01*
X126191420Y-129128851D01*
X126199270Y-129129704D01*
X126199271Y-129129704D01*
X126249226Y-129135131D01*
X126252623Y-129135500D01*
X126338364Y-129135500D01*
X129374000Y-129135499D01*
X129442121Y-129155501D01*
X129488614Y-129209157D01*
X129500000Y-129261499D01*
X129500000Y-139374000D01*
X129479998Y-139442121D01*
X129426342Y-139488614D01*
X129374000Y-139500000D01*
X100626000Y-139500000D01*
X100557879Y-139479998D01*
X100511386Y-139426342D01*
X100500000Y-139374000D01*
X100500000Y-136042095D01*
X102145028Y-136042095D01*
X102170534Y-136309431D01*
X102234364Y-136570285D01*
X102335182Y-136819192D01*
X102470875Y-137050938D01*
X102473728Y-137054505D01*
X102585225Y-137193925D01*
X102638601Y-137260669D01*
X102834846Y-137443991D01*
X102927039Y-137507948D01*
X103051746Y-137594461D01*
X103051751Y-137594464D01*
X103055499Y-137597064D01*
X103059584Y-137599096D01*
X103059587Y-137599098D01*
X103175719Y-137656872D01*
X103295938Y-137716680D01*
X103300272Y-137718101D01*
X103300275Y-137718102D01*
X103546793Y-137798915D01*
X103546798Y-137798916D01*
X103551126Y-137800335D01*
X103555617Y-137801115D01*
X103555618Y-137801115D01*
X103811936Y-137845620D01*
X103811944Y-137845621D01*
X103815717Y-137846276D01*
X103819554Y-137846467D01*
X103898996Y-137850422D01*
X103899004Y-137850422D01*
X103900567Y-137850500D01*
X104068223Y-137850500D01*
X104070491Y-137850335D01*
X104070503Y-137850335D01*
X104200823Y-137840879D01*
X104267846Y-137836016D01*
X104272301Y-137835032D01*
X104272304Y-137835032D01*
X104525620Y-137779105D01*
X104525624Y-137779104D01*
X104530080Y-137778120D01*
X104697617Y-137714646D01*
X104776941Y-137684593D01*
X104776944Y-137684592D01*
X104781211Y-137682975D01*
X105015976Y-137552574D01*
X105158254Y-137443991D01*
X105225833Y-137392417D01*
X105225837Y-137392413D01*
X105229458Y-137389650D01*
X105417185Y-137197614D01*
X105575225Y-136980491D01*
X105662313Y-136814963D01*
X105698140Y-136746868D01*
X105698143Y-136746862D01*
X105700265Y-136742828D01*
X105759703Y-136574515D01*
X105788165Y-136493916D01*
X105788165Y-136493915D01*
X105789688Y-136489603D01*
X105841620Y-136226122D01*
X105841847Y-136221566D01*
X105850781Y-136042095D01*
X124145028Y-136042095D01*
X124170534Y-136309431D01*
X124234364Y-136570285D01*
X124335182Y-136819192D01*
X124470875Y-137050938D01*
X124473728Y-137054505D01*
X124585225Y-137193925D01*
X124638601Y-137260669D01*
X124834846Y-137443991D01*
X124927039Y-137507948D01*
X125051746Y-137594461D01*
X125051751Y-137594464D01*
X125055499Y-137597064D01*
X125059584Y-137599096D01*
X125059587Y-137599098D01*
X125175719Y-137656872D01*
X125295938Y-137716680D01*
X125300272Y-137718101D01*
X125300275Y-137718102D01*
X125546793Y-137798915D01*
X125546798Y-137798916D01*
X125551126Y-137800335D01*
X125555617Y-137801115D01*
X125555618Y-137801115D01*
X125811936Y-137845620D01*
X125811944Y-137845621D01*
X125815717Y-137846276D01*
X125819554Y-137846467D01*
X125898996Y-137850422D01*
X125899004Y-137850422D01*
X125900567Y-137850500D01*
X126068223Y-137850500D01*
X126070491Y-137850335D01*
X126070503Y-137850335D01*
X126200823Y-137840879D01*
X126267846Y-137836016D01*
X126272301Y-137835032D01*
X126272304Y-137835032D01*
X126525620Y-137779105D01*
X126525624Y-137779104D01*
X126530080Y-137778120D01*
X126697617Y-137714646D01*
X126776941Y-137684593D01*
X126776944Y-137684592D01*
X126781211Y-137682975D01*
X127015976Y-137552574D01*
X127158254Y-137443991D01*
X127225833Y-137392417D01*
X127225837Y-137392413D01*
X127229458Y-137389650D01*
X127417185Y-137197614D01*
X127575225Y-136980491D01*
X127662313Y-136814963D01*
X127698140Y-136746868D01*
X127698143Y-136746862D01*
X127700265Y-136742828D01*
X127759703Y-136574515D01*
X127788165Y-136493916D01*
X127788165Y-136493915D01*
X127789688Y-136489603D01*
X127841620Y-136226122D01*
X127841847Y-136221566D01*
X127854745Y-135962474D01*
X127854745Y-135962468D01*
X127854972Y-135957905D01*
X127829466Y-135690569D01*
X127765636Y-135429715D01*
X127664818Y-135180808D01*
X127529125Y-134949062D01*
X127418211Y-134810371D01*
X127364251Y-134742897D01*
X127364250Y-134742895D01*
X127361399Y-134739331D01*
X127165154Y-134556009D01*
X127005436Y-134445208D01*
X126948254Y-134405539D01*
X126948249Y-134405536D01*
X126944501Y-134402936D01*
X126940416Y-134400904D01*
X126940413Y-134400902D01*
X126768560Y-134315407D01*
X126704062Y-134283320D01*
X126699728Y-134281899D01*
X126699725Y-134281898D01*
X126453207Y-134201085D01*
X126453202Y-134201084D01*
X126448874Y-134199665D01*
X126444382Y-134198885D01*
X126188064Y-134154380D01*
X126188056Y-134154379D01*
X126184283Y-134153724D01*
X126175622Y-134153293D01*
X126101004Y-134149578D01*
X126100996Y-134149578D01*
X126099433Y-134149500D01*
X125931777Y-134149500D01*
X125929509Y-134149665D01*
X125929497Y-134149665D01*
X125799177Y-134159121D01*
X125732154Y-134163984D01*
X125727699Y-134164968D01*
X125727696Y-134164968D01*
X125474380Y-134220895D01*
X125474376Y-134220896D01*
X125469920Y-134221880D01*
X125344354Y-134269453D01*
X125223059Y-134315407D01*
X125223056Y-134315408D01*
X125218789Y-134317025D01*
X124984024Y-134447426D01*
X124980392Y-134450198D01*
X124774167Y-134607583D01*
X124774163Y-134607587D01*
X124770542Y-134610350D01*
X124582815Y-134802386D01*
X124424775Y-135019509D01*
X124422651Y-135023547D01*
X124301860Y-135253132D01*
X124301857Y-135253138D01*
X124299735Y-135257172D01*
X124298215Y-135261477D01*
X124298213Y-135261481D01*
X124238804Y-135429715D01*
X124210312Y-135510397D01*
X124158380Y-135773878D01*
X124158153Y-135778431D01*
X124158153Y-135778434D01*
X124148992Y-135962474D01*
X124145028Y-136042095D01*
X105850781Y-136042095D01*
X105854745Y-135962474D01*
X105854745Y-135962468D01*
X105854972Y-135957905D01*
X105829466Y-135690569D01*
X105765636Y-135429715D01*
X105664818Y-135180808D01*
X105529125Y-134949062D01*
X105418211Y-134810371D01*
X105364251Y-134742897D01*
X105364250Y-134742895D01*
X105361399Y-134739331D01*
X105165154Y-134556009D01*
X105005436Y-134445208D01*
X104948254Y-134405539D01*
X104948249Y-134405536D01*
X104944501Y-134402936D01*
X104940416Y-134400904D01*
X104940413Y-134400902D01*
X104768560Y-134315407D01*
X104704062Y-134283320D01*
X104699728Y-134281899D01*
X104699725Y-134281898D01*
X104453207Y-134201085D01*
X104453202Y-134201084D01*
X104448874Y-134199665D01*
X104444382Y-134198885D01*
X104188064Y-134154380D01*
X104188056Y-134154379D01*
X104184283Y-134153724D01*
X104175622Y-134153293D01*
X104101004Y-134149578D01*
X104100996Y-134149578D01*
X104099433Y-134149500D01*
X103931777Y-134149500D01*
X103929509Y-134149665D01*
X103929497Y-134149665D01*
X103799177Y-134159121D01*
X103732154Y-134163984D01*
X103727699Y-134164968D01*
X103727696Y-134164968D01*
X103474380Y-134220895D01*
X103474376Y-134220896D01*
X103469920Y-134221880D01*
X103344354Y-134269453D01*
X103223059Y-134315407D01*
X103223056Y-134315408D01*
X103218789Y-134317025D01*
X102984024Y-134447426D01*
X102980392Y-134450198D01*
X102774167Y-134607583D01*
X102774163Y-134607587D01*
X102770542Y-134610350D01*
X102582815Y-134802386D01*
X102424775Y-135019509D01*
X102422651Y-135023547D01*
X102301860Y-135253132D01*
X102301857Y-135253138D01*
X102299735Y-135257172D01*
X102298215Y-135261477D01*
X102298213Y-135261481D01*
X102238804Y-135429715D01*
X102210312Y-135510397D01*
X102158380Y-135773878D01*
X102158153Y-135778431D01*
X102158153Y-135778434D01*
X102148992Y-135962474D01*
X102145028Y-136042095D01*
X100500000Y-136042095D01*
X100500000Y-129254905D01*
X109804500Y-129254905D01*
X109804501Y-129965094D01*
X109815356Y-130069718D01*
X109870722Y-130235672D01*
X109874576Y-130241900D01*
X109874577Y-130241902D01*
X109920977Y-130316883D01*
X109962782Y-130384438D01*
X110086596Y-130508036D01*
X110092826Y-130511876D01*
X110092827Y-130511877D01*
X110228363Y-130595423D01*
X110235522Y-130599836D01*
X110401573Y-130654913D01*
X110408409Y-130655613D01*
X110408412Y-130655614D01*
X110460158Y-130660915D01*
X110504905Y-130665500D01*
X111298830Y-130665500D01*
X112105094Y-130665499D01*
X112108338Y-130665162D01*
X112108346Y-130665162D01*
X112154033Y-130660421D01*
X112209718Y-130654644D01*
X112375672Y-130599278D01*
X112524438Y-130507218D01*
X112648036Y-130383404D01*
X112651877Y-130377173D01*
X112735996Y-130240708D01*
X112735997Y-130240706D01*
X112739836Y-130234478D01*
X112794913Y-130068427D01*
X112798309Y-130035287D01*
X112805172Y-129968294D01*
X112805500Y-129965095D01*
X112805499Y-129254906D01*
X112794644Y-129150282D01*
X112739278Y-128984328D01*
X112723157Y-128958276D01*
X112651072Y-128841790D01*
X112647218Y-128835562D01*
X112523404Y-128711964D01*
X112497112Y-128695757D01*
X112380708Y-128624004D01*
X112380706Y-128624003D01*
X112374478Y-128620164D01*
X112208427Y-128565087D01*
X112201591Y-128564387D01*
X112201588Y-128564386D01*
X112149842Y-128559085D01*
X112105095Y-128554500D01*
X111311170Y-128554500D01*
X110504906Y-128554501D01*
X110501662Y-128554838D01*
X110501654Y-128554838D01*
X110455967Y-128559579D01*
X110400282Y-128565356D01*
X110234328Y-128620722D01*
X110228100Y-128624576D01*
X110228098Y-128624577D01*
X110178310Y-128655387D01*
X110085562Y-128712782D01*
X109961964Y-128836596D01*
X109958124Y-128842826D01*
X109958123Y-128842827D01*
X109885409Y-128960791D01*
X109870164Y-128985522D01*
X109815087Y-129151573D01*
X109804500Y-129254905D01*
X100500000Y-129254905D01*
X100500000Y-125761500D01*
X100520002Y-125693379D01*
X100573658Y-125646886D01*
X100626000Y-125635500D01*
X103661611Y-125635499D01*
X103747376Y-125635499D01*
X103750770Y-125635130D01*
X103750776Y-125635130D01*
X103800722Y-125629705D01*
X103800726Y-125629704D01*
X103808580Y-125628851D01*
X103942824Y-125578526D01*
X103950003Y-125573146D01*
X103950006Y-125573144D01*
X104050365Y-125497928D01*
X104057546Y-125492546D01*
X104062928Y-125485365D01*
X104138144Y-125385006D01*
X104138146Y-125385003D01*
X104143526Y-125377824D01*
X104193851Y-125243580D01*
X104194068Y-125241585D01*
X104227988Y-125182208D01*
X104290943Y-125149387D01*
X104315354Y-125147000D01*
X109795154Y-125147000D01*
X109863275Y-125167002D01*
X109902297Y-125206696D01*
X109962782Y-125304438D01*
X110086596Y-125428036D01*
X110092826Y-125431876D01*
X110092827Y-125431877D01*
X110228363Y-125515423D01*
X110235522Y-125519836D01*
X110401573Y-125574913D01*
X110408409Y-125575613D01*
X110408412Y-125575614D01*
X110460158Y-125580915D01*
X110504905Y-125585500D01*
X111298830Y-125585500D01*
X112105094Y-125585499D01*
X112108338Y-125585162D01*
X112108346Y-125585162D01*
X112154033Y-125580421D01*
X112209718Y-125574644D01*
X112375672Y-125519278D01*
X112430475Y-125485365D01*
X112518210Y-125431072D01*
X112524438Y-125427218D01*
X112648036Y-125303404D01*
X112684743Y-125243855D01*
X112735996Y-125160708D01*
X112735997Y-125160706D01*
X112739836Y-125154478D01*
X112794913Y-124988427D01*
X112805500Y-124885095D01*
X112805499Y-124174906D01*
X112805499Y-124174905D01*
X116094500Y-124174905D01*
X116094501Y-124885094D01*
X116105356Y-124989718D01*
X116160722Y-125155672D01*
X116164576Y-125161900D01*
X116164577Y-125161902D01*
X116215122Y-125243580D01*
X116252782Y-125304438D01*
X116376596Y-125428036D01*
X116382826Y-125431876D01*
X116382827Y-125431877D01*
X116518363Y-125515423D01*
X116525522Y-125519836D01*
X116691573Y-125574913D01*
X116698409Y-125575613D01*
X116698412Y-125575614D01*
X116750158Y-125580915D01*
X116794905Y-125585500D01*
X117588830Y-125585500D01*
X118395094Y-125585499D01*
X118398338Y-125585162D01*
X118398346Y-125585162D01*
X118444033Y-125580421D01*
X118499718Y-125574644D01*
X118665672Y-125519278D01*
X118720475Y-125485365D01*
X118808210Y-125431072D01*
X118814438Y-125427218D01*
X118938036Y-125303404D01*
X118974743Y-125243855D01*
X119025996Y-125160708D01*
X119025997Y-125160706D01*
X119029836Y-125154478D01*
X119084913Y-124988427D01*
X119095500Y-124885095D01*
X119095499Y-124174906D01*
X119084644Y-124070282D01*
X119029278Y-123904328D01*
X118994549Y-123848206D01*
X118944593Y-123767480D01*
X118937218Y-123755562D01*
X118813404Y-123631964D01*
X118785874Y-123614994D01*
X118670708Y-123544004D01*
X118670706Y-123544003D01*
X118664478Y-123540164D01*
X118498427Y-123485087D01*
X118491591Y-123484387D01*
X118491588Y-123484386D01*
X118439842Y-123479085D01*
X118395095Y-123474500D01*
X117601170Y-123474500D01*
X116794906Y-123474501D01*
X116791662Y-123474838D01*
X116791654Y-123474838D01*
X116745967Y-123479579D01*
X116690282Y-123485356D01*
X116524328Y-123540722D01*
X116375562Y-123632782D01*
X116251964Y-123756596D01*
X116248124Y-123762826D01*
X116248123Y-123762827D01*
X116197942Y-123844236D01*
X116160164Y-123905522D01*
X116105087Y-124071573D01*
X116104387Y-124078409D01*
X116104386Y-124078412D01*
X116099144Y-124129574D01*
X116094500Y-124174905D01*
X112805499Y-124174905D01*
X112794644Y-124070282D01*
X112739278Y-123904328D01*
X112704549Y-123848206D01*
X112654593Y-123767480D01*
X112647218Y-123755562D01*
X112523404Y-123631964D01*
X112495874Y-123614994D01*
X112380708Y-123544004D01*
X112380706Y-123544003D01*
X112374478Y-123540164D01*
X112208427Y-123485087D01*
X112201591Y-123484387D01*
X112201588Y-123484386D01*
X112149842Y-123479085D01*
X112105095Y-123474500D01*
X111311170Y-123474500D01*
X110504906Y-123474501D01*
X110501662Y-123474838D01*
X110501654Y-123474838D01*
X110455967Y-123479579D01*
X110400282Y-123485356D01*
X110234328Y-123540722D01*
X110085562Y-123632782D01*
X109961964Y-123756596D01*
X109958126Y-123762823D01*
X109958124Y-123762825D01*
X109939452Y-123793116D01*
X109886679Y-123840609D01*
X109832192Y-123853000D01*
X104315354Y-123853000D01*
X104247233Y-123832998D01*
X104200740Y-123779342D01*
X104194307Y-123760615D01*
X104193851Y-123756420D01*
X104143526Y-123622176D01*
X104138146Y-123614997D01*
X104138144Y-123614994D01*
X104062928Y-123514635D01*
X104057546Y-123507454D01*
X104027702Y-123485087D01*
X103950006Y-123426856D01*
X103950003Y-123426854D01*
X103942824Y-123421474D01*
X103853439Y-123387966D01*
X103815975Y-123373921D01*
X103815973Y-123373921D01*
X103808580Y-123371149D01*
X103800730Y-123370296D01*
X103800729Y-123370296D01*
X103750774Y-123364869D01*
X103750773Y-123364869D01*
X103747377Y-123364500D01*
X103661636Y-123364500D01*
X100626000Y-123364501D01*
X100557879Y-123344499D01*
X100511386Y-123290843D01*
X100500000Y-123238501D01*
X100500000Y-112145965D01*
X104024500Y-112145965D01*
X104024501Y-112754034D01*
X104034907Y-112854335D01*
X104037086Y-112860866D01*
X104037087Y-112860871D01*
X104071962Y-112965402D01*
X104087986Y-113013432D01*
X104176242Y-113156052D01*
X104264069Y-113243726D01*
X104278518Y-113258150D01*
X104312597Y-113320433D01*
X104315500Y-113347323D01*
X104315500Y-113679105D01*
X104295498Y-113747226D01*
X104278595Y-113768200D01*
X104207203Y-113839592D01*
X104119373Y-113984617D01*
X104068671Y-114146406D01*
X104062000Y-114219007D01*
X104062001Y-114880992D01*
X104062264Y-114883850D01*
X104062264Y-114883859D01*
X104065334Y-114917271D01*
X104068671Y-114953594D01*
X104070670Y-114959972D01*
X104070670Y-114959973D01*
X104099578Y-115052216D01*
X104119373Y-115115383D01*
X104207203Y-115260408D01*
X104327092Y-115380297D01*
X104472117Y-115468127D01*
X104479364Y-115470398D01*
X104479366Y-115470399D01*
X104538780Y-115489018D01*
X104633906Y-115518829D01*
X104706507Y-115525500D01*
X104709405Y-115525500D01*
X104963164Y-115525499D01*
X105218492Y-115525499D01*
X105221350Y-115525236D01*
X105221359Y-115525236D01*
X105256743Y-115521985D01*
X105291094Y-115518829D01*
X105311899Y-115512309D01*
X105445634Y-115470399D01*
X105445636Y-115470398D01*
X105452883Y-115468127D01*
X105597908Y-115380297D01*
X105698405Y-115279800D01*
X105760717Y-115245774D01*
X105831532Y-115250839D01*
X105876595Y-115279800D01*
X105928595Y-115331800D01*
X105962621Y-115394112D01*
X105965500Y-115420895D01*
X105965500Y-116575004D01*
X105964955Y-116586553D01*
X105963252Y-116594174D01*
X105963501Y-116602096D01*
X105965438Y-116663730D01*
X105965500Y-116667688D01*
X105965500Y-116696250D01*
X105965997Y-116700182D01*
X105965997Y-116700186D01*
X105966034Y-116700480D01*
X105966964Y-116712299D01*
X105968387Y-116757564D01*
X105970599Y-116765177D01*
X105974217Y-116777630D01*
X105978227Y-116796994D01*
X105980846Y-116817727D01*
X105993867Y-116850613D01*
X105997516Y-116859829D01*
X106001362Y-116871062D01*
X106013994Y-116914543D01*
X106018031Y-116921369D01*
X106024633Y-116932533D01*
X106033330Y-116950286D01*
X106041024Y-116969718D01*
X106045685Y-116976133D01*
X106067642Y-117006355D01*
X106074156Y-117016272D01*
X106097207Y-117055249D01*
X106111983Y-117070025D01*
X106124823Y-117085058D01*
X106137109Y-117101968D01*
X106143213Y-117107018D01*
X106143218Y-117107023D01*
X106172007Y-117130839D01*
X106180787Y-117138829D01*
X109793522Y-120751564D01*
X109801305Y-120760116D01*
X109805490Y-120766711D01*
X109811267Y-120772136D01*
X109856227Y-120814356D01*
X109859069Y-120817111D01*
X109879258Y-120837300D01*
X109882383Y-120839724D01*
X109882385Y-120839726D01*
X109882620Y-120839908D01*
X109891644Y-120847615D01*
X109924655Y-120878614D01*
X109931597Y-120882430D01*
X109931602Y-120882434D01*
X109942964Y-120888680D01*
X109959489Y-120899534D01*
X109976006Y-120912346D01*
X110017583Y-120930338D01*
X110028222Y-120935550D01*
X110060963Y-120953550D01*
X110060965Y-120953551D01*
X110067905Y-120957366D01*
X110088152Y-120962565D01*
X110106844Y-120968964D01*
X110126032Y-120977267D01*
X110133859Y-120978507D01*
X110133860Y-120978507D01*
X110141734Y-120979754D01*
X110170755Y-120984350D01*
X110182370Y-120986756D01*
X110226239Y-120998020D01*
X110247140Y-120998020D01*
X110266850Y-120999571D01*
X110287490Y-121002840D01*
X110295382Y-121002094D01*
X110332566Y-120998579D01*
X110344424Y-120998020D01*
X116613438Y-120998020D01*
X116624987Y-120998565D01*
X116632608Y-121000268D01*
X116702164Y-120998082D01*
X116706122Y-120998020D01*
X116734684Y-120998020D01*
X116738616Y-120997523D01*
X116738620Y-120997523D01*
X116738914Y-120997486D01*
X116750733Y-120996556D01*
X116783796Y-120995516D01*
X116795998Y-120995133D01*
X116816065Y-120989303D01*
X116835428Y-120985293D01*
X116848295Y-120983668D01*
X116848298Y-120983667D01*
X116856161Y-120982674D01*
X116898263Y-120966004D01*
X116909496Y-120962158D01*
X116919213Y-120959335D01*
X116952977Y-120949526D01*
X116970966Y-120938887D01*
X116988720Y-120930190D01*
X117000777Y-120925416D01*
X117008152Y-120922496D01*
X117044789Y-120895878D01*
X117054709Y-120889362D01*
X117093683Y-120866313D01*
X117108459Y-120851537D01*
X117123493Y-120838696D01*
X117140402Y-120826411D01*
X117145452Y-120820307D01*
X117145457Y-120820302D01*
X117169273Y-120791513D01*
X117177263Y-120782733D01*
X117417591Y-120542405D01*
X117479903Y-120508379D01*
X117506686Y-120505500D01*
X118339683Y-120505499D01*
X118395094Y-120505499D01*
X118398338Y-120505162D01*
X118398346Y-120505162D01*
X118444033Y-120500421D01*
X118499718Y-120494644D01*
X118665672Y-120439278D01*
X118814438Y-120347218D01*
X118938036Y-120223404D01*
X119029836Y-120074478D01*
X119084913Y-119908427D01*
X119095500Y-119805095D01*
X119095499Y-119094906D01*
X119084644Y-118990282D01*
X119029278Y-118824328D01*
X118937218Y-118675562D01*
X118813404Y-118551964D01*
X118763339Y-118521103D01*
X118670708Y-118464004D01*
X118670706Y-118464003D01*
X118664478Y-118460164D01*
X118498427Y-118405087D01*
X118491591Y-118404387D01*
X118491588Y-118404386D01*
X118439842Y-118399085D01*
X118395095Y-118394500D01*
X118006612Y-118394500D01*
X117938491Y-118374498D01*
X117917517Y-118357596D01*
X117162405Y-117602485D01*
X117128380Y-117540172D01*
X117125500Y-117513389D01*
X117125500Y-115774200D01*
X117110120Y-115622784D01*
X117084309Y-115540421D01*
X117081265Y-115530708D01*
X117075499Y-115493029D01*
X117075499Y-115177624D01*
X117075130Y-115174224D01*
X117069705Y-115124278D01*
X117069704Y-115124274D01*
X117068851Y-115116420D01*
X117018526Y-114982176D01*
X117013146Y-114974997D01*
X117013144Y-114974994D01*
X116937928Y-114874635D01*
X116932546Y-114867454D01*
X116925365Y-114862072D01*
X116825006Y-114786856D01*
X116825003Y-114786854D01*
X116817824Y-114781474D01*
X116728439Y-114747966D01*
X116690975Y-114733921D01*
X116690973Y-114733921D01*
X116683580Y-114731149D01*
X116675730Y-114730296D01*
X116675729Y-114730296D01*
X116625774Y-114724869D01*
X116625773Y-114724869D01*
X116622377Y-114724500D01*
X116605962Y-114724500D01*
X116126499Y-114724501D01*
X116058379Y-114704499D01*
X116011886Y-114650844D01*
X116000500Y-114598501D01*
X116000500Y-114451500D01*
X116020502Y-114383379D01*
X116074158Y-114336886D01*
X116126500Y-114325500D01*
X122558546Y-114325500D01*
X122577496Y-114326933D01*
X122591396Y-114329048D01*
X122591400Y-114329048D01*
X122598630Y-114330148D01*
X122605922Y-114329555D01*
X122605925Y-114329555D01*
X122650675Y-114325915D01*
X122660889Y-114325500D01*
X122668822Y-114325500D01*
X122678118Y-114324416D01*
X122696736Y-114322246D01*
X122701111Y-114321813D01*
X122731274Y-114319360D01*
X122773059Y-114315961D01*
X122780021Y-114313706D01*
X122785816Y-114312548D01*
X122791558Y-114311191D01*
X122798828Y-114310343D01*
X122866736Y-114285694D01*
X122870864Y-114284277D01*
X122932583Y-114264283D01*
X122932585Y-114264282D01*
X122939546Y-114262027D01*
X122945800Y-114258232D01*
X122951179Y-114255769D01*
X122956455Y-114253127D01*
X122963331Y-114250631D01*
X123023709Y-114211046D01*
X123027419Y-114208705D01*
X123084361Y-114174152D01*
X123084368Y-114174147D01*
X123089160Y-114171239D01*
X123097452Y-114163915D01*
X123097474Y-114163940D01*
X123100570Y-114161193D01*
X123103562Y-114158692D01*
X123109685Y-114154677D01*
X123162382Y-114099050D01*
X123164759Y-114096609D01*
X124021193Y-113240175D01*
X124035605Y-113227789D01*
X124046929Y-113219456D01*
X124046933Y-113219453D01*
X124052824Y-113215117D01*
X124086635Y-113175319D01*
X124093565Y-113167803D01*
X124099171Y-113162197D01*
X124101434Y-113159336D01*
X124101439Y-113159331D01*
X124116617Y-113140146D01*
X124119406Y-113136745D01*
X124161391Y-113087326D01*
X124161393Y-113087324D01*
X124166132Y-113081745D01*
X124169462Y-113075224D01*
X124172759Y-113070280D01*
X124175840Y-113065291D01*
X124180381Y-113059551D01*
X124210947Y-112994151D01*
X124212875Y-112990205D01*
X124224799Y-112966853D01*
X124245719Y-112925884D01*
X124247458Y-112918775D01*
X124249517Y-112913240D01*
X124251383Y-112907632D01*
X124254479Y-112901007D01*
X124262828Y-112860871D01*
X124269185Y-112830307D01*
X124270156Y-112826018D01*
X124279249Y-112788857D01*
X124287315Y-112755894D01*
X124288000Y-112744852D01*
X124288032Y-112744854D01*
X124288279Y-112740724D01*
X124288625Y-112736844D01*
X124290118Y-112729669D01*
X124288046Y-112653100D01*
X124288000Y-112649692D01*
X124288000Y-112024644D01*
X124308002Y-111956523D01*
X124361658Y-111910030D01*
X124376384Y-111904562D01*
X124377785Y-111903956D01*
X124385398Y-111901744D01*
X124419665Y-111881479D01*
X124520044Y-111822115D01*
X124526865Y-111818081D01*
X124643081Y-111701865D01*
X124685209Y-111630630D01*
X124722709Y-111567221D01*
X124722709Y-111567220D01*
X124726744Y-111560398D01*
X124731368Y-111544484D01*
X124770801Y-111408754D01*
X124772598Y-111402569D01*
X124773633Y-111389416D01*
X124775307Y-111368153D01*
X124775308Y-111368140D01*
X124775500Y-111365694D01*
X124775500Y-110934306D01*
X124775308Y-110931860D01*
X124775307Y-110931847D01*
X124773103Y-110903850D01*
X124772598Y-110897431D01*
X124739726Y-110784286D01*
X124728956Y-110747215D01*
X124728955Y-110747214D01*
X124726744Y-110739602D01*
X124643081Y-110598135D01*
X124526865Y-110481919D01*
X124385398Y-110398256D01*
X124377786Y-110396045D01*
X124377785Y-110396044D01*
X124233754Y-110354199D01*
X124233755Y-110354199D01*
X124227569Y-110352402D01*
X124214416Y-110351367D01*
X124193153Y-110349693D01*
X124193140Y-110349692D01*
X124190694Y-110349500D01*
X123026500Y-110349500D01*
X122958379Y-110329498D01*
X122911886Y-110275842D01*
X122900500Y-110223500D01*
X122900500Y-109984306D01*
X122900308Y-109981860D01*
X122900307Y-109981847D01*
X122898103Y-109953850D01*
X122897598Y-109947431D01*
X122862438Y-109826409D01*
X122853956Y-109797215D01*
X122853955Y-109797214D01*
X122851744Y-109789602D01*
X122840993Y-109771422D01*
X122772115Y-109654956D01*
X122768081Y-109648135D01*
X122651865Y-109531919D01*
X122510398Y-109448256D01*
X122502786Y-109446045D01*
X122502785Y-109446044D01*
X122358754Y-109404199D01*
X122358755Y-109404199D01*
X122352569Y-109402402D01*
X122339416Y-109401367D01*
X122318153Y-109399693D01*
X122318140Y-109399692D01*
X122315694Y-109399500D01*
X121009306Y-109399500D01*
X121006860Y-109399692D01*
X121006847Y-109399693D01*
X120985584Y-109401367D01*
X120972431Y-109402402D01*
X120966245Y-109404199D01*
X120966246Y-109404199D01*
X120822215Y-109446044D01*
X120822214Y-109446045D01*
X120814602Y-109448256D01*
X120673135Y-109531919D01*
X120570345Y-109634709D01*
X120508033Y-109668735D01*
X120437218Y-109663670D01*
X120380382Y-109621123D01*
X120373474Y-109610886D01*
X120368085Y-109601987D01*
X120330297Y-109539592D01*
X120210408Y-109419703D01*
X120065383Y-109331873D01*
X120058136Y-109329602D01*
X120058134Y-109329601D01*
X119992894Y-109309156D01*
X119903594Y-109281171D01*
X119830993Y-109274500D01*
X119828095Y-109274500D01*
X119499142Y-109274501D01*
X119169008Y-109274501D01*
X119166150Y-109274764D01*
X119166141Y-109274764D01*
X119130757Y-109278015D01*
X119096406Y-109281171D01*
X119090028Y-109283170D01*
X119090027Y-109283170D01*
X118941866Y-109329601D01*
X118941864Y-109329602D01*
X118934617Y-109331873D01*
X118789592Y-109419703D01*
X118669703Y-109539592D01*
X118581873Y-109684617D01*
X118531171Y-109846406D01*
X118524500Y-109919007D01*
X118524500Y-110036941D01*
X118504498Y-110105062D01*
X118487596Y-110126036D01*
X117776038Y-110837595D01*
X117713725Y-110871620D01*
X117686942Y-110874500D01*
X117516686Y-110874500D01*
X117448565Y-110854498D01*
X117427591Y-110837595D01*
X115683905Y-109093909D01*
X115649879Y-109031597D01*
X115647000Y-109004814D01*
X115647000Y-108707137D01*
X115667002Y-108639016D01*
X115706698Y-108599992D01*
X115713120Y-108596018D01*
X115713119Y-108596018D01*
X115719345Y-108592166D01*
X115842984Y-108468311D01*
X115934814Y-108319334D01*
X115989910Y-108153228D01*
X116000500Y-108049866D01*
X116000500Y-104549866D01*
X118099500Y-104549866D01*
X118099837Y-104553112D01*
X118099837Y-104553116D01*
X118109515Y-104646383D01*
X118110359Y-104654519D01*
X118165744Y-104820529D01*
X118257834Y-104969345D01*
X118381689Y-105092984D01*
X118530666Y-105184814D01*
X118537614Y-105187119D01*
X118537615Y-105187119D01*
X118690241Y-105237744D01*
X118690243Y-105237745D01*
X118696772Y-105239910D01*
X118800134Y-105250500D01*
X119999866Y-105250500D01*
X120003112Y-105250163D01*
X120003116Y-105250163D01*
X120097661Y-105240353D01*
X120097665Y-105240352D01*
X120104519Y-105239641D01*
X120111055Y-105237460D01*
X120111057Y-105237460D01*
X120263581Y-105186574D01*
X120270529Y-105184256D01*
X120419345Y-105092166D01*
X120542984Y-104968311D01*
X120634814Y-104819334D01*
X120637119Y-104812385D01*
X120687744Y-104659759D01*
X120687745Y-104659757D01*
X120689910Y-104653228D01*
X120700500Y-104549866D01*
X120700500Y-104042095D01*
X124145028Y-104042095D01*
X124170534Y-104309431D01*
X124234364Y-104570285D01*
X124236076Y-104574511D01*
X124236077Y-104574515D01*
X124302506Y-104738519D01*
X124335182Y-104819192D01*
X124470875Y-105050938D01*
X124473728Y-105054505D01*
X124630469Y-105250500D01*
X124638601Y-105260669D01*
X124834846Y-105443991D01*
X124927039Y-105507948D01*
X125051746Y-105594461D01*
X125051751Y-105594464D01*
X125055499Y-105597064D01*
X125059584Y-105599096D01*
X125059587Y-105599098D01*
X125175719Y-105656872D01*
X125295938Y-105716680D01*
X125300272Y-105718101D01*
X125300275Y-105718102D01*
X125546793Y-105798915D01*
X125546798Y-105798916D01*
X125551126Y-105800335D01*
X125555617Y-105801115D01*
X125555618Y-105801115D01*
X125811936Y-105845620D01*
X125811944Y-105845621D01*
X125815717Y-105846276D01*
X125819554Y-105846467D01*
X125898996Y-105850422D01*
X125899004Y-105850422D01*
X125900567Y-105850500D01*
X126068223Y-105850500D01*
X126070491Y-105850335D01*
X126070503Y-105850335D01*
X126200823Y-105840879D01*
X126267846Y-105836016D01*
X126272301Y-105835032D01*
X126272304Y-105835032D01*
X126525620Y-105779105D01*
X126525624Y-105779104D01*
X126530080Y-105778120D01*
X126697617Y-105714646D01*
X126776941Y-105684593D01*
X126776944Y-105684592D01*
X126781211Y-105682975D01*
X127015976Y-105552574D01*
X127158254Y-105443991D01*
X127225833Y-105392417D01*
X127225837Y-105392413D01*
X127229458Y-105389650D01*
X127417185Y-105197614D01*
X127490548Y-105096825D01*
X127572538Y-104984183D01*
X127572540Y-104984180D01*
X127575225Y-104980491D01*
X127634659Y-104867525D01*
X127698140Y-104746868D01*
X127698143Y-104746862D01*
X127700265Y-104742828D01*
X127729142Y-104661057D01*
X127788165Y-104493916D01*
X127788165Y-104493915D01*
X127789688Y-104489603D01*
X127841620Y-104226122D01*
X127841847Y-104221566D01*
X127854745Y-103962474D01*
X127854745Y-103962468D01*
X127854972Y-103957905D01*
X127829466Y-103690569D01*
X127765636Y-103429715D01*
X127664818Y-103180808D01*
X127529125Y-102949062D01*
X127418211Y-102810371D01*
X127364251Y-102742897D01*
X127364250Y-102742895D01*
X127361399Y-102739331D01*
X127165154Y-102556009D01*
X127005436Y-102445208D01*
X126948254Y-102405539D01*
X126948249Y-102405536D01*
X126944501Y-102402936D01*
X126940416Y-102400904D01*
X126940413Y-102400902D01*
X126768560Y-102315407D01*
X126704062Y-102283320D01*
X126699728Y-102281899D01*
X126699725Y-102281898D01*
X126453207Y-102201085D01*
X126453202Y-102201084D01*
X126448874Y-102199665D01*
X126444382Y-102198885D01*
X126188064Y-102154380D01*
X126188056Y-102154379D01*
X126184283Y-102153724D01*
X126175622Y-102153293D01*
X126101004Y-102149578D01*
X126100996Y-102149578D01*
X126099433Y-102149500D01*
X125931777Y-102149500D01*
X125929509Y-102149665D01*
X125929497Y-102149665D01*
X125799177Y-102159121D01*
X125732154Y-102163984D01*
X125727699Y-102164968D01*
X125727696Y-102164968D01*
X125474380Y-102220895D01*
X125474376Y-102220896D01*
X125469920Y-102221880D01*
X125363349Y-102262256D01*
X125223059Y-102315407D01*
X125223056Y-102315408D01*
X125218789Y-102317025D01*
X124984024Y-102447426D01*
X124980392Y-102450198D01*
X124774167Y-102607583D01*
X124774163Y-102607587D01*
X124770542Y-102610350D01*
X124767357Y-102613608D01*
X124767356Y-102613609D01*
X124710948Y-102671312D01*
X124582815Y-102802386D01*
X124580130Y-102806075D01*
X124472895Y-102953400D01*
X124424775Y-103019509D01*
X124422651Y-103023547D01*
X124301860Y-103253132D01*
X124301857Y-103253138D01*
X124299735Y-103257172D01*
X124298215Y-103261477D01*
X124298213Y-103261481D01*
X124238804Y-103429715D01*
X124210312Y-103510397D01*
X124158380Y-103773878D01*
X124158153Y-103778431D01*
X124158153Y-103778434D01*
X124148992Y-103962474D01*
X124145028Y-104042095D01*
X120700500Y-104042095D01*
X120700500Y-101950134D01*
X120700163Y-101946884D01*
X120690353Y-101852339D01*
X120690352Y-101852335D01*
X120689641Y-101845481D01*
X120634256Y-101679471D01*
X120542166Y-101530655D01*
X120418311Y-101407016D01*
X120269334Y-101315186D01*
X120262385Y-101312881D01*
X120109759Y-101262256D01*
X120109757Y-101262255D01*
X120103228Y-101260090D01*
X119999866Y-101249500D01*
X118800134Y-101249500D01*
X118796888Y-101249837D01*
X118796884Y-101249837D01*
X118702339Y-101259647D01*
X118702335Y-101259648D01*
X118695481Y-101260359D01*
X118688945Y-101262540D01*
X118688943Y-101262540D01*
X118549860Y-101308942D01*
X118529471Y-101315744D01*
X118380655Y-101407834D01*
X118257016Y-101531689D01*
X118165186Y-101680666D01*
X118110090Y-101846772D01*
X118099500Y-101950134D01*
X118099500Y-104549866D01*
X116000500Y-104549866D01*
X116000500Y-102950134D01*
X115989641Y-102845481D01*
X115975264Y-102802386D01*
X115936574Y-102686419D01*
X115934256Y-102679471D01*
X115842166Y-102530655D01*
X115718311Y-102407016D01*
X115569334Y-102315186D01*
X115562385Y-102312881D01*
X115409759Y-102262256D01*
X115409757Y-102262255D01*
X115403228Y-102260090D01*
X115299866Y-102249500D01*
X114700134Y-102249500D01*
X114696888Y-102249837D01*
X114696884Y-102249837D01*
X114602339Y-102259647D01*
X114602335Y-102259648D01*
X114595481Y-102260359D01*
X114588945Y-102262540D01*
X114588943Y-102262540D01*
X114530920Y-102281898D01*
X114429471Y-102315744D01*
X114280655Y-102407834D01*
X114157016Y-102531689D01*
X114153177Y-102537917D01*
X114153175Y-102537920D01*
X114107268Y-102612395D01*
X114054496Y-102659888D01*
X113984424Y-102671312D01*
X113919300Y-102643038D01*
X113892864Y-102612582D01*
X113846020Y-102536883D01*
X113842166Y-102530655D01*
X113718311Y-102407016D01*
X113569334Y-102315186D01*
X113562385Y-102312881D01*
X113409759Y-102262256D01*
X113409757Y-102262255D01*
X113403228Y-102260090D01*
X113299866Y-102249500D01*
X112700134Y-102249500D01*
X112696888Y-102249837D01*
X112696884Y-102249837D01*
X112602339Y-102259647D01*
X112602335Y-102259648D01*
X112595481Y-102260359D01*
X112588945Y-102262540D01*
X112588943Y-102262540D01*
X112530920Y-102281898D01*
X112429471Y-102315744D01*
X112280655Y-102407834D01*
X112157016Y-102531689D01*
X112133759Y-102569418D01*
X112080989Y-102616911D01*
X112010917Y-102628335D01*
X111945793Y-102600062D01*
X111906293Y-102541068D01*
X111900500Y-102503302D01*
X111900500Y-101950134D01*
X111900163Y-101946884D01*
X111890353Y-101852339D01*
X111890352Y-101852335D01*
X111889641Y-101845481D01*
X111834256Y-101679471D01*
X111742166Y-101530655D01*
X111618311Y-101407016D01*
X111469334Y-101315186D01*
X111462385Y-101312881D01*
X111309759Y-101262256D01*
X111309757Y-101262255D01*
X111303228Y-101260090D01*
X111199866Y-101249500D01*
X110000134Y-101249500D01*
X109996888Y-101249837D01*
X109996884Y-101249837D01*
X109902339Y-101259647D01*
X109902335Y-101259648D01*
X109895481Y-101260359D01*
X109888945Y-101262540D01*
X109888943Y-101262540D01*
X109749860Y-101308942D01*
X109729471Y-101315744D01*
X109580655Y-101407834D01*
X109457016Y-101531689D01*
X109365186Y-101680666D01*
X109310090Y-101846772D01*
X109299500Y-101950134D01*
X109299500Y-104549866D01*
X109299837Y-104553112D01*
X109299837Y-104553116D01*
X109309515Y-104646383D01*
X109310359Y-104654519D01*
X109365744Y-104820529D01*
X109457834Y-104969345D01*
X109581689Y-105092984D01*
X109730666Y-105184814D01*
X109737614Y-105187119D01*
X109737615Y-105187119D01*
X109890241Y-105237744D01*
X109890243Y-105237745D01*
X109896772Y-105239910D01*
X110000134Y-105250500D01*
X111199866Y-105250500D01*
X111203112Y-105250163D01*
X111203116Y-105250163D01*
X111297661Y-105240353D01*
X111297665Y-105240352D01*
X111304519Y-105239641D01*
X111311055Y-105237460D01*
X111311057Y-105237460D01*
X111463581Y-105186574D01*
X111470529Y-105184256D01*
X111619345Y-105092166D01*
X111742984Y-104968311D01*
X111766241Y-104930582D01*
X111819011Y-104883089D01*
X111889083Y-104871665D01*
X111954207Y-104899938D01*
X111993707Y-104958932D01*
X111999500Y-104996698D01*
X111999500Y-111455388D01*
X111979498Y-111523509D01*
X111925842Y-111570002D01*
X111855568Y-111580106D01*
X111790988Y-111550612D01*
X111784405Y-111544484D01*
X111498202Y-111258282D01*
X111467773Y-111209061D01*
X111463782Y-111197098D01*
X111463781Y-111197096D01*
X111461463Y-111190148D01*
X111372440Y-111046289D01*
X111363541Y-111037405D01*
X111310405Y-110984362D01*
X111252711Y-110926769D01*
X111215530Y-110903850D01*
X111114927Y-110841837D01*
X111114925Y-110841836D01*
X111108697Y-110837997D01*
X110948124Y-110784737D01*
X110941287Y-110784037D01*
X110941285Y-110784036D01*
X110885505Y-110778321D01*
X110863619Y-110774096D01*
X110734223Y-110736993D01*
X110734219Y-110736992D01*
X110728087Y-110735234D01*
X110618135Y-110726773D01*
X110531789Y-110720129D01*
X110531785Y-110720129D01*
X110525429Y-110719640D01*
X110484521Y-110724808D01*
X110330106Y-110744315D01*
X110330103Y-110744316D01*
X110323776Y-110745115D01*
X110244625Y-110772060D01*
X110217026Y-110778108D01*
X110150628Y-110784997D01*
X110144097Y-110787176D01*
X110144092Y-110787177D01*
X110002208Y-110834514D01*
X109990148Y-110838537D01*
X109846289Y-110927560D01*
X109726769Y-111047289D01*
X109722929Y-111053519D01*
X109722928Y-111053520D01*
X109710207Y-111074158D01*
X109637997Y-111191303D01*
X109584737Y-111351876D01*
X109574500Y-111451793D01*
X109574500Y-111488020D01*
X109571171Y-111516792D01*
X109566326Y-111537451D01*
X109552716Y-111595476D01*
X109552538Y-111601850D01*
X109550340Y-111680519D01*
X109528443Y-111748054D01*
X109473510Y-111793031D01*
X109424389Y-111803000D01*
X107430392Y-111803000D01*
X107362271Y-111782998D01*
X107331648Y-111755266D01*
X107327607Y-111750167D01*
X107323758Y-111743948D01*
X107205061Y-111625457D01*
X107062287Y-111537451D01*
X107020254Y-111523509D01*
X106909622Y-111486814D01*
X106909623Y-111486814D01*
X106903098Y-111484650D01*
X106896265Y-111483950D01*
X106896261Y-111483949D01*
X106843654Y-111478559D01*
X106804035Y-111474500D01*
X106539556Y-111474500D01*
X106270966Y-111474501D01*
X106170665Y-111484907D01*
X106164134Y-111487086D01*
X106164129Y-111487087D01*
X106027415Y-111532699D01*
X106011568Y-111537986D01*
X105868948Y-111626242D01*
X105863775Y-111631424D01*
X105839123Y-111656119D01*
X105776840Y-111690198D01*
X105706020Y-111685195D01*
X105660933Y-111656274D01*
X105635245Y-111630630D01*
X105635235Y-111630622D01*
X105630061Y-111625457D01*
X105487287Y-111537451D01*
X105445254Y-111523509D01*
X105334622Y-111486814D01*
X105334623Y-111486814D01*
X105328098Y-111484650D01*
X105321265Y-111483950D01*
X105321261Y-111483949D01*
X105268654Y-111478559D01*
X105229035Y-111474500D01*
X104964556Y-111474500D01*
X104695966Y-111474501D01*
X104595665Y-111484907D01*
X104589134Y-111487086D01*
X104589129Y-111487087D01*
X104452415Y-111532699D01*
X104436568Y-111537986D01*
X104293948Y-111626242D01*
X104175457Y-111744939D01*
X104087451Y-111887713D01*
X104085146Y-111894661D01*
X104085146Y-111894662D01*
X104080534Y-111908567D01*
X104034650Y-112046902D01*
X104024500Y-112145965D01*
X100500000Y-112145965D01*
X100500000Y-104042095D01*
X102145028Y-104042095D01*
X102170534Y-104309431D01*
X102234364Y-104570285D01*
X102236076Y-104574511D01*
X102236077Y-104574515D01*
X102302506Y-104738519D01*
X102335182Y-104819192D01*
X102470875Y-105050938D01*
X102473728Y-105054505D01*
X102630469Y-105250500D01*
X102638601Y-105260669D01*
X102834846Y-105443991D01*
X102927039Y-105507948D01*
X103051746Y-105594461D01*
X103051751Y-105594464D01*
X103055499Y-105597064D01*
X103059584Y-105599096D01*
X103059587Y-105599098D01*
X103175719Y-105656872D01*
X103295938Y-105716680D01*
X103300272Y-105718101D01*
X103300275Y-105718102D01*
X103546793Y-105798915D01*
X103546798Y-105798916D01*
X103551126Y-105800335D01*
X103555617Y-105801115D01*
X103555618Y-105801115D01*
X103811936Y-105845620D01*
X103811944Y-105845621D01*
X103815717Y-105846276D01*
X103819554Y-105846467D01*
X103898996Y-105850422D01*
X103899004Y-105850422D01*
X103900567Y-105850500D01*
X104068223Y-105850500D01*
X104070491Y-105850335D01*
X104070503Y-105850335D01*
X104200823Y-105840879D01*
X104267846Y-105836016D01*
X104272301Y-105835032D01*
X104272304Y-105835032D01*
X104525620Y-105779105D01*
X104525624Y-105779104D01*
X104530080Y-105778120D01*
X104697617Y-105714646D01*
X104776941Y-105684593D01*
X104776944Y-105684592D01*
X104781211Y-105682975D01*
X105015976Y-105552574D01*
X105158254Y-105443991D01*
X105225833Y-105392417D01*
X105225837Y-105392413D01*
X105229458Y-105389650D01*
X105417185Y-105197614D01*
X105490548Y-105096825D01*
X105572538Y-104984183D01*
X105572540Y-104984180D01*
X105575225Y-104980491D01*
X105634659Y-104867525D01*
X105698140Y-104746868D01*
X105698143Y-104746862D01*
X105700265Y-104742828D01*
X105729142Y-104661057D01*
X105788165Y-104493916D01*
X105788165Y-104493915D01*
X105789688Y-104489603D01*
X105841620Y-104226122D01*
X105841847Y-104221566D01*
X105854745Y-103962474D01*
X105854745Y-103962468D01*
X105854972Y-103957905D01*
X105829466Y-103690569D01*
X105765636Y-103429715D01*
X105664818Y-103180808D01*
X105529125Y-102949062D01*
X105418211Y-102810371D01*
X105364251Y-102742897D01*
X105364250Y-102742895D01*
X105361399Y-102739331D01*
X105165154Y-102556009D01*
X105005436Y-102445208D01*
X104948254Y-102405539D01*
X104948249Y-102405536D01*
X104944501Y-102402936D01*
X104940416Y-102400904D01*
X104940413Y-102400902D01*
X104768560Y-102315407D01*
X104704062Y-102283320D01*
X104699728Y-102281899D01*
X104699725Y-102281898D01*
X104453207Y-102201085D01*
X104453202Y-102201084D01*
X104448874Y-102199665D01*
X104444382Y-102198885D01*
X104188064Y-102154380D01*
X104188056Y-102154379D01*
X104184283Y-102153724D01*
X104175622Y-102153293D01*
X104101004Y-102149578D01*
X104100996Y-102149578D01*
X104099433Y-102149500D01*
X103931777Y-102149500D01*
X103929509Y-102149665D01*
X103929497Y-102149665D01*
X103799177Y-102159121D01*
X103732154Y-102163984D01*
X103727699Y-102164968D01*
X103727696Y-102164968D01*
X103474380Y-102220895D01*
X103474376Y-102220896D01*
X103469920Y-102221880D01*
X103363349Y-102262256D01*
X103223059Y-102315407D01*
X103223056Y-102315408D01*
X103218789Y-102317025D01*
X102984024Y-102447426D01*
X102980392Y-102450198D01*
X102774167Y-102607583D01*
X102774163Y-102607587D01*
X102770542Y-102610350D01*
X102767357Y-102613608D01*
X102767356Y-102613609D01*
X102710948Y-102671312D01*
X102582815Y-102802386D01*
X102580130Y-102806075D01*
X102472895Y-102953400D01*
X102424775Y-103019509D01*
X102422651Y-103023547D01*
X102301860Y-103253132D01*
X102301857Y-103253138D01*
X102299735Y-103257172D01*
X102298215Y-103261477D01*
X102298213Y-103261481D01*
X102238804Y-103429715D01*
X102210312Y-103510397D01*
X102158380Y-103773878D01*
X102158153Y-103778431D01*
X102158153Y-103778434D01*
X102148992Y-103962474D01*
X102145028Y-104042095D01*
X100500000Y-104042095D01*
X100500000Y-100626000D01*
X100520002Y-100557879D01*
X100573658Y-100511386D01*
X100626000Y-100500000D01*
X129374000Y-100500000D01*
X129442121Y-100520002D01*
G37*
%TD.AperFunction*%
%TA.AperFunction,Conductor*%
G36*
X110356778Y-112954802D02*
G01*
X110387394Y-112977315D01*
X110812595Y-113402516D01*
X110846621Y-113464828D01*
X110849500Y-113491611D01*
X110849500Y-114833830D01*
X110849451Y-114837349D01*
X110847040Y-114923653D01*
X110848148Y-114929938D01*
X110848149Y-114929948D01*
X110857516Y-114983066D01*
X110858785Y-114992208D01*
X110864880Y-115052216D01*
X110873491Y-115079693D01*
X110877339Y-115095481D01*
X110881227Y-115117535D01*
X110881229Y-115117541D01*
X110882336Y-115123821D01*
X110884686Y-115129756D01*
X110904538Y-115179898D01*
X110907620Y-115188601D01*
X110925662Y-115246172D01*
X110936534Y-115265784D01*
X110939615Y-115271343D01*
X110946567Y-115286049D01*
X110957160Y-115312805D01*
X110960657Y-115318149D01*
X110990186Y-115363274D01*
X110994954Y-115371178D01*
X111024203Y-115423944D01*
X111028355Y-115428788D01*
X111042933Y-115445797D01*
X111052696Y-115458800D01*
X111068455Y-115482882D01*
X111072917Y-115487838D01*
X111111822Y-115526743D01*
X111118395Y-115533840D01*
X111156477Y-115578271D01*
X111161522Y-115582185D01*
X111161527Y-115582189D01*
X111180853Y-115597180D01*
X111192722Y-115607643D01*
X111787595Y-116202515D01*
X111821620Y-116264828D01*
X111824500Y-116291611D01*
X111824500Y-117463388D01*
X111804498Y-117531509D01*
X111787596Y-117552483D01*
X110982484Y-118357596D01*
X110920171Y-118391621D01*
X110893388Y-118394501D01*
X110504906Y-118394501D01*
X110501662Y-118394838D01*
X110501654Y-118394838D01*
X110455967Y-118399579D01*
X110400282Y-118405356D01*
X110234328Y-118460722D01*
X110228100Y-118464576D01*
X110228098Y-118464577D01*
X110136754Y-118521103D01*
X110085562Y-118552782D01*
X110080389Y-118557964D01*
X110064938Y-118573442D01*
X109961964Y-118676596D01*
X109927790Y-118732037D01*
X109887951Y-118796667D01*
X109835179Y-118844160D01*
X109765107Y-118855584D01*
X109699983Y-118827310D01*
X109691596Y-118819646D01*
X107296405Y-116424455D01*
X107262379Y-116362143D01*
X107259500Y-116335360D01*
X107259500Y-115420895D01*
X107279502Y-115352774D01*
X107296405Y-115331800D01*
X107367797Y-115260408D01*
X107455627Y-115115383D01*
X107475423Y-115052216D01*
X107497372Y-114982176D01*
X107506329Y-114953594D01*
X107513000Y-114880993D01*
X107512999Y-114219008D01*
X107512734Y-114216116D01*
X107507940Y-114163940D01*
X107506329Y-114146406D01*
X107504328Y-114140022D01*
X107457899Y-113991866D01*
X107457898Y-113991864D01*
X107455627Y-113984617D01*
X107367797Y-113839592D01*
X107247908Y-113719703D01*
X107102883Y-113631873D01*
X107037149Y-113611273D01*
X106978127Y-113571815D01*
X106949807Y-113506711D01*
X106961181Y-113436631D01*
X107008637Y-113383826D01*
X107034954Y-113371515D01*
X107056482Y-113364333D01*
X107056484Y-113364332D01*
X107063432Y-113362014D01*
X107206052Y-113273758D01*
X107324543Y-113155061D01*
X107328385Y-113148829D01*
X107331481Y-113144908D01*
X107389397Y-113103845D01*
X107430363Y-113097000D01*
X109744458Y-113097000D01*
X109756007Y-113097545D01*
X109763628Y-113099248D01*
X109833184Y-113097062D01*
X109837142Y-113097000D01*
X109865704Y-113097000D01*
X109869636Y-113096503D01*
X109869640Y-113096503D01*
X109869934Y-113096466D01*
X109881753Y-113095536D01*
X109914816Y-113094496D01*
X109927018Y-113094113D01*
X109947085Y-113088283D01*
X109966448Y-113084273D01*
X109979315Y-113082648D01*
X109979318Y-113082647D01*
X109987181Y-113081654D01*
X110029283Y-113064984D01*
X110040516Y-113061138D01*
X110083997Y-113048506D01*
X110101986Y-113037867D01*
X110119740Y-113029170D01*
X110131797Y-113024396D01*
X110139172Y-113021476D01*
X110175809Y-112994858D01*
X110185729Y-112988342D01*
X110217880Y-112969328D01*
X110224702Y-112965293D01*
X110224766Y-112965402D01*
X110287155Y-112940904D01*
X110356778Y-112954802D01*
G37*
%TD.AperFunction*%
%TA.AperFunction,Conductor*%
G36*
X114209012Y-108520877D02*
G01*
X114215512Y-108526923D01*
X114281689Y-108592984D01*
X114287919Y-108596824D01*
X114287920Y-108596825D01*
X114293115Y-108600027D01*
X114340609Y-108652799D01*
X114353000Y-108707287D01*
X114353000Y-109244458D01*
X114352455Y-109256007D01*
X114350752Y-109263628D01*
X114351001Y-109271550D01*
X114352938Y-109333184D01*
X114353000Y-109337142D01*
X114353000Y-109365704D01*
X114353497Y-109369636D01*
X114353497Y-109369640D01*
X114353534Y-109369934D01*
X114354464Y-109381753D01*
X114355113Y-109402402D01*
X114355887Y-109427018D01*
X114358099Y-109434631D01*
X114361717Y-109447084D01*
X114365727Y-109466448D01*
X114368346Y-109487181D01*
X114371266Y-109494555D01*
X114385016Y-109529283D01*
X114388862Y-109540516D01*
X114401494Y-109583997D01*
X114405531Y-109590823D01*
X114412133Y-109601987D01*
X114420830Y-109619740D01*
X114428524Y-109639172D01*
X114433185Y-109645587D01*
X114455142Y-109675809D01*
X114461656Y-109685726D01*
X114484707Y-109724703D01*
X114499483Y-109739479D01*
X114512323Y-109754512D01*
X114524609Y-109771422D01*
X114530713Y-109776472D01*
X114530718Y-109776477D01*
X114559507Y-109800293D01*
X114568287Y-109808283D01*
X116437595Y-111677591D01*
X116471621Y-111739903D01*
X116474500Y-111766686D01*
X116474501Y-111897709D01*
X116474501Y-112030992D01*
X116474764Y-112033850D01*
X116474764Y-112033859D01*
X116476591Y-112053739D01*
X116481171Y-112103594D01*
X116483170Y-112109972D01*
X116483170Y-112109973D01*
X116495802Y-112150280D01*
X116531873Y-112265383D01*
X116619703Y-112410408D01*
X116739592Y-112530297D01*
X116755528Y-112539948D01*
X116839369Y-112590724D01*
X116887276Y-112643121D01*
X116899249Y-112713101D01*
X116871488Y-112778445D01*
X116812806Y-112818407D01*
X116774098Y-112824500D01*
X116052696Y-112824500D01*
X115984575Y-112804498D01*
X115963679Y-112787674D01*
X115932892Y-112756941D01*
X115932891Y-112756940D01*
X115927711Y-112751769D01*
X115908377Y-112739851D01*
X115789927Y-112666837D01*
X115789925Y-112666836D01*
X115783697Y-112662997D01*
X115623124Y-112609737D01*
X115616288Y-112609037D01*
X115616285Y-112609036D01*
X115566203Y-112603905D01*
X115523207Y-112599500D01*
X115252107Y-112599500D01*
X114976794Y-112599501D01*
X114973550Y-112599838D01*
X114973542Y-112599838D01*
X114929120Y-112604447D01*
X114875628Y-112609997D01*
X114715148Y-112663537D01*
X114636201Y-112712391D01*
X114577516Y-112748706D01*
X114577513Y-112748709D01*
X114571289Y-112752560D01*
X114564085Y-112759777D01*
X114562352Y-112760725D01*
X114560379Y-112762289D01*
X114560111Y-112761951D01*
X114501803Y-112793858D01*
X114430983Y-112788857D01*
X114385890Y-112759934D01*
X114382891Y-112756940D01*
X114377711Y-112751769D01*
X114358377Y-112739851D01*
X114239927Y-112666837D01*
X114239925Y-112666836D01*
X114233697Y-112662997D01*
X114073124Y-112609737D01*
X114066290Y-112609037D01*
X114066286Y-112609036D01*
X114033178Y-112605644D01*
X113967450Y-112578802D01*
X113926669Y-112520687D01*
X113923781Y-112449749D01*
X113929033Y-112433505D01*
X113930785Y-112429124D01*
X113933742Y-112423469D01*
X113935499Y-112417341D01*
X113935502Y-112417334D01*
X113941677Y-112395797D01*
X113947156Y-112380495D01*
X113958586Y-112354081D01*
X113970924Y-112295021D01*
X113973130Y-112286105D01*
X113989767Y-112228087D01*
X113991975Y-112199387D01*
X113994267Y-112183285D01*
X113999160Y-112159865D01*
X113999161Y-112159861D01*
X114000151Y-112155120D01*
X114000500Y-112148461D01*
X114000500Y-112093437D01*
X114000871Y-112083771D01*
X114004871Y-112031785D01*
X114005360Y-112025429D01*
X114004561Y-112019106D01*
X114004561Y-112019095D01*
X114001494Y-111994818D01*
X114000500Y-111979026D01*
X114000500Y-108616101D01*
X114020502Y-108547980D01*
X114074158Y-108501487D01*
X114144432Y-108491383D01*
X114209012Y-108520877D01*
G37*
%TD.AperFunction*%
%TA.AperFunction,Conductor*%
G36*
X122241621Y-111020502D02*
G01*
X122288114Y-111074158D01*
X122299500Y-111126500D01*
X122299500Y-111365694D01*
X122299692Y-111368140D01*
X122299693Y-111368153D01*
X122301367Y-111389416D01*
X122302402Y-111402569D01*
X122304199Y-111408754D01*
X122343633Y-111544484D01*
X122348256Y-111560398D01*
X122352291Y-111567220D01*
X122352291Y-111567221D01*
X122389791Y-111630630D01*
X122431919Y-111701865D01*
X122548135Y-111818081D01*
X122554956Y-111822115D01*
X122655336Y-111881479D01*
X122689602Y-111901744D01*
X122697215Y-111903956D01*
X122704488Y-111907103D01*
X122703855Y-111908567D01*
X122755986Y-111941857D01*
X122785665Y-112006352D01*
X122787000Y-112024644D01*
X122787000Y-112299443D01*
X122766998Y-112367564D01*
X122750095Y-112388538D01*
X122351038Y-112787595D01*
X122288726Y-112821621D01*
X122261943Y-112824500D01*
X120258462Y-112824500D01*
X120190341Y-112804498D01*
X120143848Y-112750842D01*
X120133744Y-112680568D01*
X120163238Y-112615988D01*
X120193191Y-112590724D01*
X120203907Y-112584234D01*
X120210408Y-112580297D01*
X120221414Y-112569291D01*
X120267516Y-112539948D01*
X120279202Y-112535706D01*
X120283364Y-112534277D01*
X120345083Y-112514283D01*
X120345085Y-112514282D01*
X120352046Y-112512027D01*
X120358300Y-112508232D01*
X120363679Y-112505769D01*
X120368955Y-112503127D01*
X120375831Y-112500631D01*
X120436209Y-112461046D01*
X120439919Y-112458705D01*
X120496861Y-112424152D01*
X120496868Y-112424147D01*
X120501660Y-112421239D01*
X120509952Y-112413915D01*
X120509974Y-112413940D01*
X120513069Y-112411194D01*
X120516063Y-112408691D01*
X120522185Y-112404677D01*
X120574884Y-112349047D01*
X120577261Y-112346606D01*
X121886462Y-111037405D01*
X121948774Y-111003379D01*
X121975557Y-111000500D01*
X122173500Y-111000500D01*
X122241621Y-111020502D01*
G37*
%TD.AperFunction*%
%TD*%
M02*
