M48
; DRILL file {KiCad (6.0.1)} date Sun Feb 13 11:50:24 2022
; FORMAT={-:-/ absolute / metric / decimal}
; #@! TF.CreationDate,2022-02-13T11:50:24+00:00
; #@! TF.GenerationSoftware,Kicad,Pcbnew,(6.0.1)
; #@! TF.FileFunction,MixedPlating,1,4
FMAT,2
METRIC
; #@! TA.AperFunction,Plated,PTH,ViaDrill
T1C0.300
; #@! TA.AperFunction,Plated,PTH,ViaDrill
T2C0.400
; #@! TA.AperFunction,NonPlated,NPTH,ComponentDrill
T3C2.700
%
G90
G05
T1
X101.25Y-120.35
X101.3Y-129.1
X103.25Y-120.35
X103.4Y-129.05
X104.35Y-117.75
X104.95Y-128.1
X105.0Y-120.75
X105.0Y-125.7
X124.85Y-122.65
X125.1Y-114.25
X125.938Y-123.95
X126.65Y-113.2
X126.65Y-132.25
X126.8Y-121.55
X127.987Y-123.95
X128.95Y-113.25
X129.0Y-132.15
X129.05Y-121.7
T2
X105.05Y-123.3
X107.15Y-123.35
X107.2Y-125.65
X109.15Y-127.4
X109.15Y-129.15
X109.2Y-123.3
X109.2Y-125.7
X109.25Y-110.2
X109.35Y-130.75
X109.4Y-115.2
X109.5Y-135.1
X111.0Y-131.15
X111.25Y-123.0
X112.9Y-125.75
X113.0Y-130.9
X113.2Y-128.25
X113.25Y-123.95
X113.3Y-129.45
X114.75Y-110.5
X115.55Y-129.6
X115.65Y-123.95
X115.8Y-125.8
X116.0Y-128.3
X116.15Y-131.0
X117.45Y-122.95
X117.7Y-131.1
X118.85Y-116.4
X119.25Y-130.8
X119.35Y-125.6
X119.55Y-123.95
X119.65Y-128.25
X120.2Y-134.65
X120.35Y-112.7
X121.1Y-124.0
X121.2Y-121.75
X121.35Y-119.55
X121.55Y-130.75
X121.6Y-128.25
X122.25Y-126.6
X122.8Y-117.4
X123.4Y-130.0
X123.55Y-122.2
X123.6Y-124.7
X123.65Y-120.0
X124.987Y-130.95
X125.05Y-129.2
X125.1Y-116.15
X125.137Y-125.3
X125.15Y-126.85
X125.4Y-118.8
T3
X104.0Y-104.0
X104.0Y-136.0
X126.0Y-104.0
X126.0Y-136.0
T0
M30
