%TF.GenerationSoftware,KiCad,Pcbnew,(6.0.1)*%
%TF.CreationDate,2022-02-13T11:50:16+00:00*%
%TF.ProjectId,Relay_RF_EE2,52656c61-795f-4524-965f-4545322e6b69,rev?*%
%TF.SameCoordinates,Original*%
%TF.FileFunction,Copper,L3,Inr*%
%TF.FilePolarity,Positive*%
%FSLAX46Y46*%
G04 Gerber Fmt 4.6, Leading zero omitted, Abs format (unit mm)*
G04 Created by KiCad (PCBNEW (6.0.1)) date 2022-02-13 11:50:16*
%MOMM*%
%LPD*%
G01*
G04 APERTURE LIST*
%TA.AperFunction,ViaPad*%
%ADD10C,0.800000*%
%TD*%
G04 APERTURE END LIST*
D10*
%TO.N,GND*%
X125150000Y-126850000D03*
X128950000Y-113250000D03*
X109200000Y-125700000D03*
X101300000Y-129100000D03*
X119650000Y-128250000D03*
X104950000Y-128100000D03*
X109150000Y-129150000D03*
X117450000Y-122950000D03*
X115550000Y-129600000D03*
X129000000Y-132150000D03*
X122800000Y-117400000D03*
X103250000Y-120350000D03*
X121350000Y-119550000D03*
X109200000Y-123300000D03*
X127987500Y-123950000D03*
X114750000Y-110500000D03*
X123650000Y-120000000D03*
X113300000Y-129450000D03*
X107200000Y-125650000D03*
X117700000Y-131100000D03*
X107150000Y-123350000D03*
X105000000Y-120750000D03*
X104350000Y-117750000D03*
X120350000Y-112700000D03*
X124850000Y-122650000D03*
X115650000Y-123950000D03*
X126800000Y-121550000D03*
X119250000Y-130800000D03*
X109500000Y-135100000D03*
X125937500Y-123950000D03*
X113250000Y-123950000D03*
X111250000Y-123000000D03*
X120200000Y-134650000D03*
X116000000Y-128300000D03*
X103400000Y-129050000D03*
X123400000Y-130000000D03*
X125100000Y-114250000D03*
X111000000Y-131150000D03*
X112900000Y-125750000D03*
X121600000Y-128250000D03*
X122250000Y-126600000D03*
X125400000Y-118800000D03*
X126650000Y-132250000D03*
X129050000Y-121700000D03*
X124987500Y-130950000D03*
X126650000Y-113200000D03*
X105050000Y-123300000D03*
X109350000Y-130750000D03*
X125100000Y-116150000D03*
X109150000Y-127400000D03*
X115800000Y-125800000D03*
X121200000Y-121750000D03*
X116150000Y-131000000D03*
X109400000Y-115200000D03*
X101250000Y-120350000D03*
X125050000Y-129200000D03*
X113000000Y-130900000D03*
X119350000Y-125600000D03*
X113200000Y-128250000D03*
X123550000Y-122200000D03*
X109250000Y-110200000D03*
X118850000Y-116400000D03*
X121550000Y-130750000D03*
X125137500Y-125300000D03*
X121100000Y-124000000D03*
X123600000Y-124700000D03*
X105000000Y-125700000D03*
X119550000Y-123950000D03*
%TD*%
%TA.AperFunction,Conductor*%
%TO.N,GND*%
G36*
X129434121Y-100528002D02*
G01*
X129480614Y-100581658D01*
X129492000Y-100634000D01*
X129492000Y-139366000D01*
X129471998Y-139434121D01*
X129418342Y-139480614D01*
X129366000Y-139492000D01*
X100634000Y-139492000D01*
X100565879Y-139471998D01*
X100519386Y-139418342D01*
X100508000Y-139366000D01*
X100508000Y-136042277D01*
X102137009Y-136042277D01*
X102162625Y-136310769D01*
X102163710Y-136315203D01*
X102163711Y-136315209D01*
X102225645Y-136568312D01*
X102226731Y-136572750D01*
X102327985Y-136822733D01*
X102464265Y-137055482D01*
X102467118Y-137059049D01*
X102584686Y-137206060D01*
X102632716Y-137266119D01*
X102829809Y-137450234D01*
X103051416Y-137603968D01*
X103055499Y-137605999D01*
X103055502Y-137606001D01*
X103171013Y-137663466D01*
X103292894Y-137724101D01*
X103297228Y-137725522D01*
X103297231Y-137725523D01*
X103544853Y-137806698D01*
X103544859Y-137806699D01*
X103549186Y-137808118D01*
X103553677Y-137808898D01*
X103553678Y-137808898D01*
X103811140Y-137853601D01*
X103811148Y-137853602D01*
X103814921Y-137854257D01*
X103818758Y-137854448D01*
X103898578Y-137858422D01*
X103898586Y-137858422D01*
X103900149Y-137858500D01*
X104068512Y-137858500D01*
X104070780Y-137858335D01*
X104070792Y-137858335D01*
X104201884Y-137848823D01*
X104269004Y-137843953D01*
X104273459Y-137842969D01*
X104273462Y-137842969D01*
X104527912Y-137786791D01*
X104527916Y-137786790D01*
X104532372Y-137785806D01*
X104658480Y-137738028D01*
X104780318Y-137691868D01*
X104780321Y-137691867D01*
X104784588Y-137690250D01*
X105020368Y-137559286D01*
X105234773Y-137395657D01*
X105423312Y-137202792D01*
X105582034Y-136984730D01*
X105665190Y-136826676D01*
X105705490Y-136750079D01*
X105705493Y-136750073D01*
X105707615Y-136746039D01*
X105770378Y-136568312D01*
X105795902Y-136496033D01*
X105795902Y-136496032D01*
X105797425Y-136491720D01*
X105849581Y-136227100D01*
X105858782Y-136042277D01*
X124137009Y-136042277D01*
X124162625Y-136310769D01*
X124163710Y-136315203D01*
X124163711Y-136315209D01*
X124225645Y-136568312D01*
X124226731Y-136572750D01*
X124327985Y-136822733D01*
X124464265Y-137055482D01*
X124467118Y-137059049D01*
X124584686Y-137206060D01*
X124632716Y-137266119D01*
X124829809Y-137450234D01*
X125051416Y-137603968D01*
X125055499Y-137605999D01*
X125055502Y-137606001D01*
X125171013Y-137663466D01*
X125292894Y-137724101D01*
X125297228Y-137725522D01*
X125297231Y-137725523D01*
X125544853Y-137806698D01*
X125544859Y-137806699D01*
X125549186Y-137808118D01*
X125553677Y-137808898D01*
X125553678Y-137808898D01*
X125811140Y-137853601D01*
X125811148Y-137853602D01*
X125814921Y-137854257D01*
X125818758Y-137854448D01*
X125898578Y-137858422D01*
X125898586Y-137858422D01*
X125900149Y-137858500D01*
X126068512Y-137858500D01*
X126070780Y-137858335D01*
X126070792Y-137858335D01*
X126201884Y-137848823D01*
X126269004Y-137843953D01*
X126273459Y-137842969D01*
X126273462Y-137842969D01*
X126527912Y-137786791D01*
X126527916Y-137786790D01*
X126532372Y-137785806D01*
X126658480Y-137738028D01*
X126780318Y-137691868D01*
X126780321Y-137691867D01*
X126784588Y-137690250D01*
X127020368Y-137559286D01*
X127234773Y-137395657D01*
X127423312Y-137202792D01*
X127582034Y-136984730D01*
X127665190Y-136826676D01*
X127705490Y-136750079D01*
X127705493Y-136750073D01*
X127707615Y-136746039D01*
X127770378Y-136568312D01*
X127795902Y-136496033D01*
X127795902Y-136496032D01*
X127797425Y-136491720D01*
X127849581Y-136227100D01*
X127858782Y-136042277D01*
X127862764Y-135962292D01*
X127862764Y-135962286D01*
X127862991Y-135957723D01*
X127837375Y-135689231D01*
X127792042Y-135503967D01*
X127774355Y-135431688D01*
X127773269Y-135427250D01*
X127672015Y-135177267D01*
X127535735Y-134944518D01*
X127417928Y-134797208D01*
X127370136Y-134737447D01*
X127370135Y-134737445D01*
X127367284Y-134733881D01*
X127170191Y-134549766D01*
X126948584Y-134396032D01*
X126944501Y-134394001D01*
X126944498Y-134393999D01*
X126779606Y-134311967D01*
X126707106Y-134275899D01*
X126702772Y-134274478D01*
X126702769Y-134274477D01*
X126455147Y-134193302D01*
X126455141Y-134193301D01*
X126450814Y-134191882D01*
X126446322Y-134191102D01*
X126188860Y-134146399D01*
X126188852Y-134146398D01*
X126185079Y-134145743D01*
X126173817Y-134145182D01*
X126101422Y-134141578D01*
X126101414Y-134141578D01*
X126099851Y-134141500D01*
X125931488Y-134141500D01*
X125929220Y-134141665D01*
X125929208Y-134141665D01*
X125798116Y-134151177D01*
X125730996Y-134156047D01*
X125726541Y-134157031D01*
X125726538Y-134157031D01*
X125472088Y-134213209D01*
X125472084Y-134213210D01*
X125467628Y-134214194D01*
X125341520Y-134261972D01*
X125219682Y-134308132D01*
X125219679Y-134308133D01*
X125215412Y-134309750D01*
X124979632Y-134440714D01*
X124765227Y-134604343D01*
X124576688Y-134797208D01*
X124417966Y-135015270D01*
X124415844Y-135019304D01*
X124294510Y-135249921D01*
X124294507Y-135249927D01*
X124292385Y-135253961D01*
X124290865Y-135258266D01*
X124290863Y-135258270D01*
X124204098Y-135503967D01*
X124202575Y-135508280D01*
X124150419Y-135772900D01*
X124150192Y-135777453D01*
X124150192Y-135777456D01*
X124140991Y-135962292D01*
X124137009Y-136042277D01*
X105858782Y-136042277D01*
X105862764Y-135962292D01*
X105862764Y-135962286D01*
X105862991Y-135957723D01*
X105837375Y-135689231D01*
X105792042Y-135503967D01*
X105774355Y-135431688D01*
X105773269Y-135427250D01*
X105672015Y-135177267D01*
X105535735Y-134944518D01*
X105417928Y-134797208D01*
X105370136Y-134737447D01*
X105370135Y-134737445D01*
X105367284Y-134733881D01*
X105170191Y-134549766D01*
X104948584Y-134396032D01*
X104944501Y-134394001D01*
X104944498Y-134393999D01*
X104779606Y-134311967D01*
X104707106Y-134275899D01*
X104702772Y-134274478D01*
X104702769Y-134274477D01*
X104455147Y-134193302D01*
X104455141Y-134193301D01*
X104450814Y-134191882D01*
X104446322Y-134191102D01*
X104188860Y-134146399D01*
X104188852Y-134146398D01*
X104185079Y-134145743D01*
X104173817Y-134145182D01*
X104101422Y-134141578D01*
X104101414Y-134141578D01*
X104099851Y-134141500D01*
X103931488Y-134141500D01*
X103929220Y-134141665D01*
X103929208Y-134141665D01*
X103798116Y-134151177D01*
X103730996Y-134156047D01*
X103726541Y-134157031D01*
X103726538Y-134157031D01*
X103472088Y-134213209D01*
X103472084Y-134213210D01*
X103467628Y-134214194D01*
X103341520Y-134261972D01*
X103219682Y-134308132D01*
X103219679Y-134308133D01*
X103215412Y-134309750D01*
X102979632Y-134440714D01*
X102765227Y-134604343D01*
X102576688Y-134797208D01*
X102417966Y-135015270D01*
X102415844Y-135019304D01*
X102294510Y-135249921D01*
X102294507Y-135249927D01*
X102292385Y-135253961D01*
X102290865Y-135258266D01*
X102290863Y-135258270D01*
X102204098Y-135503967D01*
X102202575Y-135508280D01*
X102150419Y-135772900D01*
X102150192Y-135777453D01*
X102150192Y-135777456D01*
X102140991Y-135962292D01*
X102137009Y-136042277D01*
X100508000Y-136042277D01*
X100508000Y-104042277D01*
X102137009Y-104042277D01*
X102162625Y-104310769D01*
X102163710Y-104315203D01*
X102163711Y-104315209D01*
X102225645Y-104568312D01*
X102226731Y-104572750D01*
X102327985Y-104822733D01*
X102464265Y-105055482D01*
X102467118Y-105059049D01*
X102584686Y-105206060D01*
X102632716Y-105266119D01*
X102829809Y-105450234D01*
X103051416Y-105603968D01*
X103055499Y-105605999D01*
X103055502Y-105606001D01*
X103171013Y-105663466D01*
X103292894Y-105724101D01*
X103297228Y-105725522D01*
X103297231Y-105725523D01*
X103544853Y-105806698D01*
X103544859Y-105806699D01*
X103549186Y-105808118D01*
X103553677Y-105808898D01*
X103553678Y-105808898D01*
X103811140Y-105853601D01*
X103811148Y-105853602D01*
X103814921Y-105854257D01*
X103818758Y-105854448D01*
X103898578Y-105858422D01*
X103898586Y-105858422D01*
X103900149Y-105858500D01*
X104068512Y-105858500D01*
X104070780Y-105858335D01*
X104070792Y-105858335D01*
X104201884Y-105848823D01*
X104269004Y-105843953D01*
X104273459Y-105842969D01*
X104273462Y-105842969D01*
X104527912Y-105786791D01*
X104527916Y-105786790D01*
X104532372Y-105785806D01*
X104658480Y-105738028D01*
X104780318Y-105691868D01*
X104780321Y-105691867D01*
X104784588Y-105690250D01*
X105020368Y-105559286D01*
X105234773Y-105395657D01*
X105423312Y-105202792D01*
X105582034Y-104984730D01*
X105665190Y-104826676D01*
X105705490Y-104750079D01*
X105705493Y-104750073D01*
X105707615Y-104746039D01*
X105770378Y-104568312D01*
X105795902Y-104496033D01*
X105795902Y-104496032D01*
X105797425Y-104491720D01*
X105849581Y-104227100D01*
X105858782Y-104042277D01*
X124137009Y-104042277D01*
X124162625Y-104310769D01*
X124163710Y-104315203D01*
X124163711Y-104315209D01*
X124225645Y-104568312D01*
X124226731Y-104572750D01*
X124327985Y-104822733D01*
X124464265Y-105055482D01*
X124467118Y-105059049D01*
X124584686Y-105206060D01*
X124632716Y-105266119D01*
X124829809Y-105450234D01*
X125051416Y-105603968D01*
X125055499Y-105605999D01*
X125055502Y-105606001D01*
X125171013Y-105663466D01*
X125292894Y-105724101D01*
X125297228Y-105725522D01*
X125297231Y-105725523D01*
X125544853Y-105806698D01*
X125544859Y-105806699D01*
X125549186Y-105808118D01*
X125553677Y-105808898D01*
X125553678Y-105808898D01*
X125811140Y-105853601D01*
X125811148Y-105853602D01*
X125814921Y-105854257D01*
X125818758Y-105854448D01*
X125898578Y-105858422D01*
X125898586Y-105858422D01*
X125900149Y-105858500D01*
X126068512Y-105858500D01*
X126070780Y-105858335D01*
X126070792Y-105858335D01*
X126201884Y-105848823D01*
X126269004Y-105843953D01*
X126273459Y-105842969D01*
X126273462Y-105842969D01*
X126527912Y-105786791D01*
X126527916Y-105786790D01*
X126532372Y-105785806D01*
X126658480Y-105738028D01*
X126780318Y-105691868D01*
X126780321Y-105691867D01*
X126784588Y-105690250D01*
X127020368Y-105559286D01*
X127234773Y-105395657D01*
X127423312Y-105202792D01*
X127582034Y-104984730D01*
X127665190Y-104826676D01*
X127705490Y-104750079D01*
X127705493Y-104750073D01*
X127707615Y-104746039D01*
X127770378Y-104568312D01*
X127795902Y-104496033D01*
X127795902Y-104496032D01*
X127797425Y-104491720D01*
X127849581Y-104227100D01*
X127858782Y-104042277D01*
X127862764Y-103962292D01*
X127862764Y-103962286D01*
X127862991Y-103957723D01*
X127837375Y-103689231D01*
X127792042Y-103503967D01*
X127774355Y-103431688D01*
X127773269Y-103427250D01*
X127672015Y-103177267D01*
X127535735Y-102944518D01*
X127417928Y-102797208D01*
X127370136Y-102737447D01*
X127370135Y-102737445D01*
X127367284Y-102733881D01*
X127170191Y-102549766D01*
X126948584Y-102396032D01*
X126944501Y-102394001D01*
X126944498Y-102393999D01*
X126779606Y-102311967D01*
X126707106Y-102275899D01*
X126702772Y-102274478D01*
X126702769Y-102274477D01*
X126455147Y-102193302D01*
X126455141Y-102193301D01*
X126450814Y-102191882D01*
X126446322Y-102191102D01*
X126188860Y-102146399D01*
X126188852Y-102146398D01*
X126185079Y-102145743D01*
X126173817Y-102145182D01*
X126101422Y-102141578D01*
X126101414Y-102141578D01*
X126099851Y-102141500D01*
X125931488Y-102141500D01*
X125929220Y-102141665D01*
X125929208Y-102141665D01*
X125798116Y-102151177D01*
X125730996Y-102156047D01*
X125726541Y-102157031D01*
X125726538Y-102157031D01*
X125472088Y-102213209D01*
X125472084Y-102213210D01*
X125467628Y-102214194D01*
X125341520Y-102261972D01*
X125219682Y-102308132D01*
X125219679Y-102308133D01*
X125215412Y-102309750D01*
X124979632Y-102440714D01*
X124765227Y-102604343D01*
X124576688Y-102797208D01*
X124417966Y-103015270D01*
X124415844Y-103019304D01*
X124294510Y-103249921D01*
X124294507Y-103249927D01*
X124292385Y-103253961D01*
X124290865Y-103258266D01*
X124290863Y-103258270D01*
X124204098Y-103503967D01*
X124202575Y-103508280D01*
X124150419Y-103772900D01*
X124150192Y-103777453D01*
X124150192Y-103777456D01*
X124140991Y-103962292D01*
X124137009Y-104042277D01*
X105858782Y-104042277D01*
X105862764Y-103962292D01*
X105862764Y-103962286D01*
X105862991Y-103957723D01*
X105837375Y-103689231D01*
X105792042Y-103503967D01*
X105774355Y-103431688D01*
X105773269Y-103427250D01*
X105672015Y-103177267D01*
X105535735Y-102944518D01*
X105417928Y-102797208D01*
X105370136Y-102737447D01*
X105370135Y-102737445D01*
X105367284Y-102733881D01*
X105170191Y-102549766D01*
X104948584Y-102396032D01*
X104944501Y-102394001D01*
X104944498Y-102393999D01*
X104779606Y-102311967D01*
X104707106Y-102275899D01*
X104702772Y-102274478D01*
X104702769Y-102274477D01*
X104455147Y-102193302D01*
X104455141Y-102193301D01*
X104450814Y-102191882D01*
X104446322Y-102191102D01*
X104188860Y-102146399D01*
X104188852Y-102146398D01*
X104185079Y-102145743D01*
X104173817Y-102145182D01*
X104101422Y-102141578D01*
X104101414Y-102141578D01*
X104099851Y-102141500D01*
X103931488Y-102141500D01*
X103929220Y-102141665D01*
X103929208Y-102141665D01*
X103798116Y-102151177D01*
X103730996Y-102156047D01*
X103726541Y-102157031D01*
X103726538Y-102157031D01*
X103472088Y-102213209D01*
X103472084Y-102213210D01*
X103467628Y-102214194D01*
X103341520Y-102261972D01*
X103219682Y-102308132D01*
X103219679Y-102308133D01*
X103215412Y-102309750D01*
X102979632Y-102440714D01*
X102765227Y-102604343D01*
X102576688Y-102797208D01*
X102417966Y-103015270D01*
X102415844Y-103019304D01*
X102294510Y-103249921D01*
X102294507Y-103249927D01*
X102292385Y-103253961D01*
X102290865Y-103258266D01*
X102290863Y-103258270D01*
X102204098Y-103503967D01*
X102202575Y-103508280D01*
X102150419Y-103772900D01*
X102150192Y-103777453D01*
X102150192Y-103777456D01*
X102140991Y-103962292D01*
X102137009Y-104042277D01*
X100508000Y-104042277D01*
X100508000Y-100634000D01*
X100528002Y-100565879D01*
X100581658Y-100519386D01*
X100634000Y-100508000D01*
X129366000Y-100508000D01*
X129434121Y-100528002D01*
G37*
%TD.AperFunction*%
%TD*%
M02*
