%TF.GenerationSoftware,KiCad,Pcbnew,(6.0.1)*%
%TF.CreationDate,2022-02-13T11:50:17+00:00*%
%TF.ProjectId,Relay_RF_EE2,52656c61-795f-4524-965f-4545322e6b69,rev?*%
%TF.SameCoordinates,Original*%
%TF.FileFunction,Legend,Top*%
%TF.FilePolarity,Positive*%
%FSLAX46Y46*%
G04 Gerber Fmt 4.6, Leading zero omitted, Abs format (unit mm)*
G04 Created by KiCad (PCBNEW (6.0.1)) date 2022-02-13 11:50:17*
%MOMM*%
%LPD*%
G01*
G04 APERTURE LIST*
%ADD10C,0.300000*%
%ADD11C,0.150000*%
%ADD12C,0.120000*%
G04 APERTURE END LIST*
D10*
X105821428Y-125228571D02*
X105821428Y-123728571D01*
X106678571Y-125228571D01*
X106678571Y-123728571D01*
X108250000Y-125085714D02*
X108178571Y-125157142D01*
X107964285Y-125228571D01*
X107821428Y-125228571D01*
X107607142Y-125157142D01*
X107464285Y-125014285D01*
X107392857Y-124871428D01*
X107321428Y-124585714D01*
X107321428Y-124371428D01*
X107392857Y-124085714D01*
X107464285Y-123942857D01*
X107607142Y-123800000D01*
X107821428Y-123728571D01*
X107964285Y-123728571D01*
X108178571Y-123800000D01*
X108250000Y-123871428D01*
X121321428Y-118085714D02*
X121250000Y-118157142D01*
X121035714Y-118228571D01*
X120892857Y-118228571D01*
X120678571Y-118157142D01*
X120535714Y-118014285D01*
X120464285Y-117871428D01*
X120392857Y-117585714D01*
X120392857Y-117371428D01*
X120464285Y-117085714D01*
X120535714Y-116942857D01*
X120678571Y-116800000D01*
X120892857Y-116728571D01*
X121035714Y-116728571D01*
X121250000Y-116800000D01*
X121321428Y-116871428D01*
X122250000Y-116728571D02*
X122535714Y-116728571D01*
X122678571Y-116800000D01*
X122821428Y-116942857D01*
X122892857Y-117228571D01*
X122892857Y-117728571D01*
X122821428Y-118014285D01*
X122678571Y-118157142D01*
X122535714Y-118228571D01*
X122250000Y-118228571D01*
X122107142Y-118157142D01*
X121964285Y-118014285D01*
X121892857Y-117728571D01*
X121892857Y-117228571D01*
X121964285Y-116942857D01*
X122107142Y-116800000D01*
X122250000Y-116728571D01*
X123535714Y-118228571D02*
X123535714Y-116728571D01*
X124035714Y-117800000D01*
X124535714Y-116728571D01*
X124535714Y-118228571D01*
X121985714Y-128828571D02*
X121985714Y-127328571D01*
X122842857Y-128828571D01*
X122842857Y-127328571D01*
X123842857Y-127328571D02*
X124128571Y-127328571D01*
X124271428Y-127400000D01*
X124414285Y-127542857D01*
X124485714Y-127828571D01*
X124485714Y-128328571D01*
X124414285Y-128614285D01*
X124271428Y-128757142D01*
X124128571Y-128828571D01*
X123842857Y-128828571D01*
X123700000Y-128757142D01*
X123557142Y-128614285D01*
X123485714Y-128328571D01*
X123485714Y-127828571D01*
X123557142Y-127542857D01*
X123700000Y-127400000D01*
X123842857Y-127328571D01*
D11*
%TO.C,J2*%
X106366666Y-127002380D02*
X106366666Y-127716666D01*
X106319047Y-127859523D01*
X106223809Y-127954761D01*
X106080952Y-128002380D01*
X105985714Y-128002380D01*
X106795238Y-127097619D02*
X106842857Y-127050000D01*
X106938095Y-127002380D01*
X107176190Y-127002380D01*
X107271428Y-127050000D01*
X107319047Y-127097619D01*
X107366666Y-127192857D01*
X107366666Y-127288095D01*
X107319047Y-127430952D01*
X106747619Y-128002380D01*
X107366666Y-128002380D01*
%TO.C,R2*%
X105495833Y-116552380D02*
X105162500Y-116076190D01*
X104924404Y-116552380D02*
X104924404Y-115552380D01*
X105305357Y-115552380D01*
X105400595Y-115600000D01*
X105448214Y-115647619D01*
X105495833Y-115742857D01*
X105495833Y-115885714D01*
X105448214Y-115980952D01*
X105400595Y-116028571D01*
X105305357Y-116076190D01*
X104924404Y-116076190D01*
X105876785Y-115647619D02*
X105924404Y-115600000D01*
X106019642Y-115552380D01*
X106257738Y-115552380D01*
X106352976Y-115600000D01*
X106400595Y-115647619D01*
X106448214Y-115742857D01*
X106448214Y-115838095D01*
X106400595Y-115980952D01*
X105829166Y-116552380D01*
X106448214Y-116552380D01*
%TO.C,R1*%
X117383333Y-113652380D02*
X117050000Y-113176190D01*
X116811904Y-113652380D02*
X116811904Y-112652380D01*
X117192857Y-112652380D01*
X117288095Y-112700000D01*
X117335714Y-112747619D01*
X117383333Y-112842857D01*
X117383333Y-112985714D01*
X117335714Y-113080952D01*
X117288095Y-113128571D01*
X117192857Y-113176190D01*
X116811904Y-113176190D01*
X118335714Y-113652380D02*
X117764285Y-113652380D01*
X118050000Y-113652380D02*
X118050000Y-112652380D01*
X117954761Y-112795238D01*
X117859523Y-112890476D01*
X117764285Y-112938095D01*
%TO.C,C2*%
X114533333Y-112407142D02*
X114485714Y-112454761D01*
X114342857Y-112502380D01*
X114247619Y-112502380D01*
X114104761Y-112454761D01*
X114009523Y-112359523D01*
X113961904Y-112264285D01*
X113914285Y-112073809D01*
X113914285Y-111930952D01*
X113961904Y-111740476D01*
X114009523Y-111645238D01*
X114104761Y-111550000D01*
X114247619Y-111502380D01*
X114342857Y-111502380D01*
X114485714Y-111550000D01*
X114533333Y-111597619D01*
X114914285Y-111597619D02*
X114961904Y-111550000D01*
X115057142Y-111502380D01*
X115295238Y-111502380D01*
X115390476Y-111550000D01*
X115438095Y-111597619D01*
X115485714Y-111692857D01*
X115485714Y-111788095D01*
X115438095Y-111930952D01*
X114866666Y-112502380D01*
X115485714Y-112502380D01*
%TO.C,R3*%
X119383333Y-113752380D02*
X119050000Y-113276190D01*
X118811904Y-113752380D02*
X118811904Y-112752380D01*
X119192857Y-112752380D01*
X119288095Y-112800000D01*
X119335714Y-112847619D01*
X119383333Y-112942857D01*
X119383333Y-113085714D01*
X119335714Y-113180952D01*
X119288095Y-113228571D01*
X119192857Y-113276190D01*
X118811904Y-113276190D01*
X119716666Y-112752380D02*
X120335714Y-112752380D01*
X120002380Y-113133333D01*
X120145238Y-113133333D01*
X120240476Y-113180952D01*
X120288095Y-113228571D01*
X120335714Y-113323809D01*
X120335714Y-113561904D01*
X120288095Y-113657142D01*
X120240476Y-113704761D01*
X120145238Y-113752380D01*
X119859523Y-113752380D01*
X119764285Y-113704761D01*
X119716666Y-113657142D01*
%TO.C,C1*%
X108683333Y-111907142D02*
X108635714Y-111954761D01*
X108492857Y-112002380D01*
X108397619Y-112002380D01*
X108254761Y-111954761D01*
X108159523Y-111859523D01*
X108111904Y-111764285D01*
X108064285Y-111573809D01*
X108064285Y-111430952D01*
X108111904Y-111240476D01*
X108159523Y-111145238D01*
X108254761Y-111050000D01*
X108397619Y-111002380D01*
X108492857Y-111002380D01*
X108635714Y-111050000D01*
X108683333Y-111097619D01*
X109635714Y-112002380D02*
X109064285Y-112002380D01*
X109350000Y-112002380D02*
X109350000Y-111002380D01*
X109254761Y-111145238D01*
X109159523Y-111240476D01*
X109064285Y-111288095D01*
%TO.C,J1*%
X121616666Y-106602380D02*
X121616666Y-107316666D01*
X121569047Y-107459523D01*
X121473809Y-107554761D01*
X121330952Y-107602380D01*
X121235714Y-107602380D01*
X122616666Y-107602380D02*
X122045238Y-107602380D01*
X122330952Y-107602380D02*
X122330952Y-106602380D01*
X122235714Y-106745238D01*
X122140476Y-106840476D01*
X122045238Y-106888095D01*
%TO.C,J4*%
X123266666Y-130902380D02*
X123266666Y-131616666D01*
X123219047Y-131759523D01*
X123123809Y-131854761D01*
X122980952Y-131902380D01*
X122885714Y-131902380D01*
X124171428Y-131235714D02*
X124171428Y-131902380D01*
X123933333Y-130854761D02*
X123695238Y-131569047D01*
X124314285Y-131569047D01*
%TO.C,D2*%
X105011904Y-111472380D02*
X105011904Y-110472380D01*
X105250000Y-110472380D01*
X105392857Y-110520000D01*
X105488095Y-110615238D01*
X105535714Y-110710476D01*
X105583333Y-110900952D01*
X105583333Y-111043809D01*
X105535714Y-111234285D01*
X105488095Y-111329523D01*
X105392857Y-111424761D01*
X105250000Y-111472380D01*
X105011904Y-111472380D01*
X105964285Y-110567619D02*
X106011904Y-110520000D01*
X106107142Y-110472380D01*
X106345238Y-110472380D01*
X106440476Y-110520000D01*
X106488095Y-110567619D01*
X106535714Y-110662857D01*
X106535714Y-110758095D01*
X106488095Y-110900952D01*
X105916666Y-111472380D01*
X106535714Y-111472380D01*
%TO.C,Q1*%
X125717261Y-111297619D02*
X125622023Y-111250000D01*
X125526785Y-111154761D01*
X125383928Y-111011904D01*
X125288690Y-110964285D01*
X125193452Y-110964285D01*
X125241071Y-111202380D02*
X125145833Y-111154761D01*
X125050595Y-111059523D01*
X125002976Y-110869047D01*
X125002976Y-110535714D01*
X125050595Y-110345238D01*
X125145833Y-110250000D01*
X125241071Y-110202380D01*
X125431547Y-110202380D01*
X125526785Y-110250000D01*
X125622023Y-110345238D01*
X125669642Y-110535714D01*
X125669642Y-110869047D01*
X125622023Y-111059523D01*
X125526785Y-111154761D01*
X125431547Y-111202380D01*
X125241071Y-111202380D01*
X126622023Y-111202380D02*
X126050595Y-111202380D01*
X126336309Y-111202380D02*
X126336309Y-110202380D01*
X126241071Y-110345238D01*
X126145833Y-110440476D01*
X126050595Y-110488095D01*
%TO.C,J3*%
X123166666Y-119902380D02*
X123166666Y-120616666D01*
X123119047Y-120759523D01*
X123023809Y-120854761D01*
X122880952Y-120902380D01*
X122785714Y-120902380D01*
X123547619Y-119902380D02*
X124166666Y-119902380D01*
X123833333Y-120283333D01*
X123976190Y-120283333D01*
X124071428Y-120330952D01*
X124119047Y-120378571D01*
X124166666Y-120473809D01*
X124166666Y-120711904D01*
X124119047Y-120807142D01*
X124071428Y-120854761D01*
X123976190Y-120902380D01*
X123690476Y-120902380D01*
X123595238Y-120854761D01*
X123547619Y-120807142D01*
%TO.C,K1*%
X113811904Y-135202380D02*
X113811904Y-134202380D01*
X114383333Y-135202380D02*
X113954761Y-134630952D01*
X114383333Y-134202380D02*
X113811904Y-134773809D01*
X115335714Y-135202380D02*
X114764285Y-135202380D01*
X115050000Y-135202380D02*
X115050000Y-134202380D01*
X114954761Y-134345238D01*
X114859523Y-134440476D01*
X114764285Y-134488095D01*
%TO.C,D1*%
X117186904Y-116327380D02*
X117186904Y-115327380D01*
X117425000Y-115327380D01*
X117567857Y-115375000D01*
X117663095Y-115470238D01*
X117710714Y-115565476D01*
X117758333Y-115755952D01*
X117758333Y-115898809D01*
X117710714Y-116089285D01*
X117663095Y-116184523D01*
X117567857Y-116279761D01*
X117425000Y-116327380D01*
X117186904Y-116327380D01*
X118710714Y-116327380D02*
X118139285Y-116327380D01*
X118425000Y-116327380D02*
X118425000Y-115327380D01*
X118329761Y-115470238D01*
X118234523Y-115565476D01*
X118139285Y-115613095D01*
D12*
%TO.C,J2*%
X104860000Y-124750000D02*
X104860000Y-124250000D01*
X103810000Y-125340000D02*
X103810000Y-126450000D01*
X104860000Y-124250000D02*
X104360000Y-124500000D01*
X104360000Y-124500000D02*
X104860000Y-124750000D01*
X100100000Y-122550000D02*
X100100000Y-123660000D01*
X103810000Y-122550000D02*
X103810000Y-123660000D01*
X100100000Y-125340000D02*
X100100000Y-126450000D01*
%TO.C,R2*%
X106024758Y-115072500D02*
X105550242Y-115072500D01*
X106024758Y-114027500D02*
X105550242Y-114027500D01*
%TO.C,R1*%
X117972500Y-111187258D02*
X117972500Y-110712742D01*
X116927500Y-111187258D02*
X116927500Y-110712742D01*
%TO.C,C2*%
X114615580Y-113065000D02*
X114334420Y-113065000D01*
X114615580Y-114085000D02*
X114334420Y-114085000D01*
%TO.C,R3*%
X120022500Y-110762742D02*
X120022500Y-111237258D01*
X118977500Y-110762742D02*
X118977500Y-111237258D01*
%TO.C,C1*%
X110040000Y-111090580D02*
X110040000Y-110809420D01*
X111060000Y-111090580D02*
X111060000Y-110809420D01*
%TO.C,J1*%
X112240000Y-105860000D02*
X112240000Y-108250000D01*
X109915000Y-105010000D02*
X109915000Y-105860000D01*
X109915000Y-101490000D02*
X109915000Y-100640000D01*
X120085000Y-100640000D02*
X120085000Y-101490000D01*
X120085000Y-105010000D02*
X120085000Y-105860000D01*
X120085000Y-105860000D02*
X117760000Y-105860000D01*
X109915000Y-100640000D02*
X120085000Y-100640000D01*
X109915000Y-105860000D02*
X112240000Y-105860000D01*
%TO.C,J4*%
X129900000Y-129950000D02*
X129900000Y-128840000D01*
X125140000Y-128250000D02*
X125640000Y-128000000D01*
X126190000Y-129950000D02*
X126190000Y-128840000D01*
X129900000Y-127160000D02*
X129900000Y-126050000D01*
X125640000Y-128000000D02*
X125140000Y-127750000D01*
X125140000Y-127750000D02*
X125140000Y-128250000D01*
X126190000Y-127160000D02*
X126190000Y-126050000D01*
%TO.C,D2*%
X106550000Y-111715000D02*
X104265000Y-111715000D01*
X104265000Y-113185000D02*
X106550000Y-113185000D01*
X104265000Y-111715000D02*
X104265000Y-113185000D01*
%TO.C,Q1*%
X122600000Y-112710000D02*
X121950000Y-112710000D01*
X122600000Y-109590000D02*
X120925000Y-109590000D01*
X122600000Y-112710000D02*
X123250000Y-112710000D01*
X122600000Y-109590000D02*
X123250000Y-109590000D01*
%TO.C,J3*%
X125140000Y-117250000D02*
X125140000Y-117750000D01*
X129900000Y-119450000D02*
X129900000Y-118340000D01*
X129900000Y-116660000D02*
X129900000Y-115550000D01*
X126190000Y-119450000D02*
X126190000Y-118340000D01*
X125140000Y-117750000D02*
X125640000Y-117500000D01*
X126190000Y-116660000D02*
X126190000Y-115550000D01*
X125640000Y-117500000D02*
X125140000Y-117250000D01*
%TO.C,K1*%
X118340000Y-120280000D02*
X118340000Y-123700000D01*
X110560000Y-118620000D02*
X110370000Y-118620000D01*
X110560000Y-120280000D02*
X110370000Y-120280000D01*
X114740000Y-120050000D02*
X114740000Y-118850000D01*
X114040000Y-118850000D02*
X114040000Y-120050000D01*
X118340000Y-118160000D02*
X110560000Y-118160000D01*
X118340000Y-118160000D02*
X118340000Y-118620000D01*
X110560000Y-118160000D02*
X110560000Y-118620000D01*
X110560000Y-120280000D02*
X110560000Y-123700000D01*
X118340000Y-133440000D02*
X110560000Y-133440000D01*
X114040000Y-120050000D02*
X114740000Y-120050000D01*
X110560000Y-132980000D02*
X110560000Y-133440000D01*
X114040000Y-119650000D02*
X114740000Y-119250000D01*
X118340000Y-132980000D02*
X118340000Y-133440000D01*
X114740000Y-118850000D02*
X114040000Y-118850000D01*
%TO.C,D1*%
X112225000Y-116825000D02*
X116125000Y-116825000D01*
X112225000Y-114825000D02*
X116125000Y-114825000D01*
X112225000Y-114825000D02*
X112225000Y-116825000D01*
%TD*%
M02*
