%TF.GenerationSoftware,KiCad,Pcbnew,8.0.5*%
%TF.CreationDate,2024-11-15T14:42:50+00:00*%
%TF.ProjectId,PA_Power_V1,50415f50-6f77-4657-925f-56312e6b6963,rev?*%
%TF.SameCoordinates,Original*%
%TF.FileFunction,Paste,Top*%
%TF.FilePolarity,Positive*%
%FSLAX46Y46*%
G04 Gerber Fmt 4.6, Leading zero omitted, Abs format (unit mm)*
G04 Created by KiCad (PCBNEW 8.0.5) date 2024-11-15 14:42:50*
%MOMM*%
%LPD*%
G01*
G04 APERTURE LIST*
G04 Aperture macros list*
%AMRoundRect*
0 Rectangle with rounded corners*
0 $1 Rounding radius*
0 $2 $3 $4 $5 $6 $7 $8 $9 X,Y pos of 4 corners*
0 Add a 4 corners polygon primitive as box body*
4,1,4,$2,$3,$4,$5,$6,$7,$8,$9,$2,$3,0*
0 Add four circle primitives for the rounded corners*
1,1,$1+$1,$2,$3*
1,1,$1+$1,$4,$5*
1,1,$1+$1,$6,$7*
1,1,$1+$1,$8,$9*
0 Add four rect primitives between the rounded corners*
20,1,$1+$1,$2,$3,$4,$5,0*
20,1,$1+$1,$4,$5,$6,$7,0*
20,1,$1+$1,$6,$7,$8,$9,0*
20,1,$1+$1,$8,$9,$2,$3,0*%
G04 Aperture macros list end*
%ADD10RoundRect,0.200000X-0.200000X-0.275000X0.200000X-0.275000X0.200000X0.275000X-0.200000X0.275000X0*%
%ADD11RoundRect,0.200000X-0.275000X0.200000X-0.275000X-0.200000X0.275000X-0.200000X0.275000X0.200000X0*%
%ADD12RoundRect,0.218750X-0.218750X-0.381250X0.218750X-0.381250X0.218750X0.381250X-0.218750X0.381250X0*%
%ADD13RoundRect,0.250000X1.450000X-0.312500X1.450000X0.312500X-1.450000X0.312500X-1.450000X-0.312500X0*%
%ADD14RoundRect,0.225000X0.225000X0.250000X-0.225000X0.250000X-0.225000X-0.250000X0.225000X-0.250000X0*%
%ADD15RoundRect,0.150000X-0.587500X-0.150000X0.587500X-0.150000X0.587500X0.150000X-0.587500X0.150000X0*%
%ADD16RoundRect,0.200000X0.200000X0.275000X-0.200000X0.275000X-0.200000X-0.275000X0.200000X-0.275000X0*%
%ADD17RoundRect,0.225000X0.250000X-0.225000X0.250000X0.225000X-0.250000X0.225000X-0.250000X-0.225000X0*%
%ADD18RoundRect,0.250000X-0.475000X0.250000X-0.475000X-0.250000X0.475000X-0.250000X0.475000X0.250000X0*%
%ADD19RoundRect,0.250000X1.500000X-0.250000X1.500000X0.250000X-1.500000X0.250000X-1.500000X-0.250000X0*%
%ADD20RoundRect,0.250001X1.449999X-0.499999X1.449999X0.499999X-1.449999X0.499999X-1.449999X-0.499999X0*%
%ADD21RoundRect,0.250000X1.100000X-0.325000X1.100000X0.325000X-1.100000X0.325000X-1.100000X-0.325000X0*%
%ADD22RoundRect,0.150000X-0.512500X-0.150000X0.512500X-0.150000X0.512500X0.150000X-0.512500X0.150000X0*%
%ADD23RoundRect,0.375000X-1.125000X-2.000000X1.125000X-2.000000X1.125000X2.000000X-1.125000X2.000000X0*%
%ADD24R,3.700000X0.980000*%
%ADD25RoundRect,0.240000X-0.240000X-0.385000X0.240000X-0.385000X0.240000X0.385000X-0.240000X0.385000X0*%
%ADD26RoundRect,0.150000X-0.825000X-0.150000X0.825000X-0.150000X0.825000X0.150000X-0.825000X0.150000X0*%
%ADD27RoundRect,0.225000X-0.225000X-0.250000X0.225000X-0.250000X0.225000X0.250000X-0.225000X0.250000X0*%
%ADD28RoundRect,0.200000X0.275000X-0.200000X0.275000X0.200000X-0.275000X0.200000X-0.275000X-0.200000X0*%
%ADD29RoundRect,0.218750X0.218750X0.381250X-0.218750X0.381250X-0.218750X-0.381250X0.218750X-0.381250X0*%
%ADD30RoundRect,0.250000X-1.100000X0.325000X-1.100000X-0.325000X1.100000X-0.325000X1.100000X0.325000X0*%
%ADD31RoundRect,0.400000X-0.400000X1.900000X-0.400000X-1.900000X0.400000X-1.900000X0.400000X1.900000X0*%
%ADD32R,17.000000X14.200000*%
%ADD33RoundRect,0.250000X-0.900000X1.000000X-0.900000X-1.000000X0.900000X-1.000000X0.900000X1.000000X0*%
%ADD34R,1.100000X0.250000*%
%ADD35RoundRect,0.250000X0.475000X-0.250000X0.475000X0.250000X-0.475000X0.250000X-0.475000X-0.250000X0*%
%ADD36RoundRect,0.225000X-0.250000X0.225000X-0.250000X-0.225000X0.250000X-0.225000X0.250000X0.225000X0*%
%ADD37RoundRect,0.250000X-0.300000X0.300000X-0.300000X-0.300000X0.300000X-0.300000X0.300000X0.300000X0*%
%ADD38RoundRect,0.218750X0.256250X-0.218750X0.256250X0.218750X-0.256250X0.218750X-0.256250X-0.218750X0*%
%ADD39R,1.200000X1.200000*%
%ADD40RoundRect,0.750000X0.750000X1.750000X-0.750000X1.750000X-0.750000X-1.750000X0.750000X-1.750000X0*%
%ADD41RoundRect,0.150000X-0.150000X0.512500X-0.150000X-0.512500X0.150000X-0.512500X0.150000X0.512500X0*%
%ADD42RoundRect,0.250000X0.300000X-0.300000X0.300000X0.300000X-0.300000X0.300000X-0.300000X-0.300000X0*%
%ADD43RoundRect,0.250000X1.000000X0.900000X-1.000000X0.900000X-1.000000X-0.900000X1.000000X-0.900000X0*%
%ADD44R,1.100000X0.400000*%
%ADD45RoundRect,0.150000X-0.875000X-0.150000X0.875000X-0.150000X0.875000X0.150000X-0.875000X0.150000X0*%
%ADD46RoundRect,0.250000X0.312500X1.450000X-0.312500X1.450000X-0.312500X-1.450000X0.312500X-1.450000X0*%
%ADD47RoundRect,0.250000X-0.250000X-2.500000X0.250000X-2.500000X0.250000X2.500000X-0.250000X2.500000X0*%
%ADD48RoundRect,0.250000X-0.550000X-1.250000X0.550000X-1.250000X0.550000X1.250000X-0.550000X1.250000X0*%
%ADD49RoundRect,0.218750X0.218750X0.256250X-0.218750X0.256250X-0.218750X-0.256250X0.218750X-0.256250X0*%
%ADD50RoundRect,0.150000X0.587500X0.150000X-0.587500X0.150000X-0.587500X-0.150000X0.587500X-0.150000X0*%
%ADD51RoundRect,0.218750X-0.218750X-0.256250X0.218750X-0.256250X0.218750X0.256250X-0.218750X0.256250X0*%
%ADD52RoundRect,0.175000X-0.175000X-0.325000X0.175000X-0.325000X0.175000X0.325000X-0.175000X0.325000X0*%
%ADD53RoundRect,0.150000X-0.200000X-0.150000X0.200000X-0.150000X0.200000X0.150000X-0.200000X0.150000X0*%
G04 APERTURE END LIST*
D10*
%TO.C,R22*%
X78260000Y-39490000D03*
X79910000Y-39490000D03*
%TD*%
D11*
%TO.C,R6*%
X72580000Y-97865000D03*
X72580000Y-99515000D03*
%TD*%
D12*
%TO.C,L7*%
X111547500Y-46220000D03*
X113672500Y-46220000D03*
%TD*%
D13*
%TO.C,F3*%
X48620000Y-60697500D03*
X48620000Y-56422500D03*
%TD*%
D14*
%TO.C,C11*%
X92015000Y-74250000D03*
X90465000Y-74250000D03*
%TD*%
D15*
%TO.C,Q5*%
X107940000Y-33900000D03*
X107940000Y-35800000D03*
X109815000Y-34850000D03*
%TD*%
D14*
%TO.C,C21*%
X99295000Y-46600000D03*
X97745000Y-46600000D03*
%TD*%
D16*
%TO.C,R27*%
X57730000Y-45800000D03*
X56080000Y-45800000D03*
%TD*%
D17*
%TO.C,C18*%
X107470000Y-59660000D03*
X107470000Y-58110000D03*
%TD*%
D18*
%TO.C,C6*%
X75230000Y-46200000D03*
X75230000Y-48100000D03*
%TD*%
D19*
%TO.C,J9*%
X117060000Y-39310000D03*
X117060000Y-37310000D03*
X117060000Y-35310000D03*
D20*
X122810000Y-41660000D03*
X122810000Y-32960000D03*
%TD*%
D21*
%TO.C,C14*%
X84220000Y-66925000D03*
X84220000Y-63975000D03*
%TD*%
D11*
%TO.C,TH1*%
X75420000Y-97895000D03*
X75420000Y-99545000D03*
%TD*%
D16*
%TO.C,R33*%
X106352500Y-49850000D03*
X104702500Y-49850000D03*
%TD*%
D22*
%TO.C,U7*%
X104160000Y-40330000D03*
X104160000Y-41280000D03*
X104160000Y-42230000D03*
X106435000Y-42230000D03*
X106435000Y-40330000D03*
%TD*%
D23*
%TO.C,F1*%
X33000000Y-58410000D03*
X41500000Y-58410000D03*
%TD*%
D24*
%TO.C,L1*%
X66600000Y-56570000D03*
X66600000Y-54200000D03*
%TD*%
D25*
%TO.C,U2*%
X91400000Y-60640000D03*
X91400000Y-62140000D03*
X92540000Y-60640000D03*
X92540000Y-62140000D03*
D26*
X89495000Y-59485000D03*
X89495000Y-60755000D03*
X89495000Y-62025000D03*
X89495000Y-63295000D03*
X94445000Y-63295000D03*
X94445000Y-62025000D03*
X94445000Y-60755000D03*
X94445000Y-59485000D03*
%TD*%
D27*
%TO.C,C24*%
X112165000Y-32660000D03*
X113715000Y-32660000D03*
%TD*%
D28*
%TO.C,R24*%
X88110000Y-36215000D03*
X88110000Y-34565000D03*
%TD*%
D10*
%TO.C,R38*%
X108440000Y-52690000D03*
X110090000Y-52690000D03*
%TD*%
D12*
%TO.C,L6*%
X111637500Y-34770000D03*
X113762500Y-34770000D03*
%TD*%
D10*
%TO.C,R3*%
X87735000Y-65360000D03*
X89385000Y-65360000D03*
%TD*%
D29*
%TO.C,L4*%
X47322500Y-41940000D03*
X45197500Y-41940000D03*
%TD*%
D30*
%TO.C,C5*%
X80380000Y-58960000D03*
X80380000Y-61910000D03*
%TD*%
D31*
%TO.C,Q2*%
X69800000Y-78250000D03*
D32*
X67260000Y-88250000D03*
D31*
X64720000Y-78250000D03*
%TD*%
D33*
%TO.C,D6*%
X99520000Y-108790000D03*
X99520000Y-113090000D03*
%TD*%
D16*
%TO.C,R7*%
X73395000Y-79110000D03*
X71745000Y-79110000D03*
%TD*%
D28*
%TO.C,R12*%
X81290000Y-74425000D03*
X81290000Y-72775000D03*
%TD*%
D27*
%TO.C,C13*%
X49755000Y-45340000D03*
X51305000Y-45340000D03*
%TD*%
D17*
%TO.C,C17*%
X79270000Y-49145000D03*
X79270000Y-47595000D03*
%TD*%
D16*
%TO.C,R31*%
X57780000Y-44130000D03*
X56130000Y-44130000D03*
%TD*%
D28*
%TO.C,R29*%
X105747500Y-35835000D03*
X105747500Y-34185000D03*
%TD*%
D34*
%TO.C,U5*%
X75870000Y-39070000D03*
X75870000Y-38570000D03*
X75870000Y-38070000D03*
X75870000Y-37570000D03*
X75870000Y-37070000D03*
X71570000Y-37070000D03*
X71570000Y-37570000D03*
X71570000Y-38070000D03*
X71570000Y-38570000D03*
X71570000Y-39070000D03*
%TD*%
D31*
%TO.C,Q1*%
X69800000Y-98250000D03*
D32*
X67260000Y-108250000D03*
D31*
X64720000Y-98250000D03*
%TD*%
D10*
%TO.C,R14*%
X93395000Y-67830000D03*
X95045000Y-67830000D03*
%TD*%
D28*
%TO.C,R9*%
X83180000Y-74445000D03*
X83180000Y-72795000D03*
%TD*%
D11*
%TO.C,R37*%
X108180000Y-48165000D03*
X108180000Y-49815000D03*
%TD*%
D29*
%TO.C,L3*%
X47382500Y-45410000D03*
X45257500Y-45410000D03*
%TD*%
D27*
%TO.C,C7*%
X61310000Y-54500000D03*
X62860000Y-54500000D03*
%TD*%
D30*
%TO.C,C4*%
X84220000Y-58980000D03*
X84220000Y-61930000D03*
%TD*%
D10*
%TO.C,R5*%
X69265000Y-71420000D03*
X70915000Y-71420000D03*
%TD*%
%TO.C,R25*%
X96535000Y-38720000D03*
X98185000Y-38720000D03*
%TD*%
D35*
%TO.C,C3*%
X79770000Y-55800000D03*
X79770000Y-53900000D03*
%TD*%
D36*
%TO.C,C2*%
X62690000Y-61060000D03*
X62690000Y-62610000D03*
%TD*%
%TO.C,C20*%
X92877500Y-34570000D03*
X92877500Y-36120000D03*
%TD*%
D16*
%TO.C,R36*%
X57800000Y-42270000D03*
X56150000Y-42270000D03*
%TD*%
%TO.C,R35*%
X61260000Y-42260000D03*
X59610000Y-42260000D03*
%TD*%
D36*
%TO.C,C25*%
X110050000Y-48200000D03*
X110050000Y-49750000D03*
%TD*%
D30*
%TO.C,C9*%
X57320000Y-54745000D03*
X57320000Y-57695000D03*
%TD*%
D15*
%TO.C,Q4*%
X101717500Y-33930000D03*
X101717500Y-35830000D03*
X103592500Y-34880000D03*
%TD*%
D11*
%TO.C,R11*%
X60670000Y-60945000D03*
X60670000Y-62595000D03*
%TD*%
D10*
%TO.C,R13*%
X97115000Y-63070000D03*
X98765000Y-63070000D03*
%TD*%
%TO.C,R8*%
X73310000Y-69330000D03*
X74960000Y-69330000D03*
%TD*%
D37*
%TO.C,D11*%
X113160000Y-48960000D03*
X113160000Y-51760000D03*
%TD*%
D16*
%TO.C,R26*%
X61190000Y-45870000D03*
X59540000Y-45870000D03*
%TD*%
D37*
%TO.C,D12*%
X113270000Y-37640000D03*
X113270000Y-40440000D03*
%TD*%
D10*
%TO.C,R18*%
X97115000Y-50690000D03*
X98765000Y-50690000D03*
%TD*%
D28*
%TO.C,R1*%
X59490000Y-70217500D03*
X59490000Y-68567500D03*
%TD*%
D38*
%TO.C,D10*%
X95937500Y-36447500D03*
X95937500Y-34872500D03*
%TD*%
D39*
%TO.C,D2*%
X68842500Y-69410000D03*
X71642500Y-69410000D03*
%TD*%
D40*
%TO.C,L2*%
X92830000Y-51500000D03*
X83330000Y-51500000D03*
%TD*%
D27*
%TO.C,C16*%
X49725000Y-41990000D03*
X51275000Y-41990000D03*
%TD*%
D10*
%TO.C,R17*%
X97145000Y-52880000D03*
X98795000Y-52880000D03*
%TD*%
D16*
%TO.C,R15*%
X95015000Y-65640000D03*
X93365000Y-65640000D03*
%TD*%
D14*
%TO.C,C15*%
X70765000Y-43950000D03*
X69215000Y-43950000D03*
%TD*%
D12*
%TO.C,L5*%
X108487500Y-62180000D03*
X110612500Y-62180000D03*
%TD*%
D16*
%TO.C,R39*%
X52055000Y-25250000D03*
X50405000Y-25250000D03*
%TD*%
%TO.C,R19*%
X101940000Y-41360000D03*
X100290000Y-41360000D03*
%TD*%
D28*
%TO.C,R21*%
X89820000Y-36215000D03*
X89820000Y-34565000D03*
%TD*%
D41*
%TO.C,U6*%
X102937500Y-46780000D03*
X101987500Y-46780000D03*
X101037500Y-46780000D03*
X101037500Y-49055000D03*
X101987500Y-49055000D03*
X102937500Y-49055000D03*
%TD*%
D42*
%TO.C,D7*%
X110570000Y-60150000D03*
X110570000Y-57350000D03*
%TD*%
D22*
%TO.C,U1*%
X60912500Y-56580000D03*
X60912500Y-57530000D03*
X60912500Y-58480000D03*
X63187500Y-58480000D03*
X63187500Y-57530000D03*
X63187500Y-56580000D03*
%TD*%
D11*
%TO.C,R34*%
X98347500Y-34825000D03*
X98347500Y-36475000D03*
%TD*%
D16*
%TO.C,R30*%
X61190000Y-44160000D03*
X59540000Y-44160000D03*
%TD*%
D42*
%TO.C,D4*%
X45110000Y-32177500D03*
X45110000Y-29377500D03*
%TD*%
D43*
%TO.C,D1*%
X32557500Y-63880000D03*
X28257500Y-63880000D03*
%TD*%
D28*
%TO.C,R10*%
X58780000Y-62575000D03*
X58780000Y-60925000D03*
%TD*%
D18*
%TO.C,C23*%
X109697500Y-41140000D03*
X109697500Y-43040000D03*
%TD*%
D44*
%TO.C,U3*%
X67840000Y-46275000D03*
X67840000Y-46925000D03*
X67840000Y-47575000D03*
X67840000Y-48225000D03*
X72140000Y-48225000D03*
X72140000Y-47575000D03*
X72140000Y-46925000D03*
X72140000Y-46275000D03*
%TD*%
D36*
%TO.C,C10*%
X54370000Y-55505000D03*
X54370000Y-57055000D03*
%TD*%
D16*
%TO.C,R16*%
X69065000Y-35900000D03*
X67415000Y-35900000D03*
%TD*%
D45*
%TO.C,U8*%
X51030000Y-27750000D03*
X51030000Y-29020000D03*
X51030000Y-30290000D03*
X51030000Y-31560000D03*
X51030000Y-32830000D03*
X51030000Y-34100000D03*
X51030000Y-35370000D03*
X51030000Y-36640000D03*
X51030000Y-37910000D03*
X60330000Y-37910000D03*
X60330000Y-36640000D03*
X60330000Y-35370000D03*
X60330000Y-34100000D03*
X60330000Y-32830000D03*
X60330000Y-31560000D03*
X60330000Y-30290000D03*
X60330000Y-29020000D03*
X60330000Y-27750000D03*
%TD*%
D10*
%TO.C,R2*%
X61345000Y-67200000D03*
X62995000Y-67200000D03*
%TD*%
D46*
%TO.C,F2*%
X55447500Y-51450000D03*
X51172500Y-51450000D03*
%TD*%
D36*
%TO.C,C22*%
X101317500Y-38245000D03*
X101317500Y-39795000D03*
%TD*%
D14*
%TO.C,C26*%
X60925000Y-25260000D03*
X59375000Y-25260000D03*
%TD*%
D47*
%TO.C,J3*%
X69340000Y-25270000D03*
X71340000Y-25270000D03*
X73340000Y-25270000D03*
X75340000Y-25270000D03*
D48*
X66940000Y-23020000D03*
X77740000Y-23020000D03*
%TD*%
D10*
%TO.C,R28*%
X104872500Y-47080000D03*
X106522500Y-47080000D03*
%TD*%
D14*
%TO.C,C19*%
X68835000Y-39340000D03*
X67285000Y-39340000D03*
%TD*%
D10*
%TO.C,R20*%
X96462500Y-42930000D03*
X98112500Y-42930000D03*
%TD*%
D49*
%TO.C,D3*%
X82997500Y-76240000D03*
X81422500Y-76240000D03*
%TD*%
D50*
%TO.C,Q3*%
X78505000Y-74040000D03*
X78505000Y-72140000D03*
X76630000Y-73090000D03*
%TD*%
D46*
%TO.C,F4*%
X105217500Y-59070000D03*
X100942500Y-59070000D03*
%TD*%
D47*
%TO.C,J8*%
X84570000Y-25250000D03*
X86570000Y-25250000D03*
X88570000Y-25250000D03*
X90570000Y-25250000D03*
D48*
X82170000Y-23000000D03*
X92970000Y-23000000D03*
%TD*%
D17*
%TO.C,C8*%
X97750000Y-60930000D03*
X97750000Y-59380000D03*
%TD*%
D10*
%TO.C,R32*%
X104882500Y-45040000D03*
X106532500Y-45040000D03*
%TD*%
D42*
%TO.C,D5*%
X41930000Y-32270000D03*
X41930000Y-29470000D03*
%TD*%
D10*
%TO.C,R4*%
X73605000Y-43960000D03*
X75255000Y-43960000D03*
%TD*%
%TO.C,R23*%
X78265000Y-35780000D03*
X79915000Y-35780000D03*
%TD*%
D36*
%TO.C,C1*%
X64830000Y-60975000D03*
X64830000Y-62525000D03*
%TD*%
D51*
%TO.C,D8*%
X100340000Y-43030000D03*
X101915000Y-43030000D03*
%TD*%
D21*
%TO.C,C12*%
X80300000Y-66830000D03*
X80300000Y-63880000D03*
%TD*%
D52*
%TO.C,D9*%
X79020000Y-30200000D03*
D53*
X79020000Y-31900000D03*
X81020000Y-31900000D03*
X81020000Y-30000000D03*
%TD*%
M02*
