%TF.GenerationSoftware,KiCad,Pcbnew,8.0.5*%
%TF.CreationDate,2024-11-15T14:42:50+00:00*%
%TF.ProjectId,PA_Power_V1,50415f50-6f77-4657-925f-56312e6b6963,rev?*%
%TF.SameCoordinates,Original*%
%TF.FileFunction,Copper,L3,Inr*%
%TF.FilePolarity,Positive*%
%FSLAX46Y46*%
G04 Gerber Fmt 4.6, Leading zero omitted, Abs format (unit mm)*
G04 Created by KiCad (PCBNEW 8.0.5) date 2024-11-15 14:42:50*
%MOMM*%
%LPD*%
G01*
G04 APERTURE LIST*
G04 Aperture macros list*
%AMRoundRect*
0 Rectangle with rounded corners*
0 $1 Rounding radius*
0 $2 $3 $4 $5 $6 $7 $8 $9 X,Y pos of 4 corners*
0 Add a 4 corners polygon primitive as box body*
4,1,4,$2,$3,$4,$5,$6,$7,$8,$9,$2,$3,0*
0 Add four circle primitives for the rounded corners*
1,1,$1+$1,$2,$3*
1,1,$1+$1,$4,$5*
1,1,$1+$1,$6,$7*
1,1,$1+$1,$8,$9*
0 Add four rect primitives between the rounded corners*
20,1,$1+$1,$2,$3,$4,$5,0*
20,1,$1+$1,$4,$5,$6,$7,0*
20,1,$1+$1,$6,$7,$8,$9,0*
20,1,$1+$1,$8,$9,$2,$3,0*%
%AMHorizOval*
0 Thick line with rounded ends*
0 $1 width*
0 $2 $3 position (X,Y) of the first rounded end (center of the circle)*
0 $4 $5 position (X,Y) of the second rounded end (center of the circle)*
0 Add line between two ends*
20,1,$1,$2,$3,$4,$5,0*
0 Add two circle primitives to create the rounded ends*
1,1,$1,$2,$3*
1,1,$1,$4,$5*%
G04 Aperture macros list end*
%TA.AperFunction,ComponentPad*%
%ADD10RoundRect,0.250000X-0.725000X0.600000X-0.725000X-0.600000X0.725000X-0.600000X0.725000X0.600000X0*%
%TD*%
%TA.AperFunction,ComponentPad*%
%ADD11O,1.950000X1.700000*%
%TD*%
%TA.AperFunction,HeatsinkPad*%
%ADD12C,0.500000*%
%TD*%
%TA.AperFunction,ComponentPad*%
%ADD13RoundRect,0.250000X0.750000X-0.600000X0.750000X0.600000X-0.750000X0.600000X-0.750000X-0.600000X0*%
%TD*%
%TA.AperFunction,ComponentPad*%
%ADD14O,2.000000X1.700000*%
%TD*%
%TA.AperFunction,ComponentPad*%
%ADD15C,1.524000*%
%TD*%
%TA.AperFunction,ComponentPad*%
%ADD16C,2.500000*%
%TD*%
%TA.AperFunction,ComponentPad*%
%ADD17C,5.600000*%
%TD*%
%TA.AperFunction,ComponentPad*%
%ADD18R,1.500000X1.500000*%
%TD*%
%TA.AperFunction,ComponentPad*%
%ADD19C,1.500000*%
%TD*%
%TA.AperFunction,ComponentPad*%
%ADD20HorizOval,0.800000X0.000000X0.000000X0.000000X0.000000X0*%
%TD*%
%TA.AperFunction,ComponentPad*%
%ADD21HorizOval,0.800000X0.000000X0.000000X0.000000X0.000000X0*%
%TD*%
%TA.AperFunction,ComponentPad*%
%ADD22C,0.800000*%
%TD*%
%TA.AperFunction,ComponentPad*%
%ADD23O,9.000000X6.000000*%
%TD*%
%TA.AperFunction,ViaPad*%
%ADD24C,1.000000*%
%TD*%
%TA.AperFunction,ViaPad*%
%ADD25C,0.800000*%
%TD*%
%TA.AperFunction,Conductor*%
%ADD26C,1.000000*%
%TD*%
%TA.AperFunction,Conductor*%
%ADD27C,0.500000*%
%TD*%
%TA.AperFunction,Conductor*%
%ADD28C,0.250000*%
%TD*%
G04 APERTURE END LIST*
D10*
%TO.N,Net-(D5-A1)*%
%TO.C,J6*%
X34760000Y-46950000D03*
D11*
%TO.N,Net-(D4-A1)*%
X34760000Y-49450000D03*
%TO.N,GND*%
X34760000Y-51950000D03*
%TD*%
D12*
%TO.N,GND*%
%TO.C,U2*%
X91320000Y-60390000D03*
X91320000Y-61390000D03*
X91320000Y-62390000D03*
X92620000Y-60390000D03*
X92620000Y-61390000D03*
X92620000Y-62390000D03*
%TD*%
D13*
%TO.N,Net-(D7-A1)*%
%TO.C,J7*%
X115300000Y-60290000D03*
D14*
%TO.N,GND*%
X115300000Y-57790000D03*
%TD*%
D15*
%TO.N,Net-(D6-A1)*%
%TO.C,J4*%
X107000000Y-96033800D03*
X107000000Y-101533800D03*
X107000000Y-107033800D03*
X107121400Y-84060000D03*
X107121400Y-89560000D03*
X109250000Y-96033800D03*
X109250000Y-101533800D03*
X109250000Y-107033800D03*
X109371400Y-84060000D03*
X109371400Y-89560000D03*
D16*
X109500000Y-98533800D03*
X109500000Y-104533800D03*
X109621400Y-86560000D03*
X109621400Y-92560000D03*
D15*
X111500000Y-96033800D03*
X111500000Y-101533800D03*
X111500000Y-107033800D03*
X111621400Y-84060000D03*
X111621400Y-89560000D03*
X113750000Y-96033800D03*
X113750000Y-101533800D03*
X113750000Y-107033800D03*
X113871400Y-84060000D03*
X113871400Y-89560000D03*
D16*
X114580000Y-98533800D03*
X114580000Y-104533800D03*
X114701400Y-86560000D03*
X114701400Y-92560000D03*
D15*
X116000000Y-96033800D03*
X116000000Y-101533800D03*
X116000000Y-107033800D03*
X116121400Y-84060000D03*
X116121400Y-89560000D03*
%TD*%
D10*
%TO.N,Net-(D5-A1)*%
%TO.C,J5*%
X34760000Y-34110000D03*
D11*
%TO.N,Net-(D4-A1)*%
X34760000Y-36610000D03*
%TO.N,GND*%
X34760000Y-39110000D03*
%TD*%
D17*
%TO.N,GND*%
%TO.C,H2*%
X31000000Y-114000000D03*
%TD*%
D15*
%TO.N,Net-(D1-A1)*%
%TO.C,J1*%
X43890000Y-78940000D03*
X43890000Y-73440000D03*
X43890000Y-67940000D03*
X43768600Y-90913800D03*
X43768600Y-85413800D03*
X41640000Y-78940000D03*
X41640000Y-73440000D03*
X41640000Y-67940000D03*
X41518600Y-90913800D03*
X41518600Y-85413800D03*
D16*
X41390000Y-76440000D03*
X41390000Y-70440000D03*
X41268600Y-88413800D03*
X41268600Y-82413800D03*
D15*
X39390000Y-78940000D03*
X39390000Y-73440000D03*
X39390000Y-67940000D03*
X39268600Y-90913800D03*
X39268600Y-85413800D03*
X37140000Y-78940000D03*
X37140000Y-73440000D03*
X37140000Y-67940000D03*
X37018600Y-90913800D03*
X37018600Y-85413800D03*
D16*
X36310000Y-76440000D03*
X36310000Y-70440000D03*
X36188600Y-88413800D03*
X36188600Y-82413800D03*
D15*
X34890000Y-78940000D03*
X34890000Y-73440000D03*
X34890000Y-67940000D03*
X34768600Y-90913800D03*
X34768600Y-85413800D03*
%TD*%
D18*
%TO.N,+3.3V*%
%TO.C,U4*%
X97000000Y-76620000D03*
D19*
%TO.N,GND*%
X95090000Y-76620000D03*
%TO.N,/PA_Current*%
X93180000Y-76620000D03*
D20*
%TO.N,Net-(Q1-D)*%
X94040000Y-98650000D03*
D21*
X94040000Y-97390000D03*
D22*
X93290000Y-99680000D03*
X93290000Y-96360000D03*
X92090000Y-100070000D03*
X92090000Y-95970000D03*
X90760000Y-100070000D03*
X90760000Y-95970000D03*
D23*
X90090000Y-98020000D03*
D22*
X89420000Y-100070000D03*
X89420000Y-95970000D03*
X88090000Y-100070000D03*
X88090000Y-95970000D03*
X86890000Y-99680000D03*
X86890000Y-96360000D03*
X86140000Y-98650000D03*
X86140000Y-97390000D03*
%TO.N,Net-(D6-A1)*%
X104040000Y-98650000D03*
X104040000Y-97390000D03*
X103290000Y-99680000D03*
X103290000Y-96360000D03*
X102090000Y-100070000D03*
X102090000Y-95970000D03*
X100760000Y-100070000D03*
X100760000Y-95970000D03*
D23*
X100090000Y-98020000D03*
D22*
X99420000Y-100070000D03*
X99420000Y-95970000D03*
X98090000Y-100070000D03*
X98090000Y-95970000D03*
X96890000Y-99680000D03*
X96890000Y-96360000D03*
D21*
X96140000Y-98650000D03*
D20*
X96140000Y-97390000D03*
%TD*%
D17*
%TO.N,GND*%
%TO.C,H3*%
X119000000Y-26000000D03*
%TD*%
%TO.N,GND*%
%TO.C,H5*%
X119000000Y-70000000D03*
%TD*%
%TO.N,GND*%
%TO.C,H4*%
X31000000Y-26000000D03*
%TD*%
D15*
%TO.N,GND*%
%TO.C,J2*%
X43830000Y-106670000D03*
X43830000Y-101170000D03*
X43830000Y-95670000D03*
X41580000Y-106670000D03*
X41580000Y-101170000D03*
X41580000Y-95670000D03*
D16*
X41330000Y-104170000D03*
X41330000Y-98170000D03*
D15*
X39330000Y-106670000D03*
X39330000Y-101170000D03*
X39330000Y-95670000D03*
X37080000Y-106670000D03*
X37080000Y-101170000D03*
X37080000Y-95670000D03*
D16*
X36250000Y-104170000D03*
X36250000Y-98170000D03*
D15*
X34830000Y-106670000D03*
X34830000Y-101170000D03*
X34830000Y-95670000D03*
%TD*%
D17*
%TO.N,GND*%
%TO.C,H1*%
X119000000Y-114000000D03*
%TD*%
D24*
%TO.N,Net-(U2-EN)*%
X43840000Y-59200000D03*
X81245000Y-57090000D03*
D25*
%TO.N,+3.3V*%
X89190000Y-37190000D03*
X62920000Y-40790000D03*
X99257500Y-61930000D03*
X93767716Y-31419995D03*
X95836956Y-52475000D03*
X82330000Y-29950000D03*
X67570000Y-27630000D03*
X79828009Y-38381993D03*
X74030000Y-98010000D03*
X69450620Y-40501829D03*
X99475000Y-46992500D03*
%TO.N,GND*%
X97790000Y-45620000D03*
D24*
X72560000Y-118050000D03*
X92155000Y-63740000D03*
X103670000Y-111520000D03*
X46940000Y-116630000D03*
X92155000Y-59040000D03*
X118820000Y-84480000D03*
D25*
X114450000Y-43360000D03*
X107290000Y-50550000D03*
D24*
X110270000Y-111380000D03*
X123750000Y-100110000D03*
X100170000Y-79020000D03*
X95040000Y-79610000D03*
X26480000Y-76850000D03*
X118820000Y-100150000D03*
X122920000Y-79020000D03*
X91670000Y-79600000D03*
D25*
X115560000Y-47500000D03*
D24*
X118820000Y-89160000D03*
X51530000Y-108680000D03*
X115840000Y-79020000D03*
D25*
X80047931Y-34775000D03*
D24*
X89280000Y-55920000D03*
D25*
X112450000Y-57350000D03*
D24*
X123750000Y-94930000D03*
X56110000Y-104380000D03*
X46940000Y-112900000D03*
D25*
X111812500Y-53107546D03*
D24*
X56110000Y-116380000D03*
X118820000Y-94970000D03*
X41920000Y-117010000D03*
X56110000Y-108350000D03*
X104850000Y-79020000D03*
X99370000Y-30560000D03*
X80230000Y-79600000D03*
D25*
X99810000Y-36320000D03*
D24*
X51530000Y-104380000D03*
D25*
X106687142Y-46290658D03*
D24*
X104810000Y-74090000D03*
D25*
X89180000Y-74290000D03*
D24*
X123750000Y-89120000D03*
X115800000Y-74090000D03*
X78020000Y-61910000D03*
X123750000Y-107190000D03*
X122880000Y-74090000D03*
D25*
X66930000Y-26500000D03*
D24*
X31410000Y-87300000D03*
X110660000Y-79020000D03*
D25*
X79990000Y-72360000D03*
D24*
X83470000Y-79580000D03*
X123750000Y-84440000D03*
X26480000Y-99600000D03*
X86605000Y-62190000D03*
D25*
X115160000Y-33440000D03*
D24*
X31410000Y-99560000D03*
D25*
X64560000Y-67230000D03*
X73750000Y-41160000D03*
D24*
X76750000Y-79590000D03*
X59380000Y-118080000D03*
X31410000Y-81490000D03*
X31410000Y-92480000D03*
D25*
X61680000Y-61700000D03*
D24*
X31410000Y-76810000D03*
X36990000Y-112230000D03*
X56110000Y-112650000D03*
D25*
X55890000Y-34360000D03*
X55050000Y-40770000D03*
D24*
X51530000Y-116570000D03*
X86020000Y-79590000D03*
X26480000Y-87340000D03*
X100130000Y-74090000D03*
D25*
X101987500Y-45492500D03*
X83000000Y-26710000D03*
D24*
X118820000Y-107230000D03*
X78352233Y-47438859D03*
X26480000Y-81530000D03*
D25*
X109190000Y-45430000D03*
D24*
X46940000Y-104440000D03*
X110620000Y-74090000D03*
X94270000Y-118030000D03*
X36820000Y-51900000D03*
X41920000Y-112190000D03*
D25*
X36850000Y-39040000D03*
D24*
X46940000Y-108740000D03*
X51530000Y-112840000D03*
X26480000Y-105630000D03*
X88540000Y-79560000D03*
D25*
X77448008Y-37490000D03*
D24*
X36990000Y-117050000D03*
D25*
X84320000Y-72840000D03*
D24*
X96110000Y-112420000D03*
X26480000Y-92520000D03*
X31410000Y-105590000D03*
D25*
X43520000Y-28270000D03*
X67390000Y-37370000D03*
D24*
%TO.N,Net-(Q1-D)*%
X84890000Y-114280000D03*
X92050000Y-84700000D03*
X76620000Y-82370000D03*
X76560000Y-88200000D03*
D25*
X67030000Y-84640000D03*
X67000000Y-108310000D03*
X61270000Y-108310000D03*
D24*
X84940000Y-88200000D03*
X85080000Y-103080000D03*
D25*
X72200000Y-108240000D03*
X71060000Y-84570000D03*
D24*
X91880000Y-111120000D03*
X77280000Y-100440000D03*
D25*
X62670000Y-92860000D03*
X66980000Y-93030000D03*
D24*
X77050000Y-108140000D03*
X77280000Y-103360000D03*
X89000000Y-94010000D03*
D25*
X66980000Y-88920000D03*
X62590000Y-89040000D03*
D24*
X85980000Y-82370000D03*
X80690000Y-114610000D03*
X91940000Y-90590000D03*
X81060000Y-103220000D03*
X84990000Y-94010000D03*
X80640000Y-94010000D03*
X88960000Y-88200000D03*
D25*
X72140000Y-103810000D03*
X61720000Y-113060000D03*
D24*
X76650000Y-94010000D03*
D25*
X70960000Y-89000000D03*
D24*
X88530000Y-114280000D03*
X83460000Y-82370000D03*
X88580000Y-108280000D03*
D25*
X72140000Y-112960000D03*
D24*
X76670000Y-114890000D03*
X88530000Y-82370000D03*
X80240000Y-82370000D03*
X88770000Y-102940000D03*
X84990000Y-108420000D03*
X77090000Y-96560000D03*
D25*
X67130000Y-103710000D03*
D24*
X91990000Y-105240000D03*
D25*
X62570000Y-84780000D03*
D24*
X81110000Y-108180000D03*
D25*
X66970000Y-112840000D03*
X70880000Y-92670000D03*
X61510000Y-103600000D03*
D24*
X80370000Y-88200000D03*
D25*
%TO.N,/PA_Current*%
X76455000Y-41485000D03*
%TO.N,/PA_Voltage*%
X70350620Y-41490000D03*
X60990000Y-66370000D03*
%TO.N,/Vgg_Voltage*%
X107710000Y-51700000D03*
X69850528Y-36795000D03*
D24*
%TO.N,+12V*%
X97110000Y-40990000D03*
X80655000Y-52188161D03*
D25*
%TO.N,/Vgg_On*%
X94760000Y-41440000D03*
X62070000Y-37780000D03*
D24*
%TO.N,Net-(D1-A1)*%
X56110000Y-91340000D03*
X56130000Y-83830000D03*
X51610000Y-77310000D03*
X46910000Y-96390000D03*
X51550000Y-83690000D03*
X66510000Y-71160000D03*
X63600000Y-71140000D03*
X51610000Y-70840000D03*
X47010000Y-99870000D03*
D25*
X62790000Y-99760000D03*
X62820000Y-98680000D03*
D24*
X62980000Y-77180000D03*
X46960000Y-83750000D03*
X56110000Y-86810000D03*
X46810000Y-80090000D03*
D25*
X67790000Y-98770000D03*
X67780000Y-99820000D03*
D24*
X51620000Y-66590000D03*
X51600000Y-99810000D03*
X51610000Y-80100000D03*
X51500000Y-96330000D03*
X51610000Y-74410000D03*
D25*
X66640000Y-99820000D03*
D24*
X66730000Y-77030000D03*
D25*
X66730000Y-96660000D03*
D24*
X56290000Y-77200000D03*
X46810000Y-77300000D03*
X60920000Y-71110000D03*
X46940000Y-86960000D03*
X63560000Y-74410000D03*
X51530000Y-86900000D03*
D25*
X59700000Y-99740000D03*
D24*
X66710000Y-79790000D03*
X46820000Y-66580000D03*
X46810000Y-70830000D03*
X60980000Y-79930000D03*
X56290000Y-70730000D03*
D25*
X67870000Y-96660000D03*
D24*
X46940000Y-91500000D03*
X56290000Y-74410000D03*
X56290000Y-79990000D03*
X56110000Y-99850000D03*
X46810000Y-74410000D03*
X51530000Y-91440000D03*
X62960000Y-79940000D03*
X56110000Y-96400000D03*
X56300000Y-66480000D03*
X66540000Y-74500000D03*
D25*
X62820000Y-97660000D03*
X67840000Y-97690000D03*
X59800000Y-96650000D03*
X66650000Y-98770000D03*
X66700000Y-97690000D03*
X62900000Y-96580000D03*
X59710000Y-98260000D03*
D24*
X60980000Y-77140000D03*
X60980000Y-74410000D03*
%TO.N,Net-(D6-A1)*%
X111290000Y-109420000D03*
X97060000Y-91570000D03*
X104120000Y-85890000D03*
X99330000Y-89380000D03*
X104120000Y-89480000D03*
X103670000Y-105570000D03*
X97060000Y-87720000D03*
X104120000Y-82010000D03*
X99330000Y-85790000D03*
X96840000Y-103700000D03*
X96730000Y-108570000D03*
X104120000Y-93320000D03*
X103670000Y-102200000D03*
X97060000Y-83950000D03*
X99330000Y-81910000D03*
X99530000Y-105600000D03*
X99330000Y-93220000D03*
X99530000Y-102230000D03*
D25*
%TO.N,Net-(C10-Pad1)*%
X59410000Y-54640000D03*
X59730000Y-61740000D03*
D24*
%TO.N,Net-(C13-Pad1)*%
X48540000Y-46680000D03*
X49980000Y-49060000D03*
D25*
%TO.N,Net-(D3-A)*%
X72120000Y-49710000D03*
X75780000Y-74190000D03*
D24*
%TO.N,Net-(D4-A1)*%
X43860965Y-43609035D03*
X45110000Y-33220000D03*
D25*
%TO.N,Net-(J3-Pin_4)*%
X84210000Y-31310000D03*
X73290000Y-31419995D03*
X73451523Y-29869995D03*
X89740000Y-30519995D03*
D24*
%TO.N,Net-(C16-Pad1)*%
X48560000Y-41940000D03*
X46620000Y-54770000D03*
D25*
%TO.N,Net-(D2-A)*%
X74020000Y-77590749D03*
X74010000Y-96740002D03*
%TO.N,/Vgg Cntrl*%
X95985005Y-32194995D03*
X58270000Y-32880000D03*
%TO.N,Net-(U5-AIN3)*%
X70280000Y-74610000D03*
X68490000Y-37880000D03*
X74000000Y-99340000D03*
%TO.N,/12V_Good*%
X96740000Y-54316992D03*
X65510000Y-36015000D03*
%TD*%
D26*
%TO.N,Net-(U2-EN)*%
X43850000Y-59210000D02*
X43840000Y-59200000D01*
X44680000Y-60040000D02*
X78295000Y-60040000D01*
X43850000Y-59210000D02*
X44680000Y-60040000D01*
X78295000Y-60040000D02*
X81245000Y-57090000D01*
D27*
%TO.N,+3.3V*%
X89302500Y-37190000D02*
X93767716Y-32724784D01*
X74920000Y-97120000D02*
X74030000Y-98010000D01*
X71562449Y-38390000D02*
X79820002Y-38390000D01*
X99475000Y-46992500D02*
X99475000Y-40000000D01*
X68880000Y-26320000D02*
X67570000Y-27630000D01*
D28*
X69448791Y-40500000D02*
X69450620Y-40501829D01*
D27*
X82330000Y-29950000D02*
X78700000Y-26320000D01*
X79820002Y-38390000D02*
X79828009Y-38381993D01*
X76060000Y-78010000D02*
X74920000Y-79150000D01*
X95610000Y-78010000D02*
X76060000Y-78010000D01*
X95836956Y-58356956D02*
X99257500Y-61777500D01*
X99257500Y-61777500D02*
X99257500Y-61930000D01*
X79900002Y-38310000D02*
X79828009Y-38381993D01*
X99475000Y-40000000D02*
X93767716Y-34292716D01*
X89190000Y-37190000D02*
X88070000Y-38310000D01*
X63210000Y-40500000D02*
X62919999Y-40790001D01*
X69448791Y-40500000D02*
X63210000Y-40500000D01*
X93767716Y-31419995D02*
X88019995Y-31419995D01*
X74920000Y-79150000D02*
X74920000Y-97120000D01*
X95836956Y-51233044D02*
X99475000Y-47595000D01*
X93767716Y-34292716D02*
X93767716Y-31419995D01*
X93767716Y-32724784D02*
X93767716Y-31419995D01*
X97000000Y-76620000D02*
X95610000Y-78010000D01*
X88019995Y-31419995D02*
X86550000Y-29950000D01*
X69450620Y-40501829D02*
X71562449Y-38390000D01*
X95836956Y-52475000D02*
X95836956Y-58356956D01*
X86550000Y-29950000D02*
X82330000Y-29950000D01*
X95836956Y-52475000D02*
X95836956Y-51233044D01*
X89190000Y-37190000D02*
X89302500Y-37190000D01*
D28*
X62920000Y-40790000D02*
X62919999Y-40790001D01*
D27*
X99475000Y-47595000D02*
X99475000Y-46992500D01*
X78700000Y-26320000D02*
X68880000Y-26320000D01*
X88070000Y-38310000D02*
X79900002Y-38310000D01*
D26*
%TO.N,+12V*%
X97110000Y-40990000D02*
X85911839Y-52188161D01*
X85911839Y-52188161D02*
X80655000Y-52188161D01*
%TO.N,Net-(D4-A1)*%
X34760000Y-36610000D02*
X36861930Y-36610000D01*
X43840000Y-43588070D02*
X43860965Y-43609035D01*
X34570000Y-49350000D02*
X35040004Y-49350000D01*
X43860965Y-43609039D02*
X43860965Y-43609035D01*
X45110000Y-33220000D02*
X43840000Y-34490000D01*
X36861930Y-36610000D02*
X43860965Y-43609035D01*
X43840000Y-34490000D02*
X43840000Y-43588070D01*
X34760000Y-49450000D02*
X38020004Y-49450000D01*
X38020004Y-49450000D02*
X43860965Y-43609039D01*
D27*
%TO.N,Net-(D2-A)*%
X74020000Y-77590749D02*
X73920000Y-77690749D01*
X73920000Y-77690749D02*
X73920000Y-96650002D01*
X73920000Y-96650002D02*
X74010000Y-96740002D01*
%TO.N,Net-(U5-AIN3)*%
X72920000Y-98260000D02*
X74000000Y-99340000D01*
X70280000Y-74610000D02*
X72920000Y-77250000D01*
X72920000Y-77250000D02*
X72920000Y-98260000D01*
%TD*%
%TA.AperFunction,Conductor*%
%TO.N,Net-(D1-A1)*%
G36*
X67736404Y-70049830D02*
G01*
X67803415Y-70069607D01*
X67849098Y-70122473D01*
X67860233Y-70173596D01*
X67879763Y-80514862D01*
X67860205Y-80581938D01*
X67807487Y-80627793D01*
X67754865Y-80639093D01*
X67047563Y-80633967D01*
X66500000Y-80630000D01*
X66499978Y-80630000D01*
X66499976Y-80630000D01*
X58004963Y-80638221D01*
X58095696Y-70036605D01*
X67736404Y-70049830D01*
G37*
%TD.AperFunction*%
%TD*%
%TA.AperFunction,Conductor*%
%TO.N,Net-(D1-A1)*%
G36*
X39530000Y-64930000D02*
G01*
X58014464Y-64860472D01*
X58081577Y-64879904D01*
X58127530Y-64932536D01*
X58138925Y-64985532D01*
X58095695Y-70036604D01*
X58095696Y-70036604D01*
X58004963Y-80638223D01*
X58004962Y-80638224D01*
X57875183Y-95802051D01*
X57875184Y-95802050D01*
X57833074Y-100722350D01*
X57833073Y-100722351D01*
X57821037Y-102128820D01*
X57800780Y-102195689D01*
X57747586Y-102240990D01*
X57698830Y-102251746D01*
X45076249Y-102433730D01*
X45008932Y-102415014D01*
X44962421Y-102362875D01*
X44951481Y-102293867D01*
X44979587Y-102229900D01*
X44980005Y-102229406D01*
X45097998Y-102091255D01*
X45226503Y-101881554D01*
X45320621Y-101654332D01*
X45378036Y-101415185D01*
X45397332Y-101170000D01*
X45378036Y-100924815D01*
X45320621Y-100685668D01*
X45230503Y-100468102D01*
X45226505Y-100458449D01*
X45226503Y-100458446D01*
X45098001Y-100248750D01*
X45098000Y-100248747D01*
X45061915Y-100206498D01*
X44938271Y-100061729D01*
X44799527Y-99943230D01*
X44751252Y-99901999D01*
X44751249Y-99901998D01*
X44541553Y-99773496D01*
X44541550Y-99773494D01*
X44314336Y-99679380D01*
X44242369Y-99662102D01*
X44075185Y-99621964D01*
X44075182Y-99621963D01*
X44075179Y-99621963D01*
X43830000Y-99602668D01*
X43584820Y-99621963D01*
X43584816Y-99621963D01*
X43584815Y-99621964D01*
X43465241Y-99650671D01*
X43345663Y-99679380D01*
X43118449Y-99773494D01*
X43118446Y-99773496D01*
X42908750Y-99901998D01*
X42908741Y-99902004D01*
X42785531Y-100007236D01*
X42721770Y-100035807D01*
X42652684Y-100025370D01*
X42624469Y-100007237D01*
X42624468Y-100007236D01*
X42589472Y-99977347D01*
X42551281Y-99918843D01*
X42550781Y-99848975D01*
X42588134Y-99789928D01*
X42591750Y-99786870D01*
X42608189Y-99773496D01*
X42732845Y-99672081D01*
X42924312Y-99467069D01*
X43086081Y-99237896D01*
X43215136Y-98988830D01*
X43309075Y-98724511D01*
X43309076Y-98724504D01*
X43309078Y-98724499D01*
X43335571Y-98597005D01*
X43366148Y-98449862D01*
X43385291Y-98170000D01*
X43366148Y-97890138D01*
X43346443Y-97795315D01*
X43309078Y-97615500D01*
X43309073Y-97615483D01*
X43215136Y-97351169D01*
X43208697Y-97338743D01*
X43195330Y-97270164D01*
X43221162Y-97205245D01*
X43277991Y-97164597D01*
X43347738Y-97161118D01*
X43584815Y-97218036D01*
X43830000Y-97237332D01*
X44075185Y-97218036D01*
X44314332Y-97160621D01*
X44485986Y-97089520D01*
X44541550Y-97066505D01*
X44541551Y-97066504D01*
X44541554Y-97066503D01*
X44751255Y-96937998D01*
X44938271Y-96778271D01*
X45097998Y-96591255D01*
X45226503Y-96381554D01*
X45320621Y-96154332D01*
X45378036Y-95915185D01*
X45397332Y-95670000D01*
X45378036Y-95424815D01*
X45320621Y-95185668D01*
X45320619Y-95185663D01*
X45226505Y-94958449D01*
X45226503Y-94958446D01*
X45098001Y-94748750D01*
X45098000Y-94748747D01*
X45061915Y-94706498D01*
X44938271Y-94561729D01*
X44814625Y-94456125D01*
X44751252Y-94401999D01*
X44751249Y-94401998D01*
X44541553Y-94273496D01*
X44541550Y-94273494D01*
X44314336Y-94179380D01*
X44314332Y-94179379D01*
X44075185Y-94121964D01*
X44075182Y-94121963D01*
X44075179Y-94121963D01*
X43830000Y-94102668D01*
X43584820Y-94121963D01*
X43584816Y-94121963D01*
X43584815Y-94121964D01*
X43465241Y-94150671D01*
X43345663Y-94179380D01*
X43118449Y-94273494D01*
X43118446Y-94273496D01*
X42908750Y-94401998D01*
X42908741Y-94402004D01*
X42785531Y-94507236D01*
X42721770Y-94535807D01*
X42652684Y-94525370D01*
X42624469Y-94507236D01*
X42501258Y-94402004D01*
X42501249Y-94401998D01*
X42291553Y-94273496D01*
X42291550Y-94273494D01*
X42064336Y-94179380D01*
X42064332Y-94179379D01*
X41825185Y-94121964D01*
X41825182Y-94121963D01*
X41825179Y-94121963D01*
X41580000Y-94102668D01*
X41334820Y-94121963D01*
X41334816Y-94121963D01*
X41334815Y-94121964D01*
X41215241Y-94150671D01*
X41095663Y-94179380D01*
X40868449Y-94273494D01*
X40868446Y-94273496D01*
X40658750Y-94401998D01*
X40658741Y-94402004D01*
X40535531Y-94507236D01*
X40471770Y-94535807D01*
X40402684Y-94525370D01*
X40374469Y-94507236D01*
X40251258Y-94402004D01*
X40251249Y-94401998D01*
X40041553Y-94273496D01*
X40041550Y-94273494D01*
X39814336Y-94179380D01*
X39814332Y-94179379D01*
X39575185Y-94121964D01*
X39575182Y-94121963D01*
X39575179Y-94121963D01*
X39330000Y-94102668D01*
X39084820Y-94121963D01*
X39084816Y-94121963D01*
X39084815Y-94121964D01*
X38965241Y-94150671D01*
X38845663Y-94179380D01*
X38618449Y-94273494D01*
X38618446Y-94273496D01*
X38408750Y-94401998D01*
X38408741Y-94402004D01*
X38285531Y-94507236D01*
X38221770Y-94535807D01*
X38152684Y-94525370D01*
X38124469Y-94507236D01*
X38001258Y-94402004D01*
X38001249Y-94401998D01*
X37791553Y-94273496D01*
X37791550Y-94273494D01*
X37564336Y-94179380D01*
X37564332Y-94179379D01*
X37325185Y-94121964D01*
X37325182Y-94121963D01*
X37325179Y-94121963D01*
X37080000Y-94102668D01*
X36834820Y-94121963D01*
X36834816Y-94121963D01*
X36834815Y-94121964D01*
X36715241Y-94150671D01*
X36595663Y-94179380D01*
X36368449Y-94273494D01*
X36368446Y-94273496D01*
X36158750Y-94401998D01*
X36158741Y-94402004D01*
X36035531Y-94507236D01*
X35971770Y-94535807D01*
X35902684Y-94525370D01*
X35874469Y-94507236D01*
X35751258Y-94402004D01*
X35751249Y-94401998D01*
X35541553Y-94273496D01*
X35541550Y-94273494D01*
X35314336Y-94179380D01*
X35314332Y-94179379D01*
X35075185Y-94121964D01*
X35075182Y-94121963D01*
X35075179Y-94121963D01*
X34830000Y-94102668D01*
X34584820Y-94121963D01*
X34584816Y-94121963D01*
X34584815Y-94121964D01*
X34465241Y-94150671D01*
X34345663Y-94179380D01*
X34118449Y-94273494D01*
X34118446Y-94273496D01*
X33908750Y-94401998D01*
X33908747Y-94401999D01*
X33721729Y-94561729D01*
X33561999Y-94748747D01*
X33561998Y-94748750D01*
X33433496Y-94958446D01*
X33433494Y-94958449D01*
X33339380Y-95185663D01*
X33281963Y-95424820D01*
X33262668Y-95670000D01*
X33281963Y-95915179D01*
X33339380Y-96154336D01*
X33433494Y-96381550D01*
X33433496Y-96381553D01*
X33561998Y-96591249D01*
X33561999Y-96591252D01*
X33562002Y-96591255D01*
X33721729Y-96778271D01*
X33866498Y-96901915D01*
X33908747Y-96938000D01*
X33908750Y-96938001D01*
X34118445Y-97066503D01*
X34317976Y-97149151D01*
X34372379Y-97192992D01*
X34394444Y-97259286D01*
X34380621Y-97320759D01*
X34364864Y-97351167D01*
X34364862Y-97351174D01*
X34270926Y-97615483D01*
X34270921Y-97615500D01*
X34213852Y-97890135D01*
X34213851Y-97890137D01*
X34194709Y-98170000D01*
X34213851Y-98449862D01*
X34213852Y-98449864D01*
X34270921Y-98724499D01*
X34270926Y-98724516D01*
X34364863Y-98988828D01*
X34364864Y-98988830D01*
X34493919Y-99237896D01*
X34633457Y-99435576D01*
X34656036Y-99501695D01*
X34639283Y-99569526D01*
X34588517Y-99617533D01*
X34561101Y-99627657D01*
X34345663Y-99679380D01*
X34118449Y-99773494D01*
X34118446Y-99773496D01*
X33908750Y-99901998D01*
X33908747Y-99901999D01*
X33721729Y-100061729D01*
X33561999Y-100248747D01*
X33561998Y-100248750D01*
X33433496Y-100458446D01*
X33433494Y-100458449D01*
X33339380Y-100685663D01*
X33281963Y-100924820D01*
X33262668Y-101170000D01*
X33281963Y-101415179D01*
X33339380Y-101654336D01*
X33433494Y-101881550D01*
X33433496Y-101881553D01*
X33561998Y-102091249D01*
X33561999Y-102091252D01*
X33616125Y-102154625D01*
X33721729Y-102278271D01*
X33839195Y-102378597D01*
X33877388Y-102437103D01*
X33877887Y-102506970D01*
X33840533Y-102566017D01*
X33777186Y-102595495D01*
X33760451Y-102596873D01*
X32977734Y-102608158D01*
X32910417Y-102589442D01*
X32863906Y-102537303D01*
X32851961Y-102482267D01*
X32852707Y-102433730D01*
X33428097Y-64963910D01*
X33448808Y-64897182D01*
X33502308Y-64852243D01*
X33553910Y-64841828D01*
X39530000Y-64930000D01*
G37*
%TD.AperFunction*%
%TD*%
%TA.AperFunction,Conductor*%
%TO.N,Net-(Q1-D)*%
G36*
X70210000Y-115569979D02*
G01*
X70210000Y-115569986D01*
X70208728Y-115569994D01*
X58853460Y-115520537D01*
X58786507Y-115500560D01*
X58740982Y-115447558D01*
X58730000Y-115396538D01*
X58730000Y-101283360D01*
X58749685Y-101216321D01*
X58802489Y-101170566D01*
X58853356Y-101159362D01*
X70251977Y-101100454D01*
X70210000Y-115569979D01*
G37*
%TD.AperFunction*%
%TD*%
%TA.AperFunction,Conductor*%
%TO.N,Net-(Q1-D)*%
G36*
X70269181Y-95170184D02*
G01*
X70269180Y-95170185D01*
X70269181Y-95170185D01*
X70032484Y-95171610D01*
X69965328Y-95152329D01*
X69943847Y-95135083D01*
X69939113Y-95130326D01*
X69791733Y-95026342D01*
X69624906Y-94957758D01*
X69624891Y-94957753D01*
X69557728Y-94938597D01*
X69509942Y-94926535D01*
X69509927Y-94926532D01*
X69330538Y-94907726D01*
X58813694Y-94989251D01*
X58746504Y-94970087D01*
X58700341Y-94917639D01*
X58688738Y-94864196D01*
X58719827Y-91231649D01*
X58815870Y-81565580D01*
X58836220Y-81498742D01*
X58889476Y-81453514D01*
X58939738Y-81442816D01*
X66497095Y-81435503D01*
X66497862Y-81435505D01*
X66990627Y-81439074D01*
X66990628Y-81439075D01*
X67041725Y-81439445D01*
X67041725Y-81439446D01*
X67749027Y-81444572D01*
X67923982Y-81426640D01*
X67976604Y-81415340D01*
X68020078Y-81404733D01*
X68163455Y-81347584D01*
X68187631Y-81337948D01*
X68187634Y-81337946D01*
X68336126Y-81235552D01*
X68388844Y-81189697D01*
X68435947Y-81143370D01*
X68497545Y-81110396D01*
X68522344Y-81107779D01*
X70310000Y-81100000D01*
X70269181Y-95170184D01*
G37*
%TD.AperFunction*%
%TD*%
%TA.AperFunction,Conductor*%
%TO.N,GND*%
G36*
X124943039Y-20019685D02*
G01*
X124988794Y-20072489D01*
X125000000Y-20124000D01*
X125000000Y-119876000D01*
X124980315Y-119943039D01*
X124927511Y-119988794D01*
X124876000Y-120000000D01*
X50055000Y-120000000D01*
X25183888Y-119990049D01*
X25116857Y-119970338D01*
X25071123Y-119917515D01*
X25059938Y-119866111D01*
X25058192Y-116375420D01*
X25051241Y-102473669D01*
X32046507Y-102473669D01*
X32064788Y-102653115D01*
X32064789Y-102653124D01*
X32076731Y-102708142D01*
X32089686Y-102759599D01*
X32089689Y-102759608D01*
X32158567Y-102926312D01*
X32262817Y-103073514D01*
X32309322Y-103125646D01*
X32309326Y-103125650D01*
X32379296Y-103195033D01*
X32527369Y-103298035D01*
X32694650Y-103365506D01*
X32694651Y-103365506D01*
X32694653Y-103365507D01*
X32706458Y-103368789D01*
X32761967Y-103384222D01*
X32809833Y-103395965D01*
X32989346Y-103413574D01*
X33669567Y-103403766D01*
X33772073Y-103402289D01*
X33826541Y-103399657D01*
X33826551Y-103399656D01*
X33826554Y-103399656D01*
X33843289Y-103398278D01*
X33945998Y-103383107D01*
X33946001Y-103383106D01*
X33946002Y-103383106D01*
X34032866Y-103353997D01*
X34117025Y-103325796D01*
X34180372Y-103296318D01*
X34266997Y-103249361D01*
X34408363Y-103137330D01*
X34521256Y-102996652D01*
X34558610Y-102937605D01*
X34606095Y-102851271D01*
X34664452Y-102680597D01*
X34683366Y-102501217D01*
X34682867Y-102431350D01*
X34676138Y-102333046D01*
X34632957Y-102157916D01*
X34551889Y-101996786D01*
X34551887Y-101996781D01*
X34513692Y-101938274D01*
X34485508Y-101897858D01*
X34485502Y-101897851D01*
X34362328Y-101766092D01*
X34300481Y-101713268D01*
X34286725Y-101699512D01*
X34228629Y-101631492D01*
X34228629Y-101631491D01*
X34222015Y-101623747D01*
X34210577Y-101608004D01*
X34158517Y-101523049D01*
X34149684Y-101505713D01*
X34111561Y-101413676D01*
X34105548Y-101395171D01*
X34082283Y-101298267D01*
X34079239Y-101279047D01*
X34071423Y-101179720D01*
X34071423Y-101160277D01*
X34079239Y-101060945D01*
X34082283Y-101041730D01*
X34082286Y-101041720D01*
X34105549Y-100944822D01*
X34111561Y-100926321D01*
X34146902Y-100841002D01*
X34149686Y-100834279D01*
X34158519Y-100816945D01*
X34184169Y-100775089D01*
X34210580Y-100731990D01*
X34222014Y-100716252D01*
X34286730Y-100640479D01*
X34300479Y-100626730D01*
X34376254Y-100562012D01*
X34391994Y-100550577D01*
X34476957Y-100498511D01*
X34494263Y-100489693D01*
X34586342Y-100451553D01*
X34604827Y-100445547D01*
X34749144Y-100410900D01*
X34840134Y-100383283D01*
X34867550Y-100373159D01*
X34997858Y-100311269D01*
X35141966Y-100202789D01*
X35192732Y-100154782D01*
X35260042Y-100082837D01*
X35358701Y-99931835D01*
X35421285Y-99762666D01*
X35422407Y-99758122D01*
X35426877Y-99740026D01*
X36910323Y-99740026D01*
X36910324Y-99740034D01*
X36910324Y-99740035D01*
X36915127Y-99762669D01*
X36947766Y-99916480D01*
X36969833Y-99982778D01*
X37006603Y-100074177D01*
X37006606Y-100074182D01*
X37006607Y-100074184D01*
X37101792Y-100227399D01*
X37228684Y-100355592D01*
X37281818Y-100398410D01*
X37281818Y-100398409D01*
X37310854Y-100421808D01*
X37320962Y-100428084D01*
X37322507Y-100429253D01*
X37326224Y-100431668D01*
X37325538Y-100432723D01*
X37326655Y-100433852D01*
X37326893Y-100433465D01*
X37518009Y-100550581D01*
X37533750Y-100562017D01*
X37601333Y-100619738D01*
X37601339Y-100619743D01*
X37688960Y-100684851D01*
X37688964Y-100684853D01*
X37688966Y-100684855D01*
X37717164Y-100702979D01*
X37717175Y-100702985D01*
X37858148Y-100775089D01*
X38032360Y-100821832D01*
X38101446Y-100832269D01*
X38199597Y-100841002D01*
X38379326Y-100825748D01*
X38551154Y-100770883D01*
X38614915Y-100742312D01*
X38659252Y-100720792D01*
X38782430Y-100637483D01*
X38808653Y-100619748D01*
X38808654Y-100619746D01*
X38808663Y-100619741D01*
X38876258Y-100562007D01*
X38891974Y-100550588D01*
X38976962Y-100498508D01*
X38994273Y-100489688D01*
X39086335Y-100451555D01*
X39104819Y-100445549D01*
X39153287Y-100433914D01*
X39153286Y-100433913D01*
X39201730Y-100422283D01*
X39220938Y-100419240D01*
X39320279Y-100411423D01*
X39339721Y-100411423D01*
X39498174Y-100423892D01*
X39501091Y-100424158D01*
X39565943Y-100430850D01*
X39695338Y-100421248D01*
X39745814Y-100417504D01*
X39745820Y-100417503D01*
X39745823Y-100417503D01*
X39782146Y-100410658D01*
X39814464Y-100404568D01*
X39814467Y-100404567D01*
X39814484Y-100404564D01*
X39910022Y-100380427D01*
X40074656Y-100306733D01*
X40218764Y-100198253D01*
X40269530Y-100150246D01*
X40336840Y-100078301D01*
X40435499Y-99927299D01*
X40498083Y-99758130D01*
X40514836Y-99690299D01*
X40532567Y-99593371D01*
X40533926Y-99413001D01*
X40495114Y-99236852D01*
X40491586Y-99226521D01*
X40472539Y-99170743D01*
X40469263Y-99162032D01*
X40455189Y-99124602D01*
X40368323Y-98966521D01*
X40268646Y-98825312D01*
X40259859Y-98810862D01*
X40189303Y-98674694D01*
X40182562Y-98659174D01*
X40131205Y-98514668D01*
X40126639Y-98498372D01*
X40095436Y-98348216D01*
X40093133Y-98331465D01*
X40082668Y-98178449D01*
X40082668Y-98161548D01*
X40093134Y-98008530D01*
X40095436Y-97991781D01*
X40126642Y-97841615D01*
X40131201Y-97825340D01*
X40185906Y-97671419D01*
X40200727Y-97625381D01*
X40204862Y-97611078D01*
X40226244Y-97515808D01*
X40234887Y-97335641D01*
X40230400Y-97265915D01*
X40218070Y-97168152D01*
X40164960Y-96995773D01*
X40074824Y-96839535D01*
X40033353Y-96783305D01*
X39970138Y-96707742D01*
X39832266Y-96591438D01*
X39832265Y-96591437D01*
X39671970Y-96508730D01*
X39606691Y-96483850D01*
X39606689Y-96483849D01*
X39606683Y-96483847D01*
X39594074Y-96479478D01*
X39560099Y-96467705D01*
X39560093Y-96467704D01*
X39383011Y-96433513D01*
X39382999Y-96433512D01*
X39362079Y-96431865D01*
X39220938Y-96420757D01*
X39201720Y-96417713D01*
X39104838Y-96394454D01*
X39086332Y-96388441D01*
X38994282Y-96350312D01*
X38976945Y-96341478D01*
X38891994Y-96289420D01*
X38876254Y-96277984D01*
X38808674Y-96220267D01*
X38808662Y-96220257D01*
X38808661Y-96220256D01*
X38721023Y-96155138D01*
X38721017Y-96155134D01*
X38692814Y-96137008D01*
X38551863Y-96064915D01*
X38551858Y-96064914D01*
X38377660Y-96018172D01*
X38377653Y-96018170D01*
X38377651Y-96018170D01*
X38354883Y-96014730D01*
X38308555Y-96007730D01*
X38210426Y-95998999D01*
X38210420Y-95998998D01*
X38030693Y-96014248D01*
X38030692Y-96014248D01*
X37858873Y-96069105D01*
X37858857Y-96069112D01*
X37795104Y-96097677D01*
X37750748Y-96119204D01*
X37601336Y-96220256D01*
X37494834Y-96311218D01*
X37399728Y-96407380D01*
X37399722Y-96407385D01*
X37399722Y-96407387D01*
X37373127Y-96439231D01*
X37373025Y-96439354D01*
X37370618Y-96442250D01*
X37370609Y-96442262D01*
X37271953Y-96593259D01*
X37209371Y-96762424D01*
X37209367Y-96762435D01*
X37192621Y-96830236D01*
X37174886Y-96927180D01*
X37173525Y-97107542D01*
X37173526Y-97107546D01*
X37212336Y-97283696D01*
X37234914Y-97349816D01*
X37252271Y-97395976D01*
X37266594Y-97422040D01*
X37268034Y-97428578D01*
X37390692Y-97665297D01*
X37397434Y-97680820D01*
X37448791Y-97825325D01*
X37453357Y-97841621D01*
X37478290Y-97961606D01*
X37478300Y-97961650D01*
X37484559Y-97991769D01*
X37486864Y-98008536D01*
X37497330Y-98161537D01*
X37497330Y-98178462D01*
X37486864Y-98331461D01*
X37484560Y-98348223D01*
X37466919Y-98433119D01*
X37466918Y-98433124D01*
X37466918Y-98433125D01*
X37453358Y-98498373D01*
X37448793Y-98514666D01*
X37397434Y-98659179D01*
X37390691Y-98674703D01*
X37320139Y-98810862D01*
X37311345Y-98825322D01*
X37222908Y-98950609D01*
X37212229Y-98963736D01*
X37164206Y-99015158D01*
X37164197Y-99015167D01*
X37156694Y-99023198D01*
X37156682Y-99023212D01*
X37100888Y-99089811D01*
X37084868Y-99111177D01*
X37084863Y-99111184D01*
X37012741Y-99226518D01*
X37012740Y-99226519D01*
X36948846Y-99395192D01*
X36931562Y-99462914D01*
X36931562Y-99462915D01*
X36913083Y-99559681D01*
X36913082Y-99559685D01*
X36910323Y-99740026D01*
X35426877Y-99740026D01*
X35438030Y-99694868D01*
X35438035Y-99694846D01*
X35438038Y-99694835D01*
X35455770Y-99597903D01*
X35457127Y-99417534D01*
X35418315Y-99241384D01*
X35395736Y-99175265D01*
X35378391Y-99129140D01*
X35375897Y-99124602D01*
X35349089Y-99075816D01*
X35291526Y-98971060D01*
X35188649Y-98825317D01*
X35179861Y-98810865D01*
X35179859Y-98810862D01*
X35109302Y-98674694D01*
X35102562Y-98659174D01*
X35051205Y-98514668D01*
X35046639Y-98498372D01*
X35015436Y-98348216D01*
X35013133Y-98331465D01*
X35002668Y-98178449D01*
X35002668Y-98161548D01*
X35013134Y-98008530D01*
X35015433Y-97991795D01*
X35046644Y-97841599D01*
X35051200Y-97825343D01*
X35104225Y-97676145D01*
X35106736Y-97669665D01*
X35107461Y-97667935D01*
X35107471Y-97667917D01*
X35119522Y-97633114D01*
X35119848Y-97632187D01*
X35122270Y-97625374D01*
X35123853Y-97620921D01*
X35124740Y-97618148D01*
X35125622Y-97615503D01*
X35166498Y-97497474D01*
X35180321Y-97436001D01*
X35193406Y-97361706D01*
X35196165Y-97181353D01*
X35158722Y-97004907D01*
X35136657Y-96938613D01*
X35132057Y-96927180D01*
X35099887Y-96847214D01*
X35099886Y-96847212D01*
X35099884Y-96847207D01*
X35095113Y-96839528D01*
X35038478Y-96748364D01*
X35004699Y-96693991D01*
X35004697Y-96693989D01*
X35004696Y-96693987D01*
X34877810Y-96565801D01*
X34877809Y-96565800D01*
X34877807Y-96565798D01*
X34823404Y-96521957D01*
X34784094Y-96492216D01*
X34739743Y-96467704D01*
X34626229Y-96404966D01*
X34626219Y-96404961D01*
X34494281Y-96350312D01*
X34476949Y-96341481D01*
X34407438Y-96298885D01*
X34391992Y-96289419D01*
X34376252Y-96277983D01*
X34300487Y-96213274D01*
X34286727Y-96199514D01*
X34222012Y-96123742D01*
X34210576Y-96108001D01*
X34158519Y-96023052D01*
X34149685Y-96005715D01*
X34111561Y-95913676D01*
X34105548Y-95895171D01*
X34082283Y-95798267D01*
X34079239Y-95779047D01*
X34071423Y-95679720D01*
X34071423Y-95660277D01*
X34079239Y-95560945D01*
X34082283Y-95541730D01*
X34082286Y-95541720D01*
X34105549Y-95444822D01*
X34111561Y-95426321D01*
X34146902Y-95341002D01*
X34149686Y-95334279D01*
X34158519Y-95316945D01*
X34184169Y-95275089D01*
X34210580Y-95231990D01*
X34222014Y-95216252D01*
X34286730Y-95140479D01*
X34300479Y-95126730D01*
X34376254Y-95062012D01*
X34391994Y-95050577D01*
X34476948Y-94998517D01*
X34494278Y-94989686D01*
X34586335Y-94951555D01*
X34604819Y-94945549D01*
X34653287Y-94933914D01*
X34653286Y-94933913D01*
X34701730Y-94922283D01*
X34720938Y-94919240D01*
X34820278Y-94911423D01*
X34839720Y-94911423D01*
X34939058Y-94919240D01*
X34958274Y-94922284D01*
X35055173Y-94945548D01*
X35073659Y-94951554D01*
X35165724Y-94989688D01*
X35183044Y-94998514D01*
X35268012Y-95050582D01*
X35283746Y-95062013D01*
X35351339Y-95119743D01*
X35438960Y-95184851D01*
X35438968Y-95184856D01*
X35467164Y-95202979D01*
X35467175Y-95202985D01*
X35608148Y-95275089D01*
X35782360Y-95321832D01*
X35851446Y-95332269D01*
X35949597Y-95341002D01*
X36129326Y-95325748D01*
X36301154Y-95270883D01*
X36364915Y-95242312D01*
X36409252Y-95220792D01*
X36558663Y-95119741D01*
X36626258Y-95062007D01*
X36641974Y-95050588D01*
X36726962Y-94998508D01*
X36744273Y-94989688D01*
X36836335Y-94951555D01*
X36854819Y-94945549D01*
X36903287Y-94933914D01*
X36903286Y-94933913D01*
X36951730Y-94922283D01*
X36970938Y-94919240D01*
X37070278Y-94911423D01*
X37089720Y-94911423D01*
X37189058Y-94919240D01*
X37208274Y-94922284D01*
X37305173Y-94945548D01*
X37323659Y-94951554D01*
X37415724Y-94989688D01*
X37433044Y-94998514D01*
X37518012Y-95050582D01*
X37533746Y-95062013D01*
X37601339Y-95119743D01*
X37688960Y-95184851D01*
X37688968Y-95184856D01*
X37717164Y-95202979D01*
X37717175Y-95202985D01*
X37858148Y-95275089D01*
X38032360Y-95321832D01*
X38101446Y-95332269D01*
X38199597Y-95341002D01*
X38379326Y-95325748D01*
X38551154Y-95270883D01*
X38614915Y-95242312D01*
X38659252Y-95220792D01*
X38808663Y-95119741D01*
X38876258Y-95062007D01*
X38891974Y-95050588D01*
X38976962Y-94998508D01*
X38994273Y-94989688D01*
X39086335Y-94951555D01*
X39104819Y-94945549D01*
X39153287Y-94933914D01*
X39153286Y-94933913D01*
X39201730Y-94922283D01*
X39220938Y-94919240D01*
X39320278Y-94911423D01*
X39339720Y-94911423D01*
X39439058Y-94919240D01*
X39458274Y-94922284D01*
X39555173Y-94945548D01*
X39573659Y-94951554D01*
X39665724Y-94989688D01*
X39683044Y-94998514D01*
X39768012Y-95050582D01*
X39783746Y-95062013D01*
X39851339Y-95119743D01*
X39938960Y-95184851D01*
X39938968Y-95184856D01*
X39967164Y-95202979D01*
X39967175Y-95202985D01*
X40108148Y-95275089D01*
X40282360Y-95321832D01*
X40351446Y-95332269D01*
X40449597Y-95341002D01*
X40629326Y-95325748D01*
X40801154Y-95270883D01*
X40864915Y-95242312D01*
X40909252Y-95220792D01*
X41058663Y-95119741D01*
X41126258Y-95062007D01*
X41141974Y-95050588D01*
X41226962Y-94998508D01*
X41244273Y-94989688D01*
X41336335Y-94951555D01*
X41354819Y-94945549D01*
X41403287Y-94933914D01*
X41403286Y-94933913D01*
X41451730Y-94922283D01*
X41470938Y-94919240D01*
X41570278Y-94911423D01*
X41589720Y-94911423D01*
X41689058Y-94919240D01*
X41708274Y-94922284D01*
X41805173Y-94945548D01*
X41823659Y-94951554D01*
X41915724Y-94989688D01*
X41933044Y-94998514D01*
X42018012Y-95050582D01*
X42033746Y-95062013D01*
X42101339Y-95119743D01*
X42188960Y-95184851D01*
X42188968Y-95184856D01*
X42217164Y-95202979D01*
X42217175Y-95202985D01*
X42358148Y-95275089D01*
X42532360Y-95321832D01*
X42601446Y-95332269D01*
X42699597Y-95341002D01*
X42879326Y-95325748D01*
X43051154Y-95270883D01*
X43114915Y-95242312D01*
X43159252Y-95220792D01*
X43308663Y-95119741D01*
X43376258Y-95062007D01*
X43391974Y-95050588D01*
X43476962Y-94998508D01*
X43494273Y-94989688D01*
X43586335Y-94951555D01*
X43604819Y-94945549D01*
X43653287Y-94933914D01*
X43653286Y-94933913D01*
X43701730Y-94922283D01*
X43720938Y-94919240D01*
X43820278Y-94911423D01*
X43839720Y-94911423D01*
X43939058Y-94919240D01*
X43958274Y-94922284D01*
X44055173Y-94945548D01*
X44073659Y-94951554D01*
X44165718Y-94989686D01*
X44183049Y-94998517D01*
X44268005Y-95050578D01*
X44283747Y-95062015D01*
X44291488Y-95068626D01*
X44291493Y-95068630D01*
X44291494Y-95068631D01*
X44321003Y-95093834D01*
X44359515Y-95126727D01*
X44373271Y-95140483D01*
X44437988Y-95216257D01*
X44449419Y-95231990D01*
X44501480Y-95316948D01*
X44510313Y-95334284D01*
X44548441Y-95426332D01*
X44554454Y-95444838D01*
X44577713Y-95541720D01*
X44580757Y-95560938D01*
X44588575Y-95660270D01*
X44588575Y-95679728D01*
X44580757Y-95779060D01*
X44577713Y-95798278D01*
X44554454Y-95895160D01*
X44548441Y-95913667D01*
X44510313Y-96005714D01*
X44501479Y-96023050D01*
X44449418Y-96108006D01*
X44437982Y-96123747D01*
X44373273Y-96199513D01*
X44359513Y-96213273D01*
X44283749Y-96277981D01*
X44268007Y-96289418D01*
X44183052Y-96341478D01*
X44165715Y-96350311D01*
X44073660Y-96388441D01*
X44055156Y-96394454D01*
X43958277Y-96417713D01*
X43939059Y-96420757D01*
X43839729Y-96428575D01*
X43820270Y-96428575D01*
X43720938Y-96420757D01*
X43701720Y-96417713D01*
X43535774Y-96377873D01*
X43487643Y-96367860D01*
X43487630Y-96367858D01*
X43307611Y-96356618D01*
X43307609Y-96356618D01*
X43302646Y-96356865D01*
X43237876Y-96360095D01*
X43237861Y-96360096D01*
X43140055Y-96370995D01*
X43140048Y-96370996D01*
X43140047Y-96370997D01*
X42966913Y-96421589D01*
X42966910Y-96421590D01*
X42966908Y-96421591D01*
X42809382Y-96509435D01*
X42752554Y-96550082D01*
X42752524Y-96550105D01*
X42676075Y-96612192D01*
X42676066Y-96612201D01*
X42557768Y-96748365D01*
X42472734Y-96907440D01*
X42472734Y-96907441D01*
X42446903Y-96972358D01*
X42446901Y-96972363D01*
X42416145Y-97065954D01*
X42416143Y-97065964D01*
X42416142Y-97065968D01*
X42410109Y-97107546D01*
X42390239Y-97244475D01*
X42390239Y-97244477D01*
X42404707Y-97424257D01*
X42404708Y-97424267D01*
X42418074Y-97492843D01*
X42428979Y-97540907D01*
X42439066Y-97567233D01*
X42439651Y-97574504D01*
X42528790Y-97825319D01*
X42533356Y-97841615D01*
X42558290Y-97961606D01*
X42558300Y-97961650D01*
X42564559Y-97991769D01*
X42566864Y-98008536D01*
X42577330Y-98161537D01*
X42577330Y-98178462D01*
X42566864Y-98331461D01*
X42564560Y-98348223D01*
X42546919Y-98433119D01*
X42546918Y-98433124D01*
X42546918Y-98433125D01*
X42533358Y-98498373D01*
X42528793Y-98514666D01*
X42477434Y-98659179D01*
X42470691Y-98674703D01*
X42400141Y-98810858D01*
X42391347Y-98825319D01*
X42302905Y-98950611D01*
X42292225Y-98963738D01*
X42187552Y-99075816D01*
X42175184Y-99087367D01*
X42099852Y-99148656D01*
X42083394Y-99162045D01*
X42071663Y-99171776D01*
X42067990Y-99174881D01*
X42020298Y-99218619D01*
X41907407Y-99359299D01*
X41870057Y-99418340D01*
X41822567Y-99504684D01*
X41764215Y-99675354D01*
X41764214Y-99675357D01*
X41764214Y-99675359D01*
X41755487Y-99758133D01*
X41745301Y-99854746D01*
X41745802Y-99924612D01*
X41745803Y-99924628D01*
X41752529Y-100022887D01*
X41752529Y-100022890D01*
X41752530Y-100022894D01*
X41767309Y-100082837D01*
X41795708Y-100198022D01*
X41876777Y-100359156D01*
X41914962Y-100417651D01*
X41943163Y-100458092D01*
X42066338Y-100589850D01*
X42066342Y-100589854D01*
X42066346Y-100589858D01*
X42101342Y-100619747D01*
X42120586Y-100636183D01*
X42126780Y-100637483D01*
X42145956Y-100650195D01*
X42188970Y-100684858D01*
X42189000Y-100684879D01*
X42217178Y-100702988D01*
X42217185Y-100702992D01*
X42217188Y-100702993D01*
X42217192Y-100702996D01*
X42358148Y-100775089D01*
X42495394Y-100811913D01*
X42532355Y-100821831D01*
X42532357Y-100821831D01*
X42532360Y-100821832D01*
X42601446Y-100832269D01*
X42699597Y-100841002D01*
X42879326Y-100825748D01*
X43051154Y-100770883D01*
X43114915Y-100742312D01*
X43159252Y-100720792D01*
X43282430Y-100637483D01*
X43308653Y-100619748D01*
X43308654Y-100619746D01*
X43308663Y-100619741D01*
X43376258Y-100562007D01*
X43391974Y-100550588D01*
X43476962Y-100498508D01*
X43494273Y-100489688D01*
X43586335Y-100451555D01*
X43604819Y-100445549D01*
X43653287Y-100433914D01*
X43653286Y-100433913D01*
X43701730Y-100422283D01*
X43720938Y-100419240D01*
X43820278Y-100411423D01*
X43839720Y-100411423D01*
X43939058Y-100419240D01*
X43958271Y-100422283D01*
X44054326Y-100445345D01*
X44055081Y-100445526D01*
X44073663Y-100451556D01*
X44165708Y-100489682D01*
X44165713Y-100489684D01*
X44183049Y-100498517D01*
X44268006Y-100550578D01*
X44283749Y-100562016D01*
X44359515Y-100626727D01*
X44373271Y-100640483D01*
X44426662Y-100702996D01*
X44437980Y-100716247D01*
X44449418Y-100731990D01*
X44501478Y-100816945D01*
X44510311Y-100834280D01*
X44521540Y-100861390D01*
X44548436Y-100926321D01*
X44548442Y-100926334D01*
X44554455Y-100944841D01*
X44577713Y-101041720D01*
X44580757Y-101060938D01*
X44588575Y-101160270D01*
X44588575Y-101179728D01*
X44580757Y-101279060D01*
X44577713Y-101298278D01*
X44554454Y-101395160D01*
X44548441Y-101413667D01*
X44510314Y-101505712D01*
X44501481Y-101523047D01*
X44449418Y-101608008D01*
X44437980Y-101623750D01*
X44367598Y-101706155D01*
X44367599Y-101706156D01*
X44365188Y-101708991D01*
X44365189Y-101708992D01*
X44364659Y-101709617D01*
X44332726Y-101749896D01*
X44332725Y-101749899D01*
X44242135Y-101905871D01*
X44214021Y-101969855D01*
X44179980Y-102062311D01*
X44147797Y-102239802D01*
X44155914Y-102419971D01*
X44155915Y-102419988D01*
X44155916Y-102419990D01*
X44156132Y-102421351D01*
X44166853Y-102488985D01*
X44166856Y-102489000D01*
X44176333Y-102531696D01*
X44188204Y-102585178D01*
X44188205Y-102585180D01*
X44188205Y-102585181D01*
X44257082Y-102751884D01*
X44361332Y-102899086D01*
X44407837Y-102951218D01*
X44407841Y-102951222D01*
X44477811Y-103020605D01*
X44625884Y-103123607D01*
X44793165Y-103191078D01*
X44793166Y-103191078D01*
X44793168Y-103191079D01*
X44804973Y-103194361D01*
X44860482Y-103209794D01*
X44908348Y-103221537D01*
X45087861Y-103239146D01*
X57710442Y-103057162D01*
X57786178Y-103048354D01*
X57855040Y-103060162D01*
X57906588Y-103107327D01*
X57924500Y-103171524D01*
X57924500Y-115396538D01*
X57937999Y-115523405D01*
X57942536Y-115566038D01*
X57953516Y-115617052D01*
X57962734Y-115655307D01*
X58028471Y-115823268D01*
X58028474Y-115823274D01*
X58092928Y-115918001D01*
X58129941Y-115972400D01*
X58129943Y-115972403D01*
X58129945Y-115972405D01*
X58129948Y-115972410D01*
X58175452Y-116025387D01*
X58175478Y-116025416D01*
X58244096Y-116096061D01*
X58244102Y-116096066D01*
X58244104Y-116096068D01*
X58390217Y-116201833D01*
X58556200Y-116272434D01*
X58623153Y-116292411D01*
X58670801Y-116305053D01*
X58849952Y-116326029D01*
X70190362Y-116375421D01*
X70191263Y-116375601D01*
X70213257Y-116375480D01*
X70213673Y-116375478D01*
X70213794Y-116375478D01*
X70214055Y-116375475D01*
X70214327Y-116375474D01*
X70214435Y-116375473D01*
X70214436Y-116375474D01*
X70215707Y-116375467D01*
X70224277Y-116375374D01*
X94251788Y-115987352D01*
X94251796Y-115987351D01*
X94251797Y-115987351D01*
X94413832Y-115968205D01*
X94413832Y-115968204D01*
X94413840Y-115968204D01*
X94462625Y-115957342D01*
X94493700Y-115949773D01*
X94661804Y-115884381D01*
X94811142Y-115783222D01*
X94864238Y-115737807D01*
X94935060Y-115669300D01*
X95041124Y-115523405D01*
X95112064Y-115357566D01*
X95132178Y-115290654D01*
X95144916Y-115243040D01*
X95166260Y-115063933D01*
X95191503Y-111127014D01*
X95211617Y-111060105D01*
X95264713Y-111014690D01*
X95329386Y-111004592D01*
X95422888Y-111015129D01*
X95424087Y-111015129D01*
X109674598Y-111015370D01*
X109848938Y-110996280D01*
X109901344Y-110984663D01*
X110067436Y-110928284D01*
X110090230Y-110917654D01*
X110110524Y-110910267D01*
X110173241Y-110893462D01*
X110194516Y-110889711D01*
X110259198Y-110884053D01*
X110280800Y-110884053D01*
X110345477Y-110889711D01*
X110366761Y-110893464D01*
X110429470Y-110910267D01*
X110449776Y-110917658D01*
X110472605Y-110928303D01*
X110638671Y-110984676D01*
X110691073Y-110996294D01*
X110865412Y-111015390D01*
X117165305Y-111015497D01*
X117333987Y-110997640D01*
X117384771Y-110986765D01*
X117422205Y-110977808D01*
X117590311Y-110912423D01*
X117739653Y-110811270D01*
X117792751Y-110765857D01*
X117863573Y-110697356D01*
X117969644Y-110551466D01*
X118040591Y-110385630D01*
X118060708Y-110318719D01*
X118073448Y-110271108D01*
X118094801Y-110092002D01*
X118283195Y-80930311D01*
X118264893Y-80754296D01*
X118253409Y-80701372D01*
X118242410Y-80656844D01*
X118175032Y-80489526D01*
X118072112Y-80341396D01*
X118026071Y-80288841D01*
X117956732Y-80218837D01*
X117930562Y-80200281D01*
X117809593Y-80114509D01*
X117809587Y-80114506D01*
X117642924Y-80045536D01*
X117575763Y-80026210D01*
X117528022Y-80014042D01*
X117528015Y-80014041D01*
X117348664Y-79994819D01*
X95507088Y-80113471D01*
X95507086Y-80113471D01*
X95389886Y-80126464D01*
X95339317Y-80132070D01*
X95339313Y-80132070D01*
X95339311Y-80132071D01*
X95288817Y-80143118D01*
X95252242Y-80152021D01*
X95084361Y-80217973D01*
X95078679Y-80220978D01*
X95010213Y-80234915D01*
X94949403Y-80212803D01*
X94907796Y-80183554D01*
X94907793Y-80183552D01*
X94907791Y-80183551D01*
X94907788Y-80183549D01*
X94907779Y-80183545D01*
X94740858Y-80115258D01*
X94740850Y-80115255D01*
X94740846Y-80115254D01*
X94673625Y-80096206D01*
X94658736Y-80092475D01*
X94625813Y-80084224D01*
X94446388Y-80065728D01*
X91768325Y-80091108D01*
X91737083Y-80092011D01*
X91727483Y-80092475D01*
X91696203Y-80094598D01*
X91680139Y-80096003D01*
X91661527Y-80096228D01*
X91625788Y-80093972D01*
X91613917Y-80093511D01*
X91574978Y-80092940D01*
X76095675Y-80239633D01*
X76028452Y-80220585D01*
X75982199Y-80168217D01*
X75970500Y-80115639D01*
X75970500Y-79636493D01*
X75990185Y-79569454D01*
X76006819Y-79548812D01*
X76458812Y-79096819D01*
X76520135Y-79063334D01*
X76546493Y-79060500D01*
X95713466Y-79060500D01*
X95713467Y-79060499D01*
X95916420Y-79020130D01*
X96107598Y-78940941D01*
X96147170Y-78914500D01*
X96279655Y-78825977D01*
X96425977Y-78679655D01*
X96425977Y-78679653D01*
X96436185Y-78669446D01*
X96436186Y-78669443D01*
X96898812Y-78206819D01*
X96960135Y-78173334D01*
X96986493Y-78170500D01*
X97794957Y-78170500D01*
X97794958Y-78170499D01*
X97862104Y-78162934D01*
X97929249Y-78155369D01*
X97929252Y-78155368D01*
X97929255Y-78155368D01*
X98099522Y-78095789D01*
X98252262Y-77999816D01*
X98379816Y-77872262D01*
X98475789Y-77719522D01*
X98535368Y-77549255D01*
X98550500Y-77414954D01*
X98550500Y-75825046D01*
X98543470Y-75762651D01*
X98535369Y-75690750D01*
X98535368Y-75690745D01*
X98475788Y-75520476D01*
X98379815Y-75367737D01*
X98252262Y-75240184D01*
X98099523Y-75144211D01*
X97929254Y-75084631D01*
X97929249Y-75084630D01*
X97794960Y-75069500D01*
X97794954Y-75069500D01*
X96205046Y-75069500D01*
X96205039Y-75069500D01*
X96070750Y-75084630D01*
X96070745Y-75084631D01*
X95900476Y-75144211D01*
X95747737Y-75240184D01*
X95620184Y-75367737D01*
X95524211Y-75520476D01*
X95464631Y-75690745D01*
X95464630Y-75690750D01*
X95449500Y-75825039D01*
X95449500Y-76633506D01*
X95429815Y-76700545D01*
X95413181Y-76721187D01*
X95211188Y-76923181D01*
X95149865Y-76956666D01*
X95123507Y-76959500D01*
X94842718Y-76959500D01*
X94775679Y-76939815D01*
X94729924Y-76887011D01*
X94719100Y-76825772D01*
X94723460Y-76770358D01*
X94735294Y-76620000D01*
X94716146Y-76376698D01*
X94659172Y-76139388D01*
X94565777Y-75913911D01*
X94565777Y-75913910D01*
X94438262Y-75705826D01*
X94438261Y-75705823D01*
X94402453Y-75663897D01*
X94279759Y-75520241D01*
X94101201Y-75367738D01*
X94094176Y-75361738D01*
X94094173Y-75361737D01*
X93886089Y-75234222D01*
X93660618Y-75140830D01*
X93660621Y-75140830D01*
X93554992Y-75115470D01*
X93423302Y-75083854D01*
X93423300Y-75083853D01*
X93423297Y-75083853D01*
X93180000Y-75064706D01*
X92936702Y-75083853D01*
X92699380Y-75140830D01*
X92473910Y-75234222D01*
X92265826Y-75361737D01*
X92265823Y-75361738D01*
X92080241Y-75520241D01*
X91921738Y-75705823D01*
X91921737Y-75705826D01*
X91794222Y-75913910D01*
X91700830Y-76139380D01*
X91643853Y-76376702D01*
X91624706Y-76620000D01*
X91640900Y-76825772D01*
X91626536Y-76894149D01*
X91577484Y-76943905D01*
X91517282Y-76959500D01*
X76163465Y-76959500D01*
X75956534Y-76959500D01*
X75938552Y-76963077D01*
X75938551Y-76963077D01*
X75753587Y-76999868D01*
X75753579Y-76999870D01*
X75562403Y-77079058D01*
X75390342Y-77194024D01*
X75356540Y-77227826D01*
X75295217Y-77261311D01*
X75225525Y-77256325D01*
X75169592Y-77214453D01*
X75149596Y-77174084D01*
X75144229Y-77155221D01*
X75106305Y-77079059D01*
X75045061Y-76956065D01*
X75045056Y-76956057D01*
X74910979Y-76778510D01*
X74746562Y-76628625D01*
X74746560Y-76628623D01*
X74557404Y-76511503D01*
X74557398Y-76511501D01*
X74349940Y-76431131D01*
X74131243Y-76390249D01*
X73908757Y-76390249D01*
X73776249Y-76415019D01*
X73690048Y-76431133D01*
X73684539Y-76432701D01*
X73684157Y-76431360D01*
X73621314Y-76436647D01*
X73559576Y-76403932D01*
X73558554Y-76402922D01*
X71456478Y-74300847D01*
X71424893Y-74247100D01*
X71408647Y-74189999D01*
X74574357Y-74189999D01*
X74574357Y-74190000D01*
X74594884Y-74411535D01*
X74594885Y-74411537D01*
X74655769Y-74625523D01*
X74655775Y-74625538D01*
X74754938Y-74824683D01*
X74754943Y-74824691D01*
X74889020Y-75002238D01*
X75053437Y-75152123D01*
X75053439Y-75152125D01*
X75242595Y-75269245D01*
X75242596Y-75269245D01*
X75242599Y-75269247D01*
X75450060Y-75349618D01*
X75668757Y-75390500D01*
X75668759Y-75390500D01*
X75891241Y-75390500D01*
X75891243Y-75390500D01*
X76109940Y-75349618D01*
X76317401Y-75269247D01*
X76506562Y-75152124D01*
X76670981Y-75002236D01*
X76805058Y-74824689D01*
X76904229Y-74625528D01*
X76965115Y-74411536D01*
X76985643Y-74190000D01*
X76965115Y-73968464D01*
X76904229Y-73754472D01*
X76904224Y-73754461D01*
X76805061Y-73555316D01*
X76805056Y-73555308D01*
X76670979Y-73377761D01*
X76506562Y-73227876D01*
X76506560Y-73227874D01*
X76317404Y-73110754D01*
X76317398Y-73110752D01*
X76109940Y-73030382D01*
X75891243Y-72989500D01*
X75668757Y-72989500D01*
X75450060Y-73030382D01*
X75318864Y-73081207D01*
X75242601Y-73110752D01*
X75242595Y-73110754D01*
X75053439Y-73227874D01*
X75053437Y-73227876D01*
X74889020Y-73377761D01*
X74754943Y-73555308D01*
X74754938Y-73555316D01*
X74655775Y-73754461D01*
X74655769Y-73754476D01*
X74594885Y-73968462D01*
X74594884Y-73968464D01*
X74574357Y-74189999D01*
X71408647Y-74189999D01*
X71404228Y-74174469D01*
X71305061Y-73975316D01*
X71305056Y-73975308D01*
X71170979Y-73797761D01*
X71006562Y-73647876D01*
X71006560Y-73647874D01*
X70817404Y-73530754D01*
X70817398Y-73530752D01*
X70609940Y-73450382D01*
X70391243Y-73409500D01*
X70168757Y-73409500D01*
X69950060Y-73450382D01*
X69818864Y-73501207D01*
X69742601Y-73530752D01*
X69742595Y-73530754D01*
X69553439Y-73647874D01*
X69553437Y-73647876D01*
X69389020Y-73797761D01*
X69254943Y-73975308D01*
X69254938Y-73975316D01*
X69155775Y-74174461D01*
X69155769Y-74174476D01*
X69094885Y-74388462D01*
X69094884Y-74388464D01*
X69074357Y-74609999D01*
X69074357Y-74610000D01*
X69094884Y-74831535D01*
X69094885Y-74831537D01*
X69155769Y-75045523D01*
X69155775Y-75045538D01*
X69254938Y-75244683D01*
X69254943Y-75244691D01*
X69389020Y-75422238D01*
X69553437Y-75572123D01*
X69553439Y-75572125D01*
X69742595Y-75689245D01*
X69742597Y-75689246D01*
X69742599Y-75689247D01*
X69932080Y-75762652D01*
X69974966Y-75790597D01*
X71833181Y-77648812D01*
X71866666Y-77710135D01*
X71869500Y-77736493D01*
X71869500Y-80157219D01*
X71849815Y-80224258D01*
X71797011Y-80270013D01*
X71739729Y-80281085D01*
X71736702Y-80280943D01*
X71736693Y-80280943D01*
X71736683Y-80280943D01*
X71736682Y-80280943D01*
X70304761Y-80294512D01*
X70304126Y-80294517D01*
X68809167Y-80301023D01*
X68742042Y-80281630D01*
X68696058Y-80229026D01*
X68684627Y-80177258D01*
X68684579Y-80152021D01*
X68665732Y-70172075D01*
X68647280Y-70002171D01*
X68636145Y-69951048D01*
X68635871Y-69949925D01*
X68626728Y-69912420D01*
X68626724Y-69912408D01*
X68626724Y-69912407D01*
X68560483Y-69744635D01*
X68458571Y-69595811D01*
X68458568Y-69595808D01*
X68458565Y-69595803D01*
X68412899Y-69542957D01*
X68412890Y-69542947D01*
X68344042Y-69472487D01*
X68344040Y-69472485D01*
X68197615Y-69367157D01*
X68197614Y-69367156D01*
X68031420Y-69297050D01*
X67964409Y-69277273D01*
X67916722Y-69264772D01*
X67737509Y-69244331D01*
X59033001Y-69232389D01*
X58965988Y-69212612D01*
X58920306Y-69159746D01*
X58909176Y-69107332D01*
X58932606Y-66369999D01*
X59784357Y-66369999D01*
X59784357Y-66370000D01*
X59804884Y-66591535D01*
X59804885Y-66591537D01*
X59865769Y-66805523D01*
X59865775Y-66805538D01*
X59964938Y-67004683D01*
X59964943Y-67004691D01*
X60099020Y-67182238D01*
X60263437Y-67332123D01*
X60263439Y-67332125D01*
X60452595Y-67449245D01*
X60452596Y-67449245D01*
X60452599Y-67449247D01*
X60660060Y-67529618D01*
X60878757Y-67570500D01*
X60878759Y-67570500D01*
X61101241Y-67570500D01*
X61101243Y-67570500D01*
X61319940Y-67529618D01*
X61527401Y-67449247D01*
X61716562Y-67332124D01*
X61880981Y-67182236D01*
X62015058Y-67004689D01*
X62114229Y-66805528D01*
X62175115Y-66591536D01*
X62195643Y-66370000D01*
X62175115Y-66148464D01*
X62114229Y-65934472D01*
X62114224Y-65934461D01*
X62015061Y-65735316D01*
X62015056Y-65735308D01*
X61880979Y-65557761D01*
X61716562Y-65407876D01*
X61716560Y-65407874D01*
X61527404Y-65290754D01*
X61527398Y-65290752D01*
X61319940Y-65210382D01*
X61101243Y-65169500D01*
X60878757Y-65169500D01*
X60660060Y-65210382D01*
X60528864Y-65261207D01*
X60452601Y-65290752D01*
X60452595Y-65290754D01*
X60263439Y-65407874D01*
X60263437Y-65407876D01*
X60099020Y-65557761D01*
X59964943Y-65735308D01*
X59964938Y-65735316D01*
X59865775Y-65934461D01*
X59865769Y-65934476D01*
X59804885Y-66148462D01*
X59804884Y-66148464D01*
X59784357Y-66369999D01*
X58932606Y-66369999D01*
X58942531Y-65210382D01*
X58944396Y-64992442D01*
X58944395Y-64992438D01*
X58944396Y-64992426D01*
X58926427Y-64816206D01*
X58915032Y-64763210D01*
X58904072Y-64718496D01*
X58836974Y-64551066D01*
X58734302Y-64402764D01*
X58734299Y-64402760D01*
X58688360Y-64350144D01*
X58688359Y-64350143D01*
X58688355Y-64350139D01*
X58688349Y-64350132D01*
X58619121Y-64280006D01*
X58472153Y-64175432D01*
X58305601Y-64106184D01*
X58238488Y-64086752D01*
X58190749Y-64074499D01*
X58011434Y-64054978D01*
X58011429Y-64054978D01*
X39535604Y-64124472D01*
X39533309Y-64124460D01*
X34727477Y-64053555D01*
X33565793Y-64036416D01*
X33565791Y-64036416D01*
X33565784Y-64036416D01*
X33565773Y-64036417D01*
X33394551Y-64052249D01*
X33342951Y-64062663D01*
X33303145Y-64071753D01*
X33303141Y-64071754D01*
X33134460Y-64135641D01*
X32984215Y-64235468D01*
X32930723Y-64280400D01*
X32859301Y-64348263D01*
X32859297Y-64348267D01*
X32751930Y-64493210D01*
X32679513Y-64658401D01*
X32679511Y-64658408D01*
X32660863Y-64718491D01*
X32658800Y-64725137D01*
X32645638Y-64772629D01*
X32622691Y-64951550D01*
X32047302Y-102421349D01*
X32047302Y-102421352D01*
X32046557Y-102469739D01*
X32046558Y-102469740D01*
X32046556Y-102469888D01*
X32046507Y-102473669D01*
X25051241Y-102473669D01*
X25029602Y-59199998D01*
X42534532Y-59199998D01*
X42534532Y-59200000D01*
X42539028Y-59251388D01*
X42539500Y-59262196D01*
X42539500Y-59302356D01*
X42547728Y-59354302D01*
X42548783Y-59362893D01*
X42554364Y-59426687D01*
X42554365Y-59426693D01*
X42564493Y-59464492D01*
X42567190Y-59477182D01*
X42571522Y-59504533D01*
X42571525Y-59504545D01*
X42591613Y-59566370D01*
X42593456Y-59572590D01*
X42613261Y-59646497D01*
X42613263Y-59646501D01*
X42624532Y-59670670D01*
X42630078Y-59684748D01*
X42634780Y-59699217D01*
X42634783Y-59699226D01*
X42669940Y-59768226D01*
X42671836Y-59772114D01*
X42709427Y-59852726D01*
X42709430Y-59852730D01*
X42709432Y-59852734D01*
X42717562Y-59864345D01*
X42726464Y-59879161D01*
X42727713Y-59881611D01*
X42727714Y-59881612D01*
X42780567Y-59954359D01*
X42781823Y-59956120D01*
X42839954Y-60039141D01*
X43005180Y-60204367D01*
X43005202Y-60204387D01*
X43832781Y-61031966D01*
X43998389Y-61152287D01*
X44055649Y-61181462D01*
X44180780Y-61245220D01*
X44180786Y-61245222D01*
X44231147Y-61261584D01*
X44278121Y-61276847D01*
X44278122Y-61276848D01*
X44302458Y-61284755D01*
X44375465Y-61308477D01*
X44577648Y-61340500D01*
X44782351Y-61340500D01*
X58431318Y-61340500D01*
X58498357Y-61360185D01*
X58544112Y-61412989D01*
X58554056Y-61482147D01*
X58550584Y-61498435D01*
X58544884Y-61518464D01*
X58524357Y-61739999D01*
X58524357Y-61740000D01*
X58544884Y-61961535D01*
X58544885Y-61961537D01*
X58605769Y-62175523D01*
X58605775Y-62175538D01*
X58704938Y-62374683D01*
X58704943Y-62374691D01*
X58839020Y-62552238D01*
X59003437Y-62702123D01*
X59003439Y-62702125D01*
X59192595Y-62819245D01*
X59192596Y-62819245D01*
X59192599Y-62819247D01*
X59400060Y-62899618D01*
X59618757Y-62940500D01*
X59618759Y-62940500D01*
X59841241Y-62940500D01*
X59841243Y-62940500D01*
X60059940Y-62899618D01*
X60267401Y-62819247D01*
X60456562Y-62702124D01*
X60620981Y-62552236D01*
X60755058Y-62374689D01*
X60854229Y-62175528D01*
X60915115Y-61961536D01*
X60935643Y-61740000D01*
X60915115Y-61518464D01*
X60909416Y-61498434D01*
X60910002Y-61428567D01*
X60948269Y-61370109D01*
X61012066Y-61341618D01*
X61028682Y-61340500D01*
X78397351Y-61340500D01*
X78397352Y-61340500D01*
X78599535Y-61308477D01*
X78696876Y-61276848D01*
X78794219Y-61245220D01*
X78919351Y-61181462D01*
X78976611Y-61152287D01*
X79142219Y-61031966D01*
X82077070Y-58097113D01*
X82077077Y-58097108D01*
X82084137Y-58090047D01*
X82084139Y-58090047D01*
X82245047Y-57929139D01*
X82303223Y-57846051D01*
X82304413Y-57844383D01*
X82357287Y-57771611D01*
X82358524Y-57769181D01*
X82367443Y-57754336D01*
X82375568Y-57742734D01*
X82413170Y-57662093D01*
X82415042Y-57658258D01*
X82450219Y-57589219D01*
X82450220Y-57589218D01*
X82454924Y-57574738D01*
X82460473Y-57560654D01*
X82471736Y-57536503D01*
X82471736Y-57536501D01*
X82471739Y-57536496D01*
X82491541Y-57462590D01*
X82493379Y-57456388D01*
X82513477Y-57394535D01*
X82517809Y-57367178D01*
X82520504Y-57354498D01*
X82530635Y-57316692D01*
X82536215Y-57252893D01*
X82537270Y-57244307D01*
X82545500Y-57192349D01*
X82545500Y-57152196D01*
X82545972Y-57141388D01*
X82550468Y-57090000D01*
X82550468Y-57089998D01*
X82545972Y-57038609D01*
X82545500Y-57027802D01*
X82545500Y-56987650D01*
X82537270Y-56935693D01*
X82536215Y-56927099D01*
X82530635Y-56863308D01*
X82520507Y-56825510D01*
X82517810Y-56812825D01*
X82513477Y-56785465D01*
X82493375Y-56723599D01*
X82491538Y-56717395D01*
X82471740Y-56643507D01*
X82471739Y-56643504D01*
X82460464Y-56619327D01*
X82454920Y-56605250D01*
X82450220Y-56590782D01*
X82415031Y-56521720D01*
X82413155Y-56517871D01*
X82375570Y-56437270D01*
X82375567Y-56437264D01*
X82367439Y-56425656D01*
X82358532Y-56410832D01*
X82357287Y-56408389D01*
X82304440Y-56335652D01*
X82303215Y-56333935D01*
X82245047Y-56250861D01*
X82245044Y-56250858D01*
X82245042Y-56250855D01*
X82084141Y-56089954D01*
X82001120Y-56031823D01*
X81999359Y-56030567D01*
X81926612Y-55977714D01*
X81926611Y-55977713D01*
X81926603Y-55977709D01*
X81924161Y-55976464D01*
X81909345Y-55967562D01*
X81897734Y-55959432D01*
X81897730Y-55959430D01*
X81897726Y-55959427D01*
X81817114Y-55921836D01*
X81813226Y-55919940D01*
X81744226Y-55884783D01*
X81744219Y-55884780D01*
X81744218Y-55884780D01*
X81729748Y-55880078D01*
X81715670Y-55874532D01*
X81691501Y-55863263D01*
X81691497Y-55863261D01*
X81617590Y-55843456D01*
X81611370Y-55841613D01*
X81549545Y-55821525D01*
X81549533Y-55821522D01*
X81522182Y-55817190D01*
X81509492Y-55814493D01*
X81471693Y-55804365D01*
X81471687Y-55804364D01*
X81407893Y-55798783D01*
X81399302Y-55797728D01*
X81347356Y-55789500D01*
X81347352Y-55789500D01*
X81307196Y-55789500D01*
X81296390Y-55789028D01*
X81269912Y-55786711D01*
X81245001Y-55784532D01*
X81244999Y-55784532D01*
X81220087Y-55786711D01*
X81193609Y-55789028D01*
X81182804Y-55789500D01*
X81142648Y-55789500D01*
X81114644Y-55793935D01*
X81090696Y-55797728D01*
X81082109Y-55798782D01*
X81018306Y-55804365D01*
X80980511Y-55814492D01*
X80967819Y-55817190D01*
X80940467Y-55821522D01*
X80940457Y-55821524D01*
X80878593Y-55841624D01*
X80872374Y-55843466D01*
X80798504Y-55863261D01*
X80774336Y-55874530D01*
X80760258Y-55880075D01*
X80745787Y-55884777D01*
X80745785Y-55884778D01*
X80676760Y-55919947D01*
X80672874Y-55921842D01*
X80592266Y-55959432D01*
X80580650Y-55967564D01*
X80565849Y-55976458D01*
X80563393Y-55977709D01*
X80490666Y-56030548D01*
X80488906Y-56031804D01*
X80405860Y-56089953D01*
X80325407Y-56170407D01*
X80244953Y-56250861D01*
X80244950Y-56250864D01*
X77792634Y-58703181D01*
X77731311Y-58736666D01*
X77704953Y-58739500D01*
X45270047Y-58739500D01*
X45203008Y-58719815D01*
X45182366Y-58703181D01*
X44844387Y-58365202D01*
X44844367Y-58365180D01*
X44679141Y-58199954D01*
X44596120Y-58141823D01*
X44594359Y-58140567D01*
X44540096Y-58101143D01*
X44521611Y-58087713D01*
X44519161Y-58086464D01*
X44504345Y-58077562D01*
X44492734Y-58069432D01*
X44492730Y-58069430D01*
X44492726Y-58069427D01*
X44412114Y-58031836D01*
X44408226Y-58029940D01*
X44339226Y-57994783D01*
X44339219Y-57994780D01*
X44339218Y-57994780D01*
X44324748Y-57990078D01*
X44310670Y-57984532D01*
X44286501Y-57973263D01*
X44286497Y-57973261D01*
X44212590Y-57953456D01*
X44206370Y-57951613D01*
X44144545Y-57931525D01*
X44144533Y-57931522D01*
X44117182Y-57927190D01*
X44104492Y-57924493D01*
X44066693Y-57914365D01*
X44066687Y-57914364D01*
X44002893Y-57908783D01*
X43994302Y-57907728D01*
X43942356Y-57899500D01*
X43942352Y-57899500D01*
X43902196Y-57899500D01*
X43891390Y-57899028D01*
X43864912Y-57896711D01*
X43840001Y-57894532D01*
X43839999Y-57894532D01*
X43815087Y-57896711D01*
X43788609Y-57899028D01*
X43777804Y-57899500D01*
X43737648Y-57899500D01*
X43709644Y-57903935D01*
X43685696Y-57907728D01*
X43677109Y-57908782D01*
X43613306Y-57914365D01*
X43575511Y-57924492D01*
X43562819Y-57927190D01*
X43535467Y-57931522D01*
X43535457Y-57931524D01*
X43473593Y-57951624D01*
X43467374Y-57953466D01*
X43393504Y-57973261D01*
X43369336Y-57984530D01*
X43355258Y-57990075D01*
X43340787Y-57994777D01*
X43340785Y-57994778D01*
X43271760Y-58029947D01*
X43267874Y-58031842D01*
X43187266Y-58069432D01*
X43175650Y-58077564D01*
X43160849Y-58086458D01*
X43158393Y-58087709D01*
X43085666Y-58140548D01*
X43083906Y-58141804D01*
X43000856Y-58199956D01*
X42839956Y-58360856D01*
X42781804Y-58443906D01*
X42780548Y-58445666D01*
X42727709Y-58518393D01*
X42726458Y-58520849D01*
X42717564Y-58535650D01*
X42709432Y-58547266D01*
X42671842Y-58627874D01*
X42669947Y-58631760D01*
X42634778Y-58700785D01*
X42634777Y-58700787D01*
X42630075Y-58715258D01*
X42624530Y-58729336D01*
X42613261Y-58753504D01*
X42593466Y-58827374D01*
X42591624Y-58833593D01*
X42571524Y-58895457D01*
X42571522Y-58895467D01*
X42567190Y-58922819D01*
X42564492Y-58935511D01*
X42554365Y-58973306D01*
X42548782Y-59037109D01*
X42547728Y-59045696D01*
X42539500Y-59097648D01*
X42539500Y-59137802D01*
X42539028Y-59148609D01*
X42534532Y-59199998D01*
X25029602Y-59199998D01*
X25027387Y-54769998D01*
X45314532Y-54769998D01*
X45314532Y-54770001D01*
X45334364Y-54996686D01*
X45334366Y-54996697D01*
X45393258Y-55216488D01*
X45393261Y-55216497D01*
X45489431Y-55422732D01*
X45489432Y-55422734D01*
X45619954Y-55609141D01*
X45780858Y-55770045D01*
X45780861Y-55770047D01*
X45967266Y-55900568D01*
X46173504Y-55996739D01*
X46393308Y-56055635D01*
X46555230Y-56069801D01*
X46619998Y-56075468D01*
X46620000Y-56075468D01*
X46620002Y-56075468D01*
X46676673Y-56070509D01*
X46846692Y-56055635D01*
X47066496Y-55996739D01*
X47272734Y-55900568D01*
X47459139Y-55770047D01*
X47620047Y-55609139D01*
X47750568Y-55422734D01*
X47846739Y-55216496D01*
X47905635Y-54996692D01*
X47925468Y-54770000D01*
X47914094Y-54639999D01*
X58204357Y-54639999D01*
X58204357Y-54640000D01*
X58224884Y-54861535D01*
X58224885Y-54861537D01*
X58285769Y-55075523D01*
X58285775Y-55075538D01*
X58384938Y-55274683D01*
X58384943Y-55274691D01*
X58519020Y-55452238D01*
X58683437Y-55602123D01*
X58683439Y-55602125D01*
X58872595Y-55719245D01*
X58872596Y-55719245D01*
X58872599Y-55719247D01*
X59080060Y-55799618D01*
X59298757Y-55840500D01*
X59298759Y-55840500D01*
X59521241Y-55840500D01*
X59521243Y-55840500D01*
X59739940Y-55799618D01*
X59947401Y-55719247D01*
X60136562Y-55602124D01*
X60300981Y-55452236D01*
X60435058Y-55274689D01*
X60534229Y-55075528D01*
X60595115Y-54861536D01*
X60615643Y-54640000D01*
X60606240Y-54538529D01*
X60595115Y-54418464D01*
X60595114Y-54418462D01*
X60568098Y-54323511D01*
X60534229Y-54204472D01*
X60490806Y-54117267D01*
X60435061Y-54005316D01*
X60435056Y-54005308D01*
X60300979Y-53827761D01*
X60136562Y-53677876D01*
X60136560Y-53677874D01*
X59947404Y-53560754D01*
X59947398Y-53560752D01*
X59739940Y-53480382D01*
X59521243Y-53439500D01*
X59298757Y-53439500D01*
X59080060Y-53480382D01*
X59017144Y-53504756D01*
X58872601Y-53560752D01*
X58872595Y-53560754D01*
X58683439Y-53677874D01*
X58683437Y-53677876D01*
X58519020Y-53827761D01*
X58384943Y-54005308D01*
X58384938Y-54005316D01*
X58285775Y-54204461D01*
X58285769Y-54204476D01*
X58224885Y-54418462D01*
X58224884Y-54418464D01*
X58204357Y-54639999D01*
X47914094Y-54639999D01*
X47905635Y-54543308D01*
X47846739Y-54323504D01*
X47750568Y-54117266D01*
X47620047Y-53930861D01*
X47620045Y-53930858D01*
X47459141Y-53769954D01*
X47272734Y-53639432D01*
X47272732Y-53639431D01*
X47066497Y-53543261D01*
X47066488Y-53543258D01*
X46846697Y-53484366D01*
X46846693Y-53484365D01*
X46846692Y-53484365D01*
X46846691Y-53484364D01*
X46846686Y-53484364D01*
X46620002Y-53464532D01*
X46619998Y-53464532D01*
X46393313Y-53484364D01*
X46393302Y-53484366D01*
X46173511Y-53543258D01*
X46173502Y-53543261D01*
X45967267Y-53639431D01*
X45967265Y-53639432D01*
X45780858Y-53769954D01*
X45619954Y-53930858D01*
X45489432Y-54117265D01*
X45489431Y-54117267D01*
X45393261Y-54323502D01*
X45393258Y-54323511D01*
X45334366Y-54543302D01*
X45334364Y-54543313D01*
X45314532Y-54769998D01*
X25027387Y-54769998D01*
X25016730Y-33458395D01*
X32984500Y-33458395D01*
X32984500Y-34761604D01*
X32999699Y-34915932D01*
X33005712Y-34935753D01*
X33059768Y-35113954D01*
X33157315Y-35296450D01*
X33157317Y-35296452D01*
X33288586Y-35456406D01*
X33288588Y-35456407D01*
X33288590Y-35456410D01*
X33288687Y-35456489D01*
X33288725Y-35456545D01*
X33292893Y-35460713D01*
X33292102Y-35461503D01*
X33328024Y-35514232D01*
X33329899Y-35584076D01*
X33310345Y-35625231D01*
X33223368Y-35744945D01*
X33105422Y-35976423D01*
X33025140Y-36223506D01*
X32984500Y-36480097D01*
X32984500Y-36739902D01*
X33025140Y-36996493D01*
X33105422Y-37243576D01*
X33174869Y-37379871D01*
X33208618Y-37446107D01*
X33223368Y-37475054D01*
X33283969Y-37558464D01*
X33376069Y-37685229D01*
X33559771Y-37868931D01*
X33769949Y-38021634D01*
X33917293Y-38096710D01*
X34001423Y-38139577D01*
X34001425Y-38139577D01*
X34001428Y-38139579D01*
X34248507Y-38219860D01*
X34380706Y-38240797D01*
X34505098Y-38260500D01*
X34505103Y-38260500D01*
X35014902Y-38260500D01*
X35128298Y-38242539D01*
X35271493Y-38219860D01*
X35518572Y-38139579D01*
X35750051Y-38021634D01*
X35853025Y-37946819D01*
X35870419Y-37934182D01*
X35936225Y-37910702D01*
X35943304Y-37910500D01*
X36271883Y-37910500D01*
X36338922Y-37930185D01*
X36359564Y-37946819D01*
X41934101Y-43521356D01*
X41967586Y-43582679D01*
X41962602Y-43652371D01*
X41934101Y-43696718D01*
X37517638Y-48113181D01*
X37456315Y-48146666D01*
X37429957Y-48149500D01*
X36562592Y-48149500D01*
X36495553Y-48129815D01*
X36449798Y-48077011D01*
X36439854Y-48007853D01*
X36453234Y-47967046D01*
X36453989Y-47965633D01*
X36460232Y-47953954D01*
X36520300Y-47755934D01*
X36535500Y-47601608D01*
X36535500Y-46298392D01*
X36520300Y-46144066D01*
X36460232Y-45946046D01*
X36362685Y-45763550D01*
X36294079Y-45679953D01*
X36231410Y-45603589D01*
X36071452Y-45472317D01*
X36071453Y-45472317D01*
X36071450Y-45472315D01*
X35888954Y-45374768D01*
X35690934Y-45314700D01*
X35690932Y-45314699D01*
X35690934Y-45314699D01*
X35571805Y-45302966D01*
X35536608Y-45299500D01*
X33983392Y-45299500D01*
X33945298Y-45303251D01*
X33829067Y-45314699D01*
X33631043Y-45374769D01*
X33520898Y-45433643D01*
X33448550Y-45472315D01*
X33448548Y-45472316D01*
X33448547Y-45472317D01*
X33288589Y-45603589D01*
X33157317Y-45763547D01*
X33059769Y-45946043D01*
X32999699Y-46144067D01*
X32990891Y-46233502D01*
X32984500Y-46298392D01*
X32984500Y-47601608D01*
X32986175Y-47618610D01*
X32999699Y-47755932D01*
X33016273Y-47810568D01*
X33059768Y-47953954D01*
X33157315Y-48136450D01*
X33157317Y-48136452D01*
X33288586Y-48296406D01*
X33288588Y-48296407D01*
X33288590Y-48296410D01*
X33288687Y-48296489D01*
X33288725Y-48296545D01*
X33292893Y-48300713D01*
X33292102Y-48301503D01*
X33328024Y-48354232D01*
X33329899Y-48424076D01*
X33310345Y-48465231D01*
X33223368Y-48584945D01*
X33105422Y-48816423D01*
X33025140Y-49063506D01*
X32984500Y-49320097D01*
X32984500Y-49579902D01*
X33025140Y-49836493D01*
X33105422Y-50083576D01*
X33136989Y-50145528D01*
X33208941Y-50286741D01*
X33223368Y-50315054D01*
X33315573Y-50441963D01*
X33376069Y-50525229D01*
X33559771Y-50708931D01*
X33769949Y-50861634D01*
X33897512Y-50926631D01*
X34001423Y-50979577D01*
X34001425Y-50979577D01*
X34001428Y-50979579D01*
X34248507Y-51059860D01*
X34380706Y-51080797D01*
X34505098Y-51100500D01*
X34505103Y-51100500D01*
X35014902Y-51100500D01*
X35128298Y-51082539D01*
X35271493Y-51059860D01*
X35518572Y-50979579D01*
X35750051Y-50861634D01*
X35832806Y-50801508D01*
X35870419Y-50774182D01*
X35936225Y-50750702D01*
X35943304Y-50750500D01*
X38122355Y-50750500D01*
X38122356Y-50750500D01*
X38324539Y-50718477D01*
X38421880Y-50686848D01*
X38519223Y-50655220D01*
X38610418Y-50608753D01*
X38701615Y-50562287D01*
X38867223Y-50441966D01*
X42629191Y-46679998D01*
X47234532Y-46679998D01*
X47234532Y-46680001D01*
X47254364Y-46906686D01*
X47254366Y-46906697D01*
X47313258Y-47126488D01*
X47313261Y-47126497D01*
X47409431Y-47332732D01*
X47409432Y-47332734D01*
X47539954Y-47519141D01*
X47700858Y-47680045D01*
X47700861Y-47680047D01*
X47887266Y-47810568D01*
X48093504Y-47906739D01*
X48313308Y-47965635D01*
X48475230Y-47979801D01*
X48539998Y-47985468D01*
X48540000Y-47985468D01*
X48540002Y-47985468D01*
X48596673Y-47980509D01*
X48766692Y-47965635D01*
X48959651Y-47913932D01*
X49029499Y-47915595D01*
X49087362Y-47954757D01*
X49114866Y-48018986D01*
X49103280Y-48087888D01*
X49079425Y-48121388D01*
X48979951Y-48220862D01*
X48849432Y-48407265D01*
X48849431Y-48407267D01*
X48753261Y-48613502D01*
X48753258Y-48613511D01*
X48694366Y-48833302D01*
X48694364Y-48833313D01*
X48674532Y-49059998D01*
X48674532Y-49060001D01*
X48694364Y-49286686D01*
X48694366Y-49286697D01*
X48753258Y-49506488D01*
X48753261Y-49506497D01*
X48849431Y-49712732D01*
X48849432Y-49712734D01*
X48979954Y-49899141D01*
X49140858Y-50060045D01*
X49140861Y-50060047D01*
X49327266Y-50190568D01*
X49533504Y-50286739D01*
X49753308Y-50345635D01*
X49915230Y-50359801D01*
X49979998Y-50365468D01*
X49980000Y-50365468D01*
X49980002Y-50365468D01*
X50036673Y-50360509D01*
X50206692Y-50345635D01*
X50426496Y-50286739D01*
X50632734Y-50190568D01*
X50819139Y-50060047D01*
X50980047Y-49899139D01*
X51110568Y-49712734D01*
X51111843Y-49709999D01*
X70914357Y-49709999D01*
X70914357Y-49710000D01*
X70934884Y-49931535D01*
X70934885Y-49931537D01*
X70995769Y-50145523D01*
X70995775Y-50145538D01*
X71094938Y-50344683D01*
X71094943Y-50344691D01*
X71229020Y-50522238D01*
X71393437Y-50672123D01*
X71393439Y-50672125D01*
X71582595Y-50789245D01*
X71582596Y-50789245D01*
X71582599Y-50789247D01*
X71790060Y-50869618D01*
X72008757Y-50910500D01*
X72008759Y-50910500D01*
X72231241Y-50910500D01*
X72231243Y-50910500D01*
X72449940Y-50869618D01*
X72657401Y-50789247D01*
X72846562Y-50672124D01*
X73010981Y-50522236D01*
X73145058Y-50344689D01*
X73244229Y-50145528D01*
X73305115Y-49931536D01*
X73325643Y-49710000D01*
X73305115Y-49488464D01*
X73244229Y-49274472D01*
X73244224Y-49274461D01*
X73145061Y-49075316D01*
X73145056Y-49075308D01*
X73010979Y-48897761D01*
X72846562Y-48747876D01*
X72846560Y-48747874D01*
X72657404Y-48630754D01*
X72657398Y-48630752D01*
X72449940Y-48550382D01*
X72231243Y-48509500D01*
X72008757Y-48509500D01*
X71790060Y-48550382D01*
X71658864Y-48601207D01*
X71582601Y-48630752D01*
X71582595Y-48630754D01*
X71393439Y-48747874D01*
X71393437Y-48747876D01*
X71229020Y-48897761D01*
X71094943Y-49075308D01*
X71094938Y-49075316D01*
X70995775Y-49274461D01*
X70995769Y-49274476D01*
X70934885Y-49488462D01*
X70934884Y-49488464D01*
X70914357Y-49709999D01*
X51111843Y-49709999D01*
X51206739Y-49506496D01*
X51265635Y-49286692D01*
X51284128Y-49075316D01*
X51285468Y-49060001D01*
X51285468Y-49059998D01*
X51265635Y-48833313D01*
X51265635Y-48833308D01*
X51206739Y-48613504D01*
X51110568Y-48407266D01*
X50980047Y-48220861D01*
X50980045Y-48220858D01*
X50819141Y-48059954D01*
X50632734Y-47929432D01*
X50632732Y-47929431D01*
X50426497Y-47833261D01*
X50426488Y-47833258D01*
X50206697Y-47774366D01*
X50206693Y-47774365D01*
X50206692Y-47774365D01*
X50206691Y-47774364D01*
X50206686Y-47774364D01*
X49980002Y-47754532D01*
X49979998Y-47754532D01*
X49753313Y-47774364D01*
X49753302Y-47774366D01*
X49560349Y-47826067D01*
X49490499Y-47824404D01*
X49432637Y-47785241D01*
X49405133Y-47721012D01*
X49416720Y-47652110D01*
X49440572Y-47618613D01*
X49540047Y-47519139D01*
X49670568Y-47332734D01*
X49766739Y-47126496D01*
X49825635Y-46906692D01*
X49845468Y-46680000D01*
X49825635Y-46453308D01*
X49766739Y-46233504D01*
X49670568Y-46027266D01*
X49540047Y-45840861D01*
X49540045Y-45840858D01*
X49379141Y-45679954D01*
X49192734Y-45549432D01*
X49192732Y-45549431D01*
X48986497Y-45453261D01*
X48986488Y-45453258D01*
X48766697Y-45394366D01*
X48766693Y-45394365D01*
X48766692Y-45394365D01*
X48766691Y-45394364D01*
X48766686Y-45394364D01*
X48540002Y-45374532D01*
X48539998Y-45374532D01*
X48313313Y-45394364D01*
X48313302Y-45394366D01*
X48093511Y-45453258D01*
X48093502Y-45453261D01*
X47887267Y-45549431D01*
X47887265Y-45549432D01*
X47700858Y-45679954D01*
X47539954Y-45840858D01*
X47409432Y-46027265D01*
X47409431Y-46027267D01*
X47313261Y-46233502D01*
X47313258Y-46233511D01*
X47254366Y-46453302D01*
X47254364Y-46453313D01*
X47234532Y-46679998D01*
X42629191Y-46679998D01*
X44852931Y-44456258D01*
X44852932Y-44456255D01*
X44857723Y-44451465D01*
X44857739Y-44451445D01*
X44861012Y-44448174D01*
X44919090Y-44365229D01*
X44920318Y-44363505D01*
X44973252Y-44290650D01*
X44974497Y-44288204D01*
X44983416Y-44273359D01*
X44991533Y-44261769D01*
X45029110Y-44181183D01*
X45030970Y-44177368D01*
X45066185Y-44108258D01*
X45070893Y-44093764D01*
X45076442Y-44079680D01*
X45087703Y-44055534D01*
X45087704Y-44055531D01*
X45107507Y-43981621D01*
X45109337Y-43975446D01*
X45129302Y-43914004D01*
X45129438Y-43913588D01*
X45129443Y-43913569D01*
X45133775Y-43886215D01*
X45136471Y-43873527D01*
X45146600Y-43835727D01*
X45152179Y-43771940D01*
X45153234Y-43763351D01*
X45161465Y-43711389D01*
X45161465Y-43671231D01*
X45161937Y-43660423D01*
X45162642Y-43652371D01*
X45166433Y-43609035D01*
X45161937Y-43557644D01*
X45161465Y-43546837D01*
X45161465Y-43506684D01*
X45153235Y-43454726D01*
X45152180Y-43446133D01*
X45146600Y-43382345D01*
X45146600Y-43382343D01*
X45144724Y-43375341D01*
X45140500Y-43343252D01*
X45140500Y-41939998D01*
X47254532Y-41939998D01*
X47254532Y-41940001D01*
X47274364Y-42166686D01*
X47274366Y-42166697D01*
X47333258Y-42386488D01*
X47333261Y-42386497D01*
X47429431Y-42592732D01*
X47429432Y-42592734D01*
X47559954Y-42779141D01*
X47720858Y-42940045D01*
X47720861Y-42940047D01*
X47907266Y-43070568D01*
X48113504Y-43166739D01*
X48333308Y-43225635D01*
X48495230Y-43239801D01*
X48559998Y-43245468D01*
X48560000Y-43245468D01*
X48560002Y-43245468D01*
X48616673Y-43240509D01*
X48786692Y-43225635D01*
X49006496Y-43166739D01*
X49212734Y-43070568D01*
X49399139Y-42940047D01*
X49560047Y-42779139D01*
X49690568Y-42592734D01*
X49786739Y-42386496D01*
X49845635Y-42166692D01*
X49865468Y-41940000D01*
X49864201Y-41925523D01*
X49848426Y-41745214D01*
X49845635Y-41713308D01*
X49786739Y-41493504D01*
X49690568Y-41287266D01*
X49560047Y-41100861D01*
X49560045Y-41100858D01*
X49399141Y-40939954D01*
X49212734Y-40809432D01*
X49212732Y-40809431D01*
X49171060Y-40789999D01*
X61714357Y-40789999D01*
X61714357Y-40790000D01*
X61734884Y-41011535D01*
X61734885Y-41011537D01*
X61795769Y-41225523D01*
X61795775Y-41225538D01*
X61894938Y-41424683D01*
X61894943Y-41424691D01*
X62029020Y-41602238D01*
X62193437Y-41752123D01*
X62193439Y-41752125D01*
X62382595Y-41869245D01*
X62382596Y-41869245D01*
X62382599Y-41869247D01*
X62590060Y-41949618D01*
X62808757Y-41990500D01*
X62808759Y-41990500D01*
X63031241Y-41990500D01*
X63031243Y-41990500D01*
X63249940Y-41949618D01*
X63457401Y-41869247D01*
X63646562Y-41752124D01*
X63810981Y-41602236D01*
X63812841Y-41599771D01*
X63814030Y-41598889D01*
X63814837Y-41598005D01*
X63815010Y-41598162D01*
X63868948Y-41558138D01*
X63911794Y-41550500D01*
X68828556Y-41550500D01*
X68893833Y-41569073D01*
X68913215Y-41581074D01*
X68913217Y-41581075D01*
X68913219Y-41581076D01*
X69097466Y-41652454D01*
X69152866Y-41695025D01*
X69171937Y-41734144D01*
X69226390Y-41925525D01*
X69226395Y-41925538D01*
X69325558Y-42124683D01*
X69325563Y-42124691D01*
X69459640Y-42302238D01*
X69624057Y-42452123D01*
X69624059Y-42452125D01*
X69813215Y-42569245D01*
X69813216Y-42569245D01*
X69813219Y-42569247D01*
X70020680Y-42649618D01*
X70239377Y-42690500D01*
X70239379Y-42690500D01*
X70461861Y-42690500D01*
X70461863Y-42690500D01*
X70680560Y-42649618D01*
X70888021Y-42569247D01*
X71077182Y-42452124D01*
X71241601Y-42302236D01*
X71375678Y-42124689D01*
X71474849Y-41925528D01*
X71535735Y-41711536D01*
X71556263Y-41490000D01*
X71555800Y-41484999D01*
X75249357Y-41484999D01*
X75249357Y-41485000D01*
X75269884Y-41706535D01*
X75269885Y-41706537D01*
X75330769Y-41920523D01*
X75330775Y-41920538D01*
X75429938Y-42119683D01*
X75429943Y-42119691D01*
X75564020Y-42297238D01*
X75728437Y-42447123D01*
X75728439Y-42447125D01*
X75917595Y-42564245D01*
X75917596Y-42564245D01*
X75917599Y-42564247D01*
X76125060Y-42644618D01*
X76343757Y-42685500D01*
X76343759Y-42685500D01*
X76566241Y-42685500D01*
X76566243Y-42685500D01*
X76784940Y-42644618D01*
X76992401Y-42564247D01*
X77181562Y-42447124D01*
X77322339Y-42318789D01*
X77345979Y-42297238D01*
X77444568Y-42166686D01*
X77480058Y-42119689D01*
X77579229Y-41920528D01*
X77640115Y-41706536D01*
X77660643Y-41485000D01*
X77655054Y-41424689D01*
X77640115Y-41263464D01*
X77640114Y-41263462D01*
X77629319Y-41225523D01*
X77579229Y-41049472D01*
X77577891Y-41046784D01*
X77480061Y-40850316D01*
X77480056Y-40850308D01*
X77345979Y-40672761D01*
X77181562Y-40522876D01*
X77181560Y-40522874D01*
X76992404Y-40405754D01*
X76992398Y-40405752D01*
X76784940Y-40325382D01*
X76566243Y-40284500D01*
X76343757Y-40284500D01*
X76125060Y-40325382D01*
X76049960Y-40354476D01*
X75917601Y-40405752D01*
X75917595Y-40405754D01*
X75728439Y-40522874D01*
X75728437Y-40522876D01*
X75564020Y-40672761D01*
X75429943Y-40850308D01*
X75429938Y-40850316D01*
X75330775Y-41049461D01*
X75330769Y-41049476D01*
X75269885Y-41263462D01*
X75269884Y-41263464D01*
X75249357Y-41484999D01*
X71555800Y-41484999D01*
X71535735Y-41268464D01*
X71474849Y-41054472D01*
X71474844Y-41054461D01*
X71375681Y-40855316D01*
X71375676Y-40855308D01*
X71241599Y-40677761D01*
X71085804Y-40535735D01*
X71049522Y-40476024D01*
X71051283Y-40406176D01*
X71081659Y-40356419D01*
X71961261Y-39476819D01*
X72022584Y-39443334D01*
X72048942Y-39440500D01*
X79221830Y-39440500D01*
X79287108Y-39459073D01*
X79290604Y-39461238D01*
X79290608Y-39461240D01*
X79498069Y-39541611D01*
X79716766Y-39582493D01*
X79716768Y-39582493D01*
X79939250Y-39582493D01*
X79939252Y-39582493D01*
X80157949Y-39541611D01*
X80365410Y-39461240D01*
X80498115Y-39379073D01*
X80563392Y-39360500D01*
X88173466Y-39360500D01*
X88173467Y-39360499D01*
X88376420Y-39320130D01*
X88567598Y-39240941D01*
X88602077Y-39217903D01*
X88739655Y-39125977D01*
X88885977Y-38979655D01*
X88885978Y-38979653D01*
X88893044Y-38972587D01*
X88893047Y-38972583D01*
X89495033Y-38370596D01*
X89537915Y-38342654D01*
X89727401Y-38269247D01*
X89916562Y-38152124D01*
X90080981Y-38002236D01*
X90215058Y-37824689D01*
X90267155Y-37720063D01*
X90290468Y-37687661D01*
X92896069Y-35082060D01*
X92957390Y-35048577D01*
X93027082Y-35053561D01*
X93071429Y-35082062D01*
X93102380Y-35113013D01*
X93102402Y-35113033D01*
X97496808Y-39507439D01*
X97530293Y-39568762D01*
X97525309Y-39638454D01*
X97483437Y-39694387D01*
X97417973Y-39718804D01*
X97389733Y-39717594D01*
X97387188Y-39717191D01*
X97374491Y-39714493D01*
X97336692Y-39704365D01*
X97336691Y-39704364D01*
X97336688Y-39704364D01*
X97272891Y-39698783D01*
X97264302Y-39697728D01*
X97212351Y-39689500D01*
X97172196Y-39689500D01*
X97161390Y-39689028D01*
X97134912Y-39686711D01*
X97110001Y-39684532D01*
X97109999Y-39684532D01*
X97085087Y-39686711D01*
X97058609Y-39689028D01*
X97047804Y-39689500D01*
X97007648Y-39689500D01*
X96981893Y-39693579D01*
X96955696Y-39697728D01*
X96947109Y-39698782D01*
X96883306Y-39704365D01*
X96845511Y-39714492D01*
X96832819Y-39717190D01*
X96805467Y-39721522D01*
X96805457Y-39721524D01*
X96743593Y-39741624D01*
X96737374Y-39743466D01*
X96663504Y-39763261D01*
X96639336Y-39774530D01*
X96625258Y-39780075D01*
X96610787Y-39784777D01*
X96610785Y-39784778D01*
X96541760Y-39819947D01*
X96537874Y-39821842D01*
X96457266Y-39859432D01*
X96445650Y-39867564D01*
X96430849Y-39876458D01*
X96428393Y-39877709D01*
X96355666Y-39930548D01*
X96353906Y-39931804D01*
X96270860Y-39989953D01*
X96190407Y-40070407D01*
X96109953Y-40150861D01*
X96109950Y-40150864D01*
X95725322Y-40535491D01*
X95663999Y-40568976D01*
X95594307Y-40563992D01*
X95554103Y-40539447D01*
X95486562Y-40477876D01*
X95486560Y-40477874D01*
X95297404Y-40360754D01*
X95297398Y-40360752D01*
X95089940Y-40280382D01*
X94871243Y-40239500D01*
X94648757Y-40239500D01*
X94430060Y-40280382D01*
X94357766Y-40308389D01*
X94222601Y-40360752D01*
X94222595Y-40360754D01*
X94033439Y-40477874D01*
X94033437Y-40477876D01*
X93869020Y-40627761D01*
X93734943Y-40805308D01*
X93734938Y-40805316D01*
X93635775Y-41004461D01*
X93635769Y-41004476D01*
X93574885Y-41218462D01*
X93574884Y-41218464D01*
X93554357Y-41439999D01*
X93554357Y-41440000D01*
X93574884Y-41661535D01*
X93574885Y-41661537D01*
X93635769Y-41875523D01*
X93635775Y-41875538D01*
X93734938Y-42074683D01*
X93734943Y-42074691D01*
X93864038Y-42245640D01*
X93888730Y-42311002D01*
X93874165Y-42379336D01*
X93852765Y-42408048D01*
X85409473Y-50851342D01*
X85348150Y-50884827D01*
X85321792Y-50887661D01*
X80717196Y-50887661D01*
X80706390Y-50887189D01*
X80679392Y-50884827D01*
X80655001Y-50882693D01*
X80654999Y-50882693D01*
X80630608Y-50884827D01*
X80603609Y-50887189D01*
X80592804Y-50887661D01*
X80552644Y-50887661D01*
X80500697Y-50895889D01*
X80492106Y-50896944D01*
X80428313Y-50902525D01*
X80428308Y-50902525D01*
X80428308Y-50902526D01*
X80398547Y-50910500D01*
X80390511Y-50912653D01*
X80377824Y-50915350D01*
X80350463Y-50919684D01*
X80350459Y-50919685D01*
X80288627Y-50939776D01*
X80282404Y-50941620D01*
X80208504Y-50961422D01*
X80208503Y-50961422D01*
X80184338Y-50972690D01*
X80170265Y-50978234D01*
X80155774Y-50982943D01*
X80086769Y-51018103D01*
X80082882Y-51019999D01*
X80002262Y-51057594D01*
X79990651Y-51065724D01*
X79975847Y-51074621D01*
X79973397Y-51075869D01*
X79973394Y-51075871D01*
X79900696Y-51128687D01*
X79898939Y-51129940D01*
X79815859Y-51188115D01*
X79654954Y-51349020D01*
X79596779Y-51432100D01*
X79595526Y-51433857D01*
X79542710Y-51506555D01*
X79542708Y-51506558D01*
X79541460Y-51509008D01*
X79532563Y-51523812D01*
X79524433Y-51535423D01*
X79486838Y-51616043D01*
X79484942Y-51619930D01*
X79449782Y-51688935D01*
X79445073Y-51703426D01*
X79439529Y-51717499D01*
X79428261Y-51741664D01*
X79428261Y-51741665D01*
X79408459Y-51815565D01*
X79406615Y-51821788D01*
X79386524Y-51883620D01*
X79386523Y-51883624D01*
X79382189Y-51910985D01*
X79379492Y-51923672D01*
X79369366Y-51961465D01*
X79369364Y-51961474D01*
X79363783Y-52025267D01*
X79362728Y-52033858D01*
X79354500Y-52085804D01*
X79354500Y-52125963D01*
X79354028Y-52136770D01*
X79349532Y-52188159D01*
X79349532Y-52188161D01*
X79354028Y-52239549D01*
X79354500Y-52250357D01*
X79354500Y-52290512D01*
X79362728Y-52342462D01*
X79363783Y-52351052D01*
X79369364Y-52414847D01*
X79369367Y-52414860D01*
X79379492Y-52452649D01*
X79382190Y-52465342D01*
X79386521Y-52492686D01*
X79386522Y-52492691D01*
X79406617Y-52554539D01*
X79408460Y-52560761D01*
X79428260Y-52634655D01*
X79439531Y-52658828D01*
X79445077Y-52672908D01*
X79449777Y-52687373D01*
X79449781Y-52687382D01*
X79484947Y-52756399D01*
X79486844Y-52760289D01*
X79524432Y-52840895D01*
X79532563Y-52852508D01*
X79541469Y-52867330D01*
X79542714Y-52869773D01*
X79542714Y-52869774D01*
X79595536Y-52942477D01*
X79596793Y-52944239D01*
X79654953Y-53027301D01*
X79815858Y-53188206D01*
X79898920Y-53246366D01*
X79900682Y-53247623D01*
X79973388Y-53300447D01*
X79973391Y-53300449D01*
X79975818Y-53301685D01*
X79990652Y-53310597D01*
X80002266Y-53318729D01*
X80082858Y-53356310D01*
X80086748Y-53358207D01*
X80155781Y-53393381D01*
X80170261Y-53398085D01*
X80184323Y-53403624D01*
X80208504Y-53414900D01*
X80208510Y-53414901D01*
X80208513Y-53414903D01*
X80282386Y-53434696D01*
X80288609Y-53436539D01*
X80350466Y-53456638D01*
X80377822Y-53460970D01*
X80390498Y-53463664D01*
X80428308Y-53473796D01*
X80492103Y-53479376D01*
X80500690Y-53480430D01*
X80552648Y-53488661D01*
X80592804Y-53488661D01*
X80603609Y-53489132D01*
X80630087Y-53491449D01*
X80654999Y-53493629D01*
X80655000Y-53493629D01*
X80655001Y-53493629D01*
X80679912Y-53491449D01*
X80706390Y-53489132D01*
X80717196Y-53488661D01*
X86014190Y-53488661D01*
X86014191Y-53488661D01*
X86216374Y-53456638D01*
X86372402Y-53405941D01*
X86411058Y-53393381D01*
X86502253Y-53346914D01*
X86593450Y-53300448D01*
X86759058Y-53180127D01*
X97942070Y-41997113D01*
X97942077Y-41997108D01*
X97949137Y-41990047D01*
X97949139Y-41990047D01*
X98110047Y-41829139D01*
X98168223Y-41746051D01*
X98169413Y-41744383D01*
X98200184Y-41702031D01*
X98255513Y-41659368D01*
X98325127Y-41653390D01*
X98386921Y-41685997D01*
X98421278Y-41746836D01*
X98424500Y-41774920D01*
X98424500Y-46379740D01*
X98411500Y-46435012D01*
X98350775Y-46556961D01*
X98350769Y-46556976D01*
X98289885Y-46770962D01*
X98289884Y-46770964D01*
X98269357Y-46992499D01*
X98269357Y-46992500D01*
X98289884Y-47214033D01*
X98290545Y-47217565D01*
X98290371Y-47219282D01*
X98290414Y-47219744D01*
X98290323Y-47219752D01*
X98283513Y-47287080D01*
X98256337Y-47328030D01*
X96686607Y-48897761D01*
X95167304Y-50417064D01*
X95167301Y-50417067D01*
X95094140Y-50490228D01*
X95020979Y-50563388D01*
X94906014Y-50735447D01*
X94826826Y-50926623D01*
X94826824Y-50926631D01*
X94786456Y-51129574D01*
X94786456Y-51862240D01*
X94773456Y-51917512D01*
X94712731Y-52039461D01*
X94712725Y-52039476D01*
X94651841Y-52253462D01*
X94651840Y-52253464D01*
X94631313Y-52474999D01*
X94631313Y-52475000D01*
X94651840Y-52696535D01*
X94651841Y-52696537D01*
X94712725Y-52910523D01*
X94712726Y-52910525D01*
X94712727Y-52910528D01*
X94770874Y-53027301D01*
X94773456Y-53032486D01*
X94786456Y-53087758D01*
X94786456Y-58460425D01*
X94826824Y-58663368D01*
X94826826Y-58663376D01*
X94897332Y-58833593D01*
X94906015Y-58854554D01*
X95020979Y-59026611D01*
X95167301Y-59172933D01*
X95167302Y-59172933D01*
X95174369Y-59180000D01*
X95174368Y-59180000D01*
X95174372Y-59180003D01*
X98033217Y-62038849D01*
X98066702Y-62100172D01*
X98069007Y-62115087D01*
X98072385Y-62151536D01*
X98072385Y-62151537D01*
X98133269Y-62365523D01*
X98133275Y-62365538D01*
X98232438Y-62564683D01*
X98232443Y-62564691D01*
X98366520Y-62742238D01*
X98530937Y-62892123D01*
X98530939Y-62892125D01*
X98720095Y-63009245D01*
X98720096Y-63009245D01*
X98720099Y-63009247D01*
X98927560Y-63089618D01*
X99146257Y-63130500D01*
X99146259Y-63130500D01*
X99368741Y-63130500D01*
X99368743Y-63130500D01*
X99587440Y-63089618D01*
X99794901Y-63009247D01*
X99984062Y-62892124D01*
X100148481Y-62742236D01*
X100282558Y-62564689D01*
X100381729Y-62365528D01*
X100442615Y-62151536D01*
X100463143Y-61930000D01*
X100462707Y-61925300D01*
X100442615Y-61708464D01*
X100442614Y-61708462D01*
X100382856Y-61498435D01*
X100381729Y-61494472D01*
X100375592Y-61482147D01*
X100282561Y-61295316D01*
X100282556Y-61295308D01*
X100148479Y-61117761D01*
X99984063Y-60967877D01*
X99984062Y-60967876D01*
X99863542Y-60893253D01*
X99841139Y-60875507D01*
X98604027Y-59638395D01*
X113499500Y-59638395D01*
X113499500Y-60941604D01*
X113514699Y-61095932D01*
X113540644Y-61181460D01*
X113574768Y-61293954D01*
X113672315Y-61476450D01*
X113690358Y-61498435D01*
X113803589Y-61636410D01*
X113900209Y-61715702D01*
X113963550Y-61767685D01*
X114146046Y-61865232D01*
X114344066Y-61925300D01*
X114344065Y-61925300D01*
X114382647Y-61929100D01*
X114498392Y-61940500D01*
X114498395Y-61940500D01*
X116101605Y-61940500D01*
X116101608Y-61940500D01*
X116255934Y-61925300D01*
X116453954Y-61865232D01*
X116636450Y-61767685D01*
X116796410Y-61636410D01*
X116927685Y-61476450D01*
X117025232Y-61293954D01*
X117085300Y-61095934D01*
X117100500Y-60941608D01*
X117100500Y-59638392D01*
X117085300Y-59484066D01*
X117025232Y-59286046D01*
X116927685Y-59103550D01*
X116820799Y-58973308D01*
X116796410Y-58943589D01*
X116658640Y-58830526D01*
X116636450Y-58812315D01*
X116453954Y-58714768D01*
X116255934Y-58654700D01*
X116255932Y-58654699D01*
X116255934Y-58654699D01*
X116136805Y-58642966D01*
X116101608Y-58639500D01*
X114498392Y-58639500D01*
X114460298Y-58643251D01*
X114344067Y-58654699D01*
X114146043Y-58714769D01*
X114035898Y-58773643D01*
X113963550Y-58812315D01*
X113963548Y-58812316D01*
X113963547Y-58812317D01*
X113803589Y-58943589D01*
X113672317Y-59103547D01*
X113672315Y-59103550D01*
X113648230Y-59148609D01*
X113574769Y-59286043D01*
X113514699Y-59484067D01*
X113499500Y-59638395D01*
X98604027Y-59638395D01*
X96923775Y-57958143D01*
X96890290Y-57896820D01*
X96887456Y-57870462D01*
X96887456Y-55613690D01*
X96907141Y-55546651D01*
X96959945Y-55500896D01*
X96988665Y-55491802D01*
X97069940Y-55476610D01*
X97277401Y-55396239D01*
X97466562Y-55279116D01*
X97630981Y-55129228D01*
X97765058Y-54951681D01*
X97864229Y-54752520D01*
X97925115Y-54538528D01*
X97945643Y-54316992D01*
X97925115Y-54095456D01*
X97864229Y-53881464D01*
X97864224Y-53881453D01*
X97765061Y-53682308D01*
X97765056Y-53682300D01*
X97630979Y-53504753D01*
X97466562Y-53354868D01*
X97466560Y-53354866D01*
X97277404Y-53237746D01*
X97277398Y-53237744D01*
X97069940Y-53157374D01*
X97069935Y-53157373D01*
X97069929Y-53157371D01*
X97019403Y-53147926D01*
X96957122Y-53116258D01*
X96921850Y-53055945D01*
X96924784Y-52986137D01*
X96931185Y-52970774D01*
X96961185Y-52910528D01*
X97022071Y-52696536D01*
X97042599Y-52475000D01*
X97029597Y-52334689D01*
X97022071Y-52253464D01*
X97022070Y-52253462D01*
X97018111Y-52239549D01*
X96961185Y-52039472D01*
X96956258Y-52029578D01*
X96900456Y-51917512D01*
X96887456Y-51862240D01*
X96887456Y-51719536D01*
X96893193Y-51699999D01*
X106504357Y-51699999D01*
X106504357Y-51700000D01*
X106524884Y-51921535D01*
X106524885Y-51921537D01*
X106585769Y-52135523D01*
X106585775Y-52135538D01*
X106684938Y-52334683D01*
X106684943Y-52334691D01*
X106819020Y-52512238D01*
X106872248Y-52560761D01*
X106979822Y-52658828D01*
X106983437Y-52662123D01*
X106983439Y-52662125D01*
X107172595Y-52779245D01*
X107172596Y-52779245D01*
X107172599Y-52779247D01*
X107380060Y-52859618D01*
X107598757Y-52900500D01*
X107598759Y-52900500D01*
X107821241Y-52900500D01*
X107821243Y-52900500D01*
X108039940Y-52859618D01*
X108247401Y-52779247D01*
X108436562Y-52662124D01*
X108600981Y-52512236D01*
X108735058Y-52334689D01*
X108834229Y-52135528D01*
X108895115Y-51921536D01*
X108915643Y-51700000D01*
X108895115Y-51478464D01*
X108834229Y-51264472D01*
X108834224Y-51264461D01*
X108735061Y-51065316D01*
X108735056Y-51065308D01*
X108600979Y-50887761D01*
X108436562Y-50737876D01*
X108436560Y-50737874D01*
X108247404Y-50620754D01*
X108247398Y-50620752D01*
X108039940Y-50540382D01*
X107821243Y-50499500D01*
X107598757Y-50499500D01*
X107380060Y-50540382D01*
X107248864Y-50591207D01*
X107172601Y-50620752D01*
X107172595Y-50620754D01*
X106983439Y-50737874D01*
X106983437Y-50737876D01*
X106819020Y-50887761D01*
X106684943Y-51065308D01*
X106684938Y-51065316D01*
X106585775Y-51264461D01*
X106585769Y-51264476D01*
X106524885Y-51478462D01*
X106524884Y-51478464D01*
X106504357Y-51699999D01*
X96893193Y-51699999D01*
X96907141Y-51652497D01*
X96923770Y-51631860D01*
X100144651Y-48410979D01*
X100144655Y-48410977D01*
X100290977Y-48264655D01*
X100405941Y-48092598D01*
X100485130Y-47901420D01*
X100525500Y-47698465D01*
X100525500Y-47605258D01*
X100538500Y-47549986D01*
X100599229Y-47428028D01*
X100660115Y-47214036D01*
X100680643Y-46992500D01*
X100660115Y-46770964D01*
X100599229Y-46556972D01*
X100538500Y-46435012D01*
X100525500Y-46379740D01*
X100525500Y-39896534D01*
X100525499Y-39896530D01*
X100521506Y-39876458D01*
X100485130Y-39693580D01*
X100405941Y-39502402D01*
X100290977Y-39330345D01*
X100290975Y-39330342D01*
X100141559Y-39180926D01*
X100141528Y-39180897D01*
X94854535Y-33893904D01*
X94821050Y-33832581D01*
X94818216Y-33806223D01*
X94818216Y-33011967D01*
X94837901Y-32944928D01*
X94890705Y-32899173D01*
X94959863Y-32889229D01*
X95023419Y-32918254D01*
X95041166Y-32937236D01*
X95083510Y-32993308D01*
X95094026Y-33007233D01*
X95258442Y-33157118D01*
X95258444Y-33157120D01*
X95447600Y-33274240D01*
X95447601Y-33274240D01*
X95447604Y-33274242D01*
X95655065Y-33354613D01*
X95873762Y-33395495D01*
X95873764Y-33395495D01*
X96096246Y-33395495D01*
X96096248Y-33395495D01*
X96314945Y-33354613D01*
X96522406Y-33274242D01*
X96711567Y-33157119D01*
X96875986Y-33007231D01*
X97010063Y-32829684D01*
X97109234Y-32630523D01*
X97170120Y-32416531D01*
X97190648Y-32194995D01*
X97187572Y-32161804D01*
X97170120Y-31973459D01*
X97170119Y-31973455D01*
X97109235Y-31759471D01*
X97109234Y-31759467D01*
X97109229Y-31759456D01*
X97010066Y-31560311D01*
X97010061Y-31560303D01*
X96875984Y-31382756D01*
X96711567Y-31232871D01*
X96711565Y-31232869D01*
X96522409Y-31115749D01*
X96522403Y-31115747D01*
X96314945Y-31035377D01*
X96096248Y-30994495D01*
X95873762Y-30994495D01*
X95655065Y-31035377D01*
X95572477Y-31067372D01*
X95447606Y-31115747D01*
X95447600Y-31115749D01*
X95258446Y-31232868D01*
X95163608Y-31319324D01*
X95100803Y-31349940D01*
X95031416Y-31341742D01*
X94977476Y-31297332D01*
X94956599Y-31239126D01*
X94956019Y-31232871D01*
X94952831Y-31198459D01*
X94891945Y-30984467D01*
X94855923Y-30912125D01*
X94792777Y-30785311D01*
X94792772Y-30785303D01*
X94658695Y-30607756D01*
X94494278Y-30457871D01*
X94494276Y-30457869D01*
X94305120Y-30340749D01*
X94305114Y-30340747D01*
X94097656Y-30260377D01*
X93878959Y-30219495D01*
X93656473Y-30219495D01*
X93437776Y-30260377D01*
X93343226Y-30297006D01*
X93230317Y-30340747D01*
X93230311Y-30340749D01*
X93213883Y-30350922D01*
X93148606Y-30369495D01*
X91038967Y-30369495D01*
X90971928Y-30349810D01*
X90926173Y-30297006D01*
X90919701Y-30279430D01*
X90866239Y-30091532D01*
X90864229Y-30084467D01*
X90864224Y-30084456D01*
X90765061Y-29885311D01*
X90765056Y-29885303D01*
X90630979Y-29707756D01*
X90466562Y-29557871D01*
X90466560Y-29557869D01*
X90277404Y-29440749D01*
X90277398Y-29440747D01*
X90261198Y-29434471D01*
X90069940Y-29360377D01*
X89851243Y-29319495D01*
X89628757Y-29319495D01*
X89410060Y-29360377D01*
X89278864Y-29411202D01*
X89202601Y-29440747D01*
X89202595Y-29440749D01*
X89013439Y-29557869D01*
X89013437Y-29557871D01*
X88849020Y-29707756D01*
X88714943Y-29885303D01*
X88714938Y-29885311D01*
X88615775Y-30084456D01*
X88615770Y-30084469D01*
X88574797Y-30228473D01*
X88537517Y-30287566D01*
X88474208Y-30317123D01*
X88404968Y-30307761D01*
X88367852Y-30282221D01*
X87373046Y-29287415D01*
X87373044Y-29287412D01*
X87373044Y-29287413D01*
X87365977Y-29280346D01*
X87365977Y-29280345D01*
X87219655Y-29134023D01*
X87047598Y-29019059D01*
X86856420Y-28939870D01*
X86856412Y-28939868D01*
X86653469Y-28899500D01*
X86653465Y-28899500D01*
X82949110Y-28899500D01*
X82883833Y-28880927D01*
X82867404Y-28870754D01*
X82867398Y-28870751D01*
X82748315Y-28824618D01*
X82677918Y-28797346D01*
X82635033Y-28769402D01*
X79520317Y-25654686D01*
X79520297Y-25654664D01*
X79369657Y-25504024D01*
X79283626Y-25446541D01*
X79197598Y-25389059D01*
X79006420Y-25309870D01*
X79006412Y-25309868D01*
X78803469Y-25269500D01*
X78803465Y-25269500D01*
X68989599Y-25269500D01*
X68989579Y-25269499D01*
X68983465Y-25269499D01*
X68776535Y-25269499D01*
X68776533Y-25269499D01*
X68573585Y-25309868D01*
X68573575Y-25309871D01*
X68382408Y-25389054D01*
X68382395Y-25389061D01*
X68210345Y-25504022D01*
X68210341Y-25504025D01*
X67264965Y-26449402D01*
X67222078Y-26477347D01*
X67032610Y-26550747D01*
X67032595Y-26550754D01*
X66843439Y-26667874D01*
X66843437Y-26667876D01*
X66679020Y-26817761D01*
X66544943Y-26995308D01*
X66544938Y-26995316D01*
X66445775Y-27194461D01*
X66445769Y-27194476D01*
X66384885Y-27408462D01*
X66384884Y-27408464D01*
X66364357Y-27629999D01*
X66364357Y-27630000D01*
X66384884Y-27851535D01*
X66384885Y-27851537D01*
X66445769Y-28065523D01*
X66445775Y-28065538D01*
X66544938Y-28264683D01*
X66544943Y-28264691D01*
X66679020Y-28442238D01*
X66843437Y-28592123D01*
X66843439Y-28592125D01*
X67032595Y-28709245D01*
X67032596Y-28709245D01*
X67032599Y-28709247D01*
X67240060Y-28789618D01*
X67458757Y-28830500D01*
X67458759Y-28830500D01*
X67681241Y-28830500D01*
X67681243Y-28830500D01*
X67899940Y-28789618D01*
X68107401Y-28709247D01*
X68296562Y-28592124D01*
X68460981Y-28442236D01*
X68595058Y-28264689D01*
X68694229Y-28065528D01*
X68714893Y-27992896D01*
X68746477Y-27939152D01*
X69278813Y-27406819D01*
X69340136Y-27373334D01*
X69366494Y-27370500D01*
X78213507Y-27370500D01*
X78280546Y-27390185D01*
X78301188Y-27406819D01*
X81153521Y-30259152D01*
X81185106Y-30312898D01*
X81205770Y-30385525D01*
X81205775Y-30385538D01*
X81304938Y-30584683D01*
X81304943Y-30584691D01*
X81439020Y-30762238D01*
X81603437Y-30912123D01*
X81603439Y-30912125D01*
X81792595Y-31029245D01*
X81792596Y-31029245D01*
X81792599Y-31029247D01*
X82000060Y-31109618D01*
X82218757Y-31150500D01*
X82218759Y-31150500D01*
X82441241Y-31150500D01*
X82441243Y-31150500D01*
X82659940Y-31109618D01*
X82849698Y-31036104D01*
X82919321Y-31030243D01*
X82981061Y-31062953D01*
X83015316Y-31123850D01*
X83017962Y-31163173D01*
X83004357Y-31309998D01*
X83004357Y-31310000D01*
X83024884Y-31531535D01*
X83024885Y-31531537D01*
X83085769Y-31745523D01*
X83085775Y-31745538D01*
X83184938Y-31944683D01*
X83184943Y-31944691D01*
X83319020Y-32122238D01*
X83483437Y-32272123D01*
X83483439Y-32272125D01*
X83672595Y-32389245D01*
X83672596Y-32389245D01*
X83672599Y-32389247D01*
X83880060Y-32469618D01*
X84098757Y-32510500D01*
X84098759Y-32510500D01*
X84321241Y-32510500D01*
X84321243Y-32510500D01*
X84539940Y-32469618D01*
X84747401Y-32389247D01*
X84936562Y-32272124D01*
X85100981Y-32122236D01*
X85235058Y-31944689D01*
X85250075Y-31914532D01*
X85334224Y-31745538D01*
X85334223Y-31745538D01*
X85334229Y-31745528D01*
X85395115Y-31531536D01*
X85415643Y-31310000D01*
X85399514Y-31135939D01*
X85412929Y-31067372D01*
X85461286Y-31016940D01*
X85522985Y-31000500D01*
X86063507Y-31000500D01*
X86130546Y-31020185D01*
X86151188Y-31036819D01*
X87350336Y-32235969D01*
X87350340Y-32235972D01*
X87522390Y-32350933D01*
X87522403Y-32350940D01*
X87680756Y-32416531D01*
X87713575Y-32430125D01*
X87713579Y-32430125D01*
X87713580Y-32430126D01*
X87916527Y-32470496D01*
X87916530Y-32470496D01*
X88129574Y-32470496D01*
X88129594Y-32470495D01*
X92237012Y-32470495D01*
X92304051Y-32490180D01*
X92349806Y-32542984D01*
X92359750Y-32612142D01*
X92330725Y-32675698D01*
X92324693Y-32682176D01*
X89030406Y-35976461D01*
X88969083Y-36009946D01*
X88965511Y-36010668D01*
X88860070Y-36030379D01*
X88860060Y-36030382D01*
X88652601Y-36110751D01*
X88652595Y-36110754D01*
X88463439Y-36227874D01*
X88463437Y-36227876D01*
X88299020Y-36377761D01*
X88164943Y-36555308D01*
X88164936Y-36555320D01*
X88065775Y-36754462D01*
X88065769Y-36754478D01*
X88045105Y-36827102D01*
X88013520Y-36880847D01*
X87671188Y-37223181D01*
X87609865Y-37256666D01*
X87583507Y-37259500D01*
X80276957Y-37259500D01*
X80232163Y-37251126D01*
X80217145Y-37245308D01*
X80157949Y-37222375D01*
X79939252Y-37181493D01*
X79716766Y-37181493D01*
X79498069Y-37222375D01*
X79409554Y-37256666D01*
X79290610Y-37302745D01*
X79290604Y-37302747D01*
X79261244Y-37320927D01*
X79195967Y-37339500D01*
X71458979Y-37339500D01*
X71256036Y-37379868D01*
X71256024Y-37379871D01*
X71114149Y-37438638D01*
X71044680Y-37446107D01*
X70982201Y-37414832D01*
X70946549Y-37354743D01*
X70949043Y-37284918D01*
X70955698Y-37268804D01*
X70974750Y-37230542D01*
X70974749Y-37230542D01*
X70974757Y-37230528D01*
X71035643Y-37016536D01*
X71056171Y-36795000D01*
X71035643Y-36573464D01*
X70974757Y-36359472D01*
X70974752Y-36359461D01*
X70875589Y-36160316D01*
X70875584Y-36160308D01*
X70741507Y-35982761D01*
X70577090Y-35832876D01*
X70577088Y-35832874D01*
X70387932Y-35715754D01*
X70387926Y-35715752D01*
X70180468Y-35635382D01*
X69961771Y-35594500D01*
X69739285Y-35594500D01*
X69520588Y-35635382D01*
X69389392Y-35686207D01*
X69313129Y-35715752D01*
X69313123Y-35715754D01*
X69123967Y-35832874D01*
X69123965Y-35832876D01*
X68959548Y-35982761D01*
X68825471Y-36160308D01*
X68825466Y-36160316D01*
X68726303Y-36359461D01*
X68726297Y-36359476D01*
X68665414Y-36573459D01*
X68664511Y-36578290D01*
X68632840Y-36640570D01*
X68572527Y-36675840D01*
X68542623Y-36679500D01*
X68378757Y-36679500D01*
X68160060Y-36720382D01*
X68028864Y-36771207D01*
X67952601Y-36800752D01*
X67952595Y-36800754D01*
X67763439Y-36917874D01*
X67763437Y-36917876D01*
X67599020Y-37067761D01*
X67464943Y-37245308D01*
X67464938Y-37245316D01*
X67365775Y-37444461D01*
X67365769Y-37444476D01*
X67304885Y-37658462D01*
X67304884Y-37658464D01*
X67284357Y-37879999D01*
X67284357Y-37880000D01*
X67304884Y-38101535D01*
X67304885Y-38101537D01*
X67365769Y-38315523D01*
X67365775Y-38315538D01*
X67464938Y-38514683D01*
X67464943Y-38514691D01*
X67599020Y-38692238D01*
X67763437Y-38842123D01*
X67763439Y-38842125D01*
X67952595Y-38959245D01*
X67952596Y-38959245D01*
X67952599Y-38959247D01*
X68160060Y-39039618D01*
X68378757Y-39080500D01*
X68378759Y-39080500D01*
X68601241Y-39080500D01*
X68601243Y-39080500D01*
X68819940Y-39039618D01*
X69027401Y-38959247D01*
X69216562Y-38842124D01*
X69380981Y-38692236D01*
X69515058Y-38514689D01*
X69614229Y-38315528D01*
X69675115Y-38101536D01*
X69675116Y-38101522D01*
X69676017Y-38096710D01*
X69707688Y-38034430D01*
X69768001Y-37999160D01*
X69797905Y-37995500D01*
X69961769Y-37995500D01*
X69961771Y-37995500D01*
X70180468Y-37954618D01*
X70180477Y-37954614D01*
X70184886Y-37953360D01*
X70254753Y-37953940D01*
X70313215Y-37992202D01*
X70341711Y-38055996D01*
X70331193Y-38125070D01*
X70306512Y-38160304D01*
X69145585Y-39321231D01*
X69102698Y-39349176D01*
X68913230Y-39422576D01*
X68913215Y-39422583D01*
X68899741Y-39430927D01*
X68834464Y-39449500D01*
X63106529Y-39449500D01*
X63072862Y-39456195D01*
X63072863Y-39456196D01*
X62903585Y-39489868D01*
X62903579Y-39489870D01*
X62712402Y-39569058D01*
X62653623Y-39608332D01*
X62607526Y-39627115D01*
X62590071Y-39630378D01*
X62590066Y-39630380D01*
X62590061Y-39630381D01*
X62590060Y-39630382D01*
X62569224Y-39638454D01*
X62382601Y-39710751D01*
X62382595Y-39710754D01*
X62193439Y-39827874D01*
X62193437Y-39827876D01*
X62029020Y-39977761D01*
X61894943Y-40155308D01*
X61894938Y-40155316D01*
X61795775Y-40354461D01*
X61795769Y-40354476D01*
X61734885Y-40568462D01*
X61734884Y-40568464D01*
X61714357Y-40789999D01*
X49171060Y-40789999D01*
X49006497Y-40713261D01*
X49006488Y-40713258D01*
X48786697Y-40654366D01*
X48786693Y-40654365D01*
X48786692Y-40654365D01*
X48786691Y-40654364D01*
X48786686Y-40654364D01*
X48560002Y-40634532D01*
X48559998Y-40634532D01*
X48333313Y-40654364D01*
X48333302Y-40654366D01*
X48113511Y-40713258D01*
X48113502Y-40713261D01*
X47907267Y-40809431D01*
X47907265Y-40809432D01*
X47720858Y-40939954D01*
X47559954Y-41100858D01*
X47429432Y-41287265D01*
X47429431Y-41287267D01*
X47333261Y-41493502D01*
X47333258Y-41493511D01*
X47274366Y-41713302D01*
X47274364Y-41713313D01*
X47254532Y-41939998D01*
X45140500Y-41939998D01*
X45140500Y-37779999D01*
X60864357Y-37779999D01*
X60864357Y-37780000D01*
X60884884Y-38001535D01*
X60884885Y-38001537D01*
X60945769Y-38215523D01*
X60945775Y-38215538D01*
X61044938Y-38414683D01*
X61044943Y-38414691D01*
X61179020Y-38592238D01*
X61343437Y-38742123D01*
X61343439Y-38742125D01*
X61532595Y-38859245D01*
X61532596Y-38859245D01*
X61532599Y-38859247D01*
X61740060Y-38939618D01*
X61958757Y-38980500D01*
X61958759Y-38980500D01*
X62181241Y-38980500D01*
X62181243Y-38980500D01*
X62399940Y-38939618D01*
X62607401Y-38859247D01*
X62796562Y-38742124D01*
X62960981Y-38592236D01*
X63095058Y-38414689D01*
X63194229Y-38215528D01*
X63255115Y-38001536D01*
X63275643Y-37780000D01*
X63255115Y-37558464D01*
X63194229Y-37344472D01*
X63194224Y-37344461D01*
X63095061Y-37145316D01*
X63095056Y-37145308D01*
X62960979Y-36967761D01*
X62796562Y-36817876D01*
X62796560Y-36817874D01*
X62607404Y-36700754D01*
X62607398Y-36700752D01*
X62399940Y-36620382D01*
X62181243Y-36579500D01*
X61958757Y-36579500D01*
X61740060Y-36620382D01*
X61664405Y-36649691D01*
X61532601Y-36700752D01*
X61532595Y-36700754D01*
X61343439Y-36817874D01*
X61343437Y-36817876D01*
X61179020Y-36967761D01*
X61044943Y-37145308D01*
X61044938Y-37145316D01*
X60945775Y-37344461D01*
X60945769Y-37344476D01*
X60884885Y-37558462D01*
X60884884Y-37558464D01*
X60864357Y-37779999D01*
X45140500Y-37779999D01*
X45140500Y-36014999D01*
X64304357Y-36014999D01*
X64304357Y-36015000D01*
X64324884Y-36236535D01*
X64324885Y-36236537D01*
X64385769Y-36450523D01*
X64385775Y-36450538D01*
X64484938Y-36649683D01*
X64484943Y-36649691D01*
X64619020Y-36827238D01*
X64783437Y-36977123D01*
X64783439Y-36977125D01*
X64972595Y-37094245D01*
X64972596Y-37094245D01*
X64972599Y-37094247D01*
X65180060Y-37174618D01*
X65398757Y-37215500D01*
X65398759Y-37215500D01*
X65621241Y-37215500D01*
X65621243Y-37215500D01*
X65839940Y-37174618D01*
X66047401Y-37094247D01*
X66236562Y-36977124D01*
X66400981Y-36827236D01*
X66535058Y-36649689D01*
X66634229Y-36450528D01*
X66695115Y-36236536D01*
X66715643Y-36015000D01*
X66695115Y-35793464D01*
X66634229Y-35579472D01*
X66634224Y-35579461D01*
X66535061Y-35380316D01*
X66535056Y-35380308D01*
X66400979Y-35202761D01*
X66236562Y-35052876D01*
X66236560Y-35052874D01*
X66047404Y-34935754D01*
X66047398Y-34935752D01*
X65839940Y-34855382D01*
X65621243Y-34814500D01*
X65398757Y-34814500D01*
X65180060Y-34855382D01*
X65048864Y-34906207D01*
X64972601Y-34935752D01*
X64972595Y-34935754D01*
X64783439Y-35052874D01*
X64783437Y-35052876D01*
X64619020Y-35202761D01*
X64484943Y-35380308D01*
X64484938Y-35380316D01*
X64385775Y-35579461D01*
X64385769Y-35579476D01*
X64324885Y-35793462D01*
X64324884Y-35793464D01*
X64304357Y-36014999D01*
X45140500Y-36014999D01*
X45140500Y-35080046D01*
X45160185Y-35013007D01*
X45176815Y-34992369D01*
X45942070Y-34227113D01*
X45942077Y-34227108D01*
X45949137Y-34220047D01*
X45949139Y-34220047D01*
X46110047Y-34059139D01*
X46168223Y-33976051D01*
X46169413Y-33974383D01*
X46222287Y-33901611D01*
X46223524Y-33899181D01*
X46232443Y-33884336D01*
X46240568Y-33872734D01*
X46278170Y-33792093D01*
X46280042Y-33788258D01*
X46315219Y-33719219D01*
X46315220Y-33719218D01*
X46319924Y-33704738D01*
X46325473Y-33690654D01*
X46336736Y-33666503D01*
X46336736Y-33666501D01*
X46336739Y-33666496D01*
X46356541Y-33592590D01*
X46358379Y-33586388D01*
X46378477Y-33524535D01*
X46382809Y-33497178D01*
X46385504Y-33484498D01*
X46395635Y-33446692D01*
X46401215Y-33382893D01*
X46402270Y-33374307D01*
X46410500Y-33322352D01*
X46410500Y-33282196D01*
X46410972Y-33271388D01*
X46415468Y-33220000D01*
X46415468Y-33219998D01*
X46410972Y-33168609D01*
X46410500Y-33157802D01*
X46410500Y-33117650D01*
X46408662Y-33106046D01*
X46402269Y-33065689D01*
X46401215Y-33057100D01*
X46395635Y-32993308D01*
X46385505Y-32955502D01*
X46382809Y-32942822D01*
X46378477Y-32915466D01*
X46366953Y-32879999D01*
X57064357Y-32879999D01*
X57064357Y-32880000D01*
X57084884Y-33101535D01*
X57084885Y-33101537D01*
X57145769Y-33315523D01*
X57145775Y-33315538D01*
X57244938Y-33514683D01*
X57244943Y-33514691D01*
X57379020Y-33692238D01*
X57543437Y-33842123D01*
X57543439Y-33842125D01*
X57732595Y-33959245D01*
X57732596Y-33959245D01*
X57732599Y-33959247D01*
X57940060Y-34039618D01*
X58158757Y-34080500D01*
X58158759Y-34080500D01*
X58381241Y-34080500D01*
X58381243Y-34080500D01*
X58599940Y-34039618D01*
X58807401Y-33959247D01*
X58996562Y-33842124D01*
X59147252Y-33704752D01*
X59160979Y-33692238D01*
X59162176Y-33690654D01*
X59295058Y-33514689D01*
X59303777Y-33497180D01*
X59394224Y-33315538D01*
X59394223Y-33315538D01*
X59394229Y-33315528D01*
X59455115Y-33101536D01*
X59475643Y-32880000D01*
X59455115Y-32658464D01*
X59394229Y-32444472D01*
X59394224Y-32444461D01*
X59295061Y-32245316D01*
X59295056Y-32245308D01*
X59160979Y-32067761D01*
X58996562Y-31917876D01*
X58996560Y-31917874D01*
X58807404Y-31800754D01*
X58807398Y-31800752D01*
X58599940Y-31720382D01*
X58381243Y-31679500D01*
X58158757Y-31679500D01*
X57940060Y-31720382D01*
X57839199Y-31759456D01*
X57732601Y-31800752D01*
X57732595Y-31800754D01*
X57543439Y-31917874D01*
X57543437Y-31917876D01*
X57379020Y-32067761D01*
X57244943Y-32245308D01*
X57244938Y-32245316D01*
X57145775Y-32444461D01*
X57145769Y-32444476D01*
X57084885Y-32658462D01*
X57084884Y-32658464D01*
X57064357Y-32879999D01*
X46366953Y-32879999D01*
X46358378Y-32853609D01*
X46356537Y-32847393D01*
X46351790Y-32829678D01*
X46336739Y-32773504D01*
X46325464Y-32749327D01*
X46319920Y-32735250D01*
X46315220Y-32720782D01*
X46315220Y-32720781D01*
X46280049Y-32651755D01*
X46278152Y-32647865D01*
X46246325Y-32579612D01*
X46240568Y-32567266D01*
X46232434Y-32555649D01*
X46223523Y-32540816D01*
X46222289Y-32538394D01*
X46222287Y-32538390D01*
X46169428Y-32465635D01*
X46168214Y-32463932D01*
X46110047Y-32380861D01*
X46080119Y-32350933D01*
X45949139Y-32219953D01*
X45900122Y-32185631D01*
X45866076Y-32161791D01*
X45864317Y-32160536D01*
X45791611Y-32107713D01*
X45789169Y-32106469D01*
X45774347Y-32097563D01*
X45762738Y-32089434D01*
X45716267Y-32067764D01*
X45682103Y-32051832D01*
X45678250Y-32049953D01*
X45609218Y-32014780D01*
X45594748Y-32010078D01*
X45580670Y-32004532D01*
X45556501Y-31993263D01*
X45556497Y-31993261D01*
X45482586Y-31973455D01*
X45476366Y-31971612D01*
X45414544Y-31951525D01*
X45414531Y-31951522D01*
X45387180Y-31947190D01*
X45374488Y-31944492D01*
X45336699Y-31934367D01*
X45336702Y-31934367D01*
X45336692Y-31934365D01*
X45336689Y-31934364D01*
X45336686Y-31934364D01*
X45272890Y-31928783D01*
X45264300Y-31927728D01*
X45244284Y-31924557D01*
X45212351Y-31919500D01*
X45212350Y-31919500D01*
X45172196Y-31919500D01*
X45161390Y-31919028D01*
X45134912Y-31916711D01*
X45110001Y-31914532D01*
X45109999Y-31914532D01*
X45085087Y-31916711D01*
X45058609Y-31919028D01*
X45047804Y-31919500D01*
X45007648Y-31919500D01*
X44979644Y-31923935D01*
X44955696Y-31927728D01*
X44947109Y-31928782D01*
X44883306Y-31934365D01*
X44845511Y-31944492D01*
X44832819Y-31947190D01*
X44805467Y-31951522D01*
X44805457Y-31951524D01*
X44743593Y-31971624D01*
X44737374Y-31973466D01*
X44663504Y-31993261D01*
X44639336Y-32004530D01*
X44625258Y-32010075D01*
X44610787Y-32014777D01*
X44610785Y-32014778D01*
X44541760Y-32049947D01*
X44537874Y-32051842D01*
X44457266Y-32089432D01*
X44445650Y-32097564D01*
X44430849Y-32106458D01*
X44428393Y-32107709D01*
X44355666Y-32160548D01*
X44353906Y-32161804D01*
X44270860Y-32219953D01*
X44218691Y-32272123D01*
X44109953Y-32380861D01*
X42848036Y-33642778D01*
X42727716Y-33808384D01*
X42727714Y-33808387D01*
X42698347Y-33866024D01*
X42634332Y-33991658D01*
X42633272Y-33995420D01*
X42571522Y-34185468D01*
X42567740Y-34209348D01*
X42539500Y-34387648D01*
X42539500Y-40149023D01*
X42519815Y-40216062D01*
X42467011Y-40261817D01*
X42397853Y-40271761D01*
X42334297Y-40242736D01*
X42327819Y-40236704D01*
X37709151Y-35618036D01*
X37709149Y-35618034D01*
X37543541Y-35497713D01*
X37452344Y-35451246D01*
X37361149Y-35404780D01*
X37361148Y-35404779D01*
X37361143Y-35404777D01*
X37361145Y-35404777D01*
X37241511Y-35365907D01*
X37166462Y-35341522D01*
X37011150Y-35316923D01*
X36964282Y-35309500D01*
X36964281Y-35309500D01*
X36562592Y-35309500D01*
X36495553Y-35289815D01*
X36449798Y-35237011D01*
X36439854Y-35167853D01*
X36453234Y-35127046D01*
X36460232Y-35113954D01*
X36520300Y-34915934D01*
X36535500Y-34761608D01*
X36535500Y-33458392D01*
X36520300Y-33304066D01*
X36460232Y-33106046D01*
X36362685Y-32923550D01*
X36300185Y-32847393D01*
X36231410Y-32763589D01*
X36071452Y-32632317D01*
X36071453Y-32632317D01*
X36071450Y-32632315D01*
X35888954Y-32534768D01*
X35690934Y-32474700D01*
X35690932Y-32474699D01*
X35690934Y-32474699D01*
X35571805Y-32462966D01*
X35536608Y-32459500D01*
X33983392Y-32459500D01*
X33945298Y-32463251D01*
X33829067Y-32474699D01*
X33631043Y-32534769D01*
X33520898Y-32593643D01*
X33448550Y-32632315D01*
X33448548Y-32632316D01*
X33448547Y-32632317D01*
X33288589Y-32763589D01*
X33157317Y-32923547D01*
X33059769Y-33106043D01*
X32999699Y-33304067D01*
X32991935Y-33382901D01*
X32985653Y-33446692D01*
X32984500Y-33458395D01*
X25016730Y-33458395D01*
X25015711Y-31419994D01*
X72084357Y-31419994D01*
X72084357Y-31419995D01*
X72104884Y-31641530D01*
X72104885Y-31641532D01*
X72165769Y-31855518D01*
X72165775Y-31855533D01*
X72264938Y-32054678D01*
X72264943Y-32054686D01*
X72399020Y-32232233D01*
X72563437Y-32382118D01*
X72563439Y-32382120D01*
X72752595Y-32499240D01*
X72752596Y-32499240D01*
X72752599Y-32499242D01*
X72960060Y-32579613D01*
X73178757Y-32620495D01*
X73178759Y-32620495D01*
X73401241Y-32620495D01*
X73401243Y-32620495D01*
X73619940Y-32579613D01*
X73827401Y-32499242D01*
X74016562Y-32382119D01*
X74156282Y-32254746D01*
X74180979Y-32232233D01*
X74190253Y-32219953D01*
X74315058Y-32054684D01*
X74414229Y-31855523D01*
X74475115Y-31641531D01*
X74495643Y-31419995D01*
X74475115Y-31198459D01*
X74414229Y-30984467D01*
X74329255Y-30813818D01*
X74316995Y-30745035D01*
X74341302Y-30683821D01*
X74342499Y-30682234D01*
X74342504Y-30682231D01*
X74476581Y-30504684D01*
X74575752Y-30305523D01*
X74636638Y-30091531D01*
X74657166Y-29869995D01*
X74636638Y-29648459D01*
X74575752Y-29434467D01*
X74575747Y-29434456D01*
X74476584Y-29235311D01*
X74476579Y-29235303D01*
X74342502Y-29057756D01*
X74178085Y-28907871D01*
X74178083Y-28907869D01*
X73988927Y-28790749D01*
X73988921Y-28790747D01*
X73986007Y-28789618D01*
X73781463Y-28710377D01*
X73562766Y-28669495D01*
X73340280Y-28669495D01*
X73121583Y-28710377D01*
X72990387Y-28761202D01*
X72914124Y-28790747D01*
X72914118Y-28790749D01*
X72724962Y-28907869D01*
X72724960Y-28907871D01*
X72560543Y-29057756D01*
X72426466Y-29235303D01*
X72426461Y-29235311D01*
X72327298Y-29434456D01*
X72327292Y-29434471D01*
X72266408Y-29648457D01*
X72266407Y-29648459D01*
X72245880Y-29869994D01*
X72245880Y-29869995D01*
X72266407Y-30091530D01*
X72266408Y-30091532D01*
X72327292Y-30305518D01*
X72327298Y-30305533D01*
X72412266Y-30476169D01*
X72424527Y-30544954D01*
X72400220Y-30606167D01*
X72264947Y-30785297D01*
X72264938Y-30785311D01*
X72165775Y-30984456D01*
X72165769Y-30984471D01*
X72104885Y-31198457D01*
X72104884Y-31198459D01*
X72084357Y-31419994D01*
X25015711Y-31419994D01*
X25010062Y-20124061D01*
X25029713Y-20057013D01*
X25082494Y-20011231D01*
X25134062Y-20000000D01*
X124876000Y-20000000D01*
X124943039Y-20019685D01*
G37*
%TD.AperFunction*%
%TD*%
%TA.AperFunction,Conductor*%
%TO.N,Net-(D1-A1)*%
G36*
X69403970Y-95732366D02*
G01*
X69450133Y-95784814D01*
X69461740Y-95837558D01*
X69449154Y-100176091D01*
X69429276Y-100243073D01*
X69376339Y-100288674D01*
X69325796Y-100299729D01*
X58849192Y-100353873D01*
X58849181Y-100353873D01*
X58680096Y-100372716D01*
X58680077Y-100372719D01*
X58629221Y-100383921D01*
X58591376Y-100393222D01*
X58591375Y-100393222D01*
X58591365Y-100393226D01*
X58423684Y-100459695D01*
X58423683Y-100459696D01*
X58274998Y-100561809D01*
X58274994Y-100561813D01*
X58222196Y-100607562D01*
X58222192Y-100607566D01*
X58151815Y-100676521D01*
X58149176Y-100679599D01*
X58090587Y-100717666D01*
X58054773Y-100722864D01*
X57834375Y-100722353D01*
X57833074Y-100722350D01*
X57875184Y-95802052D01*
X69336784Y-95713203D01*
X69403970Y-95732366D01*
G37*
%TD.AperFunction*%
%TD*%
%TA.AperFunction,Conductor*%
%TO.N,Net-(D6-A1)*%
G36*
X117420187Y-80819628D02*
G01*
X117466228Y-80872183D01*
X117477712Y-80925107D01*
X117289318Y-110086798D01*
X117269201Y-110153709D01*
X117216103Y-110199122D01*
X117165319Y-110209997D01*
X110865426Y-110209890D01*
X110813024Y-110198272D01*
X110716502Y-110153263D01*
X110716488Y-110153258D01*
X110496697Y-110094366D01*
X110496693Y-110094365D01*
X110496692Y-110094365D01*
X110496691Y-110094364D01*
X110496686Y-110094364D01*
X110270002Y-110074532D01*
X110269998Y-110074532D01*
X110043313Y-110094364D01*
X110043302Y-110094366D01*
X109823511Y-110153258D01*
X109823506Y-110153260D01*
X109727018Y-110198253D01*
X109674612Y-110209870D01*
X95422902Y-110209629D01*
X95355863Y-110189943D01*
X95310109Y-110137139D01*
X95298905Y-110085248D01*
X95298938Y-110074532D01*
X95333917Y-98690601D01*
X95336297Y-98666807D01*
X95353899Y-98578322D01*
X95390500Y-98206707D01*
X95390500Y-97833293D01*
X95353899Y-97461678D01*
X95340359Y-97393612D01*
X95337978Y-97369047D01*
X95388145Y-81042575D01*
X95408035Y-80975597D01*
X95460979Y-80930005D01*
X95511469Y-80918959D01*
X117353043Y-80800308D01*
X117420187Y-80819628D01*
G37*
%TD.AperFunction*%
%TD*%
%TA.AperFunction,Conductor*%
%TO.N,Net-(Q1-D)*%
G36*
X94521243Y-80890241D02*
G01*
X94567496Y-80942609D01*
X94579192Y-80995982D01*
X94360777Y-115058768D01*
X94340663Y-115125680D01*
X94287567Y-115171095D01*
X94238782Y-115181957D01*
X70211271Y-115569979D01*
X70210000Y-115569986D01*
X70310000Y-81100000D01*
X71744326Y-81086407D01*
X71811548Y-81105455D01*
X71857801Y-81157823D01*
X71869500Y-81210401D01*
X71869500Y-98363469D01*
X71909868Y-98566412D01*
X71909870Y-98566420D01*
X71989059Y-98757598D01*
X72104023Y-98929655D01*
X72250345Y-99075977D01*
X72250346Y-99075977D01*
X72257413Y-99083044D01*
X72257412Y-99083044D01*
X72257416Y-99083047D01*
X72823521Y-99649152D01*
X72855106Y-99702898D01*
X72875770Y-99775525D01*
X72875775Y-99775538D01*
X72974938Y-99974683D01*
X72974943Y-99974691D01*
X73109020Y-100152238D01*
X73273437Y-100302123D01*
X73273439Y-100302125D01*
X73462595Y-100419245D01*
X73462596Y-100419245D01*
X73462599Y-100419247D01*
X73670060Y-100499618D01*
X73888757Y-100540500D01*
X73888759Y-100540500D01*
X74111241Y-100540500D01*
X74111243Y-100540500D01*
X74329940Y-100499618D01*
X74537401Y-100419247D01*
X74726562Y-100302124D01*
X74890981Y-100152236D01*
X75025058Y-99974689D01*
X75124229Y-99775528D01*
X75185115Y-99561536D01*
X75205643Y-99340000D01*
X75185115Y-99118464D01*
X75124229Y-98904472D01*
X75052484Y-98760391D01*
X75040223Y-98691607D01*
X75054964Y-98651046D01*
X75052503Y-98649821D01*
X75154228Y-98445530D01*
X75174893Y-98372898D01*
X75206477Y-98319152D01*
X75589651Y-97935979D01*
X75589655Y-97935977D01*
X75735977Y-97789655D01*
X75850941Y-97617598D01*
X75930130Y-97426420D01*
X75970500Y-97223465D01*
X75970500Y-81169187D01*
X75990185Y-81102148D01*
X76042989Y-81056393D01*
X76093324Y-81045193D01*
X91582644Y-80898405D01*
X91594572Y-80898868D01*
X91670000Y-80905468D01*
X91766370Y-80897036D01*
X91775952Y-80896573D01*
X94454022Y-80871193D01*
X94521243Y-80890241D01*
G37*
%TD.AperFunction*%
%TD*%
M02*
