M48
; DRILL file {KiCad 8.0.5} date 2024-11-15T14:42:50+0000
; FORMAT={-:-/ absolute / inch / decimal}
; #@! TF.CreationDate,2024-11-15T14:42:50+00:00
; #@! TF.GenerationSoftware,Kicad,Pcbnew,8.0.5
; #@! TF.FileFunction,Plated,1,4,PTH
FMAT,2
INCH
; #@! TA.AperFunction,Plated,PTH,ComponentDrill
T1C0.0118
; #@! TA.AperFunction,Plated,PTH,ViaDrill
T2C0.0157
; #@! TA.AperFunction,Plated,PTH,ComponentDrill
T3C0.0197
; #@! TA.AperFunction,Plated,PTH,ViaDrill
T4C0.0236
; #@! TA.AperFunction,Plated,PTH,ViaDrill
T5C0.0295
; #@! TA.AperFunction,Plated,PTH,ComponentDrill
T6C0.0300
; #@! TA.AperFunction,Plated,PTH,ComponentDrill
T7C0.0315
; #@! TA.AperFunction,Plated,PTH,ComponentDrill
T8C0.0374
; #@! TA.AperFunction,Plated,PTH,ComponentDrill
T9C0.0394
; #@! TA.AperFunction,Plated,PTH,ComponentDrill
T10C0.0492
; #@! TA.AperFunction,Plated,PTH,ComponentDrill
T11C0.0787
; #@! TA.AperFunction,Plated,PTH,ComponentDrill
T12C0.1260
%
G90
G05
T1
X3.5953Y-2.3776
X3.5953Y-2.4169
X3.5953Y-2.4563
X3.6465Y-2.3776
X3.6465Y-2.4169
X3.6465Y-2.4563
T2
X1.4508Y-1.537
X1.7134Y-1.113
X2.1673Y-1.6051
X2.2004Y-1.3528
X2.2941Y-1.2945
X2.339Y-2.1512
X2.3516Y-2.4307
X2.4012Y-2.613
X2.4122Y-4.2642
X2.4217Y-4.0787
X2.4283Y-2.4291
X2.4299Y-4.4512
X2.4437Y-1.4874
X2.4634Y-3.3378
X2.4642Y-3.5055
X2.4673Y-3.6559
X2.4772Y-1.6059
X2.5417Y-2.6469
X2.5791Y-1.4179
X2.635Y-1.0433
X2.6366Y-4.4425
X2.637Y-3.5008
X2.637Y-3.6626
X2.6378Y-4.2642
X2.639Y-3.3323
X2.6429Y-4.0831
X2.6531Y-1.4713
X2.6602Y-1.0878
X2.6965Y-1.4913
X2.7343Y-1.5946
X2.75Y-1.4486
X2.7669Y-2.9374
X2.7697Y-1.6335
X2.7906Y-3.6484
X2.7937Y-3.5039
X2.7976Y-3.3295
X2.8394Y-1.9571
X2.8402Y-4.087
X2.8402Y-4.4472
X2.8425Y-4.2614
X2.8854Y-1.237
X2.8918Y-1.176
X2.9035Y-1.6205
X2.9134Y-3.911
X2.9138Y-3.8087
X2.9142Y-3.0548
X2.9146Y-3.8587
X2.9835Y-2.9209
X3.01Y-1.6333
X3.0491Y-1.476
X3.1428Y-1.5111
X3.1492Y-2.8488
X3.1515Y-1.3691
X3.2413Y-1.1791
X3.2677Y-1.0516
X3.3154Y-1.2327
X3.3197Y-2.8677
X3.511Y-2.9248
X3.5114Y-1.4642
X3.5331Y-1.2016
X3.6916Y-1.237
X3.7307Y-1.6315
X3.7731Y-2.0659
X3.7789Y-1.2675
X3.8087Y-2.1385
X3.85Y-1.7961
X3.9078Y-2.4382
X3.9163Y-1.8501
X3.9295Y-1.4299
X4.0153Y-1.791
X4.2003Y-1.8225
X4.224Y-1.9902
X4.2406Y-2.0354
X4.2988Y-1.7886
X4.4021Y-2.0908
X4.4272Y-2.2579
X4.5059Y-1.7071
X4.5339Y-1.3165
X4.5496Y-1.8701
T3
X3.3913Y-3.8343
X3.3913Y-3.8839
X3.4209Y-3.7937
X3.4209Y-3.9244
X3.4681Y-3.7783
X3.4681Y-3.9398
X3.5205Y-3.7783
X3.5205Y-3.9398
X3.5732Y-3.7783
X3.5732Y-3.9398
X3.6256Y-3.7783
X3.6256Y-3.9398
X3.6728Y-3.7937
X3.6728Y-3.9244
X3.7024Y-3.8343
X3.7024Y-3.8839
X3.785Y-3.8343
X3.785Y-3.8839
X3.8146Y-3.7937
X3.8146Y-3.9244
X3.8618Y-3.7783
X3.8618Y-3.9398
X3.9142Y-3.7783
X3.9142Y-3.9398
X3.9669Y-3.7783
X3.9669Y-3.9398
X4.0193Y-3.7783
X4.0193Y-3.9398
X4.0665Y-3.7937
X4.0665Y-3.9244
X4.0961Y-3.8343
X4.0961Y-3.8839
T4
X1.4496Y-2.0433
X1.726Y-2.3307
X1.7268Y-1.7169
X1.776Y-1.3079
X1.8354Y-2.1563
X1.911Y-1.8378
X1.9118Y-1.6512
X1.9677Y-1.9315
X2.3504Y-3.9268
X2.3508Y-3.8685
X2.3543Y-3.8051
X2.472Y-3.9276
X2.4732Y-3.8449
X2.4732Y-3.885
X2.4764Y-3.8024
X2.6236Y-3.9299
X2.624Y-3.8886
X2.626Y-3.8461
X2.6272Y-3.8055
X2.6685Y-3.9299
X2.6689Y-3.8886
X2.6709Y-3.8461
X2.672Y-3.8055
X3.0717Y-2.4374
X3.0847Y-1.8677
X3.1754Y-2.0547
X3.1986Y-2.2476
X3.4096Y-2.4484
X3.515Y-2.2016
X3.6281Y-2.3244
X3.6281Y-2.5094
X3.8232Y-1.6138
X3.9122Y-1.2031
T5
X1.0425Y-3.0256
X1.0425Y-3.2098
X1.0425Y-3.4386
X1.0425Y-3.6425
X1.0425Y-3.9213
X1.0425Y-4.1587
X1.2366Y-3.024
X1.2366Y-3.2083
X1.2366Y-3.437
X1.2366Y-3.6409
X1.2366Y-3.9197
X1.2366Y-4.1571
X1.4563Y-4.4185
X1.4563Y-4.6083
X1.6504Y-4.4169
X1.6504Y-4.6067
X1.8429Y-2.7886
X1.8429Y-2.9295
X1.8429Y-3.0433
X1.8429Y-3.1531
X1.8433Y-2.6213
X1.8469Y-3.7949
X1.848Y-3.4236
X1.848Y-3.6024
X1.848Y-4.1118
X1.848Y-4.2811
X1.848Y-4.4449
X1.848Y-4.5917
X1.8488Y-3.2972
X1.8508Y-3.9319
X2.0276Y-3.7925
X2.0287Y-3.4213
X2.0287Y-3.6
X2.0287Y-4.1094
X2.0287Y-4.2787
X2.0287Y-4.4425
X2.0287Y-4.5894
X2.0295Y-3.2949
X2.0315Y-3.9295
X2.0319Y-2.789
X2.0319Y-2.9295
X2.0319Y-3.0437
X2.0319Y-3.1535
X2.0323Y-2.6217
X2.2091Y-3.4177
X2.2091Y-3.5961
X2.2091Y-3.7953
X2.2091Y-3.9311
X2.2091Y-4.1094
X2.2091Y-4.2657
X2.2091Y-4.435
X2.2091Y-4.5819
X2.2098Y-3.3004
X2.2161Y-2.7846
X2.2161Y-2.9295
X2.2161Y-3.0394
X2.2161Y-3.1492
X2.2165Y-2.6173
X2.3378Y-4.6488
X2.3984Y-2.7996
X2.4008Y-2.9295
X2.4008Y-3.037
X2.4008Y-3.1469
X2.4787Y-3.1472
X2.4795Y-3.0386
X2.5024Y-2.9295
X2.5039Y-2.8008
X2.6185Y-2.8016
X2.6197Y-2.9331
X2.6264Y-3.1413
X2.6272Y-3.0327
X2.8567Y-4.6476
X3.0142Y-3.4724
X3.0165Y-3.2429
X3.0177Y-3.7012
X3.0185Y-4.5232
X3.0217Y-3.1335
X3.0335Y-4.2575
X3.035Y-3.8016
X3.0425Y-3.9543
X3.0425Y-4.0693
X3.1587Y-3.1339
X3.1591Y-3.2429
X3.1642Y-3.4724
X3.1748Y-3.7012
X3.1768Y-4.5122
X3.1913Y-4.0638
X3.1933Y-4.2591
X3.2858Y-3.2429
X3.2862Y-3.1331
X3.3421Y-4.4992
X3.3441Y-3.4724
X3.3461Y-3.7012
X3.3461Y-4.2685
X3.3496Y-4.0583
X3.385Y-3.2429
X3.3866Y-3.1335
X3.4854Y-3.2429
X3.4854Y-4.4992
X3.4858Y-3.1323
X3.4874Y-4.263
X3.4949Y-4.0528
X3.5024Y-3.4724
X3.5039Y-3.7012
X3.6091Y-3.1339
X3.6173Y-4.3748
X3.6197Y-3.5665
X3.6217Y-4.1433
X3.624Y-3.3346
X3.7114Y-4.6469
X3.7417Y-3.1343
X3.7839Y-4.426
X3.8083Y-4.2744
X3.8126Y-4.0827
X3.8213Y-3.3051
X3.8213Y-3.4535
X3.8213Y-3.6051
X3.9106Y-3.2248
X3.9106Y-3.3776
X3.9106Y-3.5189
X3.9106Y-3.6701
X3.9185Y-4.0248
X3.9185Y-4.1575
X3.9421Y-2.9169
X3.9437Y-3.111
X4.0815Y-4.0236
X4.0815Y-4.1563
X4.0815Y-4.3906
X4.0992Y-3.2287
X4.0992Y-3.3815
X4.0992Y-3.5228
X4.0992Y-3.674
X4.1264Y-2.9169
X4.128Y-3.111
X4.3413Y-4.385
X4.3551Y-2.9169
X4.3567Y-3.111
X4.3815Y-4.3079
X4.5591Y-2.9169
X4.5606Y-3.111
X4.678Y-3.326
X4.678Y-3.5102
X4.678Y-3.739
X4.678Y-3.9429
X4.678Y-4.2217
X4.8378Y-2.9169
X4.8394Y-3.111
X4.872Y-3.3244
X4.872Y-3.5087
X4.872Y-3.7374
X4.872Y-3.9413
X4.872Y-4.2201
T6
X1.3688Y-3.3627
X1.3688Y-3.5793
X1.3713Y-3.7665
X1.3713Y-3.9831
X1.3713Y-4.1996
X1.3736Y-2.6748
X1.3736Y-2.8913
X1.3736Y-3.1079
X1.4574Y-3.3627
X1.4574Y-3.5793
X1.4598Y-3.7665
X1.4598Y-3.9831
X1.4598Y-4.1996
X1.4622Y-2.6748
X1.4622Y-2.8913
X1.4622Y-3.1079
X1.546Y-3.3627
X1.546Y-3.5793
X1.5484Y-3.7665
X1.5484Y-3.9831
X1.5484Y-4.1996
X1.5508Y-2.6748
X1.5508Y-2.8913
X1.5508Y-3.1079
X1.6346Y-3.3627
X1.6346Y-3.5793
X1.637Y-3.7665
X1.637Y-3.9831
X1.637Y-4.1996
X1.6394Y-2.6748
X1.6394Y-2.8913
X1.6394Y-3.1079
X1.7232Y-3.3627
X1.7232Y-3.5793
X1.7256Y-3.7665
X1.7256Y-3.9831
X1.7256Y-4.1996
X1.728Y-2.6748
X1.728Y-2.8913
X1.728Y-3.1079
X4.2126Y-3.7809
X4.2126Y-3.9974
X4.2126Y-4.2139
X4.2174Y-3.3094
X4.2174Y-3.526
X4.3012Y-3.7809
X4.3012Y-3.9974
X4.3012Y-4.2139
X4.306Y-3.3094
X4.306Y-3.526
X4.3898Y-3.7809
X4.3898Y-3.9974
X4.3898Y-4.2139
X4.3945Y-3.3094
X4.3945Y-3.526
X4.4783Y-3.7809
X4.4783Y-3.9974
X4.4783Y-4.2139
X4.4831Y-3.3094
X4.4831Y-3.526
X4.5669Y-3.7809
X4.5669Y-3.9974
X4.5669Y-4.2139
X4.5717Y-3.3094
X4.5717Y-3.526
T7
X3.6685Y-3.0165
X3.7437Y-3.0165
X3.8189Y-3.0165
T8
X1.3685Y-1.3429
X1.3685Y-1.4413
X1.3685Y-1.5398
X1.3685Y-1.8484
X1.3685Y-1.9469
X1.3685Y-2.0453
T9
X4.5394Y-2.2752
X4.5394Y-2.3736
T10
X1.4247Y-3.2446
X1.4247Y-3.4809
X1.4272Y-3.865
X1.4272Y-4.1012
X1.4295Y-2.7732
X1.4295Y-3.0094
X1.6247Y-3.2446
X1.6247Y-3.4809
X1.6272Y-3.865
X1.6272Y-4.1012
X1.6295Y-2.7732
X1.6295Y-3.0094
X4.311Y-3.8793
X4.311Y-4.1155
X4.3158Y-3.4079
X4.3158Y-3.6441
X4.511Y-3.8793
X4.511Y-4.1155
X4.5158Y-3.4079
X4.5158Y-3.6441
T12
X1.2205Y-1.0236
X1.2205Y-4.4882
X4.685Y-1.0236
X4.685Y-2.7559
X4.685Y-4.4882
T11
G00X3.6256Y-3.8591
M15
G01X3.4681Y-3.8591
M16
G05
G00X4.0193Y-3.8591
M15
G01X3.8618Y-3.8591
M16
G05
M30
