%TF.GenerationSoftware,KiCad,Pcbnew,7.0.7*%
%TF.CreationDate,2023-11-03T16:15:29+00:00*%
%TF.ProjectId,RXLNA,52584c4e-412e-46b6-9963-61645f706362,rev?*%
%TF.SameCoordinates,Original*%
%TF.FileFunction,Soldermask,Bot*%
%TF.FilePolarity,Negative*%
%FSLAX46Y46*%
G04 Gerber Fmt 4.6, Leading zero omitted, Abs format (unit mm)*
G04 Created by KiCad (PCBNEW 7.0.7) date 2023-11-03 16:15:29*
%MOMM*%
%LPD*%
G01*
G04 APERTURE LIST*
G04 Aperture macros list*
%AMRoundRect*
0 Rectangle with rounded corners*
0 $1 Rounding radius*
0 $2 $3 $4 $5 $6 $7 $8 $9 X,Y pos of 4 corners*
0 Add a 4 corners polygon primitive as box body*
4,1,4,$2,$3,$4,$5,$6,$7,$8,$9,$2,$3,0*
0 Add four circle primitives for the rounded corners*
1,1,$1+$1,$2,$3*
1,1,$1+$1,$4,$5*
1,1,$1+$1,$6,$7*
1,1,$1+$1,$8,$9*
0 Add four rect primitives between the rounded corners*
20,1,$1+$1,$2,$3,$4,$5,0*
20,1,$1+$1,$4,$5,$6,$7,0*
20,1,$1+$1,$6,$7,$8,$9,0*
20,1,$1+$1,$8,$9,$2,$3,0*%
%AMFreePoly0*
4,1,9,3.862500,-0.866500,0.737500,-0.866500,0.737500,-0.450000,-0.737500,-0.450000,-0.737500,0.450000,0.737500,0.450000,0.737500,0.866500,3.862500,0.866500,3.862500,-0.866500,3.862500,-0.866500,$1*%
G04 Aperture macros list end*
%ADD10C,2.000000*%
%ADD11C,3.000000*%
%ADD12C,1.000000*%
%ADD13C,2.500000*%
%ADD14R,1.700000X1.700000*%
%ADD15O,1.700000X1.700000*%
%ADD16C,5.200000*%
%ADD17RoundRect,0.250000X-0.450000X0.350000X-0.450000X-0.350000X0.450000X-0.350000X0.450000X0.350000X0*%
%ADD18RoundRect,0.250000X0.475000X-0.250000X0.475000X0.250000X-0.475000X0.250000X-0.475000X-0.250000X0*%
%ADD19R,2.000000X1.500000*%
%ADD20R,2.000000X3.800000*%
%ADD21RoundRect,0.250000X0.337500X0.475000X-0.337500X0.475000X-0.337500X-0.475000X0.337500X-0.475000X0*%
%ADD22RoundRect,0.250000X-0.475000X0.250000X-0.475000X-0.250000X0.475000X-0.250000X0.475000X0.250000X0*%
%ADD23RoundRect,0.237500X-0.300000X-0.237500X0.300000X-0.237500X0.300000X0.237500X-0.300000X0.237500X0*%
%ADD24RoundRect,0.250000X0.450000X-0.350000X0.450000X0.350000X-0.450000X0.350000X-0.450000X-0.350000X0*%
%ADD25R,0.650000X0.400000*%
%ADD26R,3.600000X1.270000*%
%ADD27R,4.200000X1.350000*%
%ADD28RoundRect,0.237500X0.300000X0.237500X-0.300000X0.237500X-0.300000X-0.237500X0.300000X-0.237500X0*%
%ADD29RoundRect,0.250000X-0.250000X-0.475000X0.250000X-0.475000X0.250000X0.475000X-0.250000X0.475000X0*%
%ADD30RoundRect,0.250000X-0.350000X-0.450000X0.350000X-0.450000X0.350000X0.450000X-0.350000X0.450000X0*%
%ADD31RoundRect,0.250000X0.250000X0.475000X-0.250000X0.475000X-0.250000X-0.475000X0.250000X-0.475000X0*%
%ADD32RoundRect,0.250000X0.475000X-0.337500X0.475000X0.337500X-0.475000X0.337500X-0.475000X-0.337500X0*%
%ADD33RoundRect,0.237500X0.237500X-0.300000X0.237500X0.300000X-0.237500X0.300000X-0.237500X-0.300000X0*%
%ADD34RoundRect,0.250000X0.350000X0.450000X-0.350000X0.450000X-0.350000X-0.450000X0.350000X-0.450000X0*%
%ADD35RoundRect,0.250000X-0.475000X0.337500X-0.475000X-0.337500X0.475000X-0.337500X0.475000X0.337500X0*%
%ADD36RoundRect,0.250000X-0.275000X-0.350000X0.275000X-0.350000X0.275000X0.350000X-0.275000X0.350000X0*%
%ADD37RoundRect,0.150000X0.150000X-0.587500X0.150000X0.587500X-0.150000X0.587500X-0.150000X-0.587500X0*%
%ADD38RoundRect,0.237500X-0.237500X0.300000X-0.237500X-0.300000X0.237500X-0.300000X0.237500X0.300000X0*%
%ADD39RoundRect,0.150000X0.875000X0.150000X-0.875000X0.150000X-0.875000X-0.150000X0.875000X-0.150000X0*%
%ADD40R,0.900000X1.300000*%
%ADD41FreePoly0,90.000000*%
G04 APERTURE END LIST*
D10*
%TO.C,L401*%
X175810000Y-83190000D03*
X168190000Y-90810000D03*
%TD*%
D11*
%TO.C,L403*%
X127380000Y-113000000D03*
D12*
X126190489Y-120392058D03*
X143809511Y-105607942D03*
X126190489Y-105607942D03*
X140750000Y-103040708D03*
X136996954Y-101674711D03*
X146325289Y-114996954D03*
X143809511Y-120392058D03*
X124193535Y-116933232D03*
X144959292Y-107250000D03*
X133003046Y-101674711D03*
X146325289Y-111003046D03*
X127607942Y-104190489D03*
X127607942Y-121809511D03*
X131066768Y-102193535D03*
X129250000Y-122959292D03*
X123674711Y-111003046D03*
X138933232Y-102193535D03*
D11*
X135000000Y-103800000D03*
D12*
X142392058Y-104190489D03*
X129250000Y-103040708D03*
X140750000Y-122959292D03*
X145806465Y-109066768D03*
X138933232Y-123806465D03*
X131066768Y-123806465D03*
X145806465Y-116933232D03*
X125040708Y-118750000D03*
X142392058Y-121809511D03*
X124193535Y-109066768D03*
X144959292Y-118750000D03*
X125040708Y-107250000D03*
X133003046Y-124325289D03*
X136996954Y-124325289D03*
X123674711Y-114996954D03*
%TD*%
D13*
%TO.C,C439*%
X188000000Y-135240000D03*
X193070000Y-130160000D03*
X188000000Y-130160000D03*
%TD*%
%TO.C,C429*%
X111800000Y-109280000D03*
X116870000Y-104200000D03*
X111800000Y-104200000D03*
%TD*%
D11*
%TO.C,L406*%
X173920000Y-113000000D03*
D12*
X162366768Y-102193535D03*
X160550000Y-122959292D03*
X155493535Y-109066768D03*
X156340708Y-107250000D03*
D11*
X166300000Y-122200000D03*
D12*
X177106465Y-116933232D03*
X175109511Y-120392058D03*
X164303046Y-101674711D03*
X176259292Y-107250000D03*
X156340708Y-118750000D03*
X176259292Y-118750000D03*
X173692058Y-104190489D03*
X158907942Y-104190489D03*
X172050000Y-122959292D03*
X168296954Y-101674711D03*
X157490489Y-120392058D03*
X172050000Y-103040708D03*
X173692058Y-121809511D03*
X160550000Y-103040708D03*
X177106465Y-109066768D03*
X154974711Y-111003046D03*
X168296954Y-124325289D03*
X154974711Y-114996954D03*
X175109511Y-105607942D03*
X170233232Y-102193535D03*
X162366768Y-123806465D03*
X177625289Y-111003046D03*
X177625289Y-114996954D03*
X155493535Y-116933232D03*
X164303046Y-124325289D03*
X157490489Y-105607942D03*
X158907942Y-121809511D03*
X170233232Y-123806465D03*
%TD*%
D13*
%TO.C,C444*%
X193730000Y-104860000D03*
X188660000Y-109940000D03*
X188660000Y-104860000D03*
%TD*%
D14*
%TO.C,J404*%
X118300000Y-63900000D03*
D15*
X120840000Y-63900000D03*
X123380000Y-63900000D03*
X125920000Y-63900000D03*
X128460000Y-63900000D03*
X131000000Y-63900000D03*
%TD*%
D11*
%TO.C,L405*%
X174620000Y-142300000D03*
D12*
X168996954Y-130974711D03*
X176959292Y-148050000D03*
X175809511Y-134907942D03*
X161250000Y-152259292D03*
X178325289Y-144296954D03*
X156193535Y-138366768D03*
X176959292Y-136550000D03*
X177806465Y-138366768D03*
X155674711Y-140303046D03*
X172750000Y-132340708D03*
X159607942Y-151109511D03*
X174392058Y-133490489D03*
D11*
X167000000Y-151500000D03*
D12*
X158190489Y-149692058D03*
X170933232Y-153106465D03*
X175809511Y-149692058D03*
X155674711Y-144296954D03*
X157040708Y-148050000D03*
X161250000Y-132340708D03*
X158190489Y-134907942D03*
X165003046Y-130974711D03*
X178325289Y-140303046D03*
X159607942Y-133490489D03*
X174392058Y-151109511D03*
X170933232Y-131493535D03*
X177806465Y-146233232D03*
X156193535Y-146233232D03*
X168996954Y-153625289D03*
X163066768Y-131493535D03*
X165003046Y-153625289D03*
X157040708Y-136550000D03*
X172750000Y-152259292D03*
X163066768Y-153106465D03*
%TD*%
D11*
%TO.C,L404*%
X127580000Y-142700000D03*
D12*
X124393535Y-138766768D03*
X146006465Y-146633232D03*
X146525289Y-144696954D03*
X131266768Y-153506465D03*
X129450000Y-152659292D03*
X145159292Y-136950000D03*
X124393535Y-146633232D03*
X127807942Y-151509511D03*
X144009511Y-150092058D03*
X127807942Y-133890489D03*
D11*
X135200000Y-133500000D03*
D12*
X125240708Y-148450000D03*
X139133232Y-131893535D03*
X133203046Y-154025289D03*
X146525289Y-140703046D03*
X123874711Y-140703046D03*
X140950000Y-152659292D03*
X142592058Y-151509511D03*
X145159292Y-148450000D03*
X131266768Y-131893535D03*
X133203046Y-131374711D03*
X129450000Y-132740708D03*
X137196954Y-131374711D03*
X126390489Y-150092058D03*
X139133232Y-153506465D03*
X126390489Y-135307942D03*
X140950000Y-132740708D03*
X125240708Y-136950000D03*
X137196954Y-154025289D03*
X142592058Y-133890489D03*
X123874711Y-144696954D03*
X146006465Y-138766768D03*
X144009511Y-135307942D03*
%TD*%
D13*
%TO.C,C434*%
X112030000Y-134780000D03*
X117100000Y-129700000D03*
X112030000Y-129700000D03*
%TD*%
D16*
%TO.C,J405*%
X193000000Y-151000000D03*
X193000000Y-65000000D03*
X107000000Y-151000000D03*
X107000000Y-65000000D03*
%TD*%
D17*
%TO.C,R406*%
X129000000Y-69120000D03*
X129000000Y-71120000D03*
%TD*%
D18*
%TO.C,C404*%
X116000000Y-89000000D03*
X116000000Y-87100000D03*
%TD*%
D19*
%TO.C,U405*%
X144650000Y-65460000D03*
D20*
X150950000Y-63160000D03*
D19*
X144650000Y-63160000D03*
X144650000Y-60860000D03*
%TD*%
D21*
%TO.C,C424*%
X193100000Y-89700000D03*
X191025000Y-89700000D03*
%TD*%
D17*
%TO.C,R408*%
X133000000Y-69020000D03*
X133000000Y-71020000D03*
%TD*%
D19*
%TO.C,U403*%
X157400000Y-65700000D03*
D20*
X163700000Y-63400000D03*
D19*
X157400000Y-63400000D03*
X157400000Y-61100000D03*
%TD*%
D18*
%TO.C,C416*%
X174000000Y-77950000D03*
X174000000Y-76050000D03*
%TD*%
D22*
%TO.C,C421*%
X151250000Y-84140000D03*
X151250000Y-86040000D03*
%TD*%
D23*
%TO.C,C442*%
X190000000Y-124000000D03*
X191725000Y-124000000D03*
%TD*%
D24*
%TO.C,R403*%
X113030000Y-72120000D03*
X113030000Y-70120000D03*
%TD*%
D17*
%TO.C,R411*%
X136000000Y-74000000D03*
X136000000Y-76000000D03*
%TD*%
%TO.C,R414*%
X160700000Y-72200000D03*
X160700000Y-74200000D03*
%TD*%
D21*
%TO.C,C411*%
X122847500Y-76000000D03*
X120772500Y-76000000D03*
%TD*%
D25*
%TO.C,U402*%
X115050000Y-92650000D03*
X115050000Y-92000000D03*
X115050000Y-91350000D03*
X116950000Y-91350000D03*
X116950000Y-92000000D03*
X116950000Y-92650000D03*
%TD*%
D21*
%TO.C,C413*%
X192075000Y-77000000D03*
X190000000Y-77000000D03*
%TD*%
D26*
%TO.C,J407*%
X197537500Y-75000000D03*
D27*
X197337500Y-72175000D03*
X197337500Y-77825000D03*
%TD*%
D28*
%TO.C,C435*%
X151862500Y-144000000D03*
X150137500Y-144000000D03*
%TD*%
D25*
%TO.C,U401*%
X116550000Y-84050000D03*
X116550000Y-84700000D03*
X116550000Y-85350000D03*
X114650000Y-85350000D03*
X114650000Y-84700000D03*
X114650000Y-84050000D03*
%TD*%
D26*
%TO.C,J401*%
X102000000Y-94400000D03*
D27*
X102200000Y-91575000D03*
X102200000Y-97225000D03*
%TD*%
D17*
%TO.C,R409*%
X133000000Y-73320000D03*
X133000000Y-75320000D03*
%TD*%
D28*
%TO.C,C427*%
X114862500Y-124000000D03*
X113137500Y-124000000D03*
%TD*%
D26*
%TO.C,J403*%
X102382500Y-74930000D03*
D27*
X102582500Y-72105000D03*
X102582500Y-77755000D03*
%TD*%
D29*
%TO.C,C418*%
X162500000Y-84300000D03*
X164400000Y-84300000D03*
%TD*%
D30*
%TO.C,R416*%
X150400000Y-88900000D03*
X152400000Y-88900000D03*
%TD*%
D24*
%TO.C,R401*%
X116840000Y-72120000D03*
X116840000Y-70120000D03*
%TD*%
D31*
%TO.C,C415*%
X169600000Y-72100000D03*
X167700000Y-72100000D03*
%TD*%
D25*
%TO.C,U407*%
X176100000Y-75000000D03*
X176100000Y-74350000D03*
X176100000Y-73700000D03*
X178000000Y-73700000D03*
X178000000Y-74350000D03*
X178000000Y-75000000D03*
%TD*%
%TO.C,U404*%
X185150000Y-94050000D03*
X185150000Y-94700000D03*
X185150000Y-95350000D03*
X183250000Y-95350000D03*
X183250000Y-94700000D03*
X183250000Y-94050000D03*
%TD*%
D32*
%TO.C,C409*%
X139962500Y-71037500D03*
X139962500Y-68962500D03*
%TD*%
D33*
%TO.C,C438*%
X188000000Y-140862500D03*
X188000000Y-139137500D03*
%TD*%
D29*
%TO.C,C419*%
X156050000Y-83000000D03*
X157950000Y-83000000D03*
%TD*%
D32*
%TO.C,C423*%
X156100000Y-74175000D03*
X156100000Y-72100000D03*
%TD*%
D24*
%TO.C,R405*%
X109220000Y-72120000D03*
X109220000Y-70120000D03*
%TD*%
D34*
%TO.C,R415*%
X148000000Y-89000000D03*
X146000000Y-89000000D03*
%TD*%
D18*
%TO.C,C403*%
X116900000Y-80350000D03*
X116900000Y-78450000D03*
%TD*%
D35*
%TO.C,C407*%
X139000000Y-89962500D03*
X139000000Y-92037500D03*
%TD*%
D34*
%TO.C,R417*%
X153000000Y-92300000D03*
X151000000Y-92300000D03*
%TD*%
D26*
%TO.C,J406*%
X197537500Y-93980000D03*
D27*
X197337500Y-91155000D03*
X197337500Y-96805000D03*
%TD*%
D33*
%TO.C,C431*%
X118000000Y-139862500D03*
X118000000Y-138137500D03*
%TD*%
D25*
%TO.C,U409*%
X191000000Y-86000000D03*
X191000000Y-85350000D03*
X191000000Y-84700000D03*
X192900000Y-84700000D03*
X192900000Y-85350000D03*
X192900000Y-86000000D03*
%TD*%
D29*
%TO.C,C412*%
X186800000Y-89700000D03*
X188700000Y-89700000D03*
%TD*%
D30*
%TO.C,R402*%
X114840000Y-74760000D03*
X116840000Y-74760000D03*
%TD*%
D36*
%TO.C,L402*%
X144900000Y-74930000D03*
X147200000Y-74930000D03*
%TD*%
D17*
%TO.C,R410*%
X136420000Y-69000000D03*
X136420000Y-71000000D03*
%TD*%
D37*
%TO.C,D401*%
X188950000Y-72937500D03*
X187050000Y-72937500D03*
X188000000Y-71062500D03*
%TD*%
D29*
%TO.C,C410*%
X190050000Y-94100000D03*
X191950000Y-94100000D03*
%TD*%
D22*
%TO.C,C420*%
X145000000Y-79050000D03*
X145000000Y-80950000D03*
%TD*%
D38*
%TO.C,C446*%
X190300000Y-98700000D03*
X190300000Y-100425000D03*
%TD*%
D35*
%TO.C,C405*%
X127000000Y-90805000D03*
X127000000Y-92880000D03*
%TD*%
D39*
%TO.C,U406*%
X135460000Y-79375000D03*
X135460000Y-80645000D03*
X135460000Y-81915000D03*
X135460000Y-83185000D03*
X135460000Y-84455000D03*
X135460000Y-85725000D03*
X135460000Y-86995000D03*
X135460000Y-88265000D03*
X126160000Y-88265000D03*
X126160000Y-86995000D03*
X126160000Y-85725000D03*
X126160000Y-84455000D03*
X126160000Y-83185000D03*
X126160000Y-81915000D03*
X126160000Y-80645000D03*
X126160000Y-79375000D03*
%TD*%
D33*
%TO.C,C425*%
X114000000Y-97862500D03*
X114000000Y-96137500D03*
%TD*%
D21*
%TO.C,C422*%
X157247500Y-92000000D03*
X155172500Y-92000000D03*
%TD*%
D33*
%TO.C,C443*%
X189000000Y-116000000D03*
X189000000Y-114275000D03*
%TD*%
D26*
%TO.C,J402*%
X102000000Y-114000000D03*
D27*
X102200000Y-111175000D03*
X102200000Y-116825000D03*
%TD*%
D34*
%TO.C,R413*%
X165200000Y-72100000D03*
X163200000Y-72100000D03*
%TD*%
D35*
%TO.C,C408*%
X144000000Y-83962500D03*
X144000000Y-86037500D03*
%TD*%
%TO.C,C406*%
X123000000Y-89962500D03*
X123000000Y-92037500D03*
%TD*%
D22*
%TO.C,C402*%
X106950000Y-104050000D03*
X106950000Y-105950000D03*
%TD*%
D21*
%TO.C,C414*%
X184037500Y-72000000D03*
X181962500Y-72000000D03*
%TD*%
D38*
%TO.C,C445*%
X184000000Y-106137500D03*
X184000000Y-107862500D03*
%TD*%
%TO.C,C441*%
X185000000Y-124275000D03*
X185000000Y-126000000D03*
%TD*%
D30*
%TO.C,R404*%
X109640000Y-74760000D03*
X111640000Y-74760000D03*
%TD*%
D33*
%TO.C,C430*%
X120000000Y-127000000D03*
X120000000Y-125275000D03*
%TD*%
D17*
%TO.C,R412*%
X169200000Y-74400000D03*
X169200000Y-76400000D03*
%TD*%
D33*
%TO.C,C433*%
X112000000Y-140862500D03*
X112000000Y-139137500D03*
%TD*%
D38*
%TO.C,C432*%
X118000000Y-143137500D03*
X118000000Y-144862500D03*
%TD*%
D33*
%TO.C,C426*%
X120000000Y-108000000D03*
X120000000Y-106275000D03*
%TD*%
D29*
%TO.C,C417*%
X177050000Y-78000000D03*
X178950000Y-78000000D03*
%TD*%
D33*
%TO.C,C428*%
X112700000Y-116025000D03*
X112700000Y-114300000D03*
%TD*%
D28*
%TO.C,C436*%
X151862500Y-141000000D03*
X150137500Y-141000000D03*
%TD*%
D17*
%TO.C,R407*%
X129000000Y-73320000D03*
X129000000Y-75320000D03*
%TD*%
D31*
%TO.C,C401*%
X108100000Y-88600000D03*
X106200000Y-88600000D03*
%TD*%
D38*
%TO.C,C440*%
X184000000Y-138275000D03*
X184000000Y-140000000D03*
%TD*%
%TO.C,C437*%
X184000000Y-143000000D03*
X184000000Y-144725000D03*
%TD*%
D40*
%TO.C,U408*%
X154100000Y-80450000D03*
D41*
X152600000Y-80362500D03*
D40*
X151100000Y-80450000D03*
%TD*%
M02*
