M48
; DRILL file {KiCad 7.0.7} date Fri Nov  3 16:15:29 2023
; FORMAT={-:-/ absolute / inch / decimal}
; #@! TF.CreationDate,2023-11-03T16:15:29+00:00
; #@! TF.GenerationSoftware,Kicad,Pcbnew,7.0.7
; #@! TF.FileFunction,Plated,1,4,PTH
FMAT,2
INCH
; #@! TA.AperFunction,Plated,PTH,ViaDrill
T1C0.0157
; #@! TA.AperFunction,Plated,PTH,ComponentDrill
T2C0.0197
; #@! TA.AperFunction,Plated,PTH,ComponentDrill
T3C0.0394
; #@! TA.AperFunction,Plated,PTH,ComponentDrill
T4C0.0512
; #@! TA.AperFunction,Plated,PTH,ComponentDrill
T5C0.0591
; #@! TA.AperFunction,Plated,PTH,ComponentDrill
T6C0.1260
%
G90
G05
T1
X4.0157Y-4.2913
X4.0157Y-4.685
X4.05Y-2.7559
X4.05Y-3.1496
X4.0551Y-3.5039
X4.0551Y-3.937
X4.3Y-2.7
X4.3701Y-4.8933
X4.45Y-2.7
X4.4882Y-3.622
X4.6Y-2.7008
X4.65Y-3.35
X4.8819Y-3.2283
X5.0Y-3.0315
X5.0Y-3.7402
X5.0787Y-3.0315
X5.2758Y-3.0313
X5.35Y-3.55
X5.3543Y-3.066
X5.4972Y-3.2137
X5.5118Y-2.5984
X5.5264Y-3.243
X5.6693Y-2.6772
X5.748Y-3.3858
X5.7717Y-3.189
X6.0236Y-2.9528
X6.2949Y-2.6461
X6.35Y-2.95
X6.4949Y-3.3138
X6.7Y-3.0
X6.8978Y-2.9272
X6.9685Y-2.7559
X7.0472Y-2.6772
X7.0866Y-3.0709
X7.3622Y-3.729
X7.45Y-3.35
X7.5984Y-4.8819
X7.6378Y-3.3858
X7.6772Y-3.3071
X7.7559Y-2.7559
X7.7559Y-3.1102
X7.7906Y-3.85
X7.7925Y-3.55
T2
X4.8691Y-4.3702
X4.8691Y-4.5274
X4.877Y-5.5395
X4.877Y-5.6967
X4.8895Y-4.294
X4.8895Y-4.6037
X4.8974Y-5.4633
X4.8974Y-5.773
X4.9229Y-4.2224
X4.9229Y-4.6752
X4.9307Y-5.3917
X4.9307Y-5.8445
X4.9681Y-4.1578
X4.9681Y-4.7398
X4.976Y-5.3271
X4.976Y-5.9091
X5.0239Y-4.102
X5.0239Y-4.7957
X5.0318Y-5.2713
X5.0318Y-5.9649
X5.0886Y-4.0567
X5.0886Y-4.8409
X5.0965Y-5.226
X5.0965Y-6.0102
X5.1601Y-4.0234
X5.1601Y-4.8743
X5.168Y-5.1927
X5.168Y-6.0436
X5.2363Y-4.0029
X5.2363Y-4.8947
X5.2442Y-5.1722
X5.2442Y-6.064
X5.3936Y-4.0029
X5.3936Y-4.8947
X5.4015Y-5.1722
X5.4015Y-6.064
X5.4698Y-4.0234
X5.4698Y-4.8743
X5.4777Y-5.1927
X5.4777Y-6.0436
X5.5413Y-4.0567
X5.5413Y-4.8409
X5.5492Y-5.226
X5.5492Y-6.0102
X5.606Y-4.102
X5.606Y-4.7957
X5.6139Y-5.2713
X5.6139Y-5.9649
X5.6618Y-4.1578
X5.6618Y-4.7398
X5.6697Y-5.3271
X5.6697Y-5.9091
X5.7071Y-4.2224
X5.7071Y-4.6752
X5.7149Y-5.3917
X5.7149Y-5.8445
X5.7404Y-4.294
X5.7404Y-4.6037
X5.7483Y-5.4633
X5.7483Y-5.773
X5.7608Y-4.3702
X5.7608Y-4.5274
X5.7687Y-5.5395
X5.7687Y-5.6967
X6.1014Y-4.3702
X6.1014Y-4.5274
X6.1218Y-4.294
X6.1218Y-4.6037
X6.1289Y-5.5237
X6.1289Y-5.681
X6.1494Y-5.4475
X6.1494Y-5.7572
X6.1551Y-4.2224
X6.1551Y-4.6752
X6.1827Y-5.376
X6.1827Y-5.8287
X6.2004Y-4.1578
X6.2004Y-4.7398
X6.228Y-5.3113
X6.228Y-5.8934
X6.2562Y-4.102
X6.2562Y-4.7957
X6.2838Y-5.2555
X6.2838Y-5.9492
X6.3209Y-4.0567
X6.3209Y-4.8409
X6.3484Y-5.2103
X6.3484Y-5.9945
X6.3924Y-4.0234
X6.3924Y-4.8743
X6.42Y-5.1769
X6.42Y-6.0278
X6.4686Y-4.0029
X6.4686Y-4.8947
X6.4962Y-5.1565
X6.4962Y-6.0482
X6.6259Y-4.0029
X6.6259Y-4.8947
X6.6534Y-5.1565
X6.6534Y-6.0482
X6.7021Y-4.0234
X6.7021Y-4.8743
X6.7297Y-5.1769
X6.7297Y-6.0278
X6.7736Y-4.0567
X6.7736Y-4.8409
X6.8012Y-5.2103
X6.8012Y-5.9945
X6.8383Y-4.102
X6.8383Y-4.7957
X6.8658Y-5.2555
X6.8658Y-5.9492
X6.8941Y-4.1578
X6.8941Y-4.7398
X6.9216Y-5.3113
X6.9216Y-5.8934
X6.9393Y-4.2224
X6.9393Y-4.6752
X6.9669Y-5.376
X6.9669Y-5.8287
X6.9727Y-4.294
X6.9727Y-4.6037
X6.9931Y-4.3702
X6.9931Y-4.5274
X7.0003Y-5.4475
X7.0003Y-5.7572
X7.0207Y-5.5237
X7.0207Y-5.681
T3
X4.6575Y-2.5157
X4.7575Y-2.5157
X4.8575Y-2.5157
X4.9575Y-2.5157
X5.0575Y-2.5157
X5.1575Y-2.5157
X6.6217Y-3.5752
X6.9217Y-3.2752
T4
X4.4016Y-4.1024
X4.4016Y-4.3024
X4.4106Y-5.1063
X4.4106Y-5.3063
X4.6012Y-4.1024
X4.6102Y-5.1063
X7.4016Y-5.1244
X7.4016Y-5.3244
X7.4276Y-4.1283
X7.4276Y-4.3283
X7.6012Y-5.1244
X7.6272Y-4.1283
T5
X5.015Y-4.4488
X5.0228Y-5.6181
X5.315Y-4.0866
X5.3228Y-5.2559
X6.5472Y-4.811
X6.5748Y-5.9646
X6.8472Y-4.4488
X6.8748Y-5.6024
T6
X4.2126Y-2.5591
X4.2126Y-5.9449
X7.5984Y-2.5591
X7.5984Y-5.9449
T0
M30
