%TF.GenerationSoftware,KiCad,Pcbnew,7.0.7*%
%TF.CreationDate,2023-11-03T16:15:28+00:00*%
%TF.ProjectId,RXLNA,52584c4e-412e-46b6-9963-61645f706362,rev?*%
%TF.SameCoordinates,Original*%
%TF.FileFunction,Legend,Bot*%
%TF.FilePolarity,Positive*%
%FSLAX46Y46*%
G04 Gerber Fmt 4.6, Leading zero omitted, Abs format (unit mm)*
G04 Created by KiCad (PCBNEW 7.0.7) date 2023-11-03 16:15:28*
%MOMM*%
%LPD*%
G01*
G04 APERTURE LIST*
G04 Aperture macros list*
%AMRoundRect*
0 Rectangle with rounded corners*
0 $1 Rounding radius*
0 $2 $3 $4 $5 $6 $7 $8 $9 X,Y pos of 4 corners*
0 Add a 4 corners polygon primitive as box body*
4,1,4,$2,$3,$4,$5,$6,$7,$8,$9,$2,$3,0*
0 Add four circle primitives for the rounded corners*
1,1,$1+$1,$2,$3*
1,1,$1+$1,$4,$5*
1,1,$1+$1,$6,$7*
1,1,$1+$1,$8,$9*
0 Add four rect primitives between the rounded corners*
20,1,$1+$1,$2,$3,$4,$5,0*
20,1,$1+$1,$4,$5,$6,$7,0*
20,1,$1+$1,$6,$7,$8,$9,0*
20,1,$1+$1,$8,$9,$2,$3,0*%
%AMFreePoly0*
4,1,9,3.862500,-0.866500,0.737500,-0.866500,0.737500,-0.450000,-0.737500,-0.450000,-0.737500,0.450000,0.737500,0.450000,0.737500,0.866500,3.862500,0.866500,3.862500,-0.866500,3.862500,-0.866500,$1*%
G04 Aperture macros list end*
%ADD10C,0.150000*%
%ADD11C,0.120000*%
%ADD12C,2.000000*%
%ADD13C,3.000000*%
%ADD14C,1.000000*%
%ADD15C,2.500000*%
%ADD16R,1.700000X1.700000*%
%ADD17O,1.700000X1.700000*%
%ADD18C,5.200000*%
%ADD19RoundRect,0.250000X-0.450000X0.350000X-0.450000X-0.350000X0.450000X-0.350000X0.450000X0.350000X0*%
%ADD20RoundRect,0.250000X0.475000X-0.250000X0.475000X0.250000X-0.475000X0.250000X-0.475000X-0.250000X0*%
%ADD21R,2.000000X1.500000*%
%ADD22R,2.000000X3.800000*%
%ADD23RoundRect,0.250000X0.337500X0.475000X-0.337500X0.475000X-0.337500X-0.475000X0.337500X-0.475000X0*%
%ADD24RoundRect,0.250000X-0.475000X0.250000X-0.475000X-0.250000X0.475000X-0.250000X0.475000X0.250000X0*%
%ADD25RoundRect,0.237500X-0.300000X-0.237500X0.300000X-0.237500X0.300000X0.237500X-0.300000X0.237500X0*%
%ADD26RoundRect,0.250000X0.450000X-0.350000X0.450000X0.350000X-0.450000X0.350000X-0.450000X-0.350000X0*%
%ADD27R,0.650000X0.400000*%
%ADD28R,3.600000X1.270000*%
%ADD29R,4.200000X1.350000*%
%ADD30RoundRect,0.237500X0.300000X0.237500X-0.300000X0.237500X-0.300000X-0.237500X0.300000X-0.237500X0*%
%ADD31RoundRect,0.250000X-0.250000X-0.475000X0.250000X-0.475000X0.250000X0.475000X-0.250000X0.475000X0*%
%ADD32RoundRect,0.250000X-0.350000X-0.450000X0.350000X-0.450000X0.350000X0.450000X-0.350000X0.450000X0*%
%ADD33RoundRect,0.250000X0.250000X0.475000X-0.250000X0.475000X-0.250000X-0.475000X0.250000X-0.475000X0*%
%ADD34RoundRect,0.250000X0.475000X-0.337500X0.475000X0.337500X-0.475000X0.337500X-0.475000X-0.337500X0*%
%ADD35RoundRect,0.237500X0.237500X-0.300000X0.237500X0.300000X-0.237500X0.300000X-0.237500X-0.300000X0*%
%ADD36RoundRect,0.250000X0.350000X0.450000X-0.350000X0.450000X-0.350000X-0.450000X0.350000X-0.450000X0*%
%ADD37RoundRect,0.250000X-0.475000X0.337500X-0.475000X-0.337500X0.475000X-0.337500X0.475000X0.337500X0*%
%ADD38RoundRect,0.250000X-0.275000X-0.350000X0.275000X-0.350000X0.275000X0.350000X-0.275000X0.350000X0*%
%ADD39RoundRect,0.150000X0.150000X-0.587500X0.150000X0.587500X-0.150000X0.587500X-0.150000X-0.587500X0*%
%ADD40RoundRect,0.237500X-0.237500X0.300000X-0.237500X-0.300000X0.237500X-0.300000X0.237500X0.300000X0*%
%ADD41RoundRect,0.150000X0.875000X0.150000X-0.875000X0.150000X-0.875000X-0.150000X0.875000X-0.150000X0*%
%ADD42R,0.900000X1.300000*%
%ADD43FreePoly0,90.000000*%
G04 APERTURE END LIST*
D10*
X126914819Y-68880952D02*
X126438628Y-68547619D01*
X126914819Y-68309524D02*
X125914819Y-68309524D01*
X125914819Y-68309524D02*
X125914819Y-68690476D01*
X125914819Y-68690476D02*
X125962438Y-68785714D01*
X125962438Y-68785714D02*
X126010057Y-68833333D01*
X126010057Y-68833333D02*
X126105295Y-68880952D01*
X126105295Y-68880952D02*
X126248152Y-68880952D01*
X126248152Y-68880952D02*
X126343390Y-68833333D01*
X126343390Y-68833333D02*
X126391009Y-68785714D01*
X126391009Y-68785714D02*
X126438628Y-68690476D01*
X126438628Y-68690476D02*
X126438628Y-68309524D01*
X126248152Y-69738095D02*
X126914819Y-69738095D01*
X125867200Y-69500000D02*
X126581485Y-69261905D01*
X126581485Y-69261905D02*
X126581485Y-69880952D01*
X125914819Y-70452381D02*
X125914819Y-70547619D01*
X125914819Y-70547619D02*
X125962438Y-70642857D01*
X125962438Y-70642857D02*
X126010057Y-70690476D01*
X126010057Y-70690476D02*
X126105295Y-70738095D01*
X126105295Y-70738095D02*
X126295771Y-70785714D01*
X126295771Y-70785714D02*
X126533866Y-70785714D01*
X126533866Y-70785714D02*
X126724342Y-70738095D01*
X126724342Y-70738095D02*
X126819580Y-70690476D01*
X126819580Y-70690476D02*
X126867200Y-70642857D01*
X126867200Y-70642857D02*
X126914819Y-70547619D01*
X126914819Y-70547619D02*
X126914819Y-70452381D01*
X126914819Y-70452381D02*
X126867200Y-70357143D01*
X126867200Y-70357143D02*
X126819580Y-70309524D01*
X126819580Y-70309524D02*
X126724342Y-70261905D01*
X126724342Y-70261905D02*
X126533866Y-70214286D01*
X126533866Y-70214286D02*
X126295771Y-70214286D01*
X126295771Y-70214286D02*
X126105295Y-70261905D01*
X126105295Y-70261905D02*
X126010057Y-70309524D01*
X126010057Y-70309524D02*
X125962438Y-70357143D01*
X125962438Y-70357143D02*
X125914819Y-70452381D01*
X125914819Y-71642857D02*
X125914819Y-71452381D01*
X125914819Y-71452381D02*
X125962438Y-71357143D01*
X125962438Y-71357143D02*
X126010057Y-71309524D01*
X126010057Y-71309524D02*
X126152914Y-71214286D01*
X126152914Y-71214286D02*
X126343390Y-71166667D01*
X126343390Y-71166667D02*
X126724342Y-71166667D01*
X126724342Y-71166667D02*
X126819580Y-71214286D01*
X126819580Y-71214286D02*
X126867200Y-71261905D01*
X126867200Y-71261905D02*
X126914819Y-71357143D01*
X126914819Y-71357143D02*
X126914819Y-71547619D01*
X126914819Y-71547619D02*
X126867200Y-71642857D01*
X126867200Y-71642857D02*
X126819580Y-71690476D01*
X126819580Y-71690476D02*
X126724342Y-71738095D01*
X126724342Y-71738095D02*
X126486247Y-71738095D01*
X126486247Y-71738095D02*
X126391009Y-71690476D01*
X126391009Y-71690476D02*
X126343390Y-71642857D01*
X126343390Y-71642857D02*
X126295771Y-71547619D01*
X126295771Y-71547619D02*
X126295771Y-71357143D01*
X126295771Y-71357143D02*
X126343390Y-71261905D01*
X126343390Y-71261905D02*
X126391009Y-71214286D01*
X126391009Y-71214286D02*
X126486247Y-71166667D01*
X118039580Y-86930952D02*
X118087200Y-86883333D01*
X118087200Y-86883333D02*
X118134819Y-86740476D01*
X118134819Y-86740476D02*
X118134819Y-86645238D01*
X118134819Y-86645238D02*
X118087200Y-86502381D01*
X118087200Y-86502381D02*
X117991961Y-86407143D01*
X117991961Y-86407143D02*
X117896723Y-86359524D01*
X117896723Y-86359524D02*
X117706247Y-86311905D01*
X117706247Y-86311905D02*
X117563390Y-86311905D01*
X117563390Y-86311905D02*
X117372914Y-86359524D01*
X117372914Y-86359524D02*
X117277676Y-86407143D01*
X117277676Y-86407143D02*
X117182438Y-86502381D01*
X117182438Y-86502381D02*
X117134819Y-86645238D01*
X117134819Y-86645238D02*
X117134819Y-86740476D01*
X117134819Y-86740476D02*
X117182438Y-86883333D01*
X117182438Y-86883333D02*
X117230057Y-86930952D01*
X117468152Y-87788095D02*
X118134819Y-87788095D01*
X117087200Y-87550000D02*
X117801485Y-87311905D01*
X117801485Y-87311905D02*
X117801485Y-87930952D01*
X117134819Y-88502381D02*
X117134819Y-88597619D01*
X117134819Y-88597619D02*
X117182438Y-88692857D01*
X117182438Y-88692857D02*
X117230057Y-88740476D01*
X117230057Y-88740476D02*
X117325295Y-88788095D01*
X117325295Y-88788095D02*
X117515771Y-88835714D01*
X117515771Y-88835714D02*
X117753866Y-88835714D01*
X117753866Y-88835714D02*
X117944342Y-88788095D01*
X117944342Y-88788095D02*
X118039580Y-88740476D01*
X118039580Y-88740476D02*
X118087200Y-88692857D01*
X118087200Y-88692857D02*
X118134819Y-88597619D01*
X118134819Y-88597619D02*
X118134819Y-88502381D01*
X118134819Y-88502381D02*
X118087200Y-88407143D01*
X118087200Y-88407143D02*
X118039580Y-88359524D01*
X118039580Y-88359524D02*
X117944342Y-88311905D01*
X117944342Y-88311905D02*
X117753866Y-88264286D01*
X117753866Y-88264286D02*
X117515771Y-88264286D01*
X117515771Y-88264286D02*
X117325295Y-88311905D01*
X117325295Y-88311905D02*
X117230057Y-88359524D01*
X117230057Y-88359524D02*
X117182438Y-88407143D01*
X117182438Y-88407143D02*
X117134819Y-88502381D01*
X117468152Y-89692857D02*
X118134819Y-89692857D01*
X117087200Y-89454762D02*
X117801485Y-89216667D01*
X117801485Y-89216667D02*
X117801485Y-89835714D01*
X154284285Y-59354819D02*
X154284285Y-60164342D01*
X154284285Y-60164342D02*
X154236666Y-60259580D01*
X154236666Y-60259580D02*
X154189047Y-60307200D01*
X154189047Y-60307200D02*
X154093809Y-60354819D01*
X154093809Y-60354819D02*
X153903333Y-60354819D01*
X153903333Y-60354819D02*
X153808095Y-60307200D01*
X153808095Y-60307200D02*
X153760476Y-60259580D01*
X153760476Y-60259580D02*
X153712857Y-60164342D01*
X153712857Y-60164342D02*
X153712857Y-59354819D01*
X152808095Y-59688152D02*
X152808095Y-60354819D01*
X153046190Y-59307200D02*
X153284285Y-60021485D01*
X153284285Y-60021485D02*
X152665238Y-60021485D01*
X152093809Y-59354819D02*
X151998571Y-59354819D01*
X151998571Y-59354819D02*
X151903333Y-59402438D01*
X151903333Y-59402438D02*
X151855714Y-59450057D01*
X151855714Y-59450057D02*
X151808095Y-59545295D01*
X151808095Y-59545295D02*
X151760476Y-59735771D01*
X151760476Y-59735771D02*
X151760476Y-59973866D01*
X151760476Y-59973866D02*
X151808095Y-60164342D01*
X151808095Y-60164342D02*
X151855714Y-60259580D01*
X151855714Y-60259580D02*
X151903333Y-60307200D01*
X151903333Y-60307200D02*
X151998571Y-60354819D01*
X151998571Y-60354819D02*
X152093809Y-60354819D01*
X152093809Y-60354819D02*
X152189047Y-60307200D01*
X152189047Y-60307200D02*
X152236666Y-60259580D01*
X152236666Y-60259580D02*
X152284285Y-60164342D01*
X152284285Y-60164342D02*
X152331904Y-59973866D01*
X152331904Y-59973866D02*
X152331904Y-59735771D01*
X152331904Y-59735771D02*
X152284285Y-59545295D01*
X152284285Y-59545295D02*
X152236666Y-59450057D01*
X152236666Y-59450057D02*
X152189047Y-59402438D01*
X152189047Y-59402438D02*
X152093809Y-59354819D01*
X150855714Y-59354819D02*
X151331904Y-59354819D01*
X151331904Y-59354819D02*
X151379523Y-59831009D01*
X151379523Y-59831009D02*
X151331904Y-59783390D01*
X151331904Y-59783390D02*
X151236666Y-59735771D01*
X151236666Y-59735771D02*
X150998571Y-59735771D01*
X150998571Y-59735771D02*
X150903333Y-59783390D01*
X150903333Y-59783390D02*
X150855714Y-59831009D01*
X150855714Y-59831009D02*
X150808095Y-59926247D01*
X150808095Y-59926247D02*
X150808095Y-60164342D01*
X150808095Y-60164342D02*
X150855714Y-60259580D01*
X150855714Y-60259580D02*
X150903333Y-60307200D01*
X150903333Y-60307200D02*
X150998571Y-60354819D01*
X150998571Y-60354819D02*
X151236666Y-60354819D01*
X151236666Y-60354819D02*
X151331904Y-60307200D01*
X151331904Y-60307200D02*
X151379523Y-60259580D01*
X190119047Y-88379580D02*
X190166666Y-88427200D01*
X190166666Y-88427200D02*
X190309523Y-88474819D01*
X190309523Y-88474819D02*
X190404761Y-88474819D01*
X190404761Y-88474819D02*
X190547618Y-88427200D01*
X190547618Y-88427200D02*
X190642856Y-88331961D01*
X190642856Y-88331961D02*
X190690475Y-88236723D01*
X190690475Y-88236723D02*
X190738094Y-88046247D01*
X190738094Y-88046247D02*
X190738094Y-87903390D01*
X190738094Y-87903390D02*
X190690475Y-87712914D01*
X190690475Y-87712914D02*
X190642856Y-87617676D01*
X190642856Y-87617676D02*
X190547618Y-87522438D01*
X190547618Y-87522438D02*
X190404761Y-87474819D01*
X190404761Y-87474819D02*
X190309523Y-87474819D01*
X190309523Y-87474819D02*
X190166666Y-87522438D01*
X190166666Y-87522438D02*
X190119047Y-87570057D01*
X189261904Y-87808152D02*
X189261904Y-88474819D01*
X189499999Y-87427200D02*
X189738094Y-88141485D01*
X189738094Y-88141485D02*
X189119047Y-88141485D01*
X188785713Y-87570057D02*
X188738094Y-87522438D01*
X188738094Y-87522438D02*
X188642856Y-87474819D01*
X188642856Y-87474819D02*
X188404761Y-87474819D01*
X188404761Y-87474819D02*
X188309523Y-87522438D01*
X188309523Y-87522438D02*
X188261904Y-87570057D01*
X188261904Y-87570057D02*
X188214285Y-87665295D01*
X188214285Y-87665295D02*
X188214285Y-87760533D01*
X188214285Y-87760533D02*
X188261904Y-87903390D01*
X188261904Y-87903390D02*
X188833332Y-88474819D01*
X188833332Y-88474819D02*
X188214285Y-88474819D01*
X187357142Y-87808152D02*
X187357142Y-88474819D01*
X187595237Y-87427200D02*
X187833332Y-88141485D01*
X187833332Y-88141485D02*
X187214285Y-88141485D01*
X131454819Y-68900952D02*
X130978628Y-68567619D01*
X131454819Y-68329524D02*
X130454819Y-68329524D01*
X130454819Y-68329524D02*
X130454819Y-68710476D01*
X130454819Y-68710476D02*
X130502438Y-68805714D01*
X130502438Y-68805714D02*
X130550057Y-68853333D01*
X130550057Y-68853333D02*
X130645295Y-68900952D01*
X130645295Y-68900952D02*
X130788152Y-68900952D01*
X130788152Y-68900952D02*
X130883390Y-68853333D01*
X130883390Y-68853333D02*
X130931009Y-68805714D01*
X130931009Y-68805714D02*
X130978628Y-68710476D01*
X130978628Y-68710476D02*
X130978628Y-68329524D01*
X130788152Y-69758095D02*
X131454819Y-69758095D01*
X130407200Y-69520000D02*
X131121485Y-69281905D01*
X131121485Y-69281905D02*
X131121485Y-69900952D01*
X130454819Y-70472381D02*
X130454819Y-70567619D01*
X130454819Y-70567619D02*
X130502438Y-70662857D01*
X130502438Y-70662857D02*
X130550057Y-70710476D01*
X130550057Y-70710476D02*
X130645295Y-70758095D01*
X130645295Y-70758095D02*
X130835771Y-70805714D01*
X130835771Y-70805714D02*
X131073866Y-70805714D01*
X131073866Y-70805714D02*
X131264342Y-70758095D01*
X131264342Y-70758095D02*
X131359580Y-70710476D01*
X131359580Y-70710476D02*
X131407200Y-70662857D01*
X131407200Y-70662857D02*
X131454819Y-70567619D01*
X131454819Y-70567619D02*
X131454819Y-70472381D01*
X131454819Y-70472381D02*
X131407200Y-70377143D01*
X131407200Y-70377143D02*
X131359580Y-70329524D01*
X131359580Y-70329524D02*
X131264342Y-70281905D01*
X131264342Y-70281905D02*
X131073866Y-70234286D01*
X131073866Y-70234286D02*
X130835771Y-70234286D01*
X130835771Y-70234286D02*
X130645295Y-70281905D01*
X130645295Y-70281905D02*
X130550057Y-70329524D01*
X130550057Y-70329524D02*
X130502438Y-70377143D01*
X130502438Y-70377143D02*
X130454819Y-70472381D01*
X130883390Y-71377143D02*
X130835771Y-71281905D01*
X130835771Y-71281905D02*
X130788152Y-71234286D01*
X130788152Y-71234286D02*
X130692914Y-71186667D01*
X130692914Y-71186667D02*
X130645295Y-71186667D01*
X130645295Y-71186667D02*
X130550057Y-71234286D01*
X130550057Y-71234286D02*
X130502438Y-71281905D01*
X130502438Y-71281905D02*
X130454819Y-71377143D01*
X130454819Y-71377143D02*
X130454819Y-71567619D01*
X130454819Y-71567619D02*
X130502438Y-71662857D01*
X130502438Y-71662857D02*
X130550057Y-71710476D01*
X130550057Y-71710476D02*
X130645295Y-71758095D01*
X130645295Y-71758095D02*
X130692914Y-71758095D01*
X130692914Y-71758095D02*
X130788152Y-71710476D01*
X130788152Y-71710476D02*
X130835771Y-71662857D01*
X130835771Y-71662857D02*
X130883390Y-71567619D01*
X130883390Y-71567619D02*
X130883390Y-71377143D01*
X130883390Y-71377143D02*
X130931009Y-71281905D01*
X130931009Y-71281905D02*
X130978628Y-71234286D01*
X130978628Y-71234286D02*
X131073866Y-71186667D01*
X131073866Y-71186667D02*
X131264342Y-71186667D01*
X131264342Y-71186667D02*
X131359580Y-71234286D01*
X131359580Y-71234286D02*
X131407200Y-71281905D01*
X131407200Y-71281905D02*
X131454819Y-71377143D01*
X131454819Y-71377143D02*
X131454819Y-71567619D01*
X131454819Y-71567619D02*
X131407200Y-71662857D01*
X131407200Y-71662857D02*
X131359580Y-71710476D01*
X131359580Y-71710476D02*
X131264342Y-71758095D01*
X131264342Y-71758095D02*
X131073866Y-71758095D01*
X131073866Y-71758095D02*
X130978628Y-71710476D01*
X130978628Y-71710476D02*
X130931009Y-71662857D01*
X130931009Y-71662857D02*
X130883390Y-71567619D01*
X162264285Y-67354819D02*
X162264285Y-68164342D01*
X162264285Y-68164342D02*
X162216666Y-68259580D01*
X162216666Y-68259580D02*
X162169047Y-68307200D01*
X162169047Y-68307200D02*
X162073809Y-68354819D01*
X162073809Y-68354819D02*
X161883333Y-68354819D01*
X161883333Y-68354819D02*
X161788095Y-68307200D01*
X161788095Y-68307200D02*
X161740476Y-68259580D01*
X161740476Y-68259580D02*
X161692857Y-68164342D01*
X161692857Y-68164342D02*
X161692857Y-67354819D01*
X160788095Y-67688152D02*
X160788095Y-68354819D01*
X161026190Y-67307200D02*
X161264285Y-68021485D01*
X161264285Y-68021485D02*
X160645238Y-68021485D01*
X160073809Y-67354819D02*
X159978571Y-67354819D01*
X159978571Y-67354819D02*
X159883333Y-67402438D01*
X159883333Y-67402438D02*
X159835714Y-67450057D01*
X159835714Y-67450057D02*
X159788095Y-67545295D01*
X159788095Y-67545295D02*
X159740476Y-67735771D01*
X159740476Y-67735771D02*
X159740476Y-67973866D01*
X159740476Y-67973866D02*
X159788095Y-68164342D01*
X159788095Y-68164342D02*
X159835714Y-68259580D01*
X159835714Y-68259580D02*
X159883333Y-68307200D01*
X159883333Y-68307200D02*
X159978571Y-68354819D01*
X159978571Y-68354819D02*
X160073809Y-68354819D01*
X160073809Y-68354819D02*
X160169047Y-68307200D01*
X160169047Y-68307200D02*
X160216666Y-68259580D01*
X160216666Y-68259580D02*
X160264285Y-68164342D01*
X160264285Y-68164342D02*
X160311904Y-67973866D01*
X160311904Y-67973866D02*
X160311904Y-67735771D01*
X160311904Y-67735771D02*
X160264285Y-67545295D01*
X160264285Y-67545295D02*
X160216666Y-67450057D01*
X160216666Y-67450057D02*
X160169047Y-67402438D01*
X160169047Y-67402438D02*
X160073809Y-67354819D01*
X159407142Y-67354819D02*
X158788095Y-67354819D01*
X158788095Y-67354819D02*
X159121428Y-67735771D01*
X159121428Y-67735771D02*
X158978571Y-67735771D01*
X158978571Y-67735771D02*
X158883333Y-67783390D01*
X158883333Y-67783390D02*
X158835714Y-67831009D01*
X158835714Y-67831009D02*
X158788095Y-67926247D01*
X158788095Y-67926247D02*
X158788095Y-68164342D01*
X158788095Y-68164342D02*
X158835714Y-68259580D01*
X158835714Y-68259580D02*
X158883333Y-68307200D01*
X158883333Y-68307200D02*
X158978571Y-68354819D01*
X158978571Y-68354819D02*
X159264285Y-68354819D01*
X159264285Y-68354819D02*
X159359523Y-68307200D01*
X159359523Y-68307200D02*
X159407142Y-68259580D01*
X172359580Y-75880952D02*
X172407200Y-75833333D01*
X172407200Y-75833333D02*
X172454819Y-75690476D01*
X172454819Y-75690476D02*
X172454819Y-75595238D01*
X172454819Y-75595238D02*
X172407200Y-75452381D01*
X172407200Y-75452381D02*
X172311961Y-75357143D01*
X172311961Y-75357143D02*
X172216723Y-75309524D01*
X172216723Y-75309524D02*
X172026247Y-75261905D01*
X172026247Y-75261905D02*
X171883390Y-75261905D01*
X171883390Y-75261905D02*
X171692914Y-75309524D01*
X171692914Y-75309524D02*
X171597676Y-75357143D01*
X171597676Y-75357143D02*
X171502438Y-75452381D01*
X171502438Y-75452381D02*
X171454819Y-75595238D01*
X171454819Y-75595238D02*
X171454819Y-75690476D01*
X171454819Y-75690476D02*
X171502438Y-75833333D01*
X171502438Y-75833333D02*
X171550057Y-75880952D01*
X171788152Y-76738095D02*
X172454819Y-76738095D01*
X171407200Y-76500000D02*
X172121485Y-76261905D01*
X172121485Y-76261905D02*
X172121485Y-76880952D01*
X172454819Y-77785714D02*
X172454819Y-77214286D01*
X172454819Y-77500000D02*
X171454819Y-77500000D01*
X171454819Y-77500000D02*
X171597676Y-77404762D01*
X171597676Y-77404762D02*
X171692914Y-77309524D01*
X171692914Y-77309524D02*
X171740533Y-77214286D01*
X171454819Y-78642857D02*
X171454819Y-78452381D01*
X171454819Y-78452381D02*
X171502438Y-78357143D01*
X171502438Y-78357143D02*
X171550057Y-78309524D01*
X171550057Y-78309524D02*
X171692914Y-78214286D01*
X171692914Y-78214286D02*
X171883390Y-78166667D01*
X171883390Y-78166667D02*
X172264342Y-78166667D01*
X172264342Y-78166667D02*
X172359580Y-78214286D01*
X172359580Y-78214286D02*
X172407200Y-78261905D01*
X172407200Y-78261905D02*
X172454819Y-78357143D01*
X172454819Y-78357143D02*
X172454819Y-78547619D01*
X172454819Y-78547619D02*
X172407200Y-78642857D01*
X172407200Y-78642857D02*
X172359580Y-78690476D01*
X172359580Y-78690476D02*
X172264342Y-78738095D01*
X172264342Y-78738095D02*
X172026247Y-78738095D01*
X172026247Y-78738095D02*
X171931009Y-78690476D01*
X171931009Y-78690476D02*
X171883390Y-78642857D01*
X171883390Y-78642857D02*
X171835771Y-78547619D01*
X171835771Y-78547619D02*
X171835771Y-78357143D01*
X171835771Y-78357143D02*
X171883390Y-78261905D01*
X171883390Y-78261905D02*
X171931009Y-78214286D01*
X171931009Y-78214286D02*
X172026247Y-78166667D01*
X149929580Y-83970952D02*
X149977200Y-83923333D01*
X149977200Y-83923333D02*
X150024819Y-83780476D01*
X150024819Y-83780476D02*
X150024819Y-83685238D01*
X150024819Y-83685238D02*
X149977200Y-83542381D01*
X149977200Y-83542381D02*
X149881961Y-83447143D01*
X149881961Y-83447143D02*
X149786723Y-83399524D01*
X149786723Y-83399524D02*
X149596247Y-83351905D01*
X149596247Y-83351905D02*
X149453390Y-83351905D01*
X149453390Y-83351905D02*
X149262914Y-83399524D01*
X149262914Y-83399524D02*
X149167676Y-83447143D01*
X149167676Y-83447143D02*
X149072438Y-83542381D01*
X149072438Y-83542381D02*
X149024819Y-83685238D01*
X149024819Y-83685238D02*
X149024819Y-83780476D01*
X149024819Y-83780476D02*
X149072438Y-83923333D01*
X149072438Y-83923333D02*
X149120057Y-83970952D01*
X149358152Y-84828095D02*
X150024819Y-84828095D01*
X148977200Y-84590000D02*
X149691485Y-84351905D01*
X149691485Y-84351905D02*
X149691485Y-84970952D01*
X149120057Y-85304286D02*
X149072438Y-85351905D01*
X149072438Y-85351905D02*
X149024819Y-85447143D01*
X149024819Y-85447143D02*
X149024819Y-85685238D01*
X149024819Y-85685238D02*
X149072438Y-85780476D01*
X149072438Y-85780476D02*
X149120057Y-85828095D01*
X149120057Y-85828095D02*
X149215295Y-85875714D01*
X149215295Y-85875714D02*
X149310533Y-85875714D01*
X149310533Y-85875714D02*
X149453390Y-85828095D01*
X149453390Y-85828095D02*
X150024819Y-85256667D01*
X150024819Y-85256667D02*
X150024819Y-85875714D01*
X150024819Y-86828095D02*
X150024819Y-86256667D01*
X150024819Y-86542381D02*
X149024819Y-86542381D01*
X149024819Y-86542381D02*
X149167676Y-86447143D01*
X149167676Y-86447143D02*
X149262914Y-86351905D01*
X149262914Y-86351905D02*
X149310533Y-86256667D01*
X191981547Y-125789580D02*
X192029166Y-125837200D01*
X192029166Y-125837200D02*
X192172023Y-125884819D01*
X192172023Y-125884819D02*
X192267261Y-125884819D01*
X192267261Y-125884819D02*
X192410118Y-125837200D01*
X192410118Y-125837200D02*
X192505356Y-125741961D01*
X192505356Y-125741961D02*
X192552975Y-125646723D01*
X192552975Y-125646723D02*
X192600594Y-125456247D01*
X192600594Y-125456247D02*
X192600594Y-125313390D01*
X192600594Y-125313390D02*
X192552975Y-125122914D01*
X192552975Y-125122914D02*
X192505356Y-125027676D01*
X192505356Y-125027676D02*
X192410118Y-124932438D01*
X192410118Y-124932438D02*
X192267261Y-124884819D01*
X192267261Y-124884819D02*
X192172023Y-124884819D01*
X192172023Y-124884819D02*
X192029166Y-124932438D01*
X192029166Y-124932438D02*
X191981547Y-124980057D01*
X191124404Y-125218152D02*
X191124404Y-125884819D01*
X191362499Y-124837200D02*
X191600594Y-125551485D01*
X191600594Y-125551485D02*
X190981547Y-125551485D01*
X190172023Y-125218152D02*
X190172023Y-125884819D01*
X190410118Y-124837200D02*
X190648213Y-125551485D01*
X190648213Y-125551485D02*
X190029166Y-125551485D01*
X189695832Y-124980057D02*
X189648213Y-124932438D01*
X189648213Y-124932438D02*
X189552975Y-124884819D01*
X189552975Y-124884819D02*
X189314880Y-124884819D01*
X189314880Y-124884819D02*
X189219642Y-124932438D01*
X189219642Y-124932438D02*
X189172023Y-124980057D01*
X189172023Y-124980057D02*
X189124404Y-125075295D01*
X189124404Y-125075295D02*
X189124404Y-125170533D01*
X189124404Y-125170533D02*
X189172023Y-125313390D01*
X189172023Y-125313390D02*
X189743451Y-125884819D01*
X189743451Y-125884819D02*
X189124404Y-125884819D01*
X115134819Y-70000952D02*
X114658628Y-69667619D01*
X115134819Y-69429524D02*
X114134819Y-69429524D01*
X114134819Y-69429524D02*
X114134819Y-69810476D01*
X114134819Y-69810476D02*
X114182438Y-69905714D01*
X114182438Y-69905714D02*
X114230057Y-69953333D01*
X114230057Y-69953333D02*
X114325295Y-70000952D01*
X114325295Y-70000952D02*
X114468152Y-70000952D01*
X114468152Y-70000952D02*
X114563390Y-69953333D01*
X114563390Y-69953333D02*
X114611009Y-69905714D01*
X114611009Y-69905714D02*
X114658628Y-69810476D01*
X114658628Y-69810476D02*
X114658628Y-69429524D01*
X114468152Y-70858095D02*
X115134819Y-70858095D01*
X114087200Y-70620000D02*
X114801485Y-70381905D01*
X114801485Y-70381905D02*
X114801485Y-71000952D01*
X114134819Y-71572381D02*
X114134819Y-71667619D01*
X114134819Y-71667619D02*
X114182438Y-71762857D01*
X114182438Y-71762857D02*
X114230057Y-71810476D01*
X114230057Y-71810476D02*
X114325295Y-71858095D01*
X114325295Y-71858095D02*
X114515771Y-71905714D01*
X114515771Y-71905714D02*
X114753866Y-71905714D01*
X114753866Y-71905714D02*
X114944342Y-71858095D01*
X114944342Y-71858095D02*
X115039580Y-71810476D01*
X115039580Y-71810476D02*
X115087200Y-71762857D01*
X115087200Y-71762857D02*
X115134819Y-71667619D01*
X115134819Y-71667619D02*
X115134819Y-71572381D01*
X115134819Y-71572381D02*
X115087200Y-71477143D01*
X115087200Y-71477143D02*
X115039580Y-71429524D01*
X115039580Y-71429524D02*
X114944342Y-71381905D01*
X114944342Y-71381905D02*
X114753866Y-71334286D01*
X114753866Y-71334286D02*
X114515771Y-71334286D01*
X114515771Y-71334286D02*
X114325295Y-71381905D01*
X114325295Y-71381905D02*
X114230057Y-71429524D01*
X114230057Y-71429524D02*
X114182438Y-71477143D01*
X114182438Y-71477143D02*
X114134819Y-71572381D01*
X114134819Y-72239048D02*
X114134819Y-72858095D01*
X114134819Y-72858095D02*
X114515771Y-72524762D01*
X114515771Y-72524762D02*
X114515771Y-72667619D01*
X114515771Y-72667619D02*
X114563390Y-72762857D01*
X114563390Y-72762857D02*
X114611009Y-72810476D01*
X114611009Y-72810476D02*
X114706247Y-72858095D01*
X114706247Y-72858095D02*
X114944342Y-72858095D01*
X114944342Y-72858095D02*
X115039580Y-72810476D01*
X115039580Y-72810476D02*
X115087200Y-72762857D01*
X115087200Y-72762857D02*
X115134819Y-72667619D01*
X115134819Y-72667619D02*
X115134819Y-72381905D01*
X115134819Y-72381905D02*
X115087200Y-72286667D01*
X115087200Y-72286667D02*
X115039580Y-72239048D01*
X138454819Y-73880952D02*
X137978628Y-73547619D01*
X138454819Y-73309524D02*
X137454819Y-73309524D01*
X137454819Y-73309524D02*
X137454819Y-73690476D01*
X137454819Y-73690476D02*
X137502438Y-73785714D01*
X137502438Y-73785714D02*
X137550057Y-73833333D01*
X137550057Y-73833333D02*
X137645295Y-73880952D01*
X137645295Y-73880952D02*
X137788152Y-73880952D01*
X137788152Y-73880952D02*
X137883390Y-73833333D01*
X137883390Y-73833333D02*
X137931009Y-73785714D01*
X137931009Y-73785714D02*
X137978628Y-73690476D01*
X137978628Y-73690476D02*
X137978628Y-73309524D01*
X137788152Y-74738095D02*
X138454819Y-74738095D01*
X137407200Y-74500000D02*
X138121485Y-74261905D01*
X138121485Y-74261905D02*
X138121485Y-74880952D01*
X138454819Y-75785714D02*
X138454819Y-75214286D01*
X138454819Y-75500000D02*
X137454819Y-75500000D01*
X137454819Y-75500000D02*
X137597676Y-75404762D01*
X137597676Y-75404762D02*
X137692914Y-75309524D01*
X137692914Y-75309524D02*
X137740533Y-75214286D01*
X138454819Y-76738095D02*
X138454819Y-76166667D01*
X138454819Y-76452381D02*
X137454819Y-76452381D01*
X137454819Y-76452381D02*
X137597676Y-76357143D01*
X137597676Y-76357143D02*
X137692914Y-76261905D01*
X137692914Y-76261905D02*
X137740533Y-76166667D01*
X159504819Y-72080952D02*
X159028628Y-71747619D01*
X159504819Y-71509524D02*
X158504819Y-71509524D01*
X158504819Y-71509524D02*
X158504819Y-71890476D01*
X158504819Y-71890476D02*
X158552438Y-71985714D01*
X158552438Y-71985714D02*
X158600057Y-72033333D01*
X158600057Y-72033333D02*
X158695295Y-72080952D01*
X158695295Y-72080952D02*
X158838152Y-72080952D01*
X158838152Y-72080952D02*
X158933390Y-72033333D01*
X158933390Y-72033333D02*
X158981009Y-71985714D01*
X158981009Y-71985714D02*
X159028628Y-71890476D01*
X159028628Y-71890476D02*
X159028628Y-71509524D01*
X158838152Y-72938095D02*
X159504819Y-72938095D01*
X158457200Y-72700000D02*
X159171485Y-72461905D01*
X159171485Y-72461905D02*
X159171485Y-73080952D01*
X159504819Y-73985714D02*
X159504819Y-73414286D01*
X159504819Y-73700000D02*
X158504819Y-73700000D01*
X158504819Y-73700000D02*
X158647676Y-73604762D01*
X158647676Y-73604762D02*
X158742914Y-73509524D01*
X158742914Y-73509524D02*
X158790533Y-73414286D01*
X158838152Y-74842857D02*
X159504819Y-74842857D01*
X158457200Y-74604762D02*
X159171485Y-74366667D01*
X159171485Y-74366667D02*
X159171485Y-74985714D01*
X122929047Y-74679580D02*
X122976666Y-74727200D01*
X122976666Y-74727200D02*
X123119523Y-74774819D01*
X123119523Y-74774819D02*
X123214761Y-74774819D01*
X123214761Y-74774819D02*
X123357618Y-74727200D01*
X123357618Y-74727200D02*
X123452856Y-74631961D01*
X123452856Y-74631961D02*
X123500475Y-74536723D01*
X123500475Y-74536723D02*
X123548094Y-74346247D01*
X123548094Y-74346247D02*
X123548094Y-74203390D01*
X123548094Y-74203390D02*
X123500475Y-74012914D01*
X123500475Y-74012914D02*
X123452856Y-73917676D01*
X123452856Y-73917676D02*
X123357618Y-73822438D01*
X123357618Y-73822438D02*
X123214761Y-73774819D01*
X123214761Y-73774819D02*
X123119523Y-73774819D01*
X123119523Y-73774819D02*
X122976666Y-73822438D01*
X122976666Y-73822438D02*
X122929047Y-73870057D01*
X122071904Y-74108152D02*
X122071904Y-74774819D01*
X122309999Y-73727200D02*
X122548094Y-74441485D01*
X122548094Y-74441485D02*
X121929047Y-74441485D01*
X121024285Y-74774819D02*
X121595713Y-74774819D01*
X121309999Y-74774819D02*
X121309999Y-73774819D01*
X121309999Y-73774819D02*
X121405237Y-73917676D01*
X121405237Y-73917676D02*
X121500475Y-74012914D01*
X121500475Y-74012914D02*
X121595713Y-74060533D01*
X120071904Y-74774819D02*
X120643332Y-74774819D01*
X120357618Y-74774819D02*
X120357618Y-73774819D01*
X120357618Y-73774819D02*
X120452856Y-73917676D01*
X120452856Y-73917676D02*
X120548094Y-74012914D01*
X120548094Y-74012914D02*
X120643332Y-74060533D01*
X117714285Y-93454819D02*
X117714285Y-94264342D01*
X117714285Y-94264342D02*
X117666666Y-94359580D01*
X117666666Y-94359580D02*
X117619047Y-94407200D01*
X117619047Y-94407200D02*
X117523809Y-94454819D01*
X117523809Y-94454819D02*
X117333333Y-94454819D01*
X117333333Y-94454819D02*
X117238095Y-94407200D01*
X117238095Y-94407200D02*
X117190476Y-94359580D01*
X117190476Y-94359580D02*
X117142857Y-94264342D01*
X117142857Y-94264342D02*
X117142857Y-93454819D01*
X116238095Y-93788152D02*
X116238095Y-94454819D01*
X116476190Y-93407200D02*
X116714285Y-94121485D01*
X116714285Y-94121485D02*
X116095238Y-94121485D01*
X115523809Y-93454819D02*
X115428571Y-93454819D01*
X115428571Y-93454819D02*
X115333333Y-93502438D01*
X115333333Y-93502438D02*
X115285714Y-93550057D01*
X115285714Y-93550057D02*
X115238095Y-93645295D01*
X115238095Y-93645295D02*
X115190476Y-93835771D01*
X115190476Y-93835771D02*
X115190476Y-94073866D01*
X115190476Y-94073866D02*
X115238095Y-94264342D01*
X115238095Y-94264342D02*
X115285714Y-94359580D01*
X115285714Y-94359580D02*
X115333333Y-94407200D01*
X115333333Y-94407200D02*
X115428571Y-94454819D01*
X115428571Y-94454819D02*
X115523809Y-94454819D01*
X115523809Y-94454819D02*
X115619047Y-94407200D01*
X115619047Y-94407200D02*
X115666666Y-94359580D01*
X115666666Y-94359580D02*
X115714285Y-94264342D01*
X115714285Y-94264342D02*
X115761904Y-94073866D01*
X115761904Y-94073866D02*
X115761904Y-93835771D01*
X115761904Y-93835771D02*
X115714285Y-93645295D01*
X115714285Y-93645295D02*
X115666666Y-93550057D01*
X115666666Y-93550057D02*
X115619047Y-93502438D01*
X115619047Y-93502438D02*
X115523809Y-93454819D01*
X114809523Y-93550057D02*
X114761904Y-93502438D01*
X114761904Y-93502438D02*
X114666666Y-93454819D01*
X114666666Y-93454819D02*
X114428571Y-93454819D01*
X114428571Y-93454819D02*
X114333333Y-93502438D01*
X114333333Y-93502438D02*
X114285714Y-93550057D01*
X114285714Y-93550057D02*
X114238095Y-93645295D01*
X114238095Y-93645295D02*
X114238095Y-93740533D01*
X114238095Y-93740533D02*
X114285714Y-93883390D01*
X114285714Y-93883390D02*
X114857142Y-94454819D01*
X114857142Y-94454819D02*
X114238095Y-94454819D01*
X192156547Y-75679580D02*
X192204166Y-75727200D01*
X192204166Y-75727200D02*
X192347023Y-75774819D01*
X192347023Y-75774819D02*
X192442261Y-75774819D01*
X192442261Y-75774819D02*
X192585118Y-75727200D01*
X192585118Y-75727200D02*
X192680356Y-75631961D01*
X192680356Y-75631961D02*
X192727975Y-75536723D01*
X192727975Y-75536723D02*
X192775594Y-75346247D01*
X192775594Y-75346247D02*
X192775594Y-75203390D01*
X192775594Y-75203390D02*
X192727975Y-75012914D01*
X192727975Y-75012914D02*
X192680356Y-74917676D01*
X192680356Y-74917676D02*
X192585118Y-74822438D01*
X192585118Y-74822438D02*
X192442261Y-74774819D01*
X192442261Y-74774819D02*
X192347023Y-74774819D01*
X192347023Y-74774819D02*
X192204166Y-74822438D01*
X192204166Y-74822438D02*
X192156547Y-74870057D01*
X191299404Y-75108152D02*
X191299404Y-75774819D01*
X191537499Y-74727200D02*
X191775594Y-75441485D01*
X191775594Y-75441485D02*
X191156547Y-75441485D01*
X190251785Y-75774819D02*
X190823213Y-75774819D01*
X190537499Y-75774819D02*
X190537499Y-74774819D01*
X190537499Y-74774819D02*
X190632737Y-74917676D01*
X190632737Y-74917676D02*
X190727975Y-75012914D01*
X190727975Y-75012914D02*
X190823213Y-75060533D01*
X189918451Y-74774819D02*
X189299404Y-74774819D01*
X189299404Y-74774819D02*
X189632737Y-75155771D01*
X189632737Y-75155771D02*
X189489880Y-75155771D01*
X189489880Y-75155771D02*
X189394642Y-75203390D01*
X189394642Y-75203390D02*
X189347023Y-75251009D01*
X189347023Y-75251009D02*
X189299404Y-75346247D01*
X189299404Y-75346247D02*
X189299404Y-75584342D01*
X189299404Y-75584342D02*
X189347023Y-75679580D01*
X189347023Y-75679580D02*
X189394642Y-75727200D01*
X189394642Y-75727200D02*
X189489880Y-75774819D01*
X189489880Y-75774819D02*
X189775594Y-75774819D01*
X189775594Y-75774819D02*
X189870832Y-75727200D01*
X189870832Y-75727200D02*
X189918451Y-75679580D01*
X193292319Y-73714285D02*
X194006604Y-73714285D01*
X194006604Y-73714285D02*
X194149461Y-73666666D01*
X194149461Y-73666666D02*
X194244700Y-73571428D01*
X194244700Y-73571428D02*
X194292319Y-73428571D01*
X194292319Y-73428571D02*
X194292319Y-73333333D01*
X193625652Y-74619047D02*
X194292319Y-74619047D01*
X193244700Y-74380952D02*
X193958985Y-74142857D01*
X193958985Y-74142857D02*
X193958985Y-74761904D01*
X193292319Y-75333333D02*
X193292319Y-75428571D01*
X193292319Y-75428571D02*
X193339938Y-75523809D01*
X193339938Y-75523809D02*
X193387557Y-75571428D01*
X193387557Y-75571428D02*
X193482795Y-75619047D01*
X193482795Y-75619047D02*
X193673271Y-75666666D01*
X193673271Y-75666666D02*
X193911366Y-75666666D01*
X193911366Y-75666666D02*
X194101842Y-75619047D01*
X194101842Y-75619047D02*
X194197080Y-75571428D01*
X194197080Y-75571428D02*
X194244700Y-75523809D01*
X194244700Y-75523809D02*
X194292319Y-75428571D01*
X194292319Y-75428571D02*
X194292319Y-75333333D01*
X194292319Y-75333333D02*
X194244700Y-75238095D01*
X194244700Y-75238095D02*
X194197080Y-75190476D01*
X194197080Y-75190476D02*
X194101842Y-75142857D01*
X194101842Y-75142857D02*
X193911366Y-75095238D01*
X193911366Y-75095238D02*
X193673271Y-75095238D01*
X193673271Y-75095238D02*
X193482795Y-75142857D01*
X193482795Y-75142857D02*
X193387557Y-75190476D01*
X193387557Y-75190476D02*
X193339938Y-75238095D01*
X193339938Y-75238095D02*
X193292319Y-75333333D01*
X193292319Y-76000000D02*
X193292319Y-76666666D01*
X193292319Y-76666666D02*
X194292319Y-76238095D01*
X152119047Y-142929580D02*
X152166666Y-142977200D01*
X152166666Y-142977200D02*
X152309523Y-143024819D01*
X152309523Y-143024819D02*
X152404761Y-143024819D01*
X152404761Y-143024819D02*
X152547618Y-142977200D01*
X152547618Y-142977200D02*
X152642856Y-142881961D01*
X152642856Y-142881961D02*
X152690475Y-142786723D01*
X152690475Y-142786723D02*
X152738094Y-142596247D01*
X152738094Y-142596247D02*
X152738094Y-142453390D01*
X152738094Y-142453390D02*
X152690475Y-142262914D01*
X152690475Y-142262914D02*
X152642856Y-142167676D01*
X152642856Y-142167676D02*
X152547618Y-142072438D01*
X152547618Y-142072438D02*
X152404761Y-142024819D01*
X152404761Y-142024819D02*
X152309523Y-142024819D01*
X152309523Y-142024819D02*
X152166666Y-142072438D01*
X152166666Y-142072438D02*
X152119047Y-142120057D01*
X151261904Y-142358152D02*
X151261904Y-143024819D01*
X151499999Y-141977200D02*
X151738094Y-142691485D01*
X151738094Y-142691485D02*
X151119047Y-142691485D01*
X150833332Y-142024819D02*
X150214285Y-142024819D01*
X150214285Y-142024819D02*
X150547618Y-142405771D01*
X150547618Y-142405771D02*
X150404761Y-142405771D01*
X150404761Y-142405771D02*
X150309523Y-142453390D01*
X150309523Y-142453390D02*
X150261904Y-142501009D01*
X150261904Y-142501009D02*
X150214285Y-142596247D01*
X150214285Y-142596247D02*
X150214285Y-142834342D01*
X150214285Y-142834342D02*
X150261904Y-142929580D01*
X150261904Y-142929580D02*
X150309523Y-142977200D01*
X150309523Y-142977200D02*
X150404761Y-143024819D01*
X150404761Y-143024819D02*
X150690475Y-143024819D01*
X150690475Y-143024819D02*
X150785713Y-142977200D01*
X150785713Y-142977200D02*
X150833332Y-142929580D01*
X149309523Y-142024819D02*
X149785713Y-142024819D01*
X149785713Y-142024819D02*
X149833332Y-142501009D01*
X149833332Y-142501009D02*
X149785713Y-142453390D01*
X149785713Y-142453390D02*
X149690475Y-142405771D01*
X149690475Y-142405771D02*
X149452380Y-142405771D01*
X149452380Y-142405771D02*
X149357142Y-142453390D01*
X149357142Y-142453390D02*
X149309523Y-142501009D01*
X149309523Y-142501009D02*
X149261904Y-142596247D01*
X149261904Y-142596247D02*
X149261904Y-142834342D01*
X149261904Y-142834342D02*
X149309523Y-142929580D01*
X149309523Y-142929580D02*
X149357142Y-142977200D01*
X149357142Y-142977200D02*
X149452380Y-143024819D01*
X149452380Y-143024819D02*
X149690475Y-143024819D01*
X149690475Y-143024819D02*
X149785713Y-142977200D01*
X149785713Y-142977200D02*
X149833332Y-142929580D01*
X117314285Y-82154819D02*
X117314285Y-82964342D01*
X117314285Y-82964342D02*
X117266666Y-83059580D01*
X117266666Y-83059580D02*
X117219047Y-83107200D01*
X117219047Y-83107200D02*
X117123809Y-83154819D01*
X117123809Y-83154819D02*
X116933333Y-83154819D01*
X116933333Y-83154819D02*
X116838095Y-83107200D01*
X116838095Y-83107200D02*
X116790476Y-83059580D01*
X116790476Y-83059580D02*
X116742857Y-82964342D01*
X116742857Y-82964342D02*
X116742857Y-82154819D01*
X115838095Y-82488152D02*
X115838095Y-83154819D01*
X116076190Y-82107200D02*
X116314285Y-82821485D01*
X116314285Y-82821485D02*
X115695238Y-82821485D01*
X115123809Y-82154819D02*
X115028571Y-82154819D01*
X115028571Y-82154819D02*
X114933333Y-82202438D01*
X114933333Y-82202438D02*
X114885714Y-82250057D01*
X114885714Y-82250057D02*
X114838095Y-82345295D01*
X114838095Y-82345295D02*
X114790476Y-82535771D01*
X114790476Y-82535771D02*
X114790476Y-82773866D01*
X114790476Y-82773866D02*
X114838095Y-82964342D01*
X114838095Y-82964342D02*
X114885714Y-83059580D01*
X114885714Y-83059580D02*
X114933333Y-83107200D01*
X114933333Y-83107200D02*
X115028571Y-83154819D01*
X115028571Y-83154819D02*
X115123809Y-83154819D01*
X115123809Y-83154819D02*
X115219047Y-83107200D01*
X115219047Y-83107200D02*
X115266666Y-83059580D01*
X115266666Y-83059580D02*
X115314285Y-82964342D01*
X115314285Y-82964342D02*
X115361904Y-82773866D01*
X115361904Y-82773866D02*
X115361904Y-82535771D01*
X115361904Y-82535771D02*
X115314285Y-82345295D01*
X115314285Y-82345295D02*
X115266666Y-82250057D01*
X115266666Y-82250057D02*
X115219047Y-82202438D01*
X115219047Y-82202438D02*
X115123809Y-82154819D01*
X113838095Y-83154819D02*
X114409523Y-83154819D01*
X114123809Y-83154819D02*
X114123809Y-82154819D01*
X114123809Y-82154819D02*
X114219047Y-82297676D01*
X114219047Y-82297676D02*
X114314285Y-82392914D01*
X114314285Y-82392914D02*
X114409523Y-82440533D01*
X103192319Y-87214285D02*
X103906604Y-87214285D01*
X103906604Y-87214285D02*
X104049461Y-87166666D01*
X104049461Y-87166666D02*
X104144700Y-87071428D01*
X104144700Y-87071428D02*
X104192319Y-86928571D01*
X104192319Y-86928571D02*
X104192319Y-86833333D01*
X103525652Y-88119047D02*
X104192319Y-88119047D01*
X103144700Y-87880952D02*
X103858985Y-87642857D01*
X103858985Y-87642857D02*
X103858985Y-88261904D01*
X103192319Y-88833333D02*
X103192319Y-88928571D01*
X103192319Y-88928571D02*
X103239938Y-89023809D01*
X103239938Y-89023809D02*
X103287557Y-89071428D01*
X103287557Y-89071428D02*
X103382795Y-89119047D01*
X103382795Y-89119047D02*
X103573271Y-89166666D01*
X103573271Y-89166666D02*
X103811366Y-89166666D01*
X103811366Y-89166666D02*
X104001842Y-89119047D01*
X104001842Y-89119047D02*
X104097080Y-89071428D01*
X104097080Y-89071428D02*
X104144700Y-89023809D01*
X104144700Y-89023809D02*
X104192319Y-88928571D01*
X104192319Y-88928571D02*
X104192319Y-88833333D01*
X104192319Y-88833333D02*
X104144700Y-88738095D01*
X104144700Y-88738095D02*
X104097080Y-88690476D01*
X104097080Y-88690476D02*
X104001842Y-88642857D01*
X104001842Y-88642857D02*
X103811366Y-88595238D01*
X103811366Y-88595238D02*
X103573271Y-88595238D01*
X103573271Y-88595238D02*
X103382795Y-88642857D01*
X103382795Y-88642857D02*
X103287557Y-88690476D01*
X103287557Y-88690476D02*
X103239938Y-88738095D01*
X103239938Y-88738095D02*
X103192319Y-88833333D01*
X104192319Y-90119047D02*
X104192319Y-89547619D01*
X104192319Y-89833333D02*
X103192319Y-89833333D01*
X103192319Y-89833333D02*
X103335176Y-89738095D01*
X103335176Y-89738095D02*
X103430414Y-89642857D01*
X103430414Y-89642857D02*
X103478033Y-89547619D01*
X131534819Y-73880952D02*
X131058628Y-73547619D01*
X131534819Y-73309524D02*
X130534819Y-73309524D01*
X130534819Y-73309524D02*
X130534819Y-73690476D01*
X130534819Y-73690476D02*
X130582438Y-73785714D01*
X130582438Y-73785714D02*
X130630057Y-73833333D01*
X130630057Y-73833333D02*
X130725295Y-73880952D01*
X130725295Y-73880952D02*
X130868152Y-73880952D01*
X130868152Y-73880952D02*
X130963390Y-73833333D01*
X130963390Y-73833333D02*
X131011009Y-73785714D01*
X131011009Y-73785714D02*
X131058628Y-73690476D01*
X131058628Y-73690476D02*
X131058628Y-73309524D01*
X130868152Y-74738095D02*
X131534819Y-74738095D01*
X130487200Y-74500000D02*
X131201485Y-74261905D01*
X131201485Y-74261905D02*
X131201485Y-74880952D01*
X130534819Y-75452381D02*
X130534819Y-75547619D01*
X130534819Y-75547619D02*
X130582438Y-75642857D01*
X130582438Y-75642857D02*
X130630057Y-75690476D01*
X130630057Y-75690476D02*
X130725295Y-75738095D01*
X130725295Y-75738095D02*
X130915771Y-75785714D01*
X130915771Y-75785714D02*
X131153866Y-75785714D01*
X131153866Y-75785714D02*
X131344342Y-75738095D01*
X131344342Y-75738095D02*
X131439580Y-75690476D01*
X131439580Y-75690476D02*
X131487200Y-75642857D01*
X131487200Y-75642857D02*
X131534819Y-75547619D01*
X131534819Y-75547619D02*
X131534819Y-75452381D01*
X131534819Y-75452381D02*
X131487200Y-75357143D01*
X131487200Y-75357143D02*
X131439580Y-75309524D01*
X131439580Y-75309524D02*
X131344342Y-75261905D01*
X131344342Y-75261905D02*
X131153866Y-75214286D01*
X131153866Y-75214286D02*
X130915771Y-75214286D01*
X130915771Y-75214286D02*
X130725295Y-75261905D01*
X130725295Y-75261905D02*
X130630057Y-75309524D01*
X130630057Y-75309524D02*
X130582438Y-75357143D01*
X130582438Y-75357143D02*
X130534819Y-75452381D01*
X131534819Y-76261905D02*
X131534819Y-76452381D01*
X131534819Y-76452381D02*
X131487200Y-76547619D01*
X131487200Y-76547619D02*
X131439580Y-76595238D01*
X131439580Y-76595238D02*
X131296723Y-76690476D01*
X131296723Y-76690476D02*
X131106247Y-76738095D01*
X131106247Y-76738095D02*
X130725295Y-76738095D01*
X130725295Y-76738095D02*
X130630057Y-76690476D01*
X130630057Y-76690476D02*
X130582438Y-76642857D01*
X130582438Y-76642857D02*
X130534819Y-76547619D01*
X130534819Y-76547619D02*
X130534819Y-76357143D01*
X130534819Y-76357143D02*
X130582438Y-76261905D01*
X130582438Y-76261905D02*
X130630057Y-76214286D01*
X130630057Y-76214286D02*
X130725295Y-76166667D01*
X130725295Y-76166667D02*
X130963390Y-76166667D01*
X130963390Y-76166667D02*
X131058628Y-76214286D01*
X131058628Y-76214286D02*
X131106247Y-76261905D01*
X131106247Y-76261905D02*
X131153866Y-76357143D01*
X131153866Y-76357143D02*
X131153866Y-76547619D01*
X131153866Y-76547619D02*
X131106247Y-76642857D01*
X131106247Y-76642857D02*
X131058628Y-76690476D01*
X131058628Y-76690476D02*
X130963390Y-76738095D01*
X115119047Y-122929580D02*
X115166666Y-122977200D01*
X115166666Y-122977200D02*
X115309523Y-123024819D01*
X115309523Y-123024819D02*
X115404761Y-123024819D01*
X115404761Y-123024819D02*
X115547618Y-122977200D01*
X115547618Y-122977200D02*
X115642856Y-122881961D01*
X115642856Y-122881961D02*
X115690475Y-122786723D01*
X115690475Y-122786723D02*
X115738094Y-122596247D01*
X115738094Y-122596247D02*
X115738094Y-122453390D01*
X115738094Y-122453390D02*
X115690475Y-122262914D01*
X115690475Y-122262914D02*
X115642856Y-122167676D01*
X115642856Y-122167676D02*
X115547618Y-122072438D01*
X115547618Y-122072438D02*
X115404761Y-122024819D01*
X115404761Y-122024819D02*
X115309523Y-122024819D01*
X115309523Y-122024819D02*
X115166666Y-122072438D01*
X115166666Y-122072438D02*
X115119047Y-122120057D01*
X114261904Y-122358152D02*
X114261904Y-123024819D01*
X114499999Y-121977200D02*
X114738094Y-122691485D01*
X114738094Y-122691485D02*
X114119047Y-122691485D01*
X113785713Y-122120057D02*
X113738094Y-122072438D01*
X113738094Y-122072438D02*
X113642856Y-122024819D01*
X113642856Y-122024819D02*
X113404761Y-122024819D01*
X113404761Y-122024819D02*
X113309523Y-122072438D01*
X113309523Y-122072438D02*
X113261904Y-122120057D01*
X113261904Y-122120057D02*
X113214285Y-122215295D01*
X113214285Y-122215295D02*
X113214285Y-122310533D01*
X113214285Y-122310533D02*
X113261904Y-122453390D01*
X113261904Y-122453390D02*
X113833332Y-123024819D01*
X113833332Y-123024819D02*
X113214285Y-123024819D01*
X112880951Y-122024819D02*
X112214285Y-122024819D01*
X112214285Y-122024819D02*
X112642856Y-123024819D01*
X105534819Y-69494285D02*
X106249104Y-69494285D01*
X106249104Y-69494285D02*
X106391961Y-69446666D01*
X106391961Y-69446666D02*
X106487200Y-69351428D01*
X106487200Y-69351428D02*
X106534819Y-69208571D01*
X106534819Y-69208571D02*
X106534819Y-69113333D01*
X105868152Y-70399047D02*
X106534819Y-70399047D01*
X105487200Y-70160952D02*
X106201485Y-69922857D01*
X106201485Y-69922857D02*
X106201485Y-70541904D01*
X105534819Y-71113333D02*
X105534819Y-71208571D01*
X105534819Y-71208571D02*
X105582438Y-71303809D01*
X105582438Y-71303809D02*
X105630057Y-71351428D01*
X105630057Y-71351428D02*
X105725295Y-71399047D01*
X105725295Y-71399047D02*
X105915771Y-71446666D01*
X105915771Y-71446666D02*
X106153866Y-71446666D01*
X106153866Y-71446666D02*
X106344342Y-71399047D01*
X106344342Y-71399047D02*
X106439580Y-71351428D01*
X106439580Y-71351428D02*
X106487200Y-71303809D01*
X106487200Y-71303809D02*
X106534819Y-71208571D01*
X106534819Y-71208571D02*
X106534819Y-71113333D01*
X106534819Y-71113333D02*
X106487200Y-71018095D01*
X106487200Y-71018095D02*
X106439580Y-70970476D01*
X106439580Y-70970476D02*
X106344342Y-70922857D01*
X106344342Y-70922857D02*
X106153866Y-70875238D01*
X106153866Y-70875238D02*
X105915771Y-70875238D01*
X105915771Y-70875238D02*
X105725295Y-70922857D01*
X105725295Y-70922857D02*
X105630057Y-70970476D01*
X105630057Y-70970476D02*
X105582438Y-71018095D01*
X105582438Y-71018095D02*
X105534819Y-71113333D01*
X105534819Y-71780000D02*
X105534819Y-72399047D01*
X105534819Y-72399047D02*
X105915771Y-72065714D01*
X105915771Y-72065714D02*
X105915771Y-72208571D01*
X105915771Y-72208571D02*
X105963390Y-72303809D01*
X105963390Y-72303809D02*
X106011009Y-72351428D01*
X106011009Y-72351428D02*
X106106247Y-72399047D01*
X106106247Y-72399047D02*
X106344342Y-72399047D01*
X106344342Y-72399047D02*
X106439580Y-72351428D01*
X106439580Y-72351428D02*
X106487200Y-72303809D01*
X106487200Y-72303809D02*
X106534819Y-72208571D01*
X106534819Y-72208571D02*
X106534819Y-71922857D01*
X106534819Y-71922857D02*
X106487200Y-71827619D01*
X106487200Y-71827619D02*
X106439580Y-71780000D01*
X164569047Y-86339580D02*
X164616666Y-86387200D01*
X164616666Y-86387200D02*
X164759523Y-86434819D01*
X164759523Y-86434819D02*
X164854761Y-86434819D01*
X164854761Y-86434819D02*
X164997618Y-86387200D01*
X164997618Y-86387200D02*
X165092856Y-86291961D01*
X165092856Y-86291961D02*
X165140475Y-86196723D01*
X165140475Y-86196723D02*
X165188094Y-86006247D01*
X165188094Y-86006247D02*
X165188094Y-85863390D01*
X165188094Y-85863390D02*
X165140475Y-85672914D01*
X165140475Y-85672914D02*
X165092856Y-85577676D01*
X165092856Y-85577676D02*
X164997618Y-85482438D01*
X164997618Y-85482438D02*
X164854761Y-85434819D01*
X164854761Y-85434819D02*
X164759523Y-85434819D01*
X164759523Y-85434819D02*
X164616666Y-85482438D01*
X164616666Y-85482438D02*
X164569047Y-85530057D01*
X163711904Y-85768152D02*
X163711904Y-86434819D01*
X163949999Y-85387200D02*
X164188094Y-86101485D01*
X164188094Y-86101485D02*
X163569047Y-86101485D01*
X162664285Y-86434819D02*
X163235713Y-86434819D01*
X162949999Y-86434819D02*
X162949999Y-85434819D01*
X162949999Y-85434819D02*
X163045237Y-85577676D01*
X163045237Y-85577676D02*
X163140475Y-85672914D01*
X163140475Y-85672914D02*
X163235713Y-85720533D01*
X162092856Y-85863390D02*
X162188094Y-85815771D01*
X162188094Y-85815771D02*
X162235713Y-85768152D01*
X162235713Y-85768152D02*
X162283332Y-85672914D01*
X162283332Y-85672914D02*
X162283332Y-85625295D01*
X162283332Y-85625295D02*
X162235713Y-85530057D01*
X162235713Y-85530057D02*
X162188094Y-85482438D01*
X162188094Y-85482438D02*
X162092856Y-85434819D01*
X162092856Y-85434819D02*
X161902380Y-85434819D01*
X161902380Y-85434819D02*
X161807142Y-85482438D01*
X161807142Y-85482438D02*
X161759523Y-85530057D01*
X161759523Y-85530057D02*
X161711904Y-85625295D01*
X161711904Y-85625295D02*
X161711904Y-85672914D01*
X161711904Y-85672914D02*
X161759523Y-85768152D01*
X161759523Y-85768152D02*
X161807142Y-85815771D01*
X161807142Y-85815771D02*
X161902380Y-85863390D01*
X161902380Y-85863390D02*
X162092856Y-85863390D01*
X162092856Y-85863390D02*
X162188094Y-85911009D01*
X162188094Y-85911009D02*
X162235713Y-85958628D01*
X162235713Y-85958628D02*
X162283332Y-86053866D01*
X162283332Y-86053866D02*
X162283332Y-86244342D01*
X162283332Y-86244342D02*
X162235713Y-86339580D01*
X162235713Y-86339580D02*
X162188094Y-86387200D01*
X162188094Y-86387200D02*
X162092856Y-86434819D01*
X162092856Y-86434819D02*
X161902380Y-86434819D01*
X161902380Y-86434819D02*
X161807142Y-86387200D01*
X161807142Y-86387200D02*
X161759523Y-86339580D01*
X161759523Y-86339580D02*
X161711904Y-86244342D01*
X161711904Y-86244342D02*
X161711904Y-86053866D01*
X161711904Y-86053866D02*
X161759523Y-85958628D01*
X161759523Y-85958628D02*
X161807142Y-85911009D01*
X161807142Y-85911009D02*
X161902380Y-85863390D01*
X153019047Y-91004819D02*
X153352380Y-90528628D01*
X153590475Y-91004819D02*
X153590475Y-90004819D01*
X153590475Y-90004819D02*
X153209523Y-90004819D01*
X153209523Y-90004819D02*
X153114285Y-90052438D01*
X153114285Y-90052438D02*
X153066666Y-90100057D01*
X153066666Y-90100057D02*
X153019047Y-90195295D01*
X153019047Y-90195295D02*
X153019047Y-90338152D01*
X153019047Y-90338152D02*
X153066666Y-90433390D01*
X153066666Y-90433390D02*
X153114285Y-90481009D01*
X153114285Y-90481009D02*
X153209523Y-90528628D01*
X153209523Y-90528628D02*
X153590475Y-90528628D01*
X152161904Y-90338152D02*
X152161904Y-91004819D01*
X152399999Y-89957200D02*
X152638094Y-90671485D01*
X152638094Y-90671485D02*
X152019047Y-90671485D01*
X151114285Y-91004819D02*
X151685713Y-91004819D01*
X151399999Y-91004819D02*
X151399999Y-90004819D01*
X151399999Y-90004819D02*
X151495237Y-90147676D01*
X151495237Y-90147676D02*
X151590475Y-90242914D01*
X151590475Y-90242914D02*
X151685713Y-90290533D01*
X150257142Y-90004819D02*
X150447618Y-90004819D01*
X150447618Y-90004819D02*
X150542856Y-90052438D01*
X150542856Y-90052438D02*
X150590475Y-90100057D01*
X150590475Y-90100057D02*
X150685713Y-90242914D01*
X150685713Y-90242914D02*
X150733332Y-90433390D01*
X150733332Y-90433390D02*
X150733332Y-90814342D01*
X150733332Y-90814342D02*
X150685713Y-90909580D01*
X150685713Y-90909580D02*
X150638094Y-90957200D01*
X150638094Y-90957200D02*
X150542856Y-91004819D01*
X150542856Y-91004819D02*
X150352380Y-91004819D01*
X150352380Y-91004819D02*
X150257142Y-90957200D01*
X150257142Y-90957200D02*
X150209523Y-90909580D01*
X150209523Y-90909580D02*
X150161904Y-90814342D01*
X150161904Y-90814342D02*
X150161904Y-90576247D01*
X150161904Y-90576247D02*
X150209523Y-90481009D01*
X150209523Y-90481009D02*
X150257142Y-90433390D01*
X150257142Y-90433390D02*
X150352380Y-90385771D01*
X150352380Y-90385771D02*
X150542856Y-90385771D01*
X150542856Y-90385771D02*
X150638094Y-90433390D01*
X150638094Y-90433390D02*
X150685713Y-90481009D01*
X150685713Y-90481009D02*
X150733332Y-90576247D01*
X118944819Y-70000952D02*
X118468628Y-69667619D01*
X118944819Y-69429524D02*
X117944819Y-69429524D01*
X117944819Y-69429524D02*
X117944819Y-69810476D01*
X117944819Y-69810476D02*
X117992438Y-69905714D01*
X117992438Y-69905714D02*
X118040057Y-69953333D01*
X118040057Y-69953333D02*
X118135295Y-70000952D01*
X118135295Y-70000952D02*
X118278152Y-70000952D01*
X118278152Y-70000952D02*
X118373390Y-69953333D01*
X118373390Y-69953333D02*
X118421009Y-69905714D01*
X118421009Y-69905714D02*
X118468628Y-69810476D01*
X118468628Y-69810476D02*
X118468628Y-69429524D01*
X118278152Y-70858095D02*
X118944819Y-70858095D01*
X117897200Y-70620000D02*
X118611485Y-70381905D01*
X118611485Y-70381905D02*
X118611485Y-71000952D01*
X117944819Y-71572381D02*
X117944819Y-71667619D01*
X117944819Y-71667619D02*
X117992438Y-71762857D01*
X117992438Y-71762857D02*
X118040057Y-71810476D01*
X118040057Y-71810476D02*
X118135295Y-71858095D01*
X118135295Y-71858095D02*
X118325771Y-71905714D01*
X118325771Y-71905714D02*
X118563866Y-71905714D01*
X118563866Y-71905714D02*
X118754342Y-71858095D01*
X118754342Y-71858095D02*
X118849580Y-71810476D01*
X118849580Y-71810476D02*
X118897200Y-71762857D01*
X118897200Y-71762857D02*
X118944819Y-71667619D01*
X118944819Y-71667619D02*
X118944819Y-71572381D01*
X118944819Y-71572381D02*
X118897200Y-71477143D01*
X118897200Y-71477143D02*
X118849580Y-71429524D01*
X118849580Y-71429524D02*
X118754342Y-71381905D01*
X118754342Y-71381905D02*
X118563866Y-71334286D01*
X118563866Y-71334286D02*
X118325771Y-71334286D01*
X118325771Y-71334286D02*
X118135295Y-71381905D01*
X118135295Y-71381905D02*
X118040057Y-71429524D01*
X118040057Y-71429524D02*
X117992438Y-71477143D01*
X117992438Y-71477143D02*
X117944819Y-71572381D01*
X118944819Y-72858095D02*
X118944819Y-72286667D01*
X118944819Y-72572381D02*
X117944819Y-72572381D01*
X117944819Y-72572381D02*
X118087676Y-72477143D01*
X118087676Y-72477143D02*
X118182914Y-72381905D01*
X118182914Y-72381905D02*
X118230533Y-72286667D01*
X169769047Y-70779580D02*
X169816666Y-70827200D01*
X169816666Y-70827200D02*
X169959523Y-70874819D01*
X169959523Y-70874819D02*
X170054761Y-70874819D01*
X170054761Y-70874819D02*
X170197618Y-70827200D01*
X170197618Y-70827200D02*
X170292856Y-70731961D01*
X170292856Y-70731961D02*
X170340475Y-70636723D01*
X170340475Y-70636723D02*
X170388094Y-70446247D01*
X170388094Y-70446247D02*
X170388094Y-70303390D01*
X170388094Y-70303390D02*
X170340475Y-70112914D01*
X170340475Y-70112914D02*
X170292856Y-70017676D01*
X170292856Y-70017676D02*
X170197618Y-69922438D01*
X170197618Y-69922438D02*
X170054761Y-69874819D01*
X170054761Y-69874819D02*
X169959523Y-69874819D01*
X169959523Y-69874819D02*
X169816666Y-69922438D01*
X169816666Y-69922438D02*
X169769047Y-69970057D01*
X168911904Y-70208152D02*
X168911904Y-70874819D01*
X169149999Y-69827200D02*
X169388094Y-70541485D01*
X169388094Y-70541485D02*
X168769047Y-70541485D01*
X167864285Y-70874819D02*
X168435713Y-70874819D01*
X168149999Y-70874819D02*
X168149999Y-69874819D01*
X168149999Y-69874819D02*
X168245237Y-70017676D01*
X168245237Y-70017676D02*
X168340475Y-70112914D01*
X168340475Y-70112914D02*
X168435713Y-70160533D01*
X166959523Y-69874819D02*
X167435713Y-69874819D01*
X167435713Y-69874819D02*
X167483332Y-70351009D01*
X167483332Y-70351009D02*
X167435713Y-70303390D01*
X167435713Y-70303390D02*
X167340475Y-70255771D01*
X167340475Y-70255771D02*
X167102380Y-70255771D01*
X167102380Y-70255771D02*
X167007142Y-70303390D01*
X167007142Y-70303390D02*
X166959523Y-70351009D01*
X166959523Y-70351009D02*
X166911904Y-70446247D01*
X166911904Y-70446247D02*
X166911904Y-70684342D01*
X166911904Y-70684342D02*
X166959523Y-70779580D01*
X166959523Y-70779580D02*
X167007142Y-70827200D01*
X167007142Y-70827200D02*
X167102380Y-70874819D01*
X167102380Y-70874819D02*
X167340475Y-70874819D01*
X167340475Y-70874819D02*
X167435713Y-70827200D01*
X167435713Y-70827200D02*
X167483332Y-70779580D01*
X174714285Y-73454819D02*
X174714285Y-74264342D01*
X174714285Y-74264342D02*
X174666666Y-74359580D01*
X174666666Y-74359580D02*
X174619047Y-74407200D01*
X174619047Y-74407200D02*
X174523809Y-74454819D01*
X174523809Y-74454819D02*
X174333333Y-74454819D01*
X174333333Y-74454819D02*
X174238095Y-74407200D01*
X174238095Y-74407200D02*
X174190476Y-74359580D01*
X174190476Y-74359580D02*
X174142857Y-74264342D01*
X174142857Y-74264342D02*
X174142857Y-73454819D01*
X173238095Y-73788152D02*
X173238095Y-74454819D01*
X173476190Y-73407200D02*
X173714285Y-74121485D01*
X173714285Y-74121485D02*
X173095238Y-74121485D01*
X172523809Y-73454819D02*
X172428571Y-73454819D01*
X172428571Y-73454819D02*
X172333333Y-73502438D01*
X172333333Y-73502438D02*
X172285714Y-73550057D01*
X172285714Y-73550057D02*
X172238095Y-73645295D01*
X172238095Y-73645295D02*
X172190476Y-73835771D01*
X172190476Y-73835771D02*
X172190476Y-74073866D01*
X172190476Y-74073866D02*
X172238095Y-74264342D01*
X172238095Y-74264342D02*
X172285714Y-74359580D01*
X172285714Y-74359580D02*
X172333333Y-74407200D01*
X172333333Y-74407200D02*
X172428571Y-74454819D01*
X172428571Y-74454819D02*
X172523809Y-74454819D01*
X172523809Y-74454819D02*
X172619047Y-74407200D01*
X172619047Y-74407200D02*
X172666666Y-74359580D01*
X172666666Y-74359580D02*
X172714285Y-74264342D01*
X172714285Y-74264342D02*
X172761904Y-74073866D01*
X172761904Y-74073866D02*
X172761904Y-73835771D01*
X172761904Y-73835771D02*
X172714285Y-73645295D01*
X172714285Y-73645295D02*
X172666666Y-73550057D01*
X172666666Y-73550057D02*
X172619047Y-73502438D01*
X172619047Y-73502438D02*
X172523809Y-73454819D01*
X171857142Y-73454819D02*
X171190476Y-73454819D01*
X171190476Y-73454819D02*
X171619047Y-74454819D01*
X185914285Y-92154819D02*
X185914285Y-92964342D01*
X185914285Y-92964342D02*
X185866666Y-93059580D01*
X185866666Y-93059580D02*
X185819047Y-93107200D01*
X185819047Y-93107200D02*
X185723809Y-93154819D01*
X185723809Y-93154819D02*
X185533333Y-93154819D01*
X185533333Y-93154819D02*
X185438095Y-93107200D01*
X185438095Y-93107200D02*
X185390476Y-93059580D01*
X185390476Y-93059580D02*
X185342857Y-92964342D01*
X185342857Y-92964342D02*
X185342857Y-92154819D01*
X184438095Y-92488152D02*
X184438095Y-93154819D01*
X184676190Y-92107200D02*
X184914285Y-92821485D01*
X184914285Y-92821485D02*
X184295238Y-92821485D01*
X183723809Y-92154819D02*
X183628571Y-92154819D01*
X183628571Y-92154819D02*
X183533333Y-92202438D01*
X183533333Y-92202438D02*
X183485714Y-92250057D01*
X183485714Y-92250057D02*
X183438095Y-92345295D01*
X183438095Y-92345295D02*
X183390476Y-92535771D01*
X183390476Y-92535771D02*
X183390476Y-92773866D01*
X183390476Y-92773866D02*
X183438095Y-92964342D01*
X183438095Y-92964342D02*
X183485714Y-93059580D01*
X183485714Y-93059580D02*
X183533333Y-93107200D01*
X183533333Y-93107200D02*
X183628571Y-93154819D01*
X183628571Y-93154819D02*
X183723809Y-93154819D01*
X183723809Y-93154819D02*
X183819047Y-93107200D01*
X183819047Y-93107200D02*
X183866666Y-93059580D01*
X183866666Y-93059580D02*
X183914285Y-92964342D01*
X183914285Y-92964342D02*
X183961904Y-92773866D01*
X183961904Y-92773866D02*
X183961904Y-92535771D01*
X183961904Y-92535771D02*
X183914285Y-92345295D01*
X183914285Y-92345295D02*
X183866666Y-92250057D01*
X183866666Y-92250057D02*
X183819047Y-92202438D01*
X183819047Y-92202438D02*
X183723809Y-92154819D01*
X182533333Y-92488152D02*
X182533333Y-93154819D01*
X182771428Y-92107200D02*
X183009523Y-92821485D01*
X183009523Y-92821485D02*
X182390476Y-92821485D01*
X142002080Y-68880952D02*
X142049700Y-68833333D01*
X142049700Y-68833333D02*
X142097319Y-68690476D01*
X142097319Y-68690476D02*
X142097319Y-68595238D01*
X142097319Y-68595238D02*
X142049700Y-68452381D01*
X142049700Y-68452381D02*
X141954461Y-68357143D01*
X141954461Y-68357143D02*
X141859223Y-68309524D01*
X141859223Y-68309524D02*
X141668747Y-68261905D01*
X141668747Y-68261905D02*
X141525890Y-68261905D01*
X141525890Y-68261905D02*
X141335414Y-68309524D01*
X141335414Y-68309524D02*
X141240176Y-68357143D01*
X141240176Y-68357143D02*
X141144938Y-68452381D01*
X141144938Y-68452381D02*
X141097319Y-68595238D01*
X141097319Y-68595238D02*
X141097319Y-68690476D01*
X141097319Y-68690476D02*
X141144938Y-68833333D01*
X141144938Y-68833333D02*
X141192557Y-68880952D01*
X141430652Y-69738095D02*
X142097319Y-69738095D01*
X141049700Y-69500000D02*
X141763985Y-69261905D01*
X141763985Y-69261905D02*
X141763985Y-69880952D01*
X141097319Y-70452381D02*
X141097319Y-70547619D01*
X141097319Y-70547619D02*
X141144938Y-70642857D01*
X141144938Y-70642857D02*
X141192557Y-70690476D01*
X141192557Y-70690476D02*
X141287795Y-70738095D01*
X141287795Y-70738095D02*
X141478271Y-70785714D01*
X141478271Y-70785714D02*
X141716366Y-70785714D01*
X141716366Y-70785714D02*
X141906842Y-70738095D01*
X141906842Y-70738095D02*
X142002080Y-70690476D01*
X142002080Y-70690476D02*
X142049700Y-70642857D01*
X142049700Y-70642857D02*
X142097319Y-70547619D01*
X142097319Y-70547619D02*
X142097319Y-70452381D01*
X142097319Y-70452381D02*
X142049700Y-70357143D01*
X142049700Y-70357143D02*
X142002080Y-70309524D01*
X142002080Y-70309524D02*
X141906842Y-70261905D01*
X141906842Y-70261905D02*
X141716366Y-70214286D01*
X141716366Y-70214286D02*
X141478271Y-70214286D01*
X141478271Y-70214286D02*
X141287795Y-70261905D01*
X141287795Y-70261905D02*
X141192557Y-70309524D01*
X141192557Y-70309524D02*
X141144938Y-70357143D01*
X141144938Y-70357143D02*
X141097319Y-70452381D01*
X142097319Y-71261905D02*
X142097319Y-71452381D01*
X142097319Y-71452381D02*
X142049700Y-71547619D01*
X142049700Y-71547619D02*
X142002080Y-71595238D01*
X142002080Y-71595238D02*
X141859223Y-71690476D01*
X141859223Y-71690476D02*
X141668747Y-71738095D01*
X141668747Y-71738095D02*
X141287795Y-71738095D01*
X141287795Y-71738095D02*
X141192557Y-71690476D01*
X141192557Y-71690476D02*
X141144938Y-71642857D01*
X141144938Y-71642857D02*
X141097319Y-71547619D01*
X141097319Y-71547619D02*
X141097319Y-71357143D01*
X141097319Y-71357143D02*
X141144938Y-71261905D01*
X141144938Y-71261905D02*
X141192557Y-71214286D01*
X141192557Y-71214286D02*
X141287795Y-71166667D01*
X141287795Y-71166667D02*
X141525890Y-71166667D01*
X141525890Y-71166667D02*
X141621128Y-71214286D01*
X141621128Y-71214286D02*
X141668747Y-71261905D01*
X141668747Y-71261905D02*
X141716366Y-71357143D01*
X141716366Y-71357143D02*
X141716366Y-71547619D01*
X141716366Y-71547619D02*
X141668747Y-71642857D01*
X141668747Y-71642857D02*
X141621128Y-71690476D01*
X141621128Y-71690476D02*
X141525890Y-71738095D01*
X189789580Y-138880952D02*
X189837200Y-138833333D01*
X189837200Y-138833333D02*
X189884819Y-138690476D01*
X189884819Y-138690476D02*
X189884819Y-138595238D01*
X189884819Y-138595238D02*
X189837200Y-138452381D01*
X189837200Y-138452381D02*
X189741961Y-138357143D01*
X189741961Y-138357143D02*
X189646723Y-138309524D01*
X189646723Y-138309524D02*
X189456247Y-138261905D01*
X189456247Y-138261905D02*
X189313390Y-138261905D01*
X189313390Y-138261905D02*
X189122914Y-138309524D01*
X189122914Y-138309524D02*
X189027676Y-138357143D01*
X189027676Y-138357143D02*
X188932438Y-138452381D01*
X188932438Y-138452381D02*
X188884819Y-138595238D01*
X188884819Y-138595238D02*
X188884819Y-138690476D01*
X188884819Y-138690476D02*
X188932438Y-138833333D01*
X188932438Y-138833333D02*
X188980057Y-138880952D01*
X189218152Y-139738095D02*
X189884819Y-139738095D01*
X188837200Y-139500000D02*
X189551485Y-139261905D01*
X189551485Y-139261905D02*
X189551485Y-139880952D01*
X188884819Y-140166667D02*
X188884819Y-140785714D01*
X188884819Y-140785714D02*
X189265771Y-140452381D01*
X189265771Y-140452381D02*
X189265771Y-140595238D01*
X189265771Y-140595238D02*
X189313390Y-140690476D01*
X189313390Y-140690476D02*
X189361009Y-140738095D01*
X189361009Y-140738095D02*
X189456247Y-140785714D01*
X189456247Y-140785714D02*
X189694342Y-140785714D01*
X189694342Y-140785714D02*
X189789580Y-140738095D01*
X189789580Y-140738095D02*
X189837200Y-140690476D01*
X189837200Y-140690476D02*
X189884819Y-140595238D01*
X189884819Y-140595238D02*
X189884819Y-140309524D01*
X189884819Y-140309524D02*
X189837200Y-140214286D01*
X189837200Y-140214286D02*
X189789580Y-140166667D01*
X189313390Y-141357143D02*
X189265771Y-141261905D01*
X189265771Y-141261905D02*
X189218152Y-141214286D01*
X189218152Y-141214286D02*
X189122914Y-141166667D01*
X189122914Y-141166667D02*
X189075295Y-141166667D01*
X189075295Y-141166667D02*
X188980057Y-141214286D01*
X188980057Y-141214286D02*
X188932438Y-141261905D01*
X188932438Y-141261905D02*
X188884819Y-141357143D01*
X188884819Y-141357143D02*
X188884819Y-141547619D01*
X188884819Y-141547619D02*
X188932438Y-141642857D01*
X188932438Y-141642857D02*
X188980057Y-141690476D01*
X188980057Y-141690476D02*
X189075295Y-141738095D01*
X189075295Y-141738095D02*
X189122914Y-141738095D01*
X189122914Y-141738095D02*
X189218152Y-141690476D01*
X189218152Y-141690476D02*
X189265771Y-141642857D01*
X189265771Y-141642857D02*
X189313390Y-141547619D01*
X189313390Y-141547619D02*
X189313390Y-141357143D01*
X189313390Y-141357143D02*
X189361009Y-141261905D01*
X189361009Y-141261905D02*
X189408628Y-141214286D01*
X189408628Y-141214286D02*
X189503866Y-141166667D01*
X189503866Y-141166667D02*
X189694342Y-141166667D01*
X189694342Y-141166667D02*
X189789580Y-141214286D01*
X189789580Y-141214286D02*
X189837200Y-141261905D01*
X189837200Y-141261905D02*
X189884819Y-141357143D01*
X189884819Y-141357143D02*
X189884819Y-141547619D01*
X189884819Y-141547619D02*
X189837200Y-141642857D01*
X189837200Y-141642857D02*
X189789580Y-141690476D01*
X189789580Y-141690476D02*
X189694342Y-141738095D01*
X189694342Y-141738095D02*
X189503866Y-141738095D01*
X189503866Y-141738095D02*
X189408628Y-141690476D01*
X189408628Y-141690476D02*
X189361009Y-141642857D01*
X189361009Y-141642857D02*
X189313390Y-141547619D01*
X159669047Y-85259580D02*
X159716666Y-85307200D01*
X159716666Y-85307200D02*
X159859523Y-85354819D01*
X159859523Y-85354819D02*
X159954761Y-85354819D01*
X159954761Y-85354819D02*
X160097618Y-85307200D01*
X160097618Y-85307200D02*
X160192856Y-85211961D01*
X160192856Y-85211961D02*
X160240475Y-85116723D01*
X160240475Y-85116723D02*
X160288094Y-84926247D01*
X160288094Y-84926247D02*
X160288094Y-84783390D01*
X160288094Y-84783390D02*
X160240475Y-84592914D01*
X160240475Y-84592914D02*
X160192856Y-84497676D01*
X160192856Y-84497676D02*
X160097618Y-84402438D01*
X160097618Y-84402438D02*
X159954761Y-84354819D01*
X159954761Y-84354819D02*
X159859523Y-84354819D01*
X159859523Y-84354819D02*
X159716666Y-84402438D01*
X159716666Y-84402438D02*
X159669047Y-84450057D01*
X158811904Y-84688152D02*
X158811904Y-85354819D01*
X159049999Y-84307200D02*
X159288094Y-85021485D01*
X159288094Y-85021485D02*
X158669047Y-85021485D01*
X157764285Y-85354819D02*
X158335713Y-85354819D01*
X158049999Y-85354819D02*
X158049999Y-84354819D01*
X158049999Y-84354819D02*
X158145237Y-84497676D01*
X158145237Y-84497676D02*
X158240475Y-84592914D01*
X158240475Y-84592914D02*
X158335713Y-84640533D01*
X157288094Y-85354819D02*
X157097618Y-85354819D01*
X157097618Y-85354819D02*
X157002380Y-85307200D01*
X157002380Y-85307200D02*
X156954761Y-85259580D01*
X156954761Y-85259580D02*
X156859523Y-85116723D01*
X156859523Y-85116723D02*
X156811904Y-84926247D01*
X156811904Y-84926247D02*
X156811904Y-84545295D01*
X156811904Y-84545295D02*
X156859523Y-84450057D01*
X156859523Y-84450057D02*
X156907142Y-84402438D01*
X156907142Y-84402438D02*
X157002380Y-84354819D01*
X157002380Y-84354819D02*
X157192856Y-84354819D01*
X157192856Y-84354819D02*
X157288094Y-84402438D01*
X157288094Y-84402438D02*
X157335713Y-84450057D01*
X157335713Y-84450057D02*
X157383332Y-84545295D01*
X157383332Y-84545295D02*
X157383332Y-84783390D01*
X157383332Y-84783390D02*
X157335713Y-84878628D01*
X157335713Y-84878628D02*
X157288094Y-84926247D01*
X157288094Y-84926247D02*
X157192856Y-84973866D01*
X157192856Y-84973866D02*
X157002380Y-84973866D01*
X157002380Y-84973866D02*
X156907142Y-84926247D01*
X156907142Y-84926247D02*
X156859523Y-84878628D01*
X156859523Y-84878628D02*
X156811904Y-84783390D01*
X158139580Y-72018452D02*
X158187200Y-71970833D01*
X158187200Y-71970833D02*
X158234819Y-71827976D01*
X158234819Y-71827976D02*
X158234819Y-71732738D01*
X158234819Y-71732738D02*
X158187200Y-71589881D01*
X158187200Y-71589881D02*
X158091961Y-71494643D01*
X158091961Y-71494643D02*
X157996723Y-71447024D01*
X157996723Y-71447024D02*
X157806247Y-71399405D01*
X157806247Y-71399405D02*
X157663390Y-71399405D01*
X157663390Y-71399405D02*
X157472914Y-71447024D01*
X157472914Y-71447024D02*
X157377676Y-71494643D01*
X157377676Y-71494643D02*
X157282438Y-71589881D01*
X157282438Y-71589881D02*
X157234819Y-71732738D01*
X157234819Y-71732738D02*
X157234819Y-71827976D01*
X157234819Y-71827976D02*
X157282438Y-71970833D01*
X157282438Y-71970833D02*
X157330057Y-72018452D01*
X157568152Y-72875595D02*
X158234819Y-72875595D01*
X157187200Y-72637500D02*
X157901485Y-72399405D01*
X157901485Y-72399405D02*
X157901485Y-73018452D01*
X157330057Y-73351786D02*
X157282438Y-73399405D01*
X157282438Y-73399405D02*
X157234819Y-73494643D01*
X157234819Y-73494643D02*
X157234819Y-73732738D01*
X157234819Y-73732738D02*
X157282438Y-73827976D01*
X157282438Y-73827976D02*
X157330057Y-73875595D01*
X157330057Y-73875595D02*
X157425295Y-73923214D01*
X157425295Y-73923214D02*
X157520533Y-73923214D01*
X157520533Y-73923214D02*
X157663390Y-73875595D01*
X157663390Y-73875595D02*
X158234819Y-73304167D01*
X158234819Y-73304167D02*
X158234819Y-73923214D01*
X157234819Y-74256548D02*
X157234819Y-74875595D01*
X157234819Y-74875595D02*
X157615771Y-74542262D01*
X157615771Y-74542262D02*
X157615771Y-74685119D01*
X157615771Y-74685119D02*
X157663390Y-74780357D01*
X157663390Y-74780357D02*
X157711009Y-74827976D01*
X157711009Y-74827976D02*
X157806247Y-74875595D01*
X157806247Y-74875595D02*
X158044342Y-74875595D01*
X158044342Y-74875595D02*
X158139580Y-74827976D01*
X158139580Y-74827976D02*
X158187200Y-74780357D01*
X158187200Y-74780357D02*
X158234819Y-74685119D01*
X158234819Y-74685119D02*
X158234819Y-74399405D01*
X158234819Y-74399405D02*
X158187200Y-74304167D01*
X158187200Y-74304167D02*
X158139580Y-74256548D01*
X111324819Y-70000952D02*
X110848628Y-69667619D01*
X111324819Y-69429524D02*
X110324819Y-69429524D01*
X110324819Y-69429524D02*
X110324819Y-69810476D01*
X110324819Y-69810476D02*
X110372438Y-69905714D01*
X110372438Y-69905714D02*
X110420057Y-69953333D01*
X110420057Y-69953333D02*
X110515295Y-70000952D01*
X110515295Y-70000952D02*
X110658152Y-70000952D01*
X110658152Y-70000952D02*
X110753390Y-69953333D01*
X110753390Y-69953333D02*
X110801009Y-69905714D01*
X110801009Y-69905714D02*
X110848628Y-69810476D01*
X110848628Y-69810476D02*
X110848628Y-69429524D01*
X110658152Y-70858095D02*
X111324819Y-70858095D01*
X110277200Y-70620000D02*
X110991485Y-70381905D01*
X110991485Y-70381905D02*
X110991485Y-71000952D01*
X110324819Y-71572381D02*
X110324819Y-71667619D01*
X110324819Y-71667619D02*
X110372438Y-71762857D01*
X110372438Y-71762857D02*
X110420057Y-71810476D01*
X110420057Y-71810476D02*
X110515295Y-71858095D01*
X110515295Y-71858095D02*
X110705771Y-71905714D01*
X110705771Y-71905714D02*
X110943866Y-71905714D01*
X110943866Y-71905714D02*
X111134342Y-71858095D01*
X111134342Y-71858095D02*
X111229580Y-71810476D01*
X111229580Y-71810476D02*
X111277200Y-71762857D01*
X111277200Y-71762857D02*
X111324819Y-71667619D01*
X111324819Y-71667619D02*
X111324819Y-71572381D01*
X111324819Y-71572381D02*
X111277200Y-71477143D01*
X111277200Y-71477143D02*
X111229580Y-71429524D01*
X111229580Y-71429524D02*
X111134342Y-71381905D01*
X111134342Y-71381905D02*
X110943866Y-71334286D01*
X110943866Y-71334286D02*
X110705771Y-71334286D01*
X110705771Y-71334286D02*
X110515295Y-71381905D01*
X110515295Y-71381905D02*
X110420057Y-71429524D01*
X110420057Y-71429524D02*
X110372438Y-71477143D01*
X110372438Y-71477143D02*
X110324819Y-71572381D01*
X110324819Y-72810476D02*
X110324819Y-72334286D01*
X110324819Y-72334286D02*
X110801009Y-72286667D01*
X110801009Y-72286667D02*
X110753390Y-72334286D01*
X110753390Y-72334286D02*
X110705771Y-72429524D01*
X110705771Y-72429524D02*
X110705771Y-72667619D01*
X110705771Y-72667619D02*
X110753390Y-72762857D01*
X110753390Y-72762857D02*
X110801009Y-72810476D01*
X110801009Y-72810476D02*
X110896247Y-72858095D01*
X110896247Y-72858095D02*
X111134342Y-72858095D01*
X111134342Y-72858095D02*
X111229580Y-72810476D01*
X111229580Y-72810476D02*
X111277200Y-72762857D01*
X111277200Y-72762857D02*
X111324819Y-72667619D01*
X111324819Y-72667619D02*
X111324819Y-72429524D01*
X111324819Y-72429524D02*
X111277200Y-72334286D01*
X111277200Y-72334286D02*
X111229580Y-72286667D01*
X148119047Y-87804819D02*
X148452380Y-87328628D01*
X148690475Y-87804819D02*
X148690475Y-86804819D01*
X148690475Y-86804819D02*
X148309523Y-86804819D01*
X148309523Y-86804819D02*
X148214285Y-86852438D01*
X148214285Y-86852438D02*
X148166666Y-86900057D01*
X148166666Y-86900057D02*
X148119047Y-86995295D01*
X148119047Y-86995295D02*
X148119047Y-87138152D01*
X148119047Y-87138152D02*
X148166666Y-87233390D01*
X148166666Y-87233390D02*
X148214285Y-87281009D01*
X148214285Y-87281009D02*
X148309523Y-87328628D01*
X148309523Y-87328628D02*
X148690475Y-87328628D01*
X147261904Y-87138152D02*
X147261904Y-87804819D01*
X147499999Y-86757200D02*
X147738094Y-87471485D01*
X147738094Y-87471485D02*
X147119047Y-87471485D01*
X146214285Y-87804819D02*
X146785713Y-87804819D01*
X146499999Y-87804819D02*
X146499999Y-86804819D01*
X146499999Y-86804819D02*
X146595237Y-86947676D01*
X146595237Y-86947676D02*
X146690475Y-87042914D01*
X146690475Y-87042914D02*
X146785713Y-87090533D01*
X145309523Y-86804819D02*
X145785713Y-86804819D01*
X145785713Y-86804819D02*
X145833332Y-87281009D01*
X145833332Y-87281009D02*
X145785713Y-87233390D01*
X145785713Y-87233390D02*
X145690475Y-87185771D01*
X145690475Y-87185771D02*
X145452380Y-87185771D01*
X145452380Y-87185771D02*
X145357142Y-87233390D01*
X145357142Y-87233390D02*
X145309523Y-87281009D01*
X145309523Y-87281009D02*
X145261904Y-87376247D01*
X145261904Y-87376247D02*
X145261904Y-87614342D01*
X145261904Y-87614342D02*
X145309523Y-87709580D01*
X145309523Y-87709580D02*
X145357142Y-87757200D01*
X145357142Y-87757200D02*
X145452380Y-87804819D01*
X145452380Y-87804819D02*
X145690475Y-87804819D01*
X145690475Y-87804819D02*
X145785713Y-87757200D01*
X145785713Y-87757200D02*
X145833332Y-87709580D01*
X118939580Y-78280952D02*
X118987200Y-78233333D01*
X118987200Y-78233333D02*
X119034819Y-78090476D01*
X119034819Y-78090476D02*
X119034819Y-77995238D01*
X119034819Y-77995238D02*
X118987200Y-77852381D01*
X118987200Y-77852381D02*
X118891961Y-77757143D01*
X118891961Y-77757143D02*
X118796723Y-77709524D01*
X118796723Y-77709524D02*
X118606247Y-77661905D01*
X118606247Y-77661905D02*
X118463390Y-77661905D01*
X118463390Y-77661905D02*
X118272914Y-77709524D01*
X118272914Y-77709524D02*
X118177676Y-77757143D01*
X118177676Y-77757143D02*
X118082438Y-77852381D01*
X118082438Y-77852381D02*
X118034819Y-77995238D01*
X118034819Y-77995238D02*
X118034819Y-78090476D01*
X118034819Y-78090476D02*
X118082438Y-78233333D01*
X118082438Y-78233333D02*
X118130057Y-78280952D01*
X118368152Y-79138095D02*
X119034819Y-79138095D01*
X117987200Y-78900000D02*
X118701485Y-78661905D01*
X118701485Y-78661905D02*
X118701485Y-79280952D01*
X118034819Y-79852381D02*
X118034819Y-79947619D01*
X118034819Y-79947619D02*
X118082438Y-80042857D01*
X118082438Y-80042857D02*
X118130057Y-80090476D01*
X118130057Y-80090476D02*
X118225295Y-80138095D01*
X118225295Y-80138095D02*
X118415771Y-80185714D01*
X118415771Y-80185714D02*
X118653866Y-80185714D01*
X118653866Y-80185714D02*
X118844342Y-80138095D01*
X118844342Y-80138095D02*
X118939580Y-80090476D01*
X118939580Y-80090476D02*
X118987200Y-80042857D01*
X118987200Y-80042857D02*
X119034819Y-79947619D01*
X119034819Y-79947619D02*
X119034819Y-79852381D01*
X119034819Y-79852381D02*
X118987200Y-79757143D01*
X118987200Y-79757143D02*
X118939580Y-79709524D01*
X118939580Y-79709524D02*
X118844342Y-79661905D01*
X118844342Y-79661905D02*
X118653866Y-79614286D01*
X118653866Y-79614286D02*
X118415771Y-79614286D01*
X118415771Y-79614286D02*
X118225295Y-79661905D01*
X118225295Y-79661905D02*
X118130057Y-79709524D01*
X118130057Y-79709524D02*
X118082438Y-79757143D01*
X118082438Y-79757143D02*
X118034819Y-79852381D01*
X118034819Y-80519048D02*
X118034819Y-81138095D01*
X118034819Y-81138095D02*
X118415771Y-80804762D01*
X118415771Y-80804762D02*
X118415771Y-80947619D01*
X118415771Y-80947619D02*
X118463390Y-81042857D01*
X118463390Y-81042857D02*
X118511009Y-81090476D01*
X118511009Y-81090476D02*
X118606247Y-81138095D01*
X118606247Y-81138095D02*
X118844342Y-81138095D01*
X118844342Y-81138095D02*
X118939580Y-81090476D01*
X118939580Y-81090476D02*
X118987200Y-81042857D01*
X118987200Y-81042857D02*
X119034819Y-80947619D01*
X119034819Y-80947619D02*
X119034819Y-80661905D01*
X119034819Y-80661905D02*
X118987200Y-80566667D01*
X118987200Y-80566667D02*
X118939580Y-80519048D01*
X137679580Y-89880952D02*
X137727200Y-89833333D01*
X137727200Y-89833333D02*
X137774819Y-89690476D01*
X137774819Y-89690476D02*
X137774819Y-89595238D01*
X137774819Y-89595238D02*
X137727200Y-89452381D01*
X137727200Y-89452381D02*
X137631961Y-89357143D01*
X137631961Y-89357143D02*
X137536723Y-89309524D01*
X137536723Y-89309524D02*
X137346247Y-89261905D01*
X137346247Y-89261905D02*
X137203390Y-89261905D01*
X137203390Y-89261905D02*
X137012914Y-89309524D01*
X137012914Y-89309524D02*
X136917676Y-89357143D01*
X136917676Y-89357143D02*
X136822438Y-89452381D01*
X136822438Y-89452381D02*
X136774819Y-89595238D01*
X136774819Y-89595238D02*
X136774819Y-89690476D01*
X136774819Y-89690476D02*
X136822438Y-89833333D01*
X136822438Y-89833333D02*
X136870057Y-89880952D01*
X137108152Y-90738095D02*
X137774819Y-90738095D01*
X136727200Y-90500000D02*
X137441485Y-90261905D01*
X137441485Y-90261905D02*
X137441485Y-90880952D01*
X136774819Y-91452381D02*
X136774819Y-91547619D01*
X136774819Y-91547619D02*
X136822438Y-91642857D01*
X136822438Y-91642857D02*
X136870057Y-91690476D01*
X136870057Y-91690476D02*
X136965295Y-91738095D01*
X136965295Y-91738095D02*
X137155771Y-91785714D01*
X137155771Y-91785714D02*
X137393866Y-91785714D01*
X137393866Y-91785714D02*
X137584342Y-91738095D01*
X137584342Y-91738095D02*
X137679580Y-91690476D01*
X137679580Y-91690476D02*
X137727200Y-91642857D01*
X137727200Y-91642857D02*
X137774819Y-91547619D01*
X137774819Y-91547619D02*
X137774819Y-91452381D01*
X137774819Y-91452381D02*
X137727200Y-91357143D01*
X137727200Y-91357143D02*
X137679580Y-91309524D01*
X137679580Y-91309524D02*
X137584342Y-91261905D01*
X137584342Y-91261905D02*
X137393866Y-91214286D01*
X137393866Y-91214286D02*
X137155771Y-91214286D01*
X137155771Y-91214286D02*
X136965295Y-91261905D01*
X136965295Y-91261905D02*
X136870057Y-91309524D01*
X136870057Y-91309524D02*
X136822438Y-91357143D01*
X136822438Y-91357143D02*
X136774819Y-91452381D01*
X136774819Y-92119048D02*
X136774819Y-92785714D01*
X136774819Y-92785714D02*
X137774819Y-92357143D01*
X157067795Y-94454819D02*
X157401128Y-93978628D01*
X157639223Y-94454819D02*
X157639223Y-93454819D01*
X157639223Y-93454819D02*
X157258271Y-93454819D01*
X157258271Y-93454819D02*
X157163033Y-93502438D01*
X157163033Y-93502438D02*
X157115414Y-93550057D01*
X157115414Y-93550057D02*
X157067795Y-93645295D01*
X157067795Y-93645295D02*
X157067795Y-93788152D01*
X157067795Y-93788152D02*
X157115414Y-93883390D01*
X157115414Y-93883390D02*
X157163033Y-93931009D01*
X157163033Y-93931009D02*
X157258271Y-93978628D01*
X157258271Y-93978628D02*
X157639223Y-93978628D01*
X156210652Y-93788152D02*
X156210652Y-94454819D01*
X156448747Y-93407200D02*
X156686842Y-94121485D01*
X156686842Y-94121485D02*
X156067795Y-94121485D01*
X155163033Y-94454819D02*
X155734461Y-94454819D01*
X155448747Y-94454819D02*
X155448747Y-93454819D01*
X155448747Y-93454819D02*
X155543985Y-93597676D01*
X155543985Y-93597676D02*
X155639223Y-93692914D01*
X155639223Y-93692914D02*
X155734461Y-93740533D01*
X154829699Y-93454819D02*
X154163033Y-93454819D01*
X154163033Y-93454819D02*
X154591604Y-94454819D01*
X193292319Y-92694285D02*
X194006604Y-92694285D01*
X194006604Y-92694285D02*
X194149461Y-92646666D01*
X194149461Y-92646666D02*
X194244700Y-92551428D01*
X194244700Y-92551428D02*
X194292319Y-92408571D01*
X194292319Y-92408571D02*
X194292319Y-92313333D01*
X193625652Y-93599047D02*
X194292319Y-93599047D01*
X193244700Y-93360952D02*
X193958985Y-93122857D01*
X193958985Y-93122857D02*
X193958985Y-93741904D01*
X193292319Y-94313333D02*
X193292319Y-94408571D01*
X193292319Y-94408571D02*
X193339938Y-94503809D01*
X193339938Y-94503809D02*
X193387557Y-94551428D01*
X193387557Y-94551428D02*
X193482795Y-94599047D01*
X193482795Y-94599047D02*
X193673271Y-94646666D01*
X193673271Y-94646666D02*
X193911366Y-94646666D01*
X193911366Y-94646666D02*
X194101842Y-94599047D01*
X194101842Y-94599047D02*
X194197080Y-94551428D01*
X194197080Y-94551428D02*
X194244700Y-94503809D01*
X194244700Y-94503809D02*
X194292319Y-94408571D01*
X194292319Y-94408571D02*
X194292319Y-94313333D01*
X194292319Y-94313333D02*
X194244700Y-94218095D01*
X194244700Y-94218095D02*
X194197080Y-94170476D01*
X194197080Y-94170476D02*
X194101842Y-94122857D01*
X194101842Y-94122857D02*
X193911366Y-94075238D01*
X193911366Y-94075238D02*
X193673271Y-94075238D01*
X193673271Y-94075238D02*
X193482795Y-94122857D01*
X193482795Y-94122857D02*
X193387557Y-94170476D01*
X193387557Y-94170476D02*
X193339938Y-94218095D01*
X193339938Y-94218095D02*
X193292319Y-94313333D01*
X193292319Y-95503809D02*
X193292319Y-95313333D01*
X193292319Y-95313333D02*
X193339938Y-95218095D01*
X193339938Y-95218095D02*
X193387557Y-95170476D01*
X193387557Y-95170476D02*
X193530414Y-95075238D01*
X193530414Y-95075238D02*
X193720890Y-95027619D01*
X193720890Y-95027619D02*
X194101842Y-95027619D01*
X194101842Y-95027619D02*
X194197080Y-95075238D01*
X194197080Y-95075238D02*
X194244700Y-95122857D01*
X194244700Y-95122857D02*
X194292319Y-95218095D01*
X194292319Y-95218095D02*
X194292319Y-95408571D01*
X194292319Y-95408571D02*
X194244700Y-95503809D01*
X194244700Y-95503809D02*
X194197080Y-95551428D01*
X194197080Y-95551428D02*
X194101842Y-95599047D01*
X194101842Y-95599047D02*
X193863747Y-95599047D01*
X193863747Y-95599047D02*
X193768509Y-95551428D01*
X193768509Y-95551428D02*
X193720890Y-95503809D01*
X193720890Y-95503809D02*
X193673271Y-95408571D01*
X193673271Y-95408571D02*
X193673271Y-95218095D01*
X193673271Y-95218095D02*
X193720890Y-95122857D01*
X193720890Y-95122857D02*
X193768509Y-95075238D01*
X193768509Y-95075238D02*
X193863747Y-95027619D01*
X119789580Y-137880952D02*
X119837200Y-137833333D01*
X119837200Y-137833333D02*
X119884819Y-137690476D01*
X119884819Y-137690476D02*
X119884819Y-137595238D01*
X119884819Y-137595238D02*
X119837200Y-137452381D01*
X119837200Y-137452381D02*
X119741961Y-137357143D01*
X119741961Y-137357143D02*
X119646723Y-137309524D01*
X119646723Y-137309524D02*
X119456247Y-137261905D01*
X119456247Y-137261905D02*
X119313390Y-137261905D01*
X119313390Y-137261905D02*
X119122914Y-137309524D01*
X119122914Y-137309524D02*
X119027676Y-137357143D01*
X119027676Y-137357143D02*
X118932438Y-137452381D01*
X118932438Y-137452381D02*
X118884819Y-137595238D01*
X118884819Y-137595238D02*
X118884819Y-137690476D01*
X118884819Y-137690476D02*
X118932438Y-137833333D01*
X118932438Y-137833333D02*
X118980057Y-137880952D01*
X119218152Y-138738095D02*
X119884819Y-138738095D01*
X118837200Y-138500000D02*
X119551485Y-138261905D01*
X119551485Y-138261905D02*
X119551485Y-138880952D01*
X118884819Y-139166667D02*
X118884819Y-139785714D01*
X118884819Y-139785714D02*
X119265771Y-139452381D01*
X119265771Y-139452381D02*
X119265771Y-139595238D01*
X119265771Y-139595238D02*
X119313390Y-139690476D01*
X119313390Y-139690476D02*
X119361009Y-139738095D01*
X119361009Y-139738095D02*
X119456247Y-139785714D01*
X119456247Y-139785714D02*
X119694342Y-139785714D01*
X119694342Y-139785714D02*
X119789580Y-139738095D01*
X119789580Y-139738095D02*
X119837200Y-139690476D01*
X119837200Y-139690476D02*
X119884819Y-139595238D01*
X119884819Y-139595238D02*
X119884819Y-139309524D01*
X119884819Y-139309524D02*
X119837200Y-139214286D01*
X119837200Y-139214286D02*
X119789580Y-139166667D01*
X119884819Y-140738095D02*
X119884819Y-140166667D01*
X119884819Y-140452381D02*
X118884819Y-140452381D01*
X118884819Y-140452381D02*
X119027676Y-140357143D01*
X119027676Y-140357143D02*
X119122914Y-140261905D01*
X119122914Y-140261905D02*
X119170533Y-140166667D01*
X197714285Y-86804819D02*
X197714285Y-87614342D01*
X197714285Y-87614342D02*
X197666666Y-87709580D01*
X197666666Y-87709580D02*
X197619047Y-87757200D01*
X197619047Y-87757200D02*
X197523809Y-87804819D01*
X197523809Y-87804819D02*
X197333333Y-87804819D01*
X197333333Y-87804819D02*
X197238095Y-87757200D01*
X197238095Y-87757200D02*
X197190476Y-87709580D01*
X197190476Y-87709580D02*
X197142857Y-87614342D01*
X197142857Y-87614342D02*
X197142857Y-86804819D01*
X196238095Y-87138152D02*
X196238095Y-87804819D01*
X196476190Y-86757200D02*
X196714285Y-87471485D01*
X196714285Y-87471485D02*
X196095238Y-87471485D01*
X195523809Y-86804819D02*
X195428571Y-86804819D01*
X195428571Y-86804819D02*
X195333333Y-86852438D01*
X195333333Y-86852438D02*
X195285714Y-86900057D01*
X195285714Y-86900057D02*
X195238095Y-86995295D01*
X195238095Y-86995295D02*
X195190476Y-87185771D01*
X195190476Y-87185771D02*
X195190476Y-87423866D01*
X195190476Y-87423866D02*
X195238095Y-87614342D01*
X195238095Y-87614342D02*
X195285714Y-87709580D01*
X195285714Y-87709580D02*
X195333333Y-87757200D01*
X195333333Y-87757200D02*
X195428571Y-87804819D01*
X195428571Y-87804819D02*
X195523809Y-87804819D01*
X195523809Y-87804819D02*
X195619047Y-87757200D01*
X195619047Y-87757200D02*
X195666666Y-87709580D01*
X195666666Y-87709580D02*
X195714285Y-87614342D01*
X195714285Y-87614342D02*
X195761904Y-87423866D01*
X195761904Y-87423866D02*
X195761904Y-87185771D01*
X195761904Y-87185771D02*
X195714285Y-86995295D01*
X195714285Y-86995295D02*
X195666666Y-86900057D01*
X195666666Y-86900057D02*
X195619047Y-86852438D01*
X195619047Y-86852438D02*
X195523809Y-86804819D01*
X194714285Y-87804819D02*
X194523809Y-87804819D01*
X194523809Y-87804819D02*
X194428571Y-87757200D01*
X194428571Y-87757200D02*
X194380952Y-87709580D01*
X194380952Y-87709580D02*
X194285714Y-87566723D01*
X194285714Y-87566723D02*
X194238095Y-87376247D01*
X194238095Y-87376247D02*
X194238095Y-86995295D01*
X194238095Y-86995295D02*
X194285714Y-86900057D01*
X194285714Y-86900057D02*
X194333333Y-86852438D01*
X194333333Y-86852438D02*
X194428571Y-86804819D01*
X194428571Y-86804819D02*
X194619047Y-86804819D01*
X194619047Y-86804819D02*
X194714285Y-86852438D01*
X194714285Y-86852438D02*
X194761904Y-86900057D01*
X194761904Y-86900057D02*
X194809523Y-86995295D01*
X194809523Y-86995295D02*
X194809523Y-87233390D01*
X194809523Y-87233390D02*
X194761904Y-87328628D01*
X194761904Y-87328628D02*
X194714285Y-87376247D01*
X194714285Y-87376247D02*
X194619047Y-87423866D01*
X194619047Y-87423866D02*
X194428571Y-87423866D01*
X194428571Y-87423866D02*
X194333333Y-87376247D01*
X194333333Y-87376247D02*
X194285714Y-87328628D01*
X194285714Y-87328628D02*
X194238095Y-87233390D01*
X188869047Y-91739580D02*
X188916666Y-91787200D01*
X188916666Y-91787200D02*
X189059523Y-91834819D01*
X189059523Y-91834819D02*
X189154761Y-91834819D01*
X189154761Y-91834819D02*
X189297618Y-91787200D01*
X189297618Y-91787200D02*
X189392856Y-91691961D01*
X189392856Y-91691961D02*
X189440475Y-91596723D01*
X189440475Y-91596723D02*
X189488094Y-91406247D01*
X189488094Y-91406247D02*
X189488094Y-91263390D01*
X189488094Y-91263390D02*
X189440475Y-91072914D01*
X189440475Y-91072914D02*
X189392856Y-90977676D01*
X189392856Y-90977676D02*
X189297618Y-90882438D01*
X189297618Y-90882438D02*
X189154761Y-90834819D01*
X189154761Y-90834819D02*
X189059523Y-90834819D01*
X189059523Y-90834819D02*
X188916666Y-90882438D01*
X188916666Y-90882438D02*
X188869047Y-90930057D01*
X188011904Y-91168152D02*
X188011904Y-91834819D01*
X188249999Y-90787200D02*
X188488094Y-91501485D01*
X188488094Y-91501485D02*
X187869047Y-91501485D01*
X186964285Y-91834819D02*
X187535713Y-91834819D01*
X187249999Y-91834819D02*
X187249999Y-90834819D01*
X187249999Y-90834819D02*
X187345237Y-90977676D01*
X187345237Y-90977676D02*
X187440475Y-91072914D01*
X187440475Y-91072914D02*
X187535713Y-91120533D01*
X186583332Y-90930057D02*
X186535713Y-90882438D01*
X186535713Y-90882438D02*
X186440475Y-90834819D01*
X186440475Y-90834819D02*
X186202380Y-90834819D01*
X186202380Y-90834819D02*
X186107142Y-90882438D01*
X186107142Y-90882438D02*
X186059523Y-90930057D01*
X186059523Y-90930057D02*
X186011904Y-91025295D01*
X186011904Y-91025295D02*
X186011904Y-91120533D01*
X186011904Y-91120533D02*
X186059523Y-91263390D01*
X186059523Y-91263390D02*
X186630951Y-91834819D01*
X186630951Y-91834819D02*
X186011904Y-91834819D01*
X116959047Y-76864819D02*
X117292380Y-76388628D01*
X117530475Y-76864819D02*
X117530475Y-75864819D01*
X117530475Y-75864819D02*
X117149523Y-75864819D01*
X117149523Y-75864819D02*
X117054285Y-75912438D01*
X117054285Y-75912438D02*
X117006666Y-75960057D01*
X117006666Y-75960057D02*
X116959047Y-76055295D01*
X116959047Y-76055295D02*
X116959047Y-76198152D01*
X116959047Y-76198152D02*
X117006666Y-76293390D01*
X117006666Y-76293390D02*
X117054285Y-76341009D01*
X117054285Y-76341009D02*
X117149523Y-76388628D01*
X117149523Y-76388628D02*
X117530475Y-76388628D01*
X116101904Y-76198152D02*
X116101904Y-76864819D01*
X116339999Y-75817200D02*
X116578094Y-76531485D01*
X116578094Y-76531485D02*
X115959047Y-76531485D01*
X115387618Y-75864819D02*
X115292380Y-75864819D01*
X115292380Y-75864819D02*
X115197142Y-75912438D01*
X115197142Y-75912438D02*
X115149523Y-75960057D01*
X115149523Y-75960057D02*
X115101904Y-76055295D01*
X115101904Y-76055295D02*
X115054285Y-76245771D01*
X115054285Y-76245771D02*
X115054285Y-76483866D01*
X115054285Y-76483866D02*
X115101904Y-76674342D01*
X115101904Y-76674342D02*
X115149523Y-76769580D01*
X115149523Y-76769580D02*
X115197142Y-76817200D01*
X115197142Y-76817200D02*
X115292380Y-76864819D01*
X115292380Y-76864819D02*
X115387618Y-76864819D01*
X115387618Y-76864819D02*
X115482856Y-76817200D01*
X115482856Y-76817200D02*
X115530475Y-76769580D01*
X115530475Y-76769580D02*
X115578094Y-76674342D01*
X115578094Y-76674342D02*
X115625713Y-76483866D01*
X115625713Y-76483866D02*
X115625713Y-76245771D01*
X115625713Y-76245771D02*
X115578094Y-76055295D01*
X115578094Y-76055295D02*
X115530475Y-75960057D01*
X115530475Y-75960057D02*
X115482856Y-75912438D01*
X115482856Y-75912438D02*
X115387618Y-75864819D01*
X114673332Y-75960057D02*
X114625713Y-75912438D01*
X114625713Y-75912438D02*
X114530475Y-75864819D01*
X114530475Y-75864819D02*
X114292380Y-75864819D01*
X114292380Y-75864819D02*
X114197142Y-75912438D01*
X114197142Y-75912438D02*
X114149523Y-75960057D01*
X114149523Y-75960057D02*
X114101904Y-76055295D01*
X114101904Y-76055295D02*
X114101904Y-76150533D01*
X114101904Y-76150533D02*
X114149523Y-76293390D01*
X114149523Y-76293390D02*
X114720951Y-76864819D01*
X114720951Y-76864819D02*
X114101904Y-76864819D01*
X147169047Y-76934819D02*
X147645237Y-76934819D01*
X147645237Y-76934819D02*
X147645237Y-75934819D01*
X146407142Y-76268152D02*
X146407142Y-76934819D01*
X146645237Y-75887200D02*
X146883332Y-76601485D01*
X146883332Y-76601485D02*
X146264285Y-76601485D01*
X145692856Y-75934819D02*
X145597618Y-75934819D01*
X145597618Y-75934819D02*
X145502380Y-75982438D01*
X145502380Y-75982438D02*
X145454761Y-76030057D01*
X145454761Y-76030057D02*
X145407142Y-76125295D01*
X145407142Y-76125295D02*
X145359523Y-76315771D01*
X145359523Y-76315771D02*
X145359523Y-76553866D01*
X145359523Y-76553866D02*
X145407142Y-76744342D01*
X145407142Y-76744342D02*
X145454761Y-76839580D01*
X145454761Y-76839580D02*
X145502380Y-76887200D01*
X145502380Y-76887200D02*
X145597618Y-76934819D01*
X145597618Y-76934819D02*
X145692856Y-76934819D01*
X145692856Y-76934819D02*
X145788094Y-76887200D01*
X145788094Y-76887200D02*
X145835713Y-76839580D01*
X145835713Y-76839580D02*
X145883332Y-76744342D01*
X145883332Y-76744342D02*
X145930951Y-76553866D01*
X145930951Y-76553866D02*
X145930951Y-76315771D01*
X145930951Y-76315771D02*
X145883332Y-76125295D01*
X145883332Y-76125295D02*
X145835713Y-76030057D01*
X145835713Y-76030057D02*
X145788094Y-75982438D01*
X145788094Y-75982438D02*
X145692856Y-75934819D01*
X144978570Y-76030057D02*
X144930951Y-75982438D01*
X144930951Y-75982438D02*
X144835713Y-75934819D01*
X144835713Y-75934819D02*
X144597618Y-75934819D01*
X144597618Y-75934819D02*
X144502380Y-75982438D01*
X144502380Y-75982438D02*
X144454761Y-76030057D01*
X144454761Y-76030057D02*
X144407142Y-76125295D01*
X144407142Y-76125295D02*
X144407142Y-76220533D01*
X144407142Y-76220533D02*
X144454761Y-76363390D01*
X144454761Y-76363390D02*
X145026189Y-76934819D01*
X145026189Y-76934819D02*
X144407142Y-76934819D01*
X138454819Y-68880952D02*
X137978628Y-68547619D01*
X138454819Y-68309524D02*
X137454819Y-68309524D01*
X137454819Y-68309524D02*
X137454819Y-68690476D01*
X137454819Y-68690476D02*
X137502438Y-68785714D01*
X137502438Y-68785714D02*
X137550057Y-68833333D01*
X137550057Y-68833333D02*
X137645295Y-68880952D01*
X137645295Y-68880952D02*
X137788152Y-68880952D01*
X137788152Y-68880952D02*
X137883390Y-68833333D01*
X137883390Y-68833333D02*
X137931009Y-68785714D01*
X137931009Y-68785714D02*
X137978628Y-68690476D01*
X137978628Y-68690476D02*
X137978628Y-68309524D01*
X137788152Y-69738095D02*
X138454819Y-69738095D01*
X137407200Y-69500000D02*
X138121485Y-69261905D01*
X138121485Y-69261905D02*
X138121485Y-69880952D01*
X138454819Y-70785714D02*
X138454819Y-70214286D01*
X138454819Y-70500000D02*
X137454819Y-70500000D01*
X137454819Y-70500000D02*
X137597676Y-70404762D01*
X137597676Y-70404762D02*
X137692914Y-70309524D01*
X137692914Y-70309524D02*
X137740533Y-70214286D01*
X137454819Y-71404762D02*
X137454819Y-71500000D01*
X137454819Y-71500000D02*
X137502438Y-71595238D01*
X137502438Y-71595238D02*
X137550057Y-71642857D01*
X137550057Y-71642857D02*
X137645295Y-71690476D01*
X137645295Y-71690476D02*
X137835771Y-71738095D01*
X137835771Y-71738095D02*
X138073866Y-71738095D01*
X138073866Y-71738095D02*
X138264342Y-71690476D01*
X138264342Y-71690476D02*
X138359580Y-71642857D01*
X138359580Y-71642857D02*
X138407200Y-71595238D01*
X138407200Y-71595238D02*
X138454819Y-71500000D01*
X138454819Y-71500000D02*
X138454819Y-71404762D01*
X138454819Y-71404762D02*
X138407200Y-71309524D01*
X138407200Y-71309524D02*
X138359580Y-71261905D01*
X138359580Y-71261905D02*
X138264342Y-71214286D01*
X138264342Y-71214286D02*
X138073866Y-71166667D01*
X138073866Y-71166667D02*
X137835771Y-71166667D01*
X137835771Y-71166667D02*
X137645295Y-71214286D01*
X137645295Y-71214286D02*
X137550057Y-71261905D01*
X137550057Y-71261905D02*
X137502438Y-71309524D01*
X137502438Y-71309524D02*
X137454819Y-71404762D01*
X190854819Y-70309524D02*
X189854819Y-70309524D01*
X189854819Y-70309524D02*
X189854819Y-70547619D01*
X189854819Y-70547619D02*
X189902438Y-70690476D01*
X189902438Y-70690476D02*
X189997676Y-70785714D01*
X189997676Y-70785714D02*
X190092914Y-70833333D01*
X190092914Y-70833333D02*
X190283390Y-70880952D01*
X190283390Y-70880952D02*
X190426247Y-70880952D01*
X190426247Y-70880952D02*
X190616723Y-70833333D01*
X190616723Y-70833333D02*
X190711961Y-70785714D01*
X190711961Y-70785714D02*
X190807200Y-70690476D01*
X190807200Y-70690476D02*
X190854819Y-70547619D01*
X190854819Y-70547619D02*
X190854819Y-70309524D01*
X190188152Y-71738095D02*
X190854819Y-71738095D01*
X189807200Y-71500000D02*
X190521485Y-71261905D01*
X190521485Y-71261905D02*
X190521485Y-71880952D01*
X189854819Y-72452381D02*
X189854819Y-72547619D01*
X189854819Y-72547619D02*
X189902438Y-72642857D01*
X189902438Y-72642857D02*
X189950057Y-72690476D01*
X189950057Y-72690476D02*
X190045295Y-72738095D01*
X190045295Y-72738095D02*
X190235771Y-72785714D01*
X190235771Y-72785714D02*
X190473866Y-72785714D01*
X190473866Y-72785714D02*
X190664342Y-72738095D01*
X190664342Y-72738095D02*
X190759580Y-72690476D01*
X190759580Y-72690476D02*
X190807200Y-72642857D01*
X190807200Y-72642857D02*
X190854819Y-72547619D01*
X190854819Y-72547619D02*
X190854819Y-72452381D01*
X190854819Y-72452381D02*
X190807200Y-72357143D01*
X190807200Y-72357143D02*
X190759580Y-72309524D01*
X190759580Y-72309524D02*
X190664342Y-72261905D01*
X190664342Y-72261905D02*
X190473866Y-72214286D01*
X190473866Y-72214286D02*
X190235771Y-72214286D01*
X190235771Y-72214286D02*
X190045295Y-72261905D01*
X190045295Y-72261905D02*
X189950057Y-72309524D01*
X189950057Y-72309524D02*
X189902438Y-72357143D01*
X189902438Y-72357143D02*
X189854819Y-72452381D01*
X190854819Y-73738095D02*
X190854819Y-73166667D01*
X190854819Y-73452381D02*
X189854819Y-73452381D01*
X189854819Y-73452381D02*
X189997676Y-73357143D01*
X189997676Y-73357143D02*
X190092914Y-73261905D01*
X190092914Y-73261905D02*
X190140533Y-73166667D01*
X192119047Y-96139580D02*
X192166666Y-96187200D01*
X192166666Y-96187200D02*
X192309523Y-96234819D01*
X192309523Y-96234819D02*
X192404761Y-96234819D01*
X192404761Y-96234819D02*
X192547618Y-96187200D01*
X192547618Y-96187200D02*
X192642856Y-96091961D01*
X192642856Y-96091961D02*
X192690475Y-95996723D01*
X192690475Y-95996723D02*
X192738094Y-95806247D01*
X192738094Y-95806247D02*
X192738094Y-95663390D01*
X192738094Y-95663390D02*
X192690475Y-95472914D01*
X192690475Y-95472914D02*
X192642856Y-95377676D01*
X192642856Y-95377676D02*
X192547618Y-95282438D01*
X192547618Y-95282438D02*
X192404761Y-95234819D01*
X192404761Y-95234819D02*
X192309523Y-95234819D01*
X192309523Y-95234819D02*
X192166666Y-95282438D01*
X192166666Y-95282438D02*
X192119047Y-95330057D01*
X191261904Y-95568152D02*
X191261904Y-96234819D01*
X191499999Y-95187200D02*
X191738094Y-95901485D01*
X191738094Y-95901485D02*
X191119047Y-95901485D01*
X190214285Y-96234819D02*
X190785713Y-96234819D01*
X190499999Y-96234819D02*
X190499999Y-95234819D01*
X190499999Y-95234819D02*
X190595237Y-95377676D01*
X190595237Y-95377676D02*
X190690475Y-95472914D01*
X190690475Y-95472914D02*
X190785713Y-95520533D01*
X189595237Y-95234819D02*
X189499999Y-95234819D01*
X189499999Y-95234819D02*
X189404761Y-95282438D01*
X189404761Y-95282438D02*
X189357142Y-95330057D01*
X189357142Y-95330057D02*
X189309523Y-95425295D01*
X189309523Y-95425295D02*
X189261904Y-95615771D01*
X189261904Y-95615771D02*
X189261904Y-95853866D01*
X189261904Y-95853866D02*
X189309523Y-96044342D01*
X189309523Y-96044342D02*
X189357142Y-96139580D01*
X189357142Y-96139580D02*
X189404761Y-96187200D01*
X189404761Y-96187200D02*
X189499999Y-96234819D01*
X189499999Y-96234819D02*
X189595237Y-96234819D01*
X189595237Y-96234819D02*
X189690475Y-96187200D01*
X189690475Y-96187200D02*
X189738094Y-96139580D01*
X189738094Y-96139580D02*
X189785713Y-96044342D01*
X189785713Y-96044342D02*
X189833332Y-95853866D01*
X189833332Y-95853866D02*
X189833332Y-95615771D01*
X189833332Y-95615771D02*
X189785713Y-95425295D01*
X189785713Y-95425295D02*
X189738094Y-95330057D01*
X189738094Y-95330057D02*
X189690475Y-95282438D01*
X189690475Y-95282438D02*
X189595237Y-95234819D01*
X143679580Y-78880952D02*
X143727200Y-78833333D01*
X143727200Y-78833333D02*
X143774819Y-78690476D01*
X143774819Y-78690476D02*
X143774819Y-78595238D01*
X143774819Y-78595238D02*
X143727200Y-78452381D01*
X143727200Y-78452381D02*
X143631961Y-78357143D01*
X143631961Y-78357143D02*
X143536723Y-78309524D01*
X143536723Y-78309524D02*
X143346247Y-78261905D01*
X143346247Y-78261905D02*
X143203390Y-78261905D01*
X143203390Y-78261905D02*
X143012914Y-78309524D01*
X143012914Y-78309524D02*
X142917676Y-78357143D01*
X142917676Y-78357143D02*
X142822438Y-78452381D01*
X142822438Y-78452381D02*
X142774819Y-78595238D01*
X142774819Y-78595238D02*
X142774819Y-78690476D01*
X142774819Y-78690476D02*
X142822438Y-78833333D01*
X142822438Y-78833333D02*
X142870057Y-78880952D01*
X143108152Y-79738095D02*
X143774819Y-79738095D01*
X142727200Y-79500000D02*
X143441485Y-79261905D01*
X143441485Y-79261905D02*
X143441485Y-79880952D01*
X142870057Y-80214286D02*
X142822438Y-80261905D01*
X142822438Y-80261905D02*
X142774819Y-80357143D01*
X142774819Y-80357143D02*
X142774819Y-80595238D01*
X142774819Y-80595238D02*
X142822438Y-80690476D01*
X142822438Y-80690476D02*
X142870057Y-80738095D01*
X142870057Y-80738095D02*
X142965295Y-80785714D01*
X142965295Y-80785714D02*
X143060533Y-80785714D01*
X143060533Y-80785714D02*
X143203390Y-80738095D01*
X143203390Y-80738095D02*
X143774819Y-80166667D01*
X143774819Y-80166667D02*
X143774819Y-80785714D01*
X142774819Y-81404762D02*
X142774819Y-81500000D01*
X142774819Y-81500000D02*
X142822438Y-81595238D01*
X142822438Y-81595238D02*
X142870057Y-81642857D01*
X142870057Y-81642857D02*
X142965295Y-81690476D01*
X142965295Y-81690476D02*
X143155771Y-81738095D01*
X143155771Y-81738095D02*
X143393866Y-81738095D01*
X143393866Y-81738095D02*
X143584342Y-81690476D01*
X143584342Y-81690476D02*
X143679580Y-81642857D01*
X143679580Y-81642857D02*
X143727200Y-81595238D01*
X143727200Y-81595238D02*
X143774819Y-81500000D01*
X143774819Y-81500000D02*
X143774819Y-81404762D01*
X143774819Y-81404762D02*
X143727200Y-81309524D01*
X143727200Y-81309524D02*
X143679580Y-81261905D01*
X143679580Y-81261905D02*
X143584342Y-81214286D01*
X143584342Y-81214286D02*
X143393866Y-81166667D01*
X143393866Y-81166667D02*
X143155771Y-81166667D01*
X143155771Y-81166667D02*
X142965295Y-81214286D01*
X142965295Y-81214286D02*
X142870057Y-81261905D01*
X142870057Y-81261905D02*
X142822438Y-81309524D01*
X142822438Y-81309524D02*
X142774819Y-81404762D01*
X189229580Y-98443452D02*
X189277200Y-98395833D01*
X189277200Y-98395833D02*
X189324819Y-98252976D01*
X189324819Y-98252976D02*
X189324819Y-98157738D01*
X189324819Y-98157738D02*
X189277200Y-98014881D01*
X189277200Y-98014881D02*
X189181961Y-97919643D01*
X189181961Y-97919643D02*
X189086723Y-97872024D01*
X189086723Y-97872024D02*
X188896247Y-97824405D01*
X188896247Y-97824405D02*
X188753390Y-97824405D01*
X188753390Y-97824405D02*
X188562914Y-97872024D01*
X188562914Y-97872024D02*
X188467676Y-97919643D01*
X188467676Y-97919643D02*
X188372438Y-98014881D01*
X188372438Y-98014881D02*
X188324819Y-98157738D01*
X188324819Y-98157738D02*
X188324819Y-98252976D01*
X188324819Y-98252976D02*
X188372438Y-98395833D01*
X188372438Y-98395833D02*
X188420057Y-98443452D01*
X188658152Y-99300595D02*
X189324819Y-99300595D01*
X188277200Y-99062500D02*
X188991485Y-98824405D01*
X188991485Y-98824405D02*
X188991485Y-99443452D01*
X188658152Y-100252976D02*
X189324819Y-100252976D01*
X188277200Y-100014881D02*
X188991485Y-99776786D01*
X188991485Y-99776786D02*
X188991485Y-100395833D01*
X188324819Y-101205357D02*
X188324819Y-101014881D01*
X188324819Y-101014881D02*
X188372438Y-100919643D01*
X188372438Y-100919643D02*
X188420057Y-100872024D01*
X188420057Y-100872024D02*
X188562914Y-100776786D01*
X188562914Y-100776786D02*
X188753390Y-100729167D01*
X188753390Y-100729167D02*
X189134342Y-100729167D01*
X189134342Y-100729167D02*
X189229580Y-100776786D01*
X189229580Y-100776786D02*
X189277200Y-100824405D01*
X189277200Y-100824405D02*
X189324819Y-100919643D01*
X189324819Y-100919643D02*
X189324819Y-101110119D01*
X189324819Y-101110119D02*
X189277200Y-101205357D01*
X189277200Y-101205357D02*
X189229580Y-101252976D01*
X189229580Y-101252976D02*
X189134342Y-101300595D01*
X189134342Y-101300595D02*
X188896247Y-101300595D01*
X188896247Y-101300595D02*
X188801009Y-101252976D01*
X188801009Y-101252976D02*
X188753390Y-101205357D01*
X188753390Y-101205357D02*
X188705771Y-101110119D01*
X188705771Y-101110119D02*
X188705771Y-100919643D01*
X188705771Y-100919643D02*
X188753390Y-100824405D01*
X188753390Y-100824405D02*
X188801009Y-100776786D01*
X188801009Y-100776786D02*
X188896247Y-100729167D01*
X125679580Y-90723452D02*
X125727200Y-90675833D01*
X125727200Y-90675833D02*
X125774819Y-90532976D01*
X125774819Y-90532976D02*
X125774819Y-90437738D01*
X125774819Y-90437738D02*
X125727200Y-90294881D01*
X125727200Y-90294881D02*
X125631961Y-90199643D01*
X125631961Y-90199643D02*
X125536723Y-90152024D01*
X125536723Y-90152024D02*
X125346247Y-90104405D01*
X125346247Y-90104405D02*
X125203390Y-90104405D01*
X125203390Y-90104405D02*
X125012914Y-90152024D01*
X125012914Y-90152024D02*
X124917676Y-90199643D01*
X124917676Y-90199643D02*
X124822438Y-90294881D01*
X124822438Y-90294881D02*
X124774819Y-90437738D01*
X124774819Y-90437738D02*
X124774819Y-90532976D01*
X124774819Y-90532976D02*
X124822438Y-90675833D01*
X124822438Y-90675833D02*
X124870057Y-90723452D01*
X125108152Y-91580595D02*
X125774819Y-91580595D01*
X124727200Y-91342500D02*
X125441485Y-91104405D01*
X125441485Y-91104405D02*
X125441485Y-91723452D01*
X124774819Y-92294881D02*
X124774819Y-92390119D01*
X124774819Y-92390119D02*
X124822438Y-92485357D01*
X124822438Y-92485357D02*
X124870057Y-92532976D01*
X124870057Y-92532976D02*
X124965295Y-92580595D01*
X124965295Y-92580595D02*
X125155771Y-92628214D01*
X125155771Y-92628214D02*
X125393866Y-92628214D01*
X125393866Y-92628214D02*
X125584342Y-92580595D01*
X125584342Y-92580595D02*
X125679580Y-92532976D01*
X125679580Y-92532976D02*
X125727200Y-92485357D01*
X125727200Y-92485357D02*
X125774819Y-92390119D01*
X125774819Y-92390119D02*
X125774819Y-92294881D01*
X125774819Y-92294881D02*
X125727200Y-92199643D01*
X125727200Y-92199643D02*
X125679580Y-92152024D01*
X125679580Y-92152024D02*
X125584342Y-92104405D01*
X125584342Y-92104405D02*
X125393866Y-92056786D01*
X125393866Y-92056786D02*
X125155771Y-92056786D01*
X125155771Y-92056786D02*
X124965295Y-92104405D01*
X124965295Y-92104405D02*
X124870057Y-92152024D01*
X124870057Y-92152024D02*
X124822438Y-92199643D01*
X124822438Y-92199643D02*
X124774819Y-92294881D01*
X124774819Y-93532976D02*
X124774819Y-93056786D01*
X124774819Y-93056786D02*
X125251009Y-93009167D01*
X125251009Y-93009167D02*
X125203390Y-93056786D01*
X125203390Y-93056786D02*
X125155771Y-93152024D01*
X125155771Y-93152024D02*
X125155771Y-93390119D01*
X125155771Y-93390119D02*
X125203390Y-93485357D01*
X125203390Y-93485357D02*
X125251009Y-93532976D01*
X125251009Y-93532976D02*
X125346247Y-93580595D01*
X125346247Y-93580595D02*
X125584342Y-93580595D01*
X125584342Y-93580595D02*
X125679580Y-93532976D01*
X125679580Y-93532976D02*
X125727200Y-93485357D01*
X125727200Y-93485357D02*
X125774819Y-93390119D01*
X125774819Y-93390119D02*
X125774819Y-93152024D01*
X125774819Y-93152024D02*
X125727200Y-93056786D01*
X125727200Y-93056786D02*
X125679580Y-93009167D01*
X132524285Y-77174819D02*
X132524285Y-77984342D01*
X132524285Y-77984342D02*
X132476666Y-78079580D01*
X132476666Y-78079580D02*
X132429047Y-78127200D01*
X132429047Y-78127200D02*
X132333809Y-78174819D01*
X132333809Y-78174819D02*
X132143333Y-78174819D01*
X132143333Y-78174819D02*
X132048095Y-78127200D01*
X132048095Y-78127200D02*
X132000476Y-78079580D01*
X132000476Y-78079580D02*
X131952857Y-77984342D01*
X131952857Y-77984342D02*
X131952857Y-77174819D01*
X131048095Y-77508152D02*
X131048095Y-78174819D01*
X131286190Y-77127200D02*
X131524285Y-77841485D01*
X131524285Y-77841485D02*
X130905238Y-77841485D01*
X130333809Y-77174819D02*
X130238571Y-77174819D01*
X130238571Y-77174819D02*
X130143333Y-77222438D01*
X130143333Y-77222438D02*
X130095714Y-77270057D01*
X130095714Y-77270057D02*
X130048095Y-77365295D01*
X130048095Y-77365295D02*
X130000476Y-77555771D01*
X130000476Y-77555771D02*
X130000476Y-77793866D01*
X130000476Y-77793866D02*
X130048095Y-77984342D01*
X130048095Y-77984342D02*
X130095714Y-78079580D01*
X130095714Y-78079580D02*
X130143333Y-78127200D01*
X130143333Y-78127200D02*
X130238571Y-78174819D01*
X130238571Y-78174819D02*
X130333809Y-78174819D01*
X130333809Y-78174819D02*
X130429047Y-78127200D01*
X130429047Y-78127200D02*
X130476666Y-78079580D01*
X130476666Y-78079580D02*
X130524285Y-77984342D01*
X130524285Y-77984342D02*
X130571904Y-77793866D01*
X130571904Y-77793866D02*
X130571904Y-77555771D01*
X130571904Y-77555771D02*
X130524285Y-77365295D01*
X130524285Y-77365295D02*
X130476666Y-77270057D01*
X130476666Y-77270057D02*
X130429047Y-77222438D01*
X130429047Y-77222438D02*
X130333809Y-77174819D01*
X129143333Y-77174819D02*
X129333809Y-77174819D01*
X129333809Y-77174819D02*
X129429047Y-77222438D01*
X129429047Y-77222438D02*
X129476666Y-77270057D01*
X129476666Y-77270057D02*
X129571904Y-77412914D01*
X129571904Y-77412914D02*
X129619523Y-77603390D01*
X129619523Y-77603390D02*
X129619523Y-77984342D01*
X129619523Y-77984342D02*
X129571904Y-78079580D01*
X129571904Y-78079580D02*
X129524285Y-78127200D01*
X129524285Y-78127200D02*
X129429047Y-78174819D01*
X129429047Y-78174819D02*
X129238571Y-78174819D01*
X129238571Y-78174819D02*
X129143333Y-78127200D01*
X129143333Y-78127200D02*
X129095714Y-78079580D01*
X129095714Y-78079580D02*
X129048095Y-77984342D01*
X129048095Y-77984342D02*
X129048095Y-77746247D01*
X129048095Y-77746247D02*
X129095714Y-77651009D01*
X129095714Y-77651009D02*
X129143333Y-77603390D01*
X129143333Y-77603390D02*
X129238571Y-77555771D01*
X129238571Y-77555771D02*
X129429047Y-77555771D01*
X129429047Y-77555771D02*
X129524285Y-77603390D01*
X129524285Y-77603390D02*
X129571904Y-77651009D01*
X129571904Y-77651009D02*
X129619523Y-77746247D01*
X115789580Y-95880952D02*
X115837200Y-95833333D01*
X115837200Y-95833333D02*
X115884819Y-95690476D01*
X115884819Y-95690476D02*
X115884819Y-95595238D01*
X115884819Y-95595238D02*
X115837200Y-95452381D01*
X115837200Y-95452381D02*
X115741961Y-95357143D01*
X115741961Y-95357143D02*
X115646723Y-95309524D01*
X115646723Y-95309524D02*
X115456247Y-95261905D01*
X115456247Y-95261905D02*
X115313390Y-95261905D01*
X115313390Y-95261905D02*
X115122914Y-95309524D01*
X115122914Y-95309524D02*
X115027676Y-95357143D01*
X115027676Y-95357143D02*
X114932438Y-95452381D01*
X114932438Y-95452381D02*
X114884819Y-95595238D01*
X114884819Y-95595238D02*
X114884819Y-95690476D01*
X114884819Y-95690476D02*
X114932438Y-95833333D01*
X114932438Y-95833333D02*
X114980057Y-95880952D01*
X115218152Y-96738095D02*
X115884819Y-96738095D01*
X114837200Y-96500000D02*
X115551485Y-96261905D01*
X115551485Y-96261905D02*
X115551485Y-96880952D01*
X114980057Y-97214286D02*
X114932438Y-97261905D01*
X114932438Y-97261905D02*
X114884819Y-97357143D01*
X114884819Y-97357143D02*
X114884819Y-97595238D01*
X114884819Y-97595238D02*
X114932438Y-97690476D01*
X114932438Y-97690476D02*
X114980057Y-97738095D01*
X114980057Y-97738095D02*
X115075295Y-97785714D01*
X115075295Y-97785714D02*
X115170533Y-97785714D01*
X115170533Y-97785714D02*
X115313390Y-97738095D01*
X115313390Y-97738095D02*
X115884819Y-97166667D01*
X115884819Y-97166667D02*
X115884819Y-97785714D01*
X114884819Y-98690476D02*
X114884819Y-98214286D01*
X114884819Y-98214286D02*
X115361009Y-98166667D01*
X115361009Y-98166667D02*
X115313390Y-98214286D01*
X115313390Y-98214286D02*
X115265771Y-98309524D01*
X115265771Y-98309524D02*
X115265771Y-98547619D01*
X115265771Y-98547619D02*
X115313390Y-98642857D01*
X115313390Y-98642857D02*
X115361009Y-98690476D01*
X115361009Y-98690476D02*
X115456247Y-98738095D01*
X115456247Y-98738095D02*
X115694342Y-98738095D01*
X115694342Y-98738095D02*
X115789580Y-98690476D01*
X115789580Y-98690476D02*
X115837200Y-98642857D01*
X115837200Y-98642857D02*
X115884819Y-98547619D01*
X115884819Y-98547619D02*
X115884819Y-98309524D01*
X115884819Y-98309524D02*
X115837200Y-98214286D01*
X115837200Y-98214286D02*
X115789580Y-98166667D01*
X157329047Y-90679580D02*
X157376666Y-90727200D01*
X157376666Y-90727200D02*
X157519523Y-90774819D01*
X157519523Y-90774819D02*
X157614761Y-90774819D01*
X157614761Y-90774819D02*
X157757618Y-90727200D01*
X157757618Y-90727200D02*
X157852856Y-90631961D01*
X157852856Y-90631961D02*
X157900475Y-90536723D01*
X157900475Y-90536723D02*
X157948094Y-90346247D01*
X157948094Y-90346247D02*
X157948094Y-90203390D01*
X157948094Y-90203390D02*
X157900475Y-90012914D01*
X157900475Y-90012914D02*
X157852856Y-89917676D01*
X157852856Y-89917676D02*
X157757618Y-89822438D01*
X157757618Y-89822438D02*
X157614761Y-89774819D01*
X157614761Y-89774819D02*
X157519523Y-89774819D01*
X157519523Y-89774819D02*
X157376666Y-89822438D01*
X157376666Y-89822438D02*
X157329047Y-89870057D01*
X156471904Y-90108152D02*
X156471904Y-90774819D01*
X156709999Y-89727200D02*
X156948094Y-90441485D01*
X156948094Y-90441485D02*
X156329047Y-90441485D01*
X155995713Y-89870057D02*
X155948094Y-89822438D01*
X155948094Y-89822438D02*
X155852856Y-89774819D01*
X155852856Y-89774819D02*
X155614761Y-89774819D01*
X155614761Y-89774819D02*
X155519523Y-89822438D01*
X155519523Y-89822438D02*
X155471904Y-89870057D01*
X155471904Y-89870057D02*
X155424285Y-89965295D01*
X155424285Y-89965295D02*
X155424285Y-90060533D01*
X155424285Y-90060533D02*
X155471904Y-90203390D01*
X155471904Y-90203390D02*
X156043332Y-90774819D01*
X156043332Y-90774819D02*
X155424285Y-90774819D01*
X155043332Y-89870057D02*
X154995713Y-89822438D01*
X154995713Y-89822438D02*
X154900475Y-89774819D01*
X154900475Y-89774819D02*
X154662380Y-89774819D01*
X154662380Y-89774819D02*
X154567142Y-89822438D01*
X154567142Y-89822438D02*
X154519523Y-89870057D01*
X154519523Y-89870057D02*
X154471904Y-89965295D01*
X154471904Y-89965295D02*
X154471904Y-90060533D01*
X154471904Y-90060533D02*
X154519523Y-90203390D01*
X154519523Y-90203390D02*
X155090951Y-90774819D01*
X155090951Y-90774819D02*
X154471904Y-90774819D01*
X190789580Y-114018452D02*
X190837200Y-113970833D01*
X190837200Y-113970833D02*
X190884819Y-113827976D01*
X190884819Y-113827976D02*
X190884819Y-113732738D01*
X190884819Y-113732738D02*
X190837200Y-113589881D01*
X190837200Y-113589881D02*
X190741961Y-113494643D01*
X190741961Y-113494643D02*
X190646723Y-113447024D01*
X190646723Y-113447024D02*
X190456247Y-113399405D01*
X190456247Y-113399405D02*
X190313390Y-113399405D01*
X190313390Y-113399405D02*
X190122914Y-113447024D01*
X190122914Y-113447024D02*
X190027676Y-113494643D01*
X190027676Y-113494643D02*
X189932438Y-113589881D01*
X189932438Y-113589881D02*
X189884819Y-113732738D01*
X189884819Y-113732738D02*
X189884819Y-113827976D01*
X189884819Y-113827976D02*
X189932438Y-113970833D01*
X189932438Y-113970833D02*
X189980057Y-114018452D01*
X190218152Y-114875595D02*
X190884819Y-114875595D01*
X189837200Y-114637500D02*
X190551485Y-114399405D01*
X190551485Y-114399405D02*
X190551485Y-115018452D01*
X190218152Y-115827976D02*
X190884819Y-115827976D01*
X189837200Y-115589881D02*
X190551485Y-115351786D01*
X190551485Y-115351786D02*
X190551485Y-115970833D01*
X189884819Y-116256548D02*
X189884819Y-116875595D01*
X189884819Y-116875595D02*
X190265771Y-116542262D01*
X190265771Y-116542262D02*
X190265771Y-116685119D01*
X190265771Y-116685119D02*
X190313390Y-116780357D01*
X190313390Y-116780357D02*
X190361009Y-116827976D01*
X190361009Y-116827976D02*
X190456247Y-116875595D01*
X190456247Y-116875595D02*
X190694342Y-116875595D01*
X190694342Y-116875595D02*
X190789580Y-116827976D01*
X190789580Y-116827976D02*
X190837200Y-116780357D01*
X190837200Y-116780357D02*
X190884819Y-116685119D01*
X190884819Y-116685119D02*
X190884819Y-116399405D01*
X190884819Y-116399405D02*
X190837200Y-116304167D01*
X190837200Y-116304167D02*
X190789580Y-116256548D01*
X105154819Y-115714285D02*
X105869104Y-115714285D01*
X105869104Y-115714285D02*
X106011961Y-115666666D01*
X106011961Y-115666666D02*
X106107200Y-115571428D01*
X106107200Y-115571428D02*
X106154819Y-115428571D01*
X106154819Y-115428571D02*
X106154819Y-115333333D01*
X105488152Y-116619047D02*
X106154819Y-116619047D01*
X105107200Y-116380952D02*
X105821485Y-116142857D01*
X105821485Y-116142857D02*
X105821485Y-116761904D01*
X105154819Y-117333333D02*
X105154819Y-117428571D01*
X105154819Y-117428571D02*
X105202438Y-117523809D01*
X105202438Y-117523809D02*
X105250057Y-117571428D01*
X105250057Y-117571428D02*
X105345295Y-117619047D01*
X105345295Y-117619047D02*
X105535771Y-117666666D01*
X105535771Y-117666666D02*
X105773866Y-117666666D01*
X105773866Y-117666666D02*
X105964342Y-117619047D01*
X105964342Y-117619047D02*
X106059580Y-117571428D01*
X106059580Y-117571428D02*
X106107200Y-117523809D01*
X106107200Y-117523809D02*
X106154819Y-117428571D01*
X106154819Y-117428571D02*
X106154819Y-117333333D01*
X106154819Y-117333333D02*
X106107200Y-117238095D01*
X106107200Y-117238095D02*
X106059580Y-117190476D01*
X106059580Y-117190476D02*
X105964342Y-117142857D01*
X105964342Y-117142857D02*
X105773866Y-117095238D01*
X105773866Y-117095238D02*
X105535771Y-117095238D01*
X105535771Y-117095238D02*
X105345295Y-117142857D01*
X105345295Y-117142857D02*
X105250057Y-117190476D01*
X105250057Y-117190476D02*
X105202438Y-117238095D01*
X105202438Y-117238095D02*
X105154819Y-117333333D01*
X105250057Y-118047619D02*
X105202438Y-118095238D01*
X105202438Y-118095238D02*
X105154819Y-118190476D01*
X105154819Y-118190476D02*
X105154819Y-118428571D01*
X105154819Y-118428571D02*
X105202438Y-118523809D01*
X105202438Y-118523809D02*
X105250057Y-118571428D01*
X105250057Y-118571428D02*
X105345295Y-118619047D01*
X105345295Y-118619047D02*
X105440533Y-118619047D01*
X105440533Y-118619047D02*
X105583390Y-118571428D01*
X105583390Y-118571428D02*
X106154819Y-118000000D01*
X106154819Y-118000000D02*
X106154819Y-118619047D01*
X165319047Y-70904819D02*
X165652380Y-70428628D01*
X165890475Y-70904819D02*
X165890475Y-69904819D01*
X165890475Y-69904819D02*
X165509523Y-69904819D01*
X165509523Y-69904819D02*
X165414285Y-69952438D01*
X165414285Y-69952438D02*
X165366666Y-70000057D01*
X165366666Y-70000057D02*
X165319047Y-70095295D01*
X165319047Y-70095295D02*
X165319047Y-70238152D01*
X165319047Y-70238152D02*
X165366666Y-70333390D01*
X165366666Y-70333390D02*
X165414285Y-70381009D01*
X165414285Y-70381009D02*
X165509523Y-70428628D01*
X165509523Y-70428628D02*
X165890475Y-70428628D01*
X164461904Y-70238152D02*
X164461904Y-70904819D01*
X164699999Y-69857200D02*
X164938094Y-70571485D01*
X164938094Y-70571485D02*
X164319047Y-70571485D01*
X163414285Y-70904819D02*
X163985713Y-70904819D01*
X163699999Y-70904819D02*
X163699999Y-69904819D01*
X163699999Y-69904819D02*
X163795237Y-70047676D01*
X163795237Y-70047676D02*
X163890475Y-70142914D01*
X163890475Y-70142914D02*
X163985713Y-70190533D01*
X163080951Y-69904819D02*
X162461904Y-69904819D01*
X162461904Y-69904819D02*
X162795237Y-70285771D01*
X162795237Y-70285771D02*
X162652380Y-70285771D01*
X162652380Y-70285771D02*
X162557142Y-70333390D01*
X162557142Y-70333390D02*
X162509523Y-70381009D01*
X162509523Y-70381009D02*
X162461904Y-70476247D01*
X162461904Y-70476247D02*
X162461904Y-70714342D01*
X162461904Y-70714342D02*
X162509523Y-70809580D01*
X162509523Y-70809580D02*
X162557142Y-70857200D01*
X162557142Y-70857200D02*
X162652380Y-70904819D01*
X162652380Y-70904819D02*
X162938094Y-70904819D01*
X162938094Y-70904819D02*
X163033332Y-70857200D01*
X163033332Y-70857200D02*
X163080951Y-70809580D01*
X142679580Y-83880952D02*
X142727200Y-83833333D01*
X142727200Y-83833333D02*
X142774819Y-83690476D01*
X142774819Y-83690476D02*
X142774819Y-83595238D01*
X142774819Y-83595238D02*
X142727200Y-83452381D01*
X142727200Y-83452381D02*
X142631961Y-83357143D01*
X142631961Y-83357143D02*
X142536723Y-83309524D01*
X142536723Y-83309524D02*
X142346247Y-83261905D01*
X142346247Y-83261905D02*
X142203390Y-83261905D01*
X142203390Y-83261905D02*
X142012914Y-83309524D01*
X142012914Y-83309524D02*
X141917676Y-83357143D01*
X141917676Y-83357143D02*
X141822438Y-83452381D01*
X141822438Y-83452381D02*
X141774819Y-83595238D01*
X141774819Y-83595238D02*
X141774819Y-83690476D01*
X141774819Y-83690476D02*
X141822438Y-83833333D01*
X141822438Y-83833333D02*
X141870057Y-83880952D01*
X142108152Y-84738095D02*
X142774819Y-84738095D01*
X141727200Y-84500000D02*
X142441485Y-84261905D01*
X142441485Y-84261905D02*
X142441485Y-84880952D01*
X141774819Y-85452381D02*
X141774819Y-85547619D01*
X141774819Y-85547619D02*
X141822438Y-85642857D01*
X141822438Y-85642857D02*
X141870057Y-85690476D01*
X141870057Y-85690476D02*
X141965295Y-85738095D01*
X141965295Y-85738095D02*
X142155771Y-85785714D01*
X142155771Y-85785714D02*
X142393866Y-85785714D01*
X142393866Y-85785714D02*
X142584342Y-85738095D01*
X142584342Y-85738095D02*
X142679580Y-85690476D01*
X142679580Y-85690476D02*
X142727200Y-85642857D01*
X142727200Y-85642857D02*
X142774819Y-85547619D01*
X142774819Y-85547619D02*
X142774819Y-85452381D01*
X142774819Y-85452381D02*
X142727200Y-85357143D01*
X142727200Y-85357143D02*
X142679580Y-85309524D01*
X142679580Y-85309524D02*
X142584342Y-85261905D01*
X142584342Y-85261905D02*
X142393866Y-85214286D01*
X142393866Y-85214286D02*
X142155771Y-85214286D01*
X142155771Y-85214286D02*
X141965295Y-85261905D01*
X141965295Y-85261905D02*
X141870057Y-85309524D01*
X141870057Y-85309524D02*
X141822438Y-85357143D01*
X141822438Y-85357143D02*
X141774819Y-85452381D01*
X142203390Y-86357143D02*
X142155771Y-86261905D01*
X142155771Y-86261905D02*
X142108152Y-86214286D01*
X142108152Y-86214286D02*
X142012914Y-86166667D01*
X142012914Y-86166667D02*
X141965295Y-86166667D01*
X141965295Y-86166667D02*
X141870057Y-86214286D01*
X141870057Y-86214286D02*
X141822438Y-86261905D01*
X141822438Y-86261905D02*
X141774819Y-86357143D01*
X141774819Y-86357143D02*
X141774819Y-86547619D01*
X141774819Y-86547619D02*
X141822438Y-86642857D01*
X141822438Y-86642857D02*
X141870057Y-86690476D01*
X141870057Y-86690476D02*
X141965295Y-86738095D01*
X141965295Y-86738095D02*
X142012914Y-86738095D01*
X142012914Y-86738095D02*
X142108152Y-86690476D01*
X142108152Y-86690476D02*
X142155771Y-86642857D01*
X142155771Y-86642857D02*
X142203390Y-86547619D01*
X142203390Y-86547619D02*
X142203390Y-86357143D01*
X142203390Y-86357143D02*
X142251009Y-86261905D01*
X142251009Y-86261905D02*
X142298628Y-86214286D01*
X142298628Y-86214286D02*
X142393866Y-86166667D01*
X142393866Y-86166667D02*
X142584342Y-86166667D01*
X142584342Y-86166667D02*
X142679580Y-86214286D01*
X142679580Y-86214286D02*
X142727200Y-86261905D01*
X142727200Y-86261905D02*
X142774819Y-86357143D01*
X142774819Y-86357143D02*
X142774819Y-86547619D01*
X142774819Y-86547619D02*
X142727200Y-86642857D01*
X142727200Y-86642857D02*
X142679580Y-86690476D01*
X142679580Y-86690476D02*
X142584342Y-86738095D01*
X142584342Y-86738095D02*
X142393866Y-86738095D01*
X142393866Y-86738095D02*
X142298628Y-86690476D01*
X142298628Y-86690476D02*
X142251009Y-86642857D01*
X142251009Y-86642857D02*
X142203390Y-86547619D01*
X121679580Y-89880952D02*
X121727200Y-89833333D01*
X121727200Y-89833333D02*
X121774819Y-89690476D01*
X121774819Y-89690476D02*
X121774819Y-89595238D01*
X121774819Y-89595238D02*
X121727200Y-89452381D01*
X121727200Y-89452381D02*
X121631961Y-89357143D01*
X121631961Y-89357143D02*
X121536723Y-89309524D01*
X121536723Y-89309524D02*
X121346247Y-89261905D01*
X121346247Y-89261905D02*
X121203390Y-89261905D01*
X121203390Y-89261905D02*
X121012914Y-89309524D01*
X121012914Y-89309524D02*
X120917676Y-89357143D01*
X120917676Y-89357143D02*
X120822438Y-89452381D01*
X120822438Y-89452381D02*
X120774819Y-89595238D01*
X120774819Y-89595238D02*
X120774819Y-89690476D01*
X120774819Y-89690476D02*
X120822438Y-89833333D01*
X120822438Y-89833333D02*
X120870057Y-89880952D01*
X121108152Y-90738095D02*
X121774819Y-90738095D01*
X120727200Y-90500000D02*
X121441485Y-90261905D01*
X121441485Y-90261905D02*
X121441485Y-90880952D01*
X120774819Y-91452381D02*
X120774819Y-91547619D01*
X120774819Y-91547619D02*
X120822438Y-91642857D01*
X120822438Y-91642857D02*
X120870057Y-91690476D01*
X120870057Y-91690476D02*
X120965295Y-91738095D01*
X120965295Y-91738095D02*
X121155771Y-91785714D01*
X121155771Y-91785714D02*
X121393866Y-91785714D01*
X121393866Y-91785714D02*
X121584342Y-91738095D01*
X121584342Y-91738095D02*
X121679580Y-91690476D01*
X121679580Y-91690476D02*
X121727200Y-91642857D01*
X121727200Y-91642857D02*
X121774819Y-91547619D01*
X121774819Y-91547619D02*
X121774819Y-91452381D01*
X121774819Y-91452381D02*
X121727200Y-91357143D01*
X121727200Y-91357143D02*
X121679580Y-91309524D01*
X121679580Y-91309524D02*
X121584342Y-91261905D01*
X121584342Y-91261905D02*
X121393866Y-91214286D01*
X121393866Y-91214286D02*
X121155771Y-91214286D01*
X121155771Y-91214286D02*
X120965295Y-91261905D01*
X120965295Y-91261905D02*
X120870057Y-91309524D01*
X120870057Y-91309524D02*
X120822438Y-91357143D01*
X120822438Y-91357143D02*
X120774819Y-91452381D01*
X120774819Y-92642857D02*
X120774819Y-92452381D01*
X120774819Y-92452381D02*
X120822438Y-92357143D01*
X120822438Y-92357143D02*
X120870057Y-92309524D01*
X120870057Y-92309524D02*
X121012914Y-92214286D01*
X121012914Y-92214286D02*
X121203390Y-92166667D01*
X121203390Y-92166667D02*
X121584342Y-92166667D01*
X121584342Y-92166667D02*
X121679580Y-92214286D01*
X121679580Y-92214286D02*
X121727200Y-92261905D01*
X121727200Y-92261905D02*
X121774819Y-92357143D01*
X121774819Y-92357143D02*
X121774819Y-92547619D01*
X121774819Y-92547619D02*
X121727200Y-92642857D01*
X121727200Y-92642857D02*
X121679580Y-92690476D01*
X121679580Y-92690476D02*
X121584342Y-92738095D01*
X121584342Y-92738095D02*
X121346247Y-92738095D01*
X121346247Y-92738095D02*
X121251009Y-92690476D01*
X121251009Y-92690476D02*
X121203390Y-92642857D01*
X121203390Y-92642857D02*
X121155771Y-92547619D01*
X121155771Y-92547619D02*
X121155771Y-92357143D01*
X121155771Y-92357143D02*
X121203390Y-92261905D01*
X121203390Y-92261905D02*
X121251009Y-92214286D01*
X121251009Y-92214286D02*
X121346247Y-92166667D01*
X105629580Y-103880952D02*
X105677200Y-103833333D01*
X105677200Y-103833333D02*
X105724819Y-103690476D01*
X105724819Y-103690476D02*
X105724819Y-103595238D01*
X105724819Y-103595238D02*
X105677200Y-103452381D01*
X105677200Y-103452381D02*
X105581961Y-103357143D01*
X105581961Y-103357143D02*
X105486723Y-103309524D01*
X105486723Y-103309524D02*
X105296247Y-103261905D01*
X105296247Y-103261905D02*
X105153390Y-103261905D01*
X105153390Y-103261905D02*
X104962914Y-103309524D01*
X104962914Y-103309524D02*
X104867676Y-103357143D01*
X104867676Y-103357143D02*
X104772438Y-103452381D01*
X104772438Y-103452381D02*
X104724819Y-103595238D01*
X104724819Y-103595238D02*
X104724819Y-103690476D01*
X104724819Y-103690476D02*
X104772438Y-103833333D01*
X104772438Y-103833333D02*
X104820057Y-103880952D01*
X105058152Y-104738095D02*
X105724819Y-104738095D01*
X104677200Y-104500000D02*
X105391485Y-104261905D01*
X105391485Y-104261905D02*
X105391485Y-104880952D01*
X104724819Y-105452381D02*
X104724819Y-105547619D01*
X104724819Y-105547619D02*
X104772438Y-105642857D01*
X104772438Y-105642857D02*
X104820057Y-105690476D01*
X104820057Y-105690476D02*
X104915295Y-105738095D01*
X104915295Y-105738095D02*
X105105771Y-105785714D01*
X105105771Y-105785714D02*
X105343866Y-105785714D01*
X105343866Y-105785714D02*
X105534342Y-105738095D01*
X105534342Y-105738095D02*
X105629580Y-105690476D01*
X105629580Y-105690476D02*
X105677200Y-105642857D01*
X105677200Y-105642857D02*
X105724819Y-105547619D01*
X105724819Y-105547619D02*
X105724819Y-105452381D01*
X105724819Y-105452381D02*
X105677200Y-105357143D01*
X105677200Y-105357143D02*
X105629580Y-105309524D01*
X105629580Y-105309524D02*
X105534342Y-105261905D01*
X105534342Y-105261905D02*
X105343866Y-105214286D01*
X105343866Y-105214286D02*
X105105771Y-105214286D01*
X105105771Y-105214286D02*
X104915295Y-105261905D01*
X104915295Y-105261905D02*
X104820057Y-105309524D01*
X104820057Y-105309524D02*
X104772438Y-105357143D01*
X104772438Y-105357143D02*
X104724819Y-105452381D01*
X104820057Y-106166667D02*
X104772438Y-106214286D01*
X104772438Y-106214286D02*
X104724819Y-106309524D01*
X104724819Y-106309524D02*
X104724819Y-106547619D01*
X104724819Y-106547619D02*
X104772438Y-106642857D01*
X104772438Y-106642857D02*
X104820057Y-106690476D01*
X104820057Y-106690476D02*
X104915295Y-106738095D01*
X104915295Y-106738095D02*
X105010533Y-106738095D01*
X105010533Y-106738095D02*
X105153390Y-106690476D01*
X105153390Y-106690476D02*
X105724819Y-106119048D01*
X105724819Y-106119048D02*
X105724819Y-106738095D01*
X184119047Y-70679580D02*
X184166666Y-70727200D01*
X184166666Y-70727200D02*
X184309523Y-70774819D01*
X184309523Y-70774819D02*
X184404761Y-70774819D01*
X184404761Y-70774819D02*
X184547618Y-70727200D01*
X184547618Y-70727200D02*
X184642856Y-70631961D01*
X184642856Y-70631961D02*
X184690475Y-70536723D01*
X184690475Y-70536723D02*
X184738094Y-70346247D01*
X184738094Y-70346247D02*
X184738094Y-70203390D01*
X184738094Y-70203390D02*
X184690475Y-70012914D01*
X184690475Y-70012914D02*
X184642856Y-69917676D01*
X184642856Y-69917676D02*
X184547618Y-69822438D01*
X184547618Y-69822438D02*
X184404761Y-69774819D01*
X184404761Y-69774819D02*
X184309523Y-69774819D01*
X184309523Y-69774819D02*
X184166666Y-69822438D01*
X184166666Y-69822438D02*
X184119047Y-69870057D01*
X183261904Y-70108152D02*
X183261904Y-70774819D01*
X183499999Y-69727200D02*
X183738094Y-70441485D01*
X183738094Y-70441485D02*
X183119047Y-70441485D01*
X182214285Y-70774819D02*
X182785713Y-70774819D01*
X182499999Y-70774819D02*
X182499999Y-69774819D01*
X182499999Y-69774819D02*
X182595237Y-69917676D01*
X182595237Y-69917676D02*
X182690475Y-70012914D01*
X182690475Y-70012914D02*
X182785713Y-70060533D01*
X181357142Y-70108152D02*
X181357142Y-70774819D01*
X181595237Y-69727200D02*
X181833332Y-70441485D01*
X181833332Y-70441485D02*
X181214285Y-70441485D01*
X182929580Y-105880952D02*
X182977200Y-105833333D01*
X182977200Y-105833333D02*
X183024819Y-105690476D01*
X183024819Y-105690476D02*
X183024819Y-105595238D01*
X183024819Y-105595238D02*
X182977200Y-105452381D01*
X182977200Y-105452381D02*
X182881961Y-105357143D01*
X182881961Y-105357143D02*
X182786723Y-105309524D01*
X182786723Y-105309524D02*
X182596247Y-105261905D01*
X182596247Y-105261905D02*
X182453390Y-105261905D01*
X182453390Y-105261905D02*
X182262914Y-105309524D01*
X182262914Y-105309524D02*
X182167676Y-105357143D01*
X182167676Y-105357143D02*
X182072438Y-105452381D01*
X182072438Y-105452381D02*
X182024819Y-105595238D01*
X182024819Y-105595238D02*
X182024819Y-105690476D01*
X182024819Y-105690476D02*
X182072438Y-105833333D01*
X182072438Y-105833333D02*
X182120057Y-105880952D01*
X182358152Y-106738095D02*
X183024819Y-106738095D01*
X181977200Y-106500000D02*
X182691485Y-106261905D01*
X182691485Y-106261905D02*
X182691485Y-106880952D01*
X182358152Y-107690476D02*
X183024819Y-107690476D01*
X181977200Y-107452381D02*
X182691485Y-107214286D01*
X182691485Y-107214286D02*
X182691485Y-107833333D01*
X182024819Y-108690476D02*
X182024819Y-108214286D01*
X182024819Y-108214286D02*
X182501009Y-108166667D01*
X182501009Y-108166667D02*
X182453390Y-108214286D01*
X182453390Y-108214286D02*
X182405771Y-108309524D01*
X182405771Y-108309524D02*
X182405771Y-108547619D01*
X182405771Y-108547619D02*
X182453390Y-108642857D01*
X182453390Y-108642857D02*
X182501009Y-108690476D01*
X182501009Y-108690476D02*
X182596247Y-108738095D01*
X182596247Y-108738095D02*
X182834342Y-108738095D01*
X182834342Y-108738095D02*
X182929580Y-108690476D01*
X182929580Y-108690476D02*
X182977200Y-108642857D01*
X182977200Y-108642857D02*
X183024819Y-108547619D01*
X183024819Y-108547619D02*
X183024819Y-108309524D01*
X183024819Y-108309524D02*
X182977200Y-108214286D01*
X182977200Y-108214286D02*
X182929580Y-108166667D01*
X183929580Y-124018452D02*
X183977200Y-123970833D01*
X183977200Y-123970833D02*
X184024819Y-123827976D01*
X184024819Y-123827976D02*
X184024819Y-123732738D01*
X184024819Y-123732738D02*
X183977200Y-123589881D01*
X183977200Y-123589881D02*
X183881961Y-123494643D01*
X183881961Y-123494643D02*
X183786723Y-123447024D01*
X183786723Y-123447024D02*
X183596247Y-123399405D01*
X183596247Y-123399405D02*
X183453390Y-123399405D01*
X183453390Y-123399405D02*
X183262914Y-123447024D01*
X183262914Y-123447024D02*
X183167676Y-123494643D01*
X183167676Y-123494643D02*
X183072438Y-123589881D01*
X183072438Y-123589881D02*
X183024819Y-123732738D01*
X183024819Y-123732738D02*
X183024819Y-123827976D01*
X183024819Y-123827976D02*
X183072438Y-123970833D01*
X183072438Y-123970833D02*
X183120057Y-124018452D01*
X183358152Y-124875595D02*
X184024819Y-124875595D01*
X182977200Y-124637500D02*
X183691485Y-124399405D01*
X183691485Y-124399405D02*
X183691485Y-125018452D01*
X183358152Y-125827976D02*
X184024819Y-125827976D01*
X182977200Y-125589881D02*
X183691485Y-125351786D01*
X183691485Y-125351786D02*
X183691485Y-125970833D01*
X184024819Y-126875595D02*
X184024819Y-126304167D01*
X184024819Y-126589881D02*
X183024819Y-126589881D01*
X183024819Y-126589881D02*
X183167676Y-126494643D01*
X183167676Y-126494643D02*
X183262914Y-126399405D01*
X183262914Y-126399405D02*
X183310533Y-126304167D01*
X111759047Y-76864819D02*
X112092380Y-76388628D01*
X112330475Y-76864819D02*
X112330475Y-75864819D01*
X112330475Y-75864819D02*
X111949523Y-75864819D01*
X111949523Y-75864819D02*
X111854285Y-75912438D01*
X111854285Y-75912438D02*
X111806666Y-75960057D01*
X111806666Y-75960057D02*
X111759047Y-76055295D01*
X111759047Y-76055295D02*
X111759047Y-76198152D01*
X111759047Y-76198152D02*
X111806666Y-76293390D01*
X111806666Y-76293390D02*
X111854285Y-76341009D01*
X111854285Y-76341009D02*
X111949523Y-76388628D01*
X111949523Y-76388628D02*
X112330475Y-76388628D01*
X110901904Y-76198152D02*
X110901904Y-76864819D01*
X111139999Y-75817200D02*
X111378094Y-76531485D01*
X111378094Y-76531485D02*
X110759047Y-76531485D01*
X110187618Y-75864819D02*
X110092380Y-75864819D01*
X110092380Y-75864819D02*
X109997142Y-75912438D01*
X109997142Y-75912438D02*
X109949523Y-75960057D01*
X109949523Y-75960057D02*
X109901904Y-76055295D01*
X109901904Y-76055295D02*
X109854285Y-76245771D01*
X109854285Y-76245771D02*
X109854285Y-76483866D01*
X109854285Y-76483866D02*
X109901904Y-76674342D01*
X109901904Y-76674342D02*
X109949523Y-76769580D01*
X109949523Y-76769580D02*
X109997142Y-76817200D01*
X109997142Y-76817200D02*
X110092380Y-76864819D01*
X110092380Y-76864819D02*
X110187618Y-76864819D01*
X110187618Y-76864819D02*
X110282856Y-76817200D01*
X110282856Y-76817200D02*
X110330475Y-76769580D01*
X110330475Y-76769580D02*
X110378094Y-76674342D01*
X110378094Y-76674342D02*
X110425713Y-76483866D01*
X110425713Y-76483866D02*
X110425713Y-76245771D01*
X110425713Y-76245771D02*
X110378094Y-76055295D01*
X110378094Y-76055295D02*
X110330475Y-75960057D01*
X110330475Y-75960057D02*
X110282856Y-75912438D01*
X110282856Y-75912438D02*
X110187618Y-75864819D01*
X108997142Y-76198152D02*
X108997142Y-76864819D01*
X109235237Y-75817200D02*
X109473332Y-76531485D01*
X109473332Y-76531485D02*
X108854285Y-76531485D01*
X121789580Y-125018452D02*
X121837200Y-124970833D01*
X121837200Y-124970833D02*
X121884819Y-124827976D01*
X121884819Y-124827976D02*
X121884819Y-124732738D01*
X121884819Y-124732738D02*
X121837200Y-124589881D01*
X121837200Y-124589881D02*
X121741961Y-124494643D01*
X121741961Y-124494643D02*
X121646723Y-124447024D01*
X121646723Y-124447024D02*
X121456247Y-124399405D01*
X121456247Y-124399405D02*
X121313390Y-124399405D01*
X121313390Y-124399405D02*
X121122914Y-124447024D01*
X121122914Y-124447024D02*
X121027676Y-124494643D01*
X121027676Y-124494643D02*
X120932438Y-124589881D01*
X120932438Y-124589881D02*
X120884819Y-124732738D01*
X120884819Y-124732738D02*
X120884819Y-124827976D01*
X120884819Y-124827976D02*
X120932438Y-124970833D01*
X120932438Y-124970833D02*
X120980057Y-125018452D01*
X121218152Y-125875595D02*
X121884819Y-125875595D01*
X120837200Y-125637500D02*
X121551485Y-125399405D01*
X121551485Y-125399405D02*
X121551485Y-126018452D01*
X120884819Y-126304167D02*
X120884819Y-126923214D01*
X120884819Y-126923214D02*
X121265771Y-126589881D01*
X121265771Y-126589881D02*
X121265771Y-126732738D01*
X121265771Y-126732738D02*
X121313390Y-126827976D01*
X121313390Y-126827976D02*
X121361009Y-126875595D01*
X121361009Y-126875595D02*
X121456247Y-126923214D01*
X121456247Y-126923214D02*
X121694342Y-126923214D01*
X121694342Y-126923214D02*
X121789580Y-126875595D01*
X121789580Y-126875595D02*
X121837200Y-126827976D01*
X121837200Y-126827976D02*
X121884819Y-126732738D01*
X121884819Y-126732738D02*
X121884819Y-126447024D01*
X121884819Y-126447024D02*
X121837200Y-126351786D01*
X121837200Y-126351786D02*
X121789580Y-126304167D01*
X120884819Y-127542262D02*
X120884819Y-127637500D01*
X120884819Y-127637500D02*
X120932438Y-127732738D01*
X120932438Y-127732738D02*
X120980057Y-127780357D01*
X120980057Y-127780357D02*
X121075295Y-127827976D01*
X121075295Y-127827976D02*
X121265771Y-127875595D01*
X121265771Y-127875595D02*
X121503866Y-127875595D01*
X121503866Y-127875595D02*
X121694342Y-127827976D01*
X121694342Y-127827976D02*
X121789580Y-127780357D01*
X121789580Y-127780357D02*
X121837200Y-127732738D01*
X121837200Y-127732738D02*
X121884819Y-127637500D01*
X121884819Y-127637500D02*
X121884819Y-127542262D01*
X121884819Y-127542262D02*
X121837200Y-127447024D01*
X121837200Y-127447024D02*
X121789580Y-127399405D01*
X121789580Y-127399405D02*
X121694342Y-127351786D01*
X121694342Y-127351786D02*
X121503866Y-127304167D01*
X121503866Y-127304167D02*
X121265771Y-127304167D01*
X121265771Y-127304167D02*
X121075295Y-127351786D01*
X121075295Y-127351786D02*
X120980057Y-127399405D01*
X120980057Y-127399405D02*
X120932438Y-127447024D01*
X120932438Y-127447024D02*
X120884819Y-127542262D01*
X168004819Y-74280952D02*
X167528628Y-73947619D01*
X168004819Y-73709524D02*
X167004819Y-73709524D01*
X167004819Y-73709524D02*
X167004819Y-74090476D01*
X167004819Y-74090476D02*
X167052438Y-74185714D01*
X167052438Y-74185714D02*
X167100057Y-74233333D01*
X167100057Y-74233333D02*
X167195295Y-74280952D01*
X167195295Y-74280952D02*
X167338152Y-74280952D01*
X167338152Y-74280952D02*
X167433390Y-74233333D01*
X167433390Y-74233333D02*
X167481009Y-74185714D01*
X167481009Y-74185714D02*
X167528628Y-74090476D01*
X167528628Y-74090476D02*
X167528628Y-73709524D01*
X167338152Y-75138095D02*
X168004819Y-75138095D01*
X166957200Y-74900000D02*
X167671485Y-74661905D01*
X167671485Y-74661905D02*
X167671485Y-75280952D01*
X168004819Y-76185714D02*
X168004819Y-75614286D01*
X168004819Y-75900000D02*
X167004819Y-75900000D01*
X167004819Y-75900000D02*
X167147676Y-75804762D01*
X167147676Y-75804762D02*
X167242914Y-75709524D01*
X167242914Y-75709524D02*
X167290533Y-75614286D01*
X167100057Y-76566667D02*
X167052438Y-76614286D01*
X167052438Y-76614286D02*
X167004819Y-76709524D01*
X167004819Y-76709524D02*
X167004819Y-76947619D01*
X167004819Y-76947619D02*
X167052438Y-77042857D01*
X167052438Y-77042857D02*
X167100057Y-77090476D01*
X167100057Y-77090476D02*
X167195295Y-77138095D01*
X167195295Y-77138095D02*
X167290533Y-77138095D01*
X167290533Y-77138095D02*
X167433390Y-77090476D01*
X167433390Y-77090476D02*
X168004819Y-76519048D01*
X168004819Y-76519048D02*
X168004819Y-77138095D01*
X108359580Y-138880952D02*
X108407200Y-138833333D01*
X108407200Y-138833333D02*
X108454819Y-138690476D01*
X108454819Y-138690476D02*
X108454819Y-138595238D01*
X108454819Y-138595238D02*
X108407200Y-138452381D01*
X108407200Y-138452381D02*
X108311961Y-138357143D01*
X108311961Y-138357143D02*
X108216723Y-138309524D01*
X108216723Y-138309524D02*
X108026247Y-138261905D01*
X108026247Y-138261905D02*
X107883390Y-138261905D01*
X107883390Y-138261905D02*
X107692914Y-138309524D01*
X107692914Y-138309524D02*
X107597676Y-138357143D01*
X107597676Y-138357143D02*
X107502438Y-138452381D01*
X107502438Y-138452381D02*
X107454819Y-138595238D01*
X107454819Y-138595238D02*
X107454819Y-138690476D01*
X107454819Y-138690476D02*
X107502438Y-138833333D01*
X107502438Y-138833333D02*
X107550057Y-138880952D01*
X107788152Y-139738095D02*
X108454819Y-139738095D01*
X107407200Y-139500000D02*
X108121485Y-139261905D01*
X108121485Y-139261905D02*
X108121485Y-139880952D01*
X107454819Y-140166667D02*
X107454819Y-140785714D01*
X107454819Y-140785714D02*
X107835771Y-140452381D01*
X107835771Y-140452381D02*
X107835771Y-140595238D01*
X107835771Y-140595238D02*
X107883390Y-140690476D01*
X107883390Y-140690476D02*
X107931009Y-140738095D01*
X107931009Y-140738095D02*
X108026247Y-140785714D01*
X108026247Y-140785714D02*
X108264342Y-140785714D01*
X108264342Y-140785714D02*
X108359580Y-140738095D01*
X108359580Y-140738095D02*
X108407200Y-140690476D01*
X108407200Y-140690476D02*
X108454819Y-140595238D01*
X108454819Y-140595238D02*
X108454819Y-140309524D01*
X108454819Y-140309524D02*
X108407200Y-140214286D01*
X108407200Y-140214286D02*
X108359580Y-140166667D01*
X107454819Y-141119048D02*
X107454819Y-141738095D01*
X107454819Y-141738095D02*
X107835771Y-141404762D01*
X107835771Y-141404762D02*
X107835771Y-141547619D01*
X107835771Y-141547619D02*
X107883390Y-141642857D01*
X107883390Y-141642857D02*
X107931009Y-141690476D01*
X107931009Y-141690476D02*
X108026247Y-141738095D01*
X108026247Y-141738095D02*
X108264342Y-141738095D01*
X108264342Y-141738095D02*
X108359580Y-141690476D01*
X108359580Y-141690476D02*
X108407200Y-141642857D01*
X108407200Y-141642857D02*
X108454819Y-141547619D01*
X108454819Y-141547619D02*
X108454819Y-141261905D01*
X108454819Y-141261905D02*
X108407200Y-141166667D01*
X108407200Y-141166667D02*
X108359580Y-141119048D01*
X116929580Y-142880952D02*
X116977200Y-142833333D01*
X116977200Y-142833333D02*
X117024819Y-142690476D01*
X117024819Y-142690476D02*
X117024819Y-142595238D01*
X117024819Y-142595238D02*
X116977200Y-142452381D01*
X116977200Y-142452381D02*
X116881961Y-142357143D01*
X116881961Y-142357143D02*
X116786723Y-142309524D01*
X116786723Y-142309524D02*
X116596247Y-142261905D01*
X116596247Y-142261905D02*
X116453390Y-142261905D01*
X116453390Y-142261905D02*
X116262914Y-142309524D01*
X116262914Y-142309524D02*
X116167676Y-142357143D01*
X116167676Y-142357143D02*
X116072438Y-142452381D01*
X116072438Y-142452381D02*
X116024819Y-142595238D01*
X116024819Y-142595238D02*
X116024819Y-142690476D01*
X116024819Y-142690476D02*
X116072438Y-142833333D01*
X116072438Y-142833333D02*
X116120057Y-142880952D01*
X116358152Y-143738095D02*
X117024819Y-143738095D01*
X115977200Y-143500000D02*
X116691485Y-143261905D01*
X116691485Y-143261905D02*
X116691485Y-143880952D01*
X116024819Y-144166667D02*
X116024819Y-144785714D01*
X116024819Y-144785714D02*
X116405771Y-144452381D01*
X116405771Y-144452381D02*
X116405771Y-144595238D01*
X116405771Y-144595238D02*
X116453390Y-144690476D01*
X116453390Y-144690476D02*
X116501009Y-144738095D01*
X116501009Y-144738095D02*
X116596247Y-144785714D01*
X116596247Y-144785714D02*
X116834342Y-144785714D01*
X116834342Y-144785714D02*
X116929580Y-144738095D01*
X116929580Y-144738095D02*
X116977200Y-144690476D01*
X116977200Y-144690476D02*
X117024819Y-144595238D01*
X117024819Y-144595238D02*
X117024819Y-144309524D01*
X117024819Y-144309524D02*
X116977200Y-144214286D01*
X116977200Y-144214286D02*
X116929580Y-144166667D01*
X116120057Y-145166667D02*
X116072438Y-145214286D01*
X116072438Y-145214286D02*
X116024819Y-145309524D01*
X116024819Y-145309524D02*
X116024819Y-145547619D01*
X116024819Y-145547619D02*
X116072438Y-145642857D01*
X116072438Y-145642857D02*
X116120057Y-145690476D01*
X116120057Y-145690476D02*
X116215295Y-145738095D01*
X116215295Y-145738095D02*
X116310533Y-145738095D01*
X116310533Y-145738095D02*
X116453390Y-145690476D01*
X116453390Y-145690476D02*
X117024819Y-145119048D01*
X117024819Y-145119048D02*
X117024819Y-145738095D01*
X121789580Y-106018452D02*
X121837200Y-105970833D01*
X121837200Y-105970833D02*
X121884819Y-105827976D01*
X121884819Y-105827976D02*
X121884819Y-105732738D01*
X121884819Y-105732738D02*
X121837200Y-105589881D01*
X121837200Y-105589881D02*
X121741961Y-105494643D01*
X121741961Y-105494643D02*
X121646723Y-105447024D01*
X121646723Y-105447024D02*
X121456247Y-105399405D01*
X121456247Y-105399405D02*
X121313390Y-105399405D01*
X121313390Y-105399405D02*
X121122914Y-105447024D01*
X121122914Y-105447024D02*
X121027676Y-105494643D01*
X121027676Y-105494643D02*
X120932438Y-105589881D01*
X120932438Y-105589881D02*
X120884819Y-105732738D01*
X120884819Y-105732738D02*
X120884819Y-105827976D01*
X120884819Y-105827976D02*
X120932438Y-105970833D01*
X120932438Y-105970833D02*
X120980057Y-106018452D01*
X121218152Y-106875595D02*
X121884819Y-106875595D01*
X120837200Y-106637500D02*
X121551485Y-106399405D01*
X121551485Y-106399405D02*
X121551485Y-107018452D01*
X120980057Y-107351786D02*
X120932438Y-107399405D01*
X120932438Y-107399405D02*
X120884819Y-107494643D01*
X120884819Y-107494643D02*
X120884819Y-107732738D01*
X120884819Y-107732738D02*
X120932438Y-107827976D01*
X120932438Y-107827976D02*
X120980057Y-107875595D01*
X120980057Y-107875595D02*
X121075295Y-107923214D01*
X121075295Y-107923214D02*
X121170533Y-107923214D01*
X121170533Y-107923214D02*
X121313390Y-107875595D01*
X121313390Y-107875595D02*
X121884819Y-107304167D01*
X121884819Y-107304167D02*
X121884819Y-107923214D01*
X120884819Y-108780357D02*
X120884819Y-108589881D01*
X120884819Y-108589881D02*
X120932438Y-108494643D01*
X120932438Y-108494643D02*
X120980057Y-108447024D01*
X120980057Y-108447024D02*
X121122914Y-108351786D01*
X121122914Y-108351786D02*
X121313390Y-108304167D01*
X121313390Y-108304167D02*
X121694342Y-108304167D01*
X121694342Y-108304167D02*
X121789580Y-108351786D01*
X121789580Y-108351786D02*
X121837200Y-108399405D01*
X121837200Y-108399405D02*
X121884819Y-108494643D01*
X121884819Y-108494643D02*
X121884819Y-108685119D01*
X121884819Y-108685119D02*
X121837200Y-108780357D01*
X121837200Y-108780357D02*
X121789580Y-108827976D01*
X121789580Y-108827976D02*
X121694342Y-108875595D01*
X121694342Y-108875595D02*
X121456247Y-108875595D01*
X121456247Y-108875595D02*
X121361009Y-108827976D01*
X121361009Y-108827976D02*
X121313390Y-108780357D01*
X121313390Y-108780357D02*
X121265771Y-108685119D01*
X121265771Y-108685119D02*
X121265771Y-108494643D01*
X121265771Y-108494643D02*
X121313390Y-108399405D01*
X121313390Y-108399405D02*
X121361009Y-108351786D01*
X121361009Y-108351786D02*
X121456247Y-108304167D01*
X179119047Y-80039580D02*
X179166666Y-80087200D01*
X179166666Y-80087200D02*
X179309523Y-80134819D01*
X179309523Y-80134819D02*
X179404761Y-80134819D01*
X179404761Y-80134819D02*
X179547618Y-80087200D01*
X179547618Y-80087200D02*
X179642856Y-79991961D01*
X179642856Y-79991961D02*
X179690475Y-79896723D01*
X179690475Y-79896723D02*
X179738094Y-79706247D01*
X179738094Y-79706247D02*
X179738094Y-79563390D01*
X179738094Y-79563390D02*
X179690475Y-79372914D01*
X179690475Y-79372914D02*
X179642856Y-79277676D01*
X179642856Y-79277676D02*
X179547618Y-79182438D01*
X179547618Y-79182438D02*
X179404761Y-79134819D01*
X179404761Y-79134819D02*
X179309523Y-79134819D01*
X179309523Y-79134819D02*
X179166666Y-79182438D01*
X179166666Y-79182438D02*
X179119047Y-79230057D01*
X178261904Y-79468152D02*
X178261904Y-80134819D01*
X178499999Y-79087200D02*
X178738094Y-79801485D01*
X178738094Y-79801485D02*
X178119047Y-79801485D01*
X177214285Y-80134819D02*
X177785713Y-80134819D01*
X177499999Y-80134819D02*
X177499999Y-79134819D01*
X177499999Y-79134819D02*
X177595237Y-79277676D01*
X177595237Y-79277676D02*
X177690475Y-79372914D01*
X177690475Y-79372914D02*
X177785713Y-79420533D01*
X176880951Y-79134819D02*
X176214285Y-79134819D01*
X176214285Y-79134819D02*
X176642856Y-80134819D01*
X114489580Y-114043452D02*
X114537200Y-113995833D01*
X114537200Y-113995833D02*
X114584819Y-113852976D01*
X114584819Y-113852976D02*
X114584819Y-113757738D01*
X114584819Y-113757738D02*
X114537200Y-113614881D01*
X114537200Y-113614881D02*
X114441961Y-113519643D01*
X114441961Y-113519643D02*
X114346723Y-113472024D01*
X114346723Y-113472024D02*
X114156247Y-113424405D01*
X114156247Y-113424405D02*
X114013390Y-113424405D01*
X114013390Y-113424405D02*
X113822914Y-113472024D01*
X113822914Y-113472024D02*
X113727676Y-113519643D01*
X113727676Y-113519643D02*
X113632438Y-113614881D01*
X113632438Y-113614881D02*
X113584819Y-113757738D01*
X113584819Y-113757738D02*
X113584819Y-113852976D01*
X113584819Y-113852976D02*
X113632438Y-113995833D01*
X113632438Y-113995833D02*
X113680057Y-114043452D01*
X113918152Y-114900595D02*
X114584819Y-114900595D01*
X113537200Y-114662500D02*
X114251485Y-114424405D01*
X114251485Y-114424405D02*
X114251485Y-115043452D01*
X113680057Y-115376786D02*
X113632438Y-115424405D01*
X113632438Y-115424405D02*
X113584819Y-115519643D01*
X113584819Y-115519643D02*
X113584819Y-115757738D01*
X113584819Y-115757738D02*
X113632438Y-115852976D01*
X113632438Y-115852976D02*
X113680057Y-115900595D01*
X113680057Y-115900595D02*
X113775295Y-115948214D01*
X113775295Y-115948214D02*
X113870533Y-115948214D01*
X113870533Y-115948214D02*
X114013390Y-115900595D01*
X114013390Y-115900595D02*
X114584819Y-115329167D01*
X114584819Y-115329167D02*
X114584819Y-115948214D01*
X114013390Y-116519643D02*
X113965771Y-116424405D01*
X113965771Y-116424405D02*
X113918152Y-116376786D01*
X113918152Y-116376786D02*
X113822914Y-116329167D01*
X113822914Y-116329167D02*
X113775295Y-116329167D01*
X113775295Y-116329167D02*
X113680057Y-116376786D01*
X113680057Y-116376786D02*
X113632438Y-116424405D01*
X113632438Y-116424405D02*
X113584819Y-116519643D01*
X113584819Y-116519643D02*
X113584819Y-116710119D01*
X113584819Y-116710119D02*
X113632438Y-116805357D01*
X113632438Y-116805357D02*
X113680057Y-116852976D01*
X113680057Y-116852976D02*
X113775295Y-116900595D01*
X113775295Y-116900595D02*
X113822914Y-116900595D01*
X113822914Y-116900595D02*
X113918152Y-116852976D01*
X113918152Y-116852976D02*
X113965771Y-116805357D01*
X113965771Y-116805357D02*
X114013390Y-116710119D01*
X114013390Y-116710119D02*
X114013390Y-116519643D01*
X114013390Y-116519643D02*
X114061009Y-116424405D01*
X114061009Y-116424405D02*
X114108628Y-116376786D01*
X114108628Y-116376786D02*
X114203866Y-116329167D01*
X114203866Y-116329167D02*
X114394342Y-116329167D01*
X114394342Y-116329167D02*
X114489580Y-116376786D01*
X114489580Y-116376786D02*
X114537200Y-116424405D01*
X114537200Y-116424405D02*
X114584819Y-116519643D01*
X114584819Y-116519643D02*
X114584819Y-116710119D01*
X114584819Y-116710119D02*
X114537200Y-116805357D01*
X114537200Y-116805357D02*
X114489580Y-116852976D01*
X114489580Y-116852976D02*
X114394342Y-116900595D01*
X114394342Y-116900595D02*
X114203866Y-116900595D01*
X114203866Y-116900595D02*
X114108628Y-116852976D01*
X114108628Y-116852976D02*
X114061009Y-116805357D01*
X114061009Y-116805357D02*
X114013390Y-116710119D01*
X152119047Y-139929580D02*
X152166666Y-139977200D01*
X152166666Y-139977200D02*
X152309523Y-140024819D01*
X152309523Y-140024819D02*
X152404761Y-140024819D01*
X152404761Y-140024819D02*
X152547618Y-139977200D01*
X152547618Y-139977200D02*
X152642856Y-139881961D01*
X152642856Y-139881961D02*
X152690475Y-139786723D01*
X152690475Y-139786723D02*
X152738094Y-139596247D01*
X152738094Y-139596247D02*
X152738094Y-139453390D01*
X152738094Y-139453390D02*
X152690475Y-139262914D01*
X152690475Y-139262914D02*
X152642856Y-139167676D01*
X152642856Y-139167676D02*
X152547618Y-139072438D01*
X152547618Y-139072438D02*
X152404761Y-139024819D01*
X152404761Y-139024819D02*
X152309523Y-139024819D01*
X152309523Y-139024819D02*
X152166666Y-139072438D01*
X152166666Y-139072438D02*
X152119047Y-139120057D01*
X151261904Y-139358152D02*
X151261904Y-140024819D01*
X151499999Y-138977200D02*
X151738094Y-139691485D01*
X151738094Y-139691485D02*
X151119047Y-139691485D01*
X150833332Y-139024819D02*
X150214285Y-139024819D01*
X150214285Y-139024819D02*
X150547618Y-139405771D01*
X150547618Y-139405771D02*
X150404761Y-139405771D01*
X150404761Y-139405771D02*
X150309523Y-139453390D01*
X150309523Y-139453390D02*
X150261904Y-139501009D01*
X150261904Y-139501009D02*
X150214285Y-139596247D01*
X150214285Y-139596247D02*
X150214285Y-139834342D01*
X150214285Y-139834342D02*
X150261904Y-139929580D01*
X150261904Y-139929580D02*
X150309523Y-139977200D01*
X150309523Y-139977200D02*
X150404761Y-140024819D01*
X150404761Y-140024819D02*
X150690475Y-140024819D01*
X150690475Y-140024819D02*
X150785713Y-139977200D01*
X150785713Y-139977200D02*
X150833332Y-139929580D01*
X149357142Y-139024819D02*
X149547618Y-139024819D01*
X149547618Y-139024819D02*
X149642856Y-139072438D01*
X149642856Y-139072438D02*
X149690475Y-139120057D01*
X149690475Y-139120057D02*
X149785713Y-139262914D01*
X149785713Y-139262914D02*
X149833332Y-139453390D01*
X149833332Y-139453390D02*
X149833332Y-139834342D01*
X149833332Y-139834342D02*
X149785713Y-139929580D01*
X149785713Y-139929580D02*
X149738094Y-139977200D01*
X149738094Y-139977200D02*
X149642856Y-140024819D01*
X149642856Y-140024819D02*
X149452380Y-140024819D01*
X149452380Y-140024819D02*
X149357142Y-139977200D01*
X149357142Y-139977200D02*
X149309523Y-139929580D01*
X149309523Y-139929580D02*
X149261904Y-139834342D01*
X149261904Y-139834342D02*
X149261904Y-139596247D01*
X149261904Y-139596247D02*
X149309523Y-139501009D01*
X149309523Y-139501009D02*
X149357142Y-139453390D01*
X149357142Y-139453390D02*
X149452380Y-139405771D01*
X149452380Y-139405771D02*
X149642856Y-139405771D01*
X149642856Y-139405771D02*
X149738094Y-139453390D01*
X149738094Y-139453390D02*
X149785713Y-139501009D01*
X149785713Y-139501009D02*
X149833332Y-139596247D01*
X126914819Y-73880952D02*
X126438628Y-73547619D01*
X126914819Y-73309524D02*
X125914819Y-73309524D01*
X125914819Y-73309524D02*
X125914819Y-73690476D01*
X125914819Y-73690476D02*
X125962438Y-73785714D01*
X125962438Y-73785714D02*
X126010057Y-73833333D01*
X126010057Y-73833333D02*
X126105295Y-73880952D01*
X126105295Y-73880952D02*
X126248152Y-73880952D01*
X126248152Y-73880952D02*
X126343390Y-73833333D01*
X126343390Y-73833333D02*
X126391009Y-73785714D01*
X126391009Y-73785714D02*
X126438628Y-73690476D01*
X126438628Y-73690476D02*
X126438628Y-73309524D01*
X126248152Y-74738095D02*
X126914819Y-74738095D01*
X125867200Y-74500000D02*
X126581485Y-74261905D01*
X126581485Y-74261905D02*
X126581485Y-74880952D01*
X125914819Y-75452381D02*
X125914819Y-75547619D01*
X125914819Y-75547619D02*
X125962438Y-75642857D01*
X125962438Y-75642857D02*
X126010057Y-75690476D01*
X126010057Y-75690476D02*
X126105295Y-75738095D01*
X126105295Y-75738095D02*
X126295771Y-75785714D01*
X126295771Y-75785714D02*
X126533866Y-75785714D01*
X126533866Y-75785714D02*
X126724342Y-75738095D01*
X126724342Y-75738095D02*
X126819580Y-75690476D01*
X126819580Y-75690476D02*
X126867200Y-75642857D01*
X126867200Y-75642857D02*
X126914819Y-75547619D01*
X126914819Y-75547619D02*
X126914819Y-75452381D01*
X126914819Y-75452381D02*
X126867200Y-75357143D01*
X126867200Y-75357143D02*
X126819580Y-75309524D01*
X126819580Y-75309524D02*
X126724342Y-75261905D01*
X126724342Y-75261905D02*
X126533866Y-75214286D01*
X126533866Y-75214286D02*
X126295771Y-75214286D01*
X126295771Y-75214286D02*
X126105295Y-75261905D01*
X126105295Y-75261905D02*
X126010057Y-75309524D01*
X126010057Y-75309524D02*
X125962438Y-75357143D01*
X125962438Y-75357143D02*
X125914819Y-75452381D01*
X125914819Y-76119048D02*
X125914819Y-76785714D01*
X125914819Y-76785714D02*
X126914819Y-76357143D01*
X108269047Y-87279580D02*
X108316666Y-87327200D01*
X108316666Y-87327200D02*
X108459523Y-87374819D01*
X108459523Y-87374819D02*
X108554761Y-87374819D01*
X108554761Y-87374819D02*
X108697618Y-87327200D01*
X108697618Y-87327200D02*
X108792856Y-87231961D01*
X108792856Y-87231961D02*
X108840475Y-87136723D01*
X108840475Y-87136723D02*
X108888094Y-86946247D01*
X108888094Y-86946247D02*
X108888094Y-86803390D01*
X108888094Y-86803390D02*
X108840475Y-86612914D01*
X108840475Y-86612914D02*
X108792856Y-86517676D01*
X108792856Y-86517676D02*
X108697618Y-86422438D01*
X108697618Y-86422438D02*
X108554761Y-86374819D01*
X108554761Y-86374819D02*
X108459523Y-86374819D01*
X108459523Y-86374819D02*
X108316666Y-86422438D01*
X108316666Y-86422438D02*
X108269047Y-86470057D01*
X107411904Y-86708152D02*
X107411904Y-87374819D01*
X107649999Y-86327200D02*
X107888094Y-87041485D01*
X107888094Y-87041485D02*
X107269047Y-87041485D01*
X106697618Y-86374819D02*
X106602380Y-86374819D01*
X106602380Y-86374819D02*
X106507142Y-86422438D01*
X106507142Y-86422438D02*
X106459523Y-86470057D01*
X106459523Y-86470057D02*
X106411904Y-86565295D01*
X106411904Y-86565295D02*
X106364285Y-86755771D01*
X106364285Y-86755771D02*
X106364285Y-86993866D01*
X106364285Y-86993866D02*
X106411904Y-87184342D01*
X106411904Y-87184342D02*
X106459523Y-87279580D01*
X106459523Y-87279580D02*
X106507142Y-87327200D01*
X106507142Y-87327200D02*
X106602380Y-87374819D01*
X106602380Y-87374819D02*
X106697618Y-87374819D01*
X106697618Y-87374819D02*
X106792856Y-87327200D01*
X106792856Y-87327200D02*
X106840475Y-87279580D01*
X106840475Y-87279580D02*
X106888094Y-87184342D01*
X106888094Y-87184342D02*
X106935713Y-86993866D01*
X106935713Y-86993866D02*
X106935713Y-86755771D01*
X106935713Y-86755771D02*
X106888094Y-86565295D01*
X106888094Y-86565295D02*
X106840475Y-86470057D01*
X106840475Y-86470057D02*
X106792856Y-86422438D01*
X106792856Y-86422438D02*
X106697618Y-86374819D01*
X105411904Y-87374819D02*
X105983332Y-87374819D01*
X105697618Y-87374819D02*
X105697618Y-86374819D01*
X105697618Y-86374819D02*
X105792856Y-86517676D01*
X105792856Y-86517676D02*
X105888094Y-86612914D01*
X105888094Y-86612914D02*
X105983332Y-86660533D01*
X182929580Y-138018452D02*
X182977200Y-137970833D01*
X182977200Y-137970833D02*
X183024819Y-137827976D01*
X183024819Y-137827976D02*
X183024819Y-137732738D01*
X183024819Y-137732738D02*
X182977200Y-137589881D01*
X182977200Y-137589881D02*
X182881961Y-137494643D01*
X182881961Y-137494643D02*
X182786723Y-137447024D01*
X182786723Y-137447024D02*
X182596247Y-137399405D01*
X182596247Y-137399405D02*
X182453390Y-137399405D01*
X182453390Y-137399405D02*
X182262914Y-137447024D01*
X182262914Y-137447024D02*
X182167676Y-137494643D01*
X182167676Y-137494643D02*
X182072438Y-137589881D01*
X182072438Y-137589881D02*
X182024819Y-137732738D01*
X182024819Y-137732738D02*
X182024819Y-137827976D01*
X182024819Y-137827976D02*
X182072438Y-137970833D01*
X182072438Y-137970833D02*
X182120057Y-138018452D01*
X182358152Y-138875595D02*
X183024819Y-138875595D01*
X181977200Y-138637500D02*
X182691485Y-138399405D01*
X182691485Y-138399405D02*
X182691485Y-139018452D01*
X182358152Y-139827976D02*
X183024819Y-139827976D01*
X181977200Y-139589881D02*
X182691485Y-139351786D01*
X182691485Y-139351786D02*
X182691485Y-139970833D01*
X182024819Y-140542262D02*
X182024819Y-140637500D01*
X182024819Y-140637500D02*
X182072438Y-140732738D01*
X182072438Y-140732738D02*
X182120057Y-140780357D01*
X182120057Y-140780357D02*
X182215295Y-140827976D01*
X182215295Y-140827976D02*
X182405771Y-140875595D01*
X182405771Y-140875595D02*
X182643866Y-140875595D01*
X182643866Y-140875595D02*
X182834342Y-140827976D01*
X182834342Y-140827976D02*
X182929580Y-140780357D01*
X182929580Y-140780357D02*
X182977200Y-140732738D01*
X182977200Y-140732738D02*
X183024819Y-140637500D01*
X183024819Y-140637500D02*
X183024819Y-140542262D01*
X183024819Y-140542262D02*
X182977200Y-140447024D01*
X182977200Y-140447024D02*
X182929580Y-140399405D01*
X182929580Y-140399405D02*
X182834342Y-140351786D01*
X182834342Y-140351786D02*
X182643866Y-140304167D01*
X182643866Y-140304167D02*
X182405771Y-140304167D01*
X182405771Y-140304167D02*
X182215295Y-140351786D01*
X182215295Y-140351786D02*
X182120057Y-140399405D01*
X182120057Y-140399405D02*
X182072438Y-140447024D01*
X182072438Y-140447024D02*
X182024819Y-140542262D01*
X182929580Y-142743452D02*
X182977200Y-142695833D01*
X182977200Y-142695833D02*
X183024819Y-142552976D01*
X183024819Y-142552976D02*
X183024819Y-142457738D01*
X183024819Y-142457738D02*
X182977200Y-142314881D01*
X182977200Y-142314881D02*
X182881961Y-142219643D01*
X182881961Y-142219643D02*
X182786723Y-142172024D01*
X182786723Y-142172024D02*
X182596247Y-142124405D01*
X182596247Y-142124405D02*
X182453390Y-142124405D01*
X182453390Y-142124405D02*
X182262914Y-142172024D01*
X182262914Y-142172024D02*
X182167676Y-142219643D01*
X182167676Y-142219643D02*
X182072438Y-142314881D01*
X182072438Y-142314881D02*
X182024819Y-142457738D01*
X182024819Y-142457738D02*
X182024819Y-142552976D01*
X182024819Y-142552976D02*
X182072438Y-142695833D01*
X182072438Y-142695833D02*
X182120057Y-142743452D01*
X182358152Y-143600595D02*
X183024819Y-143600595D01*
X181977200Y-143362500D02*
X182691485Y-143124405D01*
X182691485Y-143124405D02*
X182691485Y-143743452D01*
X182024819Y-144029167D02*
X182024819Y-144648214D01*
X182024819Y-144648214D02*
X182405771Y-144314881D01*
X182405771Y-144314881D02*
X182405771Y-144457738D01*
X182405771Y-144457738D02*
X182453390Y-144552976D01*
X182453390Y-144552976D02*
X182501009Y-144600595D01*
X182501009Y-144600595D02*
X182596247Y-144648214D01*
X182596247Y-144648214D02*
X182834342Y-144648214D01*
X182834342Y-144648214D02*
X182929580Y-144600595D01*
X182929580Y-144600595D02*
X182977200Y-144552976D01*
X182977200Y-144552976D02*
X183024819Y-144457738D01*
X183024819Y-144457738D02*
X183024819Y-144172024D01*
X183024819Y-144172024D02*
X182977200Y-144076786D01*
X182977200Y-144076786D02*
X182929580Y-144029167D01*
X182024819Y-144981548D02*
X182024819Y-145648214D01*
X182024819Y-145648214D02*
X183024819Y-145219643D01*
X155554819Y-76785714D02*
X156364342Y-76785714D01*
X156364342Y-76785714D02*
X156459580Y-76833333D01*
X156459580Y-76833333D02*
X156507200Y-76880952D01*
X156507200Y-76880952D02*
X156554819Y-76976190D01*
X156554819Y-76976190D02*
X156554819Y-77166666D01*
X156554819Y-77166666D02*
X156507200Y-77261904D01*
X156507200Y-77261904D02*
X156459580Y-77309523D01*
X156459580Y-77309523D02*
X156364342Y-77357142D01*
X156364342Y-77357142D02*
X155554819Y-77357142D01*
X155888152Y-78261904D02*
X156554819Y-78261904D01*
X155507200Y-78023809D02*
X156221485Y-77785714D01*
X156221485Y-77785714D02*
X156221485Y-78404761D01*
X155554819Y-78976190D02*
X155554819Y-79071428D01*
X155554819Y-79071428D02*
X155602438Y-79166666D01*
X155602438Y-79166666D02*
X155650057Y-79214285D01*
X155650057Y-79214285D02*
X155745295Y-79261904D01*
X155745295Y-79261904D02*
X155935771Y-79309523D01*
X155935771Y-79309523D02*
X156173866Y-79309523D01*
X156173866Y-79309523D02*
X156364342Y-79261904D01*
X156364342Y-79261904D02*
X156459580Y-79214285D01*
X156459580Y-79214285D02*
X156507200Y-79166666D01*
X156507200Y-79166666D02*
X156554819Y-79071428D01*
X156554819Y-79071428D02*
X156554819Y-78976190D01*
X156554819Y-78976190D02*
X156507200Y-78880952D01*
X156507200Y-78880952D02*
X156459580Y-78833333D01*
X156459580Y-78833333D02*
X156364342Y-78785714D01*
X156364342Y-78785714D02*
X156173866Y-78738095D01*
X156173866Y-78738095D02*
X155935771Y-78738095D01*
X155935771Y-78738095D02*
X155745295Y-78785714D01*
X155745295Y-78785714D02*
X155650057Y-78833333D01*
X155650057Y-78833333D02*
X155602438Y-78880952D01*
X155602438Y-78880952D02*
X155554819Y-78976190D01*
X155983390Y-79880952D02*
X155935771Y-79785714D01*
X155935771Y-79785714D02*
X155888152Y-79738095D01*
X155888152Y-79738095D02*
X155792914Y-79690476D01*
X155792914Y-79690476D02*
X155745295Y-79690476D01*
X155745295Y-79690476D02*
X155650057Y-79738095D01*
X155650057Y-79738095D02*
X155602438Y-79785714D01*
X155602438Y-79785714D02*
X155554819Y-79880952D01*
X155554819Y-79880952D02*
X155554819Y-80071428D01*
X155554819Y-80071428D02*
X155602438Y-80166666D01*
X155602438Y-80166666D02*
X155650057Y-80214285D01*
X155650057Y-80214285D02*
X155745295Y-80261904D01*
X155745295Y-80261904D02*
X155792914Y-80261904D01*
X155792914Y-80261904D02*
X155888152Y-80214285D01*
X155888152Y-80214285D02*
X155935771Y-80166666D01*
X155935771Y-80166666D02*
X155983390Y-80071428D01*
X155983390Y-80071428D02*
X155983390Y-79880952D01*
X155983390Y-79880952D02*
X156031009Y-79785714D01*
X156031009Y-79785714D02*
X156078628Y-79738095D01*
X156078628Y-79738095D02*
X156173866Y-79690476D01*
X156173866Y-79690476D02*
X156364342Y-79690476D01*
X156364342Y-79690476D02*
X156459580Y-79738095D01*
X156459580Y-79738095D02*
X156507200Y-79785714D01*
X156507200Y-79785714D02*
X156554819Y-79880952D01*
X156554819Y-79880952D02*
X156554819Y-80071428D01*
X156554819Y-80071428D02*
X156507200Y-80166666D01*
X156507200Y-80166666D02*
X156459580Y-80214285D01*
X156459580Y-80214285D02*
X156364342Y-80261904D01*
X156364342Y-80261904D02*
X156173866Y-80261904D01*
X156173866Y-80261904D02*
X156078628Y-80214285D01*
X156078628Y-80214285D02*
X156031009Y-80166666D01*
X156031009Y-80166666D02*
X155983390Y-80071428D01*
D11*
%TO.C,R406*%
X129735000Y-69892936D02*
X129735000Y-70347064D01*
X128265000Y-69892936D02*
X128265000Y-70347064D01*
%TO.C,C404*%
X115265000Y-88311252D02*
X115265000Y-87788748D01*
X116735000Y-88311252D02*
X116735000Y-87788748D01*
%TO.C,U405*%
X145950000Y-59750000D02*
X149710000Y-59750000D01*
X149710000Y-66570000D02*
X149710000Y-65310000D01*
X149710000Y-59750000D02*
X149710000Y-61010000D01*
X143700000Y-66570000D02*
X149710000Y-66570000D01*
%TO.C,C424*%
X192323752Y-90435000D02*
X191801248Y-90435000D01*
X192323752Y-88965000D02*
X191801248Y-88965000D01*
%TO.C,R408*%
X133735000Y-69792936D02*
X133735000Y-70247064D01*
X132265000Y-69792936D02*
X132265000Y-70247064D01*
%TO.C,U403*%
X156450000Y-66810000D02*
X162460000Y-66810000D01*
X158700000Y-59990000D02*
X162460000Y-59990000D01*
X162460000Y-59990000D02*
X162460000Y-61250000D01*
X162460000Y-66810000D02*
X162460000Y-65550000D01*
%TO.C,C416*%
X174735000Y-77261252D02*
X174735000Y-76738748D01*
X173265000Y-77261252D02*
X173265000Y-76738748D01*
%TO.C,C421*%
X151985000Y-84828748D02*
X151985000Y-85351252D01*
X150515000Y-84828748D02*
X150515000Y-85351252D01*
%TO.C,C442*%
X190716233Y-124510000D02*
X191008767Y-124510000D01*
X190716233Y-123490000D02*
X191008767Y-123490000D01*
%TO.C,R403*%
X113765000Y-71347064D02*
X113765000Y-70892936D01*
X112295000Y-71347064D02*
X112295000Y-70892936D01*
%TO.C,R411*%
X136735000Y-74772936D02*
X136735000Y-75227064D01*
X135265000Y-74772936D02*
X135265000Y-75227064D01*
%TO.C,R414*%
X161435000Y-72972936D02*
X161435000Y-73427064D01*
X159965000Y-72972936D02*
X159965000Y-73427064D01*
%TO.C,C411*%
X122071252Y-76735000D02*
X121548748Y-76735000D01*
X122071252Y-75265000D02*
X121548748Y-75265000D01*
%TO.C,U402*%
X116700000Y-93160000D02*
X114800000Y-93160000D01*
X115300000Y-90840000D02*
X116700000Y-90840000D01*
%TO.C,C413*%
X191298752Y-76265000D02*
X190776248Y-76265000D01*
X191298752Y-77735000D02*
X190776248Y-77735000D01*
%TO.C,J407*%
X195077500Y-75000000D02*
X194577500Y-75250000D01*
X194577500Y-75250000D02*
X194577500Y-74750000D01*
X195627500Y-75840000D02*
X195627500Y-76950000D01*
X195627500Y-73050000D02*
X195627500Y-74160000D01*
X194577500Y-74750000D02*
X195077500Y-75000000D01*
X199337500Y-75840000D02*
X199337500Y-76950000D01*
X199337500Y-73050000D02*
X199337500Y-74160000D01*
%TO.C,C435*%
X151146267Y-144510000D02*
X150853733Y-144510000D01*
X151146267Y-143490000D02*
X150853733Y-143490000D01*
%TO.C,U401*%
X114900000Y-83540000D02*
X116800000Y-83540000D01*
X116300000Y-85860000D02*
X114900000Y-85860000D01*
%TO.C,J401*%
X103910000Y-96350000D02*
X103910000Y-95240000D01*
X104460000Y-94400000D02*
X104960000Y-94150000D01*
X100200000Y-93560000D02*
X100200000Y-92450000D01*
X104960000Y-94650000D02*
X104460000Y-94400000D01*
X100200000Y-96350000D02*
X100200000Y-95240000D01*
X103910000Y-93560000D02*
X103910000Y-92450000D01*
X104960000Y-94150000D02*
X104960000Y-94650000D01*
%TO.C,R409*%
X132265000Y-74092936D02*
X132265000Y-74547064D01*
X133735000Y-74092936D02*
X133735000Y-74547064D01*
%TO.C,C427*%
X114146267Y-124510000D02*
X113853733Y-124510000D01*
X114146267Y-123490000D02*
X113853733Y-123490000D01*
%TO.C,J403*%
X105342500Y-75180000D02*
X104842500Y-74930000D01*
X104292500Y-74090000D02*
X104292500Y-72980000D01*
X105342500Y-74680000D02*
X105342500Y-75180000D01*
X104292500Y-76880000D02*
X104292500Y-75770000D01*
X100582500Y-74090000D02*
X100582500Y-72980000D01*
X104842500Y-74930000D02*
X105342500Y-74680000D01*
X100582500Y-76880000D02*
X100582500Y-75770000D01*
%TO.C,C418*%
X163188748Y-83565000D02*
X163711252Y-83565000D01*
X163188748Y-85035000D02*
X163711252Y-85035000D01*
%TO.C,R416*%
X151172936Y-88165000D02*
X151627064Y-88165000D01*
X151172936Y-89635000D02*
X151627064Y-89635000D01*
%TO.C,R401*%
X116105000Y-71347064D02*
X116105000Y-70892936D01*
X117575000Y-71347064D02*
X117575000Y-70892936D01*
%TO.C,C415*%
X168911252Y-71365000D02*
X168388748Y-71365000D01*
X168911252Y-72835000D02*
X168388748Y-72835000D01*
%TO.C,U407*%
X176350000Y-73190000D02*
X177750000Y-73190000D01*
X177750000Y-75510000D02*
X175850000Y-75510000D01*
%TO.C,U404*%
X183500000Y-93540000D02*
X185400000Y-93540000D01*
X184900000Y-95860000D02*
X183500000Y-95860000D01*
%TO.C,C409*%
X140697500Y-70261252D02*
X140697500Y-69738748D01*
X139227500Y-70261252D02*
X139227500Y-69738748D01*
%TO.C,C438*%
X188510000Y-140146267D02*
X188510000Y-139853733D01*
X187490000Y-140146267D02*
X187490000Y-139853733D01*
%TO.C,C419*%
X156738748Y-82265000D02*
X157261252Y-82265000D01*
X156738748Y-83735000D02*
X157261252Y-83735000D01*
%TO.C,C423*%
X156835000Y-73398752D02*
X156835000Y-72876248D01*
X155365000Y-73398752D02*
X155365000Y-72876248D01*
%TO.C,R405*%
X109955000Y-71347064D02*
X109955000Y-70892936D01*
X108485000Y-71347064D02*
X108485000Y-70892936D01*
%TO.C,R415*%
X147227064Y-88265000D02*
X146772936Y-88265000D01*
X147227064Y-89735000D02*
X146772936Y-89735000D01*
%TO.C,C403*%
X117635000Y-79661252D02*
X117635000Y-79138748D01*
X116165000Y-79661252D02*
X116165000Y-79138748D01*
%TO.C,C407*%
X138265000Y-90738748D02*
X138265000Y-91261252D01*
X139735000Y-90738748D02*
X139735000Y-91261252D01*
%TO.C,R417*%
X152227064Y-93035000D02*
X151772936Y-93035000D01*
X152227064Y-91565000D02*
X151772936Y-91565000D01*
%TO.C,J406*%
X195627500Y-92030000D02*
X195627500Y-93140000D01*
X194577500Y-94230000D02*
X194577500Y-93730000D01*
X199337500Y-94820000D02*
X199337500Y-95930000D01*
X195627500Y-94820000D02*
X195627500Y-95930000D01*
X199337500Y-92030000D02*
X199337500Y-93140000D01*
X194577500Y-93730000D02*
X195077500Y-93980000D01*
X195077500Y-93980000D02*
X194577500Y-94230000D01*
%TO.C,C431*%
X118510000Y-139146267D02*
X118510000Y-138853733D01*
X117490000Y-139146267D02*
X117490000Y-138853733D01*
%TO.C,U409*%
X192650000Y-86510000D02*
X190750000Y-86510000D01*
X191250000Y-84190000D02*
X192650000Y-84190000D01*
%TO.C,C412*%
X187488748Y-90435000D02*
X188011252Y-90435000D01*
X187488748Y-88965000D02*
X188011252Y-88965000D01*
%TO.C,R402*%
X115612936Y-75495000D02*
X116067064Y-75495000D01*
X115612936Y-74025000D02*
X116067064Y-74025000D01*
%TO.C,L402*%
X145639758Y-74370000D02*
X146460242Y-74370000D01*
X145639758Y-75490000D02*
X146460242Y-75490000D01*
%TO.C,R410*%
X137155000Y-69772936D02*
X137155000Y-70227064D01*
X135685000Y-69772936D02*
X135685000Y-70227064D01*
%TO.C,D401*%
X189560000Y-72000000D02*
X189560000Y-71350000D01*
X186440000Y-72000000D02*
X186440000Y-71350000D01*
X186440000Y-72000000D02*
X186440000Y-72650000D01*
X189560000Y-72000000D02*
X189560000Y-73675000D01*
%TO.C,C410*%
X190738748Y-94835000D02*
X191261252Y-94835000D01*
X190738748Y-93365000D02*
X191261252Y-93365000D01*
%TO.C,C420*%
X145735000Y-79738748D02*
X145735000Y-80261252D01*
X144265000Y-79738748D02*
X144265000Y-80261252D01*
%TO.C,C446*%
X190810000Y-99416233D02*
X190810000Y-99708767D01*
X189790000Y-99416233D02*
X189790000Y-99708767D01*
%TO.C,C405*%
X126265000Y-91581248D02*
X126265000Y-92103752D01*
X127735000Y-91581248D02*
X127735000Y-92103752D01*
%TO.C,U406*%
X126950000Y-89080000D02*
X126950000Y-88825000D01*
X130810000Y-89080000D02*
X126950000Y-89080000D01*
X130810000Y-78560000D02*
X126950000Y-78560000D01*
X134670000Y-78815000D02*
X136485000Y-78815000D01*
X134670000Y-89080000D02*
X134670000Y-88825000D01*
X126950000Y-78560000D02*
X126950000Y-78815000D01*
X130810000Y-78560000D02*
X134670000Y-78560000D01*
X130810000Y-89080000D02*
X134670000Y-89080000D01*
X134670000Y-78560000D02*
X134670000Y-78815000D01*
%TO.C,C425*%
X113490000Y-97146267D02*
X113490000Y-96853733D01*
X114510000Y-97146267D02*
X114510000Y-96853733D01*
%TO.C,C422*%
X156471252Y-91265000D02*
X155948748Y-91265000D01*
X156471252Y-92735000D02*
X155948748Y-92735000D01*
%TO.C,C443*%
X188490000Y-115283767D02*
X188490000Y-114991233D01*
X189510000Y-115283767D02*
X189510000Y-114991233D01*
%TO.C,J402*%
X103910000Y-115950000D02*
X103910000Y-114840000D01*
X103910000Y-113160000D02*
X103910000Y-112050000D01*
X104960000Y-114250000D02*
X104460000Y-114000000D01*
X100200000Y-113160000D02*
X100200000Y-112050000D01*
X100200000Y-115950000D02*
X100200000Y-114840000D01*
X104960000Y-113750000D02*
X104960000Y-114250000D01*
X104460000Y-114000000D02*
X104960000Y-113750000D01*
%TO.C,R413*%
X164427064Y-72835000D02*
X163972936Y-72835000D01*
X164427064Y-71365000D02*
X163972936Y-71365000D01*
%TO.C,C408*%
X144735000Y-84738748D02*
X144735000Y-85261252D01*
X143265000Y-84738748D02*
X143265000Y-85261252D01*
%TO.C,C406*%
X123735000Y-90738748D02*
X123735000Y-91261252D01*
X122265000Y-90738748D02*
X122265000Y-91261252D01*
%TO.C,C402*%
X106215000Y-104738748D02*
X106215000Y-105261252D01*
X107685000Y-104738748D02*
X107685000Y-105261252D01*
%TO.C,C414*%
X183261252Y-72735000D02*
X182738748Y-72735000D01*
X183261252Y-71265000D02*
X182738748Y-71265000D01*
%TO.C,C445*%
X183490000Y-106853733D02*
X183490000Y-107146267D01*
X184510000Y-106853733D02*
X184510000Y-107146267D01*
%TO.C,C441*%
X185510000Y-124991233D02*
X185510000Y-125283767D01*
X184490000Y-124991233D02*
X184490000Y-125283767D01*
%TO.C,R404*%
X110412936Y-74025000D02*
X110867064Y-74025000D01*
X110412936Y-75495000D02*
X110867064Y-75495000D01*
%TO.C,C430*%
X119490000Y-126283767D02*
X119490000Y-125991233D01*
X120510000Y-126283767D02*
X120510000Y-125991233D01*
%TO.C,R412*%
X168465000Y-75172936D02*
X168465000Y-75627064D01*
X169935000Y-75172936D02*
X169935000Y-75627064D01*
%TO.C,C433*%
X112510000Y-140146267D02*
X112510000Y-139853733D01*
X111490000Y-140146267D02*
X111490000Y-139853733D01*
%TO.C,C432*%
X118510000Y-143853733D02*
X118510000Y-144146267D01*
X117490000Y-143853733D02*
X117490000Y-144146267D01*
%TO.C,C426*%
X120510000Y-107283767D02*
X120510000Y-106991233D01*
X119490000Y-107283767D02*
X119490000Y-106991233D01*
%TO.C,C417*%
X177738748Y-77265000D02*
X178261252Y-77265000D01*
X177738748Y-78735000D02*
X178261252Y-78735000D01*
%TO.C,C428*%
X113210000Y-115308767D02*
X113210000Y-115016233D01*
X112190000Y-115308767D02*
X112190000Y-115016233D01*
%TO.C,C436*%
X151146267Y-141510000D02*
X150853733Y-141510000D01*
X151146267Y-140490000D02*
X150853733Y-140490000D01*
%TO.C,R407*%
X129735000Y-74092936D02*
X129735000Y-74547064D01*
X128265000Y-74092936D02*
X128265000Y-74547064D01*
%TO.C,C401*%
X107411252Y-89335000D02*
X106888748Y-89335000D01*
X107411252Y-87865000D02*
X106888748Y-87865000D01*
%TO.C,C440*%
X184510000Y-138991233D02*
X184510000Y-139283767D01*
X183490000Y-138991233D02*
X183490000Y-139283767D01*
%TO.C,C437*%
X184510000Y-143716233D02*
X184510000Y-144008767D01*
X183490000Y-143716233D02*
X183490000Y-144008767D01*
%TO.C,U408*%
X154960000Y-79860000D02*
X154960000Y-77140000D01*
X154730000Y-81000000D02*
X154730000Y-79860000D01*
X150240000Y-77140000D02*
X150240000Y-79860000D01*
X154960000Y-79860000D02*
X154730000Y-79860000D01*
X151550000Y-77140000D02*
X150240000Y-77140000D01*
X150240000Y-79860000D02*
X150470000Y-79860000D01*
X154960000Y-77140000D02*
X153650000Y-77140000D01*
%TD*%
%LPC*%
D12*
%TO.C,L401*%
X175810000Y-83190000D03*
X168190000Y-90810000D03*
%TD*%
D13*
%TO.C,L403*%
X127380000Y-113000000D03*
D14*
X126190489Y-120392058D03*
X143809511Y-105607942D03*
X126190489Y-105607942D03*
X140750000Y-103040708D03*
X136996954Y-101674711D03*
X146325289Y-114996954D03*
X143809511Y-120392058D03*
X124193535Y-116933232D03*
X144959292Y-107250000D03*
X133003046Y-101674711D03*
X146325289Y-111003046D03*
X127607942Y-104190489D03*
X127607942Y-121809511D03*
X131066768Y-102193535D03*
X129250000Y-122959292D03*
X123674711Y-111003046D03*
X138933232Y-102193535D03*
D13*
X135000000Y-103800000D03*
D14*
X142392058Y-104190489D03*
X129250000Y-103040708D03*
X140750000Y-122959292D03*
X145806465Y-109066768D03*
X138933232Y-123806465D03*
X131066768Y-123806465D03*
X145806465Y-116933232D03*
X125040708Y-118750000D03*
X142392058Y-121809511D03*
X124193535Y-109066768D03*
X144959292Y-118750000D03*
X125040708Y-107250000D03*
X133003046Y-124325289D03*
X136996954Y-124325289D03*
X123674711Y-114996954D03*
%TD*%
D15*
%TO.C,C439*%
X188000000Y-135240000D03*
X193070000Y-130160000D03*
X188000000Y-130160000D03*
%TD*%
%TO.C,C429*%
X111800000Y-109280000D03*
X116870000Y-104200000D03*
X111800000Y-104200000D03*
%TD*%
D13*
%TO.C,L406*%
X173920000Y-113000000D03*
D14*
X162366768Y-102193535D03*
X160550000Y-122959292D03*
X155493535Y-109066768D03*
X156340708Y-107250000D03*
D13*
X166300000Y-122200000D03*
D14*
X177106465Y-116933232D03*
X175109511Y-120392058D03*
X164303046Y-101674711D03*
X176259292Y-107250000D03*
X156340708Y-118750000D03*
X176259292Y-118750000D03*
X173692058Y-104190489D03*
X158907942Y-104190489D03*
X172050000Y-122959292D03*
X168296954Y-101674711D03*
X157490489Y-120392058D03*
X172050000Y-103040708D03*
X173692058Y-121809511D03*
X160550000Y-103040708D03*
X177106465Y-109066768D03*
X154974711Y-111003046D03*
X168296954Y-124325289D03*
X154974711Y-114996954D03*
X175109511Y-105607942D03*
X170233232Y-102193535D03*
X162366768Y-123806465D03*
X177625289Y-111003046D03*
X177625289Y-114996954D03*
X155493535Y-116933232D03*
X164303046Y-124325289D03*
X157490489Y-105607942D03*
X158907942Y-121809511D03*
X170233232Y-123806465D03*
%TD*%
D15*
%TO.C,C444*%
X193730000Y-104860000D03*
X188660000Y-109940000D03*
X188660000Y-104860000D03*
%TD*%
D16*
%TO.C,J404*%
X118300000Y-63900000D03*
D17*
X120840000Y-63900000D03*
X123380000Y-63900000D03*
X125920000Y-63900000D03*
X128460000Y-63900000D03*
X131000000Y-63900000D03*
%TD*%
D13*
%TO.C,L405*%
X174620000Y-142300000D03*
D14*
X168996954Y-130974711D03*
X176959292Y-148050000D03*
X175809511Y-134907942D03*
X161250000Y-152259292D03*
X178325289Y-144296954D03*
X156193535Y-138366768D03*
X176959292Y-136550000D03*
X177806465Y-138366768D03*
X155674711Y-140303046D03*
X172750000Y-132340708D03*
X159607942Y-151109511D03*
X174392058Y-133490489D03*
D13*
X167000000Y-151500000D03*
D14*
X158190489Y-149692058D03*
X170933232Y-153106465D03*
X175809511Y-149692058D03*
X155674711Y-144296954D03*
X157040708Y-148050000D03*
X161250000Y-132340708D03*
X158190489Y-134907942D03*
X165003046Y-130974711D03*
X178325289Y-140303046D03*
X159607942Y-133490489D03*
X174392058Y-151109511D03*
X170933232Y-131493535D03*
X177806465Y-146233232D03*
X156193535Y-146233232D03*
X168996954Y-153625289D03*
X163066768Y-131493535D03*
X165003046Y-153625289D03*
X157040708Y-136550000D03*
X172750000Y-152259292D03*
X163066768Y-153106465D03*
%TD*%
D13*
%TO.C,L404*%
X127580000Y-142700000D03*
D14*
X124393535Y-138766768D03*
X146006465Y-146633232D03*
X146525289Y-144696954D03*
X131266768Y-153506465D03*
X129450000Y-152659292D03*
X145159292Y-136950000D03*
X124393535Y-146633232D03*
X127807942Y-151509511D03*
X144009511Y-150092058D03*
X127807942Y-133890489D03*
D13*
X135200000Y-133500000D03*
D14*
X125240708Y-148450000D03*
X139133232Y-131893535D03*
X133203046Y-154025289D03*
X146525289Y-140703046D03*
X123874711Y-140703046D03*
X140950000Y-152659292D03*
X142592058Y-151509511D03*
X145159292Y-148450000D03*
X131266768Y-131893535D03*
X133203046Y-131374711D03*
X129450000Y-132740708D03*
X137196954Y-131374711D03*
X126390489Y-150092058D03*
X139133232Y-153506465D03*
X126390489Y-135307942D03*
X140950000Y-132740708D03*
X125240708Y-136950000D03*
X137196954Y-154025289D03*
X142592058Y-133890489D03*
X123874711Y-144696954D03*
X146006465Y-138766768D03*
X144009511Y-135307942D03*
%TD*%
D15*
%TO.C,C434*%
X112030000Y-134780000D03*
X117100000Y-129700000D03*
X112030000Y-129700000D03*
%TD*%
D18*
%TO.C,J405*%
X193000000Y-151000000D03*
X193000000Y-65000000D03*
X107000000Y-151000000D03*
X107000000Y-65000000D03*
%TD*%
D19*
%TO.C,R406*%
X129000000Y-69120000D03*
X129000000Y-71120000D03*
%TD*%
D20*
%TO.C,C404*%
X116000000Y-89000000D03*
X116000000Y-87100000D03*
%TD*%
D21*
%TO.C,U405*%
X144650000Y-65460000D03*
D22*
X150950000Y-63160000D03*
D21*
X144650000Y-63160000D03*
X144650000Y-60860000D03*
%TD*%
D23*
%TO.C,C424*%
X193100000Y-89700000D03*
X191025000Y-89700000D03*
%TD*%
D19*
%TO.C,R408*%
X133000000Y-69020000D03*
X133000000Y-71020000D03*
%TD*%
D21*
%TO.C,U403*%
X157400000Y-65700000D03*
D22*
X163700000Y-63400000D03*
D21*
X157400000Y-63400000D03*
X157400000Y-61100000D03*
%TD*%
D20*
%TO.C,C416*%
X174000000Y-77950000D03*
X174000000Y-76050000D03*
%TD*%
D24*
%TO.C,C421*%
X151250000Y-84140000D03*
X151250000Y-86040000D03*
%TD*%
D25*
%TO.C,C442*%
X190000000Y-124000000D03*
X191725000Y-124000000D03*
%TD*%
D26*
%TO.C,R403*%
X113030000Y-72120000D03*
X113030000Y-70120000D03*
%TD*%
D19*
%TO.C,R411*%
X136000000Y-74000000D03*
X136000000Y-76000000D03*
%TD*%
%TO.C,R414*%
X160700000Y-72200000D03*
X160700000Y-74200000D03*
%TD*%
D23*
%TO.C,C411*%
X122847500Y-76000000D03*
X120772500Y-76000000D03*
%TD*%
D27*
%TO.C,U402*%
X115050000Y-92650000D03*
X115050000Y-92000000D03*
X115050000Y-91350000D03*
X116950000Y-91350000D03*
X116950000Y-92000000D03*
X116950000Y-92650000D03*
%TD*%
D23*
%TO.C,C413*%
X192075000Y-77000000D03*
X190000000Y-77000000D03*
%TD*%
D28*
%TO.C,J407*%
X197537500Y-75000000D03*
D29*
X197337500Y-72175000D03*
X197337500Y-77825000D03*
%TD*%
D30*
%TO.C,C435*%
X151862500Y-144000000D03*
X150137500Y-144000000D03*
%TD*%
D27*
%TO.C,U401*%
X116550000Y-84050000D03*
X116550000Y-84700000D03*
X116550000Y-85350000D03*
X114650000Y-85350000D03*
X114650000Y-84700000D03*
X114650000Y-84050000D03*
%TD*%
D28*
%TO.C,J401*%
X102000000Y-94400000D03*
D29*
X102200000Y-91575000D03*
X102200000Y-97225000D03*
%TD*%
D19*
%TO.C,R409*%
X133000000Y-73320000D03*
X133000000Y-75320000D03*
%TD*%
D30*
%TO.C,C427*%
X114862500Y-124000000D03*
X113137500Y-124000000D03*
%TD*%
D28*
%TO.C,J403*%
X102382500Y-74930000D03*
D29*
X102582500Y-72105000D03*
X102582500Y-77755000D03*
%TD*%
D31*
%TO.C,C418*%
X162500000Y-84300000D03*
X164400000Y-84300000D03*
%TD*%
D32*
%TO.C,R416*%
X150400000Y-88900000D03*
X152400000Y-88900000D03*
%TD*%
D26*
%TO.C,R401*%
X116840000Y-72120000D03*
X116840000Y-70120000D03*
%TD*%
D33*
%TO.C,C415*%
X169600000Y-72100000D03*
X167700000Y-72100000D03*
%TD*%
D27*
%TO.C,U407*%
X176100000Y-75000000D03*
X176100000Y-74350000D03*
X176100000Y-73700000D03*
X178000000Y-73700000D03*
X178000000Y-74350000D03*
X178000000Y-75000000D03*
%TD*%
%TO.C,U404*%
X185150000Y-94050000D03*
X185150000Y-94700000D03*
X185150000Y-95350000D03*
X183250000Y-95350000D03*
X183250000Y-94700000D03*
X183250000Y-94050000D03*
%TD*%
D34*
%TO.C,C409*%
X139962500Y-71037500D03*
X139962500Y-68962500D03*
%TD*%
D35*
%TO.C,C438*%
X188000000Y-140862500D03*
X188000000Y-139137500D03*
%TD*%
D31*
%TO.C,C419*%
X156050000Y-83000000D03*
X157950000Y-83000000D03*
%TD*%
D34*
%TO.C,C423*%
X156100000Y-74175000D03*
X156100000Y-72100000D03*
%TD*%
D26*
%TO.C,R405*%
X109220000Y-72120000D03*
X109220000Y-70120000D03*
%TD*%
D36*
%TO.C,R415*%
X148000000Y-89000000D03*
X146000000Y-89000000D03*
%TD*%
D20*
%TO.C,C403*%
X116900000Y-80350000D03*
X116900000Y-78450000D03*
%TD*%
D37*
%TO.C,C407*%
X139000000Y-89962500D03*
X139000000Y-92037500D03*
%TD*%
D36*
%TO.C,R417*%
X153000000Y-92300000D03*
X151000000Y-92300000D03*
%TD*%
D28*
%TO.C,J406*%
X197537500Y-93980000D03*
D29*
X197337500Y-91155000D03*
X197337500Y-96805000D03*
%TD*%
D35*
%TO.C,C431*%
X118000000Y-139862500D03*
X118000000Y-138137500D03*
%TD*%
D27*
%TO.C,U409*%
X191000000Y-86000000D03*
X191000000Y-85350000D03*
X191000000Y-84700000D03*
X192900000Y-84700000D03*
X192900000Y-85350000D03*
X192900000Y-86000000D03*
%TD*%
D31*
%TO.C,C412*%
X186800000Y-89700000D03*
X188700000Y-89700000D03*
%TD*%
D32*
%TO.C,R402*%
X114840000Y-74760000D03*
X116840000Y-74760000D03*
%TD*%
D38*
%TO.C,L402*%
X144900000Y-74930000D03*
X147200000Y-74930000D03*
%TD*%
D19*
%TO.C,R410*%
X136420000Y-69000000D03*
X136420000Y-71000000D03*
%TD*%
D39*
%TO.C,D401*%
X188950000Y-72937500D03*
X187050000Y-72937500D03*
X188000000Y-71062500D03*
%TD*%
D31*
%TO.C,C410*%
X190050000Y-94100000D03*
X191950000Y-94100000D03*
%TD*%
D24*
%TO.C,C420*%
X145000000Y-79050000D03*
X145000000Y-80950000D03*
%TD*%
D40*
%TO.C,C446*%
X190300000Y-98700000D03*
X190300000Y-100425000D03*
%TD*%
D37*
%TO.C,C405*%
X127000000Y-90805000D03*
X127000000Y-92880000D03*
%TD*%
D41*
%TO.C,U406*%
X135460000Y-79375000D03*
X135460000Y-80645000D03*
X135460000Y-81915000D03*
X135460000Y-83185000D03*
X135460000Y-84455000D03*
X135460000Y-85725000D03*
X135460000Y-86995000D03*
X135460000Y-88265000D03*
X126160000Y-88265000D03*
X126160000Y-86995000D03*
X126160000Y-85725000D03*
X126160000Y-84455000D03*
X126160000Y-83185000D03*
X126160000Y-81915000D03*
X126160000Y-80645000D03*
X126160000Y-79375000D03*
%TD*%
D35*
%TO.C,C425*%
X114000000Y-97862500D03*
X114000000Y-96137500D03*
%TD*%
D23*
%TO.C,C422*%
X157247500Y-92000000D03*
X155172500Y-92000000D03*
%TD*%
D35*
%TO.C,C443*%
X189000000Y-116000000D03*
X189000000Y-114275000D03*
%TD*%
D28*
%TO.C,J402*%
X102000000Y-114000000D03*
D29*
X102200000Y-111175000D03*
X102200000Y-116825000D03*
%TD*%
D36*
%TO.C,R413*%
X165200000Y-72100000D03*
X163200000Y-72100000D03*
%TD*%
D37*
%TO.C,C408*%
X144000000Y-83962500D03*
X144000000Y-86037500D03*
%TD*%
%TO.C,C406*%
X123000000Y-89962500D03*
X123000000Y-92037500D03*
%TD*%
D24*
%TO.C,C402*%
X106950000Y-104050000D03*
X106950000Y-105950000D03*
%TD*%
D23*
%TO.C,C414*%
X184037500Y-72000000D03*
X181962500Y-72000000D03*
%TD*%
D40*
%TO.C,C445*%
X184000000Y-106137500D03*
X184000000Y-107862500D03*
%TD*%
%TO.C,C441*%
X185000000Y-124275000D03*
X185000000Y-126000000D03*
%TD*%
D32*
%TO.C,R404*%
X109640000Y-74760000D03*
X111640000Y-74760000D03*
%TD*%
D35*
%TO.C,C430*%
X120000000Y-127000000D03*
X120000000Y-125275000D03*
%TD*%
D19*
%TO.C,R412*%
X169200000Y-74400000D03*
X169200000Y-76400000D03*
%TD*%
D35*
%TO.C,C433*%
X112000000Y-140862500D03*
X112000000Y-139137500D03*
%TD*%
D40*
%TO.C,C432*%
X118000000Y-143137500D03*
X118000000Y-144862500D03*
%TD*%
D35*
%TO.C,C426*%
X120000000Y-108000000D03*
X120000000Y-106275000D03*
%TD*%
D31*
%TO.C,C417*%
X177050000Y-78000000D03*
X178950000Y-78000000D03*
%TD*%
D35*
%TO.C,C428*%
X112700000Y-116025000D03*
X112700000Y-114300000D03*
%TD*%
D30*
%TO.C,C436*%
X151862500Y-141000000D03*
X150137500Y-141000000D03*
%TD*%
D19*
%TO.C,R407*%
X129000000Y-73320000D03*
X129000000Y-75320000D03*
%TD*%
D33*
%TO.C,C401*%
X108100000Y-88600000D03*
X106200000Y-88600000D03*
%TD*%
D40*
%TO.C,C440*%
X184000000Y-138275000D03*
X184000000Y-140000000D03*
%TD*%
%TO.C,C437*%
X184000000Y-143000000D03*
X184000000Y-144725000D03*
%TD*%
D42*
%TO.C,U408*%
X154100000Y-80450000D03*
D43*
X152600000Y-80362500D03*
D42*
X151100000Y-80450000D03*
%TD*%
%LPD*%
M02*
