%TF.GenerationSoftware,KiCad,Pcbnew,7.0.7*%
%TF.CreationDate,2023-11-03T16:15:28+00:00*%
%TF.ProjectId,RXLNA,52584c4e-412e-46b6-9963-61645f706362,rev?*%
%TF.SameCoordinates,Original*%
%TF.FileFunction,Legend,Top*%
%TF.FilePolarity,Positive*%
%FSLAX46Y46*%
G04 Gerber Fmt 4.6, Leading zero omitted, Abs format (unit mm)*
G04 Created by KiCad (PCBNEW 7.0.7) date 2023-11-03 16:15:28*
%MOMM*%
%LPD*%
G01*
G04 APERTURE LIST*
G04 Aperture macros list*
%AMFreePoly0*
4,1,217,1.073531,1.455598,1.785596,1.376787,2.492238,1.258869,3.191311,1.102203,3.880693,0.907265,4.558288,0.674646,5.222041,0.405053,5.869934,0.099305,6.500000,-0.241670,7.110326,-0.616836,7.699058,-1.025054,8.264409,-1.465084,8.804660,-1.935589,9.318173,-2.435142,9.803386,-2.962224,10.258827,-3.515235,10.683112,-4.092495,11.074952,-4.692252,11.433159,-5.312684,11.756643,-5.951906,
12.044423,-6.607978,12.295624,-7.278907,12.509484,-7.962655,12.685353,-8.657146,12.822697,-9.360270,12.921099,-10.069893,12.980260,-10.783859,13.000000,-11.500000,12.980260,-12.216141,12.921099,-12.930107,12.822697,-13.639730,12.685353,-14.342854,12.509484,-15.037345,12.295624,-15.721093,12.044423,-16.392022,11.756643,-17.048094,11.433159,-17.687316,11.074952,-18.307748,10.683112,-18.907505,10.258827,-19.484765,
9.803386,-20.037776,9.318173,-20.564858,8.804660,-21.064411,8.264409,-21.534916,7.699058,-21.974946,7.110326,-22.383164,6.500000,-22.758330,5.869934,-23.099305,5.222041,-23.405053,4.558288,-23.674646,3.880693,-23.907265,3.191311,-24.102203,2.492238,-24.258869,1.785596,-24.376787,1.073531,-24.455598,0.358206,-24.495064,-0.358206,-24.495064,-1.073531,-24.455598,-1.785596,-24.376787,-2.492238,-24.258869,
-3.191311,-24.102203,-3.880693,-23.907265,-4.558288,-23.674646,-5.222041,-23.405053,-5.869934,-23.099305,-6.500000,-22.758330,-7.110326,-22.383164,-7.699058,-21.974946,-8.264409,-21.534916,-8.804660,-21.064411,-9.318173,-20.564858,-9.803386,-20.037776,-10.258827,-19.484765,-10.683112,-18.907505,-11.074952,-18.307748,-11.433159,-17.687316,-11.756643,-17.048094,-12.044423,-16.392022,-12.295624,-15.721093,-12.509484,-15.037345,
-12.685353,-14.342854,-12.822697,-13.639730,-12.921099,-12.930107,-12.980260,-12.216141,-13.000000,-11.500000,-10.004937,-11.500000,-9.985195,-12.128215,-9.926045,-12.753951,-9.827722,-13.374738,-9.690614,-13.988127,-9.515261,-14.591696,-9.302355,-15.183063,-9.052738,-15.759895,-8.767393,-16.319915,-8.447448,-16.860913,-8.094164,-17.380754,-7.708936,-17.877387,-7.293285,-18.348851,-6.848851,-18.793285,-6.377387,-19.208936,
-5.880754,-19.594164,-5.360913,-19.947448,-4.819915,-20.267393,-4.259895,-20.552738,-3.683063,-20.802355,-3.091696,-21.015261,-2.488127,-21.190614,-1.874738,-21.327722,-1.253951,-21.426045,-0.628215,-21.485195,0.000000,-21.504937,0.628215,-21.485195,1.253951,-21.426045,1.874738,-21.327722,2.488127,-21.190614,3.091696,-21.015261,3.683063,-20.802355,4.259895,-20.552738,4.819915,-20.267393,5.360913,-19.947448,
5.880754,-19.594164,6.377387,-19.208936,6.848851,-18.793285,7.293285,-18.348851,7.708936,-17.877387,8.094164,-17.380754,8.447448,-16.860913,8.767393,-16.319915,9.052738,-15.759895,9.302355,-15.183063,9.515261,-14.591696,9.690614,-13.988127,9.827722,-13.374738,9.926045,-12.753951,9.985195,-12.128215,10.004937,-11.500000,9.985195,-10.871785,9.926045,-10.246049,9.827722,-9.625262,9.690614,-9.011873,
9.515261,-8.408304,9.302355,-7.816937,9.052738,-7.240105,8.767393,-6.680085,8.447448,-6.139087,8.094164,-5.619246,7.708936,-5.122613,7.293285,-4.651149,6.848851,-4.206715,6.377387,-3.791064,5.880754,-3.405836,5.360913,-3.052552,4.819915,-2.732607,4.259895,-2.447262,3.683063,-2.197645,3.091696,-1.984739,2.488127,-1.809386,1.874738,-1.672278,1.253951,-1.573955,0.628215,-1.514805,
0.000000,-1.495063,-0.628215,-1.514805,-1.253951,-1.573955,-1.874738,-1.672278,-2.488127,-1.809386,-3.091696,-1.984739,-3.683063,-2.197645,-4.259895,-2.447262,-4.819915,-2.732607,-5.360913,-3.052552,-5.880754,-3.405836,-6.377387,-3.791064,-6.848851,-4.206715,-7.293285,-4.651149,-7.708936,-5.122613,-8.094164,-5.619246,-8.447448,-6.139087,-8.767393,-6.680085,-9.052738,-7.240105,-9.302355,-7.816937,
-9.515261,-8.408304,-9.690614,-9.011873,-9.827722,-9.625262,-9.926045,-10.246049,-9.985195,-10.871785,-10.004937,-11.500000,-13.000000,-11.500000,-12.980260,-10.783859,-12.921099,-10.069893,-12.822697,-9.360270,-12.685353,-8.657146,-12.509484,-7.962655,-12.295624,-7.278907,-12.044423,-6.607978,-11.756643,-5.951906,-11.433159,-5.312684,-11.074952,-4.692252,-10.683112,-4.092495,-10.258827,-3.515235,-9.803386,-2.962224,
-9.318173,-2.435142,-8.804660,-1.935589,-8.264409,-1.465084,-7.699058,-1.025054,-7.110326,-0.616836,-6.500000,-0.241670,-5.869934,0.099305,-5.222041,0.405053,-4.558288,0.674646,-3.880693,0.907265,-3.191311,1.102203,-2.492238,1.258869,-1.785596,1.376787,-1.073531,1.455598,-0.358206,1.495064,0.358206,1.495064,1.073531,1.455598,1.073531,1.455598,$1*%
G04 Aperture macros list end*
%ADD10C,0.150000*%
%ADD11C,0.120000*%
%ADD12C,2.000000*%
%ADD13C,3.000000*%
%ADD14C,1.000000*%
%ADD15FreePoly0,180.000000*%
%ADD16C,2.500000*%
%ADD17FreePoly0,0.000000*%
%ADD18R,1.700000X1.700000*%
%ADD19O,1.700000X1.700000*%
%ADD20C,5.200000*%
%ADD21R,4.200000X1.350000*%
G04 APERTURE END LIST*
D10*
X170880952Y-87454819D02*
X170404762Y-87454819D01*
X170404762Y-87454819D02*
X170404762Y-86454819D01*
X171642857Y-86788152D02*
X171642857Y-87454819D01*
X171404762Y-86407200D02*
X171166667Y-87121485D01*
X171166667Y-87121485D02*
X171785714Y-87121485D01*
X172357143Y-86454819D02*
X172452381Y-86454819D01*
X172452381Y-86454819D02*
X172547619Y-86502438D01*
X172547619Y-86502438D02*
X172595238Y-86550057D01*
X172595238Y-86550057D02*
X172642857Y-86645295D01*
X172642857Y-86645295D02*
X172690476Y-86835771D01*
X172690476Y-86835771D02*
X172690476Y-87073866D01*
X172690476Y-87073866D02*
X172642857Y-87264342D01*
X172642857Y-87264342D02*
X172595238Y-87359580D01*
X172595238Y-87359580D02*
X172547619Y-87407200D01*
X172547619Y-87407200D02*
X172452381Y-87454819D01*
X172452381Y-87454819D02*
X172357143Y-87454819D01*
X172357143Y-87454819D02*
X172261905Y-87407200D01*
X172261905Y-87407200D02*
X172214286Y-87359580D01*
X172214286Y-87359580D02*
X172166667Y-87264342D01*
X172166667Y-87264342D02*
X172119048Y-87073866D01*
X172119048Y-87073866D02*
X172119048Y-86835771D01*
X172119048Y-86835771D02*
X172166667Y-86645295D01*
X172166667Y-86645295D02*
X172214286Y-86550057D01*
X172214286Y-86550057D02*
X172261905Y-86502438D01*
X172261905Y-86502438D02*
X172357143Y-86454819D01*
X173642857Y-87454819D02*
X173071429Y-87454819D01*
X173357143Y-87454819D02*
X173357143Y-86454819D01*
X173357143Y-86454819D02*
X173261905Y-86597676D01*
X173261905Y-86597676D02*
X173166667Y-86692914D01*
X173166667Y-86692914D02*
X173071429Y-86740533D01*
X136559047Y-106065180D02*
X137035237Y-106065180D01*
X137035237Y-106065180D02*
X137035237Y-107065180D01*
X135797142Y-106731847D02*
X135797142Y-106065180D01*
X136035237Y-107112800D02*
X136273332Y-106398514D01*
X136273332Y-106398514D02*
X135654285Y-106398514D01*
X135082856Y-107065180D02*
X134987618Y-107065180D01*
X134987618Y-107065180D02*
X134892380Y-107017561D01*
X134892380Y-107017561D02*
X134844761Y-106969942D01*
X134844761Y-106969942D02*
X134797142Y-106874704D01*
X134797142Y-106874704D02*
X134749523Y-106684228D01*
X134749523Y-106684228D02*
X134749523Y-106446133D01*
X134749523Y-106446133D02*
X134797142Y-106255657D01*
X134797142Y-106255657D02*
X134844761Y-106160419D01*
X134844761Y-106160419D02*
X134892380Y-106112800D01*
X134892380Y-106112800D02*
X134987618Y-106065180D01*
X134987618Y-106065180D02*
X135082856Y-106065180D01*
X135082856Y-106065180D02*
X135178094Y-106112800D01*
X135178094Y-106112800D02*
X135225713Y-106160419D01*
X135225713Y-106160419D02*
X135273332Y-106255657D01*
X135273332Y-106255657D02*
X135320951Y-106446133D01*
X135320951Y-106446133D02*
X135320951Y-106684228D01*
X135320951Y-106684228D02*
X135273332Y-106874704D01*
X135273332Y-106874704D02*
X135225713Y-106969942D01*
X135225713Y-106969942D02*
X135178094Y-107017561D01*
X135178094Y-107017561D02*
X135082856Y-107065180D01*
X134416189Y-107065180D02*
X133797142Y-107065180D01*
X133797142Y-107065180D02*
X134130475Y-106684228D01*
X134130475Y-106684228D02*
X133987618Y-106684228D01*
X133987618Y-106684228D02*
X133892380Y-106636609D01*
X133892380Y-106636609D02*
X133844761Y-106588990D01*
X133844761Y-106588990D02*
X133797142Y-106493752D01*
X133797142Y-106493752D02*
X133797142Y-106255657D01*
X133797142Y-106255657D02*
X133844761Y-106160419D01*
X133844761Y-106160419D02*
X133892380Y-106112800D01*
X133892380Y-106112800D02*
X133987618Y-106065180D01*
X133987618Y-106065180D02*
X134273332Y-106065180D01*
X134273332Y-106065180D02*
X134368570Y-106112800D01*
X134368570Y-106112800D02*
X134416189Y-106160419D01*
X189420952Y-132559580D02*
X189373333Y-132607200D01*
X189373333Y-132607200D02*
X189230476Y-132654819D01*
X189230476Y-132654819D02*
X189135238Y-132654819D01*
X189135238Y-132654819D02*
X188992381Y-132607200D01*
X188992381Y-132607200D02*
X188897143Y-132511961D01*
X188897143Y-132511961D02*
X188849524Y-132416723D01*
X188849524Y-132416723D02*
X188801905Y-132226247D01*
X188801905Y-132226247D02*
X188801905Y-132083390D01*
X188801905Y-132083390D02*
X188849524Y-131892914D01*
X188849524Y-131892914D02*
X188897143Y-131797676D01*
X188897143Y-131797676D02*
X188992381Y-131702438D01*
X188992381Y-131702438D02*
X189135238Y-131654819D01*
X189135238Y-131654819D02*
X189230476Y-131654819D01*
X189230476Y-131654819D02*
X189373333Y-131702438D01*
X189373333Y-131702438D02*
X189420952Y-131750057D01*
X190278095Y-131988152D02*
X190278095Y-132654819D01*
X190040000Y-131607200D02*
X189801905Y-132321485D01*
X189801905Y-132321485D02*
X190420952Y-132321485D01*
X190706667Y-131654819D02*
X191325714Y-131654819D01*
X191325714Y-131654819D02*
X190992381Y-132035771D01*
X190992381Y-132035771D02*
X191135238Y-132035771D01*
X191135238Y-132035771D02*
X191230476Y-132083390D01*
X191230476Y-132083390D02*
X191278095Y-132131009D01*
X191278095Y-132131009D02*
X191325714Y-132226247D01*
X191325714Y-132226247D02*
X191325714Y-132464342D01*
X191325714Y-132464342D02*
X191278095Y-132559580D01*
X191278095Y-132559580D02*
X191230476Y-132607200D01*
X191230476Y-132607200D02*
X191135238Y-132654819D01*
X191135238Y-132654819D02*
X190849524Y-132654819D01*
X190849524Y-132654819D02*
X190754286Y-132607200D01*
X190754286Y-132607200D02*
X190706667Y-132559580D01*
X191801905Y-132654819D02*
X191992381Y-132654819D01*
X191992381Y-132654819D02*
X192087619Y-132607200D01*
X192087619Y-132607200D02*
X192135238Y-132559580D01*
X192135238Y-132559580D02*
X192230476Y-132416723D01*
X192230476Y-132416723D02*
X192278095Y-132226247D01*
X192278095Y-132226247D02*
X192278095Y-131845295D01*
X192278095Y-131845295D02*
X192230476Y-131750057D01*
X192230476Y-131750057D02*
X192182857Y-131702438D01*
X192182857Y-131702438D02*
X192087619Y-131654819D01*
X192087619Y-131654819D02*
X191897143Y-131654819D01*
X191897143Y-131654819D02*
X191801905Y-131702438D01*
X191801905Y-131702438D02*
X191754286Y-131750057D01*
X191754286Y-131750057D02*
X191706667Y-131845295D01*
X191706667Y-131845295D02*
X191706667Y-132083390D01*
X191706667Y-132083390D02*
X191754286Y-132178628D01*
X191754286Y-132178628D02*
X191801905Y-132226247D01*
X191801905Y-132226247D02*
X191897143Y-132273866D01*
X191897143Y-132273866D02*
X192087619Y-132273866D01*
X192087619Y-132273866D02*
X192182857Y-132226247D01*
X192182857Y-132226247D02*
X192230476Y-132178628D01*
X192230476Y-132178628D02*
X192278095Y-132083390D01*
X113220952Y-106599580D02*
X113173333Y-106647200D01*
X113173333Y-106647200D02*
X113030476Y-106694819D01*
X113030476Y-106694819D02*
X112935238Y-106694819D01*
X112935238Y-106694819D02*
X112792381Y-106647200D01*
X112792381Y-106647200D02*
X112697143Y-106551961D01*
X112697143Y-106551961D02*
X112649524Y-106456723D01*
X112649524Y-106456723D02*
X112601905Y-106266247D01*
X112601905Y-106266247D02*
X112601905Y-106123390D01*
X112601905Y-106123390D02*
X112649524Y-105932914D01*
X112649524Y-105932914D02*
X112697143Y-105837676D01*
X112697143Y-105837676D02*
X112792381Y-105742438D01*
X112792381Y-105742438D02*
X112935238Y-105694819D01*
X112935238Y-105694819D02*
X113030476Y-105694819D01*
X113030476Y-105694819D02*
X113173333Y-105742438D01*
X113173333Y-105742438D02*
X113220952Y-105790057D01*
X114078095Y-106028152D02*
X114078095Y-106694819D01*
X113840000Y-105647200D02*
X113601905Y-106361485D01*
X113601905Y-106361485D02*
X114220952Y-106361485D01*
X114554286Y-105790057D02*
X114601905Y-105742438D01*
X114601905Y-105742438D02*
X114697143Y-105694819D01*
X114697143Y-105694819D02*
X114935238Y-105694819D01*
X114935238Y-105694819D02*
X115030476Y-105742438D01*
X115030476Y-105742438D02*
X115078095Y-105790057D01*
X115078095Y-105790057D02*
X115125714Y-105885295D01*
X115125714Y-105885295D02*
X115125714Y-105980533D01*
X115125714Y-105980533D02*
X115078095Y-106123390D01*
X115078095Y-106123390D02*
X114506667Y-106694819D01*
X114506667Y-106694819D02*
X115125714Y-106694819D01*
X115601905Y-106694819D02*
X115792381Y-106694819D01*
X115792381Y-106694819D02*
X115887619Y-106647200D01*
X115887619Y-106647200D02*
X115935238Y-106599580D01*
X115935238Y-106599580D02*
X116030476Y-106456723D01*
X116030476Y-106456723D02*
X116078095Y-106266247D01*
X116078095Y-106266247D02*
X116078095Y-105885295D01*
X116078095Y-105885295D02*
X116030476Y-105790057D01*
X116030476Y-105790057D02*
X115982857Y-105742438D01*
X115982857Y-105742438D02*
X115887619Y-105694819D01*
X115887619Y-105694819D02*
X115697143Y-105694819D01*
X115697143Y-105694819D02*
X115601905Y-105742438D01*
X115601905Y-105742438D02*
X115554286Y-105790057D01*
X115554286Y-105790057D02*
X115506667Y-105885295D01*
X115506667Y-105885295D02*
X115506667Y-106123390D01*
X115506667Y-106123390D02*
X115554286Y-106218628D01*
X115554286Y-106218628D02*
X115601905Y-106266247D01*
X115601905Y-106266247D02*
X115697143Y-106313866D01*
X115697143Y-106313866D02*
X115887619Y-106313866D01*
X115887619Y-106313866D02*
X115982857Y-106266247D01*
X115982857Y-106266247D02*
X116030476Y-106218628D01*
X116030476Y-106218628D02*
X116078095Y-106123390D01*
X164740952Y-119934819D02*
X164264762Y-119934819D01*
X164264762Y-119934819D02*
X164264762Y-118934819D01*
X165502857Y-119268152D02*
X165502857Y-119934819D01*
X165264762Y-118887200D02*
X165026667Y-119601485D01*
X165026667Y-119601485D02*
X165645714Y-119601485D01*
X166217143Y-118934819D02*
X166312381Y-118934819D01*
X166312381Y-118934819D02*
X166407619Y-118982438D01*
X166407619Y-118982438D02*
X166455238Y-119030057D01*
X166455238Y-119030057D02*
X166502857Y-119125295D01*
X166502857Y-119125295D02*
X166550476Y-119315771D01*
X166550476Y-119315771D02*
X166550476Y-119553866D01*
X166550476Y-119553866D02*
X166502857Y-119744342D01*
X166502857Y-119744342D02*
X166455238Y-119839580D01*
X166455238Y-119839580D02*
X166407619Y-119887200D01*
X166407619Y-119887200D02*
X166312381Y-119934819D01*
X166312381Y-119934819D02*
X166217143Y-119934819D01*
X166217143Y-119934819D02*
X166121905Y-119887200D01*
X166121905Y-119887200D02*
X166074286Y-119839580D01*
X166074286Y-119839580D02*
X166026667Y-119744342D01*
X166026667Y-119744342D02*
X165979048Y-119553866D01*
X165979048Y-119553866D02*
X165979048Y-119315771D01*
X165979048Y-119315771D02*
X166026667Y-119125295D01*
X166026667Y-119125295D02*
X166074286Y-119030057D01*
X166074286Y-119030057D02*
X166121905Y-118982438D01*
X166121905Y-118982438D02*
X166217143Y-118934819D01*
X167407619Y-118934819D02*
X167217143Y-118934819D01*
X167217143Y-118934819D02*
X167121905Y-118982438D01*
X167121905Y-118982438D02*
X167074286Y-119030057D01*
X167074286Y-119030057D02*
X166979048Y-119172914D01*
X166979048Y-119172914D02*
X166931429Y-119363390D01*
X166931429Y-119363390D02*
X166931429Y-119744342D01*
X166931429Y-119744342D02*
X166979048Y-119839580D01*
X166979048Y-119839580D02*
X167026667Y-119887200D01*
X167026667Y-119887200D02*
X167121905Y-119934819D01*
X167121905Y-119934819D02*
X167312381Y-119934819D01*
X167312381Y-119934819D02*
X167407619Y-119887200D01*
X167407619Y-119887200D02*
X167455238Y-119839580D01*
X167455238Y-119839580D02*
X167502857Y-119744342D01*
X167502857Y-119744342D02*
X167502857Y-119506247D01*
X167502857Y-119506247D02*
X167455238Y-119411009D01*
X167455238Y-119411009D02*
X167407619Y-119363390D01*
X167407619Y-119363390D02*
X167312381Y-119315771D01*
X167312381Y-119315771D02*
X167121905Y-119315771D01*
X167121905Y-119315771D02*
X167026667Y-119363390D01*
X167026667Y-119363390D02*
X166979048Y-119411009D01*
X166979048Y-119411009D02*
X166931429Y-119506247D01*
X190080952Y-107259580D02*
X190033333Y-107307200D01*
X190033333Y-107307200D02*
X189890476Y-107354819D01*
X189890476Y-107354819D02*
X189795238Y-107354819D01*
X189795238Y-107354819D02*
X189652381Y-107307200D01*
X189652381Y-107307200D02*
X189557143Y-107211961D01*
X189557143Y-107211961D02*
X189509524Y-107116723D01*
X189509524Y-107116723D02*
X189461905Y-106926247D01*
X189461905Y-106926247D02*
X189461905Y-106783390D01*
X189461905Y-106783390D02*
X189509524Y-106592914D01*
X189509524Y-106592914D02*
X189557143Y-106497676D01*
X189557143Y-106497676D02*
X189652381Y-106402438D01*
X189652381Y-106402438D02*
X189795238Y-106354819D01*
X189795238Y-106354819D02*
X189890476Y-106354819D01*
X189890476Y-106354819D02*
X190033333Y-106402438D01*
X190033333Y-106402438D02*
X190080952Y-106450057D01*
X190938095Y-106688152D02*
X190938095Y-107354819D01*
X190700000Y-106307200D02*
X190461905Y-107021485D01*
X190461905Y-107021485D02*
X191080952Y-107021485D01*
X191890476Y-106688152D02*
X191890476Y-107354819D01*
X191652381Y-106307200D02*
X191414286Y-107021485D01*
X191414286Y-107021485D02*
X192033333Y-107021485D01*
X192842857Y-106688152D02*
X192842857Y-107354819D01*
X192604762Y-106307200D02*
X192366667Y-107021485D01*
X192366667Y-107021485D02*
X192985714Y-107021485D01*
X115424819Y-65185714D02*
X116139104Y-65185714D01*
X116139104Y-65185714D02*
X116281961Y-65233333D01*
X116281961Y-65233333D02*
X116377200Y-65328571D01*
X116377200Y-65328571D02*
X116424819Y-65471428D01*
X116424819Y-65471428D02*
X116424819Y-65566666D01*
X115758152Y-64280952D02*
X116424819Y-64280952D01*
X115377200Y-64519047D02*
X116091485Y-64757142D01*
X116091485Y-64757142D02*
X116091485Y-64138095D01*
X115424819Y-63566666D02*
X115424819Y-63471428D01*
X115424819Y-63471428D02*
X115472438Y-63376190D01*
X115472438Y-63376190D02*
X115520057Y-63328571D01*
X115520057Y-63328571D02*
X115615295Y-63280952D01*
X115615295Y-63280952D02*
X115805771Y-63233333D01*
X115805771Y-63233333D02*
X116043866Y-63233333D01*
X116043866Y-63233333D02*
X116234342Y-63280952D01*
X116234342Y-63280952D02*
X116329580Y-63328571D01*
X116329580Y-63328571D02*
X116377200Y-63376190D01*
X116377200Y-63376190D02*
X116424819Y-63471428D01*
X116424819Y-63471428D02*
X116424819Y-63566666D01*
X116424819Y-63566666D02*
X116377200Y-63661904D01*
X116377200Y-63661904D02*
X116329580Y-63709523D01*
X116329580Y-63709523D02*
X116234342Y-63757142D01*
X116234342Y-63757142D02*
X116043866Y-63804761D01*
X116043866Y-63804761D02*
X115805771Y-63804761D01*
X115805771Y-63804761D02*
X115615295Y-63757142D01*
X115615295Y-63757142D02*
X115520057Y-63709523D01*
X115520057Y-63709523D02*
X115472438Y-63661904D01*
X115472438Y-63661904D02*
X115424819Y-63566666D01*
X115758152Y-62376190D02*
X116424819Y-62376190D01*
X115377200Y-62614285D02*
X116091485Y-62852380D01*
X116091485Y-62852380D02*
X116091485Y-62233333D01*
X165440952Y-149234819D02*
X164964762Y-149234819D01*
X164964762Y-149234819D02*
X164964762Y-148234819D01*
X166202857Y-148568152D02*
X166202857Y-149234819D01*
X165964762Y-148187200D02*
X165726667Y-148901485D01*
X165726667Y-148901485D02*
X166345714Y-148901485D01*
X166917143Y-148234819D02*
X167012381Y-148234819D01*
X167012381Y-148234819D02*
X167107619Y-148282438D01*
X167107619Y-148282438D02*
X167155238Y-148330057D01*
X167155238Y-148330057D02*
X167202857Y-148425295D01*
X167202857Y-148425295D02*
X167250476Y-148615771D01*
X167250476Y-148615771D02*
X167250476Y-148853866D01*
X167250476Y-148853866D02*
X167202857Y-149044342D01*
X167202857Y-149044342D02*
X167155238Y-149139580D01*
X167155238Y-149139580D02*
X167107619Y-149187200D01*
X167107619Y-149187200D02*
X167012381Y-149234819D01*
X167012381Y-149234819D02*
X166917143Y-149234819D01*
X166917143Y-149234819D02*
X166821905Y-149187200D01*
X166821905Y-149187200D02*
X166774286Y-149139580D01*
X166774286Y-149139580D02*
X166726667Y-149044342D01*
X166726667Y-149044342D02*
X166679048Y-148853866D01*
X166679048Y-148853866D02*
X166679048Y-148615771D01*
X166679048Y-148615771D02*
X166726667Y-148425295D01*
X166726667Y-148425295D02*
X166774286Y-148330057D01*
X166774286Y-148330057D02*
X166821905Y-148282438D01*
X166821905Y-148282438D02*
X166917143Y-148234819D01*
X168155238Y-148234819D02*
X167679048Y-148234819D01*
X167679048Y-148234819D02*
X167631429Y-148711009D01*
X167631429Y-148711009D02*
X167679048Y-148663390D01*
X167679048Y-148663390D02*
X167774286Y-148615771D01*
X167774286Y-148615771D02*
X168012381Y-148615771D01*
X168012381Y-148615771D02*
X168107619Y-148663390D01*
X168107619Y-148663390D02*
X168155238Y-148711009D01*
X168155238Y-148711009D02*
X168202857Y-148806247D01*
X168202857Y-148806247D02*
X168202857Y-149044342D01*
X168202857Y-149044342D02*
X168155238Y-149139580D01*
X168155238Y-149139580D02*
X168107619Y-149187200D01*
X168107619Y-149187200D02*
X168012381Y-149234819D01*
X168012381Y-149234819D02*
X167774286Y-149234819D01*
X167774286Y-149234819D02*
X167679048Y-149187200D01*
X167679048Y-149187200D02*
X167631429Y-149139580D01*
X136759047Y-135765180D02*
X137235237Y-135765180D01*
X137235237Y-135765180D02*
X137235237Y-136765180D01*
X135997142Y-136431847D02*
X135997142Y-135765180D01*
X136235237Y-136812800D02*
X136473332Y-136098514D01*
X136473332Y-136098514D02*
X135854285Y-136098514D01*
X135282856Y-136765180D02*
X135187618Y-136765180D01*
X135187618Y-136765180D02*
X135092380Y-136717561D01*
X135092380Y-136717561D02*
X135044761Y-136669942D01*
X135044761Y-136669942D02*
X134997142Y-136574704D01*
X134997142Y-136574704D02*
X134949523Y-136384228D01*
X134949523Y-136384228D02*
X134949523Y-136146133D01*
X134949523Y-136146133D02*
X134997142Y-135955657D01*
X134997142Y-135955657D02*
X135044761Y-135860419D01*
X135044761Y-135860419D02*
X135092380Y-135812800D01*
X135092380Y-135812800D02*
X135187618Y-135765180D01*
X135187618Y-135765180D02*
X135282856Y-135765180D01*
X135282856Y-135765180D02*
X135378094Y-135812800D01*
X135378094Y-135812800D02*
X135425713Y-135860419D01*
X135425713Y-135860419D02*
X135473332Y-135955657D01*
X135473332Y-135955657D02*
X135520951Y-136146133D01*
X135520951Y-136146133D02*
X135520951Y-136384228D01*
X135520951Y-136384228D02*
X135473332Y-136574704D01*
X135473332Y-136574704D02*
X135425713Y-136669942D01*
X135425713Y-136669942D02*
X135378094Y-136717561D01*
X135378094Y-136717561D02*
X135282856Y-136765180D01*
X134092380Y-136431847D02*
X134092380Y-135765180D01*
X134330475Y-136812800D02*
X134568570Y-136098514D01*
X134568570Y-136098514D02*
X133949523Y-136098514D01*
X113450952Y-132099580D02*
X113403333Y-132147200D01*
X113403333Y-132147200D02*
X113260476Y-132194819D01*
X113260476Y-132194819D02*
X113165238Y-132194819D01*
X113165238Y-132194819D02*
X113022381Y-132147200D01*
X113022381Y-132147200D02*
X112927143Y-132051961D01*
X112927143Y-132051961D02*
X112879524Y-131956723D01*
X112879524Y-131956723D02*
X112831905Y-131766247D01*
X112831905Y-131766247D02*
X112831905Y-131623390D01*
X112831905Y-131623390D02*
X112879524Y-131432914D01*
X112879524Y-131432914D02*
X112927143Y-131337676D01*
X112927143Y-131337676D02*
X113022381Y-131242438D01*
X113022381Y-131242438D02*
X113165238Y-131194819D01*
X113165238Y-131194819D02*
X113260476Y-131194819D01*
X113260476Y-131194819D02*
X113403333Y-131242438D01*
X113403333Y-131242438D02*
X113450952Y-131290057D01*
X114308095Y-131528152D02*
X114308095Y-132194819D01*
X114070000Y-131147200D02*
X113831905Y-131861485D01*
X113831905Y-131861485D02*
X114450952Y-131861485D01*
X114736667Y-131194819D02*
X115355714Y-131194819D01*
X115355714Y-131194819D02*
X115022381Y-131575771D01*
X115022381Y-131575771D02*
X115165238Y-131575771D01*
X115165238Y-131575771D02*
X115260476Y-131623390D01*
X115260476Y-131623390D02*
X115308095Y-131671009D01*
X115308095Y-131671009D02*
X115355714Y-131766247D01*
X115355714Y-131766247D02*
X115355714Y-132004342D01*
X115355714Y-132004342D02*
X115308095Y-132099580D01*
X115308095Y-132099580D02*
X115260476Y-132147200D01*
X115260476Y-132147200D02*
X115165238Y-132194819D01*
X115165238Y-132194819D02*
X114879524Y-132194819D01*
X114879524Y-132194819D02*
X114784286Y-132147200D01*
X114784286Y-132147200D02*
X114736667Y-132099580D01*
X116212857Y-131528152D02*
X116212857Y-132194819D01*
X115974762Y-131147200D02*
X115736667Y-131861485D01*
X115736667Y-131861485D02*
X116355714Y-131861485D01*
D11*
%TO.C,L401*%
X177200000Y-81800000D02*
X166800000Y-81800000D01*
X177200000Y-92200000D02*
X177200000Y-81800000D01*
X166800000Y-92200000D02*
X166800000Y-81800000D01*
X177200000Y-92200000D02*
X166800000Y-92200000D01*
%TO.C,C439*%
X194290120Y-132710000D02*
G75*
G03*
X194290120Y-132710000I-3760120J0D01*
G01*
%TO.C,C429*%
X118090120Y-106750000D02*
G75*
G03*
X118090120Y-106750000I-3760120J0D01*
G01*
%TO.C,C444*%
X194950120Y-107410000D02*
G75*
G03*
X194950120Y-107410000I-3760120J0D01*
G01*
%TO.C,J404*%
X119570000Y-65230000D02*
X119570000Y-62570000D01*
X119570000Y-62570000D02*
X132330000Y-62570000D01*
X116970000Y-65230000D02*
X116970000Y-63900000D01*
X132330000Y-65230000D02*
X132330000Y-62570000D01*
X119570000Y-65230000D02*
X132330000Y-65230000D01*
X118300000Y-65230000D02*
X116970000Y-65230000D01*
%TO.C,C434*%
X118320120Y-132250000D02*
G75*
G03*
X118320120Y-132250000I-3760120J0D01*
G01*
%TD*%
%LPC*%
D12*
%TO.C,L401*%
X175810000Y-83190000D03*
X168190000Y-90810000D03*
%TD*%
D13*
%TO.C,L403*%
X127380000Y-113000000D03*
D14*
X126190489Y-120392058D03*
X143809511Y-105607942D03*
X126190489Y-105607942D03*
X140750000Y-103040708D03*
X136996954Y-101674711D03*
X146325289Y-114996954D03*
X143809511Y-120392058D03*
X124193535Y-116933232D03*
X144959292Y-107250000D03*
X133003046Y-101674711D03*
X146325289Y-111003046D03*
X127607942Y-104190489D03*
X127607942Y-121809511D03*
X131066768Y-102193535D03*
X129250000Y-122959292D03*
X123674711Y-111003046D03*
X138933232Y-102193535D03*
D13*
X135000000Y-103800000D03*
D14*
X142392058Y-104190489D03*
X129250000Y-103040708D03*
X140750000Y-122959292D03*
D15*
X135000000Y-124500000D03*
D14*
X145806465Y-109066768D03*
X138933232Y-123806465D03*
X131066768Y-123806465D03*
X145806465Y-116933232D03*
X125040708Y-118750000D03*
X142392058Y-121809511D03*
X124193535Y-109066768D03*
X144959292Y-118750000D03*
X125040708Y-107250000D03*
X133003046Y-124325289D03*
X136996954Y-124325289D03*
X123674711Y-114996954D03*
%TD*%
D16*
%TO.C,C439*%
X188000000Y-135240000D03*
X193070000Y-130160000D03*
X188000000Y-130160000D03*
%TD*%
%TO.C,C429*%
X111800000Y-109280000D03*
X116870000Y-104200000D03*
X111800000Y-104200000D03*
%TD*%
D13*
%TO.C,L406*%
X173920000Y-113000000D03*
D14*
X162366768Y-102193535D03*
X160550000Y-122959292D03*
X155493535Y-109066768D03*
X156340708Y-107250000D03*
D17*
X166300000Y-101500000D03*
D13*
X166300000Y-122200000D03*
D14*
X177106465Y-116933232D03*
X175109511Y-120392058D03*
X164303046Y-101674711D03*
X176259292Y-107250000D03*
X156340708Y-118750000D03*
X176259292Y-118750000D03*
X173692058Y-104190489D03*
X158907942Y-104190489D03*
X172050000Y-122959292D03*
X168296954Y-101674711D03*
X157490489Y-120392058D03*
X172050000Y-103040708D03*
X173692058Y-121809511D03*
X160550000Y-103040708D03*
X177106465Y-109066768D03*
X154974711Y-111003046D03*
X168296954Y-124325289D03*
X154974711Y-114996954D03*
X175109511Y-105607942D03*
X170233232Y-102193535D03*
X162366768Y-123806465D03*
X177625289Y-111003046D03*
X177625289Y-114996954D03*
X155493535Y-116933232D03*
X164303046Y-124325289D03*
X157490489Y-105607942D03*
X158907942Y-121809511D03*
X170233232Y-123806465D03*
%TD*%
D16*
%TO.C,C444*%
X193730000Y-104860000D03*
X188660000Y-109940000D03*
X188660000Y-104860000D03*
%TD*%
D18*
%TO.C,J404*%
X118300000Y-63900000D03*
D19*
X120840000Y-63900000D03*
X123380000Y-63900000D03*
X125920000Y-63900000D03*
X128460000Y-63900000D03*
X131000000Y-63900000D03*
%TD*%
D13*
%TO.C,L405*%
X174620000Y-142300000D03*
D14*
X168996954Y-130974711D03*
X176959292Y-148050000D03*
X175809511Y-134907942D03*
X161250000Y-152259292D03*
X178325289Y-144296954D03*
X156193535Y-138366768D03*
X176959292Y-136550000D03*
X177806465Y-138366768D03*
X155674711Y-140303046D03*
X172750000Y-132340708D03*
X159607942Y-151109511D03*
X174392058Y-133490489D03*
D13*
X167000000Y-151500000D03*
D14*
X158190489Y-149692058D03*
X170933232Y-153106465D03*
D17*
X167000000Y-130800000D03*
D14*
X175809511Y-149692058D03*
X155674711Y-144296954D03*
X157040708Y-148050000D03*
X161250000Y-132340708D03*
X158190489Y-134907942D03*
X165003046Y-130974711D03*
X178325289Y-140303046D03*
X159607942Y-133490489D03*
X174392058Y-151109511D03*
X170933232Y-131493535D03*
X177806465Y-146233232D03*
X156193535Y-146233232D03*
X168996954Y-153625289D03*
X163066768Y-131493535D03*
X165003046Y-153625289D03*
X157040708Y-136550000D03*
X172750000Y-152259292D03*
X163066768Y-153106465D03*
%TD*%
D13*
%TO.C,L404*%
X127580000Y-142700000D03*
D14*
X124393535Y-138766768D03*
X146006465Y-146633232D03*
X146525289Y-144696954D03*
X131266768Y-153506465D03*
X129450000Y-152659292D03*
X145159292Y-136950000D03*
X124393535Y-146633232D03*
X127807942Y-151509511D03*
X144009511Y-150092058D03*
X127807942Y-133890489D03*
D13*
X135200000Y-133500000D03*
D14*
X125240708Y-148450000D03*
X139133232Y-131893535D03*
X133203046Y-154025289D03*
X146525289Y-140703046D03*
X123874711Y-140703046D03*
X140950000Y-152659292D03*
X142592058Y-151509511D03*
D15*
X135200000Y-154200000D03*
D14*
X145159292Y-148450000D03*
X131266768Y-131893535D03*
X133203046Y-131374711D03*
X129450000Y-132740708D03*
X137196954Y-131374711D03*
X126390489Y-150092058D03*
X139133232Y-153506465D03*
X126390489Y-135307942D03*
X140950000Y-132740708D03*
X125240708Y-136950000D03*
X137196954Y-154025289D03*
X142592058Y-133890489D03*
X123874711Y-144696954D03*
X146006465Y-138766768D03*
X144009511Y-135307942D03*
%TD*%
D16*
%TO.C,C434*%
X112030000Y-134780000D03*
X117100000Y-129700000D03*
X112030000Y-129700000D03*
%TD*%
D20*
%TO.C,J405*%
X193000000Y-151000000D03*
X193000000Y-65000000D03*
X107000000Y-151000000D03*
X107000000Y-65000000D03*
%TD*%
D21*
%TO.C,J407*%
X197337500Y-77825000D03*
X197337500Y-72175000D03*
%TD*%
%TO.C,J401*%
X102200000Y-91575000D03*
X102200000Y-97225000D03*
%TD*%
%TO.C,J403*%
X102582500Y-77755000D03*
X102582500Y-72105000D03*
%TD*%
%TO.C,J406*%
X197337500Y-91155000D03*
X197337500Y-96805000D03*
%TD*%
%TO.C,J402*%
X102200000Y-116825000D03*
X102200000Y-111175000D03*
%TD*%
%LPD*%
M02*
