%TF.GenerationSoftware,KiCad,Pcbnew,7.0.7*%
%TF.CreationDate,2023-11-03T16:15:28+00:00*%
%TF.ProjectId,RXLNA,52584c4e-412e-46b6-9963-61645f706362,rev?*%
%TF.SameCoordinates,Original*%
%TF.FileFunction,Soldermask,Top*%
%TF.FilePolarity,Negative*%
%FSLAX46Y46*%
G04 Gerber Fmt 4.6, Leading zero omitted, Abs format (unit mm)*
G04 Created by KiCad (PCBNEW 7.0.7) date 2023-11-03 16:15:28*
%MOMM*%
%LPD*%
G01*
G04 APERTURE LIST*
G04 Aperture macros list*
%AMFreePoly0*
4,1,217,1.073531,1.455598,1.785596,1.376787,2.492238,1.258869,3.191311,1.102203,3.880693,0.907265,4.558288,0.674646,5.222041,0.405053,5.869934,0.099305,6.500000,-0.241670,7.110326,-0.616836,7.699058,-1.025054,8.264409,-1.465084,8.804660,-1.935589,9.318173,-2.435142,9.803386,-2.962224,10.258827,-3.515235,10.683112,-4.092495,11.074952,-4.692252,11.433159,-5.312684,11.756643,-5.951906,
12.044423,-6.607978,12.295624,-7.278907,12.509484,-7.962655,12.685353,-8.657146,12.822697,-9.360270,12.921099,-10.069893,12.980260,-10.783859,13.000000,-11.500000,12.980260,-12.216141,12.921099,-12.930107,12.822697,-13.639730,12.685353,-14.342854,12.509484,-15.037345,12.295624,-15.721093,12.044423,-16.392022,11.756643,-17.048094,11.433159,-17.687316,11.074952,-18.307748,10.683112,-18.907505,10.258827,-19.484765,
9.803386,-20.037776,9.318173,-20.564858,8.804660,-21.064411,8.264409,-21.534916,7.699058,-21.974946,7.110326,-22.383164,6.500000,-22.758330,5.869934,-23.099305,5.222041,-23.405053,4.558288,-23.674646,3.880693,-23.907265,3.191311,-24.102203,2.492238,-24.258869,1.785596,-24.376787,1.073531,-24.455598,0.358206,-24.495064,-0.358206,-24.495064,-1.073531,-24.455598,-1.785596,-24.376787,-2.492238,-24.258869,
-3.191311,-24.102203,-3.880693,-23.907265,-4.558288,-23.674646,-5.222041,-23.405053,-5.869934,-23.099305,-6.500000,-22.758330,-7.110326,-22.383164,-7.699058,-21.974946,-8.264409,-21.534916,-8.804660,-21.064411,-9.318173,-20.564858,-9.803386,-20.037776,-10.258827,-19.484765,-10.683112,-18.907505,-11.074952,-18.307748,-11.433159,-17.687316,-11.756643,-17.048094,-12.044423,-16.392022,-12.295624,-15.721093,-12.509484,-15.037345,
-12.685353,-14.342854,-12.822697,-13.639730,-12.921099,-12.930107,-12.980260,-12.216141,-13.000000,-11.500000,-10.004937,-11.500000,-9.985195,-12.128215,-9.926045,-12.753951,-9.827722,-13.374738,-9.690614,-13.988127,-9.515261,-14.591696,-9.302355,-15.183063,-9.052738,-15.759895,-8.767393,-16.319915,-8.447448,-16.860913,-8.094164,-17.380754,-7.708936,-17.877387,-7.293285,-18.348851,-6.848851,-18.793285,-6.377387,-19.208936,
-5.880754,-19.594164,-5.360913,-19.947448,-4.819915,-20.267393,-4.259895,-20.552738,-3.683063,-20.802355,-3.091696,-21.015261,-2.488127,-21.190614,-1.874738,-21.327722,-1.253951,-21.426045,-0.628215,-21.485195,0.000000,-21.504937,0.628215,-21.485195,1.253951,-21.426045,1.874738,-21.327722,2.488127,-21.190614,3.091696,-21.015261,3.683063,-20.802355,4.259895,-20.552738,4.819915,-20.267393,5.360913,-19.947448,
5.880754,-19.594164,6.377387,-19.208936,6.848851,-18.793285,7.293285,-18.348851,7.708936,-17.877387,8.094164,-17.380754,8.447448,-16.860913,8.767393,-16.319915,9.052738,-15.759895,9.302355,-15.183063,9.515261,-14.591696,9.690614,-13.988127,9.827722,-13.374738,9.926045,-12.753951,9.985195,-12.128215,10.004937,-11.500000,9.985195,-10.871785,9.926045,-10.246049,9.827722,-9.625262,9.690614,-9.011873,
9.515261,-8.408304,9.302355,-7.816937,9.052738,-7.240105,8.767393,-6.680085,8.447448,-6.139087,8.094164,-5.619246,7.708936,-5.122613,7.293285,-4.651149,6.848851,-4.206715,6.377387,-3.791064,5.880754,-3.405836,5.360913,-3.052552,4.819915,-2.732607,4.259895,-2.447262,3.683063,-2.197645,3.091696,-1.984739,2.488127,-1.809386,1.874738,-1.672278,1.253951,-1.573955,0.628215,-1.514805,
0.000000,-1.495063,-0.628215,-1.514805,-1.253951,-1.573955,-1.874738,-1.672278,-2.488127,-1.809386,-3.091696,-1.984739,-3.683063,-2.197645,-4.259895,-2.447262,-4.819915,-2.732607,-5.360913,-3.052552,-5.880754,-3.405836,-6.377387,-3.791064,-6.848851,-4.206715,-7.293285,-4.651149,-7.708936,-5.122613,-8.094164,-5.619246,-8.447448,-6.139087,-8.767393,-6.680085,-9.052738,-7.240105,-9.302355,-7.816937,
-9.515261,-8.408304,-9.690614,-9.011873,-9.827722,-9.625262,-9.926045,-10.246049,-9.985195,-10.871785,-10.004937,-11.500000,-13.000000,-11.500000,-12.980260,-10.783859,-12.921099,-10.069893,-12.822697,-9.360270,-12.685353,-8.657146,-12.509484,-7.962655,-12.295624,-7.278907,-12.044423,-6.607978,-11.756643,-5.951906,-11.433159,-5.312684,-11.074952,-4.692252,-10.683112,-4.092495,-10.258827,-3.515235,-9.803386,-2.962224,
-9.318173,-2.435142,-8.804660,-1.935589,-8.264409,-1.465084,-7.699058,-1.025054,-7.110326,-0.616836,-6.500000,-0.241670,-5.869934,0.099305,-5.222041,0.405053,-4.558288,0.674646,-3.880693,0.907265,-3.191311,1.102203,-2.492238,1.258869,-1.785596,1.376787,-1.073531,1.455598,-0.358206,1.495064,0.358206,1.495064,1.073531,1.455598,1.073531,1.455598,$1*%
G04 Aperture macros list end*
%ADD10C,2.000000*%
%ADD11C,3.000000*%
%ADD12C,1.000000*%
%ADD13FreePoly0,180.000000*%
%ADD14C,2.500000*%
%ADD15FreePoly0,0.000000*%
%ADD16R,1.700000X1.700000*%
%ADD17O,1.700000X1.700000*%
%ADD18C,5.200000*%
%ADD19R,4.200000X1.350000*%
G04 APERTURE END LIST*
D10*
%TO.C,L401*%
X175810000Y-83190000D03*
X168190000Y-90810000D03*
%TD*%
D11*
%TO.C,L403*%
X127380000Y-113000000D03*
D12*
X126190489Y-120392058D03*
X143809511Y-105607942D03*
X126190489Y-105607942D03*
X140750000Y-103040708D03*
X136996954Y-101674711D03*
X146325289Y-114996954D03*
X143809511Y-120392058D03*
X124193535Y-116933232D03*
X144959292Y-107250000D03*
X133003046Y-101674711D03*
X146325289Y-111003046D03*
X127607942Y-104190489D03*
X127607942Y-121809511D03*
X131066768Y-102193535D03*
X129250000Y-122959292D03*
X123674711Y-111003046D03*
X138933232Y-102193535D03*
D11*
X135000000Y-103800000D03*
D12*
X142392058Y-104190489D03*
X129250000Y-103040708D03*
X140750000Y-122959292D03*
D13*
X135000000Y-124500000D03*
D12*
X145806465Y-109066768D03*
X138933232Y-123806465D03*
X131066768Y-123806465D03*
X145806465Y-116933232D03*
X125040708Y-118750000D03*
X142392058Y-121809511D03*
X124193535Y-109066768D03*
X144959292Y-118750000D03*
X125040708Y-107250000D03*
X133003046Y-124325289D03*
X136996954Y-124325289D03*
X123674711Y-114996954D03*
%TD*%
D14*
%TO.C,C439*%
X188000000Y-135240000D03*
X193070000Y-130160000D03*
X188000000Y-130160000D03*
%TD*%
%TO.C,C429*%
X111800000Y-109280000D03*
X116870000Y-104200000D03*
X111800000Y-104200000D03*
%TD*%
D11*
%TO.C,L406*%
X173920000Y-113000000D03*
D12*
X162366768Y-102193535D03*
X160550000Y-122959292D03*
X155493535Y-109066768D03*
X156340708Y-107250000D03*
D15*
X166300000Y-101500000D03*
D11*
X166300000Y-122200000D03*
D12*
X177106465Y-116933232D03*
X175109511Y-120392058D03*
X164303046Y-101674711D03*
X176259292Y-107250000D03*
X156340708Y-118750000D03*
X176259292Y-118750000D03*
X173692058Y-104190489D03*
X158907942Y-104190489D03*
X172050000Y-122959292D03*
X168296954Y-101674711D03*
X157490489Y-120392058D03*
X172050000Y-103040708D03*
X173692058Y-121809511D03*
X160550000Y-103040708D03*
X177106465Y-109066768D03*
X154974711Y-111003046D03*
X168296954Y-124325289D03*
X154974711Y-114996954D03*
X175109511Y-105607942D03*
X170233232Y-102193535D03*
X162366768Y-123806465D03*
X177625289Y-111003046D03*
X177625289Y-114996954D03*
X155493535Y-116933232D03*
X164303046Y-124325289D03*
X157490489Y-105607942D03*
X158907942Y-121809511D03*
X170233232Y-123806465D03*
%TD*%
D14*
%TO.C,C444*%
X193730000Y-104860000D03*
X188660000Y-109940000D03*
X188660000Y-104860000D03*
%TD*%
D16*
%TO.C,J404*%
X118300000Y-63900000D03*
D17*
X120840000Y-63900000D03*
X123380000Y-63900000D03*
X125920000Y-63900000D03*
X128460000Y-63900000D03*
X131000000Y-63900000D03*
%TD*%
D11*
%TO.C,L405*%
X174620000Y-142300000D03*
D12*
X168996954Y-130974711D03*
X176959292Y-148050000D03*
X175809511Y-134907942D03*
X161250000Y-152259292D03*
X178325289Y-144296954D03*
X156193535Y-138366768D03*
X176959292Y-136550000D03*
X177806465Y-138366768D03*
X155674711Y-140303046D03*
X172750000Y-132340708D03*
X159607942Y-151109511D03*
X174392058Y-133490489D03*
D11*
X167000000Y-151500000D03*
D12*
X158190489Y-149692058D03*
X170933232Y-153106465D03*
D15*
X167000000Y-130800000D03*
D12*
X175809511Y-149692058D03*
X155674711Y-144296954D03*
X157040708Y-148050000D03*
X161250000Y-132340708D03*
X158190489Y-134907942D03*
X165003046Y-130974711D03*
X178325289Y-140303046D03*
X159607942Y-133490489D03*
X174392058Y-151109511D03*
X170933232Y-131493535D03*
X177806465Y-146233232D03*
X156193535Y-146233232D03*
X168996954Y-153625289D03*
X163066768Y-131493535D03*
X165003046Y-153625289D03*
X157040708Y-136550000D03*
X172750000Y-152259292D03*
X163066768Y-153106465D03*
%TD*%
D11*
%TO.C,L404*%
X127580000Y-142700000D03*
D12*
X124393535Y-138766768D03*
X146006465Y-146633232D03*
X146525289Y-144696954D03*
X131266768Y-153506465D03*
X129450000Y-152659292D03*
X145159292Y-136950000D03*
X124393535Y-146633232D03*
X127807942Y-151509511D03*
X144009511Y-150092058D03*
X127807942Y-133890489D03*
D11*
X135200000Y-133500000D03*
D12*
X125240708Y-148450000D03*
X139133232Y-131893535D03*
X133203046Y-154025289D03*
X146525289Y-140703046D03*
X123874711Y-140703046D03*
X140950000Y-152659292D03*
X142592058Y-151509511D03*
D13*
X135200000Y-154200000D03*
D12*
X145159292Y-148450000D03*
X131266768Y-131893535D03*
X133203046Y-131374711D03*
X129450000Y-132740708D03*
X137196954Y-131374711D03*
X126390489Y-150092058D03*
X139133232Y-153506465D03*
X126390489Y-135307942D03*
X140950000Y-132740708D03*
X125240708Y-136950000D03*
X137196954Y-154025289D03*
X142592058Y-133890489D03*
X123874711Y-144696954D03*
X146006465Y-138766768D03*
X144009511Y-135307942D03*
%TD*%
D14*
%TO.C,C434*%
X112030000Y-134780000D03*
X117100000Y-129700000D03*
X112030000Y-129700000D03*
%TD*%
D18*
%TO.C,J405*%
X193000000Y-151000000D03*
X193000000Y-65000000D03*
X107000000Y-151000000D03*
X107000000Y-65000000D03*
%TD*%
D19*
%TO.C,J407*%
X197337500Y-77825000D03*
X197337500Y-72175000D03*
%TD*%
%TO.C,J401*%
X102200000Y-91575000D03*
X102200000Y-97225000D03*
%TD*%
%TO.C,J403*%
X102582500Y-77755000D03*
X102582500Y-72105000D03*
%TD*%
%TO.C,J406*%
X197337500Y-91155000D03*
X197337500Y-96805000D03*
%TD*%
%TO.C,J402*%
X102200000Y-116825000D03*
X102200000Y-111175000D03*
%TD*%
M02*
