%TF.GenerationSoftware,KiCad,Pcbnew,7.0.7*%
%TF.CreationDate,2023-11-03T16:15:28+00:00*%
%TF.ProjectId,RXLNA,52584c4e-412e-46b6-9963-61645f706362,rev?*%
%TF.SameCoordinates,Original*%
%TF.FileFunction,Copper,L2,Inr*%
%TF.FilePolarity,Positive*%
%FSLAX46Y46*%
G04 Gerber Fmt 4.6, Leading zero omitted, Abs format (unit mm)*
G04 Created by KiCad (PCBNEW 7.0.7) date 2023-11-03 16:15:28*
%MOMM*%
%LPD*%
G01*
G04 APERTURE LIST*
%TA.AperFunction,ComponentPad*%
%ADD10C,2.000000*%
%TD*%
%TA.AperFunction,ComponentPad*%
%ADD11C,3.000000*%
%TD*%
%TA.AperFunction,ComponentPad*%
%ADD12C,1.000000*%
%TD*%
%TA.AperFunction,ComponentPad*%
%ADD13C,2.500000*%
%TD*%
%TA.AperFunction,ComponentPad*%
%ADD14R,1.700000X1.700000*%
%TD*%
%TA.AperFunction,ComponentPad*%
%ADD15O,1.700000X1.700000*%
%TD*%
%TA.AperFunction,ComponentPad*%
%ADD16C,5.200000*%
%TD*%
%TA.AperFunction,ViaPad*%
%ADD17C,0.800000*%
%TD*%
%TA.AperFunction,Conductor*%
%ADD18C,0.400000*%
%TD*%
%TA.AperFunction,Conductor*%
%ADD19C,0.200000*%
%TD*%
G04 APERTURE END LIST*
D10*
%TO.N,Net-(C416-Pad1)*%
%TO.C,L401*%
X175810000Y-83190000D03*
%TO.N,Net-(C418-Pad1)*%
X168190000Y-90810000D03*
%TD*%
D11*
%TO.N,Net-(C426-Pad1)*%
%TO.C,L403*%
X127380000Y-113000000D03*
D12*
%TO.N,GND*%
X126190489Y-120392058D03*
X143809511Y-105607942D03*
X126190489Y-105607942D03*
X140750000Y-103040708D03*
X136996954Y-101674711D03*
X146325289Y-114996954D03*
X143809511Y-120392058D03*
X124193535Y-116933232D03*
X144959292Y-107250000D03*
X133003046Y-101674711D03*
X146325289Y-111003046D03*
X127607942Y-104190489D03*
X127607942Y-121809511D03*
X131066768Y-102193535D03*
X129250000Y-122959292D03*
X123674711Y-111003046D03*
X138933232Y-102193535D03*
D11*
X135000000Y-103800000D03*
D12*
X142392058Y-104190489D03*
X129250000Y-103040708D03*
X140750000Y-122959292D03*
X145806465Y-109066768D03*
X138933232Y-123806465D03*
X131066768Y-123806465D03*
X145806465Y-116933232D03*
X125040708Y-118750000D03*
X142392058Y-121809511D03*
X124193535Y-109066768D03*
X144959292Y-118750000D03*
X125040708Y-107250000D03*
X133003046Y-124325289D03*
X136996954Y-124325289D03*
X123674711Y-114996954D03*
%TD*%
D13*
%TO.N,Net-(C438-Pad2)*%
%TO.C,C439*%
X188000000Y-135240000D03*
X193070000Y-130160000D03*
%TO.N,GND*%
X188000000Y-130160000D03*
%TD*%
%TO.N,Net-(C428-Pad2)*%
%TO.C,C429*%
X111800000Y-109280000D03*
X116870000Y-104200000D03*
%TO.N,GND*%
X111800000Y-104200000D03*
%TD*%
D11*
%TO.N,Net-(C441-Pad1)*%
%TO.C,L406*%
X173920000Y-113000000D03*
D12*
%TO.N,GND*%
X162366768Y-102193535D03*
X160550000Y-122959292D03*
X155493535Y-109066768D03*
X156340708Y-107250000D03*
D11*
X166300000Y-122200000D03*
D12*
X177106465Y-116933232D03*
X175109511Y-120392058D03*
X164303046Y-101674711D03*
X176259292Y-107250000D03*
X156340708Y-118750000D03*
X176259292Y-118750000D03*
X173692058Y-104190489D03*
X158907942Y-104190489D03*
X172050000Y-122959292D03*
X168296954Y-101674711D03*
X157490489Y-120392058D03*
X172050000Y-103040708D03*
X173692058Y-121809511D03*
X160550000Y-103040708D03*
X177106465Y-109066768D03*
X154974711Y-111003046D03*
X168296954Y-124325289D03*
X154974711Y-114996954D03*
X175109511Y-105607942D03*
X170233232Y-102193535D03*
X162366768Y-123806465D03*
X177625289Y-111003046D03*
X177625289Y-114996954D03*
X155493535Y-116933232D03*
X164303046Y-124325289D03*
X157490489Y-105607942D03*
X158907942Y-121809511D03*
X170233232Y-123806465D03*
%TD*%
D13*
%TO.N,Net-(C443-Pad2)*%
%TO.C,C444*%
X193730000Y-104860000D03*
X188660000Y-109940000D03*
%TO.N,GND*%
X188660000Y-104860000D03*
%TD*%
D14*
%TO.N,GND*%
%TO.C,J404*%
X118300000Y-63900000D03*
D15*
X120840000Y-63900000D03*
%TO.N,+12V*%
X123380000Y-63900000D03*
%TO.N,GND*%
X125920000Y-63900000D03*
%TO.N,/PIN Switch/SCL_Slave*%
X128460000Y-63900000D03*
%TO.N,/PIN Switch/SDA_Slave*%
X131000000Y-63900000D03*
%TD*%
D11*
%TO.N,Net-(C436-Pad1)*%
%TO.C,L405*%
X174620000Y-142300000D03*
D12*
%TO.N,GND*%
X168996954Y-130974711D03*
X176959292Y-148050000D03*
X175809511Y-134907942D03*
X161250000Y-152259292D03*
X178325289Y-144296954D03*
X156193535Y-138366768D03*
X176959292Y-136550000D03*
X177806465Y-138366768D03*
X155674711Y-140303046D03*
X172750000Y-132340708D03*
X159607942Y-151109511D03*
X174392058Y-133490489D03*
D11*
X167000000Y-151500000D03*
D12*
X158190489Y-149692058D03*
X170933232Y-153106465D03*
X175809511Y-149692058D03*
X155674711Y-144296954D03*
X157040708Y-148050000D03*
X161250000Y-132340708D03*
X158190489Y-134907942D03*
X165003046Y-130974711D03*
X178325289Y-140303046D03*
X159607942Y-133490489D03*
X174392058Y-151109511D03*
X170933232Y-131493535D03*
X177806465Y-146233232D03*
X156193535Y-146233232D03*
X168996954Y-153625289D03*
X163066768Y-131493535D03*
X165003046Y-153625289D03*
X157040708Y-136550000D03*
X172750000Y-152259292D03*
X163066768Y-153106465D03*
%TD*%
D11*
%TO.N,Net-(C431-Pad1)*%
%TO.C,L404*%
X127580000Y-142700000D03*
D12*
%TO.N,GND*%
X124393535Y-138766768D03*
X146006465Y-146633232D03*
X146525289Y-144696954D03*
X131266768Y-153506465D03*
X129450000Y-152659292D03*
X145159292Y-136950000D03*
X124393535Y-146633232D03*
X127807942Y-151509511D03*
X144009511Y-150092058D03*
X127807942Y-133890489D03*
D11*
X135200000Y-133500000D03*
D12*
X125240708Y-148450000D03*
X139133232Y-131893535D03*
X133203046Y-154025289D03*
X146525289Y-140703046D03*
X123874711Y-140703046D03*
X140950000Y-152659292D03*
X142592058Y-151509511D03*
X145159292Y-148450000D03*
X131266768Y-131893535D03*
X133203046Y-131374711D03*
X129450000Y-132740708D03*
X137196954Y-131374711D03*
X126390489Y-150092058D03*
X139133232Y-153506465D03*
X126390489Y-135307942D03*
X140950000Y-132740708D03*
X125240708Y-136950000D03*
X137196954Y-154025289D03*
X142592058Y-133890489D03*
X123874711Y-144696954D03*
X146006465Y-138766768D03*
X144009511Y-135307942D03*
%TD*%
D13*
%TO.N,Net-(C433-Pad2)*%
%TO.C,C434*%
X112030000Y-134780000D03*
X117100000Y-129700000D03*
%TO.N,GND*%
X112030000Y-129700000D03*
%TD*%
D16*
%TO.N,GND*%
%TO.C,J405*%
X193000000Y-151000000D03*
X193000000Y-65000000D03*
X107000000Y-151000000D03*
X107000000Y-65000000D03*
%TD*%
D17*
%TO.N,GND*%
X197000000Y-79000000D03*
X187000000Y-94715500D03*
X118110000Y-85090000D03*
X103000000Y-89000000D03*
X197880000Y-97790000D03*
X159890000Y-67210000D03*
X109220000Y-68580000D03*
X134005332Y-76994668D03*
X164970000Y-84170000D03*
X103000000Y-100000000D03*
X135890000Y-90170000D03*
X170180000Y-76200000D03*
X136000000Y-77875500D03*
X144000000Y-68000000D03*
X146600000Y-81000000D03*
X113030000Y-68580000D03*
X127000000Y-95000000D03*
X140000000Y-66000000D03*
X146000000Y-86000000D03*
X175205000Y-74350000D03*
X102000000Y-109000000D03*
X161290000Y-74930000D03*
X102000000Y-119000000D03*
X111000000Y-124290000D03*
X116840000Y-68600000D03*
X197930000Y-90170000D03*
X114000000Y-92000000D03*
X129000000Y-77000000D03*
X197000000Y-70000000D03*
X102870000Y-80000000D03*
X189230000Y-85090000D03*
X180000000Y-78000000D03*
X193000000Y-124000000D03*
X102870000Y-70000000D03*
X153000000Y-75000000D03*
%TO.N,/PIN Switch/SCL_Slave*%
X124000000Y-82000000D03*
%TO.N,/PIN Switch/SDA_Slave*%
X127000000Y-77000000D03*
%TO.N,LNA_N*%
X195000000Y-84000000D03*
X179000000Y-68000000D03*
X139628768Y-81628768D03*
%TO.N,LNA_P*%
X177000000Y-70000000D03*
X194000000Y-86000000D03*
X140371232Y-82371232D03*
%TD*%
D18*
%TO.N,/PIN Switch/SCL_Slave*%
X124000000Y-65810000D02*
X126550000Y-65810000D01*
X126550000Y-65810000D02*
X128460000Y-63900000D01*
X124000000Y-82000000D02*
X124000000Y-65810000D01*
%TO.N,/PIN Switch/SDA_Slave*%
X131000000Y-65000000D02*
X131000000Y-63900000D01*
X128350000Y-65650000D02*
X130350000Y-65650000D01*
X127000000Y-77000000D02*
X127000000Y-67000000D01*
X130350000Y-65650000D02*
X131000000Y-65000000D01*
X127000000Y-67000000D02*
X128350000Y-65650000D01*
D19*
%TO.N,LNA_N*%
X145906800Y-68775000D02*
X179775000Y-68775000D01*
X179000000Y-68000000D02*
X179775000Y-68775000D01*
X179775000Y-68775000D02*
X186093200Y-68775000D01*
X194225000Y-83225000D02*
X195000000Y-84000000D01*
X186093200Y-68775000D02*
X194225000Y-76906800D01*
X194225000Y-76906800D02*
X194225000Y-83225000D01*
X141775000Y-79906801D02*
X141775000Y-72906800D01*
X141775000Y-72906800D02*
X145906800Y-68775000D01*
X140053033Y-81628768D02*
X141775000Y-79906801D01*
X139628768Y-81628768D02*
X140053033Y-81628768D01*
%TO.N,LNA_P*%
X193775000Y-77093200D02*
X193775000Y-85775000D01*
X142225000Y-73093200D02*
X146093200Y-69225000D01*
X140371232Y-82371232D02*
X140371232Y-81946967D01*
X177000000Y-70000000D02*
X177000000Y-69450000D01*
X185906800Y-69225000D02*
X193775000Y-77093200D01*
X142225000Y-80093199D02*
X142225000Y-73093200D01*
X193775000Y-85775000D02*
X194000000Y-86000000D01*
X140371232Y-81946967D02*
X142225000Y-80093199D01*
X177225000Y-69225000D02*
X178225000Y-69225000D01*
X146093200Y-69225000D02*
X177225000Y-69225000D01*
X177000000Y-69450000D02*
X177225000Y-69225000D01*
X178225000Y-69225000D02*
X185906800Y-69225000D01*
%TD*%
M02*
