%TF.GenerationSoftware,KiCad,Pcbnew,7.0.7*%
%TF.CreationDate,2023-11-03T16:15:29+00:00*%
%TF.ProjectId,RXLNA,52584c4e-412e-46b6-9963-61645f706362,rev?*%
%TF.SameCoordinates,Original*%
%TF.FileFunction,Other,Comment*%
%FSLAX46Y46*%
G04 Gerber Fmt 4.6, Leading zero omitted, Abs format (unit mm)*
G04 Created by KiCad (PCBNEW 7.0.7) date 2023-11-03 16:15:29*
%MOMM*%
%LPD*%
G01*
G04 APERTURE LIST*
%ADD10C,0.150000*%
G04 APERTURE END LIST*
D10*
X201931009Y-84190476D02*
X201978628Y-84047619D01*
X201978628Y-84047619D02*
X202026247Y-84000000D01*
X202026247Y-84000000D02*
X202121485Y-83952381D01*
X202121485Y-83952381D02*
X202264342Y-83952381D01*
X202264342Y-83952381D02*
X202359580Y-84000000D01*
X202359580Y-84000000D02*
X202407200Y-84047619D01*
X202407200Y-84047619D02*
X202454819Y-84142857D01*
X202454819Y-84142857D02*
X202454819Y-84523809D01*
X202454819Y-84523809D02*
X201454819Y-84523809D01*
X201454819Y-84523809D02*
X201454819Y-84190476D01*
X201454819Y-84190476D02*
X201502438Y-84095238D01*
X201502438Y-84095238D02*
X201550057Y-84047619D01*
X201550057Y-84047619D02*
X201645295Y-84000000D01*
X201645295Y-84000000D02*
X201740533Y-84000000D01*
X201740533Y-84000000D02*
X201835771Y-84047619D01*
X201835771Y-84047619D02*
X201883390Y-84095238D01*
X201883390Y-84095238D02*
X201931009Y-84190476D01*
X201931009Y-84190476D02*
X201931009Y-84523809D01*
X202454819Y-83380952D02*
X202407200Y-83476190D01*
X202407200Y-83476190D02*
X202359580Y-83523809D01*
X202359580Y-83523809D02*
X202264342Y-83571428D01*
X202264342Y-83571428D02*
X201978628Y-83571428D01*
X201978628Y-83571428D02*
X201883390Y-83523809D01*
X201883390Y-83523809D02*
X201835771Y-83476190D01*
X201835771Y-83476190D02*
X201788152Y-83380952D01*
X201788152Y-83380952D02*
X201788152Y-83238095D01*
X201788152Y-83238095D02*
X201835771Y-83142857D01*
X201835771Y-83142857D02*
X201883390Y-83095238D01*
X201883390Y-83095238D02*
X201978628Y-83047619D01*
X201978628Y-83047619D02*
X202264342Y-83047619D01*
X202264342Y-83047619D02*
X202359580Y-83095238D01*
X202359580Y-83095238D02*
X202407200Y-83142857D01*
X202407200Y-83142857D02*
X202454819Y-83238095D01*
X202454819Y-83238095D02*
X202454819Y-83380952D01*
X202454819Y-82190476D02*
X201931009Y-82190476D01*
X201931009Y-82190476D02*
X201835771Y-82238095D01*
X201835771Y-82238095D02*
X201788152Y-82333333D01*
X201788152Y-82333333D02*
X201788152Y-82523809D01*
X201788152Y-82523809D02*
X201835771Y-82619047D01*
X202407200Y-82190476D02*
X202454819Y-82285714D01*
X202454819Y-82285714D02*
X202454819Y-82523809D01*
X202454819Y-82523809D02*
X202407200Y-82619047D01*
X202407200Y-82619047D02*
X202311961Y-82666666D01*
X202311961Y-82666666D02*
X202216723Y-82666666D01*
X202216723Y-82666666D02*
X202121485Y-82619047D01*
X202121485Y-82619047D02*
X202073866Y-82523809D01*
X202073866Y-82523809D02*
X202073866Y-82285714D01*
X202073866Y-82285714D02*
X202026247Y-82190476D01*
X202454819Y-81714285D02*
X201788152Y-81714285D01*
X201978628Y-81714285D02*
X201883390Y-81666666D01*
X201883390Y-81666666D02*
X201835771Y-81619047D01*
X201835771Y-81619047D02*
X201788152Y-81523809D01*
X201788152Y-81523809D02*
X201788152Y-81428571D01*
X202454819Y-80666666D02*
X201454819Y-80666666D01*
X202407200Y-80666666D02*
X202454819Y-80761904D01*
X202454819Y-80761904D02*
X202454819Y-80952380D01*
X202454819Y-80952380D02*
X202407200Y-81047618D01*
X202407200Y-81047618D02*
X202359580Y-81095237D01*
X202359580Y-81095237D02*
X202264342Y-81142856D01*
X202264342Y-81142856D02*
X201978628Y-81142856D01*
X201978628Y-81142856D02*
X201883390Y-81095237D01*
X201883390Y-81095237D02*
X201835771Y-81047618D01*
X201835771Y-81047618D02*
X201788152Y-80952380D01*
X201788152Y-80952380D02*
X201788152Y-80761904D01*
X201788152Y-80761904D02*
X201835771Y-80666666D01*
X201454819Y-79571427D02*
X201454819Y-78999999D01*
X202454819Y-79285713D02*
X201454819Y-79285713D01*
X202454819Y-78666665D02*
X201454819Y-78666665D01*
X202454819Y-78238094D02*
X201931009Y-78238094D01*
X201931009Y-78238094D02*
X201835771Y-78285713D01*
X201835771Y-78285713D02*
X201788152Y-78380951D01*
X201788152Y-78380951D02*
X201788152Y-78523808D01*
X201788152Y-78523808D02*
X201835771Y-78619046D01*
X201835771Y-78619046D02*
X201883390Y-78666665D01*
X202454819Y-77761903D02*
X201788152Y-77761903D01*
X201454819Y-77761903D02*
X201502438Y-77809522D01*
X201502438Y-77809522D02*
X201550057Y-77761903D01*
X201550057Y-77761903D02*
X201502438Y-77714284D01*
X201502438Y-77714284D02*
X201454819Y-77761903D01*
X201454819Y-77761903D02*
X201550057Y-77761903D01*
X202407200Y-76857142D02*
X202454819Y-76952380D01*
X202454819Y-76952380D02*
X202454819Y-77142856D01*
X202454819Y-77142856D02*
X202407200Y-77238094D01*
X202407200Y-77238094D02*
X202359580Y-77285713D01*
X202359580Y-77285713D02*
X202264342Y-77333332D01*
X202264342Y-77333332D02*
X201978628Y-77333332D01*
X201978628Y-77333332D02*
X201883390Y-77285713D01*
X201883390Y-77285713D02*
X201835771Y-77238094D01*
X201835771Y-77238094D02*
X201788152Y-77142856D01*
X201788152Y-77142856D02*
X201788152Y-76952380D01*
X201788152Y-76952380D02*
X201835771Y-76857142D01*
X202454819Y-76428570D02*
X201454819Y-76428570D01*
X202073866Y-76333332D02*
X202454819Y-76047618D01*
X201788152Y-76047618D02*
X202169104Y-76428570D01*
X201788152Y-75619046D02*
X202454819Y-75619046D01*
X201883390Y-75619046D02*
X201835771Y-75571427D01*
X201835771Y-75571427D02*
X201788152Y-75476189D01*
X201788152Y-75476189D02*
X201788152Y-75333332D01*
X201788152Y-75333332D02*
X201835771Y-75238094D01*
X201835771Y-75238094D02*
X201931009Y-75190475D01*
X201931009Y-75190475D02*
X202454819Y-75190475D01*
X202407200Y-74333332D02*
X202454819Y-74428570D01*
X202454819Y-74428570D02*
X202454819Y-74619046D01*
X202454819Y-74619046D02*
X202407200Y-74714284D01*
X202407200Y-74714284D02*
X202311961Y-74761903D01*
X202311961Y-74761903D02*
X201931009Y-74761903D01*
X201931009Y-74761903D02*
X201835771Y-74714284D01*
X201835771Y-74714284D02*
X201788152Y-74619046D01*
X201788152Y-74619046D02*
X201788152Y-74428570D01*
X201788152Y-74428570D02*
X201835771Y-74333332D01*
X201835771Y-74333332D02*
X201931009Y-74285713D01*
X201931009Y-74285713D02*
X202026247Y-74285713D01*
X202026247Y-74285713D02*
X202121485Y-74761903D01*
X202407200Y-73904760D02*
X202454819Y-73809522D01*
X202454819Y-73809522D02*
X202454819Y-73619046D01*
X202454819Y-73619046D02*
X202407200Y-73523808D01*
X202407200Y-73523808D02*
X202311961Y-73476189D01*
X202311961Y-73476189D02*
X202264342Y-73476189D01*
X202264342Y-73476189D02*
X202169104Y-73523808D01*
X202169104Y-73523808D02*
X202121485Y-73619046D01*
X202121485Y-73619046D02*
X202121485Y-73761903D01*
X202121485Y-73761903D02*
X202073866Y-73857141D01*
X202073866Y-73857141D02*
X201978628Y-73904760D01*
X201978628Y-73904760D02*
X201931009Y-73904760D01*
X201931009Y-73904760D02*
X201835771Y-73857141D01*
X201835771Y-73857141D02*
X201788152Y-73761903D01*
X201788152Y-73761903D02*
X201788152Y-73619046D01*
X201788152Y-73619046D02*
X201835771Y-73523808D01*
X202407200Y-73095236D02*
X202454819Y-72999998D01*
X202454819Y-72999998D02*
X202454819Y-72809522D01*
X202454819Y-72809522D02*
X202407200Y-72714284D01*
X202407200Y-72714284D02*
X202311961Y-72666665D01*
X202311961Y-72666665D02*
X202264342Y-72666665D01*
X202264342Y-72666665D02*
X202169104Y-72714284D01*
X202169104Y-72714284D02*
X202121485Y-72809522D01*
X202121485Y-72809522D02*
X202121485Y-72952379D01*
X202121485Y-72952379D02*
X202073866Y-73047617D01*
X202073866Y-73047617D02*
X201978628Y-73095236D01*
X201978628Y-73095236D02*
X201931009Y-73095236D01*
X201931009Y-73095236D02*
X201835771Y-73047617D01*
X201835771Y-73047617D02*
X201788152Y-72952379D01*
X201788152Y-72952379D02*
X201788152Y-72809522D01*
X201788152Y-72809522D02*
X201835771Y-72714284D01*
X202359580Y-72238093D02*
X202407200Y-72190474D01*
X202407200Y-72190474D02*
X202454819Y-72238093D01*
X202454819Y-72238093D02*
X202407200Y-72285712D01*
X202407200Y-72285712D02*
X202359580Y-72238093D01*
X202359580Y-72238093D02*
X202454819Y-72238093D01*
X201835771Y-72238093D02*
X201883390Y-72190474D01*
X201883390Y-72190474D02*
X201931009Y-72238093D01*
X201931009Y-72238093D02*
X201883390Y-72285712D01*
X201883390Y-72285712D02*
X201835771Y-72238093D01*
X201835771Y-72238093D02*
X201931009Y-72238093D01*
X202454819Y-70476189D02*
X202454819Y-71047617D01*
X202454819Y-70761903D02*
X201454819Y-70761903D01*
X201454819Y-70761903D02*
X201597676Y-70857141D01*
X201597676Y-70857141D02*
X201692914Y-70952379D01*
X201692914Y-70952379D02*
X201740533Y-71047617D01*
X202359580Y-70047617D02*
X202407200Y-69999998D01*
X202407200Y-69999998D02*
X202454819Y-70047617D01*
X202454819Y-70047617D02*
X202407200Y-70095236D01*
X202407200Y-70095236D02*
X202359580Y-70047617D01*
X202359580Y-70047617D02*
X202454819Y-70047617D01*
X201454819Y-69095237D02*
X201454819Y-69571427D01*
X201454819Y-69571427D02*
X201931009Y-69619046D01*
X201931009Y-69619046D02*
X201883390Y-69571427D01*
X201883390Y-69571427D02*
X201835771Y-69476189D01*
X201835771Y-69476189D02*
X201835771Y-69238094D01*
X201835771Y-69238094D02*
X201883390Y-69142856D01*
X201883390Y-69142856D02*
X201931009Y-69095237D01*
X201931009Y-69095237D02*
X202026247Y-69047618D01*
X202026247Y-69047618D02*
X202264342Y-69047618D01*
X202264342Y-69047618D02*
X202359580Y-69095237D01*
X202359580Y-69095237D02*
X202407200Y-69142856D01*
X202407200Y-69142856D02*
X202454819Y-69238094D01*
X202454819Y-69238094D02*
X202454819Y-69476189D01*
X202454819Y-69476189D02*
X202407200Y-69571427D01*
X202407200Y-69571427D02*
X202359580Y-69619046D01*
X201454819Y-68714284D02*
X201454819Y-68047618D01*
X201454819Y-68047618D02*
X202454819Y-68476189D01*
X202454819Y-67666665D02*
X201788152Y-67666665D01*
X201883390Y-67666665D02*
X201835771Y-67619046D01*
X201835771Y-67619046D02*
X201788152Y-67523808D01*
X201788152Y-67523808D02*
X201788152Y-67380951D01*
X201788152Y-67380951D02*
X201835771Y-67285713D01*
X201835771Y-67285713D02*
X201931009Y-67238094D01*
X201931009Y-67238094D02*
X202454819Y-67238094D01*
X201931009Y-67238094D02*
X201835771Y-67190475D01*
X201835771Y-67190475D02*
X201788152Y-67095237D01*
X201788152Y-67095237D02*
X201788152Y-66952380D01*
X201788152Y-66952380D02*
X201835771Y-66857141D01*
X201835771Y-66857141D02*
X201931009Y-66809522D01*
X201931009Y-66809522D02*
X202454819Y-66809522D01*
X202454819Y-66333332D02*
X201788152Y-66333332D01*
X201883390Y-66333332D02*
X201835771Y-66285713D01*
X201835771Y-66285713D02*
X201788152Y-66190475D01*
X201788152Y-66190475D02*
X201788152Y-66047618D01*
X201788152Y-66047618D02*
X201835771Y-65952380D01*
X201835771Y-65952380D02*
X201931009Y-65904761D01*
X201931009Y-65904761D02*
X202454819Y-65904761D01*
X201931009Y-65904761D02*
X201835771Y-65857142D01*
X201835771Y-65857142D02*
X201788152Y-65761904D01*
X201788152Y-65761904D02*
X201788152Y-65619047D01*
X201788152Y-65619047D02*
X201835771Y-65523808D01*
X201835771Y-65523808D02*
X201931009Y-65476189D01*
X201931009Y-65476189D02*
X202454819Y-65476189D01*
X95668509Y-102690476D02*
X95716128Y-102547619D01*
X95716128Y-102547619D02*
X95763747Y-102500000D01*
X95763747Y-102500000D02*
X95858985Y-102452381D01*
X95858985Y-102452381D02*
X96001842Y-102452381D01*
X96001842Y-102452381D02*
X96097080Y-102500000D01*
X96097080Y-102500000D02*
X96144700Y-102547619D01*
X96144700Y-102547619D02*
X96192319Y-102642857D01*
X96192319Y-102642857D02*
X96192319Y-103023809D01*
X96192319Y-103023809D02*
X95192319Y-103023809D01*
X95192319Y-103023809D02*
X95192319Y-102690476D01*
X95192319Y-102690476D02*
X95239938Y-102595238D01*
X95239938Y-102595238D02*
X95287557Y-102547619D01*
X95287557Y-102547619D02*
X95382795Y-102500000D01*
X95382795Y-102500000D02*
X95478033Y-102500000D01*
X95478033Y-102500000D02*
X95573271Y-102547619D01*
X95573271Y-102547619D02*
X95620890Y-102595238D01*
X95620890Y-102595238D02*
X95668509Y-102690476D01*
X95668509Y-102690476D02*
X95668509Y-103023809D01*
X96192319Y-101880952D02*
X96144700Y-101976190D01*
X96144700Y-101976190D02*
X96097080Y-102023809D01*
X96097080Y-102023809D02*
X96001842Y-102071428D01*
X96001842Y-102071428D02*
X95716128Y-102071428D01*
X95716128Y-102071428D02*
X95620890Y-102023809D01*
X95620890Y-102023809D02*
X95573271Y-101976190D01*
X95573271Y-101976190D02*
X95525652Y-101880952D01*
X95525652Y-101880952D02*
X95525652Y-101738095D01*
X95525652Y-101738095D02*
X95573271Y-101642857D01*
X95573271Y-101642857D02*
X95620890Y-101595238D01*
X95620890Y-101595238D02*
X95716128Y-101547619D01*
X95716128Y-101547619D02*
X96001842Y-101547619D01*
X96001842Y-101547619D02*
X96097080Y-101595238D01*
X96097080Y-101595238D02*
X96144700Y-101642857D01*
X96144700Y-101642857D02*
X96192319Y-101738095D01*
X96192319Y-101738095D02*
X96192319Y-101880952D01*
X96192319Y-100690476D02*
X95668509Y-100690476D01*
X95668509Y-100690476D02*
X95573271Y-100738095D01*
X95573271Y-100738095D02*
X95525652Y-100833333D01*
X95525652Y-100833333D02*
X95525652Y-101023809D01*
X95525652Y-101023809D02*
X95573271Y-101119047D01*
X96144700Y-100690476D02*
X96192319Y-100785714D01*
X96192319Y-100785714D02*
X96192319Y-101023809D01*
X96192319Y-101023809D02*
X96144700Y-101119047D01*
X96144700Y-101119047D02*
X96049461Y-101166666D01*
X96049461Y-101166666D02*
X95954223Y-101166666D01*
X95954223Y-101166666D02*
X95858985Y-101119047D01*
X95858985Y-101119047D02*
X95811366Y-101023809D01*
X95811366Y-101023809D02*
X95811366Y-100785714D01*
X95811366Y-100785714D02*
X95763747Y-100690476D01*
X96192319Y-100214285D02*
X95525652Y-100214285D01*
X95716128Y-100214285D02*
X95620890Y-100166666D01*
X95620890Y-100166666D02*
X95573271Y-100119047D01*
X95573271Y-100119047D02*
X95525652Y-100023809D01*
X95525652Y-100023809D02*
X95525652Y-99928571D01*
X96192319Y-99166666D02*
X95192319Y-99166666D01*
X96144700Y-99166666D02*
X96192319Y-99261904D01*
X96192319Y-99261904D02*
X96192319Y-99452380D01*
X96192319Y-99452380D02*
X96144700Y-99547618D01*
X96144700Y-99547618D02*
X96097080Y-99595237D01*
X96097080Y-99595237D02*
X96001842Y-99642856D01*
X96001842Y-99642856D02*
X95716128Y-99642856D01*
X95716128Y-99642856D02*
X95620890Y-99595237D01*
X95620890Y-99595237D02*
X95573271Y-99547618D01*
X95573271Y-99547618D02*
X95525652Y-99452380D01*
X95525652Y-99452380D02*
X95525652Y-99261904D01*
X95525652Y-99261904D02*
X95573271Y-99166666D01*
X95192319Y-98071427D02*
X95192319Y-97499999D01*
X96192319Y-97785713D02*
X95192319Y-97785713D01*
X96192319Y-97166665D02*
X95192319Y-97166665D01*
X96192319Y-96738094D02*
X95668509Y-96738094D01*
X95668509Y-96738094D02*
X95573271Y-96785713D01*
X95573271Y-96785713D02*
X95525652Y-96880951D01*
X95525652Y-96880951D02*
X95525652Y-97023808D01*
X95525652Y-97023808D02*
X95573271Y-97119046D01*
X95573271Y-97119046D02*
X95620890Y-97166665D01*
X96192319Y-96261903D02*
X95525652Y-96261903D01*
X95192319Y-96261903D02*
X95239938Y-96309522D01*
X95239938Y-96309522D02*
X95287557Y-96261903D01*
X95287557Y-96261903D02*
X95239938Y-96214284D01*
X95239938Y-96214284D02*
X95192319Y-96261903D01*
X95192319Y-96261903D02*
X95287557Y-96261903D01*
X96144700Y-95357142D02*
X96192319Y-95452380D01*
X96192319Y-95452380D02*
X96192319Y-95642856D01*
X96192319Y-95642856D02*
X96144700Y-95738094D01*
X96144700Y-95738094D02*
X96097080Y-95785713D01*
X96097080Y-95785713D02*
X96001842Y-95833332D01*
X96001842Y-95833332D02*
X95716128Y-95833332D01*
X95716128Y-95833332D02*
X95620890Y-95785713D01*
X95620890Y-95785713D02*
X95573271Y-95738094D01*
X95573271Y-95738094D02*
X95525652Y-95642856D01*
X95525652Y-95642856D02*
X95525652Y-95452380D01*
X95525652Y-95452380D02*
X95573271Y-95357142D01*
X96192319Y-94928570D02*
X95192319Y-94928570D01*
X95811366Y-94833332D02*
X96192319Y-94547618D01*
X95525652Y-94547618D02*
X95906604Y-94928570D01*
X95525652Y-94119046D02*
X96192319Y-94119046D01*
X95620890Y-94119046D02*
X95573271Y-94071427D01*
X95573271Y-94071427D02*
X95525652Y-93976189D01*
X95525652Y-93976189D02*
X95525652Y-93833332D01*
X95525652Y-93833332D02*
X95573271Y-93738094D01*
X95573271Y-93738094D02*
X95668509Y-93690475D01*
X95668509Y-93690475D02*
X96192319Y-93690475D01*
X96144700Y-92833332D02*
X96192319Y-92928570D01*
X96192319Y-92928570D02*
X96192319Y-93119046D01*
X96192319Y-93119046D02*
X96144700Y-93214284D01*
X96144700Y-93214284D02*
X96049461Y-93261903D01*
X96049461Y-93261903D02*
X95668509Y-93261903D01*
X95668509Y-93261903D02*
X95573271Y-93214284D01*
X95573271Y-93214284D02*
X95525652Y-93119046D01*
X95525652Y-93119046D02*
X95525652Y-92928570D01*
X95525652Y-92928570D02*
X95573271Y-92833332D01*
X95573271Y-92833332D02*
X95668509Y-92785713D01*
X95668509Y-92785713D02*
X95763747Y-92785713D01*
X95763747Y-92785713D02*
X95858985Y-93261903D01*
X96144700Y-92404760D02*
X96192319Y-92309522D01*
X96192319Y-92309522D02*
X96192319Y-92119046D01*
X96192319Y-92119046D02*
X96144700Y-92023808D01*
X96144700Y-92023808D02*
X96049461Y-91976189D01*
X96049461Y-91976189D02*
X96001842Y-91976189D01*
X96001842Y-91976189D02*
X95906604Y-92023808D01*
X95906604Y-92023808D02*
X95858985Y-92119046D01*
X95858985Y-92119046D02*
X95858985Y-92261903D01*
X95858985Y-92261903D02*
X95811366Y-92357141D01*
X95811366Y-92357141D02*
X95716128Y-92404760D01*
X95716128Y-92404760D02*
X95668509Y-92404760D01*
X95668509Y-92404760D02*
X95573271Y-92357141D01*
X95573271Y-92357141D02*
X95525652Y-92261903D01*
X95525652Y-92261903D02*
X95525652Y-92119046D01*
X95525652Y-92119046D02*
X95573271Y-92023808D01*
X96144700Y-91595236D02*
X96192319Y-91499998D01*
X96192319Y-91499998D02*
X96192319Y-91309522D01*
X96192319Y-91309522D02*
X96144700Y-91214284D01*
X96144700Y-91214284D02*
X96049461Y-91166665D01*
X96049461Y-91166665D02*
X96001842Y-91166665D01*
X96001842Y-91166665D02*
X95906604Y-91214284D01*
X95906604Y-91214284D02*
X95858985Y-91309522D01*
X95858985Y-91309522D02*
X95858985Y-91452379D01*
X95858985Y-91452379D02*
X95811366Y-91547617D01*
X95811366Y-91547617D02*
X95716128Y-91595236D01*
X95716128Y-91595236D02*
X95668509Y-91595236D01*
X95668509Y-91595236D02*
X95573271Y-91547617D01*
X95573271Y-91547617D02*
X95525652Y-91452379D01*
X95525652Y-91452379D02*
X95525652Y-91309522D01*
X95525652Y-91309522D02*
X95573271Y-91214284D01*
X96097080Y-90738093D02*
X96144700Y-90690474D01*
X96144700Y-90690474D02*
X96192319Y-90738093D01*
X96192319Y-90738093D02*
X96144700Y-90785712D01*
X96144700Y-90785712D02*
X96097080Y-90738093D01*
X96097080Y-90738093D02*
X96192319Y-90738093D01*
X95573271Y-90738093D02*
X95620890Y-90690474D01*
X95620890Y-90690474D02*
X95668509Y-90738093D01*
X95668509Y-90738093D02*
X95620890Y-90785712D01*
X95620890Y-90785712D02*
X95573271Y-90738093D01*
X95573271Y-90738093D02*
X95668509Y-90738093D01*
X96192319Y-88976189D02*
X96192319Y-89547617D01*
X96192319Y-89261903D02*
X95192319Y-89261903D01*
X95192319Y-89261903D02*
X95335176Y-89357141D01*
X95335176Y-89357141D02*
X95430414Y-89452379D01*
X95430414Y-89452379D02*
X95478033Y-89547617D01*
X96097080Y-88547617D02*
X96144700Y-88499998D01*
X96144700Y-88499998D02*
X96192319Y-88547617D01*
X96192319Y-88547617D02*
X96144700Y-88595236D01*
X96144700Y-88595236D02*
X96097080Y-88547617D01*
X96097080Y-88547617D02*
X96192319Y-88547617D01*
X95192319Y-87595237D02*
X95192319Y-88071427D01*
X95192319Y-88071427D02*
X95668509Y-88119046D01*
X95668509Y-88119046D02*
X95620890Y-88071427D01*
X95620890Y-88071427D02*
X95573271Y-87976189D01*
X95573271Y-87976189D02*
X95573271Y-87738094D01*
X95573271Y-87738094D02*
X95620890Y-87642856D01*
X95620890Y-87642856D02*
X95668509Y-87595237D01*
X95668509Y-87595237D02*
X95763747Y-87547618D01*
X95763747Y-87547618D02*
X96001842Y-87547618D01*
X96001842Y-87547618D02*
X96097080Y-87595237D01*
X96097080Y-87595237D02*
X96144700Y-87642856D01*
X96144700Y-87642856D02*
X96192319Y-87738094D01*
X96192319Y-87738094D02*
X96192319Y-87976189D01*
X96192319Y-87976189D02*
X96144700Y-88071427D01*
X96144700Y-88071427D02*
X96097080Y-88119046D01*
X95192319Y-87214284D02*
X95192319Y-86547618D01*
X95192319Y-86547618D02*
X96192319Y-86976189D01*
X96192319Y-86166665D02*
X95525652Y-86166665D01*
X95620890Y-86166665D02*
X95573271Y-86119046D01*
X95573271Y-86119046D02*
X95525652Y-86023808D01*
X95525652Y-86023808D02*
X95525652Y-85880951D01*
X95525652Y-85880951D02*
X95573271Y-85785713D01*
X95573271Y-85785713D02*
X95668509Y-85738094D01*
X95668509Y-85738094D02*
X96192319Y-85738094D01*
X95668509Y-85738094D02*
X95573271Y-85690475D01*
X95573271Y-85690475D02*
X95525652Y-85595237D01*
X95525652Y-85595237D02*
X95525652Y-85452380D01*
X95525652Y-85452380D02*
X95573271Y-85357141D01*
X95573271Y-85357141D02*
X95668509Y-85309522D01*
X95668509Y-85309522D02*
X96192319Y-85309522D01*
X96192319Y-84833332D02*
X95525652Y-84833332D01*
X95620890Y-84833332D02*
X95573271Y-84785713D01*
X95573271Y-84785713D02*
X95525652Y-84690475D01*
X95525652Y-84690475D02*
X95525652Y-84547618D01*
X95525652Y-84547618D02*
X95573271Y-84452380D01*
X95573271Y-84452380D02*
X95668509Y-84404761D01*
X95668509Y-84404761D02*
X96192319Y-84404761D01*
X95668509Y-84404761D02*
X95573271Y-84357142D01*
X95573271Y-84357142D02*
X95525652Y-84261904D01*
X95525652Y-84261904D02*
X95525652Y-84119047D01*
X95525652Y-84119047D02*
X95573271Y-84023808D01*
X95573271Y-84023808D02*
X95668509Y-83976189D01*
X95668509Y-83976189D02*
X96192319Y-83976189D01*
X95931009Y-77190476D02*
X95978628Y-77047619D01*
X95978628Y-77047619D02*
X96026247Y-77000000D01*
X96026247Y-77000000D02*
X96121485Y-76952381D01*
X96121485Y-76952381D02*
X96264342Y-76952381D01*
X96264342Y-76952381D02*
X96359580Y-77000000D01*
X96359580Y-77000000D02*
X96407200Y-77047619D01*
X96407200Y-77047619D02*
X96454819Y-77142857D01*
X96454819Y-77142857D02*
X96454819Y-77523809D01*
X96454819Y-77523809D02*
X95454819Y-77523809D01*
X95454819Y-77523809D02*
X95454819Y-77190476D01*
X95454819Y-77190476D02*
X95502438Y-77095238D01*
X95502438Y-77095238D02*
X95550057Y-77047619D01*
X95550057Y-77047619D02*
X95645295Y-77000000D01*
X95645295Y-77000000D02*
X95740533Y-77000000D01*
X95740533Y-77000000D02*
X95835771Y-77047619D01*
X95835771Y-77047619D02*
X95883390Y-77095238D01*
X95883390Y-77095238D02*
X95931009Y-77190476D01*
X95931009Y-77190476D02*
X95931009Y-77523809D01*
X96454819Y-76380952D02*
X96407200Y-76476190D01*
X96407200Y-76476190D02*
X96359580Y-76523809D01*
X96359580Y-76523809D02*
X96264342Y-76571428D01*
X96264342Y-76571428D02*
X95978628Y-76571428D01*
X95978628Y-76571428D02*
X95883390Y-76523809D01*
X95883390Y-76523809D02*
X95835771Y-76476190D01*
X95835771Y-76476190D02*
X95788152Y-76380952D01*
X95788152Y-76380952D02*
X95788152Y-76238095D01*
X95788152Y-76238095D02*
X95835771Y-76142857D01*
X95835771Y-76142857D02*
X95883390Y-76095238D01*
X95883390Y-76095238D02*
X95978628Y-76047619D01*
X95978628Y-76047619D02*
X96264342Y-76047619D01*
X96264342Y-76047619D02*
X96359580Y-76095238D01*
X96359580Y-76095238D02*
X96407200Y-76142857D01*
X96407200Y-76142857D02*
X96454819Y-76238095D01*
X96454819Y-76238095D02*
X96454819Y-76380952D01*
X96454819Y-75190476D02*
X95931009Y-75190476D01*
X95931009Y-75190476D02*
X95835771Y-75238095D01*
X95835771Y-75238095D02*
X95788152Y-75333333D01*
X95788152Y-75333333D02*
X95788152Y-75523809D01*
X95788152Y-75523809D02*
X95835771Y-75619047D01*
X96407200Y-75190476D02*
X96454819Y-75285714D01*
X96454819Y-75285714D02*
X96454819Y-75523809D01*
X96454819Y-75523809D02*
X96407200Y-75619047D01*
X96407200Y-75619047D02*
X96311961Y-75666666D01*
X96311961Y-75666666D02*
X96216723Y-75666666D01*
X96216723Y-75666666D02*
X96121485Y-75619047D01*
X96121485Y-75619047D02*
X96073866Y-75523809D01*
X96073866Y-75523809D02*
X96073866Y-75285714D01*
X96073866Y-75285714D02*
X96026247Y-75190476D01*
X96454819Y-74714285D02*
X95788152Y-74714285D01*
X95978628Y-74714285D02*
X95883390Y-74666666D01*
X95883390Y-74666666D02*
X95835771Y-74619047D01*
X95835771Y-74619047D02*
X95788152Y-74523809D01*
X95788152Y-74523809D02*
X95788152Y-74428571D01*
X96454819Y-73666666D02*
X95454819Y-73666666D01*
X96407200Y-73666666D02*
X96454819Y-73761904D01*
X96454819Y-73761904D02*
X96454819Y-73952380D01*
X96454819Y-73952380D02*
X96407200Y-74047618D01*
X96407200Y-74047618D02*
X96359580Y-74095237D01*
X96359580Y-74095237D02*
X96264342Y-74142856D01*
X96264342Y-74142856D02*
X95978628Y-74142856D01*
X95978628Y-74142856D02*
X95883390Y-74095237D01*
X95883390Y-74095237D02*
X95835771Y-74047618D01*
X95835771Y-74047618D02*
X95788152Y-73952380D01*
X95788152Y-73952380D02*
X95788152Y-73761904D01*
X95788152Y-73761904D02*
X95835771Y-73666666D01*
X95454819Y-72571427D02*
X95454819Y-71999999D01*
X96454819Y-72285713D02*
X95454819Y-72285713D01*
X96454819Y-71666665D02*
X95454819Y-71666665D01*
X96454819Y-71238094D02*
X95931009Y-71238094D01*
X95931009Y-71238094D02*
X95835771Y-71285713D01*
X95835771Y-71285713D02*
X95788152Y-71380951D01*
X95788152Y-71380951D02*
X95788152Y-71523808D01*
X95788152Y-71523808D02*
X95835771Y-71619046D01*
X95835771Y-71619046D02*
X95883390Y-71666665D01*
X96454819Y-70761903D02*
X95788152Y-70761903D01*
X95454819Y-70761903D02*
X95502438Y-70809522D01*
X95502438Y-70809522D02*
X95550057Y-70761903D01*
X95550057Y-70761903D02*
X95502438Y-70714284D01*
X95502438Y-70714284D02*
X95454819Y-70761903D01*
X95454819Y-70761903D02*
X95550057Y-70761903D01*
X96407200Y-69857142D02*
X96454819Y-69952380D01*
X96454819Y-69952380D02*
X96454819Y-70142856D01*
X96454819Y-70142856D02*
X96407200Y-70238094D01*
X96407200Y-70238094D02*
X96359580Y-70285713D01*
X96359580Y-70285713D02*
X96264342Y-70333332D01*
X96264342Y-70333332D02*
X95978628Y-70333332D01*
X95978628Y-70333332D02*
X95883390Y-70285713D01*
X95883390Y-70285713D02*
X95835771Y-70238094D01*
X95835771Y-70238094D02*
X95788152Y-70142856D01*
X95788152Y-70142856D02*
X95788152Y-69952380D01*
X95788152Y-69952380D02*
X95835771Y-69857142D01*
X96454819Y-69428570D02*
X95454819Y-69428570D01*
X96073866Y-69333332D02*
X96454819Y-69047618D01*
X95788152Y-69047618D02*
X96169104Y-69428570D01*
X95788152Y-68619046D02*
X96454819Y-68619046D01*
X95883390Y-68619046D02*
X95835771Y-68571427D01*
X95835771Y-68571427D02*
X95788152Y-68476189D01*
X95788152Y-68476189D02*
X95788152Y-68333332D01*
X95788152Y-68333332D02*
X95835771Y-68238094D01*
X95835771Y-68238094D02*
X95931009Y-68190475D01*
X95931009Y-68190475D02*
X96454819Y-68190475D01*
X96407200Y-67333332D02*
X96454819Y-67428570D01*
X96454819Y-67428570D02*
X96454819Y-67619046D01*
X96454819Y-67619046D02*
X96407200Y-67714284D01*
X96407200Y-67714284D02*
X96311961Y-67761903D01*
X96311961Y-67761903D02*
X95931009Y-67761903D01*
X95931009Y-67761903D02*
X95835771Y-67714284D01*
X95835771Y-67714284D02*
X95788152Y-67619046D01*
X95788152Y-67619046D02*
X95788152Y-67428570D01*
X95788152Y-67428570D02*
X95835771Y-67333332D01*
X95835771Y-67333332D02*
X95931009Y-67285713D01*
X95931009Y-67285713D02*
X96026247Y-67285713D01*
X96026247Y-67285713D02*
X96121485Y-67761903D01*
X96407200Y-66904760D02*
X96454819Y-66809522D01*
X96454819Y-66809522D02*
X96454819Y-66619046D01*
X96454819Y-66619046D02*
X96407200Y-66523808D01*
X96407200Y-66523808D02*
X96311961Y-66476189D01*
X96311961Y-66476189D02*
X96264342Y-66476189D01*
X96264342Y-66476189D02*
X96169104Y-66523808D01*
X96169104Y-66523808D02*
X96121485Y-66619046D01*
X96121485Y-66619046D02*
X96121485Y-66761903D01*
X96121485Y-66761903D02*
X96073866Y-66857141D01*
X96073866Y-66857141D02*
X95978628Y-66904760D01*
X95978628Y-66904760D02*
X95931009Y-66904760D01*
X95931009Y-66904760D02*
X95835771Y-66857141D01*
X95835771Y-66857141D02*
X95788152Y-66761903D01*
X95788152Y-66761903D02*
X95788152Y-66619046D01*
X95788152Y-66619046D02*
X95835771Y-66523808D01*
X96407200Y-66095236D02*
X96454819Y-65999998D01*
X96454819Y-65999998D02*
X96454819Y-65809522D01*
X96454819Y-65809522D02*
X96407200Y-65714284D01*
X96407200Y-65714284D02*
X96311961Y-65666665D01*
X96311961Y-65666665D02*
X96264342Y-65666665D01*
X96264342Y-65666665D02*
X96169104Y-65714284D01*
X96169104Y-65714284D02*
X96121485Y-65809522D01*
X96121485Y-65809522D02*
X96121485Y-65952379D01*
X96121485Y-65952379D02*
X96073866Y-66047617D01*
X96073866Y-66047617D02*
X95978628Y-66095236D01*
X95978628Y-66095236D02*
X95931009Y-66095236D01*
X95931009Y-66095236D02*
X95835771Y-66047617D01*
X95835771Y-66047617D02*
X95788152Y-65952379D01*
X95788152Y-65952379D02*
X95788152Y-65809522D01*
X95788152Y-65809522D02*
X95835771Y-65714284D01*
X96359580Y-65238093D02*
X96407200Y-65190474D01*
X96407200Y-65190474D02*
X96454819Y-65238093D01*
X96454819Y-65238093D02*
X96407200Y-65285712D01*
X96407200Y-65285712D02*
X96359580Y-65238093D01*
X96359580Y-65238093D02*
X96454819Y-65238093D01*
X95835771Y-65238093D02*
X95883390Y-65190474D01*
X95883390Y-65190474D02*
X95931009Y-65238093D01*
X95931009Y-65238093D02*
X95883390Y-65285712D01*
X95883390Y-65285712D02*
X95835771Y-65238093D01*
X95835771Y-65238093D02*
X95931009Y-65238093D01*
X96454819Y-63476189D02*
X96454819Y-64047617D01*
X96454819Y-63761903D02*
X95454819Y-63761903D01*
X95454819Y-63761903D02*
X95597676Y-63857141D01*
X95597676Y-63857141D02*
X95692914Y-63952379D01*
X95692914Y-63952379D02*
X95740533Y-64047617D01*
X96359580Y-63047617D02*
X96407200Y-62999998D01*
X96407200Y-62999998D02*
X96454819Y-63047617D01*
X96454819Y-63047617D02*
X96407200Y-63095236D01*
X96407200Y-63095236D02*
X96359580Y-63047617D01*
X96359580Y-63047617D02*
X96454819Y-63047617D01*
X95454819Y-62095237D02*
X95454819Y-62571427D01*
X95454819Y-62571427D02*
X95931009Y-62619046D01*
X95931009Y-62619046D02*
X95883390Y-62571427D01*
X95883390Y-62571427D02*
X95835771Y-62476189D01*
X95835771Y-62476189D02*
X95835771Y-62238094D01*
X95835771Y-62238094D02*
X95883390Y-62142856D01*
X95883390Y-62142856D02*
X95931009Y-62095237D01*
X95931009Y-62095237D02*
X96026247Y-62047618D01*
X96026247Y-62047618D02*
X96264342Y-62047618D01*
X96264342Y-62047618D02*
X96359580Y-62095237D01*
X96359580Y-62095237D02*
X96407200Y-62142856D01*
X96407200Y-62142856D02*
X96454819Y-62238094D01*
X96454819Y-62238094D02*
X96454819Y-62476189D01*
X96454819Y-62476189D02*
X96407200Y-62571427D01*
X96407200Y-62571427D02*
X96359580Y-62619046D01*
X95454819Y-61714284D02*
X95454819Y-61047618D01*
X95454819Y-61047618D02*
X96454819Y-61476189D01*
X96454819Y-60666665D02*
X95788152Y-60666665D01*
X95883390Y-60666665D02*
X95835771Y-60619046D01*
X95835771Y-60619046D02*
X95788152Y-60523808D01*
X95788152Y-60523808D02*
X95788152Y-60380951D01*
X95788152Y-60380951D02*
X95835771Y-60285713D01*
X95835771Y-60285713D02*
X95931009Y-60238094D01*
X95931009Y-60238094D02*
X96454819Y-60238094D01*
X95931009Y-60238094D02*
X95835771Y-60190475D01*
X95835771Y-60190475D02*
X95788152Y-60095237D01*
X95788152Y-60095237D02*
X95788152Y-59952380D01*
X95788152Y-59952380D02*
X95835771Y-59857141D01*
X95835771Y-59857141D02*
X95931009Y-59809522D01*
X95931009Y-59809522D02*
X96454819Y-59809522D01*
X96454819Y-59333332D02*
X95788152Y-59333332D01*
X95883390Y-59333332D02*
X95835771Y-59285713D01*
X95835771Y-59285713D02*
X95788152Y-59190475D01*
X95788152Y-59190475D02*
X95788152Y-59047618D01*
X95788152Y-59047618D02*
X95835771Y-58952380D01*
X95835771Y-58952380D02*
X95931009Y-58904761D01*
X95931009Y-58904761D02*
X96454819Y-58904761D01*
X95931009Y-58904761D02*
X95835771Y-58857142D01*
X95835771Y-58857142D02*
X95788152Y-58761904D01*
X95788152Y-58761904D02*
X95788152Y-58619047D01*
X95788152Y-58619047D02*
X95835771Y-58523808D01*
X95835771Y-58523808D02*
X95931009Y-58476189D01*
X95931009Y-58476189D02*
X96454819Y-58476189D01*
X200931009Y-100190476D02*
X200978628Y-100047619D01*
X200978628Y-100047619D02*
X201026247Y-100000000D01*
X201026247Y-100000000D02*
X201121485Y-99952381D01*
X201121485Y-99952381D02*
X201264342Y-99952381D01*
X201264342Y-99952381D02*
X201359580Y-100000000D01*
X201359580Y-100000000D02*
X201407200Y-100047619D01*
X201407200Y-100047619D02*
X201454819Y-100142857D01*
X201454819Y-100142857D02*
X201454819Y-100523809D01*
X201454819Y-100523809D02*
X200454819Y-100523809D01*
X200454819Y-100523809D02*
X200454819Y-100190476D01*
X200454819Y-100190476D02*
X200502438Y-100095238D01*
X200502438Y-100095238D02*
X200550057Y-100047619D01*
X200550057Y-100047619D02*
X200645295Y-100000000D01*
X200645295Y-100000000D02*
X200740533Y-100000000D01*
X200740533Y-100000000D02*
X200835771Y-100047619D01*
X200835771Y-100047619D02*
X200883390Y-100095238D01*
X200883390Y-100095238D02*
X200931009Y-100190476D01*
X200931009Y-100190476D02*
X200931009Y-100523809D01*
X201454819Y-99380952D02*
X201407200Y-99476190D01*
X201407200Y-99476190D02*
X201359580Y-99523809D01*
X201359580Y-99523809D02*
X201264342Y-99571428D01*
X201264342Y-99571428D02*
X200978628Y-99571428D01*
X200978628Y-99571428D02*
X200883390Y-99523809D01*
X200883390Y-99523809D02*
X200835771Y-99476190D01*
X200835771Y-99476190D02*
X200788152Y-99380952D01*
X200788152Y-99380952D02*
X200788152Y-99238095D01*
X200788152Y-99238095D02*
X200835771Y-99142857D01*
X200835771Y-99142857D02*
X200883390Y-99095238D01*
X200883390Y-99095238D02*
X200978628Y-99047619D01*
X200978628Y-99047619D02*
X201264342Y-99047619D01*
X201264342Y-99047619D02*
X201359580Y-99095238D01*
X201359580Y-99095238D02*
X201407200Y-99142857D01*
X201407200Y-99142857D02*
X201454819Y-99238095D01*
X201454819Y-99238095D02*
X201454819Y-99380952D01*
X201454819Y-98190476D02*
X200931009Y-98190476D01*
X200931009Y-98190476D02*
X200835771Y-98238095D01*
X200835771Y-98238095D02*
X200788152Y-98333333D01*
X200788152Y-98333333D02*
X200788152Y-98523809D01*
X200788152Y-98523809D02*
X200835771Y-98619047D01*
X201407200Y-98190476D02*
X201454819Y-98285714D01*
X201454819Y-98285714D02*
X201454819Y-98523809D01*
X201454819Y-98523809D02*
X201407200Y-98619047D01*
X201407200Y-98619047D02*
X201311961Y-98666666D01*
X201311961Y-98666666D02*
X201216723Y-98666666D01*
X201216723Y-98666666D02*
X201121485Y-98619047D01*
X201121485Y-98619047D02*
X201073866Y-98523809D01*
X201073866Y-98523809D02*
X201073866Y-98285714D01*
X201073866Y-98285714D02*
X201026247Y-98190476D01*
X201454819Y-97714285D02*
X200788152Y-97714285D01*
X200978628Y-97714285D02*
X200883390Y-97666666D01*
X200883390Y-97666666D02*
X200835771Y-97619047D01*
X200835771Y-97619047D02*
X200788152Y-97523809D01*
X200788152Y-97523809D02*
X200788152Y-97428571D01*
X201454819Y-96666666D02*
X200454819Y-96666666D01*
X201407200Y-96666666D02*
X201454819Y-96761904D01*
X201454819Y-96761904D02*
X201454819Y-96952380D01*
X201454819Y-96952380D02*
X201407200Y-97047618D01*
X201407200Y-97047618D02*
X201359580Y-97095237D01*
X201359580Y-97095237D02*
X201264342Y-97142856D01*
X201264342Y-97142856D02*
X200978628Y-97142856D01*
X200978628Y-97142856D02*
X200883390Y-97095237D01*
X200883390Y-97095237D02*
X200835771Y-97047618D01*
X200835771Y-97047618D02*
X200788152Y-96952380D01*
X200788152Y-96952380D02*
X200788152Y-96761904D01*
X200788152Y-96761904D02*
X200835771Y-96666666D01*
X200454819Y-95571427D02*
X200454819Y-94999999D01*
X201454819Y-95285713D02*
X200454819Y-95285713D01*
X201454819Y-94666665D02*
X200454819Y-94666665D01*
X201454819Y-94238094D02*
X200931009Y-94238094D01*
X200931009Y-94238094D02*
X200835771Y-94285713D01*
X200835771Y-94285713D02*
X200788152Y-94380951D01*
X200788152Y-94380951D02*
X200788152Y-94523808D01*
X200788152Y-94523808D02*
X200835771Y-94619046D01*
X200835771Y-94619046D02*
X200883390Y-94666665D01*
X201454819Y-93761903D02*
X200788152Y-93761903D01*
X200454819Y-93761903D02*
X200502438Y-93809522D01*
X200502438Y-93809522D02*
X200550057Y-93761903D01*
X200550057Y-93761903D02*
X200502438Y-93714284D01*
X200502438Y-93714284D02*
X200454819Y-93761903D01*
X200454819Y-93761903D02*
X200550057Y-93761903D01*
X201407200Y-92857142D02*
X201454819Y-92952380D01*
X201454819Y-92952380D02*
X201454819Y-93142856D01*
X201454819Y-93142856D02*
X201407200Y-93238094D01*
X201407200Y-93238094D02*
X201359580Y-93285713D01*
X201359580Y-93285713D02*
X201264342Y-93333332D01*
X201264342Y-93333332D02*
X200978628Y-93333332D01*
X200978628Y-93333332D02*
X200883390Y-93285713D01*
X200883390Y-93285713D02*
X200835771Y-93238094D01*
X200835771Y-93238094D02*
X200788152Y-93142856D01*
X200788152Y-93142856D02*
X200788152Y-92952380D01*
X200788152Y-92952380D02*
X200835771Y-92857142D01*
X201454819Y-92428570D02*
X200454819Y-92428570D01*
X201073866Y-92333332D02*
X201454819Y-92047618D01*
X200788152Y-92047618D02*
X201169104Y-92428570D01*
X200788152Y-91619046D02*
X201454819Y-91619046D01*
X200883390Y-91619046D02*
X200835771Y-91571427D01*
X200835771Y-91571427D02*
X200788152Y-91476189D01*
X200788152Y-91476189D02*
X200788152Y-91333332D01*
X200788152Y-91333332D02*
X200835771Y-91238094D01*
X200835771Y-91238094D02*
X200931009Y-91190475D01*
X200931009Y-91190475D02*
X201454819Y-91190475D01*
X201407200Y-90333332D02*
X201454819Y-90428570D01*
X201454819Y-90428570D02*
X201454819Y-90619046D01*
X201454819Y-90619046D02*
X201407200Y-90714284D01*
X201407200Y-90714284D02*
X201311961Y-90761903D01*
X201311961Y-90761903D02*
X200931009Y-90761903D01*
X200931009Y-90761903D02*
X200835771Y-90714284D01*
X200835771Y-90714284D02*
X200788152Y-90619046D01*
X200788152Y-90619046D02*
X200788152Y-90428570D01*
X200788152Y-90428570D02*
X200835771Y-90333332D01*
X200835771Y-90333332D02*
X200931009Y-90285713D01*
X200931009Y-90285713D02*
X201026247Y-90285713D01*
X201026247Y-90285713D02*
X201121485Y-90761903D01*
X201407200Y-89904760D02*
X201454819Y-89809522D01*
X201454819Y-89809522D02*
X201454819Y-89619046D01*
X201454819Y-89619046D02*
X201407200Y-89523808D01*
X201407200Y-89523808D02*
X201311961Y-89476189D01*
X201311961Y-89476189D02*
X201264342Y-89476189D01*
X201264342Y-89476189D02*
X201169104Y-89523808D01*
X201169104Y-89523808D02*
X201121485Y-89619046D01*
X201121485Y-89619046D02*
X201121485Y-89761903D01*
X201121485Y-89761903D02*
X201073866Y-89857141D01*
X201073866Y-89857141D02*
X200978628Y-89904760D01*
X200978628Y-89904760D02*
X200931009Y-89904760D01*
X200931009Y-89904760D02*
X200835771Y-89857141D01*
X200835771Y-89857141D02*
X200788152Y-89761903D01*
X200788152Y-89761903D02*
X200788152Y-89619046D01*
X200788152Y-89619046D02*
X200835771Y-89523808D01*
X201407200Y-89095236D02*
X201454819Y-88999998D01*
X201454819Y-88999998D02*
X201454819Y-88809522D01*
X201454819Y-88809522D02*
X201407200Y-88714284D01*
X201407200Y-88714284D02*
X201311961Y-88666665D01*
X201311961Y-88666665D02*
X201264342Y-88666665D01*
X201264342Y-88666665D02*
X201169104Y-88714284D01*
X201169104Y-88714284D02*
X201121485Y-88809522D01*
X201121485Y-88809522D02*
X201121485Y-88952379D01*
X201121485Y-88952379D02*
X201073866Y-89047617D01*
X201073866Y-89047617D02*
X200978628Y-89095236D01*
X200978628Y-89095236D02*
X200931009Y-89095236D01*
X200931009Y-89095236D02*
X200835771Y-89047617D01*
X200835771Y-89047617D02*
X200788152Y-88952379D01*
X200788152Y-88952379D02*
X200788152Y-88809522D01*
X200788152Y-88809522D02*
X200835771Y-88714284D01*
X201359580Y-88238093D02*
X201407200Y-88190474D01*
X201407200Y-88190474D02*
X201454819Y-88238093D01*
X201454819Y-88238093D02*
X201407200Y-88285712D01*
X201407200Y-88285712D02*
X201359580Y-88238093D01*
X201359580Y-88238093D02*
X201454819Y-88238093D01*
X200835771Y-88238093D02*
X200883390Y-88190474D01*
X200883390Y-88190474D02*
X200931009Y-88238093D01*
X200931009Y-88238093D02*
X200883390Y-88285712D01*
X200883390Y-88285712D02*
X200835771Y-88238093D01*
X200835771Y-88238093D02*
X200931009Y-88238093D01*
X201454819Y-86476189D02*
X201454819Y-87047617D01*
X201454819Y-86761903D02*
X200454819Y-86761903D01*
X200454819Y-86761903D02*
X200597676Y-86857141D01*
X200597676Y-86857141D02*
X200692914Y-86952379D01*
X200692914Y-86952379D02*
X200740533Y-87047617D01*
X201359580Y-86047617D02*
X201407200Y-85999998D01*
X201407200Y-85999998D02*
X201454819Y-86047617D01*
X201454819Y-86047617D02*
X201407200Y-86095236D01*
X201407200Y-86095236D02*
X201359580Y-86047617D01*
X201359580Y-86047617D02*
X201454819Y-86047617D01*
X200454819Y-85095237D02*
X200454819Y-85571427D01*
X200454819Y-85571427D02*
X200931009Y-85619046D01*
X200931009Y-85619046D02*
X200883390Y-85571427D01*
X200883390Y-85571427D02*
X200835771Y-85476189D01*
X200835771Y-85476189D02*
X200835771Y-85238094D01*
X200835771Y-85238094D02*
X200883390Y-85142856D01*
X200883390Y-85142856D02*
X200931009Y-85095237D01*
X200931009Y-85095237D02*
X201026247Y-85047618D01*
X201026247Y-85047618D02*
X201264342Y-85047618D01*
X201264342Y-85047618D02*
X201359580Y-85095237D01*
X201359580Y-85095237D02*
X201407200Y-85142856D01*
X201407200Y-85142856D02*
X201454819Y-85238094D01*
X201454819Y-85238094D02*
X201454819Y-85476189D01*
X201454819Y-85476189D02*
X201407200Y-85571427D01*
X201407200Y-85571427D02*
X201359580Y-85619046D01*
X200454819Y-84714284D02*
X200454819Y-84047618D01*
X200454819Y-84047618D02*
X201454819Y-84476189D01*
X201454819Y-83666665D02*
X200788152Y-83666665D01*
X200883390Y-83666665D02*
X200835771Y-83619046D01*
X200835771Y-83619046D02*
X200788152Y-83523808D01*
X200788152Y-83523808D02*
X200788152Y-83380951D01*
X200788152Y-83380951D02*
X200835771Y-83285713D01*
X200835771Y-83285713D02*
X200931009Y-83238094D01*
X200931009Y-83238094D02*
X201454819Y-83238094D01*
X200931009Y-83238094D02*
X200835771Y-83190475D01*
X200835771Y-83190475D02*
X200788152Y-83095237D01*
X200788152Y-83095237D02*
X200788152Y-82952380D01*
X200788152Y-82952380D02*
X200835771Y-82857141D01*
X200835771Y-82857141D02*
X200931009Y-82809522D01*
X200931009Y-82809522D02*
X201454819Y-82809522D01*
X201454819Y-82333332D02*
X200788152Y-82333332D01*
X200883390Y-82333332D02*
X200835771Y-82285713D01*
X200835771Y-82285713D02*
X200788152Y-82190475D01*
X200788152Y-82190475D02*
X200788152Y-82047618D01*
X200788152Y-82047618D02*
X200835771Y-81952380D01*
X200835771Y-81952380D02*
X200931009Y-81904761D01*
X200931009Y-81904761D02*
X201454819Y-81904761D01*
X200931009Y-81904761D02*
X200835771Y-81857142D01*
X200835771Y-81857142D02*
X200788152Y-81761904D01*
X200788152Y-81761904D02*
X200788152Y-81619047D01*
X200788152Y-81619047D02*
X200835771Y-81523808D01*
X200835771Y-81523808D02*
X200931009Y-81476189D01*
X200931009Y-81476189D02*
X201454819Y-81476189D01*
X85931009Y-124190476D02*
X85978628Y-124047619D01*
X85978628Y-124047619D02*
X86026247Y-124000000D01*
X86026247Y-124000000D02*
X86121485Y-123952381D01*
X86121485Y-123952381D02*
X86264342Y-123952381D01*
X86264342Y-123952381D02*
X86359580Y-124000000D01*
X86359580Y-124000000D02*
X86407200Y-124047619D01*
X86407200Y-124047619D02*
X86454819Y-124142857D01*
X86454819Y-124142857D02*
X86454819Y-124523809D01*
X86454819Y-124523809D02*
X85454819Y-124523809D01*
X85454819Y-124523809D02*
X85454819Y-124190476D01*
X85454819Y-124190476D02*
X85502438Y-124095238D01*
X85502438Y-124095238D02*
X85550057Y-124047619D01*
X85550057Y-124047619D02*
X85645295Y-124000000D01*
X85645295Y-124000000D02*
X85740533Y-124000000D01*
X85740533Y-124000000D02*
X85835771Y-124047619D01*
X85835771Y-124047619D02*
X85883390Y-124095238D01*
X85883390Y-124095238D02*
X85931009Y-124190476D01*
X85931009Y-124190476D02*
X85931009Y-124523809D01*
X86454819Y-123380952D02*
X86407200Y-123476190D01*
X86407200Y-123476190D02*
X86359580Y-123523809D01*
X86359580Y-123523809D02*
X86264342Y-123571428D01*
X86264342Y-123571428D02*
X85978628Y-123571428D01*
X85978628Y-123571428D02*
X85883390Y-123523809D01*
X85883390Y-123523809D02*
X85835771Y-123476190D01*
X85835771Y-123476190D02*
X85788152Y-123380952D01*
X85788152Y-123380952D02*
X85788152Y-123238095D01*
X85788152Y-123238095D02*
X85835771Y-123142857D01*
X85835771Y-123142857D02*
X85883390Y-123095238D01*
X85883390Y-123095238D02*
X85978628Y-123047619D01*
X85978628Y-123047619D02*
X86264342Y-123047619D01*
X86264342Y-123047619D02*
X86359580Y-123095238D01*
X86359580Y-123095238D02*
X86407200Y-123142857D01*
X86407200Y-123142857D02*
X86454819Y-123238095D01*
X86454819Y-123238095D02*
X86454819Y-123380952D01*
X86454819Y-122190476D02*
X85931009Y-122190476D01*
X85931009Y-122190476D02*
X85835771Y-122238095D01*
X85835771Y-122238095D02*
X85788152Y-122333333D01*
X85788152Y-122333333D02*
X85788152Y-122523809D01*
X85788152Y-122523809D02*
X85835771Y-122619047D01*
X86407200Y-122190476D02*
X86454819Y-122285714D01*
X86454819Y-122285714D02*
X86454819Y-122523809D01*
X86454819Y-122523809D02*
X86407200Y-122619047D01*
X86407200Y-122619047D02*
X86311961Y-122666666D01*
X86311961Y-122666666D02*
X86216723Y-122666666D01*
X86216723Y-122666666D02*
X86121485Y-122619047D01*
X86121485Y-122619047D02*
X86073866Y-122523809D01*
X86073866Y-122523809D02*
X86073866Y-122285714D01*
X86073866Y-122285714D02*
X86026247Y-122190476D01*
X86454819Y-121714285D02*
X85788152Y-121714285D01*
X85978628Y-121714285D02*
X85883390Y-121666666D01*
X85883390Y-121666666D02*
X85835771Y-121619047D01*
X85835771Y-121619047D02*
X85788152Y-121523809D01*
X85788152Y-121523809D02*
X85788152Y-121428571D01*
X86454819Y-120666666D02*
X85454819Y-120666666D01*
X86407200Y-120666666D02*
X86454819Y-120761904D01*
X86454819Y-120761904D02*
X86454819Y-120952380D01*
X86454819Y-120952380D02*
X86407200Y-121047618D01*
X86407200Y-121047618D02*
X86359580Y-121095237D01*
X86359580Y-121095237D02*
X86264342Y-121142856D01*
X86264342Y-121142856D02*
X85978628Y-121142856D01*
X85978628Y-121142856D02*
X85883390Y-121095237D01*
X85883390Y-121095237D02*
X85835771Y-121047618D01*
X85835771Y-121047618D02*
X85788152Y-120952380D01*
X85788152Y-120952380D02*
X85788152Y-120761904D01*
X85788152Y-120761904D02*
X85835771Y-120666666D01*
X85454819Y-119571427D02*
X85454819Y-118999999D01*
X86454819Y-119285713D02*
X85454819Y-119285713D01*
X86454819Y-118666665D02*
X85454819Y-118666665D01*
X86454819Y-118238094D02*
X85931009Y-118238094D01*
X85931009Y-118238094D02*
X85835771Y-118285713D01*
X85835771Y-118285713D02*
X85788152Y-118380951D01*
X85788152Y-118380951D02*
X85788152Y-118523808D01*
X85788152Y-118523808D02*
X85835771Y-118619046D01*
X85835771Y-118619046D02*
X85883390Y-118666665D01*
X86454819Y-117761903D02*
X85788152Y-117761903D01*
X85454819Y-117761903D02*
X85502438Y-117809522D01*
X85502438Y-117809522D02*
X85550057Y-117761903D01*
X85550057Y-117761903D02*
X85502438Y-117714284D01*
X85502438Y-117714284D02*
X85454819Y-117761903D01*
X85454819Y-117761903D02*
X85550057Y-117761903D01*
X86407200Y-116857142D02*
X86454819Y-116952380D01*
X86454819Y-116952380D02*
X86454819Y-117142856D01*
X86454819Y-117142856D02*
X86407200Y-117238094D01*
X86407200Y-117238094D02*
X86359580Y-117285713D01*
X86359580Y-117285713D02*
X86264342Y-117333332D01*
X86264342Y-117333332D02*
X85978628Y-117333332D01*
X85978628Y-117333332D02*
X85883390Y-117285713D01*
X85883390Y-117285713D02*
X85835771Y-117238094D01*
X85835771Y-117238094D02*
X85788152Y-117142856D01*
X85788152Y-117142856D02*
X85788152Y-116952380D01*
X85788152Y-116952380D02*
X85835771Y-116857142D01*
X86454819Y-116428570D02*
X85454819Y-116428570D01*
X86073866Y-116333332D02*
X86454819Y-116047618D01*
X85788152Y-116047618D02*
X86169104Y-116428570D01*
X85788152Y-115619046D02*
X86454819Y-115619046D01*
X85883390Y-115619046D02*
X85835771Y-115571427D01*
X85835771Y-115571427D02*
X85788152Y-115476189D01*
X85788152Y-115476189D02*
X85788152Y-115333332D01*
X85788152Y-115333332D02*
X85835771Y-115238094D01*
X85835771Y-115238094D02*
X85931009Y-115190475D01*
X85931009Y-115190475D02*
X86454819Y-115190475D01*
X86407200Y-114333332D02*
X86454819Y-114428570D01*
X86454819Y-114428570D02*
X86454819Y-114619046D01*
X86454819Y-114619046D02*
X86407200Y-114714284D01*
X86407200Y-114714284D02*
X86311961Y-114761903D01*
X86311961Y-114761903D02*
X85931009Y-114761903D01*
X85931009Y-114761903D02*
X85835771Y-114714284D01*
X85835771Y-114714284D02*
X85788152Y-114619046D01*
X85788152Y-114619046D02*
X85788152Y-114428570D01*
X85788152Y-114428570D02*
X85835771Y-114333332D01*
X85835771Y-114333332D02*
X85931009Y-114285713D01*
X85931009Y-114285713D02*
X86026247Y-114285713D01*
X86026247Y-114285713D02*
X86121485Y-114761903D01*
X86407200Y-113904760D02*
X86454819Y-113809522D01*
X86454819Y-113809522D02*
X86454819Y-113619046D01*
X86454819Y-113619046D02*
X86407200Y-113523808D01*
X86407200Y-113523808D02*
X86311961Y-113476189D01*
X86311961Y-113476189D02*
X86264342Y-113476189D01*
X86264342Y-113476189D02*
X86169104Y-113523808D01*
X86169104Y-113523808D02*
X86121485Y-113619046D01*
X86121485Y-113619046D02*
X86121485Y-113761903D01*
X86121485Y-113761903D02*
X86073866Y-113857141D01*
X86073866Y-113857141D02*
X85978628Y-113904760D01*
X85978628Y-113904760D02*
X85931009Y-113904760D01*
X85931009Y-113904760D02*
X85835771Y-113857141D01*
X85835771Y-113857141D02*
X85788152Y-113761903D01*
X85788152Y-113761903D02*
X85788152Y-113619046D01*
X85788152Y-113619046D02*
X85835771Y-113523808D01*
X86407200Y-113095236D02*
X86454819Y-112999998D01*
X86454819Y-112999998D02*
X86454819Y-112809522D01*
X86454819Y-112809522D02*
X86407200Y-112714284D01*
X86407200Y-112714284D02*
X86311961Y-112666665D01*
X86311961Y-112666665D02*
X86264342Y-112666665D01*
X86264342Y-112666665D02*
X86169104Y-112714284D01*
X86169104Y-112714284D02*
X86121485Y-112809522D01*
X86121485Y-112809522D02*
X86121485Y-112952379D01*
X86121485Y-112952379D02*
X86073866Y-113047617D01*
X86073866Y-113047617D02*
X85978628Y-113095236D01*
X85978628Y-113095236D02*
X85931009Y-113095236D01*
X85931009Y-113095236D02*
X85835771Y-113047617D01*
X85835771Y-113047617D02*
X85788152Y-112952379D01*
X85788152Y-112952379D02*
X85788152Y-112809522D01*
X85788152Y-112809522D02*
X85835771Y-112714284D01*
X86359580Y-112238093D02*
X86407200Y-112190474D01*
X86407200Y-112190474D02*
X86454819Y-112238093D01*
X86454819Y-112238093D02*
X86407200Y-112285712D01*
X86407200Y-112285712D02*
X86359580Y-112238093D01*
X86359580Y-112238093D02*
X86454819Y-112238093D01*
X85835771Y-112238093D02*
X85883390Y-112190474D01*
X85883390Y-112190474D02*
X85931009Y-112238093D01*
X85931009Y-112238093D02*
X85883390Y-112285712D01*
X85883390Y-112285712D02*
X85835771Y-112238093D01*
X85835771Y-112238093D02*
X85931009Y-112238093D01*
X86454819Y-110476189D02*
X86454819Y-111047617D01*
X86454819Y-110761903D02*
X85454819Y-110761903D01*
X85454819Y-110761903D02*
X85597676Y-110857141D01*
X85597676Y-110857141D02*
X85692914Y-110952379D01*
X85692914Y-110952379D02*
X85740533Y-111047617D01*
X86359580Y-110047617D02*
X86407200Y-109999998D01*
X86407200Y-109999998D02*
X86454819Y-110047617D01*
X86454819Y-110047617D02*
X86407200Y-110095236D01*
X86407200Y-110095236D02*
X86359580Y-110047617D01*
X86359580Y-110047617D02*
X86454819Y-110047617D01*
X85454819Y-109095237D02*
X85454819Y-109571427D01*
X85454819Y-109571427D02*
X85931009Y-109619046D01*
X85931009Y-109619046D02*
X85883390Y-109571427D01*
X85883390Y-109571427D02*
X85835771Y-109476189D01*
X85835771Y-109476189D02*
X85835771Y-109238094D01*
X85835771Y-109238094D02*
X85883390Y-109142856D01*
X85883390Y-109142856D02*
X85931009Y-109095237D01*
X85931009Y-109095237D02*
X86026247Y-109047618D01*
X86026247Y-109047618D02*
X86264342Y-109047618D01*
X86264342Y-109047618D02*
X86359580Y-109095237D01*
X86359580Y-109095237D02*
X86407200Y-109142856D01*
X86407200Y-109142856D02*
X86454819Y-109238094D01*
X86454819Y-109238094D02*
X86454819Y-109476189D01*
X86454819Y-109476189D02*
X86407200Y-109571427D01*
X86407200Y-109571427D02*
X86359580Y-109619046D01*
X85454819Y-108714284D02*
X85454819Y-108047618D01*
X85454819Y-108047618D02*
X86454819Y-108476189D01*
X86454819Y-107666665D02*
X85788152Y-107666665D01*
X85883390Y-107666665D02*
X85835771Y-107619046D01*
X85835771Y-107619046D02*
X85788152Y-107523808D01*
X85788152Y-107523808D02*
X85788152Y-107380951D01*
X85788152Y-107380951D02*
X85835771Y-107285713D01*
X85835771Y-107285713D02*
X85931009Y-107238094D01*
X85931009Y-107238094D02*
X86454819Y-107238094D01*
X85931009Y-107238094D02*
X85835771Y-107190475D01*
X85835771Y-107190475D02*
X85788152Y-107095237D01*
X85788152Y-107095237D02*
X85788152Y-106952380D01*
X85788152Y-106952380D02*
X85835771Y-106857141D01*
X85835771Y-106857141D02*
X85931009Y-106809522D01*
X85931009Y-106809522D02*
X86454819Y-106809522D01*
X86454819Y-106333332D02*
X85788152Y-106333332D01*
X85883390Y-106333332D02*
X85835771Y-106285713D01*
X85835771Y-106285713D02*
X85788152Y-106190475D01*
X85788152Y-106190475D02*
X85788152Y-106047618D01*
X85788152Y-106047618D02*
X85835771Y-105952380D01*
X85835771Y-105952380D02*
X85931009Y-105904761D01*
X85931009Y-105904761D02*
X86454819Y-105904761D01*
X85931009Y-105904761D02*
X85835771Y-105857142D01*
X85835771Y-105857142D02*
X85788152Y-105761904D01*
X85788152Y-105761904D02*
X85788152Y-105619047D01*
X85788152Y-105619047D02*
X85835771Y-105523808D01*
X85835771Y-105523808D02*
X85931009Y-105476189D01*
X85931009Y-105476189D02*
X86454819Y-105476189D01*
M02*
