%TF.GenerationSoftware,KiCad,Pcbnew,7.0.7*%
%TF.CreationDate,2023-11-03T16:15:28+00:00*%
%TF.ProjectId,RXLNA,52584c4e-412e-46b6-9963-61645f706362,rev?*%
%TF.SameCoordinates,Original*%
%TF.FileFunction,Copper,L4,Bot*%
%TF.FilePolarity,Positive*%
%FSLAX46Y46*%
G04 Gerber Fmt 4.6, Leading zero omitted, Abs format (unit mm)*
G04 Created by KiCad (PCBNEW 7.0.7) date 2023-11-03 16:15:28*
%MOMM*%
%LPD*%
G01*
G04 APERTURE LIST*
G04 Aperture macros list*
%AMRoundRect*
0 Rectangle with rounded corners*
0 $1 Rounding radius*
0 $2 $3 $4 $5 $6 $7 $8 $9 X,Y pos of 4 corners*
0 Add a 4 corners polygon primitive as box body*
4,1,4,$2,$3,$4,$5,$6,$7,$8,$9,$2,$3,0*
0 Add four circle primitives for the rounded corners*
1,1,$1+$1,$2,$3*
1,1,$1+$1,$4,$5*
1,1,$1+$1,$6,$7*
1,1,$1+$1,$8,$9*
0 Add four rect primitives between the rounded corners*
20,1,$1+$1,$2,$3,$4,$5,0*
20,1,$1+$1,$4,$5,$6,$7,0*
20,1,$1+$1,$6,$7,$8,$9,0*
20,1,$1+$1,$8,$9,$2,$3,0*%
%AMFreePoly0*
4,1,9,3.862500,-0.866500,0.737500,-0.866500,0.737500,-0.450000,-0.737500,-0.450000,-0.737500,0.450000,0.737500,0.450000,0.737500,0.866500,3.862500,0.866500,3.862500,-0.866500,3.862500,-0.866500,$1*%
G04 Aperture macros list end*
%TA.AperFunction,ComponentPad*%
%ADD10C,2.000000*%
%TD*%
%TA.AperFunction,ComponentPad*%
%ADD11C,3.000000*%
%TD*%
%TA.AperFunction,ComponentPad*%
%ADD12C,1.000000*%
%TD*%
%TA.AperFunction,ComponentPad*%
%ADD13C,2.500000*%
%TD*%
%TA.AperFunction,ComponentPad*%
%ADD14R,1.700000X1.700000*%
%TD*%
%TA.AperFunction,ComponentPad*%
%ADD15O,1.700000X1.700000*%
%TD*%
%TA.AperFunction,ComponentPad*%
%ADD16C,5.200000*%
%TD*%
%TA.AperFunction,SMDPad,CuDef*%
%ADD17RoundRect,0.250000X-0.450000X0.350000X-0.450000X-0.350000X0.450000X-0.350000X0.450000X0.350000X0*%
%TD*%
%TA.AperFunction,SMDPad,CuDef*%
%ADD18RoundRect,0.250000X0.475000X-0.250000X0.475000X0.250000X-0.475000X0.250000X-0.475000X-0.250000X0*%
%TD*%
%TA.AperFunction,SMDPad,CuDef*%
%ADD19R,2.000000X1.500000*%
%TD*%
%TA.AperFunction,SMDPad,CuDef*%
%ADD20R,2.000000X3.800000*%
%TD*%
%TA.AperFunction,SMDPad,CuDef*%
%ADD21RoundRect,0.250000X0.337500X0.475000X-0.337500X0.475000X-0.337500X-0.475000X0.337500X-0.475000X0*%
%TD*%
%TA.AperFunction,SMDPad,CuDef*%
%ADD22RoundRect,0.250000X-0.475000X0.250000X-0.475000X-0.250000X0.475000X-0.250000X0.475000X0.250000X0*%
%TD*%
%TA.AperFunction,SMDPad,CuDef*%
%ADD23RoundRect,0.237500X-0.300000X-0.237500X0.300000X-0.237500X0.300000X0.237500X-0.300000X0.237500X0*%
%TD*%
%TA.AperFunction,SMDPad,CuDef*%
%ADD24RoundRect,0.250000X0.450000X-0.350000X0.450000X0.350000X-0.450000X0.350000X-0.450000X-0.350000X0*%
%TD*%
%TA.AperFunction,SMDPad,CuDef*%
%ADD25R,0.650000X0.400000*%
%TD*%
%TA.AperFunction,SMDPad,CuDef*%
%ADD26R,3.600000X1.270000*%
%TD*%
%TA.AperFunction,SMDPad,CuDef*%
%ADD27R,4.200000X1.350000*%
%TD*%
%TA.AperFunction,SMDPad,CuDef*%
%ADD28RoundRect,0.237500X0.300000X0.237500X-0.300000X0.237500X-0.300000X-0.237500X0.300000X-0.237500X0*%
%TD*%
%TA.AperFunction,SMDPad,CuDef*%
%ADD29RoundRect,0.250000X-0.250000X-0.475000X0.250000X-0.475000X0.250000X0.475000X-0.250000X0.475000X0*%
%TD*%
%TA.AperFunction,SMDPad,CuDef*%
%ADD30RoundRect,0.250000X-0.350000X-0.450000X0.350000X-0.450000X0.350000X0.450000X-0.350000X0.450000X0*%
%TD*%
%TA.AperFunction,SMDPad,CuDef*%
%ADD31RoundRect,0.250000X0.250000X0.475000X-0.250000X0.475000X-0.250000X-0.475000X0.250000X-0.475000X0*%
%TD*%
%TA.AperFunction,SMDPad,CuDef*%
%ADD32RoundRect,0.250000X0.475000X-0.337500X0.475000X0.337500X-0.475000X0.337500X-0.475000X-0.337500X0*%
%TD*%
%TA.AperFunction,SMDPad,CuDef*%
%ADD33RoundRect,0.237500X0.237500X-0.300000X0.237500X0.300000X-0.237500X0.300000X-0.237500X-0.300000X0*%
%TD*%
%TA.AperFunction,SMDPad,CuDef*%
%ADD34RoundRect,0.250000X0.350000X0.450000X-0.350000X0.450000X-0.350000X-0.450000X0.350000X-0.450000X0*%
%TD*%
%TA.AperFunction,SMDPad,CuDef*%
%ADD35RoundRect,0.250000X-0.475000X0.337500X-0.475000X-0.337500X0.475000X-0.337500X0.475000X0.337500X0*%
%TD*%
%TA.AperFunction,SMDPad,CuDef*%
%ADD36RoundRect,0.250000X-0.275000X-0.350000X0.275000X-0.350000X0.275000X0.350000X-0.275000X0.350000X0*%
%TD*%
%TA.AperFunction,SMDPad,CuDef*%
%ADD37RoundRect,0.150000X0.150000X-0.587500X0.150000X0.587500X-0.150000X0.587500X-0.150000X-0.587500X0*%
%TD*%
%TA.AperFunction,SMDPad,CuDef*%
%ADD38RoundRect,0.237500X-0.237500X0.300000X-0.237500X-0.300000X0.237500X-0.300000X0.237500X0.300000X0*%
%TD*%
%TA.AperFunction,SMDPad,CuDef*%
%ADD39RoundRect,0.150000X0.875000X0.150000X-0.875000X0.150000X-0.875000X-0.150000X0.875000X-0.150000X0*%
%TD*%
%TA.AperFunction,SMDPad,CuDef*%
%ADD40R,0.900000X1.300000*%
%TD*%
%TA.AperFunction,SMDPad,CuDef*%
%ADD41FreePoly0,90.000000*%
%TD*%
%TA.AperFunction,ViaPad*%
%ADD42C,0.800000*%
%TD*%
%TA.AperFunction,Conductor*%
%ADD43C,0.500000*%
%TD*%
%TA.AperFunction,Conductor*%
%ADD44C,0.400000*%
%TD*%
%TA.AperFunction,Conductor*%
%ADD45C,0.300000*%
%TD*%
%TA.AperFunction,Conductor*%
%ADD46C,0.200000*%
%TD*%
G04 APERTURE END LIST*
D10*
%TO.P,L401,1,1*%
%TO.N,Net-(C416-Pad1)*%
X175810000Y-83190000D03*
%TO.P,L401,2,2*%
%TO.N,Net-(C418-Pad1)*%
X168190000Y-90810000D03*
%TD*%
D11*
%TO.P,L403,1,1*%
%TO.N,Net-(C426-Pad1)*%
X127380000Y-113000000D03*
D12*
%TO.P,L403,2,2*%
%TO.N,GND*%
X126190489Y-120392058D03*
X143809511Y-105607942D03*
X126190489Y-105607942D03*
X140750000Y-103040708D03*
X136996954Y-101674711D03*
X146325289Y-114996954D03*
X143809511Y-120392058D03*
X124193535Y-116933232D03*
X144959292Y-107250000D03*
X133003046Y-101674711D03*
X146325289Y-111003046D03*
X127607942Y-104190489D03*
X127607942Y-121809511D03*
X131066768Y-102193535D03*
X129250000Y-122959292D03*
X123674711Y-111003046D03*
X138933232Y-102193535D03*
D11*
X135000000Y-103800000D03*
D12*
X142392058Y-104190489D03*
X129250000Y-103040708D03*
X140750000Y-122959292D03*
X145806465Y-109066768D03*
X138933232Y-123806465D03*
X131066768Y-123806465D03*
X145806465Y-116933232D03*
X125040708Y-118750000D03*
X142392058Y-121809511D03*
X124193535Y-109066768D03*
X144959292Y-118750000D03*
X125040708Y-107250000D03*
X133003046Y-124325289D03*
X136996954Y-124325289D03*
X123674711Y-114996954D03*
%TD*%
D13*
%TO.P,C439,1*%
%TO.N,Net-(C438-Pad2)*%
X188000000Y-135240000D03*
X193070000Y-130160000D03*
%TO.P,C439,2*%
%TO.N,GND*%
X188000000Y-130160000D03*
%TD*%
%TO.P,C429,1*%
%TO.N,Net-(C428-Pad2)*%
X111800000Y-109280000D03*
X116870000Y-104200000D03*
%TO.P,C429,2*%
%TO.N,GND*%
X111800000Y-104200000D03*
%TD*%
D11*
%TO.P,L406,1,1*%
%TO.N,Net-(C441-Pad1)*%
X173920000Y-113000000D03*
D12*
%TO.P,L406,2,2*%
%TO.N,GND*%
X162366768Y-102193535D03*
X160550000Y-122959292D03*
X155493535Y-109066768D03*
X156340708Y-107250000D03*
D11*
X166300000Y-122200000D03*
D12*
X177106465Y-116933232D03*
X175109511Y-120392058D03*
X164303046Y-101674711D03*
X176259292Y-107250000D03*
X156340708Y-118750000D03*
X176259292Y-118750000D03*
X173692058Y-104190489D03*
X158907942Y-104190489D03*
X172050000Y-122959292D03*
X168296954Y-101674711D03*
X157490489Y-120392058D03*
X172050000Y-103040708D03*
X173692058Y-121809511D03*
X160550000Y-103040708D03*
X177106465Y-109066768D03*
X154974711Y-111003046D03*
X168296954Y-124325289D03*
X154974711Y-114996954D03*
X175109511Y-105607942D03*
X170233232Y-102193535D03*
X162366768Y-123806465D03*
X177625289Y-111003046D03*
X177625289Y-114996954D03*
X155493535Y-116933232D03*
X164303046Y-124325289D03*
X157490489Y-105607942D03*
X158907942Y-121809511D03*
X170233232Y-123806465D03*
%TD*%
D13*
%TO.P,C444,1*%
%TO.N,Net-(C443-Pad2)*%
X193730000Y-104860000D03*
X188660000Y-109940000D03*
%TO.P,C444,2*%
%TO.N,GND*%
X188660000Y-104860000D03*
%TD*%
D14*
%TO.P,J404,1,Pin_1*%
%TO.N,GND*%
X118300000Y-63900000D03*
D15*
%TO.P,J404,2,Pin_2*%
X120840000Y-63900000D03*
%TO.P,J404,3,Pin_3*%
%TO.N,+12V*%
X123380000Y-63900000D03*
%TO.P,J404,4,Pin_4*%
%TO.N,GND*%
X125920000Y-63900000D03*
%TO.P,J404,5,Pin_5*%
%TO.N,/PIN Switch/SCL_Slave*%
X128460000Y-63900000D03*
%TO.P,J404,6,Pin_6*%
%TO.N,/PIN Switch/SDA_Slave*%
X131000000Y-63900000D03*
%TD*%
D11*
%TO.P,L405,1,1*%
%TO.N,Net-(C436-Pad1)*%
X174620000Y-142300000D03*
D12*
%TO.P,L405,2,2*%
%TO.N,GND*%
X168996954Y-130974711D03*
X176959292Y-148050000D03*
X175809511Y-134907942D03*
X161250000Y-152259292D03*
X178325289Y-144296954D03*
X156193535Y-138366768D03*
X176959292Y-136550000D03*
X177806465Y-138366768D03*
X155674711Y-140303046D03*
X172750000Y-132340708D03*
X159607942Y-151109511D03*
X174392058Y-133490489D03*
D11*
X167000000Y-151500000D03*
D12*
X158190489Y-149692058D03*
X170933232Y-153106465D03*
X175809511Y-149692058D03*
X155674711Y-144296954D03*
X157040708Y-148050000D03*
X161250000Y-132340708D03*
X158190489Y-134907942D03*
X165003046Y-130974711D03*
X178325289Y-140303046D03*
X159607942Y-133490489D03*
X174392058Y-151109511D03*
X170933232Y-131493535D03*
X177806465Y-146233232D03*
X156193535Y-146233232D03*
X168996954Y-153625289D03*
X163066768Y-131493535D03*
X165003046Y-153625289D03*
X157040708Y-136550000D03*
X172750000Y-152259292D03*
X163066768Y-153106465D03*
%TD*%
D11*
%TO.P,L404,1,1*%
%TO.N,Net-(C431-Pad1)*%
X127580000Y-142700000D03*
D12*
%TO.P,L404,2,2*%
%TO.N,GND*%
X124393535Y-138766768D03*
X146006465Y-146633232D03*
X146525289Y-144696954D03*
X131266768Y-153506465D03*
X129450000Y-152659292D03*
X145159292Y-136950000D03*
X124393535Y-146633232D03*
X127807942Y-151509511D03*
X144009511Y-150092058D03*
X127807942Y-133890489D03*
D11*
X135200000Y-133500000D03*
D12*
X125240708Y-148450000D03*
X139133232Y-131893535D03*
X133203046Y-154025289D03*
X146525289Y-140703046D03*
X123874711Y-140703046D03*
X140950000Y-152659292D03*
X142592058Y-151509511D03*
X145159292Y-148450000D03*
X131266768Y-131893535D03*
X133203046Y-131374711D03*
X129450000Y-132740708D03*
X137196954Y-131374711D03*
X126390489Y-150092058D03*
X139133232Y-153506465D03*
X126390489Y-135307942D03*
X140950000Y-132740708D03*
X125240708Y-136950000D03*
X137196954Y-154025289D03*
X142592058Y-133890489D03*
X123874711Y-144696954D03*
X146006465Y-138766768D03*
X144009511Y-135307942D03*
%TD*%
D13*
%TO.P,C434,1*%
%TO.N,Net-(C433-Pad2)*%
X112030000Y-134780000D03*
X117100000Y-129700000D03*
%TO.P,C434,2*%
%TO.N,GND*%
X112030000Y-129700000D03*
%TD*%
D16*
%TO.P,J405,1,Pin_1*%
%TO.N,GND*%
X193000000Y-151000000D03*
X193000000Y-65000000D03*
X107000000Y-151000000D03*
X107000000Y-65000000D03*
%TD*%
D17*
%TO.P,R406,1*%
%TO.N,+3.3V*%
X129000000Y-69120000D03*
%TO.P,R406,2*%
%TO.N,Net-(U406-A0)*%
X129000000Y-71120000D03*
%TD*%
D18*
%TO.P,C404,1*%
%TO.N,Net-(U402-J2)*%
X116000000Y-89000000D03*
%TO.P,C404,2*%
%TO.N,Net-(U401-J2)*%
X116000000Y-87100000D03*
%TD*%
D19*
%TO.P,U405,1,GND*%
%TO.N,GND*%
X144650000Y-65460000D03*
D20*
%TO.P,U405,2,VO*%
%TO.N,+3.3V*%
X150950000Y-63160000D03*
D19*
X144650000Y-63160000D03*
%TO.P,U405,3,VI*%
%TO.N,+12V*%
X144650000Y-60860000D03*
%TD*%
D21*
%TO.P,C424,1*%
%TO.N,Net-(U409-J1)*%
X193100000Y-89700000D03*
%TO.P,C424,2*%
%TO.N,Rx_LNA_OP*%
X191025000Y-89700000D03*
%TD*%
D17*
%TO.P,R408,1*%
%TO.N,+3.3V*%
X133000000Y-69020000D03*
%TO.P,R408,2*%
%TO.N,Net-(U406-A1)*%
X133000000Y-71020000D03*
%TD*%
D19*
%TO.P,U403,1,GND*%
%TO.N,GND*%
X157400000Y-65700000D03*
D20*
%TO.P,U403,2,VO*%
%TO.N,+5V*%
X163700000Y-63400000D03*
D19*
X157400000Y-63400000D03*
%TO.P,U403,3,VI*%
%TO.N,+12V*%
X157400000Y-61100000D03*
%TD*%
D18*
%TO.P,C416,1*%
%TO.N,Net-(C416-Pad1)*%
X174000000Y-77950000D03*
%TO.P,C416,2*%
%TO.N,/LNA/+25dBm max*%
X174000000Y-76050000D03*
%TD*%
D22*
%TO.P,C421,1*%
%TO.N,Net-(C421-Pad1)*%
X151250000Y-84140000D03*
%TO.P,C421,2*%
%TO.N,Net-(C421-Pad2)*%
X151250000Y-86040000D03*
%TD*%
D23*
%TO.P,C442,1*%
%TO.N,Net-(C441-Pad1)*%
X190000000Y-124000000D03*
%TO.P,C442,2*%
%TO.N,GND*%
X191725000Y-124000000D03*
%TD*%
D24*
%TO.P,R403,1*%
%TO.N,Net-(R402-Pad1)*%
X113030000Y-72120000D03*
%TO.P,R403,2*%
%TO.N,GND*%
X113030000Y-70120000D03*
%TD*%
D17*
%TO.P,R411,1*%
%TO.N,Net-(U406-A2)*%
X136000000Y-74000000D03*
%TO.P,R411,2*%
%TO.N,GND*%
X136000000Y-76000000D03*
%TD*%
%TO.P,R414,1*%
%TO.N,Net-(C423-Pad2)*%
X160700000Y-72200000D03*
%TO.P,R414,2*%
%TO.N,GND*%
X160700000Y-74200000D03*
%TD*%
D21*
%TO.P,C411,1*%
%TO.N,+3.3V*%
X122847500Y-76000000D03*
%TO.P,C411,2*%
%TO.N,GND*%
X120772500Y-76000000D03*
%TD*%
D25*
%TO.P,U402,1,J3*%
%TO.N,Net-(U402-J3)*%
X115050000Y-92650000D03*
%TO.P,U402,2,GND*%
%TO.N,GND*%
X115050000Y-92000000D03*
%TO.P,U402,3,J2*%
%TO.N,Net-(U402-J2)*%
X115050000Y-91350000D03*
%TO.P,U402,4,V1*%
%TO.N,/PIN Switch/Tx_Enable*%
X116950000Y-91350000D03*
%TO.P,U402,5,J1*%
%TO.N,BPF_In*%
X116950000Y-92000000D03*
%TO.P,U402,6,V2*%
%TO.N,/PIN Switch/Rx_Enable*%
X116950000Y-92650000D03*
%TD*%
D21*
%TO.P,C413,1*%
%TO.N,RxIP*%
X192075000Y-77000000D03*
%TO.P,C413,2*%
%TO.N,/LNA/PIN Limiter*%
X190000000Y-77000000D03*
%TD*%
D26*
%TO.P,J407,1,In*%
%TO.N,RxIP*%
X197537500Y-75000000D03*
D27*
%TO.P,J407,2,Ext*%
%TO.N,GND*%
X197337500Y-72175000D03*
X197337500Y-77825000D03*
%TD*%
D28*
%TO.P,C435,1*%
%TO.N,Net-(C435-Pad1)*%
X151862500Y-144000000D03*
%TO.P,C435,2*%
%TO.N,Net-(C431-Pad1)*%
X150137500Y-144000000D03*
%TD*%
D25*
%TO.P,U401,1,J3*%
%TO.N,Net-(U401-J3)*%
X116550000Y-84050000D03*
%TO.P,U401,2,GND*%
%TO.N,GND*%
X116550000Y-84700000D03*
%TO.P,U401,3,J2*%
%TO.N,Net-(U401-J2)*%
X116550000Y-85350000D03*
%TO.P,U401,4,V1*%
%TO.N,/PIN Switch/Tx_Enable*%
X114650000Y-85350000D03*
%TO.P,U401,5,J1*%
%TO.N,Net-(U401-J1)*%
X114650000Y-84700000D03*
%TO.P,U401,6,V2*%
%TO.N,/PIN Switch/Rx_Enable*%
X114650000Y-84050000D03*
%TD*%
D26*
%TO.P,J401,1,In*%
%TO.N,/PIN Switch/LimeRx*%
X102000000Y-94400000D03*
D27*
%TO.P,J401,2,Ext*%
%TO.N,GND*%
X102200000Y-91575000D03*
X102200000Y-97225000D03*
%TD*%
D17*
%TO.P,R409,1*%
%TO.N,Net-(U406-A1)*%
X133000000Y-73320000D03*
%TO.P,R409,2*%
%TO.N,GND*%
X133000000Y-75320000D03*
%TD*%
D28*
%TO.P,C427,1*%
%TO.N,Net-(C426-Pad1)*%
X114862500Y-124000000D03*
%TO.P,C427,2*%
%TO.N,GND*%
X113137500Y-124000000D03*
%TD*%
D26*
%TO.P,J403,1,In*%
%TO.N,Net-(J403-In)*%
X102382500Y-74930000D03*
D27*
%TO.P,J403,2,Ext*%
%TO.N,GND*%
X102582500Y-72105000D03*
X102582500Y-77755000D03*
%TD*%
D29*
%TO.P,C418,1*%
%TO.N,Net-(C418-Pad1)*%
X162500000Y-84300000D03*
%TO.P,C418,2*%
%TO.N,GND*%
X164400000Y-84300000D03*
%TD*%
D30*
%TO.P,R416,1*%
%TO.N,Net-(C421-Pad2)*%
X150400000Y-88900000D03*
%TO.P,R416,2*%
%TO.N,Net-(C422-Pad2)*%
X152400000Y-88900000D03*
%TD*%
D24*
%TO.P,R401,1*%
%TO.N,Net-(C403-Pad2)*%
X116840000Y-72120000D03*
%TO.P,R401,2*%
%TO.N,GND*%
X116840000Y-70120000D03*
%TD*%
D31*
%TO.P,C415,1*%
%TO.N,Net-(U407-J2)*%
X169600000Y-72100000D03*
%TO.P,C415,2*%
%TO.N,Net-(C415-Pad2)*%
X167700000Y-72100000D03*
%TD*%
D25*
%TO.P,U407,1,J3*%
%TO.N,/LNA/+25dBm max*%
X176100000Y-75000000D03*
%TO.P,U407,2,GND*%
%TO.N,GND*%
X176100000Y-74350000D03*
%TO.P,U407,3,J2*%
%TO.N,Net-(U407-J2)*%
X176100000Y-73700000D03*
%TO.P,U407,4,V1*%
%TO.N,LNA_N*%
X178000000Y-73700000D03*
%TO.P,U407,5,J1*%
%TO.N,Net-(U407-J1)*%
X178000000Y-74350000D03*
%TO.P,U407,6,V2*%
%TO.N,LNA_P*%
X178000000Y-75000000D03*
%TD*%
%TO.P,U404,1,J3*%
%TO.N,Net-(U404-J3)*%
X185150000Y-94050000D03*
%TO.P,U404,2,GND*%
%TO.N,GND*%
X185150000Y-94700000D03*
%TO.P,U404,3,J2*%
%TO.N,Net-(U404-J2)*%
X185150000Y-95350000D03*
%TO.P,U404,4,V1*%
%TO.N,/PIN Switch/Tx_P*%
X183250000Y-95350000D03*
%TO.P,U404,5,J1*%
%TO.N,BPF_Out*%
X183250000Y-94700000D03*
%TO.P,U404,6,V2*%
%TO.N,/PIN Switch/Tx_N*%
X183250000Y-94050000D03*
%TD*%
D32*
%TO.P,C409,1*%
%TO.N,+3.3V*%
X139962500Y-71037500D03*
%TO.P,C409,2*%
%TO.N,GND*%
X139962500Y-68962500D03*
%TD*%
D33*
%TO.P,C438,1*%
%TO.N,Net-(C436-Pad1)*%
X188000000Y-140862500D03*
%TO.P,C438,2*%
%TO.N,Net-(C438-Pad2)*%
X188000000Y-139137500D03*
%TD*%
D29*
%TO.P,C419,1*%
%TO.N,Net-(C419-Pad1)*%
X156050000Y-83000000D03*
%TO.P,C419,2*%
%TO.N,Net-(C418-Pad1)*%
X157950000Y-83000000D03*
%TD*%
D32*
%TO.P,C423,1*%
%TO.N,Net-(U409-J2)*%
X156100000Y-74175000D03*
%TO.P,C423,2*%
%TO.N,Net-(C423-Pad2)*%
X156100000Y-72100000D03*
%TD*%
D24*
%TO.P,R405,1*%
%TO.N,Net-(J403-In)*%
X109220000Y-72120000D03*
%TO.P,R405,2*%
%TO.N,GND*%
X109220000Y-70120000D03*
%TD*%
D34*
%TO.P,R415,1*%
%TO.N,Net-(C421-Pad2)*%
X148000000Y-89000000D03*
%TO.P,R415,2*%
%TO.N,GND*%
X146000000Y-89000000D03*
%TD*%
D18*
%TO.P,C403,1*%
%TO.N,Net-(U401-J3)*%
X116900000Y-80350000D03*
%TO.P,C403,2*%
%TO.N,Net-(C403-Pad2)*%
X116900000Y-78450000D03*
%TD*%
D35*
%TO.P,C407,1*%
%TO.N,/PIN Switch/Tx_N*%
X139000000Y-89962500D03*
%TO.P,C407,2*%
%TO.N,GND*%
X139000000Y-92037500D03*
%TD*%
D34*
%TO.P,R417,1*%
%TO.N,Net-(C422-Pad2)*%
X153000000Y-92300000D03*
%TO.P,R417,2*%
%TO.N,GND*%
X151000000Y-92300000D03*
%TD*%
D26*
%TO.P,J406,1,In*%
%TO.N,/PIN Switch/Tx_Drive*%
X197537500Y-93980000D03*
D27*
%TO.P,J406,2,Ext*%
%TO.N,GND*%
X197337500Y-91155000D03*
X197337500Y-96805000D03*
%TD*%
D33*
%TO.P,C431,1*%
%TO.N,Net-(C431-Pad1)*%
X118000000Y-139862500D03*
%TO.P,C431,2*%
%TO.N,Net-(C430-Pad1)*%
X118000000Y-138137500D03*
%TD*%
D25*
%TO.P,U409,1,J3*%
%TO.N,Net-(U409-J3)*%
X191000000Y-86000000D03*
%TO.P,U409,2,GND*%
%TO.N,GND*%
X191000000Y-85350000D03*
%TO.P,U409,3,J2*%
%TO.N,Net-(U409-J2)*%
X191000000Y-84700000D03*
%TO.P,U409,4,V1*%
%TO.N,LNA_N*%
X192900000Y-84700000D03*
%TO.P,U409,5,J1*%
%TO.N,Net-(U409-J1)*%
X192900000Y-85350000D03*
%TO.P,U409,6,V2*%
%TO.N,LNA_P*%
X192900000Y-86000000D03*
%TD*%
D29*
%TO.P,C412,1*%
%TO.N,Net-(U404-J2)*%
X186800000Y-89700000D03*
%TO.P,C412,2*%
%TO.N,Rx_LNA_OP*%
X188700000Y-89700000D03*
%TD*%
D30*
%TO.P,R402,1*%
%TO.N,Net-(R402-Pad1)*%
X114840000Y-74760000D03*
%TO.P,R402,2*%
%TO.N,Net-(C403-Pad2)*%
X116840000Y-74760000D03*
%TD*%
D36*
%TO.P,L402,1,1*%
%TO.N,+5V*%
X144900000Y-74930000D03*
%TO.P,L402,2,2*%
%TO.N,Net-(C421-Pad1)*%
X147200000Y-74930000D03*
%TD*%
D17*
%TO.P,R410,1*%
%TO.N,+3.3V*%
X136420000Y-69000000D03*
%TO.P,R410,2*%
%TO.N,Net-(U406-A2)*%
X136420000Y-71000000D03*
%TD*%
D37*
%TO.P,D401,1,K*%
%TO.N,/LNA/PIN Limiter*%
X188950000Y-72937500D03*
%TO.P,D401,2,K*%
X187050000Y-72937500D03*
%TO.P,D401,3,A*%
%TO.N,GND*%
X188000000Y-71062500D03*
%TD*%
D29*
%TO.P,C410,1*%
%TO.N,Net-(U404-J3)*%
X190050000Y-94100000D03*
%TO.P,C410,2*%
%TO.N,/PIN Switch/Tx_Drive*%
X191950000Y-94100000D03*
%TD*%
D22*
%TO.P,C420,1*%
%TO.N,+5V*%
X145000000Y-79050000D03*
%TO.P,C420,2*%
%TO.N,GND*%
X145000000Y-80950000D03*
%TD*%
D38*
%TO.P,C446,1*%
%TO.N,BPF_Out*%
X190300000Y-98700000D03*
%TO.P,C446,2*%
%TO.N,Net-(C445-Pad1)*%
X190300000Y-100425000D03*
%TD*%
D35*
%TO.P,C405,1*%
%TO.N,/PIN Switch/Rx_Enable*%
X127000000Y-90805000D03*
%TO.P,C405,2*%
%TO.N,GND*%
X127000000Y-92880000D03*
%TD*%
D39*
%TO.P,U406,1,A0*%
%TO.N,Net-(U406-A0)*%
X135460000Y-79375000D03*
%TO.P,U406,2,A1*%
%TO.N,Net-(U406-A1)*%
X135460000Y-80645000D03*
%TO.P,U406,3,A2*%
%TO.N,Net-(U406-A2)*%
X135460000Y-81915000D03*
%TO.P,U406,4,P0*%
%TO.N,LNA_N*%
X135460000Y-83185000D03*
%TO.P,U406,5,P1*%
%TO.N,LNA_P*%
X135460000Y-84455000D03*
%TO.P,U406,6,P2*%
%TO.N,/PIN Switch/Tx_P*%
X135460000Y-85725000D03*
%TO.P,U406,7,P3*%
%TO.N,/PIN Switch/Tx_N*%
X135460000Y-86995000D03*
%TO.P,U406,8,VSS*%
%TO.N,GND*%
X135460000Y-88265000D03*
%TO.P,U406,9,P4*%
%TO.N,/PIN Switch/Tx_Enable*%
X126160000Y-88265000D03*
%TO.P,U406,10,P5*%
%TO.N,/PIN Switch/Rx_Enable*%
X126160000Y-86995000D03*
%TO.P,U406,11,P6*%
%TO.N,unconnected-(U406-P6-Pad11)*%
X126160000Y-85725000D03*
%TO.P,U406,12,P7*%
%TO.N,unconnected-(U406-P7-Pad12)*%
X126160000Y-84455000D03*
%TO.P,U406,13,~{INT}*%
%TO.N,unconnected-(U406-~{INT}-Pad13)*%
X126160000Y-83185000D03*
%TO.P,U406,14,SCL*%
%TO.N,/PIN Switch/SCL_Slave*%
X126160000Y-81915000D03*
%TO.P,U406,15,SDA*%
%TO.N,/PIN Switch/SDA_Slave*%
X126160000Y-80645000D03*
%TO.P,U406,16,VDD*%
%TO.N,+3.3V*%
X126160000Y-79375000D03*
%TD*%
D33*
%TO.P,C425,1*%
%TO.N,Net-(C425-Pad1)*%
X114000000Y-97862500D03*
%TO.P,C425,2*%
%TO.N,BPF_In*%
X114000000Y-96137500D03*
%TD*%
D21*
%TO.P,C422,1*%
%TO.N,Net-(U409-J3)*%
X157247500Y-92000000D03*
%TO.P,C422,2*%
%TO.N,Net-(C422-Pad2)*%
X155172500Y-92000000D03*
%TD*%
D33*
%TO.P,C443,1*%
%TO.N,Net-(C441-Pad1)*%
X189000000Y-116000000D03*
%TO.P,C443,2*%
%TO.N,Net-(C443-Pad2)*%
X189000000Y-114275000D03*
%TD*%
D26*
%TO.P,J402,1,In*%
%TO.N,/PIN Switch/LimeTx*%
X102000000Y-114000000D03*
D27*
%TO.P,J402,2,Ext*%
%TO.N,GND*%
X102200000Y-111175000D03*
X102200000Y-116825000D03*
%TD*%
D34*
%TO.P,R413,1*%
%TO.N,Net-(C415-Pad2)*%
X165200000Y-72100000D03*
%TO.P,R413,2*%
%TO.N,Net-(C423-Pad2)*%
X163200000Y-72100000D03*
%TD*%
D35*
%TO.P,C408,1*%
%TO.N,/PIN Switch/Tx_P*%
X144000000Y-83962500D03*
%TO.P,C408,2*%
%TO.N,GND*%
X144000000Y-86037500D03*
%TD*%
%TO.P,C406,1*%
%TO.N,/PIN Switch/Tx_Enable*%
X123000000Y-89962500D03*
%TO.P,C406,2*%
%TO.N,GND*%
X123000000Y-92037500D03*
%TD*%
D22*
%TO.P,C402,1*%
%TO.N,Net-(U402-J3)*%
X106950000Y-104050000D03*
%TO.P,C402,2*%
%TO.N,/PIN Switch/LimeTx*%
X106950000Y-105950000D03*
%TD*%
D21*
%TO.P,C414,1*%
%TO.N,/LNA/PIN Limiter*%
X184037500Y-72000000D03*
%TO.P,C414,2*%
%TO.N,Net-(U407-J1)*%
X181962500Y-72000000D03*
%TD*%
D38*
%TO.P,C445,1*%
%TO.N,Net-(C445-Pad1)*%
X184000000Y-106137500D03*
%TO.P,C445,2*%
%TO.N,Net-(C441-Pad1)*%
X184000000Y-107862500D03*
%TD*%
%TO.P,C441,1*%
%TO.N,Net-(C441-Pad1)*%
X185000000Y-124275000D03*
%TO.P,C441,2*%
%TO.N,Net-(C440-Pad1)*%
X185000000Y-126000000D03*
%TD*%
D30*
%TO.P,R404,1*%
%TO.N,Net-(J403-In)*%
X109640000Y-74760000D03*
%TO.P,R404,2*%
%TO.N,Net-(R402-Pad1)*%
X111640000Y-74760000D03*
%TD*%
D33*
%TO.P,C430,1*%
%TO.N,Net-(C430-Pad1)*%
X120000000Y-127000000D03*
%TO.P,C430,2*%
%TO.N,Net-(C426-Pad1)*%
X120000000Y-125275000D03*
%TD*%
D17*
%TO.P,R412,1*%
%TO.N,Net-(C415-Pad2)*%
X169200000Y-74400000D03*
%TO.P,R412,2*%
%TO.N,GND*%
X169200000Y-76400000D03*
%TD*%
D33*
%TO.P,C433,1*%
%TO.N,Net-(C431-Pad1)*%
X112000000Y-140862500D03*
%TO.P,C433,2*%
%TO.N,Net-(C433-Pad2)*%
X112000000Y-139137500D03*
%TD*%
D38*
%TO.P,C432,1*%
%TO.N,Net-(C431-Pad1)*%
X118000000Y-143137500D03*
%TO.P,C432,2*%
%TO.N,GND*%
X118000000Y-144862500D03*
%TD*%
D33*
%TO.P,C426,1*%
%TO.N,Net-(C426-Pad1)*%
X120000000Y-108000000D03*
%TO.P,C426,2*%
%TO.N,Net-(C425-Pad1)*%
X120000000Y-106275000D03*
%TD*%
D29*
%TO.P,C417,1*%
%TO.N,Net-(C416-Pad1)*%
X177050000Y-78000000D03*
%TO.P,C417,2*%
%TO.N,GND*%
X178950000Y-78000000D03*
%TD*%
D33*
%TO.P,C428,1*%
%TO.N,Net-(C426-Pad1)*%
X112700000Y-116025000D03*
%TO.P,C428,2*%
%TO.N,Net-(C428-Pad2)*%
X112700000Y-114300000D03*
%TD*%
D28*
%TO.P,C436,1*%
%TO.N,Net-(C436-Pad1)*%
X151862500Y-141000000D03*
%TO.P,C436,2*%
%TO.N,Net-(C435-Pad1)*%
X150137500Y-141000000D03*
%TD*%
D17*
%TO.P,R407,1*%
%TO.N,Net-(U406-A0)*%
X129000000Y-73320000D03*
%TO.P,R407,2*%
%TO.N,GND*%
X129000000Y-75320000D03*
%TD*%
D31*
%TO.P,C401,1*%
%TO.N,Net-(U401-J1)*%
X108100000Y-88600000D03*
%TO.P,C401,2*%
%TO.N,/PIN Switch/LimeRx*%
X106200000Y-88600000D03*
%TD*%
D38*
%TO.P,C440,1*%
%TO.N,Net-(C440-Pad1)*%
X184000000Y-138275000D03*
%TO.P,C440,2*%
%TO.N,Net-(C436-Pad1)*%
X184000000Y-140000000D03*
%TD*%
%TO.P,C437,1*%
%TO.N,Net-(C436-Pad1)*%
X184000000Y-143000000D03*
%TO.P,C437,2*%
%TO.N,GND*%
X184000000Y-144725000D03*
%TD*%
D40*
%TO.P,U408,1*%
%TO.N,Net-(C419-Pad1)*%
X154100000Y-80450000D03*
D41*
%TO.P,U408,2,GND*%
%TO.N,GND*%
X152600000Y-80362500D03*
D40*
%TO.P,U408,3*%
%TO.N,Net-(C421-Pad1)*%
X151100000Y-80450000D03*
%TD*%
D42*
%TO.N,GND*%
X197000000Y-79000000D03*
X187000000Y-94715500D03*
X118110000Y-85090000D03*
X103000000Y-89000000D03*
X197880000Y-97790000D03*
X159890000Y-67210000D03*
X109220000Y-68580000D03*
X134005332Y-76994668D03*
X164970000Y-84170000D03*
X103000000Y-100000000D03*
X135890000Y-90170000D03*
X170180000Y-76200000D03*
X136000000Y-77875500D03*
X144000000Y-68000000D03*
X146600000Y-81000000D03*
X113030000Y-68580000D03*
X127000000Y-95000000D03*
X140000000Y-66000000D03*
X146000000Y-86000000D03*
X175205000Y-74350000D03*
X102000000Y-109000000D03*
X161290000Y-74930000D03*
X102000000Y-119000000D03*
X111000000Y-124290000D03*
X116840000Y-68600000D03*
X197930000Y-90170000D03*
X114000000Y-92000000D03*
X129000000Y-77000000D03*
X197000000Y-70000000D03*
X102870000Y-80000000D03*
X189230000Y-85090000D03*
X180000000Y-78000000D03*
X193000000Y-124000000D03*
X102870000Y-70000000D03*
X153000000Y-75000000D03*
%TO.N,/PIN Switch/SCL_Slave*%
X124000000Y-82000000D03*
%TO.N,/PIN Switch/SDA_Slave*%
X127000000Y-77000000D03*
%TO.N,LNA_N*%
X195000000Y-84000000D03*
X179000000Y-68000000D03*
X139628768Y-81628768D03*
%TO.N,LNA_P*%
X177000000Y-70000000D03*
X194000000Y-86000000D03*
X140371232Y-82371232D03*
%TD*%
D43*
%TO.N,GND*%
X132920000Y-75909336D02*
X132920000Y-75320000D01*
X111000000Y-124290000D02*
X112847500Y-124290000D01*
X120772500Y-74052500D02*
X116840000Y-70120000D01*
X146000000Y-89000000D02*
X149300000Y-92300000D01*
X102000000Y-110975000D02*
X102200000Y-111175000D01*
X144000000Y-68000000D02*
X144000000Y-66110000D01*
X185150000Y-94700000D02*
X186984500Y-94700000D01*
X197930000Y-90170000D02*
X197930000Y-91262500D01*
X135460000Y-88265000D02*
X135460000Y-89740000D01*
X140000000Y-68925000D02*
X140000000Y-66000000D01*
X189490000Y-85350000D02*
X189230000Y-85090000D01*
X102582500Y-77755000D02*
X102582500Y-79712500D01*
X112847500Y-124290000D02*
X113137500Y-124000000D01*
X120772500Y-76000000D02*
X120772500Y-74052500D01*
X115050000Y-92000000D02*
X114000000Y-92000000D01*
X183571954Y-144296954D02*
X184000000Y-144725000D01*
X102582500Y-72105000D02*
X102582500Y-70417500D01*
X102200000Y-116825000D02*
X102200000Y-118800000D01*
X170180000Y-76200000D02*
X169400000Y-76200000D01*
X113030000Y-68580000D02*
X113030000Y-70120000D01*
X135890000Y-90170000D02*
X137757500Y-92037500D01*
X102200000Y-118800000D02*
X102000000Y-119000000D01*
X152600000Y-75400000D02*
X152600000Y-80362500D01*
X118110000Y-85090000D02*
X117720000Y-84700000D01*
X188000000Y-71062500D02*
X188000000Y-69810000D01*
X116840000Y-68600000D02*
X116840000Y-70120000D01*
X127000000Y-92880000D02*
X127000000Y-95000000D01*
X146600000Y-81000000D02*
X145050000Y-81000000D01*
X175205000Y-74350000D02*
X176100000Y-74350000D01*
X109220000Y-68580000D02*
X109220000Y-70120000D01*
X197337500Y-77825000D02*
X197337500Y-78662500D01*
X144000000Y-66110000D02*
X144650000Y-65460000D01*
X102200000Y-99200000D02*
X103000000Y-100000000D01*
X123000000Y-92037500D02*
X125962500Y-95000000D01*
X102582500Y-79712500D02*
X102870000Y-80000000D01*
X118165546Y-144696954D02*
X123874711Y-144696954D01*
X134005332Y-76994668D02*
X132920000Y-75909336D01*
X161290000Y-74790000D02*
X160700000Y-74200000D01*
X145962500Y-86037500D02*
X146000000Y-86000000D01*
X188000000Y-69810000D02*
X192860000Y-64950000D01*
X146000000Y-86000000D02*
X146000000Y-89000000D01*
X125962500Y-95000000D02*
X127000000Y-95000000D01*
X191000000Y-85350000D02*
X189490000Y-85350000D01*
X197000000Y-70000000D02*
X197000000Y-71837500D01*
X178950000Y-78000000D02*
X180000000Y-78000000D01*
X161290000Y-74930000D02*
X161290000Y-74790000D01*
X159890000Y-67210000D02*
X158910000Y-67210000D01*
X117720000Y-84700000D02*
X116550000Y-84700000D01*
X186984500Y-94700000D02*
X187000000Y-94715500D01*
X197337500Y-78662500D02*
X197000000Y-79000000D01*
X118000000Y-144862500D02*
X118165546Y-144696954D01*
X103000000Y-70000000D02*
X102870000Y-70000000D01*
X136000000Y-77875500D02*
X136000000Y-76000000D01*
X135460000Y-89740000D02*
X135890000Y-90170000D01*
X137757500Y-92037500D02*
X139000000Y-92037500D01*
X129540000Y-75320000D02*
X129540000Y-76460000D01*
X191725000Y-124000000D02*
X193000000Y-124000000D01*
X197880000Y-97790000D02*
X197880000Y-96962500D01*
X102582500Y-70417500D02*
X103000000Y-70000000D01*
X102000000Y-109000000D02*
X102000000Y-110975000D01*
X153000000Y-75000000D02*
X152600000Y-75400000D01*
X145050000Y-81000000D02*
X145000000Y-80950000D01*
X102200000Y-89800000D02*
X103000000Y-89000000D01*
X102200000Y-97225000D02*
X102200000Y-99200000D01*
X102200000Y-91575000D02*
X102200000Y-89800000D01*
X178325289Y-144296954D02*
X183571954Y-144296954D01*
X158910000Y-67210000D02*
X157400000Y-65700000D01*
X144000000Y-86037500D02*
X145962500Y-86037500D01*
X129540000Y-76460000D02*
X129000000Y-77000000D01*
X149300000Y-92300000D02*
X151000000Y-92300000D01*
D44*
%TO.N,Rx_LNA_OP*%
X188700000Y-89700000D02*
X191025000Y-89700000D01*
D45*
%TO.N,/PIN Switch/LimeRx*%
X106200000Y-91050000D02*
X102850000Y-94400000D01*
X102850000Y-94400000D02*
X102000000Y-94400000D01*
X106200000Y-88600000D02*
X106200000Y-91050000D01*
D44*
%TO.N,Net-(U401-J3)*%
X116900000Y-83700000D02*
X116550000Y-84050000D01*
X116900000Y-80350000D02*
X116900000Y-83700000D01*
D45*
%TO.N,BPF_In*%
X114000000Y-96000000D02*
X116000000Y-94000000D01*
X114000000Y-96137500D02*
X114000000Y-96000000D01*
X116000000Y-94000000D02*
X116000000Y-92000000D01*
X116950000Y-92000000D02*
X116000000Y-92000000D01*
%TO.N,BPF_Out*%
X184300000Y-98700000D02*
X190300000Y-98700000D01*
X184000000Y-94825000D02*
X184000000Y-98400000D01*
X183875000Y-94700000D02*
X184000000Y-94825000D01*
X184000000Y-98400000D02*
X184300000Y-98700000D01*
X183250000Y-94700000D02*
X183875000Y-94700000D01*
D44*
%TO.N,Net-(C403-Pad2)*%
X116840000Y-74760000D02*
X116840000Y-78390000D01*
X116840000Y-74760000D02*
X116840000Y-72560000D01*
%TO.N,Net-(U402-J2)*%
X115000000Y-90000000D02*
X115000000Y-91300000D01*
X116000000Y-89000000D02*
X115000000Y-90000000D01*
X115000000Y-91300000D02*
X115050000Y-91350000D01*
%TO.N,Net-(U404-J3)*%
X185284500Y-93915500D02*
X189865500Y-93915500D01*
X185150000Y-94050000D02*
X185284500Y-93915500D01*
%TO.N,Net-(U407-J2)*%
X169600000Y-72100000D02*
X174970000Y-72100000D01*
X176100000Y-73230000D02*
X176100000Y-73700000D01*
X174970000Y-72100000D02*
X176100000Y-73230000D01*
%TO.N,Net-(C415-Pad2)*%
X167700000Y-72100000D02*
X167700000Y-72900000D01*
X165200000Y-72100000D02*
X167700000Y-72100000D01*
X167700000Y-72900000D02*
X169200000Y-74400000D01*
%TO.N,Net-(C418-Pad1)*%
X162500000Y-84300000D02*
X159250000Y-84300000D01*
X162500000Y-84300000D02*
X162500000Y-85120000D01*
X162500000Y-85120000D02*
X168190000Y-90810000D01*
X159250000Y-84300000D02*
X157950000Y-83000000D01*
%TO.N,/LNA/PIN Limiter*%
X184037500Y-72000000D02*
X186112500Y-72000000D01*
X187050000Y-72937500D02*
X188950000Y-72937500D01*
X186112500Y-72000000D02*
X187050000Y-72937500D01*
X190000000Y-73987500D02*
X190000000Y-77000000D01*
X188950000Y-72937500D02*
X190000000Y-73987500D01*
%TO.N,Net-(C419-Pad1)*%
X156050000Y-83000000D02*
X156050000Y-82400000D01*
X156050000Y-82400000D02*
X154100000Y-80450000D01*
%TO.N,Net-(C421-Pad2)*%
X150300000Y-89000000D02*
X150400000Y-88900000D01*
X148000000Y-89000000D02*
X150300000Y-89000000D01*
X151250000Y-86040000D02*
X151250000Y-86150000D01*
X152200000Y-87100000D02*
X150400000Y-88900000D01*
X151250000Y-86150000D02*
X152200000Y-87100000D01*
%TO.N,Net-(U409-J3)*%
X161057500Y-92710000D02*
X173990000Y-92710000D01*
X173990000Y-92710000D02*
X180700000Y-86000000D01*
X157247500Y-92000000D02*
X160347500Y-92000000D01*
X180700000Y-86000000D02*
X191000000Y-86000000D01*
X160347500Y-92000000D02*
X161057500Y-92710000D01*
%TO.N,Net-(C422-Pad2)*%
X153300000Y-92000000D02*
X153000000Y-92300000D01*
X155172500Y-92000000D02*
X153300000Y-92000000D01*
X152400000Y-91700000D02*
X153000000Y-92300000D01*
X152400000Y-88900000D02*
X152400000Y-91700000D01*
%TO.N,Net-(U409-J2)*%
X175000000Y-86000000D02*
X179000000Y-86000000D01*
X165295000Y-76295000D02*
X165295000Y-83370000D01*
X156100000Y-74175000D02*
X157925000Y-76000000D01*
X157925000Y-76000000D02*
X165000000Y-76000000D01*
X172370000Y-83370000D02*
X175000000Y-86000000D01*
X181000000Y-84000000D02*
X190300000Y-84000000D01*
X165000000Y-76000000D02*
X165295000Y-76295000D01*
X165295000Y-83370000D02*
X172370000Y-83370000D01*
X179000000Y-86000000D02*
X181000000Y-84000000D01*
X190300000Y-84000000D02*
X191000000Y-84700000D01*
%TO.N,/LNA/+25dBm max*%
X175050000Y-76050000D02*
X176100000Y-75000000D01*
X174000000Y-76050000D02*
X175050000Y-76050000D01*
%TO.N,RxIP*%
X192075000Y-75962500D02*
X193037500Y-75000000D01*
X193037500Y-75000000D02*
X197537500Y-75000000D01*
X192075000Y-77000000D02*
X192075000Y-75962500D01*
%TO.N,Net-(C423-Pad2)*%
X160700000Y-72200000D02*
X163100000Y-72200000D01*
X156100000Y-72100000D02*
X160600000Y-72100000D01*
%TO.N,Net-(U409-J1)*%
X191770000Y-86195000D02*
X191770000Y-85725000D01*
X192145000Y-85350000D02*
X192900000Y-85350000D01*
X194310000Y-88490000D02*
X194065000Y-88490000D01*
X194310000Y-88490000D02*
X193100000Y-89700000D01*
X191770000Y-85725000D02*
X192145000Y-85350000D01*
X194065000Y-88490000D02*
X191770000Y-86195000D01*
%TO.N,Net-(C425-Pad1)*%
X120000000Y-106275000D02*
X120000000Y-100000000D01*
X117862500Y-97862500D02*
X114000000Y-97862500D01*
X120000000Y-100000000D02*
X117862500Y-97862500D01*
D45*
%TO.N,Net-(U401-J1)*%
X112000000Y-84700000D02*
X114650000Y-84700000D01*
X108100000Y-88600000D02*
X112000000Y-84700000D01*
D44*
%TO.N,Net-(U402-J3)*%
X106950000Y-100181372D02*
X106950000Y-104050000D01*
X109065686Y-98065686D02*
X114481371Y-92650000D01*
X109065686Y-98065686D02*
X106950000Y-100181372D01*
X114481371Y-92650000D02*
X115050000Y-92650000D01*
%TO.N,Net-(U401-J2)*%
X116550000Y-85350000D02*
X116550000Y-86550000D01*
X116550000Y-86550000D02*
X116000000Y-87100000D01*
%TO.N,Net-(C426-Pad1)*%
X119000000Y-113000000D02*
X115975000Y-116025000D01*
X112700000Y-116025000D02*
X112700000Y-118700000D01*
X115975000Y-116025000D02*
X112700000Y-116025000D01*
X112700000Y-118700000D02*
X115000000Y-121000000D01*
X114862500Y-124000000D02*
X116137500Y-125275000D01*
X116137500Y-125275000D02*
X120000000Y-125275000D01*
X115000000Y-121000000D02*
X115000000Y-123862500D01*
X127380000Y-113000000D02*
X119000000Y-113000000D01*
X115000000Y-123862500D02*
X114862500Y-124000000D01*
X120000000Y-108000000D02*
X120000000Y-112000000D01*
X120000000Y-112000000D02*
X119000000Y-113000000D01*
%TO.N,Net-(C428-Pad2)*%
X116870000Y-104210000D02*
X116870000Y-104200000D01*
X111800000Y-113400000D02*
X111800000Y-109280000D01*
X112700000Y-114300000D02*
X111800000Y-113400000D01*
X111800000Y-109280000D02*
X116870000Y-104210000D01*
%TO.N,Net-(C430-Pad1)*%
X120000000Y-136137500D02*
X118000000Y-138137500D01*
X120000000Y-127000000D02*
X120000000Y-136137500D01*
%TO.N,Net-(C431-Pad1)*%
X122862500Y-143137500D02*
X118000000Y-143137500D01*
X118000000Y-141862500D02*
X117000000Y-140862500D01*
X150000000Y-144000000D02*
X148700000Y-142700000D01*
X117000000Y-140862500D02*
X118000000Y-139862500D01*
X150137500Y-144000000D02*
X150000000Y-144000000D01*
X123300000Y-142700000D02*
X127580000Y-142700000D01*
X118000000Y-143137500D02*
X118000000Y-141862500D01*
X112000000Y-140862500D02*
X117000000Y-140862500D01*
X123300000Y-142700000D02*
X122862500Y-143137500D01*
X148700000Y-142700000D02*
X127580000Y-142700000D01*
%TO.N,Net-(U404-J2)*%
X184765500Y-95515500D02*
X190278739Y-95515500D01*
X185150000Y-95350000D02*
X184600000Y-95350000D01*
X190569239Y-92975000D02*
X190075000Y-92975000D01*
X190278739Y-95515500D02*
X190950000Y-94844239D01*
X190950000Y-93355761D02*
X190569239Y-92975000D01*
X190950000Y-94844239D02*
X190950000Y-93355761D01*
X190075000Y-92975000D02*
X186800000Y-89700000D01*
X184600000Y-95350000D02*
X184765500Y-95515500D01*
%TO.N,Net-(U407-J1)*%
X178000000Y-74350000D02*
X178518629Y-74350000D01*
X178868629Y-74000000D02*
X180000000Y-74000000D01*
X180000000Y-74000000D02*
X181962500Y-72037500D01*
X178518629Y-74350000D02*
X178868629Y-74000000D01*
%TO.N,Net-(C433-Pad2)*%
X112030000Y-139107500D02*
X112030000Y-134780000D01*
X112000000Y-139137500D02*
X112030000Y-139107500D01*
X112030000Y-134780000D02*
X117100000Y-129710000D01*
X117100000Y-129710000D02*
X117100000Y-129700000D01*
%TO.N,/PIN Switch/SCL_Slave*%
X126160000Y-81915000D02*
X124085000Y-81915000D01*
X124085000Y-81915000D02*
X124000000Y-82000000D01*
%TO.N,Net-(C435-Pad1)*%
X150137500Y-142275000D02*
X151862500Y-144000000D01*
X150137500Y-141000000D02*
X150137500Y-142275000D01*
%TO.N,Net-(C436-Pad1)*%
X153000000Y-141000000D02*
X154300000Y-142300000D01*
X151862500Y-141000000D02*
X153000000Y-141000000D01*
X187137500Y-140000000D02*
X188000000Y-140862500D01*
X174620000Y-142300000D02*
X183300000Y-142300000D01*
X184000000Y-140000000D02*
X187137500Y-140000000D01*
X183300000Y-142300000D02*
X184000000Y-143000000D01*
X184000000Y-140000000D02*
X184000000Y-143000000D01*
X154300000Y-142300000D02*
X174820000Y-142300000D01*
%TO.N,Net-(C438-Pad2)*%
X193070000Y-130170000D02*
X193070000Y-130160000D01*
X188000000Y-135240000D02*
X193070000Y-130170000D01*
X188000000Y-139137500D02*
X188000000Y-135240000D01*
%TO.N,/PIN Switch/Tx_Enable*%
X114650000Y-87394239D02*
X115255761Y-88000000D01*
X115255761Y-88000000D02*
X119000000Y-88000000D01*
X119350000Y-91350000D02*
X116950000Y-91350000D01*
X119000000Y-88000000D02*
X119350000Y-88350000D01*
X121612500Y-91350000D02*
X119350000Y-91350000D01*
X126160000Y-88265000D02*
X124697500Y-88265000D01*
X123000000Y-89962500D02*
X121612500Y-91350000D01*
X119350000Y-88350000D02*
X119350000Y-91350000D01*
X114650000Y-85350000D02*
X114650000Y-87394239D01*
X124697500Y-88265000D02*
X123000000Y-89962500D01*
%TO.N,Net-(C440-Pad1)*%
X184000000Y-127000000D02*
X185000000Y-126000000D01*
X184000000Y-138275000D02*
X184000000Y-127000000D01*
%TO.N,Net-(C441-Pad1)*%
X189725000Y-124275000D02*
X190000000Y-124000000D01*
X190000000Y-124000000D02*
X190000000Y-117000000D01*
X184000000Y-107862500D02*
X184000000Y-113000000D01*
X173920000Y-113000000D02*
X184000000Y-113000000D01*
X187000000Y-116000000D02*
X189000000Y-116000000D01*
X185000000Y-124275000D02*
X189725000Y-124275000D01*
X190000000Y-117000000D02*
X189000000Y-116000000D01*
X184000000Y-113000000D02*
X187000000Y-116000000D01*
%TO.N,/PIN Switch/SDA_Slave*%
X127585000Y-79752817D02*
X126692817Y-80645000D01*
X127000000Y-77000000D02*
X127585000Y-77585000D01*
X126692817Y-80645000D02*
X126160000Y-80645000D01*
X127585000Y-77585000D02*
X127585000Y-79752817D01*
%TO.N,Net-(C443-Pad2)*%
X188660000Y-113935000D02*
X189000000Y-114275000D01*
X188660000Y-109940000D02*
X193730000Y-104870000D01*
X193730000Y-104870000D02*
X193730000Y-104860000D01*
X188660000Y-109940000D02*
X188660000Y-113935000D01*
%TO.N,+5V*%
X144900000Y-73100000D02*
X144900000Y-74930000D01*
X146000000Y-72000000D02*
X144900000Y-73100000D01*
X154810000Y-65190000D02*
X148000000Y-72000000D01*
X148000000Y-72000000D02*
X146000000Y-72000000D01*
X154810000Y-63400000D02*
X154810000Y-65190000D01*
X157400000Y-63400000D02*
X154810000Y-63400000D01*
X144900000Y-74930000D02*
X144900000Y-78540000D01*
X157400000Y-63400000D02*
X163700000Y-63400000D01*
%TO.N,+3.3V*%
X136420000Y-69120000D02*
X138380000Y-67160000D01*
X128880000Y-69120000D02*
X129000000Y-69120000D01*
X122847500Y-76000000D02*
X122847500Y-75152500D01*
X122847500Y-75152500D02*
X128880000Y-69120000D01*
X138380000Y-63620000D02*
X138840000Y-63160000D01*
X138840000Y-63160000D02*
X144650000Y-63160000D01*
X139962500Y-71037500D02*
X138337500Y-71037500D01*
X138337500Y-71037500D02*
X136420000Y-69120000D01*
X129025000Y-68920000D02*
X136220000Y-68920000D01*
X122847500Y-76062500D02*
X126160000Y-79375000D01*
X144650000Y-63160000D02*
X150950000Y-63160000D01*
X138380000Y-67160000D02*
X138380000Y-63620000D01*
%TO.N,Net-(C445-Pad1)*%
X186000000Y-102000000D02*
X189000000Y-102000000D01*
X189000000Y-102000000D02*
X190300000Y-100700000D01*
X190300000Y-100700000D02*
X190300000Y-100425000D01*
X184000000Y-104000000D02*
X186000000Y-102000000D01*
X184000000Y-106137500D02*
X184000000Y-104000000D01*
%TO.N,Net-(J403-In)*%
X102382500Y-75100000D02*
X109300000Y-75100000D01*
X109440000Y-72160000D02*
X109440000Y-74560000D01*
%TO.N,Net-(R402-Pad1)*%
X113040000Y-72960000D02*
X114840000Y-74760000D01*
X111640000Y-74760000D02*
X111640000Y-73560000D01*
X111640000Y-73560000D02*
X113040000Y-72160000D01*
X113040000Y-72160000D02*
X113040000Y-72960000D01*
%TO.N,Net-(U406-A0)*%
X129540000Y-71120000D02*
X129540000Y-73320000D01*
X129540000Y-73320000D02*
X130640000Y-74420000D01*
X130640000Y-76030000D02*
X133985000Y-79375000D01*
X133985000Y-79375000D02*
X135460000Y-79375000D01*
X130640000Y-74420000D02*
X130640000Y-76030000D01*
%TO.N,Net-(U406-A1)*%
X137095000Y-78675000D02*
X137160000Y-78740000D01*
X137160000Y-78740000D02*
X137160000Y-80010000D01*
X136525000Y-80645000D02*
X135460000Y-80645000D01*
X132920000Y-73320000D02*
X132920000Y-71020000D01*
X132920000Y-73320000D02*
X131820000Y-74420000D01*
X137160000Y-80010000D02*
X136525000Y-80645000D01*
X131820000Y-74420000D02*
X131820000Y-75940000D01*
X134555000Y-78675000D02*
X137095000Y-78675000D01*
X131820000Y-75940000D02*
X134555000Y-78675000D01*
%TO.N,Net-(U406-A2)*%
X136420000Y-73320000D02*
X138430000Y-75330000D01*
X137795000Y-81915000D02*
X135460000Y-81915000D01*
X136420000Y-73320000D02*
X136420000Y-71120000D01*
X138430000Y-81280000D02*
X137795000Y-81915000D01*
X138430000Y-75330000D02*
X138430000Y-81280000D01*
%TO.N,+12V*%
X157160000Y-60860000D02*
X144650000Y-60860000D01*
X123380000Y-61620000D02*
X124140000Y-60860000D01*
X124140000Y-60860000D02*
X144650000Y-60860000D01*
X123380000Y-63900000D02*
X123380000Y-61620000D01*
D46*
%TO.N,/PIN Switch/Tx_P*%
X182586397Y-95350000D02*
X183250000Y-95350000D01*
X135460000Y-85725000D02*
X135050001Y-86134999D01*
X135906800Y-97225000D02*
X180711397Y-97225000D01*
X180711397Y-97225000D02*
X182586397Y-95350000D01*
X135460000Y-85725000D02*
X142237500Y-85725000D01*
X131775000Y-88906800D02*
X131775000Y-93093200D01*
X135050001Y-86134999D02*
X134546801Y-86134999D01*
X142237500Y-85725000D02*
X144000000Y-83962500D01*
X134546801Y-86134999D02*
X131775000Y-88906800D01*
X131775000Y-93093200D02*
X135906800Y-97225000D01*
%TO.N,/PIN Switch/Tx_N*%
X182625000Y-94675000D02*
X182625000Y-94200000D01*
X183100000Y-94200000D02*
X183250000Y-94050000D01*
X135460000Y-86995000D02*
X136032500Y-86995000D01*
X132225000Y-89225000D02*
X132225000Y-92906800D01*
X132225000Y-89225000D02*
X134455000Y-86995000D01*
X136093200Y-96775000D02*
X180525000Y-96775000D01*
X134455000Y-86995000D02*
X135460000Y-86995000D01*
X180525000Y-96775000D02*
X182625000Y-94675000D01*
X136032500Y-86995000D02*
X139000000Y-89962500D01*
X182625000Y-94200000D02*
X183100000Y-94200000D01*
X132225000Y-92906800D02*
X136093200Y-96775000D01*
D45*
%TO.N,/PIN Switch/LimeTx*%
X102000000Y-114000000D02*
X106000000Y-114000000D01*
X106000000Y-114000000D02*
X106950000Y-113050000D01*
X106950000Y-113050000D02*
X106950000Y-105950000D01*
D44*
%TO.N,/PIN Switch/Tx_Drive*%
X191960000Y-94110000D02*
X198107500Y-94110000D01*
%TO.N,/PIN Switch/Rx_Enable*%
X129000000Y-91000000D02*
X128805000Y-90805000D01*
X116255761Y-79350000D02*
X118350000Y-79350000D01*
X122005000Y-83005000D02*
X122005000Y-86995000D01*
X129000000Y-95000000D02*
X129000000Y-91000000D01*
X128805000Y-90805000D02*
X127000000Y-90805000D01*
X128200000Y-95800000D02*
X129000000Y-95000000D01*
X114650000Y-84050000D02*
X114650000Y-80955761D01*
X126160000Y-86995000D02*
X122005000Y-86995000D01*
X129000000Y-88805000D02*
X127000000Y-90805000D01*
X120100000Y-95800000D02*
X128200000Y-95800000D01*
X114650000Y-80955761D02*
X116255761Y-79350000D01*
X118350000Y-79350000D02*
X122005000Y-83005000D01*
X129000000Y-88000000D02*
X129000000Y-88805000D01*
X126160000Y-86995000D02*
X127995000Y-86995000D01*
X127995000Y-86995000D02*
X129000000Y-88000000D01*
X116950000Y-92650000D02*
X120100000Y-95800000D01*
%TO.N,Net-(C416-Pad1)*%
X177050000Y-81950000D02*
X175810000Y-83190000D01*
X174000000Y-77950000D02*
X177000000Y-77950000D01*
X177050000Y-78000000D02*
X177050000Y-81950000D01*
%TO.N,Net-(C421-Pad1)*%
X151250000Y-82070762D02*
X151250000Y-84140000D01*
X150300000Y-81120762D02*
X151250000Y-82070762D01*
X147900000Y-75630000D02*
X147900000Y-78720762D01*
X147900000Y-78720762D02*
X150300000Y-81120762D01*
X147200000Y-74930000D02*
X147900000Y-75630000D01*
X150300000Y-81120762D02*
X150429238Y-81120762D01*
X150429238Y-81120762D02*
X151100000Y-80450000D01*
D46*
%TO.N,LNA_N*%
X192900000Y-84700000D02*
X194300000Y-84700000D01*
X135869999Y-83594999D02*
X138086801Y-83594999D01*
X178000000Y-70318200D02*
X179000000Y-69318200D01*
X179000000Y-69318200D02*
X179000000Y-68000000D01*
X178000000Y-73700000D02*
X178000000Y-70318200D01*
X135460000Y-83185000D02*
X135869999Y-83594999D01*
X138086801Y-83594999D02*
X139628768Y-82053033D01*
X194300000Y-84700000D02*
X195000000Y-84000000D01*
X139628768Y-82053033D02*
X139628768Y-81628768D01*
%TO.N,LNA_P*%
X177000000Y-70000000D02*
X177000000Y-72000000D01*
X192900000Y-86000000D02*
X194000000Y-86000000D01*
X177375000Y-72375000D02*
X177375000Y-74850000D01*
X135460000Y-84455000D02*
X135869999Y-84045001D01*
X177375000Y-74850000D02*
X177850000Y-74850000D01*
X177000000Y-72000000D02*
X177375000Y-72375000D01*
X135869999Y-84045001D02*
X138273199Y-84045001D01*
X138273199Y-84045001D02*
X139946967Y-82371232D01*
X139946967Y-82371232D02*
X140371232Y-82371232D01*
X177850000Y-74850000D02*
X178000000Y-75000000D01*
%TD*%
M02*
