%FSLAX45Y45*%
G04 Gerber Fmt 4.5, Leading zero omitted, Abs format (unit mm)*
G04 Created by KiCad (PCBNEW (6.0.1)) date 2022-03-16 15:36:33*
%MOMM*%
%LPD*%
G01*
G04 APERTURE LIST*
%TA.AperFunction,Profile*%
%ADD10C,0.200000*%
%TD*%
%ADD11C,0.200000*%
%ADD12C,0.040000*%
%ADD13C,0.095000*%
%ADD14C,0.100000*%
%ADD15C,0.110000*%
%ADD16C,0.119000*%
G04 APERTURE END LIST*
D10*
X16950000Y-7375000D02*
G75*
G03*
X16650000Y-7075000I-300000J0D01*
G01*
X10750000Y-7075000D02*
G75*
G03*
X10450000Y-7375000I0J-300000D01*
G01*
X16650000Y-7075000D02*
X10750000Y-7075000D01*
X10450000Y-7375000D02*
X10450000Y-12375000D01*
X10750000Y-12675000D02*
X16650000Y-12675000D01*
X10450000Y-12375000D02*
G75*
G03*
X10750000Y-12675000I300000J0D01*
G01*
X16950000Y-7375000D02*
X16950000Y-12375000D01*
X16650000Y-12675000D02*
G75*
G03*
X16950000Y-12375000I0J300000D01*
G01*
D11*
D12*
X11958640Y-11430320D02*
X11998640Y-11470320D01*
X11998640Y-11430320D02*
X11958640Y-11470320D01*
X12100880Y-11547160D02*
X12140880Y-11587160D01*
X12140880Y-11547160D02*
X12100880Y-11587160D01*
X12512360Y-10805480D02*
X12552360Y-10845480D01*
X12552360Y-10805480D02*
X12512360Y-10845480D01*
X12522520Y-10129840D02*
X12562520Y-10169840D01*
X12562520Y-10129840D02*
X12522520Y-10169840D01*
X12680000Y-10947720D02*
X12720000Y-10987720D01*
X12720000Y-10947720D02*
X12680000Y-10987720D01*
X12994960Y-10952800D02*
X13034960Y-10992800D01*
X13034960Y-10952800D02*
X12994960Y-10992800D01*
X13010200Y-11211880D02*
X13050200Y-11251880D01*
X13050200Y-11211880D02*
X13010200Y-11251880D01*
X13325160Y-9205280D02*
X13365160Y-9245280D01*
X13365160Y-9205280D02*
X13325160Y-9245280D01*
X13472480Y-7848920D02*
X13512480Y-7888920D01*
X13512480Y-7848920D02*
X13472480Y-7888920D01*
X13858560Y-8707440D02*
X13898560Y-8747440D01*
X13898560Y-8707440D02*
X13858560Y-8747440D01*
X14640880Y-9205280D02*
X14680880Y-9245280D01*
X14680880Y-9205280D02*
X14640880Y-9245280D01*
X14920280Y-7793040D02*
X14960280Y-7833040D01*
X14960280Y-7793040D02*
X14920280Y-7833040D01*
X15118400Y-8682040D02*
X15158400Y-8722040D01*
X15158400Y-8682040D02*
X15118400Y-8722040D01*
X15844840Y-10952800D02*
X15884840Y-10992800D01*
X15884840Y-10952800D02*
X15844840Y-10992800D01*
X16021901Y-9144320D02*
X16061901Y-9184320D01*
X16061901Y-9144320D02*
X16021901Y-9184320D01*
X16225840Y-9728520D02*
X16265840Y-9768520D01*
X16265840Y-9728520D02*
X16225840Y-9768520D01*
D13*
X11064940Y-8304100D02*
G75*
G03*
X11064940Y-8304100I-47500J0D01*
G01*
X11314940Y-8304100D02*
G75*
G03*
X11314940Y-8304100I-47500J0D01*
G01*
X11564940Y-8304100D02*
G75*
G03*
X11564940Y-8304100I-47500J0D01*
G01*
X15538120Y-10359040D02*
G75*
G03*
X15538120Y-10359040I-47500J0D01*
G01*
X15538120Y-10609040D02*
G75*
G03*
X15538120Y-10609040I-47500J0D01*
G01*
X15538120Y-10859040D02*
G75*
G03*
X15538120Y-10859040I-47500J0D01*
G01*
X15538120Y-11109040D02*
G75*
G03*
X15538120Y-11109040I-47500J0D01*
G01*
X16547340Y-8092440D02*
G75*
G03*
X16547340Y-8092440I-47500J0D01*
G01*
X16547340Y-8342440D02*
G75*
G03*
X16547340Y-8342440I-47500J0D01*
G01*
X16547340Y-8592440D02*
G75*
G03*
X16547340Y-8592440I-47500J0D01*
G01*
X16547340Y-8842440D02*
G75*
G03*
X16547340Y-8842440I-47500J0D01*
G01*
X16547340Y-9484360D02*
G75*
G03*
X16547340Y-9484360I-47500J0D01*
G01*
X16547340Y-9734360D02*
G75*
G03*
X16547340Y-9734360I-47500J0D01*
G01*
X16547340Y-9984360D02*
G75*
G03*
X16547340Y-9984360I-47500J0D01*
G01*
X16547340Y-10234360D02*
G75*
G03*
X16547340Y-10234360I-47500J0D01*
G01*
X16547340Y-10901680D02*
G75*
G03*
X16547340Y-10901680I-47500J0D01*
G01*
X16547340Y-11151680D02*
G75*
G03*
X16547340Y-11151680I-47500J0D01*
G01*
X16547340Y-11401680D02*
G75*
G03*
X16547340Y-11401680I-47500J0D01*
G01*
X16547340Y-11651680D02*
G75*
G03*
X16547340Y-11651680I-47500J0D01*
G01*
D14*
X11280000Y-7251000D02*
X11280000Y-7351000D01*
X11230000Y-7301000D02*
X11330000Y-7301000D01*
X11280000Y-7505000D02*
X11280000Y-7605000D01*
X11230000Y-7555000D02*
X11330000Y-7555000D01*
X11534000Y-7251000D02*
X11534000Y-7351000D01*
X11484000Y-7301000D02*
X11584000Y-7301000D01*
X11534000Y-7505000D02*
X11534000Y-7605000D01*
X11484000Y-7555000D02*
X11584000Y-7555000D01*
X11788000Y-7251000D02*
X11788000Y-7351000D01*
X11738000Y-7301000D02*
X11838000Y-7301000D01*
X11788000Y-7505000D02*
X11788000Y-7605000D01*
X11738000Y-7555000D02*
X11838000Y-7555000D01*
X12042000Y-7251000D02*
X12042000Y-7351000D01*
X11992000Y-7301000D02*
X12092000Y-7301000D01*
X12042000Y-7505000D02*
X12042000Y-7605000D01*
X11992000Y-7555000D02*
X12092000Y-7555000D01*
X12296000Y-7251000D02*
X12296000Y-7351000D01*
X12246000Y-7301000D02*
X12346000Y-7301000D01*
X12296000Y-7505000D02*
X12296000Y-7605000D01*
X12246000Y-7555000D02*
X12346000Y-7555000D01*
X12550000Y-7251000D02*
X12550000Y-7351000D01*
X12500000Y-7301000D02*
X12600000Y-7301000D01*
X12550000Y-7505000D02*
X12550000Y-7605000D01*
X12500000Y-7555000D02*
X12600000Y-7555000D01*
X12804000Y-7251000D02*
X12804000Y-7351000D01*
X12754000Y-7301000D02*
X12854000Y-7301000D01*
X12804000Y-7505000D02*
X12804000Y-7605000D01*
X12754000Y-7555000D02*
X12854000Y-7555000D01*
X13058000Y-7251000D02*
X13058000Y-7351000D01*
X13008000Y-7301000D02*
X13108000Y-7301000D01*
X13058000Y-7505000D02*
X13058000Y-7605000D01*
X13008000Y-7555000D02*
X13108000Y-7555000D01*
X13312000Y-7251000D02*
X13312000Y-7351000D01*
X13262000Y-7301000D02*
X13362000Y-7301000D01*
X13312000Y-7505000D02*
X13312000Y-7605000D01*
X13262000Y-7555000D02*
X13362000Y-7555000D01*
X13566000Y-7251000D02*
X13566000Y-7351000D01*
X13516000Y-7301000D02*
X13616000Y-7301000D01*
X13566000Y-7505000D02*
X13566000Y-7605000D01*
X13516000Y-7555000D02*
X13616000Y-7555000D01*
X13820000Y-7251000D02*
X13820000Y-7351000D01*
X13770000Y-7301000D02*
X13870000Y-7301000D01*
X13820000Y-7505000D02*
X13820000Y-7605000D01*
X13770000Y-7555000D02*
X13870000Y-7555000D01*
X14074000Y-7251000D02*
X14074000Y-7351000D01*
X14024000Y-7301000D02*
X14124000Y-7301000D01*
X14074000Y-7505000D02*
X14074000Y-7605000D01*
X14024000Y-7555000D02*
X14124000Y-7555000D01*
X14328000Y-7251000D02*
X14328000Y-7351000D01*
X14278000Y-7301000D02*
X14378000Y-7301000D01*
X14328000Y-7505000D02*
X14328000Y-7605000D01*
X14278000Y-7555000D02*
X14378000Y-7555000D01*
X14582000Y-7251000D02*
X14582000Y-7351000D01*
X14532000Y-7301000D02*
X14632000Y-7301000D01*
X14582000Y-7505000D02*
X14582000Y-7605000D01*
X14532000Y-7555000D02*
X14632000Y-7555000D01*
X14836000Y-7251000D02*
X14836000Y-7351000D01*
X14786000Y-7301000D02*
X14886000Y-7301000D01*
X14836000Y-7505000D02*
X14836000Y-7605000D01*
X14786000Y-7555000D02*
X14886000Y-7555000D01*
X15090000Y-7251000D02*
X15090000Y-7351000D01*
X15040000Y-7301000D02*
X15140000Y-7301000D01*
X15090000Y-7505000D02*
X15090000Y-7605000D01*
X15040000Y-7555000D02*
X15140000Y-7555000D01*
X15344000Y-7251000D02*
X15344000Y-7351000D01*
X15294000Y-7301000D02*
X15394000Y-7301000D01*
X15344000Y-7505000D02*
X15344000Y-7605000D01*
X15294000Y-7555000D02*
X15394000Y-7555000D01*
X15598000Y-7251000D02*
X15598000Y-7351000D01*
X15548000Y-7301000D02*
X15648000Y-7301000D01*
X15598000Y-7505000D02*
X15598000Y-7605000D01*
X15548000Y-7555000D02*
X15648000Y-7555000D01*
X15852000Y-7251000D02*
X15852000Y-7351000D01*
X15802000Y-7301000D02*
X15902000Y-7301000D01*
X15852000Y-7505000D02*
X15852000Y-7605000D01*
X15802000Y-7555000D02*
X15902000Y-7555000D01*
X16106000Y-7251000D02*
X16106000Y-7351000D01*
X16056000Y-7301000D02*
X16156000Y-7301000D01*
X16106000Y-7505000D02*
X16106000Y-7605000D01*
X16056000Y-7555000D02*
X16156000Y-7555000D01*
D15*
X11072651Y-9391171D02*
X11072651Y-9313389D01*
X10994869Y-9313389D01*
X10994869Y-9391171D01*
X11072651Y-9391171D01*
X11072651Y-9645171D02*
X11072651Y-9567389D01*
X10994869Y-9567389D01*
X10994869Y-9645171D01*
X11072651Y-9645171D01*
X11077731Y-10275091D02*
X11077731Y-10197309D01*
X10999949Y-10197309D01*
X10999949Y-10275091D01*
X11077731Y-10275091D01*
X11077731Y-10529091D02*
X11077731Y-10451309D01*
X10999949Y-10451309D01*
X10999949Y-10529091D01*
X11077731Y-10529091D01*
X11077731Y-10783091D02*
X11077731Y-10705309D01*
X10999949Y-10705309D01*
X10999949Y-10783091D01*
X11077731Y-10783091D01*
X11077731Y-11037091D02*
X11077731Y-10959309D01*
X10999949Y-10959309D01*
X10999949Y-11037091D01*
X11077731Y-11037091D01*
X11077731Y-11291091D02*
X11077731Y-11213309D01*
X10999949Y-11213309D01*
X10999949Y-11291091D01*
X11077731Y-11291091D01*
X11585731Y-12175011D02*
X11585731Y-12097229D01*
X11507949Y-12097229D01*
X11507949Y-12175011D01*
X11585731Y-12175011D01*
X11839731Y-12175011D02*
X11839731Y-12097229D01*
X11761949Y-12097229D01*
X11761949Y-12175011D01*
X11839731Y-12175011D01*
X11879871Y-10468131D02*
X11879871Y-10390349D01*
X11802089Y-10390349D01*
X11802089Y-10468131D01*
X11879871Y-10468131D01*
X12133871Y-10468131D02*
X12133871Y-10390349D01*
X12056089Y-10390349D01*
X12056089Y-10468131D01*
X12133871Y-10468131D01*
X12164851Y-8349771D02*
X12164851Y-8271989D01*
X12087069Y-8271989D01*
X12087069Y-8349771D01*
X12164851Y-8349771D01*
X12387871Y-10468131D02*
X12387871Y-10390349D01*
X12310089Y-10390349D01*
X12310089Y-10468131D01*
X12387871Y-10468131D01*
X12403111Y-12175011D02*
X12403111Y-12097229D01*
X12325329Y-12097229D01*
X12325329Y-12175011D01*
X12403111Y-12175011D01*
X12418851Y-8349771D02*
X12418851Y-8271989D01*
X12341069Y-8271989D01*
X12341069Y-8349771D01*
X12418851Y-8349771D01*
X12641871Y-10468131D02*
X12641871Y-10390349D01*
X12564089Y-10390349D01*
X12564089Y-10468131D01*
X12641871Y-10468131D01*
X12657111Y-12175011D02*
X12657111Y-12097229D01*
X12579329Y-12097229D01*
X12579329Y-12175011D01*
X12657111Y-12175011D01*
X12672851Y-8349771D02*
X12672851Y-8271989D01*
X12595069Y-8271989D01*
X12595069Y-8349771D01*
X12672851Y-8349771D01*
X12911111Y-12175011D02*
X12911111Y-12097229D01*
X12833329Y-12097229D01*
X12833329Y-12175011D01*
X12911111Y-12175011D01*
X13165111Y-12175011D02*
X13165111Y-12097229D01*
X13087329Y-12097229D01*
X13087329Y-12175011D01*
X13165111Y-12175011D01*
X13693431Y-10478291D02*
X13693431Y-10400509D01*
X13615649Y-10400509D01*
X13615649Y-10478291D01*
X13693431Y-10478291D01*
X13759471Y-12175011D02*
X13759471Y-12097229D01*
X13681689Y-12097229D01*
X13681689Y-12175011D01*
X13759471Y-12175011D01*
X13947431Y-10478291D02*
X13947431Y-10400509D01*
X13869649Y-10400509D01*
X13869649Y-10478291D01*
X13947431Y-10478291D01*
X14013471Y-12175011D02*
X14013471Y-12097229D01*
X13935689Y-12097229D01*
X13935689Y-12175011D01*
X14013471Y-12175011D01*
X14201431Y-10478291D02*
X14201431Y-10400509D01*
X14123649Y-10400509D01*
X14123649Y-10478291D01*
X14201431Y-10478291D01*
X14267471Y-12175011D02*
X14267471Y-12097229D01*
X14189689Y-12097229D01*
X14189689Y-12175011D01*
X14267471Y-12175011D01*
X14455431Y-10478291D02*
X14455431Y-10400509D01*
X14377649Y-10400509D01*
X14377649Y-10478291D01*
X14455431Y-10478291D01*
X14521471Y-12175011D02*
X14521471Y-12097229D01*
X14443689Y-12097229D01*
X14443689Y-12175011D01*
X14521471Y-12175011D01*
X15039631Y-12169931D02*
X15039631Y-12092149D01*
X14961849Y-12092149D01*
X14961849Y-12169931D01*
X15039631Y-12169931D01*
X15293631Y-12169931D02*
X15293631Y-12092149D01*
X15215849Y-12092149D01*
X15215849Y-12169931D01*
X15293631Y-12169931D01*
X15547631Y-12169931D02*
X15547631Y-12092149D01*
X15469849Y-12092149D01*
X15469849Y-12169931D01*
X15547631Y-12169931D01*
X15801631Y-12169931D02*
X15801631Y-12092149D01*
X15723849Y-12092149D01*
X15723849Y-12169931D01*
X15801631Y-12169931D01*
D16*
X13502640Y-8373460D02*
X13562140Y-8313960D01*
X13502640Y-8254460D01*
X13443140Y-8313960D01*
X13502640Y-8373460D01*
X13756640Y-8373460D02*
X13816140Y-8313960D01*
X13756640Y-8254460D01*
X13697140Y-8313960D01*
X13756640Y-8373460D01*
X14010640Y-8373460D02*
X14070140Y-8313960D01*
X14010640Y-8254460D01*
X13951140Y-8313960D01*
X14010640Y-8373460D01*
X14264640Y-8373460D02*
X14324140Y-8313960D01*
X14264640Y-8254460D01*
X14205140Y-8313960D01*
X14264640Y-8373460D01*
X14833600Y-8373460D02*
X14893100Y-8313960D01*
X14833600Y-8254460D01*
X14774100Y-8313960D01*
X14833600Y-8373460D01*
X15087600Y-8373460D02*
X15147100Y-8313960D01*
X15087600Y-8254460D01*
X15028100Y-8313960D01*
X15087600Y-8373460D01*
X15341600Y-8373460D02*
X15401100Y-8313960D01*
X15341600Y-8254460D01*
X15282100Y-8313960D01*
X15341600Y-8373460D01*
X15595600Y-8373460D02*
X15655100Y-8313960D01*
X15595600Y-8254460D01*
X15536100Y-8313960D01*
X15595600Y-8373460D01*
D11*
X10697619Y-12995476D02*
X10697619Y-12795476D01*
X10745238Y-12795476D01*
X10773810Y-12805000D01*
X10792857Y-12824048D01*
X10802381Y-12843095D01*
X10811905Y-12881190D01*
X10811905Y-12909762D01*
X10802381Y-12947857D01*
X10792857Y-12966905D01*
X10773810Y-12985952D01*
X10745238Y-12995476D01*
X10697619Y-12995476D01*
X10897619Y-12995476D02*
X10897619Y-12862143D01*
X10897619Y-12900238D02*
X10907143Y-12881190D01*
X10916667Y-12871667D01*
X10935714Y-12862143D01*
X10954762Y-12862143D01*
X11021429Y-12995476D02*
X11021429Y-12862143D01*
X11021429Y-12795476D02*
X11011905Y-12805000D01*
X11021429Y-12814524D01*
X11030952Y-12805000D01*
X11021429Y-12795476D01*
X11021429Y-12814524D01*
X11145238Y-12995476D02*
X11126190Y-12985952D01*
X11116667Y-12966905D01*
X11116667Y-12795476D01*
X11250000Y-12995476D02*
X11230952Y-12985952D01*
X11221428Y-12966905D01*
X11221428Y-12795476D01*
X11478571Y-12995476D02*
X11478571Y-12795476D01*
X11545238Y-12938333D01*
X11611905Y-12795476D01*
X11611905Y-12995476D01*
X11792857Y-12995476D02*
X11792857Y-12890714D01*
X11783333Y-12871667D01*
X11764286Y-12862143D01*
X11726190Y-12862143D01*
X11707143Y-12871667D01*
X11792857Y-12985952D02*
X11773809Y-12995476D01*
X11726190Y-12995476D01*
X11707143Y-12985952D01*
X11697619Y-12966905D01*
X11697619Y-12947857D01*
X11707143Y-12928809D01*
X11726190Y-12919286D01*
X11773809Y-12919286D01*
X11792857Y-12909762D01*
X11888095Y-12862143D02*
X11888095Y-13062143D01*
X11888095Y-12871667D02*
X11907143Y-12862143D01*
X11945238Y-12862143D01*
X11964286Y-12871667D01*
X11973809Y-12881190D01*
X11983333Y-12900238D01*
X11983333Y-12957381D01*
X11973809Y-12976428D01*
X11964286Y-12985952D01*
X11945238Y-12995476D01*
X11907143Y-12995476D01*
X11888095Y-12985952D01*
X12069048Y-12976428D02*
X12078571Y-12985952D01*
X12069048Y-12995476D01*
X12059524Y-12985952D01*
X12069048Y-12976428D01*
X12069048Y-12995476D01*
X12069048Y-12871667D02*
X12078571Y-12881190D01*
X12069048Y-12890714D01*
X12059524Y-12881190D01*
X12069048Y-12871667D01*
X12069048Y-12890714D01*
D12*
X10400000Y-13305000D02*
X10440000Y-13345000D01*
X10440000Y-13305000D02*
X10400000Y-13345000D01*
D11*
X10735714Y-13215476D02*
X10754762Y-13215476D01*
X10773810Y-13225000D01*
X10783333Y-13234524D01*
X10792857Y-13253571D01*
X10802381Y-13291667D01*
X10802381Y-13339286D01*
X10792857Y-13377381D01*
X10783333Y-13396428D01*
X10773810Y-13405952D01*
X10754762Y-13415476D01*
X10735714Y-13415476D01*
X10716667Y-13405952D01*
X10707143Y-13396428D01*
X10697619Y-13377381D01*
X10688095Y-13339286D01*
X10688095Y-13291667D01*
X10697619Y-13253571D01*
X10707143Y-13234524D01*
X10716667Y-13225000D01*
X10735714Y-13215476D01*
X10888095Y-13396428D02*
X10897619Y-13405952D01*
X10888095Y-13415476D01*
X10878571Y-13405952D01*
X10888095Y-13396428D01*
X10888095Y-13415476D01*
X11069048Y-13282143D02*
X11069048Y-13415476D01*
X11021429Y-13205952D02*
X10973810Y-13348809D01*
X11097619Y-13348809D01*
X11211905Y-13215476D02*
X11230952Y-13215476D01*
X11250000Y-13225000D01*
X11259524Y-13234524D01*
X11269048Y-13253571D01*
X11278571Y-13291667D01*
X11278571Y-13339286D01*
X11269048Y-13377381D01*
X11259524Y-13396428D01*
X11250000Y-13405952D01*
X11230952Y-13415476D01*
X11211905Y-13415476D01*
X11192857Y-13405952D01*
X11183333Y-13396428D01*
X11173810Y-13377381D01*
X11164286Y-13339286D01*
X11164286Y-13291667D01*
X11173810Y-13253571D01*
X11183333Y-13234524D01*
X11192857Y-13225000D01*
X11211905Y-13215476D01*
X11402381Y-13215476D02*
X11421428Y-13215476D01*
X11440476Y-13225000D01*
X11450000Y-13234524D01*
X11459524Y-13253571D01*
X11469048Y-13291667D01*
X11469048Y-13339286D01*
X11459524Y-13377381D01*
X11450000Y-13396428D01*
X11440476Y-13405952D01*
X11421428Y-13415476D01*
X11402381Y-13415476D01*
X11383333Y-13405952D01*
X11373809Y-13396428D01*
X11364286Y-13377381D01*
X11354762Y-13339286D01*
X11354762Y-13291667D01*
X11364286Y-13253571D01*
X11373809Y-13234524D01*
X11383333Y-13225000D01*
X11402381Y-13215476D01*
X11554762Y-13415476D02*
X11554762Y-13282143D01*
X11554762Y-13301190D02*
X11564286Y-13291667D01*
X11583333Y-13282143D01*
X11611905Y-13282143D01*
X11630952Y-13291667D01*
X11640476Y-13310714D01*
X11640476Y-13415476D01*
X11640476Y-13310714D02*
X11650000Y-13291667D01*
X11669048Y-13282143D01*
X11697619Y-13282143D01*
X11716667Y-13291667D01*
X11726190Y-13310714D01*
X11726190Y-13415476D01*
X11821428Y-13415476D02*
X11821428Y-13282143D01*
X11821428Y-13301190D02*
X11830952Y-13291667D01*
X11850000Y-13282143D01*
X11878571Y-13282143D01*
X11897619Y-13291667D01*
X11907143Y-13310714D01*
X11907143Y-13415476D01*
X11907143Y-13310714D02*
X11916667Y-13291667D01*
X11935714Y-13282143D01*
X11964286Y-13282143D01*
X11983333Y-13291667D01*
X11992857Y-13310714D01*
X11992857Y-13415476D01*
X12383333Y-13205952D02*
X12211905Y-13463095D01*
X12640476Y-13215476D02*
X12659524Y-13215476D01*
X12678571Y-13225000D01*
X12688095Y-13234524D01*
X12697619Y-13253571D01*
X12707143Y-13291667D01*
X12707143Y-13339286D01*
X12697619Y-13377381D01*
X12688095Y-13396428D01*
X12678571Y-13405952D01*
X12659524Y-13415476D01*
X12640476Y-13415476D01*
X12621428Y-13405952D01*
X12611905Y-13396428D01*
X12602381Y-13377381D01*
X12592857Y-13339286D01*
X12592857Y-13291667D01*
X12602381Y-13253571D01*
X12611905Y-13234524D01*
X12621428Y-13225000D01*
X12640476Y-13215476D01*
X12792857Y-13396428D02*
X12802381Y-13405952D01*
X12792857Y-13415476D01*
X12783333Y-13405952D01*
X12792857Y-13396428D01*
X12792857Y-13415476D01*
X12926190Y-13215476D02*
X12945238Y-13215476D01*
X12964286Y-13225000D01*
X12973809Y-13234524D01*
X12983333Y-13253571D01*
X12992857Y-13291667D01*
X12992857Y-13339286D01*
X12983333Y-13377381D01*
X12973809Y-13396428D01*
X12964286Y-13405952D01*
X12945238Y-13415476D01*
X12926190Y-13415476D01*
X12907143Y-13405952D01*
X12897619Y-13396428D01*
X12888095Y-13377381D01*
X12878571Y-13339286D01*
X12878571Y-13291667D01*
X12888095Y-13253571D01*
X12897619Y-13234524D01*
X12907143Y-13225000D01*
X12926190Y-13215476D01*
X13183333Y-13415476D02*
X13069048Y-13415476D01*
X13126190Y-13415476D02*
X13126190Y-13215476D01*
X13107143Y-13244048D01*
X13088095Y-13263095D01*
X13069048Y-13272619D01*
X13364286Y-13215476D02*
X13269048Y-13215476D01*
X13259524Y-13310714D01*
X13269048Y-13301190D01*
X13288095Y-13291667D01*
X13335714Y-13291667D01*
X13354762Y-13301190D01*
X13364286Y-13310714D01*
X13373809Y-13329762D01*
X13373809Y-13377381D01*
X13364286Y-13396428D01*
X13354762Y-13405952D01*
X13335714Y-13415476D01*
X13288095Y-13415476D01*
X13269048Y-13405952D01*
X13259524Y-13396428D01*
X13440476Y-13215476D02*
X13573809Y-13215476D01*
X13488095Y-13415476D01*
X13640476Y-13215476D02*
X13640476Y-13253571D01*
X13716667Y-13215476D02*
X13716667Y-13253571D01*
X14011905Y-13491667D02*
X14002381Y-13482143D01*
X13983333Y-13453571D01*
X13973809Y-13434524D01*
X13964286Y-13405952D01*
X13954762Y-13358333D01*
X13954762Y-13320238D01*
X13964286Y-13272619D01*
X13973809Y-13244048D01*
X13983333Y-13225000D01*
X14002381Y-13196428D01*
X14011905Y-13186905D01*
X14192857Y-13415476D02*
X14078571Y-13415476D01*
X14135714Y-13415476D02*
X14135714Y-13215476D01*
X14116667Y-13244048D01*
X14097619Y-13263095D01*
X14078571Y-13272619D01*
X14364286Y-13215476D02*
X14326190Y-13215476D01*
X14307143Y-13225000D01*
X14297619Y-13234524D01*
X14278571Y-13263095D01*
X14269048Y-13301190D01*
X14269048Y-13377381D01*
X14278571Y-13396428D01*
X14288095Y-13405952D01*
X14307143Y-13415476D01*
X14345238Y-13415476D01*
X14364286Y-13405952D01*
X14373809Y-13396428D01*
X14383333Y-13377381D01*
X14383333Y-13329762D01*
X14373809Y-13310714D01*
X14364286Y-13301190D01*
X14345238Y-13291667D01*
X14307143Y-13291667D01*
X14288095Y-13301190D01*
X14278571Y-13310714D01*
X14269048Y-13329762D01*
X14621428Y-13415476D02*
X14621428Y-13215476D01*
X14707143Y-13415476D02*
X14707143Y-13310714D01*
X14697619Y-13291667D01*
X14678571Y-13282143D01*
X14650000Y-13282143D01*
X14630952Y-13291667D01*
X14621428Y-13301190D01*
X14830952Y-13415476D02*
X14811905Y-13405952D01*
X14802381Y-13396428D01*
X14792857Y-13377381D01*
X14792857Y-13320238D01*
X14802381Y-13301190D01*
X14811905Y-13291667D01*
X14830952Y-13282143D01*
X14859524Y-13282143D01*
X14878571Y-13291667D01*
X14888095Y-13301190D01*
X14897619Y-13320238D01*
X14897619Y-13377381D01*
X14888095Y-13396428D01*
X14878571Y-13405952D01*
X14859524Y-13415476D01*
X14830952Y-13415476D01*
X15011905Y-13415476D02*
X14992857Y-13405952D01*
X14983333Y-13386905D01*
X14983333Y-13215476D01*
X15164286Y-13405952D02*
X15145238Y-13415476D01*
X15107143Y-13415476D01*
X15088095Y-13405952D01*
X15078571Y-13386905D01*
X15078571Y-13310714D01*
X15088095Y-13291667D01*
X15107143Y-13282143D01*
X15145238Y-13282143D01*
X15164286Y-13291667D01*
X15173809Y-13310714D01*
X15173809Y-13329762D01*
X15078571Y-13348809D01*
X15250000Y-13405952D02*
X15269048Y-13415476D01*
X15307143Y-13415476D01*
X15326190Y-13405952D01*
X15335714Y-13386905D01*
X15335714Y-13377381D01*
X15326190Y-13358333D01*
X15307143Y-13348809D01*
X15278571Y-13348809D01*
X15259524Y-13339286D01*
X15250000Y-13320238D01*
X15250000Y-13310714D01*
X15259524Y-13291667D01*
X15278571Y-13282143D01*
X15307143Y-13282143D01*
X15326190Y-13291667D01*
X15402381Y-13491667D02*
X15411905Y-13482143D01*
X15430952Y-13453571D01*
X15440476Y-13434524D01*
X15450000Y-13405952D01*
X15459524Y-13358333D01*
X15459524Y-13320238D01*
X15450000Y-13272619D01*
X15440476Y-13244048D01*
X15430952Y-13225000D01*
X15411905Y-13196428D01*
X15402381Y-13186905D01*
D13*
X10440000Y-13589000D02*
G75*
G03*
X10440000Y-13589000I-47500J0D01*
G01*
D11*
X10735714Y-13479476D02*
X10754762Y-13479476D01*
X10773810Y-13489000D01*
X10783333Y-13498524D01*
X10792857Y-13517571D01*
X10802381Y-13555667D01*
X10802381Y-13603286D01*
X10792857Y-13641381D01*
X10783333Y-13660428D01*
X10773810Y-13669952D01*
X10754762Y-13679476D01*
X10735714Y-13679476D01*
X10716667Y-13669952D01*
X10707143Y-13660428D01*
X10697619Y-13641381D01*
X10688095Y-13603286D01*
X10688095Y-13555667D01*
X10697619Y-13517571D01*
X10707143Y-13498524D01*
X10716667Y-13489000D01*
X10735714Y-13479476D01*
X10888095Y-13660428D02*
X10897619Y-13669952D01*
X10888095Y-13679476D01*
X10878571Y-13669952D01*
X10888095Y-13660428D01*
X10888095Y-13679476D01*
X10992857Y-13679476D02*
X11030952Y-13679476D01*
X11050000Y-13669952D01*
X11059524Y-13660428D01*
X11078571Y-13631857D01*
X11088095Y-13593762D01*
X11088095Y-13517571D01*
X11078571Y-13498524D01*
X11069048Y-13489000D01*
X11050000Y-13479476D01*
X11011905Y-13479476D01*
X10992857Y-13489000D01*
X10983333Y-13498524D01*
X10973810Y-13517571D01*
X10973810Y-13565190D01*
X10983333Y-13584238D01*
X10992857Y-13593762D01*
X11011905Y-13603286D01*
X11050000Y-13603286D01*
X11069048Y-13593762D01*
X11078571Y-13584238D01*
X11088095Y-13565190D01*
X11269048Y-13479476D02*
X11173810Y-13479476D01*
X11164286Y-13574714D01*
X11173810Y-13565190D01*
X11192857Y-13555667D01*
X11240476Y-13555667D01*
X11259524Y-13565190D01*
X11269048Y-13574714D01*
X11278571Y-13593762D01*
X11278571Y-13641381D01*
X11269048Y-13660428D01*
X11259524Y-13669952D01*
X11240476Y-13679476D01*
X11192857Y-13679476D01*
X11173810Y-13669952D01*
X11164286Y-13660428D01*
X11402381Y-13479476D02*
X11421428Y-13479476D01*
X11440476Y-13489000D01*
X11450000Y-13498524D01*
X11459524Y-13517571D01*
X11469048Y-13555667D01*
X11469048Y-13603286D01*
X11459524Y-13641381D01*
X11450000Y-13660428D01*
X11440476Y-13669952D01*
X11421428Y-13679476D01*
X11402381Y-13679476D01*
X11383333Y-13669952D01*
X11373809Y-13660428D01*
X11364286Y-13641381D01*
X11354762Y-13603286D01*
X11354762Y-13555667D01*
X11364286Y-13517571D01*
X11373809Y-13498524D01*
X11383333Y-13489000D01*
X11402381Y-13479476D01*
X11554762Y-13679476D02*
X11554762Y-13546143D01*
X11554762Y-13565190D02*
X11564286Y-13555667D01*
X11583333Y-13546143D01*
X11611905Y-13546143D01*
X11630952Y-13555667D01*
X11640476Y-13574714D01*
X11640476Y-13679476D01*
X11640476Y-13574714D02*
X11650000Y-13555667D01*
X11669048Y-13546143D01*
X11697619Y-13546143D01*
X11716667Y-13555667D01*
X11726190Y-13574714D01*
X11726190Y-13679476D01*
X11821428Y-13679476D02*
X11821428Y-13546143D01*
X11821428Y-13565190D02*
X11830952Y-13555667D01*
X11850000Y-13546143D01*
X11878571Y-13546143D01*
X11897619Y-13555667D01*
X11907143Y-13574714D01*
X11907143Y-13679476D01*
X11907143Y-13574714D02*
X11916667Y-13555667D01*
X11935714Y-13546143D01*
X11964286Y-13546143D01*
X11983333Y-13555667D01*
X11992857Y-13574714D01*
X11992857Y-13679476D01*
X12383333Y-13469952D02*
X12211905Y-13727095D01*
X12640476Y-13479476D02*
X12659524Y-13479476D01*
X12678571Y-13489000D01*
X12688095Y-13498524D01*
X12697619Y-13517571D01*
X12707143Y-13555667D01*
X12707143Y-13603286D01*
X12697619Y-13641381D01*
X12688095Y-13660428D01*
X12678571Y-13669952D01*
X12659524Y-13679476D01*
X12640476Y-13679476D01*
X12621428Y-13669952D01*
X12611905Y-13660428D01*
X12602381Y-13641381D01*
X12592857Y-13603286D01*
X12592857Y-13555667D01*
X12602381Y-13517571D01*
X12611905Y-13498524D01*
X12621428Y-13489000D01*
X12640476Y-13479476D01*
X12792857Y-13660428D02*
X12802381Y-13669952D01*
X12792857Y-13679476D01*
X12783333Y-13669952D01*
X12792857Y-13660428D01*
X12792857Y-13679476D01*
X12926190Y-13479476D02*
X12945238Y-13479476D01*
X12964286Y-13489000D01*
X12973809Y-13498524D01*
X12983333Y-13517571D01*
X12992857Y-13555667D01*
X12992857Y-13603286D01*
X12983333Y-13641381D01*
X12973809Y-13660428D01*
X12964286Y-13669952D01*
X12945238Y-13679476D01*
X12926190Y-13679476D01*
X12907143Y-13669952D01*
X12897619Y-13660428D01*
X12888095Y-13641381D01*
X12878571Y-13603286D01*
X12878571Y-13555667D01*
X12888095Y-13517571D01*
X12897619Y-13498524D01*
X12907143Y-13489000D01*
X12926190Y-13479476D01*
X13059524Y-13479476D02*
X13183333Y-13479476D01*
X13116667Y-13555667D01*
X13145238Y-13555667D01*
X13164286Y-13565190D01*
X13173809Y-13574714D01*
X13183333Y-13593762D01*
X13183333Y-13641381D01*
X13173809Y-13660428D01*
X13164286Y-13669952D01*
X13145238Y-13679476D01*
X13088095Y-13679476D01*
X13069048Y-13669952D01*
X13059524Y-13660428D01*
X13250000Y-13479476D02*
X13383333Y-13479476D01*
X13297619Y-13679476D01*
X13545238Y-13546143D02*
X13545238Y-13679476D01*
X13497619Y-13469952D02*
X13450000Y-13612809D01*
X13573809Y-13612809D01*
X13640476Y-13479476D02*
X13640476Y-13517571D01*
X13716667Y-13479476D02*
X13716667Y-13517571D01*
X14011905Y-13755667D02*
X14002381Y-13746143D01*
X13983333Y-13717571D01*
X13973809Y-13698524D01*
X13964286Y-13669952D01*
X13954762Y-13622333D01*
X13954762Y-13584238D01*
X13964286Y-13536619D01*
X13973809Y-13508048D01*
X13983333Y-13489000D01*
X14002381Y-13460428D01*
X14011905Y-13450905D01*
X14192857Y-13679476D02*
X14078571Y-13679476D01*
X14135714Y-13679476D02*
X14135714Y-13479476D01*
X14116667Y-13508048D01*
X14097619Y-13527095D01*
X14078571Y-13536619D01*
X14288095Y-13679476D02*
X14326190Y-13679476D01*
X14345238Y-13669952D01*
X14354762Y-13660428D01*
X14373809Y-13631857D01*
X14383333Y-13593762D01*
X14383333Y-13517571D01*
X14373809Y-13498524D01*
X14364286Y-13489000D01*
X14345238Y-13479476D01*
X14307143Y-13479476D01*
X14288095Y-13489000D01*
X14278571Y-13498524D01*
X14269048Y-13517571D01*
X14269048Y-13565190D01*
X14278571Y-13584238D01*
X14288095Y-13593762D01*
X14307143Y-13603286D01*
X14345238Y-13603286D01*
X14364286Y-13593762D01*
X14373809Y-13584238D01*
X14383333Y-13565190D01*
X14621428Y-13679476D02*
X14621428Y-13479476D01*
X14707143Y-13679476D02*
X14707143Y-13574714D01*
X14697619Y-13555667D01*
X14678571Y-13546143D01*
X14650000Y-13546143D01*
X14630952Y-13555667D01*
X14621428Y-13565190D01*
X14830952Y-13679476D02*
X14811905Y-13669952D01*
X14802381Y-13660428D01*
X14792857Y-13641381D01*
X14792857Y-13584238D01*
X14802381Y-13565190D01*
X14811905Y-13555667D01*
X14830952Y-13546143D01*
X14859524Y-13546143D01*
X14878571Y-13555667D01*
X14888095Y-13565190D01*
X14897619Y-13584238D01*
X14897619Y-13641381D01*
X14888095Y-13660428D01*
X14878571Y-13669952D01*
X14859524Y-13679476D01*
X14830952Y-13679476D01*
X15011905Y-13679476D02*
X14992857Y-13669952D01*
X14983333Y-13650905D01*
X14983333Y-13479476D01*
X15164286Y-13669952D02*
X15145238Y-13679476D01*
X15107143Y-13679476D01*
X15088095Y-13669952D01*
X15078571Y-13650905D01*
X15078571Y-13574714D01*
X15088095Y-13555667D01*
X15107143Y-13546143D01*
X15145238Y-13546143D01*
X15164286Y-13555667D01*
X15173809Y-13574714D01*
X15173809Y-13593762D01*
X15078571Y-13612809D01*
X15250000Y-13669952D02*
X15269048Y-13679476D01*
X15307143Y-13679476D01*
X15326190Y-13669952D01*
X15335714Y-13650905D01*
X15335714Y-13641381D01*
X15326190Y-13622333D01*
X15307143Y-13612809D01*
X15278571Y-13612809D01*
X15259524Y-13603286D01*
X15250000Y-13584238D01*
X15250000Y-13574714D01*
X15259524Y-13555667D01*
X15278571Y-13546143D01*
X15307143Y-13546143D01*
X15326190Y-13555667D01*
X15402381Y-13755667D02*
X15411905Y-13746143D01*
X15430952Y-13717571D01*
X15440476Y-13698524D01*
X15450000Y-13669952D01*
X15459524Y-13622333D01*
X15459524Y-13584238D01*
X15450000Y-13536619D01*
X15440476Y-13508048D01*
X15430952Y-13489000D01*
X15411905Y-13460428D01*
X15402381Y-13450905D01*
D14*
X10390000Y-13803000D02*
X10390000Y-13903000D01*
X10340000Y-13853000D02*
X10440000Y-13853000D01*
D11*
X10802381Y-13943476D02*
X10688095Y-13943476D01*
X10745238Y-13943476D02*
X10745238Y-13743476D01*
X10726190Y-13772048D01*
X10707143Y-13791095D01*
X10688095Y-13800619D01*
X10888095Y-13924428D02*
X10897619Y-13933952D01*
X10888095Y-13943476D01*
X10878571Y-13933952D01*
X10888095Y-13924428D01*
X10888095Y-13943476D01*
X11021429Y-13743476D02*
X11040476Y-13743476D01*
X11059524Y-13753000D01*
X11069048Y-13762524D01*
X11078571Y-13781571D01*
X11088095Y-13819667D01*
X11088095Y-13867286D01*
X11078571Y-13905381D01*
X11069048Y-13924428D01*
X11059524Y-13933952D01*
X11040476Y-13943476D01*
X11021429Y-13943476D01*
X11002381Y-13933952D01*
X10992857Y-13924428D01*
X10983333Y-13905381D01*
X10973810Y-13867286D01*
X10973810Y-13819667D01*
X10983333Y-13781571D01*
X10992857Y-13762524D01*
X11002381Y-13753000D01*
X11021429Y-13743476D01*
X11211905Y-13743476D02*
X11230952Y-13743476D01*
X11250000Y-13753000D01*
X11259524Y-13762524D01*
X11269048Y-13781571D01*
X11278571Y-13819667D01*
X11278571Y-13867286D01*
X11269048Y-13905381D01*
X11259524Y-13924428D01*
X11250000Y-13933952D01*
X11230952Y-13943476D01*
X11211905Y-13943476D01*
X11192857Y-13933952D01*
X11183333Y-13924428D01*
X11173810Y-13905381D01*
X11164286Y-13867286D01*
X11164286Y-13819667D01*
X11173810Y-13781571D01*
X11183333Y-13762524D01*
X11192857Y-13753000D01*
X11211905Y-13743476D01*
X11402381Y-13743476D02*
X11421428Y-13743476D01*
X11440476Y-13753000D01*
X11450000Y-13762524D01*
X11459524Y-13781571D01*
X11469048Y-13819667D01*
X11469048Y-13867286D01*
X11459524Y-13905381D01*
X11450000Y-13924428D01*
X11440476Y-13933952D01*
X11421428Y-13943476D01*
X11402381Y-13943476D01*
X11383333Y-13933952D01*
X11373809Y-13924428D01*
X11364286Y-13905381D01*
X11354762Y-13867286D01*
X11354762Y-13819667D01*
X11364286Y-13781571D01*
X11373809Y-13762524D01*
X11383333Y-13753000D01*
X11402381Y-13743476D01*
X11554762Y-13943476D02*
X11554762Y-13810143D01*
X11554762Y-13829190D02*
X11564286Y-13819667D01*
X11583333Y-13810143D01*
X11611905Y-13810143D01*
X11630952Y-13819667D01*
X11640476Y-13838714D01*
X11640476Y-13943476D01*
X11640476Y-13838714D02*
X11650000Y-13819667D01*
X11669048Y-13810143D01*
X11697619Y-13810143D01*
X11716667Y-13819667D01*
X11726190Y-13838714D01*
X11726190Y-13943476D01*
X11821428Y-13943476D02*
X11821428Y-13810143D01*
X11821428Y-13829190D02*
X11830952Y-13819667D01*
X11850000Y-13810143D01*
X11878571Y-13810143D01*
X11897619Y-13819667D01*
X11907143Y-13838714D01*
X11907143Y-13943476D01*
X11907143Y-13838714D02*
X11916667Y-13819667D01*
X11935714Y-13810143D01*
X11964286Y-13810143D01*
X11983333Y-13819667D01*
X11992857Y-13838714D01*
X11992857Y-13943476D01*
X12383333Y-13733952D02*
X12211905Y-13991095D01*
X12640476Y-13743476D02*
X12659524Y-13743476D01*
X12678571Y-13753000D01*
X12688095Y-13762524D01*
X12697619Y-13781571D01*
X12707143Y-13819667D01*
X12707143Y-13867286D01*
X12697619Y-13905381D01*
X12688095Y-13924428D01*
X12678571Y-13933952D01*
X12659524Y-13943476D01*
X12640476Y-13943476D01*
X12621428Y-13933952D01*
X12611905Y-13924428D01*
X12602381Y-13905381D01*
X12592857Y-13867286D01*
X12592857Y-13819667D01*
X12602381Y-13781571D01*
X12611905Y-13762524D01*
X12621428Y-13753000D01*
X12640476Y-13743476D01*
X12792857Y-13924428D02*
X12802381Y-13933952D01*
X12792857Y-13943476D01*
X12783333Y-13933952D01*
X12792857Y-13924428D01*
X12792857Y-13943476D01*
X12926190Y-13743476D02*
X12945238Y-13743476D01*
X12964286Y-13753000D01*
X12973809Y-13762524D01*
X12983333Y-13781571D01*
X12992857Y-13819667D01*
X12992857Y-13867286D01*
X12983333Y-13905381D01*
X12973809Y-13924428D01*
X12964286Y-13933952D01*
X12945238Y-13943476D01*
X12926190Y-13943476D01*
X12907143Y-13933952D01*
X12897619Y-13924428D01*
X12888095Y-13905381D01*
X12878571Y-13867286D01*
X12878571Y-13819667D01*
X12888095Y-13781571D01*
X12897619Y-13762524D01*
X12907143Y-13753000D01*
X12926190Y-13743476D01*
X13059524Y-13743476D02*
X13183333Y-13743476D01*
X13116667Y-13819667D01*
X13145238Y-13819667D01*
X13164286Y-13829190D01*
X13173809Y-13838714D01*
X13183333Y-13857762D01*
X13183333Y-13905381D01*
X13173809Y-13924428D01*
X13164286Y-13933952D01*
X13145238Y-13943476D01*
X13088095Y-13943476D01*
X13069048Y-13933952D01*
X13059524Y-13924428D01*
X13278571Y-13943476D02*
X13316667Y-13943476D01*
X13335714Y-13933952D01*
X13345238Y-13924428D01*
X13364286Y-13895857D01*
X13373809Y-13857762D01*
X13373809Y-13781571D01*
X13364286Y-13762524D01*
X13354762Y-13753000D01*
X13335714Y-13743476D01*
X13297619Y-13743476D01*
X13278571Y-13753000D01*
X13269048Y-13762524D01*
X13259524Y-13781571D01*
X13259524Y-13829190D01*
X13269048Y-13848238D01*
X13278571Y-13857762D01*
X13297619Y-13867286D01*
X13335714Y-13867286D01*
X13354762Y-13857762D01*
X13364286Y-13848238D01*
X13373809Y-13829190D01*
X13545238Y-13810143D02*
X13545238Y-13943476D01*
X13497619Y-13733952D02*
X13450000Y-13876809D01*
X13573809Y-13876809D01*
X13640476Y-13743476D02*
X13640476Y-13781571D01*
X13716667Y-13743476D02*
X13716667Y-13781571D01*
X14011905Y-14019667D02*
X14002381Y-14010143D01*
X13983333Y-13981571D01*
X13973809Y-13962524D01*
X13964286Y-13933952D01*
X13954762Y-13886333D01*
X13954762Y-13848238D01*
X13964286Y-13800619D01*
X13973809Y-13772048D01*
X13983333Y-13753000D01*
X14002381Y-13724428D01*
X14011905Y-13714905D01*
X14173809Y-13810143D02*
X14173809Y-13943476D01*
X14126190Y-13733952D02*
X14078571Y-13876809D01*
X14202381Y-13876809D01*
X14316667Y-13743476D02*
X14335714Y-13743476D01*
X14354762Y-13753000D01*
X14364286Y-13762524D01*
X14373809Y-13781571D01*
X14383333Y-13819667D01*
X14383333Y-13867286D01*
X14373809Y-13905381D01*
X14364286Y-13924428D01*
X14354762Y-13933952D01*
X14335714Y-13943476D01*
X14316667Y-13943476D01*
X14297619Y-13933952D01*
X14288095Y-13924428D01*
X14278571Y-13905381D01*
X14269048Y-13867286D01*
X14269048Y-13819667D01*
X14278571Y-13781571D01*
X14288095Y-13762524D01*
X14297619Y-13753000D01*
X14316667Y-13743476D01*
X14621428Y-13943476D02*
X14621428Y-13743476D01*
X14707143Y-13943476D02*
X14707143Y-13838714D01*
X14697619Y-13819667D01*
X14678571Y-13810143D01*
X14650000Y-13810143D01*
X14630952Y-13819667D01*
X14621428Y-13829190D01*
X14830952Y-13943476D02*
X14811905Y-13933952D01*
X14802381Y-13924428D01*
X14792857Y-13905381D01*
X14792857Y-13848238D01*
X14802381Y-13829190D01*
X14811905Y-13819667D01*
X14830952Y-13810143D01*
X14859524Y-13810143D01*
X14878571Y-13819667D01*
X14888095Y-13829190D01*
X14897619Y-13848238D01*
X14897619Y-13905381D01*
X14888095Y-13924428D01*
X14878571Y-13933952D01*
X14859524Y-13943476D01*
X14830952Y-13943476D01*
X15011905Y-13943476D02*
X14992857Y-13933952D01*
X14983333Y-13914905D01*
X14983333Y-13743476D01*
X15164286Y-13933952D02*
X15145238Y-13943476D01*
X15107143Y-13943476D01*
X15088095Y-13933952D01*
X15078571Y-13914905D01*
X15078571Y-13838714D01*
X15088095Y-13819667D01*
X15107143Y-13810143D01*
X15145238Y-13810143D01*
X15164286Y-13819667D01*
X15173809Y-13838714D01*
X15173809Y-13857762D01*
X15078571Y-13876809D01*
X15250000Y-13933952D02*
X15269048Y-13943476D01*
X15307143Y-13943476D01*
X15326190Y-13933952D01*
X15335714Y-13914905D01*
X15335714Y-13905381D01*
X15326190Y-13886333D01*
X15307143Y-13876809D01*
X15278571Y-13876809D01*
X15259524Y-13867286D01*
X15250000Y-13848238D01*
X15250000Y-13838714D01*
X15259524Y-13819667D01*
X15278571Y-13810143D01*
X15307143Y-13810143D01*
X15326190Y-13819667D01*
X15402381Y-14019667D02*
X15411905Y-14010143D01*
X15430952Y-13981571D01*
X15440476Y-13962524D01*
X15450000Y-13933952D01*
X15459524Y-13886333D01*
X15459524Y-13848238D01*
X15450000Y-13800619D01*
X15440476Y-13772048D01*
X15430952Y-13753000D01*
X15411905Y-13724428D01*
X15402381Y-13714905D01*
D15*
X10423891Y-14155891D02*
X10423891Y-14078109D01*
X10346109Y-14078109D01*
X10346109Y-14155891D01*
X10423891Y-14155891D01*
D11*
X10802381Y-14207476D02*
X10688095Y-14207476D01*
X10745238Y-14207476D02*
X10745238Y-14007476D01*
X10726190Y-14036048D01*
X10707143Y-14055095D01*
X10688095Y-14064619D01*
X10888095Y-14188428D02*
X10897619Y-14197952D01*
X10888095Y-14207476D01*
X10878571Y-14197952D01*
X10888095Y-14188428D01*
X10888095Y-14207476D01*
X11088095Y-14207476D02*
X10973810Y-14207476D01*
X11030952Y-14207476D02*
X11030952Y-14007476D01*
X11011905Y-14036048D01*
X10992857Y-14055095D01*
X10973810Y-14064619D01*
X11211905Y-14007476D02*
X11230952Y-14007476D01*
X11250000Y-14017000D01*
X11259524Y-14026524D01*
X11269048Y-14045571D01*
X11278571Y-14083667D01*
X11278571Y-14131286D01*
X11269048Y-14169381D01*
X11259524Y-14188428D01*
X11250000Y-14197952D01*
X11230952Y-14207476D01*
X11211905Y-14207476D01*
X11192857Y-14197952D01*
X11183333Y-14188428D01*
X11173810Y-14169381D01*
X11164286Y-14131286D01*
X11164286Y-14083667D01*
X11173810Y-14045571D01*
X11183333Y-14026524D01*
X11192857Y-14017000D01*
X11211905Y-14007476D01*
X11402381Y-14007476D02*
X11421428Y-14007476D01*
X11440476Y-14017000D01*
X11450000Y-14026524D01*
X11459524Y-14045571D01*
X11469048Y-14083667D01*
X11469048Y-14131286D01*
X11459524Y-14169381D01*
X11450000Y-14188428D01*
X11440476Y-14197952D01*
X11421428Y-14207476D01*
X11402381Y-14207476D01*
X11383333Y-14197952D01*
X11373809Y-14188428D01*
X11364286Y-14169381D01*
X11354762Y-14131286D01*
X11354762Y-14083667D01*
X11364286Y-14045571D01*
X11373809Y-14026524D01*
X11383333Y-14017000D01*
X11402381Y-14007476D01*
X11554762Y-14207476D02*
X11554762Y-14074143D01*
X11554762Y-14093190D02*
X11564286Y-14083667D01*
X11583333Y-14074143D01*
X11611905Y-14074143D01*
X11630952Y-14083667D01*
X11640476Y-14102714D01*
X11640476Y-14207476D01*
X11640476Y-14102714D02*
X11650000Y-14083667D01*
X11669048Y-14074143D01*
X11697619Y-14074143D01*
X11716667Y-14083667D01*
X11726190Y-14102714D01*
X11726190Y-14207476D01*
X11821428Y-14207476D02*
X11821428Y-14074143D01*
X11821428Y-14093190D02*
X11830952Y-14083667D01*
X11850000Y-14074143D01*
X11878571Y-14074143D01*
X11897619Y-14083667D01*
X11907143Y-14102714D01*
X11907143Y-14207476D01*
X11907143Y-14102714D02*
X11916667Y-14083667D01*
X11935714Y-14074143D01*
X11964286Y-14074143D01*
X11983333Y-14083667D01*
X11992857Y-14102714D01*
X11992857Y-14207476D01*
X12383333Y-13997952D02*
X12211905Y-14255095D01*
X12640476Y-14007476D02*
X12659524Y-14007476D01*
X12678571Y-14017000D01*
X12688095Y-14026524D01*
X12697619Y-14045571D01*
X12707143Y-14083667D01*
X12707143Y-14131286D01*
X12697619Y-14169381D01*
X12688095Y-14188428D01*
X12678571Y-14197952D01*
X12659524Y-14207476D01*
X12640476Y-14207476D01*
X12621428Y-14197952D01*
X12611905Y-14188428D01*
X12602381Y-14169381D01*
X12592857Y-14131286D01*
X12592857Y-14083667D01*
X12602381Y-14045571D01*
X12611905Y-14026524D01*
X12621428Y-14017000D01*
X12640476Y-14007476D01*
X12792857Y-14188428D02*
X12802381Y-14197952D01*
X12792857Y-14207476D01*
X12783333Y-14197952D01*
X12792857Y-14188428D01*
X12792857Y-14207476D01*
X12926190Y-14007476D02*
X12945238Y-14007476D01*
X12964286Y-14017000D01*
X12973809Y-14026524D01*
X12983333Y-14045571D01*
X12992857Y-14083667D01*
X12992857Y-14131286D01*
X12983333Y-14169381D01*
X12973809Y-14188428D01*
X12964286Y-14197952D01*
X12945238Y-14207476D01*
X12926190Y-14207476D01*
X12907143Y-14197952D01*
X12897619Y-14188428D01*
X12888095Y-14169381D01*
X12878571Y-14131286D01*
X12878571Y-14083667D01*
X12888095Y-14045571D01*
X12897619Y-14026524D01*
X12907143Y-14017000D01*
X12926190Y-14007476D01*
X13164286Y-14074143D02*
X13164286Y-14207476D01*
X13116667Y-13997952D02*
X13069048Y-14140809D01*
X13192857Y-14140809D01*
X13250000Y-14007476D02*
X13373809Y-14007476D01*
X13307143Y-14083667D01*
X13335714Y-14083667D01*
X13354762Y-14093190D01*
X13364286Y-14102714D01*
X13373809Y-14121762D01*
X13373809Y-14169381D01*
X13364286Y-14188428D01*
X13354762Y-14197952D01*
X13335714Y-14207476D01*
X13278571Y-14207476D01*
X13259524Y-14197952D01*
X13250000Y-14188428D01*
X13440476Y-14007476D02*
X13564286Y-14007476D01*
X13497619Y-14083667D01*
X13526190Y-14083667D01*
X13545238Y-14093190D01*
X13554762Y-14102714D01*
X13564286Y-14121762D01*
X13564286Y-14169381D01*
X13554762Y-14188428D01*
X13545238Y-14197952D01*
X13526190Y-14207476D01*
X13469048Y-14207476D01*
X13450000Y-14197952D01*
X13440476Y-14188428D01*
X13640476Y-14007476D02*
X13640476Y-14045571D01*
X13716667Y-14007476D02*
X13716667Y-14045571D01*
X14011905Y-14283667D02*
X14002381Y-14274143D01*
X13983333Y-14245571D01*
X13973809Y-14226524D01*
X13964286Y-14197952D01*
X13954762Y-14150333D01*
X13954762Y-14112238D01*
X13964286Y-14064619D01*
X13973809Y-14036048D01*
X13983333Y-14017000D01*
X14002381Y-13988428D01*
X14011905Y-13978905D01*
X14069048Y-14007476D02*
X14192857Y-14007476D01*
X14126190Y-14083667D01*
X14154762Y-14083667D01*
X14173809Y-14093190D01*
X14183333Y-14102714D01*
X14192857Y-14121762D01*
X14192857Y-14169381D01*
X14183333Y-14188428D01*
X14173809Y-14197952D01*
X14154762Y-14207476D01*
X14097619Y-14207476D01*
X14078571Y-14197952D01*
X14069048Y-14188428D01*
X14269048Y-14026524D02*
X14278571Y-14017000D01*
X14297619Y-14007476D01*
X14345238Y-14007476D01*
X14364286Y-14017000D01*
X14373809Y-14026524D01*
X14383333Y-14045571D01*
X14383333Y-14064619D01*
X14373809Y-14093190D01*
X14259524Y-14207476D01*
X14383333Y-14207476D01*
X14621428Y-14207476D02*
X14621428Y-14007476D01*
X14707143Y-14207476D02*
X14707143Y-14102714D01*
X14697619Y-14083667D01*
X14678571Y-14074143D01*
X14650000Y-14074143D01*
X14630952Y-14083667D01*
X14621428Y-14093190D01*
X14830952Y-14207476D02*
X14811905Y-14197952D01*
X14802381Y-14188428D01*
X14792857Y-14169381D01*
X14792857Y-14112238D01*
X14802381Y-14093190D01*
X14811905Y-14083667D01*
X14830952Y-14074143D01*
X14859524Y-14074143D01*
X14878571Y-14083667D01*
X14888095Y-14093190D01*
X14897619Y-14112238D01*
X14897619Y-14169381D01*
X14888095Y-14188428D01*
X14878571Y-14197952D01*
X14859524Y-14207476D01*
X14830952Y-14207476D01*
X15011905Y-14207476D02*
X14992857Y-14197952D01*
X14983333Y-14178905D01*
X14983333Y-14007476D01*
X15164286Y-14197952D02*
X15145238Y-14207476D01*
X15107143Y-14207476D01*
X15088095Y-14197952D01*
X15078571Y-14178905D01*
X15078571Y-14102714D01*
X15088095Y-14083667D01*
X15107143Y-14074143D01*
X15145238Y-14074143D01*
X15164286Y-14083667D01*
X15173809Y-14102714D01*
X15173809Y-14121762D01*
X15078571Y-14140809D01*
X15250000Y-14197952D02*
X15269048Y-14207476D01*
X15307143Y-14207476D01*
X15326190Y-14197952D01*
X15335714Y-14178905D01*
X15335714Y-14169381D01*
X15326190Y-14150333D01*
X15307143Y-14140809D01*
X15278571Y-14140809D01*
X15259524Y-14131286D01*
X15250000Y-14112238D01*
X15250000Y-14102714D01*
X15259524Y-14083667D01*
X15278571Y-14074143D01*
X15307143Y-14074143D01*
X15326190Y-14083667D01*
X15402381Y-14283667D02*
X15411905Y-14274143D01*
X15430952Y-14245571D01*
X15440476Y-14226524D01*
X15450000Y-14197952D01*
X15459524Y-14150333D01*
X15459524Y-14112238D01*
X15450000Y-14064619D01*
X15440476Y-14036048D01*
X15430952Y-14017000D01*
X15411905Y-13988428D01*
X15402381Y-13978905D01*
D16*
X10380500Y-14440500D02*
X10440000Y-14381000D01*
X10380500Y-14321500D01*
X10321000Y-14381000D01*
X10380500Y-14440500D01*
D11*
X10802381Y-14471476D02*
X10688095Y-14471476D01*
X10745238Y-14471476D02*
X10745238Y-14271476D01*
X10726190Y-14300048D01*
X10707143Y-14319095D01*
X10688095Y-14328619D01*
X10888095Y-14452428D02*
X10897619Y-14461952D01*
X10888095Y-14471476D01*
X10878571Y-14461952D01*
X10888095Y-14452428D01*
X10888095Y-14471476D01*
X11088095Y-14471476D02*
X10973810Y-14471476D01*
X11030952Y-14471476D02*
X11030952Y-14271476D01*
X11011905Y-14300048D01*
X10992857Y-14319095D01*
X10973810Y-14328619D01*
X11183333Y-14471476D02*
X11221428Y-14471476D01*
X11240476Y-14461952D01*
X11250000Y-14452428D01*
X11269048Y-14423857D01*
X11278571Y-14385762D01*
X11278571Y-14309571D01*
X11269048Y-14290524D01*
X11259524Y-14281000D01*
X11240476Y-14271476D01*
X11202381Y-14271476D01*
X11183333Y-14281000D01*
X11173810Y-14290524D01*
X11164286Y-14309571D01*
X11164286Y-14357190D01*
X11173810Y-14376238D01*
X11183333Y-14385762D01*
X11202381Y-14395286D01*
X11240476Y-14395286D01*
X11259524Y-14385762D01*
X11269048Y-14376238D01*
X11278571Y-14357190D01*
X11402381Y-14271476D02*
X11421428Y-14271476D01*
X11440476Y-14281000D01*
X11450000Y-14290524D01*
X11459524Y-14309571D01*
X11469048Y-14347667D01*
X11469048Y-14395286D01*
X11459524Y-14433381D01*
X11450000Y-14452428D01*
X11440476Y-14461952D01*
X11421428Y-14471476D01*
X11402381Y-14471476D01*
X11383333Y-14461952D01*
X11373809Y-14452428D01*
X11364286Y-14433381D01*
X11354762Y-14395286D01*
X11354762Y-14347667D01*
X11364286Y-14309571D01*
X11373809Y-14290524D01*
X11383333Y-14281000D01*
X11402381Y-14271476D01*
X11554762Y-14471476D02*
X11554762Y-14338143D01*
X11554762Y-14357190D02*
X11564286Y-14347667D01*
X11583333Y-14338143D01*
X11611905Y-14338143D01*
X11630952Y-14347667D01*
X11640476Y-14366714D01*
X11640476Y-14471476D01*
X11640476Y-14366714D02*
X11650000Y-14347667D01*
X11669048Y-14338143D01*
X11697619Y-14338143D01*
X11716667Y-14347667D01*
X11726190Y-14366714D01*
X11726190Y-14471476D01*
X11821428Y-14471476D02*
X11821428Y-14338143D01*
X11821428Y-14357190D02*
X11830952Y-14347667D01*
X11850000Y-14338143D01*
X11878571Y-14338143D01*
X11897619Y-14347667D01*
X11907143Y-14366714D01*
X11907143Y-14471476D01*
X11907143Y-14366714D02*
X11916667Y-14347667D01*
X11935714Y-14338143D01*
X11964286Y-14338143D01*
X11983333Y-14347667D01*
X11992857Y-14366714D01*
X11992857Y-14471476D01*
X12383333Y-14261952D02*
X12211905Y-14519095D01*
X12640476Y-14271476D02*
X12659524Y-14271476D01*
X12678571Y-14281000D01*
X12688095Y-14290524D01*
X12697619Y-14309571D01*
X12707143Y-14347667D01*
X12707143Y-14395286D01*
X12697619Y-14433381D01*
X12688095Y-14452428D01*
X12678571Y-14461952D01*
X12659524Y-14471476D01*
X12640476Y-14471476D01*
X12621428Y-14461952D01*
X12611905Y-14452428D01*
X12602381Y-14433381D01*
X12592857Y-14395286D01*
X12592857Y-14347667D01*
X12602381Y-14309571D01*
X12611905Y-14290524D01*
X12621428Y-14281000D01*
X12640476Y-14271476D01*
X12792857Y-14452428D02*
X12802381Y-14461952D01*
X12792857Y-14471476D01*
X12783333Y-14461952D01*
X12792857Y-14452428D01*
X12792857Y-14471476D01*
X12926190Y-14271476D02*
X12945238Y-14271476D01*
X12964286Y-14281000D01*
X12973809Y-14290524D01*
X12983333Y-14309571D01*
X12992857Y-14347667D01*
X12992857Y-14395286D01*
X12983333Y-14433381D01*
X12973809Y-14452428D01*
X12964286Y-14461952D01*
X12945238Y-14471476D01*
X12926190Y-14471476D01*
X12907143Y-14461952D01*
X12897619Y-14452428D01*
X12888095Y-14433381D01*
X12878571Y-14395286D01*
X12878571Y-14347667D01*
X12888095Y-14309571D01*
X12897619Y-14290524D01*
X12907143Y-14281000D01*
X12926190Y-14271476D01*
X13164286Y-14338143D02*
X13164286Y-14471476D01*
X13116667Y-14261952D02*
X13069048Y-14404809D01*
X13192857Y-14404809D01*
X13354762Y-14271476D02*
X13316667Y-14271476D01*
X13297619Y-14281000D01*
X13288095Y-14290524D01*
X13269048Y-14319095D01*
X13259524Y-14357190D01*
X13259524Y-14433381D01*
X13269048Y-14452428D01*
X13278571Y-14461952D01*
X13297619Y-14471476D01*
X13335714Y-14471476D01*
X13354762Y-14461952D01*
X13364286Y-14452428D01*
X13373809Y-14433381D01*
X13373809Y-14385762D01*
X13364286Y-14366714D01*
X13354762Y-14357190D01*
X13335714Y-14347667D01*
X13297619Y-14347667D01*
X13278571Y-14357190D01*
X13269048Y-14366714D01*
X13259524Y-14385762D01*
X13469048Y-14471476D02*
X13507143Y-14471476D01*
X13526190Y-14461952D01*
X13535714Y-14452428D01*
X13554762Y-14423857D01*
X13564286Y-14385762D01*
X13564286Y-14309571D01*
X13554762Y-14290524D01*
X13545238Y-14281000D01*
X13526190Y-14271476D01*
X13488095Y-14271476D01*
X13469048Y-14281000D01*
X13459524Y-14290524D01*
X13450000Y-14309571D01*
X13450000Y-14357190D01*
X13459524Y-14376238D01*
X13469048Y-14385762D01*
X13488095Y-14395286D01*
X13526190Y-14395286D01*
X13545238Y-14385762D01*
X13554762Y-14376238D01*
X13564286Y-14357190D01*
X13640476Y-14271476D02*
X13640476Y-14309571D01*
X13716667Y-14271476D02*
X13716667Y-14309571D01*
X14011905Y-14547667D02*
X14002381Y-14538143D01*
X13983333Y-14509571D01*
X13973809Y-14490524D01*
X13964286Y-14461952D01*
X13954762Y-14414333D01*
X13954762Y-14376238D01*
X13964286Y-14328619D01*
X13973809Y-14300048D01*
X13983333Y-14281000D01*
X14002381Y-14252428D01*
X14011905Y-14242905D01*
X14116667Y-14357190D02*
X14097619Y-14347667D01*
X14088095Y-14338143D01*
X14078571Y-14319095D01*
X14078571Y-14309571D01*
X14088095Y-14290524D01*
X14097619Y-14281000D01*
X14116667Y-14271476D01*
X14154762Y-14271476D01*
X14173809Y-14281000D01*
X14183333Y-14290524D01*
X14192857Y-14309571D01*
X14192857Y-14319095D01*
X14183333Y-14338143D01*
X14173809Y-14347667D01*
X14154762Y-14357190D01*
X14116667Y-14357190D01*
X14097619Y-14366714D01*
X14088095Y-14376238D01*
X14078571Y-14395286D01*
X14078571Y-14433381D01*
X14088095Y-14452428D01*
X14097619Y-14461952D01*
X14116667Y-14471476D01*
X14154762Y-14471476D01*
X14173809Y-14461952D01*
X14183333Y-14452428D01*
X14192857Y-14433381D01*
X14192857Y-14395286D01*
X14183333Y-14376238D01*
X14173809Y-14366714D01*
X14154762Y-14357190D01*
X14430952Y-14471476D02*
X14430952Y-14271476D01*
X14516667Y-14471476D02*
X14516667Y-14366714D01*
X14507143Y-14347667D01*
X14488095Y-14338143D01*
X14459524Y-14338143D01*
X14440476Y-14347667D01*
X14430952Y-14357190D01*
X14640476Y-14471476D02*
X14621428Y-14461952D01*
X14611905Y-14452428D01*
X14602381Y-14433381D01*
X14602381Y-14376238D01*
X14611905Y-14357190D01*
X14621428Y-14347667D01*
X14640476Y-14338143D01*
X14669048Y-14338143D01*
X14688095Y-14347667D01*
X14697619Y-14357190D01*
X14707143Y-14376238D01*
X14707143Y-14433381D01*
X14697619Y-14452428D01*
X14688095Y-14461952D01*
X14669048Y-14471476D01*
X14640476Y-14471476D01*
X14821428Y-14471476D02*
X14802381Y-14461952D01*
X14792857Y-14442905D01*
X14792857Y-14271476D01*
X14973809Y-14461952D02*
X14954762Y-14471476D01*
X14916667Y-14471476D01*
X14897619Y-14461952D01*
X14888095Y-14442905D01*
X14888095Y-14366714D01*
X14897619Y-14347667D01*
X14916667Y-14338143D01*
X14954762Y-14338143D01*
X14973809Y-14347667D01*
X14983333Y-14366714D01*
X14983333Y-14385762D01*
X14888095Y-14404809D01*
X15059524Y-14461952D02*
X15078571Y-14471476D01*
X15116667Y-14471476D01*
X15135714Y-14461952D01*
X15145238Y-14442905D01*
X15145238Y-14433381D01*
X15135714Y-14414333D01*
X15116667Y-14404809D01*
X15088095Y-14404809D01*
X15069048Y-14395286D01*
X15059524Y-14376238D01*
X15059524Y-14366714D01*
X15069048Y-14347667D01*
X15088095Y-14338143D01*
X15116667Y-14338143D01*
X15135714Y-14347667D01*
X15211905Y-14547667D02*
X15221428Y-14538143D01*
X15240476Y-14509571D01*
X15250000Y-14490524D01*
X15259524Y-14461952D01*
X15269048Y-14414333D01*
X15269048Y-14376238D01*
X15259524Y-14328619D01*
X15250000Y-14300048D01*
X15240476Y-14281000D01*
X15221428Y-14252428D01*
X15211905Y-14242905D01*
M02*
