%TF.GenerationSoftware,KiCad,Pcbnew,(6.0.1)*%
%TF.CreationDate,2022-03-16T15:45:56+00:00*%
%TF.ProjectId,pi_transceiver_hat,70695f74-7261-46e7-9363-65697665725f,1*%
%TF.SameCoordinates,Original*%
%TF.FileFunction,Soldermask,Top*%
%TF.FilePolarity,Negative*%
%FSLAX46Y46*%
G04 Gerber Fmt 4.6, Leading zero omitted, Abs format (unit mm)*
G04 Created by KiCad (PCBNEW (6.0.1)) date 2022-03-16 15:45:56*
%MOMM*%
%LPD*%
G01*
G04 APERTURE LIST*
G04 Aperture macros list*
%AMRoundRect*
0 Rectangle with rounded corners*
0 $1 Rounding radius*
0 $2 $3 $4 $5 $6 $7 $8 $9 X,Y pos of 4 corners*
0 Add a 4 corners polygon primitive as box body*
4,1,4,$2,$3,$4,$5,$6,$7,$8,$9,$2,$3,0*
0 Add four circle primitives for the rounded corners*
1,1,$1+$1,$2,$3*
1,1,$1+$1,$4,$5*
1,1,$1+$1,$6,$7*
1,1,$1+$1,$8,$9*
0 Add four rect primitives between the rounded corners*
20,1,$1+$1,$2,$3,$4,$5,0*
20,1,$1+$1,$4,$5,$6,$7,0*
20,1,$1+$1,$6,$7,$8,$9,0*
20,1,$1+$1,$8,$9,$2,$3,0*%
G04 Aperture macros list end*
%ADD10C,2.700000*%
%ADD11RoundRect,0.250000X0.350000X0.450000X-0.350000X0.450000X-0.350000X-0.450000X0.350000X-0.450000X0*%
%ADD12RoundRect,0.250000X-0.337500X-0.475000X0.337500X-0.475000X0.337500X0.475000X-0.337500X0.475000X0*%
%ADD13RoundRect,0.250000X-0.725000X0.600000X-0.725000X-0.600000X0.725000X-0.600000X0.725000X0.600000X0*%
%ADD14O,1.950000X1.700000*%
%ADD15R,2.100000X2.100000*%
%ADD16C,2.100000*%
%ADD17RoundRect,0.150000X-0.587500X-0.150000X0.587500X-0.150000X0.587500X0.150000X-0.587500X0.150000X0*%
%ADD18RoundRect,0.250000X-1.050000X-0.550000X1.050000X-0.550000X1.050000X0.550000X-1.050000X0.550000X0*%
%ADD19RoundRect,0.250000X0.620000X0.845000X-0.620000X0.845000X-0.620000X-0.845000X0.620000X-0.845000X0*%
%ADD20O,1.740000X2.190000*%
%ADD21RoundRect,0.250000X0.337500X0.475000X-0.337500X0.475000X-0.337500X-0.475000X0.337500X-0.475000X0*%
%ADD22RoundRect,0.250000X-0.600000X-0.725000X0.600000X-0.725000X0.600000X0.725000X-0.600000X0.725000X0*%
%ADD23O,1.700000X1.950000*%
%ADD24RoundRect,0.250000X0.450000X-0.350000X0.450000X0.350000X-0.450000X0.350000X-0.450000X-0.350000X0*%
%ADD25RoundRect,0.150000X-0.512500X-0.150000X0.512500X-0.150000X0.512500X0.150000X-0.512500X0.150000X0*%
%ADD26RoundRect,0.250000X-0.350000X-0.450000X0.350000X-0.450000X0.350000X0.450000X-0.350000X0.450000X0*%
%ADD27R,1.700000X1.700000*%
%ADD28O,1.700000X1.700000*%
G04 APERTURE END LIST*
D10*
X166000000Y-74250000D03*
X166000000Y-123250000D03*
X108000000Y-123250000D03*
X108000000Y-74250000D03*
D11*
X132216400Y-105156000D03*
X130216400Y-105156000D03*
D12*
X128045300Y-87985600D03*
X130120300Y-87985600D03*
D13*
X154906200Y-103590400D03*
D14*
X154906200Y-106090400D03*
X154906200Y-108590400D03*
X154906200Y-111090400D03*
D15*
X150007400Y-121310400D03*
D16*
X152547400Y-121310400D03*
X155087400Y-121310400D03*
X157627400Y-121310400D03*
D17*
X138813300Y-92217200D03*
X138813300Y-94117200D03*
X140688300Y-93167200D03*
D11*
X150402800Y-89204800D03*
X148402800Y-89204800D03*
D15*
X118409800Y-104292400D03*
D16*
X120949800Y-104292400D03*
X123489800Y-104292400D03*
X126029800Y-104292400D03*
D11*
X137042400Y-89204800D03*
X135042400Y-89204800D03*
D15*
X123642200Y-121361200D03*
D16*
X126182200Y-121361200D03*
X128722200Y-121361200D03*
X131262200Y-121361200D03*
D11*
X144272000Y-89204800D03*
X142272000Y-89204800D03*
X127593600Y-111760000D03*
X125593600Y-111760000D03*
D13*
X164998400Y-109016800D03*
D14*
X164998400Y-111516800D03*
X164998400Y-114016800D03*
X164998400Y-116516800D03*
D18*
X117529200Y-96469200D03*
X121129200Y-96469200D03*
D15*
X137205800Y-121361200D03*
D16*
X139745800Y-121361200D03*
X142285800Y-121361200D03*
X144825800Y-121361200D03*
D12*
X130178900Y-102666800D03*
X132253900Y-102666800D03*
D19*
X142646400Y-83139600D03*
D20*
X140106400Y-83139600D03*
X137566400Y-83139600D03*
X135026400Y-83139600D03*
D21*
X127123100Y-95961200D03*
X125048100Y-95961200D03*
D22*
X110174400Y-83041000D03*
D23*
X112674400Y-83041000D03*
X115174400Y-83041000D03*
D15*
X110388400Y-112522000D03*
D16*
X110388400Y-109982000D03*
X110388400Y-107442000D03*
X110388400Y-104902000D03*
X110388400Y-102362000D03*
D11*
X123478800Y-110032800D03*
X121478800Y-110032800D03*
D15*
X110337600Y-96062800D03*
D16*
X110337600Y-93522800D03*
D15*
X115468400Y-121361200D03*
D16*
X118008400Y-121361200D03*
D15*
X121259600Y-83108800D03*
D16*
X123799600Y-83108800D03*
X126339600Y-83108800D03*
D17*
X151919700Y-92217200D03*
X151919700Y-94117200D03*
X153794700Y-93167200D03*
D12*
X123147000Y-116078000D03*
X125222000Y-116078000D03*
D11*
X156244800Y-89204800D03*
X154244800Y-89204800D03*
D19*
X155956000Y-83139600D03*
D20*
X153416000Y-83139600D03*
X150876000Y-83139600D03*
X148336000Y-83139600D03*
D11*
X122666000Y-89509600D03*
X120666000Y-89509600D03*
D24*
X135229600Y-94317200D03*
X135229600Y-92317200D03*
D15*
X136545400Y-104394000D03*
D16*
X139085400Y-104394000D03*
X141625400Y-104394000D03*
X144165400Y-104394000D03*
D24*
X148386800Y-94317200D03*
X148386800Y-92317200D03*
D25*
X121290500Y-112232400D03*
X121290500Y-113182400D03*
X121290500Y-114132400D03*
X123565500Y-114132400D03*
X123565500Y-113182400D03*
X123565500Y-112232400D03*
D13*
X164998400Y-94843600D03*
D14*
X164998400Y-97343600D03*
X164998400Y-99843600D03*
X164998400Y-102343600D03*
D13*
X164998400Y-80924400D03*
D14*
X164998400Y-83424400D03*
X164998400Y-85924400D03*
X164998400Y-88424400D03*
D26*
X125101600Y-98348800D03*
X127101600Y-98348800D03*
D27*
X112800000Y-75550000D03*
D28*
X112800000Y-73010000D03*
X115340000Y-75550000D03*
X115340000Y-73010000D03*
X117880000Y-75550000D03*
X117880000Y-73010000D03*
X120420000Y-75550000D03*
X120420000Y-73010000D03*
X122960000Y-75550000D03*
X122960000Y-73010000D03*
X125500000Y-75550000D03*
X125500000Y-73010000D03*
X128040000Y-75550000D03*
X128040000Y-73010000D03*
X130580000Y-75550000D03*
X130580000Y-73010000D03*
X133120000Y-75550000D03*
X133120000Y-73010000D03*
X135660000Y-75550000D03*
X135660000Y-73010000D03*
X138200000Y-75550000D03*
X138200000Y-73010000D03*
X140740000Y-75550000D03*
X140740000Y-73010000D03*
X143280000Y-75550000D03*
X143280000Y-73010000D03*
X145820000Y-75550000D03*
X145820000Y-73010000D03*
X148360000Y-75550000D03*
X148360000Y-73010000D03*
X150900000Y-75550000D03*
X150900000Y-73010000D03*
X153440000Y-75550000D03*
X153440000Y-73010000D03*
X155980000Y-75550000D03*
X155980000Y-73010000D03*
X158520000Y-75550000D03*
X158520000Y-73010000D03*
X161060000Y-75550000D03*
X161060000Y-73010000D03*
M02*
