%TF.GenerationSoftware,KiCad,Pcbnew,(6.0.2)*%
%TF.CreationDate,2022-03-23T10:15:06+00:00*%
%TF.ProjectId,pi_transceiver_hat,70695f74-7261-46e7-9363-65697665725f,1*%
%TF.SameCoordinates,Original*%
%TF.FileFunction,Copper,L4,Bot*%
%TF.FilePolarity,Positive*%
%FSLAX46Y46*%
G04 Gerber Fmt 4.6, Leading zero omitted, Abs format (unit mm)*
G04 Created by KiCad (PCBNEW (6.0.2)) date 2022-03-23 10:15:06*
%MOMM*%
%LPD*%
G01*
G04 APERTURE LIST*
G04 Aperture macros list*
%AMRoundRect*
0 Rectangle with rounded corners*
0 $1 Rounding radius*
0 $2 $3 $4 $5 $6 $7 $8 $9 X,Y pos of 4 corners*
0 Add a 4 corners polygon primitive as box body*
4,1,4,$2,$3,$4,$5,$6,$7,$8,$9,$2,$3,0*
0 Add four circle primitives for the rounded corners*
1,1,$1+$1,$2,$3*
1,1,$1+$1,$4,$5*
1,1,$1+$1,$6,$7*
1,1,$1+$1,$8,$9*
0 Add four rect primitives between the rounded corners*
20,1,$1+$1,$2,$3,$4,$5,0*
20,1,$1+$1,$4,$5,$6,$7,0*
20,1,$1+$1,$6,$7,$8,$9,0*
20,1,$1+$1,$8,$9,$2,$3,0*%
G04 Aperture macros list end*
%TA.AperFunction,ComponentPad*%
%ADD10RoundRect,0.250000X-0.725000X0.600000X-0.725000X-0.600000X0.725000X-0.600000X0.725000X0.600000X0*%
%TD*%
%TA.AperFunction,ComponentPad*%
%ADD11O,1.950000X1.700000*%
%TD*%
%TA.AperFunction,ComponentPad*%
%ADD12R,2.100000X2.100000*%
%TD*%
%TA.AperFunction,ComponentPad*%
%ADD13C,2.100000*%
%TD*%
%TA.AperFunction,ComponentPad*%
%ADD14RoundRect,0.250000X0.620000X0.845000X-0.620000X0.845000X-0.620000X-0.845000X0.620000X-0.845000X0*%
%TD*%
%TA.AperFunction,ComponentPad*%
%ADD15O,1.740000X2.190000*%
%TD*%
%TA.AperFunction,ComponentPad*%
%ADD16RoundRect,0.250000X-0.600000X-0.725000X0.600000X-0.725000X0.600000X0.725000X-0.600000X0.725000X0*%
%TD*%
%TA.AperFunction,ComponentPad*%
%ADD17O,1.700000X1.950000*%
%TD*%
%TA.AperFunction,ComponentPad*%
%ADD18R,1.700000X1.700000*%
%TD*%
%TA.AperFunction,ComponentPad*%
%ADD19O,1.700000X1.700000*%
%TD*%
%TA.AperFunction,ViaPad*%
%ADD20C,0.800000*%
%TD*%
%TA.AperFunction,Conductor*%
%ADD21C,0.250000*%
%TD*%
G04 APERTURE END LIST*
D10*
X154906200Y-103590400D03*
D11*
X154906200Y-106090400D03*
X154906200Y-108590400D03*
X154906200Y-111090400D03*
D12*
X150007400Y-121310400D03*
D13*
X152547400Y-121310400D03*
X155087400Y-121310400D03*
X157627400Y-121310400D03*
D12*
X118409800Y-104292400D03*
D13*
X120949800Y-104292400D03*
X123489800Y-104292400D03*
X126029800Y-104292400D03*
D12*
X123642200Y-121361200D03*
D13*
X126182200Y-121361200D03*
X128722200Y-121361200D03*
X131262200Y-121361200D03*
D10*
X164998400Y-109016800D03*
D11*
X164998400Y-111516800D03*
X164998400Y-114016800D03*
X164998400Y-116516800D03*
D12*
X137205800Y-121361200D03*
D13*
X139745800Y-121361200D03*
X142285800Y-121361200D03*
X144825800Y-121361200D03*
D14*
X142646400Y-83139600D03*
D15*
X140106400Y-83139600D03*
X137566400Y-83139600D03*
X135026400Y-83139600D03*
D16*
X110174400Y-83041000D03*
D17*
X112674400Y-83041000D03*
X115174400Y-83041000D03*
D12*
X110388400Y-112522000D03*
D13*
X110388400Y-109982000D03*
X110388400Y-107442000D03*
X110388400Y-104902000D03*
X110388400Y-102362000D03*
D12*
X110337600Y-96062800D03*
D13*
X110337600Y-93522800D03*
D12*
X115468400Y-121361200D03*
D13*
X118008400Y-121361200D03*
D12*
X121259600Y-83108800D03*
D13*
X123799600Y-83108800D03*
X126339600Y-83108800D03*
D14*
X155956000Y-83139600D03*
D15*
X153416000Y-83139600D03*
X150876000Y-83139600D03*
X148336000Y-83139600D03*
D12*
X136545400Y-104394000D03*
D13*
X139085400Y-104394000D03*
X141625400Y-104394000D03*
X144165400Y-104394000D03*
D10*
X164998400Y-94843600D03*
D11*
X164998400Y-97343600D03*
X164998400Y-99843600D03*
X164998400Y-102343600D03*
D10*
X164998400Y-80924400D03*
D11*
X164998400Y-83424400D03*
X164998400Y-85924400D03*
X164998400Y-88424400D03*
D18*
X112800000Y-75550000D03*
D19*
X112800000Y-73010000D03*
X115340000Y-75550000D03*
X115340000Y-73010000D03*
X117880000Y-75550000D03*
X117880000Y-73010000D03*
X120420000Y-75550000D03*
X120420000Y-73010000D03*
X122960000Y-75550000D03*
X122960000Y-73010000D03*
X125500000Y-75550000D03*
X125500000Y-73010000D03*
X128040000Y-75550000D03*
X128040000Y-73010000D03*
X130580000Y-75550000D03*
X130580000Y-73010000D03*
X133120000Y-75550000D03*
X133120000Y-73010000D03*
X135660000Y-75550000D03*
X135660000Y-73010000D03*
X138200000Y-75550000D03*
X138200000Y-73010000D03*
X140740000Y-75550000D03*
X140740000Y-73010000D03*
X143280000Y-75550000D03*
X143280000Y-73010000D03*
X145820000Y-75550000D03*
X145820000Y-73010000D03*
X148360000Y-75550000D03*
X148360000Y-73010000D03*
X150900000Y-75550000D03*
X150900000Y-73010000D03*
X153440000Y-75550000D03*
X153440000Y-73010000D03*
X155980000Y-75550000D03*
X155980000Y-73010000D03*
X158520000Y-75550000D03*
X158520000Y-73010000D03*
X161060000Y-75550000D03*
X161060000Y-73010000D03*
D20*
X130149600Y-109728000D03*
X134924800Y-78689200D03*
X160419011Y-91643200D03*
X121208800Y-115671600D03*
X127000000Y-109677200D03*
X119786400Y-114503200D03*
X138785600Y-87274400D03*
X151384000Y-87020400D03*
X146608800Y-92252800D03*
X158648400Y-109728000D03*
X125425200Y-101498400D03*
X149402800Y-78130400D03*
X133451600Y-92252800D03*
X162458400Y-97485200D03*
X125323600Y-108254800D03*
X130302000Y-112318800D03*
D21*
X153526800Y-103590400D02*
X154906200Y-103590400D01*
X134924800Y-78689200D02*
X133831880Y-79782120D01*
X164998400Y-109016800D02*
X163698880Y-110316320D01*
X158343600Y-124053600D02*
X147518200Y-124053600D01*
X137205800Y-116784200D02*
X137205800Y-121361200D01*
X163698880Y-118698320D02*
X158343600Y-124053600D01*
X147518200Y-124053600D02*
X144825800Y-121361200D01*
X133831880Y-83895480D02*
X153526800Y-103590400D01*
X164998400Y-94843600D02*
X163182911Y-96659089D01*
X160419011Y-91643200D02*
X160419011Y-85503789D01*
X160419011Y-91643200D02*
X163619411Y-94843600D01*
X133831880Y-79782120D02*
X133831880Y-83895480D01*
X130149600Y-109728000D02*
X137205800Y-116784200D01*
X163619411Y-94843600D02*
X164998400Y-94843600D01*
X163182911Y-107201311D02*
X164998400Y-109016800D01*
X163698880Y-110316320D02*
X163698880Y-118698320D01*
X160419011Y-85503789D02*
X164998400Y-80924400D01*
X163182911Y-96659089D02*
X163182911Y-107201311D01*
X127787800Y-108590400D02*
X123489800Y-104292400D01*
X154906200Y-108590400D02*
X127787800Y-108590400D01*
X119245489Y-77178911D02*
X119245489Y-74184511D01*
X119245489Y-74184511D02*
X120420000Y-73010000D01*
X113383400Y-83041000D02*
X119245489Y-77178911D01*
X112674400Y-83041000D02*
X113383400Y-83041000D01*
X115383400Y-83041000D02*
X121594511Y-76829889D01*
X115174400Y-83041000D02*
X115383400Y-83041000D01*
X121594511Y-76829889D02*
X121594511Y-74375489D01*
X121594511Y-74375489D02*
X122960000Y-73010000D01*
X110388400Y-107442000D02*
X108564369Y-105617969D01*
X108564369Y-105617969D02*
X108564369Y-92419291D01*
X108564369Y-92419291D02*
X125433660Y-75550000D01*
X125433660Y-75550000D02*
X125500000Y-75550000D01*
X131945489Y-88374111D02*
X131945489Y-75254479D01*
X131945489Y-75254479D02*
X130875521Y-74184511D01*
X130875521Y-74184511D02*
X126674511Y-74184511D01*
X126674511Y-74184511D02*
X125500000Y-73010000D01*
X131945489Y-88374111D02*
X119989600Y-100330000D01*
X116078000Y-104292400D02*
X116078000Y-100330000D01*
X110388400Y-109982000D02*
X116078000Y-104292400D01*
X119989600Y-100330000D02*
X116078000Y-100330000D01*
X119583200Y-82036178D02*
X124860578Y-76758800D01*
X109013889Y-103527489D02*
X109013889Y-100135533D01*
X124860578Y-76758800D02*
X126831200Y-76758800D01*
X109013889Y-100135533D02*
X119583200Y-89566222D01*
X126831200Y-76758800D02*
X128040000Y-75550000D01*
X119583200Y-89566222D02*
X119583200Y-82036178D01*
X110388400Y-104902000D02*
X109013889Y-103527489D01*
X130580000Y-82170400D02*
X130580000Y-75550000D01*
X110388400Y-102362000D02*
X130580000Y-82170400D01*
X134294511Y-76036499D02*
X134294511Y-75063501D01*
X126029800Y-104292400D02*
X132727089Y-97595111D01*
X134294511Y-75063501D02*
X133415521Y-74184511D01*
X132727089Y-77603921D02*
X134294511Y-76036499D01*
X132727089Y-97595111D02*
X132727089Y-77603921D01*
X133415521Y-74184511D02*
X131754511Y-74184511D01*
X131754511Y-74184511D02*
X130580000Y-73010000D01*
X156819600Y-99110800D02*
X145694400Y-87985600D01*
X156819600Y-117038200D02*
X156819600Y-99110800D01*
X145694400Y-79044800D02*
X151606210Y-79044800D01*
X145694400Y-87985600D02*
X145694400Y-79044800D01*
X154761480Y-74228520D02*
X155980000Y-73010000D01*
X151606210Y-79044800D02*
X154761480Y-75889530D01*
X154761480Y-75889530D02*
X154761480Y-74228520D01*
X152547400Y-121310400D02*
X156819600Y-117038200D01*
X114757200Y-114858800D02*
X120949800Y-108666200D01*
X108114849Y-112997471D02*
X109976178Y-114858800D01*
X115340000Y-75550000D02*
X108114849Y-82775151D01*
X108114849Y-82775151D02*
X108114849Y-112997471D01*
X120949800Y-108666200D02*
X120949800Y-104292400D01*
X109976178Y-114858800D02*
X114757200Y-114858800D01*
X157345489Y-119052311D02*
X157345489Y-74184511D01*
X157345489Y-74184511D02*
X158520000Y-73010000D01*
X155087400Y-121310400D02*
X157345489Y-119052311D01*
X159694511Y-74375489D02*
X161060000Y-73010000D01*
X159694511Y-119243289D02*
X159694511Y-74375489D01*
X157627400Y-121310400D02*
X159694511Y-119243289D01*
M02*
