M48
; DRILL file {KiCad (6.0.2)} date Wed Mar 23 10:15:11 2022
; FORMAT={-:-/ absolute / metric / decimal}
; #@! TF.CreationDate,2022-03-23T10:15:11+00:00
; #@! TF.GenerationSoftware,Kicad,Pcbnew,(6.0.2)
; #@! TF.FileFunction,MixedPlating,1,4
FMAT,2
METRIC
; #@! TA.AperFunction,Plated,PTH,ViaDrill
T1C0.400
; #@! TA.AperFunction,Plated,PTH,ComponentDrill
T2C0.950
; #@! TA.AperFunction,Plated,PTH,ComponentDrill
T3C1.000
; #@! TA.AperFunction,Plated,PTH,ComponentDrill
T4C1.100
; #@! TA.AperFunction,Plated,PTH,ComponentDrill
T5C1.190
; #@! TA.AperFunction,NonPlated,NPTH,ComponentDrill
T6C2.700
%
G90
G05
T1
X119.786Y-114.503
X121.209Y-115.672
X125.324Y-108.255
X125.425Y-101.498
X127.0Y-109.677
X130.15Y-109.728
X130.302Y-112.319
X133.452Y-92.253
X134.925Y-78.689
X138.786Y-87.274
X146.609Y-92.253
X149.403Y-78.13
X151.384Y-87.02
X158.648Y-109.728
X160.419Y-91.643
X162.458Y-97.485
T2
X110.174Y-83.041
X112.674Y-83.041
X115.174Y-83.041
X154.906Y-103.59
X154.906Y-106.09
X154.906Y-108.59
X154.906Y-111.09
X164.998Y-80.924
X164.998Y-83.424
X164.998Y-85.924
X164.998Y-88.424
X164.998Y-94.844
X164.998Y-97.344
X164.998Y-99.844
X164.998Y-102.344
X164.998Y-109.017
X164.998Y-111.517
X164.998Y-114.017
X164.998Y-116.517
T3
X112.8Y-73.01
X112.8Y-75.55
X115.34Y-73.01
X115.34Y-75.55
X117.88Y-73.01
X117.88Y-75.55
X120.42Y-73.01
X120.42Y-75.55
X122.96Y-73.01
X122.96Y-75.55
X125.5Y-73.01
X125.5Y-75.55
X128.04Y-73.01
X128.04Y-75.55
X130.58Y-73.01
X130.58Y-75.55
X133.12Y-73.01
X133.12Y-75.55
X135.66Y-73.01
X135.66Y-75.55
X138.2Y-73.01
X138.2Y-75.55
X140.74Y-73.01
X140.74Y-75.55
X143.28Y-73.01
X143.28Y-75.55
X145.82Y-73.01
X145.82Y-75.55
X148.36Y-73.01
X148.36Y-75.55
X150.9Y-73.01
X150.9Y-75.55
X153.44Y-73.01
X153.44Y-75.55
X155.98Y-73.01
X155.98Y-75.55
X158.52Y-73.01
X158.52Y-75.55
X161.06Y-73.01
X161.06Y-75.55
T4
X110.338Y-93.523
X110.338Y-96.063
X110.388Y-102.362
X110.388Y-104.902
X110.388Y-107.442
X110.388Y-109.982
X110.388Y-112.522
X115.468Y-121.361
X118.008Y-121.361
X118.41Y-104.292
X120.95Y-104.292
X121.26Y-83.109
X123.49Y-104.292
X123.642Y-121.361
X123.8Y-83.109
X126.03Y-104.292
X126.182Y-121.361
X126.34Y-83.109
X128.722Y-121.361
X131.262Y-121.361
X136.545Y-104.394
X137.206Y-121.361
X139.085Y-104.394
X139.746Y-121.361
X141.625Y-104.394
X142.286Y-121.361
X144.165Y-104.394
X144.826Y-121.361
X150.007Y-121.31
X152.547Y-121.31
X155.087Y-121.31
X157.627Y-121.31
T5
X135.026Y-83.14
X137.566Y-83.14
X140.106Y-83.14
X142.646Y-83.14
X148.336Y-83.14
X150.876Y-83.14
X153.416Y-83.14
X155.956Y-83.14
T6
X108.0Y-74.25
X108.0Y-123.25
X166.0Y-74.25
X166.0Y-123.25
T0
M30
