%TF.GenerationSoftware,KiCad,Pcbnew,(6.0.2)*%
%TF.CreationDate,2022-03-23T10:00:19+00:00*%
%TF.ProjectId,pi_transceiver_hat,70695f74-7261-46e7-9363-65697665725f,1*%
%TF.SameCoordinates,Original*%
%TF.FileFunction,Legend,Top*%
%TF.FilePolarity,Positive*%
%FSLAX46Y46*%
G04 Gerber Fmt 4.6, Leading zero omitted, Abs format (unit mm)*
G04 Created by KiCad (PCBNEW (6.0.2)) date 2022-03-23 10:00:19*
%MOMM*%
%LPD*%
G01*
G04 APERTURE LIST*
G04 Aperture macros list*
%AMRoundRect*
0 Rectangle with rounded corners*
0 $1 Rounding radius*
0 $2 $3 $4 $5 $6 $7 $8 $9 X,Y pos of 4 corners*
0 Add a 4 corners polygon primitive as box body*
4,1,4,$2,$3,$4,$5,$6,$7,$8,$9,$2,$3,0*
0 Add four circle primitives for the rounded corners*
1,1,$1+$1,$2,$3*
1,1,$1+$1,$4,$5*
1,1,$1+$1,$6,$7*
1,1,$1+$1,$8,$9*
0 Add four rect primitives between the rounded corners*
20,1,$1+$1,$2,$3,$4,$5,0*
20,1,$1+$1,$4,$5,$6,$7,0*
20,1,$1+$1,$6,$7,$8,$9,0*
20,1,$1+$1,$8,$9,$2,$3,0*%
G04 Aperture macros list end*
%ADD10C,0.150000*%
%ADD11C,0.120000*%
%ADD12C,2.700000*%
%ADD13RoundRect,0.250000X0.350000X0.450000X-0.350000X0.450000X-0.350000X-0.450000X0.350000X-0.450000X0*%
%ADD14RoundRect,0.250000X-0.337500X-0.475000X0.337500X-0.475000X0.337500X0.475000X-0.337500X0.475000X0*%
%ADD15RoundRect,0.250000X-0.725000X0.600000X-0.725000X-0.600000X0.725000X-0.600000X0.725000X0.600000X0*%
%ADD16O,1.950000X1.700000*%
%ADD17R,2.100000X2.100000*%
%ADD18C,2.100000*%
%ADD19RoundRect,0.150000X-0.587500X-0.150000X0.587500X-0.150000X0.587500X0.150000X-0.587500X0.150000X0*%
%ADD20RoundRect,0.250000X-1.050000X-0.550000X1.050000X-0.550000X1.050000X0.550000X-1.050000X0.550000X0*%
%ADD21RoundRect,0.250000X0.620000X0.845000X-0.620000X0.845000X-0.620000X-0.845000X0.620000X-0.845000X0*%
%ADD22O,1.740000X2.190000*%
%ADD23RoundRect,0.250000X0.337500X0.475000X-0.337500X0.475000X-0.337500X-0.475000X0.337500X-0.475000X0*%
%ADD24RoundRect,0.250000X-0.600000X-0.725000X0.600000X-0.725000X0.600000X0.725000X-0.600000X0.725000X0*%
%ADD25O,1.700000X1.950000*%
%ADD26RoundRect,0.250000X0.450000X-0.350000X0.450000X0.350000X-0.450000X0.350000X-0.450000X-0.350000X0*%
%ADD27RoundRect,0.150000X-0.512500X-0.150000X0.512500X-0.150000X0.512500X0.150000X-0.512500X0.150000X0*%
%ADD28RoundRect,0.250000X-0.350000X-0.450000X0.350000X-0.450000X0.350000X0.450000X-0.350000X0.450000X0*%
%ADD29R,1.700000X1.700000*%
%ADD30O,1.700000X1.700000*%
G04 APERTURE END LIST*
D10*
X134901155Y-114302980D02*
X134627346Y-113826790D01*
X134329727Y-114302980D02*
X134454727Y-113302980D01*
X134835679Y-113302980D01*
X134924965Y-113350600D01*
X134966632Y-113398219D01*
X135002346Y-113493457D01*
X134984489Y-113636314D01*
X134924965Y-113731552D01*
X134871394Y-113779171D01*
X134770203Y-113826790D01*
X134389251Y-113826790D01*
X135317822Y-114017266D02*
X135794013Y-114017266D01*
X135186870Y-114302980D02*
X135645203Y-113302980D01*
X135853536Y-114302980D01*
X136186870Y-114302980D02*
X136311870Y-113302980D01*
X136549965Y-113302980D01*
X136686870Y-113350600D01*
X136770203Y-113445838D01*
X136805917Y-113541076D01*
X136829727Y-113731552D01*
X136811870Y-113874409D01*
X136740441Y-114064885D01*
X136680917Y-114160123D01*
X136573775Y-114255361D01*
X136424965Y-114302980D01*
X136186870Y-114302980D01*
X137174965Y-114017266D02*
X137651155Y-114017266D01*
X137044013Y-114302980D02*
X137502346Y-113302980D01*
X137710679Y-114302980D01*
X138615441Y-114302980D02*
X138341632Y-113826790D01*
X138044013Y-114302980D02*
X138169013Y-113302980D01*
X138549965Y-113302980D01*
X138639251Y-113350600D01*
X138680917Y-113398219D01*
X138716632Y-113493457D01*
X138698775Y-113636314D01*
X138639251Y-113731552D01*
X138585679Y-113779171D01*
X138484489Y-113826790D01*
X138103536Y-113826790D01*
X139627346Y-114207742D02*
X139573775Y-114255361D01*
X139424965Y-114302980D01*
X139329727Y-114302980D01*
X139192822Y-114255361D01*
X139109489Y-114160123D01*
X139073775Y-114064885D01*
X139049965Y-113874409D01*
X139067822Y-113731552D01*
X139139251Y-113541076D01*
X139198775Y-113445838D01*
X139305917Y-113350600D01*
X139454727Y-113302980D01*
X139549965Y-113302980D01*
X139686870Y-113350600D01*
X139728536Y-113398219D01*
X140889251Y-113636314D02*
X140764251Y-114636314D01*
X140883298Y-113683933D02*
X140984489Y-113636314D01*
X141174965Y-113636314D01*
X141264251Y-113683933D01*
X141305917Y-113731552D01*
X141341632Y-113826790D01*
X141305917Y-114112504D01*
X141246394Y-114207742D01*
X141192822Y-114255361D01*
X141091632Y-114302980D01*
X140901155Y-114302980D01*
X140811870Y-114255361D01*
X141710679Y-114302980D02*
X141794013Y-113636314D01*
X141835679Y-113302980D02*
X141782108Y-113350600D01*
X141823775Y-113398219D01*
X141877346Y-113350600D01*
X141835679Y-113302980D01*
X141823775Y-113398219D01*
X142234489Y-113922028D02*
X142996394Y-113922028D01*
X143365441Y-113636314D02*
X143746394Y-113636314D01*
X143549965Y-113302980D02*
X143442822Y-114160123D01*
X143478536Y-114255361D01*
X143567822Y-114302980D01*
X143663060Y-114302980D01*
X143996394Y-114302980D02*
X144079727Y-113636314D01*
X144055917Y-113826790D02*
X144115441Y-113731552D01*
X144169013Y-113683933D01*
X144270203Y-113636314D01*
X144365441Y-113636314D01*
X145044013Y-114302980D02*
X145109489Y-113779171D01*
X145073775Y-113683933D01*
X144984489Y-113636314D01*
X144794013Y-113636314D01*
X144692822Y-113683933D01*
X145049965Y-114255361D02*
X144948775Y-114302980D01*
X144710679Y-114302980D01*
X144621394Y-114255361D01*
X144585679Y-114160123D01*
X144597584Y-114064885D01*
X144657108Y-113969647D01*
X144758298Y-113922028D01*
X144996394Y-113922028D01*
X145097584Y-113874409D01*
X145603536Y-113636314D02*
X145520203Y-114302980D01*
X145591632Y-113731552D02*
X145645203Y-113683933D01*
X145746394Y-113636314D01*
X145889251Y-113636314D01*
X145978536Y-113683933D01*
X146014251Y-113779171D01*
X145948775Y-114302980D01*
X146383298Y-114255361D02*
X146472584Y-114302980D01*
X146663060Y-114302980D01*
X146764251Y-114255361D01*
X146823775Y-114160123D01*
X146829727Y-114112504D01*
X146794013Y-114017266D01*
X146704727Y-113969647D01*
X146561870Y-113969647D01*
X146472584Y-113922028D01*
X146436870Y-113826790D01*
X146442822Y-113779171D01*
X146502346Y-113683933D01*
X146603536Y-113636314D01*
X146746394Y-113636314D01*
X146835679Y-113683933D01*
X147669013Y-114255361D02*
X147567822Y-114302980D01*
X147377346Y-114302980D01*
X147288060Y-114255361D01*
X147246394Y-114207742D01*
X147210679Y-114112504D01*
X147246394Y-113826790D01*
X147305917Y-113731552D01*
X147359489Y-113683933D01*
X147460679Y-113636314D01*
X147651155Y-113636314D01*
X147740441Y-113683933D01*
X148478536Y-114255361D02*
X148377346Y-114302980D01*
X148186870Y-114302980D01*
X148097584Y-114255361D01*
X148061870Y-114160123D01*
X148109489Y-113779171D01*
X148169013Y-113683933D01*
X148270203Y-113636314D01*
X148460679Y-113636314D01*
X148549965Y-113683933D01*
X148585679Y-113779171D01*
X148573775Y-113874409D01*
X148085679Y-113969647D01*
X148948775Y-114302980D02*
X149032108Y-113636314D01*
X149073775Y-113302980D02*
X149020203Y-113350600D01*
X149061870Y-113398219D01*
X149115441Y-113350600D01*
X149073775Y-113302980D01*
X149061870Y-113398219D01*
X149413060Y-113636314D02*
X149567822Y-114302980D01*
X149889251Y-113636314D01*
X150573775Y-114255361D02*
X150472584Y-114302980D01*
X150282108Y-114302980D01*
X150192822Y-114255361D01*
X150157108Y-114160123D01*
X150204727Y-113779171D01*
X150264251Y-113683933D01*
X150365441Y-113636314D01*
X150555917Y-113636314D01*
X150645203Y-113683933D01*
X150680917Y-113779171D01*
X150669013Y-113874409D01*
X150180917Y-113969647D01*
X151044013Y-114302980D02*
X151127346Y-113636314D01*
X151103536Y-113826790D02*
X151163060Y-113731552D01*
X151216632Y-113683933D01*
X151317822Y-113636314D01*
X151413060Y-113636314D01*
X152424965Y-114302980D02*
X152549965Y-113302980D01*
X152853536Y-114302980D02*
X152919013Y-113779171D01*
X152883298Y-113683933D01*
X152794013Y-113636314D01*
X152651155Y-113636314D01*
X152549965Y-113683933D01*
X152496394Y-113731552D01*
X153758298Y-114302980D02*
X153823775Y-113779171D01*
X153788060Y-113683933D01*
X153698775Y-113636314D01*
X153508298Y-113636314D01*
X153407108Y-113683933D01*
X153764251Y-114255361D02*
X153663060Y-114302980D01*
X153424965Y-114302980D01*
X153335679Y-114255361D01*
X153299965Y-114160123D01*
X153311870Y-114064885D01*
X153371394Y-113969647D01*
X153472584Y-113922028D01*
X153710679Y-113922028D01*
X153811870Y-113874409D01*
X154174965Y-113636314D02*
X154555917Y-113636314D01*
X154359489Y-113302980D02*
X154252346Y-114160123D01*
X154288060Y-114255361D01*
X154377346Y-114302980D01*
X154472584Y-114302980D01*
X128520203Y-115912980D02*
X128645203Y-114912980D01*
X128948775Y-115912980D02*
X129014251Y-115389171D01*
X128978536Y-115293933D01*
X128889251Y-115246314D01*
X128746394Y-115246314D01*
X128645203Y-115293933D01*
X128591632Y-115341552D01*
X129365441Y-115246314D02*
X129746394Y-115246314D01*
X129549965Y-114912980D02*
X129442822Y-115770123D01*
X129478536Y-115865361D01*
X129567822Y-115912980D01*
X129663060Y-115912980D01*
X129936870Y-115246314D02*
X130317822Y-115246314D01*
X130121394Y-114912980D02*
X130014251Y-115770123D01*
X130049965Y-115865361D01*
X130139251Y-115912980D01*
X130234489Y-115912980D01*
X130651155Y-115246314D02*
X130526155Y-116246314D01*
X130645203Y-115293933D02*
X130746394Y-115246314D01*
X130936870Y-115246314D01*
X131026155Y-115293933D01*
X131067822Y-115341552D01*
X131103536Y-115436790D01*
X131067822Y-115722504D01*
X131008298Y-115817742D01*
X130954727Y-115865361D01*
X130853536Y-115912980D01*
X130663060Y-115912980D01*
X130573775Y-115865361D01*
X131430917Y-115865361D02*
X131520203Y-115912980D01*
X131710679Y-115912980D01*
X131811870Y-115865361D01*
X131871394Y-115770123D01*
X131877346Y-115722504D01*
X131841632Y-115627266D01*
X131752346Y-115579647D01*
X131609489Y-115579647D01*
X131520203Y-115532028D01*
X131484489Y-115436790D01*
X131490441Y-115389171D01*
X131549965Y-115293933D01*
X131651155Y-115246314D01*
X131794013Y-115246314D01*
X131883298Y-115293933D01*
X132294013Y-115817742D02*
X132335679Y-115865361D01*
X132282108Y-115912980D01*
X132240441Y-115865361D01*
X132294013Y-115817742D01*
X132282108Y-115912980D01*
X132359489Y-115293933D02*
X132401155Y-115341552D01*
X132347584Y-115389171D01*
X132305917Y-115341552D01*
X132359489Y-115293933D01*
X132347584Y-115389171D01*
X133603536Y-114865361D02*
X132585679Y-116151076D01*
X134651155Y-114865361D02*
X133633298Y-116151076D01*
X135365441Y-115246314D02*
X135264251Y-116055838D01*
X135204727Y-116151076D01*
X135151155Y-116198695D01*
X135049965Y-116246314D01*
X134907108Y-116246314D01*
X134817822Y-116198695D01*
X135288060Y-115865361D02*
X135186870Y-115912980D01*
X134996394Y-115912980D01*
X134907108Y-115865361D01*
X134865441Y-115817742D01*
X134829727Y-115722504D01*
X134865441Y-115436790D01*
X134924965Y-115341552D01*
X134978536Y-115293933D01*
X135079727Y-115246314D01*
X135270203Y-115246314D01*
X135359489Y-115293933D01*
X135758298Y-115912980D02*
X135841632Y-115246314D01*
X135883298Y-114912980D02*
X135829727Y-114960600D01*
X135871394Y-115008219D01*
X135924965Y-114960600D01*
X135883298Y-114912980D01*
X135871394Y-115008219D01*
X136174965Y-115246314D02*
X136555917Y-115246314D01*
X136359489Y-114912980D02*
X136252346Y-115770123D01*
X136288060Y-115865361D01*
X136377346Y-115912980D01*
X136472584Y-115912980D01*
X136805917Y-115912980D02*
X136930917Y-114912980D01*
X137234489Y-115912980D02*
X137299965Y-115389171D01*
X137264251Y-115293933D01*
X137174965Y-115246314D01*
X137032108Y-115246314D01*
X136930917Y-115293933D01*
X136877346Y-115341552D01*
X138222584Y-115246314D02*
X138139251Y-115912980D01*
X137794013Y-115246314D02*
X137728536Y-115770123D01*
X137764251Y-115865361D01*
X137853536Y-115912980D01*
X137996394Y-115912980D01*
X138097584Y-115865361D01*
X138151155Y-115817742D01*
X138615441Y-115912980D02*
X138740441Y-114912980D01*
X138692822Y-115293933D02*
X138794013Y-115246314D01*
X138984489Y-115246314D01*
X139073775Y-115293933D01*
X139115441Y-115341552D01*
X139151155Y-115436790D01*
X139115441Y-115722504D01*
X139055917Y-115817742D01*
X139002346Y-115865361D01*
X138901155Y-115912980D01*
X138710679Y-115912980D01*
X138621394Y-115865361D01*
X139532108Y-115817742D02*
X139573775Y-115865361D01*
X139520203Y-115912980D01*
X139478536Y-115865361D01*
X139532108Y-115817742D01*
X139520203Y-115912980D01*
X140430917Y-115865361D02*
X140329727Y-115912980D01*
X140139251Y-115912980D01*
X140049965Y-115865361D01*
X140008298Y-115817742D01*
X139972584Y-115722504D01*
X140008298Y-115436790D01*
X140067822Y-115341552D01*
X140121394Y-115293933D01*
X140222584Y-115246314D01*
X140413060Y-115246314D01*
X140502346Y-115293933D01*
X140996394Y-115912980D02*
X140907108Y-115865361D01*
X140865441Y-115817742D01*
X140829727Y-115722504D01*
X140865441Y-115436790D01*
X140924965Y-115341552D01*
X140978536Y-115293933D01*
X141079727Y-115246314D01*
X141222584Y-115246314D01*
X141311870Y-115293933D01*
X141353536Y-115341552D01*
X141389251Y-115436790D01*
X141353536Y-115722504D01*
X141294013Y-115817742D01*
X141240441Y-115865361D01*
X141139251Y-115912980D01*
X140996394Y-115912980D01*
X141758298Y-115912980D02*
X141841632Y-115246314D01*
X141829727Y-115341552D02*
X141883298Y-115293933D01*
X141984489Y-115246314D01*
X142127346Y-115246314D01*
X142216632Y-115293933D01*
X142252346Y-115389171D01*
X142186870Y-115912980D01*
X142252346Y-115389171D02*
X142311870Y-115293933D01*
X142413060Y-115246314D01*
X142555917Y-115246314D01*
X142645203Y-115293933D01*
X142680917Y-115389171D01*
X142615441Y-115912980D01*
X143936870Y-114865361D02*
X142919013Y-116151076D01*
X144139251Y-115912980D02*
X144264251Y-114912980D01*
X144508298Y-115627266D01*
X144930917Y-114912980D01*
X144805917Y-115912980D01*
X145597584Y-114912980D02*
X145692822Y-114912980D01*
X145782108Y-114960600D01*
X145823775Y-115008219D01*
X145859489Y-115103457D01*
X145883298Y-115293933D01*
X145853536Y-115532028D01*
X145782108Y-115722504D01*
X145722584Y-115817742D01*
X145669013Y-115865361D01*
X145567822Y-115912980D01*
X145472584Y-115912980D01*
X145383298Y-115865361D01*
X145341632Y-115817742D01*
X145305917Y-115722504D01*
X145282108Y-115532028D01*
X145311870Y-115293933D01*
X145383298Y-115103457D01*
X145442822Y-115008219D01*
X145496394Y-114960600D01*
X145597584Y-114912980D01*
X146710679Y-115912980D02*
X146234489Y-115912980D01*
X146359489Y-114912980D01*
X147026155Y-114912980D02*
X147597584Y-114912980D01*
X147186870Y-115912980D02*
X147311870Y-114912980D01*
X147871394Y-115389171D02*
X148204727Y-115389171D01*
X148282108Y-115912980D02*
X147805917Y-115912980D01*
X147930917Y-114912980D01*
X148407108Y-114912980D01*
X149555917Y-114865361D02*
X148538060Y-116151076D01*
X149841632Y-115246314D02*
X149716632Y-116246314D01*
X149835679Y-115293933D02*
X149936870Y-115246314D01*
X150127346Y-115246314D01*
X150216632Y-115293933D01*
X150258298Y-115341552D01*
X150294013Y-115436790D01*
X150258298Y-115722504D01*
X150198775Y-115817742D01*
X150145203Y-115865361D01*
X150044013Y-115912980D01*
X149853536Y-115912980D01*
X149764251Y-115865361D01*
X150663060Y-115912980D02*
X150746394Y-115246314D01*
X150788060Y-114912980D02*
X150734489Y-114960600D01*
X150776155Y-115008219D01*
X150829727Y-114960600D01*
X150788060Y-114912980D01*
X150776155Y-115008219D01*
X151186870Y-115532028D02*
X151948775Y-115532028D01*
X152317822Y-115246314D02*
X152698775Y-115246314D01*
X152502346Y-114912980D02*
X152395203Y-115770123D01*
X152430917Y-115865361D01*
X152520203Y-115912980D01*
X152615441Y-115912980D01*
X152948775Y-115912980D02*
X153032108Y-115246314D01*
X153008298Y-115436790D02*
X153067822Y-115341552D01*
X153121394Y-115293933D01*
X153222584Y-115246314D01*
X153317822Y-115246314D01*
X153996394Y-115912980D02*
X154061870Y-115389171D01*
X154026155Y-115293933D01*
X153936870Y-115246314D01*
X153746394Y-115246314D01*
X153645203Y-115293933D01*
X154002346Y-115865361D02*
X153901155Y-115912980D01*
X153663060Y-115912980D01*
X153573775Y-115865361D01*
X153538060Y-115770123D01*
X153549965Y-115674885D01*
X153609489Y-115579647D01*
X153710679Y-115532028D01*
X153948775Y-115532028D01*
X154049965Y-115484409D01*
X154555917Y-115246314D02*
X154472584Y-115912980D01*
X154544013Y-115341552D02*
X154597584Y-115293933D01*
X154698775Y-115246314D01*
X154841632Y-115246314D01*
X154930917Y-115293933D01*
X154966632Y-115389171D01*
X154901155Y-115912980D01*
X155335679Y-115865361D02*
X155424965Y-115912980D01*
X155615441Y-115912980D01*
X155716632Y-115865361D01*
X155776155Y-115770123D01*
X155782108Y-115722504D01*
X155746394Y-115627266D01*
X155657108Y-115579647D01*
X155514251Y-115579647D01*
X155424965Y-115532028D01*
X155389251Y-115436790D01*
X155395203Y-115389171D01*
X155454727Y-115293933D01*
X155555917Y-115246314D01*
X155698775Y-115246314D01*
X155788060Y-115293933D01*
X156621394Y-115865361D02*
X156520203Y-115912980D01*
X156329727Y-115912980D01*
X156240441Y-115865361D01*
X156198775Y-115817742D01*
X156163060Y-115722504D01*
X156198775Y-115436790D01*
X156258298Y-115341552D01*
X156311870Y-115293933D01*
X156413060Y-115246314D01*
X156603536Y-115246314D01*
X156692822Y-115293933D01*
X157430917Y-115865361D02*
X157329727Y-115912980D01*
X157139251Y-115912980D01*
X157049965Y-115865361D01*
X157014251Y-115770123D01*
X157061870Y-115389171D01*
X157121394Y-115293933D01*
X157222584Y-115246314D01*
X157413060Y-115246314D01*
X157502346Y-115293933D01*
X157538060Y-115389171D01*
X157526155Y-115484409D01*
X157038060Y-115579647D01*
X157901155Y-115912980D02*
X157984489Y-115246314D01*
X158026155Y-114912980D02*
X157972584Y-114960600D01*
X158014251Y-115008219D01*
X158067822Y-114960600D01*
X158026155Y-114912980D01*
X158014251Y-115008219D01*
X158365441Y-115246314D02*
X158520203Y-115912980D01*
X158841632Y-115246314D01*
X159526155Y-115865361D02*
X159424965Y-115912980D01*
X159234489Y-115912980D01*
X159145203Y-115865361D01*
X159109489Y-115770123D01*
X159157108Y-115389171D01*
X159216632Y-115293933D01*
X159317822Y-115246314D01*
X159508298Y-115246314D01*
X159597584Y-115293933D01*
X159633298Y-115389171D01*
X159621394Y-115484409D01*
X159133298Y-115579647D01*
X159996394Y-115912980D02*
X160079727Y-115246314D01*
X160055917Y-115436790D02*
X160115441Y-115341552D01*
X160169013Y-115293933D01*
X160270203Y-115246314D01*
X160365441Y-115246314D01*
X169976895Y-61209180D02*
X169976895Y-60209180D01*
X169976895Y-60685371D02*
X170548323Y-60685371D01*
X170548323Y-61209180D02*
X170548323Y-60209180D01*
X170976895Y-60304419D02*
X171024514Y-60256800D01*
X171119752Y-60209180D01*
X171357847Y-60209180D01*
X171453085Y-60256800D01*
X171500704Y-60304419D01*
X171548323Y-60399657D01*
X171548323Y-60494895D01*
X171500704Y-60637752D01*
X170929276Y-61209180D01*
X171548323Y-61209180D01*
X175514095Y-126588780D02*
X175514095Y-125588780D01*
X175514095Y-126064971D02*
X176085523Y-126064971D01*
X176085523Y-126588780D02*
X176085523Y-125588780D01*
X176990285Y-125922114D02*
X176990285Y-126588780D01*
X176752190Y-125541161D02*
X176514095Y-126255447D01*
X177133142Y-126255447D01*
X93014895Y-121559580D02*
X93014895Y-120559580D01*
X93014895Y-121035771D02*
X93586323Y-121035771D01*
X93586323Y-121559580D02*
X93586323Y-120559580D01*
X93967276Y-120559580D02*
X94586323Y-120559580D01*
X94252990Y-120940533D01*
X94395847Y-120940533D01*
X94491085Y-120988152D01*
X94538704Y-121035771D01*
X94586323Y-121131009D01*
X94586323Y-121369104D01*
X94538704Y-121464342D01*
X94491085Y-121511961D01*
X94395847Y-121559580D01*
X94110133Y-121559580D01*
X94014895Y-121511961D01*
X93967276Y-121464342D01*
X103124095Y-69133980D02*
X103124095Y-68133980D01*
X103124095Y-68610171D02*
X103695523Y-68610171D01*
X103695523Y-69133980D02*
X103695523Y-68133980D01*
X104695523Y-69133980D02*
X104124095Y-69133980D01*
X104409809Y-69133980D02*
X104409809Y-68133980D01*
X104314571Y-68276838D01*
X104219333Y-68372076D01*
X104124095Y-68419695D01*
X131049733Y-107258380D02*
X130716400Y-106782190D01*
X130478304Y-107258380D02*
X130478304Y-106258380D01*
X130859257Y-106258380D01*
X130954495Y-106306000D01*
X131002114Y-106353619D01*
X131049733Y-106448857D01*
X131049733Y-106591714D01*
X131002114Y-106686952D01*
X130954495Y-106734571D01*
X130859257Y-106782190D01*
X130478304Y-106782190D01*
X131906876Y-106591714D02*
X131906876Y-107258380D01*
X131668780Y-106210761D02*
X131430685Y-106925047D01*
X132049733Y-106925047D01*
X128916133Y-86662742D02*
X128868514Y-86710361D01*
X128725657Y-86757980D01*
X128630419Y-86757980D01*
X128487561Y-86710361D01*
X128392323Y-86615123D01*
X128344704Y-86519885D01*
X128297085Y-86329409D01*
X128297085Y-86186552D01*
X128344704Y-85996076D01*
X128392323Y-85900838D01*
X128487561Y-85805600D01*
X128630419Y-85757980D01*
X128725657Y-85757980D01*
X128868514Y-85805600D01*
X128916133Y-85853219D01*
X129297085Y-85853219D02*
X129344704Y-85805600D01*
X129439942Y-85757980D01*
X129678038Y-85757980D01*
X129773276Y-85805600D01*
X129820895Y-85853219D01*
X129868514Y-85948457D01*
X129868514Y-86043695D01*
X129820895Y-86186552D01*
X129249466Y-86757980D01*
X129868514Y-86757980D01*
X157908580Y-108149923D02*
X158622866Y-108149923D01*
X158765723Y-108197542D01*
X158860961Y-108292780D01*
X158908580Y-108435638D01*
X158908580Y-108530876D01*
X158908580Y-107149923D02*
X158908580Y-107721352D01*
X158908580Y-107435638D02*
X157908580Y-107435638D01*
X158051438Y-107530876D01*
X158146676Y-107626114D01*
X158194295Y-107721352D01*
X158003819Y-106768971D02*
X157956200Y-106721352D01*
X157908580Y-106626114D01*
X157908580Y-106388019D01*
X157956200Y-106292780D01*
X158003819Y-106245161D01*
X158099057Y-106197542D01*
X158194295Y-106197542D01*
X158337152Y-106245161D01*
X158908580Y-106816590D01*
X158908580Y-106197542D01*
X150758580Y-108245161D02*
X150091914Y-108245161D01*
X149758580Y-108245161D02*
X149806200Y-108292780D01*
X149853819Y-108245161D01*
X149806200Y-108197542D01*
X149758580Y-108245161D01*
X149853819Y-108245161D01*
X149853819Y-107816590D02*
X149806200Y-107768971D01*
X149758580Y-107673733D01*
X149758580Y-107435638D01*
X149806200Y-107340400D01*
X149853819Y-107292780D01*
X149949057Y-107245161D01*
X150044295Y-107245161D01*
X150187152Y-107292780D01*
X150758580Y-107864209D01*
X150758580Y-107245161D01*
X150710961Y-106388019D02*
X150758580Y-106483257D01*
X150758580Y-106673733D01*
X150710961Y-106768971D01*
X150663342Y-106816590D01*
X150568104Y-106864209D01*
X150282390Y-106864209D01*
X150187152Y-106816590D01*
X150139533Y-106768971D01*
X150091914Y-106673733D01*
X150091914Y-106483257D01*
X150139533Y-106388019D01*
X153484066Y-116392780D02*
X153484066Y-117107066D01*
X153436447Y-117249923D01*
X153341209Y-117345161D01*
X153198352Y-117392780D01*
X153103114Y-117392780D01*
X154436447Y-116392780D02*
X153960257Y-116392780D01*
X153912638Y-116868971D01*
X153960257Y-116821352D01*
X154055495Y-116773733D01*
X154293590Y-116773733D01*
X154388828Y-116821352D01*
X154436447Y-116868971D01*
X154484066Y-116964209D01*
X154484066Y-117202304D01*
X154436447Y-117297542D01*
X154388828Y-117345161D01*
X154293590Y-117392780D01*
X154055495Y-117392780D01*
X153960257Y-117345161D01*
X153912638Y-117297542D01*
X150007876Y-126132780D02*
X150007876Y-125132780D01*
X150388828Y-125132780D01*
X150484066Y-125180400D01*
X150531685Y-125228019D01*
X150579304Y-125323257D01*
X150579304Y-125466114D01*
X150531685Y-125561352D01*
X150484066Y-125608971D01*
X150388828Y-125656590D01*
X150007876Y-125656590D01*
X150960257Y-126085161D02*
X151103114Y-126132780D01*
X151341209Y-126132780D01*
X151436447Y-126085161D01*
X151484066Y-126037542D01*
X151531685Y-125942304D01*
X151531685Y-125847066D01*
X151484066Y-125751828D01*
X151436447Y-125704209D01*
X151341209Y-125656590D01*
X151150733Y-125608971D01*
X151055495Y-125561352D01*
X151007876Y-125513733D01*
X150960257Y-125418495D01*
X150960257Y-125323257D01*
X151007876Y-125228019D01*
X151055495Y-125180400D01*
X151150733Y-125132780D01*
X151388828Y-125132780D01*
X151531685Y-125180400D01*
X151960257Y-125132780D02*
X151960257Y-125942304D01*
X152007876Y-126037542D01*
X152055495Y-126085161D01*
X152150733Y-126132780D01*
X152341209Y-126132780D01*
X152436447Y-126085161D01*
X152484066Y-126037542D01*
X152531685Y-125942304D01*
X152531685Y-125132780D01*
X154103114Y-125608971D02*
X154245971Y-125656590D01*
X154293590Y-125704209D01*
X154341209Y-125799447D01*
X154341209Y-125942304D01*
X154293590Y-126037542D01*
X154245971Y-126085161D01*
X154150733Y-126132780D01*
X153769780Y-126132780D01*
X153769780Y-125132780D01*
X154103114Y-125132780D01*
X154198352Y-125180400D01*
X154245971Y-125228019D01*
X154293590Y-125323257D01*
X154293590Y-125418495D01*
X154245971Y-125513733D01*
X154198352Y-125561352D01*
X154103114Y-125608971D01*
X153769780Y-125608971D01*
X154912638Y-126132780D02*
X154817400Y-126085161D01*
X154769780Y-126037542D01*
X154722161Y-125942304D01*
X154722161Y-125656590D01*
X154769780Y-125561352D01*
X154817400Y-125513733D01*
X154912638Y-125466114D01*
X155055495Y-125466114D01*
X155150733Y-125513733D01*
X155198352Y-125561352D01*
X155245971Y-125656590D01*
X155245971Y-125942304D01*
X155198352Y-126037542D01*
X155150733Y-126085161D01*
X155055495Y-126132780D01*
X154912638Y-126132780D01*
X156103114Y-126132780D02*
X156103114Y-125608971D01*
X156055495Y-125513733D01*
X155960257Y-125466114D01*
X155769780Y-125466114D01*
X155674542Y-125513733D01*
X156103114Y-126085161D02*
X156007876Y-126132780D01*
X155769780Y-126132780D01*
X155674542Y-126085161D01*
X155626923Y-125989923D01*
X155626923Y-125894685D01*
X155674542Y-125799447D01*
X155769780Y-125751828D01*
X156007876Y-125751828D01*
X156103114Y-125704209D01*
X156579304Y-126132780D02*
X156579304Y-125466114D01*
X156579304Y-125656590D02*
X156626923Y-125561352D01*
X156674542Y-125513733D01*
X156769780Y-125466114D01*
X156865019Y-125466114D01*
X157626923Y-126132780D02*
X157626923Y-125132780D01*
X157626923Y-126085161D02*
X157531685Y-126132780D01*
X157341209Y-126132780D01*
X157245971Y-126085161D01*
X157198352Y-126037542D01*
X157150733Y-125942304D01*
X157150733Y-125656590D01*
X157198352Y-125561352D01*
X157245971Y-125513733D01*
X157341209Y-125466114D01*
X157531685Y-125466114D01*
X157626923Y-125513733D01*
X139655561Y-91314819D02*
X139560323Y-91267200D01*
X139465085Y-91171961D01*
X139322228Y-91029104D01*
X139226990Y-90981485D01*
X139131752Y-90981485D01*
X139179371Y-91219580D02*
X139084133Y-91171961D01*
X138988895Y-91076723D01*
X138941276Y-90886247D01*
X138941276Y-90552914D01*
X138988895Y-90362438D01*
X139084133Y-90267200D01*
X139179371Y-90219580D01*
X139369847Y-90219580D01*
X139465085Y-90267200D01*
X139560323Y-90362438D01*
X139607942Y-90552914D01*
X139607942Y-90886247D01*
X139560323Y-91076723D01*
X139465085Y-91171961D01*
X139369847Y-91219580D01*
X139179371Y-91219580D01*
X140560323Y-91219580D02*
X139988895Y-91219580D01*
X140274609Y-91219580D02*
X140274609Y-90219580D01*
X140179371Y-90362438D01*
X140084133Y-90457676D01*
X139988895Y-90505295D01*
X149236133Y-91307180D02*
X148902800Y-90830990D01*
X148664704Y-91307180D02*
X148664704Y-90307180D01*
X149045657Y-90307180D01*
X149140895Y-90354800D01*
X149188514Y-90402419D01*
X149236133Y-90497657D01*
X149236133Y-90640514D01*
X149188514Y-90735752D01*
X149140895Y-90783371D01*
X149045657Y-90830990D01*
X148664704Y-90830990D01*
X149712323Y-91307180D02*
X149902800Y-91307180D01*
X149998038Y-91259561D01*
X150045657Y-91211942D01*
X150140895Y-91069085D01*
X150188514Y-90878609D01*
X150188514Y-90497657D01*
X150140895Y-90402419D01*
X150093276Y-90354800D01*
X149998038Y-90307180D01*
X149807561Y-90307180D01*
X149712323Y-90354800D01*
X149664704Y-90402419D01*
X149617085Y-90497657D01*
X149617085Y-90735752D01*
X149664704Y-90830990D01*
X149712323Y-90878609D01*
X149807561Y-90926228D01*
X149998038Y-90926228D01*
X150093276Y-90878609D01*
X150140895Y-90830990D01*
X150188514Y-90735752D01*
X121886466Y-99374780D02*
X121886466Y-100089066D01*
X121838847Y-100231923D01*
X121743609Y-100327161D01*
X121600752Y-100374780D01*
X121505514Y-100374780D01*
X122410276Y-100374780D02*
X122600752Y-100374780D01*
X122695990Y-100327161D01*
X122743609Y-100279542D01*
X122838847Y-100136685D01*
X122886466Y-99946209D01*
X122886466Y-99565257D01*
X122838847Y-99470019D01*
X122791228Y-99422400D01*
X122695990Y-99374780D01*
X122505514Y-99374780D01*
X122410276Y-99422400D01*
X122362657Y-99470019D01*
X122315038Y-99565257D01*
X122315038Y-99803352D01*
X122362657Y-99898590D01*
X122410276Y-99946209D01*
X122505514Y-99993828D01*
X122695990Y-99993828D01*
X122791228Y-99946209D01*
X122838847Y-99898590D01*
X122886466Y-99803352D01*
X116395904Y-109215180D02*
X116395904Y-108215180D01*
X116776857Y-108215180D01*
X116872095Y-108262800D01*
X116919714Y-108310419D01*
X116967333Y-108405657D01*
X116967333Y-108548514D01*
X116919714Y-108643752D01*
X116872095Y-108691371D01*
X116776857Y-108738990D01*
X116395904Y-108738990D01*
X117348285Y-108929466D02*
X117824476Y-108929466D01*
X117253047Y-109215180D02*
X117586380Y-108215180D01*
X117919714Y-109215180D01*
X119348285Y-108691371D02*
X119491142Y-108738990D01*
X119538761Y-108786609D01*
X119586380Y-108881847D01*
X119586380Y-109024704D01*
X119538761Y-109119942D01*
X119491142Y-109167561D01*
X119395904Y-109215180D01*
X119014952Y-109215180D01*
X119014952Y-108215180D01*
X119348285Y-108215180D01*
X119443523Y-108262800D01*
X119491142Y-108310419D01*
X119538761Y-108405657D01*
X119538761Y-108500895D01*
X119491142Y-108596133D01*
X119443523Y-108643752D01*
X119348285Y-108691371D01*
X119014952Y-108691371D01*
X120157809Y-109215180D02*
X120062571Y-109167561D01*
X120014952Y-109119942D01*
X119967333Y-109024704D01*
X119967333Y-108738990D01*
X120014952Y-108643752D01*
X120062571Y-108596133D01*
X120157809Y-108548514D01*
X120300666Y-108548514D01*
X120395904Y-108596133D01*
X120443523Y-108643752D01*
X120491142Y-108738990D01*
X120491142Y-109024704D01*
X120443523Y-109119942D01*
X120395904Y-109167561D01*
X120300666Y-109215180D01*
X120157809Y-109215180D01*
X121348285Y-109215180D02*
X121348285Y-108691371D01*
X121300666Y-108596133D01*
X121205428Y-108548514D01*
X121014952Y-108548514D01*
X120919714Y-108596133D01*
X121348285Y-109167561D02*
X121253047Y-109215180D01*
X121014952Y-109215180D01*
X120919714Y-109167561D01*
X120872095Y-109072323D01*
X120872095Y-108977085D01*
X120919714Y-108881847D01*
X121014952Y-108834228D01*
X121253047Y-108834228D01*
X121348285Y-108786609D01*
X121824476Y-109215180D02*
X121824476Y-108548514D01*
X121824476Y-108738990D02*
X121872095Y-108643752D01*
X121919714Y-108596133D01*
X122014952Y-108548514D01*
X122110190Y-108548514D01*
X122872095Y-109215180D02*
X122872095Y-108215180D01*
X122872095Y-109167561D02*
X122776857Y-109215180D01*
X122586380Y-109215180D01*
X122491142Y-109167561D01*
X122443523Y-109119942D01*
X122395904Y-109024704D01*
X122395904Y-108738990D01*
X122443523Y-108643752D01*
X122491142Y-108596133D01*
X122586380Y-108548514D01*
X122776857Y-108548514D01*
X122872095Y-108596133D01*
X135875733Y-91307180D02*
X135542400Y-90830990D01*
X135304304Y-91307180D02*
X135304304Y-90307180D01*
X135685257Y-90307180D01*
X135780495Y-90354800D01*
X135828114Y-90402419D01*
X135875733Y-90497657D01*
X135875733Y-90640514D01*
X135828114Y-90735752D01*
X135780495Y-90783371D01*
X135685257Y-90830990D01*
X135304304Y-90830990D01*
X136447161Y-90735752D02*
X136351923Y-90688133D01*
X136304304Y-90640514D01*
X136256685Y-90545276D01*
X136256685Y-90497657D01*
X136304304Y-90402419D01*
X136351923Y-90354800D01*
X136447161Y-90307180D01*
X136637638Y-90307180D01*
X136732876Y-90354800D01*
X136780495Y-90402419D01*
X136828114Y-90497657D01*
X136828114Y-90545276D01*
X136780495Y-90640514D01*
X136732876Y-90688133D01*
X136637638Y-90735752D01*
X136447161Y-90735752D01*
X136351923Y-90783371D01*
X136304304Y-90830990D01*
X136256685Y-90926228D01*
X136256685Y-91116704D01*
X136304304Y-91211942D01*
X136351923Y-91259561D01*
X136447161Y-91307180D01*
X136637638Y-91307180D01*
X136732876Y-91259561D01*
X136780495Y-91211942D01*
X136828114Y-91116704D01*
X136828114Y-90926228D01*
X136780495Y-90830990D01*
X136732876Y-90783371D01*
X136637638Y-90735752D01*
X127118866Y-116443580D02*
X127118866Y-117157866D01*
X127071247Y-117300723D01*
X126976009Y-117395961D01*
X126833152Y-117443580D01*
X126737914Y-117443580D01*
X127547438Y-116538819D02*
X127595057Y-116491200D01*
X127690295Y-116443580D01*
X127928390Y-116443580D01*
X128023628Y-116491200D01*
X128071247Y-116538819D01*
X128118866Y-116634057D01*
X128118866Y-116729295D01*
X128071247Y-116872152D01*
X127499819Y-117443580D01*
X128118866Y-117443580D01*
X126690295Y-125231200D02*
X126595057Y-125183580D01*
X126452200Y-125183580D01*
X126309342Y-125231200D01*
X126214104Y-125326438D01*
X126166485Y-125421676D01*
X126118866Y-125612152D01*
X126118866Y-125755009D01*
X126166485Y-125945485D01*
X126214104Y-126040723D01*
X126309342Y-126135961D01*
X126452200Y-126183580D01*
X126547438Y-126183580D01*
X126690295Y-126135961D01*
X126737914Y-126088342D01*
X126737914Y-125755009D01*
X126547438Y-125755009D01*
X127166485Y-126183580D02*
X127166485Y-125183580D01*
X127737914Y-126183580D01*
X127737914Y-125183580D01*
X128214104Y-126183580D02*
X128214104Y-125183580D01*
X128452200Y-125183580D01*
X128595057Y-125231200D01*
X128690295Y-125326438D01*
X128737914Y-125421676D01*
X128785533Y-125612152D01*
X128785533Y-125755009D01*
X128737914Y-125945485D01*
X128690295Y-126040723D01*
X128595057Y-126135961D01*
X128452200Y-126183580D01*
X128214104Y-126183580D01*
X143105333Y-91307180D02*
X142772000Y-90830990D01*
X142533904Y-91307180D02*
X142533904Y-90307180D01*
X142914857Y-90307180D01*
X143010095Y-90354800D01*
X143057714Y-90402419D01*
X143105333Y-90497657D01*
X143105333Y-90640514D01*
X143057714Y-90735752D01*
X143010095Y-90783371D01*
X142914857Y-90830990D01*
X142533904Y-90830990D01*
X143962476Y-90307180D02*
X143772000Y-90307180D01*
X143676761Y-90354800D01*
X143629142Y-90402419D01*
X143533904Y-90545276D01*
X143486285Y-90735752D01*
X143486285Y-91116704D01*
X143533904Y-91211942D01*
X143581523Y-91259561D01*
X143676761Y-91307180D01*
X143867238Y-91307180D01*
X143962476Y-91259561D01*
X144010095Y-91211942D01*
X144057714Y-91116704D01*
X144057714Y-90878609D01*
X144010095Y-90783371D01*
X143962476Y-90735752D01*
X143867238Y-90688133D01*
X143676761Y-90688133D01*
X143581523Y-90735752D01*
X143533904Y-90783371D01*
X143486285Y-90878609D01*
X125950742Y-113862380D02*
X125617409Y-113386190D01*
X125379314Y-113862380D02*
X125379314Y-112862380D01*
X125760266Y-112862380D01*
X125855504Y-112910000D01*
X125903123Y-112957619D01*
X125950742Y-113052857D01*
X125950742Y-113195714D01*
X125903123Y-113290952D01*
X125855504Y-113338571D01*
X125760266Y-113386190D01*
X125379314Y-113386190D01*
X126903123Y-113862380D02*
X126331695Y-113862380D01*
X126617409Y-113862380D02*
X126617409Y-112862380D01*
X126522171Y-113005238D01*
X126426933Y-113100476D01*
X126331695Y-113148095D01*
X127522171Y-112862380D02*
X127617409Y-112862380D01*
X127712647Y-112910000D01*
X127760266Y-112957619D01*
X127807885Y-113052857D01*
X127855504Y-113243333D01*
X127855504Y-113481428D01*
X127807885Y-113671904D01*
X127760266Y-113767142D01*
X127712647Y-113814761D01*
X127617409Y-113862380D01*
X127522171Y-113862380D01*
X127426933Y-113814761D01*
X127379314Y-113767142D01*
X127331695Y-113671904D01*
X127284076Y-113481428D01*
X127284076Y-113243333D01*
X127331695Y-113052857D01*
X127379314Y-112957619D01*
X127426933Y-112910000D01*
X127522171Y-112862380D01*
X159624780Y-112620323D02*
X160339066Y-112620323D01*
X160481923Y-112667942D01*
X160577161Y-112763180D01*
X160624780Y-112906038D01*
X160624780Y-113001276D01*
X160624780Y-111620323D02*
X160624780Y-112191752D01*
X160624780Y-111906038D02*
X159624780Y-111906038D01*
X159767638Y-112001276D01*
X159862876Y-112096514D01*
X159910495Y-112191752D01*
X159958114Y-110763180D02*
X160624780Y-110763180D01*
X159577161Y-111001276D02*
X160291447Y-111239371D01*
X160291447Y-110620323D01*
X169006780Y-113934761D02*
X168340114Y-113934761D01*
X168006780Y-113934761D02*
X168054400Y-113982380D01*
X168102019Y-113934761D01*
X168054400Y-113887142D01*
X168006780Y-113934761D01*
X168102019Y-113934761D01*
X168102019Y-113506190D02*
X168054400Y-113458571D01*
X168006780Y-113363333D01*
X168006780Y-113125238D01*
X168054400Y-113030000D01*
X168102019Y-112982380D01*
X168197257Y-112934761D01*
X168292495Y-112934761D01*
X168435352Y-112982380D01*
X169006780Y-113553809D01*
X169006780Y-112934761D01*
X168959161Y-112077619D02*
X169006780Y-112172857D01*
X169006780Y-112363333D01*
X168959161Y-112458571D01*
X168911542Y-112506190D01*
X168816304Y-112553809D01*
X168530590Y-112553809D01*
X168435352Y-112506190D01*
X168387733Y-112458571D01*
X168340114Y-112363333D01*
X168340114Y-112172857D01*
X168387733Y-112077619D01*
X119162533Y-93626342D02*
X119114914Y-93673961D01*
X118972057Y-93721580D01*
X118876819Y-93721580D01*
X118733961Y-93673961D01*
X118638723Y-93578723D01*
X118591104Y-93483485D01*
X118543485Y-93293009D01*
X118543485Y-93150152D01*
X118591104Y-92959676D01*
X118638723Y-92864438D01*
X118733961Y-92769200D01*
X118876819Y-92721580D01*
X118972057Y-92721580D01*
X119114914Y-92769200D01*
X119162533Y-92816819D01*
X120114914Y-93721580D02*
X119543485Y-93721580D01*
X119829200Y-93721580D02*
X119829200Y-92721580D01*
X119733961Y-92864438D01*
X119638723Y-92959676D01*
X119543485Y-93007295D01*
X140682466Y-116443580D02*
X140682466Y-117157866D01*
X140634847Y-117300723D01*
X140539609Y-117395961D01*
X140396752Y-117443580D01*
X140301514Y-117443580D01*
X141301514Y-116872152D02*
X141206276Y-116824533D01*
X141158657Y-116776914D01*
X141111038Y-116681676D01*
X141111038Y-116634057D01*
X141158657Y-116538819D01*
X141206276Y-116491200D01*
X141301514Y-116443580D01*
X141491990Y-116443580D01*
X141587228Y-116491200D01*
X141634847Y-116538819D01*
X141682466Y-116634057D01*
X141682466Y-116681676D01*
X141634847Y-116776914D01*
X141587228Y-116824533D01*
X141491990Y-116872152D01*
X141301514Y-116872152D01*
X141206276Y-116919771D01*
X141158657Y-116967390D01*
X141111038Y-117062628D01*
X141111038Y-117253104D01*
X141158657Y-117348342D01*
X141206276Y-117395961D01*
X141301514Y-117443580D01*
X141491990Y-117443580D01*
X141587228Y-117395961D01*
X141634847Y-117348342D01*
X141682466Y-117253104D01*
X141682466Y-117062628D01*
X141634847Y-116967390D01*
X141587228Y-116919771D01*
X141491990Y-116872152D01*
X139015800Y-125802628D02*
X139777704Y-125802628D01*
X139396752Y-126183580D02*
X139396752Y-125421676D01*
X140158657Y-125183580D02*
X140777704Y-125183580D01*
X140444371Y-125564533D01*
X140587228Y-125564533D01*
X140682466Y-125612152D01*
X140730085Y-125659771D01*
X140777704Y-125755009D01*
X140777704Y-125993104D01*
X140730085Y-126088342D01*
X140682466Y-126135961D01*
X140587228Y-126183580D01*
X140301514Y-126183580D01*
X140206276Y-126135961D01*
X140158657Y-126088342D01*
X141206276Y-126088342D02*
X141253895Y-126135961D01*
X141206276Y-126183580D01*
X141158657Y-126135961D01*
X141206276Y-126088342D01*
X141206276Y-126183580D01*
X141587228Y-125183580D02*
X142206276Y-125183580D01*
X141872942Y-125564533D01*
X142015800Y-125564533D01*
X142111038Y-125612152D01*
X142158657Y-125659771D01*
X142206276Y-125755009D01*
X142206276Y-125993104D01*
X142158657Y-126088342D01*
X142111038Y-126135961D01*
X142015800Y-126183580D01*
X141730085Y-126183580D01*
X141634847Y-126135961D01*
X141587228Y-126088342D01*
X142491990Y-125183580D02*
X142825323Y-126183580D01*
X143158657Y-125183580D01*
X131049733Y-101343942D02*
X131002114Y-101391561D01*
X130859257Y-101439180D01*
X130764019Y-101439180D01*
X130621161Y-101391561D01*
X130525923Y-101296323D01*
X130478304Y-101201085D01*
X130430685Y-101010609D01*
X130430685Y-100867752D01*
X130478304Y-100677276D01*
X130525923Y-100582038D01*
X130621161Y-100486800D01*
X130764019Y-100439180D01*
X130859257Y-100439180D01*
X131002114Y-100486800D01*
X131049733Y-100534419D01*
X131906876Y-100772514D02*
X131906876Y-101439180D01*
X131668780Y-100391561D02*
X131430685Y-101105847D01*
X132049733Y-101105847D01*
X139195276Y-78785980D02*
X139195276Y-77785980D01*
X139528609Y-78500266D01*
X139861942Y-77785980D01*
X139861942Y-78785980D01*
X140861942Y-78785980D02*
X140290514Y-78785980D01*
X140576228Y-78785980D02*
X140576228Y-77785980D01*
X140480990Y-77928838D01*
X140385752Y-78024076D01*
X140290514Y-78071695D01*
X138080952Y-87456971D02*
X137747619Y-87456971D01*
X137747619Y-87980780D02*
X137747619Y-86980780D01*
X138223809Y-86980780D01*
X139033333Y-87980780D02*
X139033333Y-87456971D01*
X138985714Y-87361733D01*
X138890476Y-87314114D01*
X138700000Y-87314114D01*
X138604761Y-87361733D01*
X139033333Y-87933161D02*
X138938095Y-87980780D01*
X138700000Y-87980780D01*
X138604761Y-87933161D01*
X138557142Y-87837923D01*
X138557142Y-87742685D01*
X138604761Y-87647447D01*
X138700000Y-87599828D01*
X138938095Y-87599828D01*
X139033333Y-87552209D01*
X139509523Y-87314114D02*
X139509523Y-87980780D01*
X139509523Y-87409352D02*
X139557142Y-87361733D01*
X139652380Y-87314114D01*
X139795238Y-87314114D01*
X139890476Y-87361733D01*
X139938095Y-87456971D01*
X139938095Y-87980780D01*
X141700000Y-87980780D02*
X141128571Y-87980780D01*
X141414285Y-87980780D02*
X141414285Y-86980780D01*
X141319047Y-87123638D01*
X141223809Y-87218876D01*
X141128571Y-87266495D01*
X125817333Y-94591142D02*
X125769714Y-94638761D01*
X125626857Y-94686380D01*
X125531619Y-94686380D01*
X125388761Y-94638761D01*
X125293523Y-94543523D01*
X125245904Y-94448285D01*
X125198285Y-94257809D01*
X125198285Y-94114952D01*
X125245904Y-93924476D01*
X125293523Y-93829238D01*
X125388761Y-93734000D01*
X125531619Y-93686380D01*
X125626857Y-93686380D01*
X125769714Y-93734000D01*
X125817333Y-93781619D01*
X126150666Y-93686380D02*
X126769714Y-93686380D01*
X126436380Y-94067333D01*
X126579238Y-94067333D01*
X126674476Y-94114952D01*
X126722095Y-94162571D01*
X126769714Y-94257809D01*
X126769714Y-94495904D01*
X126722095Y-94591142D01*
X126674476Y-94638761D01*
X126579238Y-94686380D01*
X126293523Y-94686380D01*
X126198285Y-94638761D01*
X126150666Y-94591142D01*
X112341066Y-78943380D02*
X112341066Y-79657666D01*
X112293447Y-79800523D01*
X112198209Y-79895761D01*
X112055352Y-79943380D01*
X111960114Y-79943380D01*
X112722019Y-78943380D02*
X113388685Y-78943380D01*
X112960114Y-79943380D01*
X111079161Y-87093380D02*
X111079161Y-87902904D01*
X111126780Y-87998142D01*
X111174400Y-88045761D01*
X111269638Y-88093380D01*
X111460114Y-88093380D01*
X111555352Y-88045761D01*
X111602971Y-87998142D01*
X111650590Y-87902904D01*
X111650590Y-87093380D01*
X112079161Y-87807666D02*
X112555352Y-87807666D01*
X111983923Y-88093380D02*
X112317257Y-87093380D01*
X112650590Y-88093380D01*
X113555352Y-88093380D02*
X113222019Y-87617190D01*
X112983923Y-88093380D02*
X112983923Y-87093380D01*
X113364876Y-87093380D01*
X113460114Y-87141000D01*
X113507733Y-87188619D01*
X113555352Y-87283857D01*
X113555352Y-87426714D01*
X113507733Y-87521952D01*
X113460114Y-87569571D01*
X113364876Y-87617190D01*
X112983923Y-87617190D01*
X113841066Y-87093380D02*
X114412495Y-87093380D01*
X114126780Y-88093380D02*
X114126780Y-87093380D01*
X114666780Y-112601333D02*
X115381066Y-112601333D01*
X115523923Y-112648952D01*
X115619161Y-112744190D01*
X115666780Y-112887047D01*
X115666780Y-112982285D01*
X114666780Y-112220380D02*
X114666780Y-111601333D01*
X115047733Y-111934666D01*
X115047733Y-111791809D01*
X115095352Y-111696571D01*
X115142971Y-111648952D01*
X115238209Y-111601333D01*
X115476304Y-111601333D01*
X115571542Y-111648952D01*
X115619161Y-111696571D01*
X115666780Y-111791809D01*
X115666780Y-112077523D01*
X115619161Y-112172761D01*
X115571542Y-112220380D01*
X106116380Y-110257885D02*
X105640190Y-110591219D01*
X106116380Y-110829314D02*
X105116380Y-110829314D01*
X105116380Y-110448361D01*
X105164000Y-110353123D01*
X105211619Y-110305504D01*
X105306857Y-110257885D01*
X105449714Y-110257885D01*
X105544952Y-110305504D01*
X105592571Y-110353123D01*
X105640190Y-110448361D01*
X105640190Y-110829314D01*
X105116380Y-109924552D02*
X106116380Y-109257885D01*
X105116380Y-109257885D02*
X106116380Y-109924552D01*
X105592571Y-107781695D02*
X105640190Y-107638838D01*
X105687809Y-107591219D01*
X105783047Y-107543600D01*
X105925904Y-107543600D01*
X106021142Y-107591219D01*
X106068761Y-107638838D01*
X106116380Y-107734076D01*
X106116380Y-108115028D01*
X105116380Y-108115028D01*
X105116380Y-107781695D01*
X105164000Y-107686457D01*
X105211619Y-107638838D01*
X105306857Y-107591219D01*
X105402095Y-107591219D01*
X105497333Y-107638838D01*
X105544952Y-107686457D01*
X105592571Y-107781695D01*
X105592571Y-108115028D01*
X106116380Y-106972171D02*
X106068761Y-107067409D01*
X106021142Y-107115028D01*
X105925904Y-107162647D01*
X105640190Y-107162647D01*
X105544952Y-107115028D01*
X105497333Y-107067409D01*
X105449714Y-106972171D01*
X105449714Y-106829314D01*
X105497333Y-106734076D01*
X105544952Y-106686457D01*
X105640190Y-106638838D01*
X105925904Y-106638838D01*
X106021142Y-106686457D01*
X106068761Y-106734076D01*
X106116380Y-106829314D01*
X106116380Y-106972171D01*
X106116380Y-105781695D02*
X105592571Y-105781695D01*
X105497333Y-105829314D01*
X105449714Y-105924552D01*
X105449714Y-106115028D01*
X105497333Y-106210266D01*
X106068761Y-105781695D02*
X106116380Y-105876933D01*
X106116380Y-106115028D01*
X106068761Y-106210266D01*
X105973523Y-106257885D01*
X105878285Y-106257885D01*
X105783047Y-106210266D01*
X105735428Y-106115028D01*
X105735428Y-105876933D01*
X105687809Y-105781695D01*
X106116380Y-105305504D02*
X105449714Y-105305504D01*
X105640190Y-105305504D02*
X105544952Y-105257885D01*
X105497333Y-105210266D01*
X105449714Y-105115028D01*
X105449714Y-105019790D01*
X106116380Y-104257885D02*
X105116380Y-104257885D01*
X106068761Y-104257885D02*
X106116380Y-104353123D01*
X106116380Y-104543600D01*
X106068761Y-104638838D01*
X106021142Y-104686457D01*
X105925904Y-104734076D01*
X105640190Y-104734076D01*
X105544952Y-104686457D01*
X105497333Y-104638838D01*
X105449714Y-104543600D01*
X105449714Y-104353123D01*
X105497333Y-104257885D01*
X118432342Y-110840780D02*
X118099009Y-110364590D01*
X117860914Y-110840780D02*
X117860914Y-109840780D01*
X118241866Y-109840780D01*
X118337104Y-109888400D01*
X118384723Y-109936019D01*
X118432342Y-110031257D01*
X118432342Y-110174114D01*
X118384723Y-110269352D01*
X118337104Y-110316971D01*
X118241866Y-110364590D01*
X117860914Y-110364590D01*
X119384723Y-110840780D02*
X118813295Y-110840780D01*
X119099009Y-110840780D02*
X119099009Y-109840780D01*
X119003771Y-109983638D01*
X118908533Y-110078876D01*
X118813295Y-110126495D01*
X120337104Y-110840780D02*
X119765676Y-110840780D01*
X120051390Y-110840780D02*
X120051390Y-109840780D01*
X119956152Y-109983638D01*
X119860914Y-110078876D01*
X119765676Y-110126495D01*
X115530380Y-93265523D02*
X116244666Y-93265523D01*
X116387523Y-93313142D01*
X116482761Y-93408380D01*
X116530380Y-93551238D01*
X116530380Y-93646476D01*
X116530380Y-92265523D02*
X116530380Y-92836952D01*
X116530380Y-92551238D02*
X115530380Y-92551238D01*
X115673238Y-92646476D01*
X115768476Y-92741714D01*
X115816095Y-92836952D01*
X115530380Y-91646476D02*
X115530380Y-91551238D01*
X115578000Y-91456000D01*
X115625619Y-91408380D01*
X115720857Y-91360761D01*
X115911333Y-91313142D01*
X116149428Y-91313142D01*
X116339904Y-91360761D01*
X116435142Y-91408380D01*
X116482761Y-91456000D01*
X116530380Y-91551238D01*
X116530380Y-91646476D01*
X116482761Y-91741714D01*
X116435142Y-91789333D01*
X116339904Y-91836952D01*
X116149428Y-91884571D01*
X115911333Y-91884571D01*
X115720857Y-91836952D01*
X115625619Y-91789333D01*
X115578000Y-91741714D01*
X115530380Y-91646476D01*
X105633828Y-99032533D02*
X105633828Y-98270628D01*
X106014780Y-98651580D02*
X105252876Y-98651580D01*
X105014780Y-97318247D02*
X105014780Y-97794438D01*
X105490971Y-97842057D01*
X105443352Y-97794438D01*
X105395733Y-97699200D01*
X105395733Y-97461104D01*
X105443352Y-97365866D01*
X105490971Y-97318247D01*
X105586209Y-97270628D01*
X105824304Y-97270628D01*
X105919542Y-97318247D01*
X105967161Y-97365866D01*
X106014780Y-97461104D01*
X106014780Y-97699200D01*
X105967161Y-97794438D01*
X105919542Y-97842057D01*
X105348114Y-96937295D02*
X106014780Y-96699200D01*
X105348114Y-96461104D01*
X106014780Y-95318247D02*
X105014780Y-95318247D01*
X105014780Y-94937295D01*
X105062400Y-94842057D01*
X105110019Y-94794438D01*
X105205257Y-94746819D01*
X105348114Y-94746819D01*
X105443352Y-94794438D01*
X105490971Y-94842057D01*
X105538590Y-94937295D01*
X105538590Y-95318247D01*
X106014780Y-94175390D02*
X105967161Y-94270628D01*
X105919542Y-94318247D01*
X105824304Y-94365866D01*
X105538590Y-94365866D01*
X105443352Y-94318247D01*
X105395733Y-94270628D01*
X105348114Y-94175390D01*
X105348114Y-94032533D01*
X105395733Y-93937295D01*
X105443352Y-93889676D01*
X105538590Y-93842057D01*
X105824304Y-93842057D01*
X105919542Y-93889676D01*
X105967161Y-93937295D01*
X106014780Y-94032533D01*
X106014780Y-94175390D01*
X105348114Y-93508723D02*
X106014780Y-93318247D01*
X105538590Y-93127771D01*
X106014780Y-92937295D01*
X105348114Y-92746819D01*
X105967161Y-91984914D02*
X106014780Y-92080152D01*
X106014780Y-92270628D01*
X105967161Y-92365866D01*
X105871923Y-92413485D01*
X105490971Y-92413485D01*
X105395733Y-92365866D01*
X105348114Y-92270628D01*
X105348114Y-92080152D01*
X105395733Y-91984914D01*
X105490971Y-91937295D01*
X105586209Y-91937295D01*
X105681447Y-92413485D01*
X106014780Y-91508723D02*
X105348114Y-91508723D01*
X105538590Y-91508723D02*
X105443352Y-91461104D01*
X105395733Y-91413485D01*
X105348114Y-91318247D01*
X105348114Y-91223009D01*
X115928876Y-116443580D02*
X115928876Y-117157866D01*
X115881257Y-117300723D01*
X115786019Y-117395961D01*
X115643161Y-117443580D01*
X115547923Y-117443580D01*
X116928876Y-117443580D02*
X116357447Y-117443580D01*
X116643161Y-117443580D02*
X116643161Y-116443580D01*
X116547923Y-116586438D01*
X116452685Y-116681676D01*
X116357447Y-116729295D01*
X117833638Y-116443580D02*
X117357447Y-116443580D01*
X117309828Y-116919771D01*
X117357447Y-116872152D01*
X117452685Y-116824533D01*
X117690780Y-116824533D01*
X117786019Y-116872152D01*
X117833638Y-116919771D01*
X117881257Y-117015009D01*
X117881257Y-117253104D01*
X117833638Y-117348342D01*
X117786019Y-117395961D01*
X117690780Y-117443580D01*
X117452685Y-117443580D01*
X117357447Y-117395961D01*
X117309828Y-117348342D01*
X114952685Y-126183580D02*
X114952685Y-125183580D01*
X115286019Y-125897866D01*
X115619352Y-125183580D01*
X115619352Y-126183580D01*
X116476495Y-126135961D02*
X116381257Y-126183580D01*
X116190780Y-126183580D01*
X116095542Y-126135961D01*
X116047923Y-126040723D01*
X116047923Y-125659771D01*
X116095542Y-125564533D01*
X116190780Y-125516914D01*
X116381257Y-125516914D01*
X116476495Y-125564533D01*
X116524114Y-125659771D01*
X116524114Y-125755009D01*
X116047923Y-125850247D01*
X116809828Y-125516914D02*
X117190780Y-125516914D01*
X116952685Y-125183580D02*
X116952685Y-126040723D01*
X117000304Y-126135961D01*
X117095542Y-126183580D01*
X117190780Y-126183580D01*
X117905066Y-126135961D02*
X117809828Y-126183580D01*
X117619352Y-126183580D01*
X117524114Y-126135961D01*
X117476495Y-126040723D01*
X117476495Y-125659771D01*
X117524114Y-125564533D01*
X117619352Y-125516914D01*
X117809828Y-125516914D01*
X117905066Y-125564533D01*
X117952685Y-125659771D01*
X117952685Y-125755009D01*
X117476495Y-125850247D01*
X118381257Y-126183580D02*
X118381257Y-125516914D01*
X118381257Y-125707390D02*
X118428876Y-125612152D01*
X118476495Y-125564533D01*
X118571733Y-125516914D01*
X118666971Y-125516914D01*
X123466266Y-78191180D02*
X123466266Y-78905466D01*
X123418647Y-79048323D01*
X123323409Y-79143561D01*
X123180552Y-79191180D01*
X123085314Y-79191180D01*
X124371028Y-78524514D02*
X124371028Y-79191180D01*
X124132933Y-78143561D02*
X123894838Y-78857847D01*
X124513885Y-78857847D01*
X122204361Y-87931180D02*
X121632933Y-87931180D01*
X121918647Y-87931180D02*
X121918647Y-86931180D01*
X121823409Y-87074038D01*
X121728171Y-87169276D01*
X121632933Y-87216895D01*
X123299600Y-87264514D02*
X123490076Y-87931180D01*
X123680552Y-87454990D01*
X123871028Y-87931180D01*
X124061504Y-87264514D01*
X124442457Y-87931180D02*
X124442457Y-87264514D01*
X124442457Y-86931180D02*
X124394838Y-86978800D01*
X124442457Y-87026419D01*
X124490076Y-86978800D01*
X124442457Y-86931180D01*
X124442457Y-87026419D01*
X124918647Y-87931180D02*
X124918647Y-87264514D01*
X124918647Y-87454990D02*
X124966266Y-87359752D01*
X125013885Y-87312133D01*
X125109123Y-87264514D01*
X125204361Y-87264514D01*
X125918647Y-87883561D02*
X125823409Y-87931180D01*
X125632933Y-87931180D01*
X125537695Y-87883561D01*
X125490076Y-87788323D01*
X125490076Y-87407371D01*
X125537695Y-87312133D01*
X125632933Y-87264514D01*
X125823409Y-87264514D01*
X125918647Y-87312133D01*
X125966266Y-87407371D01*
X125966266Y-87502609D01*
X125490076Y-87597847D01*
X152761961Y-91314819D02*
X152666723Y-91267200D01*
X152571485Y-91171961D01*
X152428628Y-91029104D01*
X152333390Y-90981485D01*
X152238152Y-90981485D01*
X152285771Y-91219580D02*
X152190533Y-91171961D01*
X152095295Y-91076723D01*
X152047676Y-90886247D01*
X152047676Y-90552914D01*
X152095295Y-90362438D01*
X152190533Y-90267200D01*
X152285771Y-90219580D01*
X152476247Y-90219580D01*
X152571485Y-90267200D01*
X152666723Y-90362438D01*
X152714342Y-90552914D01*
X152714342Y-90886247D01*
X152666723Y-91076723D01*
X152571485Y-91171961D01*
X152476247Y-91219580D01*
X152285771Y-91219580D01*
X153095295Y-90314819D02*
X153142914Y-90267200D01*
X153238152Y-90219580D01*
X153476247Y-90219580D01*
X153571485Y-90267200D01*
X153619104Y-90314819D01*
X153666723Y-90410057D01*
X153666723Y-90505295D01*
X153619104Y-90648152D01*
X153047676Y-91219580D01*
X153666723Y-91219580D01*
X120635733Y-117349542D02*
X120588114Y-117397161D01*
X120445257Y-117444780D01*
X120350019Y-117444780D01*
X120207161Y-117397161D01*
X120111923Y-117301923D01*
X120064304Y-117206685D01*
X120016685Y-117016209D01*
X120016685Y-116873352D01*
X120064304Y-116682876D01*
X120111923Y-116587638D01*
X120207161Y-116492400D01*
X120350019Y-116444780D01*
X120445257Y-116444780D01*
X120588114Y-116492400D01*
X120635733Y-116540019D01*
X121540495Y-116444780D02*
X121064304Y-116444780D01*
X121016685Y-116920971D01*
X121064304Y-116873352D01*
X121159542Y-116825733D01*
X121397638Y-116825733D01*
X121492876Y-116873352D01*
X121540495Y-116920971D01*
X121588114Y-117016209D01*
X121588114Y-117254304D01*
X121540495Y-117349542D01*
X121492876Y-117397161D01*
X121397638Y-117444780D01*
X121159542Y-117444780D01*
X121064304Y-117397161D01*
X121016685Y-117349542D01*
X155078133Y-91307180D02*
X154744800Y-90830990D01*
X154506704Y-91307180D02*
X154506704Y-90307180D01*
X154887657Y-90307180D01*
X154982895Y-90354800D01*
X155030514Y-90402419D01*
X155078133Y-90497657D01*
X155078133Y-90640514D01*
X155030514Y-90735752D01*
X154982895Y-90783371D01*
X154887657Y-90830990D01*
X154506704Y-90830990D01*
X155411466Y-90307180D02*
X156078133Y-90307180D01*
X155649561Y-91307180D01*
X153368476Y-79090780D02*
X153368476Y-78090780D01*
X153701809Y-78805066D01*
X154035142Y-78090780D01*
X154035142Y-79090780D01*
X154463714Y-78186019D02*
X154511333Y-78138400D01*
X154606571Y-78090780D01*
X154844666Y-78090780D01*
X154939904Y-78138400D01*
X154987523Y-78186019D01*
X155035142Y-78281257D01*
X155035142Y-78376495D01*
X154987523Y-78519352D01*
X154416095Y-79090780D01*
X155035142Y-79090780D01*
X150526952Y-87456971D02*
X150193619Y-87456971D01*
X150193619Y-87980780D02*
X150193619Y-86980780D01*
X150669809Y-86980780D01*
X151479333Y-87980780D02*
X151479333Y-87456971D01*
X151431714Y-87361733D01*
X151336476Y-87314114D01*
X151146000Y-87314114D01*
X151050761Y-87361733D01*
X151479333Y-87933161D02*
X151384095Y-87980780D01*
X151146000Y-87980780D01*
X151050761Y-87933161D01*
X151003142Y-87837923D01*
X151003142Y-87742685D01*
X151050761Y-87647447D01*
X151146000Y-87599828D01*
X151384095Y-87599828D01*
X151479333Y-87552209D01*
X151955523Y-87314114D02*
X151955523Y-87980780D01*
X151955523Y-87409352D02*
X152003142Y-87361733D01*
X152098380Y-87314114D01*
X152241238Y-87314114D01*
X152336476Y-87361733D01*
X152384095Y-87456971D01*
X152384095Y-87980780D01*
X153574571Y-87076019D02*
X153622190Y-87028400D01*
X153717428Y-86980780D01*
X153955523Y-86980780D01*
X154050761Y-87028400D01*
X154098380Y-87076019D01*
X154146000Y-87171257D01*
X154146000Y-87266495D01*
X154098380Y-87409352D01*
X153526952Y-87980780D01*
X154146000Y-87980780D01*
X121651733Y-91943180D02*
X121318400Y-91466990D01*
X121080304Y-91943180D02*
X121080304Y-90943180D01*
X121461257Y-90943180D01*
X121556495Y-90990800D01*
X121604114Y-91038419D01*
X121651733Y-91133657D01*
X121651733Y-91276514D01*
X121604114Y-91371752D01*
X121556495Y-91419371D01*
X121461257Y-91466990D01*
X121080304Y-91466990D01*
X122604114Y-91943180D02*
X122032685Y-91943180D01*
X122318400Y-91943180D02*
X122318400Y-90943180D01*
X122223161Y-91086038D01*
X122127923Y-91181276D01*
X122032685Y-91228895D01*
X134031980Y-93483866D02*
X133555790Y-93817200D01*
X134031980Y-94055295D02*
X133031980Y-94055295D01*
X133031980Y-93674342D01*
X133079600Y-93579104D01*
X133127219Y-93531485D01*
X133222457Y-93483866D01*
X133365314Y-93483866D01*
X133460552Y-93531485D01*
X133508171Y-93579104D01*
X133555790Y-93674342D01*
X133555790Y-94055295D01*
X133031980Y-93150533D02*
X133031980Y-92531485D01*
X133412933Y-92864819D01*
X133412933Y-92721961D01*
X133460552Y-92626723D01*
X133508171Y-92579104D01*
X133603409Y-92531485D01*
X133841504Y-92531485D01*
X133936742Y-92579104D01*
X133984361Y-92626723D01*
X134031980Y-92721961D01*
X134031980Y-93007676D01*
X133984361Y-93102914D01*
X133936742Y-93150533D01*
X140022066Y-99476380D02*
X140022066Y-100190666D01*
X139974447Y-100333523D01*
X139879209Y-100428761D01*
X139736352Y-100476380D01*
X139641114Y-100476380D01*
X140926828Y-99476380D02*
X140736352Y-99476380D01*
X140641114Y-99524000D01*
X140593495Y-99571619D01*
X140498257Y-99714476D01*
X140450638Y-99904952D01*
X140450638Y-100285904D01*
X140498257Y-100381142D01*
X140545876Y-100428761D01*
X140641114Y-100476380D01*
X140831590Y-100476380D01*
X140926828Y-100428761D01*
X140974447Y-100381142D01*
X141022066Y-100285904D01*
X141022066Y-100047809D01*
X140974447Y-99952571D01*
X140926828Y-99904952D01*
X140831590Y-99857333D01*
X140641114Y-99857333D01*
X140545876Y-99904952D01*
X140498257Y-99952571D01*
X140450638Y-100047809D01*
X138973085Y-109393028D02*
X139734990Y-109393028D01*
X139354038Y-109773980D02*
X139354038Y-109012076D01*
X140687371Y-108773980D02*
X140211180Y-108773980D01*
X140163561Y-109250171D01*
X140211180Y-109202552D01*
X140306419Y-109154933D01*
X140544514Y-109154933D01*
X140639752Y-109202552D01*
X140687371Y-109250171D01*
X140734990Y-109345409D01*
X140734990Y-109583504D01*
X140687371Y-109678742D01*
X140639752Y-109726361D01*
X140544514Y-109773980D01*
X140306419Y-109773980D01*
X140211180Y-109726361D01*
X140163561Y-109678742D01*
X141020704Y-108773980D02*
X141354038Y-109773980D01*
X141687371Y-108773980D01*
X147189180Y-93483866D02*
X146712990Y-93817200D01*
X147189180Y-94055295D02*
X146189180Y-94055295D01*
X146189180Y-93674342D01*
X146236800Y-93579104D01*
X146284419Y-93531485D01*
X146379657Y-93483866D01*
X146522514Y-93483866D01*
X146617752Y-93531485D01*
X146665371Y-93579104D01*
X146712990Y-93674342D01*
X146712990Y-94055295D01*
X146189180Y-92579104D02*
X146189180Y-93055295D01*
X146665371Y-93102914D01*
X146617752Y-93055295D01*
X146570133Y-92960057D01*
X146570133Y-92721961D01*
X146617752Y-92626723D01*
X146665371Y-92579104D01*
X146760609Y-92531485D01*
X146998704Y-92531485D01*
X147093942Y-92579104D01*
X147141561Y-92626723D01*
X147189180Y-92721961D01*
X147189180Y-92960057D01*
X147141561Y-93055295D01*
X147093942Y-93102914D01*
X118364095Y-111771180D02*
X118364095Y-112580704D01*
X118411714Y-112675942D01*
X118459333Y-112723561D01*
X118554571Y-112771180D01*
X118745047Y-112771180D01*
X118840285Y-112723561D01*
X118887904Y-112675942D01*
X118935523Y-112580704D01*
X118935523Y-111771180D01*
X119935523Y-112771180D02*
X119364095Y-112771180D01*
X119649809Y-112771180D02*
X119649809Y-111771180D01*
X119554571Y-111914038D01*
X119459333Y-112009276D01*
X119364095Y-112056895D01*
X159777180Y-98497923D02*
X160491466Y-98497923D01*
X160634323Y-98545542D01*
X160729561Y-98640780D01*
X160777180Y-98783638D01*
X160777180Y-98878876D01*
X160777180Y-97497923D02*
X160777180Y-98069352D01*
X160777180Y-97783638D02*
X159777180Y-97783638D01*
X159920038Y-97878876D01*
X160015276Y-97974114D01*
X160062895Y-98069352D01*
X160777180Y-96545542D02*
X160777180Y-97116971D01*
X160777180Y-96831257D02*
X159777180Y-96831257D01*
X159920038Y-96926495D01*
X160015276Y-97021733D01*
X160062895Y-97116971D01*
X168803580Y-99507561D02*
X168136914Y-99507561D01*
X167803580Y-99507561D02*
X167851200Y-99555180D01*
X167898819Y-99507561D01*
X167851200Y-99459942D01*
X167803580Y-99507561D01*
X167898819Y-99507561D01*
X167898819Y-99078990D02*
X167851200Y-99031371D01*
X167803580Y-98936133D01*
X167803580Y-98698038D01*
X167851200Y-98602800D01*
X167898819Y-98555180D01*
X167994057Y-98507561D01*
X168089295Y-98507561D01*
X168232152Y-98555180D01*
X168803580Y-99126609D01*
X168803580Y-98507561D01*
X168755961Y-97650419D02*
X168803580Y-97745657D01*
X168803580Y-97936133D01*
X168755961Y-98031371D01*
X168708342Y-98078990D01*
X168613104Y-98126609D01*
X168327390Y-98126609D01*
X168232152Y-98078990D01*
X168184533Y-98031371D01*
X168136914Y-97936133D01*
X168136914Y-97745657D01*
X168184533Y-97650419D01*
X159726380Y-82241923D02*
X160440666Y-82241923D01*
X160583523Y-82289542D01*
X160678761Y-82384780D01*
X160726380Y-82527638D01*
X160726380Y-82622876D01*
X160726380Y-81241923D02*
X160726380Y-81813352D01*
X160726380Y-81527638D02*
X159726380Y-81527638D01*
X159869238Y-81622876D01*
X159964476Y-81718114D01*
X160012095Y-81813352D01*
X159726380Y-80908590D02*
X159726380Y-80289542D01*
X160107333Y-80622876D01*
X160107333Y-80480019D01*
X160154952Y-80384780D01*
X160202571Y-80337161D01*
X160297809Y-80289542D01*
X160535904Y-80289542D01*
X160631142Y-80337161D01*
X160678761Y-80384780D01*
X160726380Y-80480019D01*
X160726380Y-80765733D01*
X160678761Y-80860971D01*
X160631142Y-80908590D01*
X168752780Y-85232761D02*
X168086114Y-85232761D01*
X167752780Y-85232761D02*
X167800400Y-85280380D01*
X167848019Y-85232761D01*
X167800400Y-85185142D01*
X167752780Y-85232761D01*
X167848019Y-85232761D01*
X167848019Y-84804190D02*
X167800400Y-84756571D01*
X167752780Y-84661333D01*
X167752780Y-84423238D01*
X167800400Y-84328000D01*
X167848019Y-84280380D01*
X167943257Y-84232761D01*
X168038495Y-84232761D01*
X168181352Y-84280380D01*
X168752780Y-84851809D01*
X168752780Y-84232761D01*
X168705161Y-83375619D02*
X168752780Y-83470857D01*
X168752780Y-83661333D01*
X168705161Y-83756571D01*
X168657542Y-83804190D01*
X168562304Y-83851809D01*
X168276590Y-83851809D01*
X168181352Y-83804190D01*
X168133733Y-83756571D01*
X168086114Y-83661333D01*
X168086114Y-83470857D01*
X168133733Y-83375619D01*
X126071333Y-100528380D02*
X125738000Y-100052190D01*
X125499904Y-100528380D02*
X125499904Y-99528380D01*
X125880857Y-99528380D01*
X125976095Y-99576000D01*
X126023714Y-99623619D01*
X126071333Y-99718857D01*
X126071333Y-99861714D01*
X126023714Y-99956952D01*
X125976095Y-100004571D01*
X125880857Y-100052190D01*
X125499904Y-100052190D01*
X126452285Y-99623619D02*
X126499904Y-99576000D01*
X126595142Y-99528380D01*
X126833238Y-99528380D01*
X126928476Y-99576000D01*
X126976095Y-99623619D01*
X127023714Y-99718857D01*
X127023714Y-99814095D01*
X126976095Y-99956952D01*
X126404666Y-100528380D01*
X127023714Y-100528380D01*
X112166666Y-77702380D02*
X112166666Y-78416666D01*
X112119047Y-78559523D01*
X112023809Y-78654761D01*
X111880952Y-78702380D01*
X111785714Y-78702380D01*
X113166666Y-78702380D02*
X112595238Y-78702380D01*
X112880952Y-78702380D02*
X112880952Y-77702380D01*
X112785714Y-77845238D01*
X112690476Y-77940476D01*
X112595238Y-77988095D01*
D11*
X131443464Y-104421000D02*
X130989336Y-104421000D01*
X131443464Y-105891000D02*
X130989336Y-105891000D01*
X128821548Y-87250600D02*
X129344052Y-87250600D01*
X128821548Y-88720600D02*
X129344052Y-88720600D01*
X152156200Y-112890400D02*
X152156200Y-107340400D01*
X157356200Y-111840400D02*
X156606200Y-111840400D01*
X157656200Y-101990400D02*
X157656200Y-100740400D01*
X156606200Y-110340400D02*
X157356200Y-110340400D01*
X157366200Y-113650400D02*
X157366200Y-101030400D01*
X152156200Y-101790400D02*
X152156200Y-107340400D01*
X155106200Y-101790400D02*
X152156200Y-101790400D01*
X156606200Y-113640400D02*
X157356200Y-113640400D01*
X156606200Y-104340400D02*
X156606200Y-110340400D01*
X157356200Y-113640400D02*
X157356200Y-111840400D01*
X157356200Y-110340400D02*
X157356200Y-104340400D01*
X155106200Y-113640400D02*
X155106200Y-112890400D01*
X155106200Y-101040400D02*
X155106200Y-101790400D01*
X157356200Y-102840400D02*
X157356200Y-101040400D01*
X156606200Y-102840400D02*
X157356200Y-102840400D01*
X151396200Y-113650400D02*
X157366200Y-113650400D01*
X157656200Y-100740400D02*
X156406200Y-100740400D01*
X156606200Y-101040400D02*
X156606200Y-102840400D01*
X151396200Y-101030400D02*
X151396200Y-113650400D01*
X156606200Y-111840400D02*
X156606200Y-113640400D01*
X157356200Y-104340400D02*
X156606200Y-104340400D01*
X157366200Y-101030400D02*
X151396200Y-101030400D01*
X155106200Y-112890400D02*
X152156200Y-112890400D01*
X157356200Y-101040400D02*
X156606200Y-101040400D01*
X148387400Y-124680400D02*
X159248400Y-124680400D01*
X159248400Y-117940400D02*
X159248400Y-124680400D01*
X148147400Y-124920400D02*
X148547400Y-124920400D01*
X148147400Y-124280400D02*
X148147400Y-124920400D01*
X148387400Y-117940400D02*
X148387400Y-124680400D01*
X148387400Y-124160400D02*
X159248400Y-124160400D01*
X148387400Y-119060400D02*
X159248400Y-119060400D01*
X148387400Y-117940400D02*
X159248400Y-117940400D01*
X139750800Y-91607200D02*
X138075800Y-91607200D01*
X139750800Y-94727200D02*
X140400800Y-94727200D01*
X139750800Y-91607200D02*
X140400800Y-91607200D01*
X139750800Y-94727200D02*
X139100800Y-94727200D01*
X149629864Y-89939800D02*
X149175736Y-89939800D01*
X149629864Y-88469800D02*
X149175736Y-88469800D01*
X116789800Y-100922400D02*
X116789800Y-107662400D01*
X116789800Y-107662400D02*
X127650800Y-107662400D01*
X116549800Y-107262400D02*
X116549800Y-107902400D01*
X127650800Y-100922400D02*
X127650800Y-107662400D01*
X116789800Y-107142400D02*
X127650800Y-107142400D01*
X116789800Y-102042400D02*
X127650800Y-102042400D01*
X116789800Y-100922400D02*
X127650800Y-100922400D01*
X116549800Y-107902400D02*
X116949800Y-107902400D01*
X136269464Y-89939800D02*
X135815336Y-89939800D01*
X136269464Y-88469800D02*
X135815336Y-88469800D01*
X122022200Y-117991200D02*
X122022200Y-124731200D01*
X122022200Y-124211200D02*
X132883200Y-124211200D01*
X121782200Y-124971200D02*
X122182200Y-124971200D01*
X121782200Y-124331200D02*
X121782200Y-124971200D01*
X122022200Y-124731200D02*
X132883200Y-124731200D01*
X122022200Y-119111200D02*
X132883200Y-119111200D01*
X132883200Y-117991200D02*
X132883200Y-124731200D01*
X122022200Y-117991200D02*
X132883200Y-117991200D01*
X143499064Y-88469800D02*
X143044936Y-88469800D01*
X143499064Y-89939800D02*
X143044936Y-89939800D01*
X126820664Y-111025000D02*
X126366536Y-111025000D01*
X126820664Y-112495000D02*
X126366536Y-112495000D01*
X165198400Y-106466800D02*
X165198400Y-107216800D01*
X161488400Y-106456800D02*
X161488400Y-119076800D01*
X166698400Y-115766800D02*
X167448400Y-115766800D01*
X167458400Y-119076800D02*
X167458400Y-106456800D01*
X162248400Y-107216800D02*
X162248400Y-112766800D01*
X167448400Y-115766800D02*
X167448400Y-109766800D01*
X161488400Y-119076800D02*
X167458400Y-119076800D01*
X167448400Y-106466800D02*
X166698400Y-106466800D01*
X167448400Y-117266800D02*
X166698400Y-117266800D01*
X165198400Y-107216800D02*
X162248400Y-107216800D01*
X167458400Y-106456800D02*
X161488400Y-106456800D01*
X167448400Y-108266800D02*
X167448400Y-106466800D01*
X166698400Y-119066800D02*
X167448400Y-119066800D01*
X166698400Y-109766800D02*
X166698400Y-115766800D01*
X167448400Y-109766800D02*
X166698400Y-109766800D01*
X166698400Y-108266800D02*
X167448400Y-108266800D01*
X162248400Y-118316800D02*
X162248400Y-112766800D01*
X166698400Y-106466800D02*
X166698400Y-108266800D01*
X167448400Y-119066800D02*
X167448400Y-117266800D01*
X165198400Y-119066800D02*
X165198400Y-118316800D01*
X166698400Y-117266800D02*
X166698400Y-119066800D01*
X167748400Y-106166800D02*
X166498400Y-106166800D01*
X165198400Y-118316800D02*
X162248400Y-118316800D01*
X167748400Y-107416800D02*
X167748400Y-106166800D01*
X117069200Y-97664763D02*
X117069200Y-97529200D01*
X118133637Y-94209200D02*
X121589200Y-94209200D01*
X116329200Y-94909200D02*
X116829200Y-94909200D01*
X117069200Y-95273637D02*
X118133637Y-94209200D01*
X117069200Y-97664763D02*
X118133637Y-98729200D01*
X121589200Y-98729200D02*
X121589200Y-97529200D01*
X118133637Y-98729200D02*
X121589200Y-98729200D01*
X121589200Y-94209200D02*
X121589200Y-95409200D01*
X116579200Y-94659200D02*
X116579200Y-95159200D01*
X117069200Y-95273637D02*
X117069200Y-95409200D01*
X146446800Y-117991200D02*
X146446800Y-124731200D01*
X135585800Y-117991200D02*
X135585800Y-124731200D01*
X135585800Y-119111200D02*
X146446800Y-119111200D01*
X135585800Y-117991200D02*
X146446800Y-117991200D01*
X135345800Y-124971200D02*
X135745800Y-124971200D01*
X135345800Y-124331200D02*
X135345800Y-124971200D01*
X135585800Y-124211200D02*
X146446800Y-124211200D01*
X135585800Y-124731200D02*
X146446800Y-124731200D01*
X130955148Y-103401800D02*
X131477652Y-103401800D01*
X130955148Y-101931800D02*
X131477652Y-101931800D01*
X139306400Y-85569600D02*
X139306400Y-86169600D01*
X138366400Y-85569600D02*
X136766400Y-85569600D01*
X140906400Y-85569600D02*
X139306400Y-85569600D01*
X133646400Y-86169600D02*
X144026400Y-86169600D01*
X135826400Y-86169600D02*
X135826400Y-85569600D01*
X135826400Y-85569600D02*
X134226400Y-85569600D01*
X136766400Y-85569600D02*
X136766400Y-86169600D01*
X144316400Y-85139600D02*
X144316400Y-81139600D01*
X135026400Y-81149600D02*
X135026400Y-80149600D01*
X143446400Y-86169600D02*
X143446400Y-85569600D01*
X133646400Y-80149600D02*
X133646400Y-86169600D01*
X142646400Y-80149600D02*
X142646400Y-81149600D01*
X135276400Y-81679600D02*
X135026400Y-81149600D01*
X138366400Y-86169600D02*
X138366400Y-85569600D01*
X142646400Y-81149600D02*
X135026400Y-81149600D01*
X142646400Y-81149600D02*
X142396400Y-81679600D01*
X134226400Y-85569600D02*
X134226400Y-86169600D01*
X140906400Y-86169600D02*
X140906400Y-85569600D01*
X142396400Y-80149600D02*
X142396400Y-81149600D01*
X144026400Y-80149600D02*
X133646400Y-80149600D01*
X143446400Y-85569600D02*
X141846400Y-85569600D01*
X144026400Y-86169600D02*
X144026400Y-80149600D01*
X141846400Y-85569600D02*
X141846400Y-86169600D01*
X142396400Y-81679600D02*
X135276400Y-81679600D01*
X135276400Y-80149600D02*
X135276400Y-81149600D01*
X126346852Y-96696200D02*
X125824348Y-96696200D01*
X126346852Y-95226200D02*
X125824348Y-95226200D01*
X107624400Y-81341000D02*
X109424400Y-81341000D01*
X117734400Y-86551000D02*
X117734400Y-80581000D01*
X115924400Y-81341000D02*
X117724400Y-81341000D01*
X114424400Y-81341000D02*
X114424400Y-80591000D01*
X110924400Y-81341000D02*
X114424400Y-81341000D01*
X117734400Y-80581000D02*
X107614400Y-80581000D01*
X108374400Y-82841000D02*
X108374400Y-85791000D01*
X107324400Y-80291000D02*
X107324400Y-81541000D01*
X117724400Y-80591000D02*
X115924400Y-80591000D01*
X115924400Y-80591000D02*
X115924400Y-81341000D01*
X108374400Y-85791000D02*
X112674400Y-85791000D01*
X107614400Y-80581000D02*
X107614400Y-86551000D01*
X107624400Y-82841000D02*
X108374400Y-82841000D01*
X108574400Y-80291000D02*
X107324400Y-80291000D01*
X114424400Y-80591000D02*
X110924400Y-80591000D01*
X107614400Y-86551000D02*
X117734400Y-86551000D01*
X116974400Y-82841000D02*
X116974400Y-85791000D01*
X110924400Y-80591000D02*
X110924400Y-81341000D01*
X109424400Y-81341000D02*
X109424400Y-80591000D01*
X117724400Y-82841000D02*
X116974400Y-82841000D01*
X109424400Y-80591000D02*
X107624400Y-80591000D01*
X117724400Y-81341000D02*
X117724400Y-80591000D01*
X116974400Y-85791000D02*
X112674400Y-85791000D01*
X107624400Y-80591000D02*
X107624400Y-81341000D01*
X107018400Y-114142000D02*
X107018400Y-100742000D01*
X113758400Y-114142000D02*
X113758400Y-100742000D01*
X113998400Y-114382000D02*
X113998400Y-113982000D01*
X107018400Y-114142000D02*
X113758400Y-114142000D01*
X113358400Y-114382000D02*
X113998400Y-114382000D01*
X107018400Y-100742000D02*
X113758400Y-100742000D01*
X113238400Y-114142000D02*
X113238400Y-100742000D01*
X108138400Y-114142000D02*
X108138400Y-100742000D01*
X122705864Y-109297800D02*
X122251736Y-109297800D01*
X122705864Y-110767800D02*
X122251736Y-110767800D01*
X106967600Y-97682800D02*
X113707600Y-97682800D01*
X106967600Y-91902800D02*
X113707600Y-91902800D01*
X113947600Y-97922800D02*
X113947600Y-97522800D01*
X113307600Y-97922800D02*
X113947600Y-97922800D01*
X113707600Y-97682800D02*
X113707600Y-91902800D01*
X106967600Y-97682800D02*
X106967600Y-91902800D01*
X113187600Y-97682800D02*
X113187600Y-91902800D01*
X108087600Y-97682800D02*
X108087600Y-91902800D01*
X113848400Y-117991200D02*
X119628400Y-117991200D01*
X113848400Y-124731200D02*
X119628400Y-124731200D01*
X113608400Y-124971200D02*
X114008400Y-124971200D01*
X113848400Y-117991200D02*
X113848400Y-124731200D01*
X113848400Y-124211200D02*
X119628400Y-124211200D01*
X113608400Y-124331200D02*
X113608400Y-124971200D01*
X119628400Y-117991200D02*
X119628400Y-124731200D01*
X113848400Y-119111200D02*
X119628400Y-119111200D01*
X119639600Y-79738800D02*
X119639600Y-86478800D01*
X119399600Y-86718800D02*
X119799600Y-86718800D01*
X119399600Y-86078800D02*
X119399600Y-86718800D01*
X119639600Y-79738800D02*
X127959600Y-79738800D01*
X127959600Y-79738800D02*
X127959600Y-86478800D01*
X119639600Y-85958800D02*
X127959600Y-85958800D01*
X119639600Y-86478800D02*
X127959600Y-86478800D01*
X119639600Y-80858800D02*
X127959600Y-80858800D01*
X152857200Y-94727200D02*
X152207200Y-94727200D01*
X152857200Y-91607200D02*
X151182200Y-91607200D01*
X152857200Y-91607200D02*
X153507200Y-91607200D01*
X152857200Y-94727200D02*
X153507200Y-94727200D01*
X123923248Y-116813000D02*
X124445752Y-116813000D01*
X123923248Y-115343000D02*
X124445752Y-115343000D01*
X155471864Y-89939800D02*
X155017736Y-89939800D01*
X155471864Y-88469800D02*
X155017736Y-88469800D01*
X156756000Y-85569600D02*
X155156000Y-85569600D01*
X155956000Y-81149600D02*
X155706000Y-81679600D01*
X150076000Y-85569600D02*
X150076000Y-86169600D01*
X146956000Y-86169600D02*
X157336000Y-86169600D01*
X156756000Y-86169600D02*
X156756000Y-85569600D01*
X148586000Y-80149600D02*
X148586000Y-81149600D01*
X146956000Y-80149600D02*
X146956000Y-86169600D01*
X152616000Y-85569600D02*
X152616000Y-86169600D01*
X148586000Y-81679600D02*
X148336000Y-81149600D01*
X155956000Y-81149600D02*
X148336000Y-81149600D01*
X155156000Y-85569600D02*
X155156000Y-86169600D01*
X157626000Y-85139600D02*
X157626000Y-81139600D01*
X154216000Y-86169600D02*
X154216000Y-85569600D01*
X148336000Y-81149600D02*
X148336000Y-80149600D01*
X151676000Y-85569600D02*
X150076000Y-85569600D01*
X155706000Y-80149600D02*
X155706000Y-81149600D01*
X149136000Y-86169600D02*
X149136000Y-85569600D01*
X147536000Y-85569600D02*
X147536000Y-86169600D01*
X155956000Y-80149600D02*
X155956000Y-81149600D01*
X157336000Y-86169600D02*
X157336000Y-80149600D01*
X154216000Y-85569600D02*
X152616000Y-85569600D01*
X151676000Y-86169600D02*
X151676000Y-85569600D01*
X157336000Y-80149600D02*
X146956000Y-80149600D01*
X155706000Y-81679600D02*
X148586000Y-81679600D01*
X149136000Y-85569600D02*
X147536000Y-85569600D01*
X121893064Y-88774600D02*
X121438936Y-88774600D01*
X121893064Y-90244600D02*
X121438936Y-90244600D01*
X134494600Y-93544264D02*
X134494600Y-93090136D01*
X135964600Y-93544264D02*
X135964600Y-93090136D01*
X134685400Y-108004000D02*
X135085400Y-108004000D01*
X134925400Y-102144000D02*
X145786400Y-102144000D01*
X134925400Y-101024000D02*
X134925400Y-107764000D01*
X134925400Y-101024000D02*
X145786400Y-101024000D01*
X134925400Y-107764000D02*
X145786400Y-107764000D01*
X134685400Y-107364000D02*
X134685400Y-108004000D01*
X134925400Y-107244000D02*
X145786400Y-107244000D01*
X145786400Y-101024000D02*
X145786400Y-107764000D01*
X149121800Y-93544264D02*
X149121800Y-93090136D01*
X147651800Y-93544264D02*
X147651800Y-93090136D01*
X122428000Y-111622400D02*
X120628000Y-111622400D01*
X122428000Y-114742400D02*
X121628000Y-114742400D01*
X122428000Y-111622400D02*
X123228000Y-111622400D01*
X122428000Y-114742400D02*
X123228000Y-114742400D01*
X167448400Y-104893600D02*
X167448400Y-103093600D01*
X166698400Y-92293600D02*
X166698400Y-94093600D01*
X165198400Y-104893600D02*
X165198400Y-104143600D01*
X167748400Y-91993600D02*
X166498400Y-91993600D01*
X166698400Y-95593600D02*
X166698400Y-101593600D01*
X167748400Y-93243600D02*
X167748400Y-91993600D01*
X165198400Y-93043600D02*
X162248400Y-93043600D01*
X165198400Y-104143600D02*
X162248400Y-104143600D01*
X165198400Y-92293600D02*
X165198400Y-93043600D01*
X166698400Y-104893600D02*
X167448400Y-104893600D01*
X167448400Y-95593600D02*
X166698400Y-95593600D01*
X161488400Y-92283600D02*
X161488400Y-104903600D01*
X162248400Y-93043600D02*
X162248400Y-98593600D01*
X166698400Y-101593600D02*
X167448400Y-101593600D01*
X167448400Y-92293600D02*
X166698400Y-92293600D01*
X166698400Y-103093600D02*
X166698400Y-104893600D01*
X166698400Y-94093600D02*
X167448400Y-94093600D01*
X167458400Y-92283600D02*
X161488400Y-92283600D01*
X162248400Y-104143600D02*
X162248400Y-98593600D01*
X167448400Y-103093600D02*
X166698400Y-103093600D01*
X167448400Y-101593600D02*
X167448400Y-95593600D01*
X167448400Y-94093600D02*
X167448400Y-92293600D01*
X167458400Y-104903600D02*
X167458400Y-92283600D01*
X161488400Y-104903600D02*
X167458400Y-104903600D01*
X166698400Y-87674400D02*
X167448400Y-87674400D01*
X167448400Y-78374400D02*
X166698400Y-78374400D01*
X166698400Y-80174400D02*
X167448400Y-80174400D01*
X166698400Y-90974400D02*
X167448400Y-90974400D01*
X166698400Y-89174400D02*
X166698400Y-90974400D01*
X165198400Y-78374400D02*
X165198400Y-79124400D01*
X161488400Y-78364400D02*
X161488400Y-90984400D01*
X166698400Y-81674400D02*
X166698400Y-87674400D01*
X167448400Y-90974400D02*
X167448400Y-89174400D01*
X165198400Y-90974400D02*
X165198400Y-90224400D01*
X165198400Y-90224400D02*
X162248400Y-90224400D01*
X161488400Y-90984400D02*
X167458400Y-90984400D01*
X162248400Y-79124400D02*
X162248400Y-84674400D01*
X167448400Y-89174400D02*
X166698400Y-89174400D01*
X167448400Y-81674400D02*
X166698400Y-81674400D01*
X167748400Y-79324400D02*
X167748400Y-78074400D01*
X166698400Y-78374400D02*
X166698400Y-80174400D01*
X165198400Y-79124400D02*
X162248400Y-79124400D01*
X167748400Y-78074400D02*
X166498400Y-78074400D01*
X167458400Y-78364400D02*
X161488400Y-78364400D01*
X167448400Y-80174400D02*
X167448400Y-78374400D01*
X167448400Y-87674400D02*
X167448400Y-81674400D01*
X162248400Y-90224400D02*
X162248400Y-84674400D01*
X167458400Y-90984400D02*
X167458400Y-78364400D01*
X125874536Y-99083800D02*
X126328664Y-99083800D01*
X125874536Y-97613800D02*
X126328664Y-97613800D01*
%LPC*%
D12*
X166000000Y-74250000D03*
X166000000Y-123250000D03*
X108000000Y-123250000D03*
X108000000Y-74250000D03*
D13*
X132216400Y-105156000D03*
X130216400Y-105156000D03*
D14*
X128045300Y-87985600D03*
X130120300Y-87985600D03*
D15*
X154906200Y-103590400D03*
D16*
X154906200Y-106090400D03*
X154906200Y-108590400D03*
X154906200Y-111090400D03*
D17*
X150007400Y-121310400D03*
D18*
X152547400Y-121310400D03*
X155087400Y-121310400D03*
X157627400Y-121310400D03*
D19*
X138813300Y-92217200D03*
X138813300Y-94117200D03*
X140688300Y-93167200D03*
D13*
X150402800Y-89204800D03*
X148402800Y-89204800D03*
D17*
X118409800Y-104292400D03*
D18*
X120949800Y-104292400D03*
X123489800Y-104292400D03*
X126029800Y-104292400D03*
D13*
X137042400Y-89204800D03*
X135042400Y-89204800D03*
D17*
X123642200Y-121361200D03*
D18*
X126182200Y-121361200D03*
X128722200Y-121361200D03*
X131262200Y-121361200D03*
D13*
X144272000Y-89204800D03*
X142272000Y-89204800D03*
X127593600Y-111760000D03*
X125593600Y-111760000D03*
D15*
X164998400Y-109016800D03*
D16*
X164998400Y-111516800D03*
X164998400Y-114016800D03*
X164998400Y-116516800D03*
D20*
X117529200Y-96469200D03*
X121129200Y-96469200D03*
D17*
X137205800Y-121361200D03*
D18*
X139745800Y-121361200D03*
X142285800Y-121361200D03*
X144825800Y-121361200D03*
D14*
X130178900Y-102666800D03*
X132253900Y-102666800D03*
D21*
X142646400Y-83139600D03*
D22*
X140106400Y-83139600D03*
X137566400Y-83139600D03*
X135026400Y-83139600D03*
D23*
X127123100Y-95961200D03*
X125048100Y-95961200D03*
D24*
X110174400Y-83041000D03*
D25*
X112674400Y-83041000D03*
X115174400Y-83041000D03*
D17*
X110388400Y-112522000D03*
D18*
X110388400Y-109982000D03*
X110388400Y-107442000D03*
X110388400Y-104902000D03*
X110388400Y-102362000D03*
D13*
X123478800Y-110032800D03*
X121478800Y-110032800D03*
D17*
X110337600Y-96062800D03*
D18*
X110337600Y-93522800D03*
D17*
X115468400Y-121361200D03*
D18*
X118008400Y-121361200D03*
D17*
X121259600Y-83108800D03*
D18*
X123799600Y-83108800D03*
X126339600Y-83108800D03*
D19*
X151919700Y-92217200D03*
X151919700Y-94117200D03*
X153794700Y-93167200D03*
D14*
X123147000Y-116078000D03*
X125222000Y-116078000D03*
D13*
X156244800Y-89204800D03*
X154244800Y-89204800D03*
D21*
X155956000Y-83139600D03*
D22*
X153416000Y-83139600D03*
X150876000Y-83139600D03*
X148336000Y-83139600D03*
D13*
X122666000Y-89509600D03*
X120666000Y-89509600D03*
D26*
X135229600Y-94317200D03*
X135229600Y-92317200D03*
D17*
X136545400Y-104394000D03*
D18*
X139085400Y-104394000D03*
X141625400Y-104394000D03*
X144165400Y-104394000D03*
D26*
X148386800Y-94317200D03*
X148386800Y-92317200D03*
D27*
X121290500Y-112232400D03*
X121290500Y-113182400D03*
X121290500Y-114132400D03*
X123565500Y-114132400D03*
X123565500Y-113182400D03*
X123565500Y-112232400D03*
D15*
X164998400Y-94843600D03*
D16*
X164998400Y-97343600D03*
X164998400Y-99843600D03*
X164998400Y-102343600D03*
D15*
X164998400Y-80924400D03*
D16*
X164998400Y-83424400D03*
X164998400Y-85924400D03*
X164998400Y-88424400D03*
D28*
X125101600Y-98348800D03*
X127101600Y-98348800D03*
D29*
X112800000Y-75550000D03*
D30*
X112800000Y-73010000D03*
X115340000Y-75550000D03*
X115340000Y-73010000D03*
X117880000Y-75550000D03*
X117880000Y-73010000D03*
X120420000Y-75550000D03*
X120420000Y-73010000D03*
X122960000Y-75550000D03*
X122960000Y-73010000D03*
X125500000Y-75550000D03*
X125500000Y-73010000D03*
X128040000Y-75550000D03*
X128040000Y-73010000D03*
X130580000Y-75550000D03*
X130580000Y-73010000D03*
X133120000Y-75550000D03*
X133120000Y-73010000D03*
X135660000Y-75550000D03*
X135660000Y-73010000D03*
X138200000Y-75550000D03*
X138200000Y-73010000D03*
X140740000Y-75550000D03*
X140740000Y-73010000D03*
X143280000Y-75550000D03*
X143280000Y-73010000D03*
X145820000Y-75550000D03*
X145820000Y-73010000D03*
X148360000Y-75550000D03*
X148360000Y-73010000D03*
X150900000Y-75550000D03*
X150900000Y-73010000D03*
X153440000Y-75550000D03*
X153440000Y-73010000D03*
X155980000Y-75550000D03*
X155980000Y-73010000D03*
X158520000Y-75550000D03*
X158520000Y-73010000D03*
X161060000Y-75550000D03*
X161060000Y-73010000D03*
M02*
