%FSLAX45Y45*%
G04 Gerber Fmt 4.5, Leading zero omitted, Abs format (unit mm)*
G04 Created by KiCad (PCBNEW (6.0.1)) date 2022-03-16 15:36:33*
%MOMM*%
%LPD*%
G01*
G04 APERTURE LIST*
%TA.AperFunction,Profile*%
%ADD10C,0.200000*%
%TD*%
%ADD11C,0.200000*%
%ADD12C,0.270000*%
G04 APERTURE END LIST*
D10*
X16950000Y-7375000D02*
G75*
G03*
X16650000Y-7075000I-300000J0D01*
G01*
X10750000Y-7075000D02*
G75*
G03*
X10450000Y-7375000I0J-300000D01*
G01*
X16650000Y-7075000D02*
X10750000Y-7075000D01*
X10450000Y-7375000D02*
X10450000Y-12375000D01*
X10750000Y-12675000D02*
X16650000Y-12675000D01*
X10450000Y-12375000D02*
G75*
G03*
X10750000Y-12675000I300000J0D01*
G01*
X16950000Y-7375000D02*
X16950000Y-12375000D01*
X16650000Y-12675000D02*
G75*
G03*
X16950000Y-12375000I0J300000D01*
G01*
D11*
D12*
X10665000Y-7290000D02*
X10935000Y-7560000D01*
X10935000Y-7290000D02*
X10665000Y-7560000D01*
X10665000Y-12190000D02*
X10935000Y-12460000D01*
X10935000Y-12190000D02*
X10665000Y-12460000D01*
X16465000Y-7290000D02*
X16735000Y-7560000D01*
X16735000Y-7290000D02*
X16465000Y-7560000D01*
X16465000Y-12190000D02*
X16735000Y-12460000D01*
X16735000Y-12190000D02*
X16465000Y-12460000D01*
D11*
X10697619Y-12995476D02*
X10697619Y-12795476D01*
X10745238Y-12795476D01*
X10773810Y-12805000D01*
X10792857Y-12824048D01*
X10802381Y-12843095D01*
X10811905Y-12881190D01*
X10811905Y-12909762D01*
X10802381Y-12947857D01*
X10792857Y-12966905D01*
X10773810Y-12985952D01*
X10745238Y-12995476D01*
X10697619Y-12995476D01*
X10897619Y-12995476D02*
X10897619Y-12862143D01*
X10897619Y-12900238D02*
X10907143Y-12881190D01*
X10916667Y-12871667D01*
X10935714Y-12862143D01*
X10954762Y-12862143D01*
X11021429Y-12995476D02*
X11021429Y-12862143D01*
X11021429Y-12795476D02*
X11011905Y-12805000D01*
X11021429Y-12814524D01*
X11030952Y-12805000D01*
X11021429Y-12795476D01*
X11021429Y-12814524D01*
X11145238Y-12995476D02*
X11126190Y-12985952D01*
X11116667Y-12966905D01*
X11116667Y-12795476D01*
X11250000Y-12995476D02*
X11230952Y-12985952D01*
X11221428Y-12966905D01*
X11221428Y-12795476D01*
X11478571Y-12995476D02*
X11478571Y-12795476D01*
X11545238Y-12938333D01*
X11611905Y-12795476D01*
X11611905Y-12995476D01*
X11792857Y-12995476D02*
X11792857Y-12890714D01*
X11783333Y-12871667D01*
X11764286Y-12862143D01*
X11726190Y-12862143D01*
X11707143Y-12871667D01*
X11792857Y-12985952D02*
X11773809Y-12995476D01*
X11726190Y-12995476D01*
X11707143Y-12985952D01*
X11697619Y-12966905D01*
X11697619Y-12947857D01*
X11707143Y-12928809D01*
X11726190Y-12919286D01*
X11773809Y-12919286D01*
X11792857Y-12909762D01*
X11888095Y-12862143D02*
X11888095Y-13062143D01*
X11888095Y-12871667D02*
X11907143Y-12862143D01*
X11945238Y-12862143D01*
X11964286Y-12871667D01*
X11973809Y-12881190D01*
X11983333Y-12900238D01*
X11983333Y-12957381D01*
X11973809Y-12976428D01*
X11964286Y-12985952D01*
X11945238Y-12995476D01*
X11907143Y-12995476D01*
X11888095Y-12985952D01*
X12069048Y-12976428D02*
X12078571Y-12985952D01*
X12069048Y-12995476D01*
X12059524Y-12985952D01*
X12069048Y-12976428D01*
X12069048Y-12995476D01*
X12069048Y-12871667D02*
X12078571Y-12881190D01*
X12069048Y-12890714D01*
X12059524Y-12881190D01*
X12069048Y-12871667D01*
X12069048Y-12890714D01*
X10240000Y-13225000D02*
X10440000Y-13425000D01*
X10440000Y-13225000D02*
X10240000Y-13425000D01*
X10688095Y-13234524D02*
X10697619Y-13225000D01*
X10716667Y-13215476D01*
X10764286Y-13215476D01*
X10783333Y-13225000D01*
X10792857Y-13234524D01*
X10802381Y-13253571D01*
X10802381Y-13272619D01*
X10792857Y-13301190D01*
X10678571Y-13415476D01*
X10802381Y-13415476D01*
X10888095Y-13396428D02*
X10897619Y-13405952D01*
X10888095Y-13415476D01*
X10878571Y-13405952D01*
X10888095Y-13396428D01*
X10888095Y-13415476D01*
X10964286Y-13215476D02*
X11097619Y-13215476D01*
X11011905Y-13415476D01*
X11211905Y-13215476D02*
X11230952Y-13215476D01*
X11250000Y-13225000D01*
X11259524Y-13234524D01*
X11269048Y-13253571D01*
X11278571Y-13291667D01*
X11278571Y-13339286D01*
X11269048Y-13377381D01*
X11259524Y-13396428D01*
X11250000Y-13405952D01*
X11230952Y-13415476D01*
X11211905Y-13415476D01*
X11192857Y-13405952D01*
X11183333Y-13396428D01*
X11173810Y-13377381D01*
X11164286Y-13339286D01*
X11164286Y-13291667D01*
X11173810Y-13253571D01*
X11183333Y-13234524D01*
X11192857Y-13225000D01*
X11211905Y-13215476D01*
X11402381Y-13215476D02*
X11421428Y-13215476D01*
X11440476Y-13225000D01*
X11450000Y-13234524D01*
X11459524Y-13253571D01*
X11469048Y-13291667D01*
X11469048Y-13339286D01*
X11459524Y-13377381D01*
X11450000Y-13396428D01*
X11440476Y-13405952D01*
X11421428Y-13415476D01*
X11402381Y-13415476D01*
X11383333Y-13405952D01*
X11373809Y-13396428D01*
X11364286Y-13377381D01*
X11354762Y-13339286D01*
X11354762Y-13291667D01*
X11364286Y-13253571D01*
X11373809Y-13234524D01*
X11383333Y-13225000D01*
X11402381Y-13215476D01*
X11554762Y-13415476D02*
X11554762Y-13282143D01*
X11554762Y-13301190D02*
X11564286Y-13291667D01*
X11583333Y-13282143D01*
X11611905Y-13282143D01*
X11630952Y-13291667D01*
X11640476Y-13310714D01*
X11640476Y-13415476D01*
X11640476Y-13310714D02*
X11650000Y-13291667D01*
X11669048Y-13282143D01*
X11697619Y-13282143D01*
X11716667Y-13291667D01*
X11726190Y-13310714D01*
X11726190Y-13415476D01*
X11821428Y-13415476D02*
X11821428Y-13282143D01*
X11821428Y-13301190D02*
X11830952Y-13291667D01*
X11850000Y-13282143D01*
X11878571Y-13282143D01*
X11897619Y-13291667D01*
X11907143Y-13310714D01*
X11907143Y-13415476D01*
X11907143Y-13310714D02*
X11916667Y-13291667D01*
X11935714Y-13282143D01*
X11964286Y-13282143D01*
X11983333Y-13291667D01*
X11992857Y-13310714D01*
X11992857Y-13415476D01*
X12383333Y-13205952D02*
X12211905Y-13463095D01*
X12640476Y-13215476D02*
X12659524Y-13215476D01*
X12678571Y-13225000D01*
X12688095Y-13234524D01*
X12697619Y-13253571D01*
X12707143Y-13291667D01*
X12707143Y-13339286D01*
X12697619Y-13377381D01*
X12688095Y-13396428D01*
X12678571Y-13405952D01*
X12659524Y-13415476D01*
X12640476Y-13415476D01*
X12621428Y-13405952D01*
X12611905Y-13396428D01*
X12602381Y-13377381D01*
X12592857Y-13339286D01*
X12592857Y-13291667D01*
X12602381Y-13253571D01*
X12611905Y-13234524D01*
X12621428Y-13225000D01*
X12640476Y-13215476D01*
X12792857Y-13396428D02*
X12802381Y-13405952D01*
X12792857Y-13415476D01*
X12783333Y-13405952D01*
X12792857Y-13396428D01*
X12792857Y-13415476D01*
X12992857Y-13415476D02*
X12878571Y-13415476D01*
X12935714Y-13415476D02*
X12935714Y-13215476D01*
X12916667Y-13244048D01*
X12897619Y-13263095D01*
X12878571Y-13272619D01*
X13116667Y-13215476D02*
X13135714Y-13215476D01*
X13154762Y-13225000D01*
X13164286Y-13234524D01*
X13173809Y-13253571D01*
X13183333Y-13291667D01*
X13183333Y-13339286D01*
X13173809Y-13377381D01*
X13164286Y-13396428D01*
X13154762Y-13405952D01*
X13135714Y-13415476D01*
X13116667Y-13415476D01*
X13097619Y-13405952D01*
X13088095Y-13396428D01*
X13078571Y-13377381D01*
X13069048Y-13339286D01*
X13069048Y-13291667D01*
X13078571Y-13253571D01*
X13088095Y-13234524D01*
X13097619Y-13225000D01*
X13116667Y-13215476D01*
X13354762Y-13215476D02*
X13316667Y-13215476D01*
X13297619Y-13225000D01*
X13288095Y-13234524D01*
X13269048Y-13263095D01*
X13259524Y-13301190D01*
X13259524Y-13377381D01*
X13269048Y-13396428D01*
X13278571Y-13405952D01*
X13297619Y-13415476D01*
X13335714Y-13415476D01*
X13354762Y-13405952D01*
X13364286Y-13396428D01*
X13373809Y-13377381D01*
X13373809Y-13329762D01*
X13364286Y-13310714D01*
X13354762Y-13301190D01*
X13335714Y-13291667D01*
X13297619Y-13291667D01*
X13278571Y-13301190D01*
X13269048Y-13310714D01*
X13259524Y-13329762D01*
X13440476Y-13215476D02*
X13564286Y-13215476D01*
X13497619Y-13291667D01*
X13526190Y-13291667D01*
X13545238Y-13301190D01*
X13554762Y-13310714D01*
X13564286Y-13329762D01*
X13564286Y-13377381D01*
X13554762Y-13396428D01*
X13545238Y-13405952D01*
X13526190Y-13415476D01*
X13469048Y-13415476D01*
X13450000Y-13405952D01*
X13440476Y-13396428D01*
X13640476Y-13215476D02*
X13640476Y-13253571D01*
X13716667Y-13215476D02*
X13716667Y-13253571D01*
X14011905Y-13491667D02*
X14002381Y-13482143D01*
X13983333Y-13453571D01*
X13973809Y-13434524D01*
X13964286Y-13405952D01*
X13954762Y-13358333D01*
X13954762Y-13320238D01*
X13964286Y-13272619D01*
X13973809Y-13244048D01*
X13983333Y-13225000D01*
X14002381Y-13196428D01*
X14011905Y-13186905D01*
X14173809Y-13282143D02*
X14173809Y-13415476D01*
X14126190Y-13205952D02*
X14078571Y-13348809D01*
X14202381Y-13348809D01*
X14430952Y-13415476D02*
X14430952Y-13215476D01*
X14516667Y-13415476D02*
X14516667Y-13310714D01*
X14507143Y-13291667D01*
X14488095Y-13282143D01*
X14459524Y-13282143D01*
X14440476Y-13291667D01*
X14430952Y-13301190D01*
X14640476Y-13415476D02*
X14621428Y-13405952D01*
X14611905Y-13396428D01*
X14602381Y-13377381D01*
X14602381Y-13320238D01*
X14611905Y-13301190D01*
X14621428Y-13291667D01*
X14640476Y-13282143D01*
X14669048Y-13282143D01*
X14688095Y-13291667D01*
X14697619Y-13301190D01*
X14707143Y-13320238D01*
X14707143Y-13377381D01*
X14697619Y-13396428D01*
X14688095Y-13405952D01*
X14669048Y-13415476D01*
X14640476Y-13415476D01*
X14821428Y-13415476D02*
X14802381Y-13405952D01*
X14792857Y-13386905D01*
X14792857Y-13215476D01*
X14973809Y-13405952D02*
X14954762Y-13415476D01*
X14916667Y-13415476D01*
X14897619Y-13405952D01*
X14888095Y-13386905D01*
X14888095Y-13310714D01*
X14897619Y-13291667D01*
X14916667Y-13282143D01*
X14954762Y-13282143D01*
X14973809Y-13291667D01*
X14983333Y-13310714D01*
X14983333Y-13329762D01*
X14888095Y-13348809D01*
X15059524Y-13405952D02*
X15078571Y-13415476D01*
X15116667Y-13415476D01*
X15135714Y-13405952D01*
X15145238Y-13386905D01*
X15145238Y-13377381D01*
X15135714Y-13358333D01*
X15116667Y-13348809D01*
X15088095Y-13348809D01*
X15069048Y-13339286D01*
X15059524Y-13320238D01*
X15059524Y-13310714D01*
X15069048Y-13291667D01*
X15088095Y-13282143D01*
X15116667Y-13282143D01*
X15135714Y-13291667D01*
X15211905Y-13491667D02*
X15221428Y-13482143D01*
X15240476Y-13453571D01*
X15250000Y-13434524D01*
X15259524Y-13405952D01*
X15269048Y-13358333D01*
X15269048Y-13320238D01*
X15259524Y-13272619D01*
X15250000Y-13244048D01*
X15240476Y-13225000D01*
X15221428Y-13196428D01*
X15211905Y-13186905D01*
X15573809Y-13491667D02*
X15564286Y-13482143D01*
X15545238Y-13453571D01*
X15535714Y-13434524D01*
X15526190Y-13405952D01*
X15516667Y-13358333D01*
X15516667Y-13320238D01*
X15526190Y-13272619D01*
X15535714Y-13244048D01*
X15545238Y-13225000D01*
X15564286Y-13196428D01*
X15573809Y-13186905D01*
X15650000Y-13282143D02*
X15650000Y-13415476D01*
X15650000Y-13301190D02*
X15659524Y-13291667D01*
X15678571Y-13282143D01*
X15707143Y-13282143D01*
X15726190Y-13291667D01*
X15735714Y-13310714D01*
X15735714Y-13415476D01*
X15859524Y-13415476D02*
X15840476Y-13405952D01*
X15830952Y-13396428D01*
X15821428Y-13377381D01*
X15821428Y-13320238D01*
X15830952Y-13301190D01*
X15840476Y-13291667D01*
X15859524Y-13282143D01*
X15888095Y-13282143D01*
X15907143Y-13291667D01*
X15916667Y-13301190D01*
X15926190Y-13320238D01*
X15926190Y-13377381D01*
X15916667Y-13396428D01*
X15907143Y-13405952D01*
X15888095Y-13415476D01*
X15859524Y-13415476D01*
X15983333Y-13282143D02*
X16059524Y-13282143D01*
X16011905Y-13215476D02*
X16011905Y-13386905D01*
X16021428Y-13405952D01*
X16040476Y-13415476D01*
X16059524Y-13415476D01*
X16278571Y-13282143D02*
X16278571Y-13482143D01*
X16278571Y-13291667D02*
X16297619Y-13282143D01*
X16335714Y-13282143D01*
X16354762Y-13291667D01*
X16364286Y-13301190D01*
X16373809Y-13320238D01*
X16373809Y-13377381D01*
X16364286Y-13396428D01*
X16354762Y-13405952D01*
X16335714Y-13415476D01*
X16297619Y-13415476D01*
X16278571Y-13405952D01*
X16488095Y-13415476D02*
X16469048Y-13405952D01*
X16459524Y-13386905D01*
X16459524Y-13215476D01*
X16650000Y-13415476D02*
X16650000Y-13310714D01*
X16640476Y-13291667D01*
X16621428Y-13282143D01*
X16583333Y-13282143D01*
X16564286Y-13291667D01*
X16650000Y-13405952D02*
X16630952Y-13415476D01*
X16583333Y-13415476D01*
X16564286Y-13405952D01*
X16554762Y-13386905D01*
X16554762Y-13367857D01*
X16564286Y-13348809D01*
X16583333Y-13339286D01*
X16630952Y-13339286D01*
X16650000Y-13329762D01*
X16716667Y-13282143D02*
X16792857Y-13282143D01*
X16745238Y-13215476D02*
X16745238Y-13386905D01*
X16754762Y-13405952D01*
X16773809Y-13415476D01*
X16792857Y-13415476D01*
X16935714Y-13405952D02*
X16916667Y-13415476D01*
X16878571Y-13415476D01*
X16859524Y-13405952D01*
X16850000Y-13386905D01*
X16850000Y-13310714D01*
X16859524Y-13291667D01*
X16878571Y-13282143D01*
X16916667Y-13282143D01*
X16935714Y-13291667D01*
X16945238Y-13310714D01*
X16945238Y-13329762D01*
X16850000Y-13348809D01*
X17116667Y-13415476D02*
X17116667Y-13215476D01*
X17116667Y-13405952D02*
X17097619Y-13415476D01*
X17059524Y-13415476D01*
X17040476Y-13405952D01*
X17030952Y-13396428D01*
X17021429Y-13377381D01*
X17021429Y-13320238D01*
X17030952Y-13301190D01*
X17040476Y-13291667D01*
X17059524Y-13282143D01*
X17097619Y-13282143D01*
X17116667Y-13291667D01*
X17192857Y-13491667D02*
X17202381Y-13482143D01*
X17221429Y-13453571D01*
X17230952Y-13434524D01*
X17240476Y-13405952D01*
X17250000Y-13358333D01*
X17250000Y-13320238D01*
X17240476Y-13272619D01*
X17230952Y-13244048D01*
X17221429Y-13225000D01*
X17202381Y-13196428D01*
X17192857Y-13186905D01*
M02*
