%TF.GenerationSoftware,KiCad,Pcbnew,(6.0.2)*%
%TF.CreationDate,2022-03-23T10:15:06+00:00*%
%TF.ProjectId,pi_transceiver_hat,70695f74-7261-46e7-9363-65697665725f,1*%
%TF.SameCoordinates,Original*%
%TF.FileFunction,Copper,L2,Inr*%
%TF.FilePolarity,Positive*%
%FSLAX46Y46*%
G04 Gerber Fmt 4.6, Leading zero omitted, Abs format (unit mm)*
G04 Created by KiCad (PCBNEW (6.0.2)) date 2022-03-23 10:15:06*
%MOMM*%
%LPD*%
G01*
G04 APERTURE LIST*
G04 Aperture macros list*
%AMRoundRect*
0 Rectangle with rounded corners*
0 $1 Rounding radius*
0 $2 $3 $4 $5 $6 $7 $8 $9 X,Y pos of 4 corners*
0 Add a 4 corners polygon primitive as box body*
4,1,4,$2,$3,$4,$5,$6,$7,$8,$9,$2,$3,0*
0 Add four circle primitives for the rounded corners*
1,1,$1+$1,$2,$3*
1,1,$1+$1,$4,$5*
1,1,$1+$1,$6,$7*
1,1,$1+$1,$8,$9*
0 Add four rect primitives between the rounded corners*
20,1,$1+$1,$2,$3,$4,$5,0*
20,1,$1+$1,$4,$5,$6,$7,0*
20,1,$1+$1,$6,$7,$8,$9,0*
20,1,$1+$1,$8,$9,$2,$3,0*%
G04 Aperture macros list end*
%TA.AperFunction,ComponentPad*%
%ADD10RoundRect,0.250000X-0.725000X0.600000X-0.725000X-0.600000X0.725000X-0.600000X0.725000X0.600000X0*%
%TD*%
%TA.AperFunction,ComponentPad*%
%ADD11O,1.950000X1.700000*%
%TD*%
%TA.AperFunction,ComponentPad*%
%ADD12R,2.100000X2.100000*%
%TD*%
%TA.AperFunction,ComponentPad*%
%ADD13C,2.100000*%
%TD*%
%TA.AperFunction,ComponentPad*%
%ADD14RoundRect,0.250000X0.620000X0.845000X-0.620000X0.845000X-0.620000X-0.845000X0.620000X-0.845000X0*%
%TD*%
%TA.AperFunction,ComponentPad*%
%ADD15O,1.740000X2.190000*%
%TD*%
%TA.AperFunction,ComponentPad*%
%ADD16RoundRect,0.250000X-0.600000X-0.725000X0.600000X-0.725000X0.600000X0.725000X-0.600000X0.725000X0*%
%TD*%
%TA.AperFunction,ComponentPad*%
%ADD17O,1.700000X1.950000*%
%TD*%
%TA.AperFunction,ComponentPad*%
%ADD18R,1.700000X1.700000*%
%TD*%
%TA.AperFunction,ComponentPad*%
%ADD19O,1.700000X1.700000*%
%TD*%
%TA.AperFunction,ViaPad*%
%ADD20C,0.800000*%
%TD*%
G04 APERTURE END LIST*
D10*
X154906200Y-103590400D03*
D11*
X154906200Y-106090400D03*
X154906200Y-108590400D03*
X154906200Y-111090400D03*
D12*
X150007400Y-121310400D03*
D13*
X152547400Y-121310400D03*
X155087400Y-121310400D03*
X157627400Y-121310400D03*
D12*
X118409800Y-104292400D03*
D13*
X120949800Y-104292400D03*
X123489800Y-104292400D03*
X126029800Y-104292400D03*
D12*
X123642200Y-121361200D03*
D13*
X126182200Y-121361200D03*
X128722200Y-121361200D03*
X131262200Y-121361200D03*
D10*
X164998400Y-109016800D03*
D11*
X164998400Y-111516800D03*
X164998400Y-114016800D03*
X164998400Y-116516800D03*
D12*
X137205800Y-121361200D03*
D13*
X139745800Y-121361200D03*
X142285800Y-121361200D03*
X144825800Y-121361200D03*
D14*
X142646400Y-83139600D03*
D15*
X140106400Y-83139600D03*
X137566400Y-83139600D03*
X135026400Y-83139600D03*
D16*
X110174400Y-83041000D03*
D17*
X112674400Y-83041000D03*
X115174400Y-83041000D03*
D12*
X110388400Y-112522000D03*
D13*
X110388400Y-109982000D03*
X110388400Y-107442000D03*
X110388400Y-104902000D03*
X110388400Y-102362000D03*
D12*
X110337600Y-96062800D03*
D13*
X110337600Y-93522800D03*
D12*
X115468400Y-121361200D03*
D13*
X118008400Y-121361200D03*
D12*
X121259600Y-83108800D03*
D13*
X123799600Y-83108800D03*
X126339600Y-83108800D03*
D14*
X155956000Y-83139600D03*
D15*
X153416000Y-83139600D03*
X150876000Y-83139600D03*
X148336000Y-83139600D03*
D12*
X136545400Y-104394000D03*
D13*
X139085400Y-104394000D03*
X141625400Y-104394000D03*
X144165400Y-104394000D03*
D10*
X164998400Y-94843600D03*
D11*
X164998400Y-97343600D03*
X164998400Y-99843600D03*
X164998400Y-102343600D03*
D10*
X164998400Y-80924400D03*
D11*
X164998400Y-83424400D03*
X164998400Y-85924400D03*
X164998400Y-88424400D03*
D18*
X112800000Y-75550000D03*
D19*
X112800000Y-73010000D03*
X115340000Y-75550000D03*
X115340000Y-73010000D03*
X117880000Y-75550000D03*
X117880000Y-73010000D03*
X120420000Y-75550000D03*
X120420000Y-73010000D03*
X122960000Y-75550000D03*
X122960000Y-73010000D03*
X125500000Y-75550000D03*
X125500000Y-73010000D03*
X128040000Y-75550000D03*
X128040000Y-73010000D03*
X130580000Y-75550000D03*
X130580000Y-73010000D03*
X133120000Y-75550000D03*
X133120000Y-73010000D03*
X135660000Y-75550000D03*
X135660000Y-73010000D03*
X138200000Y-75550000D03*
X138200000Y-73010000D03*
X140740000Y-75550000D03*
X140740000Y-73010000D03*
X143280000Y-75550000D03*
X143280000Y-73010000D03*
X145820000Y-75550000D03*
X145820000Y-73010000D03*
X148360000Y-75550000D03*
X148360000Y-73010000D03*
X150900000Y-75550000D03*
X150900000Y-73010000D03*
X153440000Y-75550000D03*
X153440000Y-73010000D03*
X155980000Y-75550000D03*
X155980000Y-73010000D03*
X158520000Y-75550000D03*
X158520000Y-73010000D03*
X161060000Y-75550000D03*
X161060000Y-73010000D03*
D20*
X130149600Y-109728000D03*
X134924800Y-78689200D03*
X160419011Y-91643200D03*
X121208800Y-115671600D03*
X127000000Y-109677200D03*
X119786400Y-114503200D03*
X138785600Y-87274400D03*
X151384000Y-87020400D03*
X146608800Y-92252800D03*
X158648400Y-109728000D03*
X125425200Y-101498400D03*
X149402800Y-78130400D03*
X133451600Y-92252800D03*
X162458400Y-97485200D03*
X125323600Y-108254800D03*
X130302000Y-112318800D03*
%TA.AperFunction,Conductor*%
G36*
X166470057Y-71259500D02*
G01*
X166484858Y-71261805D01*
X166484861Y-71261805D01*
X166493730Y-71263186D01*
X166510899Y-71260941D01*
X166534839Y-71260108D01*
X166792770Y-71275710D01*
X166807874Y-71277544D01*
X166878648Y-71290514D01*
X167088879Y-71329040D01*
X167103641Y-71332678D01*
X167376408Y-71417675D01*
X167390627Y-71423069D01*
X167651140Y-71540316D01*
X167664609Y-71547385D01*
X167909095Y-71695182D01*
X167921617Y-71703825D01*
X168064358Y-71815656D01*
X168075746Y-71825746D01*
X168424254Y-72174254D01*
X168434344Y-72185642D01*
X168546175Y-72328383D01*
X168554818Y-72340905D01*
X168702615Y-72585391D01*
X168709684Y-72598860D01*
X168826138Y-72857611D01*
X168826930Y-72859370D01*
X168832325Y-72873592D01*
X168896616Y-73079908D01*
X168917321Y-73146353D01*
X168920960Y-73161121D01*
X168940786Y-73269304D01*
X168972456Y-73442126D01*
X168974290Y-73457230D01*
X168989455Y-73707929D01*
X168988198Y-73734639D01*
X168988195Y-73734859D01*
X168986814Y-73743730D01*
X168987978Y-73752632D01*
X168987978Y-73752635D01*
X168990936Y-73775251D01*
X168992000Y-73791589D01*
X168992000Y-123700672D01*
X168990500Y-123720056D01*
X168986814Y-123743730D01*
X168988454Y-123756270D01*
X168989059Y-123760897D01*
X168989892Y-123784839D01*
X168974290Y-124042770D01*
X168972456Y-124057874D01*
X168965788Y-124094259D01*
X168940047Y-124234730D01*
X168920962Y-124338873D01*
X168917322Y-124353641D01*
X168866692Y-124516119D01*
X168832326Y-124626404D01*
X168826931Y-124640627D01*
X168730000Y-124856001D01*
X168709686Y-124901136D01*
X168702615Y-124914609D01*
X168554818Y-125159095D01*
X168546175Y-125171617D01*
X168434344Y-125314358D01*
X168424254Y-125325746D01*
X168075746Y-125674254D01*
X168064358Y-125684344D01*
X167921617Y-125796175D01*
X167909095Y-125804818D01*
X167664609Y-125952615D01*
X167651140Y-125959684D01*
X167390630Y-126076930D01*
X167376408Y-126082325D01*
X167103641Y-126167322D01*
X167088879Y-126170960D01*
X166878648Y-126209486D01*
X166807874Y-126222456D01*
X166792770Y-126224290D01*
X166542071Y-126239455D01*
X166515361Y-126238198D01*
X166515141Y-126238195D01*
X166506270Y-126236814D01*
X166497368Y-126237978D01*
X166497365Y-126237978D01*
X166474749Y-126240936D01*
X166458411Y-126242000D01*
X107549328Y-126242000D01*
X107529943Y-126240500D01*
X107515142Y-126238195D01*
X107515139Y-126238195D01*
X107506270Y-126236814D01*
X107489101Y-126239059D01*
X107465161Y-126239892D01*
X107207230Y-126224290D01*
X107192126Y-126222456D01*
X107121352Y-126209486D01*
X106911121Y-126170960D01*
X106896359Y-126167322D01*
X106623592Y-126082325D01*
X106609370Y-126076930D01*
X106348860Y-125959684D01*
X106335391Y-125952615D01*
X106090905Y-125804818D01*
X106078383Y-125796175D01*
X105935642Y-125684344D01*
X105924254Y-125674254D01*
X105575746Y-125325746D01*
X105565656Y-125314358D01*
X105453825Y-125171617D01*
X105445182Y-125159095D01*
X105297385Y-124914609D01*
X105290314Y-124901136D01*
X105270001Y-124856001D01*
X105173069Y-124640627D01*
X105167674Y-124626404D01*
X105133308Y-124516119D01*
X105082678Y-124353641D01*
X105079038Y-124338873D01*
X105059954Y-124234730D01*
X105034212Y-124094259D01*
X105027544Y-124057874D01*
X105025710Y-124042770D01*
X105010545Y-123792071D01*
X105011802Y-123765361D01*
X105011805Y-123765141D01*
X105013186Y-123756270D01*
X105011848Y-123746033D01*
X105009064Y-123724749D01*
X105008000Y-123708411D01*
X105008000Y-123292277D01*
X106137009Y-123292277D01*
X106162625Y-123560769D01*
X106163710Y-123565203D01*
X106163711Y-123565209D01*
X106212688Y-123765361D01*
X106226731Y-123822750D01*
X106327985Y-124072733D01*
X106464265Y-124305482D01*
X106502784Y-124353647D01*
X106584686Y-124456060D01*
X106632716Y-124516119D01*
X106829809Y-124700234D01*
X107051416Y-124853968D01*
X107055499Y-124855999D01*
X107055502Y-124856001D01*
X107146228Y-124901136D01*
X107292894Y-124974101D01*
X107297228Y-124975522D01*
X107297231Y-124975523D01*
X107544853Y-125056698D01*
X107544859Y-125056699D01*
X107549186Y-125058118D01*
X107553677Y-125058898D01*
X107553678Y-125058898D01*
X107811140Y-125103601D01*
X107811148Y-125103602D01*
X107814921Y-125104257D01*
X107818758Y-125104448D01*
X107898578Y-125108422D01*
X107898586Y-125108422D01*
X107900149Y-125108500D01*
X108068512Y-125108500D01*
X108070780Y-125108335D01*
X108070792Y-125108335D01*
X108201884Y-125098823D01*
X108269004Y-125093953D01*
X108273459Y-125092969D01*
X108273462Y-125092969D01*
X108527912Y-125036791D01*
X108527916Y-125036790D01*
X108532372Y-125035806D01*
X108658480Y-124988028D01*
X108780318Y-124941868D01*
X108780321Y-124941867D01*
X108784588Y-124940250D01*
X109020368Y-124809286D01*
X109234773Y-124645657D01*
X109239688Y-124640630D01*
X109420117Y-124456060D01*
X109423312Y-124452792D01*
X109582034Y-124234730D01*
X109665190Y-124076676D01*
X109705490Y-124000079D01*
X109705493Y-124000073D01*
X109707615Y-123996039D01*
X109770378Y-123818312D01*
X109795902Y-123746033D01*
X109795902Y-123746032D01*
X109797425Y-123741720D01*
X109849581Y-123477100D01*
X109858782Y-123292277D01*
X164137009Y-123292277D01*
X164162625Y-123560769D01*
X164163710Y-123565203D01*
X164163711Y-123565209D01*
X164212688Y-123765361D01*
X164226731Y-123822750D01*
X164327985Y-124072733D01*
X164464265Y-124305482D01*
X164502784Y-124353647D01*
X164584686Y-124456060D01*
X164632716Y-124516119D01*
X164829809Y-124700234D01*
X165051416Y-124853968D01*
X165055499Y-124855999D01*
X165055502Y-124856001D01*
X165146228Y-124901136D01*
X165292894Y-124974101D01*
X165297228Y-124975522D01*
X165297231Y-124975523D01*
X165544853Y-125056698D01*
X165544859Y-125056699D01*
X165549186Y-125058118D01*
X165553677Y-125058898D01*
X165553678Y-125058898D01*
X165811140Y-125103601D01*
X165811148Y-125103602D01*
X165814921Y-125104257D01*
X165818758Y-125104448D01*
X165898578Y-125108422D01*
X165898586Y-125108422D01*
X165900149Y-125108500D01*
X166068512Y-125108500D01*
X166070780Y-125108335D01*
X166070792Y-125108335D01*
X166201884Y-125098823D01*
X166269004Y-125093953D01*
X166273459Y-125092969D01*
X166273462Y-125092969D01*
X166527912Y-125036791D01*
X166527916Y-125036790D01*
X166532372Y-125035806D01*
X166658480Y-124988028D01*
X166780318Y-124941868D01*
X166780321Y-124941867D01*
X166784588Y-124940250D01*
X167020368Y-124809286D01*
X167234773Y-124645657D01*
X167239688Y-124640630D01*
X167420117Y-124456060D01*
X167423312Y-124452792D01*
X167582034Y-124234730D01*
X167665190Y-124076676D01*
X167705490Y-124000079D01*
X167705493Y-124000073D01*
X167707615Y-123996039D01*
X167770378Y-123818312D01*
X167795902Y-123746033D01*
X167795902Y-123746032D01*
X167797425Y-123741720D01*
X167849581Y-123477100D01*
X167858782Y-123292277D01*
X167862764Y-123212292D01*
X167862764Y-123212286D01*
X167862991Y-123207723D01*
X167837375Y-122939231D01*
X167833681Y-122924131D01*
X167774355Y-122681688D01*
X167773269Y-122677250D01*
X167672015Y-122427267D01*
X167535735Y-122194518D01*
X167417928Y-122047208D01*
X167370136Y-121987447D01*
X167370135Y-121987445D01*
X167367284Y-121983881D01*
X167170191Y-121799766D01*
X166948584Y-121646032D01*
X166944501Y-121644001D01*
X166944498Y-121643999D01*
X166811729Y-121577948D01*
X166707106Y-121525899D01*
X166702772Y-121524478D01*
X166702769Y-121524477D01*
X166455147Y-121443302D01*
X166455141Y-121443301D01*
X166450814Y-121441882D01*
X166446322Y-121441102D01*
X166188860Y-121396399D01*
X166188852Y-121396398D01*
X166185079Y-121395743D01*
X166173817Y-121395182D01*
X166101422Y-121391578D01*
X166101414Y-121391578D01*
X166099851Y-121391500D01*
X165931488Y-121391500D01*
X165929220Y-121391665D01*
X165929208Y-121391665D01*
X165798116Y-121401177D01*
X165730996Y-121406047D01*
X165726541Y-121407031D01*
X165726538Y-121407031D01*
X165472088Y-121463209D01*
X165472084Y-121463210D01*
X165467628Y-121464194D01*
X165341520Y-121511972D01*
X165219682Y-121558132D01*
X165219679Y-121558133D01*
X165215412Y-121559750D01*
X164979632Y-121690714D01*
X164765227Y-121854343D01*
X164576688Y-122047208D01*
X164417966Y-122265270D01*
X164365479Y-122365031D01*
X164294510Y-122499921D01*
X164294507Y-122499927D01*
X164292385Y-122503961D01*
X164290865Y-122508266D01*
X164290863Y-122508270D01*
X164213026Y-122728685D01*
X164202575Y-122758280D01*
X164182027Y-122862535D01*
X164171188Y-122917528D01*
X164150419Y-123022900D01*
X164150192Y-123027453D01*
X164150192Y-123027456D01*
X164140991Y-123212292D01*
X164137009Y-123292277D01*
X109858782Y-123292277D01*
X109862764Y-123212292D01*
X109862764Y-123212286D01*
X109862991Y-123207723D01*
X109837375Y-122939231D01*
X109833681Y-122924131D01*
X109774355Y-122681688D01*
X109773269Y-122677250D01*
X109683600Y-122455869D01*
X113910401Y-122455869D01*
X113910771Y-122462690D01*
X113916295Y-122513552D01*
X113919921Y-122528804D01*
X113965076Y-122649254D01*
X113973614Y-122664848D01*
X114050115Y-122766924D01*
X114062676Y-122779485D01*
X114164751Y-122855986D01*
X114180346Y-122864524D01*
X114300794Y-122909678D01*
X114316049Y-122913305D01*
X114366914Y-122918831D01*
X114373728Y-122919200D01*
X115196285Y-122919200D01*
X115211524Y-122914725D01*
X115212729Y-122913335D01*
X115214400Y-122905652D01*
X115214400Y-122901084D01*
X115722400Y-122901084D01*
X115726875Y-122916323D01*
X115728265Y-122917528D01*
X115735948Y-122919199D01*
X116563069Y-122919199D01*
X116569890Y-122918829D01*
X116620752Y-122913305D01*
X116636004Y-122909679D01*
X116756454Y-122864524D01*
X116772049Y-122855986D01*
X116874124Y-122779485D01*
X116886681Y-122766928D01*
X116954098Y-122676973D01*
X117010958Y-122634458D01*
X117081776Y-122629432D01*
X117120759Y-122645105D01*
X117298668Y-122754127D01*
X117442547Y-122813724D01*
X117520735Y-122846111D01*
X117520737Y-122846112D01*
X117525308Y-122848005D01*
X117570602Y-122858879D01*
X117759030Y-122904117D01*
X117759036Y-122904118D01*
X117763843Y-122905272D01*
X118008400Y-122924519D01*
X118252957Y-122905272D01*
X118257764Y-122904118D01*
X118257770Y-122904117D01*
X118446198Y-122858879D01*
X118491492Y-122848005D01*
X118496063Y-122846112D01*
X118496065Y-122846111D01*
X118574253Y-122813724D01*
X118718132Y-122754127D01*
X118888874Y-122649497D01*
X118923070Y-122628542D01*
X118923073Y-122628540D01*
X118927296Y-122625952D01*
X118933219Y-122620894D01*
X119110077Y-122469841D01*
X119113833Y-122466633D01*
X119123026Y-122455869D01*
X122084201Y-122455869D01*
X122084571Y-122462690D01*
X122090095Y-122513552D01*
X122093721Y-122528804D01*
X122138876Y-122649254D01*
X122147414Y-122664848D01*
X122223915Y-122766924D01*
X122236476Y-122779485D01*
X122338551Y-122855986D01*
X122354146Y-122864524D01*
X122474594Y-122909678D01*
X122489849Y-122913305D01*
X122540714Y-122918831D01*
X122547528Y-122919200D01*
X123370085Y-122919200D01*
X123385324Y-122914725D01*
X123386529Y-122913335D01*
X123388200Y-122905652D01*
X123388200Y-122901084D01*
X123896200Y-122901084D01*
X123900675Y-122916323D01*
X123902065Y-122917528D01*
X123909748Y-122919199D01*
X124736869Y-122919199D01*
X124743690Y-122918829D01*
X124794552Y-122913305D01*
X124809804Y-122909679D01*
X124930254Y-122864524D01*
X124945849Y-122855986D01*
X125047924Y-122779485D01*
X125060485Y-122766924D01*
X125128201Y-122676571D01*
X125185060Y-122634056D01*
X125255879Y-122629030D01*
X125294862Y-122644704D01*
X125468472Y-122751093D01*
X125477267Y-122755575D01*
X125694690Y-122845634D01*
X125704075Y-122848683D01*
X125932908Y-122903622D01*
X125942655Y-122905165D01*
X126177270Y-122923630D01*
X126187130Y-122923630D01*
X126421745Y-122905165D01*
X126431492Y-122903622D01*
X126660325Y-122848683D01*
X126669710Y-122845634D01*
X126887133Y-122755575D01*
X126895928Y-122751093D01*
X127077005Y-122640128D01*
X127085960Y-122630230D01*
X127818000Y-122630230D01*
X127823727Y-122637880D01*
X128008472Y-122751093D01*
X128017267Y-122755575D01*
X128234690Y-122845634D01*
X128244075Y-122848683D01*
X128472908Y-122903622D01*
X128482655Y-122905165D01*
X128717270Y-122923630D01*
X128727130Y-122923630D01*
X128961745Y-122905165D01*
X128971492Y-122903622D01*
X129200325Y-122848683D01*
X129209710Y-122845634D01*
X129427133Y-122755575D01*
X129435928Y-122751093D01*
X129617005Y-122640128D01*
X129625960Y-122630230D01*
X130358000Y-122630230D01*
X130363727Y-122637880D01*
X130548472Y-122751093D01*
X130557267Y-122755575D01*
X130774690Y-122845634D01*
X130784075Y-122848683D01*
X131012908Y-122903622D01*
X131022655Y-122905165D01*
X131257270Y-122923630D01*
X131267130Y-122923630D01*
X131501745Y-122905165D01*
X131511492Y-122903622D01*
X131740325Y-122848683D01*
X131749710Y-122845634D01*
X131967133Y-122755575D01*
X131975928Y-122751093D01*
X132157005Y-122640128D01*
X132166467Y-122629670D01*
X132162684Y-122620894D01*
X132001124Y-122459334D01*
X135647300Y-122459334D01*
X135654055Y-122521516D01*
X135705185Y-122657905D01*
X135792539Y-122774461D01*
X135909095Y-122861815D01*
X136045484Y-122912945D01*
X136107666Y-122919700D01*
X138303934Y-122919700D01*
X138366116Y-122912945D01*
X138502505Y-122861815D01*
X138619061Y-122774461D01*
X138691928Y-122677235D01*
X138748788Y-122634721D01*
X138819606Y-122629696D01*
X138858588Y-122645368D01*
X138865326Y-122649497D01*
X139036068Y-122754127D01*
X139179947Y-122813724D01*
X139258135Y-122846111D01*
X139258137Y-122846112D01*
X139262708Y-122848005D01*
X139308002Y-122858879D01*
X139496430Y-122904117D01*
X139496436Y-122904118D01*
X139501243Y-122905272D01*
X139745800Y-122924519D01*
X139990357Y-122905272D01*
X139995164Y-122904118D01*
X139995170Y-122904117D01*
X140183598Y-122858879D01*
X140228892Y-122848005D01*
X140233463Y-122846112D01*
X140233465Y-122846111D01*
X140311653Y-122813724D01*
X140455532Y-122754127D01*
X140626274Y-122649497D01*
X140660470Y-122628542D01*
X140660473Y-122628540D01*
X140664696Y-122625952D01*
X140670619Y-122620894D01*
X140847477Y-122469841D01*
X140851233Y-122466633D01*
X140919989Y-122386131D01*
X140979440Y-122347322D01*
X141050435Y-122346816D01*
X141111611Y-122386131D01*
X141180367Y-122466633D01*
X141184123Y-122469841D01*
X141360982Y-122620894D01*
X141366904Y-122625952D01*
X141371127Y-122628540D01*
X141371130Y-122628542D01*
X141405326Y-122649497D01*
X141576068Y-122754127D01*
X141719947Y-122813724D01*
X141798135Y-122846111D01*
X141798137Y-122846112D01*
X141802708Y-122848005D01*
X141848002Y-122858879D01*
X142036430Y-122904117D01*
X142036436Y-122904118D01*
X142041243Y-122905272D01*
X142285800Y-122924519D01*
X142530357Y-122905272D01*
X142535164Y-122904118D01*
X142535170Y-122904117D01*
X142723598Y-122858879D01*
X142768892Y-122848005D01*
X142773463Y-122846112D01*
X142773465Y-122846111D01*
X142851653Y-122813724D01*
X142995532Y-122754127D01*
X143166274Y-122649497D01*
X143200470Y-122628542D01*
X143200473Y-122628540D01*
X143204696Y-122625952D01*
X143210619Y-122620894D01*
X143387477Y-122469841D01*
X143391233Y-122466633D01*
X143459989Y-122386131D01*
X143519440Y-122347322D01*
X143590435Y-122346816D01*
X143651611Y-122386131D01*
X143720367Y-122466633D01*
X143724123Y-122469841D01*
X143900982Y-122620894D01*
X143906904Y-122625952D01*
X143911127Y-122628540D01*
X143911130Y-122628542D01*
X143945326Y-122649497D01*
X144116068Y-122754127D01*
X144259947Y-122813724D01*
X144338135Y-122846111D01*
X144338137Y-122846112D01*
X144342708Y-122848005D01*
X144388002Y-122858879D01*
X144576430Y-122904117D01*
X144576436Y-122904118D01*
X144581243Y-122905272D01*
X144825800Y-122924519D01*
X145070357Y-122905272D01*
X145075164Y-122904118D01*
X145075170Y-122904117D01*
X145263598Y-122858879D01*
X145308892Y-122848005D01*
X145313463Y-122846112D01*
X145313465Y-122846111D01*
X145391653Y-122813724D01*
X145535532Y-122754127D01*
X145706274Y-122649497D01*
X145740470Y-122628542D01*
X145740473Y-122628540D01*
X145744696Y-122625952D01*
X145750619Y-122620894D01*
X145927477Y-122469841D01*
X145931233Y-122466633D01*
X145983814Y-122405069D01*
X148449401Y-122405069D01*
X148449771Y-122411890D01*
X148455295Y-122462752D01*
X148458921Y-122478004D01*
X148504076Y-122598454D01*
X148512614Y-122614049D01*
X148589115Y-122716124D01*
X148601676Y-122728685D01*
X148703751Y-122805186D01*
X148719346Y-122813724D01*
X148839794Y-122858878D01*
X148855049Y-122862505D01*
X148905914Y-122868031D01*
X148912728Y-122868400D01*
X149735285Y-122868400D01*
X149750524Y-122863925D01*
X149751729Y-122862535D01*
X149753400Y-122854852D01*
X149753400Y-122850284D01*
X150261400Y-122850284D01*
X150265875Y-122865523D01*
X150267265Y-122866728D01*
X150274948Y-122868399D01*
X151102069Y-122868399D01*
X151108890Y-122868029D01*
X151159752Y-122862505D01*
X151175004Y-122858879D01*
X151295454Y-122813724D01*
X151311049Y-122805186D01*
X151413124Y-122728685D01*
X151425681Y-122716128D01*
X151493098Y-122626173D01*
X151549958Y-122583658D01*
X151620776Y-122578632D01*
X151659759Y-122594305D01*
X151837668Y-122703327D01*
X151952985Y-122751093D01*
X152059735Y-122795311D01*
X152059737Y-122795312D01*
X152064308Y-122797205D01*
X152133115Y-122813724D01*
X152298030Y-122853317D01*
X152298036Y-122853318D01*
X152302843Y-122854472D01*
X152547400Y-122873719D01*
X152791957Y-122854472D01*
X152796764Y-122853318D01*
X152796770Y-122853317D01*
X152961685Y-122813724D01*
X153030492Y-122797205D01*
X153035063Y-122795312D01*
X153035065Y-122795311D01*
X153141815Y-122751093D01*
X153257132Y-122703327D01*
X153396619Y-122617850D01*
X153462070Y-122577742D01*
X153462073Y-122577740D01*
X153466296Y-122575152D01*
X153489011Y-122555752D01*
X153649077Y-122419041D01*
X153652833Y-122415833D01*
X153678201Y-122386131D01*
X153721589Y-122335331D01*
X153781040Y-122296522D01*
X153852035Y-122296016D01*
X153913211Y-122335331D01*
X153956599Y-122386131D01*
X153981967Y-122415833D01*
X153985723Y-122419041D01*
X154145790Y-122555752D01*
X154168504Y-122575152D01*
X154172727Y-122577740D01*
X154172730Y-122577742D01*
X154238181Y-122617850D01*
X154377668Y-122703327D01*
X154492985Y-122751093D01*
X154599735Y-122795311D01*
X154599737Y-122795312D01*
X154604308Y-122797205D01*
X154673115Y-122813724D01*
X154838030Y-122853317D01*
X154838036Y-122853318D01*
X154842843Y-122854472D01*
X155087400Y-122873719D01*
X155331957Y-122854472D01*
X155336764Y-122853318D01*
X155336770Y-122853317D01*
X155501685Y-122813724D01*
X155570492Y-122797205D01*
X155575063Y-122795312D01*
X155575065Y-122795311D01*
X155681815Y-122751093D01*
X155797132Y-122703327D01*
X155936619Y-122617850D01*
X156002070Y-122577742D01*
X156002073Y-122577740D01*
X156006296Y-122575152D01*
X156029011Y-122555752D01*
X156189077Y-122419041D01*
X156192833Y-122415833D01*
X156218201Y-122386131D01*
X156261589Y-122335331D01*
X156321040Y-122296522D01*
X156392035Y-122296016D01*
X156453211Y-122335331D01*
X156496599Y-122386131D01*
X156521967Y-122415833D01*
X156525723Y-122419041D01*
X156685790Y-122555752D01*
X156708504Y-122575152D01*
X156712727Y-122577740D01*
X156712730Y-122577742D01*
X156778181Y-122617850D01*
X156917668Y-122703327D01*
X157032985Y-122751093D01*
X157139735Y-122795311D01*
X157139737Y-122795312D01*
X157144308Y-122797205D01*
X157213115Y-122813724D01*
X157378030Y-122853317D01*
X157378036Y-122853318D01*
X157382843Y-122854472D01*
X157627400Y-122873719D01*
X157871957Y-122854472D01*
X157876764Y-122853318D01*
X157876770Y-122853317D01*
X158041685Y-122813724D01*
X158110492Y-122797205D01*
X158115063Y-122795312D01*
X158115065Y-122795311D01*
X158221815Y-122751093D01*
X158337132Y-122703327D01*
X158476619Y-122617850D01*
X158542070Y-122577742D01*
X158542073Y-122577740D01*
X158546296Y-122575152D01*
X158569011Y-122555752D01*
X158729077Y-122419041D01*
X158732833Y-122415833D01*
X158758201Y-122386131D01*
X158888935Y-122233063D01*
X158888937Y-122233060D01*
X158892152Y-122229296D01*
X158911047Y-122198463D01*
X158937138Y-122155885D01*
X159020327Y-122020132D01*
X159114205Y-121793492D01*
X159152660Y-121633315D01*
X159170317Y-121559770D01*
X159170318Y-121559764D01*
X159171472Y-121554957D01*
X159190719Y-121310400D01*
X159171472Y-121065843D01*
X159168515Y-121053524D01*
X159115360Y-120832120D01*
X159114205Y-120827308D01*
X159020327Y-120600668D01*
X158892152Y-120391504D01*
X158844977Y-120336269D01*
X158736041Y-120208723D01*
X158732833Y-120204967D01*
X158729077Y-120201759D01*
X158550063Y-120048865D01*
X158550060Y-120048863D01*
X158546296Y-120045648D01*
X158542073Y-120043060D01*
X158542070Y-120043058D01*
X158463037Y-119994627D01*
X158337132Y-119917473D01*
X158192184Y-119857433D01*
X158115065Y-119825489D01*
X158115063Y-119825488D01*
X158110492Y-119823595D01*
X158007088Y-119798770D01*
X157876770Y-119767483D01*
X157876764Y-119767482D01*
X157871957Y-119766328D01*
X157627400Y-119747081D01*
X157382843Y-119766328D01*
X157378036Y-119767482D01*
X157378030Y-119767483D01*
X157247712Y-119798770D01*
X157144308Y-119823595D01*
X157139737Y-119825488D01*
X157139735Y-119825489D01*
X157062616Y-119857433D01*
X156917668Y-119917473D01*
X156791763Y-119994627D01*
X156712730Y-120043058D01*
X156712727Y-120043060D01*
X156708504Y-120045648D01*
X156704740Y-120048863D01*
X156704737Y-120048865D01*
X156525723Y-120201759D01*
X156521967Y-120204967D01*
X156518759Y-120208723D01*
X156453211Y-120285469D01*
X156393760Y-120324278D01*
X156322765Y-120324784D01*
X156261589Y-120285469D01*
X156196041Y-120208723D01*
X156192833Y-120204967D01*
X156189077Y-120201759D01*
X156010063Y-120048865D01*
X156010060Y-120048863D01*
X156006296Y-120045648D01*
X156002073Y-120043060D01*
X156002070Y-120043058D01*
X155923037Y-119994627D01*
X155797132Y-119917473D01*
X155652184Y-119857433D01*
X155575065Y-119825489D01*
X155575063Y-119825488D01*
X155570492Y-119823595D01*
X155467088Y-119798770D01*
X155336770Y-119767483D01*
X155336764Y-119767482D01*
X155331957Y-119766328D01*
X155087400Y-119747081D01*
X154842843Y-119766328D01*
X154838036Y-119767482D01*
X154838030Y-119767483D01*
X154707712Y-119798770D01*
X154604308Y-119823595D01*
X154599737Y-119825488D01*
X154599735Y-119825489D01*
X154522616Y-119857433D01*
X154377668Y-119917473D01*
X154251763Y-119994627D01*
X154172730Y-120043058D01*
X154172727Y-120043060D01*
X154168504Y-120045648D01*
X154164740Y-120048863D01*
X154164737Y-120048865D01*
X153985723Y-120201759D01*
X153981967Y-120204967D01*
X153978759Y-120208723D01*
X153913211Y-120285469D01*
X153853760Y-120324278D01*
X153782765Y-120324784D01*
X153721589Y-120285469D01*
X153656041Y-120208723D01*
X153652833Y-120204967D01*
X153649077Y-120201759D01*
X153470063Y-120048865D01*
X153470060Y-120048863D01*
X153466296Y-120045648D01*
X153462073Y-120043060D01*
X153462070Y-120043058D01*
X153383037Y-119994627D01*
X153257132Y-119917473D01*
X153112184Y-119857433D01*
X153035065Y-119825489D01*
X153035063Y-119825488D01*
X153030492Y-119823595D01*
X152927088Y-119798770D01*
X152796770Y-119767483D01*
X152796764Y-119767482D01*
X152791957Y-119766328D01*
X152547400Y-119747081D01*
X152302843Y-119766328D01*
X152298036Y-119767482D01*
X152298030Y-119767483D01*
X152167712Y-119798770D01*
X152064308Y-119823595D01*
X152059737Y-119825488D01*
X152059735Y-119825489D01*
X151982616Y-119857433D01*
X151837668Y-119917473D01*
X151691979Y-120006751D01*
X151659759Y-120026495D01*
X151591226Y-120045033D01*
X151523549Y-120023576D01*
X151493098Y-119994627D01*
X151425681Y-119904672D01*
X151413124Y-119892115D01*
X151311049Y-119815614D01*
X151295454Y-119807076D01*
X151175006Y-119761922D01*
X151159751Y-119758295D01*
X151108886Y-119752769D01*
X151102072Y-119752400D01*
X150279515Y-119752400D01*
X150264276Y-119756875D01*
X150263071Y-119758265D01*
X150261400Y-119765948D01*
X150261400Y-122850284D01*
X149753400Y-122850284D01*
X149753400Y-121582515D01*
X149748925Y-121567276D01*
X149747535Y-121566071D01*
X149739852Y-121564400D01*
X148467516Y-121564400D01*
X148452277Y-121568875D01*
X148451072Y-121570265D01*
X148449401Y-121577948D01*
X148449401Y-122405069D01*
X145983814Y-122405069D01*
X146033567Y-122346816D01*
X146087335Y-122283863D01*
X146087337Y-122283860D01*
X146090552Y-122280096D01*
X146097166Y-122269304D01*
X146145180Y-122190951D01*
X146218727Y-122070932D01*
X146312605Y-121844292D01*
X146332449Y-121761637D01*
X146368717Y-121610570D01*
X146368718Y-121610564D01*
X146369872Y-121605757D01*
X146389119Y-121361200D01*
X146369872Y-121116643D01*
X146366915Y-121104324D01*
X146351060Y-121038285D01*
X148449400Y-121038285D01*
X148453875Y-121053524D01*
X148455265Y-121054729D01*
X148462948Y-121056400D01*
X149735285Y-121056400D01*
X149750524Y-121051925D01*
X149751729Y-121050535D01*
X149753400Y-121042852D01*
X149753400Y-119770516D01*
X149748925Y-119755277D01*
X149747535Y-119754072D01*
X149739852Y-119752401D01*
X148912731Y-119752401D01*
X148905910Y-119752771D01*
X148855048Y-119758295D01*
X148839796Y-119761921D01*
X148719346Y-119807076D01*
X148703751Y-119815614D01*
X148601676Y-119892115D01*
X148589115Y-119904676D01*
X148512614Y-120006751D01*
X148504076Y-120022346D01*
X148458922Y-120142794D01*
X148455295Y-120158049D01*
X148449769Y-120208914D01*
X148449400Y-120215728D01*
X148449400Y-121038285D01*
X146351060Y-121038285D01*
X146313760Y-120882920D01*
X146312605Y-120878108D01*
X146218727Y-120651468D01*
X146090552Y-120442304D01*
X146047165Y-120391504D01*
X145934441Y-120259523D01*
X145931233Y-120255767D01*
X145876152Y-120208723D01*
X145748463Y-120099665D01*
X145748460Y-120099663D01*
X145744696Y-120096448D01*
X145740473Y-120093860D01*
X145740470Y-120093858D01*
X145625779Y-120023576D01*
X145535532Y-119968273D01*
X145351672Y-119892115D01*
X145313465Y-119876289D01*
X145313463Y-119876288D01*
X145308892Y-119874395D01*
X145226237Y-119854551D01*
X145075170Y-119818283D01*
X145075164Y-119818282D01*
X145070357Y-119817128D01*
X144825800Y-119797881D01*
X144581243Y-119817128D01*
X144576436Y-119818282D01*
X144576430Y-119818283D01*
X144425363Y-119854551D01*
X144342708Y-119874395D01*
X144338137Y-119876288D01*
X144338135Y-119876289D01*
X144299928Y-119892115D01*
X144116068Y-119968273D01*
X144025821Y-120023576D01*
X143911130Y-120093858D01*
X143911127Y-120093860D01*
X143906904Y-120096448D01*
X143903140Y-120099663D01*
X143903137Y-120099665D01*
X143775448Y-120208723D01*
X143720367Y-120255767D01*
X143717159Y-120259523D01*
X143651611Y-120336269D01*
X143592160Y-120375078D01*
X143521165Y-120375584D01*
X143459989Y-120336269D01*
X143394441Y-120259523D01*
X143391233Y-120255767D01*
X143336152Y-120208723D01*
X143208463Y-120099665D01*
X143208460Y-120099663D01*
X143204696Y-120096448D01*
X143200473Y-120093860D01*
X143200470Y-120093858D01*
X143085779Y-120023576D01*
X142995532Y-119968273D01*
X142811672Y-119892115D01*
X142773465Y-119876289D01*
X142773463Y-119876288D01*
X142768892Y-119874395D01*
X142686237Y-119854551D01*
X142535170Y-119818283D01*
X142535164Y-119818282D01*
X142530357Y-119817128D01*
X142285800Y-119797881D01*
X142041243Y-119817128D01*
X142036436Y-119818282D01*
X142036430Y-119818283D01*
X141885363Y-119854551D01*
X141802708Y-119874395D01*
X141798137Y-119876288D01*
X141798135Y-119876289D01*
X141759928Y-119892115D01*
X141576068Y-119968273D01*
X141485821Y-120023576D01*
X141371130Y-120093858D01*
X141371127Y-120093860D01*
X141366904Y-120096448D01*
X141363140Y-120099663D01*
X141363137Y-120099665D01*
X141235448Y-120208723D01*
X141180367Y-120255767D01*
X141177159Y-120259523D01*
X141111611Y-120336269D01*
X141052160Y-120375078D01*
X140981165Y-120375584D01*
X140919989Y-120336269D01*
X140854441Y-120259523D01*
X140851233Y-120255767D01*
X140796152Y-120208723D01*
X140668463Y-120099665D01*
X140668460Y-120099663D01*
X140664696Y-120096448D01*
X140660473Y-120093860D01*
X140660470Y-120093858D01*
X140545779Y-120023576D01*
X140455532Y-119968273D01*
X140271672Y-119892115D01*
X140233465Y-119876289D01*
X140233463Y-119876288D01*
X140228892Y-119874395D01*
X140146237Y-119854551D01*
X139995170Y-119818283D01*
X139995164Y-119818282D01*
X139990357Y-119817128D01*
X139745800Y-119797881D01*
X139501243Y-119817128D01*
X139496436Y-119818282D01*
X139496430Y-119818283D01*
X139345363Y-119854551D01*
X139262708Y-119874395D01*
X139258137Y-119876288D01*
X139258135Y-119876289D01*
X139219928Y-119892115D01*
X139036068Y-119968273D01*
X138945821Y-120023576D01*
X138858588Y-120077032D01*
X138790055Y-120095570D01*
X138722378Y-120074113D01*
X138691928Y-120045165D01*
X138686718Y-120038213D01*
X138619061Y-119947939D01*
X138502505Y-119860585D01*
X138366116Y-119809455D01*
X138303934Y-119802700D01*
X136107666Y-119802700D01*
X136045484Y-119809455D01*
X135909095Y-119860585D01*
X135792539Y-119947939D01*
X135705185Y-120064495D01*
X135654055Y-120200884D01*
X135647300Y-120263066D01*
X135647300Y-122459334D01*
X132001124Y-122459334D01*
X131275012Y-121733222D01*
X131261068Y-121725608D01*
X131259235Y-121725739D01*
X131252620Y-121729990D01*
X130364760Y-122617850D01*
X130358000Y-122630230D01*
X129625960Y-122630230D01*
X129626467Y-122629670D01*
X129622684Y-122620894D01*
X128735012Y-121733222D01*
X128721068Y-121725608D01*
X128719235Y-121725739D01*
X128712620Y-121729990D01*
X127824760Y-122617850D01*
X127818000Y-122630230D01*
X127085960Y-122630230D01*
X127086467Y-122629670D01*
X127082684Y-122620894D01*
X125912085Y-121450295D01*
X125878059Y-121387983D01*
X125879894Y-121362332D01*
X126546608Y-121362332D01*
X126546739Y-121364165D01*
X126550990Y-121370780D01*
X127438850Y-122258640D01*
X127444293Y-122261612D01*
X127452387Y-122267359D01*
X127461282Y-122262206D01*
X127462517Y-122261673D01*
X128350178Y-121374012D01*
X128356556Y-121362332D01*
X129086608Y-121362332D01*
X129086739Y-121364165D01*
X129090990Y-121370780D01*
X129978850Y-122258640D01*
X129984293Y-122261612D01*
X129992387Y-122267359D01*
X130001282Y-122262206D01*
X130002517Y-122261673D01*
X130890178Y-121374012D01*
X130896556Y-121362332D01*
X131626608Y-121362332D01*
X131626739Y-121364165D01*
X131630990Y-121370780D01*
X132518850Y-122258640D01*
X132531230Y-122265400D01*
X132538880Y-122259673D01*
X132652093Y-122074928D01*
X132656575Y-122066133D01*
X132746634Y-121848710D01*
X132749683Y-121839325D01*
X132804622Y-121610492D01*
X132806165Y-121600745D01*
X132824630Y-121366130D01*
X132824630Y-121356270D01*
X132806165Y-121121655D01*
X132804622Y-121111908D01*
X132749683Y-120883075D01*
X132746634Y-120873690D01*
X132656575Y-120656267D01*
X132652093Y-120647472D01*
X132541128Y-120466395D01*
X132530670Y-120456933D01*
X132521894Y-120460716D01*
X131634222Y-121348388D01*
X131626608Y-121362332D01*
X130896556Y-121362332D01*
X130897792Y-121360068D01*
X130897661Y-121358235D01*
X130893410Y-121351620D01*
X130005550Y-120463760D01*
X130000107Y-120460788D01*
X129992013Y-120455041D01*
X129983118Y-120460194D01*
X129981883Y-120460727D01*
X129094222Y-121348388D01*
X129086608Y-121362332D01*
X128356556Y-121362332D01*
X128357792Y-121360068D01*
X128357661Y-121358235D01*
X128353410Y-121351620D01*
X127465550Y-120463760D01*
X127460107Y-120460788D01*
X127452013Y-120455041D01*
X127443118Y-120460194D01*
X127441883Y-120460727D01*
X126554222Y-121348388D01*
X126546608Y-121362332D01*
X125879894Y-121362332D01*
X125883124Y-121317168D01*
X125912085Y-121272105D01*
X127079640Y-120104550D01*
X127086094Y-120092730D01*
X127817933Y-120092730D01*
X127821716Y-120101506D01*
X128709388Y-120989178D01*
X128723332Y-120996792D01*
X128725165Y-120996661D01*
X128731780Y-120992410D01*
X129619640Y-120104550D01*
X129626094Y-120092730D01*
X130357933Y-120092730D01*
X130361716Y-120101506D01*
X131249388Y-120989178D01*
X131263332Y-120996792D01*
X131265165Y-120996661D01*
X131271780Y-120992410D01*
X132159640Y-120104550D01*
X132166400Y-120092170D01*
X132160673Y-120084520D01*
X131975928Y-119971307D01*
X131967133Y-119966825D01*
X131749710Y-119876766D01*
X131740325Y-119873717D01*
X131511492Y-119818778D01*
X131501745Y-119817235D01*
X131267130Y-119798770D01*
X131257270Y-119798770D01*
X131022655Y-119817235D01*
X131012908Y-119818778D01*
X130784075Y-119873717D01*
X130774690Y-119876766D01*
X130557267Y-119966825D01*
X130548472Y-119971307D01*
X130367395Y-120082272D01*
X130357933Y-120092730D01*
X129626094Y-120092730D01*
X129626400Y-120092170D01*
X129620673Y-120084520D01*
X129435928Y-119971307D01*
X129427133Y-119966825D01*
X129209710Y-119876766D01*
X129200325Y-119873717D01*
X128971492Y-119818778D01*
X128961745Y-119817235D01*
X128727130Y-119798770D01*
X128717270Y-119798770D01*
X128482655Y-119817235D01*
X128472908Y-119818778D01*
X128244075Y-119873717D01*
X128234690Y-119876766D01*
X128017267Y-119966825D01*
X128008472Y-119971307D01*
X127827395Y-120082272D01*
X127817933Y-120092730D01*
X127086094Y-120092730D01*
X127086400Y-120092170D01*
X127080673Y-120084520D01*
X126895928Y-119971307D01*
X126887133Y-119966825D01*
X126669710Y-119876766D01*
X126660325Y-119873717D01*
X126431492Y-119818778D01*
X126421745Y-119817235D01*
X126187130Y-119798770D01*
X126177270Y-119798770D01*
X125942655Y-119817235D01*
X125932908Y-119818778D01*
X125704075Y-119873717D01*
X125694690Y-119876766D01*
X125477267Y-119966825D01*
X125468472Y-119971307D01*
X125294862Y-120077696D01*
X125226329Y-120096235D01*
X125158652Y-120074779D01*
X125128201Y-120045829D01*
X125060485Y-119955476D01*
X125047924Y-119942915D01*
X124945849Y-119866414D01*
X124930254Y-119857876D01*
X124809806Y-119812722D01*
X124794551Y-119809095D01*
X124743686Y-119803569D01*
X124736872Y-119803200D01*
X123914315Y-119803200D01*
X123899076Y-119807675D01*
X123897871Y-119809065D01*
X123896200Y-119816748D01*
X123896200Y-122901084D01*
X123388200Y-122901084D01*
X123388200Y-121633315D01*
X123383725Y-121618076D01*
X123382335Y-121616871D01*
X123374652Y-121615200D01*
X122102316Y-121615200D01*
X122087077Y-121619675D01*
X122085872Y-121621065D01*
X122084201Y-121628748D01*
X122084201Y-122455869D01*
X119123026Y-122455869D01*
X119216167Y-122346816D01*
X119269935Y-122283863D01*
X119269937Y-122283860D01*
X119273152Y-122280096D01*
X119279766Y-122269304D01*
X119327780Y-122190951D01*
X119401327Y-122070932D01*
X119495205Y-121844292D01*
X119515049Y-121761637D01*
X119551317Y-121610570D01*
X119551318Y-121610564D01*
X119552472Y-121605757D01*
X119571719Y-121361200D01*
X119552472Y-121116643D01*
X119549515Y-121104324D01*
X119545856Y-121089085D01*
X122084200Y-121089085D01*
X122088675Y-121104324D01*
X122090065Y-121105529D01*
X122097748Y-121107200D01*
X123370085Y-121107200D01*
X123385324Y-121102725D01*
X123386529Y-121101335D01*
X123388200Y-121093652D01*
X123388200Y-119821316D01*
X123383725Y-119806077D01*
X123382335Y-119804872D01*
X123374652Y-119803201D01*
X122547531Y-119803201D01*
X122540710Y-119803571D01*
X122489848Y-119809095D01*
X122474596Y-119812721D01*
X122354146Y-119857876D01*
X122338551Y-119866414D01*
X122236476Y-119942915D01*
X122223915Y-119955476D01*
X122147414Y-120057551D01*
X122138876Y-120073146D01*
X122093722Y-120193594D01*
X122090095Y-120208849D01*
X122084569Y-120259714D01*
X122084200Y-120266528D01*
X122084200Y-121089085D01*
X119545856Y-121089085D01*
X119496360Y-120882920D01*
X119495205Y-120878108D01*
X119401327Y-120651468D01*
X119273152Y-120442304D01*
X119229765Y-120391504D01*
X119117041Y-120259523D01*
X119113833Y-120255767D01*
X119058752Y-120208723D01*
X118931063Y-120099665D01*
X118931060Y-120099663D01*
X118927296Y-120096448D01*
X118923073Y-120093860D01*
X118923070Y-120093858D01*
X118808379Y-120023576D01*
X118718132Y-119968273D01*
X118534272Y-119892115D01*
X118496065Y-119876289D01*
X118496063Y-119876288D01*
X118491492Y-119874395D01*
X118408837Y-119854551D01*
X118257770Y-119818283D01*
X118257764Y-119818282D01*
X118252957Y-119817128D01*
X118008400Y-119797881D01*
X117763843Y-119817128D01*
X117759036Y-119818282D01*
X117759030Y-119818283D01*
X117607963Y-119854551D01*
X117525308Y-119874395D01*
X117520737Y-119876288D01*
X117520735Y-119876289D01*
X117482528Y-119892115D01*
X117298668Y-119968273D01*
X117152979Y-120057551D01*
X117120759Y-120077295D01*
X117052226Y-120095833D01*
X116984549Y-120074376D01*
X116954098Y-120045427D01*
X116886681Y-119955472D01*
X116874124Y-119942915D01*
X116772049Y-119866414D01*
X116756454Y-119857876D01*
X116636006Y-119812722D01*
X116620751Y-119809095D01*
X116569886Y-119803569D01*
X116563072Y-119803200D01*
X115740515Y-119803200D01*
X115725276Y-119807675D01*
X115724071Y-119809065D01*
X115722400Y-119816748D01*
X115722400Y-122901084D01*
X115214400Y-122901084D01*
X115214400Y-121633315D01*
X115209925Y-121618076D01*
X115208535Y-121616871D01*
X115200852Y-121615200D01*
X113928516Y-121615200D01*
X113913277Y-121619675D01*
X113912072Y-121621065D01*
X113910401Y-121628748D01*
X113910401Y-122455869D01*
X109683600Y-122455869D01*
X109672015Y-122427267D01*
X109535735Y-122194518D01*
X109417928Y-122047208D01*
X109370136Y-121987447D01*
X109370135Y-121987445D01*
X109367284Y-121983881D01*
X109170191Y-121799766D01*
X108948584Y-121646032D01*
X108944501Y-121644001D01*
X108944498Y-121643999D01*
X108811729Y-121577948D01*
X108707106Y-121525899D01*
X108702772Y-121524478D01*
X108702769Y-121524477D01*
X108455147Y-121443302D01*
X108455141Y-121443301D01*
X108450814Y-121441882D01*
X108446322Y-121441102D01*
X108188860Y-121396399D01*
X108188852Y-121396398D01*
X108185079Y-121395743D01*
X108173817Y-121395182D01*
X108101422Y-121391578D01*
X108101414Y-121391578D01*
X108099851Y-121391500D01*
X107931488Y-121391500D01*
X107929220Y-121391665D01*
X107929208Y-121391665D01*
X107798116Y-121401177D01*
X107730996Y-121406047D01*
X107726541Y-121407031D01*
X107726538Y-121407031D01*
X107472088Y-121463209D01*
X107472084Y-121463210D01*
X107467628Y-121464194D01*
X107341520Y-121511972D01*
X107219682Y-121558132D01*
X107219679Y-121558133D01*
X107215412Y-121559750D01*
X106979632Y-121690714D01*
X106765227Y-121854343D01*
X106576688Y-122047208D01*
X106417966Y-122265270D01*
X106365479Y-122365031D01*
X106294510Y-122499921D01*
X106294507Y-122499927D01*
X106292385Y-122503961D01*
X106290865Y-122508266D01*
X106290863Y-122508270D01*
X106213026Y-122728685D01*
X106202575Y-122758280D01*
X106182027Y-122862535D01*
X106171188Y-122917528D01*
X106150419Y-123022900D01*
X106150192Y-123027453D01*
X106150192Y-123027456D01*
X106140991Y-123212292D01*
X106137009Y-123292277D01*
X105008000Y-123292277D01*
X105008000Y-121089085D01*
X113910400Y-121089085D01*
X113914875Y-121104324D01*
X113916265Y-121105529D01*
X113923948Y-121107200D01*
X115196285Y-121107200D01*
X115211524Y-121102725D01*
X115212729Y-121101335D01*
X115214400Y-121093652D01*
X115214400Y-119821316D01*
X115209925Y-119806077D01*
X115208535Y-119804872D01*
X115200852Y-119803201D01*
X114373731Y-119803201D01*
X114366910Y-119803571D01*
X114316048Y-119809095D01*
X114300796Y-119812721D01*
X114180346Y-119857876D01*
X114164751Y-119866414D01*
X114062676Y-119942915D01*
X114050115Y-119955476D01*
X113973614Y-120057551D01*
X113965076Y-120073146D01*
X113919922Y-120193594D01*
X113916295Y-120208849D01*
X113910769Y-120259714D01*
X113910400Y-120266528D01*
X113910400Y-121089085D01*
X105008000Y-121089085D01*
X105008000Y-116785380D01*
X163542152Y-116785380D01*
X163566877Y-116903221D01*
X163569937Y-116913417D01*
X163650663Y-117117829D01*
X163655394Y-117127361D01*
X163769416Y-117315262D01*
X163775680Y-117323852D01*
X163919727Y-117489852D01*
X163927358Y-117497272D01*
X164097311Y-117636626D01*
X164106078Y-117642650D01*
X164297082Y-117751376D01*
X164306746Y-117755841D01*
X164513341Y-117830831D01*
X164523608Y-117833602D01*
X164726574Y-117870304D01*
X164739814Y-117868885D01*
X164744400Y-117854250D01*
X164744400Y-117850649D01*
X165252400Y-117850649D01*
X165256710Y-117865327D01*
X165268593Y-117867390D01*
X165347725Y-117860676D01*
X165358197Y-117858886D01*
X165570935Y-117803670D01*
X165580975Y-117800135D01*
X165781370Y-117709863D01*
X165790656Y-117704694D01*
X165972975Y-117581950D01*
X165981270Y-117575281D01*
X166140300Y-117423572D01*
X166147341Y-117415614D01*
X166278541Y-117239275D01*
X166284145Y-117230238D01*
X166383757Y-117034316D01*
X166387757Y-117024465D01*
X166452934Y-116814560D01*
X166455217Y-116804176D01*
X166457261Y-116788757D01*
X166455065Y-116774593D01*
X166441878Y-116770800D01*
X165270515Y-116770800D01*
X165255276Y-116775275D01*
X165254071Y-116776665D01*
X165252400Y-116784348D01*
X165252400Y-117850649D01*
X164744400Y-117850649D01*
X164744400Y-116788915D01*
X164739925Y-116773676D01*
X164738535Y-116772471D01*
X164730852Y-116770800D01*
X163557208Y-116770800D01*
X163543677Y-116774773D01*
X163542152Y-116785380D01*
X105008000Y-116785380D01*
X105008000Y-115671600D01*
X120295296Y-115671600D01*
X120295986Y-115678165D01*
X120309145Y-115803362D01*
X120315258Y-115861528D01*
X120374273Y-116043156D01*
X120469760Y-116208544D01*
X120474178Y-116213451D01*
X120474179Y-116213452D01*
X120488560Y-116229424D01*
X120597547Y-116350466D01*
X120752048Y-116462718D01*
X120758076Y-116465402D01*
X120758078Y-116465403D01*
X120920481Y-116537709D01*
X120926512Y-116540394D01*
X121019912Y-116560247D01*
X121106856Y-116578728D01*
X121106861Y-116578728D01*
X121113313Y-116580100D01*
X121304287Y-116580100D01*
X121310739Y-116578728D01*
X121310744Y-116578728D01*
X121397688Y-116560247D01*
X121491088Y-116540394D01*
X121497119Y-116537709D01*
X121659522Y-116465403D01*
X121659524Y-116465402D01*
X121665552Y-116462718D01*
X121820053Y-116350466D01*
X121929040Y-116229424D01*
X121943421Y-116213452D01*
X121943422Y-116213451D01*
X121947840Y-116208544D01*
X122043327Y-116043156D01*
X122102342Y-115861528D01*
X122108456Y-115803362D01*
X122121614Y-115678165D01*
X122122304Y-115671600D01*
X122115833Y-115610028D01*
X122103032Y-115488235D01*
X122103032Y-115488233D01*
X122102342Y-115481672D01*
X122043327Y-115300044D01*
X121947840Y-115134656D01*
X121898051Y-115079359D01*
X121824475Y-114997645D01*
X121824474Y-114997644D01*
X121820053Y-114992734D01*
X121665552Y-114880482D01*
X121659524Y-114877798D01*
X121659522Y-114877797D01*
X121497119Y-114805491D01*
X121497118Y-114805491D01*
X121491088Y-114802806D01*
X121397688Y-114782953D01*
X121310744Y-114764472D01*
X121310739Y-114764472D01*
X121304287Y-114763100D01*
X121113313Y-114763100D01*
X121106861Y-114764472D01*
X121106856Y-114764472D01*
X121019912Y-114782953D01*
X120926512Y-114802806D01*
X120920482Y-114805491D01*
X120920481Y-114805491D01*
X120758078Y-114877797D01*
X120758076Y-114877798D01*
X120752048Y-114880482D01*
X120597547Y-114992734D01*
X120593126Y-114997644D01*
X120593125Y-114997645D01*
X120519550Y-115079359D01*
X120469760Y-115134656D01*
X120374273Y-115300044D01*
X120315258Y-115481672D01*
X120314568Y-115488233D01*
X120314568Y-115488235D01*
X120301767Y-115610028D01*
X120295296Y-115671600D01*
X105008000Y-115671600D01*
X105008000Y-113616669D01*
X108830401Y-113616669D01*
X108830771Y-113623490D01*
X108836295Y-113674352D01*
X108839921Y-113689604D01*
X108885076Y-113810054D01*
X108893614Y-113825649D01*
X108970115Y-113927724D01*
X108982676Y-113940285D01*
X109084751Y-114016786D01*
X109100346Y-114025324D01*
X109220794Y-114070478D01*
X109236049Y-114074105D01*
X109286914Y-114079631D01*
X109293728Y-114080000D01*
X110116285Y-114080000D01*
X110131524Y-114075525D01*
X110132729Y-114074135D01*
X110134400Y-114066452D01*
X110134400Y-114061884D01*
X110642400Y-114061884D01*
X110646875Y-114077123D01*
X110648265Y-114078328D01*
X110655948Y-114079999D01*
X111483069Y-114079999D01*
X111489890Y-114079629D01*
X111540752Y-114074105D01*
X111556004Y-114070479D01*
X111676454Y-114025324D01*
X111692049Y-114016786D01*
X111777727Y-113952574D01*
X163511502Y-113952574D01*
X163520151Y-114182958D01*
X163567493Y-114408591D01*
X163652176Y-114623021D01*
X163771777Y-114820117D01*
X163775274Y-114824147D01*
X163861838Y-114923903D01*
X163922877Y-114994245D01*
X163927008Y-114997632D01*
X164097027Y-115137040D01*
X164097033Y-115137044D01*
X164101155Y-115140424D01*
X164105798Y-115143067D01*
X164133135Y-115158629D01*
X164182441Y-115209712D01*
X164196302Y-115279342D01*
X164170318Y-115345413D01*
X164141168Y-115372651D01*
X164023822Y-115451652D01*
X164015530Y-115458319D01*
X163856500Y-115610028D01*
X163849459Y-115617986D01*
X163718259Y-115794325D01*
X163712655Y-115803362D01*
X163613043Y-115999284D01*
X163609043Y-116009135D01*
X163543866Y-116219040D01*
X163541583Y-116229424D01*
X163539539Y-116244843D01*
X163541735Y-116259007D01*
X163554922Y-116262800D01*
X166439592Y-116262800D01*
X166453123Y-116258827D01*
X166454648Y-116248220D01*
X166429923Y-116130379D01*
X166426863Y-116120183D01*
X166346137Y-115915771D01*
X166341406Y-115906239D01*
X166227384Y-115718338D01*
X166221120Y-115709748D01*
X166077073Y-115543748D01*
X166069442Y-115536328D01*
X165899489Y-115396974D01*
X165890726Y-115390952D01*
X165863689Y-115375562D01*
X165814382Y-115324480D01*
X165800520Y-115254849D01*
X165826503Y-115188778D01*
X165855653Y-115161539D01*
X165908932Y-115125669D01*
X165977719Y-115079359D01*
X166144535Y-114920224D01*
X166282154Y-114735258D01*
X166386640Y-114529749D01*
X166422721Y-114413552D01*
X166453424Y-114314671D01*
X166455007Y-114309573D01*
X166455708Y-114304284D01*
X166484598Y-114086311D01*
X166484598Y-114086306D01*
X166485298Y-114081026D01*
X166485092Y-114075525D01*
X166476849Y-113855973D01*
X166476649Y-113850642D01*
X166429307Y-113625009D01*
X166426015Y-113616672D01*
X166346585Y-113415544D01*
X166346584Y-113415542D01*
X166344624Y-113410579D01*
X166225023Y-113213483D01*
X166138155Y-113113376D01*
X166077423Y-113043388D01*
X166077421Y-113043386D01*
X166073923Y-113039355D01*
X166032370Y-113005284D01*
X165899773Y-112896560D01*
X165899767Y-112896556D01*
X165895645Y-112893176D01*
X165864150Y-112875248D01*
X165814845Y-112824168D01*
X165800983Y-112754538D01*
X165826966Y-112688467D01*
X165856116Y-112661227D01*
X165892042Y-112637040D01*
X165977719Y-112579359D01*
X166144535Y-112420224D01*
X166282154Y-112235258D01*
X166291819Y-112216250D01*
X166365732Y-112070872D01*
X166386640Y-112029749D01*
X166422721Y-111913552D01*
X166453424Y-111814671D01*
X166455007Y-111809573D01*
X166469402Y-111700961D01*
X166484598Y-111586311D01*
X166484598Y-111586306D01*
X166485298Y-111581026D01*
X166483958Y-111545319D01*
X166477561Y-111374927D01*
X166476649Y-111350642D01*
X166429307Y-111125009D01*
X166420899Y-111103719D01*
X166346585Y-110915544D01*
X166346584Y-110915542D01*
X166344624Y-110910579D01*
X166288715Y-110818443D01*
X166227790Y-110718043D01*
X166225023Y-110713483D01*
X166138155Y-110613376D01*
X166077423Y-110543388D01*
X166077421Y-110543386D01*
X166073923Y-110539355D01*
X166038280Y-110510130D01*
X165998286Y-110451471D01*
X165996354Y-110380501D01*
X166033098Y-110319752D01*
X166051868Y-110305552D01*
X166191520Y-110219132D01*
X166197748Y-110215278D01*
X166322705Y-110090103D01*
X166415515Y-109939538D01*
X166452361Y-109828449D01*
X166469032Y-109778189D01*
X166469032Y-109778187D01*
X166471197Y-109771661D01*
X166474198Y-109742377D01*
X166481572Y-109670398D01*
X166481900Y-109667200D01*
X166481900Y-108366400D01*
X166481329Y-108360896D01*
X166471638Y-108267492D01*
X166471637Y-108267488D01*
X166470926Y-108260634D01*
X166414950Y-108092854D01*
X166321878Y-107942452D01*
X166196703Y-107817495D01*
X166190472Y-107813654D01*
X166052368Y-107728525D01*
X166052366Y-107728524D01*
X166046138Y-107724685D01*
X165945346Y-107691254D01*
X165884789Y-107671168D01*
X165884787Y-107671168D01*
X165878261Y-107669003D01*
X165871425Y-107668303D01*
X165871422Y-107668302D01*
X165828369Y-107663891D01*
X165773800Y-107658300D01*
X164223000Y-107658300D01*
X164219754Y-107658637D01*
X164219750Y-107658637D01*
X164124092Y-107668562D01*
X164124088Y-107668563D01*
X164117234Y-107669274D01*
X164110698Y-107671455D01*
X164110696Y-107671455D01*
X164051352Y-107691254D01*
X163949454Y-107725250D01*
X163799052Y-107818322D01*
X163674095Y-107943497D01*
X163670255Y-107949727D01*
X163670254Y-107949728D01*
X163645958Y-107989144D01*
X163581285Y-108094062D01*
X163554836Y-108173805D01*
X163546609Y-108198609D01*
X163525603Y-108261939D01*
X163524903Y-108268775D01*
X163524902Y-108268778D01*
X163520491Y-108311831D01*
X163514900Y-108366400D01*
X163514900Y-109667200D01*
X163515237Y-109670446D01*
X163515237Y-109670450D01*
X163521890Y-109734565D01*
X163525874Y-109772966D01*
X163528055Y-109779502D01*
X163528055Y-109779504D01*
X163560383Y-109876401D01*
X163581850Y-109940746D01*
X163674922Y-110091148D01*
X163800097Y-110216105D01*
X163945740Y-110305881D01*
X163993232Y-110358652D01*
X164004656Y-110428724D01*
X163976382Y-110493848D01*
X163966595Y-110504310D01*
X163948258Y-110521803D01*
X163852265Y-110613376D01*
X163714646Y-110798342D01*
X163712230Y-110803093D01*
X163712228Y-110803097D01*
X163695296Y-110836400D01*
X163610160Y-111003851D01*
X163608578Y-111008945D01*
X163608577Y-111008948D01*
X163546515Y-111208820D01*
X163541793Y-111224027D01*
X163541092Y-111229316D01*
X163514848Y-111427331D01*
X163511502Y-111452574D01*
X163520151Y-111682958D01*
X163567493Y-111908591D01*
X163569451Y-111913550D01*
X163569452Y-111913552D01*
X163602476Y-111997172D01*
X163652176Y-112123021D01*
X163771777Y-112320117D01*
X163775274Y-112324147D01*
X163874875Y-112438927D01*
X163922877Y-112494245D01*
X163927008Y-112497632D01*
X164097027Y-112637040D01*
X164097033Y-112637044D01*
X164101155Y-112640424D01*
X164132650Y-112658352D01*
X164181955Y-112709432D01*
X164195817Y-112779062D01*
X164169834Y-112845133D01*
X164140684Y-112872373D01*
X164019081Y-112954241D01*
X163852265Y-113113376D01*
X163714646Y-113298342D01*
X163610160Y-113503851D01*
X163608578Y-113508945D01*
X163608577Y-113508948D01*
X163557218Y-113674351D01*
X163541793Y-113724027D01*
X163541092Y-113729316D01*
X163513131Y-113940285D01*
X163511502Y-113952574D01*
X111777727Y-113952574D01*
X111794124Y-113940285D01*
X111806685Y-113927724D01*
X111883186Y-113825649D01*
X111891724Y-113810054D01*
X111936878Y-113689606D01*
X111940505Y-113674351D01*
X111946031Y-113623486D01*
X111946400Y-113616672D01*
X111946400Y-112794115D01*
X111941925Y-112778876D01*
X111940535Y-112777671D01*
X111932852Y-112776000D01*
X110660515Y-112776000D01*
X110645276Y-112780475D01*
X110644071Y-112781865D01*
X110642400Y-112789548D01*
X110642400Y-114061884D01*
X110134400Y-114061884D01*
X110134400Y-112794115D01*
X110129925Y-112778876D01*
X110128535Y-112777671D01*
X110120852Y-112776000D01*
X108848516Y-112776000D01*
X108833277Y-112780475D01*
X108832072Y-112781865D01*
X108830401Y-112789548D01*
X108830401Y-113616669D01*
X105008000Y-113616669D01*
X105008000Y-109982000D01*
X108825081Y-109982000D01*
X108844328Y-110226557D01*
X108845482Y-110231364D01*
X108845483Y-110231370D01*
X108864100Y-110308915D01*
X108901595Y-110465092D01*
X108995473Y-110691732D01*
X109081801Y-110832607D01*
X109104495Y-110869641D01*
X109123033Y-110938174D01*
X109101576Y-111005851D01*
X109072627Y-111036302D01*
X108982672Y-111103719D01*
X108970115Y-111116276D01*
X108893614Y-111218351D01*
X108885076Y-111233946D01*
X108839922Y-111354394D01*
X108836295Y-111369649D01*
X108830769Y-111420514D01*
X108830400Y-111427328D01*
X108830400Y-112249885D01*
X108834875Y-112265124D01*
X108836265Y-112266329D01*
X108843948Y-112268000D01*
X111928284Y-112268000D01*
X111943523Y-112263525D01*
X111944728Y-112262135D01*
X111946399Y-112254452D01*
X111946399Y-111427331D01*
X111946029Y-111420510D01*
X111940505Y-111369648D01*
X111937969Y-111358980D01*
X153449952Y-111358980D01*
X153474677Y-111476821D01*
X153477737Y-111487017D01*
X153558463Y-111691429D01*
X153563194Y-111700961D01*
X153677216Y-111888862D01*
X153683480Y-111897452D01*
X153827527Y-112063452D01*
X153835158Y-112070872D01*
X154005111Y-112210226D01*
X154013878Y-112216250D01*
X154204882Y-112324976D01*
X154214546Y-112329441D01*
X154421141Y-112404431D01*
X154431408Y-112407202D01*
X154634374Y-112443904D01*
X154647614Y-112442485D01*
X154652200Y-112427850D01*
X154652200Y-112424249D01*
X155160200Y-112424249D01*
X155164510Y-112438927D01*
X155176393Y-112440990D01*
X155255525Y-112434276D01*
X155265997Y-112432486D01*
X155478735Y-112377270D01*
X155488775Y-112373735D01*
X155689170Y-112283463D01*
X155698456Y-112278294D01*
X155880775Y-112155550D01*
X155889070Y-112148881D01*
X156048100Y-111997172D01*
X156055141Y-111989214D01*
X156186341Y-111812875D01*
X156191945Y-111803838D01*
X156291557Y-111607916D01*
X156295557Y-111598065D01*
X156360734Y-111388160D01*
X156363017Y-111377776D01*
X156365061Y-111362357D01*
X156362865Y-111348193D01*
X156349678Y-111344400D01*
X155178315Y-111344400D01*
X155163076Y-111348875D01*
X155161871Y-111350265D01*
X155160200Y-111357948D01*
X155160200Y-112424249D01*
X154652200Y-112424249D01*
X154652200Y-111362515D01*
X154647725Y-111347276D01*
X154646335Y-111346071D01*
X154638652Y-111344400D01*
X153465008Y-111344400D01*
X153451477Y-111348373D01*
X153449952Y-111358980D01*
X111937969Y-111358980D01*
X111936879Y-111354396D01*
X111891724Y-111233946D01*
X111883186Y-111218351D01*
X111806685Y-111116276D01*
X111794128Y-111103719D01*
X111704173Y-111036302D01*
X111661658Y-110979442D01*
X111656632Y-110908624D01*
X111672305Y-110869641D01*
X111694999Y-110832607D01*
X111781327Y-110691732D01*
X111875205Y-110465092D01*
X111912700Y-110308915D01*
X111931317Y-110231370D01*
X111931318Y-110231364D01*
X111932472Y-110226557D01*
X111951719Y-109982000D01*
X111932472Y-109737443D01*
X111931221Y-109732229D01*
X111918010Y-109677200D01*
X126086496Y-109677200D01*
X126087186Y-109683765D01*
X126097481Y-109781712D01*
X126106458Y-109867128D01*
X126165473Y-110048756D01*
X126260960Y-110214144D01*
X126265378Y-110219051D01*
X126265379Y-110219052D01*
X126323271Y-110283348D01*
X126388747Y-110356066D01*
X126487843Y-110428064D01*
X126532185Y-110460280D01*
X126543248Y-110468318D01*
X126549276Y-110471002D01*
X126549278Y-110471003D01*
X126702800Y-110539355D01*
X126717712Y-110545994D01*
X126811112Y-110565847D01*
X126898056Y-110584328D01*
X126898061Y-110584328D01*
X126904513Y-110585700D01*
X127095487Y-110585700D01*
X127101939Y-110584328D01*
X127101944Y-110584328D01*
X127188888Y-110565847D01*
X127282288Y-110545994D01*
X127297200Y-110539355D01*
X127450722Y-110471003D01*
X127450724Y-110471002D01*
X127456752Y-110468318D01*
X127467816Y-110460280D01*
X127512157Y-110428064D01*
X127611253Y-110356066D01*
X127676729Y-110283348D01*
X127734621Y-110219052D01*
X127734622Y-110219051D01*
X127739040Y-110214144D01*
X127834527Y-110048756D01*
X127893542Y-109867128D01*
X127902520Y-109781712D01*
X127908165Y-109728000D01*
X129236096Y-109728000D01*
X129236786Y-109734565D01*
X129251379Y-109873406D01*
X129256058Y-109917928D01*
X129315073Y-110099556D01*
X129410560Y-110264944D01*
X129414978Y-110269851D01*
X129414979Y-110269852D01*
X129494935Y-110358652D01*
X129538347Y-110406866D01*
X129568432Y-110428724D01*
X129680479Y-110510131D01*
X129692848Y-110519118D01*
X129698876Y-110521802D01*
X129698878Y-110521803D01*
X129842394Y-110585700D01*
X129867312Y-110596794D01*
X129928016Y-110609697D01*
X130047656Y-110635128D01*
X130047661Y-110635128D01*
X130054113Y-110636500D01*
X130245087Y-110636500D01*
X130251539Y-110635128D01*
X130251544Y-110635128D01*
X130371184Y-110609697D01*
X130431888Y-110596794D01*
X130456806Y-110585700D01*
X130600322Y-110521803D01*
X130600324Y-110521802D01*
X130606352Y-110519118D01*
X130618722Y-110510131D01*
X130730768Y-110428724D01*
X130760853Y-110406866D01*
X130804265Y-110358652D01*
X130884221Y-110269852D01*
X130884222Y-110269851D01*
X130888640Y-110264944D01*
X130984127Y-110099556D01*
X131043142Y-109917928D01*
X131047822Y-109873406D01*
X131062414Y-109734565D01*
X131063104Y-109728000D01*
X131056376Y-109663983D01*
X131043832Y-109544635D01*
X131043832Y-109544633D01*
X131043142Y-109538072D01*
X130984127Y-109356444D01*
X130888640Y-109191056D01*
X130838481Y-109135348D01*
X130765275Y-109054045D01*
X130765274Y-109054044D01*
X130760853Y-109049134D01*
X130606352Y-108936882D01*
X130600324Y-108934198D01*
X130600322Y-108934197D01*
X130437919Y-108861891D01*
X130437918Y-108861891D01*
X130431888Y-108859206D01*
X130338488Y-108839353D01*
X130251544Y-108820872D01*
X130251539Y-108820872D01*
X130245087Y-108819500D01*
X130054113Y-108819500D01*
X130047661Y-108820872D01*
X130047656Y-108820872D01*
X129960713Y-108839353D01*
X129867312Y-108859206D01*
X129861282Y-108861891D01*
X129861281Y-108861891D01*
X129698878Y-108934197D01*
X129698876Y-108934198D01*
X129692848Y-108936882D01*
X129538347Y-109049134D01*
X129533926Y-109054044D01*
X129533925Y-109054045D01*
X129460720Y-109135348D01*
X129410560Y-109191056D01*
X129315073Y-109356444D01*
X129256058Y-109538072D01*
X129255368Y-109544633D01*
X129255368Y-109544635D01*
X129242824Y-109663983D01*
X129236096Y-109728000D01*
X127908165Y-109728000D01*
X127912814Y-109683765D01*
X127913504Y-109677200D01*
X127910569Y-109649278D01*
X127894232Y-109493835D01*
X127894232Y-109493833D01*
X127893542Y-109487272D01*
X127834527Y-109305644D01*
X127817897Y-109276839D01*
X127742341Y-109145974D01*
X127739040Y-109140256D01*
X127701220Y-109098252D01*
X127615675Y-109003245D01*
X127615674Y-109003244D01*
X127611253Y-108998334D01*
X127456752Y-108886082D01*
X127450724Y-108883398D01*
X127450722Y-108883397D01*
X127288319Y-108811091D01*
X127288318Y-108811091D01*
X127282288Y-108808406D01*
X127188887Y-108788553D01*
X127101944Y-108770072D01*
X127101939Y-108770072D01*
X127095487Y-108768700D01*
X126904513Y-108768700D01*
X126898061Y-108770072D01*
X126898056Y-108770072D01*
X126811113Y-108788553D01*
X126717712Y-108808406D01*
X126711682Y-108811091D01*
X126711681Y-108811091D01*
X126549278Y-108883397D01*
X126549276Y-108883398D01*
X126543248Y-108886082D01*
X126388747Y-108998334D01*
X126384326Y-109003244D01*
X126384325Y-109003245D01*
X126298781Y-109098252D01*
X126260960Y-109140256D01*
X126257659Y-109145974D01*
X126182104Y-109276839D01*
X126165473Y-109305644D01*
X126106458Y-109487272D01*
X126105768Y-109493833D01*
X126105768Y-109493835D01*
X126089431Y-109649278D01*
X126086496Y-109677200D01*
X111918010Y-109677200D01*
X111876360Y-109503720D01*
X111875205Y-109498908D01*
X111781327Y-109272268D01*
X111653152Y-109063104D01*
X111641221Y-109049134D01*
X111497041Y-108880323D01*
X111493833Y-108876567D01*
X111417171Y-108811091D01*
X111413331Y-108807811D01*
X111374522Y-108748360D01*
X111374016Y-108677365D01*
X111413331Y-108616189D01*
X111490077Y-108550641D01*
X111493833Y-108547433D01*
X111511990Y-108526174D01*
X153419302Y-108526174D01*
X153419502Y-108531503D01*
X153419502Y-108531505D01*
X153422681Y-108616189D01*
X153427951Y-108756558D01*
X153475293Y-108982191D01*
X153477251Y-108987150D01*
X153477252Y-108987152D01*
X153505760Y-109059337D01*
X153559976Y-109196621D01*
X153562743Y-109201180D01*
X153562744Y-109201183D01*
X153622660Y-109299921D01*
X153679577Y-109393717D01*
X153683074Y-109397747D01*
X153799394Y-109531794D01*
X153830677Y-109567845D01*
X153834808Y-109571232D01*
X154004827Y-109710640D01*
X154004833Y-109710644D01*
X154008955Y-109714024D01*
X154013598Y-109716667D01*
X154040935Y-109732229D01*
X154090241Y-109783312D01*
X154104102Y-109852942D01*
X154078118Y-109919013D01*
X154048968Y-109946251D01*
X153931622Y-110025252D01*
X153923330Y-110031919D01*
X153764300Y-110183628D01*
X153757259Y-110191586D01*
X153626059Y-110367925D01*
X153620455Y-110376962D01*
X153520843Y-110572884D01*
X153516843Y-110582735D01*
X153451666Y-110792640D01*
X153449383Y-110803024D01*
X153447339Y-110818443D01*
X153449535Y-110832607D01*
X153462722Y-110836400D01*
X156347392Y-110836400D01*
X156360923Y-110832427D01*
X156362448Y-110821820D01*
X156337723Y-110703979D01*
X156334663Y-110693783D01*
X156253937Y-110489371D01*
X156249206Y-110479839D01*
X156135184Y-110291938D01*
X156128920Y-110283348D01*
X155984873Y-110117348D01*
X155977242Y-110109928D01*
X155807289Y-109970574D01*
X155798526Y-109964552D01*
X155771489Y-109949162D01*
X155722182Y-109898080D01*
X155708320Y-109828449D01*
X155734303Y-109762378D01*
X155763453Y-109735139D01*
X155849512Y-109677200D01*
X155885519Y-109652959D01*
X156052335Y-109493824D01*
X156189954Y-109308858D01*
X156206234Y-109276839D01*
X156249542Y-109191656D01*
X156294440Y-109103349D01*
X156305625Y-109067330D01*
X156361224Y-108888271D01*
X156362807Y-108883173D01*
X156372361Y-108811091D01*
X156392398Y-108659911D01*
X156392398Y-108659906D01*
X156393098Y-108654626D01*
X156384449Y-108424242D01*
X156337107Y-108198609D01*
X156335148Y-108193648D01*
X156254385Y-107989144D01*
X156254384Y-107989142D01*
X156252424Y-107984179D01*
X156227104Y-107942452D01*
X156135590Y-107791643D01*
X156132823Y-107787083D01*
X156045955Y-107686976D01*
X155985223Y-107616988D01*
X155985221Y-107616986D01*
X155981723Y-107612955D01*
X155940170Y-107578884D01*
X155807573Y-107470160D01*
X155807567Y-107470156D01*
X155803445Y-107466776D01*
X155771950Y-107448848D01*
X155722645Y-107397768D01*
X155708783Y-107328138D01*
X155734766Y-107262067D01*
X155763916Y-107234827D01*
X155799842Y-107210640D01*
X155885519Y-107152959D01*
X156052335Y-106993824D01*
X156189954Y-106808858D01*
X156294440Y-106603349D01*
X156330521Y-106487152D01*
X156361224Y-106388271D01*
X156362807Y-106383173D01*
X156378097Y-106267811D01*
X156392398Y-106159911D01*
X156392398Y-106159906D01*
X156393098Y-106154626D01*
X156384449Y-105924242D01*
X156337107Y-105698609D01*
X156331862Y-105685327D01*
X156254385Y-105489144D01*
X156254384Y-105489142D01*
X156252424Y-105484179D01*
X156212831Y-105418931D01*
X156135590Y-105291643D01*
X156132823Y-105287083D01*
X156124955Y-105278016D01*
X155985223Y-105116988D01*
X155985221Y-105116986D01*
X155981723Y-105112955D01*
X155946080Y-105083730D01*
X155906086Y-105025071D01*
X155904154Y-104954101D01*
X155940898Y-104893352D01*
X155959668Y-104879152D01*
X156099320Y-104792732D01*
X156105548Y-104788878D01*
X156230505Y-104663703D01*
X156237331Y-104652630D01*
X156319475Y-104519368D01*
X156319476Y-104519366D01*
X156323315Y-104513138D01*
X156378997Y-104345261D01*
X156389700Y-104240800D01*
X156389700Y-102940000D01*
X156386493Y-102909089D01*
X156379438Y-102841092D01*
X156379437Y-102841088D01*
X156378726Y-102834234D01*
X156350066Y-102748328D01*
X156325068Y-102673402D01*
X156322750Y-102666454D01*
X156289164Y-102612180D01*
X163542152Y-102612180D01*
X163566877Y-102730021D01*
X163569937Y-102740217D01*
X163650663Y-102944629D01*
X163655394Y-102954161D01*
X163769416Y-103142062D01*
X163775680Y-103150652D01*
X163919727Y-103316652D01*
X163927358Y-103324072D01*
X164097311Y-103463426D01*
X164106078Y-103469450D01*
X164297082Y-103578176D01*
X164306746Y-103582641D01*
X164513341Y-103657631D01*
X164523608Y-103660402D01*
X164726574Y-103697104D01*
X164739814Y-103695685D01*
X164744400Y-103681050D01*
X164744400Y-103677449D01*
X165252400Y-103677449D01*
X165256710Y-103692127D01*
X165268593Y-103694190D01*
X165347725Y-103687476D01*
X165358197Y-103685686D01*
X165570935Y-103630470D01*
X165580975Y-103626935D01*
X165781370Y-103536663D01*
X165790656Y-103531494D01*
X165972975Y-103408750D01*
X165981270Y-103402081D01*
X166140300Y-103250372D01*
X166147341Y-103242414D01*
X166278541Y-103066075D01*
X166284145Y-103057038D01*
X166383757Y-102861116D01*
X166387757Y-102851265D01*
X166452934Y-102641360D01*
X166455217Y-102630976D01*
X166457261Y-102615557D01*
X166455065Y-102601393D01*
X166441878Y-102597600D01*
X165270515Y-102597600D01*
X165255276Y-102602075D01*
X165254071Y-102603465D01*
X165252400Y-102611148D01*
X165252400Y-103677449D01*
X164744400Y-103677449D01*
X164744400Y-102615715D01*
X164739925Y-102600476D01*
X164738535Y-102599271D01*
X164730852Y-102597600D01*
X163557208Y-102597600D01*
X163543677Y-102601573D01*
X163542152Y-102612180D01*
X156289164Y-102612180D01*
X156229678Y-102516052D01*
X156104503Y-102391095D01*
X156098272Y-102387254D01*
X155960168Y-102302125D01*
X155960166Y-102302124D01*
X155953938Y-102298285D01*
X155793454Y-102245055D01*
X155792589Y-102244768D01*
X155792587Y-102244768D01*
X155786061Y-102242603D01*
X155779225Y-102241903D01*
X155779222Y-102241902D01*
X155736169Y-102237491D01*
X155681600Y-102231900D01*
X154130800Y-102231900D01*
X154127554Y-102232237D01*
X154127550Y-102232237D01*
X154031892Y-102242162D01*
X154031888Y-102242163D01*
X154025034Y-102242874D01*
X154018498Y-102245055D01*
X154018496Y-102245055D01*
X153886394Y-102289128D01*
X153857254Y-102298850D01*
X153706852Y-102391922D01*
X153581895Y-102517097D01*
X153578055Y-102523327D01*
X153578054Y-102523328D01*
X153511699Y-102630976D01*
X153489085Y-102667662D01*
X153433403Y-102835539D01*
X153432703Y-102842375D01*
X153432702Y-102842378D01*
X153428291Y-102885431D01*
X153422700Y-102940000D01*
X153422700Y-104240800D01*
X153433674Y-104346566D01*
X153435855Y-104353102D01*
X153435855Y-104353104D01*
X153457809Y-104418908D01*
X153489650Y-104514346D01*
X153582722Y-104664748D01*
X153707897Y-104789705D01*
X153853540Y-104879481D01*
X153901032Y-104932252D01*
X153912456Y-105002324D01*
X153884182Y-105067448D01*
X153874395Y-105077910D01*
X153847327Y-105103732D01*
X153760065Y-105186976D01*
X153622446Y-105371942D01*
X153620030Y-105376693D01*
X153620028Y-105376697D01*
X153577673Y-105460004D01*
X153517960Y-105577451D01*
X153516378Y-105582545D01*
X153516377Y-105582548D01*
X153476791Y-105710035D01*
X153449593Y-105797627D01*
X153448892Y-105802916D01*
X153421361Y-106010641D01*
X153419302Y-106026174D01*
X153427951Y-106256558D01*
X153475293Y-106482191D01*
X153559976Y-106696621D01*
X153679577Y-106893717D01*
X153683074Y-106897747D01*
X153769638Y-106997503D01*
X153830677Y-107067845D01*
X153834808Y-107071232D01*
X154004827Y-107210640D01*
X154004833Y-107210644D01*
X154008955Y-107214024D01*
X154040450Y-107231952D01*
X154089755Y-107283032D01*
X154103617Y-107352662D01*
X154077634Y-107418733D01*
X154048484Y-107445973D01*
X153926881Y-107527841D01*
X153760065Y-107686976D01*
X153622446Y-107871942D01*
X153620030Y-107876693D01*
X153620028Y-107876697D01*
X153583430Y-107948680D01*
X153517960Y-108077451D01*
X153516378Y-108082545D01*
X153516377Y-108082548D01*
X153458950Y-108267492D01*
X153449593Y-108297627D01*
X153448892Y-108302916D01*
X153433504Y-108419023D01*
X153419302Y-108526174D01*
X111511990Y-108526174D01*
X111599049Y-108424242D01*
X111649935Y-108364663D01*
X111649937Y-108364660D01*
X111653152Y-108360896D01*
X111781327Y-108151732D01*
X111852620Y-107979617D01*
X111873311Y-107929665D01*
X111873312Y-107929663D01*
X111875205Y-107925092D01*
X111908338Y-107787083D01*
X111931317Y-107691370D01*
X111931318Y-107691364D01*
X111932472Y-107686557D01*
X111951719Y-107442000D01*
X111932472Y-107197443D01*
X111921793Y-107152959D01*
X111884471Y-106997503D01*
X111875205Y-106958908D01*
X111781327Y-106732268D01*
X111653152Y-106523104D01*
X111493833Y-106336567D01*
X111413331Y-106267811D01*
X111374522Y-106208360D01*
X111374016Y-106137365D01*
X111413331Y-106076189D01*
X111490077Y-106010641D01*
X111493833Y-106007433D01*
X111541066Y-105952131D01*
X111649935Y-105824663D01*
X111649937Y-105824660D01*
X111653152Y-105820896D01*
X111661508Y-105807261D01*
X111731129Y-105693648D01*
X111781327Y-105611732D01*
X111868599Y-105401041D01*
X111873311Y-105389665D01*
X111873312Y-105389663D01*
X111874386Y-105387069D01*
X116851801Y-105387069D01*
X116852171Y-105393890D01*
X116857695Y-105444752D01*
X116861321Y-105460004D01*
X116906476Y-105580454D01*
X116915014Y-105596049D01*
X116991515Y-105698124D01*
X117004076Y-105710685D01*
X117106151Y-105787186D01*
X117121746Y-105795724D01*
X117242194Y-105840878D01*
X117257449Y-105844505D01*
X117308314Y-105850031D01*
X117315128Y-105850400D01*
X118137685Y-105850400D01*
X118152924Y-105845925D01*
X118154129Y-105844535D01*
X118155800Y-105836852D01*
X118155800Y-105832284D01*
X118663800Y-105832284D01*
X118668275Y-105847523D01*
X118669665Y-105848728D01*
X118677348Y-105850399D01*
X119504469Y-105850399D01*
X119511290Y-105850029D01*
X119562152Y-105844505D01*
X119577404Y-105840879D01*
X119697854Y-105795724D01*
X119713449Y-105787186D01*
X119815524Y-105710685D01*
X119828081Y-105698128D01*
X119895498Y-105608173D01*
X119952358Y-105565658D01*
X120023176Y-105560632D01*
X120062159Y-105576305D01*
X120240068Y-105685327D01*
X120384767Y-105745264D01*
X120462135Y-105777311D01*
X120462137Y-105777312D01*
X120466708Y-105779205D01*
X120522207Y-105792529D01*
X120700430Y-105835317D01*
X120700436Y-105835318D01*
X120705243Y-105836472D01*
X120949800Y-105855719D01*
X121194357Y-105836472D01*
X121199164Y-105835318D01*
X121199170Y-105835317D01*
X121377393Y-105792529D01*
X121432892Y-105779205D01*
X121437463Y-105777312D01*
X121437465Y-105777311D01*
X121514833Y-105745264D01*
X121659532Y-105685327D01*
X121795285Y-105602138D01*
X121864470Y-105559742D01*
X121864473Y-105559740D01*
X121868696Y-105557152D01*
X121940674Y-105495677D01*
X122051477Y-105401041D01*
X122055233Y-105397833D01*
X122123989Y-105317331D01*
X122183440Y-105278522D01*
X122254435Y-105278016D01*
X122315611Y-105317331D01*
X122384367Y-105397833D01*
X122388123Y-105401041D01*
X122498927Y-105495677D01*
X122570904Y-105557152D01*
X122575127Y-105559740D01*
X122575130Y-105559742D01*
X122644315Y-105602138D01*
X122780068Y-105685327D01*
X122924767Y-105745264D01*
X123002135Y-105777311D01*
X123002137Y-105777312D01*
X123006708Y-105779205D01*
X123062207Y-105792529D01*
X123240430Y-105835317D01*
X123240436Y-105835318D01*
X123245243Y-105836472D01*
X123489800Y-105855719D01*
X123734357Y-105836472D01*
X123739164Y-105835318D01*
X123739170Y-105835317D01*
X123917393Y-105792529D01*
X123972892Y-105779205D01*
X123977463Y-105777312D01*
X123977465Y-105777311D01*
X124054833Y-105745264D01*
X124199532Y-105685327D01*
X124335285Y-105602138D01*
X124404470Y-105559742D01*
X124404473Y-105559740D01*
X124408696Y-105557152D01*
X124480674Y-105495677D01*
X124591477Y-105401041D01*
X124595233Y-105397833D01*
X124663989Y-105317331D01*
X124723440Y-105278522D01*
X124794435Y-105278016D01*
X124855611Y-105317331D01*
X124924367Y-105397833D01*
X124928123Y-105401041D01*
X125038927Y-105495677D01*
X125110904Y-105557152D01*
X125115127Y-105559740D01*
X125115130Y-105559742D01*
X125184315Y-105602138D01*
X125320068Y-105685327D01*
X125464767Y-105745264D01*
X125542135Y-105777311D01*
X125542137Y-105777312D01*
X125546708Y-105779205D01*
X125602207Y-105792529D01*
X125780430Y-105835317D01*
X125780436Y-105835318D01*
X125785243Y-105836472D01*
X126029800Y-105855719D01*
X126274357Y-105836472D01*
X126279164Y-105835318D01*
X126279170Y-105835317D01*
X126457393Y-105792529D01*
X126512892Y-105779205D01*
X126517463Y-105777312D01*
X126517465Y-105777311D01*
X126594833Y-105745264D01*
X126739532Y-105685327D01*
X126875285Y-105602138D01*
X126944470Y-105559742D01*
X126944473Y-105559740D01*
X126948696Y-105557152D01*
X127020674Y-105495677D01*
X127024822Y-105492134D01*
X134986900Y-105492134D01*
X134993655Y-105554316D01*
X135044785Y-105690705D01*
X135132139Y-105807261D01*
X135248695Y-105894615D01*
X135385084Y-105945745D01*
X135447266Y-105952500D01*
X137643534Y-105952500D01*
X137705716Y-105945745D01*
X137842105Y-105894615D01*
X137958661Y-105807261D01*
X138031528Y-105710035D01*
X138088388Y-105667521D01*
X138159206Y-105662496D01*
X138198189Y-105678168D01*
X138375668Y-105786927D01*
X138496197Y-105836852D01*
X138597735Y-105878911D01*
X138597737Y-105878912D01*
X138602308Y-105880805D01*
X138637397Y-105889229D01*
X138836030Y-105936917D01*
X138836036Y-105936918D01*
X138840843Y-105938072D01*
X139085400Y-105957319D01*
X139329957Y-105938072D01*
X139334764Y-105936918D01*
X139334770Y-105936917D01*
X139533403Y-105889229D01*
X139568492Y-105880805D01*
X139573063Y-105878912D01*
X139573065Y-105878911D01*
X139674603Y-105836852D01*
X139795132Y-105786927D01*
X139960929Y-105685327D01*
X140000070Y-105661342D01*
X140000073Y-105661340D01*
X140004296Y-105658752D01*
X140095971Y-105580454D01*
X140187077Y-105502641D01*
X140190833Y-105499433D01*
X140224509Y-105460004D01*
X140259589Y-105418931D01*
X140319040Y-105380122D01*
X140390035Y-105379616D01*
X140451211Y-105418931D01*
X140486291Y-105460004D01*
X140519967Y-105499433D01*
X140523723Y-105502641D01*
X140614830Y-105580454D01*
X140706504Y-105658752D01*
X140710727Y-105661340D01*
X140710730Y-105661342D01*
X140749871Y-105685327D01*
X140915668Y-105786927D01*
X141036197Y-105836852D01*
X141137735Y-105878911D01*
X141137737Y-105878912D01*
X141142308Y-105880805D01*
X141177397Y-105889229D01*
X141376030Y-105936917D01*
X141376036Y-105936918D01*
X141380843Y-105938072D01*
X141625400Y-105957319D01*
X141869957Y-105938072D01*
X141874764Y-105936918D01*
X141874770Y-105936917D01*
X142073403Y-105889229D01*
X142108492Y-105880805D01*
X142113063Y-105878912D01*
X142113065Y-105878911D01*
X142214603Y-105836852D01*
X142335132Y-105786927D01*
X142500929Y-105685327D01*
X142540070Y-105661342D01*
X142540073Y-105661340D01*
X142544296Y-105658752D01*
X142635971Y-105580454D01*
X142727077Y-105502641D01*
X142730833Y-105499433D01*
X142764509Y-105460004D01*
X142799589Y-105418931D01*
X142859040Y-105380122D01*
X142930035Y-105379616D01*
X142991211Y-105418931D01*
X143026291Y-105460004D01*
X143059967Y-105499433D01*
X143063723Y-105502641D01*
X143154830Y-105580454D01*
X143246504Y-105658752D01*
X143250727Y-105661340D01*
X143250730Y-105661342D01*
X143289871Y-105685327D01*
X143455668Y-105786927D01*
X143576197Y-105836852D01*
X143677735Y-105878911D01*
X143677737Y-105878912D01*
X143682308Y-105880805D01*
X143717397Y-105889229D01*
X143916030Y-105936917D01*
X143916036Y-105936918D01*
X143920843Y-105938072D01*
X144165400Y-105957319D01*
X144409957Y-105938072D01*
X144414764Y-105936918D01*
X144414770Y-105936917D01*
X144613403Y-105889229D01*
X144648492Y-105880805D01*
X144653063Y-105878912D01*
X144653065Y-105878911D01*
X144754603Y-105836852D01*
X144875132Y-105786927D01*
X145040929Y-105685327D01*
X145080070Y-105661342D01*
X145080073Y-105661340D01*
X145084296Y-105658752D01*
X145175971Y-105580454D01*
X145267077Y-105502641D01*
X145270833Y-105499433D01*
X145304509Y-105460004D01*
X145426935Y-105316663D01*
X145426937Y-105316660D01*
X145430152Y-105312896D01*
X145451527Y-105278016D01*
X145509570Y-105183297D01*
X145558327Y-105103732D01*
X145652205Y-104877092D01*
X145677752Y-104770680D01*
X145708317Y-104643370D01*
X145708318Y-104643364D01*
X145709472Y-104638557D01*
X145728719Y-104394000D01*
X145709472Y-104149443D01*
X145679561Y-104024852D01*
X145653360Y-103915720D01*
X145652205Y-103910908D01*
X145558327Y-103684268D01*
X145430152Y-103475104D01*
X145426341Y-103470641D01*
X145274041Y-103292323D01*
X145270833Y-103288567D01*
X145266262Y-103284663D01*
X145088063Y-103132465D01*
X145088060Y-103132463D01*
X145084296Y-103129248D01*
X145080073Y-103126660D01*
X145080070Y-103126658D01*
X144990438Y-103071732D01*
X144875132Y-103001073D01*
X144719844Y-102936750D01*
X144653065Y-102909089D01*
X144653063Y-102909088D01*
X144648492Y-102907195D01*
X144563007Y-102886672D01*
X144414770Y-102851083D01*
X144414764Y-102851082D01*
X144409957Y-102849928D01*
X144165400Y-102830681D01*
X143920843Y-102849928D01*
X143916036Y-102851082D01*
X143916030Y-102851083D01*
X143767793Y-102886672D01*
X143682308Y-102907195D01*
X143677737Y-102909088D01*
X143677735Y-102909089D01*
X143610956Y-102936750D01*
X143455668Y-103001073D01*
X143340362Y-103071732D01*
X143250730Y-103126658D01*
X143250727Y-103126660D01*
X143246504Y-103129248D01*
X143242740Y-103132463D01*
X143242737Y-103132465D01*
X143064538Y-103284663D01*
X143059967Y-103288567D01*
X143056759Y-103292323D01*
X142991211Y-103369069D01*
X142931760Y-103407878D01*
X142860765Y-103408384D01*
X142799589Y-103369069D01*
X142734041Y-103292323D01*
X142730833Y-103288567D01*
X142726262Y-103284663D01*
X142548063Y-103132465D01*
X142548060Y-103132463D01*
X142544296Y-103129248D01*
X142540073Y-103126660D01*
X142540070Y-103126658D01*
X142450438Y-103071732D01*
X142335132Y-103001073D01*
X142179844Y-102936750D01*
X142113065Y-102909089D01*
X142113063Y-102909088D01*
X142108492Y-102907195D01*
X142023007Y-102886672D01*
X141874770Y-102851083D01*
X141874764Y-102851082D01*
X141869957Y-102849928D01*
X141625400Y-102830681D01*
X141380843Y-102849928D01*
X141376036Y-102851082D01*
X141376030Y-102851083D01*
X141227793Y-102886672D01*
X141142308Y-102907195D01*
X141137737Y-102909088D01*
X141137735Y-102909089D01*
X141070956Y-102936750D01*
X140915668Y-103001073D01*
X140800362Y-103071732D01*
X140710730Y-103126658D01*
X140710727Y-103126660D01*
X140706504Y-103129248D01*
X140702740Y-103132463D01*
X140702737Y-103132465D01*
X140524538Y-103284663D01*
X140519967Y-103288567D01*
X140516759Y-103292323D01*
X140451211Y-103369069D01*
X140391760Y-103407878D01*
X140320765Y-103408384D01*
X140259589Y-103369069D01*
X140194041Y-103292323D01*
X140190833Y-103288567D01*
X140186262Y-103284663D01*
X140008063Y-103132465D01*
X140008060Y-103132463D01*
X140004296Y-103129248D01*
X140000073Y-103126660D01*
X140000070Y-103126658D01*
X139910438Y-103071732D01*
X139795132Y-103001073D01*
X139639844Y-102936750D01*
X139573065Y-102909089D01*
X139573063Y-102909088D01*
X139568492Y-102907195D01*
X139483007Y-102886672D01*
X139334770Y-102851083D01*
X139334764Y-102851082D01*
X139329957Y-102849928D01*
X139085400Y-102830681D01*
X138840843Y-102849928D01*
X138836036Y-102851082D01*
X138836030Y-102851083D01*
X138687793Y-102886672D01*
X138602308Y-102907195D01*
X138597737Y-102909088D01*
X138597735Y-102909089D01*
X138530956Y-102936750D01*
X138375668Y-103001073D01*
X138250191Y-103077965D01*
X138198188Y-103109832D01*
X138129655Y-103128370D01*
X138061978Y-103106913D01*
X138031528Y-103077965D01*
X137976353Y-103004346D01*
X137958661Y-102980739D01*
X137842105Y-102893385D01*
X137705716Y-102842255D01*
X137643534Y-102835500D01*
X135447266Y-102835500D01*
X135385084Y-102842255D01*
X135248695Y-102893385D01*
X135132139Y-102980739D01*
X135044785Y-103097295D01*
X134993655Y-103233684D01*
X134986900Y-103295866D01*
X134986900Y-105492134D01*
X127024822Y-105492134D01*
X127131477Y-105401041D01*
X127135233Y-105397833D01*
X127294552Y-105211296D01*
X127331275Y-105151370D01*
X127376290Y-105077910D01*
X127422727Y-105002132D01*
X127516605Y-104775492D01*
X127541950Y-104669921D01*
X127572717Y-104541770D01*
X127572718Y-104541764D01*
X127573872Y-104536957D01*
X127593119Y-104292400D01*
X127573872Y-104047843D01*
X127570915Y-104035524D01*
X127517760Y-103814120D01*
X127516605Y-103809308D01*
X127511328Y-103796567D01*
X127458222Y-103668360D01*
X127422727Y-103582668D01*
X127316151Y-103408750D01*
X127297142Y-103377730D01*
X127297140Y-103377727D01*
X127294552Y-103373504D01*
X127245996Y-103316652D01*
X127138441Y-103190723D01*
X127135233Y-103186967D01*
X127092714Y-103150652D01*
X126952463Y-103030865D01*
X126952460Y-103030863D01*
X126948696Y-103027648D01*
X126944473Y-103025060D01*
X126944470Y-103025058D01*
X126805666Y-102940000D01*
X126739532Y-102899473D01*
X126566248Y-102827696D01*
X126517465Y-102807489D01*
X126517463Y-102807488D01*
X126512892Y-102805595D01*
X126430237Y-102785751D01*
X126279170Y-102749483D01*
X126279164Y-102749482D01*
X126274357Y-102748328D01*
X126029800Y-102729081D01*
X125785243Y-102748328D01*
X125780436Y-102749482D01*
X125780430Y-102749483D01*
X125629363Y-102785751D01*
X125546708Y-102805595D01*
X125542137Y-102807488D01*
X125542135Y-102807489D01*
X125493352Y-102827696D01*
X125320068Y-102899473D01*
X125253934Y-102940000D01*
X125115130Y-103025058D01*
X125115127Y-103025060D01*
X125110904Y-103027648D01*
X125107140Y-103030863D01*
X125107137Y-103030865D01*
X124966886Y-103150652D01*
X124924367Y-103186967D01*
X124921159Y-103190723D01*
X124855611Y-103267469D01*
X124796160Y-103306278D01*
X124725165Y-103306784D01*
X124663989Y-103267469D01*
X124598441Y-103190723D01*
X124595233Y-103186967D01*
X124552714Y-103150652D01*
X124412463Y-103030865D01*
X124412460Y-103030863D01*
X124408696Y-103027648D01*
X124404473Y-103025060D01*
X124404470Y-103025058D01*
X124265666Y-102940000D01*
X124199532Y-102899473D01*
X124026248Y-102827696D01*
X123977465Y-102807489D01*
X123977463Y-102807488D01*
X123972892Y-102805595D01*
X123890237Y-102785751D01*
X123739170Y-102749483D01*
X123739164Y-102749482D01*
X123734357Y-102748328D01*
X123489800Y-102729081D01*
X123245243Y-102748328D01*
X123240436Y-102749482D01*
X123240430Y-102749483D01*
X123089363Y-102785751D01*
X123006708Y-102805595D01*
X123002137Y-102807488D01*
X123002135Y-102807489D01*
X122953352Y-102827696D01*
X122780068Y-102899473D01*
X122713934Y-102940000D01*
X122575130Y-103025058D01*
X122575127Y-103025060D01*
X122570904Y-103027648D01*
X122567140Y-103030863D01*
X122567137Y-103030865D01*
X122426886Y-103150652D01*
X122384367Y-103186967D01*
X122381159Y-103190723D01*
X122315611Y-103267469D01*
X122256160Y-103306278D01*
X122185165Y-103306784D01*
X122123989Y-103267469D01*
X122058441Y-103190723D01*
X122055233Y-103186967D01*
X122012714Y-103150652D01*
X121872463Y-103030865D01*
X121872460Y-103030863D01*
X121868696Y-103027648D01*
X121864473Y-103025060D01*
X121864470Y-103025058D01*
X121725666Y-102940000D01*
X121659532Y-102899473D01*
X121486248Y-102827696D01*
X121437465Y-102807489D01*
X121437463Y-102807488D01*
X121432892Y-102805595D01*
X121350237Y-102785751D01*
X121199170Y-102749483D01*
X121199164Y-102749482D01*
X121194357Y-102748328D01*
X120949800Y-102729081D01*
X120705243Y-102748328D01*
X120700436Y-102749482D01*
X120700430Y-102749483D01*
X120549363Y-102785751D01*
X120466708Y-102805595D01*
X120462137Y-102807488D01*
X120462135Y-102807489D01*
X120413352Y-102827696D01*
X120240068Y-102899473D01*
X120107453Y-102980739D01*
X120062159Y-103008495D01*
X119993626Y-103027033D01*
X119925949Y-103005576D01*
X119895498Y-102976627D01*
X119828081Y-102886672D01*
X119815524Y-102874115D01*
X119713449Y-102797614D01*
X119697854Y-102789076D01*
X119577406Y-102743922D01*
X119562151Y-102740295D01*
X119511286Y-102734769D01*
X119504472Y-102734400D01*
X118681915Y-102734400D01*
X118666676Y-102738875D01*
X118665471Y-102740265D01*
X118663800Y-102747948D01*
X118663800Y-105832284D01*
X118155800Y-105832284D01*
X118155800Y-104564515D01*
X118151325Y-104549276D01*
X118149935Y-104548071D01*
X118142252Y-104546400D01*
X116869916Y-104546400D01*
X116854677Y-104550875D01*
X116853472Y-104552265D01*
X116851801Y-104559948D01*
X116851801Y-105387069D01*
X111874386Y-105387069D01*
X111875205Y-105385092D01*
X111900912Y-105278016D01*
X111931317Y-105151370D01*
X111931318Y-105151364D01*
X111932472Y-105146557D01*
X111951719Y-104902000D01*
X111932472Y-104657443D01*
X111929094Y-104643370D01*
X111876360Y-104423720D01*
X111875205Y-104418908D01*
X111781327Y-104192268D01*
X111692824Y-104047843D01*
X111675937Y-104020285D01*
X116851800Y-104020285D01*
X116856275Y-104035524D01*
X116857665Y-104036729D01*
X116865348Y-104038400D01*
X118137685Y-104038400D01*
X118152924Y-104033925D01*
X118154129Y-104032535D01*
X118155800Y-104024852D01*
X118155800Y-102752516D01*
X118151325Y-102737277D01*
X118149935Y-102736072D01*
X118142252Y-102734401D01*
X117315131Y-102734401D01*
X117308310Y-102734771D01*
X117257448Y-102740295D01*
X117242196Y-102743921D01*
X117121746Y-102789076D01*
X117106151Y-102797614D01*
X117004076Y-102874115D01*
X116991515Y-102886676D01*
X116915014Y-102988751D01*
X116906476Y-103004346D01*
X116861322Y-103124794D01*
X116857695Y-103140049D01*
X116852169Y-103190914D01*
X116851800Y-103197728D01*
X116851800Y-104020285D01*
X111675937Y-104020285D01*
X111655742Y-103987330D01*
X111655740Y-103987327D01*
X111653152Y-103983104D01*
X111591491Y-103910908D01*
X111497041Y-103800323D01*
X111493833Y-103796567D01*
X111413331Y-103727811D01*
X111374522Y-103668360D01*
X111374016Y-103597365D01*
X111413331Y-103536189D01*
X111490077Y-103470641D01*
X111493833Y-103467433D01*
X111497255Y-103463426D01*
X111649935Y-103284663D01*
X111649937Y-103284660D01*
X111653152Y-103280896D01*
X111686618Y-103226285D01*
X111738229Y-103142062D01*
X111781327Y-103071732D01*
X111851608Y-102902059D01*
X111873311Y-102849665D01*
X111873312Y-102849663D01*
X111875205Y-102845092D01*
X111899494Y-102743921D01*
X111931317Y-102611370D01*
X111931318Y-102611364D01*
X111932472Y-102606557D01*
X111951719Y-102362000D01*
X111932472Y-102117443D01*
X111922288Y-102075020D01*
X111876360Y-101883720D01*
X111875205Y-101878908D01*
X111853325Y-101826084D01*
X111818732Y-101742571D01*
X111781327Y-101652268D01*
X111653152Y-101443104D01*
X111584846Y-101363128D01*
X111497041Y-101260323D01*
X111493833Y-101256567D01*
X111428727Y-101200961D01*
X111311063Y-101100465D01*
X111311060Y-101100463D01*
X111307296Y-101097248D01*
X111303073Y-101094660D01*
X111303070Y-101094658D01*
X111205572Y-101034912D01*
X111098132Y-100969073D01*
X110937359Y-100902478D01*
X110876065Y-100877089D01*
X110876063Y-100877088D01*
X110871492Y-100875195D01*
X110788837Y-100855351D01*
X110637770Y-100819083D01*
X110637764Y-100819082D01*
X110632957Y-100817928D01*
X110388400Y-100798681D01*
X110143843Y-100817928D01*
X110139036Y-100819082D01*
X110139030Y-100819083D01*
X109987963Y-100855351D01*
X109905308Y-100875195D01*
X109900737Y-100877088D01*
X109900735Y-100877089D01*
X109839441Y-100902478D01*
X109678668Y-100969073D01*
X109571228Y-101034912D01*
X109473730Y-101094658D01*
X109473727Y-101094660D01*
X109469504Y-101097248D01*
X109465740Y-101100463D01*
X109465737Y-101100465D01*
X109348073Y-101200961D01*
X109282967Y-101256567D01*
X109279759Y-101260323D01*
X109191955Y-101363128D01*
X109123648Y-101443104D01*
X108995473Y-101652268D01*
X108958068Y-101742571D01*
X108923476Y-101826084D01*
X108901595Y-101878908D01*
X108900440Y-101883720D01*
X108854513Y-102075020D01*
X108844328Y-102117443D01*
X108825081Y-102362000D01*
X108844328Y-102606557D01*
X108845482Y-102611364D01*
X108845483Y-102611370D01*
X108877306Y-102743921D01*
X108901595Y-102845092D01*
X108903488Y-102849663D01*
X108903489Y-102849665D01*
X108925192Y-102902059D01*
X108995473Y-103071732D01*
X109038571Y-103142062D01*
X109090183Y-103226285D01*
X109123648Y-103280896D01*
X109126863Y-103284660D01*
X109126865Y-103284663D01*
X109279545Y-103463426D01*
X109282967Y-103467433D01*
X109286723Y-103470641D01*
X109363469Y-103536189D01*
X109402278Y-103595640D01*
X109402784Y-103666635D01*
X109363469Y-103727811D01*
X109282967Y-103796567D01*
X109279759Y-103800323D01*
X109185310Y-103910908D01*
X109123648Y-103983104D01*
X109121060Y-103987327D01*
X109121058Y-103987330D01*
X109083976Y-104047843D01*
X108995473Y-104192268D01*
X108901595Y-104418908D01*
X108900440Y-104423720D01*
X108847707Y-104643370D01*
X108844328Y-104657443D01*
X108825081Y-104902000D01*
X108844328Y-105146557D01*
X108845482Y-105151364D01*
X108845483Y-105151370D01*
X108875888Y-105278016D01*
X108901595Y-105385092D01*
X108903488Y-105389663D01*
X108903489Y-105389665D01*
X108908201Y-105401041D01*
X108995473Y-105611732D01*
X109045671Y-105693648D01*
X109115293Y-105807261D01*
X109123648Y-105820896D01*
X109126863Y-105824660D01*
X109126865Y-105824663D01*
X109235734Y-105952131D01*
X109282967Y-106007433D01*
X109286723Y-106010641D01*
X109363469Y-106076189D01*
X109402278Y-106135640D01*
X109402784Y-106206635D01*
X109363469Y-106267811D01*
X109282967Y-106336567D01*
X109123648Y-106523104D01*
X108995473Y-106732268D01*
X108901595Y-106958908D01*
X108892329Y-106997503D01*
X108855008Y-107152959D01*
X108844328Y-107197443D01*
X108825081Y-107442000D01*
X108844328Y-107686557D01*
X108845482Y-107691364D01*
X108845483Y-107691370D01*
X108868462Y-107787083D01*
X108901595Y-107925092D01*
X108903488Y-107929663D01*
X108903489Y-107929665D01*
X108924180Y-107979617D01*
X108995473Y-108151732D01*
X109123648Y-108360896D01*
X109126863Y-108364660D01*
X109126865Y-108364663D01*
X109177751Y-108424242D01*
X109282967Y-108547433D01*
X109286723Y-108550641D01*
X109363469Y-108616189D01*
X109402278Y-108675640D01*
X109402784Y-108746635D01*
X109363469Y-108807811D01*
X109359629Y-108811091D01*
X109282967Y-108876567D01*
X109279759Y-108880323D01*
X109135580Y-109049134D01*
X109123648Y-109063104D01*
X108995473Y-109272268D01*
X108901595Y-109498908D01*
X108900440Y-109503720D01*
X108845580Y-109732229D01*
X108844328Y-109737443D01*
X108825081Y-109982000D01*
X105008000Y-109982000D01*
X105008000Y-99779374D01*
X163511502Y-99779374D01*
X163520151Y-100009758D01*
X163567493Y-100235391D01*
X163652176Y-100449821D01*
X163771777Y-100646917D01*
X163775274Y-100650947D01*
X163903471Y-100798681D01*
X163922877Y-100821045D01*
X163927008Y-100824432D01*
X164097027Y-100963840D01*
X164097033Y-100963844D01*
X164101155Y-100967224D01*
X164105798Y-100969867D01*
X164133135Y-100985429D01*
X164182441Y-101036512D01*
X164196302Y-101106142D01*
X164170318Y-101172213D01*
X164141168Y-101199451D01*
X164023822Y-101278452D01*
X164015530Y-101285119D01*
X163856500Y-101436828D01*
X163849459Y-101444786D01*
X163718259Y-101621125D01*
X163712655Y-101630162D01*
X163613043Y-101826084D01*
X163609043Y-101835935D01*
X163543866Y-102045840D01*
X163541583Y-102056224D01*
X163539539Y-102071643D01*
X163541735Y-102085807D01*
X163554922Y-102089600D01*
X166439592Y-102089600D01*
X166453123Y-102085627D01*
X166454648Y-102075020D01*
X166429923Y-101957179D01*
X166426863Y-101946983D01*
X166346137Y-101742571D01*
X166341406Y-101733039D01*
X166227384Y-101545138D01*
X166221120Y-101536548D01*
X166077073Y-101370548D01*
X166069442Y-101363128D01*
X165899489Y-101223774D01*
X165890726Y-101217752D01*
X165863689Y-101202362D01*
X165814382Y-101151280D01*
X165800520Y-101081649D01*
X165826503Y-101015578D01*
X165855653Y-100988339D01*
X165908932Y-100952469D01*
X165977719Y-100906159D01*
X166144535Y-100747024D01*
X166282154Y-100562058D01*
X166386640Y-100356549D01*
X166422721Y-100240352D01*
X166453424Y-100141471D01*
X166455007Y-100136373D01*
X166455708Y-100131084D01*
X166484598Y-99913111D01*
X166484598Y-99913106D01*
X166485298Y-99907826D01*
X166476649Y-99677442D01*
X166429307Y-99451809D01*
X166344624Y-99237379D01*
X166225023Y-99040283D01*
X166138155Y-98940176D01*
X166077423Y-98870188D01*
X166077421Y-98870186D01*
X166073923Y-98866155D01*
X166032370Y-98832084D01*
X165899773Y-98723360D01*
X165899767Y-98723356D01*
X165895645Y-98719976D01*
X165864150Y-98702048D01*
X165814845Y-98650968D01*
X165800983Y-98581338D01*
X165826966Y-98515267D01*
X165856116Y-98488027D01*
X165892042Y-98463840D01*
X165977719Y-98406159D01*
X166144535Y-98247024D01*
X166282154Y-98062058D01*
X166386640Y-97856549D01*
X166422721Y-97740352D01*
X166453424Y-97641471D01*
X166455007Y-97636373D01*
X166465391Y-97558029D01*
X166484598Y-97413111D01*
X166484598Y-97413106D01*
X166485298Y-97407826D01*
X166476649Y-97177442D01*
X166429307Y-96951809D01*
X166344624Y-96737379D01*
X166225023Y-96540283D01*
X166138155Y-96440176D01*
X166077423Y-96370188D01*
X166077421Y-96370186D01*
X166073923Y-96366155D01*
X166038280Y-96336930D01*
X165998286Y-96278271D01*
X165996354Y-96207301D01*
X166033098Y-96146552D01*
X166051868Y-96132352D01*
X166191520Y-96045932D01*
X166197748Y-96042078D01*
X166322705Y-95916903D01*
X166415515Y-95766338D01*
X166471197Y-95598461D01*
X166481900Y-95494000D01*
X166481900Y-94193200D01*
X166470926Y-94087434D01*
X166414950Y-93919654D01*
X166321878Y-93769252D01*
X166196703Y-93644295D01*
X166190472Y-93640454D01*
X166052368Y-93555325D01*
X166052366Y-93555324D01*
X166046138Y-93551485D01*
X165966395Y-93525036D01*
X165884789Y-93497968D01*
X165884787Y-93497968D01*
X165878261Y-93495803D01*
X165871425Y-93495103D01*
X165871422Y-93495102D01*
X165828369Y-93490691D01*
X165773800Y-93485100D01*
X164223000Y-93485100D01*
X164219754Y-93485437D01*
X164219750Y-93485437D01*
X164124092Y-93495362D01*
X164124088Y-93495363D01*
X164117234Y-93496074D01*
X164110698Y-93498255D01*
X164110696Y-93498255D01*
X163978594Y-93542328D01*
X163949454Y-93552050D01*
X163799052Y-93645122D01*
X163674095Y-93770297D01*
X163581285Y-93920862D01*
X163525603Y-94088739D01*
X163514900Y-94193200D01*
X163514900Y-95494000D01*
X163525874Y-95599766D01*
X163581850Y-95767546D01*
X163674922Y-95917948D01*
X163800097Y-96042905D01*
X163945740Y-96132681D01*
X163993232Y-96185452D01*
X164004656Y-96255524D01*
X163976382Y-96320648D01*
X163966595Y-96331110D01*
X163852265Y-96440176D01*
X163714646Y-96625142D01*
X163610160Y-96830651D01*
X163608578Y-96835745D01*
X163608577Y-96835748D01*
X163546515Y-97035620D01*
X163541793Y-97050827D01*
X163541092Y-97056116D01*
X163517978Y-97230515D01*
X163511502Y-97279374D01*
X163520151Y-97509758D01*
X163567493Y-97735391D01*
X163652176Y-97949821D01*
X163771777Y-98146917D01*
X163775274Y-98150947D01*
X163861838Y-98250703D01*
X163922877Y-98321045D01*
X163927008Y-98324432D01*
X164097027Y-98463840D01*
X164097033Y-98463844D01*
X164101155Y-98467224D01*
X164132650Y-98485152D01*
X164181955Y-98536232D01*
X164195817Y-98605862D01*
X164169834Y-98671933D01*
X164140684Y-98699173D01*
X164019081Y-98781041D01*
X163852265Y-98940176D01*
X163714646Y-99125142D01*
X163610160Y-99330651D01*
X163608578Y-99335745D01*
X163608577Y-99335748D01*
X163546515Y-99535620D01*
X163541793Y-99550827D01*
X163541092Y-99556116D01*
X163525704Y-99672223D01*
X163511502Y-99779374D01*
X105008000Y-99779374D01*
X105008000Y-93527730D01*
X108775170Y-93527730D01*
X108793635Y-93762345D01*
X108795178Y-93772092D01*
X108850117Y-94000925D01*
X108853166Y-94010310D01*
X108943225Y-94227733D01*
X108947707Y-94236528D01*
X109053834Y-94409710D01*
X109072373Y-94478243D01*
X109050917Y-94545920D01*
X109021968Y-94576370D01*
X108924339Y-94649539D01*
X108836985Y-94766095D01*
X108785855Y-94902484D01*
X108779100Y-94964666D01*
X108779100Y-97160934D01*
X108785855Y-97223116D01*
X108836985Y-97359505D01*
X108924339Y-97476061D01*
X109040895Y-97563415D01*
X109177284Y-97614545D01*
X109239466Y-97621300D01*
X111435734Y-97621300D01*
X111497916Y-97614545D01*
X111634305Y-97563415D01*
X111750861Y-97476061D01*
X111838215Y-97359505D01*
X111889345Y-97223116D01*
X111896100Y-97160934D01*
X111896100Y-94964666D01*
X111889345Y-94902484D01*
X111838215Y-94766095D01*
X111750861Y-94649539D01*
X111653233Y-94576370D01*
X111610718Y-94519512D01*
X111605692Y-94448693D01*
X111621366Y-94409710D01*
X111727493Y-94236528D01*
X111731975Y-94227733D01*
X111822034Y-94010310D01*
X111825083Y-94000925D01*
X111880022Y-93772092D01*
X111881565Y-93762345D01*
X111900030Y-93527730D01*
X111900030Y-93517870D01*
X111881565Y-93283255D01*
X111880022Y-93273508D01*
X111825083Y-93044675D01*
X111822034Y-93035290D01*
X111731975Y-92817867D01*
X111727493Y-92809072D01*
X111616528Y-92627995D01*
X111606070Y-92618533D01*
X111597294Y-92622316D01*
X110426695Y-93792915D01*
X110364383Y-93826941D01*
X110293568Y-93821876D01*
X110248505Y-93792915D01*
X109080950Y-92625360D01*
X109068570Y-92618600D01*
X109060920Y-92624327D01*
X108947707Y-92809072D01*
X108943225Y-92817867D01*
X108853166Y-93035290D01*
X108850117Y-93044675D01*
X108795178Y-93273508D01*
X108793635Y-93283255D01*
X108775170Y-93517870D01*
X108775170Y-93527730D01*
X105008000Y-93527730D01*
X105008000Y-92254330D01*
X109433333Y-92254330D01*
X109437116Y-92263106D01*
X110324788Y-93150778D01*
X110338732Y-93158392D01*
X110340565Y-93158261D01*
X110347180Y-93154010D01*
X111235040Y-92266150D01*
X111241800Y-92253770D01*
X111236073Y-92246120D01*
X111051328Y-92132907D01*
X111042533Y-92128425D01*
X110825110Y-92038366D01*
X110815725Y-92035317D01*
X110586892Y-91980378D01*
X110577145Y-91978835D01*
X110342530Y-91960370D01*
X110332670Y-91960370D01*
X110098055Y-91978835D01*
X110088308Y-91980378D01*
X109859475Y-92035317D01*
X109850090Y-92038366D01*
X109632667Y-92128425D01*
X109623872Y-92132907D01*
X109442795Y-92243872D01*
X109433333Y-92254330D01*
X105008000Y-92254330D01*
X105008000Y-91643200D01*
X159505507Y-91643200D01*
X159525469Y-91833128D01*
X159584484Y-92014756D01*
X159679971Y-92180144D01*
X159807758Y-92322066D01*
X159962259Y-92434318D01*
X159968287Y-92437002D01*
X159968289Y-92437003D01*
X160130692Y-92509309D01*
X160136723Y-92511994D01*
X160230124Y-92531847D01*
X160317067Y-92550328D01*
X160317072Y-92550328D01*
X160323524Y-92551700D01*
X160514498Y-92551700D01*
X160520950Y-92550328D01*
X160520955Y-92550328D01*
X160607898Y-92531847D01*
X160701299Y-92511994D01*
X160707330Y-92509309D01*
X160869733Y-92437003D01*
X160869735Y-92437002D01*
X160875763Y-92434318D01*
X161030264Y-92322066D01*
X161158051Y-92180144D01*
X161253538Y-92014756D01*
X161312553Y-91833128D01*
X161332515Y-91643200D01*
X161312553Y-91453272D01*
X161253538Y-91271644D01*
X161158051Y-91106256D01*
X161030264Y-90964334D01*
X160875763Y-90852082D01*
X160869735Y-90849398D01*
X160869733Y-90849397D01*
X160707330Y-90777091D01*
X160707329Y-90777091D01*
X160701299Y-90774406D01*
X160607899Y-90754553D01*
X160520955Y-90736072D01*
X160520950Y-90736072D01*
X160514498Y-90734700D01*
X160323524Y-90734700D01*
X160317072Y-90736072D01*
X160317067Y-90736072D01*
X160230123Y-90754553D01*
X160136723Y-90774406D01*
X160130693Y-90777091D01*
X160130692Y-90777091D01*
X159968289Y-90849397D01*
X159968287Y-90849398D01*
X159962259Y-90852082D01*
X159807758Y-90964334D01*
X159679971Y-91106256D01*
X159584484Y-91271644D01*
X159525469Y-91453272D01*
X159505507Y-91643200D01*
X105008000Y-91643200D01*
X105008000Y-88692980D01*
X163542152Y-88692980D01*
X163566877Y-88810821D01*
X163569937Y-88821017D01*
X163650663Y-89025429D01*
X163655394Y-89034961D01*
X163769416Y-89222862D01*
X163775680Y-89231452D01*
X163919727Y-89397452D01*
X163927358Y-89404872D01*
X164097311Y-89544226D01*
X164106078Y-89550250D01*
X164297082Y-89658976D01*
X164306746Y-89663441D01*
X164513341Y-89738431D01*
X164523608Y-89741202D01*
X164726574Y-89777904D01*
X164739814Y-89776485D01*
X164744400Y-89761850D01*
X164744400Y-89758249D01*
X165252400Y-89758249D01*
X165256710Y-89772927D01*
X165268593Y-89774990D01*
X165347725Y-89768276D01*
X165358197Y-89766486D01*
X165570935Y-89711270D01*
X165580975Y-89707735D01*
X165781370Y-89617463D01*
X165790656Y-89612294D01*
X165972975Y-89489550D01*
X165981270Y-89482881D01*
X166140300Y-89331172D01*
X166147341Y-89323214D01*
X166278541Y-89146875D01*
X166284145Y-89137838D01*
X166383757Y-88941916D01*
X166387757Y-88932065D01*
X166452934Y-88722160D01*
X166455217Y-88711776D01*
X166457261Y-88696357D01*
X166455065Y-88682193D01*
X166441878Y-88678400D01*
X165270515Y-88678400D01*
X165255276Y-88682875D01*
X165254071Y-88684265D01*
X165252400Y-88691948D01*
X165252400Y-89758249D01*
X164744400Y-89758249D01*
X164744400Y-88696515D01*
X164739925Y-88681276D01*
X164738535Y-88680071D01*
X164730852Y-88678400D01*
X163557208Y-88678400D01*
X163543677Y-88682373D01*
X163542152Y-88692980D01*
X105008000Y-88692980D01*
X105008000Y-85860174D01*
X163511502Y-85860174D01*
X163520151Y-86090558D01*
X163567493Y-86316191D01*
X163652176Y-86530621D01*
X163771777Y-86727717D01*
X163775274Y-86731747D01*
X163861838Y-86831503D01*
X163922877Y-86901845D01*
X163927008Y-86905232D01*
X164097027Y-87044640D01*
X164097033Y-87044644D01*
X164101155Y-87048024D01*
X164105798Y-87050667D01*
X164133135Y-87066229D01*
X164182441Y-87117312D01*
X164196302Y-87186942D01*
X164170318Y-87253013D01*
X164141168Y-87280251D01*
X164023822Y-87359252D01*
X164015530Y-87365919D01*
X163856500Y-87517628D01*
X163849459Y-87525586D01*
X163718259Y-87701925D01*
X163712655Y-87710962D01*
X163613043Y-87906884D01*
X163609043Y-87916735D01*
X163543866Y-88126640D01*
X163541583Y-88137024D01*
X163539539Y-88152443D01*
X163541735Y-88166607D01*
X163554922Y-88170400D01*
X166439592Y-88170400D01*
X166453123Y-88166427D01*
X166454648Y-88155820D01*
X166429923Y-88037979D01*
X166426863Y-88027783D01*
X166346137Y-87823371D01*
X166341406Y-87813839D01*
X166227384Y-87625938D01*
X166221120Y-87617348D01*
X166077073Y-87451348D01*
X166069442Y-87443928D01*
X165899489Y-87304574D01*
X165890726Y-87298552D01*
X165863689Y-87283162D01*
X165814382Y-87232080D01*
X165800520Y-87162449D01*
X165826503Y-87096378D01*
X165855653Y-87069139D01*
X165908932Y-87033269D01*
X165977719Y-86986959D01*
X166144535Y-86827824D01*
X166282154Y-86642858D01*
X166386640Y-86437349D01*
X166422721Y-86321152D01*
X166453424Y-86222271D01*
X166455007Y-86217173D01*
X166455708Y-86211884D01*
X166484598Y-85993911D01*
X166484598Y-85993906D01*
X166485298Y-85988626D01*
X166476649Y-85758242D01*
X166429307Y-85532609D01*
X166344624Y-85318179D01*
X166225023Y-85121083D01*
X166138155Y-85020976D01*
X166077423Y-84950988D01*
X166077421Y-84950986D01*
X166073923Y-84946955D01*
X166032370Y-84912884D01*
X165899773Y-84804160D01*
X165899767Y-84804156D01*
X165895645Y-84800776D01*
X165864150Y-84782848D01*
X165814845Y-84731768D01*
X165800983Y-84662138D01*
X165826966Y-84596067D01*
X165856116Y-84568827D01*
X165917207Y-84527698D01*
X165977719Y-84486959D01*
X166001988Y-84463808D01*
X166063391Y-84405232D01*
X166144535Y-84327824D01*
X166282154Y-84142858D01*
X166286795Y-84133731D01*
X166382798Y-83944905D01*
X166386640Y-83937349D01*
X166407688Y-83869566D01*
X166453424Y-83722271D01*
X166455007Y-83717173D01*
X166468036Y-83618872D01*
X166484598Y-83493911D01*
X166484598Y-83493906D01*
X166485298Y-83488626D01*
X166484610Y-83470284D01*
X166478709Y-83313115D01*
X166476649Y-83258242D01*
X166429307Y-83032609D01*
X166359506Y-82855862D01*
X166346585Y-82823144D01*
X166346584Y-82823142D01*
X166344624Y-82818179D01*
X166339906Y-82810403D01*
X166252355Y-82666124D01*
X166225023Y-82621083D01*
X166138155Y-82520976D01*
X166077423Y-82450988D01*
X166077421Y-82450986D01*
X166073923Y-82446955D01*
X166038280Y-82417730D01*
X165998286Y-82359071D01*
X165996354Y-82288101D01*
X166033098Y-82227352D01*
X166051868Y-82213152D01*
X166191520Y-82126732D01*
X166197748Y-82122878D01*
X166322705Y-81997703D01*
X166326546Y-81991472D01*
X166411675Y-81853368D01*
X166411676Y-81853366D01*
X166415515Y-81847138D01*
X166446133Y-81754828D01*
X166469032Y-81685789D01*
X166469032Y-81685787D01*
X166471197Y-81679261D01*
X166474075Y-81651177D01*
X166480397Y-81589468D01*
X166481900Y-81574800D01*
X166481900Y-80274000D01*
X166470926Y-80168234D01*
X166414950Y-80000454D01*
X166321878Y-79850052D01*
X166196703Y-79725095D01*
X166190472Y-79721254D01*
X166052368Y-79636125D01*
X166052366Y-79636124D01*
X166046138Y-79632285D01*
X165941867Y-79597700D01*
X165884789Y-79578768D01*
X165884787Y-79578768D01*
X165878261Y-79576603D01*
X165871425Y-79575903D01*
X165871422Y-79575902D01*
X165828369Y-79571491D01*
X165773800Y-79565900D01*
X164223000Y-79565900D01*
X164219754Y-79566237D01*
X164219750Y-79566237D01*
X164124092Y-79576162D01*
X164124088Y-79576163D01*
X164117234Y-79576874D01*
X164110698Y-79579055D01*
X164110696Y-79579055D01*
X164058923Y-79596328D01*
X163949454Y-79632850D01*
X163799052Y-79725922D01*
X163674095Y-79851097D01*
X163581285Y-80001662D01*
X163525603Y-80169539D01*
X163514900Y-80274000D01*
X163514900Y-81574800D01*
X163515237Y-81578046D01*
X163515237Y-81578050D01*
X163523240Y-81655178D01*
X163525874Y-81680566D01*
X163528055Y-81687102D01*
X163528055Y-81687104D01*
X163552519Y-81760432D01*
X163581850Y-81848346D01*
X163674922Y-81998748D01*
X163800097Y-82123705D01*
X163945740Y-82213481D01*
X163993232Y-82266252D01*
X164004656Y-82336324D01*
X163976382Y-82401448D01*
X163966595Y-82411910D01*
X163852265Y-82520976D01*
X163714646Y-82705942D01*
X163712230Y-82710693D01*
X163712228Y-82710697D01*
X163663048Y-82807428D01*
X163610160Y-82911451D01*
X163608578Y-82916545D01*
X163608577Y-82916548D01*
X163550412Y-83103870D01*
X163541793Y-83131627D01*
X163541092Y-83136916D01*
X163512406Y-83353357D01*
X163511502Y-83360174D01*
X163511702Y-83365503D01*
X163511702Y-83365505D01*
X163511821Y-83368665D01*
X163520151Y-83590558D01*
X163567493Y-83816191D01*
X163569451Y-83821150D01*
X163569452Y-83821152D01*
X163649632Y-84024178D01*
X163652176Y-84030621D01*
X163654943Y-84035180D01*
X163654944Y-84035183D01*
X163714006Y-84132514D01*
X163771777Y-84227717D01*
X163775274Y-84231747D01*
X163918596Y-84396911D01*
X163922877Y-84401845D01*
X163950596Y-84424573D01*
X164097027Y-84544640D01*
X164097033Y-84544644D01*
X164101155Y-84548024D01*
X164132650Y-84565952D01*
X164181955Y-84617032D01*
X164195817Y-84686662D01*
X164169834Y-84752733D01*
X164140684Y-84779973D01*
X164019081Y-84861841D01*
X163852265Y-85020976D01*
X163714646Y-85205942D01*
X163610160Y-85411451D01*
X163608578Y-85416545D01*
X163608577Y-85416548D01*
X163546515Y-85616420D01*
X163541793Y-85631627D01*
X163541092Y-85636916D01*
X163525704Y-85753023D01*
X163511502Y-85860174D01*
X105008000Y-85860174D01*
X105008000Y-83813095D01*
X108816401Y-83813095D01*
X108816738Y-83819614D01*
X108826657Y-83915206D01*
X108829549Y-83928600D01*
X108880988Y-84082784D01*
X108887161Y-84095962D01*
X108972463Y-84233807D01*
X108981499Y-84245208D01*
X109096229Y-84359739D01*
X109107640Y-84368751D01*
X109245643Y-84453816D01*
X109258824Y-84459963D01*
X109413110Y-84511138D01*
X109426486Y-84514005D01*
X109520838Y-84523672D01*
X109527254Y-84524000D01*
X109902285Y-84524000D01*
X109917524Y-84519525D01*
X109918729Y-84518135D01*
X109920400Y-84510452D01*
X109920400Y-84505884D01*
X110428400Y-84505884D01*
X110432875Y-84521123D01*
X110434265Y-84522328D01*
X110441948Y-84523999D01*
X110821495Y-84523999D01*
X110828014Y-84523662D01*
X110923606Y-84513743D01*
X110937000Y-84510851D01*
X111091184Y-84459412D01*
X111104362Y-84453239D01*
X111242207Y-84367937D01*
X111253608Y-84358901D01*
X111368139Y-84244171D01*
X111377153Y-84232757D01*
X111463123Y-84093287D01*
X111515895Y-84045793D01*
X111585966Y-84034369D01*
X111651090Y-84062643D01*
X111661549Y-84072426D01*
X111770976Y-84187135D01*
X111955942Y-84324754D01*
X111960693Y-84327170D01*
X111960697Y-84327172D01*
X112023104Y-84358901D01*
X112161451Y-84429240D01*
X112166545Y-84430822D01*
X112166548Y-84430823D01*
X112321510Y-84478940D01*
X112381627Y-84497607D01*
X112386916Y-84498308D01*
X112604889Y-84527198D01*
X112604894Y-84527198D01*
X112610174Y-84527898D01*
X112615503Y-84527698D01*
X112615505Y-84527698D01*
X112725366Y-84523573D01*
X112840558Y-84519249D01*
X112845868Y-84518135D01*
X113002793Y-84485209D01*
X113066191Y-84471907D01*
X113071150Y-84469949D01*
X113071152Y-84469948D01*
X113275656Y-84389185D01*
X113275658Y-84389184D01*
X113280621Y-84387224D01*
X113289135Y-84382058D01*
X113473157Y-84270390D01*
X113473156Y-84270390D01*
X113477717Y-84267623D01*
X113551648Y-84203469D01*
X113647812Y-84120023D01*
X113647814Y-84120021D01*
X113651845Y-84116523D01*
X113696733Y-84061778D01*
X113794640Y-83942373D01*
X113794644Y-83942367D01*
X113798024Y-83938245D01*
X113815952Y-83906750D01*
X113867032Y-83857445D01*
X113936662Y-83843583D01*
X114002733Y-83869566D01*
X114029973Y-83898716D01*
X114111841Y-84020319D01*
X114115520Y-84024176D01*
X114115522Y-84024178D01*
X114162956Y-84073901D01*
X114270976Y-84187135D01*
X114455942Y-84324754D01*
X114460693Y-84327170D01*
X114460697Y-84327172D01*
X114523104Y-84358901D01*
X114661451Y-84429240D01*
X114666545Y-84430822D01*
X114666548Y-84430823D01*
X114821510Y-84478940D01*
X114881627Y-84497607D01*
X114886916Y-84498308D01*
X115104889Y-84527198D01*
X115104894Y-84527198D01*
X115110174Y-84527898D01*
X115115503Y-84527698D01*
X115115505Y-84527698D01*
X115225366Y-84523573D01*
X115340558Y-84519249D01*
X115345868Y-84518135D01*
X115502793Y-84485209D01*
X115566191Y-84471907D01*
X115571150Y-84469949D01*
X115571152Y-84469948D01*
X115775656Y-84389185D01*
X115775658Y-84389184D01*
X115780621Y-84387224D01*
X115789135Y-84382058D01*
X115973157Y-84270390D01*
X115973156Y-84270390D01*
X115977717Y-84267623D01*
X116051648Y-84203469D01*
X119701601Y-84203469D01*
X119701971Y-84210290D01*
X119707495Y-84261152D01*
X119711121Y-84276404D01*
X119756276Y-84396854D01*
X119764814Y-84412449D01*
X119841315Y-84514524D01*
X119853876Y-84527085D01*
X119955951Y-84603586D01*
X119971546Y-84612124D01*
X120091994Y-84657278D01*
X120107249Y-84660905D01*
X120158114Y-84666431D01*
X120164928Y-84666800D01*
X120987485Y-84666800D01*
X121002724Y-84662325D01*
X121003929Y-84660935D01*
X121005600Y-84653252D01*
X121005600Y-84648684D01*
X121513600Y-84648684D01*
X121518075Y-84663923D01*
X121519465Y-84665128D01*
X121527148Y-84666799D01*
X122354269Y-84666799D01*
X122361090Y-84666429D01*
X122411952Y-84660905D01*
X122427204Y-84657279D01*
X122547654Y-84612124D01*
X122563249Y-84603586D01*
X122665324Y-84527085D01*
X122677881Y-84514528D01*
X122745298Y-84424573D01*
X122802158Y-84382058D01*
X122872976Y-84377032D01*
X122911959Y-84392705D01*
X123089868Y-84501727D01*
X123201638Y-84548024D01*
X123311935Y-84593711D01*
X123311937Y-84593712D01*
X123316508Y-84595605D01*
X123358828Y-84605765D01*
X123550230Y-84651717D01*
X123550236Y-84651718D01*
X123555043Y-84652872D01*
X123799600Y-84672119D01*
X124044157Y-84652872D01*
X124048964Y-84651718D01*
X124048970Y-84651717D01*
X124240372Y-84605765D01*
X124282692Y-84595605D01*
X124287263Y-84593712D01*
X124287265Y-84593711D01*
X124397562Y-84548024D01*
X124509332Y-84501727D01*
X124645085Y-84418538D01*
X124714270Y-84376142D01*
X124714273Y-84376140D01*
X124718496Y-84373552D01*
X124724118Y-84368751D01*
X124901277Y-84217441D01*
X124905033Y-84214233D01*
X124961419Y-84148214D01*
X124973789Y-84133731D01*
X125033240Y-84094922D01*
X125104235Y-84094416D01*
X125165411Y-84133731D01*
X125177781Y-84148214D01*
X125234167Y-84214233D01*
X125237923Y-84217441D01*
X125415083Y-84368751D01*
X125420704Y-84373552D01*
X125424927Y-84376140D01*
X125424930Y-84376142D01*
X125494115Y-84418538D01*
X125629868Y-84501727D01*
X125741638Y-84548024D01*
X125851935Y-84593711D01*
X125851937Y-84593712D01*
X125856508Y-84595605D01*
X125898828Y-84605765D01*
X126090230Y-84651717D01*
X126090236Y-84651718D01*
X126095043Y-84652872D01*
X126339600Y-84672119D01*
X126584157Y-84652872D01*
X126588964Y-84651718D01*
X126588970Y-84651717D01*
X126780372Y-84605765D01*
X126822692Y-84595605D01*
X126827263Y-84593712D01*
X126827265Y-84593711D01*
X126937562Y-84548024D01*
X127049332Y-84501727D01*
X127185085Y-84418538D01*
X127254270Y-84376142D01*
X127254273Y-84376140D01*
X127258496Y-84373552D01*
X127264118Y-84368751D01*
X127441277Y-84217441D01*
X127445033Y-84214233D01*
X127532014Y-84112392D01*
X127601135Y-84031463D01*
X127601137Y-84031460D01*
X127604352Y-84027696D01*
X127611586Y-84015892D01*
X127659716Y-83937349D01*
X127732527Y-83818532D01*
X127792464Y-83673833D01*
X127824511Y-83596465D01*
X127824512Y-83596463D01*
X127826405Y-83591892D01*
X127852477Y-83483295D01*
X127866871Y-83423338D01*
X133647900Y-83423338D01*
X133648125Y-83425987D01*
X133662089Y-83590558D01*
X133662695Y-83597702D01*
X133664033Y-83602859D01*
X133664034Y-83602862D01*
X133719404Y-83816191D01*
X133721467Y-83824140D01*
X133723659Y-83829006D01*
X133723660Y-83829009D01*
X133790264Y-83976864D01*
X133817550Y-84037437D01*
X133820534Y-84041870D01*
X133820535Y-84041871D01*
X133833937Y-84061778D01*
X133948198Y-84231496D01*
X133951877Y-84235353D01*
X133951879Y-84235355D01*
X133985301Y-84270390D01*
X134109676Y-84400768D01*
X134297365Y-84540413D01*
X134302116Y-84542829D01*
X134302120Y-84542831D01*
X134448063Y-84617032D01*
X134505900Y-84646438D01*
X134729317Y-84715810D01*
X134734604Y-84716511D01*
X134734605Y-84716511D01*
X134955945Y-84745848D01*
X134955949Y-84745848D01*
X134961229Y-84746548D01*
X134966558Y-84746348D01*
X134966560Y-84746348D01*
X135078116Y-84742160D01*
X135195004Y-84737772D01*
X135307213Y-84714228D01*
X135418732Y-84690829D01*
X135418735Y-84690828D01*
X135423959Y-84689732D01*
X135641546Y-84603803D01*
X135703926Y-84565950D01*
X135836983Y-84485209D01*
X135836986Y-84485207D01*
X135841544Y-84482441D01*
X136018234Y-84329117D01*
X136166565Y-84148214D01*
X136169201Y-84143584D01*
X136169204Y-84143579D01*
X136187701Y-84111084D01*
X136238784Y-84061778D01*
X136308415Y-84047917D01*
X136374485Y-84073901D01*
X136401723Y-84103050D01*
X136422379Y-84133731D01*
X136488198Y-84231496D01*
X136491877Y-84235353D01*
X136491879Y-84235355D01*
X136525301Y-84270390D01*
X136649676Y-84400768D01*
X136837365Y-84540413D01*
X136842116Y-84542829D01*
X136842120Y-84542831D01*
X136988063Y-84617032D01*
X137045900Y-84646438D01*
X137269317Y-84715810D01*
X137274604Y-84716511D01*
X137274605Y-84716511D01*
X137495945Y-84745848D01*
X137495949Y-84745848D01*
X137501229Y-84746548D01*
X137506558Y-84746348D01*
X137506560Y-84746348D01*
X137618116Y-84742160D01*
X137735004Y-84737772D01*
X137847213Y-84714228D01*
X137958732Y-84690829D01*
X137958735Y-84690828D01*
X137963959Y-84689732D01*
X138181546Y-84603803D01*
X138243926Y-84565950D01*
X138376983Y-84485209D01*
X138376986Y-84485207D01*
X138381544Y-84482441D01*
X138558234Y-84329117D01*
X138706565Y-84148214D01*
X138709201Y-84143584D01*
X138709204Y-84143579D01*
X138727701Y-84111084D01*
X138778784Y-84061778D01*
X138848415Y-84047917D01*
X138914485Y-84073901D01*
X138941723Y-84103050D01*
X138962379Y-84133731D01*
X139028198Y-84231496D01*
X139031877Y-84235353D01*
X139031879Y-84235355D01*
X139065301Y-84270390D01*
X139189676Y-84400768D01*
X139377365Y-84540413D01*
X139382116Y-84542829D01*
X139382120Y-84542831D01*
X139528063Y-84617032D01*
X139585900Y-84646438D01*
X139809317Y-84715810D01*
X139814604Y-84716511D01*
X139814605Y-84716511D01*
X140035945Y-84745848D01*
X140035949Y-84745848D01*
X140041229Y-84746548D01*
X140046558Y-84746348D01*
X140046560Y-84746348D01*
X140158116Y-84742160D01*
X140275004Y-84737772D01*
X140387213Y-84714228D01*
X140498732Y-84690829D01*
X140498735Y-84690828D01*
X140503959Y-84689732D01*
X140721546Y-84603803D01*
X140783926Y-84565950D01*
X140916983Y-84485209D01*
X140916986Y-84485207D01*
X140921544Y-84482441D01*
X141098234Y-84329117D01*
X141129161Y-84291399D01*
X141187821Y-84251404D01*
X141258791Y-84249473D01*
X141319539Y-84286217D01*
X141334620Y-84308757D01*
X141335306Y-84308332D01*
X141424463Y-84452407D01*
X141433499Y-84463808D01*
X141548229Y-84578339D01*
X141559640Y-84587351D01*
X141697643Y-84672416D01*
X141710824Y-84678563D01*
X141865110Y-84729738D01*
X141878486Y-84732605D01*
X141972838Y-84742272D01*
X141979254Y-84742600D01*
X142374285Y-84742600D01*
X142389524Y-84738125D01*
X142390729Y-84736735D01*
X142392400Y-84729052D01*
X142392400Y-84724484D01*
X142900400Y-84724484D01*
X142904875Y-84739723D01*
X142906265Y-84740928D01*
X142913948Y-84742599D01*
X143313495Y-84742599D01*
X143320014Y-84742262D01*
X143415606Y-84732343D01*
X143429000Y-84729451D01*
X143583184Y-84678012D01*
X143596362Y-84671839D01*
X143734207Y-84586537D01*
X143745608Y-84577501D01*
X143860139Y-84462771D01*
X143869151Y-84451360D01*
X143954216Y-84313357D01*
X143960363Y-84300176D01*
X144011538Y-84145890D01*
X144014405Y-84132514D01*
X144024072Y-84038162D01*
X144024400Y-84031746D01*
X144024400Y-83423338D01*
X146957500Y-83423338D01*
X146957725Y-83425987D01*
X146971689Y-83590558D01*
X146972295Y-83597702D01*
X146973633Y-83602859D01*
X146973634Y-83602862D01*
X147029004Y-83816191D01*
X147031067Y-83824140D01*
X147033259Y-83829006D01*
X147033260Y-83829009D01*
X147099864Y-83976864D01*
X147127150Y-84037437D01*
X147130134Y-84041870D01*
X147130135Y-84041871D01*
X147143537Y-84061778D01*
X147257798Y-84231496D01*
X147261477Y-84235353D01*
X147261479Y-84235355D01*
X147294901Y-84270390D01*
X147419276Y-84400768D01*
X147606965Y-84540413D01*
X147611716Y-84542829D01*
X147611720Y-84542831D01*
X147757663Y-84617032D01*
X147815500Y-84646438D01*
X148038917Y-84715810D01*
X148044204Y-84716511D01*
X148044205Y-84716511D01*
X148265545Y-84745848D01*
X148265549Y-84745848D01*
X148270829Y-84746548D01*
X148276158Y-84746348D01*
X148276160Y-84746348D01*
X148387716Y-84742160D01*
X148504604Y-84737772D01*
X148616813Y-84714228D01*
X148728332Y-84690829D01*
X148728335Y-84690828D01*
X148733559Y-84689732D01*
X148951146Y-84603803D01*
X149013526Y-84565950D01*
X149146583Y-84485209D01*
X149146586Y-84485207D01*
X149151144Y-84482441D01*
X149327834Y-84329117D01*
X149476165Y-84148214D01*
X149478801Y-84143584D01*
X149478804Y-84143579D01*
X149497301Y-84111084D01*
X149548384Y-84061778D01*
X149618015Y-84047917D01*
X149684085Y-84073901D01*
X149711323Y-84103050D01*
X149731979Y-84133731D01*
X149797798Y-84231496D01*
X149801477Y-84235353D01*
X149801479Y-84235355D01*
X149834901Y-84270390D01*
X149959276Y-84400768D01*
X150146965Y-84540413D01*
X150151716Y-84542829D01*
X150151720Y-84542831D01*
X150297663Y-84617032D01*
X150355500Y-84646438D01*
X150578917Y-84715810D01*
X150584204Y-84716511D01*
X150584205Y-84716511D01*
X150805545Y-84745848D01*
X150805549Y-84745848D01*
X150810829Y-84746548D01*
X150816158Y-84746348D01*
X150816160Y-84746348D01*
X150927716Y-84742160D01*
X151044604Y-84737772D01*
X151156813Y-84714228D01*
X151268332Y-84690829D01*
X151268335Y-84690828D01*
X151273559Y-84689732D01*
X151491146Y-84603803D01*
X151553526Y-84565950D01*
X151686583Y-84485209D01*
X151686586Y-84485207D01*
X151691144Y-84482441D01*
X151867834Y-84329117D01*
X152016165Y-84148214D01*
X152018801Y-84143584D01*
X152018804Y-84143579D01*
X152037301Y-84111084D01*
X152088384Y-84061778D01*
X152158015Y-84047917D01*
X152224085Y-84073901D01*
X152251323Y-84103050D01*
X152271979Y-84133731D01*
X152337798Y-84231496D01*
X152341477Y-84235353D01*
X152341479Y-84235355D01*
X152374901Y-84270390D01*
X152499276Y-84400768D01*
X152686965Y-84540413D01*
X152691716Y-84542829D01*
X152691720Y-84542831D01*
X152837663Y-84617032D01*
X152895500Y-84646438D01*
X153118917Y-84715810D01*
X153124204Y-84716511D01*
X153124205Y-84716511D01*
X153345545Y-84745848D01*
X153345549Y-84745848D01*
X153350829Y-84746548D01*
X153356158Y-84746348D01*
X153356160Y-84746348D01*
X153467716Y-84742160D01*
X153584604Y-84737772D01*
X153696813Y-84714228D01*
X153808332Y-84690829D01*
X153808335Y-84690828D01*
X153813559Y-84689732D01*
X154031146Y-84603803D01*
X154093526Y-84565950D01*
X154226583Y-84485209D01*
X154226586Y-84485207D01*
X154231144Y-84482441D01*
X154407834Y-84329117D01*
X154438761Y-84291399D01*
X154497421Y-84251404D01*
X154568391Y-84249473D01*
X154629139Y-84286217D01*
X154644220Y-84308757D01*
X154644906Y-84308332D01*
X154734063Y-84452407D01*
X154743099Y-84463808D01*
X154857829Y-84578339D01*
X154869240Y-84587351D01*
X155007243Y-84672416D01*
X155020424Y-84678563D01*
X155174710Y-84729738D01*
X155188086Y-84732605D01*
X155282438Y-84742272D01*
X155288854Y-84742600D01*
X155683885Y-84742600D01*
X155699124Y-84738125D01*
X155700329Y-84736735D01*
X155702000Y-84729052D01*
X155702000Y-84724484D01*
X156210000Y-84724484D01*
X156214475Y-84739723D01*
X156215865Y-84740928D01*
X156223548Y-84742599D01*
X156623095Y-84742599D01*
X156629614Y-84742262D01*
X156725206Y-84732343D01*
X156738600Y-84729451D01*
X156892784Y-84678012D01*
X156905962Y-84671839D01*
X157043807Y-84586537D01*
X157055208Y-84577501D01*
X157169739Y-84462771D01*
X157178751Y-84451360D01*
X157263816Y-84313357D01*
X157269963Y-84300176D01*
X157321138Y-84145890D01*
X157324005Y-84132514D01*
X157333672Y-84038162D01*
X157334000Y-84031746D01*
X157334000Y-83411715D01*
X157329525Y-83396476D01*
X157328135Y-83395271D01*
X157320452Y-83393600D01*
X156228115Y-83393600D01*
X156212876Y-83398075D01*
X156211671Y-83399465D01*
X156210000Y-83407148D01*
X156210000Y-84724484D01*
X155702000Y-84724484D01*
X155702000Y-82867485D01*
X156210000Y-82867485D01*
X156214475Y-82882724D01*
X156215865Y-82883929D01*
X156223548Y-82885600D01*
X157315884Y-82885600D01*
X157331123Y-82881125D01*
X157332328Y-82879735D01*
X157333999Y-82872052D01*
X157333999Y-82247505D01*
X157333662Y-82240986D01*
X157323743Y-82145394D01*
X157320851Y-82132000D01*
X157269412Y-81977816D01*
X157263239Y-81964638D01*
X157177937Y-81826793D01*
X157168901Y-81815392D01*
X157054171Y-81700861D01*
X157042760Y-81691849D01*
X156904757Y-81606784D01*
X156891576Y-81600637D01*
X156737290Y-81549462D01*
X156723914Y-81546595D01*
X156629562Y-81536928D01*
X156623145Y-81536600D01*
X156228115Y-81536600D01*
X156212876Y-81541075D01*
X156211671Y-81542465D01*
X156210000Y-81550148D01*
X156210000Y-82867485D01*
X155702000Y-82867485D01*
X155702000Y-81554716D01*
X155697525Y-81539477D01*
X155696135Y-81538272D01*
X155688452Y-81536601D01*
X155288905Y-81536601D01*
X155282386Y-81536938D01*
X155186794Y-81546857D01*
X155173400Y-81549749D01*
X155019216Y-81601188D01*
X155006038Y-81607361D01*
X154868193Y-81692663D01*
X154856792Y-81701699D01*
X154742261Y-81816429D01*
X154733249Y-81827840D01*
X154644342Y-81972075D01*
X154642245Y-81970783D01*
X154603044Y-82015292D01*
X154534764Y-82034744D01*
X154466807Y-82014193D01*
X154444614Y-81995722D01*
X154332724Y-81878432D01*
X154300661Y-81854576D01*
X154149317Y-81741973D01*
X154149318Y-81741973D01*
X154145035Y-81738787D01*
X154140284Y-81736371D01*
X154140280Y-81736369D01*
X153941256Y-81635180D01*
X153941255Y-81635180D01*
X153936500Y-81632762D01*
X153713083Y-81563390D01*
X153707796Y-81562689D01*
X153707795Y-81562689D01*
X153486455Y-81533352D01*
X153486451Y-81533352D01*
X153481171Y-81532652D01*
X153475842Y-81532852D01*
X153475840Y-81532852D01*
X153364284Y-81537040D01*
X153247396Y-81541428D01*
X153183657Y-81554802D01*
X153023668Y-81588371D01*
X153023665Y-81588372D01*
X153018441Y-81589468D01*
X152800854Y-81675397D01*
X152764357Y-81697544D01*
X152605417Y-81793991D01*
X152605414Y-81793993D01*
X152600856Y-81796759D01*
X152424166Y-81950083D01*
X152275835Y-82130986D01*
X152273199Y-82135616D01*
X152273196Y-82135621D01*
X152254699Y-82168116D01*
X152203616Y-82217422D01*
X152133985Y-82231283D01*
X152067915Y-82205299D01*
X152040677Y-82176150D01*
X152001323Y-82117696D01*
X151954202Y-82047704D01*
X151923283Y-82015292D01*
X151852596Y-81941194D01*
X151792724Y-81878432D01*
X151760661Y-81854576D01*
X151609317Y-81741973D01*
X151609318Y-81741973D01*
X151605035Y-81738787D01*
X151600284Y-81736371D01*
X151600280Y-81736369D01*
X151401256Y-81635180D01*
X151401255Y-81635180D01*
X151396500Y-81632762D01*
X151173083Y-81563390D01*
X151167796Y-81562689D01*
X151167795Y-81562689D01*
X150946455Y-81533352D01*
X150946451Y-81533352D01*
X150941171Y-81532652D01*
X150935842Y-81532852D01*
X150935840Y-81532852D01*
X150824284Y-81537040D01*
X150707396Y-81541428D01*
X150643657Y-81554802D01*
X150483668Y-81588371D01*
X150483665Y-81588372D01*
X150478441Y-81589468D01*
X150260854Y-81675397D01*
X150224357Y-81697544D01*
X150065417Y-81793991D01*
X150065414Y-81793993D01*
X150060856Y-81796759D01*
X149884166Y-81950083D01*
X149735835Y-82130986D01*
X149733199Y-82135616D01*
X149733196Y-82135621D01*
X149714699Y-82168116D01*
X149663616Y-82217422D01*
X149593985Y-82231283D01*
X149527915Y-82205299D01*
X149500677Y-82176150D01*
X149461323Y-82117696D01*
X149414202Y-82047704D01*
X149383283Y-82015292D01*
X149312596Y-81941194D01*
X149252724Y-81878432D01*
X149220661Y-81854576D01*
X149069317Y-81741973D01*
X149069318Y-81741973D01*
X149065035Y-81738787D01*
X149060284Y-81736371D01*
X149060280Y-81736369D01*
X148861256Y-81635180D01*
X148861255Y-81635180D01*
X148856500Y-81632762D01*
X148633083Y-81563390D01*
X148627796Y-81562689D01*
X148627795Y-81562689D01*
X148406455Y-81533352D01*
X148406451Y-81533352D01*
X148401171Y-81532652D01*
X148395842Y-81532852D01*
X148395840Y-81532852D01*
X148284284Y-81537040D01*
X148167396Y-81541428D01*
X148103657Y-81554802D01*
X147943668Y-81588371D01*
X147943665Y-81588372D01*
X147938441Y-81589468D01*
X147720854Y-81675397D01*
X147684357Y-81697544D01*
X147525417Y-81793991D01*
X147525414Y-81793993D01*
X147520856Y-81796759D01*
X147344166Y-81950083D01*
X147195835Y-82130986D01*
X147080104Y-82334295D01*
X147000284Y-82554196D01*
X146999335Y-82559445D01*
X146999334Y-82559448D01*
X146987364Y-82625643D01*
X146958656Y-82784403D01*
X146957500Y-82808916D01*
X146957500Y-83423338D01*
X144024400Y-83423338D01*
X144024400Y-83411715D01*
X144019925Y-83396476D01*
X144018535Y-83395271D01*
X144010852Y-83393600D01*
X142918515Y-83393600D01*
X142903276Y-83398075D01*
X142902071Y-83399465D01*
X142900400Y-83407148D01*
X142900400Y-84724484D01*
X142392400Y-84724484D01*
X142392400Y-82867485D01*
X142900400Y-82867485D01*
X142904875Y-82882724D01*
X142906265Y-82883929D01*
X142913948Y-82885600D01*
X144006284Y-82885600D01*
X144021523Y-82881125D01*
X144022728Y-82879735D01*
X144024399Y-82872052D01*
X144024399Y-82247505D01*
X144024062Y-82240986D01*
X144014143Y-82145394D01*
X144011251Y-82132000D01*
X143959812Y-81977816D01*
X143953639Y-81964638D01*
X143868337Y-81826793D01*
X143859301Y-81815392D01*
X143744571Y-81700861D01*
X143733160Y-81691849D01*
X143595157Y-81606784D01*
X143581976Y-81600637D01*
X143427690Y-81549462D01*
X143414314Y-81546595D01*
X143319962Y-81536928D01*
X143313545Y-81536600D01*
X142918515Y-81536600D01*
X142903276Y-81541075D01*
X142902071Y-81542465D01*
X142900400Y-81550148D01*
X142900400Y-82867485D01*
X142392400Y-82867485D01*
X142392400Y-81554716D01*
X142387925Y-81539477D01*
X142386535Y-81538272D01*
X142378852Y-81536601D01*
X141979305Y-81536601D01*
X141972786Y-81536938D01*
X141877194Y-81546857D01*
X141863800Y-81549749D01*
X141709616Y-81601188D01*
X141696438Y-81607361D01*
X141558593Y-81692663D01*
X141547192Y-81701699D01*
X141432661Y-81816429D01*
X141423649Y-81827840D01*
X141334742Y-81972075D01*
X141332645Y-81970783D01*
X141293444Y-82015292D01*
X141225164Y-82034744D01*
X141157207Y-82014193D01*
X141135014Y-81995722D01*
X141023124Y-81878432D01*
X140991061Y-81854576D01*
X140839717Y-81741973D01*
X140839718Y-81741973D01*
X140835435Y-81738787D01*
X140830684Y-81736371D01*
X140830680Y-81736369D01*
X140631656Y-81635180D01*
X140631655Y-81635180D01*
X140626900Y-81632762D01*
X140403483Y-81563390D01*
X140398196Y-81562689D01*
X140398195Y-81562689D01*
X140176855Y-81533352D01*
X140176851Y-81533352D01*
X140171571Y-81532652D01*
X140166242Y-81532852D01*
X140166240Y-81532852D01*
X140054684Y-81537040D01*
X139937796Y-81541428D01*
X139874057Y-81554802D01*
X139714068Y-81588371D01*
X139714065Y-81588372D01*
X139708841Y-81589468D01*
X139491254Y-81675397D01*
X139454757Y-81697544D01*
X139295817Y-81793991D01*
X139295814Y-81793993D01*
X139291256Y-81796759D01*
X139114566Y-81950083D01*
X138966235Y-82130986D01*
X138963599Y-82135616D01*
X138963596Y-82135621D01*
X138945099Y-82168116D01*
X138894016Y-82217422D01*
X138824385Y-82231283D01*
X138758315Y-82205299D01*
X138731077Y-82176150D01*
X138691723Y-82117696D01*
X138644602Y-82047704D01*
X138613683Y-82015292D01*
X138542996Y-81941194D01*
X138483124Y-81878432D01*
X138451061Y-81854576D01*
X138299717Y-81741973D01*
X138299718Y-81741973D01*
X138295435Y-81738787D01*
X138290684Y-81736371D01*
X138290680Y-81736369D01*
X138091656Y-81635180D01*
X138091655Y-81635180D01*
X138086900Y-81632762D01*
X137863483Y-81563390D01*
X137858196Y-81562689D01*
X137858195Y-81562689D01*
X137636855Y-81533352D01*
X137636851Y-81533352D01*
X137631571Y-81532652D01*
X137626242Y-81532852D01*
X137626240Y-81532852D01*
X137514684Y-81537040D01*
X137397796Y-81541428D01*
X137334057Y-81554802D01*
X137174068Y-81588371D01*
X137174065Y-81588372D01*
X137168841Y-81589468D01*
X136951254Y-81675397D01*
X136914757Y-81697544D01*
X136755817Y-81793991D01*
X136755814Y-81793993D01*
X136751256Y-81796759D01*
X136574566Y-81950083D01*
X136426235Y-82130986D01*
X136423599Y-82135616D01*
X136423596Y-82135621D01*
X136405099Y-82168116D01*
X136354016Y-82217422D01*
X136284385Y-82231283D01*
X136218315Y-82205299D01*
X136191077Y-82176150D01*
X136151723Y-82117696D01*
X136104602Y-82047704D01*
X136073683Y-82015292D01*
X136002996Y-81941194D01*
X135943124Y-81878432D01*
X135911061Y-81854576D01*
X135759717Y-81741973D01*
X135759718Y-81741973D01*
X135755435Y-81738787D01*
X135750684Y-81736371D01*
X135750680Y-81736369D01*
X135551656Y-81635180D01*
X135551655Y-81635180D01*
X135546900Y-81632762D01*
X135323483Y-81563390D01*
X135318196Y-81562689D01*
X135318195Y-81562689D01*
X135096855Y-81533352D01*
X135096851Y-81533352D01*
X135091571Y-81532652D01*
X135086242Y-81532852D01*
X135086240Y-81532852D01*
X134974684Y-81537040D01*
X134857796Y-81541428D01*
X134794057Y-81554802D01*
X134634068Y-81588371D01*
X134634065Y-81588372D01*
X134628841Y-81589468D01*
X134411254Y-81675397D01*
X134374757Y-81697544D01*
X134215817Y-81793991D01*
X134215814Y-81793993D01*
X134211256Y-81796759D01*
X134034566Y-81950083D01*
X133886235Y-82130986D01*
X133770504Y-82334295D01*
X133690684Y-82554196D01*
X133689735Y-82559445D01*
X133689734Y-82559448D01*
X133677764Y-82625643D01*
X133649056Y-82784403D01*
X133647900Y-82808916D01*
X133647900Y-83423338D01*
X127866871Y-83423338D01*
X127882517Y-83358170D01*
X127882518Y-83358164D01*
X127883672Y-83353357D01*
X127902919Y-83108800D01*
X127883672Y-82864243D01*
X127880715Y-82851924D01*
X127827560Y-82630520D01*
X127826405Y-82625708D01*
X127732527Y-82399068D01*
X127620313Y-82215950D01*
X127606942Y-82194130D01*
X127606940Y-82194127D01*
X127604352Y-82189904D01*
X127591835Y-82175248D01*
X127448241Y-82007123D01*
X127445033Y-82003367D01*
X127382646Y-81950083D01*
X127262263Y-81847265D01*
X127262260Y-81847263D01*
X127258496Y-81844048D01*
X127254273Y-81841460D01*
X127254270Y-81841458D01*
X127112901Y-81754828D01*
X127049332Y-81715873D01*
X126893143Y-81651177D01*
X126827265Y-81623889D01*
X126827263Y-81623888D01*
X126822692Y-81621995D01*
X126733729Y-81600637D01*
X126588970Y-81565883D01*
X126588964Y-81565882D01*
X126584157Y-81564728D01*
X126339600Y-81545481D01*
X126095043Y-81564728D01*
X126090236Y-81565882D01*
X126090230Y-81565883D01*
X125945471Y-81600637D01*
X125856508Y-81621995D01*
X125851937Y-81623888D01*
X125851935Y-81623889D01*
X125786057Y-81651177D01*
X125629868Y-81715873D01*
X125566299Y-81754828D01*
X125424930Y-81841458D01*
X125424927Y-81841460D01*
X125420704Y-81844048D01*
X125416940Y-81847263D01*
X125416937Y-81847265D01*
X125296554Y-81950083D01*
X125234167Y-82003367D01*
X125230959Y-82007123D01*
X125165411Y-82083869D01*
X125105960Y-82122678D01*
X125034965Y-82123184D01*
X124973789Y-82083869D01*
X124908241Y-82007123D01*
X124905033Y-82003367D01*
X124842646Y-81950083D01*
X124722263Y-81847265D01*
X124722260Y-81847263D01*
X124718496Y-81844048D01*
X124714273Y-81841460D01*
X124714270Y-81841458D01*
X124572901Y-81754828D01*
X124509332Y-81715873D01*
X124353143Y-81651177D01*
X124287265Y-81623889D01*
X124287263Y-81623888D01*
X124282692Y-81621995D01*
X124193729Y-81600637D01*
X124048970Y-81565883D01*
X124048964Y-81565882D01*
X124044157Y-81564728D01*
X123799600Y-81545481D01*
X123555043Y-81564728D01*
X123550236Y-81565882D01*
X123550230Y-81565883D01*
X123405471Y-81600637D01*
X123316508Y-81621995D01*
X123311937Y-81623888D01*
X123311935Y-81623889D01*
X123246057Y-81651177D01*
X123089868Y-81715873D01*
X122962390Y-81793991D01*
X122911959Y-81824895D01*
X122843426Y-81843433D01*
X122775749Y-81821976D01*
X122745298Y-81793027D01*
X122677881Y-81703072D01*
X122665324Y-81690515D01*
X122563249Y-81614014D01*
X122547654Y-81605476D01*
X122427206Y-81560322D01*
X122411951Y-81556695D01*
X122361086Y-81551169D01*
X122354272Y-81550800D01*
X121531715Y-81550800D01*
X121516476Y-81555275D01*
X121515271Y-81556665D01*
X121513600Y-81564348D01*
X121513600Y-84648684D01*
X121005600Y-84648684D01*
X121005600Y-83380915D01*
X121001125Y-83365676D01*
X120999735Y-83364471D01*
X120992052Y-83362800D01*
X119719716Y-83362800D01*
X119704477Y-83367275D01*
X119703272Y-83368665D01*
X119701601Y-83376348D01*
X119701601Y-84203469D01*
X116051648Y-84203469D01*
X116147812Y-84120023D01*
X116147814Y-84120021D01*
X116151845Y-84116523D01*
X116196733Y-84061778D01*
X116294640Y-83942373D01*
X116294644Y-83942367D01*
X116298024Y-83938245D01*
X116301436Y-83932252D01*
X116409432Y-83742529D01*
X116412075Y-83737886D01*
X116490737Y-83521175D01*
X116508910Y-83420678D01*
X116531023Y-83298392D01*
X116531024Y-83298385D01*
X116531761Y-83294308D01*
X116532900Y-83270156D01*
X116532900Y-82858110D01*
X116531082Y-82836685D01*
X119701600Y-82836685D01*
X119706075Y-82851924D01*
X119707465Y-82853129D01*
X119715148Y-82854800D01*
X120987485Y-82854800D01*
X121002724Y-82850325D01*
X121003929Y-82848935D01*
X121005600Y-82841252D01*
X121005600Y-81568916D01*
X121001125Y-81553677D01*
X120999735Y-81552472D01*
X120992052Y-81550801D01*
X120164931Y-81550801D01*
X120158110Y-81551171D01*
X120107248Y-81556695D01*
X120091996Y-81560321D01*
X119971546Y-81605476D01*
X119955951Y-81614014D01*
X119853876Y-81690515D01*
X119841315Y-81703076D01*
X119764814Y-81805151D01*
X119756276Y-81820746D01*
X119711122Y-81941194D01*
X119707495Y-81956449D01*
X119701969Y-82007314D01*
X119701600Y-82014128D01*
X119701600Y-82836685D01*
X116531082Y-82836685D01*
X116520392Y-82710697D01*
X116518771Y-82691591D01*
X116518770Y-82691587D01*
X116518320Y-82686280D01*
X116516982Y-82681125D01*
X116516981Y-82681119D01*
X116461743Y-82468297D01*
X116461742Y-82468293D01*
X116460401Y-82463128D01*
X116454933Y-82450988D01*
X116387267Y-82300776D01*
X116365712Y-82252925D01*
X116236959Y-82061681D01*
X116219945Y-82043845D01*
X116165948Y-81987243D01*
X116077824Y-81894865D01*
X115892858Y-81757246D01*
X115888107Y-81754830D01*
X115888103Y-81754828D01*
X115764231Y-81691849D01*
X115687349Y-81652760D01*
X115682255Y-81651178D01*
X115682252Y-81651177D01*
X115472271Y-81585976D01*
X115467173Y-81584393D01*
X115461884Y-81583692D01*
X115243911Y-81554802D01*
X115243906Y-81554802D01*
X115238626Y-81554102D01*
X115233297Y-81554302D01*
X115233295Y-81554302D01*
X115134768Y-81558001D01*
X115008242Y-81562751D01*
X115003023Y-81563846D01*
X114993315Y-81565883D01*
X114782609Y-81610093D01*
X114777650Y-81612051D01*
X114777648Y-81612052D01*
X114573144Y-81692815D01*
X114573142Y-81692816D01*
X114568179Y-81694776D01*
X114563620Y-81697543D01*
X114563617Y-81697544D01*
X114465232Y-81757246D01*
X114371083Y-81814377D01*
X114367053Y-81817874D01*
X114207359Y-81956449D01*
X114196955Y-81965477D01*
X114191545Y-81972075D01*
X114054160Y-82139627D01*
X114054156Y-82139633D01*
X114050776Y-82143755D01*
X114032848Y-82175250D01*
X113981768Y-82224555D01*
X113912138Y-82238417D01*
X113846067Y-82212434D01*
X113818827Y-82183284D01*
X113786738Y-82135621D01*
X113736959Y-82061681D01*
X113719945Y-82043845D01*
X113665948Y-81987243D01*
X113577824Y-81894865D01*
X113392858Y-81757246D01*
X113388107Y-81754830D01*
X113388103Y-81754828D01*
X113264231Y-81691849D01*
X113187349Y-81652760D01*
X113182255Y-81651178D01*
X113182252Y-81651177D01*
X112972271Y-81585976D01*
X112967173Y-81584393D01*
X112961884Y-81583692D01*
X112743911Y-81554802D01*
X112743906Y-81554802D01*
X112738626Y-81554102D01*
X112733297Y-81554302D01*
X112733295Y-81554302D01*
X112634768Y-81558001D01*
X112508242Y-81562751D01*
X112503023Y-81563846D01*
X112493315Y-81565883D01*
X112282609Y-81610093D01*
X112277650Y-81612051D01*
X112277648Y-81612052D01*
X112073144Y-81692815D01*
X112073142Y-81692816D01*
X112068179Y-81694776D01*
X112063620Y-81697543D01*
X112063617Y-81697544D01*
X111965232Y-81757246D01*
X111871083Y-81814377D01*
X111867053Y-81817874D01*
X111707359Y-81956449D01*
X111696955Y-81965477D01*
X111691545Y-81972075D01*
X111667394Y-82001529D01*
X111608734Y-82041524D01*
X111537764Y-82043455D01*
X111477016Y-82006710D01*
X111462816Y-81987941D01*
X111376337Y-81848193D01*
X111367301Y-81836792D01*
X111252571Y-81722261D01*
X111241160Y-81713249D01*
X111103157Y-81628184D01*
X111089976Y-81622037D01*
X110935690Y-81570862D01*
X110922314Y-81567995D01*
X110827962Y-81558328D01*
X110821545Y-81558000D01*
X110446515Y-81558000D01*
X110431276Y-81562475D01*
X110430071Y-81563865D01*
X110428400Y-81571548D01*
X110428400Y-84505884D01*
X109920400Y-84505884D01*
X109920400Y-83313115D01*
X109915925Y-83297876D01*
X109914535Y-83296671D01*
X109906852Y-83295000D01*
X108834516Y-83295000D01*
X108819277Y-83299475D01*
X108818072Y-83300865D01*
X108816401Y-83308548D01*
X108816401Y-83813095D01*
X105008000Y-83813095D01*
X105008000Y-82768885D01*
X108816400Y-82768885D01*
X108820875Y-82784124D01*
X108822265Y-82785329D01*
X108829948Y-82787000D01*
X109902285Y-82787000D01*
X109917524Y-82782525D01*
X109918729Y-82781135D01*
X109920400Y-82773452D01*
X109920400Y-81576116D01*
X109915925Y-81560877D01*
X109914535Y-81559672D01*
X109906852Y-81558001D01*
X109527305Y-81558001D01*
X109520786Y-81558338D01*
X109425194Y-81568257D01*
X109411800Y-81571149D01*
X109257616Y-81622588D01*
X109244438Y-81628761D01*
X109106593Y-81714063D01*
X109095192Y-81723099D01*
X108980661Y-81837829D01*
X108971649Y-81849240D01*
X108886584Y-81987243D01*
X108880437Y-82000424D01*
X108829262Y-82154710D01*
X108826395Y-82168086D01*
X108816728Y-82262438D01*
X108816400Y-82268855D01*
X108816400Y-82768885D01*
X105008000Y-82768885D01*
X105008000Y-78689200D01*
X134011296Y-78689200D01*
X134031258Y-78879128D01*
X134090273Y-79060756D01*
X134185760Y-79226144D01*
X134313547Y-79368066D01*
X134468048Y-79480318D01*
X134474076Y-79483002D01*
X134474078Y-79483003D01*
X134636481Y-79555309D01*
X134642512Y-79557994D01*
X134726762Y-79575902D01*
X134822856Y-79596328D01*
X134822861Y-79596328D01*
X134829313Y-79597700D01*
X135020287Y-79597700D01*
X135026739Y-79596328D01*
X135026744Y-79596328D01*
X135122838Y-79575902D01*
X135207088Y-79557994D01*
X135213119Y-79555309D01*
X135375522Y-79483003D01*
X135375524Y-79483002D01*
X135381552Y-79480318D01*
X135536053Y-79368066D01*
X135663840Y-79226144D01*
X135759327Y-79060756D01*
X135818342Y-78879128D01*
X135838304Y-78689200D01*
X135818342Y-78499272D01*
X135759327Y-78317644D01*
X135663840Y-78152256D01*
X135536053Y-78010334D01*
X135381552Y-77898082D01*
X135375524Y-77895398D01*
X135375522Y-77895397D01*
X135213119Y-77823091D01*
X135213118Y-77823091D01*
X135207088Y-77820406D01*
X135113688Y-77800553D01*
X135026744Y-77782072D01*
X135026739Y-77782072D01*
X135020287Y-77780700D01*
X134829313Y-77780700D01*
X134822861Y-77782072D01*
X134822856Y-77782072D01*
X134735912Y-77800553D01*
X134642512Y-77820406D01*
X134636482Y-77823091D01*
X134636481Y-77823091D01*
X134474078Y-77895397D01*
X134474076Y-77895398D01*
X134468048Y-77898082D01*
X134313547Y-78010334D01*
X134185760Y-78152256D01*
X134090273Y-78317644D01*
X134031258Y-78499272D01*
X134011296Y-78689200D01*
X105008000Y-78689200D01*
X105008000Y-74292277D01*
X106137009Y-74292277D01*
X106162625Y-74560769D01*
X106163710Y-74565203D01*
X106163711Y-74565209D01*
X106225645Y-74818312D01*
X106226731Y-74822750D01*
X106327985Y-75072733D01*
X106464265Y-75305482D01*
X106467118Y-75309049D01*
X106584686Y-75456060D01*
X106632716Y-75516119D01*
X106829809Y-75700234D01*
X107051416Y-75853968D01*
X107055499Y-75855999D01*
X107055502Y-75856001D01*
X107171013Y-75913466D01*
X107292894Y-75974101D01*
X107297228Y-75975522D01*
X107297231Y-75975523D01*
X107544853Y-76056698D01*
X107544859Y-76056699D01*
X107549186Y-76058118D01*
X107553677Y-76058898D01*
X107553678Y-76058898D01*
X107811140Y-76103601D01*
X107811148Y-76103602D01*
X107814921Y-76104257D01*
X107818758Y-76104448D01*
X107898578Y-76108422D01*
X107898586Y-76108422D01*
X107900149Y-76108500D01*
X108068512Y-76108500D01*
X108070780Y-76108335D01*
X108070792Y-76108335D01*
X108201884Y-76098823D01*
X108269004Y-76093953D01*
X108273459Y-76092969D01*
X108273462Y-76092969D01*
X108527912Y-76036791D01*
X108527916Y-76036790D01*
X108532372Y-76035806D01*
X108658480Y-75988028D01*
X108780318Y-75941868D01*
X108780321Y-75941867D01*
X108784588Y-75940250D01*
X109020368Y-75809286D01*
X109234773Y-75645657D01*
X109423312Y-75452792D01*
X109582034Y-75234730D01*
X109634521Y-75134969D01*
X109705490Y-75000079D01*
X109705493Y-75000073D01*
X109707615Y-74996039D01*
X109737712Y-74910814D01*
X109795902Y-74746033D01*
X109795902Y-74746032D01*
X109797425Y-74741720D01*
X109838293Y-74534373D01*
X109848700Y-74481572D01*
X109848701Y-74481566D01*
X109849581Y-74477100D01*
X109849808Y-74472544D01*
X109862764Y-74212292D01*
X109862764Y-74212286D01*
X109862991Y-74207723D01*
X109837375Y-73939231D01*
X109826996Y-73896812D01*
X109774355Y-73681688D01*
X109773269Y-73677250D01*
X109672015Y-73427267D01*
X109535735Y-73194518D01*
X109417928Y-73047208D01*
X109370136Y-72987447D01*
X109370135Y-72987445D01*
X109367284Y-72983881D01*
X109359591Y-72976695D01*
X111437251Y-72976695D01*
X111437548Y-72981848D01*
X111437548Y-72981851D01*
X111443011Y-73076590D01*
X111450110Y-73199715D01*
X111451247Y-73204761D01*
X111451248Y-73204767D01*
X111465793Y-73269304D01*
X111499222Y-73417639D01*
X111583266Y-73624616D01*
X111634019Y-73707438D01*
X111697291Y-73810688D01*
X111699987Y-73815088D01*
X111846250Y-73983938D01*
X111850230Y-73987242D01*
X111854981Y-73991187D01*
X111894616Y-74050090D01*
X111896113Y-74121071D01*
X111858997Y-74181593D01*
X111818725Y-74206112D01*
X111777913Y-74221412D01*
X111703295Y-74249385D01*
X111586739Y-74336739D01*
X111499385Y-74453295D01*
X111448255Y-74589684D01*
X111441500Y-74651866D01*
X111441500Y-76448134D01*
X111448255Y-76510316D01*
X111499385Y-76646705D01*
X111586739Y-76763261D01*
X111703295Y-76850615D01*
X111839684Y-76901745D01*
X111901866Y-76908500D01*
X113698134Y-76908500D01*
X113760316Y-76901745D01*
X113896705Y-76850615D01*
X114013261Y-76763261D01*
X114100615Y-76646705D01*
X114122799Y-76587529D01*
X114144598Y-76529382D01*
X114187240Y-76472618D01*
X114253802Y-76447918D01*
X114323150Y-76463126D01*
X114357817Y-76491114D01*
X114386250Y-76523938D01*
X114558126Y-76666632D01*
X114751000Y-76779338D01*
X114959692Y-76859030D01*
X114964760Y-76860061D01*
X114964763Y-76860062D01*
X115059862Y-76879410D01*
X115178597Y-76903567D01*
X115183772Y-76903757D01*
X115183774Y-76903757D01*
X115396673Y-76911564D01*
X115396677Y-76911564D01*
X115401837Y-76911753D01*
X115406957Y-76911097D01*
X115406959Y-76911097D01*
X115618288Y-76884025D01*
X115618289Y-76884025D01*
X115623416Y-76883368D01*
X115628366Y-76881883D01*
X115832429Y-76820661D01*
X115832434Y-76820659D01*
X115837384Y-76819174D01*
X116037994Y-76720896D01*
X116219860Y-76591173D01*
X116378096Y-76433489D01*
X116508453Y-76252077D01*
X116509776Y-76253028D01*
X116556645Y-76209857D01*
X116626580Y-76197625D01*
X116692026Y-76225144D01*
X116719875Y-76256994D01*
X116779987Y-76355088D01*
X116926250Y-76523938D01*
X117098126Y-76666632D01*
X117291000Y-76779338D01*
X117499692Y-76859030D01*
X117504760Y-76860061D01*
X117504763Y-76860062D01*
X117599862Y-76879410D01*
X117718597Y-76903567D01*
X117723772Y-76903757D01*
X117723774Y-76903757D01*
X117936673Y-76911564D01*
X117936677Y-76911564D01*
X117941837Y-76911753D01*
X117946957Y-76911097D01*
X117946959Y-76911097D01*
X118158288Y-76884025D01*
X118158289Y-76884025D01*
X118163416Y-76883368D01*
X118168366Y-76881883D01*
X118372429Y-76820661D01*
X118372434Y-76820659D01*
X118377384Y-76819174D01*
X118577994Y-76720896D01*
X118759860Y-76591173D01*
X118918096Y-76433489D01*
X119048453Y-76252077D01*
X119049776Y-76253028D01*
X119096645Y-76209857D01*
X119166580Y-76197625D01*
X119232026Y-76225144D01*
X119259875Y-76256994D01*
X119319987Y-76355088D01*
X119466250Y-76523938D01*
X119638126Y-76666632D01*
X119831000Y-76779338D01*
X120039692Y-76859030D01*
X120044760Y-76860061D01*
X120044763Y-76860062D01*
X120139862Y-76879410D01*
X120258597Y-76903567D01*
X120263772Y-76903757D01*
X120263774Y-76903757D01*
X120476673Y-76911564D01*
X120476677Y-76911564D01*
X120481837Y-76911753D01*
X120486957Y-76911097D01*
X120486959Y-76911097D01*
X120698288Y-76884025D01*
X120698289Y-76884025D01*
X120703416Y-76883368D01*
X120708366Y-76881883D01*
X120912429Y-76820661D01*
X120912434Y-76820659D01*
X120917384Y-76819174D01*
X121117994Y-76720896D01*
X121299860Y-76591173D01*
X121458096Y-76433489D01*
X121588453Y-76252077D01*
X121589640Y-76252930D01*
X121636960Y-76209362D01*
X121706897Y-76197145D01*
X121772338Y-76224678D01*
X121800166Y-76256511D01*
X121857694Y-76350388D01*
X121863777Y-76358699D01*
X122003213Y-76519667D01*
X122010580Y-76526883D01*
X122174434Y-76662916D01*
X122182881Y-76668831D01*
X122366756Y-76776279D01*
X122376042Y-76780729D01*
X122575001Y-76856703D01*
X122584899Y-76859579D01*
X122688250Y-76880606D01*
X122702299Y-76879410D01*
X122706000Y-76869065D01*
X122706000Y-75422000D01*
X122726002Y-75353879D01*
X122779658Y-75307386D01*
X122832000Y-75296000D01*
X123088000Y-75296000D01*
X123156121Y-75316002D01*
X123202614Y-75369658D01*
X123214000Y-75422000D01*
X123214000Y-76868517D01*
X123218064Y-76882359D01*
X123231478Y-76884393D01*
X123238184Y-76883534D01*
X123248262Y-76881392D01*
X123452255Y-76820191D01*
X123461842Y-76816433D01*
X123653095Y-76722739D01*
X123661945Y-76717464D01*
X123835328Y-76593792D01*
X123843200Y-76587139D01*
X123994052Y-76436812D01*
X124000730Y-76428965D01*
X124128022Y-76251819D01*
X124129279Y-76252722D01*
X124176373Y-76209362D01*
X124246311Y-76197145D01*
X124311751Y-76224678D01*
X124339579Y-76256511D01*
X124399987Y-76355088D01*
X124546250Y-76523938D01*
X124718126Y-76666632D01*
X124911000Y-76779338D01*
X125119692Y-76859030D01*
X125124760Y-76860061D01*
X125124763Y-76860062D01*
X125219862Y-76879410D01*
X125338597Y-76903567D01*
X125343772Y-76903757D01*
X125343774Y-76903757D01*
X125556673Y-76911564D01*
X125556677Y-76911564D01*
X125561837Y-76911753D01*
X125566957Y-76911097D01*
X125566959Y-76911097D01*
X125778288Y-76884025D01*
X125778289Y-76884025D01*
X125783416Y-76883368D01*
X125788366Y-76881883D01*
X125992429Y-76820661D01*
X125992434Y-76820659D01*
X125997384Y-76819174D01*
X126197994Y-76720896D01*
X126379860Y-76591173D01*
X126538096Y-76433489D01*
X126668453Y-76252077D01*
X126669776Y-76253028D01*
X126716645Y-76209857D01*
X126786580Y-76197625D01*
X126852026Y-76225144D01*
X126879875Y-76256994D01*
X126939987Y-76355088D01*
X127086250Y-76523938D01*
X127258126Y-76666632D01*
X127451000Y-76779338D01*
X127659692Y-76859030D01*
X127664760Y-76860061D01*
X127664763Y-76860062D01*
X127759862Y-76879410D01*
X127878597Y-76903567D01*
X127883772Y-76903757D01*
X127883774Y-76903757D01*
X128096673Y-76911564D01*
X128096677Y-76911564D01*
X128101837Y-76911753D01*
X128106957Y-76911097D01*
X128106959Y-76911097D01*
X128318288Y-76884025D01*
X128318289Y-76884025D01*
X128323416Y-76883368D01*
X128328366Y-76881883D01*
X128532429Y-76820661D01*
X128532434Y-76820659D01*
X128537384Y-76819174D01*
X128737994Y-76720896D01*
X128919860Y-76591173D01*
X129078096Y-76433489D01*
X129208453Y-76252077D01*
X129209776Y-76253028D01*
X129256645Y-76209857D01*
X129326580Y-76197625D01*
X129392026Y-76225144D01*
X129419875Y-76256994D01*
X129479987Y-76355088D01*
X129626250Y-76523938D01*
X129798126Y-76666632D01*
X129991000Y-76779338D01*
X130199692Y-76859030D01*
X130204760Y-76860061D01*
X130204763Y-76860062D01*
X130299862Y-76879410D01*
X130418597Y-76903567D01*
X130423772Y-76903757D01*
X130423774Y-76903757D01*
X130636673Y-76911564D01*
X130636677Y-76911564D01*
X130641837Y-76911753D01*
X130646957Y-76911097D01*
X130646959Y-76911097D01*
X130858288Y-76884025D01*
X130858289Y-76884025D01*
X130863416Y-76883368D01*
X130868366Y-76881883D01*
X131072429Y-76820661D01*
X131072434Y-76820659D01*
X131077384Y-76819174D01*
X131277994Y-76720896D01*
X131459860Y-76591173D01*
X131618096Y-76433489D01*
X131748453Y-76252077D01*
X131749776Y-76253028D01*
X131796645Y-76209857D01*
X131866580Y-76197625D01*
X131932026Y-76225144D01*
X131959875Y-76256994D01*
X132019987Y-76355088D01*
X132166250Y-76523938D01*
X132338126Y-76666632D01*
X132531000Y-76779338D01*
X132739692Y-76859030D01*
X132744760Y-76860061D01*
X132744763Y-76860062D01*
X132839862Y-76879410D01*
X132958597Y-76903567D01*
X132963772Y-76903757D01*
X132963774Y-76903757D01*
X133176673Y-76911564D01*
X133176677Y-76911564D01*
X133181837Y-76911753D01*
X133186957Y-76911097D01*
X133186959Y-76911097D01*
X133398288Y-76884025D01*
X133398289Y-76884025D01*
X133403416Y-76883368D01*
X133408366Y-76881883D01*
X133612429Y-76820661D01*
X133612434Y-76820659D01*
X133617384Y-76819174D01*
X133817994Y-76720896D01*
X133999860Y-76591173D01*
X134158096Y-76433489D01*
X134288453Y-76252077D01*
X134289776Y-76253028D01*
X134336645Y-76209857D01*
X134406580Y-76197625D01*
X134472026Y-76225144D01*
X134499875Y-76256994D01*
X134559987Y-76355088D01*
X134706250Y-76523938D01*
X134878126Y-76666632D01*
X135071000Y-76779338D01*
X135279692Y-76859030D01*
X135284760Y-76860061D01*
X135284763Y-76860062D01*
X135379862Y-76879410D01*
X135498597Y-76903567D01*
X135503772Y-76903757D01*
X135503774Y-76903757D01*
X135716673Y-76911564D01*
X135716677Y-76911564D01*
X135721837Y-76911753D01*
X135726957Y-76911097D01*
X135726959Y-76911097D01*
X135938288Y-76884025D01*
X135938289Y-76884025D01*
X135943416Y-76883368D01*
X135948366Y-76881883D01*
X136152429Y-76820661D01*
X136152434Y-76820659D01*
X136157384Y-76819174D01*
X136357994Y-76720896D01*
X136539860Y-76591173D01*
X136698096Y-76433489D01*
X136828453Y-76252077D01*
X136829776Y-76253028D01*
X136876645Y-76209857D01*
X136946580Y-76197625D01*
X137012026Y-76225144D01*
X137039875Y-76256994D01*
X137099987Y-76355088D01*
X137246250Y-76523938D01*
X137418126Y-76666632D01*
X137611000Y-76779338D01*
X137819692Y-76859030D01*
X137824760Y-76860061D01*
X137824763Y-76860062D01*
X137919862Y-76879410D01*
X138038597Y-76903567D01*
X138043772Y-76903757D01*
X138043774Y-76903757D01*
X138256673Y-76911564D01*
X138256677Y-76911564D01*
X138261837Y-76911753D01*
X138266957Y-76911097D01*
X138266959Y-76911097D01*
X138478288Y-76884025D01*
X138478289Y-76884025D01*
X138483416Y-76883368D01*
X138488366Y-76881883D01*
X138692429Y-76820661D01*
X138692434Y-76820659D01*
X138697384Y-76819174D01*
X138897994Y-76720896D01*
X139079860Y-76591173D01*
X139238096Y-76433489D01*
X139368453Y-76252077D01*
X139369776Y-76253028D01*
X139416645Y-76209857D01*
X139486580Y-76197625D01*
X139552026Y-76225144D01*
X139579875Y-76256994D01*
X139639987Y-76355088D01*
X139786250Y-76523938D01*
X139958126Y-76666632D01*
X140151000Y-76779338D01*
X140359692Y-76859030D01*
X140364760Y-76860061D01*
X140364763Y-76860062D01*
X140459862Y-76879410D01*
X140578597Y-76903567D01*
X140583772Y-76903757D01*
X140583774Y-76903757D01*
X140796673Y-76911564D01*
X140796677Y-76911564D01*
X140801837Y-76911753D01*
X140806957Y-76911097D01*
X140806959Y-76911097D01*
X141018288Y-76884025D01*
X141018289Y-76884025D01*
X141023416Y-76883368D01*
X141028366Y-76881883D01*
X141232429Y-76820661D01*
X141232434Y-76820659D01*
X141237384Y-76819174D01*
X141437994Y-76720896D01*
X141619860Y-76591173D01*
X141778096Y-76433489D01*
X141908453Y-76252077D01*
X141909640Y-76252930D01*
X141956960Y-76209362D01*
X142026897Y-76197145D01*
X142092338Y-76224678D01*
X142120166Y-76256511D01*
X142177694Y-76350388D01*
X142183777Y-76358699D01*
X142323213Y-76519667D01*
X142330580Y-76526883D01*
X142494434Y-76662916D01*
X142502881Y-76668831D01*
X142686756Y-76776279D01*
X142696042Y-76780729D01*
X142895001Y-76856703D01*
X142904899Y-76859579D01*
X143008250Y-76880606D01*
X143022299Y-76879410D01*
X143026000Y-76869065D01*
X143026000Y-75422000D01*
X143046002Y-75353879D01*
X143099658Y-75307386D01*
X143152000Y-75296000D01*
X143408000Y-75296000D01*
X143476121Y-75316002D01*
X143522614Y-75369658D01*
X143534000Y-75422000D01*
X143534000Y-76868517D01*
X143538064Y-76882359D01*
X143551478Y-76884393D01*
X143558184Y-76883534D01*
X143568262Y-76881392D01*
X143772255Y-76820191D01*
X143781842Y-76816433D01*
X143973095Y-76722739D01*
X143981945Y-76717464D01*
X144155328Y-76593792D01*
X144163200Y-76587139D01*
X144314052Y-76436812D01*
X144320730Y-76428965D01*
X144448022Y-76251819D01*
X144449279Y-76252722D01*
X144496373Y-76209362D01*
X144566311Y-76197145D01*
X144631751Y-76224678D01*
X144659579Y-76256511D01*
X144719987Y-76355088D01*
X144866250Y-76523938D01*
X145038126Y-76666632D01*
X145231000Y-76779338D01*
X145439692Y-76859030D01*
X145444760Y-76860061D01*
X145444763Y-76860062D01*
X145539862Y-76879410D01*
X145658597Y-76903567D01*
X145663772Y-76903757D01*
X145663774Y-76903757D01*
X145876673Y-76911564D01*
X145876677Y-76911564D01*
X145881837Y-76911753D01*
X145886957Y-76911097D01*
X145886959Y-76911097D01*
X146098288Y-76884025D01*
X146098289Y-76884025D01*
X146103416Y-76883368D01*
X146108366Y-76881883D01*
X146312429Y-76820661D01*
X146312434Y-76820659D01*
X146317384Y-76819174D01*
X146517994Y-76720896D01*
X146699860Y-76591173D01*
X146858096Y-76433489D01*
X146988453Y-76252077D01*
X146989776Y-76253028D01*
X147036645Y-76209857D01*
X147106580Y-76197625D01*
X147172026Y-76225144D01*
X147199875Y-76256994D01*
X147259987Y-76355088D01*
X147406250Y-76523938D01*
X147578126Y-76666632D01*
X147771000Y-76779338D01*
X147979692Y-76859030D01*
X147984760Y-76860061D01*
X147984763Y-76860062D01*
X148079862Y-76879410D01*
X148198597Y-76903567D01*
X148203772Y-76903757D01*
X148203774Y-76903757D01*
X148416673Y-76911564D01*
X148416677Y-76911564D01*
X148421837Y-76911753D01*
X148426957Y-76911097D01*
X148426959Y-76911097D01*
X148638288Y-76884025D01*
X148638289Y-76884025D01*
X148643416Y-76883368D01*
X148648366Y-76881883D01*
X148852429Y-76820661D01*
X148852434Y-76820659D01*
X148857384Y-76819174D01*
X149057994Y-76720896D01*
X149239860Y-76591173D01*
X149398096Y-76433489D01*
X149528453Y-76252077D01*
X149529776Y-76253028D01*
X149576645Y-76209857D01*
X149646580Y-76197625D01*
X149712026Y-76225144D01*
X149739875Y-76256994D01*
X149799987Y-76355088D01*
X149946250Y-76523938D01*
X150118126Y-76666632D01*
X150311000Y-76779338D01*
X150519692Y-76859030D01*
X150524760Y-76860061D01*
X150524763Y-76860062D01*
X150619862Y-76879410D01*
X150738597Y-76903567D01*
X150743772Y-76903757D01*
X150743774Y-76903757D01*
X150956673Y-76911564D01*
X150956677Y-76911564D01*
X150961837Y-76911753D01*
X150966957Y-76911097D01*
X150966959Y-76911097D01*
X151178288Y-76884025D01*
X151178289Y-76884025D01*
X151183416Y-76883368D01*
X151188366Y-76881883D01*
X151392429Y-76820661D01*
X151392434Y-76820659D01*
X151397384Y-76819174D01*
X151597994Y-76720896D01*
X151779860Y-76591173D01*
X151938096Y-76433489D01*
X152068453Y-76252077D01*
X152069776Y-76253028D01*
X152116645Y-76209857D01*
X152186580Y-76197625D01*
X152252026Y-76225144D01*
X152279875Y-76256994D01*
X152339987Y-76355088D01*
X152486250Y-76523938D01*
X152658126Y-76666632D01*
X152851000Y-76779338D01*
X153059692Y-76859030D01*
X153064760Y-76860061D01*
X153064763Y-76860062D01*
X153159862Y-76879410D01*
X153278597Y-76903567D01*
X153283772Y-76903757D01*
X153283774Y-76903757D01*
X153496673Y-76911564D01*
X153496677Y-76911564D01*
X153501837Y-76911753D01*
X153506957Y-76911097D01*
X153506959Y-76911097D01*
X153718288Y-76884025D01*
X153718289Y-76884025D01*
X153723416Y-76883368D01*
X153728366Y-76881883D01*
X153932429Y-76820661D01*
X153932434Y-76820659D01*
X153937384Y-76819174D01*
X154137994Y-76720896D01*
X154319860Y-76591173D01*
X154478096Y-76433489D01*
X154608453Y-76252077D01*
X154609776Y-76253028D01*
X154656645Y-76209857D01*
X154726580Y-76197625D01*
X154792026Y-76225144D01*
X154819875Y-76256994D01*
X154879987Y-76355088D01*
X155026250Y-76523938D01*
X155198126Y-76666632D01*
X155391000Y-76779338D01*
X155599692Y-76859030D01*
X155604760Y-76860061D01*
X155604763Y-76860062D01*
X155699862Y-76879410D01*
X155818597Y-76903567D01*
X155823772Y-76903757D01*
X155823774Y-76903757D01*
X156036673Y-76911564D01*
X156036677Y-76911564D01*
X156041837Y-76911753D01*
X156046957Y-76911097D01*
X156046959Y-76911097D01*
X156258288Y-76884025D01*
X156258289Y-76884025D01*
X156263416Y-76883368D01*
X156268366Y-76881883D01*
X156472429Y-76820661D01*
X156472434Y-76820659D01*
X156477384Y-76819174D01*
X156677994Y-76720896D01*
X156859860Y-76591173D01*
X157018096Y-76433489D01*
X157148453Y-76252077D01*
X157149776Y-76253028D01*
X157196645Y-76209857D01*
X157266580Y-76197625D01*
X157332026Y-76225144D01*
X157359875Y-76256994D01*
X157419987Y-76355088D01*
X157566250Y-76523938D01*
X157738126Y-76666632D01*
X157931000Y-76779338D01*
X158139692Y-76859030D01*
X158144760Y-76860061D01*
X158144763Y-76860062D01*
X158239862Y-76879410D01*
X158358597Y-76903567D01*
X158363772Y-76903757D01*
X158363774Y-76903757D01*
X158576673Y-76911564D01*
X158576677Y-76911564D01*
X158581837Y-76911753D01*
X158586957Y-76911097D01*
X158586959Y-76911097D01*
X158798288Y-76884025D01*
X158798289Y-76884025D01*
X158803416Y-76883368D01*
X158808366Y-76881883D01*
X159012429Y-76820661D01*
X159012434Y-76820659D01*
X159017384Y-76819174D01*
X159217994Y-76720896D01*
X159399860Y-76591173D01*
X159558096Y-76433489D01*
X159688453Y-76252077D01*
X159689640Y-76252930D01*
X159736960Y-76209362D01*
X159806897Y-76197145D01*
X159872338Y-76224678D01*
X159900166Y-76256511D01*
X159957694Y-76350388D01*
X159963777Y-76358699D01*
X160103213Y-76519667D01*
X160110580Y-76526883D01*
X160274434Y-76662916D01*
X160282881Y-76668831D01*
X160466756Y-76776279D01*
X160476042Y-76780729D01*
X160675001Y-76856703D01*
X160684899Y-76859579D01*
X160788250Y-76880606D01*
X160802299Y-76879410D01*
X160806000Y-76869065D01*
X160806000Y-76868517D01*
X161314000Y-76868517D01*
X161318064Y-76882359D01*
X161331478Y-76884393D01*
X161338184Y-76883534D01*
X161348262Y-76881392D01*
X161552255Y-76820191D01*
X161561842Y-76816433D01*
X161753095Y-76722739D01*
X161761945Y-76717464D01*
X161935328Y-76593792D01*
X161943200Y-76587139D01*
X162094052Y-76436812D01*
X162100730Y-76428965D01*
X162225003Y-76256020D01*
X162230313Y-76247183D01*
X162324670Y-76056267D01*
X162328469Y-76046672D01*
X162390377Y-75842910D01*
X162392555Y-75832837D01*
X162393986Y-75821962D01*
X162391775Y-75807778D01*
X162378617Y-75804000D01*
X161332115Y-75804000D01*
X161316876Y-75808475D01*
X161315671Y-75809865D01*
X161314000Y-75817548D01*
X161314000Y-76868517D01*
X160806000Y-76868517D01*
X160806000Y-75422000D01*
X160826002Y-75353879D01*
X160879658Y-75307386D01*
X160932000Y-75296000D01*
X162378344Y-75296000D01*
X162391875Y-75292027D01*
X162393180Y-75282947D01*
X162351214Y-75115875D01*
X162347894Y-75106124D01*
X162262972Y-74910814D01*
X162258105Y-74901739D01*
X162142426Y-74722926D01*
X162136136Y-74714757D01*
X161992806Y-74557240D01*
X161985273Y-74550215D01*
X161818139Y-74418222D01*
X161809556Y-74412520D01*
X161772602Y-74392120D01*
X161722631Y-74341687D01*
X161712120Y-74292277D01*
X164137009Y-74292277D01*
X164162625Y-74560769D01*
X164163710Y-74565203D01*
X164163711Y-74565209D01*
X164225645Y-74818312D01*
X164226731Y-74822750D01*
X164327985Y-75072733D01*
X164464265Y-75305482D01*
X164467118Y-75309049D01*
X164584686Y-75456060D01*
X164632716Y-75516119D01*
X164829809Y-75700234D01*
X165051416Y-75853968D01*
X165055499Y-75855999D01*
X165055502Y-75856001D01*
X165171013Y-75913466D01*
X165292894Y-75974101D01*
X165297228Y-75975522D01*
X165297231Y-75975523D01*
X165544853Y-76056698D01*
X165544859Y-76056699D01*
X165549186Y-76058118D01*
X165553677Y-76058898D01*
X165553678Y-76058898D01*
X165811140Y-76103601D01*
X165811148Y-76103602D01*
X165814921Y-76104257D01*
X165818758Y-76104448D01*
X165898578Y-76108422D01*
X165898586Y-76108422D01*
X165900149Y-76108500D01*
X166068512Y-76108500D01*
X166070780Y-76108335D01*
X166070792Y-76108335D01*
X166201884Y-76098823D01*
X166269004Y-76093953D01*
X166273459Y-76092969D01*
X166273462Y-76092969D01*
X166527912Y-76036791D01*
X166527916Y-76036790D01*
X166532372Y-76035806D01*
X166658480Y-75988028D01*
X166780318Y-75941868D01*
X166780321Y-75941867D01*
X166784588Y-75940250D01*
X167020368Y-75809286D01*
X167234773Y-75645657D01*
X167423312Y-75452792D01*
X167582034Y-75234730D01*
X167634521Y-75134969D01*
X167705490Y-75000079D01*
X167705493Y-75000073D01*
X167707615Y-74996039D01*
X167737712Y-74910814D01*
X167795902Y-74746033D01*
X167795902Y-74746032D01*
X167797425Y-74741720D01*
X167838293Y-74534373D01*
X167848700Y-74481572D01*
X167848701Y-74481566D01*
X167849581Y-74477100D01*
X167849808Y-74472544D01*
X167862764Y-74212292D01*
X167862764Y-74212286D01*
X167862991Y-74207723D01*
X167837375Y-73939231D01*
X167826996Y-73896812D01*
X167774355Y-73681688D01*
X167773269Y-73677250D01*
X167672015Y-73427267D01*
X167535735Y-73194518D01*
X167417928Y-73047208D01*
X167370136Y-72987447D01*
X167370135Y-72987445D01*
X167367284Y-72983881D01*
X167170191Y-72799766D01*
X166948584Y-72646032D01*
X166944501Y-72644001D01*
X166944498Y-72643999D01*
X166779606Y-72561967D01*
X166707106Y-72525899D01*
X166702772Y-72524478D01*
X166702769Y-72524477D01*
X166455147Y-72443302D01*
X166455141Y-72443301D01*
X166450814Y-72441882D01*
X166446322Y-72441102D01*
X166188860Y-72396399D01*
X166188852Y-72396398D01*
X166185079Y-72395743D01*
X166173817Y-72395182D01*
X166101422Y-72391578D01*
X166101414Y-72391578D01*
X166099851Y-72391500D01*
X165931488Y-72391500D01*
X165929220Y-72391665D01*
X165929208Y-72391665D01*
X165798116Y-72401177D01*
X165730996Y-72406047D01*
X165726541Y-72407031D01*
X165726538Y-72407031D01*
X165472088Y-72463209D01*
X165472084Y-72463210D01*
X165467628Y-72464194D01*
X165341520Y-72511972D01*
X165219682Y-72558132D01*
X165219679Y-72558133D01*
X165215412Y-72559750D01*
X164979632Y-72690714D01*
X164765227Y-72854343D01*
X164762034Y-72857609D01*
X164762032Y-72857611D01*
X164746406Y-72873596D01*
X164576688Y-73047208D01*
X164417966Y-73265270D01*
X164415844Y-73269304D01*
X164294510Y-73499921D01*
X164294507Y-73499927D01*
X164292385Y-73503961D01*
X164290865Y-73508266D01*
X164290863Y-73508270D01*
X164209927Y-73737461D01*
X164202575Y-73758280D01*
X164191378Y-73815088D01*
X164155381Y-73997727D01*
X164150419Y-74022900D01*
X164150192Y-74027453D01*
X164150192Y-74027456D01*
X164137531Y-74281797D01*
X164137009Y-74292277D01*
X161712120Y-74292277D01*
X161707859Y-74272245D01*
X161732975Y-74205839D01*
X161760327Y-74179232D01*
X161784040Y-74162318D01*
X161939860Y-74051173D01*
X162098096Y-73893489D01*
X162157594Y-73810689D01*
X162225435Y-73716277D01*
X162228453Y-73712077D01*
X162241995Y-73684678D01*
X162325136Y-73516453D01*
X162325137Y-73516451D01*
X162327430Y-73511811D01*
X162392370Y-73298069D01*
X162421529Y-73076590D01*
X162423156Y-73010000D01*
X162404852Y-72787361D01*
X162350431Y-72570702D01*
X162261354Y-72365840D01*
X162140014Y-72178277D01*
X161989670Y-72013051D01*
X161985619Y-72009852D01*
X161985615Y-72009848D01*
X161818414Y-71877800D01*
X161818410Y-71877798D01*
X161814359Y-71874598D01*
X161778028Y-71854542D01*
X161707585Y-71815656D01*
X161618789Y-71766638D01*
X161613920Y-71764914D01*
X161613916Y-71764912D01*
X161413087Y-71693795D01*
X161413083Y-71693794D01*
X161408212Y-71692069D01*
X161403119Y-71691162D01*
X161403116Y-71691161D01*
X161193373Y-71653800D01*
X161193367Y-71653799D01*
X161188284Y-71652894D01*
X161114452Y-71651992D01*
X160970081Y-71650228D01*
X160970079Y-71650228D01*
X160964911Y-71650165D01*
X160744091Y-71683955D01*
X160531756Y-71753357D01*
X160333607Y-71856507D01*
X160329474Y-71859610D01*
X160329471Y-71859612D01*
X160305247Y-71877800D01*
X160154965Y-71990635D01*
X160000629Y-72152138D01*
X159893201Y-72309621D01*
X159838293Y-72354621D01*
X159767768Y-72362792D01*
X159704021Y-72331538D01*
X159683324Y-72307054D01*
X159602822Y-72182617D01*
X159602820Y-72182614D01*
X159600014Y-72178277D01*
X159449670Y-72013051D01*
X159445619Y-72009852D01*
X159445615Y-72009848D01*
X159278414Y-71877800D01*
X159278410Y-71877798D01*
X159274359Y-71874598D01*
X159238028Y-71854542D01*
X159167585Y-71815656D01*
X159078789Y-71766638D01*
X159073920Y-71764914D01*
X159073916Y-71764912D01*
X158873087Y-71693795D01*
X158873083Y-71693794D01*
X158868212Y-71692069D01*
X158863119Y-71691162D01*
X158863116Y-71691161D01*
X158653373Y-71653800D01*
X158653367Y-71653799D01*
X158648284Y-71652894D01*
X158574452Y-71651992D01*
X158430081Y-71650228D01*
X158430079Y-71650228D01*
X158424911Y-71650165D01*
X158204091Y-71683955D01*
X157991756Y-71753357D01*
X157793607Y-71856507D01*
X157789474Y-71859610D01*
X157789471Y-71859612D01*
X157765247Y-71877800D01*
X157614965Y-71990635D01*
X157460629Y-72152138D01*
X157353201Y-72309621D01*
X157298293Y-72354621D01*
X157227768Y-72362792D01*
X157164021Y-72331538D01*
X157143324Y-72307054D01*
X157062822Y-72182617D01*
X157062820Y-72182614D01*
X157060014Y-72178277D01*
X156909670Y-72013051D01*
X156905619Y-72009852D01*
X156905615Y-72009848D01*
X156738414Y-71877800D01*
X156738410Y-71877798D01*
X156734359Y-71874598D01*
X156698028Y-71854542D01*
X156627585Y-71815656D01*
X156538789Y-71766638D01*
X156533920Y-71764914D01*
X156533916Y-71764912D01*
X156333087Y-71693795D01*
X156333083Y-71693794D01*
X156328212Y-71692069D01*
X156323119Y-71691162D01*
X156323116Y-71691161D01*
X156113373Y-71653800D01*
X156113367Y-71653799D01*
X156108284Y-71652894D01*
X156034452Y-71651992D01*
X155890081Y-71650228D01*
X155890079Y-71650228D01*
X155884911Y-71650165D01*
X155664091Y-71683955D01*
X155451756Y-71753357D01*
X155253607Y-71856507D01*
X155249474Y-71859610D01*
X155249471Y-71859612D01*
X155225247Y-71877800D01*
X155074965Y-71990635D01*
X154920629Y-72152138D01*
X154813204Y-72309618D01*
X154812898Y-72310066D01*
X154757987Y-72355069D01*
X154687462Y-72363240D01*
X154623715Y-72331986D01*
X154603018Y-72307502D01*
X154522426Y-72182926D01*
X154516136Y-72174757D01*
X154372806Y-72017240D01*
X154365273Y-72010215D01*
X154198139Y-71878222D01*
X154189552Y-71872517D01*
X154003117Y-71769599D01*
X153993705Y-71765369D01*
X153792959Y-71694280D01*
X153782988Y-71691646D01*
X153711837Y-71678972D01*
X153698540Y-71680432D01*
X153694000Y-71694989D01*
X153694000Y-73138000D01*
X153673998Y-73206121D01*
X153620342Y-73252614D01*
X153568000Y-73264000D01*
X153312000Y-73264000D01*
X153243879Y-73243998D01*
X153197386Y-73190342D01*
X153186000Y-73138000D01*
X153186000Y-71693102D01*
X153182082Y-71679758D01*
X153167806Y-71677771D01*
X153129324Y-71683660D01*
X153119288Y-71686051D01*
X152916868Y-71752212D01*
X152907359Y-71756209D01*
X152718463Y-71854542D01*
X152709738Y-71860036D01*
X152539433Y-71987905D01*
X152531726Y-71994748D01*
X152384590Y-72148717D01*
X152378109Y-72156722D01*
X152273498Y-72310074D01*
X152218587Y-72355076D01*
X152148062Y-72363247D01*
X152084315Y-72331993D01*
X152063618Y-72307509D01*
X151982822Y-72182617D01*
X151982820Y-72182614D01*
X151980014Y-72178277D01*
X151829670Y-72013051D01*
X151825619Y-72009852D01*
X151825615Y-72009848D01*
X151658414Y-71877800D01*
X151658410Y-71877798D01*
X151654359Y-71874598D01*
X151618028Y-71854542D01*
X151547585Y-71815656D01*
X151458789Y-71766638D01*
X151453920Y-71764914D01*
X151453916Y-71764912D01*
X151253087Y-71693795D01*
X151253083Y-71693794D01*
X151248212Y-71692069D01*
X151243119Y-71691162D01*
X151243116Y-71691161D01*
X151033373Y-71653800D01*
X151033367Y-71653799D01*
X151028284Y-71652894D01*
X150954452Y-71651992D01*
X150810081Y-71650228D01*
X150810079Y-71650228D01*
X150804911Y-71650165D01*
X150584091Y-71683955D01*
X150371756Y-71753357D01*
X150173607Y-71856507D01*
X150169474Y-71859610D01*
X150169471Y-71859612D01*
X150145247Y-71877800D01*
X149994965Y-71990635D01*
X149840629Y-72152138D01*
X149733204Y-72309618D01*
X149732898Y-72310066D01*
X149677987Y-72355069D01*
X149607462Y-72363240D01*
X149543715Y-72331986D01*
X149523018Y-72307502D01*
X149442426Y-72182926D01*
X149436136Y-72174757D01*
X149292806Y-72017240D01*
X149285273Y-72010215D01*
X149118139Y-71878222D01*
X149109552Y-71872517D01*
X148923117Y-71769599D01*
X148913705Y-71765369D01*
X148712959Y-71694280D01*
X148702988Y-71691646D01*
X148631837Y-71678972D01*
X148618540Y-71680432D01*
X148614000Y-71694989D01*
X148614000Y-73138000D01*
X148593998Y-73206121D01*
X148540342Y-73252614D01*
X148488000Y-73264000D01*
X148232000Y-73264000D01*
X148163879Y-73243998D01*
X148117386Y-73190342D01*
X148106000Y-73138000D01*
X148106000Y-71693102D01*
X148102082Y-71679758D01*
X148087806Y-71677771D01*
X148049324Y-71683660D01*
X148039288Y-71686051D01*
X147836868Y-71752212D01*
X147827359Y-71756209D01*
X147638463Y-71854542D01*
X147629738Y-71860036D01*
X147459433Y-71987905D01*
X147451726Y-71994748D01*
X147304590Y-72148717D01*
X147298109Y-72156722D01*
X147193498Y-72310074D01*
X147138587Y-72355076D01*
X147068062Y-72363247D01*
X147004315Y-72331993D01*
X146983618Y-72307509D01*
X146902822Y-72182617D01*
X146902820Y-72182614D01*
X146900014Y-72178277D01*
X146749670Y-72013051D01*
X146745619Y-72009852D01*
X146745615Y-72009848D01*
X146578414Y-71877800D01*
X146578410Y-71877798D01*
X146574359Y-71874598D01*
X146538028Y-71854542D01*
X146467585Y-71815656D01*
X146378789Y-71766638D01*
X146373920Y-71764914D01*
X146373916Y-71764912D01*
X146173087Y-71693795D01*
X146173083Y-71693794D01*
X146168212Y-71692069D01*
X146163119Y-71691162D01*
X146163116Y-71691161D01*
X145953373Y-71653800D01*
X145953367Y-71653799D01*
X145948284Y-71652894D01*
X145874452Y-71651992D01*
X145730081Y-71650228D01*
X145730079Y-71650228D01*
X145724911Y-71650165D01*
X145504091Y-71683955D01*
X145291756Y-71753357D01*
X145093607Y-71856507D01*
X145089474Y-71859610D01*
X145089471Y-71859612D01*
X145065247Y-71877800D01*
X144914965Y-71990635D01*
X144760629Y-72152138D01*
X144653201Y-72309621D01*
X144598293Y-72354621D01*
X144527768Y-72362792D01*
X144464021Y-72331538D01*
X144443324Y-72307054D01*
X144362822Y-72182617D01*
X144362820Y-72182614D01*
X144360014Y-72178277D01*
X144209670Y-72013051D01*
X144205619Y-72009852D01*
X144205615Y-72009848D01*
X144038414Y-71877800D01*
X144038410Y-71877798D01*
X144034359Y-71874598D01*
X143998028Y-71854542D01*
X143927585Y-71815656D01*
X143838789Y-71766638D01*
X143833920Y-71764914D01*
X143833916Y-71764912D01*
X143633087Y-71693795D01*
X143633083Y-71693794D01*
X143628212Y-71692069D01*
X143623119Y-71691162D01*
X143623116Y-71691161D01*
X143413373Y-71653800D01*
X143413367Y-71653799D01*
X143408284Y-71652894D01*
X143334452Y-71651992D01*
X143190081Y-71650228D01*
X143190079Y-71650228D01*
X143184911Y-71650165D01*
X142964091Y-71683955D01*
X142751756Y-71753357D01*
X142553607Y-71856507D01*
X142549474Y-71859610D01*
X142549471Y-71859612D01*
X142525247Y-71877800D01*
X142374965Y-71990635D01*
X142220629Y-72152138D01*
X142113201Y-72309621D01*
X142058293Y-72354621D01*
X141987768Y-72362792D01*
X141924021Y-72331538D01*
X141903324Y-72307054D01*
X141822822Y-72182617D01*
X141822820Y-72182614D01*
X141820014Y-72178277D01*
X141669670Y-72013051D01*
X141665619Y-72009852D01*
X141665615Y-72009848D01*
X141498414Y-71877800D01*
X141498410Y-71877798D01*
X141494359Y-71874598D01*
X141458028Y-71854542D01*
X141387585Y-71815656D01*
X141298789Y-71766638D01*
X141293920Y-71764914D01*
X141293916Y-71764912D01*
X141093087Y-71693795D01*
X141093083Y-71693794D01*
X141088212Y-71692069D01*
X141083119Y-71691162D01*
X141083116Y-71691161D01*
X140873373Y-71653800D01*
X140873367Y-71653799D01*
X140868284Y-71652894D01*
X140794452Y-71651992D01*
X140650081Y-71650228D01*
X140650079Y-71650228D01*
X140644911Y-71650165D01*
X140424091Y-71683955D01*
X140211756Y-71753357D01*
X140013607Y-71856507D01*
X140009474Y-71859610D01*
X140009471Y-71859612D01*
X139985247Y-71877800D01*
X139834965Y-71990635D01*
X139680629Y-72152138D01*
X139573201Y-72309621D01*
X139518293Y-72354621D01*
X139447768Y-72362792D01*
X139384021Y-72331538D01*
X139363324Y-72307054D01*
X139282822Y-72182617D01*
X139282820Y-72182614D01*
X139280014Y-72178277D01*
X139129670Y-72013051D01*
X139125619Y-72009852D01*
X139125615Y-72009848D01*
X138958414Y-71877800D01*
X138958410Y-71877798D01*
X138954359Y-71874598D01*
X138918028Y-71854542D01*
X138847585Y-71815656D01*
X138758789Y-71766638D01*
X138753920Y-71764914D01*
X138753916Y-71764912D01*
X138553087Y-71693795D01*
X138553083Y-71693794D01*
X138548212Y-71692069D01*
X138543119Y-71691162D01*
X138543116Y-71691161D01*
X138333373Y-71653800D01*
X138333367Y-71653799D01*
X138328284Y-71652894D01*
X138254452Y-71651992D01*
X138110081Y-71650228D01*
X138110079Y-71650228D01*
X138104911Y-71650165D01*
X137884091Y-71683955D01*
X137671756Y-71753357D01*
X137473607Y-71856507D01*
X137469474Y-71859610D01*
X137469471Y-71859612D01*
X137445247Y-71877800D01*
X137294965Y-71990635D01*
X137140629Y-72152138D01*
X137033204Y-72309618D01*
X137032898Y-72310066D01*
X136977987Y-72355069D01*
X136907462Y-72363240D01*
X136843715Y-72331986D01*
X136823018Y-72307502D01*
X136742426Y-72182926D01*
X136736136Y-72174757D01*
X136592806Y-72017240D01*
X136585273Y-72010215D01*
X136418139Y-71878222D01*
X136409552Y-71872517D01*
X136223117Y-71769599D01*
X136213705Y-71765369D01*
X136012959Y-71694280D01*
X136002988Y-71691646D01*
X135931837Y-71678972D01*
X135918540Y-71680432D01*
X135914000Y-71694989D01*
X135914000Y-73138000D01*
X135893998Y-73206121D01*
X135840342Y-73252614D01*
X135788000Y-73264000D01*
X135532000Y-73264000D01*
X135463879Y-73243998D01*
X135417386Y-73190342D01*
X135406000Y-73138000D01*
X135406000Y-71693102D01*
X135402082Y-71679758D01*
X135387806Y-71677771D01*
X135349324Y-71683660D01*
X135339288Y-71686051D01*
X135136868Y-71752212D01*
X135127359Y-71756209D01*
X134938463Y-71854542D01*
X134929738Y-71860036D01*
X134759433Y-71987905D01*
X134751726Y-71994748D01*
X134604590Y-72148717D01*
X134598109Y-72156722D01*
X134493498Y-72310074D01*
X134438587Y-72355076D01*
X134368062Y-72363247D01*
X134304315Y-72331993D01*
X134283618Y-72307509D01*
X134202822Y-72182617D01*
X134202820Y-72182614D01*
X134200014Y-72178277D01*
X134049670Y-72013051D01*
X134045619Y-72009852D01*
X134045615Y-72009848D01*
X133878414Y-71877800D01*
X133878410Y-71877798D01*
X133874359Y-71874598D01*
X133838028Y-71854542D01*
X133767585Y-71815656D01*
X133678789Y-71766638D01*
X133673920Y-71764914D01*
X133673916Y-71764912D01*
X133473087Y-71693795D01*
X133473083Y-71693794D01*
X133468212Y-71692069D01*
X133463119Y-71691162D01*
X133463116Y-71691161D01*
X133253373Y-71653800D01*
X133253367Y-71653799D01*
X133248284Y-71652894D01*
X133174452Y-71651992D01*
X133030081Y-71650228D01*
X133030079Y-71650228D01*
X133024911Y-71650165D01*
X132804091Y-71683955D01*
X132591756Y-71753357D01*
X132393607Y-71856507D01*
X132389474Y-71859610D01*
X132389471Y-71859612D01*
X132365247Y-71877800D01*
X132214965Y-71990635D01*
X132060629Y-72152138D01*
X131953201Y-72309621D01*
X131898293Y-72354621D01*
X131827768Y-72362792D01*
X131764021Y-72331538D01*
X131743324Y-72307054D01*
X131662822Y-72182617D01*
X131662820Y-72182614D01*
X131660014Y-72178277D01*
X131509670Y-72013051D01*
X131505619Y-72009852D01*
X131505615Y-72009848D01*
X131338414Y-71877800D01*
X131338410Y-71877798D01*
X131334359Y-71874598D01*
X131298028Y-71854542D01*
X131227585Y-71815656D01*
X131138789Y-71766638D01*
X131133920Y-71764914D01*
X131133916Y-71764912D01*
X130933087Y-71693795D01*
X130933083Y-71693794D01*
X130928212Y-71692069D01*
X130923119Y-71691162D01*
X130923116Y-71691161D01*
X130713373Y-71653800D01*
X130713367Y-71653799D01*
X130708284Y-71652894D01*
X130634452Y-71651992D01*
X130490081Y-71650228D01*
X130490079Y-71650228D01*
X130484911Y-71650165D01*
X130264091Y-71683955D01*
X130051756Y-71753357D01*
X129853607Y-71856507D01*
X129849474Y-71859610D01*
X129849471Y-71859612D01*
X129825247Y-71877800D01*
X129674965Y-71990635D01*
X129520629Y-72152138D01*
X129413204Y-72309618D01*
X129412898Y-72310066D01*
X129357987Y-72355069D01*
X129287462Y-72363240D01*
X129223715Y-72331986D01*
X129203018Y-72307502D01*
X129122426Y-72182926D01*
X129116136Y-72174757D01*
X128972806Y-72017240D01*
X128965273Y-72010215D01*
X128798139Y-71878222D01*
X128789552Y-71872517D01*
X128603117Y-71769599D01*
X128593705Y-71765369D01*
X128392959Y-71694280D01*
X128382988Y-71691646D01*
X128311837Y-71678972D01*
X128298540Y-71680432D01*
X128294000Y-71694989D01*
X128294000Y-73138000D01*
X128273998Y-73206121D01*
X128220342Y-73252614D01*
X128168000Y-73264000D01*
X127912000Y-73264000D01*
X127843879Y-73243998D01*
X127797386Y-73190342D01*
X127786000Y-73138000D01*
X127786000Y-71693102D01*
X127782082Y-71679758D01*
X127767806Y-71677771D01*
X127729324Y-71683660D01*
X127719288Y-71686051D01*
X127516868Y-71752212D01*
X127507359Y-71756209D01*
X127318463Y-71854542D01*
X127309738Y-71860036D01*
X127139433Y-71987905D01*
X127131726Y-71994748D01*
X126984590Y-72148717D01*
X126978109Y-72156722D01*
X126873498Y-72310074D01*
X126818587Y-72355076D01*
X126748062Y-72363247D01*
X126684315Y-72331993D01*
X126663618Y-72307509D01*
X126582822Y-72182617D01*
X126582820Y-72182614D01*
X126580014Y-72178277D01*
X126429670Y-72013051D01*
X126425619Y-72009852D01*
X126425615Y-72009848D01*
X126258414Y-71877800D01*
X126258410Y-71877798D01*
X126254359Y-71874598D01*
X126218028Y-71854542D01*
X126147585Y-71815656D01*
X126058789Y-71766638D01*
X126053920Y-71764914D01*
X126053916Y-71764912D01*
X125853087Y-71693795D01*
X125853083Y-71693794D01*
X125848212Y-71692069D01*
X125843119Y-71691162D01*
X125843116Y-71691161D01*
X125633373Y-71653800D01*
X125633367Y-71653799D01*
X125628284Y-71652894D01*
X125554452Y-71651992D01*
X125410081Y-71650228D01*
X125410079Y-71650228D01*
X125404911Y-71650165D01*
X125184091Y-71683955D01*
X124971756Y-71753357D01*
X124773607Y-71856507D01*
X124769474Y-71859610D01*
X124769471Y-71859612D01*
X124745247Y-71877800D01*
X124594965Y-71990635D01*
X124440629Y-72152138D01*
X124333201Y-72309621D01*
X124278293Y-72354621D01*
X124207768Y-72362792D01*
X124144021Y-72331538D01*
X124123324Y-72307054D01*
X124042822Y-72182617D01*
X124042820Y-72182614D01*
X124040014Y-72178277D01*
X123889670Y-72013051D01*
X123885619Y-72009852D01*
X123885615Y-72009848D01*
X123718414Y-71877800D01*
X123718410Y-71877798D01*
X123714359Y-71874598D01*
X123678028Y-71854542D01*
X123607585Y-71815656D01*
X123518789Y-71766638D01*
X123513920Y-71764914D01*
X123513916Y-71764912D01*
X123313087Y-71693795D01*
X123313083Y-71693794D01*
X123308212Y-71692069D01*
X123303119Y-71691162D01*
X123303116Y-71691161D01*
X123093373Y-71653800D01*
X123093367Y-71653799D01*
X123088284Y-71652894D01*
X123014452Y-71651992D01*
X122870081Y-71650228D01*
X122870079Y-71650228D01*
X122864911Y-71650165D01*
X122644091Y-71683955D01*
X122431756Y-71753357D01*
X122233607Y-71856507D01*
X122229474Y-71859610D01*
X122229471Y-71859612D01*
X122205247Y-71877800D01*
X122054965Y-71990635D01*
X121900629Y-72152138D01*
X121793201Y-72309621D01*
X121738293Y-72354621D01*
X121667768Y-72362792D01*
X121604021Y-72331538D01*
X121583324Y-72307054D01*
X121502822Y-72182617D01*
X121502820Y-72182614D01*
X121500014Y-72178277D01*
X121349670Y-72013051D01*
X121345619Y-72009852D01*
X121345615Y-72009848D01*
X121178414Y-71877800D01*
X121178410Y-71877798D01*
X121174359Y-71874598D01*
X121138028Y-71854542D01*
X121067585Y-71815656D01*
X120978789Y-71766638D01*
X120973920Y-71764914D01*
X120973916Y-71764912D01*
X120773087Y-71693795D01*
X120773083Y-71693794D01*
X120768212Y-71692069D01*
X120763119Y-71691162D01*
X120763116Y-71691161D01*
X120553373Y-71653800D01*
X120553367Y-71653799D01*
X120548284Y-71652894D01*
X120474452Y-71651992D01*
X120330081Y-71650228D01*
X120330079Y-71650228D01*
X120324911Y-71650165D01*
X120104091Y-71683955D01*
X119891756Y-71753357D01*
X119693607Y-71856507D01*
X119689474Y-71859610D01*
X119689471Y-71859612D01*
X119665247Y-71877800D01*
X119514965Y-71990635D01*
X119360629Y-72152138D01*
X119253204Y-72309618D01*
X119252898Y-72310066D01*
X119197987Y-72355069D01*
X119127462Y-72363240D01*
X119063715Y-72331986D01*
X119043018Y-72307502D01*
X118962426Y-72182926D01*
X118956136Y-72174757D01*
X118812806Y-72017240D01*
X118805273Y-72010215D01*
X118638139Y-71878222D01*
X118629552Y-71872517D01*
X118443117Y-71769599D01*
X118433705Y-71765369D01*
X118232959Y-71694280D01*
X118222988Y-71691646D01*
X118151837Y-71678972D01*
X118138540Y-71680432D01*
X118134000Y-71694989D01*
X118134000Y-73138000D01*
X118113998Y-73206121D01*
X118060342Y-73252614D01*
X118008000Y-73264000D01*
X117752000Y-73264000D01*
X117683879Y-73243998D01*
X117637386Y-73190342D01*
X117626000Y-73138000D01*
X117626000Y-71693102D01*
X117622082Y-71679758D01*
X117607806Y-71677771D01*
X117569324Y-71683660D01*
X117559288Y-71686051D01*
X117356868Y-71752212D01*
X117347359Y-71756209D01*
X117158463Y-71854542D01*
X117149738Y-71860036D01*
X116979433Y-71987905D01*
X116971726Y-71994748D01*
X116824590Y-72148717D01*
X116818109Y-72156722D01*
X116713498Y-72310074D01*
X116658587Y-72355076D01*
X116588062Y-72363247D01*
X116524315Y-72331993D01*
X116503618Y-72307509D01*
X116422822Y-72182617D01*
X116422820Y-72182614D01*
X116420014Y-72178277D01*
X116269670Y-72013051D01*
X116265619Y-72009852D01*
X116265615Y-72009848D01*
X116098414Y-71877800D01*
X116098410Y-71877798D01*
X116094359Y-71874598D01*
X116058028Y-71854542D01*
X115987585Y-71815656D01*
X115898789Y-71766638D01*
X115893920Y-71764914D01*
X115893916Y-71764912D01*
X115693087Y-71693795D01*
X115693083Y-71693794D01*
X115688212Y-71692069D01*
X115683119Y-71691162D01*
X115683116Y-71691161D01*
X115473373Y-71653800D01*
X115473367Y-71653799D01*
X115468284Y-71652894D01*
X115394452Y-71651992D01*
X115250081Y-71650228D01*
X115250079Y-71650228D01*
X115244911Y-71650165D01*
X115024091Y-71683955D01*
X114811756Y-71753357D01*
X114613607Y-71856507D01*
X114609474Y-71859610D01*
X114609471Y-71859612D01*
X114585247Y-71877800D01*
X114434965Y-71990635D01*
X114280629Y-72152138D01*
X114173201Y-72309621D01*
X114118293Y-72354621D01*
X114047768Y-72362792D01*
X113984021Y-72331538D01*
X113963324Y-72307054D01*
X113882822Y-72182617D01*
X113882820Y-72182614D01*
X113880014Y-72178277D01*
X113729670Y-72013051D01*
X113725619Y-72009852D01*
X113725615Y-72009848D01*
X113558414Y-71877800D01*
X113558410Y-71877798D01*
X113554359Y-71874598D01*
X113518028Y-71854542D01*
X113447585Y-71815656D01*
X113358789Y-71766638D01*
X113353920Y-71764914D01*
X113353916Y-71764912D01*
X113153087Y-71693795D01*
X113153083Y-71693794D01*
X113148212Y-71692069D01*
X113143119Y-71691162D01*
X113143116Y-71691161D01*
X112933373Y-71653800D01*
X112933367Y-71653799D01*
X112928284Y-71652894D01*
X112854452Y-71651992D01*
X112710081Y-71650228D01*
X112710079Y-71650228D01*
X112704911Y-71650165D01*
X112484091Y-71683955D01*
X112271756Y-71753357D01*
X112073607Y-71856507D01*
X112069474Y-71859610D01*
X112069471Y-71859612D01*
X112045247Y-71877800D01*
X111894965Y-71990635D01*
X111740629Y-72152138D01*
X111614743Y-72336680D01*
X111582697Y-72405717D01*
X111525967Y-72527933D01*
X111520688Y-72539305D01*
X111460989Y-72754570D01*
X111437251Y-72976695D01*
X109359591Y-72976695D01*
X109170191Y-72799766D01*
X108948584Y-72646032D01*
X108944501Y-72644001D01*
X108944498Y-72643999D01*
X108779606Y-72561967D01*
X108707106Y-72525899D01*
X108702772Y-72524478D01*
X108702769Y-72524477D01*
X108455147Y-72443302D01*
X108455141Y-72443301D01*
X108450814Y-72441882D01*
X108446322Y-72441102D01*
X108188860Y-72396399D01*
X108188852Y-72396398D01*
X108185079Y-72395743D01*
X108173817Y-72395182D01*
X108101422Y-72391578D01*
X108101414Y-72391578D01*
X108099851Y-72391500D01*
X107931488Y-72391500D01*
X107929220Y-72391665D01*
X107929208Y-72391665D01*
X107798116Y-72401177D01*
X107730996Y-72406047D01*
X107726541Y-72407031D01*
X107726538Y-72407031D01*
X107472088Y-72463209D01*
X107472084Y-72463210D01*
X107467628Y-72464194D01*
X107341520Y-72511972D01*
X107219682Y-72558132D01*
X107219679Y-72558133D01*
X107215412Y-72559750D01*
X106979632Y-72690714D01*
X106765227Y-72854343D01*
X106762034Y-72857609D01*
X106762032Y-72857611D01*
X106746406Y-72873596D01*
X106576688Y-73047208D01*
X106417966Y-73265270D01*
X106415844Y-73269304D01*
X106294510Y-73499921D01*
X106294507Y-73499927D01*
X106292385Y-73503961D01*
X106290865Y-73508266D01*
X106290863Y-73508270D01*
X106209927Y-73737461D01*
X106202575Y-73758280D01*
X106191378Y-73815088D01*
X106155381Y-73997727D01*
X106150419Y-74022900D01*
X106150192Y-74027453D01*
X106150192Y-74027456D01*
X106137531Y-74281797D01*
X106137009Y-74292277D01*
X105008000Y-74292277D01*
X105008000Y-73799328D01*
X105009500Y-73779943D01*
X105011805Y-73765142D01*
X105011805Y-73765139D01*
X105013186Y-73756270D01*
X105010941Y-73739101D01*
X105010108Y-73715161D01*
X105025710Y-73457230D01*
X105027544Y-73442126D01*
X105059214Y-73269304D01*
X105079040Y-73161121D01*
X105082679Y-73146353D01*
X105103385Y-73079908D01*
X105167675Y-72873592D01*
X105173070Y-72859370D01*
X105173862Y-72857611D01*
X105290316Y-72598860D01*
X105297385Y-72585391D01*
X105445182Y-72340905D01*
X105453825Y-72328383D01*
X105565656Y-72185642D01*
X105575746Y-72174254D01*
X105924254Y-71825746D01*
X105935642Y-71815656D01*
X106078383Y-71703825D01*
X106090905Y-71695182D01*
X106335391Y-71547385D01*
X106348860Y-71540316D01*
X106609373Y-71423069D01*
X106623592Y-71417675D01*
X106896359Y-71332678D01*
X106911121Y-71329040D01*
X107121352Y-71290514D01*
X107192126Y-71277544D01*
X107207230Y-71275710D01*
X107457929Y-71260545D01*
X107484639Y-71261802D01*
X107484859Y-71261805D01*
X107493730Y-71263186D01*
X107502632Y-71262022D01*
X107502635Y-71262022D01*
X107525251Y-71259064D01*
X107541589Y-71258000D01*
X166450672Y-71258000D01*
X166470057Y-71259500D01*
G37*
%TD.AperFunction*%
M02*
