%TF.GenerationSoftware,KiCad,Pcbnew,(6.0.2)*%
%TF.CreationDate,2022-03-23T10:00:19+00:00*%
%TF.ProjectId,pi_transceiver_hat,70695f74-7261-46e7-9363-65697665725f,1*%
%TF.SameCoordinates,Original*%
%TF.FileFunction,Copper,L3,Inr*%
%TF.FilePolarity,Positive*%
%FSLAX46Y46*%
G04 Gerber Fmt 4.6, Leading zero omitted, Abs format (unit mm)*
G04 Created by KiCad (PCBNEW (6.0.2)) date 2022-03-23 10:00:19*
%MOMM*%
%LPD*%
G01*
G04 APERTURE LIST*
G04 Aperture macros list*
%AMRoundRect*
0 Rectangle with rounded corners*
0 $1 Rounding radius*
0 $2 $3 $4 $5 $6 $7 $8 $9 X,Y pos of 4 corners*
0 Add a 4 corners polygon primitive as box body*
4,1,4,$2,$3,$4,$5,$6,$7,$8,$9,$2,$3,0*
0 Add four circle primitives for the rounded corners*
1,1,$1+$1,$2,$3*
1,1,$1+$1,$4,$5*
1,1,$1+$1,$6,$7*
1,1,$1+$1,$8,$9*
0 Add four rect primitives between the rounded corners*
20,1,$1+$1,$2,$3,$4,$5,0*
20,1,$1+$1,$4,$5,$6,$7,0*
20,1,$1+$1,$6,$7,$8,$9,0*
20,1,$1+$1,$8,$9,$2,$3,0*%
G04 Aperture macros list end*
%TA.AperFunction,ComponentPad*%
%ADD10RoundRect,0.250000X-0.725000X0.600000X-0.725000X-0.600000X0.725000X-0.600000X0.725000X0.600000X0*%
%TD*%
%TA.AperFunction,ComponentPad*%
%ADD11O,1.950000X1.700000*%
%TD*%
%TA.AperFunction,ComponentPad*%
%ADD12R,2.100000X2.100000*%
%TD*%
%TA.AperFunction,ComponentPad*%
%ADD13C,2.100000*%
%TD*%
%TA.AperFunction,ComponentPad*%
%ADD14RoundRect,0.250000X0.620000X0.845000X-0.620000X0.845000X-0.620000X-0.845000X0.620000X-0.845000X0*%
%TD*%
%TA.AperFunction,ComponentPad*%
%ADD15O,1.740000X2.190000*%
%TD*%
%TA.AperFunction,ComponentPad*%
%ADD16RoundRect,0.250000X-0.600000X-0.725000X0.600000X-0.725000X0.600000X0.725000X-0.600000X0.725000X0*%
%TD*%
%TA.AperFunction,ComponentPad*%
%ADD17O,1.700000X1.950000*%
%TD*%
%TA.AperFunction,ComponentPad*%
%ADD18R,1.700000X1.700000*%
%TD*%
%TA.AperFunction,ComponentPad*%
%ADD19O,1.700000X1.700000*%
%TD*%
%TA.AperFunction,ViaPad*%
%ADD20C,0.800000*%
%TD*%
G04 APERTURE END LIST*
D10*
X154906200Y-103590400D03*
D11*
X154906200Y-106090400D03*
X154906200Y-108590400D03*
X154906200Y-111090400D03*
D12*
X150007400Y-121310400D03*
D13*
X152547400Y-121310400D03*
X155087400Y-121310400D03*
X157627400Y-121310400D03*
D12*
X118409800Y-104292400D03*
D13*
X120949800Y-104292400D03*
X123489800Y-104292400D03*
X126029800Y-104292400D03*
D12*
X123642200Y-121361200D03*
D13*
X126182200Y-121361200D03*
X128722200Y-121361200D03*
X131262200Y-121361200D03*
D10*
X164998400Y-109016800D03*
D11*
X164998400Y-111516800D03*
X164998400Y-114016800D03*
X164998400Y-116516800D03*
D12*
X137205800Y-121361200D03*
D13*
X139745800Y-121361200D03*
X142285800Y-121361200D03*
X144825800Y-121361200D03*
D14*
X142646400Y-83139600D03*
D15*
X140106400Y-83139600D03*
X137566400Y-83139600D03*
X135026400Y-83139600D03*
D16*
X110174400Y-83041000D03*
D17*
X112674400Y-83041000D03*
X115174400Y-83041000D03*
D12*
X110388400Y-112522000D03*
D13*
X110388400Y-109982000D03*
X110388400Y-107442000D03*
X110388400Y-104902000D03*
X110388400Y-102362000D03*
D12*
X110337600Y-96062800D03*
D13*
X110337600Y-93522800D03*
D12*
X115468400Y-121361200D03*
D13*
X118008400Y-121361200D03*
D12*
X121259600Y-83108800D03*
D13*
X123799600Y-83108800D03*
X126339600Y-83108800D03*
D14*
X155956000Y-83139600D03*
D15*
X153416000Y-83139600D03*
X150876000Y-83139600D03*
X148336000Y-83139600D03*
D12*
X136545400Y-104394000D03*
D13*
X139085400Y-104394000D03*
X141625400Y-104394000D03*
X144165400Y-104394000D03*
D10*
X164998400Y-94843600D03*
D11*
X164998400Y-97343600D03*
X164998400Y-99843600D03*
X164998400Y-102343600D03*
D10*
X164998400Y-80924400D03*
D11*
X164998400Y-83424400D03*
X164998400Y-85924400D03*
X164998400Y-88424400D03*
D18*
X112800000Y-75550000D03*
D19*
X112800000Y-73010000D03*
X115340000Y-75550000D03*
X115340000Y-73010000D03*
X117880000Y-75550000D03*
X117880000Y-73010000D03*
X120420000Y-75550000D03*
X120420000Y-73010000D03*
X122960000Y-75550000D03*
X122960000Y-73010000D03*
X125500000Y-75550000D03*
X125500000Y-73010000D03*
X128040000Y-75550000D03*
X128040000Y-73010000D03*
X130580000Y-75550000D03*
X130580000Y-73010000D03*
X133120000Y-75550000D03*
X133120000Y-73010000D03*
X135660000Y-75550000D03*
X135660000Y-73010000D03*
X138200000Y-75550000D03*
X138200000Y-73010000D03*
X140740000Y-75550000D03*
X140740000Y-73010000D03*
X143280000Y-75550000D03*
X143280000Y-73010000D03*
X145820000Y-75550000D03*
X145820000Y-73010000D03*
X148360000Y-75550000D03*
X148360000Y-73010000D03*
X150900000Y-75550000D03*
X150900000Y-73010000D03*
X153440000Y-75550000D03*
X153440000Y-73010000D03*
X155980000Y-75550000D03*
X155980000Y-73010000D03*
X158520000Y-75550000D03*
X158520000Y-73010000D03*
X161060000Y-75550000D03*
X161060000Y-73010000D03*
D20*
X121208800Y-115671600D03*
X127000000Y-109677200D03*
%TA.AperFunction,Conductor*%
G36*
X166470057Y-71259500D02*
G01*
X166484858Y-71261805D01*
X166484861Y-71261805D01*
X166493730Y-71263186D01*
X166510899Y-71260941D01*
X166534839Y-71260108D01*
X166792770Y-71275710D01*
X166807874Y-71277544D01*
X166878648Y-71290514D01*
X167088879Y-71329040D01*
X167103641Y-71332678D01*
X167376408Y-71417675D01*
X167390627Y-71423069D01*
X167651140Y-71540316D01*
X167664609Y-71547385D01*
X167909095Y-71695182D01*
X167921617Y-71703825D01*
X168064358Y-71815656D01*
X168075746Y-71825746D01*
X168424254Y-72174254D01*
X168434344Y-72185642D01*
X168546175Y-72328383D01*
X168554818Y-72340905D01*
X168702615Y-72585391D01*
X168709684Y-72598860D01*
X168826138Y-72857611D01*
X168826930Y-72859370D01*
X168832325Y-72873592D01*
X168896616Y-73079908D01*
X168917321Y-73146353D01*
X168920960Y-73161121D01*
X168940786Y-73269304D01*
X168972456Y-73442126D01*
X168974290Y-73457230D01*
X168989455Y-73707929D01*
X168988198Y-73734639D01*
X168988195Y-73734859D01*
X168986814Y-73743730D01*
X168987978Y-73752632D01*
X168987978Y-73752635D01*
X168990936Y-73775251D01*
X168992000Y-73791589D01*
X168992000Y-123700672D01*
X168990500Y-123720056D01*
X168986814Y-123743730D01*
X168988454Y-123756270D01*
X168989059Y-123760897D01*
X168989892Y-123784839D01*
X168974290Y-124042770D01*
X168972456Y-124057874D01*
X168965788Y-124094259D01*
X168940047Y-124234730D01*
X168920962Y-124338873D01*
X168917322Y-124353641D01*
X168866692Y-124516119D01*
X168832326Y-124626404D01*
X168826931Y-124640627D01*
X168730000Y-124856001D01*
X168709686Y-124901136D01*
X168702615Y-124914609D01*
X168554818Y-125159095D01*
X168546175Y-125171617D01*
X168434344Y-125314358D01*
X168424254Y-125325746D01*
X168075746Y-125674254D01*
X168064358Y-125684344D01*
X167921617Y-125796175D01*
X167909095Y-125804818D01*
X167664609Y-125952615D01*
X167651140Y-125959684D01*
X167390630Y-126076930D01*
X167376408Y-126082325D01*
X167103641Y-126167322D01*
X167088879Y-126170960D01*
X166878648Y-126209486D01*
X166807874Y-126222456D01*
X166792770Y-126224290D01*
X166542071Y-126239455D01*
X166515361Y-126238198D01*
X166515141Y-126238195D01*
X166506270Y-126236814D01*
X166497368Y-126237978D01*
X166497365Y-126237978D01*
X166474749Y-126240936D01*
X166458411Y-126242000D01*
X107549328Y-126242000D01*
X107529943Y-126240500D01*
X107515142Y-126238195D01*
X107515139Y-126238195D01*
X107506270Y-126236814D01*
X107489101Y-126239059D01*
X107465161Y-126239892D01*
X107207230Y-126224290D01*
X107192126Y-126222456D01*
X107121352Y-126209486D01*
X106911121Y-126170960D01*
X106896359Y-126167322D01*
X106623592Y-126082325D01*
X106609370Y-126076930D01*
X106348860Y-125959684D01*
X106335391Y-125952615D01*
X106090905Y-125804818D01*
X106078383Y-125796175D01*
X105935642Y-125684344D01*
X105924254Y-125674254D01*
X105575746Y-125325746D01*
X105565656Y-125314358D01*
X105453825Y-125171617D01*
X105445182Y-125159095D01*
X105297385Y-124914609D01*
X105290314Y-124901136D01*
X105270001Y-124856001D01*
X105173069Y-124640627D01*
X105167674Y-124626404D01*
X105133308Y-124516119D01*
X105082678Y-124353641D01*
X105079038Y-124338873D01*
X105059954Y-124234730D01*
X105034212Y-124094259D01*
X105027544Y-124057874D01*
X105025710Y-124042770D01*
X105010545Y-123792071D01*
X105011802Y-123765361D01*
X105011805Y-123765141D01*
X105013186Y-123756270D01*
X105011848Y-123746033D01*
X105009064Y-123724749D01*
X105008000Y-123708411D01*
X105008000Y-123292277D01*
X106137009Y-123292277D01*
X106162625Y-123560769D01*
X106163710Y-123565203D01*
X106163711Y-123565209D01*
X106212688Y-123765361D01*
X106226731Y-123822750D01*
X106327985Y-124072733D01*
X106464265Y-124305482D01*
X106502784Y-124353647D01*
X106584686Y-124456060D01*
X106632716Y-124516119D01*
X106829809Y-124700234D01*
X107051416Y-124853968D01*
X107055499Y-124855999D01*
X107055502Y-124856001D01*
X107146228Y-124901136D01*
X107292894Y-124974101D01*
X107297228Y-124975522D01*
X107297231Y-124975523D01*
X107544853Y-125056698D01*
X107544859Y-125056699D01*
X107549186Y-125058118D01*
X107553677Y-125058898D01*
X107553678Y-125058898D01*
X107811140Y-125103601D01*
X107811148Y-125103602D01*
X107814921Y-125104257D01*
X107818758Y-125104448D01*
X107898578Y-125108422D01*
X107898586Y-125108422D01*
X107900149Y-125108500D01*
X108068512Y-125108500D01*
X108070780Y-125108335D01*
X108070792Y-125108335D01*
X108201884Y-125098823D01*
X108269004Y-125093953D01*
X108273459Y-125092969D01*
X108273462Y-125092969D01*
X108527912Y-125036791D01*
X108527916Y-125036790D01*
X108532372Y-125035806D01*
X108658480Y-124988028D01*
X108780318Y-124941868D01*
X108780321Y-124941867D01*
X108784588Y-124940250D01*
X109020368Y-124809286D01*
X109234773Y-124645657D01*
X109239688Y-124640630D01*
X109420117Y-124456060D01*
X109423312Y-124452792D01*
X109582034Y-124234730D01*
X109665190Y-124076676D01*
X109705490Y-124000079D01*
X109705493Y-124000073D01*
X109707615Y-123996039D01*
X109770378Y-123818312D01*
X109795902Y-123746033D01*
X109795902Y-123746032D01*
X109797425Y-123741720D01*
X109849581Y-123477100D01*
X109858782Y-123292277D01*
X164137009Y-123292277D01*
X164162625Y-123560769D01*
X164163710Y-123565203D01*
X164163711Y-123565209D01*
X164212688Y-123765361D01*
X164226731Y-123822750D01*
X164327985Y-124072733D01*
X164464265Y-124305482D01*
X164502784Y-124353647D01*
X164584686Y-124456060D01*
X164632716Y-124516119D01*
X164829809Y-124700234D01*
X165051416Y-124853968D01*
X165055499Y-124855999D01*
X165055502Y-124856001D01*
X165146228Y-124901136D01*
X165292894Y-124974101D01*
X165297228Y-124975522D01*
X165297231Y-124975523D01*
X165544853Y-125056698D01*
X165544859Y-125056699D01*
X165549186Y-125058118D01*
X165553677Y-125058898D01*
X165553678Y-125058898D01*
X165811140Y-125103601D01*
X165811148Y-125103602D01*
X165814921Y-125104257D01*
X165818758Y-125104448D01*
X165898578Y-125108422D01*
X165898586Y-125108422D01*
X165900149Y-125108500D01*
X166068512Y-125108500D01*
X166070780Y-125108335D01*
X166070792Y-125108335D01*
X166201884Y-125098823D01*
X166269004Y-125093953D01*
X166273459Y-125092969D01*
X166273462Y-125092969D01*
X166527912Y-125036791D01*
X166527916Y-125036790D01*
X166532372Y-125035806D01*
X166658480Y-124988028D01*
X166780318Y-124941868D01*
X166780321Y-124941867D01*
X166784588Y-124940250D01*
X167020368Y-124809286D01*
X167234773Y-124645657D01*
X167239688Y-124640630D01*
X167420117Y-124456060D01*
X167423312Y-124452792D01*
X167582034Y-124234730D01*
X167665190Y-124076676D01*
X167705490Y-124000079D01*
X167705493Y-124000073D01*
X167707615Y-123996039D01*
X167770378Y-123818312D01*
X167795902Y-123746033D01*
X167795902Y-123746032D01*
X167797425Y-123741720D01*
X167849581Y-123477100D01*
X167858782Y-123292277D01*
X167862764Y-123212292D01*
X167862764Y-123212286D01*
X167862991Y-123207723D01*
X167837375Y-122939231D01*
X167833681Y-122924131D01*
X167774355Y-122681688D01*
X167773269Y-122677250D01*
X167672015Y-122427267D01*
X167535735Y-122194518D01*
X167417928Y-122047208D01*
X167370136Y-121987447D01*
X167370135Y-121987445D01*
X167367284Y-121983881D01*
X167170191Y-121799766D01*
X166948584Y-121646032D01*
X166944501Y-121644001D01*
X166944498Y-121643999D01*
X166779606Y-121561967D01*
X166707106Y-121525899D01*
X166702772Y-121524478D01*
X166702769Y-121524477D01*
X166455147Y-121443302D01*
X166455141Y-121443301D01*
X166450814Y-121441882D01*
X166446322Y-121441102D01*
X166188860Y-121396399D01*
X166188852Y-121396398D01*
X166185079Y-121395743D01*
X166173817Y-121395182D01*
X166101422Y-121391578D01*
X166101414Y-121391578D01*
X166099851Y-121391500D01*
X165931488Y-121391500D01*
X165929220Y-121391665D01*
X165929208Y-121391665D01*
X165798116Y-121401177D01*
X165730996Y-121406047D01*
X165726541Y-121407031D01*
X165726538Y-121407031D01*
X165472088Y-121463209D01*
X165472084Y-121463210D01*
X165467628Y-121464194D01*
X165341520Y-121511972D01*
X165219682Y-121558132D01*
X165219679Y-121558133D01*
X165215412Y-121559750D01*
X164979632Y-121690714D01*
X164765227Y-121854343D01*
X164576688Y-122047208D01*
X164417966Y-122265270D01*
X164365479Y-122365031D01*
X164294510Y-122499921D01*
X164294507Y-122499927D01*
X164292385Y-122503961D01*
X164290865Y-122508266D01*
X164290863Y-122508270D01*
X164217336Y-122716481D01*
X164202575Y-122758280D01*
X164150419Y-123022900D01*
X164150192Y-123027453D01*
X164150192Y-123027456D01*
X164140991Y-123212292D01*
X164137009Y-123292277D01*
X109858782Y-123292277D01*
X109862764Y-123212292D01*
X109862764Y-123212286D01*
X109862991Y-123207723D01*
X109837375Y-122939231D01*
X109833681Y-122924131D01*
X109774355Y-122681688D01*
X109773269Y-122677250D01*
X109685004Y-122459334D01*
X113909900Y-122459334D01*
X113916655Y-122521516D01*
X113967785Y-122657905D01*
X114055139Y-122774461D01*
X114171695Y-122861815D01*
X114308084Y-122912945D01*
X114370266Y-122919700D01*
X116566534Y-122919700D01*
X116628716Y-122912945D01*
X116765105Y-122861815D01*
X116881661Y-122774461D01*
X116954528Y-122677235D01*
X117011388Y-122634721D01*
X117082206Y-122629696D01*
X117121189Y-122645368D01*
X117298668Y-122754127D01*
X117402667Y-122797205D01*
X117520735Y-122846111D01*
X117520737Y-122846112D01*
X117525308Y-122848005D01*
X117560397Y-122856429D01*
X117759030Y-122904117D01*
X117759036Y-122904118D01*
X117763843Y-122905272D01*
X118008400Y-122924519D01*
X118252957Y-122905272D01*
X118257764Y-122904118D01*
X118257770Y-122904117D01*
X118456403Y-122856429D01*
X118491492Y-122848005D01*
X118496063Y-122846112D01*
X118496065Y-122846111D01*
X118614133Y-122797205D01*
X118718132Y-122754127D01*
X118895612Y-122645368D01*
X118923070Y-122628542D01*
X118923073Y-122628540D01*
X118927296Y-122625952D01*
X118940950Y-122614291D01*
X119110077Y-122469841D01*
X119113833Y-122466633D01*
X119117041Y-122462877D01*
X119120067Y-122459334D01*
X122083700Y-122459334D01*
X122090455Y-122521516D01*
X122141585Y-122657905D01*
X122228939Y-122774461D01*
X122345495Y-122861815D01*
X122481884Y-122912945D01*
X122544066Y-122919700D01*
X124740334Y-122919700D01*
X124802516Y-122912945D01*
X124938905Y-122861815D01*
X125055461Y-122774461D01*
X125128328Y-122677235D01*
X125185188Y-122634721D01*
X125256006Y-122629696D01*
X125294989Y-122645368D01*
X125472468Y-122754127D01*
X125576467Y-122797205D01*
X125694535Y-122846111D01*
X125694537Y-122846112D01*
X125699108Y-122848005D01*
X125734197Y-122856429D01*
X125932830Y-122904117D01*
X125932836Y-122904118D01*
X125937643Y-122905272D01*
X126182200Y-122924519D01*
X126426757Y-122905272D01*
X126431564Y-122904118D01*
X126431570Y-122904117D01*
X126630203Y-122856429D01*
X126665292Y-122848005D01*
X126669863Y-122846112D01*
X126669865Y-122846111D01*
X126787933Y-122797205D01*
X126891932Y-122754127D01*
X127069412Y-122645368D01*
X127096870Y-122628542D01*
X127096873Y-122628540D01*
X127101096Y-122625952D01*
X127114750Y-122614291D01*
X127283877Y-122469841D01*
X127287633Y-122466633D01*
X127290841Y-122462877D01*
X127356389Y-122386131D01*
X127415840Y-122347322D01*
X127486835Y-122346816D01*
X127548011Y-122386131D01*
X127613559Y-122462877D01*
X127616767Y-122466633D01*
X127620523Y-122469841D01*
X127789651Y-122614291D01*
X127803304Y-122625952D01*
X127807527Y-122628540D01*
X127807530Y-122628542D01*
X127834988Y-122645368D01*
X128012468Y-122754127D01*
X128116467Y-122797205D01*
X128234535Y-122846111D01*
X128234537Y-122846112D01*
X128239108Y-122848005D01*
X128274197Y-122856429D01*
X128472830Y-122904117D01*
X128472836Y-122904118D01*
X128477643Y-122905272D01*
X128722200Y-122924519D01*
X128966757Y-122905272D01*
X128971564Y-122904118D01*
X128971570Y-122904117D01*
X129170203Y-122856429D01*
X129205292Y-122848005D01*
X129209863Y-122846112D01*
X129209865Y-122846111D01*
X129327933Y-122797205D01*
X129431932Y-122754127D01*
X129609412Y-122645368D01*
X129636870Y-122628542D01*
X129636873Y-122628540D01*
X129641096Y-122625952D01*
X129654750Y-122614291D01*
X129823877Y-122469841D01*
X129827633Y-122466633D01*
X129830841Y-122462877D01*
X129896389Y-122386131D01*
X129955840Y-122347322D01*
X130026835Y-122346816D01*
X130088011Y-122386131D01*
X130153559Y-122462877D01*
X130156767Y-122466633D01*
X130160523Y-122469841D01*
X130329651Y-122614291D01*
X130343304Y-122625952D01*
X130347527Y-122628540D01*
X130347530Y-122628542D01*
X130374988Y-122645368D01*
X130552468Y-122754127D01*
X130656467Y-122797205D01*
X130774535Y-122846111D01*
X130774537Y-122846112D01*
X130779108Y-122848005D01*
X130814197Y-122856429D01*
X131012830Y-122904117D01*
X131012836Y-122904118D01*
X131017643Y-122905272D01*
X131262200Y-122924519D01*
X131506757Y-122905272D01*
X131511564Y-122904118D01*
X131511570Y-122904117D01*
X131710203Y-122856429D01*
X131745292Y-122848005D01*
X131749863Y-122846112D01*
X131749865Y-122846111D01*
X131867933Y-122797205D01*
X131971932Y-122754127D01*
X132149412Y-122645368D01*
X132176870Y-122628542D01*
X132176873Y-122628540D01*
X132181096Y-122625952D01*
X132194750Y-122614291D01*
X132363877Y-122469841D01*
X132367633Y-122466633D01*
X132370841Y-122462877D01*
X132373867Y-122459334D01*
X135647300Y-122459334D01*
X135654055Y-122521516D01*
X135705185Y-122657905D01*
X135792539Y-122774461D01*
X135909095Y-122861815D01*
X136045484Y-122912945D01*
X136107666Y-122919700D01*
X138303934Y-122919700D01*
X138366116Y-122912945D01*
X138502505Y-122861815D01*
X138619061Y-122774461D01*
X138691928Y-122677235D01*
X138748788Y-122634721D01*
X138819606Y-122629696D01*
X138858589Y-122645368D01*
X139036068Y-122754127D01*
X139140067Y-122797205D01*
X139258135Y-122846111D01*
X139258137Y-122846112D01*
X139262708Y-122848005D01*
X139297797Y-122856429D01*
X139496430Y-122904117D01*
X139496436Y-122904118D01*
X139501243Y-122905272D01*
X139745800Y-122924519D01*
X139990357Y-122905272D01*
X139995164Y-122904118D01*
X139995170Y-122904117D01*
X140193803Y-122856429D01*
X140228892Y-122848005D01*
X140233463Y-122846112D01*
X140233465Y-122846111D01*
X140351533Y-122797205D01*
X140455532Y-122754127D01*
X140633012Y-122645368D01*
X140660470Y-122628542D01*
X140660473Y-122628540D01*
X140664696Y-122625952D01*
X140678350Y-122614291D01*
X140847477Y-122469841D01*
X140851233Y-122466633D01*
X140854441Y-122462877D01*
X140919989Y-122386131D01*
X140979440Y-122347322D01*
X141050435Y-122346816D01*
X141111611Y-122386131D01*
X141177159Y-122462877D01*
X141180367Y-122466633D01*
X141184123Y-122469841D01*
X141353251Y-122614291D01*
X141366904Y-122625952D01*
X141371127Y-122628540D01*
X141371130Y-122628542D01*
X141398588Y-122645368D01*
X141576068Y-122754127D01*
X141680067Y-122797205D01*
X141798135Y-122846111D01*
X141798137Y-122846112D01*
X141802708Y-122848005D01*
X141837797Y-122856429D01*
X142036430Y-122904117D01*
X142036436Y-122904118D01*
X142041243Y-122905272D01*
X142285800Y-122924519D01*
X142530357Y-122905272D01*
X142535164Y-122904118D01*
X142535170Y-122904117D01*
X142733803Y-122856429D01*
X142768892Y-122848005D01*
X142773463Y-122846112D01*
X142773465Y-122846111D01*
X142891533Y-122797205D01*
X142995532Y-122754127D01*
X143173012Y-122645368D01*
X143200470Y-122628542D01*
X143200473Y-122628540D01*
X143204696Y-122625952D01*
X143218350Y-122614291D01*
X143387477Y-122469841D01*
X143391233Y-122466633D01*
X143394441Y-122462877D01*
X143459989Y-122386131D01*
X143519440Y-122347322D01*
X143590435Y-122346816D01*
X143651611Y-122386131D01*
X143717159Y-122462877D01*
X143720367Y-122466633D01*
X143724123Y-122469841D01*
X143893251Y-122614291D01*
X143906904Y-122625952D01*
X143911127Y-122628540D01*
X143911130Y-122628542D01*
X143938588Y-122645368D01*
X144116068Y-122754127D01*
X144220067Y-122797205D01*
X144338135Y-122846111D01*
X144338137Y-122846112D01*
X144342708Y-122848005D01*
X144377797Y-122856429D01*
X144576430Y-122904117D01*
X144576436Y-122904118D01*
X144581243Y-122905272D01*
X144825800Y-122924519D01*
X145070357Y-122905272D01*
X145075164Y-122904118D01*
X145075170Y-122904117D01*
X145273803Y-122856429D01*
X145308892Y-122848005D01*
X145313463Y-122846112D01*
X145313465Y-122846111D01*
X145431533Y-122797205D01*
X145535532Y-122754127D01*
X145713012Y-122645368D01*
X145740470Y-122628542D01*
X145740473Y-122628540D01*
X145744696Y-122625952D01*
X145758350Y-122614291D01*
X145927477Y-122469841D01*
X145931233Y-122466633D01*
X145934441Y-122462877D01*
X145980855Y-122408534D01*
X148448900Y-122408534D01*
X148455655Y-122470716D01*
X148506785Y-122607105D01*
X148594139Y-122723661D01*
X148710695Y-122811015D01*
X148847084Y-122862145D01*
X148909266Y-122868900D01*
X151105534Y-122868900D01*
X151167716Y-122862145D01*
X151304105Y-122811015D01*
X151420661Y-122723661D01*
X151493528Y-122626435D01*
X151550388Y-122583921D01*
X151621206Y-122578896D01*
X151660189Y-122594568D01*
X151837668Y-122703327D01*
X151954066Y-122751541D01*
X152059735Y-122795311D01*
X152059737Y-122795312D01*
X152064308Y-122797205D01*
X152099397Y-122805629D01*
X152298030Y-122853317D01*
X152298036Y-122853318D01*
X152302843Y-122854472D01*
X152547400Y-122873719D01*
X152791957Y-122854472D01*
X152796764Y-122853318D01*
X152796770Y-122853317D01*
X152995403Y-122805629D01*
X153030492Y-122797205D01*
X153035063Y-122795312D01*
X153035065Y-122795311D01*
X153140734Y-122751541D01*
X153257132Y-122703327D01*
X153434612Y-122594568D01*
X153462070Y-122577742D01*
X153462073Y-122577740D01*
X153466296Y-122575152D01*
X153489011Y-122555752D01*
X153649077Y-122419041D01*
X153652833Y-122415833D01*
X153678201Y-122386131D01*
X153721589Y-122335331D01*
X153781040Y-122296522D01*
X153852035Y-122296016D01*
X153913211Y-122335331D01*
X153956599Y-122386131D01*
X153981967Y-122415833D01*
X153985723Y-122419041D01*
X154145790Y-122555752D01*
X154168504Y-122575152D01*
X154172727Y-122577740D01*
X154172730Y-122577742D01*
X154200188Y-122594568D01*
X154377668Y-122703327D01*
X154494066Y-122751541D01*
X154599735Y-122795311D01*
X154599737Y-122795312D01*
X154604308Y-122797205D01*
X154639397Y-122805629D01*
X154838030Y-122853317D01*
X154838036Y-122853318D01*
X154842843Y-122854472D01*
X155087400Y-122873719D01*
X155331957Y-122854472D01*
X155336764Y-122853318D01*
X155336770Y-122853317D01*
X155535403Y-122805629D01*
X155570492Y-122797205D01*
X155575063Y-122795312D01*
X155575065Y-122795311D01*
X155680734Y-122751541D01*
X155797132Y-122703327D01*
X155974612Y-122594568D01*
X156002070Y-122577742D01*
X156002073Y-122577740D01*
X156006296Y-122575152D01*
X156029011Y-122555752D01*
X156189077Y-122419041D01*
X156192833Y-122415833D01*
X156218201Y-122386131D01*
X156261589Y-122335331D01*
X156321040Y-122296522D01*
X156392035Y-122296016D01*
X156453211Y-122335331D01*
X156496599Y-122386131D01*
X156521967Y-122415833D01*
X156525723Y-122419041D01*
X156685790Y-122555752D01*
X156708504Y-122575152D01*
X156712727Y-122577740D01*
X156712730Y-122577742D01*
X156740188Y-122594568D01*
X156917668Y-122703327D01*
X157034066Y-122751541D01*
X157139735Y-122795311D01*
X157139737Y-122795312D01*
X157144308Y-122797205D01*
X157179397Y-122805629D01*
X157378030Y-122853317D01*
X157378036Y-122853318D01*
X157382843Y-122854472D01*
X157627400Y-122873719D01*
X157871957Y-122854472D01*
X157876764Y-122853318D01*
X157876770Y-122853317D01*
X158075403Y-122805629D01*
X158110492Y-122797205D01*
X158115063Y-122795312D01*
X158115065Y-122795311D01*
X158220734Y-122751541D01*
X158337132Y-122703327D01*
X158514612Y-122594568D01*
X158542070Y-122577742D01*
X158542073Y-122577740D01*
X158546296Y-122575152D01*
X158569011Y-122555752D01*
X158729077Y-122419041D01*
X158732833Y-122415833D01*
X158758201Y-122386131D01*
X158888935Y-122233063D01*
X158888937Y-122233060D01*
X158892152Y-122229296D01*
X158911047Y-122198463D01*
X158937138Y-122155885D01*
X159020327Y-122020132D01*
X159114205Y-121793492D01*
X159160461Y-121600823D01*
X159170317Y-121559770D01*
X159170318Y-121559764D01*
X159171472Y-121554957D01*
X159190719Y-121310400D01*
X159171472Y-121065843D01*
X159114205Y-120827308D01*
X159020327Y-120600668D01*
X158892152Y-120391504D01*
X158844977Y-120336269D01*
X158736041Y-120208723D01*
X158732833Y-120204967D01*
X158729077Y-120201759D01*
X158550063Y-120048865D01*
X158550060Y-120048863D01*
X158546296Y-120045648D01*
X158542073Y-120043060D01*
X158542070Y-120043058D01*
X158462609Y-119994365D01*
X158337132Y-119917473D01*
X158192184Y-119857433D01*
X158115065Y-119825489D01*
X158115063Y-119825488D01*
X158110492Y-119823595D01*
X158023458Y-119802700D01*
X157876770Y-119767483D01*
X157876764Y-119767482D01*
X157871957Y-119766328D01*
X157627400Y-119747081D01*
X157382843Y-119766328D01*
X157378036Y-119767482D01*
X157378030Y-119767483D01*
X157231342Y-119802700D01*
X157144308Y-119823595D01*
X157139737Y-119825488D01*
X157139735Y-119825489D01*
X157062616Y-119857433D01*
X156917668Y-119917473D01*
X156792191Y-119994365D01*
X156712730Y-120043058D01*
X156712727Y-120043060D01*
X156708504Y-120045648D01*
X156704740Y-120048863D01*
X156704737Y-120048865D01*
X156525723Y-120201759D01*
X156521967Y-120204967D01*
X156518759Y-120208723D01*
X156453211Y-120285469D01*
X156393760Y-120324278D01*
X156322765Y-120324784D01*
X156261589Y-120285469D01*
X156196041Y-120208723D01*
X156192833Y-120204967D01*
X156189077Y-120201759D01*
X156010063Y-120048865D01*
X156010060Y-120048863D01*
X156006296Y-120045648D01*
X156002073Y-120043060D01*
X156002070Y-120043058D01*
X155922609Y-119994365D01*
X155797132Y-119917473D01*
X155652184Y-119857433D01*
X155575065Y-119825489D01*
X155575063Y-119825488D01*
X155570492Y-119823595D01*
X155483458Y-119802700D01*
X155336770Y-119767483D01*
X155336764Y-119767482D01*
X155331957Y-119766328D01*
X155087400Y-119747081D01*
X154842843Y-119766328D01*
X154838036Y-119767482D01*
X154838030Y-119767483D01*
X154691342Y-119802700D01*
X154604308Y-119823595D01*
X154599737Y-119825488D01*
X154599735Y-119825489D01*
X154522616Y-119857433D01*
X154377668Y-119917473D01*
X154252191Y-119994365D01*
X154172730Y-120043058D01*
X154172727Y-120043060D01*
X154168504Y-120045648D01*
X154164740Y-120048863D01*
X154164737Y-120048865D01*
X153985723Y-120201759D01*
X153981967Y-120204967D01*
X153978759Y-120208723D01*
X153913211Y-120285469D01*
X153853760Y-120324278D01*
X153782765Y-120324784D01*
X153721589Y-120285469D01*
X153656041Y-120208723D01*
X153652833Y-120204967D01*
X153649077Y-120201759D01*
X153470063Y-120048865D01*
X153470060Y-120048863D01*
X153466296Y-120045648D01*
X153462073Y-120043060D01*
X153462070Y-120043058D01*
X153382609Y-119994365D01*
X153257132Y-119917473D01*
X153112184Y-119857433D01*
X153035065Y-119825489D01*
X153035063Y-119825488D01*
X153030492Y-119823595D01*
X152943458Y-119802700D01*
X152796770Y-119767483D01*
X152796764Y-119767482D01*
X152791957Y-119766328D01*
X152547400Y-119747081D01*
X152302843Y-119766328D01*
X152298036Y-119767482D01*
X152298030Y-119767483D01*
X152151342Y-119802700D01*
X152064308Y-119823595D01*
X152059737Y-119825488D01*
X152059735Y-119825489D01*
X151982616Y-119857433D01*
X151837668Y-119917473D01*
X151712191Y-119994365D01*
X151660188Y-120026232D01*
X151591655Y-120044770D01*
X151523978Y-120023313D01*
X151493528Y-119994365D01*
X151472554Y-119966380D01*
X151420661Y-119897139D01*
X151304105Y-119809785D01*
X151167716Y-119758655D01*
X151105534Y-119751900D01*
X148909266Y-119751900D01*
X148847084Y-119758655D01*
X148710695Y-119809785D01*
X148594139Y-119897139D01*
X148506785Y-120013695D01*
X148455655Y-120150084D01*
X148448900Y-120212266D01*
X148448900Y-122408534D01*
X145980855Y-122408534D01*
X146087335Y-122283863D01*
X146087337Y-122283860D01*
X146090552Y-122280096D01*
X146097166Y-122269304D01*
X146145180Y-122190951D01*
X146218727Y-122070932D01*
X146312605Y-121844292D01*
X146369872Y-121605757D01*
X146389119Y-121361200D01*
X146369872Y-121116643D01*
X146312605Y-120878108D01*
X146218727Y-120651468D01*
X146090552Y-120442304D01*
X146047165Y-120391504D01*
X145934441Y-120259523D01*
X145931233Y-120255767D01*
X145876152Y-120208723D01*
X145748463Y-120099665D01*
X145748460Y-120099663D01*
X145744696Y-120096448D01*
X145740473Y-120093860D01*
X145740470Y-120093858D01*
X145630113Y-120026232D01*
X145535532Y-119968273D01*
X145381130Y-119904317D01*
X145313465Y-119876289D01*
X145313463Y-119876288D01*
X145308892Y-119874395D01*
X145226237Y-119854551D01*
X145075170Y-119818283D01*
X145075164Y-119818282D01*
X145070357Y-119817128D01*
X144825800Y-119797881D01*
X144581243Y-119817128D01*
X144576436Y-119818282D01*
X144576430Y-119818283D01*
X144425363Y-119854551D01*
X144342708Y-119874395D01*
X144338137Y-119876288D01*
X144338135Y-119876289D01*
X144270470Y-119904317D01*
X144116068Y-119968273D01*
X144021487Y-120026232D01*
X143911130Y-120093858D01*
X143911127Y-120093860D01*
X143906904Y-120096448D01*
X143903140Y-120099663D01*
X143903137Y-120099665D01*
X143775448Y-120208723D01*
X143720367Y-120255767D01*
X143717159Y-120259523D01*
X143651611Y-120336269D01*
X143592160Y-120375078D01*
X143521165Y-120375584D01*
X143459989Y-120336269D01*
X143394441Y-120259523D01*
X143391233Y-120255767D01*
X143336152Y-120208723D01*
X143208463Y-120099665D01*
X143208460Y-120099663D01*
X143204696Y-120096448D01*
X143200473Y-120093860D01*
X143200470Y-120093858D01*
X143090113Y-120026232D01*
X142995532Y-119968273D01*
X142841130Y-119904317D01*
X142773465Y-119876289D01*
X142773463Y-119876288D01*
X142768892Y-119874395D01*
X142686237Y-119854551D01*
X142535170Y-119818283D01*
X142535164Y-119818282D01*
X142530357Y-119817128D01*
X142285800Y-119797881D01*
X142041243Y-119817128D01*
X142036436Y-119818282D01*
X142036430Y-119818283D01*
X141885363Y-119854551D01*
X141802708Y-119874395D01*
X141798137Y-119876288D01*
X141798135Y-119876289D01*
X141730470Y-119904317D01*
X141576068Y-119968273D01*
X141481487Y-120026232D01*
X141371130Y-120093858D01*
X141371127Y-120093860D01*
X141366904Y-120096448D01*
X141363140Y-120099663D01*
X141363137Y-120099665D01*
X141235448Y-120208723D01*
X141180367Y-120255767D01*
X141177159Y-120259523D01*
X141111611Y-120336269D01*
X141052160Y-120375078D01*
X140981165Y-120375584D01*
X140919989Y-120336269D01*
X140854441Y-120259523D01*
X140851233Y-120255767D01*
X140796152Y-120208723D01*
X140668463Y-120099665D01*
X140668460Y-120099663D01*
X140664696Y-120096448D01*
X140660473Y-120093860D01*
X140660470Y-120093858D01*
X140550113Y-120026232D01*
X140455532Y-119968273D01*
X140301130Y-119904317D01*
X140233465Y-119876289D01*
X140233463Y-119876288D01*
X140228892Y-119874395D01*
X140146237Y-119854551D01*
X139995170Y-119818283D01*
X139995164Y-119818282D01*
X139990357Y-119817128D01*
X139745800Y-119797881D01*
X139501243Y-119817128D01*
X139496436Y-119818282D01*
X139496430Y-119818283D01*
X139345363Y-119854551D01*
X139262708Y-119874395D01*
X139258137Y-119876288D01*
X139258135Y-119876289D01*
X139190470Y-119904317D01*
X139036068Y-119968273D01*
X138910591Y-120045165D01*
X138858588Y-120077032D01*
X138790055Y-120095570D01*
X138722378Y-120074113D01*
X138691928Y-120045165D01*
X138653855Y-119994365D01*
X138619061Y-119947939D01*
X138502505Y-119860585D01*
X138366116Y-119809455D01*
X138303934Y-119802700D01*
X136107666Y-119802700D01*
X136045484Y-119809455D01*
X135909095Y-119860585D01*
X135792539Y-119947939D01*
X135705185Y-120064495D01*
X135654055Y-120200884D01*
X135647300Y-120263066D01*
X135647300Y-122459334D01*
X132373867Y-122459334D01*
X132523735Y-122283863D01*
X132523737Y-122283860D01*
X132526952Y-122280096D01*
X132533566Y-122269304D01*
X132581580Y-122190951D01*
X132655127Y-122070932D01*
X132749005Y-121844292D01*
X132806272Y-121605757D01*
X132825519Y-121361200D01*
X132806272Y-121116643D01*
X132749005Y-120878108D01*
X132655127Y-120651468D01*
X132526952Y-120442304D01*
X132483565Y-120391504D01*
X132370841Y-120259523D01*
X132367633Y-120255767D01*
X132312552Y-120208723D01*
X132184863Y-120099665D01*
X132184860Y-120099663D01*
X132181096Y-120096448D01*
X132176873Y-120093860D01*
X132176870Y-120093858D01*
X132066513Y-120026232D01*
X131971932Y-119968273D01*
X131817530Y-119904317D01*
X131749865Y-119876289D01*
X131749863Y-119876288D01*
X131745292Y-119874395D01*
X131662637Y-119854551D01*
X131511570Y-119818283D01*
X131511564Y-119818282D01*
X131506757Y-119817128D01*
X131262200Y-119797881D01*
X131017643Y-119817128D01*
X131012836Y-119818282D01*
X131012830Y-119818283D01*
X130861763Y-119854551D01*
X130779108Y-119874395D01*
X130774537Y-119876288D01*
X130774535Y-119876289D01*
X130706870Y-119904317D01*
X130552468Y-119968273D01*
X130457887Y-120026232D01*
X130347530Y-120093858D01*
X130347527Y-120093860D01*
X130343304Y-120096448D01*
X130339540Y-120099663D01*
X130339537Y-120099665D01*
X130211848Y-120208723D01*
X130156767Y-120255767D01*
X130153559Y-120259523D01*
X130088011Y-120336269D01*
X130028560Y-120375078D01*
X129957565Y-120375584D01*
X129896389Y-120336269D01*
X129830841Y-120259523D01*
X129827633Y-120255767D01*
X129772552Y-120208723D01*
X129644863Y-120099665D01*
X129644860Y-120099663D01*
X129641096Y-120096448D01*
X129636873Y-120093860D01*
X129636870Y-120093858D01*
X129526513Y-120026232D01*
X129431932Y-119968273D01*
X129277530Y-119904317D01*
X129209865Y-119876289D01*
X129209863Y-119876288D01*
X129205292Y-119874395D01*
X129122637Y-119854551D01*
X128971570Y-119818283D01*
X128971564Y-119818282D01*
X128966757Y-119817128D01*
X128722200Y-119797881D01*
X128477643Y-119817128D01*
X128472836Y-119818282D01*
X128472830Y-119818283D01*
X128321763Y-119854551D01*
X128239108Y-119874395D01*
X128234537Y-119876288D01*
X128234535Y-119876289D01*
X128166870Y-119904317D01*
X128012468Y-119968273D01*
X127917887Y-120026232D01*
X127807530Y-120093858D01*
X127807527Y-120093860D01*
X127803304Y-120096448D01*
X127799540Y-120099663D01*
X127799537Y-120099665D01*
X127671848Y-120208723D01*
X127616767Y-120255767D01*
X127613559Y-120259523D01*
X127548011Y-120336269D01*
X127488560Y-120375078D01*
X127417565Y-120375584D01*
X127356389Y-120336269D01*
X127290841Y-120259523D01*
X127287633Y-120255767D01*
X127232552Y-120208723D01*
X127104863Y-120099665D01*
X127104860Y-120099663D01*
X127101096Y-120096448D01*
X127096873Y-120093860D01*
X127096870Y-120093858D01*
X126986513Y-120026232D01*
X126891932Y-119968273D01*
X126737530Y-119904317D01*
X126669865Y-119876289D01*
X126669863Y-119876288D01*
X126665292Y-119874395D01*
X126582637Y-119854551D01*
X126431570Y-119818283D01*
X126431564Y-119818282D01*
X126426757Y-119817128D01*
X126182200Y-119797881D01*
X125937643Y-119817128D01*
X125932836Y-119818282D01*
X125932830Y-119818283D01*
X125781763Y-119854551D01*
X125699108Y-119874395D01*
X125694537Y-119876288D01*
X125694535Y-119876289D01*
X125626870Y-119904317D01*
X125472468Y-119968273D01*
X125346991Y-120045165D01*
X125294988Y-120077032D01*
X125226455Y-120095570D01*
X125158778Y-120074113D01*
X125128328Y-120045165D01*
X125090255Y-119994365D01*
X125055461Y-119947939D01*
X124938905Y-119860585D01*
X124802516Y-119809455D01*
X124740334Y-119802700D01*
X122544066Y-119802700D01*
X122481884Y-119809455D01*
X122345495Y-119860585D01*
X122228939Y-119947939D01*
X122141585Y-120064495D01*
X122090455Y-120200884D01*
X122083700Y-120263066D01*
X122083700Y-122459334D01*
X119120067Y-122459334D01*
X119269935Y-122283863D01*
X119269937Y-122283860D01*
X119273152Y-122280096D01*
X119279766Y-122269304D01*
X119327780Y-122190951D01*
X119401327Y-122070932D01*
X119495205Y-121844292D01*
X119552472Y-121605757D01*
X119571719Y-121361200D01*
X119552472Y-121116643D01*
X119495205Y-120878108D01*
X119401327Y-120651468D01*
X119273152Y-120442304D01*
X119229765Y-120391504D01*
X119117041Y-120259523D01*
X119113833Y-120255767D01*
X119058752Y-120208723D01*
X118931063Y-120099665D01*
X118931060Y-120099663D01*
X118927296Y-120096448D01*
X118923073Y-120093860D01*
X118923070Y-120093858D01*
X118812713Y-120026232D01*
X118718132Y-119968273D01*
X118563730Y-119904317D01*
X118496065Y-119876289D01*
X118496063Y-119876288D01*
X118491492Y-119874395D01*
X118408837Y-119854551D01*
X118257770Y-119818283D01*
X118257764Y-119818282D01*
X118252957Y-119817128D01*
X118008400Y-119797881D01*
X117763843Y-119817128D01*
X117759036Y-119818282D01*
X117759030Y-119818283D01*
X117607963Y-119854551D01*
X117525308Y-119874395D01*
X117520737Y-119876288D01*
X117520735Y-119876289D01*
X117453070Y-119904317D01*
X117298668Y-119968273D01*
X117173191Y-120045165D01*
X117121188Y-120077032D01*
X117052655Y-120095570D01*
X116984978Y-120074113D01*
X116954528Y-120045165D01*
X116916455Y-119994365D01*
X116881661Y-119947939D01*
X116765105Y-119860585D01*
X116628716Y-119809455D01*
X116566534Y-119802700D01*
X114370266Y-119802700D01*
X114308084Y-119809455D01*
X114171695Y-119860585D01*
X114055139Y-119947939D01*
X113967785Y-120064495D01*
X113916655Y-120200884D01*
X113909900Y-120263066D01*
X113909900Y-122459334D01*
X109685004Y-122459334D01*
X109672015Y-122427267D01*
X109535735Y-122194518D01*
X109417928Y-122047208D01*
X109370136Y-121987447D01*
X109370135Y-121987445D01*
X109367284Y-121983881D01*
X109170191Y-121799766D01*
X108948584Y-121646032D01*
X108944501Y-121644001D01*
X108944498Y-121643999D01*
X108779606Y-121561967D01*
X108707106Y-121525899D01*
X108702772Y-121524478D01*
X108702769Y-121524477D01*
X108455147Y-121443302D01*
X108455141Y-121443301D01*
X108450814Y-121441882D01*
X108446322Y-121441102D01*
X108188860Y-121396399D01*
X108188852Y-121396398D01*
X108185079Y-121395743D01*
X108173817Y-121395182D01*
X108101422Y-121391578D01*
X108101414Y-121391578D01*
X108099851Y-121391500D01*
X107931488Y-121391500D01*
X107929220Y-121391665D01*
X107929208Y-121391665D01*
X107798116Y-121401177D01*
X107730996Y-121406047D01*
X107726541Y-121407031D01*
X107726538Y-121407031D01*
X107472088Y-121463209D01*
X107472084Y-121463210D01*
X107467628Y-121464194D01*
X107341520Y-121511972D01*
X107219682Y-121558132D01*
X107219679Y-121558133D01*
X107215412Y-121559750D01*
X106979632Y-121690714D01*
X106765227Y-121854343D01*
X106576688Y-122047208D01*
X106417966Y-122265270D01*
X106365479Y-122365031D01*
X106294510Y-122499921D01*
X106294507Y-122499927D01*
X106292385Y-122503961D01*
X106290865Y-122508266D01*
X106290863Y-122508270D01*
X106217336Y-122716481D01*
X106202575Y-122758280D01*
X106150419Y-123022900D01*
X106150192Y-123027453D01*
X106150192Y-123027456D01*
X106140991Y-123212292D01*
X106137009Y-123292277D01*
X105008000Y-123292277D01*
X105008000Y-116452574D01*
X163511502Y-116452574D01*
X163520151Y-116682958D01*
X163567493Y-116908591D01*
X163652176Y-117123021D01*
X163771777Y-117320117D01*
X163775274Y-117324147D01*
X163861838Y-117423903D01*
X163922877Y-117494245D01*
X163927008Y-117497632D01*
X164097027Y-117637040D01*
X164097033Y-117637044D01*
X164101155Y-117640424D01*
X164105791Y-117643063D01*
X164105794Y-117643065D01*
X164214822Y-117705127D01*
X164301514Y-117754475D01*
X164518225Y-117833137D01*
X164523474Y-117834086D01*
X164523477Y-117834087D01*
X164741008Y-117873423D01*
X164741015Y-117873424D01*
X164745092Y-117874161D01*
X164762814Y-117874997D01*
X164767756Y-117875230D01*
X164767763Y-117875230D01*
X164769244Y-117875300D01*
X165181290Y-117875300D01*
X165248209Y-117869622D01*
X165347809Y-117861171D01*
X165347813Y-117861170D01*
X165353120Y-117860720D01*
X165358275Y-117859382D01*
X165358281Y-117859381D01*
X165571103Y-117804143D01*
X165571107Y-117804142D01*
X165576272Y-117802801D01*
X165581138Y-117800609D01*
X165581141Y-117800608D01*
X165781602Y-117710307D01*
X165786475Y-117708112D01*
X165977719Y-117579359D01*
X166144535Y-117420224D01*
X166282154Y-117235258D01*
X166386640Y-117029749D01*
X166422721Y-116913552D01*
X166453424Y-116814671D01*
X166455007Y-116809573D01*
X166455708Y-116804284D01*
X166484598Y-116586311D01*
X166484598Y-116586306D01*
X166485298Y-116581026D01*
X166476649Y-116350642D01*
X166429307Y-116125009D01*
X166344624Y-115910579D01*
X166225023Y-115713483D01*
X166138155Y-115613376D01*
X166077423Y-115543388D01*
X166077421Y-115543386D01*
X166073923Y-115539355D01*
X166032370Y-115505284D01*
X165899773Y-115396560D01*
X165899767Y-115396556D01*
X165895645Y-115393176D01*
X165864150Y-115375248D01*
X165814845Y-115324168D01*
X165800983Y-115254538D01*
X165826966Y-115188467D01*
X165856116Y-115161227D01*
X165960796Y-115090752D01*
X165977719Y-115079359D01*
X165994865Y-115063003D01*
X166140678Y-114923903D01*
X166144535Y-114920224D01*
X166282154Y-114735258D01*
X166310989Y-114678545D01*
X166384222Y-114534504D01*
X166386640Y-114529749D01*
X166422721Y-114413552D01*
X166453424Y-114314671D01*
X166455007Y-114309573D01*
X166470446Y-114193088D01*
X166484598Y-114086311D01*
X166484598Y-114086306D01*
X166485298Y-114081026D01*
X166483224Y-114025767D01*
X166476849Y-113855973D01*
X166476649Y-113850642D01*
X166429307Y-113625009D01*
X166427348Y-113620048D01*
X166346585Y-113415544D01*
X166346584Y-113415542D01*
X166344624Y-113410579D01*
X166225023Y-113213483D01*
X166138155Y-113113376D01*
X166077423Y-113043388D01*
X166077421Y-113043386D01*
X166073923Y-113039355D01*
X165996190Y-112975618D01*
X165899773Y-112896560D01*
X165899767Y-112896556D01*
X165895645Y-112893176D01*
X165864150Y-112875248D01*
X165814845Y-112824168D01*
X165800983Y-112754538D01*
X165826966Y-112688467D01*
X165856116Y-112661227D01*
X165907987Y-112626305D01*
X165977719Y-112579359D01*
X166144535Y-112420224D01*
X166282154Y-112235258D01*
X166291608Y-112216665D01*
X166367271Y-112067845D01*
X166386640Y-112029749D01*
X166397101Y-111996061D01*
X166453424Y-111814671D01*
X166455007Y-111809573D01*
X166469373Y-111701183D01*
X166484598Y-111586311D01*
X166484598Y-111586306D01*
X166485298Y-111581026D01*
X166476649Y-111350642D01*
X166429307Y-111125009D01*
X166422882Y-111108739D01*
X166346585Y-110915544D01*
X166346584Y-110915542D01*
X166344624Y-110910579D01*
X166225023Y-110713483D01*
X166138155Y-110613376D01*
X166077423Y-110543388D01*
X166077421Y-110543386D01*
X166073923Y-110539355D01*
X166038280Y-110510130D01*
X165998286Y-110451471D01*
X165996354Y-110380501D01*
X166033098Y-110319752D01*
X166051868Y-110305552D01*
X166191520Y-110219132D01*
X166197748Y-110215278D01*
X166322705Y-110090103D01*
X166339348Y-110063103D01*
X166411675Y-109945768D01*
X166411676Y-109945766D01*
X166415515Y-109939538D01*
X166452465Y-109828138D01*
X166469032Y-109778189D01*
X166469032Y-109778187D01*
X166471197Y-109771661D01*
X166474198Y-109742377D01*
X166481572Y-109670398D01*
X166481900Y-109667200D01*
X166481900Y-108366400D01*
X166481329Y-108360896D01*
X166471638Y-108267492D01*
X166471637Y-108267488D01*
X166470926Y-108260634D01*
X166414950Y-108092854D01*
X166321878Y-107942452D01*
X166196703Y-107817495D01*
X166177085Y-107805402D01*
X166052368Y-107728525D01*
X166052366Y-107728524D01*
X166046138Y-107724685D01*
X165945346Y-107691254D01*
X165884789Y-107671168D01*
X165884787Y-107671168D01*
X165878261Y-107669003D01*
X165871425Y-107668303D01*
X165871422Y-107668302D01*
X165828369Y-107663891D01*
X165773800Y-107658300D01*
X164223000Y-107658300D01*
X164219754Y-107658637D01*
X164219750Y-107658637D01*
X164124092Y-107668562D01*
X164124088Y-107668563D01*
X164117234Y-107669274D01*
X164110698Y-107671455D01*
X164110696Y-107671455D01*
X164051352Y-107691254D01*
X163949454Y-107725250D01*
X163799052Y-107818322D01*
X163674095Y-107943497D01*
X163670255Y-107949727D01*
X163670254Y-107949728D01*
X163592546Y-108075794D01*
X163581285Y-108094062D01*
X163554836Y-108173805D01*
X163546609Y-108198609D01*
X163525603Y-108261939D01*
X163524903Y-108268775D01*
X163524902Y-108268778D01*
X163520491Y-108311831D01*
X163514900Y-108366400D01*
X163514900Y-109667200D01*
X163515237Y-109670446D01*
X163515237Y-109670450D01*
X163521917Y-109734827D01*
X163525874Y-109772966D01*
X163581850Y-109940746D01*
X163674922Y-110091148D01*
X163800097Y-110216105D01*
X163945740Y-110305881D01*
X163993232Y-110358652D01*
X164004656Y-110428724D01*
X163976382Y-110493848D01*
X163966595Y-110504310D01*
X163852265Y-110613376D01*
X163714646Y-110798342D01*
X163610160Y-111003851D01*
X163608578Y-111008945D01*
X163608577Y-111008948D01*
X163564998Y-111149295D01*
X163541793Y-111224027D01*
X163541092Y-111229316D01*
X163515307Y-111423866D01*
X163511502Y-111452574D01*
X163520151Y-111682958D01*
X163567493Y-111908591D01*
X163569451Y-111913550D01*
X163569452Y-111913552D01*
X163604396Y-112002034D01*
X163652176Y-112123021D01*
X163654943Y-112127580D01*
X163654944Y-112127583D01*
X163707398Y-112214024D01*
X163771777Y-112320117D01*
X163775274Y-112324147D01*
X163908701Y-112477908D01*
X163922877Y-112494245D01*
X163927008Y-112497632D01*
X164097027Y-112637040D01*
X164097033Y-112637044D01*
X164101155Y-112640424D01*
X164132650Y-112658352D01*
X164181955Y-112709432D01*
X164195817Y-112779062D01*
X164169834Y-112845133D01*
X164140684Y-112872373D01*
X164019081Y-112954241D01*
X164015224Y-112957920D01*
X164015222Y-112957922D01*
X163996672Y-112975618D01*
X163852265Y-113113376D01*
X163714646Y-113298342D01*
X163610160Y-113503851D01*
X163608578Y-113508945D01*
X163608577Y-113508948D01*
X163557184Y-113674460D01*
X163541793Y-113724027D01*
X163541092Y-113729316D01*
X163513797Y-113935261D01*
X163511502Y-113952574D01*
X163520151Y-114182958D01*
X163567493Y-114408591D01*
X163569451Y-114413550D01*
X163569452Y-114413552D01*
X163600814Y-114492964D01*
X163652176Y-114623021D01*
X163654943Y-114627580D01*
X163654944Y-114627583D01*
X163694094Y-114692100D01*
X163771777Y-114820117D01*
X163775274Y-114824147D01*
X163889317Y-114955570D01*
X163922877Y-114994245D01*
X163927008Y-114997632D01*
X164097027Y-115137040D01*
X164097033Y-115137044D01*
X164101155Y-115140424D01*
X164132650Y-115158352D01*
X164181955Y-115209432D01*
X164195817Y-115279062D01*
X164169834Y-115345133D01*
X164140684Y-115372373D01*
X164019081Y-115454241D01*
X163852265Y-115613376D01*
X163714646Y-115798342D01*
X163610160Y-116003851D01*
X163608578Y-116008945D01*
X163608577Y-116008948D01*
X163546515Y-116208820D01*
X163541793Y-116224027D01*
X163541092Y-116229316D01*
X163525704Y-116345423D01*
X163511502Y-116452574D01*
X105008000Y-116452574D01*
X105008000Y-114492964D01*
X119053361Y-114492964D01*
X119069310Y-114655622D01*
X119071534Y-114662307D01*
X119071534Y-114662308D01*
X119094219Y-114730503D01*
X119120899Y-114810705D01*
X119124548Y-114816730D01*
X119189455Y-114923903D01*
X119205565Y-114950504D01*
X119210456Y-114955569D01*
X119210457Y-114955570D01*
X119247805Y-114994245D01*
X119319098Y-115068071D01*
X119324990Y-115071926D01*
X119324994Y-115071930D01*
X119408953Y-115126871D01*
X119455857Y-115157564D01*
X119491532Y-115170831D01*
X119602448Y-115212080D01*
X119602451Y-115212081D01*
X119609045Y-115214533D01*
X119616022Y-115215464D01*
X119764066Y-115235218D01*
X119764070Y-115235218D01*
X119771047Y-115236149D01*
X119778058Y-115235511D01*
X119778062Y-115235511D01*
X119926791Y-115221975D01*
X119933812Y-115221336D01*
X119940514Y-115219158D01*
X119940516Y-115219158D01*
X120082552Y-115173008D01*
X120082555Y-115173007D01*
X120089251Y-115170831D01*
X120135834Y-115143062D01*
X120223586Y-115090752D01*
X120223588Y-115090751D01*
X120229638Y-115087144D01*
X120347995Y-114974434D01*
X120438440Y-114838303D01*
X120475957Y-114739540D01*
X120493978Y-114692100D01*
X120493979Y-114692095D01*
X120496478Y-114685517D01*
X120499740Y-114662308D01*
X120518673Y-114527593D01*
X120518673Y-114527588D01*
X120519224Y-114523670D01*
X120519510Y-114503200D01*
X120510487Y-114422760D01*
X120502077Y-114347777D01*
X120502076Y-114347775D01*
X120501292Y-114340781D01*
X120447542Y-114186434D01*
X120360934Y-114047830D01*
X120355972Y-114042833D01*
X120250733Y-113936857D01*
X120250729Y-113936854D01*
X120245770Y-113931860D01*
X120239816Y-113928081D01*
X120126191Y-113855973D01*
X120107774Y-113844285D01*
X120083235Y-113835547D01*
X119960441Y-113791822D01*
X119960436Y-113791821D01*
X119953806Y-113789460D01*
X119946818Y-113788627D01*
X119946815Y-113788626D01*
X119835876Y-113775397D01*
X119791518Y-113770108D01*
X119784515Y-113770844D01*
X119784514Y-113770844D01*
X119635975Y-113786456D01*
X119635973Y-113786457D01*
X119628975Y-113787192D01*
X119561104Y-113810297D01*
X119480927Y-113837591D01*
X119480924Y-113837592D01*
X119474257Y-113839862D01*
X119468258Y-113843552D01*
X119468257Y-113843553D01*
X119460925Y-113848064D01*
X119335052Y-113925501D01*
X119218280Y-114039853D01*
X119129745Y-114177234D01*
X119127336Y-114183854D01*
X119127335Y-114183855D01*
X119101796Y-114254024D01*
X119073846Y-114330815D01*
X119053361Y-114492964D01*
X105008000Y-114492964D01*
X105008000Y-109982000D01*
X108825081Y-109982000D01*
X108844328Y-110226557D01*
X108845482Y-110231364D01*
X108845483Y-110231370D01*
X108865694Y-110315552D01*
X108901595Y-110465092D01*
X108995473Y-110691732D01*
X109057241Y-110792529D01*
X109104232Y-110869212D01*
X109122770Y-110937745D01*
X109101313Y-111005422D01*
X109072365Y-111035872D01*
X108975139Y-111108739D01*
X108887785Y-111225295D01*
X108836655Y-111361684D01*
X108829900Y-111423866D01*
X108829900Y-113620134D01*
X108836655Y-113682316D01*
X108887785Y-113818705D01*
X108975139Y-113935261D01*
X109091695Y-114022615D01*
X109228084Y-114073745D01*
X109290266Y-114080500D01*
X111486534Y-114080500D01*
X111548716Y-114073745D01*
X111685105Y-114022615D01*
X111801661Y-113935261D01*
X111889015Y-113818705D01*
X111940145Y-113682316D01*
X111946900Y-113620134D01*
X111946900Y-112308564D01*
X129568961Y-112308564D01*
X129584910Y-112471222D01*
X129587134Y-112477907D01*
X129587134Y-112477908D01*
X129610704Y-112548763D01*
X129636499Y-112626305D01*
X129721165Y-112766104D01*
X129834698Y-112883671D01*
X129840590Y-112887526D01*
X129840594Y-112887530D01*
X129924553Y-112942471D01*
X129971457Y-112973164D01*
X130007132Y-112986431D01*
X130118048Y-113027680D01*
X130118051Y-113027681D01*
X130124645Y-113030133D01*
X130131622Y-113031064D01*
X130279666Y-113050818D01*
X130279670Y-113050818D01*
X130286647Y-113051749D01*
X130293658Y-113051111D01*
X130293662Y-113051111D01*
X130442391Y-113037575D01*
X130449412Y-113036936D01*
X130456114Y-113034758D01*
X130456116Y-113034758D01*
X130598152Y-112988608D01*
X130598155Y-112988607D01*
X130604851Y-112986431D01*
X130663850Y-112951261D01*
X130739186Y-112906352D01*
X130739188Y-112906351D01*
X130745238Y-112902744D01*
X130863595Y-112790034D01*
X130954040Y-112653903D01*
X130983755Y-112575678D01*
X131009578Y-112507700D01*
X131009579Y-112507695D01*
X131012078Y-112501117D01*
X131015340Y-112477908D01*
X131034273Y-112343193D01*
X131034273Y-112343188D01*
X131034824Y-112339270D01*
X131034980Y-112328075D01*
X131035055Y-112322762D01*
X131035055Y-112322756D01*
X131035110Y-112318800D01*
X131016892Y-112156381D01*
X130963142Y-112002034D01*
X130876534Y-111863430D01*
X130871572Y-111858433D01*
X130766333Y-111752457D01*
X130766329Y-111752454D01*
X130761370Y-111747460D01*
X130745536Y-111737411D01*
X130688449Y-111701183D01*
X130623374Y-111659885D01*
X130598835Y-111651147D01*
X130476041Y-111607422D01*
X130476036Y-111607421D01*
X130469406Y-111605060D01*
X130462418Y-111604227D01*
X130462415Y-111604226D01*
X130351476Y-111590997D01*
X130307118Y-111585708D01*
X130300115Y-111586444D01*
X130300114Y-111586444D01*
X130151575Y-111602056D01*
X130151573Y-111602057D01*
X130144575Y-111602792D01*
X130063273Y-111630469D01*
X129996527Y-111653191D01*
X129996524Y-111653192D01*
X129989857Y-111655462D01*
X129850652Y-111741101D01*
X129733880Y-111855453D01*
X129645345Y-111992834D01*
X129642936Y-111999454D01*
X129642935Y-111999455D01*
X129633764Y-112024652D01*
X129589446Y-112146415D01*
X129568961Y-112308564D01*
X111946900Y-112308564D01*
X111946900Y-111423866D01*
X111940145Y-111361684D01*
X111889015Y-111225295D01*
X111801661Y-111108739D01*
X111704435Y-111035872D01*
X111697184Y-111026174D01*
X153419302Y-111026174D01*
X153427951Y-111256558D01*
X153475293Y-111482191D01*
X153477251Y-111487150D01*
X153477252Y-111487152D01*
X153546961Y-111663664D01*
X153559976Y-111696621D01*
X153679577Y-111893717D01*
X153683074Y-111897747D01*
X153769638Y-111997503D01*
X153830677Y-112067845D01*
X153834808Y-112071232D01*
X154004827Y-112210640D01*
X154004833Y-112210644D01*
X154008955Y-112214024D01*
X154013591Y-112216663D01*
X154013594Y-112216665D01*
X154053780Y-112239540D01*
X154209314Y-112328075D01*
X154426025Y-112406737D01*
X154431274Y-112407686D01*
X154431277Y-112407687D01*
X154648808Y-112447023D01*
X154648815Y-112447024D01*
X154652892Y-112447761D01*
X154670614Y-112448597D01*
X154675556Y-112448830D01*
X154675563Y-112448830D01*
X154677044Y-112448900D01*
X155089090Y-112448900D01*
X155156009Y-112443222D01*
X155255609Y-112434771D01*
X155255613Y-112434770D01*
X155260920Y-112434320D01*
X155266075Y-112432982D01*
X155266081Y-112432981D01*
X155478903Y-112377743D01*
X155478907Y-112377742D01*
X155484072Y-112376401D01*
X155488938Y-112374209D01*
X155488941Y-112374208D01*
X155689402Y-112283907D01*
X155694275Y-112281712D01*
X155885519Y-112152959D01*
X155899320Y-112139794D01*
X156020019Y-112024652D01*
X156052335Y-111993824D01*
X156189954Y-111808858D01*
X156221898Y-111746030D01*
X156263774Y-111663664D01*
X156294440Y-111603349D01*
X156299731Y-111586311D01*
X156361224Y-111388271D01*
X156362807Y-111383173D01*
X156367810Y-111345423D01*
X156392398Y-111159911D01*
X156392398Y-111159906D01*
X156393098Y-111154626D01*
X156384449Y-110924242D01*
X156337107Y-110698609D01*
X156274214Y-110539355D01*
X156254385Y-110489144D01*
X156254384Y-110489142D01*
X156252424Y-110484179D01*
X156232577Y-110451471D01*
X156135590Y-110291643D01*
X156132823Y-110287083D01*
X156084478Y-110231370D01*
X155985223Y-110116988D01*
X155985221Y-110116986D01*
X155981723Y-110112955D01*
X155887266Y-110035505D01*
X155807573Y-109970160D01*
X155807567Y-109970156D01*
X155803445Y-109966776D01*
X155771950Y-109948848D01*
X155722645Y-109897768D01*
X155708783Y-109828138D01*
X155734766Y-109762067D01*
X155763916Y-109734827D01*
X155779906Y-109724062D01*
X155789261Y-109717764D01*
X157915361Y-109717764D01*
X157931310Y-109880422D01*
X157933534Y-109887107D01*
X157933534Y-109887108D01*
X157944054Y-109918733D01*
X157982899Y-110035505D01*
X157986548Y-110041530D01*
X158027754Y-110109568D01*
X158067565Y-110175304D01*
X158072456Y-110180369D01*
X158072457Y-110180370D01*
X158082968Y-110191254D01*
X158181098Y-110292871D01*
X158317857Y-110382364D01*
X158346930Y-110393176D01*
X158464448Y-110436880D01*
X158464451Y-110436881D01*
X158471045Y-110439333D01*
X158478022Y-110440264D01*
X158626066Y-110460018D01*
X158626070Y-110460018D01*
X158633047Y-110460949D01*
X158640058Y-110460311D01*
X158640062Y-110460311D01*
X158788791Y-110446775D01*
X158795812Y-110446136D01*
X158802514Y-110443958D01*
X158802516Y-110443958D01*
X158944552Y-110397808D01*
X158944555Y-110397807D01*
X158951251Y-110395631D01*
X158998173Y-110367660D01*
X159085586Y-110315552D01*
X159085588Y-110315551D01*
X159091638Y-110311944D01*
X159209995Y-110199234D01*
X159300440Y-110063103D01*
X159314967Y-110024861D01*
X159355978Y-109916900D01*
X159355979Y-109916895D01*
X159358478Y-109910317D01*
X159361740Y-109887108D01*
X159380673Y-109752393D01*
X159380673Y-109752388D01*
X159381224Y-109748470D01*
X159381415Y-109734827D01*
X159381455Y-109731962D01*
X159381455Y-109731956D01*
X159381510Y-109728000D01*
X159363292Y-109565581D01*
X159309542Y-109411234D01*
X159222934Y-109272630D01*
X159217972Y-109267633D01*
X159112733Y-109161657D01*
X159112729Y-109161654D01*
X159107770Y-109156660D01*
X159091936Y-109146611D01*
X159023765Y-109103349D01*
X158969774Y-109069085D01*
X158942398Y-109059337D01*
X158822441Y-109016622D01*
X158822436Y-109016621D01*
X158815806Y-109014260D01*
X158808818Y-109013427D01*
X158808815Y-109013426D01*
X158697876Y-109000197D01*
X158653518Y-108994908D01*
X158646515Y-108995644D01*
X158646514Y-108995644D01*
X158497975Y-109011256D01*
X158497973Y-109011257D01*
X158490975Y-109011992D01*
X158409673Y-109039669D01*
X158342927Y-109062391D01*
X158342924Y-109062392D01*
X158336257Y-109064662D01*
X158197052Y-109150301D01*
X158080280Y-109264653D01*
X157991745Y-109402034D01*
X157989336Y-109408654D01*
X157989335Y-109408655D01*
X157963796Y-109478824D01*
X157935846Y-109555615D01*
X157915361Y-109717764D01*
X155789261Y-109717764D01*
X155885519Y-109652959D01*
X156052335Y-109493824D01*
X156189954Y-109308858D01*
X156206234Y-109276839D01*
X156268062Y-109155230D01*
X156294440Y-109103349D01*
X156305080Y-109069085D01*
X156361224Y-108888271D01*
X156362807Y-108883173D01*
X156368217Y-108842352D01*
X156392398Y-108659911D01*
X156392398Y-108659906D01*
X156393098Y-108654626D01*
X156384449Y-108424242D01*
X156337107Y-108198609D01*
X156335148Y-108193648D01*
X156254385Y-107989144D01*
X156254384Y-107989142D01*
X156252424Y-107984179D01*
X156227104Y-107942452D01*
X156135590Y-107791643D01*
X156132823Y-107787083D01*
X156045955Y-107686976D01*
X155985223Y-107616988D01*
X155985221Y-107616986D01*
X155981723Y-107612955D01*
X155940170Y-107578884D01*
X155807573Y-107470160D01*
X155807567Y-107470156D01*
X155803445Y-107466776D01*
X155771950Y-107448848D01*
X155722645Y-107397768D01*
X155708783Y-107328138D01*
X155734766Y-107262067D01*
X155763916Y-107234827D01*
X155799842Y-107210640D01*
X155885519Y-107152959D01*
X156052335Y-106993824D01*
X156189954Y-106808858D01*
X156294440Y-106603349D01*
X156330521Y-106487152D01*
X156361224Y-106388271D01*
X156362807Y-106383173D01*
X156378097Y-106267811D01*
X156392398Y-106159911D01*
X156392398Y-106159906D01*
X156393098Y-106154626D01*
X156384449Y-105924242D01*
X156369061Y-105850900D01*
X156338202Y-105703828D01*
X156337107Y-105698609D01*
X156331862Y-105685327D01*
X156254385Y-105489144D01*
X156254384Y-105489142D01*
X156252424Y-105484179D01*
X156195072Y-105389665D01*
X156135590Y-105291643D01*
X156132823Y-105287083D01*
X156124955Y-105278016D01*
X155985223Y-105116988D01*
X155985221Y-105116986D01*
X155981723Y-105112955D01*
X155946080Y-105083730D01*
X155906086Y-105025071D01*
X155904154Y-104954101D01*
X155940898Y-104893352D01*
X155959668Y-104879152D01*
X156099320Y-104792732D01*
X156105548Y-104788878D01*
X156230505Y-104663703D01*
X156323315Y-104513138D01*
X156378997Y-104345261D01*
X156389700Y-104240800D01*
X156389700Y-102940000D01*
X156389363Y-102936750D01*
X156379438Y-102841092D01*
X156379437Y-102841088D01*
X156378726Y-102834234D01*
X156350066Y-102748328D01*
X156325068Y-102673402D01*
X156322750Y-102666454D01*
X156229678Y-102516052D01*
X156104503Y-102391095D01*
X156098272Y-102387254D01*
X155960168Y-102302125D01*
X155960166Y-102302124D01*
X155953938Y-102298285D01*
X155896923Y-102279374D01*
X163511502Y-102279374D01*
X163520151Y-102509758D01*
X163567493Y-102735391D01*
X163569451Y-102740350D01*
X163569452Y-102740352D01*
X163647035Y-102936802D01*
X163652176Y-102949821D01*
X163654943Y-102954380D01*
X163654944Y-102954383D01*
X163728714Y-103075951D01*
X163771777Y-103146917D01*
X163775274Y-103150947D01*
X163888038Y-103280896D01*
X163922877Y-103321045D01*
X163927008Y-103324432D01*
X164097027Y-103463840D01*
X164097033Y-103463844D01*
X164101155Y-103467224D01*
X164105791Y-103469863D01*
X164105794Y-103469865D01*
X164214822Y-103531927D01*
X164301514Y-103581275D01*
X164518225Y-103659937D01*
X164523474Y-103660886D01*
X164523477Y-103660887D01*
X164741008Y-103700223D01*
X164741015Y-103700224D01*
X164745092Y-103700961D01*
X164762814Y-103701797D01*
X164767756Y-103702030D01*
X164767763Y-103702030D01*
X164769244Y-103702100D01*
X165181290Y-103702100D01*
X165248209Y-103696422D01*
X165347809Y-103687971D01*
X165347813Y-103687970D01*
X165353120Y-103687520D01*
X165358275Y-103686182D01*
X165358281Y-103686181D01*
X165571103Y-103630943D01*
X165571107Y-103630942D01*
X165576272Y-103629601D01*
X165581138Y-103627409D01*
X165581141Y-103627408D01*
X165781602Y-103537107D01*
X165786475Y-103534912D01*
X165977719Y-103406159D01*
X166144535Y-103247024D01*
X166282154Y-103062058D01*
X166298014Y-103030865D01*
X166361235Y-102906517D01*
X166386640Y-102856549D01*
X166390065Y-102845521D01*
X166453424Y-102641471D01*
X166455007Y-102636373D01*
X166470954Y-102516052D01*
X166484598Y-102413111D01*
X166484598Y-102413106D01*
X166485298Y-102407826D01*
X166484896Y-102397104D01*
X166479187Y-102245055D01*
X166476649Y-102177442D01*
X166429307Y-101951809D01*
X166426896Y-101945704D01*
X166346585Y-101742344D01*
X166346584Y-101742342D01*
X166344624Y-101737379D01*
X166225023Y-101540283D01*
X166137427Y-101439337D01*
X166077423Y-101370188D01*
X166077421Y-101370186D01*
X166073923Y-101366155D01*
X166016894Y-101319394D01*
X165899773Y-101223360D01*
X165899767Y-101223356D01*
X165895645Y-101219976D01*
X165864150Y-101202048D01*
X165814845Y-101150968D01*
X165800983Y-101081338D01*
X165826966Y-101015267D01*
X165856116Y-100988027D01*
X165939251Y-100932057D01*
X165977719Y-100906159D01*
X166048379Y-100838753D01*
X166089978Y-100799069D01*
X166144535Y-100747024D01*
X166282154Y-100562058D01*
X166386640Y-100356549D01*
X166422721Y-100240352D01*
X166453424Y-100141471D01*
X166455007Y-100136373D01*
X166455708Y-100131084D01*
X166484598Y-99913111D01*
X166484598Y-99913106D01*
X166485298Y-99907826D01*
X166476649Y-99677442D01*
X166429307Y-99451809D01*
X166344624Y-99237379D01*
X166225023Y-99040283D01*
X166138155Y-98940176D01*
X166077423Y-98870188D01*
X166077421Y-98870186D01*
X166073923Y-98866155D01*
X166032370Y-98832084D01*
X165899773Y-98723360D01*
X165899767Y-98723356D01*
X165895645Y-98719976D01*
X165864150Y-98702048D01*
X165814845Y-98650968D01*
X165800983Y-98581338D01*
X165826966Y-98515267D01*
X165856116Y-98488027D01*
X165892042Y-98463840D01*
X165977719Y-98406159D01*
X166144535Y-98247024D01*
X166182102Y-98196533D01*
X166278968Y-98066340D01*
X166282154Y-98062058D01*
X166286287Y-98053930D01*
X166345447Y-97937570D01*
X166386640Y-97856549D01*
X166404594Y-97798730D01*
X166453424Y-97641471D01*
X166455007Y-97636373D01*
X166465449Y-97557586D01*
X166484598Y-97413111D01*
X166484598Y-97413106D01*
X166485298Y-97407826D01*
X166476649Y-97177442D01*
X166473890Y-97164290D01*
X166430402Y-96957028D01*
X166429307Y-96951809D01*
X166414320Y-96913860D01*
X166346585Y-96742344D01*
X166346584Y-96742342D01*
X166344624Y-96737379D01*
X166225023Y-96540283D01*
X166138155Y-96440176D01*
X166077423Y-96370188D01*
X166077421Y-96370186D01*
X166073923Y-96366155D01*
X166038280Y-96336930D01*
X165998286Y-96278271D01*
X165996354Y-96207301D01*
X166033098Y-96146552D01*
X166051868Y-96132352D01*
X166191520Y-96045932D01*
X166197748Y-96042078D01*
X166322705Y-95916903D01*
X166415515Y-95766338D01*
X166471197Y-95598461D01*
X166475146Y-95559924D01*
X166481572Y-95497198D01*
X166481900Y-95494000D01*
X166481900Y-94193200D01*
X166470926Y-94087434D01*
X166414950Y-93919654D01*
X166321878Y-93769252D01*
X166196703Y-93644295D01*
X166190472Y-93640454D01*
X166052368Y-93555325D01*
X166052366Y-93555324D01*
X166046138Y-93551485D01*
X165959655Y-93522800D01*
X165884789Y-93497968D01*
X165884787Y-93497968D01*
X165878261Y-93495803D01*
X165871425Y-93495103D01*
X165871422Y-93495102D01*
X165828369Y-93490691D01*
X165773800Y-93485100D01*
X164223000Y-93485100D01*
X164219754Y-93485437D01*
X164219750Y-93485437D01*
X164124092Y-93495362D01*
X164124088Y-93495363D01*
X164117234Y-93496074D01*
X164110698Y-93498255D01*
X164110696Y-93498255D01*
X163978594Y-93542328D01*
X163949454Y-93552050D01*
X163799052Y-93645122D01*
X163674095Y-93770297D01*
X163581285Y-93920862D01*
X163525603Y-94088739D01*
X163514900Y-94193200D01*
X163514900Y-95494000D01*
X163515237Y-95497246D01*
X163515237Y-95497250D01*
X163522039Y-95562800D01*
X163525874Y-95599766D01*
X163581850Y-95767546D01*
X163674922Y-95917948D01*
X163800097Y-96042905D01*
X163945740Y-96132681D01*
X163993232Y-96185452D01*
X164004656Y-96255524D01*
X163976382Y-96320648D01*
X163966595Y-96331110D01*
X163852265Y-96440176D01*
X163714646Y-96625142D01*
X163610160Y-96830651D01*
X163608578Y-96835745D01*
X163608577Y-96835748D01*
X163552320Y-97016924D01*
X163541793Y-97050827D01*
X163541092Y-97056116D01*
X163520014Y-97215152D01*
X163511502Y-97279374D01*
X163511702Y-97284703D01*
X163511702Y-97284705D01*
X163513394Y-97329777D01*
X163520151Y-97509758D01*
X163567493Y-97735391D01*
X163569451Y-97740350D01*
X163569452Y-97740352D01*
X163642959Y-97926481D01*
X163652176Y-97949821D01*
X163771777Y-98146917D01*
X163775274Y-98150947D01*
X163861838Y-98250703D01*
X163922877Y-98321045D01*
X163927008Y-98324432D01*
X164097027Y-98463840D01*
X164097033Y-98463844D01*
X164101155Y-98467224D01*
X164132650Y-98485152D01*
X164181955Y-98536232D01*
X164195817Y-98605862D01*
X164169834Y-98671933D01*
X164140684Y-98699173D01*
X164019081Y-98781041D01*
X163852265Y-98940176D01*
X163714646Y-99125142D01*
X163610160Y-99330651D01*
X163608578Y-99335745D01*
X163608577Y-99335748D01*
X163546515Y-99535620D01*
X163541793Y-99550827D01*
X163541092Y-99556116D01*
X163525704Y-99672223D01*
X163511502Y-99779374D01*
X163520151Y-100009758D01*
X163567493Y-100235391D01*
X163652176Y-100449821D01*
X163771777Y-100646917D01*
X163775274Y-100650947D01*
X163903471Y-100798681D01*
X163922877Y-100821045D01*
X163945366Y-100839485D01*
X164097027Y-100963840D01*
X164097033Y-100963844D01*
X164101155Y-100967224D01*
X164132650Y-100985152D01*
X164181955Y-101036232D01*
X164195817Y-101105862D01*
X164169834Y-101171933D01*
X164140684Y-101199173D01*
X164019081Y-101281041D01*
X164015224Y-101284720D01*
X164015222Y-101284722D01*
X163945864Y-101350887D01*
X163852265Y-101440176D01*
X163849082Y-101444454D01*
X163816561Y-101488164D01*
X163714646Y-101625142D01*
X163712230Y-101629893D01*
X163712228Y-101629897D01*
X163700854Y-101652268D01*
X163610160Y-101830651D01*
X163608578Y-101835745D01*
X163608577Y-101835748D01*
X163546515Y-102035620D01*
X163541793Y-102050827D01*
X163541092Y-102056116D01*
X163516051Y-102245055D01*
X163511502Y-102279374D01*
X155896923Y-102279374D01*
X155793454Y-102245055D01*
X155792589Y-102244768D01*
X155792587Y-102244768D01*
X155786061Y-102242603D01*
X155779225Y-102241903D01*
X155779222Y-102241902D01*
X155736169Y-102237491D01*
X155681600Y-102231900D01*
X154130800Y-102231900D01*
X154127554Y-102232237D01*
X154127550Y-102232237D01*
X154031892Y-102242162D01*
X154031888Y-102242163D01*
X154025034Y-102242874D01*
X154018498Y-102245055D01*
X154018496Y-102245055D01*
X153899652Y-102284705D01*
X153857254Y-102298850D01*
X153706852Y-102391922D01*
X153581895Y-102517097D01*
X153489085Y-102667662D01*
X153433403Y-102835539D01*
X153432703Y-102842375D01*
X153432702Y-102842378D01*
X153431250Y-102856549D01*
X153422700Y-102940000D01*
X153422700Y-104240800D01*
X153433674Y-104346566D01*
X153435855Y-104353102D01*
X153435855Y-104353104D01*
X153457809Y-104418908D01*
X153489650Y-104514346D01*
X153582722Y-104664748D01*
X153707897Y-104789705D01*
X153853540Y-104879481D01*
X153901032Y-104932252D01*
X153912456Y-105002324D01*
X153884182Y-105067448D01*
X153874395Y-105077910D01*
X153868293Y-105083731D01*
X153760065Y-105186976D01*
X153622446Y-105371942D01*
X153620030Y-105376693D01*
X153620028Y-105376697D01*
X153613435Y-105389665D01*
X153517960Y-105577451D01*
X153516378Y-105582545D01*
X153516377Y-105582548D01*
X153455901Y-105777311D01*
X153449593Y-105797627D01*
X153448892Y-105802916D01*
X153421361Y-106010641D01*
X153419302Y-106026174D01*
X153427951Y-106256558D01*
X153475293Y-106482191D01*
X153559976Y-106696621D01*
X153679577Y-106893717D01*
X153683074Y-106897747D01*
X153769638Y-106997503D01*
X153830677Y-107067845D01*
X153834808Y-107071232D01*
X154004827Y-107210640D01*
X154004833Y-107210644D01*
X154008955Y-107214024D01*
X154040450Y-107231952D01*
X154089755Y-107283032D01*
X154103617Y-107352662D01*
X154077634Y-107418733D01*
X154048484Y-107445973D01*
X153926881Y-107527841D01*
X153760065Y-107686976D01*
X153622446Y-107871942D01*
X153620030Y-107876693D01*
X153620028Y-107876697D01*
X153585460Y-107944688D01*
X153517960Y-108077451D01*
X153516378Y-108082545D01*
X153516377Y-108082548D01*
X153458950Y-108267492D01*
X153449593Y-108297627D01*
X153448892Y-108302916D01*
X153433504Y-108419023D01*
X153419302Y-108526174D01*
X153419502Y-108531503D01*
X153419502Y-108531505D01*
X153420407Y-108555619D01*
X153427951Y-108756558D01*
X153475293Y-108982191D01*
X153477251Y-108987150D01*
X153477252Y-108987152D01*
X153544195Y-109156660D01*
X153559976Y-109196621D01*
X153562743Y-109201180D01*
X153562744Y-109201183D01*
X153609723Y-109278602D01*
X153679577Y-109393717D01*
X153683074Y-109397747D01*
X153769638Y-109497503D01*
X153830677Y-109567845D01*
X153834808Y-109571232D01*
X154004827Y-109710640D01*
X154004833Y-109710644D01*
X154008955Y-109714024D01*
X154040450Y-109731952D01*
X154089755Y-109783032D01*
X154103617Y-109852662D01*
X154077634Y-109918733D01*
X154048484Y-109945973D01*
X153926881Y-110027841D01*
X153923024Y-110031520D01*
X153923022Y-110031522D01*
X153867047Y-110084920D01*
X153760065Y-110186976D01*
X153756882Y-110191254D01*
X153742863Y-110210096D01*
X153622446Y-110371942D01*
X153620030Y-110376693D01*
X153620028Y-110376697D01*
X153589430Y-110436880D01*
X153517960Y-110577451D01*
X153516378Y-110582545D01*
X153516377Y-110582548D01*
X153474305Y-110718043D01*
X153449593Y-110797627D01*
X153448892Y-110802916D01*
X153422261Y-111003851D01*
X153419302Y-111026174D01*
X111697184Y-111026174D01*
X111661921Y-110979012D01*
X111656896Y-110908194D01*
X111672568Y-110869212D01*
X111719559Y-110792529D01*
X111781327Y-110691732D01*
X111875205Y-110465092D01*
X111911106Y-110315552D01*
X111931317Y-110231370D01*
X111931318Y-110231364D01*
X111932472Y-110226557D01*
X111951719Y-109982000D01*
X111932472Y-109737443D01*
X111931157Y-109731962D01*
X111927748Y-109717764D01*
X129416561Y-109717764D01*
X129432510Y-109880422D01*
X129434734Y-109887107D01*
X129434734Y-109887108D01*
X129445254Y-109918733D01*
X129484099Y-110035505D01*
X129487748Y-110041530D01*
X129528954Y-110109568D01*
X129568765Y-110175304D01*
X129573656Y-110180369D01*
X129573657Y-110180370D01*
X129584168Y-110191254D01*
X129682298Y-110292871D01*
X129819057Y-110382364D01*
X129848130Y-110393176D01*
X129965648Y-110436880D01*
X129965651Y-110436881D01*
X129972245Y-110439333D01*
X129979222Y-110440264D01*
X130127266Y-110460018D01*
X130127270Y-110460018D01*
X130134247Y-110460949D01*
X130141258Y-110460311D01*
X130141262Y-110460311D01*
X130289991Y-110446775D01*
X130297012Y-110446136D01*
X130303714Y-110443958D01*
X130303716Y-110443958D01*
X130445752Y-110397808D01*
X130445755Y-110397807D01*
X130452451Y-110395631D01*
X130499373Y-110367660D01*
X130586786Y-110315552D01*
X130586788Y-110315551D01*
X130592838Y-110311944D01*
X130711195Y-110199234D01*
X130801640Y-110063103D01*
X130816167Y-110024861D01*
X130857178Y-109916900D01*
X130857179Y-109916895D01*
X130859678Y-109910317D01*
X130862940Y-109887108D01*
X130881873Y-109752393D01*
X130881873Y-109752388D01*
X130882424Y-109748470D01*
X130882615Y-109734827D01*
X130882655Y-109731962D01*
X130882655Y-109731956D01*
X130882710Y-109728000D01*
X130864492Y-109565581D01*
X130810742Y-109411234D01*
X130724134Y-109272630D01*
X130719172Y-109267633D01*
X130613933Y-109161657D01*
X130613929Y-109161654D01*
X130608970Y-109156660D01*
X130593136Y-109146611D01*
X130524965Y-109103349D01*
X130470974Y-109069085D01*
X130443598Y-109059337D01*
X130323641Y-109016622D01*
X130323636Y-109016621D01*
X130317006Y-109014260D01*
X130310018Y-109013427D01*
X130310015Y-109013426D01*
X130199076Y-109000197D01*
X130154718Y-108994908D01*
X130147715Y-108995644D01*
X130147714Y-108995644D01*
X129999175Y-109011256D01*
X129999173Y-109011257D01*
X129992175Y-109011992D01*
X129910873Y-109039669D01*
X129844127Y-109062391D01*
X129844124Y-109062392D01*
X129837457Y-109064662D01*
X129698252Y-109150301D01*
X129581480Y-109264653D01*
X129492945Y-109402034D01*
X129490536Y-109408654D01*
X129490535Y-109408655D01*
X129464996Y-109478824D01*
X129437046Y-109555615D01*
X129416561Y-109717764D01*
X111927748Y-109717764D01*
X111888819Y-109555615D01*
X111875205Y-109498908D01*
X111781327Y-109272268D01*
X111653152Y-109063104D01*
X111613453Y-109016622D01*
X111497041Y-108880323D01*
X111493833Y-108876567D01*
X111449548Y-108838744D01*
X111413331Y-108807811D01*
X111374522Y-108748360D01*
X111374016Y-108677365D01*
X111413331Y-108616189D01*
X111490077Y-108550641D01*
X111493833Y-108547433D01*
X111588053Y-108437117D01*
X111649935Y-108364663D01*
X111649937Y-108364660D01*
X111653152Y-108360896D01*
X111724440Y-108244564D01*
X124590561Y-108244564D01*
X124606510Y-108407222D01*
X124608734Y-108413907D01*
X124608734Y-108413908D01*
X124632305Y-108484764D01*
X124658099Y-108562305D01*
X124661748Y-108568330D01*
X124726738Y-108675640D01*
X124742765Y-108702104D01*
X124856298Y-108819671D01*
X124862190Y-108823526D01*
X124862194Y-108823530D01*
X124938341Y-108873359D01*
X124993057Y-108909164D01*
X125028732Y-108922431D01*
X125139648Y-108963680D01*
X125139651Y-108963681D01*
X125146245Y-108966133D01*
X125153222Y-108967064D01*
X125301266Y-108986818D01*
X125301270Y-108986818D01*
X125308247Y-108987749D01*
X125315258Y-108987111D01*
X125315262Y-108987111D01*
X125463991Y-108973575D01*
X125471012Y-108972936D01*
X125477714Y-108970758D01*
X125477716Y-108970758D01*
X125619752Y-108924608D01*
X125619755Y-108924607D01*
X125626451Y-108922431D01*
X125655175Y-108905308D01*
X125760786Y-108842352D01*
X125760788Y-108842351D01*
X125766838Y-108838744D01*
X125885195Y-108726034D01*
X125975640Y-108589903D01*
X125997823Y-108531505D01*
X126031178Y-108443700D01*
X126031179Y-108443695D01*
X126033678Y-108437117D01*
X126034738Y-108429573D01*
X126055873Y-108279193D01*
X126055873Y-108279188D01*
X126056424Y-108275270D01*
X126056610Y-108261939D01*
X126056655Y-108258762D01*
X126056655Y-108258756D01*
X126056710Y-108254800D01*
X126047687Y-108174360D01*
X126039277Y-108099377D01*
X126039276Y-108099375D01*
X126038492Y-108092381D01*
X125984742Y-107938034D01*
X125898134Y-107799430D01*
X125890401Y-107791643D01*
X125787933Y-107688457D01*
X125787929Y-107688454D01*
X125782970Y-107683460D01*
X125767136Y-107673411D01*
X125730040Y-107649869D01*
X125644974Y-107595885D01*
X125620435Y-107587147D01*
X125497641Y-107543422D01*
X125497636Y-107543421D01*
X125491006Y-107541060D01*
X125484018Y-107540227D01*
X125484015Y-107540226D01*
X125355159Y-107524861D01*
X125328718Y-107521708D01*
X125321715Y-107522444D01*
X125321714Y-107522444D01*
X125173175Y-107538056D01*
X125173173Y-107538057D01*
X125166175Y-107538792D01*
X125084873Y-107566469D01*
X125018127Y-107589191D01*
X125018124Y-107589192D01*
X125011457Y-107591462D01*
X124872252Y-107677101D01*
X124857681Y-107691370D01*
X124764058Y-107783053D01*
X124755480Y-107791453D01*
X124666945Y-107928834D01*
X124664536Y-107935454D01*
X124664535Y-107935455D01*
X124659722Y-107948680D01*
X124611046Y-108082415D01*
X124590561Y-108244564D01*
X111724440Y-108244564D01*
X111781327Y-108151732D01*
X111852620Y-107979617D01*
X111873311Y-107929665D01*
X111873312Y-107929663D01*
X111875205Y-107925092D01*
X111905868Y-107797373D01*
X111931317Y-107691370D01*
X111931318Y-107691364D01*
X111932472Y-107686557D01*
X111951719Y-107442000D01*
X111932472Y-107197443D01*
X111921793Y-107152959D01*
X111884471Y-106997503D01*
X111875205Y-106958908D01*
X111781327Y-106732268D01*
X111653152Y-106523104D01*
X111493833Y-106336567D01*
X111413331Y-106267811D01*
X111374522Y-106208360D01*
X111374016Y-106137365D01*
X111413331Y-106076189D01*
X111490077Y-106010641D01*
X111493833Y-106007433D01*
X111546213Y-105946105D01*
X111649935Y-105824663D01*
X111649937Y-105824660D01*
X111653152Y-105820896D01*
X111667565Y-105797377D01*
X111721494Y-105709371D01*
X111781327Y-105611732D01*
X111868599Y-105401041D01*
X111872951Y-105390534D01*
X116851300Y-105390534D01*
X116858055Y-105452716D01*
X116909185Y-105589105D01*
X116996539Y-105705661D01*
X117113095Y-105793015D01*
X117249484Y-105844145D01*
X117311666Y-105850900D01*
X119507934Y-105850900D01*
X119570116Y-105844145D01*
X119706505Y-105793015D01*
X119823061Y-105705661D01*
X119895928Y-105608435D01*
X119952788Y-105565921D01*
X120023606Y-105560896D01*
X120062589Y-105576568D01*
X120240068Y-105685327D01*
X120384767Y-105745264D01*
X120462135Y-105777311D01*
X120462137Y-105777312D01*
X120466708Y-105779205D01*
X120518475Y-105791633D01*
X120700430Y-105835317D01*
X120700436Y-105835318D01*
X120705243Y-105836472D01*
X120949800Y-105855719D01*
X121194357Y-105836472D01*
X121199164Y-105835318D01*
X121199170Y-105835317D01*
X121381125Y-105791633D01*
X121432892Y-105779205D01*
X121437463Y-105777312D01*
X121437465Y-105777311D01*
X121514833Y-105745264D01*
X121659532Y-105685327D01*
X121837012Y-105576568D01*
X121864470Y-105559742D01*
X121864473Y-105559740D01*
X121868696Y-105557152D01*
X121940893Y-105495490D01*
X122051477Y-105401041D01*
X122055233Y-105397833D01*
X122123989Y-105317331D01*
X122183440Y-105278522D01*
X122254435Y-105278016D01*
X122315611Y-105317331D01*
X122384367Y-105397833D01*
X122388123Y-105401041D01*
X122498708Y-105495490D01*
X122570904Y-105557152D01*
X122575127Y-105559740D01*
X122575130Y-105559742D01*
X122602588Y-105576568D01*
X122780068Y-105685327D01*
X122924767Y-105745264D01*
X123002135Y-105777311D01*
X123002137Y-105777312D01*
X123006708Y-105779205D01*
X123058475Y-105791633D01*
X123240430Y-105835317D01*
X123240436Y-105835318D01*
X123245243Y-105836472D01*
X123489800Y-105855719D01*
X123734357Y-105836472D01*
X123739164Y-105835318D01*
X123739170Y-105835317D01*
X123921125Y-105791633D01*
X123972892Y-105779205D01*
X123977463Y-105777312D01*
X123977465Y-105777311D01*
X124054833Y-105745264D01*
X124199532Y-105685327D01*
X124377012Y-105576568D01*
X124404470Y-105559742D01*
X124404473Y-105559740D01*
X124408696Y-105557152D01*
X124480893Y-105495490D01*
X124591477Y-105401041D01*
X124595233Y-105397833D01*
X124663989Y-105317331D01*
X124723440Y-105278522D01*
X124794435Y-105278016D01*
X124855611Y-105317331D01*
X124924367Y-105397833D01*
X124928123Y-105401041D01*
X125038708Y-105495490D01*
X125110904Y-105557152D01*
X125115127Y-105559740D01*
X125115130Y-105559742D01*
X125142588Y-105576568D01*
X125320068Y-105685327D01*
X125464767Y-105745264D01*
X125542135Y-105777311D01*
X125542137Y-105777312D01*
X125546708Y-105779205D01*
X125598475Y-105791633D01*
X125780430Y-105835317D01*
X125780436Y-105835318D01*
X125785243Y-105836472D01*
X126029800Y-105855719D01*
X126274357Y-105836472D01*
X126279164Y-105835318D01*
X126279170Y-105835317D01*
X126461125Y-105791633D01*
X126512892Y-105779205D01*
X126517463Y-105777312D01*
X126517465Y-105777311D01*
X126594833Y-105745264D01*
X126739532Y-105685327D01*
X126917012Y-105576568D01*
X126944470Y-105559742D01*
X126944473Y-105559740D01*
X126948696Y-105557152D01*
X127020893Y-105495490D01*
X127028879Y-105488669D01*
X134987401Y-105488669D01*
X134987771Y-105495490D01*
X134993295Y-105546352D01*
X134996921Y-105561604D01*
X135042076Y-105682054D01*
X135050614Y-105697649D01*
X135127115Y-105799724D01*
X135139676Y-105812285D01*
X135241751Y-105888786D01*
X135257346Y-105897324D01*
X135377794Y-105942478D01*
X135393049Y-105946105D01*
X135443914Y-105951631D01*
X135450728Y-105952000D01*
X136027285Y-105952000D01*
X136042524Y-105947525D01*
X136043729Y-105946135D01*
X136045400Y-105938452D01*
X136045400Y-105933884D01*
X137045400Y-105933884D01*
X137049875Y-105949123D01*
X137051265Y-105950328D01*
X137058948Y-105951999D01*
X137640069Y-105951999D01*
X137646890Y-105951629D01*
X137697752Y-105946105D01*
X137713004Y-105942479D01*
X137833454Y-105897324D01*
X137849049Y-105888786D01*
X137951124Y-105812285D01*
X137963685Y-105799724D01*
X138031401Y-105709371D01*
X138088260Y-105666856D01*
X138159079Y-105661830D01*
X138198062Y-105677504D01*
X138371672Y-105783893D01*
X138380467Y-105788375D01*
X138597890Y-105878434D01*
X138607275Y-105881483D01*
X138836108Y-105936422D01*
X138845855Y-105937965D01*
X139080470Y-105956430D01*
X139090330Y-105956430D01*
X139324945Y-105937965D01*
X139334692Y-105936422D01*
X139563525Y-105881483D01*
X139572910Y-105878434D01*
X139761105Y-105800482D01*
X139770244Y-105793117D01*
X140939010Y-105793117D01*
X140942199Y-105797377D01*
X141137890Y-105878434D01*
X141147275Y-105881483D01*
X141376108Y-105936422D01*
X141385855Y-105937965D01*
X141620470Y-105956430D01*
X141630330Y-105956430D01*
X141864945Y-105937965D01*
X141874692Y-105936422D01*
X142103525Y-105881483D01*
X142112910Y-105878434D01*
X142301105Y-105800482D01*
X142310244Y-105793117D01*
X143479010Y-105793117D01*
X143482199Y-105797377D01*
X143677890Y-105878434D01*
X143687275Y-105881483D01*
X143916108Y-105936422D01*
X143925855Y-105937965D01*
X144160470Y-105956430D01*
X144170330Y-105956430D01*
X144404945Y-105937965D01*
X144414692Y-105936422D01*
X144643525Y-105881483D01*
X144652910Y-105878434D01*
X144841105Y-105800482D01*
X144852086Y-105791633D01*
X144850770Y-105786477D01*
X144178212Y-105113919D01*
X144164268Y-105106305D01*
X144162435Y-105106436D01*
X144155820Y-105110687D01*
X143485770Y-105780737D01*
X143479010Y-105793117D01*
X142310244Y-105793117D01*
X142312086Y-105791633D01*
X142310770Y-105786477D01*
X141638212Y-105113919D01*
X141624268Y-105106305D01*
X141622435Y-105106436D01*
X141615820Y-105110687D01*
X140945770Y-105780737D01*
X140939010Y-105793117D01*
X139770244Y-105793117D01*
X139772086Y-105791633D01*
X139770770Y-105786477D01*
X138467388Y-104483095D01*
X138433362Y-104420783D01*
X138435197Y-104395132D01*
X139797705Y-104395132D01*
X139797836Y-104396965D01*
X139802087Y-104403580D01*
X140342588Y-104944081D01*
X140356532Y-104951695D01*
X140358365Y-104951564D01*
X140364980Y-104947313D01*
X140905481Y-104406812D01*
X140911859Y-104395132D01*
X142337705Y-104395132D01*
X142337836Y-104396965D01*
X142342087Y-104403580D01*
X142882588Y-104944081D01*
X142896532Y-104951695D01*
X142898365Y-104951564D01*
X142904980Y-104947313D01*
X143445481Y-104406812D01*
X143451859Y-104395132D01*
X144877705Y-104395132D01*
X144877836Y-104396965D01*
X144882087Y-104403580D01*
X145552137Y-105073630D01*
X145564517Y-105080390D01*
X145568777Y-105077201D01*
X145649834Y-104881510D01*
X145652883Y-104872125D01*
X145707822Y-104643292D01*
X145709365Y-104633545D01*
X145727830Y-104398930D01*
X145727830Y-104389070D01*
X145709365Y-104154455D01*
X145707822Y-104144708D01*
X145652883Y-103915875D01*
X145649834Y-103906490D01*
X145571882Y-103718295D01*
X145563033Y-103707314D01*
X145557877Y-103708630D01*
X144885319Y-104381188D01*
X144877705Y-104395132D01*
X143451859Y-104395132D01*
X143453095Y-104392868D01*
X143452964Y-104391035D01*
X143448713Y-104384420D01*
X142908212Y-103843919D01*
X142894268Y-103836305D01*
X142892435Y-103836436D01*
X142885820Y-103840687D01*
X142345319Y-104381188D01*
X142337705Y-104395132D01*
X140911859Y-104395132D01*
X140913095Y-104392868D01*
X140912964Y-104391035D01*
X140908713Y-104384420D01*
X140368212Y-103843919D01*
X140354268Y-103836305D01*
X140352435Y-103836436D01*
X140345820Y-103840687D01*
X139805319Y-104381188D01*
X139797705Y-104395132D01*
X138435197Y-104395132D01*
X138438427Y-104349968D01*
X138467388Y-104304905D01*
X139765030Y-103007263D01*
X139770980Y-102996367D01*
X140938714Y-102996367D01*
X140940030Y-103001523D01*
X141612588Y-103674081D01*
X141626532Y-103681695D01*
X141628365Y-103681564D01*
X141634980Y-103677313D01*
X142305030Y-103007263D01*
X142310980Y-102996367D01*
X143478714Y-102996367D01*
X143480030Y-103001523D01*
X144152588Y-103674081D01*
X144166532Y-103681695D01*
X144168365Y-103681564D01*
X144174980Y-103677313D01*
X144845030Y-103007263D01*
X144851790Y-102994883D01*
X144848601Y-102990623D01*
X144652910Y-102909566D01*
X144643525Y-102906517D01*
X144414692Y-102851578D01*
X144404945Y-102850035D01*
X144170330Y-102831570D01*
X144160470Y-102831570D01*
X143925855Y-102850035D01*
X143916108Y-102851578D01*
X143687275Y-102906517D01*
X143677890Y-102909566D01*
X143489695Y-102987518D01*
X143478714Y-102996367D01*
X142310980Y-102996367D01*
X142311790Y-102994883D01*
X142308601Y-102990623D01*
X142112910Y-102909566D01*
X142103525Y-102906517D01*
X141874692Y-102851578D01*
X141864945Y-102850035D01*
X141630330Y-102831570D01*
X141620470Y-102831570D01*
X141385855Y-102850035D01*
X141376108Y-102851578D01*
X141147275Y-102906517D01*
X141137890Y-102909566D01*
X140949695Y-102987518D01*
X140938714Y-102996367D01*
X139770980Y-102996367D01*
X139771790Y-102994883D01*
X139768601Y-102990623D01*
X139572910Y-102909566D01*
X139563525Y-102906517D01*
X139334692Y-102851578D01*
X139324945Y-102850035D01*
X139090330Y-102831570D01*
X139080470Y-102831570D01*
X138845855Y-102850035D01*
X138836108Y-102851578D01*
X138607275Y-102906517D01*
X138597890Y-102909566D01*
X138380467Y-102999625D01*
X138371672Y-103004107D01*
X138198062Y-103110496D01*
X138129529Y-103129035D01*
X138061852Y-103107579D01*
X138031401Y-103078629D01*
X137963685Y-102988276D01*
X137951124Y-102975715D01*
X137849049Y-102899214D01*
X137833454Y-102890676D01*
X137713006Y-102845522D01*
X137697751Y-102841895D01*
X137646886Y-102836369D01*
X137640072Y-102836000D01*
X137063515Y-102836000D01*
X137048276Y-102840475D01*
X137047071Y-102841865D01*
X137045400Y-102849548D01*
X137045400Y-105933884D01*
X136045400Y-105933884D01*
X136045400Y-104912115D01*
X136040925Y-104896876D01*
X136039535Y-104895671D01*
X136031852Y-104894000D01*
X135005516Y-104894000D01*
X134990277Y-104898475D01*
X134989072Y-104899865D01*
X134987401Y-104907548D01*
X134987401Y-105488669D01*
X127028879Y-105488669D01*
X127131477Y-105401041D01*
X127135233Y-105397833D01*
X127294552Y-105211296D01*
X127331275Y-105151370D01*
X127372723Y-105083731D01*
X127422727Y-105002132D01*
X127516605Y-104775492D01*
X127541950Y-104669921D01*
X127572717Y-104541770D01*
X127572718Y-104541764D01*
X127573872Y-104536957D01*
X127593119Y-104292400D01*
X127573872Y-104047843D01*
X127557426Y-103979337D01*
X127532589Y-103875885D01*
X134987400Y-103875885D01*
X134991875Y-103891124D01*
X134993265Y-103892329D01*
X135000948Y-103894000D01*
X136027285Y-103894000D01*
X136042524Y-103889525D01*
X136043729Y-103888135D01*
X136045400Y-103880452D01*
X136045400Y-102854116D01*
X136040925Y-102838877D01*
X136039535Y-102837672D01*
X136031852Y-102836001D01*
X135450731Y-102836001D01*
X135443910Y-102836371D01*
X135393048Y-102841895D01*
X135377796Y-102845521D01*
X135257346Y-102890676D01*
X135241751Y-102899214D01*
X135139676Y-102975715D01*
X135127115Y-102988276D01*
X135050614Y-103090351D01*
X135042076Y-103105946D01*
X134996922Y-103226394D01*
X134993295Y-103241649D01*
X134987769Y-103292514D01*
X134987400Y-103299328D01*
X134987400Y-103875885D01*
X127532589Y-103875885D01*
X127517760Y-103814120D01*
X127516605Y-103809308D01*
X127511328Y-103796567D01*
X127478906Y-103718295D01*
X127422727Y-103582668D01*
X127294552Y-103373504D01*
X127249748Y-103321045D01*
X127138441Y-103190723D01*
X127135233Y-103186967D01*
X127045698Y-103110496D01*
X126952463Y-103030865D01*
X126952460Y-103030863D01*
X126948696Y-103027648D01*
X126944473Y-103025060D01*
X126944470Y-103025058D01*
X126863948Y-102975715D01*
X126739532Y-102899473D01*
X126566248Y-102827696D01*
X126517465Y-102807489D01*
X126517463Y-102807488D01*
X126512892Y-102805595D01*
X126430237Y-102785751D01*
X126279170Y-102749483D01*
X126279164Y-102749482D01*
X126274357Y-102748328D01*
X126029800Y-102729081D01*
X125785243Y-102748328D01*
X125780436Y-102749482D01*
X125780430Y-102749483D01*
X125629363Y-102785751D01*
X125546708Y-102805595D01*
X125542137Y-102807488D01*
X125542135Y-102807489D01*
X125493352Y-102827696D01*
X125320068Y-102899473D01*
X125195652Y-102975715D01*
X125115130Y-103025058D01*
X125115127Y-103025060D01*
X125110904Y-103027648D01*
X125107140Y-103030863D01*
X125107137Y-103030865D01*
X125013902Y-103110496D01*
X124924367Y-103186967D01*
X124921159Y-103190723D01*
X124855611Y-103267469D01*
X124796160Y-103306278D01*
X124725165Y-103306784D01*
X124663989Y-103267469D01*
X124598441Y-103190723D01*
X124595233Y-103186967D01*
X124505698Y-103110496D01*
X124412463Y-103030865D01*
X124412460Y-103030863D01*
X124408696Y-103027648D01*
X124404473Y-103025060D01*
X124404470Y-103025058D01*
X124323948Y-102975715D01*
X124199532Y-102899473D01*
X124026248Y-102827696D01*
X123977465Y-102807489D01*
X123977463Y-102807488D01*
X123972892Y-102805595D01*
X123890237Y-102785751D01*
X123739170Y-102749483D01*
X123739164Y-102749482D01*
X123734357Y-102748328D01*
X123489800Y-102729081D01*
X123245243Y-102748328D01*
X123240436Y-102749482D01*
X123240430Y-102749483D01*
X123089363Y-102785751D01*
X123006708Y-102805595D01*
X123002137Y-102807488D01*
X123002135Y-102807489D01*
X122953352Y-102827696D01*
X122780068Y-102899473D01*
X122655652Y-102975715D01*
X122575130Y-103025058D01*
X122575127Y-103025060D01*
X122570904Y-103027648D01*
X122567140Y-103030863D01*
X122567137Y-103030865D01*
X122473902Y-103110496D01*
X122384367Y-103186967D01*
X122381159Y-103190723D01*
X122315611Y-103267469D01*
X122256160Y-103306278D01*
X122185165Y-103306784D01*
X122123989Y-103267469D01*
X122058441Y-103190723D01*
X122055233Y-103186967D01*
X121965698Y-103110496D01*
X121872463Y-103030865D01*
X121872460Y-103030863D01*
X121868696Y-103027648D01*
X121864473Y-103025060D01*
X121864470Y-103025058D01*
X121783948Y-102975715D01*
X121659532Y-102899473D01*
X121486248Y-102827696D01*
X121437465Y-102807489D01*
X121437463Y-102807488D01*
X121432892Y-102805595D01*
X121350237Y-102785751D01*
X121199170Y-102749483D01*
X121199164Y-102749482D01*
X121194357Y-102748328D01*
X120949800Y-102729081D01*
X120705243Y-102748328D01*
X120700436Y-102749482D01*
X120700430Y-102749483D01*
X120549363Y-102785751D01*
X120466708Y-102805595D01*
X120462137Y-102807488D01*
X120462135Y-102807489D01*
X120413352Y-102827696D01*
X120240068Y-102899473D01*
X120115652Y-102975715D01*
X120062588Y-103008232D01*
X119994055Y-103026770D01*
X119926378Y-103005313D01*
X119895928Y-102976365D01*
X119872313Y-102944856D01*
X119823061Y-102879139D01*
X119706505Y-102791785D01*
X119570116Y-102740655D01*
X119507934Y-102733900D01*
X117311666Y-102733900D01*
X117249484Y-102740655D01*
X117113095Y-102791785D01*
X116996539Y-102879139D01*
X116909185Y-102995695D01*
X116858055Y-103132084D01*
X116851300Y-103194266D01*
X116851300Y-105390534D01*
X111872951Y-105390534D01*
X111873311Y-105389665D01*
X111873312Y-105389663D01*
X111875205Y-105385092D01*
X111900912Y-105278016D01*
X111931317Y-105151370D01*
X111931318Y-105151364D01*
X111932472Y-105146557D01*
X111951719Y-104902000D01*
X111932472Y-104657443D01*
X111904702Y-104541770D01*
X111876360Y-104423720D01*
X111875205Y-104418908D01*
X111781327Y-104192268D01*
X111692824Y-104047843D01*
X111655742Y-103987330D01*
X111655740Y-103987327D01*
X111653152Y-103983104D01*
X111577050Y-103894000D01*
X111497041Y-103800323D01*
X111493833Y-103796567D01*
X111413331Y-103727811D01*
X111374522Y-103668360D01*
X111374016Y-103597365D01*
X111413331Y-103536189D01*
X111490077Y-103470641D01*
X111493833Y-103467433D01*
X111543621Y-103409139D01*
X111649935Y-103284663D01*
X111649937Y-103284660D01*
X111653152Y-103280896D01*
X111677203Y-103241649D01*
X111746212Y-103129035D01*
X111781327Y-103071732D01*
X111851608Y-102902059D01*
X111873311Y-102849665D01*
X111873312Y-102849663D01*
X111875205Y-102845092D01*
X111903057Y-102729081D01*
X111931317Y-102611370D01*
X111931318Y-102611364D01*
X111932472Y-102606557D01*
X111951719Y-102362000D01*
X111932472Y-102117443D01*
X111922880Y-102077486D01*
X111876360Y-101883720D01*
X111875205Y-101878908D01*
X111857328Y-101835748D01*
X111783220Y-101656839D01*
X111781327Y-101652268D01*
X111680765Y-101488164D01*
X124692161Y-101488164D01*
X124708110Y-101650822D01*
X124710334Y-101657507D01*
X124710334Y-101657508D01*
X124733905Y-101728364D01*
X124759699Y-101805905D01*
X124763348Y-101811930D01*
X124803912Y-101878908D01*
X124844365Y-101945704D01*
X124849256Y-101950769D01*
X124849257Y-101950770D01*
X124855300Y-101957028D01*
X124957898Y-102063271D01*
X124963790Y-102067126D01*
X124963794Y-102067130D01*
X125033326Y-102112630D01*
X125094657Y-102152764D01*
X125130332Y-102166031D01*
X125241248Y-102207280D01*
X125241251Y-102207281D01*
X125247845Y-102209733D01*
X125254822Y-102210664D01*
X125402866Y-102230418D01*
X125402870Y-102230418D01*
X125409847Y-102231349D01*
X125416858Y-102230711D01*
X125416862Y-102230711D01*
X125565591Y-102217175D01*
X125572612Y-102216536D01*
X125579314Y-102214358D01*
X125579316Y-102214358D01*
X125721352Y-102168208D01*
X125721355Y-102168207D01*
X125728051Y-102166031D01*
X125809559Y-102117443D01*
X125862386Y-102085952D01*
X125862388Y-102085951D01*
X125868438Y-102082344D01*
X125986795Y-101969634D01*
X126077240Y-101833503D01*
X126115487Y-101732817D01*
X126132778Y-101687300D01*
X126132779Y-101687295D01*
X126135278Y-101680717D01*
X126139276Y-101652268D01*
X126157473Y-101522793D01*
X126157473Y-101522788D01*
X126158024Y-101518870D01*
X126158310Y-101498400D01*
X126140092Y-101335981D01*
X126086342Y-101181634D01*
X125999734Y-101043030D01*
X125994772Y-101038033D01*
X125889533Y-100932057D01*
X125889529Y-100932054D01*
X125884570Y-100927060D01*
X125868736Y-100917011D01*
X125801024Y-100874040D01*
X125746574Y-100839485D01*
X125689278Y-100819083D01*
X125599241Y-100787022D01*
X125599236Y-100787021D01*
X125592606Y-100784660D01*
X125585618Y-100783827D01*
X125585615Y-100783826D01*
X125474676Y-100770597D01*
X125430318Y-100765308D01*
X125423315Y-100766044D01*
X125423314Y-100766044D01*
X125274775Y-100781656D01*
X125274773Y-100781657D01*
X125267775Y-100782392D01*
X125186473Y-100810069D01*
X125119727Y-100832791D01*
X125119724Y-100832792D01*
X125113057Y-100835062D01*
X124973852Y-100920701D01*
X124857080Y-101035053D01*
X124768545Y-101172434D01*
X124766136Y-101179054D01*
X124766135Y-101179055D01*
X124758813Y-101199173D01*
X124712646Y-101326015D01*
X124692161Y-101488164D01*
X111680765Y-101488164D01*
X111653152Y-101443104D01*
X111590876Y-101370188D01*
X111497041Y-101260323D01*
X111493833Y-101256567D01*
X111447902Y-101217338D01*
X111311063Y-101100465D01*
X111311060Y-101100463D01*
X111307296Y-101097248D01*
X111303073Y-101094660D01*
X111303070Y-101094658D01*
X111124367Y-100985150D01*
X111098132Y-100969073D01*
X110937359Y-100902478D01*
X110876065Y-100877089D01*
X110876063Y-100877088D01*
X110871492Y-100875195D01*
X110788837Y-100855351D01*
X110637770Y-100819083D01*
X110637764Y-100819082D01*
X110632957Y-100817928D01*
X110388400Y-100798681D01*
X110143843Y-100817928D01*
X110139036Y-100819082D01*
X110139030Y-100819083D01*
X109987963Y-100855351D01*
X109905308Y-100875195D01*
X109900737Y-100877088D01*
X109900735Y-100877089D01*
X109839441Y-100902478D01*
X109678668Y-100969073D01*
X109652433Y-100985150D01*
X109473730Y-101094658D01*
X109473727Y-101094660D01*
X109469504Y-101097248D01*
X109465740Y-101100463D01*
X109465737Y-101100465D01*
X109328898Y-101217338D01*
X109282967Y-101256567D01*
X109279759Y-101260323D01*
X109185925Y-101370188D01*
X109123648Y-101443104D01*
X108995473Y-101652268D01*
X108993580Y-101656839D01*
X108919473Y-101835748D01*
X108901595Y-101878908D01*
X108900440Y-101883720D01*
X108853921Y-102077486D01*
X108844328Y-102117443D01*
X108825081Y-102362000D01*
X108844328Y-102606557D01*
X108845482Y-102611364D01*
X108845483Y-102611370D01*
X108873743Y-102729081D01*
X108901595Y-102845092D01*
X108903488Y-102849663D01*
X108903489Y-102849665D01*
X108925192Y-102902059D01*
X108995473Y-103071732D01*
X109030588Y-103129035D01*
X109099598Y-103241649D01*
X109123648Y-103280896D01*
X109126863Y-103284660D01*
X109126865Y-103284663D01*
X109233179Y-103409139D01*
X109282967Y-103467433D01*
X109286723Y-103470641D01*
X109363469Y-103536189D01*
X109402278Y-103595640D01*
X109402784Y-103666635D01*
X109363469Y-103727811D01*
X109282967Y-103796567D01*
X109279759Y-103800323D01*
X109199751Y-103894000D01*
X109123648Y-103983104D01*
X109121060Y-103987327D01*
X109121058Y-103987330D01*
X109083976Y-104047843D01*
X108995473Y-104192268D01*
X108901595Y-104418908D01*
X108900440Y-104423720D01*
X108872099Y-104541770D01*
X108844328Y-104657443D01*
X108825081Y-104902000D01*
X108844328Y-105146557D01*
X108845482Y-105151364D01*
X108845483Y-105151370D01*
X108875888Y-105278016D01*
X108901595Y-105385092D01*
X108903488Y-105389663D01*
X108903489Y-105389665D01*
X108908201Y-105401041D01*
X108995473Y-105611732D01*
X109055306Y-105709371D01*
X109109236Y-105797377D01*
X109123648Y-105820896D01*
X109126863Y-105824660D01*
X109126865Y-105824663D01*
X109230587Y-105946105D01*
X109282967Y-106007433D01*
X109286723Y-106010641D01*
X109363469Y-106076189D01*
X109402278Y-106135640D01*
X109402784Y-106206635D01*
X109363469Y-106267811D01*
X109282967Y-106336567D01*
X109123648Y-106523104D01*
X108995473Y-106732268D01*
X108901595Y-106958908D01*
X108892329Y-106997503D01*
X108855008Y-107152959D01*
X108844328Y-107197443D01*
X108825081Y-107442000D01*
X108844328Y-107686557D01*
X108845482Y-107691364D01*
X108845483Y-107691370D01*
X108870932Y-107797373D01*
X108901595Y-107925092D01*
X108903488Y-107929663D01*
X108903489Y-107929665D01*
X108924180Y-107979617D01*
X108995473Y-108151732D01*
X109123648Y-108360896D01*
X109126863Y-108364660D01*
X109126865Y-108364663D01*
X109188747Y-108437117D01*
X109282967Y-108547433D01*
X109286723Y-108550641D01*
X109363469Y-108616189D01*
X109402278Y-108675640D01*
X109402784Y-108746635D01*
X109363469Y-108807811D01*
X109327252Y-108838744D01*
X109282967Y-108876567D01*
X109279759Y-108880323D01*
X109163348Y-109016622D01*
X109123648Y-109063104D01*
X108995473Y-109272268D01*
X108901595Y-109498908D01*
X108887981Y-109555615D01*
X108845644Y-109731962D01*
X108844328Y-109737443D01*
X108825081Y-109982000D01*
X105008000Y-109982000D01*
X105008000Y-97157469D01*
X108779601Y-97157469D01*
X108779971Y-97164290D01*
X108785495Y-97215152D01*
X108789121Y-97230404D01*
X108834276Y-97350854D01*
X108842814Y-97366449D01*
X108919315Y-97468524D01*
X108931876Y-97481085D01*
X109033951Y-97557586D01*
X109049546Y-97566124D01*
X109169994Y-97611278D01*
X109185249Y-97614905D01*
X109236114Y-97620431D01*
X109242928Y-97620800D01*
X109819485Y-97620800D01*
X109834724Y-97616325D01*
X109835929Y-97614935D01*
X109837600Y-97607252D01*
X109837600Y-97602684D01*
X110837600Y-97602684D01*
X110842075Y-97617923D01*
X110843465Y-97619128D01*
X110851148Y-97620799D01*
X111432269Y-97620799D01*
X111439090Y-97620429D01*
X111489952Y-97614905D01*
X111505204Y-97611279D01*
X111625654Y-97566124D01*
X111641249Y-97557586D01*
X111743324Y-97481085D01*
X111749445Y-97474964D01*
X161725361Y-97474964D01*
X161741310Y-97637622D01*
X161743534Y-97644307D01*
X161743534Y-97644308D01*
X161767105Y-97715164D01*
X161792899Y-97792705D01*
X161877565Y-97932504D01*
X161991098Y-98050071D01*
X161996990Y-98053926D01*
X161996994Y-98053930D01*
X162080953Y-98108871D01*
X162127857Y-98139564D01*
X162158466Y-98150947D01*
X162274448Y-98194080D01*
X162274451Y-98194081D01*
X162281045Y-98196533D01*
X162288022Y-98197464D01*
X162436066Y-98217218D01*
X162436070Y-98217218D01*
X162443047Y-98218149D01*
X162450058Y-98217511D01*
X162450062Y-98217511D01*
X162598791Y-98203975D01*
X162605812Y-98203336D01*
X162612514Y-98201158D01*
X162612516Y-98201158D01*
X162754552Y-98155008D01*
X162754555Y-98155007D01*
X162761251Y-98152831D01*
X162771172Y-98146917D01*
X162895586Y-98072752D01*
X162895588Y-98072751D01*
X162901638Y-98069144D01*
X163019995Y-97956434D01*
X163110440Y-97820303D01*
X163144678Y-97730172D01*
X163165978Y-97674100D01*
X163165979Y-97674095D01*
X163168478Y-97667517D01*
X163172139Y-97641471D01*
X163190673Y-97509593D01*
X163190673Y-97509588D01*
X163191224Y-97505670D01*
X163191510Y-97485200D01*
X163173292Y-97322781D01*
X163119542Y-97168434D01*
X163032934Y-97029830D01*
X163027972Y-97024833D01*
X162922733Y-96918857D01*
X162922729Y-96918854D01*
X162917770Y-96913860D01*
X162901936Y-96903811D01*
X162794685Y-96835748D01*
X162779774Y-96826285D01*
X162755235Y-96817547D01*
X162632441Y-96773822D01*
X162632436Y-96773821D01*
X162625806Y-96771460D01*
X162618818Y-96770627D01*
X162618815Y-96770626D01*
X162507876Y-96757397D01*
X162463518Y-96752108D01*
X162456515Y-96752844D01*
X162456514Y-96752844D01*
X162307975Y-96768456D01*
X162307973Y-96768457D01*
X162300975Y-96769192D01*
X162219673Y-96796869D01*
X162152927Y-96819591D01*
X162152924Y-96819592D01*
X162146257Y-96821862D01*
X162140258Y-96825552D01*
X162140257Y-96825553D01*
X162107554Y-96845672D01*
X162007052Y-96907501D01*
X161890280Y-97021853D01*
X161801745Y-97159234D01*
X161799336Y-97165854D01*
X161799335Y-97165855D01*
X161795118Y-97177442D01*
X161745846Y-97312815D01*
X161725361Y-97474964D01*
X111749445Y-97474964D01*
X111755885Y-97468524D01*
X111832386Y-97366449D01*
X111840924Y-97350854D01*
X111886078Y-97230406D01*
X111889705Y-97215151D01*
X111895231Y-97164286D01*
X111895600Y-97157472D01*
X111895600Y-96580915D01*
X111891125Y-96565676D01*
X111889735Y-96564471D01*
X111882052Y-96562800D01*
X110855715Y-96562800D01*
X110840476Y-96567275D01*
X110839271Y-96568665D01*
X110837600Y-96576348D01*
X110837600Y-97602684D01*
X109837600Y-97602684D01*
X109837600Y-96580915D01*
X109833125Y-96565676D01*
X109831735Y-96564471D01*
X109824052Y-96562800D01*
X108797716Y-96562800D01*
X108782477Y-96567275D01*
X108781272Y-96568665D01*
X108779601Y-96576348D01*
X108779601Y-97157469D01*
X105008000Y-97157469D01*
X105008000Y-93522800D01*
X108774281Y-93522800D01*
X108793528Y-93767357D01*
X108794682Y-93772164D01*
X108794683Y-93772170D01*
X108828595Y-93913424D01*
X108850795Y-94005892D01*
X108944673Y-94232532D01*
X109047081Y-94399647D01*
X109053695Y-94410441D01*
X109072233Y-94478974D01*
X109050776Y-94546651D01*
X109021827Y-94577102D01*
X108931872Y-94644519D01*
X108919315Y-94657076D01*
X108842814Y-94759151D01*
X108834276Y-94774746D01*
X108789122Y-94895194D01*
X108785495Y-94910449D01*
X108779969Y-94961314D01*
X108779600Y-94968128D01*
X108779600Y-95544685D01*
X108784075Y-95559924D01*
X108785465Y-95561129D01*
X108793148Y-95562800D01*
X111877484Y-95562800D01*
X111892723Y-95558325D01*
X111893928Y-95556935D01*
X111895599Y-95549252D01*
X111895599Y-94968131D01*
X111895229Y-94961310D01*
X111889705Y-94910448D01*
X111886079Y-94895196D01*
X111840924Y-94774746D01*
X111832386Y-94759151D01*
X111755885Y-94657076D01*
X111743328Y-94644519D01*
X111653373Y-94577102D01*
X111610858Y-94520242D01*
X111605832Y-94449424D01*
X111621505Y-94410441D01*
X111628119Y-94399647D01*
X111730527Y-94232532D01*
X111824405Y-94005892D01*
X111846605Y-93913424D01*
X111880517Y-93772170D01*
X111880518Y-93772164D01*
X111881672Y-93767357D01*
X111900919Y-93522800D01*
X111881672Y-93278243D01*
X111824405Y-93039708D01*
X111730527Y-92813068D01*
X111602352Y-92603904D01*
X111443033Y-92417367D01*
X111370555Y-92355464D01*
X111260263Y-92261265D01*
X111260260Y-92261263D01*
X111256496Y-92258048D01*
X111252273Y-92255460D01*
X111252270Y-92255458D01*
X111231229Y-92242564D01*
X132718561Y-92242564D01*
X132734510Y-92405222D01*
X132736734Y-92411907D01*
X132736734Y-92411908D01*
X132760304Y-92482763D01*
X132786099Y-92560305D01*
X132870765Y-92700104D01*
X132984298Y-92817671D01*
X132990190Y-92821526D01*
X132990194Y-92821530D01*
X133074153Y-92876471D01*
X133121057Y-92907164D01*
X133156732Y-92920431D01*
X133267648Y-92961680D01*
X133267651Y-92961681D01*
X133274245Y-92964133D01*
X133281222Y-92965064D01*
X133429266Y-92984818D01*
X133429270Y-92984818D01*
X133436247Y-92985749D01*
X133443258Y-92985111D01*
X133443262Y-92985111D01*
X133591991Y-92971575D01*
X133599012Y-92970936D01*
X133605714Y-92968758D01*
X133605716Y-92968758D01*
X133747752Y-92922608D01*
X133747755Y-92922607D01*
X133754451Y-92920431D01*
X133783175Y-92903308D01*
X133888786Y-92840352D01*
X133888788Y-92840351D01*
X133894838Y-92836744D01*
X134013195Y-92724034D01*
X134103640Y-92587903D01*
X134117070Y-92552547D01*
X134159178Y-92441700D01*
X134159179Y-92441695D01*
X134161678Y-92435117D01*
X134164173Y-92417367D01*
X134183873Y-92277193D01*
X134183873Y-92277188D01*
X134184424Y-92273270D01*
X134184710Y-92252800D01*
X134183562Y-92242564D01*
X145875761Y-92242564D01*
X145891710Y-92405222D01*
X145893934Y-92411907D01*
X145893934Y-92411908D01*
X145917504Y-92482763D01*
X145943299Y-92560305D01*
X146027965Y-92700104D01*
X146141498Y-92817671D01*
X146147390Y-92821526D01*
X146147394Y-92821530D01*
X146231353Y-92876471D01*
X146278257Y-92907164D01*
X146313932Y-92920431D01*
X146424848Y-92961680D01*
X146424851Y-92961681D01*
X146431445Y-92964133D01*
X146438422Y-92965064D01*
X146586466Y-92984818D01*
X146586470Y-92984818D01*
X146593447Y-92985749D01*
X146600458Y-92985111D01*
X146600462Y-92985111D01*
X146749191Y-92971575D01*
X146756212Y-92970936D01*
X146762914Y-92968758D01*
X146762916Y-92968758D01*
X146904952Y-92922608D01*
X146904955Y-92922607D01*
X146911651Y-92920431D01*
X146940375Y-92903308D01*
X147045986Y-92840352D01*
X147045988Y-92840351D01*
X147052038Y-92836744D01*
X147170395Y-92724034D01*
X147260840Y-92587903D01*
X147274270Y-92552547D01*
X147316378Y-92441700D01*
X147316379Y-92441695D01*
X147318878Y-92435117D01*
X147321373Y-92417367D01*
X147341073Y-92277193D01*
X147341073Y-92277188D01*
X147341624Y-92273270D01*
X147341910Y-92252800D01*
X147328122Y-92129873D01*
X147324477Y-92097377D01*
X147324476Y-92097375D01*
X147323692Y-92090381D01*
X147269942Y-91936034D01*
X147204998Y-91832100D01*
X147187066Y-91803402D01*
X147187064Y-91803400D01*
X147183334Y-91797430D01*
X147178372Y-91792433D01*
X147073133Y-91686457D01*
X147073129Y-91686454D01*
X147068170Y-91681460D01*
X147052336Y-91671411D01*
X147001677Y-91639262D01*
X146991753Y-91632964D01*
X159685972Y-91632964D01*
X159701921Y-91795622D01*
X159704145Y-91802307D01*
X159704145Y-91802308D01*
X159727716Y-91873164D01*
X159753510Y-91950705D01*
X159838176Y-92090504D01*
X159951709Y-92208071D01*
X159957601Y-92211926D01*
X159957605Y-92211930D01*
X160041564Y-92266871D01*
X160088468Y-92297564D01*
X160124143Y-92310831D01*
X160235059Y-92352080D01*
X160235062Y-92352081D01*
X160241656Y-92354533D01*
X160248633Y-92355464D01*
X160396677Y-92375218D01*
X160396681Y-92375218D01*
X160403658Y-92376149D01*
X160410669Y-92375511D01*
X160410673Y-92375511D01*
X160559402Y-92361975D01*
X160566423Y-92361336D01*
X160573125Y-92359158D01*
X160573127Y-92359158D01*
X160715163Y-92313008D01*
X160715166Y-92313007D01*
X160721862Y-92310831D01*
X160784872Y-92273270D01*
X160856197Y-92230752D01*
X160856199Y-92230751D01*
X160862249Y-92227144D01*
X160980606Y-92114434D01*
X161071051Y-91978303D01*
X161084580Y-91942688D01*
X161126589Y-91832100D01*
X161126590Y-91832095D01*
X161129089Y-91825517D01*
X161132351Y-91802308D01*
X161151284Y-91667593D01*
X161151284Y-91667588D01*
X161151835Y-91663670D01*
X161152121Y-91643200D01*
X161140440Y-91539060D01*
X161134688Y-91487777D01*
X161134687Y-91487775D01*
X161133903Y-91480781D01*
X161080153Y-91326434D01*
X160993545Y-91187830D01*
X160988583Y-91182833D01*
X160883344Y-91076857D01*
X160883340Y-91076854D01*
X160878381Y-91071860D01*
X160862547Y-91061811D01*
X160825451Y-91038269D01*
X160740385Y-90984285D01*
X160715846Y-90975547D01*
X160593052Y-90931822D01*
X160593047Y-90931821D01*
X160586417Y-90929460D01*
X160579429Y-90928627D01*
X160579426Y-90928626D01*
X160468487Y-90915397D01*
X160424129Y-90910108D01*
X160417126Y-90910844D01*
X160417125Y-90910844D01*
X160268586Y-90926456D01*
X160268584Y-90926457D01*
X160261586Y-90927192D01*
X160180284Y-90954869D01*
X160113538Y-90977591D01*
X160113535Y-90977592D01*
X160106868Y-90979862D01*
X159967663Y-91065501D01*
X159850891Y-91179853D01*
X159762356Y-91317234D01*
X159759947Y-91323854D01*
X159759946Y-91323855D01*
X159734407Y-91394024D01*
X159706457Y-91470815D01*
X159685972Y-91632964D01*
X146991753Y-91632964D01*
X146930174Y-91593885D01*
X146905635Y-91585147D01*
X146782841Y-91541422D01*
X146782836Y-91541421D01*
X146776206Y-91539060D01*
X146769218Y-91538227D01*
X146769215Y-91538226D01*
X146658276Y-91524997D01*
X146613918Y-91519708D01*
X146606915Y-91520444D01*
X146606914Y-91520444D01*
X146458375Y-91536056D01*
X146458373Y-91536057D01*
X146451375Y-91536792D01*
X146370073Y-91564469D01*
X146303327Y-91587191D01*
X146303324Y-91587192D01*
X146296657Y-91589462D01*
X146157452Y-91675101D01*
X146040680Y-91789453D01*
X145952145Y-91926834D01*
X145949736Y-91933454D01*
X145949735Y-91933455D01*
X145945890Y-91944019D01*
X145896246Y-92080415D01*
X145875761Y-92242564D01*
X134183562Y-92242564D01*
X134170922Y-92129873D01*
X134167277Y-92097377D01*
X134167276Y-92097375D01*
X134166492Y-92090381D01*
X134112742Y-91936034D01*
X134047798Y-91832100D01*
X134029866Y-91803402D01*
X134029864Y-91803400D01*
X134026134Y-91797430D01*
X134021172Y-91792433D01*
X133915933Y-91686457D01*
X133915929Y-91686454D01*
X133910970Y-91681460D01*
X133895136Y-91671411D01*
X133844477Y-91639262D01*
X133772974Y-91593885D01*
X133748435Y-91585147D01*
X133625641Y-91541422D01*
X133625636Y-91541421D01*
X133619006Y-91539060D01*
X133612018Y-91538227D01*
X133612015Y-91538226D01*
X133501076Y-91524997D01*
X133456718Y-91519708D01*
X133449715Y-91520444D01*
X133449714Y-91520444D01*
X133301175Y-91536056D01*
X133301173Y-91536057D01*
X133294175Y-91536792D01*
X133212873Y-91564469D01*
X133146127Y-91587191D01*
X133146124Y-91587192D01*
X133139457Y-91589462D01*
X133000252Y-91675101D01*
X132883480Y-91789453D01*
X132794945Y-91926834D01*
X132792536Y-91933454D01*
X132792535Y-91933455D01*
X132788690Y-91944019D01*
X132739046Y-92080415D01*
X132718561Y-92242564D01*
X111231229Y-92242564D01*
X111166670Y-92203003D01*
X111047332Y-92129873D01*
X110902633Y-92069936D01*
X110825265Y-92037889D01*
X110825263Y-92037888D01*
X110820692Y-92035995D01*
X110738037Y-92016151D01*
X110586970Y-91979883D01*
X110586964Y-91979882D01*
X110582157Y-91978728D01*
X110337600Y-91959481D01*
X110093043Y-91978728D01*
X110088236Y-91979882D01*
X110088230Y-91979883D01*
X109937163Y-92016151D01*
X109854508Y-92035995D01*
X109849937Y-92037888D01*
X109849935Y-92037889D01*
X109772567Y-92069936D01*
X109627868Y-92129873D01*
X109508530Y-92203003D01*
X109422930Y-92255458D01*
X109422927Y-92255460D01*
X109418704Y-92258048D01*
X109414940Y-92261263D01*
X109414937Y-92261265D01*
X109304645Y-92355464D01*
X109232167Y-92417367D01*
X109072848Y-92603904D01*
X108944673Y-92813068D01*
X108850795Y-93039708D01*
X108793528Y-93278243D01*
X108774281Y-93522800D01*
X105008000Y-93522800D01*
X105008000Y-88360174D01*
X163511502Y-88360174D01*
X163520151Y-88590558D01*
X163567493Y-88816191D01*
X163652176Y-89030621D01*
X163771777Y-89227717D01*
X163775274Y-89231747D01*
X163861838Y-89331503D01*
X163922877Y-89401845D01*
X163927008Y-89405232D01*
X164097027Y-89544640D01*
X164097033Y-89544644D01*
X164101155Y-89548024D01*
X164105791Y-89550663D01*
X164105794Y-89550665D01*
X164214822Y-89612727D01*
X164301514Y-89662075D01*
X164518225Y-89740737D01*
X164523474Y-89741686D01*
X164523477Y-89741687D01*
X164741008Y-89781023D01*
X164741015Y-89781024D01*
X164745092Y-89781761D01*
X164762814Y-89782597D01*
X164767756Y-89782830D01*
X164767763Y-89782830D01*
X164769244Y-89782900D01*
X165181290Y-89782900D01*
X165248209Y-89777222D01*
X165347809Y-89768771D01*
X165347813Y-89768770D01*
X165353120Y-89768320D01*
X165358275Y-89766982D01*
X165358281Y-89766981D01*
X165571103Y-89711743D01*
X165571107Y-89711742D01*
X165576272Y-89710401D01*
X165581138Y-89708209D01*
X165581141Y-89708208D01*
X165781602Y-89617907D01*
X165786475Y-89615712D01*
X165977719Y-89486959D01*
X166144535Y-89327824D01*
X166282154Y-89142858D01*
X166386640Y-88937349D01*
X166422721Y-88821152D01*
X166453424Y-88722271D01*
X166455007Y-88717173D01*
X166455708Y-88711884D01*
X166484598Y-88493911D01*
X166484598Y-88493906D01*
X166485298Y-88488626D01*
X166476649Y-88258242D01*
X166429307Y-88032609D01*
X166419331Y-88007349D01*
X166346585Y-87823144D01*
X166346584Y-87823142D01*
X166344624Y-87818179D01*
X166296296Y-87738536D01*
X166227790Y-87625643D01*
X166225023Y-87621083D01*
X166189549Y-87580203D01*
X166077423Y-87450988D01*
X166077421Y-87450986D01*
X166073923Y-87446955D01*
X166032370Y-87412884D01*
X165899773Y-87304160D01*
X165899767Y-87304156D01*
X165895645Y-87300776D01*
X165864150Y-87282848D01*
X165814845Y-87231768D01*
X165800983Y-87162138D01*
X165826966Y-87096067D01*
X165856116Y-87068827D01*
X165932836Y-87017176D01*
X165977719Y-86986959D01*
X166008460Y-86957634D01*
X166071169Y-86897812D01*
X166144535Y-86827824D01*
X166282154Y-86642858D01*
X166296444Y-86614753D01*
X166378145Y-86454057D01*
X166386640Y-86437349D01*
X166422721Y-86321152D01*
X166453424Y-86222271D01*
X166455007Y-86217173D01*
X166455708Y-86211884D01*
X166484598Y-85993911D01*
X166484598Y-85993906D01*
X166485298Y-85988626D01*
X166476649Y-85758242D01*
X166429307Y-85532609D01*
X166344624Y-85318179D01*
X166225023Y-85121083D01*
X166138155Y-85020976D01*
X166077423Y-84950988D01*
X166077421Y-84950986D01*
X166073923Y-84946955D01*
X166032370Y-84912884D01*
X165899773Y-84804160D01*
X165899767Y-84804156D01*
X165895645Y-84800776D01*
X165864150Y-84782848D01*
X165814845Y-84731768D01*
X165800983Y-84662138D01*
X165826966Y-84596067D01*
X165856116Y-84568827D01*
X165917587Y-84527442D01*
X165977719Y-84486959D01*
X165986547Y-84478538D01*
X166055572Y-84412691D01*
X166144535Y-84327824D01*
X166282154Y-84142858D01*
X166286795Y-84133731D01*
X166382798Y-83944905D01*
X166386640Y-83937349D01*
X166389325Y-83928704D01*
X166453424Y-83722271D01*
X166455007Y-83717173D01*
X166457139Y-83701085D01*
X166484598Y-83493911D01*
X166484598Y-83493906D01*
X166485298Y-83488626D01*
X166484610Y-83470284D01*
X166476849Y-83263573D01*
X166476649Y-83258242D01*
X166429307Y-83032609D01*
X166359506Y-82855862D01*
X166346585Y-82823144D01*
X166346584Y-82823142D01*
X166344624Y-82818179D01*
X166339906Y-82810403D01*
X166252355Y-82666124D01*
X166225023Y-82621083D01*
X166138155Y-82520976D01*
X166077423Y-82450988D01*
X166077421Y-82450986D01*
X166073923Y-82446955D01*
X166038280Y-82417730D01*
X165998286Y-82359071D01*
X165996354Y-82288101D01*
X166033098Y-82227352D01*
X166051868Y-82213152D01*
X166191520Y-82126732D01*
X166197748Y-82122878D01*
X166322705Y-81997703D01*
X166329283Y-81987032D01*
X166411675Y-81853368D01*
X166411676Y-81853366D01*
X166415515Y-81847138D01*
X166450256Y-81742397D01*
X166469032Y-81685789D01*
X166469032Y-81685787D01*
X166471197Y-81679261D01*
X166474075Y-81651177D01*
X166477183Y-81620840D01*
X166481900Y-81574800D01*
X166481900Y-80274000D01*
X166470926Y-80168234D01*
X166414950Y-80000454D01*
X166321878Y-79850052D01*
X166196703Y-79725095D01*
X166190472Y-79721254D01*
X166052368Y-79636125D01*
X166052366Y-79636124D01*
X166046138Y-79632285D01*
X165885654Y-79579055D01*
X165884789Y-79578768D01*
X165884787Y-79578768D01*
X165878261Y-79576603D01*
X165871425Y-79575903D01*
X165871422Y-79575902D01*
X165828369Y-79571491D01*
X165773800Y-79565900D01*
X164223000Y-79565900D01*
X164219754Y-79566237D01*
X164219750Y-79566237D01*
X164124092Y-79576162D01*
X164124088Y-79576163D01*
X164117234Y-79576874D01*
X164110698Y-79579055D01*
X164110696Y-79579055D01*
X163978594Y-79623128D01*
X163949454Y-79632850D01*
X163799052Y-79725922D01*
X163674095Y-79851097D01*
X163581285Y-80001662D01*
X163525603Y-80169539D01*
X163514900Y-80274000D01*
X163514900Y-81574800D01*
X163515237Y-81578046D01*
X163515237Y-81578050D01*
X163523240Y-81655178D01*
X163525874Y-81680566D01*
X163528055Y-81687102D01*
X163528055Y-81687104D01*
X163552519Y-81760432D01*
X163581850Y-81848346D01*
X163674922Y-81998748D01*
X163800097Y-82123705D01*
X163945740Y-82213481D01*
X163993232Y-82266252D01*
X164004656Y-82336324D01*
X163976382Y-82401448D01*
X163966595Y-82411910D01*
X163852265Y-82520976D01*
X163714646Y-82705942D01*
X163712230Y-82710693D01*
X163712228Y-82710697D01*
X163663048Y-82807428D01*
X163610160Y-82911451D01*
X163608578Y-82916545D01*
X163608577Y-82916548D01*
X163550412Y-83103870D01*
X163541793Y-83131627D01*
X163541092Y-83136916D01*
X163512406Y-83353357D01*
X163511502Y-83360174D01*
X163520151Y-83590558D01*
X163567493Y-83816191D01*
X163569451Y-83821150D01*
X163569452Y-83821152D01*
X163649632Y-84024178D01*
X163652176Y-84030621D01*
X163654943Y-84035180D01*
X163654944Y-84035183D01*
X163714072Y-84132622D01*
X163771777Y-84227717D01*
X163775274Y-84231747D01*
X163918596Y-84396911D01*
X163922877Y-84401845D01*
X163927008Y-84405232D01*
X164097027Y-84544640D01*
X164097033Y-84544644D01*
X164101155Y-84548024D01*
X164132650Y-84565952D01*
X164181955Y-84617032D01*
X164195817Y-84686662D01*
X164169834Y-84752733D01*
X164140684Y-84779973D01*
X164019081Y-84861841D01*
X163852265Y-85020976D01*
X163714646Y-85205942D01*
X163610160Y-85411451D01*
X163608578Y-85416545D01*
X163608577Y-85416548D01*
X163546515Y-85616420D01*
X163541793Y-85631627D01*
X163541092Y-85636916D01*
X163525704Y-85753023D01*
X163511502Y-85860174D01*
X163520151Y-86090558D01*
X163567493Y-86316191D01*
X163569451Y-86321150D01*
X163569452Y-86321152D01*
X163617455Y-86442701D01*
X163652176Y-86530621D01*
X163654943Y-86535180D01*
X163654944Y-86535183D01*
X163671837Y-86563022D01*
X163771777Y-86727717D01*
X163775274Y-86731747D01*
X163890885Y-86864977D01*
X163922877Y-86901845D01*
X163927008Y-86905232D01*
X164097027Y-87044640D01*
X164097033Y-87044644D01*
X164101155Y-87048024D01*
X164132650Y-87065952D01*
X164181955Y-87117032D01*
X164195817Y-87186662D01*
X164169834Y-87252733D01*
X164140684Y-87279973D01*
X164019081Y-87361841D01*
X163852265Y-87520976D01*
X163714646Y-87705942D01*
X163712230Y-87710693D01*
X163712228Y-87710697D01*
X163691995Y-87750493D01*
X163610160Y-87911451D01*
X163608578Y-87916545D01*
X163608577Y-87916548D01*
X163546515Y-88116420D01*
X163541793Y-88131627D01*
X163541092Y-88136916D01*
X163525704Y-88253023D01*
X163511502Y-88360174D01*
X105008000Y-88360174D01*
X105008000Y-87264164D01*
X138052561Y-87264164D01*
X138068510Y-87426822D01*
X138070734Y-87433507D01*
X138070734Y-87433508D01*
X138082110Y-87467704D01*
X138120099Y-87581905D01*
X138123748Y-87587930D01*
X138174002Y-87670908D01*
X138204765Y-87721704D01*
X138209656Y-87726769D01*
X138209657Y-87726770D01*
X138222204Y-87739763D01*
X138318298Y-87839271D01*
X138324190Y-87843126D01*
X138324194Y-87843130D01*
X138408153Y-87898071D01*
X138455057Y-87928764D01*
X138490732Y-87942031D01*
X138601648Y-87983280D01*
X138601651Y-87983281D01*
X138608245Y-87985733D01*
X138615222Y-87986664D01*
X138763266Y-88006418D01*
X138763270Y-88006418D01*
X138770247Y-88007349D01*
X138777258Y-88006711D01*
X138777262Y-88006711D01*
X138925991Y-87993175D01*
X138933012Y-87992536D01*
X138939714Y-87990358D01*
X138939716Y-87990358D01*
X139081752Y-87944208D01*
X139081755Y-87944207D01*
X139088451Y-87942031D01*
X139117175Y-87924908D01*
X139222786Y-87861952D01*
X139222788Y-87861951D01*
X139228838Y-87858344D01*
X139347195Y-87745634D01*
X139437640Y-87609503D01*
X139451070Y-87574147D01*
X139493178Y-87463300D01*
X139493179Y-87463295D01*
X139495678Y-87456717D01*
X139498940Y-87433508D01*
X139517873Y-87298793D01*
X139517873Y-87298788D01*
X139518424Y-87294870D01*
X139518710Y-87274400D01*
X139507609Y-87175433D01*
X139501277Y-87118977D01*
X139501276Y-87118975D01*
X139500492Y-87111981D01*
X139465035Y-87010164D01*
X150650961Y-87010164D01*
X150666910Y-87172822D01*
X150669134Y-87179507D01*
X150669134Y-87179508D01*
X150686519Y-87231768D01*
X150718499Y-87327905D01*
X150722148Y-87333930D01*
X150792289Y-87449745D01*
X150803165Y-87467704D01*
X150916698Y-87585271D01*
X150922590Y-87589126D01*
X150922594Y-87589130D01*
X151006553Y-87644071D01*
X151053457Y-87674764D01*
X151089132Y-87688031D01*
X151200048Y-87729280D01*
X151200051Y-87729281D01*
X151206645Y-87731733D01*
X151213622Y-87732664D01*
X151361666Y-87752418D01*
X151361670Y-87752418D01*
X151368647Y-87753349D01*
X151375658Y-87752711D01*
X151375662Y-87752711D01*
X151524391Y-87739175D01*
X151531412Y-87738536D01*
X151538114Y-87736358D01*
X151538116Y-87736358D01*
X151680152Y-87690208D01*
X151680155Y-87690207D01*
X151686851Y-87688031D01*
X151715575Y-87670908D01*
X151821186Y-87607952D01*
X151821188Y-87607951D01*
X151827238Y-87604344D01*
X151945595Y-87491634D01*
X152036040Y-87355503D01*
X152060577Y-87290909D01*
X152091578Y-87209300D01*
X152091579Y-87209295D01*
X152094078Y-87202717D01*
X152096326Y-87186725D01*
X152116273Y-87044793D01*
X152116273Y-87044788D01*
X152116824Y-87040870D01*
X152117110Y-87020400D01*
X152098892Y-86857981D01*
X152045142Y-86703634D01*
X151958534Y-86565030D01*
X151951942Y-86558392D01*
X151848333Y-86454057D01*
X151848329Y-86454054D01*
X151843370Y-86449060D01*
X151832410Y-86442104D01*
X151790440Y-86415469D01*
X151705374Y-86361485D01*
X151680835Y-86352747D01*
X151558041Y-86309022D01*
X151558036Y-86309021D01*
X151551406Y-86306660D01*
X151544418Y-86305827D01*
X151544415Y-86305826D01*
X151433476Y-86292597D01*
X151389118Y-86287308D01*
X151382115Y-86288044D01*
X151382114Y-86288044D01*
X151233575Y-86303656D01*
X151233573Y-86303657D01*
X151226575Y-86304392D01*
X151177343Y-86321152D01*
X151078527Y-86354791D01*
X151078524Y-86354792D01*
X151071857Y-86357062D01*
X150932652Y-86442701D01*
X150921056Y-86454057D01*
X150831107Y-86542142D01*
X150815880Y-86557053D01*
X150727345Y-86694434D01*
X150724936Y-86701054D01*
X150724935Y-86701055D01*
X150716891Y-86723157D01*
X150671446Y-86848015D01*
X150650961Y-87010164D01*
X139465035Y-87010164D01*
X139446742Y-86957634D01*
X139378246Y-86848015D01*
X139363866Y-86825002D01*
X139363864Y-86825000D01*
X139360134Y-86819030D01*
X139355172Y-86814033D01*
X139249933Y-86708057D01*
X139249929Y-86708054D01*
X139244970Y-86703060D01*
X139229136Y-86693011D01*
X139142614Y-86638103D01*
X139106974Y-86615485D01*
X139082435Y-86606747D01*
X138959641Y-86563022D01*
X138959636Y-86563021D01*
X138953006Y-86560660D01*
X138946018Y-86559827D01*
X138946015Y-86559826D01*
X138835076Y-86546597D01*
X138790718Y-86541308D01*
X138783715Y-86542044D01*
X138783714Y-86542044D01*
X138635175Y-86557656D01*
X138635173Y-86557657D01*
X138628175Y-86558392D01*
X138546873Y-86586069D01*
X138480127Y-86608791D01*
X138480124Y-86608792D01*
X138473457Y-86611062D01*
X138334252Y-86696701D01*
X138217480Y-86811053D01*
X138128945Y-86948434D01*
X138126536Y-86955054D01*
X138126535Y-86955055D01*
X138116263Y-86983278D01*
X138073046Y-87102015D01*
X138052561Y-87264164D01*
X105008000Y-87264164D01*
X105008000Y-83816400D01*
X108815900Y-83816400D01*
X108816237Y-83819646D01*
X108816237Y-83819650D01*
X108825275Y-83906752D01*
X108826874Y-83922166D01*
X108829055Y-83928702D01*
X108829055Y-83928704D01*
X108864580Y-84035183D01*
X108882850Y-84089946D01*
X108975922Y-84240348D01*
X109101097Y-84365305D01*
X109107327Y-84369145D01*
X109107328Y-84369146D01*
X109244490Y-84453694D01*
X109251662Y-84458115D01*
X109269770Y-84464121D01*
X109413011Y-84511632D01*
X109413013Y-84511632D01*
X109419539Y-84513797D01*
X109426375Y-84514497D01*
X109426378Y-84514498D01*
X109462063Y-84518154D01*
X109524000Y-84524500D01*
X110824800Y-84524500D01*
X110828046Y-84524163D01*
X110828050Y-84524163D01*
X110923708Y-84514238D01*
X110923712Y-84514237D01*
X110930566Y-84513526D01*
X110937102Y-84511345D01*
X110937104Y-84511345D01*
X111081762Y-84463083D01*
X111098346Y-84457550D01*
X111248748Y-84364478D01*
X111373705Y-84239303D01*
X111389159Y-84214233D01*
X111439464Y-84132622D01*
X111463481Y-84093660D01*
X111516252Y-84046168D01*
X111586324Y-84034744D01*
X111651448Y-84063018D01*
X111661910Y-84072805D01*
X111703615Y-84116523D01*
X111770976Y-84187135D01*
X111955942Y-84324754D01*
X111960693Y-84327170D01*
X111960697Y-84327172D01*
X112023881Y-84359296D01*
X112161451Y-84429240D01*
X112166545Y-84430822D01*
X112166548Y-84430823D01*
X112320215Y-84478538D01*
X112381627Y-84497607D01*
X112386916Y-84498308D01*
X112604889Y-84527198D01*
X112604894Y-84527198D01*
X112610174Y-84527898D01*
X112615503Y-84527698D01*
X112615505Y-84527698D01*
X112725366Y-84523573D01*
X112840558Y-84519249D01*
X112861367Y-84514883D01*
X113004724Y-84484804D01*
X113066191Y-84471907D01*
X113071150Y-84469949D01*
X113071152Y-84469948D01*
X113275656Y-84389185D01*
X113275658Y-84389184D01*
X113280621Y-84387224D01*
X113308454Y-84370335D01*
X113473157Y-84270390D01*
X113473156Y-84270390D01*
X113477717Y-84267623D01*
X113485050Y-84261260D01*
X113647812Y-84120023D01*
X113647814Y-84120021D01*
X113651845Y-84116523D01*
X113697131Y-84061293D01*
X113794640Y-83942373D01*
X113794644Y-83942367D01*
X113798024Y-83938245D01*
X113815952Y-83906750D01*
X113867032Y-83857445D01*
X113936662Y-83843583D01*
X114002733Y-83869566D01*
X114029973Y-83898716D01*
X114111841Y-84020319D01*
X114115520Y-84024176D01*
X114115522Y-84024178D01*
X114138168Y-84047917D01*
X114270976Y-84187135D01*
X114455942Y-84324754D01*
X114460693Y-84327170D01*
X114460697Y-84327172D01*
X114523881Y-84359296D01*
X114661451Y-84429240D01*
X114666545Y-84430822D01*
X114666548Y-84430823D01*
X114820215Y-84478538D01*
X114881627Y-84497607D01*
X114886916Y-84498308D01*
X115104889Y-84527198D01*
X115104894Y-84527198D01*
X115110174Y-84527898D01*
X115115503Y-84527698D01*
X115115505Y-84527698D01*
X115225366Y-84523573D01*
X115340558Y-84519249D01*
X115361367Y-84514883D01*
X115504724Y-84484804D01*
X115566191Y-84471907D01*
X115571150Y-84469949D01*
X115571152Y-84469948D01*
X115775656Y-84389185D01*
X115775658Y-84389184D01*
X115780621Y-84387224D01*
X115808454Y-84370335D01*
X115973157Y-84270390D01*
X115973156Y-84270390D01*
X115977717Y-84267623D01*
X115985050Y-84261260D01*
X116047655Y-84206934D01*
X119701100Y-84206934D01*
X119707855Y-84269116D01*
X119758985Y-84405505D01*
X119846339Y-84522061D01*
X119962895Y-84609415D01*
X120099284Y-84660545D01*
X120161466Y-84667300D01*
X122357734Y-84667300D01*
X122419916Y-84660545D01*
X122556305Y-84609415D01*
X122672861Y-84522061D01*
X122745728Y-84424835D01*
X122802588Y-84382321D01*
X122873406Y-84377296D01*
X122912388Y-84392968D01*
X122919126Y-84397097D01*
X123089868Y-84501727D01*
X123201638Y-84548024D01*
X123311935Y-84593711D01*
X123311937Y-84593712D01*
X123316508Y-84595605D01*
X123351597Y-84604029D01*
X123550230Y-84651717D01*
X123550236Y-84651718D01*
X123555043Y-84652872D01*
X123799600Y-84672119D01*
X124044157Y-84652872D01*
X124048964Y-84651718D01*
X124048970Y-84651717D01*
X124247603Y-84604029D01*
X124282692Y-84595605D01*
X124287263Y-84593712D01*
X124287265Y-84593711D01*
X124397562Y-84548024D01*
X124509332Y-84501727D01*
X124680074Y-84397097D01*
X124714270Y-84376142D01*
X124714273Y-84376140D01*
X124718496Y-84373552D01*
X124729121Y-84364478D01*
X124901277Y-84217441D01*
X124905033Y-84214233D01*
X124961419Y-84148214D01*
X124973789Y-84133731D01*
X125033240Y-84094922D01*
X125104235Y-84094416D01*
X125165411Y-84133731D01*
X125177781Y-84148214D01*
X125234167Y-84214233D01*
X125237923Y-84217441D01*
X125410080Y-84364478D01*
X125420704Y-84373552D01*
X125424927Y-84376140D01*
X125424930Y-84376142D01*
X125459126Y-84397097D01*
X125629868Y-84501727D01*
X125741638Y-84548024D01*
X125851935Y-84593711D01*
X125851937Y-84593712D01*
X125856508Y-84595605D01*
X125891597Y-84604029D01*
X126090230Y-84651717D01*
X126090236Y-84651718D01*
X126095043Y-84652872D01*
X126339600Y-84672119D01*
X126584157Y-84652872D01*
X126588964Y-84651718D01*
X126588970Y-84651717D01*
X126787603Y-84604029D01*
X126822692Y-84595605D01*
X126827263Y-84593712D01*
X126827265Y-84593711D01*
X126937562Y-84548024D01*
X127049332Y-84501727D01*
X127220074Y-84397097D01*
X127254270Y-84376142D01*
X127254273Y-84376140D01*
X127258496Y-84373552D01*
X127269121Y-84364478D01*
X127441277Y-84217441D01*
X127445033Y-84214233D01*
X127502336Y-84147140D01*
X127601135Y-84031463D01*
X127601137Y-84031460D01*
X127604352Y-84027696D01*
X127611586Y-84015892D01*
X127659716Y-83937349D01*
X127732527Y-83818532D01*
X127821861Y-83602862D01*
X127824511Y-83596465D01*
X127824512Y-83596463D01*
X127826405Y-83591892D01*
X127852477Y-83483295D01*
X127866871Y-83423338D01*
X133647900Y-83423338D01*
X133648125Y-83425987D01*
X133662089Y-83590558D01*
X133662695Y-83597702D01*
X133664033Y-83602859D01*
X133664034Y-83602862D01*
X133719404Y-83816191D01*
X133721467Y-83824140D01*
X133723659Y-83829006D01*
X133723660Y-83829009D01*
X133790264Y-83976864D01*
X133817550Y-84037437D01*
X133820534Y-84041870D01*
X133820535Y-84041871D01*
X133833611Y-84061293D01*
X133948198Y-84231496D01*
X133951877Y-84235353D01*
X133951879Y-84235355D01*
X133984086Y-84269116D01*
X134109676Y-84400768D01*
X134297365Y-84540413D01*
X134302116Y-84542829D01*
X134302120Y-84542831D01*
X134501144Y-84644020D01*
X134505900Y-84646438D01*
X134729317Y-84715810D01*
X134734604Y-84716511D01*
X134734605Y-84716511D01*
X134955945Y-84745848D01*
X134955949Y-84745848D01*
X134961229Y-84746548D01*
X134966558Y-84746348D01*
X134966560Y-84746348D01*
X135078116Y-84742160D01*
X135195004Y-84737772D01*
X135307213Y-84714228D01*
X135418732Y-84690829D01*
X135418735Y-84690828D01*
X135423959Y-84689732D01*
X135641546Y-84603803D01*
X135703926Y-84565950D01*
X135836983Y-84485209D01*
X135836986Y-84485207D01*
X135841544Y-84482441D01*
X136018234Y-84329117D01*
X136166565Y-84148214D01*
X136169201Y-84143584D01*
X136169204Y-84143579D01*
X136187701Y-84111084D01*
X136238784Y-84061778D01*
X136308415Y-84047917D01*
X136374485Y-84073901D01*
X136401723Y-84103050D01*
X136410794Y-84116523D01*
X136488198Y-84231496D01*
X136491877Y-84235353D01*
X136491879Y-84235355D01*
X136524086Y-84269116D01*
X136649676Y-84400768D01*
X136837365Y-84540413D01*
X136842116Y-84542829D01*
X136842120Y-84542831D01*
X137041144Y-84644020D01*
X137045900Y-84646438D01*
X137269317Y-84715810D01*
X137274604Y-84716511D01*
X137274605Y-84716511D01*
X137495945Y-84745848D01*
X137495949Y-84745848D01*
X137501229Y-84746548D01*
X137506558Y-84746348D01*
X137506560Y-84746348D01*
X137618116Y-84742160D01*
X137735004Y-84737772D01*
X137847213Y-84714228D01*
X137958732Y-84690829D01*
X137958735Y-84690828D01*
X137963959Y-84689732D01*
X138181546Y-84603803D01*
X138243926Y-84565950D01*
X138376983Y-84485209D01*
X138376986Y-84485207D01*
X138381544Y-84482441D01*
X138558234Y-84329117D01*
X138706565Y-84148214D01*
X138714810Y-84133731D01*
X138727977Y-84110599D01*
X138779059Y-84061293D01*
X138848689Y-84047431D01*
X138914760Y-84073414D01*
X138941999Y-84102564D01*
X139025610Y-84226755D01*
X139032271Y-84235041D01*
X139186324Y-84396530D01*
X139194292Y-84403579D01*
X139373352Y-84536803D01*
X139382382Y-84542402D01*
X139581337Y-84643556D01*
X139589608Y-84646914D01*
X139603199Y-84647125D01*
X139606400Y-84640394D01*
X139606400Y-84630623D01*
X140606400Y-84630623D01*
X140610373Y-84644154D01*
X140615970Y-84644958D01*
X140716361Y-84605312D01*
X140725883Y-84600585D01*
X140916685Y-84484804D01*
X140925278Y-84478538D01*
X141093841Y-84332267D01*
X141101262Y-84324635D01*
X141128573Y-84291328D01*
X141187233Y-84251334D01*
X141258203Y-84249403D01*
X141318951Y-84286148D01*
X141334204Y-84308946D01*
X141334850Y-84308546D01*
X141427922Y-84458948D01*
X141433104Y-84464121D01*
X141447546Y-84478538D01*
X141553097Y-84583905D01*
X141559327Y-84587745D01*
X141559328Y-84587746D01*
X141696490Y-84672294D01*
X141703662Y-84676715D01*
X141746215Y-84690829D01*
X141865011Y-84730232D01*
X141865013Y-84730232D01*
X141871539Y-84732397D01*
X141878375Y-84733097D01*
X141878378Y-84733098D01*
X141921431Y-84737509D01*
X141976000Y-84743100D01*
X143316800Y-84743100D01*
X143320046Y-84742763D01*
X143320050Y-84742763D01*
X143415708Y-84732838D01*
X143415712Y-84732837D01*
X143422566Y-84732126D01*
X143429102Y-84729945D01*
X143429104Y-84729945D01*
X143561206Y-84685872D01*
X143590346Y-84676150D01*
X143740748Y-84583078D01*
X143865705Y-84457903D01*
X143869546Y-84451672D01*
X143954675Y-84313568D01*
X143954676Y-84313566D01*
X143958515Y-84307338D01*
X144014197Y-84139461D01*
X144016971Y-84112392D01*
X144020964Y-84073414D01*
X144024900Y-84035000D01*
X144024900Y-83423338D01*
X146957500Y-83423338D01*
X146957725Y-83425987D01*
X146971689Y-83590558D01*
X146972295Y-83597702D01*
X146973633Y-83602859D01*
X146973634Y-83602862D01*
X147029004Y-83816191D01*
X147031067Y-83824140D01*
X147033259Y-83829006D01*
X147033260Y-83829009D01*
X147099864Y-83976864D01*
X147127150Y-84037437D01*
X147130134Y-84041870D01*
X147130135Y-84041871D01*
X147143211Y-84061293D01*
X147257798Y-84231496D01*
X147261477Y-84235353D01*
X147261479Y-84235355D01*
X147293686Y-84269116D01*
X147419276Y-84400768D01*
X147606965Y-84540413D01*
X147611716Y-84542829D01*
X147611720Y-84542831D01*
X147810744Y-84644020D01*
X147815500Y-84646438D01*
X148038917Y-84715810D01*
X148044204Y-84716511D01*
X148044205Y-84716511D01*
X148265545Y-84745848D01*
X148265549Y-84745848D01*
X148270829Y-84746548D01*
X148276158Y-84746348D01*
X148276160Y-84746348D01*
X148387716Y-84742160D01*
X148504604Y-84737772D01*
X148616813Y-84714228D01*
X148728332Y-84690829D01*
X148728335Y-84690828D01*
X148733559Y-84689732D01*
X148951146Y-84603803D01*
X149013526Y-84565950D01*
X149146583Y-84485209D01*
X149146586Y-84485207D01*
X149151144Y-84482441D01*
X149327834Y-84329117D01*
X149476165Y-84148214D01*
X149478801Y-84143584D01*
X149478804Y-84143579D01*
X149497301Y-84111084D01*
X149548384Y-84061778D01*
X149618015Y-84047917D01*
X149684085Y-84073901D01*
X149711323Y-84103050D01*
X149720394Y-84116523D01*
X149797798Y-84231496D01*
X149801477Y-84235353D01*
X149801479Y-84235355D01*
X149833686Y-84269116D01*
X149959276Y-84400768D01*
X150146965Y-84540413D01*
X150151716Y-84542829D01*
X150151720Y-84542831D01*
X150350744Y-84644020D01*
X150355500Y-84646438D01*
X150578917Y-84715810D01*
X150584204Y-84716511D01*
X150584205Y-84716511D01*
X150805545Y-84745848D01*
X150805549Y-84745848D01*
X150810829Y-84746548D01*
X150816158Y-84746348D01*
X150816160Y-84746348D01*
X150927716Y-84742160D01*
X151044604Y-84737772D01*
X151156813Y-84714228D01*
X151268332Y-84690829D01*
X151268335Y-84690828D01*
X151273559Y-84689732D01*
X151491146Y-84603803D01*
X151553526Y-84565950D01*
X151686583Y-84485209D01*
X151686586Y-84485207D01*
X151691144Y-84482441D01*
X151867834Y-84329117D01*
X152016165Y-84148214D01*
X152024410Y-84133731D01*
X152037577Y-84110599D01*
X152088659Y-84061293D01*
X152158289Y-84047431D01*
X152224360Y-84073414D01*
X152251599Y-84102564D01*
X152335210Y-84226755D01*
X152341871Y-84235041D01*
X152495924Y-84396530D01*
X152503892Y-84403579D01*
X152682952Y-84536803D01*
X152691982Y-84542402D01*
X152890937Y-84643556D01*
X152899208Y-84646914D01*
X152912799Y-84647125D01*
X152916000Y-84640394D01*
X152916000Y-84630623D01*
X153916000Y-84630623D01*
X153919973Y-84644154D01*
X153925570Y-84644958D01*
X154025961Y-84605312D01*
X154035483Y-84600585D01*
X154226285Y-84484804D01*
X154234878Y-84478538D01*
X154403441Y-84332267D01*
X154410862Y-84324635D01*
X154438173Y-84291328D01*
X154496833Y-84251334D01*
X154567803Y-84249403D01*
X154628551Y-84286148D01*
X154643804Y-84308946D01*
X154644450Y-84308546D01*
X154737522Y-84458948D01*
X154742704Y-84464121D01*
X154757146Y-84478538D01*
X154862697Y-84583905D01*
X154868927Y-84587745D01*
X154868928Y-84587746D01*
X155006090Y-84672294D01*
X155013262Y-84676715D01*
X155055815Y-84690829D01*
X155174611Y-84730232D01*
X155174613Y-84730232D01*
X155181139Y-84732397D01*
X155187975Y-84733097D01*
X155187978Y-84733098D01*
X155231031Y-84737509D01*
X155285600Y-84743100D01*
X156626400Y-84743100D01*
X156629646Y-84742763D01*
X156629650Y-84742763D01*
X156725308Y-84732838D01*
X156725312Y-84732837D01*
X156732166Y-84732126D01*
X156738702Y-84729945D01*
X156738704Y-84729945D01*
X156870806Y-84685872D01*
X156899946Y-84676150D01*
X157050348Y-84583078D01*
X157175305Y-84457903D01*
X157179146Y-84451672D01*
X157264275Y-84313568D01*
X157264276Y-84313566D01*
X157268115Y-84307338D01*
X157323797Y-84139461D01*
X157326571Y-84112392D01*
X157330564Y-84073414D01*
X157334500Y-84035000D01*
X157334500Y-82244200D01*
X157331722Y-82217422D01*
X157324238Y-82145292D01*
X157324237Y-82145288D01*
X157323526Y-82138434D01*
X157319894Y-82127546D01*
X157269868Y-81977602D01*
X157267550Y-81970654D01*
X157174478Y-81820252D01*
X157049303Y-81695295D01*
X157043072Y-81691454D01*
X156904968Y-81606325D01*
X156904966Y-81606324D01*
X156898738Y-81602485D01*
X156801908Y-81570368D01*
X156737389Y-81548968D01*
X156737387Y-81548968D01*
X156730861Y-81546803D01*
X156724025Y-81546103D01*
X156724022Y-81546102D01*
X156676449Y-81541228D01*
X156626400Y-81536100D01*
X155285600Y-81536100D01*
X155282354Y-81536437D01*
X155282350Y-81536437D01*
X155186692Y-81546362D01*
X155186688Y-81546363D01*
X155179834Y-81547074D01*
X155173298Y-81549255D01*
X155173296Y-81549255D01*
X155086988Y-81578050D01*
X155012054Y-81603050D01*
X154861652Y-81696122D01*
X154736695Y-81821297D01*
X154732855Y-81827527D01*
X154732854Y-81827528D01*
X154658295Y-81948484D01*
X154643885Y-81971862D01*
X154641868Y-81970618D01*
X154602463Y-82015375D01*
X154534187Y-82034839D01*
X154466226Y-82014300D01*
X154444011Y-81995815D01*
X154336076Y-81882670D01*
X154328108Y-81875621D01*
X154149048Y-81742397D01*
X154140018Y-81736798D01*
X153941063Y-81635644D01*
X153932792Y-81632286D01*
X153919201Y-81632075D01*
X153916000Y-81638806D01*
X153916000Y-84630623D01*
X152916000Y-84630623D01*
X152916000Y-81648577D01*
X152912027Y-81635046D01*
X152906430Y-81634242D01*
X152806039Y-81673888D01*
X152796517Y-81678615D01*
X152605715Y-81794396D01*
X152597122Y-81800662D01*
X152428559Y-81946933D01*
X152421139Y-81954564D01*
X152279632Y-82127142D01*
X152273607Y-82135909D01*
X152255011Y-82168578D01*
X152203929Y-82217885D01*
X152134298Y-82231746D01*
X152068227Y-82205763D01*
X152040989Y-82176613D01*
X151996142Y-82109999D01*
X151954202Y-82047704D01*
X151949759Y-82043046D01*
X151867045Y-81956340D01*
X151792724Y-81878432D01*
X151760661Y-81854576D01*
X151609317Y-81741973D01*
X151609318Y-81741973D01*
X151605035Y-81738787D01*
X151600284Y-81736371D01*
X151600280Y-81736369D01*
X151401256Y-81635180D01*
X151401255Y-81635180D01*
X151396500Y-81632762D01*
X151173083Y-81563390D01*
X151167796Y-81562689D01*
X151167795Y-81562689D01*
X150946455Y-81533352D01*
X150946451Y-81533352D01*
X150941171Y-81532652D01*
X150935842Y-81532852D01*
X150935840Y-81532852D01*
X150840346Y-81536437D01*
X150707396Y-81541428D01*
X150643657Y-81554802D01*
X150483668Y-81588371D01*
X150483665Y-81588372D01*
X150478441Y-81589468D01*
X150260854Y-81675397D01*
X150228063Y-81695295D01*
X150065417Y-81793991D01*
X150065414Y-81793993D01*
X150060856Y-81796759D01*
X149884166Y-81950083D01*
X149735835Y-82130986D01*
X149733199Y-82135616D01*
X149733196Y-82135621D01*
X149714699Y-82168116D01*
X149663616Y-82217422D01*
X149593985Y-82231283D01*
X149527915Y-82205299D01*
X149500677Y-82176150D01*
X149461323Y-82117696D01*
X149414202Y-82047704D01*
X149409759Y-82043046D01*
X149327045Y-81956340D01*
X149252724Y-81878432D01*
X149220661Y-81854576D01*
X149069317Y-81741973D01*
X149069318Y-81741973D01*
X149065035Y-81738787D01*
X149060284Y-81736371D01*
X149060280Y-81736369D01*
X148861256Y-81635180D01*
X148861255Y-81635180D01*
X148856500Y-81632762D01*
X148633083Y-81563390D01*
X148627796Y-81562689D01*
X148627795Y-81562689D01*
X148406455Y-81533352D01*
X148406451Y-81533352D01*
X148401171Y-81532652D01*
X148395842Y-81532852D01*
X148395840Y-81532852D01*
X148300346Y-81536437D01*
X148167396Y-81541428D01*
X148103657Y-81554802D01*
X147943668Y-81588371D01*
X147943665Y-81588372D01*
X147938441Y-81589468D01*
X147720854Y-81675397D01*
X147688063Y-81695295D01*
X147525417Y-81793991D01*
X147525414Y-81793993D01*
X147520856Y-81796759D01*
X147344166Y-81950083D01*
X147195835Y-82130986D01*
X147080104Y-82334295D01*
X147000284Y-82554196D01*
X146999335Y-82559445D01*
X146999334Y-82559448D01*
X146987364Y-82625643D01*
X146958656Y-82784403D01*
X146957500Y-82808916D01*
X146957500Y-83423338D01*
X144024900Y-83423338D01*
X144024900Y-82244200D01*
X144022122Y-82217422D01*
X144014638Y-82145292D01*
X144014637Y-82145288D01*
X144013926Y-82138434D01*
X144010294Y-82127546D01*
X143960268Y-81977602D01*
X143957950Y-81970654D01*
X143864878Y-81820252D01*
X143739703Y-81695295D01*
X143733472Y-81691454D01*
X143595368Y-81606325D01*
X143595366Y-81606324D01*
X143589138Y-81602485D01*
X143492308Y-81570368D01*
X143427789Y-81548968D01*
X143427787Y-81548968D01*
X143421261Y-81546803D01*
X143414425Y-81546103D01*
X143414422Y-81546102D01*
X143366849Y-81541228D01*
X143316800Y-81536100D01*
X141976000Y-81536100D01*
X141972754Y-81536437D01*
X141972750Y-81536437D01*
X141877092Y-81546362D01*
X141877088Y-81546363D01*
X141870234Y-81547074D01*
X141863698Y-81549255D01*
X141863696Y-81549255D01*
X141777388Y-81578050D01*
X141702454Y-81603050D01*
X141552052Y-81696122D01*
X141427095Y-81821297D01*
X141423255Y-81827527D01*
X141423254Y-81827528D01*
X141348695Y-81948484D01*
X141334285Y-81971862D01*
X141332268Y-81970618D01*
X141292863Y-82015375D01*
X141224587Y-82034839D01*
X141156626Y-82014300D01*
X141134411Y-81995815D01*
X141026476Y-81882670D01*
X141018508Y-81875621D01*
X140839448Y-81742397D01*
X140830418Y-81736798D01*
X140631463Y-81635644D01*
X140623192Y-81632286D01*
X140609601Y-81632075D01*
X140606400Y-81638806D01*
X140606400Y-84630623D01*
X139606400Y-84630623D01*
X139606400Y-81648577D01*
X139602427Y-81635046D01*
X139596830Y-81634242D01*
X139496439Y-81673888D01*
X139486917Y-81678615D01*
X139296115Y-81794396D01*
X139287522Y-81800662D01*
X139118959Y-81946933D01*
X139111539Y-81954564D01*
X138970032Y-82127142D01*
X138964007Y-82135909D01*
X138945411Y-82168578D01*
X138894329Y-82217885D01*
X138824698Y-82231746D01*
X138758627Y-82205763D01*
X138731389Y-82176613D01*
X138686542Y-82109999D01*
X138644602Y-82047704D01*
X138640159Y-82043046D01*
X138557445Y-81956340D01*
X138483124Y-81878432D01*
X138451061Y-81854576D01*
X138299717Y-81741973D01*
X138299718Y-81741973D01*
X138295435Y-81738787D01*
X138290684Y-81736371D01*
X138290680Y-81736369D01*
X138091656Y-81635180D01*
X138091655Y-81635180D01*
X138086900Y-81632762D01*
X137863483Y-81563390D01*
X137858196Y-81562689D01*
X137858195Y-81562689D01*
X137636855Y-81533352D01*
X137636851Y-81533352D01*
X137631571Y-81532652D01*
X137626242Y-81532852D01*
X137626240Y-81532852D01*
X137530746Y-81536437D01*
X137397796Y-81541428D01*
X137334057Y-81554802D01*
X137174068Y-81588371D01*
X137174065Y-81588372D01*
X137168841Y-81589468D01*
X136951254Y-81675397D01*
X136918463Y-81695295D01*
X136755817Y-81793991D01*
X136755814Y-81793993D01*
X136751256Y-81796759D01*
X136574566Y-81950083D01*
X136426235Y-82130986D01*
X136423599Y-82135616D01*
X136423596Y-82135621D01*
X136405099Y-82168116D01*
X136354016Y-82217422D01*
X136284385Y-82231283D01*
X136218315Y-82205299D01*
X136191077Y-82176150D01*
X136151723Y-82117696D01*
X136104602Y-82047704D01*
X136100159Y-82043046D01*
X136017445Y-81956340D01*
X135943124Y-81878432D01*
X135911061Y-81854576D01*
X135759717Y-81741973D01*
X135759718Y-81741973D01*
X135755435Y-81738787D01*
X135750684Y-81736371D01*
X135750680Y-81736369D01*
X135551656Y-81635180D01*
X135551655Y-81635180D01*
X135546900Y-81632762D01*
X135323483Y-81563390D01*
X135318196Y-81562689D01*
X135318195Y-81562689D01*
X135096855Y-81533352D01*
X135096851Y-81533352D01*
X135091571Y-81532652D01*
X135086242Y-81532852D01*
X135086240Y-81532852D01*
X134990746Y-81536437D01*
X134857796Y-81541428D01*
X134794057Y-81554802D01*
X134634068Y-81588371D01*
X134634065Y-81588372D01*
X134628841Y-81589468D01*
X134411254Y-81675397D01*
X134378463Y-81695295D01*
X134215817Y-81793991D01*
X134215814Y-81793993D01*
X134211256Y-81796759D01*
X134034566Y-81950083D01*
X133886235Y-82130986D01*
X133770504Y-82334295D01*
X133690684Y-82554196D01*
X133689735Y-82559445D01*
X133689734Y-82559448D01*
X133677764Y-82625643D01*
X133649056Y-82784403D01*
X133647900Y-82808916D01*
X133647900Y-83423338D01*
X127866871Y-83423338D01*
X127882517Y-83358170D01*
X127882518Y-83358164D01*
X127883672Y-83353357D01*
X127902919Y-83108800D01*
X127883672Y-82864243D01*
X127870747Y-82810403D01*
X127827560Y-82630520D01*
X127826405Y-82625708D01*
X127732527Y-82399068D01*
X127620313Y-82215950D01*
X127606942Y-82194130D01*
X127606940Y-82194127D01*
X127604352Y-82189904D01*
X127593001Y-82176613D01*
X127448241Y-82007123D01*
X127445033Y-82003367D01*
X127378958Y-81946933D01*
X127262263Y-81847265D01*
X127262260Y-81847263D01*
X127258496Y-81844048D01*
X127254273Y-81841460D01*
X127254270Y-81841458D01*
X127112901Y-81754828D01*
X127049332Y-81715873D01*
X126863277Y-81638806D01*
X126827265Y-81623889D01*
X126827263Y-81623888D01*
X126822692Y-81621995D01*
X126731830Y-81600181D01*
X126588970Y-81565883D01*
X126588964Y-81565882D01*
X126584157Y-81564728D01*
X126339600Y-81545481D01*
X126095043Y-81564728D01*
X126090236Y-81565882D01*
X126090230Y-81565883D01*
X125947370Y-81600181D01*
X125856508Y-81621995D01*
X125851937Y-81623888D01*
X125851935Y-81623889D01*
X125815923Y-81638806D01*
X125629868Y-81715873D01*
X125566299Y-81754828D01*
X125424930Y-81841458D01*
X125424927Y-81841460D01*
X125420704Y-81844048D01*
X125416940Y-81847263D01*
X125416937Y-81847265D01*
X125300242Y-81946933D01*
X125234167Y-82003367D01*
X125230959Y-82007123D01*
X125165411Y-82083869D01*
X125105960Y-82122678D01*
X125034965Y-82123184D01*
X124973789Y-82083869D01*
X124908241Y-82007123D01*
X124905033Y-82003367D01*
X124838958Y-81946933D01*
X124722263Y-81847265D01*
X124722260Y-81847263D01*
X124718496Y-81844048D01*
X124714273Y-81841460D01*
X124714270Y-81841458D01*
X124572901Y-81754828D01*
X124509332Y-81715873D01*
X124323277Y-81638806D01*
X124287265Y-81623889D01*
X124287263Y-81623888D01*
X124282692Y-81621995D01*
X124191830Y-81600181D01*
X124048970Y-81565883D01*
X124048964Y-81565882D01*
X124044157Y-81564728D01*
X123799600Y-81545481D01*
X123555043Y-81564728D01*
X123550236Y-81565882D01*
X123550230Y-81565883D01*
X123407370Y-81600181D01*
X123316508Y-81621995D01*
X123311937Y-81623888D01*
X123311935Y-81623889D01*
X123275923Y-81638806D01*
X123089868Y-81715873D01*
X123026299Y-81754828D01*
X122912388Y-81824632D01*
X122843855Y-81843170D01*
X122776178Y-81821713D01*
X122745728Y-81792765D01*
X122740518Y-81785813D01*
X122672861Y-81695539D01*
X122556305Y-81608185D01*
X122419916Y-81557055D01*
X122357734Y-81550300D01*
X120161466Y-81550300D01*
X120099284Y-81557055D01*
X119962895Y-81608185D01*
X119846339Y-81695539D01*
X119758985Y-81812095D01*
X119707855Y-81948484D01*
X119701100Y-82010666D01*
X119701100Y-84206934D01*
X116047655Y-84206934D01*
X116147812Y-84120023D01*
X116147814Y-84120021D01*
X116151845Y-84116523D01*
X116197131Y-84061293D01*
X116294640Y-83942373D01*
X116294644Y-83942367D01*
X116298024Y-83938245D01*
X116301436Y-83932252D01*
X116409432Y-83742529D01*
X116412075Y-83737886D01*
X116490737Y-83521175D01*
X116520213Y-83358170D01*
X116531023Y-83298392D01*
X116531024Y-83298385D01*
X116531761Y-83294308D01*
X116532900Y-83270156D01*
X116532900Y-82858110D01*
X116520392Y-82710697D01*
X116518771Y-82691591D01*
X116518770Y-82691587D01*
X116518320Y-82686280D01*
X116516982Y-82681125D01*
X116516981Y-82681119D01*
X116461743Y-82468297D01*
X116461742Y-82468293D01*
X116460401Y-82463128D01*
X116454933Y-82450988D01*
X116387267Y-82300776D01*
X116365712Y-82252925D01*
X116236959Y-82061681D01*
X116219945Y-82043845D01*
X116149125Y-81969608D01*
X116077824Y-81894865D01*
X115892858Y-81757246D01*
X115888107Y-81754830D01*
X115888103Y-81754828D01*
X115766131Y-81692815D01*
X115687349Y-81652760D01*
X115682255Y-81651178D01*
X115682252Y-81651177D01*
X115472271Y-81585976D01*
X115467173Y-81584393D01*
X115461884Y-81583692D01*
X115243911Y-81554802D01*
X115243906Y-81554802D01*
X115238626Y-81554102D01*
X115233297Y-81554302D01*
X115233295Y-81554302D01*
X115123434Y-81558426D01*
X115008242Y-81562751D01*
X115003023Y-81563846D01*
X114980966Y-81568474D01*
X114782609Y-81610093D01*
X114777650Y-81612051D01*
X114777648Y-81612052D01*
X114573144Y-81692815D01*
X114573142Y-81692816D01*
X114568179Y-81694776D01*
X114563620Y-81697543D01*
X114563617Y-81697544D01*
X114465232Y-81757246D01*
X114371083Y-81814377D01*
X114367053Y-81817874D01*
X114207485Y-81956340D01*
X114196955Y-81965477D01*
X114193568Y-81969608D01*
X114054160Y-82139627D01*
X114054156Y-82139633D01*
X114050776Y-82143755D01*
X114032848Y-82175250D01*
X113981768Y-82224555D01*
X113912138Y-82238417D01*
X113846067Y-82212434D01*
X113818827Y-82183284D01*
X113786738Y-82135621D01*
X113736959Y-82061681D01*
X113719945Y-82043845D01*
X113649125Y-81969608D01*
X113577824Y-81894865D01*
X113392858Y-81757246D01*
X113388107Y-81754830D01*
X113388103Y-81754828D01*
X113266131Y-81692815D01*
X113187349Y-81652760D01*
X113182255Y-81651178D01*
X113182252Y-81651177D01*
X112972271Y-81585976D01*
X112967173Y-81584393D01*
X112961884Y-81583692D01*
X112743911Y-81554802D01*
X112743906Y-81554802D01*
X112738626Y-81554102D01*
X112733297Y-81554302D01*
X112733295Y-81554302D01*
X112623434Y-81558426D01*
X112508242Y-81562751D01*
X112503023Y-81563846D01*
X112480966Y-81568474D01*
X112282609Y-81610093D01*
X112277650Y-81612051D01*
X112277648Y-81612052D01*
X112073144Y-81692815D01*
X112073142Y-81692816D01*
X112068179Y-81694776D01*
X112063620Y-81697543D01*
X112063617Y-81697544D01*
X111965232Y-81757246D01*
X111871083Y-81814377D01*
X111867053Y-81817874D01*
X111707485Y-81956340D01*
X111696955Y-81965477D01*
X111667730Y-82001120D01*
X111609071Y-82041114D01*
X111538101Y-82043046D01*
X111477352Y-82006302D01*
X111463152Y-81987532D01*
X111376732Y-81847880D01*
X111372878Y-81841652D01*
X111352488Y-81821297D01*
X111252883Y-81721866D01*
X111247703Y-81716695D01*
X111225027Y-81702717D01*
X111103368Y-81627725D01*
X111103366Y-81627724D01*
X111097138Y-81623885D01*
X110999292Y-81591431D01*
X110935789Y-81570368D01*
X110935787Y-81570368D01*
X110929261Y-81568203D01*
X110922425Y-81567503D01*
X110922422Y-81567502D01*
X110879369Y-81563091D01*
X110824800Y-81557500D01*
X109524000Y-81557500D01*
X109520754Y-81557837D01*
X109520750Y-81557837D01*
X109425092Y-81567762D01*
X109425088Y-81567763D01*
X109418234Y-81568474D01*
X109411698Y-81570655D01*
X109411696Y-81570655D01*
X109299206Y-81608185D01*
X109250454Y-81624450D01*
X109100052Y-81717522D01*
X108975095Y-81842697D01*
X108971255Y-81848927D01*
X108971254Y-81848928D01*
X108896866Y-81969608D01*
X108882285Y-81993262D01*
X108862759Y-82052131D01*
X108830832Y-82148390D01*
X108826603Y-82161139D01*
X108825903Y-82167975D01*
X108825902Y-82167978D01*
X108824334Y-82183284D01*
X108815900Y-82265600D01*
X108815900Y-83816400D01*
X105008000Y-83816400D01*
X105008000Y-78678964D01*
X134191761Y-78678964D01*
X134207710Y-78841622D01*
X134209934Y-78848307D01*
X134209934Y-78848308D01*
X134233504Y-78919163D01*
X134259299Y-78996705D01*
X134343965Y-79136504D01*
X134457498Y-79254071D01*
X134463390Y-79257926D01*
X134463394Y-79257930D01*
X134547353Y-79312871D01*
X134594257Y-79343564D01*
X134629932Y-79356831D01*
X134740848Y-79398080D01*
X134740851Y-79398081D01*
X134747445Y-79400533D01*
X134754422Y-79401464D01*
X134902466Y-79421218D01*
X134902470Y-79421218D01*
X134909447Y-79422149D01*
X134916458Y-79421511D01*
X134916462Y-79421511D01*
X135065191Y-79407975D01*
X135072212Y-79407336D01*
X135078914Y-79405158D01*
X135078916Y-79405158D01*
X135220952Y-79359008D01*
X135220955Y-79359007D01*
X135227651Y-79356831D01*
X135256375Y-79339708D01*
X135361986Y-79276752D01*
X135361988Y-79276751D01*
X135368038Y-79273144D01*
X135486395Y-79160434D01*
X135576840Y-79024303D01*
X135590270Y-78988947D01*
X135632378Y-78878100D01*
X135632379Y-78878095D01*
X135634878Y-78871517D01*
X135639064Y-78841733D01*
X135657073Y-78713593D01*
X135657073Y-78713588D01*
X135657624Y-78709670D01*
X135657910Y-78689200D01*
X135648088Y-78601634D01*
X135640477Y-78533777D01*
X135640476Y-78533775D01*
X135639692Y-78526781D01*
X135585942Y-78372434D01*
X135528574Y-78280624D01*
X135503066Y-78239802D01*
X135503064Y-78239800D01*
X135499334Y-78233830D01*
X135494372Y-78228833D01*
X135389133Y-78122857D01*
X135389129Y-78122854D01*
X135386458Y-78120164D01*
X148669761Y-78120164D01*
X148685710Y-78282822D01*
X148687934Y-78289507D01*
X148687934Y-78289508D01*
X148710490Y-78357313D01*
X148737299Y-78437905D01*
X148740948Y-78443930D01*
X148795362Y-78533777D01*
X148821965Y-78577704D01*
X148935498Y-78695271D01*
X148941390Y-78699126D01*
X148941394Y-78699130D01*
X149025353Y-78754071D01*
X149072257Y-78784764D01*
X149107932Y-78798031D01*
X149218848Y-78839280D01*
X149218851Y-78839281D01*
X149225445Y-78841733D01*
X149232422Y-78842664D01*
X149380466Y-78862418D01*
X149380470Y-78862418D01*
X149387447Y-78863349D01*
X149394458Y-78862711D01*
X149394462Y-78862711D01*
X149543191Y-78849175D01*
X149550212Y-78848536D01*
X149556914Y-78846358D01*
X149556916Y-78846358D01*
X149698952Y-78800208D01*
X149698955Y-78800207D01*
X149705651Y-78798031D01*
X149734375Y-78780908D01*
X149839986Y-78717952D01*
X149839988Y-78717951D01*
X149846038Y-78714344D01*
X149964395Y-78601634D01*
X150054840Y-78465503D01*
X150090194Y-78372434D01*
X150110378Y-78319300D01*
X150110379Y-78319295D01*
X150112878Y-78312717D01*
X150116140Y-78289508D01*
X150135073Y-78154793D01*
X150135073Y-78154788D01*
X150135624Y-78150870D01*
X150135910Y-78130400D01*
X150125104Y-78034064D01*
X150118477Y-77974977D01*
X150118476Y-77974975D01*
X150117692Y-77967981D01*
X150063942Y-77813634D01*
X149977334Y-77675030D01*
X149972372Y-77670033D01*
X149867133Y-77564057D01*
X149867129Y-77564054D01*
X149862170Y-77559060D01*
X149846336Y-77549011D01*
X149809240Y-77525469D01*
X149724174Y-77471485D01*
X149699635Y-77462747D01*
X149576841Y-77419022D01*
X149576836Y-77419021D01*
X149570206Y-77416660D01*
X149563218Y-77415827D01*
X149563215Y-77415826D01*
X149452276Y-77402597D01*
X149407918Y-77397308D01*
X149400915Y-77398044D01*
X149400914Y-77398044D01*
X149252375Y-77413656D01*
X149252373Y-77413657D01*
X149245375Y-77414392D01*
X149164073Y-77442069D01*
X149097327Y-77464791D01*
X149097324Y-77464792D01*
X149090657Y-77467062D01*
X148951452Y-77552701D01*
X148834680Y-77667053D01*
X148746145Y-77804434D01*
X148743736Y-77811054D01*
X148743735Y-77811055D01*
X148718196Y-77881224D01*
X148690246Y-77958015D01*
X148669761Y-78120164D01*
X135386458Y-78120164D01*
X135384170Y-78117860D01*
X135368336Y-78107811D01*
X135331240Y-78084269D01*
X135246174Y-78030285D01*
X135221635Y-78021547D01*
X135098841Y-77977822D01*
X135098836Y-77977821D01*
X135092206Y-77975460D01*
X135085218Y-77974627D01*
X135085215Y-77974626D01*
X134945910Y-77958015D01*
X134929918Y-77956108D01*
X134922915Y-77956844D01*
X134922914Y-77956844D01*
X134774375Y-77972456D01*
X134774373Y-77972457D01*
X134767375Y-77973192D01*
X134686073Y-78000869D01*
X134619327Y-78023591D01*
X134619324Y-78023592D01*
X134612657Y-78025862D01*
X134473452Y-78111501D01*
X134356680Y-78225853D01*
X134268145Y-78363234D01*
X134265736Y-78369854D01*
X134265735Y-78369855D01*
X134243400Y-78431219D01*
X134212246Y-78516815D01*
X134191761Y-78678964D01*
X105008000Y-78678964D01*
X105008000Y-76448134D01*
X111441500Y-76448134D01*
X111448255Y-76510316D01*
X111499385Y-76646705D01*
X111586739Y-76763261D01*
X111703295Y-76850615D01*
X111839684Y-76901745D01*
X111901866Y-76908500D01*
X113698134Y-76908500D01*
X113760316Y-76901745D01*
X113896705Y-76850615D01*
X114013261Y-76763261D01*
X114100615Y-76646705D01*
X114122799Y-76587529D01*
X114144598Y-76529382D01*
X114187240Y-76472618D01*
X114253802Y-76447918D01*
X114323150Y-76463126D01*
X114357817Y-76491114D01*
X114386250Y-76523938D01*
X114558126Y-76666632D01*
X114751000Y-76779338D01*
X114959692Y-76859030D01*
X114964760Y-76860061D01*
X114964763Y-76860062D01*
X115072017Y-76881883D01*
X115178597Y-76903567D01*
X115183772Y-76903757D01*
X115183774Y-76903757D01*
X115396673Y-76911564D01*
X115396677Y-76911564D01*
X115401837Y-76911753D01*
X115406957Y-76911097D01*
X115406959Y-76911097D01*
X115618288Y-76884025D01*
X115618289Y-76884025D01*
X115623416Y-76883368D01*
X115628366Y-76881883D01*
X115832429Y-76820661D01*
X115832434Y-76820659D01*
X115837384Y-76819174D01*
X116037994Y-76720896D01*
X116219860Y-76591173D01*
X116378096Y-76433489D01*
X116508453Y-76252077D01*
X116509776Y-76253028D01*
X116556645Y-76209857D01*
X116626580Y-76197625D01*
X116692026Y-76225144D01*
X116719875Y-76256994D01*
X116779987Y-76355088D01*
X116926250Y-76523938D01*
X117098126Y-76666632D01*
X117291000Y-76779338D01*
X117499692Y-76859030D01*
X117504760Y-76860061D01*
X117504763Y-76860062D01*
X117612017Y-76881883D01*
X117718597Y-76903567D01*
X117723772Y-76903757D01*
X117723774Y-76903757D01*
X117936673Y-76911564D01*
X117936677Y-76911564D01*
X117941837Y-76911753D01*
X117946957Y-76911097D01*
X117946959Y-76911097D01*
X118158288Y-76884025D01*
X118158289Y-76884025D01*
X118163416Y-76883368D01*
X118168366Y-76881883D01*
X118372429Y-76820661D01*
X118372434Y-76820659D01*
X118377384Y-76819174D01*
X118577994Y-76720896D01*
X118759860Y-76591173D01*
X118918096Y-76433489D01*
X119048453Y-76252077D01*
X119049776Y-76253028D01*
X119096645Y-76209857D01*
X119166580Y-76197625D01*
X119232026Y-76225144D01*
X119259875Y-76256994D01*
X119319987Y-76355088D01*
X119466250Y-76523938D01*
X119638126Y-76666632D01*
X119831000Y-76779338D01*
X120039692Y-76859030D01*
X120044760Y-76860061D01*
X120044763Y-76860062D01*
X120152017Y-76881883D01*
X120258597Y-76903567D01*
X120263772Y-76903757D01*
X120263774Y-76903757D01*
X120476673Y-76911564D01*
X120476677Y-76911564D01*
X120481837Y-76911753D01*
X120486957Y-76911097D01*
X120486959Y-76911097D01*
X120698288Y-76884025D01*
X120698289Y-76884025D01*
X120703416Y-76883368D01*
X120708366Y-76881883D01*
X120912429Y-76820661D01*
X120912434Y-76820659D01*
X120917384Y-76819174D01*
X121117994Y-76720896D01*
X121299860Y-76591173D01*
X121458096Y-76433489D01*
X121588453Y-76252077D01*
X121589776Y-76253028D01*
X121636645Y-76209857D01*
X121706580Y-76197625D01*
X121772026Y-76225144D01*
X121799875Y-76256994D01*
X121859987Y-76355088D01*
X122006250Y-76523938D01*
X122178126Y-76666632D01*
X122371000Y-76779338D01*
X122579692Y-76859030D01*
X122584760Y-76860061D01*
X122584763Y-76860062D01*
X122692017Y-76881883D01*
X122798597Y-76903567D01*
X122803772Y-76903757D01*
X122803774Y-76903757D01*
X123016673Y-76911564D01*
X123016677Y-76911564D01*
X123021837Y-76911753D01*
X123026957Y-76911097D01*
X123026959Y-76911097D01*
X123238288Y-76884025D01*
X123238289Y-76884025D01*
X123243416Y-76883368D01*
X123248366Y-76881883D01*
X123452429Y-76820661D01*
X123452434Y-76820659D01*
X123457384Y-76819174D01*
X123657994Y-76720896D01*
X123839860Y-76591173D01*
X123998096Y-76433489D01*
X124128453Y-76252077D01*
X124129776Y-76253028D01*
X124176645Y-76209857D01*
X124246580Y-76197625D01*
X124312026Y-76225144D01*
X124339875Y-76256994D01*
X124399987Y-76355088D01*
X124546250Y-76523938D01*
X124718126Y-76666632D01*
X124911000Y-76779338D01*
X125119692Y-76859030D01*
X125124760Y-76860061D01*
X125124763Y-76860062D01*
X125232017Y-76881883D01*
X125338597Y-76903567D01*
X125343772Y-76903757D01*
X125343774Y-76903757D01*
X125556673Y-76911564D01*
X125556677Y-76911564D01*
X125561837Y-76911753D01*
X125566957Y-76911097D01*
X125566959Y-76911097D01*
X125778288Y-76884025D01*
X125778289Y-76884025D01*
X125783416Y-76883368D01*
X125788366Y-76881883D01*
X125992429Y-76820661D01*
X125992434Y-76820659D01*
X125997384Y-76819174D01*
X126197994Y-76720896D01*
X126379860Y-76591173D01*
X126538096Y-76433489D01*
X126668453Y-76252077D01*
X126669776Y-76253028D01*
X126716645Y-76209857D01*
X126786580Y-76197625D01*
X126852026Y-76225144D01*
X126879875Y-76256994D01*
X126939987Y-76355088D01*
X127086250Y-76523938D01*
X127258126Y-76666632D01*
X127451000Y-76779338D01*
X127659692Y-76859030D01*
X127664760Y-76860061D01*
X127664763Y-76860062D01*
X127772017Y-76881883D01*
X127878597Y-76903567D01*
X127883772Y-76903757D01*
X127883774Y-76903757D01*
X128096673Y-76911564D01*
X128096677Y-76911564D01*
X128101837Y-76911753D01*
X128106957Y-76911097D01*
X128106959Y-76911097D01*
X128318288Y-76884025D01*
X128318289Y-76884025D01*
X128323416Y-76883368D01*
X128328366Y-76881883D01*
X128532429Y-76820661D01*
X128532434Y-76820659D01*
X128537384Y-76819174D01*
X128737994Y-76720896D01*
X128919860Y-76591173D01*
X129078096Y-76433489D01*
X129208453Y-76252077D01*
X129209776Y-76253028D01*
X129256645Y-76209857D01*
X129326580Y-76197625D01*
X129392026Y-76225144D01*
X129419875Y-76256994D01*
X129479987Y-76355088D01*
X129626250Y-76523938D01*
X129798126Y-76666632D01*
X129991000Y-76779338D01*
X130199692Y-76859030D01*
X130204760Y-76860061D01*
X130204763Y-76860062D01*
X130312017Y-76881883D01*
X130418597Y-76903567D01*
X130423772Y-76903757D01*
X130423774Y-76903757D01*
X130636673Y-76911564D01*
X130636677Y-76911564D01*
X130641837Y-76911753D01*
X130646957Y-76911097D01*
X130646959Y-76911097D01*
X130858288Y-76884025D01*
X130858289Y-76884025D01*
X130863416Y-76883368D01*
X130868366Y-76881883D01*
X131072429Y-76820661D01*
X131072434Y-76820659D01*
X131077384Y-76819174D01*
X131277994Y-76720896D01*
X131459860Y-76591173D01*
X131618096Y-76433489D01*
X131748453Y-76252077D01*
X131749776Y-76253028D01*
X131796645Y-76209857D01*
X131866580Y-76197625D01*
X131932026Y-76225144D01*
X131959875Y-76256994D01*
X132019987Y-76355088D01*
X132166250Y-76523938D01*
X132338126Y-76666632D01*
X132531000Y-76779338D01*
X132739692Y-76859030D01*
X132744760Y-76860061D01*
X132744763Y-76860062D01*
X132852017Y-76881883D01*
X132958597Y-76903567D01*
X132963772Y-76903757D01*
X132963774Y-76903757D01*
X133176673Y-76911564D01*
X133176677Y-76911564D01*
X133181837Y-76911753D01*
X133186957Y-76911097D01*
X133186959Y-76911097D01*
X133398288Y-76884025D01*
X133398289Y-76884025D01*
X133403416Y-76883368D01*
X133408366Y-76881883D01*
X133612429Y-76820661D01*
X133612434Y-76820659D01*
X133617384Y-76819174D01*
X133817994Y-76720896D01*
X133999860Y-76591173D01*
X134158096Y-76433489D01*
X134288453Y-76252077D01*
X134289776Y-76253028D01*
X134336645Y-76209857D01*
X134406580Y-76197625D01*
X134472026Y-76225144D01*
X134499875Y-76256994D01*
X134559987Y-76355088D01*
X134706250Y-76523938D01*
X134878126Y-76666632D01*
X135071000Y-76779338D01*
X135279692Y-76859030D01*
X135284760Y-76860061D01*
X135284763Y-76860062D01*
X135392017Y-76881883D01*
X135498597Y-76903567D01*
X135503772Y-76903757D01*
X135503774Y-76903757D01*
X135716673Y-76911564D01*
X135716677Y-76911564D01*
X135721837Y-76911753D01*
X135726957Y-76911097D01*
X135726959Y-76911097D01*
X135938288Y-76884025D01*
X135938289Y-76884025D01*
X135943416Y-76883368D01*
X135948366Y-76881883D01*
X136152429Y-76820661D01*
X136152434Y-76820659D01*
X136157384Y-76819174D01*
X136357994Y-76720896D01*
X136539860Y-76591173D01*
X136698096Y-76433489D01*
X136828453Y-76252077D01*
X136829776Y-76253028D01*
X136876645Y-76209857D01*
X136946580Y-76197625D01*
X137012026Y-76225144D01*
X137039875Y-76256994D01*
X137099987Y-76355088D01*
X137246250Y-76523938D01*
X137418126Y-76666632D01*
X137611000Y-76779338D01*
X137819692Y-76859030D01*
X137824760Y-76860061D01*
X137824763Y-76860062D01*
X137932017Y-76881883D01*
X138038597Y-76903567D01*
X138043772Y-76903757D01*
X138043774Y-76903757D01*
X138256673Y-76911564D01*
X138256677Y-76911564D01*
X138261837Y-76911753D01*
X138266957Y-76911097D01*
X138266959Y-76911097D01*
X138478288Y-76884025D01*
X138478289Y-76884025D01*
X138483416Y-76883368D01*
X138488366Y-76881883D01*
X138692429Y-76820661D01*
X138692434Y-76820659D01*
X138697384Y-76819174D01*
X138897994Y-76720896D01*
X139079860Y-76591173D01*
X139238096Y-76433489D01*
X139368453Y-76252077D01*
X139369776Y-76253028D01*
X139416645Y-76209857D01*
X139486580Y-76197625D01*
X139552026Y-76225144D01*
X139579875Y-76256994D01*
X139639987Y-76355088D01*
X139786250Y-76523938D01*
X139958126Y-76666632D01*
X140151000Y-76779338D01*
X140359692Y-76859030D01*
X140364760Y-76860061D01*
X140364763Y-76860062D01*
X140472017Y-76881883D01*
X140578597Y-76903567D01*
X140583772Y-76903757D01*
X140583774Y-76903757D01*
X140796673Y-76911564D01*
X140796677Y-76911564D01*
X140801837Y-76911753D01*
X140806957Y-76911097D01*
X140806959Y-76911097D01*
X141018288Y-76884025D01*
X141018289Y-76884025D01*
X141023416Y-76883368D01*
X141028366Y-76881883D01*
X141232429Y-76820661D01*
X141232434Y-76820659D01*
X141237384Y-76819174D01*
X141437994Y-76720896D01*
X141619860Y-76591173D01*
X141778096Y-76433489D01*
X141908453Y-76252077D01*
X141909776Y-76253028D01*
X141956645Y-76209857D01*
X142026580Y-76197625D01*
X142092026Y-76225144D01*
X142119875Y-76256994D01*
X142179987Y-76355088D01*
X142326250Y-76523938D01*
X142498126Y-76666632D01*
X142691000Y-76779338D01*
X142899692Y-76859030D01*
X142904760Y-76860061D01*
X142904763Y-76860062D01*
X143012017Y-76881883D01*
X143118597Y-76903567D01*
X143123772Y-76903757D01*
X143123774Y-76903757D01*
X143336673Y-76911564D01*
X143336677Y-76911564D01*
X143341837Y-76911753D01*
X143346957Y-76911097D01*
X143346959Y-76911097D01*
X143558288Y-76884025D01*
X143558289Y-76884025D01*
X143563416Y-76883368D01*
X143568366Y-76881883D01*
X143772429Y-76820661D01*
X143772434Y-76820659D01*
X143777384Y-76819174D01*
X143977994Y-76720896D01*
X144159860Y-76591173D01*
X144318096Y-76433489D01*
X144448453Y-76252077D01*
X144449776Y-76253028D01*
X144496645Y-76209857D01*
X144566580Y-76197625D01*
X144632026Y-76225144D01*
X144659875Y-76256994D01*
X144719987Y-76355088D01*
X144866250Y-76523938D01*
X145038126Y-76666632D01*
X145231000Y-76779338D01*
X145439692Y-76859030D01*
X145444760Y-76860061D01*
X145444763Y-76860062D01*
X145552017Y-76881883D01*
X145658597Y-76903567D01*
X145663772Y-76903757D01*
X145663774Y-76903757D01*
X145876673Y-76911564D01*
X145876677Y-76911564D01*
X145881837Y-76911753D01*
X145886957Y-76911097D01*
X145886959Y-76911097D01*
X146098288Y-76884025D01*
X146098289Y-76884025D01*
X146103416Y-76883368D01*
X146108366Y-76881883D01*
X146312429Y-76820661D01*
X146312434Y-76820659D01*
X146317384Y-76819174D01*
X146517994Y-76720896D01*
X146699860Y-76591173D01*
X146858096Y-76433489D01*
X146988453Y-76252077D01*
X146989776Y-76253028D01*
X147036645Y-76209857D01*
X147106580Y-76197625D01*
X147172026Y-76225144D01*
X147199875Y-76256994D01*
X147259987Y-76355088D01*
X147406250Y-76523938D01*
X147578126Y-76666632D01*
X147771000Y-76779338D01*
X147979692Y-76859030D01*
X147984760Y-76860061D01*
X147984763Y-76860062D01*
X148092017Y-76881883D01*
X148198597Y-76903567D01*
X148203772Y-76903757D01*
X148203774Y-76903757D01*
X148416673Y-76911564D01*
X148416677Y-76911564D01*
X148421837Y-76911753D01*
X148426957Y-76911097D01*
X148426959Y-76911097D01*
X148638288Y-76884025D01*
X148638289Y-76884025D01*
X148643416Y-76883368D01*
X148648366Y-76881883D01*
X148852429Y-76820661D01*
X148852434Y-76820659D01*
X148857384Y-76819174D01*
X149057994Y-76720896D01*
X149239860Y-76591173D01*
X149398096Y-76433489D01*
X149528453Y-76252077D01*
X149529776Y-76253028D01*
X149576645Y-76209857D01*
X149646580Y-76197625D01*
X149712026Y-76225144D01*
X149739875Y-76256994D01*
X149799987Y-76355088D01*
X149946250Y-76523938D01*
X150118126Y-76666632D01*
X150311000Y-76779338D01*
X150519692Y-76859030D01*
X150524760Y-76860061D01*
X150524763Y-76860062D01*
X150632017Y-76881883D01*
X150738597Y-76903567D01*
X150743772Y-76903757D01*
X150743774Y-76903757D01*
X150956673Y-76911564D01*
X150956677Y-76911564D01*
X150961837Y-76911753D01*
X150966957Y-76911097D01*
X150966959Y-76911097D01*
X151178288Y-76884025D01*
X151178289Y-76884025D01*
X151183416Y-76883368D01*
X151188366Y-76881883D01*
X151392429Y-76820661D01*
X151392434Y-76820659D01*
X151397384Y-76819174D01*
X151597994Y-76720896D01*
X151779860Y-76591173D01*
X151938096Y-76433489D01*
X152068453Y-76252077D01*
X152069776Y-76253028D01*
X152116645Y-76209857D01*
X152186580Y-76197625D01*
X152252026Y-76225144D01*
X152279875Y-76256994D01*
X152339987Y-76355088D01*
X152486250Y-76523938D01*
X152658126Y-76666632D01*
X152851000Y-76779338D01*
X153059692Y-76859030D01*
X153064760Y-76860061D01*
X153064763Y-76860062D01*
X153172017Y-76881883D01*
X153278597Y-76903567D01*
X153283772Y-76903757D01*
X153283774Y-76903757D01*
X153496673Y-76911564D01*
X153496677Y-76911564D01*
X153501837Y-76911753D01*
X153506957Y-76911097D01*
X153506959Y-76911097D01*
X153718288Y-76884025D01*
X153718289Y-76884025D01*
X153723416Y-76883368D01*
X153728366Y-76881883D01*
X153932429Y-76820661D01*
X153932434Y-76820659D01*
X153937384Y-76819174D01*
X154137994Y-76720896D01*
X154319860Y-76591173D01*
X154478096Y-76433489D01*
X154608453Y-76252077D01*
X154609776Y-76253028D01*
X154656645Y-76209857D01*
X154726580Y-76197625D01*
X154792026Y-76225144D01*
X154819875Y-76256994D01*
X154879987Y-76355088D01*
X155026250Y-76523938D01*
X155198126Y-76666632D01*
X155391000Y-76779338D01*
X155599692Y-76859030D01*
X155604760Y-76860061D01*
X155604763Y-76860062D01*
X155712017Y-76881883D01*
X155818597Y-76903567D01*
X155823772Y-76903757D01*
X155823774Y-76903757D01*
X156036673Y-76911564D01*
X156036677Y-76911564D01*
X156041837Y-76911753D01*
X156046957Y-76911097D01*
X156046959Y-76911097D01*
X156258288Y-76884025D01*
X156258289Y-76884025D01*
X156263416Y-76883368D01*
X156268366Y-76881883D01*
X156472429Y-76820661D01*
X156472434Y-76820659D01*
X156477384Y-76819174D01*
X156677994Y-76720896D01*
X156859860Y-76591173D01*
X157018096Y-76433489D01*
X157148453Y-76252077D01*
X157149776Y-76253028D01*
X157196645Y-76209857D01*
X157266580Y-76197625D01*
X157332026Y-76225144D01*
X157359875Y-76256994D01*
X157419987Y-76355088D01*
X157566250Y-76523938D01*
X157738126Y-76666632D01*
X157931000Y-76779338D01*
X158139692Y-76859030D01*
X158144760Y-76860061D01*
X158144763Y-76860062D01*
X158252017Y-76881883D01*
X158358597Y-76903567D01*
X158363772Y-76903757D01*
X158363774Y-76903757D01*
X158576673Y-76911564D01*
X158576677Y-76911564D01*
X158581837Y-76911753D01*
X158586957Y-76911097D01*
X158586959Y-76911097D01*
X158798288Y-76884025D01*
X158798289Y-76884025D01*
X158803416Y-76883368D01*
X158808366Y-76881883D01*
X159012429Y-76820661D01*
X159012434Y-76820659D01*
X159017384Y-76819174D01*
X159217994Y-76720896D01*
X159399860Y-76591173D01*
X159558096Y-76433489D01*
X159688453Y-76252077D01*
X159689776Y-76253028D01*
X159736645Y-76209857D01*
X159806580Y-76197625D01*
X159872026Y-76225144D01*
X159899875Y-76256994D01*
X159959987Y-76355088D01*
X160106250Y-76523938D01*
X160278126Y-76666632D01*
X160471000Y-76779338D01*
X160679692Y-76859030D01*
X160684760Y-76860061D01*
X160684763Y-76860062D01*
X160792017Y-76881883D01*
X160898597Y-76903567D01*
X160903772Y-76903757D01*
X160903774Y-76903757D01*
X161116673Y-76911564D01*
X161116677Y-76911564D01*
X161121837Y-76911753D01*
X161126957Y-76911097D01*
X161126959Y-76911097D01*
X161338288Y-76884025D01*
X161338289Y-76884025D01*
X161343416Y-76883368D01*
X161348366Y-76881883D01*
X161552429Y-76820661D01*
X161552434Y-76820659D01*
X161557384Y-76819174D01*
X161757994Y-76720896D01*
X161939860Y-76591173D01*
X162098096Y-76433489D01*
X162228453Y-76252077D01*
X162249320Y-76209857D01*
X162325136Y-76056453D01*
X162325137Y-76056451D01*
X162327430Y-76051811D01*
X162386922Y-75856001D01*
X162390865Y-75843023D01*
X162390865Y-75843021D01*
X162392370Y-75838069D01*
X162421529Y-75616590D01*
X162423156Y-75550000D01*
X162404852Y-75327361D01*
X162350431Y-75110702D01*
X162261354Y-74905840D01*
X162155180Y-74741720D01*
X162142822Y-74722617D01*
X162142820Y-74722614D01*
X162140014Y-74718277D01*
X161989670Y-74553051D01*
X161985619Y-74549852D01*
X161985615Y-74549848D01*
X161818414Y-74417800D01*
X161818410Y-74417798D01*
X161814359Y-74414598D01*
X161773053Y-74391796D01*
X161723084Y-74341364D01*
X161712642Y-74292277D01*
X164137009Y-74292277D01*
X164162625Y-74560769D01*
X164163710Y-74565203D01*
X164163711Y-74565209D01*
X164225645Y-74818312D01*
X164226731Y-74822750D01*
X164327985Y-75072733D01*
X164464265Y-75305482D01*
X164576377Y-75445671D01*
X164584686Y-75456060D01*
X164632716Y-75516119D01*
X164829809Y-75700234D01*
X165051416Y-75853968D01*
X165055499Y-75855999D01*
X165055502Y-75856001D01*
X165171013Y-75913466D01*
X165292894Y-75974101D01*
X165297228Y-75975522D01*
X165297231Y-75975523D01*
X165544853Y-76056698D01*
X165544859Y-76056699D01*
X165549186Y-76058118D01*
X165553677Y-76058898D01*
X165553678Y-76058898D01*
X165811140Y-76103601D01*
X165811148Y-76103602D01*
X165814921Y-76104257D01*
X165818758Y-76104448D01*
X165898578Y-76108422D01*
X165898586Y-76108422D01*
X165900149Y-76108500D01*
X166068512Y-76108500D01*
X166070780Y-76108335D01*
X166070792Y-76108335D01*
X166201884Y-76098823D01*
X166269004Y-76093953D01*
X166273459Y-76092969D01*
X166273462Y-76092969D01*
X166527912Y-76036791D01*
X166527916Y-76036790D01*
X166532372Y-76035806D01*
X166658480Y-75988028D01*
X166780318Y-75941868D01*
X166780321Y-75941867D01*
X166784588Y-75940250D01*
X167020368Y-75809286D01*
X167234773Y-75645657D01*
X167259945Y-75619908D01*
X167420117Y-75456060D01*
X167423312Y-75452792D01*
X167582034Y-75234730D01*
X167665190Y-75076676D01*
X167705490Y-75000079D01*
X167705493Y-75000073D01*
X167707615Y-74996039D01*
X167737791Y-74910590D01*
X167795902Y-74746033D01*
X167795902Y-74746032D01*
X167797425Y-74741720D01*
X167838293Y-74534373D01*
X167848700Y-74481572D01*
X167848701Y-74481566D01*
X167849581Y-74477100D01*
X167849808Y-74472544D01*
X167862764Y-74212292D01*
X167862764Y-74212286D01*
X167862991Y-74207723D01*
X167837375Y-73939231D01*
X167826996Y-73896812D01*
X167774355Y-73681688D01*
X167773269Y-73677250D01*
X167672015Y-73427267D01*
X167535735Y-73194518D01*
X167417928Y-73047208D01*
X167370136Y-72987447D01*
X167370135Y-72987445D01*
X167367284Y-72983881D01*
X167170191Y-72799766D01*
X166948584Y-72646032D01*
X166944501Y-72644001D01*
X166944498Y-72643999D01*
X166779606Y-72561967D01*
X166707106Y-72525899D01*
X166702772Y-72524478D01*
X166702769Y-72524477D01*
X166455147Y-72443302D01*
X166455141Y-72443301D01*
X166450814Y-72441882D01*
X166446322Y-72441102D01*
X166188860Y-72396399D01*
X166188852Y-72396398D01*
X166185079Y-72395743D01*
X166173817Y-72395182D01*
X166101422Y-72391578D01*
X166101414Y-72391578D01*
X166099851Y-72391500D01*
X165931488Y-72391500D01*
X165929220Y-72391665D01*
X165929208Y-72391665D01*
X165798116Y-72401177D01*
X165730996Y-72406047D01*
X165726541Y-72407031D01*
X165726538Y-72407031D01*
X165472088Y-72463209D01*
X165472084Y-72463210D01*
X165467628Y-72464194D01*
X165358537Y-72505525D01*
X165219682Y-72558132D01*
X165219679Y-72558133D01*
X165215412Y-72559750D01*
X164979632Y-72690714D01*
X164765227Y-72854343D01*
X164762034Y-72857609D01*
X164762032Y-72857611D01*
X164746406Y-72873596D01*
X164576688Y-73047208D01*
X164417966Y-73265270D01*
X164415844Y-73269304D01*
X164294510Y-73499921D01*
X164294507Y-73499927D01*
X164292385Y-73503961D01*
X164290865Y-73508266D01*
X164290863Y-73508270D01*
X164209927Y-73737461D01*
X164202575Y-73758280D01*
X164196010Y-73791589D01*
X164157448Y-73987240D01*
X164150419Y-74022900D01*
X164150192Y-74027453D01*
X164150192Y-74027456D01*
X164137531Y-74281797D01*
X164137009Y-74292277D01*
X161712642Y-74292277D01*
X161708312Y-74271921D01*
X161733428Y-74205516D01*
X161760780Y-74178909D01*
X161804603Y-74147650D01*
X161939860Y-74051173D01*
X161964906Y-74026215D01*
X162094435Y-73897137D01*
X162098096Y-73893489D01*
X162170534Y-73792681D01*
X162225435Y-73716277D01*
X162228453Y-73712077D01*
X162241995Y-73684678D01*
X162325136Y-73516453D01*
X162325137Y-73516451D01*
X162327430Y-73511811D01*
X162392370Y-73298069D01*
X162421529Y-73076590D01*
X162423156Y-73010000D01*
X162404852Y-72787361D01*
X162350431Y-72570702D01*
X162261354Y-72365840D01*
X162140014Y-72178277D01*
X161989670Y-72013051D01*
X161985619Y-72009852D01*
X161985615Y-72009848D01*
X161818414Y-71877800D01*
X161818410Y-71877798D01*
X161814359Y-71874598D01*
X161778028Y-71854542D01*
X161707585Y-71815656D01*
X161618789Y-71766638D01*
X161613920Y-71764914D01*
X161613916Y-71764912D01*
X161413087Y-71693795D01*
X161413083Y-71693794D01*
X161408212Y-71692069D01*
X161403119Y-71691162D01*
X161403116Y-71691161D01*
X161193373Y-71653800D01*
X161193367Y-71653799D01*
X161188284Y-71652894D01*
X161114452Y-71651992D01*
X160970081Y-71650228D01*
X160970079Y-71650228D01*
X160964911Y-71650165D01*
X160744091Y-71683955D01*
X160531756Y-71753357D01*
X160333607Y-71856507D01*
X160329474Y-71859610D01*
X160329471Y-71859612D01*
X160305247Y-71877800D01*
X160154965Y-71990635D01*
X160000629Y-72152138D01*
X159893201Y-72309621D01*
X159838293Y-72354621D01*
X159767768Y-72362792D01*
X159704021Y-72331538D01*
X159683324Y-72307054D01*
X159602822Y-72182617D01*
X159602820Y-72182614D01*
X159600014Y-72178277D01*
X159449670Y-72013051D01*
X159445619Y-72009852D01*
X159445615Y-72009848D01*
X159278414Y-71877800D01*
X159278410Y-71877798D01*
X159274359Y-71874598D01*
X159238028Y-71854542D01*
X159167585Y-71815656D01*
X159078789Y-71766638D01*
X159073920Y-71764914D01*
X159073916Y-71764912D01*
X158873087Y-71693795D01*
X158873083Y-71693794D01*
X158868212Y-71692069D01*
X158863119Y-71691162D01*
X158863116Y-71691161D01*
X158653373Y-71653800D01*
X158653367Y-71653799D01*
X158648284Y-71652894D01*
X158574452Y-71651992D01*
X158430081Y-71650228D01*
X158430079Y-71650228D01*
X158424911Y-71650165D01*
X158204091Y-71683955D01*
X157991756Y-71753357D01*
X157793607Y-71856507D01*
X157789474Y-71859610D01*
X157789471Y-71859612D01*
X157765247Y-71877800D01*
X157614965Y-71990635D01*
X157460629Y-72152138D01*
X157353201Y-72309621D01*
X157298293Y-72354621D01*
X157227768Y-72362792D01*
X157164021Y-72331538D01*
X157143324Y-72307054D01*
X157062822Y-72182617D01*
X157062820Y-72182614D01*
X157060014Y-72178277D01*
X156909670Y-72013051D01*
X156905619Y-72009852D01*
X156905615Y-72009848D01*
X156738414Y-71877800D01*
X156738410Y-71877798D01*
X156734359Y-71874598D01*
X156698028Y-71854542D01*
X156627585Y-71815656D01*
X156538789Y-71766638D01*
X156533920Y-71764914D01*
X156533916Y-71764912D01*
X156333087Y-71693795D01*
X156333083Y-71693794D01*
X156328212Y-71692069D01*
X156323119Y-71691162D01*
X156323116Y-71691161D01*
X156113373Y-71653800D01*
X156113367Y-71653799D01*
X156108284Y-71652894D01*
X156034452Y-71651992D01*
X155890081Y-71650228D01*
X155890079Y-71650228D01*
X155884911Y-71650165D01*
X155664091Y-71683955D01*
X155451756Y-71753357D01*
X155253607Y-71856507D01*
X155249474Y-71859610D01*
X155249471Y-71859612D01*
X155225247Y-71877800D01*
X155074965Y-71990635D01*
X154920629Y-72152138D01*
X154813201Y-72309621D01*
X154758293Y-72354621D01*
X154687768Y-72362792D01*
X154624021Y-72331538D01*
X154603324Y-72307054D01*
X154522822Y-72182617D01*
X154522820Y-72182614D01*
X154520014Y-72178277D01*
X154369670Y-72013051D01*
X154365619Y-72009852D01*
X154365615Y-72009848D01*
X154198414Y-71877800D01*
X154198410Y-71877798D01*
X154194359Y-71874598D01*
X154158028Y-71854542D01*
X154087585Y-71815656D01*
X153998789Y-71766638D01*
X153993920Y-71764914D01*
X153993916Y-71764912D01*
X153793087Y-71693795D01*
X153793083Y-71693794D01*
X153788212Y-71692069D01*
X153783119Y-71691162D01*
X153783116Y-71691161D01*
X153573373Y-71653800D01*
X153573367Y-71653799D01*
X153568284Y-71652894D01*
X153494452Y-71651992D01*
X153350081Y-71650228D01*
X153350079Y-71650228D01*
X153344911Y-71650165D01*
X153124091Y-71683955D01*
X152911756Y-71753357D01*
X152713607Y-71856507D01*
X152709474Y-71859610D01*
X152709471Y-71859612D01*
X152685247Y-71877800D01*
X152534965Y-71990635D01*
X152380629Y-72152138D01*
X152273201Y-72309621D01*
X152218293Y-72354621D01*
X152147768Y-72362792D01*
X152084021Y-72331538D01*
X152063324Y-72307054D01*
X151982822Y-72182617D01*
X151982820Y-72182614D01*
X151980014Y-72178277D01*
X151829670Y-72013051D01*
X151825619Y-72009852D01*
X151825615Y-72009848D01*
X151658414Y-71877800D01*
X151658410Y-71877798D01*
X151654359Y-71874598D01*
X151618028Y-71854542D01*
X151547585Y-71815656D01*
X151458789Y-71766638D01*
X151453920Y-71764914D01*
X151453916Y-71764912D01*
X151253087Y-71693795D01*
X151253083Y-71693794D01*
X151248212Y-71692069D01*
X151243119Y-71691162D01*
X151243116Y-71691161D01*
X151033373Y-71653800D01*
X151033367Y-71653799D01*
X151028284Y-71652894D01*
X150954452Y-71651992D01*
X150810081Y-71650228D01*
X150810079Y-71650228D01*
X150804911Y-71650165D01*
X150584091Y-71683955D01*
X150371756Y-71753357D01*
X150173607Y-71856507D01*
X150169474Y-71859610D01*
X150169471Y-71859612D01*
X150145247Y-71877800D01*
X149994965Y-71990635D01*
X149840629Y-72152138D01*
X149733201Y-72309621D01*
X149678293Y-72354621D01*
X149607768Y-72362792D01*
X149544021Y-72331538D01*
X149523324Y-72307054D01*
X149442822Y-72182617D01*
X149442820Y-72182614D01*
X149440014Y-72178277D01*
X149289670Y-72013051D01*
X149285619Y-72009852D01*
X149285615Y-72009848D01*
X149118414Y-71877800D01*
X149118410Y-71877798D01*
X149114359Y-71874598D01*
X149078028Y-71854542D01*
X149007585Y-71815656D01*
X148918789Y-71766638D01*
X148913920Y-71764914D01*
X148913916Y-71764912D01*
X148713087Y-71693795D01*
X148713083Y-71693794D01*
X148708212Y-71692069D01*
X148703119Y-71691162D01*
X148703116Y-71691161D01*
X148493373Y-71653800D01*
X148493367Y-71653799D01*
X148488284Y-71652894D01*
X148414452Y-71651992D01*
X148270081Y-71650228D01*
X148270079Y-71650228D01*
X148264911Y-71650165D01*
X148044091Y-71683955D01*
X147831756Y-71753357D01*
X147633607Y-71856507D01*
X147629474Y-71859610D01*
X147629471Y-71859612D01*
X147605247Y-71877800D01*
X147454965Y-71990635D01*
X147300629Y-72152138D01*
X147193201Y-72309621D01*
X147138293Y-72354621D01*
X147067768Y-72362792D01*
X147004021Y-72331538D01*
X146983324Y-72307054D01*
X146902822Y-72182617D01*
X146902820Y-72182614D01*
X146900014Y-72178277D01*
X146749670Y-72013051D01*
X146745619Y-72009852D01*
X146745615Y-72009848D01*
X146578414Y-71877800D01*
X146578410Y-71877798D01*
X146574359Y-71874598D01*
X146538028Y-71854542D01*
X146467585Y-71815656D01*
X146378789Y-71766638D01*
X146373920Y-71764914D01*
X146373916Y-71764912D01*
X146173087Y-71693795D01*
X146173083Y-71693794D01*
X146168212Y-71692069D01*
X146163119Y-71691162D01*
X146163116Y-71691161D01*
X145953373Y-71653800D01*
X145953367Y-71653799D01*
X145948284Y-71652894D01*
X145874452Y-71651992D01*
X145730081Y-71650228D01*
X145730079Y-71650228D01*
X145724911Y-71650165D01*
X145504091Y-71683955D01*
X145291756Y-71753357D01*
X145093607Y-71856507D01*
X145089474Y-71859610D01*
X145089471Y-71859612D01*
X145065247Y-71877800D01*
X144914965Y-71990635D01*
X144760629Y-72152138D01*
X144653201Y-72309621D01*
X144598293Y-72354621D01*
X144527768Y-72362792D01*
X144464021Y-72331538D01*
X144443324Y-72307054D01*
X144362822Y-72182617D01*
X144362820Y-72182614D01*
X144360014Y-72178277D01*
X144209670Y-72013051D01*
X144205619Y-72009852D01*
X144205615Y-72009848D01*
X144038414Y-71877800D01*
X144038410Y-71877798D01*
X144034359Y-71874598D01*
X143998028Y-71854542D01*
X143927585Y-71815656D01*
X143838789Y-71766638D01*
X143833920Y-71764914D01*
X143833916Y-71764912D01*
X143633087Y-71693795D01*
X143633083Y-71693794D01*
X143628212Y-71692069D01*
X143623119Y-71691162D01*
X143623116Y-71691161D01*
X143413373Y-71653800D01*
X143413367Y-71653799D01*
X143408284Y-71652894D01*
X143334452Y-71651992D01*
X143190081Y-71650228D01*
X143190079Y-71650228D01*
X143184911Y-71650165D01*
X142964091Y-71683955D01*
X142751756Y-71753357D01*
X142553607Y-71856507D01*
X142549474Y-71859610D01*
X142549471Y-71859612D01*
X142525247Y-71877800D01*
X142374965Y-71990635D01*
X142220629Y-72152138D01*
X142113201Y-72309621D01*
X142058293Y-72354621D01*
X141987768Y-72362792D01*
X141924021Y-72331538D01*
X141903324Y-72307054D01*
X141822822Y-72182617D01*
X141822820Y-72182614D01*
X141820014Y-72178277D01*
X141669670Y-72013051D01*
X141665619Y-72009852D01*
X141665615Y-72009848D01*
X141498414Y-71877800D01*
X141498410Y-71877798D01*
X141494359Y-71874598D01*
X141458028Y-71854542D01*
X141387585Y-71815656D01*
X141298789Y-71766638D01*
X141293920Y-71764914D01*
X141293916Y-71764912D01*
X141093087Y-71693795D01*
X141093083Y-71693794D01*
X141088212Y-71692069D01*
X141083119Y-71691162D01*
X141083116Y-71691161D01*
X140873373Y-71653800D01*
X140873367Y-71653799D01*
X140868284Y-71652894D01*
X140794452Y-71651992D01*
X140650081Y-71650228D01*
X140650079Y-71650228D01*
X140644911Y-71650165D01*
X140424091Y-71683955D01*
X140211756Y-71753357D01*
X140013607Y-71856507D01*
X140009474Y-71859610D01*
X140009471Y-71859612D01*
X139985247Y-71877800D01*
X139834965Y-71990635D01*
X139680629Y-72152138D01*
X139573201Y-72309621D01*
X139518293Y-72354621D01*
X139447768Y-72362792D01*
X139384021Y-72331538D01*
X139363324Y-72307054D01*
X139282822Y-72182617D01*
X139282820Y-72182614D01*
X139280014Y-72178277D01*
X139129670Y-72013051D01*
X139125619Y-72009852D01*
X139125615Y-72009848D01*
X138958414Y-71877800D01*
X138958410Y-71877798D01*
X138954359Y-71874598D01*
X138918028Y-71854542D01*
X138847585Y-71815656D01*
X138758789Y-71766638D01*
X138753920Y-71764914D01*
X138753916Y-71764912D01*
X138553087Y-71693795D01*
X138553083Y-71693794D01*
X138548212Y-71692069D01*
X138543119Y-71691162D01*
X138543116Y-71691161D01*
X138333373Y-71653800D01*
X138333367Y-71653799D01*
X138328284Y-71652894D01*
X138254452Y-71651992D01*
X138110081Y-71650228D01*
X138110079Y-71650228D01*
X138104911Y-71650165D01*
X137884091Y-71683955D01*
X137671756Y-71753357D01*
X137473607Y-71856507D01*
X137469474Y-71859610D01*
X137469471Y-71859612D01*
X137445247Y-71877800D01*
X137294965Y-71990635D01*
X137140629Y-72152138D01*
X137033201Y-72309621D01*
X136978293Y-72354621D01*
X136907768Y-72362792D01*
X136844021Y-72331538D01*
X136823324Y-72307054D01*
X136742822Y-72182617D01*
X136742820Y-72182614D01*
X136740014Y-72178277D01*
X136589670Y-72013051D01*
X136585619Y-72009852D01*
X136585615Y-72009848D01*
X136418414Y-71877800D01*
X136418410Y-71877798D01*
X136414359Y-71874598D01*
X136378028Y-71854542D01*
X136307585Y-71815656D01*
X136218789Y-71766638D01*
X136213920Y-71764914D01*
X136213916Y-71764912D01*
X136013087Y-71693795D01*
X136013083Y-71693794D01*
X136008212Y-71692069D01*
X136003119Y-71691162D01*
X136003116Y-71691161D01*
X135793373Y-71653800D01*
X135793367Y-71653799D01*
X135788284Y-71652894D01*
X135714452Y-71651992D01*
X135570081Y-71650228D01*
X135570079Y-71650228D01*
X135564911Y-71650165D01*
X135344091Y-71683955D01*
X135131756Y-71753357D01*
X134933607Y-71856507D01*
X134929474Y-71859610D01*
X134929471Y-71859612D01*
X134905247Y-71877800D01*
X134754965Y-71990635D01*
X134600629Y-72152138D01*
X134493201Y-72309621D01*
X134438293Y-72354621D01*
X134367768Y-72362792D01*
X134304021Y-72331538D01*
X134283324Y-72307054D01*
X134202822Y-72182617D01*
X134202820Y-72182614D01*
X134200014Y-72178277D01*
X134049670Y-72013051D01*
X134045619Y-72009852D01*
X134045615Y-72009848D01*
X133878414Y-71877800D01*
X133878410Y-71877798D01*
X133874359Y-71874598D01*
X133838028Y-71854542D01*
X133767585Y-71815656D01*
X133678789Y-71766638D01*
X133673920Y-71764914D01*
X133673916Y-71764912D01*
X133473087Y-71693795D01*
X133473083Y-71693794D01*
X133468212Y-71692069D01*
X133463119Y-71691162D01*
X133463116Y-71691161D01*
X133253373Y-71653800D01*
X133253367Y-71653799D01*
X133248284Y-71652894D01*
X133174452Y-71651992D01*
X133030081Y-71650228D01*
X133030079Y-71650228D01*
X133024911Y-71650165D01*
X132804091Y-71683955D01*
X132591756Y-71753357D01*
X132393607Y-71856507D01*
X132389474Y-71859610D01*
X132389471Y-71859612D01*
X132365247Y-71877800D01*
X132214965Y-71990635D01*
X132060629Y-72152138D01*
X131953201Y-72309621D01*
X131898293Y-72354621D01*
X131827768Y-72362792D01*
X131764021Y-72331538D01*
X131743324Y-72307054D01*
X131662822Y-72182617D01*
X131662820Y-72182614D01*
X131660014Y-72178277D01*
X131509670Y-72013051D01*
X131505619Y-72009852D01*
X131505615Y-72009848D01*
X131338414Y-71877800D01*
X131338410Y-71877798D01*
X131334359Y-71874598D01*
X131298028Y-71854542D01*
X131227585Y-71815656D01*
X131138789Y-71766638D01*
X131133920Y-71764914D01*
X131133916Y-71764912D01*
X130933087Y-71693795D01*
X130933083Y-71693794D01*
X130928212Y-71692069D01*
X130923119Y-71691162D01*
X130923116Y-71691161D01*
X130713373Y-71653800D01*
X130713367Y-71653799D01*
X130708284Y-71652894D01*
X130634452Y-71651992D01*
X130490081Y-71650228D01*
X130490079Y-71650228D01*
X130484911Y-71650165D01*
X130264091Y-71683955D01*
X130051756Y-71753357D01*
X129853607Y-71856507D01*
X129849474Y-71859610D01*
X129849471Y-71859612D01*
X129825247Y-71877800D01*
X129674965Y-71990635D01*
X129520629Y-72152138D01*
X129413201Y-72309621D01*
X129358293Y-72354621D01*
X129287768Y-72362792D01*
X129224021Y-72331538D01*
X129203324Y-72307054D01*
X129122822Y-72182617D01*
X129122820Y-72182614D01*
X129120014Y-72178277D01*
X128969670Y-72013051D01*
X128965619Y-72009852D01*
X128965615Y-72009848D01*
X128798414Y-71877800D01*
X128798410Y-71877798D01*
X128794359Y-71874598D01*
X128758028Y-71854542D01*
X128687585Y-71815656D01*
X128598789Y-71766638D01*
X128593920Y-71764914D01*
X128593916Y-71764912D01*
X128393087Y-71693795D01*
X128393083Y-71693794D01*
X128388212Y-71692069D01*
X128383119Y-71691162D01*
X128383116Y-71691161D01*
X128173373Y-71653800D01*
X128173367Y-71653799D01*
X128168284Y-71652894D01*
X128094452Y-71651992D01*
X127950081Y-71650228D01*
X127950079Y-71650228D01*
X127944911Y-71650165D01*
X127724091Y-71683955D01*
X127511756Y-71753357D01*
X127313607Y-71856507D01*
X127309474Y-71859610D01*
X127309471Y-71859612D01*
X127285247Y-71877800D01*
X127134965Y-71990635D01*
X126980629Y-72152138D01*
X126873201Y-72309621D01*
X126818293Y-72354621D01*
X126747768Y-72362792D01*
X126684021Y-72331538D01*
X126663324Y-72307054D01*
X126582822Y-72182617D01*
X126582820Y-72182614D01*
X126580014Y-72178277D01*
X126429670Y-72013051D01*
X126425619Y-72009852D01*
X126425615Y-72009848D01*
X126258414Y-71877800D01*
X126258410Y-71877798D01*
X126254359Y-71874598D01*
X126218028Y-71854542D01*
X126147585Y-71815656D01*
X126058789Y-71766638D01*
X126053920Y-71764914D01*
X126053916Y-71764912D01*
X125853087Y-71693795D01*
X125853083Y-71693794D01*
X125848212Y-71692069D01*
X125843119Y-71691162D01*
X125843116Y-71691161D01*
X125633373Y-71653800D01*
X125633367Y-71653799D01*
X125628284Y-71652894D01*
X125554452Y-71651992D01*
X125410081Y-71650228D01*
X125410079Y-71650228D01*
X125404911Y-71650165D01*
X125184091Y-71683955D01*
X124971756Y-71753357D01*
X124773607Y-71856507D01*
X124769474Y-71859610D01*
X124769471Y-71859612D01*
X124745247Y-71877800D01*
X124594965Y-71990635D01*
X124440629Y-72152138D01*
X124333201Y-72309621D01*
X124278293Y-72354621D01*
X124207768Y-72362792D01*
X124144021Y-72331538D01*
X124123324Y-72307054D01*
X124042822Y-72182617D01*
X124042820Y-72182614D01*
X124040014Y-72178277D01*
X123889670Y-72013051D01*
X123885619Y-72009852D01*
X123885615Y-72009848D01*
X123718414Y-71877800D01*
X123718410Y-71877798D01*
X123714359Y-71874598D01*
X123678028Y-71854542D01*
X123607585Y-71815656D01*
X123518789Y-71766638D01*
X123513920Y-71764914D01*
X123513916Y-71764912D01*
X123313087Y-71693795D01*
X123313083Y-71693794D01*
X123308212Y-71692069D01*
X123303119Y-71691162D01*
X123303116Y-71691161D01*
X123093373Y-71653800D01*
X123093367Y-71653799D01*
X123088284Y-71652894D01*
X123014452Y-71651992D01*
X122870081Y-71650228D01*
X122870079Y-71650228D01*
X122864911Y-71650165D01*
X122644091Y-71683955D01*
X122431756Y-71753357D01*
X122233607Y-71856507D01*
X122229474Y-71859610D01*
X122229471Y-71859612D01*
X122205247Y-71877800D01*
X122054965Y-71990635D01*
X121900629Y-72152138D01*
X121793201Y-72309621D01*
X121738293Y-72354621D01*
X121667768Y-72362792D01*
X121604021Y-72331538D01*
X121583324Y-72307054D01*
X121502822Y-72182617D01*
X121502820Y-72182614D01*
X121500014Y-72178277D01*
X121349670Y-72013051D01*
X121345619Y-72009852D01*
X121345615Y-72009848D01*
X121178414Y-71877800D01*
X121178410Y-71877798D01*
X121174359Y-71874598D01*
X121138028Y-71854542D01*
X121067585Y-71815656D01*
X120978789Y-71766638D01*
X120973920Y-71764914D01*
X120973916Y-71764912D01*
X120773087Y-71693795D01*
X120773083Y-71693794D01*
X120768212Y-71692069D01*
X120763119Y-71691162D01*
X120763116Y-71691161D01*
X120553373Y-71653800D01*
X120553367Y-71653799D01*
X120548284Y-71652894D01*
X120474452Y-71651992D01*
X120330081Y-71650228D01*
X120330079Y-71650228D01*
X120324911Y-71650165D01*
X120104091Y-71683955D01*
X119891756Y-71753357D01*
X119693607Y-71856507D01*
X119689474Y-71859610D01*
X119689471Y-71859612D01*
X119665247Y-71877800D01*
X119514965Y-71990635D01*
X119360629Y-72152138D01*
X119253201Y-72309621D01*
X119198293Y-72354621D01*
X119127768Y-72362792D01*
X119064021Y-72331538D01*
X119043324Y-72307054D01*
X118962822Y-72182617D01*
X118962820Y-72182614D01*
X118960014Y-72178277D01*
X118809670Y-72013051D01*
X118805619Y-72009852D01*
X118805615Y-72009848D01*
X118638414Y-71877800D01*
X118638410Y-71877798D01*
X118634359Y-71874598D01*
X118598028Y-71854542D01*
X118527585Y-71815656D01*
X118438789Y-71766638D01*
X118433920Y-71764914D01*
X118433916Y-71764912D01*
X118233087Y-71693795D01*
X118233083Y-71693794D01*
X118228212Y-71692069D01*
X118223119Y-71691162D01*
X118223116Y-71691161D01*
X118013373Y-71653800D01*
X118013367Y-71653799D01*
X118008284Y-71652894D01*
X117934452Y-71651992D01*
X117790081Y-71650228D01*
X117790079Y-71650228D01*
X117784911Y-71650165D01*
X117564091Y-71683955D01*
X117351756Y-71753357D01*
X117153607Y-71856507D01*
X117149474Y-71859610D01*
X117149471Y-71859612D01*
X117125247Y-71877800D01*
X116974965Y-71990635D01*
X116820629Y-72152138D01*
X116817720Y-72156403D01*
X116817714Y-72156411D01*
X116805542Y-72174254D01*
X116713204Y-72309618D01*
X116712898Y-72310066D01*
X116657987Y-72355069D01*
X116587462Y-72363240D01*
X116523715Y-72331986D01*
X116503018Y-72307502D01*
X116422426Y-72182926D01*
X116416136Y-72174757D01*
X116272806Y-72017240D01*
X116265273Y-72010215D01*
X116098139Y-71878222D01*
X116089552Y-71872517D01*
X115903114Y-71769597D01*
X115893705Y-71765369D01*
X115857076Y-71752398D01*
X115842996Y-71751626D01*
X115840000Y-71757337D01*
X115840000Y-73384000D01*
X115819998Y-73452121D01*
X115766342Y-73498614D01*
X115714000Y-73510000D01*
X114077266Y-73510000D01*
X114077266Y-73509008D01*
X114065659Y-73510229D01*
X114062657Y-73510000D01*
X111555380Y-73510000D01*
X111541849Y-73513973D01*
X111541072Y-73519376D01*
X111581770Y-73619603D01*
X111586413Y-73628794D01*
X111697694Y-73810388D01*
X111703777Y-73818699D01*
X111843213Y-73979667D01*
X111850577Y-73986879D01*
X111855522Y-73990985D01*
X111895156Y-74049889D01*
X111896653Y-74120870D01*
X111859537Y-74181392D01*
X111819264Y-74205910D01*
X111711705Y-74246232D01*
X111711704Y-74246233D01*
X111703295Y-74249385D01*
X111586739Y-74336739D01*
X111499385Y-74453295D01*
X111448255Y-74589684D01*
X111441500Y-74651866D01*
X111441500Y-76448134D01*
X105008000Y-76448134D01*
X105008000Y-74292277D01*
X106137009Y-74292277D01*
X106162625Y-74560769D01*
X106163710Y-74565203D01*
X106163711Y-74565209D01*
X106225645Y-74818312D01*
X106226731Y-74822750D01*
X106327985Y-75072733D01*
X106464265Y-75305482D01*
X106576377Y-75445671D01*
X106584686Y-75456060D01*
X106632716Y-75516119D01*
X106829809Y-75700234D01*
X107051416Y-75853968D01*
X107055499Y-75855999D01*
X107055502Y-75856001D01*
X107171013Y-75913466D01*
X107292894Y-75974101D01*
X107297228Y-75975522D01*
X107297231Y-75975523D01*
X107544853Y-76056698D01*
X107544859Y-76056699D01*
X107549186Y-76058118D01*
X107553677Y-76058898D01*
X107553678Y-76058898D01*
X107811140Y-76103601D01*
X107811148Y-76103602D01*
X107814921Y-76104257D01*
X107818758Y-76104448D01*
X107898578Y-76108422D01*
X107898586Y-76108422D01*
X107900149Y-76108500D01*
X108068512Y-76108500D01*
X108070780Y-76108335D01*
X108070792Y-76108335D01*
X108201884Y-76098823D01*
X108269004Y-76093953D01*
X108273459Y-76092969D01*
X108273462Y-76092969D01*
X108527912Y-76036791D01*
X108527916Y-76036790D01*
X108532372Y-76035806D01*
X108658480Y-75988028D01*
X108780318Y-75941868D01*
X108780321Y-75941867D01*
X108784588Y-75940250D01*
X109020368Y-75809286D01*
X109234773Y-75645657D01*
X109259945Y-75619908D01*
X109420117Y-75456060D01*
X109423312Y-75452792D01*
X109582034Y-75234730D01*
X109665190Y-75076676D01*
X109705490Y-75000079D01*
X109705493Y-75000073D01*
X109707615Y-74996039D01*
X109737791Y-74910590D01*
X109795902Y-74746033D01*
X109795902Y-74746032D01*
X109797425Y-74741720D01*
X109838293Y-74534373D01*
X109848700Y-74481572D01*
X109848701Y-74481566D01*
X109849581Y-74477100D01*
X109849808Y-74472544D01*
X109862764Y-74212292D01*
X109862764Y-74212286D01*
X109862991Y-74207723D01*
X109837375Y-73939231D01*
X109826996Y-73896812D01*
X109774355Y-73681688D01*
X109773269Y-73677250D01*
X109672015Y-73427267D01*
X109535735Y-73194518D01*
X109417928Y-73047208D01*
X109370136Y-72987447D01*
X109370135Y-72987445D01*
X109367284Y-72983881D01*
X109170191Y-72799766D01*
X108948584Y-72646032D01*
X108944501Y-72644001D01*
X108944498Y-72643999D01*
X108779606Y-72561967D01*
X108707106Y-72525899D01*
X108702772Y-72524478D01*
X108702769Y-72524477D01*
X108651021Y-72507513D01*
X111540376Y-72507513D01*
X111544193Y-72510000D01*
X112281885Y-72510000D01*
X112297124Y-72505525D01*
X112298329Y-72504135D01*
X112300000Y-72496452D01*
X112300000Y-72491885D01*
X113300000Y-72491885D01*
X113304475Y-72507124D01*
X113305865Y-72508329D01*
X113313548Y-72510000D01*
X114063491Y-72510000D01*
X114063491Y-72511775D01*
X114074842Y-72510981D01*
X114074842Y-72510000D01*
X114821885Y-72510000D01*
X114837124Y-72505525D01*
X114838329Y-72504135D01*
X114840000Y-72496452D01*
X114840000Y-71762766D01*
X114836027Y-71749235D01*
X114829045Y-71748231D01*
X114816868Y-71752212D01*
X114807359Y-71756209D01*
X114618463Y-71854542D01*
X114609738Y-71860036D01*
X114439433Y-71987905D01*
X114431726Y-71994748D01*
X114284590Y-72148717D01*
X114278104Y-72156727D01*
X114173193Y-72310521D01*
X114118282Y-72355524D01*
X114047757Y-72363695D01*
X113984010Y-72332441D01*
X113963313Y-72307957D01*
X113882427Y-72182926D01*
X113876136Y-72174757D01*
X113732806Y-72017240D01*
X113725273Y-72010215D01*
X113558139Y-71878222D01*
X113549552Y-71872517D01*
X113363114Y-71769597D01*
X113353705Y-71765369D01*
X113317076Y-71752398D01*
X113302996Y-71751626D01*
X113300000Y-71757337D01*
X113300000Y-72491885D01*
X112300000Y-72491885D01*
X112300000Y-71762766D01*
X112296027Y-71749235D01*
X112289045Y-71748231D01*
X112276868Y-71752212D01*
X112267359Y-71756209D01*
X112078463Y-71854542D01*
X112069738Y-71860036D01*
X111899433Y-71987905D01*
X111891726Y-71994748D01*
X111744590Y-72148717D01*
X111738104Y-72156727D01*
X111618098Y-72332649D01*
X111613000Y-72341623D01*
X111542469Y-72493570D01*
X111540376Y-72507513D01*
X108651021Y-72507513D01*
X108455147Y-72443302D01*
X108455141Y-72443301D01*
X108450814Y-72441882D01*
X108446322Y-72441102D01*
X108188860Y-72396399D01*
X108188852Y-72396398D01*
X108185079Y-72395743D01*
X108173817Y-72395182D01*
X108101422Y-72391578D01*
X108101414Y-72391578D01*
X108099851Y-72391500D01*
X107931488Y-72391500D01*
X107929220Y-72391665D01*
X107929208Y-72391665D01*
X107798116Y-72401177D01*
X107730996Y-72406047D01*
X107726541Y-72407031D01*
X107726538Y-72407031D01*
X107472088Y-72463209D01*
X107472084Y-72463210D01*
X107467628Y-72464194D01*
X107358537Y-72505525D01*
X107219682Y-72558132D01*
X107219679Y-72558133D01*
X107215412Y-72559750D01*
X106979632Y-72690714D01*
X106765227Y-72854343D01*
X106762034Y-72857609D01*
X106762032Y-72857611D01*
X106746406Y-72873596D01*
X106576688Y-73047208D01*
X106417966Y-73265270D01*
X106415844Y-73269304D01*
X106294510Y-73499921D01*
X106294507Y-73499927D01*
X106292385Y-73503961D01*
X106290865Y-73508266D01*
X106290863Y-73508270D01*
X106209927Y-73737461D01*
X106202575Y-73758280D01*
X106196010Y-73791589D01*
X106157448Y-73987240D01*
X106150419Y-74022900D01*
X106150192Y-74027453D01*
X106150192Y-74027456D01*
X106137531Y-74281797D01*
X106137009Y-74292277D01*
X105008000Y-74292277D01*
X105008000Y-73799328D01*
X105009500Y-73779943D01*
X105011805Y-73765142D01*
X105011805Y-73765139D01*
X105013186Y-73756270D01*
X105010941Y-73739101D01*
X105010108Y-73715161D01*
X105025710Y-73457230D01*
X105027544Y-73442126D01*
X105059214Y-73269304D01*
X105079040Y-73161121D01*
X105082679Y-73146353D01*
X105103385Y-73079908D01*
X105167675Y-72873592D01*
X105173070Y-72859370D01*
X105173862Y-72857611D01*
X105290316Y-72598860D01*
X105297385Y-72585391D01*
X105445182Y-72340905D01*
X105453825Y-72328383D01*
X105565656Y-72185642D01*
X105575746Y-72174254D01*
X105924254Y-71825746D01*
X105935642Y-71815656D01*
X106078383Y-71703825D01*
X106090905Y-71695182D01*
X106335391Y-71547385D01*
X106348860Y-71540316D01*
X106609373Y-71423069D01*
X106623592Y-71417675D01*
X106896359Y-71332678D01*
X106911121Y-71329040D01*
X107121352Y-71290514D01*
X107192126Y-71277544D01*
X107207230Y-71275710D01*
X107457929Y-71260545D01*
X107484639Y-71261802D01*
X107484859Y-71261805D01*
X107493730Y-71263186D01*
X107502632Y-71262022D01*
X107502635Y-71262022D01*
X107525251Y-71259064D01*
X107541589Y-71258000D01*
X166450672Y-71258000D01*
X166470057Y-71259500D01*
G37*
%TD.AperFunction*%
M02*
