%TF.GenerationSoftware,KiCad,Pcbnew,(6.0.2)*%
%TF.CreationDate,2022-03-23T10:00:19+00:00*%
%TF.ProjectId,pi_transceiver_hat,70695f74-7261-46e7-9363-65697665725f,1*%
%TF.SameCoordinates,Original*%
%TF.FileFunction,Paste,Top*%
%TF.FilePolarity,Positive*%
%FSLAX46Y46*%
G04 Gerber Fmt 4.6, Leading zero omitted, Abs format (unit mm)*
G04 Created by KiCad (PCBNEW (6.0.2)) date 2022-03-23 10:00:19*
%MOMM*%
%LPD*%
G01*
G04 APERTURE LIST*
G04 Aperture macros list*
%AMRoundRect*
0 Rectangle with rounded corners*
0 $1 Rounding radius*
0 $2 $3 $4 $5 $6 $7 $8 $9 X,Y pos of 4 corners*
0 Add a 4 corners polygon primitive as box body*
4,1,4,$2,$3,$4,$5,$6,$7,$8,$9,$2,$3,0*
0 Add four circle primitives for the rounded corners*
1,1,$1+$1,$2,$3*
1,1,$1+$1,$4,$5*
1,1,$1+$1,$6,$7*
1,1,$1+$1,$8,$9*
0 Add four rect primitives between the rounded corners*
20,1,$1+$1,$2,$3,$4,$5,0*
20,1,$1+$1,$4,$5,$6,$7,0*
20,1,$1+$1,$6,$7,$8,$9,0*
20,1,$1+$1,$8,$9,$2,$3,0*%
G04 Aperture macros list end*
%ADD10RoundRect,0.250000X0.350000X0.450000X-0.350000X0.450000X-0.350000X-0.450000X0.350000X-0.450000X0*%
%ADD11RoundRect,0.250000X-0.337500X-0.475000X0.337500X-0.475000X0.337500X0.475000X-0.337500X0.475000X0*%
%ADD12RoundRect,0.150000X-0.587500X-0.150000X0.587500X-0.150000X0.587500X0.150000X-0.587500X0.150000X0*%
%ADD13RoundRect,0.250000X-1.050000X-0.550000X1.050000X-0.550000X1.050000X0.550000X-1.050000X0.550000X0*%
%ADD14RoundRect,0.250000X0.337500X0.475000X-0.337500X0.475000X-0.337500X-0.475000X0.337500X-0.475000X0*%
%ADD15RoundRect,0.250000X0.450000X-0.350000X0.450000X0.350000X-0.450000X0.350000X-0.450000X-0.350000X0*%
%ADD16RoundRect,0.150000X-0.512500X-0.150000X0.512500X-0.150000X0.512500X0.150000X-0.512500X0.150000X0*%
%ADD17RoundRect,0.250000X-0.350000X-0.450000X0.350000X-0.450000X0.350000X0.450000X-0.350000X0.450000X0*%
G04 APERTURE END LIST*
D10*
X132216400Y-105156000D03*
X130216400Y-105156000D03*
D11*
X128045300Y-87985600D03*
X130120300Y-87985600D03*
D12*
X138813300Y-92217200D03*
X138813300Y-94117200D03*
X140688300Y-93167200D03*
D10*
X150402800Y-89204800D03*
X148402800Y-89204800D03*
X137042400Y-89204800D03*
X135042400Y-89204800D03*
X144272000Y-89204800D03*
X142272000Y-89204800D03*
X127593600Y-111760000D03*
X125593600Y-111760000D03*
D13*
X117529200Y-96469200D03*
X121129200Y-96469200D03*
D11*
X130178900Y-102666800D03*
X132253900Y-102666800D03*
D14*
X127123100Y-95961200D03*
X125048100Y-95961200D03*
D10*
X123478800Y-110032800D03*
X121478800Y-110032800D03*
D12*
X151919700Y-92217200D03*
X151919700Y-94117200D03*
X153794700Y-93167200D03*
D11*
X123147000Y-116078000D03*
X125222000Y-116078000D03*
D10*
X156244800Y-89204800D03*
X154244800Y-89204800D03*
X122666000Y-89509600D03*
X120666000Y-89509600D03*
D15*
X135229600Y-94317200D03*
X135229600Y-92317200D03*
X148386800Y-94317200D03*
X148386800Y-92317200D03*
D16*
X121290500Y-112232400D03*
X121290500Y-113182400D03*
X121290500Y-114132400D03*
X123565500Y-114132400D03*
X123565500Y-113182400D03*
X123565500Y-112232400D03*
D17*
X125101600Y-98348800D03*
X127101600Y-98348800D03*
M02*
