%TF.GenerationSoftware,KiCad,Pcbnew,(6.0.0)*%
%TF.CreationDate,2022-01-16T13:24:38+00:00*%
%TF.ProjectId,RBP-140+,5242502d-3134-4302-9b2e-6b696361645f,rev?*%
%TF.SameCoordinates,Original*%
%TF.FileFunction,Copper,L1,Top*%
%TF.FilePolarity,Positive*%
%FSLAX46Y46*%
G04 Gerber Fmt 4.6, Leading zero omitted, Abs format (unit mm)*
G04 Created by KiCad (PCBNEW (6.0.0)) date 2022-01-16 13:24:38*
%MOMM*%
%LPD*%
G01*
G04 APERTURE LIST*
%TA.AperFunction,SMDPad,CuDef*%
%ADD10R,3.600000X1.270000*%
%TD*%
%TA.AperFunction,SMDPad,CuDef*%
%ADD11R,4.200000X1.350000*%
%TD*%
%TA.AperFunction,SMDPad,CuDef*%
%ADD12R,4.826000X9.906000*%
%TD*%
%TA.AperFunction,ComponentPad*%
%ADD13C,1.016000*%
%TD*%
%TA.AperFunction,SMDPad,CuDef*%
%ADD14R,2.540000X3.556000*%
%TD*%
%TA.AperFunction,SMDPad,CuDef*%
%ADD15R,1.778000X1.016000*%
%TD*%
%TA.AperFunction,SMDPad,CuDef*%
%ADD16R,1.016000X1.778000*%
%TD*%
%TA.AperFunction,ViaPad*%
%ADD17C,0.800000*%
%TD*%
%TA.AperFunction,Conductor*%
%ADD18C,1.000000*%
%TD*%
G04 APERTURE END LIST*
D10*
%TO.P,J1,1,In*%
%TO.N,Net-(FL1-Pad2)*%
X142000000Y-100000000D03*
D11*
%TO.P,J1,2,Ext*%
%TO.N,GND*%
X142200000Y-102825000D03*
X142200000Y-97175000D03*
%TD*%
D12*
%TO.P,FL1,1,GND*%
%TO.N,GND*%
X150000000Y-100000000D03*
D13*
X154445000Y-95555000D03*
X148730000Y-101270000D03*
D14*
X146317000Y-96825000D03*
D13*
X145555000Y-95555000D03*
X151270000Y-98730000D03*
D14*
X146317000Y-103175000D03*
D15*
X145936000Y-98095000D03*
D13*
X151270000Y-101270000D03*
D14*
X153683000Y-96825000D03*
D13*
X145555000Y-104445000D03*
X154445000Y-104445000D03*
X148730000Y-98730000D03*
D14*
X153683000Y-103175000D03*
D15*
%TO.P,FL1,2,IN*%
%TO.N,Net-(FL1-Pad2)*%
X145936000Y-100000000D03*
%TO.P,FL1,3,GND*%
%TO.N,GND*%
X145936000Y-101905000D03*
D16*
%TO.P,FL1,4,GND*%
X150000000Y-104064000D03*
D15*
%TO.P,FL1,5,GND*%
X154064000Y-101905000D03*
%TO.P,FL1,6,OUT*%
%TO.N,Net-(FL1-Pad6)*%
X154064000Y-100000000D03*
%TO.P,FL1,7,GND*%
%TO.N,GND*%
X154064000Y-98095000D03*
D16*
%TO.P,FL1,8,GND*%
X150000000Y-95936000D03*
%TD*%
D10*
%TO.P,J2,1,In*%
%TO.N,Net-(FL1-Pad6)*%
X158000000Y-100000000D03*
D11*
%TO.P,J2,2,Ext*%
%TO.N,GND*%
X157800000Y-102825000D03*
X157800000Y-97175000D03*
%TD*%
D17*
%TO.N,GND*%
X142650000Y-104500000D03*
X156050000Y-104500000D03*
X141300000Y-104500000D03*
X141300000Y-95500000D03*
X142550000Y-95500000D03*
X156000000Y-95500000D03*
X143850000Y-95500000D03*
X157550000Y-104500000D03*
X159000000Y-95500000D03*
X157650000Y-95500000D03*
X143900000Y-104500000D03*
X158900000Y-104500000D03*
%TD*%
D18*
%TO.N,Net-(FL1-Pad2)*%
X142000000Y-100000000D02*
X145936000Y-100000000D01*
%TO.N,Net-(FL1-Pad6)*%
X154064000Y-100000000D02*
X158000000Y-100000000D01*
%TD*%
%TA.AperFunction,Conductor*%
%TO.N,GND*%
G36*
X159434121Y-88528002D02*
G01*
X159480614Y-88581658D01*
X159492000Y-88634000D01*
X159492000Y-98730500D01*
X159471998Y-98798621D01*
X159418342Y-98845114D01*
X159366000Y-98856500D01*
X156151866Y-98856500D01*
X156089684Y-98863255D01*
X155953295Y-98914385D01*
X155946110Y-98919770D01*
X155946108Y-98919771D01*
X155883990Y-98966326D01*
X155817483Y-98991174D01*
X155808425Y-98991500D01*
X155583070Y-98991500D01*
X155514949Y-98971498D01*
X155494052Y-98954673D01*
X155433978Y-98894704D01*
X155428799Y-98889534D01*
X155390667Y-98866029D01*
X155342758Y-98836498D01*
X155277440Y-98796236D01*
X155270491Y-98793931D01*
X155115209Y-98742425D01*
X155115207Y-98742424D01*
X155108678Y-98740259D01*
X155003666Y-98729500D01*
X153124334Y-98729500D01*
X153121088Y-98729837D01*
X153121084Y-98729837D01*
X153024868Y-98739820D01*
X153024864Y-98739821D01*
X153018010Y-98740532D01*
X153011474Y-98742713D01*
X153011472Y-98742713D01*
X152891192Y-98782842D01*
X152849346Y-98796803D01*
X152698150Y-98890366D01*
X152572534Y-99016201D01*
X152479236Y-99167560D01*
X152423259Y-99336322D01*
X152412500Y-99441334D01*
X152412500Y-100558666D01*
X152412837Y-100561912D01*
X152412837Y-100561916D01*
X152422686Y-100656833D01*
X152423532Y-100664990D01*
X152479803Y-100833654D01*
X152573366Y-100984850D01*
X152699201Y-101110466D01*
X152705431Y-101114306D01*
X152705432Y-101114307D01*
X152741834Y-101136745D01*
X152850560Y-101203764D01*
X152857508Y-101206069D01*
X152857509Y-101206069D01*
X153012791Y-101257575D01*
X153012793Y-101257576D01*
X153019322Y-101259741D01*
X153124334Y-101270500D01*
X155003666Y-101270500D01*
X155006912Y-101270163D01*
X155006916Y-101270163D01*
X155103132Y-101260180D01*
X155103136Y-101260179D01*
X155109990Y-101259468D01*
X155116526Y-101257287D01*
X155116528Y-101257287D01*
X155248277Y-101213332D01*
X155278654Y-101203197D01*
X155429850Y-101109634D01*
X155493891Y-101045482D01*
X155556172Y-101011403D01*
X155583063Y-101008500D01*
X155808425Y-101008500D01*
X155876546Y-101028502D01*
X155883990Y-101033674D01*
X155899746Y-101045482D01*
X155953295Y-101085615D01*
X156089684Y-101136745D01*
X156151866Y-101143500D01*
X159366000Y-101143500D01*
X159434121Y-101163502D01*
X159480614Y-101217158D01*
X159492000Y-101269500D01*
X159492000Y-111366000D01*
X159471998Y-111434121D01*
X159418342Y-111480614D01*
X159366000Y-111492000D01*
X140634000Y-111492000D01*
X140565879Y-111471998D01*
X140519386Y-111418342D01*
X140508000Y-111366000D01*
X140508000Y-109000000D01*
X141386526Y-109000000D01*
X141406391Y-109252403D01*
X141465495Y-109498591D01*
X141562384Y-109732502D01*
X141694672Y-109948376D01*
X141859102Y-110140898D01*
X142051624Y-110305328D01*
X142267498Y-110437616D01*
X142272068Y-110439509D01*
X142272072Y-110439511D01*
X142496836Y-110532611D01*
X142501409Y-110534505D01*
X142586032Y-110554821D01*
X142742784Y-110592454D01*
X142742790Y-110592455D01*
X142747597Y-110593609D01*
X142847416Y-110601465D01*
X142934345Y-110608307D01*
X142934352Y-110608307D01*
X142936801Y-110608500D01*
X143063199Y-110608500D01*
X143065648Y-110608307D01*
X143065655Y-110608307D01*
X143152584Y-110601465D01*
X143252403Y-110593609D01*
X143257210Y-110592455D01*
X143257216Y-110592454D01*
X143413968Y-110554821D01*
X143498591Y-110534505D01*
X143503164Y-110532611D01*
X143727928Y-110439511D01*
X143727932Y-110439509D01*
X143732502Y-110437616D01*
X143948376Y-110305328D01*
X144140898Y-110140898D01*
X144305328Y-109948376D01*
X144437616Y-109732502D01*
X144534505Y-109498591D01*
X144593609Y-109252403D01*
X144613474Y-109000000D01*
X155386526Y-109000000D01*
X155406391Y-109252403D01*
X155465495Y-109498591D01*
X155562384Y-109732502D01*
X155694672Y-109948376D01*
X155859102Y-110140898D01*
X156051624Y-110305328D01*
X156267498Y-110437616D01*
X156272068Y-110439509D01*
X156272072Y-110439511D01*
X156496836Y-110532611D01*
X156501409Y-110534505D01*
X156586032Y-110554821D01*
X156742784Y-110592454D01*
X156742790Y-110592455D01*
X156747597Y-110593609D01*
X156847416Y-110601465D01*
X156934345Y-110608307D01*
X156934352Y-110608307D01*
X156936801Y-110608500D01*
X157063199Y-110608500D01*
X157065648Y-110608307D01*
X157065655Y-110608307D01*
X157152584Y-110601465D01*
X157252403Y-110593609D01*
X157257210Y-110592455D01*
X157257216Y-110592454D01*
X157413968Y-110554821D01*
X157498591Y-110534505D01*
X157503164Y-110532611D01*
X157727928Y-110439511D01*
X157727932Y-110439509D01*
X157732502Y-110437616D01*
X157948376Y-110305328D01*
X158140898Y-110140898D01*
X158305328Y-109948376D01*
X158437616Y-109732502D01*
X158534505Y-109498591D01*
X158593609Y-109252403D01*
X158613474Y-109000000D01*
X158593609Y-108747597D01*
X158534505Y-108501409D01*
X158437616Y-108267498D01*
X158305328Y-108051624D01*
X158140898Y-107859102D01*
X157948376Y-107694672D01*
X157732502Y-107562384D01*
X157727932Y-107560491D01*
X157727928Y-107560489D01*
X157503164Y-107467389D01*
X157503162Y-107467388D01*
X157498591Y-107465495D01*
X157413968Y-107445179D01*
X157257216Y-107407546D01*
X157257210Y-107407545D01*
X157252403Y-107406391D01*
X157152584Y-107398535D01*
X157065655Y-107391693D01*
X157065648Y-107391693D01*
X157063199Y-107391500D01*
X156936801Y-107391500D01*
X156934352Y-107391693D01*
X156934345Y-107391693D01*
X156847416Y-107398535D01*
X156747597Y-107406391D01*
X156742790Y-107407545D01*
X156742784Y-107407546D01*
X156586032Y-107445179D01*
X156501409Y-107465495D01*
X156496838Y-107467388D01*
X156496836Y-107467389D01*
X156272072Y-107560489D01*
X156272068Y-107560491D01*
X156267498Y-107562384D01*
X156051624Y-107694672D01*
X155859102Y-107859102D01*
X155694672Y-108051624D01*
X155562384Y-108267498D01*
X155465495Y-108501409D01*
X155406391Y-108747597D01*
X155386526Y-109000000D01*
X144613474Y-109000000D01*
X144593609Y-108747597D01*
X144534505Y-108501409D01*
X144437616Y-108267498D01*
X144305328Y-108051624D01*
X144140898Y-107859102D01*
X143948376Y-107694672D01*
X143732502Y-107562384D01*
X143727932Y-107560491D01*
X143727928Y-107560489D01*
X143503164Y-107467389D01*
X143503162Y-107467388D01*
X143498591Y-107465495D01*
X143413968Y-107445179D01*
X143257216Y-107407546D01*
X143257210Y-107407545D01*
X143252403Y-107406391D01*
X143152584Y-107398535D01*
X143065655Y-107391693D01*
X143065648Y-107391693D01*
X143063199Y-107391500D01*
X142936801Y-107391500D01*
X142934352Y-107391693D01*
X142934345Y-107391693D01*
X142847416Y-107398535D01*
X142747597Y-107406391D01*
X142742790Y-107407545D01*
X142742784Y-107407546D01*
X142586032Y-107445179D01*
X142501409Y-107465495D01*
X142496838Y-107467388D01*
X142496836Y-107467389D01*
X142272072Y-107560489D01*
X142272068Y-107560491D01*
X142267498Y-107562384D01*
X142051624Y-107694672D01*
X141859102Y-107859102D01*
X141694672Y-108051624D01*
X141562384Y-108267498D01*
X141465495Y-108501409D01*
X141406391Y-108747597D01*
X141386526Y-109000000D01*
X140508000Y-109000000D01*
X140508000Y-101269500D01*
X140528002Y-101201379D01*
X140581658Y-101154886D01*
X140634000Y-101143500D01*
X143848134Y-101143500D01*
X143910316Y-101136745D01*
X144046705Y-101085615D01*
X144100255Y-101045482D01*
X144116010Y-101033674D01*
X144182517Y-101008826D01*
X144191575Y-101008500D01*
X144416930Y-101008500D01*
X144485051Y-101028502D01*
X144505948Y-101045327D01*
X144540911Y-101080229D01*
X144571201Y-101110466D01*
X144577431Y-101114306D01*
X144577432Y-101114307D01*
X144613834Y-101136745D01*
X144722560Y-101203764D01*
X144729508Y-101206069D01*
X144729509Y-101206069D01*
X144884791Y-101257575D01*
X144884793Y-101257576D01*
X144891322Y-101259741D01*
X144996334Y-101270500D01*
X146875666Y-101270500D01*
X146878912Y-101270163D01*
X146878916Y-101270163D01*
X146975132Y-101260180D01*
X146975136Y-101260179D01*
X146981990Y-101259468D01*
X146988526Y-101257287D01*
X146988528Y-101257287D01*
X147120277Y-101213332D01*
X147150654Y-101203197D01*
X147301850Y-101109634D01*
X147427466Y-100983799D01*
X147520764Y-100832440D01*
X147576741Y-100663678D01*
X147587500Y-100558666D01*
X147587500Y-99441334D01*
X147587163Y-99438084D01*
X147577180Y-99341868D01*
X147577179Y-99341864D01*
X147576468Y-99335010D01*
X147520197Y-99166346D01*
X147426634Y-99015150D01*
X147300799Y-98889534D01*
X147262667Y-98866029D01*
X147214758Y-98836498D01*
X147149440Y-98796236D01*
X147142491Y-98793931D01*
X146987209Y-98742425D01*
X146987207Y-98742424D01*
X146980678Y-98740259D01*
X146875666Y-98729500D01*
X144996334Y-98729500D01*
X144993088Y-98729837D01*
X144993084Y-98729837D01*
X144896868Y-98739820D01*
X144896864Y-98739821D01*
X144890010Y-98740532D01*
X144883474Y-98742713D01*
X144883472Y-98742713D01*
X144763192Y-98782842D01*
X144721346Y-98796803D01*
X144570150Y-98890366D01*
X144564977Y-98895548D01*
X144506110Y-98954518D01*
X144443828Y-98988597D01*
X144416937Y-98991500D01*
X144191575Y-98991500D01*
X144123454Y-98971498D01*
X144116010Y-98966326D01*
X144053892Y-98919771D01*
X144053890Y-98919770D01*
X144046705Y-98914385D01*
X143910316Y-98863255D01*
X143848134Y-98856500D01*
X140634000Y-98856500D01*
X140565879Y-98836498D01*
X140519386Y-98782842D01*
X140508000Y-98730500D01*
X140508000Y-91000000D01*
X141386526Y-91000000D01*
X141406391Y-91252403D01*
X141465495Y-91498591D01*
X141562384Y-91732502D01*
X141694672Y-91948376D01*
X141859102Y-92140898D01*
X142051624Y-92305328D01*
X142267498Y-92437616D01*
X142272068Y-92439509D01*
X142272072Y-92439511D01*
X142496836Y-92532611D01*
X142501409Y-92534505D01*
X142586032Y-92554821D01*
X142742784Y-92592454D01*
X142742790Y-92592455D01*
X142747597Y-92593609D01*
X142847416Y-92601465D01*
X142934345Y-92608307D01*
X142934352Y-92608307D01*
X142936801Y-92608500D01*
X143063199Y-92608500D01*
X143065648Y-92608307D01*
X143065655Y-92608307D01*
X143152584Y-92601465D01*
X143252403Y-92593609D01*
X143257210Y-92592455D01*
X143257216Y-92592454D01*
X143413968Y-92554821D01*
X143498591Y-92534505D01*
X143503164Y-92532611D01*
X143727928Y-92439511D01*
X143727932Y-92439509D01*
X143732502Y-92437616D01*
X143948376Y-92305328D01*
X144140898Y-92140898D01*
X144305328Y-91948376D01*
X144437616Y-91732502D01*
X144534505Y-91498591D01*
X144593609Y-91252403D01*
X144613474Y-91000000D01*
X155386526Y-91000000D01*
X155406391Y-91252403D01*
X155465495Y-91498591D01*
X155562384Y-91732502D01*
X155694672Y-91948376D01*
X155859102Y-92140898D01*
X156051624Y-92305328D01*
X156267498Y-92437616D01*
X156272068Y-92439509D01*
X156272072Y-92439511D01*
X156496836Y-92532611D01*
X156501409Y-92534505D01*
X156586032Y-92554821D01*
X156742784Y-92592454D01*
X156742790Y-92592455D01*
X156747597Y-92593609D01*
X156847416Y-92601465D01*
X156934345Y-92608307D01*
X156934352Y-92608307D01*
X156936801Y-92608500D01*
X157063199Y-92608500D01*
X157065648Y-92608307D01*
X157065655Y-92608307D01*
X157152584Y-92601465D01*
X157252403Y-92593609D01*
X157257210Y-92592455D01*
X157257216Y-92592454D01*
X157413968Y-92554821D01*
X157498591Y-92534505D01*
X157503164Y-92532611D01*
X157727928Y-92439511D01*
X157727932Y-92439509D01*
X157732502Y-92437616D01*
X157948376Y-92305328D01*
X158140898Y-92140898D01*
X158305328Y-91948376D01*
X158437616Y-91732502D01*
X158534505Y-91498591D01*
X158593609Y-91252403D01*
X158613474Y-91000000D01*
X158593609Y-90747597D01*
X158534505Y-90501409D01*
X158437616Y-90267498D01*
X158305328Y-90051624D01*
X158140898Y-89859102D01*
X157948376Y-89694672D01*
X157732502Y-89562384D01*
X157727932Y-89560491D01*
X157727928Y-89560489D01*
X157503164Y-89467389D01*
X157503162Y-89467388D01*
X157498591Y-89465495D01*
X157413968Y-89445179D01*
X157257216Y-89407546D01*
X157257210Y-89407545D01*
X157252403Y-89406391D01*
X157152584Y-89398535D01*
X157065655Y-89391693D01*
X157065648Y-89391693D01*
X157063199Y-89391500D01*
X156936801Y-89391500D01*
X156934352Y-89391693D01*
X156934345Y-89391693D01*
X156847416Y-89398535D01*
X156747597Y-89406391D01*
X156742790Y-89407545D01*
X156742784Y-89407546D01*
X156586032Y-89445179D01*
X156501409Y-89465495D01*
X156496838Y-89467388D01*
X156496836Y-89467389D01*
X156272072Y-89560489D01*
X156272068Y-89560491D01*
X156267498Y-89562384D01*
X156051624Y-89694672D01*
X155859102Y-89859102D01*
X155694672Y-90051624D01*
X155562384Y-90267498D01*
X155465495Y-90501409D01*
X155406391Y-90747597D01*
X155386526Y-91000000D01*
X144613474Y-91000000D01*
X144593609Y-90747597D01*
X144534505Y-90501409D01*
X144437616Y-90267498D01*
X144305328Y-90051624D01*
X144140898Y-89859102D01*
X143948376Y-89694672D01*
X143732502Y-89562384D01*
X143727932Y-89560491D01*
X143727928Y-89560489D01*
X143503164Y-89467389D01*
X143503162Y-89467388D01*
X143498591Y-89465495D01*
X143413968Y-89445179D01*
X143257216Y-89407546D01*
X143257210Y-89407545D01*
X143252403Y-89406391D01*
X143152584Y-89398535D01*
X143065655Y-89391693D01*
X143065648Y-89391693D01*
X143063199Y-89391500D01*
X142936801Y-89391500D01*
X142934352Y-89391693D01*
X142934345Y-89391693D01*
X142847416Y-89398535D01*
X142747597Y-89406391D01*
X142742790Y-89407545D01*
X142742784Y-89407546D01*
X142586032Y-89445179D01*
X142501409Y-89465495D01*
X142496838Y-89467388D01*
X142496836Y-89467389D01*
X142272072Y-89560489D01*
X142272068Y-89560491D01*
X142267498Y-89562384D01*
X142051624Y-89694672D01*
X141859102Y-89859102D01*
X141694672Y-90051624D01*
X141562384Y-90267498D01*
X141465495Y-90501409D01*
X141406391Y-90747597D01*
X141386526Y-91000000D01*
X140508000Y-91000000D01*
X140508000Y-88634000D01*
X140528002Y-88565879D01*
X140581658Y-88519386D01*
X140634000Y-88508000D01*
X159366000Y-88508000D01*
X159434121Y-88528002D01*
G37*
%TD.AperFunction*%
%TD*%
M02*
