%TF.GenerationSoftware,KiCad,Pcbnew,(6.0.0)*%
%TF.CreationDate,2022-01-16T13:24:38+00:00*%
%TF.ProjectId,RBP-140+,5242502d-3134-4302-9b2e-6b696361645f,rev?*%
%TF.SameCoordinates,Original*%
%TF.FileFunction,Legend,Top*%
%TF.FilePolarity,Positive*%
%FSLAX46Y46*%
G04 Gerber Fmt 4.6, Leading zero omitted, Abs format (unit mm)*
G04 Created by KiCad (PCBNEW (6.0.0)) date 2022-01-16 13:24:38*
%MOMM*%
%LPD*%
G01*
G04 APERTURE LIST*
%ADD10C,0.250000*%
%ADD11C,0.150000*%
%ADD12C,0.120000*%
G04 APERTURE END LIST*
D10*
X141157142Y-94742857D02*
X141157142Y-93542857D01*
X141728571Y-93942857D02*
X141728571Y-94742857D01*
X141728571Y-94057142D02*
X141785714Y-94000000D01*
X141900000Y-93942857D01*
X142071428Y-93942857D01*
X142185714Y-94000000D01*
X142242857Y-94114285D01*
X142242857Y-94742857D01*
X156600000Y-93492857D02*
X156828571Y-93492857D01*
X156942857Y-93550000D01*
X157057142Y-93664285D01*
X157114285Y-93892857D01*
X157114285Y-94292857D01*
X157057142Y-94521428D01*
X156942857Y-94635714D01*
X156828571Y-94692857D01*
X156600000Y-94692857D01*
X156485714Y-94635714D01*
X156371428Y-94521428D01*
X156314285Y-94292857D01*
X156314285Y-93892857D01*
X156371428Y-93664285D01*
X156485714Y-93550000D01*
X156600000Y-93492857D01*
X158142857Y-93892857D02*
X158142857Y-94692857D01*
X157628571Y-93892857D02*
X157628571Y-94521428D01*
X157685714Y-94635714D01*
X157800000Y-94692857D01*
X157971428Y-94692857D01*
X158085714Y-94635714D01*
X158142857Y-94578571D01*
X158542857Y-93892857D02*
X159000000Y-93892857D01*
X158714285Y-93492857D02*
X158714285Y-94521428D01*
X158771428Y-94635714D01*
X158885714Y-94692857D01*
X159000000Y-94692857D01*
X145114285Y-106776857D02*
X144714285Y-106205428D01*
X144428571Y-106776857D02*
X144428571Y-105576857D01*
X144885714Y-105576857D01*
X145000000Y-105634000D01*
X145057142Y-105691142D01*
X145114285Y-105805428D01*
X145114285Y-105976857D01*
X145057142Y-106091142D01*
X145000000Y-106148285D01*
X144885714Y-106205428D01*
X144428571Y-106205428D01*
X146028571Y-106148285D02*
X145628571Y-106148285D01*
X145628571Y-106776857D02*
X145628571Y-105576857D01*
X146200000Y-105576857D01*
X147971428Y-106148285D02*
X148142857Y-106205428D01*
X148200000Y-106262571D01*
X148257142Y-106376857D01*
X148257142Y-106548285D01*
X148200000Y-106662571D01*
X148142857Y-106719714D01*
X148028571Y-106776857D01*
X147571428Y-106776857D01*
X147571428Y-105576857D01*
X147971428Y-105576857D01*
X148085714Y-105634000D01*
X148142857Y-105691142D01*
X148200000Y-105805428D01*
X148200000Y-105919714D01*
X148142857Y-106034000D01*
X148085714Y-106091142D01*
X147971428Y-106148285D01*
X147571428Y-106148285D01*
X149285714Y-106776857D02*
X149285714Y-106148285D01*
X149228571Y-106034000D01*
X149114285Y-105976857D01*
X148885714Y-105976857D01*
X148771428Y-106034000D01*
X149285714Y-106719714D02*
X149171428Y-106776857D01*
X148885714Y-106776857D01*
X148771428Y-106719714D01*
X148714285Y-106605428D01*
X148714285Y-106491142D01*
X148771428Y-106376857D01*
X148885714Y-106319714D01*
X149171428Y-106319714D01*
X149285714Y-106262571D01*
X149857142Y-105976857D02*
X149857142Y-106776857D01*
X149857142Y-106091142D02*
X149914285Y-106034000D01*
X150028571Y-105976857D01*
X150200000Y-105976857D01*
X150314285Y-106034000D01*
X150371428Y-106148285D01*
X150371428Y-106776857D01*
X151457142Y-106776857D02*
X151457142Y-105576857D01*
X151457142Y-106719714D02*
X151342857Y-106776857D01*
X151114285Y-106776857D01*
X151000000Y-106719714D01*
X150942857Y-106662571D01*
X150885714Y-106548285D01*
X150885714Y-106205428D01*
X150942857Y-106091142D01*
X151000000Y-106034000D01*
X151114285Y-105976857D01*
X151342857Y-105976857D01*
X151457142Y-106034000D01*
X152028571Y-105976857D02*
X152028571Y-107176857D01*
X152028571Y-106034000D02*
X152142857Y-105976857D01*
X152371428Y-105976857D01*
X152485714Y-106034000D01*
X152542857Y-106091142D01*
X152600000Y-106205428D01*
X152600000Y-106548285D01*
X152542857Y-106662571D01*
X152485714Y-106719714D01*
X152371428Y-106776857D01*
X152142857Y-106776857D01*
X152028571Y-106719714D01*
X153628571Y-106776857D02*
X153628571Y-106148285D01*
X153571428Y-106034000D01*
X153457142Y-105976857D01*
X153228571Y-105976857D01*
X153114285Y-106034000D01*
X153628571Y-106719714D02*
X153514285Y-106776857D01*
X153228571Y-106776857D01*
X153114285Y-106719714D01*
X153057142Y-106605428D01*
X153057142Y-106491142D01*
X153114285Y-106376857D01*
X153228571Y-106319714D01*
X153514285Y-106319714D01*
X153628571Y-106262571D01*
X154142857Y-106719714D02*
X154257142Y-106776857D01*
X154485714Y-106776857D01*
X154600000Y-106719714D01*
X154657142Y-106605428D01*
X154657142Y-106548285D01*
X154600000Y-106434000D01*
X154485714Y-106376857D01*
X154314285Y-106376857D01*
X154200000Y-106319714D01*
X154142857Y-106205428D01*
X154142857Y-106148285D01*
X154200000Y-106034000D01*
X154314285Y-105976857D01*
X154485714Y-105976857D01*
X154600000Y-106034000D01*
X155114285Y-106719714D02*
X155228571Y-106776857D01*
X155457142Y-106776857D01*
X155571428Y-106719714D01*
X155628571Y-106605428D01*
X155628571Y-106548285D01*
X155571428Y-106434000D01*
X155457142Y-106376857D01*
X155285714Y-106376857D01*
X155171428Y-106319714D01*
X155114285Y-106205428D01*
X155114285Y-106148285D01*
X155171428Y-106034000D01*
X155285714Y-105976857D01*
X155457142Y-105976857D01*
X155571428Y-106034000D01*
X148342857Y-108080285D02*
X147942857Y-108080285D01*
X147942857Y-108708857D02*
X147942857Y-107508857D01*
X148514285Y-107508857D01*
X148971428Y-108708857D02*
X148971428Y-107908857D01*
X148971428Y-107508857D02*
X148914285Y-107566000D01*
X148971428Y-107623142D01*
X149028571Y-107566000D01*
X148971428Y-107508857D01*
X148971428Y-107623142D01*
X149714285Y-108708857D02*
X149600000Y-108651714D01*
X149542857Y-108537428D01*
X149542857Y-107508857D01*
X150000000Y-107908857D02*
X150457142Y-107908857D01*
X150171428Y-107508857D02*
X150171428Y-108537428D01*
X150228571Y-108651714D01*
X150342857Y-108708857D01*
X150457142Y-108708857D01*
X151314285Y-108651714D02*
X151200000Y-108708857D01*
X150971428Y-108708857D01*
X150857142Y-108651714D01*
X150800000Y-108537428D01*
X150800000Y-108080285D01*
X150857142Y-107966000D01*
X150971428Y-107908857D01*
X151200000Y-107908857D01*
X151314285Y-107966000D01*
X151371428Y-108080285D01*
X151371428Y-108194571D01*
X150800000Y-108308857D01*
X151885714Y-108708857D02*
X151885714Y-107908857D01*
X151885714Y-108137428D02*
X151942857Y-108023142D01*
X152000000Y-107966000D01*
X152114285Y-107908857D01*
X152228571Y-107908857D01*
D11*
%TO.C,J1*%
X142116666Y-105052380D02*
X142116666Y-105766666D01*
X142069047Y-105909523D01*
X141973809Y-106004761D01*
X141830952Y-106052380D01*
X141735714Y-106052380D01*
X143116666Y-106052380D02*
X142545238Y-106052380D01*
X142830952Y-106052380D02*
X142830952Y-105052380D01*
X142735714Y-105195238D01*
X142640476Y-105290476D01*
X142545238Y-105338095D01*
%TO.C,FL1*%
X149261904Y-93959571D02*
X148928571Y-93959571D01*
X148928571Y-94483380D02*
X148928571Y-93483380D01*
X149404761Y-93483380D01*
X150261904Y-94483380D02*
X149785714Y-94483380D01*
X149785714Y-93483380D01*
X151119047Y-94483380D02*
X150547619Y-94483380D01*
X150833333Y-94483380D02*
X150833333Y-93483380D01*
X150738095Y-93626238D01*
X150642857Y-93721476D01*
X150547619Y-93769095D01*
%TO.C,J2*%
X157116666Y-105102380D02*
X157116666Y-105816666D01*
X157069047Y-105959523D01*
X156973809Y-106054761D01*
X156830952Y-106102380D01*
X156735714Y-106102380D01*
X157545238Y-105197619D02*
X157592857Y-105150000D01*
X157688095Y-105102380D01*
X157926190Y-105102380D01*
X158021428Y-105150000D01*
X158069047Y-105197619D01*
X158116666Y-105292857D01*
X158116666Y-105388095D01*
X158069047Y-105530952D01*
X157497619Y-106102380D01*
X158116666Y-106102380D01*
D12*
%TO.C,J1*%
X143910000Y-98050000D02*
X143910000Y-99160000D01*
X144960000Y-100250000D02*
X144960000Y-99750000D01*
X144960000Y-99750000D02*
X144460000Y-100000000D01*
X140200000Y-100840000D02*
X140200000Y-101950000D01*
X143910000Y-100840000D02*
X143910000Y-101950000D01*
X144460000Y-100000000D02*
X144960000Y-100250000D01*
X140200000Y-98050000D02*
X140200000Y-99160000D01*
%TO.C,FL1*%
X155200000Y-105200000D02*
X155200000Y-104000000D01*
X155200000Y-105200000D02*
X144800000Y-105200000D01*
X144800000Y-104000000D02*
X144800000Y-105200000D01*
X155200000Y-96000000D02*
X155200000Y-94800000D01*
X144800000Y-94800000D02*
X144800000Y-98600000D01*
X144800000Y-94800000D02*
X155200000Y-94800000D01*
%TO.C,J2*%
X155040000Y-100250000D02*
X155540000Y-100000000D01*
X156090000Y-101950000D02*
X156090000Y-100840000D01*
X155540000Y-100000000D02*
X155040000Y-99750000D01*
X155040000Y-99750000D02*
X155040000Y-100250000D01*
X159800000Y-101950000D02*
X159800000Y-100840000D01*
X159800000Y-99160000D02*
X159800000Y-98050000D01*
X156090000Y-99160000D02*
X156090000Y-98050000D01*
%TD*%
M02*
