%TF.GenerationSoftware,KiCad,Pcbnew,7.0.7*%
%TF.CreationDate,2024-02-03T17:25:47+00:00*%
%TF.ProjectId,LPF_Relay,4c50465f-5265-46c6-9179-2e6b69636164,rev?*%
%TF.SameCoordinates,Original*%
%TF.FileFunction,Copper,L1,Top*%
%TF.FilePolarity,Positive*%
%FSLAX46Y46*%
G04 Gerber Fmt 4.6, Leading zero omitted, Abs format (unit mm)*
G04 Created by KiCad (PCBNEW 7.0.7) date 2024-02-03 17:25:47*
%MOMM*%
%LPD*%
G01*
G04 APERTURE LIST*
G04 Aperture macros list*
%AMRoundRect*
0 Rectangle with rounded corners*
0 $1 Rounding radius*
0 $2 $3 $4 $5 $6 $7 $8 $9 X,Y pos of 4 corners*
0 Add a 4 corners polygon primitive as box body*
4,1,4,$2,$3,$4,$5,$6,$7,$8,$9,$2,$3,0*
0 Add four circle primitives for the rounded corners*
1,1,$1+$1,$2,$3*
1,1,$1+$1,$4,$5*
1,1,$1+$1,$6,$7*
1,1,$1+$1,$8,$9*
0 Add four rect primitives between the rounded corners*
20,1,$1+$1,$2,$3,$4,$5,0*
20,1,$1+$1,$4,$5,$6,$7,0*
20,1,$1+$1,$6,$7,$8,$9,0*
20,1,$1+$1,$8,$9,$2,$3,0*%
G04 Aperture macros list end*
%TA.AperFunction,SMDPad,CuDef*%
%ADD10RoundRect,0.218750X0.218750X0.256250X-0.218750X0.256250X-0.218750X-0.256250X0.218750X-0.256250X0*%
%TD*%
%TA.AperFunction,ComponentPad*%
%ADD11RoundRect,0.250000X0.725000X-0.600000X0.725000X0.600000X-0.725000X0.600000X-0.725000X-0.600000X0*%
%TD*%
%TA.AperFunction,ComponentPad*%
%ADD12O,1.950000X1.700000*%
%TD*%
%TA.AperFunction,SMDPad,CuDef*%
%ADD13RoundRect,0.225000X0.225000X0.250000X-0.225000X0.250000X-0.225000X-0.250000X0.225000X-0.250000X0*%
%TD*%
%TA.AperFunction,SMDPad,CuDef*%
%ADD14RoundRect,0.250000X-0.300000X-0.300000X0.300000X-0.300000X0.300000X0.300000X-0.300000X0.300000X0*%
%TD*%
%TA.AperFunction,SMDPad,CuDef*%
%ADD15RoundRect,0.250000X-1.500000X0.250000X-1.500000X-0.250000X1.500000X-0.250000X1.500000X0.250000X0*%
%TD*%
%TA.AperFunction,SMDPad,CuDef*%
%ADD16RoundRect,0.250001X-1.449999X0.499999X-1.449999X-0.499999X1.449999X-0.499999X1.449999X0.499999X0*%
%TD*%
%TA.AperFunction,SMDPad,CuDef*%
%ADD17RoundRect,0.150000X-0.725000X-0.150000X0.725000X-0.150000X0.725000X0.150000X-0.725000X0.150000X0*%
%TD*%
%TA.AperFunction,ComponentPad*%
%ADD18C,5.600000*%
%TD*%
%TA.AperFunction,SMDPad,CuDef*%
%ADD19RoundRect,0.200000X0.200000X0.275000X-0.200000X0.275000X-0.200000X-0.275000X0.200000X-0.275000X0*%
%TD*%
%TA.AperFunction,SMDPad,CuDef*%
%ADD20RoundRect,0.225000X-0.250000X0.225000X-0.250000X-0.225000X0.250000X-0.225000X0.250000X0.225000X0*%
%TD*%
%TA.AperFunction,SMDPad,CuDef*%
%ADD21R,0.700000X1.000000*%
%TD*%
%TA.AperFunction,SMDPad,CuDef*%
%ADD22R,0.700000X0.600000*%
%TD*%
%TA.AperFunction,SMDPad,CuDef*%
%ADD23RoundRect,0.200000X-0.200000X-0.275000X0.200000X-0.275000X0.200000X0.275000X-0.200000X0.275000X0*%
%TD*%
%TA.AperFunction,SMDPad,CuDef*%
%ADD24R,1.750000X0.450000*%
%TD*%
%TA.AperFunction,ComponentPad*%
%ADD25RoundRect,0.250000X-0.750000X0.600000X-0.750000X-0.600000X0.750000X-0.600000X0.750000X0.600000X0*%
%TD*%
%TA.AperFunction,ComponentPad*%
%ADD26O,2.000000X1.700000*%
%TD*%
%TA.AperFunction,SMDPad,CuDef*%
%ADD27RoundRect,0.250000X-0.250000X-1.500000X0.250000X-1.500000X0.250000X1.500000X-0.250000X1.500000X0*%
%TD*%
%TA.AperFunction,SMDPad,CuDef*%
%ADD28RoundRect,0.250001X-0.499999X-1.449999X0.499999X-1.449999X0.499999X1.449999X-0.499999X1.449999X0*%
%TD*%
%TA.AperFunction,SMDPad,CuDef*%
%ADD29RoundRect,0.250000X-0.300000X0.300000X-0.300000X-0.300000X0.300000X-0.300000X0.300000X0.300000X0*%
%TD*%
%TA.AperFunction,SMDPad,CuDef*%
%ADD30RoundRect,0.243750X0.243750X0.456250X-0.243750X0.456250X-0.243750X-0.456250X0.243750X-0.456250X0*%
%TD*%
%TA.AperFunction,ViaPad*%
%ADD31C,0.800000*%
%TD*%
%TA.AperFunction,ViaPad*%
%ADD32C,1.000000*%
%TD*%
%TA.AperFunction,Conductor*%
%ADD33C,0.500000*%
%TD*%
%TA.AperFunction,Conductor*%
%ADD34C,1.000000*%
%TD*%
%TA.AperFunction,Conductor*%
%ADD35C,0.400000*%
%TD*%
G04 APERTURE END LIST*
D10*
%TO.P,L1,1,1*%
%TO.N,+3.3V*%
X36717500Y-39130000D03*
%TO.P,L1,2,2*%
%TO.N,Net-(J1-Pin_3)*%
X35142500Y-39130000D03*
%TD*%
D11*
%TO.P,J5,1,Pin_1*%
%TO.N,Net-(D11-K)*%
X67150000Y-25000000D03*
D12*
%TO.P,J5,2,Pin_2*%
%TO.N,Net-(D10-K)*%
X67150000Y-22500000D03*
%TO.P,J5,3,Pin_3*%
%TO.N,Net-(D9-K)*%
X67150000Y-20000000D03*
%TO.P,J5,4,Pin_4*%
%TO.N,Net-(D8-K)*%
X67150000Y-17500000D03*
%TO.P,J5,5,Pin_5*%
%TO.N,Net-(D7-K)*%
X67150000Y-15000000D03*
%TO.P,J5,6,Pin_6*%
%TO.N,Net-(D5-K)*%
X67150000Y-12500000D03*
%TD*%
D13*
%TO.P,C15,1*%
%TO.N,Net-(U2-O5)*%
X50345000Y-10140000D03*
%TO.P,C15,2*%
%TO.N,GND*%
X48795000Y-10140000D03*
%TD*%
D14*
%TO.P,D9,1,K*%
%TO.N,Net-(D9-K)*%
X57112500Y-21036000D03*
%TO.P,D9,2,A*%
%TO.N,GND*%
X59912500Y-21036000D03*
%TD*%
D15*
%TO.P,J2,1,Pin_1*%
%TO.N,Net-(J1-Pin_1)*%
X8150000Y-29460000D03*
%TO.P,J2,2,Pin_2*%
%TO.N,Net-(J1-Pin_2)*%
X8150000Y-31460000D03*
%TO.P,J2,3,Pin_3*%
%TO.N,Net-(J1-Pin_3)*%
X8150000Y-33460000D03*
%TO.P,J2,4,Pin_4*%
%TO.N,GND*%
X8150000Y-35460000D03*
D16*
%TO.P,J2,MP*%
%TO.N,N/C*%
X2400000Y-27110000D03*
X2400000Y-37810000D03*
%TD*%
D14*
%TO.P,D5,1,K*%
%TO.N,Net-(D5-K)*%
X57112500Y-10140000D03*
%TO.P,D5,2,A*%
%TO.N,GND*%
X59912500Y-10140000D03*
%TD*%
%TO.P,D11,1,K*%
%TO.N,Net-(D11-K)*%
X57112500Y-28300000D03*
%TO.P,D11,2,A*%
%TO.N,GND*%
X59912500Y-28300000D03*
%TD*%
D13*
%TO.P,C14,1*%
%TO.N,Net-(U2-O7)*%
X50195000Y-32970000D03*
%TO.P,C14,2*%
%TO.N,GND*%
X48645000Y-32970000D03*
%TD*%
D17*
%TO.P,U2,1,I1*%
%TO.N,Net-(U1-GPB0)*%
X34585000Y-13245000D03*
%TO.P,U2,2,I2*%
%TO.N,Net-(U1-GPB1)*%
X34585000Y-14515000D03*
%TO.P,U2,3,I3*%
%TO.N,Net-(U1-GPB2)*%
X34585000Y-15785000D03*
%TO.P,U2,4,I4*%
%TO.N,Net-(U1-GPB3)*%
X34585000Y-17055000D03*
%TO.P,U2,5,I5*%
%TO.N,Net-(U1-GPB4)*%
X34585000Y-18325000D03*
%TO.P,U2,6,I6*%
%TO.N,Net-(U1-GPA0)*%
X34585000Y-19595000D03*
%TO.P,U2,7,I7*%
%TO.N,Net-(U1-GPA1)*%
X34585000Y-20865000D03*
%TO.P,U2,8,GND*%
%TO.N,GND*%
X34585000Y-22135000D03*
%TO.P,U2,9,COM*%
%TO.N,Net-(U2-COM)*%
X39735000Y-22135000D03*
%TO.P,U2,10,O7*%
%TO.N,Net-(U2-O7)*%
X39735000Y-20865000D03*
%TO.P,U2,11,O6*%
%TO.N,Net-(U2-O6)*%
X39735000Y-19595000D03*
%TO.P,U2,12,O5*%
%TO.N,Net-(U2-O5)*%
X39735000Y-18325000D03*
%TO.P,U2,13,O4*%
%TO.N,Net-(U2-O4)*%
X39735000Y-17055000D03*
%TO.P,U2,14,O3*%
%TO.N,Net-(U2-O3)*%
X39735000Y-15785000D03*
%TO.P,U2,15,O2*%
%TO.N,Net-(U2-O2)*%
X39735000Y-14515000D03*
%TO.P,U2,16,O1*%
%TO.N,Net-(U2-O1)*%
X39735000Y-13245000D03*
%TD*%
D18*
%TO.P,H1,1,1*%
%TO.N,GND*%
X5000000Y-45000000D03*
%TD*%
D19*
%TO.P,R6,1*%
%TO.N,+3.3V*%
X35630000Y-29230000D03*
%TO.P,R6,2*%
%TO.N,Net-(U1-A2)*%
X33980000Y-29230000D03*
%TD*%
D20*
%TO.P,C1,1*%
%TO.N,Net-(J1-Pin_3)*%
X32690000Y-39100000D03*
%TO.P,C1,2*%
%TO.N,GND*%
X32690000Y-40650000D03*
%TD*%
D19*
%TO.P,R3,1*%
%TO.N,+3.3V*%
X35630000Y-31780000D03*
%TO.P,R3,2*%
%TO.N,Net-(U1-A1)*%
X33980000Y-31780000D03*
%TD*%
D10*
%TO.P,L5,1,1*%
%TO.N,Net-(D3-K)*%
X54287500Y-32970000D03*
%TO.P,L5,2,2*%
%TO.N,Net-(U2-O7)*%
X52712500Y-32970000D03*
%TD*%
D14*
%TO.P,D6,1,K*%
%TO.N,Net-(D6-K)*%
X57132500Y-40610000D03*
%TO.P,D6,2,A*%
%TO.N,GND*%
X59932500Y-40610000D03*
%TD*%
D20*
%TO.P,C3,1*%
%TO.N,Net-(J1-Pin_3)*%
X29890000Y-39100000D03*
%TO.P,C3,2*%
%TO.N,GND*%
X29890000Y-40650000D03*
%TD*%
D13*
%TO.P,C11,1*%
%TO.N,Net-(U2-O3)*%
X50345000Y-17406389D03*
%TO.P,C11,2*%
%TO.N,GND*%
X48795000Y-17406389D03*
%TD*%
D18*
%TO.P,H2,1,1*%
%TO.N,GND*%
X5000000Y-5000000D03*
%TD*%
D11*
%TO.P,J4,1,Pin_1*%
%TO.N,Net-(D6-K)*%
X67150000Y-37500000D03*
D12*
%TO.P,J4,2,Pin_2*%
%TO.N,Net-(D4-K)*%
X67150000Y-35000000D03*
%TO.P,J4,3,Pin_3*%
%TO.N,Net-(D3-K)*%
X67150000Y-32500000D03*
%TD*%
D20*
%TO.P,C2,1*%
%TO.N,+3.3V*%
X39700000Y-39040000D03*
%TO.P,C2,2*%
%TO.N,GND*%
X39700000Y-40590000D03*
%TD*%
D19*
%TO.P,R9,1*%
%TO.N,+3.3V*%
X35630000Y-26740000D03*
%TO.P,R9,2*%
%TO.N,Net-(U1-~{RESET})*%
X33980000Y-26740000D03*
%TD*%
D21*
%TO.P,D1,1,A*%
%TO.N,GND*%
X13320000Y-35930000D03*
D22*
%TO.P,D1,2,K*%
%TO.N,Net-(J1-Pin_3)*%
X13320000Y-37630000D03*
%TO.P,D1,3,K*%
%TO.N,Net-(J1-Pin_2)*%
X15320000Y-37630000D03*
%TO.P,D1,4,K*%
%TO.N,Net-(J1-Pin_1)*%
X15320000Y-35730000D03*
%TD*%
D20*
%TO.P,C6,1*%
%TO.N,Net-(U2-COM)*%
X26140000Y-9120000D03*
%TO.P,C6,2*%
%TO.N,GND*%
X26140000Y-10670000D03*
%TD*%
D10*
%TO.P,L3,1,1*%
%TO.N,Net-(D6-K)*%
X54287500Y-40700000D03*
%TO.P,L3,2,2*%
%TO.N,Net-(U2-COM)*%
X52712500Y-40700000D03*
%TD*%
D23*
%TO.P,R5,1*%
%TO.N,+3.3V*%
X13545000Y-30490000D03*
%TO.P,R5,2*%
%TO.N,Net-(J1-Pin_1)*%
X15195000Y-30490000D03*
%TD*%
D10*
%TO.P,L2,1,1*%
%TO.N,Net-(U2-COM)*%
X23947500Y-9120000D03*
%TO.P,L2,2,2*%
%TO.N,Net-(D2-K)*%
X22372500Y-9120000D03*
%TD*%
D13*
%TO.P,C13,1*%
%TO.N,Net-(U2-O4)*%
X50345000Y-13775186D03*
%TO.P,C13,2*%
%TO.N,GND*%
X48795000Y-13775186D03*
%TD*%
D20*
%TO.P,C4,1*%
%TO.N,+3.3V*%
X17530000Y-28850000D03*
%TO.P,C4,2*%
%TO.N,GND*%
X17530000Y-30400000D03*
%TD*%
D13*
%TO.P,C9,1*%
%TO.N,Net-(U2-O2)*%
X50345000Y-20950000D03*
%TO.P,C9,2*%
%TO.N,GND*%
X48795000Y-20950000D03*
%TD*%
D10*
%TO.P,L10,1,1*%
%TO.N,Net-(D7-K)*%
X54327500Y-13775186D03*
%TO.P,L10,2,2*%
%TO.N,Net-(U2-O4)*%
X52752500Y-13775186D03*
%TD*%
D24*
%TO.P,U1,1,GPB0*%
%TO.N,Net-(U1-GPB0)*%
X20250000Y-23460000D03*
%TO.P,U1,2,GPB1*%
%TO.N,Net-(U1-GPB1)*%
X20250000Y-24110000D03*
%TO.P,U1,3,GPB2*%
%TO.N,Net-(U1-GPB2)*%
X20250000Y-24760000D03*
%TO.P,U1,4,GPB3*%
%TO.N,Net-(U1-GPB3)*%
X20250000Y-25410000D03*
%TO.P,U1,5,GPB4*%
%TO.N,Net-(U1-GPB4)*%
X20250000Y-26060000D03*
%TO.P,U1,6,GPB5*%
%TO.N,unconnected-(U1-GPB5-Pad6)*%
X20250000Y-26710000D03*
%TO.P,U1,7,GPB6*%
%TO.N,unconnected-(U1-GPB6-Pad7)*%
X20250000Y-27360000D03*
%TO.P,U1,8,GPB7*%
%TO.N,unconnected-(U1-GPB7-Pad8)*%
X20250000Y-28010000D03*
%TO.P,U1,9,VDD*%
%TO.N,+3.3V*%
X20250000Y-28660000D03*
%TO.P,U1,10,VSS*%
%TO.N,GND*%
X20250000Y-29310000D03*
%TO.P,U1,11,NC*%
%TO.N,unconnected-(U1-NC-Pad11)*%
X20250000Y-29960000D03*
%TO.P,U1,12,SCK*%
%TO.N,Net-(J1-Pin_1)*%
X20250000Y-30610000D03*
%TO.P,U1,13,SDA*%
%TO.N,Net-(J1-Pin_2)*%
X20250000Y-31260000D03*
%TO.P,U1,14,NC*%
%TO.N,unconnected-(U1-NC-Pad14)*%
X20250000Y-31910000D03*
%TO.P,U1,15,A0*%
%TO.N,Net-(U1-A0)*%
X27450000Y-31910000D03*
%TO.P,U1,16,A1*%
%TO.N,Net-(U1-A1)*%
X27450000Y-31260000D03*
%TO.P,U1,17,A2*%
%TO.N,Net-(U1-A2)*%
X27450000Y-30610000D03*
%TO.P,U1,18,~{RESET}*%
%TO.N,Net-(U1-~{RESET})*%
X27450000Y-29960000D03*
%TO.P,U1,19,INTB*%
%TO.N,unconnected-(U1-INTB-Pad19)*%
X27450000Y-29310000D03*
%TO.P,U1,20,INTA*%
%TO.N,unconnected-(U1-INTA-Pad20)*%
X27450000Y-28660000D03*
%TO.P,U1,21,GPA0*%
%TO.N,Net-(U1-GPA0)*%
X27450000Y-28010000D03*
%TO.P,U1,22,GPA1*%
%TO.N,Net-(U1-GPA1)*%
X27450000Y-27360000D03*
%TO.P,U1,23,GPA2*%
%TO.N,unconnected-(U1-GPA2-Pad23)*%
X27450000Y-26710000D03*
%TO.P,U1,24,GPA3*%
%TO.N,unconnected-(U1-GPA3-Pad24)*%
X27450000Y-26060000D03*
%TO.P,U1,25,GPA4*%
%TO.N,unconnected-(U1-GPA4-Pad25)*%
X27450000Y-25410000D03*
%TO.P,U1,26,GPA5*%
%TO.N,unconnected-(U1-GPA5-Pad26)*%
X27450000Y-24760000D03*
%TO.P,U1,27,GPA6*%
%TO.N,unconnected-(U1-GPA6-Pad27)*%
X27450000Y-24110000D03*
%TO.P,U1,28,GPA7*%
%TO.N,unconnected-(U1-GPA7-Pad28)*%
X27450000Y-23460000D03*
%TD*%
D25*
%TO.P,J3,1,Pin_1*%
%TO.N,Net-(J3-Pin_1)*%
X7870000Y-14940000D03*
D26*
%TO.P,J3,2,Pin_2*%
%TO.N,GND*%
X7870000Y-17440000D03*
%TD*%
D10*
%TO.P,L4,1,1*%
%TO.N,Net-(D4-K)*%
X54287500Y-36620000D03*
%TO.P,L4,2,2*%
%TO.N,Net-(U2-O6)*%
X52712500Y-36620000D03*
%TD*%
D13*
%TO.P,C7,1*%
%TO.N,Net-(U2-COM)*%
X50195000Y-40830000D03*
%TO.P,C7,2*%
%TO.N,GND*%
X48645000Y-40830000D03*
%TD*%
%TO.P,C8,1*%
%TO.N,Net-(U2-O1)*%
X50345000Y-24668795D03*
%TO.P,C8,2*%
%TO.N,GND*%
X48795000Y-24668795D03*
%TD*%
D23*
%TO.P,R4,1*%
%TO.N,Net-(U1-A1)*%
X39095000Y-31690000D03*
%TO.P,R4,2*%
%TO.N,GND*%
X40745000Y-31690000D03*
%TD*%
%TO.P,R2,1*%
%TO.N,Net-(U1-A0)*%
X39095000Y-33710000D03*
%TO.P,R2,2*%
%TO.N,GND*%
X40745000Y-33710000D03*
%TD*%
D14*
%TO.P,D4,1,K*%
%TO.N,Net-(D4-K)*%
X57132500Y-36710000D03*
%TO.P,D4,2,A*%
%TO.N,GND*%
X59932500Y-36710000D03*
%TD*%
D10*
%TO.P,L11,1,1*%
%TO.N,Net-(D5-K)*%
X54327500Y-10140000D03*
%TO.P,L11,2,2*%
%TO.N,Net-(U2-O5)*%
X52752500Y-10140000D03*
%TD*%
D13*
%TO.P,C12,1*%
%TO.N,Net-(U2-O6)*%
X50195000Y-36580000D03*
%TO.P,C12,2*%
%TO.N,GND*%
X48645000Y-36580000D03*
%TD*%
D10*
%TO.P,L9,1,1*%
%TO.N,Net-(D8-K)*%
X54327500Y-17406389D03*
%TO.P,L9,2,2*%
%TO.N,Net-(U2-O3)*%
X52752500Y-17406389D03*
%TD*%
D14*
%TO.P,D8,1,K*%
%TO.N,Net-(D8-K)*%
X57112500Y-17404000D03*
%TO.P,D8,2,A*%
%TO.N,GND*%
X59912500Y-17404000D03*
%TD*%
D23*
%TO.P,R8,1*%
%TO.N,+3.3V*%
X13555000Y-32470000D03*
%TO.P,R8,2*%
%TO.N,Net-(J1-Pin_2)*%
X15205000Y-32470000D03*
%TD*%
D19*
%TO.P,R1,1*%
%TO.N,+3.3V*%
X35630000Y-33860000D03*
%TO.P,R1,2*%
%TO.N,Net-(U1-A0)*%
X33980000Y-33860000D03*
%TD*%
D18*
%TO.P,H4,1,1*%
%TO.N,GND*%
X70000000Y-45000000D03*
%TD*%
D27*
%TO.P,J1,1,Pin_1*%
%TO.N,Net-(J1-Pin_1)*%
X17810000Y-41900000D03*
%TO.P,J1,2,Pin_2*%
%TO.N,Net-(J1-Pin_2)*%
X19810000Y-41900000D03*
%TO.P,J1,3,Pin_3*%
%TO.N,Net-(J1-Pin_3)*%
X21810000Y-41900000D03*
%TO.P,J1,4,Pin_4*%
%TO.N,GND*%
X23810000Y-41900000D03*
D28*
%TO.P,J1,MP*%
%TO.N,N/C*%
X15460000Y-47650000D03*
X26160000Y-47650000D03*
%TD*%
D10*
%TO.P,L6,1,1*%
%TO.N,Net-(D11-K)*%
X54327500Y-28300000D03*
%TO.P,L6,2,2*%
%TO.N,Net-(U2-COM)*%
X52752500Y-28300000D03*
%TD*%
D18*
%TO.P,H3,1,1*%
%TO.N,GND*%
X70000000Y-5000000D03*
%TD*%
D10*
%TO.P,L8,1,1*%
%TO.N,Net-(D9-K)*%
X54327500Y-20980000D03*
%TO.P,L8,2,2*%
%TO.N,Net-(U2-O2)*%
X52752500Y-20980000D03*
%TD*%
D14*
%TO.P,D7,1,K*%
%TO.N,Net-(D7-K)*%
X57112500Y-13772000D03*
%TO.P,D7,2,A*%
%TO.N,GND*%
X59912500Y-13772000D03*
%TD*%
D20*
%TO.P,C5,1*%
%TO.N,Net-(D2-K)*%
X20050000Y-9105000D03*
%TO.P,C5,2*%
%TO.N,GND*%
X20050000Y-10655000D03*
%TD*%
D13*
%TO.P,C10,1*%
%TO.N,Net-(U2-COM)*%
X50345000Y-28300000D03*
%TO.P,C10,2*%
%TO.N,GND*%
X48795000Y-28300000D03*
%TD*%
D14*
%TO.P,D3,1,K*%
%TO.N,Net-(D3-K)*%
X57132500Y-33010000D03*
%TO.P,D3,2,A*%
%TO.N,GND*%
X59932500Y-33010000D03*
%TD*%
D23*
%TO.P,R7,1*%
%TO.N,Net-(U1-A2)*%
X39095000Y-29190000D03*
%TO.P,R7,2*%
%TO.N,GND*%
X40745000Y-29190000D03*
%TD*%
D14*
%TO.P,D10,1,K*%
%TO.N,Net-(D10-K)*%
X57112500Y-24668000D03*
%TO.P,D10,2,A*%
%TO.N,GND*%
X59912500Y-24668000D03*
%TD*%
D29*
%TO.P,D2,1,K*%
%TO.N,Net-(D2-K)*%
X17130000Y-9102500D03*
%TO.P,D2,2,A*%
%TO.N,GND*%
X17130000Y-11902500D03*
%TD*%
D10*
%TO.P,L7,1,1*%
%TO.N,Net-(D10-K)*%
X54327500Y-24668795D03*
%TO.P,L7,2,2*%
%TO.N,Net-(U2-O1)*%
X52752500Y-24668795D03*
%TD*%
D30*
%TO.P,F1,1*%
%TO.N,Net-(D2-K)*%
X13477500Y-8980000D03*
%TO.P,F1,2*%
%TO.N,Net-(J3-Pin_1)*%
X11602500Y-8980000D03*
%TD*%
D31*
%TO.N,Net-(J1-Pin_3)*%
X10600000Y-34350000D03*
X11986551Y-37675760D03*
X21180000Y-44820000D03*
D32*
%TO.N,GND*%
X61360000Y-36740000D03*
D31*
X13467208Y-27766290D03*
X12140000Y-35030000D03*
X18650000Y-29520000D03*
D32*
X47644253Y-32685747D03*
X15380000Y-11820000D03*
X47528795Y-24668795D03*
X61406000Y-21036000D03*
X61360000Y-40680000D03*
X47470000Y-40830000D03*
X27760000Y-10670000D03*
X47440000Y-13730000D03*
D31*
X30360000Y-21080000D03*
D32*
X47520000Y-36580000D03*
D31*
X34590000Y-23130000D03*
D32*
X61350000Y-33010000D03*
X47470000Y-10140000D03*
X61372000Y-24668000D03*
X47500000Y-28300000D03*
X47470000Y-20950000D03*
D31*
X42000000Y-33710000D03*
D32*
X61428000Y-13772000D03*
D31*
X42000000Y-31690000D03*
D32*
X61406000Y-17404000D03*
D31*
X41940000Y-29190000D03*
D32*
X61350000Y-28300000D03*
X47538676Y-17384102D03*
X61460000Y-10140000D03*
D31*
%TO.N,+3.3V*%
X17530000Y-27900000D03*
X37030000Y-31470000D03*
X13360000Y-32470000D03*
X36970000Y-37540000D03*
X13360000Y-28760529D03*
X37030000Y-29230000D03*
X36990000Y-33860000D03*
D32*
%TO.N,Net-(U2-COM)*%
X51910000Y-8040012D03*
X51860000Y-26980000D03*
X51860000Y-38990000D03*
D31*
%TO.N,Net-(U2-O1)*%
X45359984Y-20690000D03*
X41420000Y-13260000D03*
%TO.N,Net-(U2-O2)*%
X45930000Y-19180000D03*
X42530000Y-14370000D03*
%TO.N,Net-(U2-O3)*%
X46320000Y-15700000D03*
X43480000Y-15670000D03*
%TO.N,Net-(U2-O7)*%
X46360000Y-30507100D03*
X43607232Y-24805149D03*
%TO.N,Net-(U2-O5)*%
X46511434Y-11563624D03*
X45890000Y-13840000D03*
%TO.N,Net-(J1-Pin_1)*%
X15980000Y-34780000D03*
X15980000Y-31240000D03*
X17380000Y-39330000D03*
%TO.N,Net-(U1-GPA0)*%
X32534264Y-24374264D03*
X32525000Y-19595000D03*
%TD*%
D33*
%TO.N,Net-(J1-Pin_3)*%
X21810000Y-41900000D02*
X21810000Y-44190000D01*
X21810000Y-41900000D02*
X21810000Y-41160051D01*
X9040000Y-34350000D02*
X10600000Y-34350000D01*
X8150000Y-33460000D02*
X9040000Y-34350000D01*
X11986551Y-37675760D02*
X13274240Y-37675760D01*
X35142500Y-39130000D02*
X32720000Y-39130000D01*
X32690000Y-39100000D02*
X29890000Y-39100000D01*
X23870051Y-39100000D02*
X29890000Y-39100000D01*
X21810000Y-41160051D02*
X23870051Y-39100000D01*
X32720000Y-39130000D02*
X32690000Y-39100000D01*
X13274240Y-37675760D02*
X13320000Y-37630000D01*
X21810000Y-44190000D02*
X21180000Y-44820000D01*
D34*
%TO.N,GND*%
X59912500Y-28300000D02*
X61350000Y-28300000D01*
D33*
X13467208Y-27766290D02*
X14896290Y-27766290D01*
X8150000Y-35460000D02*
X8150000Y-41850000D01*
D34*
X48645000Y-36580000D02*
X47520000Y-36580000D01*
D35*
X18650000Y-29280000D02*
X18650000Y-29520000D01*
D34*
X48795000Y-28300000D02*
X47500000Y-28300000D01*
X26125000Y-10655000D02*
X26140000Y-10670000D01*
D35*
X20250000Y-29310000D02*
X18620000Y-29310000D01*
D34*
X59912500Y-21036000D02*
X61406000Y-21036000D01*
X17130000Y-11902500D02*
X17077500Y-11850000D01*
D33*
X13320000Y-35900000D02*
X13010000Y-35900000D01*
D35*
X18410000Y-29520000D02*
X17530000Y-30400000D01*
D34*
X59932500Y-40610000D02*
X61290000Y-40610000D01*
X61290000Y-40610000D02*
X61360000Y-40680000D01*
X48645000Y-40830000D02*
X47470000Y-40830000D01*
D33*
X8620000Y-35930000D02*
X13320000Y-35930000D01*
X8150000Y-41850000D02*
X5000000Y-45000000D01*
D34*
X15410000Y-11850000D02*
X15380000Y-11820000D01*
X59932500Y-33010000D02*
X61350000Y-33010000D01*
D33*
X23810000Y-41900000D02*
X28640000Y-41900000D01*
D34*
X26140000Y-10670000D02*
X27760000Y-10670000D01*
D33*
X14896290Y-27766290D02*
X17530000Y-30400000D01*
D34*
X59912500Y-13772000D02*
X61428000Y-13772000D01*
X48795000Y-17406389D02*
X47560963Y-17406389D01*
X59912500Y-24668000D02*
X61372000Y-24668000D01*
X47560963Y-17406389D02*
X47538676Y-17384102D01*
D33*
X28640000Y-41900000D02*
X29890000Y-40650000D01*
X29890000Y-40650000D02*
X32690000Y-40650000D01*
D34*
X48795000Y-10140000D02*
X47470000Y-10140000D01*
D33*
X13010000Y-35900000D02*
X12140000Y-35030000D01*
D34*
X48645000Y-32970000D02*
X47928506Y-32970000D01*
D33*
X34585000Y-23125000D02*
X34590000Y-23130000D01*
D34*
X48795000Y-20950000D02*
X47470000Y-20950000D01*
D33*
X8150000Y-35460000D02*
X8620000Y-35930000D01*
D34*
X11592500Y-17440000D02*
X17130000Y-11902500D01*
D33*
X42000000Y-38290000D02*
X42000000Y-33710000D01*
X40745000Y-31690000D02*
X42000000Y-31690000D01*
D34*
X47485186Y-13775186D02*
X47440000Y-13730000D01*
X7870000Y-17440000D02*
X11592500Y-17440000D01*
X18802500Y-11902500D02*
X20050000Y-10655000D01*
X59912500Y-17404000D02*
X61406000Y-17404000D01*
X61330000Y-36710000D02*
X61360000Y-36740000D01*
X48795000Y-13775186D02*
X47485186Y-13775186D01*
X17077500Y-11850000D02*
X15410000Y-11850000D01*
D33*
X39700000Y-40590000D02*
X42000000Y-38290000D01*
D34*
X59912500Y-10140000D02*
X61460000Y-10140000D01*
X59932500Y-36710000D02*
X61330000Y-36710000D01*
D33*
X39640000Y-40650000D02*
X39700000Y-40590000D01*
D34*
X48795000Y-24668795D02*
X47528795Y-24668795D01*
D35*
X18650000Y-29520000D02*
X18410000Y-29520000D01*
D34*
X17130000Y-11902500D02*
X18802500Y-11902500D01*
X20050000Y-10655000D02*
X26125000Y-10655000D01*
D33*
X32690000Y-40650000D02*
X39640000Y-40650000D01*
X40745000Y-29190000D02*
X41940000Y-29190000D01*
D34*
X47928506Y-32970000D02*
X47644253Y-32685747D01*
D33*
X40745000Y-33710000D02*
X42000000Y-33710000D01*
X34585000Y-22135000D02*
X34585000Y-23125000D01*
D35*
X18620000Y-29310000D02*
X18650000Y-29280000D01*
D33*
X13320000Y-35930000D02*
X13320000Y-35900000D01*
%TO.N,+3.3V*%
X13555000Y-32470000D02*
X13360000Y-32470000D01*
X13555000Y-30500000D02*
X13545000Y-30490000D01*
X13545000Y-30490000D02*
X13360000Y-30305000D01*
D35*
X20250000Y-28660000D02*
X17720000Y-28660000D01*
D33*
X36717500Y-39130000D02*
X36970000Y-38877500D01*
X39700000Y-39040000D02*
X36807500Y-39040000D01*
X35630000Y-29230000D02*
X37030000Y-29230000D01*
X35630000Y-26740000D02*
X37030000Y-28140000D01*
X35660000Y-31750000D02*
X35940000Y-31470000D01*
D35*
X17720000Y-28660000D02*
X17530000Y-28850000D01*
D33*
X37030000Y-28140000D02*
X37030000Y-29230000D01*
X35630000Y-31780000D02*
X35660000Y-31750000D01*
X35940000Y-31470000D02*
X37030000Y-31470000D01*
X17530000Y-28850000D02*
X17530000Y-27900000D01*
X35630000Y-33860000D02*
X36990000Y-33860000D01*
X13360000Y-30305000D02*
X13360000Y-28760529D01*
X36970000Y-38877500D02*
X36970000Y-37540000D01*
X36807500Y-39040000D02*
X36717500Y-39130000D01*
D34*
%TO.N,Net-(D2-K)*%
X20047500Y-9102500D02*
X20050000Y-9105000D01*
X17130000Y-9102500D02*
X20047500Y-9102500D01*
X22357500Y-9105000D02*
X22372500Y-9120000D01*
X13477500Y-8980000D02*
X17007500Y-8980000D01*
X20050000Y-9105000D02*
X22357500Y-9105000D01*
X17007500Y-8980000D02*
X17130000Y-9102500D01*
%TO.N,Net-(U2-COM)*%
X26140000Y-9120000D02*
X27220000Y-8040000D01*
X50195000Y-40830000D02*
X52582500Y-40830000D01*
D33*
X44750000Y-40590000D02*
X45940000Y-41780000D01*
D34*
X52582500Y-40830000D02*
X52712500Y-40700000D01*
X23947500Y-9120000D02*
X26140000Y-9120000D01*
X52712500Y-40700000D02*
X51930000Y-39917500D01*
X51930000Y-39060000D02*
X51860000Y-38990000D01*
D33*
X49245000Y-41780000D02*
X50195000Y-40830000D01*
D34*
X52752500Y-28300000D02*
X52752500Y-27872500D01*
D33*
X45940000Y-41780000D02*
X49245000Y-41780000D01*
D34*
X52752500Y-27872500D02*
X51860000Y-26980000D01*
X51930000Y-39917500D02*
X51930000Y-39060000D01*
D33*
X44750000Y-27150000D02*
X44750000Y-40590000D01*
D34*
X27220000Y-8040000D02*
X51910000Y-8040000D01*
D33*
X39735000Y-22135000D02*
X44750000Y-27150000D01*
D34*
X50345000Y-28300000D02*
X52752500Y-28300000D01*
D33*
%TO.N,Net-(U2-O1)*%
X51580000Y-24668795D02*
X49801205Y-22890000D01*
D34*
X50345000Y-24668795D02*
X51580000Y-24668795D01*
X51580000Y-24668795D02*
X52752500Y-24668795D01*
D33*
X47559984Y-22890000D02*
X45359984Y-20690000D01*
X41405000Y-13245000D02*
X41420000Y-13260000D01*
X49801205Y-22890000D02*
X47559984Y-22890000D01*
X39735000Y-13245000D02*
X41405000Y-13245000D01*
%TO.N,Net-(U2-O2)*%
X49870000Y-19270000D02*
X46020000Y-19270000D01*
D34*
X52722500Y-20950000D02*
X52752500Y-20980000D01*
X50345000Y-20950000D02*
X51550000Y-20950000D01*
D33*
X46020000Y-19270000D02*
X45930000Y-19180000D01*
X39735000Y-14515000D02*
X42385000Y-14515000D01*
D34*
X51550000Y-20950000D02*
X52722500Y-20950000D01*
D33*
X51550000Y-20950000D02*
X49870000Y-19270000D01*
X42385000Y-14515000D02*
X42530000Y-14370000D01*
%TO.N,Net-(U2-O3)*%
X39735000Y-15785000D02*
X43365000Y-15785000D01*
X51550000Y-17406389D02*
X49843611Y-15700000D01*
D34*
X51550000Y-17406389D02*
X52752500Y-17406389D01*
D33*
X43365000Y-15785000D02*
X43480000Y-15670000D01*
D34*
X50345000Y-17406389D02*
X51550000Y-17406389D01*
D33*
X49843611Y-15700000D02*
X46320000Y-15700000D01*
%TO.N,Net-(U2-O6)*%
X41844949Y-19595000D02*
X45450000Y-23200051D01*
X45450000Y-31982082D02*
X48737918Y-35270000D01*
X48737918Y-35270000D02*
X50080000Y-35270000D01*
X39735000Y-19595000D02*
X41844949Y-19595000D01*
D34*
X50195000Y-36580000D02*
X51390000Y-36580000D01*
D33*
X45450000Y-23200051D02*
X45450000Y-31982082D01*
D34*
X52672500Y-36580000D02*
X52712500Y-36620000D01*
D33*
X50080000Y-35270000D02*
X51390000Y-36580000D01*
D34*
X51390000Y-36580000D02*
X52672500Y-36580000D01*
D33*
%TO.N,Net-(U2-O4)*%
X45500000Y-12760000D02*
X50654814Y-12760000D01*
X50654814Y-12760000D02*
X51670000Y-13775186D01*
X43438503Y-17055000D02*
X44430000Y-16063503D01*
X44430000Y-13830000D02*
X45500000Y-12760000D01*
X44430000Y-16063503D02*
X44430000Y-13830000D01*
D34*
X51670000Y-13775186D02*
X52752500Y-13775186D01*
X50345000Y-13775186D02*
X51670000Y-13775186D01*
D33*
X39735000Y-17055000D02*
X43438503Y-17055000D01*
%TO.N,Net-(U2-O7)*%
X51500000Y-32970000D02*
X49037100Y-30507100D01*
X43607232Y-22347232D02*
X43607232Y-24805149D01*
D34*
X51500000Y-32970000D02*
X52712500Y-32970000D01*
D33*
X39735000Y-20865000D02*
X42125000Y-20865000D01*
X49037100Y-30507100D02*
X46360000Y-30507100D01*
D34*
X50195000Y-32970000D02*
X51500000Y-32970000D01*
D33*
X42125000Y-20865000D02*
X43607232Y-22347232D01*
%TO.N,Net-(U2-O5)*%
X46865058Y-11210000D02*
X46511434Y-11563624D01*
X39735000Y-18325000D02*
X44515000Y-18325000D01*
X45168530Y-17671470D02*
X45168530Y-14561470D01*
X51590000Y-10140000D02*
X50520000Y-11210000D01*
X50520000Y-11210000D02*
X46865058Y-11210000D01*
X44515000Y-18325000D02*
X45168530Y-17671470D01*
D34*
X50345000Y-10140000D02*
X51590000Y-10140000D01*
D33*
X45168530Y-14561470D02*
X45890000Y-13840000D01*
D34*
X51590000Y-10140000D02*
X52752500Y-10140000D01*
D35*
%TO.N,Net-(J1-Pin_2)*%
X20250000Y-31260000D02*
X19000000Y-31260000D01*
X17790000Y-32470000D02*
X15205000Y-32470000D01*
D33*
X14280000Y-36590000D02*
X14280000Y-33395000D01*
X15320000Y-37630000D02*
X14280000Y-36590000D01*
X14280000Y-33395000D02*
X15205000Y-32470000D01*
X19810000Y-39080000D02*
X19810000Y-41900000D01*
X11155000Y-33395000D02*
X14280000Y-33395000D01*
X15320000Y-37630000D02*
X18360000Y-37630000D01*
X8150000Y-31460000D02*
X9220000Y-31460000D01*
X9220000Y-31460000D02*
X11155000Y-33395000D01*
D35*
X19000000Y-31260000D02*
X17790000Y-32470000D01*
D33*
X18360000Y-37630000D02*
X19810000Y-39080000D01*
%TO.N,Net-(J1-Pin_1)*%
X12955761Y-31415000D02*
X14270000Y-31415000D01*
X17350000Y-39360000D02*
X17380000Y-39330000D01*
D35*
X15990000Y-31250000D02*
X15980000Y-31240000D01*
D33*
X15195000Y-30490000D02*
X15230000Y-30490000D01*
X15230000Y-30490000D02*
X15980000Y-31240000D01*
X15320000Y-35440000D02*
X15980000Y-34780000D01*
X17350000Y-41440000D02*
X17350000Y-39360000D01*
X14270000Y-31415000D02*
X15195000Y-30490000D01*
X8150000Y-29460000D02*
X11000761Y-29460000D01*
X11000761Y-29460000D02*
X12955761Y-31415000D01*
D35*
X20250000Y-30610000D02*
X18678883Y-30610000D01*
X18038883Y-31250000D02*
X15990000Y-31250000D01*
X18678883Y-30610000D02*
X18038883Y-31250000D01*
D33*
X17810000Y-41900000D02*
X17350000Y-41440000D01*
X15320000Y-35730000D02*
X15320000Y-35440000D01*
D34*
%TO.N,Net-(D3-K)*%
X54287500Y-32970000D02*
X57092500Y-32970000D01*
X63800000Y-34900000D02*
X66200000Y-32500000D01*
X66200000Y-32500000D02*
X67250000Y-32500000D01*
X57092500Y-32970000D02*
X57132500Y-33010000D01*
X57132500Y-33010000D02*
X59022500Y-34900000D01*
X59022500Y-34900000D02*
X63800000Y-34900000D01*
%TO.N,Net-(D4-K)*%
X57132500Y-36710000D02*
X58932500Y-38510000D01*
X66930000Y-35000000D02*
X67250000Y-35000000D01*
X57042500Y-36620000D02*
X57132500Y-36710000D01*
X63420000Y-38510000D02*
X66930000Y-35000000D01*
X54287500Y-36620000D02*
X57042500Y-36620000D01*
X58932500Y-38510000D02*
X63420000Y-38510000D01*
%TO.N,Net-(D5-K)*%
X57112500Y-10140000D02*
X58772500Y-11800000D01*
X66550000Y-11800000D02*
X67250000Y-12500000D01*
X54327500Y-10140000D02*
X57112500Y-10140000D01*
X58772500Y-11800000D02*
X66550000Y-11800000D01*
%TO.N,Net-(D6-K)*%
X57132500Y-40610000D02*
X58792500Y-42270000D01*
X54287500Y-40700000D02*
X57042500Y-40700000D01*
X58792500Y-42270000D02*
X62480000Y-42270000D01*
X57042500Y-40700000D02*
X57132500Y-40610000D01*
X62480000Y-42270000D02*
X67250000Y-37500000D01*
%TO.N,Net-(D7-K)*%
X57109314Y-13775186D02*
X57112500Y-13772000D01*
X54327500Y-13775186D02*
X57109314Y-13775186D01*
X66620000Y-15630000D02*
X67250000Y-15000000D01*
X57112500Y-13772000D02*
X58970500Y-15630000D01*
X58970500Y-15630000D02*
X66620000Y-15630000D01*
%TO.N,Net-(D8-K)*%
X57110111Y-17406389D02*
X57112500Y-17404000D01*
X57112500Y-17404000D02*
X58898500Y-19190000D01*
X65820000Y-17500000D02*
X67250000Y-17500000D01*
X64130000Y-19190000D02*
X65820000Y-17500000D01*
X54327500Y-17406389D02*
X57110111Y-17406389D01*
X58898500Y-19190000D02*
X64130000Y-19190000D01*
%TO.N,Net-(D9-K)*%
X63440000Y-22930000D02*
X66370000Y-20000000D01*
X57112500Y-21036000D02*
X59006500Y-22930000D01*
X57056500Y-20980000D02*
X57112500Y-21036000D01*
X59006500Y-22930000D02*
X63440000Y-22930000D01*
X54327500Y-20980000D02*
X57056500Y-20980000D01*
X66370000Y-20000000D02*
X67250000Y-20000000D01*
%TO.N,Net-(D10-K)*%
X62540000Y-26410000D02*
X66450000Y-22500000D01*
X57112500Y-24668000D02*
X58854500Y-26410000D01*
X66450000Y-22500000D02*
X67250000Y-22500000D01*
X54327500Y-24668795D02*
X57111705Y-24668795D01*
X57111705Y-24668795D02*
X57112500Y-24668000D01*
X58854500Y-26410000D02*
X62540000Y-26410000D01*
%TO.N,Net-(D11-K)*%
X59792500Y-30980000D02*
X62260000Y-30980000D01*
X67250000Y-25990000D02*
X67250000Y-25000000D01*
X54327500Y-28300000D02*
X57112500Y-28300000D01*
X62260000Y-30980000D02*
X67250000Y-25990000D01*
X57112500Y-28300000D02*
X59792500Y-30980000D01*
%TO.N,Net-(J3-Pin_1)*%
X7870000Y-14940000D02*
X7870000Y-12712500D01*
X7870000Y-12712500D02*
X11602500Y-8980000D01*
D33*
%TO.N,Net-(U1-A0)*%
X34905000Y-34785000D02*
X38020000Y-34785000D01*
D35*
X32030000Y-31910000D02*
X33980000Y-33860000D01*
D33*
X38020000Y-34785000D02*
X39095000Y-33710000D01*
D35*
X27450000Y-31910000D02*
X32030000Y-31910000D01*
D33*
X33980000Y-33860000D02*
X34905000Y-34785000D01*
%TO.N,Net-(U1-A1)*%
X33980000Y-31780000D02*
X34905000Y-32705000D01*
X33930000Y-31730000D02*
X33980000Y-31780000D01*
X38080000Y-32705000D02*
X39095000Y-31690000D01*
X34905000Y-32705000D02*
X38080000Y-32705000D01*
D35*
X33460000Y-31260000D02*
X33980000Y-31780000D01*
X27450000Y-31260000D02*
X33460000Y-31260000D01*
%TO.N,Net-(U1-A2)*%
X27450000Y-30610000D02*
X32600000Y-30610000D01*
D33*
X34905000Y-30155000D02*
X38130000Y-30155000D01*
X33980000Y-29230000D02*
X34905000Y-30155000D01*
X38130000Y-30155000D02*
X39095000Y-29190000D01*
D35*
X32600000Y-30610000D02*
X33980000Y-29230000D01*
%TO.N,Net-(U1-~{RESET})*%
X27450000Y-29960000D02*
X30760000Y-29960000D01*
X30760000Y-29960000D02*
X33980000Y-26740000D01*
%TO.N,Net-(U1-GPB0)*%
X21480000Y-23460000D02*
X31695000Y-13245000D01*
X20250000Y-23460000D02*
X21480000Y-23460000D01*
X31695000Y-13245000D02*
X34585000Y-13245000D01*
%TO.N,Net-(U1-GPB1)*%
X31273528Y-14515000D02*
X34585000Y-14515000D01*
X20250000Y-24110000D02*
X21678528Y-24110000D01*
X21678528Y-24110000D02*
X31273528Y-14515000D01*
D33*
X33725000Y-14515000D02*
X34585000Y-14515000D01*
%TO.N,Net-(U1-GPB2)*%
X34005050Y-15785000D02*
X34585000Y-15785000D01*
D35*
X20250000Y-24760000D02*
X21877056Y-24760000D01*
X21877056Y-24760000D02*
X30852056Y-15785000D01*
X30852056Y-15785000D02*
X34585000Y-15785000D01*
%TO.N,Net-(U1-GPB3)*%
X30430584Y-17055000D02*
X34585000Y-17055000D01*
X20250000Y-25410000D02*
X22075584Y-25410000D01*
X22075584Y-25410000D02*
X30430584Y-17055000D01*
D33*
X34131472Y-17055000D02*
X34585000Y-17055000D01*
%TO.N,Net-(U1-GPB4)*%
X34025000Y-18325000D02*
X34585000Y-18325000D01*
D35*
X20250000Y-26060000D02*
X22274112Y-26060000D01*
X22274112Y-26060000D02*
X30009112Y-18325000D01*
X30009112Y-18325000D02*
X34585000Y-18325000D01*
%TO.N,Net-(U1-GPA0)*%
X28898528Y-28010000D02*
X32534264Y-24374264D01*
X27450000Y-28010000D02*
X28898528Y-28010000D01*
D33*
X34585000Y-19595000D02*
X32525000Y-19595000D01*
D35*
%TO.N,Net-(U1-GPA1)*%
X27450000Y-27360000D02*
X28700000Y-27360000D01*
X28700000Y-27360000D02*
X30820000Y-25240000D01*
X33325000Y-20865000D02*
X34585000Y-20865000D01*
X30820000Y-25240000D02*
X30820000Y-23370000D01*
X30820000Y-23370000D02*
X33325000Y-20865000D01*
%TD*%
%TA.AperFunction,Conductor*%
%TO.N,GND*%
G36*
X31666258Y-19045185D02*
G01*
X31712013Y-19097989D01*
X31721957Y-19167147D01*
X31706607Y-19211496D01*
X31697821Y-19226716D01*
X31697820Y-19226718D01*
X31697818Y-19226722D01*
X31648241Y-19379306D01*
X31639326Y-19406744D01*
X31619540Y-19595000D01*
X31639326Y-19783256D01*
X31639327Y-19783259D01*
X31697818Y-19963277D01*
X31697821Y-19963284D01*
X31792467Y-20127216D01*
X31908804Y-20256421D01*
X31919129Y-20267888D01*
X32072265Y-20379148D01*
X32072270Y-20379151D01*
X32245192Y-20456142D01*
X32245193Y-20456142D01*
X32245197Y-20456144D01*
X32430354Y-20495500D01*
X32430356Y-20495500D01*
X32432511Y-20495958D01*
X32493993Y-20529150D01*
X32527770Y-20590313D01*
X32523118Y-20660027D01*
X32494412Y-20704929D01*
X30340966Y-22858375D01*
X30338240Y-22860942D01*
X30291818Y-22902068D01*
X30256586Y-22953109D01*
X30254368Y-22956124D01*
X30216124Y-23004939D01*
X30216119Y-23004948D01*
X30211960Y-23014188D01*
X30200942Y-23033723D01*
X30195187Y-23042061D01*
X30195183Y-23042067D01*
X30195182Y-23042070D01*
X30195180Y-23042074D01*
X30195179Y-23042077D01*
X30173189Y-23100055D01*
X30171757Y-23103513D01*
X30146305Y-23160068D01*
X30144477Y-23170042D01*
X30138453Y-23191653D01*
X30134860Y-23201127D01*
X30134859Y-23201128D01*
X30127384Y-23262685D01*
X30126821Y-23266386D01*
X30115642Y-23327390D01*
X30115642Y-23327395D01*
X30119387Y-23389302D01*
X30119500Y-23393047D01*
X30119500Y-24898479D01*
X30099815Y-24965518D01*
X30083181Y-24986160D01*
X29037180Y-26032162D01*
X28975857Y-26065647D01*
X28906165Y-26060663D01*
X28850232Y-26018791D01*
X28825815Y-25953327D01*
X28825499Y-25944481D01*
X28825499Y-25787128D01*
X28825498Y-25787111D01*
X28821320Y-25748253D01*
X28821320Y-25721745D01*
X28825500Y-25682873D01*
X28825499Y-25137128D01*
X28825499Y-25137127D01*
X28825498Y-25137111D01*
X28821320Y-25098253D01*
X28821320Y-25071745D01*
X28825500Y-25032873D01*
X28825499Y-24487128D01*
X28825499Y-24487127D01*
X28825498Y-24487111D01*
X28821320Y-24448253D01*
X28821320Y-24421745D01*
X28825500Y-24382873D01*
X28825499Y-23837128D01*
X28825499Y-23837127D01*
X28825498Y-23837111D01*
X28821320Y-23798253D01*
X28821320Y-23771745D01*
X28825500Y-23732873D01*
X28825499Y-23187128D01*
X28819091Y-23127517D01*
X28817695Y-23123775D01*
X28768797Y-22992671D01*
X28768793Y-22992664D01*
X28682547Y-22877455D01*
X28682544Y-22877452D01*
X28567335Y-22791206D01*
X28567328Y-22791202D01*
X28432482Y-22740908D01*
X28432483Y-22740908D01*
X28372883Y-22734501D01*
X28372881Y-22734500D01*
X28372873Y-22734500D01*
X28372865Y-22734500D01*
X26889630Y-22734500D01*
X26822591Y-22714815D01*
X26776836Y-22662011D01*
X26766892Y-22592853D01*
X26795917Y-22529297D01*
X26801949Y-22522819D01*
X28446513Y-20878256D01*
X30262949Y-19061819D01*
X30324273Y-19028334D01*
X30350631Y-19025500D01*
X31599219Y-19025500D01*
X31666258Y-19045185D01*
G37*
%TD.AperFunction*%
%TA.AperFunction,Conductor*%
G36*
X45705703Y-33299598D02*
G01*
X45712181Y-33305630D01*
X48162185Y-35755634D01*
X48173966Y-35769266D01*
X48188308Y-35788530D01*
X48228338Y-35822119D01*
X48232310Y-35825759D01*
X48238141Y-35831590D01*
X48238140Y-35831590D01*
X48252861Y-35843229D01*
X48263862Y-35851927D01*
X48322704Y-35901302D01*
X48322712Y-35901306D01*
X48328742Y-35905273D01*
X48328708Y-35905323D01*
X48335055Y-35909366D01*
X48335087Y-35909316D01*
X48341236Y-35913108D01*
X48341238Y-35913109D01*
X48341241Y-35913111D01*
X48410848Y-35945569D01*
X48479485Y-35980040D01*
X48479494Y-35980042D01*
X48486273Y-35982510D01*
X48486252Y-35982567D01*
X48493369Y-35985040D01*
X48493388Y-35984984D01*
X48500248Y-35987257D01*
X48575450Y-36002784D01*
X48650197Y-36020500D01*
X48650206Y-36020500D01*
X48657370Y-36021338D01*
X48657363Y-36021397D01*
X48664864Y-36022163D01*
X48664870Y-36022104D01*
X48672058Y-36022733D01*
X48672061Y-36022732D01*
X48672062Y-36022733D01*
X48748816Y-36020500D01*
X49136544Y-36020500D01*
X49203583Y-36040185D01*
X49249338Y-36092989D01*
X49259282Y-36162147D01*
X49255813Y-36176867D01*
X49254650Y-36182297D01*
X49249200Y-36235638D01*
X49245884Y-36254113D01*
X49200937Y-36427712D01*
X49190631Y-36630936D01*
X49221443Y-36832066D01*
X49221444Y-36832071D01*
X49241280Y-36885634D01*
X49248356Y-36916094D01*
X49254651Y-36977709D01*
X49307996Y-37138694D01*
X49308001Y-37138705D01*
X49397029Y-37283040D01*
X49397032Y-37283044D01*
X49516955Y-37402967D01*
X49516959Y-37402970D01*
X49661294Y-37491998D01*
X49661297Y-37491999D01*
X49661303Y-37492003D01*
X49822292Y-37545349D01*
X49921655Y-37555500D01*
X49958993Y-37555499D01*
X49983953Y-37558036D01*
X50093259Y-37580500D01*
X51288259Y-37580500D01*
X52312408Y-37580500D01*
X52340475Y-37585028D01*
X52340692Y-37584019D01*
X52347308Y-37585435D01*
X52347313Y-37585435D01*
X52347315Y-37585436D01*
X52445826Y-37595500D01*
X52467412Y-37595500D01*
X52501524Y-37600284D01*
X52535082Y-37609887D01*
X52737975Y-37625337D01*
X52737977Y-37625337D01*
X52737978Y-37625337D01*
X52788439Y-37618910D01*
X52939828Y-37599630D01*
X52939834Y-37599627D01*
X52943793Y-37598710D01*
X52971824Y-37595500D01*
X52979169Y-37595500D01*
X52979174Y-37595500D01*
X53077685Y-37585436D01*
X53237287Y-37532549D01*
X53380391Y-37444281D01*
X53412319Y-37412352D01*
X53473639Y-37378868D01*
X53543331Y-37383852D01*
X53587679Y-37412352D01*
X53619607Y-37444280D01*
X53619612Y-37444283D01*
X53762704Y-37532544D01*
X53762707Y-37532545D01*
X53762713Y-37532549D01*
X53922315Y-37585436D01*
X54020826Y-37595500D01*
X54051495Y-37595500D01*
X54076456Y-37598038D01*
X54185759Y-37620500D01*
X56357517Y-37620500D01*
X56422613Y-37638961D01*
X56513159Y-37694810D01*
X56513160Y-37694810D01*
X56513166Y-37694814D01*
X56679703Y-37749999D01*
X56722553Y-37754376D01*
X56787244Y-37780771D01*
X56797632Y-37790053D01*
X58216066Y-39208487D01*
X58277441Y-39273053D01*
X58277444Y-39273055D01*
X58277445Y-39273056D01*
X58327795Y-39308101D01*
X58331547Y-39310929D01*
X58379092Y-39349697D01*
X58379095Y-39349698D01*
X58379097Y-39349700D01*
X58409539Y-39365601D01*
X58416253Y-39369668D01*
X58441960Y-39387561D01*
X58444447Y-39389292D01*
X58444453Y-39389296D01*
X58500831Y-39413490D01*
X58505069Y-39415502D01*
X58559451Y-39443909D01*
X58592473Y-39453356D01*
X58599865Y-39455989D01*
X58631440Y-39469539D01*
X58631441Y-39469540D01*
X58644554Y-39472234D01*
X58691555Y-39481892D01*
X58696095Y-39483006D01*
X58755082Y-39499886D01*
X58789341Y-39502494D01*
X58797109Y-39503585D01*
X58830755Y-39510500D01*
X58830759Y-39510500D01*
X58892101Y-39510500D01*
X58896808Y-39510678D01*
X58924097Y-39512757D01*
X58957975Y-39515337D01*
X58957975Y-39515336D01*
X58957976Y-39515337D01*
X58992059Y-39510996D01*
X58999889Y-39510500D01*
X63407284Y-39510500D01*
X63496353Y-39512757D01*
X63496354Y-39512756D01*
X63496363Y-39512757D01*
X63504482Y-39511301D01*
X63573938Y-39518845D01*
X63628294Y-39562745D01*
X63650287Y-39629063D01*
X63632934Y-39696744D01*
X63614042Y-39721036D01*
X62101899Y-41233181D01*
X62040576Y-41266666D01*
X62014218Y-41269500D01*
X59258282Y-41269500D01*
X59191243Y-41249815D01*
X59170601Y-41233181D01*
X58212553Y-40275133D01*
X58179068Y-40213810D01*
X58176876Y-40200053D01*
X58172499Y-40157203D01*
X58117314Y-39990666D01*
X58025212Y-39841344D01*
X57901156Y-39717288D01*
X57751834Y-39625186D01*
X57585297Y-39570001D01*
X57585295Y-39570000D01*
X57482510Y-39559500D01*
X56782498Y-39559500D01*
X56782480Y-39559501D01*
X56679703Y-39570000D01*
X56679700Y-39570001D01*
X56513168Y-39625185D01*
X56513159Y-39625189D01*
X56422613Y-39681039D01*
X56357517Y-39699500D01*
X54236757Y-39699500D01*
X54085063Y-39714925D01*
X54077530Y-39717289D01*
X54072672Y-39718813D01*
X54035552Y-39724500D01*
X54020818Y-39724500D01*
X53922316Y-39734563D01*
X53922315Y-39734564D01*
X53843219Y-39760773D01*
X53762715Y-39787450D01*
X53762704Y-39787455D01*
X53619612Y-39875716D01*
X53619608Y-39875719D01*
X53587681Y-39907647D01*
X53526358Y-39941132D01*
X53456666Y-39936148D01*
X53412319Y-39907647D01*
X53380391Y-39875719D01*
X53380387Y-39875716D01*
X53237295Y-39787455D01*
X53237290Y-39787453D01*
X53237287Y-39787451D01*
X53231656Y-39785585D01*
X53182981Y-39755561D01*
X52966819Y-39539398D01*
X52933334Y-39478075D01*
X52930500Y-39451717D01*
X52930500Y-39072715D01*
X52932757Y-38983641D01*
X52932756Y-38983640D01*
X52932757Y-38983637D01*
X52921933Y-38923249D01*
X52921280Y-38918587D01*
X52915074Y-38857563D01*
X52913747Y-38853333D01*
X52904784Y-38824768D01*
X52902917Y-38817155D01*
X52899445Y-38797784D01*
X52896858Y-38783347D01*
X52874100Y-38726374D01*
X52872521Y-38721938D01*
X52865845Y-38700661D01*
X52854159Y-38663412D01*
X52854158Y-38663410D01*
X52854157Y-38663407D01*
X52844000Y-38645110D01*
X52837485Y-38633371D01*
X52834117Y-38626278D01*
X52821378Y-38594386D01*
X52821377Y-38594383D01*
X52787620Y-38543163D01*
X52785180Y-38539134D01*
X52771840Y-38515101D01*
X52755409Y-38485498D01*
X52755407Y-38485495D01*
X52735920Y-38462797D01*
X52733030Y-38459431D01*
X52728302Y-38453159D01*
X52724632Y-38447590D01*
X52709402Y-38424481D01*
X52666033Y-38381112D01*
X52662830Y-38377656D01*
X52641925Y-38353306D01*
X52622866Y-38331105D01*
X52608388Y-38319898D01*
X52588439Y-38300509D01*
X52570883Y-38279117D01*
X52535124Y-38249770D01*
X52532907Y-38247860D01*
X52531593Y-38246673D01*
X52531580Y-38246660D01*
X52493422Y-38215546D01*
X52449387Y-38179407D01*
X52418532Y-38154085D01*
X52418298Y-38153929D01*
X52413573Y-38150436D01*
X52413415Y-38150307D01*
X52413405Y-38150301D01*
X52411873Y-38149501D01*
X52327407Y-38105379D01*
X52244727Y-38061186D01*
X52244726Y-38061185D01*
X52244725Y-38061185D01*
X52237967Y-38058385D01*
X52233093Y-38056108D01*
X52233052Y-38056092D01*
X52190922Y-38044037D01*
X52142827Y-38030275D01*
X52142826Y-38030274D01*
X52056138Y-38003977D01*
X52050164Y-38002789D01*
X52050210Y-38002553D01*
X52037479Y-38000124D01*
X52037414Y-38000112D01*
X51947010Y-37993228D01*
X51860001Y-37984659D01*
X51860000Y-37984659D01*
X51859634Y-37984695D01*
X51838075Y-37984933D01*
X51834527Y-37984662D01*
X51747739Y-37995715D01*
X51663868Y-38003976D01*
X51663861Y-38003977D01*
X51660076Y-38005125D01*
X51639787Y-38009462D01*
X51632677Y-38010368D01*
X51632668Y-38010370D01*
X51552877Y-38037644D01*
X51475273Y-38061186D01*
X51475265Y-38061189D01*
X51468615Y-38064743D01*
X51450298Y-38072706D01*
X51440133Y-38076181D01*
X51440131Y-38076182D01*
X51370193Y-38117351D01*
X51301464Y-38154088D01*
X51301462Y-38154089D01*
X51292860Y-38161148D01*
X51277115Y-38172143D01*
X51264776Y-38179407D01*
X51208006Y-38230696D01*
X51205775Y-38232617D01*
X51149113Y-38279120D01*
X51139789Y-38290481D01*
X51127074Y-38303815D01*
X51113791Y-38315816D01*
X51113788Y-38315819D01*
X51070496Y-38374773D01*
X51068450Y-38377407D01*
X51024094Y-38431456D01*
X51024092Y-38431459D01*
X51015469Y-38447590D01*
X51006063Y-38462521D01*
X50993352Y-38479830D01*
X50964216Y-38543237D01*
X50962559Y-38546575D01*
X50931184Y-38605277D01*
X50923614Y-38630229D01*
X50920621Y-38638120D01*
X50908396Y-38664729D01*
X50908393Y-38664737D01*
X50893383Y-38729415D01*
X50892318Y-38733396D01*
X50873978Y-38793857D01*
X50873975Y-38793872D01*
X50871088Y-38823181D01*
X50869781Y-38831122D01*
X50862396Y-38862945D01*
X50862396Y-38862947D01*
X50860799Y-38925968D01*
X50860520Y-38930474D01*
X50854659Y-38989997D01*
X50854659Y-38990004D01*
X50857876Y-39022677D01*
X50858155Y-39030328D01*
X50857243Y-39066360D01*
X50857243Y-39066372D01*
X50867766Y-39125081D01*
X50868440Y-39129942D01*
X50873975Y-39186129D01*
X50873976Y-39186132D01*
X50884489Y-39220791D01*
X50886188Y-39227856D01*
X50893140Y-39266648D01*
X50893142Y-39266655D01*
X50914021Y-39318924D01*
X50915775Y-39323926D01*
X50924160Y-39351568D01*
X50929500Y-39387561D01*
X50929500Y-39705500D01*
X50909815Y-39772539D01*
X50857011Y-39818294D01*
X50805500Y-39829500D01*
X50144257Y-39829500D01*
X49992563Y-39844925D01*
X49992557Y-39844926D01*
X49980164Y-39848815D01*
X49943053Y-39854500D01*
X49921664Y-39854500D01*
X49921643Y-39854501D01*
X49822292Y-39864650D01*
X49822289Y-39864651D01*
X49661305Y-39917996D01*
X49661294Y-39918001D01*
X49516959Y-40007029D01*
X49516955Y-40007032D01*
X49397032Y-40126955D01*
X49397029Y-40126959D01*
X49308001Y-40271294D01*
X49307996Y-40271305D01*
X49254651Y-40432290D01*
X49254650Y-40432297D01*
X49249200Y-40485638D01*
X49245884Y-40504113D01*
X49200937Y-40677712D01*
X49198814Y-40719578D01*
X49175758Y-40785534D01*
X49162654Y-40800977D01*
X48970451Y-40993181D01*
X48909128Y-41026666D01*
X48882770Y-41029500D01*
X46302230Y-41029500D01*
X46235191Y-41009815D01*
X46214549Y-40993181D01*
X45536819Y-40315451D01*
X45503334Y-40254128D01*
X45500500Y-40227770D01*
X45500500Y-33393311D01*
X45520185Y-33326272D01*
X45572989Y-33280517D01*
X45642147Y-33270573D01*
X45705703Y-33299598D01*
G37*
%TD.AperFunction*%
%TA.AperFunction,Conductor*%
G36*
X48741909Y-31277285D02*
G01*
X48762551Y-31293919D01*
X49147119Y-31678487D01*
X49478629Y-32009996D01*
X49512114Y-32071319D01*
X49507130Y-32141010D01*
X49478630Y-32185358D01*
X49397029Y-32266959D01*
X49308001Y-32411294D01*
X49307996Y-32411305D01*
X49254651Y-32572290D01*
X49254650Y-32572297D01*
X49249200Y-32625638D01*
X49245884Y-32644113D01*
X49200937Y-32817712D01*
X49190631Y-33020936D01*
X49221443Y-33222066D01*
X49221444Y-33222071D01*
X49241280Y-33275634D01*
X49248356Y-33306094D01*
X49254651Y-33367709D01*
X49307996Y-33528694D01*
X49308001Y-33528705D01*
X49397029Y-33673040D01*
X49397032Y-33673044D01*
X49516955Y-33792967D01*
X49516959Y-33792970D01*
X49661294Y-33881998D01*
X49661297Y-33881999D01*
X49661303Y-33882003D01*
X49822292Y-33935349D01*
X49921655Y-33945500D01*
X49958993Y-33945499D01*
X49983953Y-33948036D01*
X50093259Y-33970500D01*
X52763243Y-33970500D01*
X52813807Y-33965357D01*
X52914938Y-33955074D01*
X52927327Y-33951186D01*
X52964448Y-33945500D01*
X52979169Y-33945500D01*
X52979174Y-33945500D01*
X53077685Y-33935436D01*
X53237287Y-33882549D01*
X53380391Y-33794281D01*
X53412319Y-33762353D01*
X53473642Y-33728868D01*
X53543334Y-33733852D01*
X53587681Y-33762353D01*
X53619608Y-33794280D01*
X53619612Y-33794283D01*
X53762704Y-33882544D01*
X53762707Y-33882545D01*
X53762713Y-33882549D01*
X53922315Y-33935436D01*
X54020826Y-33945500D01*
X54051495Y-33945500D01*
X54076456Y-33948038D01*
X54110694Y-33955074D01*
X54185759Y-33970500D01*
X56438581Y-33970500D01*
X56503674Y-33988959D01*
X56513166Y-33994814D01*
X56679703Y-34049999D01*
X56722553Y-34054376D01*
X56787244Y-34080771D01*
X56797632Y-34090053D01*
X58306066Y-35598487D01*
X58367438Y-35663050D01*
X58367441Y-35663053D01*
X58417781Y-35698092D01*
X58421543Y-35700928D01*
X58469087Y-35739694D01*
X58469090Y-35739695D01*
X58469093Y-35739698D01*
X58499545Y-35755604D01*
X58506258Y-35759672D01*
X58534451Y-35779295D01*
X58590829Y-35803489D01*
X58595078Y-35805507D01*
X58649451Y-35833909D01*
X58676989Y-35841788D01*
X58682474Y-35843358D01*
X58689868Y-35845990D01*
X58721442Y-35859540D01*
X58721445Y-35859540D01*
X58721446Y-35859541D01*
X58781522Y-35871887D01*
X58786100Y-35873010D01*
X58788204Y-35873612D01*
X58845082Y-35889887D01*
X58879339Y-35892495D01*
X58887114Y-35893586D01*
X58920755Y-35900500D01*
X58920759Y-35900500D01*
X58982099Y-35900500D01*
X58986805Y-35900678D01*
X59014096Y-35902757D01*
X59047976Y-35905337D01*
X59047976Y-35905336D01*
X59047977Y-35905337D01*
X59082060Y-35900996D01*
X59089890Y-35900500D01*
X63787284Y-35900500D01*
X63876358Y-35902757D01*
X63876358Y-35902756D01*
X63876363Y-35902757D01*
X63936753Y-35891932D01*
X63941412Y-35891280D01*
X63983607Y-35886988D01*
X64002438Y-35885074D01*
X64035227Y-35874786D01*
X64042840Y-35872918D01*
X64076653Y-35866858D01*
X64133621Y-35844101D01*
X64138053Y-35842524D01*
X64196588Y-35824159D01*
X64226627Y-35807484D01*
X64233708Y-35804122D01*
X64265617Y-35791377D01*
X64316854Y-35757608D01*
X64320851Y-35755187D01*
X64374502Y-35725409D01*
X64400568Y-35703030D01*
X64406843Y-35698300D01*
X64407159Y-35698092D01*
X64435519Y-35679402D01*
X64478917Y-35636002D01*
X64482336Y-35632834D01*
X64528895Y-35592866D01*
X64549931Y-35565688D01*
X64555105Y-35559815D01*
X65487014Y-34627905D01*
X65548335Y-34594422D01*
X65618027Y-34599406D01*
X65673960Y-34641278D01*
X65698377Y-34706742D01*
X65694468Y-34747680D01*
X65689939Y-34764583D01*
X65689937Y-34764594D01*
X65688064Y-34785993D01*
X65662608Y-34851061D01*
X65652217Y-34862861D01*
X63041899Y-37473181D01*
X62980576Y-37506666D01*
X62954218Y-37509500D01*
X59398283Y-37509500D01*
X59331244Y-37489815D01*
X59310602Y-37473181D01*
X58212553Y-36375132D01*
X58179068Y-36313809D01*
X58176876Y-36300052D01*
X58172499Y-36257203D01*
X58117314Y-36090666D01*
X58025212Y-35941344D01*
X57901156Y-35817288D01*
X57775362Y-35739698D01*
X57751836Y-35725187D01*
X57751831Y-35725185D01*
X57698310Y-35707450D01*
X57585297Y-35670001D01*
X57585295Y-35670000D01*
X57482516Y-35659500D01*
X57482509Y-35659500D01*
X57351499Y-35659500D01*
X57326535Y-35656961D01*
X57283466Y-35648109D01*
X57278891Y-35646986D01*
X57219920Y-35630113D01*
X57219925Y-35630113D01*
X57185658Y-35627503D01*
X57177880Y-35626412D01*
X57144242Y-35619500D01*
X57144241Y-35619500D01*
X57082902Y-35619500D01*
X57078195Y-35619321D01*
X57072621Y-35618896D01*
X57017024Y-35614662D01*
X56997089Y-35617201D01*
X56982940Y-35619003D01*
X56975111Y-35619500D01*
X54236757Y-35619500D01*
X54085063Y-35634925D01*
X54079589Y-35636643D01*
X54072672Y-35638813D01*
X54035552Y-35644500D01*
X54020818Y-35644500D01*
X53922316Y-35654563D01*
X53922315Y-35654564D01*
X53852103Y-35677830D01*
X53762715Y-35707450D01*
X53762704Y-35707455D01*
X53619612Y-35795716D01*
X53619608Y-35795719D01*
X53587681Y-35827647D01*
X53526358Y-35861132D01*
X53456666Y-35856148D01*
X53412319Y-35827647D01*
X53380391Y-35795719D01*
X53380387Y-35795716D01*
X53237295Y-35707455D01*
X53237289Y-35707452D01*
X53237287Y-35707451D01*
X53216217Y-35700469D01*
X53077689Y-35654565D01*
X53077686Y-35654564D01*
X53077685Y-35654564D01*
X53077683Y-35654563D01*
X53071068Y-35653148D01*
X53071185Y-35652597D01*
X53051606Y-35647785D01*
X53051596Y-35647821D01*
X53050665Y-35647554D01*
X53046898Y-35646629D01*
X53045552Y-35646091D01*
X53012531Y-35636643D01*
X53005129Y-35634008D01*
X52973556Y-35620459D01*
X52913466Y-35608109D01*
X52908891Y-35606986D01*
X52849920Y-35590113D01*
X52849925Y-35590113D01*
X52815658Y-35587503D01*
X52807880Y-35586412D01*
X52774242Y-35579500D01*
X52774241Y-35579500D01*
X52712902Y-35579500D01*
X52708195Y-35579321D01*
X52702621Y-35578896D01*
X52647024Y-35574662D01*
X52627089Y-35577201D01*
X52612940Y-35579003D01*
X52605111Y-35579500D01*
X51502229Y-35579500D01*
X51435190Y-35559815D01*
X51414548Y-35543181D01*
X50655729Y-34784361D01*
X50643949Y-34770730D01*
X50636482Y-34760701D01*
X50629612Y-34751472D01*
X50594273Y-34721819D01*
X50589587Y-34717886D01*
X50585612Y-34714244D01*
X50582690Y-34711322D01*
X50579780Y-34708411D01*
X50554040Y-34688059D01*
X50530292Y-34668132D01*
X50495214Y-34638698D01*
X50495213Y-34638697D01*
X50495209Y-34638694D01*
X50489180Y-34634729D01*
X50489212Y-34634680D01*
X50482853Y-34630628D01*
X50482822Y-34630679D01*
X50476680Y-34626891D01*
X50476678Y-34626890D01*
X50476677Y-34626889D01*
X50417741Y-34599406D01*
X50407058Y-34594424D01*
X50372894Y-34577267D01*
X50338433Y-34559960D01*
X50338431Y-34559959D01*
X50338430Y-34559959D01*
X50331645Y-34557489D01*
X50331665Y-34557433D01*
X50324549Y-34554959D01*
X50324531Y-34555015D01*
X50317671Y-34552742D01*
X50289841Y-34546996D01*
X50242434Y-34537207D01*
X50193472Y-34525603D01*
X50167719Y-34519499D01*
X50160547Y-34518661D01*
X50160553Y-34518601D01*
X50153055Y-34517835D01*
X50153050Y-34517895D01*
X50145860Y-34517265D01*
X50069083Y-34519500D01*
X49100148Y-34519500D01*
X49033109Y-34499815D01*
X49012467Y-34483181D01*
X46236819Y-31707533D01*
X46203334Y-31646210D01*
X46200500Y-31619852D01*
X46200500Y-31531600D01*
X46220185Y-31464561D01*
X46272989Y-31418806D01*
X46324500Y-31407600D01*
X46454644Y-31407600D01*
X46454646Y-31407600D01*
X46639803Y-31368244D01*
X46812730Y-31291251D01*
X46817470Y-31287807D01*
X46826452Y-31281282D01*
X46892258Y-31257802D01*
X46899337Y-31257600D01*
X48674870Y-31257600D01*
X48741909Y-31277285D01*
G37*
%TD.AperFunction*%
%TA.AperFunction,Conductor*%
G36*
X49541165Y-20040185D02*
G01*
X49586920Y-20092989D01*
X49596864Y-20162147D01*
X49567839Y-20225703D01*
X49561807Y-20232181D01*
X49547032Y-20246955D01*
X49547029Y-20246959D01*
X49458001Y-20391294D01*
X49457996Y-20391305D01*
X49404651Y-20552290D01*
X49404650Y-20552297D01*
X49399200Y-20605638D01*
X49395884Y-20624113D01*
X49350937Y-20797712D01*
X49340631Y-21000936D01*
X49371443Y-21202066D01*
X49371444Y-21202071D01*
X49391280Y-21255634D01*
X49398356Y-21286094D01*
X49404651Y-21347709D01*
X49457996Y-21508694D01*
X49458001Y-21508705D01*
X49547029Y-21653040D01*
X49547032Y-21653044D01*
X49666955Y-21772967D01*
X49666959Y-21772970D01*
X49811294Y-21861998D01*
X49811297Y-21861999D01*
X49811303Y-21862003D01*
X49903486Y-21892549D01*
X49912962Y-21895689D01*
X49970407Y-21935462D01*
X49975186Y-21946958D01*
X50035144Y-21923870D01*
X50057901Y-21924095D01*
X50059692Y-21924277D01*
X50071655Y-21925500D01*
X50108993Y-21925499D01*
X50133953Y-21928036D01*
X50243259Y-21950500D01*
X51448259Y-21950500D01*
X52433723Y-21950500D01*
X52440024Y-21950820D01*
X52485826Y-21955500D01*
X52507412Y-21955500D01*
X52541524Y-21960284D01*
X52575082Y-21969886D01*
X52763617Y-21984243D01*
X52777975Y-21985337D01*
X52777976Y-21985337D01*
X52777977Y-21985337D01*
X52828438Y-21978910D01*
X52979827Y-21959630D01*
X52979833Y-21959627D01*
X52983792Y-21958710D01*
X53011823Y-21955500D01*
X53019169Y-21955500D01*
X53019174Y-21955500D01*
X53117685Y-21945436D01*
X53277287Y-21892549D01*
X53420391Y-21804281D01*
X53452318Y-21772353D01*
X53513642Y-21738868D01*
X53583334Y-21743852D01*
X53627681Y-21772353D01*
X53659608Y-21804280D01*
X53659612Y-21804283D01*
X53802704Y-21892544D01*
X53802707Y-21892545D01*
X53802713Y-21892549D01*
X53962315Y-21945436D01*
X54060826Y-21955500D01*
X54091495Y-21955500D01*
X54116456Y-21958038D01*
X54174100Y-21969884D01*
X54225759Y-21980500D01*
X56392640Y-21980500D01*
X56457736Y-21998961D01*
X56493159Y-22020810D01*
X56493160Y-22020810D01*
X56493166Y-22020814D01*
X56659703Y-22075999D01*
X56702553Y-22080376D01*
X56767244Y-22106771D01*
X56777632Y-22116053D01*
X58290066Y-23628487D01*
X58351441Y-23693053D01*
X58351444Y-23693055D01*
X58351445Y-23693056D01*
X58401795Y-23728101D01*
X58405547Y-23730929D01*
X58453092Y-23769697D01*
X58453095Y-23769698D01*
X58453097Y-23769700D01*
X58483539Y-23785601D01*
X58490253Y-23789668D01*
X58515568Y-23807288D01*
X58518447Y-23809292D01*
X58518453Y-23809296D01*
X58574831Y-23833490D01*
X58579069Y-23835502D01*
X58633451Y-23863909D01*
X58666473Y-23873356D01*
X58673865Y-23875989D01*
X58700232Y-23887304D01*
X58705442Y-23889540D01*
X58765549Y-23901891D01*
X58770095Y-23903006D01*
X58829082Y-23919886D01*
X58863329Y-23922493D01*
X58871100Y-23923582D01*
X58904759Y-23930500D01*
X58966111Y-23930500D01*
X58970817Y-23930678D01*
X59031976Y-23935336D01*
X59063323Y-23931344D01*
X59066049Y-23930997D01*
X59073889Y-23930500D01*
X63305217Y-23930500D01*
X63372256Y-23950185D01*
X63418011Y-24002989D01*
X63427955Y-24072147D01*
X63398930Y-24135703D01*
X63392898Y-24142181D01*
X62161899Y-25373181D01*
X62100576Y-25406666D01*
X62074218Y-25409500D01*
X59320283Y-25409500D01*
X59253244Y-25389815D01*
X59232602Y-25373181D01*
X58192553Y-24333132D01*
X58159068Y-24271809D01*
X58156876Y-24258052D01*
X58155768Y-24247203D01*
X58152499Y-24215203D01*
X58097314Y-24048666D01*
X58005212Y-23899344D01*
X57881156Y-23775288D01*
X57761323Y-23701375D01*
X57731836Y-23683187D01*
X57731831Y-23683185D01*
X57730362Y-23682698D01*
X57565297Y-23628001D01*
X57565295Y-23628000D01*
X57462510Y-23617500D01*
X56762498Y-23617500D01*
X56762480Y-23617501D01*
X56659703Y-23628000D01*
X56659700Y-23628001D01*
X56557098Y-23662001D01*
X56518094Y-23668295D01*
X54276757Y-23668295D01*
X54125063Y-23683720D01*
X54116424Y-23686430D01*
X54112672Y-23687608D01*
X54075552Y-23693295D01*
X54060818Y-23693295D01*
X53962316Y-23703358D01*
X53962315Y-23703359D01*
X53926624Y-23715186D01*
X53802715Y-23756245D01*
X53802704Y-23756250D01*
X53659612Y-23844511D01*
X53659607Y-23844514D01*
X53627680Y-23876442D01*
X53566356Y-23909927D01*
X53496665Y-23904941D01*
X53452320Y-23876442D01*
X53420392Y-23844514D01*
X53420387Y-23844511D01*
X53277295Y-23756250D01*
X53277289Y-23756247D01*
X53277287Y-23756246D01*
X53117685Y-23703359D01*
X53117683Y-23703358D01*
X53019181Y-23693295D01*
X53019174Y-23693295D01*
X52988505Y-23693295D01*
X52963544Y-23690757D01*
X52854241Y-23668295D01*
X51692230Y-23668295D01*
X51625191Y-23648610D01*
X51604549Y-23631976D01*
X50376934Y-22404361D01*
X50365154Y-22390730D01*
X50357687Y-22380701D01*
X50350817Y-22371472D01*
X50350815Y-22371470D01*
X50310792Y-22337886D01*
X50306817Y-22334244D01*
X50303895Y-22331322D01*
X50300985Y-22328411D01*
X50275245Y-22308059D01*
X50216414Y-22258694D01*
X50210385Y-22254729D01*
X50210417Y-22254680D01*
X50204058Y-22250628D01*
X50204027Y-22250679D01*
X50197885Y-22246891D01*
X50197883Y-22246890D01*
X50197882Y-22246889D01*
X50158679Y-22228608D01*
X50128263Y-22214424D01*
X50094099Y-22197267D01*
X50059638Y-22179960D01*
X50059636Y-22179959D01*
X50059635Y-22179959D01*
X50052850Y-22177489D01*
X50052870Y-22177433D01*
X50045754Y-22174959D01*
X50045736Y-22175015D01*
X50038875Y-22172741D01*
X50020225Y-22168891D01*
X49958551Y-22136057D01*
X49944959Y-22111781D01*
X49937372Y-22119953D01*
X49874254Y-22136152D01*
X49874281Y-22137056D01*
X49870278Y-22137172D01*
X49869696Y-22137322D01*
X49868222Y-22137232D01*
X49790288Y-22139500D01*
X47922213Y-22139500D01*
X47855174Y-22119815D01*
X47834532Y-22103181D01*
X47057316Y-21325965D01*
X46272754Y-20541402D01*
X46242505Y-20492041D01*
X46187163Y-20321716D01*
X46177918Y-20305703D01*
X46130691Y-20223902D01*
X46114218Y-20156002D01*
X46137071Y-20089975D01*
X46191992Y-20046785D01*
X46203657Y-20043240D01*
X46203628Y-20043150D01*
X46209796Y-20041145D01*
X46209803Y-20041144D01*
X46232092Y-20031220D01*
X46282528Y-20020500D01*
X49474126Y-20020500D01*
X49541165Y-20040185D01*
G37*
%TD.AperFunction*%
%TA.AperFunction,Conductor*%
G36*
X53583331Y-18170241D02*
G01*
X53627679Y-18198741D01*
X53659607Y-18230669D01*
X53659612Y-18230672D01*
X53802704Y-18318933D01*
X53802707Y-18318934D01*
X53802713Y-18318938D01*
X53962315Y-18371825D01*
X54060826Y-18381889D01*
X54091495Y-18381889D01*
X54116456Y-18384427D01*
X54150694Y-18391463D01*
X54225759Y-18406889D01*
X56527703Y-18406889D01*
X56566706Y-18413182D01*
X56659703Y-18443999D01*
X56702553Y-18448376D01*
X56767244Y-18474771D01*
X56777632Y-18484053D01*
X58182066Y-19888487D01*
X58243441Y-19953053D01*
X58243444Y-19953055D01*
X58243445Y-19953056D01*
X58293795Y-19988101D01*
X58297547Y-19990929D01*
X58345092Y-20029697D01*
X58345095Y-20029698D01*
X58345097Y-20029700D01*
X58375539Y-20045601D01*
X58382253Y-20049668D01*
X58410447Y-20069292D01*
X58410453Y-20069296D01*
X58466831Y-20093490D01*
X58471069Y-20095502D01*
X58525451Y-20123909D01*
X58558473Y-20133356D01*
X58565865Y-20135989D01*
X58597440Y-20149539D01*
X58597441Y-20149540D01*
X58610554Y-20152234D01*
X58657555Y-20161892D01*
X58662095Y-20163006D01*
X58721082Y-20179886D01*
X58755341Y-20182494D01*
X58763109Y-20183585D01*
X58796755Y-20190500D01*
X58796759Y-20190500D01*
X58858101Y-20190500D01*
X58862808Y-20190678D01*
X58890097Y-20192757D01*
X58923975Y-20195337D01*
X58923975Y-20195336D01*
X58923976Y-20195337D01*
X58958059Y-20190996D01*
X58965889Y-20190500D01*
X64117284Y-20190500D01*
X64206358Y-20192757D01*
X64206358Y-20192756D01*
X64206363Y-20192757D01*
X64266753Y-20181932D01*
X64271412Y-20181280D01*
X64313607Y-20176988D01*
X64332438Y-20175074D01*
X64365227Y-20164786D01*
X64372840Y-20162918D01*
X64406653Y-20156858D01*
X64463629Y-20134098D01*
X64468051Y-20132525D01*
X64480094Y-20128746D01*
X64502597Y-20121685D01*
X64572453Y-20120398D01*
X64631917Y-20157082D01*
X64662109Y-20220092D01*
X64653442Y-20289422D01*
X64627398Y-20327680D01*
X63061899Y-21893181D01*
X63000576Y-21926666D01*
X62974218Y-21929500D01*
X59472283Y-21929500D01*
X59405244Y-21909815D01*
X59384602Y-21893181D01*
X58192553Y-20701132D01*
X58159068Y-20639809D01*
X58156876Y-20626052D01*
X58155747Y-20615001D01*
X58152499Y-20583203D01*
X58097314Y-20416666D01*
X58005212Y-20267344D01*
X57881156Y-20143288D01*
X57761189Y-20069292D01*
X57731836Y-20051187D01*
X57731831Y-20051185D01*
X57717161Y-20046324D01*
X57565297Y-19996001D01*
X57565295Y-19996000D01*
X57462516Y-19985500D01*
X57462509Y-19985500D01*
X57200049Y-19985500D01*
X57175089Y-19982962D01*
X57158242Y-19979500D01*
X57158241Y-19979500D01*
X57096902Y-19979500D01*
X57092195Y-19979321D01*
X57086621Y-19978896D01*
X57031024Y-19974662D01*
X57011089Y-19977201D01*
X56996940Y-19979003D01*
X56989111Y-19979500D01*
X54276757Y-19979500D01*
X54125063Y-19994925D01*
X54116424Y-19997635D01*
X54112672Y-19998813D01*
X54075552Y-20004500D01*
X54060818Y-20004500D01*
X53962316Y-20014563D01*
X53962315Y-20014564D01*
X53916647Y-20029697D01*
X53802715Y-20067450D01*
X53802704Y-20067455D01*
X53659612Y-20155716D01*
X53659608Y-20155719D01*
X53627681Y-20187647D01*
X53566358Y-20221132D01*
X53496666Y-20216148D01*
X53452319Y-20187647D01*
X53420391Y-20155719D01*
X53420387Y-20155716D01*
X53277295Y-20067455D01*
X53277289Y-20067452D01*
X53277287Y-20067451D01*
X53117685Y-20014564D01*
X53117682Y-20014563D01*
X53117684Y-20014563D01*
X53086731Y-20011401D01*
X53050437Y-20001994D01*
X53024670Y-19990937D01*
X53023554Y-19990458D01*
X52963466Y-19978109D01*
X52958891Y-19976986D01*
X52899920Y-19960113D01*
X52899925Y-19960113D01*
X52865658Y-19957503D01*
X52857880Y-19956412D01*
X52824242Y-19949500D01*
X52824241Y-19949500D01*
X52762902Y-19949500D01*
X52758195Y-19949321D01*
X52752621Y-19948896D01*
X52697024Y-19944662D01*
X52677089Y-19947201D01*
X52662940Y-19949003D01*
X52655111Y-19949500D01*
X51662229Y-19949500D01*
X51595190Y-19929815D01*
X51574548Y-19913181D01*
X50445729Y-18784361D01*
X50433949Y-18770730D01*
X50426482Y-18760701D01*
X50419612Y-18751472D01*
X50400456Y-18735398D01*
X50379587Y-18717886D01*
X50375612Y-18714244D01*
X50372690Y-18711322D01*
X50369780Y-18708411D01*
X50344040Y-18688059D01*
X50285209Y-18638694D01*
X50279180Y-18634729D01*
X50280909Y-18632099D01*
X50240123Y-18594034D01*
X50222925Y-18526314D01*
X50245070Y-18460046D01*
X50299527Y-18416271D01*
X50346841Y-18406889D01*
X52803243Y-18406889D01*
X52853807Y-18401746D01*
X52954938Y-18391463D01*
X52967327Y-18387575D01*
X53004448Y-18381889D01*
X53019169Y-18381889D01*
X53019174Y-18381889D01*
X53117685Y-18371825D01*
X53277287Y-18318938D01*
X53420391Y-18230670D01*
X53452319Y-18198741D01*
X53513639Y-18165257D01*
X53583331Y-18170241D01*
G37*
%TD.AperFunction*%
%TA.AperFunction,Conductor*%
G36*
X49548419Y-16470185D02*
G01*
X49569061Y-16486819D01*
X49578628Y-16496386D01*
X49612113Y-16557709D01*
X49607129Y-16627401D01*
X49578629Y-16671747D01*
X49547032Y-16703343D01*
X49547029Y-16703348D01*
X49458001Y-16847683D01*
X49457996Y-16847694D01*
X49404651Y-17008679D01*
X49404650Y-17008686D01*
X49399200Y-17062027D01*
X49395884Y-17080502D01*
X49350937Y-17254101D01*
X49340631Y-17457325D01*
X49371443Y-17658455D01*
X49371444Y-17658460D01*
X49391280Y-17712023D01*
X49398356Y-17742483D01*
X49404651Y-17804098D01*
X49457996Y-17965083D01*
X49458001Y-17965094D01*
X49547029Y-18109429D01*
X49547032Y-18109433D01*
X49666955Y-18229356D01*
X49666959Y-18229359D01*
X49765210Y-18289962D01*
X49811935Y-18341910D01*
X49823156Y-18410873D01*
X49795313Y-18474955D01*
X49737244Y-18513810D01*
X49700113Y-18519500D01*
X46593211Y-18519500D01*
X46526172Y-18499815D01*
X46520326Y-18495818D01*
X46382734Y-18395851D01*
X46382729Y-18395848D01*
X46209807Y-18318857D01*
X46209802Y-18318855D01*
X46064000Y-18287865D01*
X46024646Y-18279500D01*
X45902988Y-18279500D01*
X45835949Y-18259815D01*
X45790194Y-18207011D01*
X45780250Y-18137853D01*
X45797089Y-18093420D01*
X45796578Y-18093164D01*
X45799066Y-18088205D01*
X45799386Y-18087363D01*
X45803801Y-18080650D01*
X45803852Y-18080683D01*
X45807902Y-18074326D01*
X45807850Y-18074294D01*
X45811642Y-18068145D01*
X45844105Y-17998528D01*
X45878566Y-17929910D01*
X45878570Y-17929903D01*
X45878572Y-17929891D01*
X45881039Y-17923116D01*
X45881097Y-17923137D01*
X45883573Y-17916016D01*
X45883516Y-17915998D01*
X45885787Y-17909143D01*
X45901322Y-17833904D01*
X45919030Y-17759192D01*
X45919869Y-17752015D01*
X45919930Y-17752022D01*
X45920696Y-17744530D01*
X45920634Y-17744525D01*
X45921262Y-17737333D01*
X45921264Y-17737326D01*
X45919030Y-17660553D01*
X45919030Y-16688512D01*
X45938713Y-16621477D01*
X45991517Y-16575722D01*
X46060676Y-16565778D01*
X46068810Y-16567226D01*
X46138583Y-16582056D01*
X46225354Y-16600500D01*
X46225355Y-16600500D01*
X46414644Y-16600500D01*
X46414646Y-16600500D01*
X46599803Y-16561144D01*
X46772730Y-16484151D01*
X46774776Y-16482664D01*
X46786452Y-16474182D01*
X46852258Y-16450702D01*
X46859337Y-16450500D01*
X49481380Y-16450500D01*
X49548419Y-16470185D01*
G37*
%TD.AperFunction*%
%TA.AperFunction,Conductor*%
G36*
X53583334Y-14539038D02*
G01*
X53627681Y-14567539D01*
X53659608Y-14599466D01*
X53659612Y-14599469D01*
X53802704Y-14687730D01*
X53802707Y-14687731D01*
X53802713Y-14687735D01*
X53962315Y-14740622D01*
X54060826Y-14750686D01*
X54091495Y-14750686D01*
X54116456Y-14753224D01*
X54183842Y-14767072D01*
X54225759Y-14775686D01*
X56530108Y-14775686D01*
X56569111Y-14781979D01*
X56659703Y-14811999D01*
X56702553Y-14816376D01*
X56767244Y-14842771D01*
X56777632Y-14852053D01*
X57603410Y-15677830D01*
X58254048Y-16328468D01*
X58315441Y-16393053D01*
X58315444Y-16393055D01*
X58315447Y-16393058D01*
X58333883Y-16405889D01*
X58365803Y-16428106D01*
X58369544Y-16430926D01*
X58417093Y-16469698D01*
X58447545Y-16485604D01*
X58454258Y-16489672D01*
X58482451Y-16509295D01*
X58538829Y-16533489D01*
X58543078Y-16535507D01*
X58597451Y-16563909D01*
X58624989Y-16571788D01*
X58630474Y-16573358D01*
X58637868Y-16575990D01*
X58669442Y-16589540D01*
X58669445Y-16589540D01*
X58669446Y-16589541D01*
X58729522Y-16601887D01*
X58734100Y-16603010D01*
X58748001Y-16606987D01*
X58793082Y-16619887D01*
X58827339Y-16622495D01*
X58835114Y-16623586D01*
X58868755Y-16630500D01*
X58868759Y-16630500D01*
X58930098Y-16630500D01*
X58934804Y-16630678D01*
X58969562Y-16633325D01*
X58995975Y-16635337D01*
X58995975Y-16635336D01*
X58995976Y-16635337D01*
X59030059Y-16630996D01*
X59037889Y-16630500D01*
X64975038Y-16630500D01*
X65042077Y-16650185D01*
X65087832Y-16702989D01*
X65097776Y-16772147D01*
X65073018Y-16830498D01*
X65072779Y-16830807D01*
X65070017Y-16834368D01*
X65064863Y-16840214D01*
X63751899Y-18153181D01*
X63690576Y-18186666D01*
X63664218Y-18189500D01*
X59364283Y-18189500D01*
X59297244Y-18169815D01*
X59276602Y-18153181D01*
X58192553Y-17069132D01*
X58159068Y-17007809D01*
X58156876Y-16994052D01*
X58152499Y-16951203D01*
X58097314Y-16784666D01*
X58005212Y-16635344D01*
X57881156Y-16511288D01*
X57782602Y-16450500D01*
X57731836Y-16419187D01*
X57731831Y-16419185D01*
X57654747Y-16393642D01*
X57565297Y-16364001D01*
X57565295Y-16364000D01*
X57462510Y-16353500D01*
X56762498Y-16353500D01*
X56762480Y-16353501D01*
X56659702Y-16364000D01*
X56552288Y-16399595D01*
X56513284Y-16405889D01*
X54276757Y-16405889D01*
X54125063Y-16421314D01*
X54116424Y-16424024D01*
X54112672Y-16425202D01*
X54075552Y-16430889D01*
X54060818Y-16430889D01*
X53962316Y-16440952D01*
X53962315Y-16440953D01*
X53894774Y-16463334D01*
X53802715Y-16493839D01*
X53802704Y-16493844D01*
X53659612Y-16582105D01*
X53659608Y-16582108D01*
X53627681Y-16614036D01*
X53566358Y-16647521D01*
X53496666Y-16642537D01*
X53452319Y-16614036D01*
X53420391Y-16582108D01*
X53420387Y-16582105D01*
X53277295Y-16493844D01*
X53277289Y-16493841D01*
X53277287Y-16493840D01*
X53117685Y-16440953D01*
X53117683Y-16440952D01*
X53019181Y-16430889D01*
X53019174Y-16430889D01*
X52988505Y-16430889D01*
X52963544Y-16428351D01*
X52854241Y-16405889D01*
X51662229Y-16405889D01*
X51595190Y-16386204D01*
X51574548Y-16369570D01*
X50419340Y-15214361D01*
X50407560Y-15200730D01*
X50400093Y-15190701D01*
X50393223Y-15181472D01*
X50393221Y-15181470D01*
X50353198Y-15147886D01*
X50349223Y-15144244D01*
X50346301Y-15141322D01*
X50343391Y-15138411D01*
X50317651Y-15118059D01*
X50266248Y-15074927D01*
X50258825Y-15068698D01*
X50258824Y-15068697D01*
X50258820Y-15068694D01*
X50252791Y-15064729D01*
X50252823Y-15064680D01*
X50246464Y-15060628D01*
X50246433Y-15060679D01*
X50240291Y-15056891D01*
X50240289Y-15056890D01*
X50240288Y-15056889D01*
X50170668Y-15024424D01*
X50120728Y-14999343D01*
X50069655Y-14951666D01*
X50052465Y-14883944D01*
X50074617Y-14817679D01*
X50129078Y-14773909D01*
X50198557Y-14766532D01*
X50201343Y-14767072D01*
X50243256Y-14775686D01*
X50243259Y-14775686D01*
X52803243Y-14775686D01*
X52864074Y-14769500D01*
X52954938Y-14760260D01*
X52967327Y-14756372D01*
X53004448Y-14750686D01*
X53019169Y-14750686D01*
X53019174Y-14750686D01*
X53117685Y-14740622D01*
X53277287Y-14687735D01*
X53420391Y-14599467D01*
X53452318Y-14567539D01*
X53513642Y-14534054D01*
X53583334Y-14539038D01*
G37*
%TD.AperFunction*%
%TA.AperFunction,Conductor*%
G36*
X49293229Y-13530185D02*
G01*
X49338984Y-13582989D01*
X49350030Y-13640777D01*
X49342115Y-13796862D01*
X49340631Y-13826123D01*
X49371443Y-14027252D01*
X49371444Y-14027257D01*
X49391280Y-14080820D01*
X49398356Y-14111280D01*
X49404651Y-14172895D01*
X49457996Y-14333880D01*
X49458001Y-14333891D01*
X49547029Y-14478226D01*
X49547032Y-14478230D01*
X49666955Y-14598153D01*
X49666959Y-14598156D01*
X49811294Y-14687184D01*
X49811297Y-14687185D01*
X49811303Y-14687189D01*
X49873195Y-14707697D01*
X49930639Y-14747469D01*
X49957463Y-14811985D01*
X49945148Y-14880760D01*
X49897606Y-14931961D01*
X49837833Y-14949349D01*
X49834006Y-14949461D01*
X49832694Y-14949500D01*
X46859337Y-14949500D01*
X46792298Y-14929815D01*
X46786452Y-14925818D01*
X46772734Y-14915851D01*
X46772729Y-14915848D01*
X46599807Y-14838857D01*
X46599802Y-14838855D01*
X46444709Y-14805890D01*
X46383227Y-14772698D01*
X46349451Y-14711535D01*
X46354103Y-14641820D01*
X46395708Y-14585688D01*
X46397605Y-14584282D01*
X46420650Y-14567539D01*
X46495871Y-14512888D01*
X46622533Y-14372216D01*
X46717179Y-14208284D01*
X46775674Y-14028256D01*
X46795460Y-13840000D01*
X46775674Y-13651744D01*
X46775672Y-13651739D01*
X46775223Y-13647462D01*
X46787792Y-13578732D01*
X46835524Y-13527708D01*
X46898544Y-13510500D01*
X49226190Y-13510500D01*
X49293229Y-13530185D01*
G37*
%TD.AperFunction*%
%TA.AperFunction,Conductor*%
G36*
X53583334Y-10903852D02*
G01*
X53627681Y-10932353D01*
X53659608Y-10964280D01*
X53659612Y-10964283D01*
X53802704Y-11052544D01*
X53802707Y-11052545D01*
X53802713Y-11052549D01*
X53962315Y-11105436D01*
X54060826Y-11115500D01*
X54091495Y-11115500D01*
X54116456Y-11118038D01*
X54150694Y-11125074D01*
X54225759Y-11140500D01*
X56520493Y-11140500D01*
X56559496Y-11146794D01*
X56592947Y-11157878D01*
X56659703Y-11179999D01*
X56702553Y-11184376D01*
X56767244Y-11210771D01*
X56777632Y-11220053D01*
X58056066Y-12498487D01*
X58099697Y-12544387D01*
X58117441Y-12563053D01*
X58167794Y-12598100D01*
X58171537Y-12600922D01*
X58195157Y-12620181D01*
X58219095Y-12639700D01*
X58239553Y-12650385D01*
X58249545Y-12655605D01*
X58256255Y-12659670D01*
X58274109Y-12672097D01*
X58284451Y-12679295D01*
X58340822Y-12703486D01*
X58345071Y-12705503D01*
X58399451Y-12733910D01*
X58432480Y-12743359D01*
X58439872Y-12745992D01*
X58466230Y-12757303D01*
X58471442Y-12759540D01*
X58531529Y-12771887D01*
X58536095Y-12773009D01*
X58560141Y-12779889D01*
X58595082Y-12789887D01*
X58629339Y-12792495D01*
X58637114Y-12793586D01*
X58670755Y-12800500D01*
X58670759Y-12800500D01*
X58732099Y-12800500D01*
X58736805Y-12800678D01*
X58771563Y-12803325D01*
X58797976Y-12805337D01*
X58797976Y-12805336D01*
X58797977Y-12805337D01*
X58832060Y-12800996D01*
X58839890Y-12800500D01*
X65612229Y-12800500D01*
X65679268Y-12820185D01*
X65725023Y-12872989D01*
X65732004Y-12892407D01*
X65751094Y-12963655D01*
X65751096Y-12963659D01*
X65751097Y-12963663D01*
X65769600Y-13003342D01*
X65850964Y-13177828D01*
X65850965Y-13177830D01*
X65986505Y-13371402D01*
X66153596Y-13538493D01*
X66153599Y-13538495D01*
X66310593Y-13648423D01*
X66310595Y-13648424D01*
X66354220Y-13703000D01*
X66361414Y-13772499D01*
X66329891Y-13834854D01*
X66310596Y-13851574D01*
X66153594Y-13961508D01*
X65986506Y-14128597D01*
X65986501Y-14128604D01*
X65850967Y-14322165D01*
X65850965Y-14322169D01*
X65751098Y-14536335D01*
X65751092Y-14536350D01*
X65750759Y-14537595D01*
X65750462Y-14538082D01*
X65749243Y-14541431D01*
X65748570Y-14541186D01*
X65714394Y-14597255D01*
X65651546Y-14627783D01*
X65630985Y-14629500D01*
X59436282Y-14629500D01*
X59369243Y-14609815D01*
X59348601Y-14593181D01*
X58192553Y-13437133D01*
X58159068Y-13375810D01*
X58156876Y-13362053D01*
X58152499Y-13319203D01*
X58097314Y-13152666D01*
X58005212Y-13003344D01*
X57881156Y-12879288D01*
X57761262Y-12805337D01*
X57731836Y-12787187D01*
X57731831Y-12787185D01*
X57697944Y-12775956D01*
X57565297Y-12732001D01*
X57565295Y-12732000D01*
X57462510Y-12721500D01*
X56762498Y-12721500D01*
X56762480Y-12721501D01*
X56659703Y-12732000D01*
X56659700Y-12732001D01*
X56549882Y-12768392D01*
X56510878Y-12774686D01*
X54276757Y-12774686D01*
X54125063Y-12790111D01*
X54117470Y-12792494D01*
X54112672Y-12793999D01*
X54075552Y-12799686D01*
X54060818Y-12799686D01*
X53962316Y-12809749D01*
X53962315Y-12809750D01*
X53887317Y-12834602D01*
X53802715Y-12862636D01*
X53802704Y-12862641D01*
X53659612Y-12950902D01*
X53659607Y-12950905D01*
X53627680Y-12982833D01*
X53566356Y-13016318D01*
X53496665Y-13011332D01*
X53452320Y-12982833D01*
X53420392Y-12950905D01*
X53420387Y-12950902D01*
X53277295Y-12862641D01*
X53277289Y-12862638D01*
X53277287Y-12862637D01*
X53117685Y-12809750D01*
X53117683Y-12809749D01*
X53019181Y-12799686D01*
X53019174Y-12799686D01*
X52988505Y-12799686D01*
X52963544Y-12797148D01*
X52854241Y-12774686D01*
X51782229Y-12774686D01*
X51715190Y-12755001D01*
X51694548Y-12738367D01*
X51230543Y-12274361D01*
X51218763Y-12260730D01*
X51211296Y-12250701D01*
X51204426Y-12241472D01*
X51184145Y-12224454D01*
X51164401Y-12207886D01*
X51160426Y-12204244D01*
X51157504Y-12201322D01*
X51154594Y-12198411D01*
X51128854Y-12178059D01*
X51070023Y-12128694D01*
X51063994Y-12124729D01*
X51064026Y-12124680D01*
X51057667Y-12120628D01*
X51057636Y-12120679D01*
X51051494Y-12116891D01*
X51051492Y-12116890D01*
X51051491Y-12116889D01*
X51012288Y-12098608D01*
X50981872Y-12084424D01*
X50932472Y-12059615D01*
X50881397Y-12011937D01*
X50864207Y-11944215D01*
X50886359Y-11877950D01*
X50920031Y-11845172D01*
X50921524Y-11844190D01*
X50923309Y-11843018D01*
X50926017Y-11841347D01*
X50988656Y-11802712D01*
X50988662Y-11802705D01*
X50994325Y-11798229D01*
X50994362Y-11798277D01*
X51000204Y-11793518D01*
X51000164Y-11793471D01*
X51005686Y-11788836D01*
X51005696Y-11788830D01*
X51027398Y-11765825D01*
X51058386Y-11732982D01*
X51614548Y-11176819D01*
X51675871Y-11143334D01*
X51702229Y-11140500D01*
X52803243Y-11140500D01*
X52853807Y-11135358D01*
X52954938Y-11125074D01*
X52967327Y-11121186D01*
X53004448Y-11115500D01*
X53019169Y-11115500D01*
X53019174Y-11115500D01*
X53117685Y-11105436D01*
X53277287Y-11052549D01*
X53420391Y-10964281D01*
X53452318Y-10932353D01*
X53513642Y-10898868D01*
X53583334Y-10903852D01*
G37*
%TD.AperFunction*%
%TA.AperFunction,Conductor*%
G36*
X74942539Y-20185D02*
G01*
X74988294Y-72989D01*
X74999500Y-124500D01*
X74999500Y-2499500D01*
X74990024Y-49865991D01*
X74970326Y-49933026D01*
X74917513Y-49978771D01*
X74865991Y-49989966D01*
X27104582Y-49977230D01*
X27037548Y-49957528D01*
X26991807Y-49904711D01*
X26981882Y-49835550D01*
X27010924Y-49772002D01*
X27039518Y-49747692D01*
X27068015Y-49730114D01*
X27128655Y-49692711D01*
X27252711Y-49568655D01*
X27344814Y-49419334D01*
X27399999Y-49252797D01*
X27410500Y-49150008D01*
X27410500Y-46149992D01*
X27399999Y-46047203D01*
X27344814Y-45880666D01*
X27252711Y-45731345D01*
X27128655Y-45607289D01*
X27128651Y-45607286D01*
X26979337Y-45515187D01*
X26979335Y-45515186D01*
X26896065Y-45487593D01*
X26812797Y-45460001D01*
X26812795Y-45460000D01*
X26710015Y-45449500D01*
X26710008Y-45449500D01*
X25609992Y-45449500D01*
X25609984Y-45449500D01*
X25507204Y-45460000D01*
X25507203Y-45460001D01*
X25340664Y-45515186D01*
X25340662Y-45515187D01*
X25191348Y-45607286D01*
X25191344Y-45607289D01*
X25067289Y-45731344D01*
X25067286Y-45731348D01*
X24975187Y-45880662D01*
X24975186Y-45880664D01*
X24920001Y-46047203D01*
X24920000Y-46047204D01*
X24909500Y-46149984D01*
X24909500Y-49150015D01*
X24920000Y-49252795D01*
X24920001Y-49252796D01*
X24975186Y-49419335D01*
X24975187Y-49419337D01*
X25067286Y-49568651D01*
X25067289Y-49568655D01*
X25191345Y-49692711D01*
X25279665Y-49747188D01*
X25326389Y-49799136D01*
X25337610Y-49868099D01*
X25309767Y-49932181D01*
X25251698Y-49971036D01*
X25214534Y-49976726D01*
X16409206Y-49974377D01*
X16342172Y-49954675D01*
X16296431Y-49901858D01*
X16286506Y-49832697D01*
X16315548Y-49769149D01*
X16344138Y-49744841D01*
X16428655Y-49692711D01*
X16552711Y-49568655D01*
X16644814Y-49419334D01*
X16699999Y-49252797D01*
X16710500Y-49150008D01*
X16710500Y-46149992D01*
X16699999Y-46047203D01*
X16644814Y-45880666D01*
X16552711Y-45731345D01*
X16428655Y-45607289D01*
X16428651Y-45607286D01*
X16279337Y-45515187D01*
X16279335Y-45515186D01*
X16196065Y-45487593D01*
X16112797Y-45460001D01*
X16112795Y-45460000D01*
X16010015Y-45449500D01*
X16010008Y-45449500D01*
X14909992Y-45449500D01*
X14909984Y-45449500D01*
X14807204Y-45460000D01*
X14807203Y-45460001D01*
X14640664Y-45515186D01*
X14640662Y-45515187D01*
X14491348Y-45607286D01*
X14491344Y-45607289D01*
X14367289Y-45731344D01*
X14367286Y-45731348D01*
X14275187Y-45880662D01*
X14275186Y-45880664D01*
X14220001Y-46047203D01*
X14220000Y-46047204D01*
X14209500Y-46149984D01*
X14209500Y-49150015D01*
X14220000Y-49252795D01*
X14220001Y-49252796D01*
X14275186Y-49419335D01*
X14275187Y-49419337D01*
X14367286Y-49568651D01*
X14367289Y-49568655D01*
X14491344Y-49692710D01*
X14491348Y-49692713D01*
X14575036Y-49744333D01*
X14621761Y-49796281D01*
X14632982Y-49865243D01*
X14605139Y-49929325D01*
X14547070Y-49968181D01*
X14509906Y-49973871D01*
X124467Y-49970035D01*
X57433Y-49950333D01*
X11692Y-49897516D01*
X500Y-49846035D01*
X500Y-38598988D01*
X20185Y-38531949D01*
X72989Y-38486194D01*
X142147Y-38476250D01*
X205703Y-38505275D01*
X242205Y-38559982D01*
X245080Y-38568657D01*
X265186Y-38629335D01*
X265187Y-38629337D01*
X357286Y-38778651D01*
X357289Y-38778655D01*
X481344Y-38902710D01*
X481348Y-38902713D01*
X630662Y-38994812D01*
X630664Y-38994813D01*
X630666Y-38994814D01*
X797203Y-39049999D01*
X899992Y-39060500D01*
X899997Y-39060500D01*
X3900003Y-39060500D01*
X3900008Y-39060500D01*
X4002797Y-39049999D01*
X4169334Y-38994814D01*
X4318655Y-38902711D01*
X4442711Y-38778655D01*
X4534814Y-38629334D01*
X4589999Y-38462797D01*
X4600500Y-38360008D01*
X4600500Y-37259992D01*
X4589999Y-37157203D01*
X4534814Y-36990666D01*
X4532484Y-36986889D01*
X4442713Y-36841348D01*
X4442710Y-36841344D01*
X4318655Y-36717289D01*
X4318651Y-36717286D01*
X4169337Y-36625187D01*
X4169335Y-36625186D01*
X4086065Y-36597593D01*
X4002797Y-36570001D01*
X4002795Y-36570000D01*
X3900015Y-36559500D01*
X3900008Y-36559500D01*
X899992Y-36559500D01*
X899984Y-36559500D01*
X797204Y-36570000D01*
X797203Y-36570001D01*
X630664Y-36625186D01*
X630662Y-36625187D01*
X481348Y-36717286D01*
X481344Y-36717289D01*
X357289Y-36841344D01*
X357286Y-36841348D01*
X265187Y-36990662D01*
X265186Y-36990665D01*
X242206Y-37060015D01*
X202433Y-37117460D01*
X137917Y-37144283D01*
X69142Y-37131968D01*
X17942Y-37084425D01*
X500Y-37021011D01*
X500Y-33760001D01*
X5899500Y-33760001D01*
X5899501Y-33760019D01*
X5910000Y-33862796D01*
X5910001Y-33862799D01*
X5965185Y-34029331D01*
X5965187Y-34029336D01*
X5977932Y-34049999D01*
X6057288Y-34178656D01*
X6181344Y-34302712D01*
X6330666Y-34394814D01*
X6497203Y-34449999D01*
X6599991Y-34460500D01*
X8037769Y-34460499D01*
X8104808Y-34480184D01*
X8125450Y-34496818D01*
X8464270Y-34835638D01*
X8476051Y-34849270D01*
X8490388Y-34868528D01*
X8530409Y-34902111D01*
X8534397Y-34905766D01*
X8540216Y-34911585D01*
X8540220Y-34911588D01*
X8540223Y-34911591D01*
X8565959Y-34931940D01*
X8624786Y-34981302D01*
X8624787Y-34981302D01*
X8624789Y-34981304D01*
X8630818Y-34985270D01*
X8630785Y-34985319D01*
X8637147Y-34989372D01*
X8637179Y-34989321D01*
X8643319Y-34993108D01*
X8643323Y-34993111D01*
X8678132Y-35009343D01*
X8712941Y-35025575D01*
X8781565Y-35060039D01*
X8781567Y-35060040D01*
X8781569Y-35060040D01*
X8788357Y-35062511D01*
X8788336Y-35062567D01*
X8795457Y-35065043D01*
X8795476Y-35064986D01*
X8802322Y-35067254D01*
X8802327Y-35067257D01*
X8802332Y-35067258D01*
X8802335Y-35067259D01*
X8877564Y-35082792D01*
X8877565Y-35082792D01*
X8952279Y-35100500D01*
X8952282Y-35100500D01*
X8952286Y-35100501D01*
X8959453Y-35101339D01*
X8959446Y-35101398D01*
X8966944Y-35102164D01*
X8966950Y-35102105D01*
X8974139Y-35102734D01*
X8974143Y-35102733D01*
X8974144Y-35102734D01*
X9050917Y-35100500D01*
X10060663Y-35100500D01*
X10127702Y-35120185D01*
X10133548Y-35124182D01*
X10147265Y-35134148D01*
X10147270Y-35134151D01*
X10320192Y-35211142D01*
X10320197Y-35211144D01*
X10505354Y-35250500D01*
X10505355Y-35250500D01*
X10694644Y-35250500D01*
X10694646Y-35250500D01*
X10879803Y-35211144D01*
X11052730Y-35134151D01*
X11205871Y-35022888D01*
X11332533Y-34882216D01*
X11427179Y-34718284D01*
X11485674Y-34538256D01*
X11505460Y-34350000D01*
X11498361Y-34282459D01*
X11510930Y-34213732D01*
X11558662Y-34162708D01*
X11621682Y-34145500D01*
X13405500Y-34145500D01*
X13472539Y-34165185D01*
X13518294Y-34217989D01*
X13529500Y-34269500D01*
X13529499Y-36526294D01*
X13528191Y-36544259D01*
X13524710Y-36568026D01*
X13529264Y-36620064D01*
X13529500Y-36625470D01*
X13529500Y-36633709D01*
X13533306Y-36666274D01*
X13535792Y-36694693D01*
X13522025Y-36763193D01*
X13473410Y-36813376D01*
X13412264Y-36829500D01*
X12922129Y-36829500D01*
X12922123Y-36829501D01*
X12862516Y-36835908D01*
X12727671Y-36886202D01*
X12727669Y-36886204D01*
X12708536Y-36900527D01*
X12643072Y-36924944D01*
X12634225Y-36925260D01*
X12525888Y-36925260D01*
X12458849Y-36905575D01*
X12453003Y-36901578D01*
X12439285Y-36891611D01*
X12439280Y-36891608D01*
X12266358Y-36814617D01*
X12266353Y-36814615D01*
X12120551Y-36783625D01*
X12081197Y-36775260D01*
X11891905Y-36775260D01*
X11859448Y-36782158D01*
X11706748Y-36814615D01*
X11706743Y-36814617D01*
X11533821Y-36891608D01*
X11533816Y-36891611D01*
X11380680Y-37002871D01*
X11254017Y-37143545D01*
X11159372Y-37307475D01*
X11159369Y-37307482D01*
X11100878Y-37487500D01*
X11100877Y-37487504D01*
X11081091Y-37675760D01*
X11100877Y-37864016D01*
X11100878Y-37864019D01*
X11159369Y-38044037D01*
X11159372Y-38044044D01*
X11254018Y-38207976D01*
X11377134Y-38344710D01*
X11380680Y-38348648D01*
X11533816Y-38459908D01*
X11533821Y-38459911D01*
X11706743Y-38536902D01*
X11706748Y-38536904D01*
X11891905Y-38576260D01*
X11891906Y-38576260D01*
X12081195Y-38576260D01*
X12081197Y-38576260D01*
X12266354Y-38536904D01*
X12439281Y-38459911D01*
X12445508Y-38455387D01*
X12453003Y-38449942D01*
X12518809Y-38426462D01*
X12525888Y-38426260D01*
X12879369Y-38426260D01*
X12886001Y-38426616D01*
X12890213Y-38427068D01*
X12922127Y-38430500D01*
X13239470Y-38430499D01*
X13245035Y-38430904D01*
X13245037Y-38430839D01*
X13252260Y-38431049D01*
X13252261Y-38431048D01*
X13252263Y-38431049D01*
X13254018Y-38430895D01*
X13255840Y-38430736D01*
X13261253Y-38430499D01*
X13717871Y-38430499D01*
X13717872Y-38430499D01*
X13777483Y-38424091D01*
X13912331Y-38373796D01*
X14027546Y-38287546D01*
X14113796Y-38172331D01*
X14164091Y-38037483D01*
X14170500Y-37977873D01*
X14170499Y-37841227D01*
X14190183Y-37774190D01*
X14242987Y-37728435D01*
X14312145Y-37718491D01*
X14375701Y-37747515D01*
X14382180Y-37753548D01*
X14433181Y-37804549D01*
X14466666Y-37865872D01*
X14469500Y-37892229D01*
X14469500Y-37977869D01*
X14469501Y-37977876D01*
X14475908Y-38037483D01*
X14526202Y-38172328D01*
X14526206Y-38172335D01*
X14612452Y-38287544D01*
X14612455Y-38287547D01*
X14727664Y-38373793D01*
X14727671Y-38373797D01*
X14862517Y-38424091D01*
X14862516Y-38424091D01*
X14866116Y-38424478D01*
X14922127Y-38430500D01*
X15717872Y-38430499D01*
X15777483Y-38424091D01*
X15873395Y-38388318D01*
X15916729Y-38380500D01*
X16773220Y-38380500D01*
X16840259Y-38400185D01*
X16886014Y-38452989D01*
X16895958Y-38522147D01*
X16866933Y-38585703D01*
X16846106Y-38604818D01*
X16774127Y-38657113D01*
X16647466Y-38797785D01*
X16552821Y-38961715D01*
X16552818Y-38961722D01*
X16496624Y-39134671D01*
X16494326Y-39141744D01*
X16474540Y-39330000D01*
X16494326Y-39518256D01*
X16494327Y-39518258D01*
X16494327Y-39518259D01*
X16552818Y-39698277D01*
X16552821Y-39698284D01*
X16573767Y-39734564D01*
X16582887Y-39750359D01*
X16599500Y-39812359D01*
X16599500Y-41376294D01*
X16598191Y-41394263D01*
X16594710Y-41418025D01*
X16599264Y-41470064D01*
X16599500Y-41475470D01*
X16599500Y-41483709D01*
X16603306Y-41516274D01*
X16610000Y-41592791D01*
X16611461Y-41599867D01*
X16611403Y-41599878D01*
X16613034Y-41607237D01*
X16613092Y-41607224D01*
X16614757Y-41614250D01*
X16641025Y-41686424D01*
X16665185Y-41759331D01*
X16668236Y-41765874D01*
X16668182Y-41765898D01*
X16671470Y-41772688D01*
X16671521Y-41772663D01*
X16674761Y-41779113D01*
X16674762Y-41779114D01*
X16674763Y-41779117D01*
X16698412Y-41815074D01*
X16716965Y-41843283D01*
X16757287Y-41908655D01*
X16761766Y-41914319D01*
X16761719Y-41914356D01*
X16766478Y-41920198D01*
X16766524Y-41920160D01*
X16775808Y-41931223D01*
X16774689Y-41932161D01*
X16805847Y-41985468D01*
X16809500Y-42015346D01*
X16809500Y-43450001D01*
X16809501Y-43450018D01*
X16820000Y-43552796D01*
X16820001Y-43552799D01*
X16875185Y-43719331D01*
X16875187Y-43719336D01*
X16886719Y-43738032D01*
X16967288Y-43868656D01*
X17091344Y-43992712D01*
X17240666Y-44084814D01*
X17407203Y-44139999D01*
X17509991Y-44150500D01*
X18110008Y-44150499D01*
X18110016Y-44150498D01*
X18110019Y-44150498D01*
X18166718Y-44144706D01*
X18212797Y-44139999D01*
X18379334Y-44084814D01*
X18528656Y-43992712D01*
X18652712Y-43868656D01*
X18704461Y-43784756D01*
X18756409Y-43738032D01*
X18825371Y-43726809D01*
X18889454Y-43754653D01*
X18915539Y-43784757D01*
X18967286Y-43868654D01*
X18967288Y-43868656D01*
X19091344Y-43992712D01*
X19240666Y-44084814D01*
X19407203Y-44139999D01*
X19509991Y-44150500D01*
X20110008Y-44150499D01*
X20110016Y-44150498D01*
X20110019Y-44150498D01*
X20166718Y-44144706D01*
X20212797Y-44139999D01*
X20299172Y-44111376D01*
X20368997Y-44108975D01*
X20429039Y-44144706D01*
X20460232Y-44207226D01*
X20452673Y-44276686D01*
X20445562Y-44291082D01*
X20410137Y-44352441D01*
X20354717Y-44448433D01*
X20352820Y-44451718D01*
X20352818Y-44451722D01*
X20294327Y-44631740D01*
X20294326Y-44631744D01*
X20274540Y-44820000D01*
X20294326Y-45008256D01*
X20294327Y-45008259D01*
X20352818Y-45188277D01*
X20352821Y-45188284D01*
X20447467Y-45352216D01*
X20574128Y-45492887D01*
X20574129Y-45492888D01*
X20727265Y-45604148D01*
X20727270Y-45604151D01*
X20900192Y-45681142D01*
X20900197Y-45681144D01*
X21085354Y-45720500D01*
X21085355Y-45720500D01*
X21274644Y-45720500D01*
X21274646Y-45720500D01*
X21459803Y-45681144D01*
X21632730Y-45604151D01*
X21785871Y-45492888D01*
X21912533Y-45352216D01*
X22007179Y-45188284D01*
X22062522Y-45017955D01*
X22092769Y-44968597D01*
X22295641Y-44765724D01*
X22309260Y-44753954D01*
X22328530Y-44739610D01*
X22362123Y-44699574D01*
X22365757Y-44695608D01*
X22371591Y-44689776D01*
X22391930Y-44664052D01*
X22441302Y-44605214D01*
X22441306Y-44605205D01*
X22445274Y-44599175D01*
X22445325Y-44599208D01*
X22449369Y-44592860D01*
X22449317Y-44592828D01*
X22453104Y-44586685D01*
X22453111Y-44586677D01*
X22485572Y-44517063D01*
X22520040Y-44448433D01*
X22520041Y-44448427D01*
X22522508Y-44441650D01*
X22522566Y-44441671D01*
X22525043Y-44434544D01*
X22524986Y-44434526D01*
X22527255Y-44427679D01*
X22527256Y-44427674D01*
X22527257Y-44427672D01*
X22542790Y-44352441D01*
X22560500Y-44277721D01*
X22560500Y-44277719D01*
X22561339Y-44270548D01*
X22561398Y-44270554D01*
X22562164Y-44263054D01*
X22562105Y-44263049D01*
X22562734Y-44255859D01*
X22560500Y-44179082D01*
X22560500Y-44012229D01*
X22580185Y-43945190D01*
X22596810Y-43924557D01*
X22652712Y-43868656D01*
X22744814Y-43719334D01*
X22799999Y-43552797D01*
X22810500Y-43450009D01*
X22810499Y-41272280D01*
X22830184Y-41205242D01*
X22846818Y-41184600D01*
X24144600Y-39886819D01*
X24205923Y-39853334D01*
X24232281Y-39850500D01*
X29088126Y-39850500D01*
X29155165Y-39870185D01*
X29175807Y-39886819D01*
X29186955Y-39897967D01*
X29186959Y-39897970D01*
X29331294Y-39986998D01*
X29331297Y-39986999D01*
X29331303Y-39987003D01*
X29492292Y-40040349D01*
X29591655Y-40050500D01*
X30188344Y-40050499D01*
X30188352Y-40050498D01*
X30188355Y-40050498D01*
X30242760Y-40044940D01*
X30287708Y-40040349D01*
X30448697Y-39987003D01*
X30593044Y-39897968D01*
X30604192Y-39886818D01*
X30665516Y-39853334D01*
X30691874Y-39850500D01*
X31888126Y-39850500D01*
X31955165Y-39870185D01*
X31975807Y-39886819D01*
X31986955Y-39897967D01*
X31986959Y-39897970D01*
X32131294Y-39986998D01*
X32131297Y-39986999D01*
X32131303Y-39987003D01*
X32292292Y-40040349D01*
X32391655Y-40050500D01*
X32988344Y-40050499D01*
X32988352Y-40050498D01*
X32988355Y-40050498D01*
X33042760Y-40044940D01*
X33087708Y-40040349D01*
X33248697Y-39987003D01*
X33338937Y-39931342D01*
X33391433Y-39898962D01*
X33456530Y-39880500D01*
X34349466Y-39880500D01*
X34416505Y-39900185D01*
X34437147Y-39916819D01*
X34474608Y-39954280D01*
X34474612Y-39954283D01*
X34617704Y-40042544D01*
X34617707Y-40042545D01*
X34617713Y-40042549D01*
X34777315Y-40095436D01*
X34875826Y-40105500D01*
X34875831Y-40105500D01*
X35409169Y-40105500D01*
X35409174Y-40105500D01*
X35507685Y-40095436D01*
X35667287Y-40042549D01*
X35810391Y-39954281D01*
X35842319Y-39922352D01*
X35903639Y-39888868D01*
X35973331Y-39893852D01*
X36017679Y-39922352D01*
X36049607Y-39954280D01*
X36049612Y-39954283D01*
X36192704Y-40042544D01*
X36192707Y-40042545D01*
X36192713Y-40042549D01*
X36352315Y-40095436D01*
X36450826Y-40105500D01*
X36450831Y-40105500D01*
X36984169Y-40105500D01*
X36984174Y-40105500D01*
X37082685Y-40095436D01*
X37242287Y-40042549D01*
X37385391Y-39954281D01*
X37504281Y-39835391D01*
X37504281Y-39835390D01*
X37509388Y-39830284D01*
X37510826Y-39831722D01*
X37559567Y-39797211D01*
X37599809Y-39790500D01*
X38898126Y-39790500D01*
X38965165Y-39810185D01*
X38985807Y-39826819D01*
X38996955Y-39837967D01*
X38996959Y-39837970D01*
X39141294Y-39926998D01*
X39141297Y-39926999D01*
X39141303Y-39927003D01*
X39302292Y-39980349D01*
X39401655Y-39990500D01*
X39998344Y-39990499D01*
X39998352Y-39990498D01*
X39998355Y-39990498D01*
X40052760Y-39984940D01*
X40097708Y-39980349D01*
X40258697Y-39927003D01*
X40403044Y-39837968D01*
X40522968Y-39718044D01*
X40612003Y-39573697D01*
X40665349Y-39412708D01*
X40675500Y-39313345D01*
X40675499Y-38766656D01*
X40674215Y-38754091D01*
X40665349Y-38667292D01*
X40665348Y-38667289D01*
X40653431Y-38631326D01*
X40612003Y-38506303D01*
X40611999Y-38506297D01*
X40611998Y-38506294D01*
X40522970Y-38361959D01*
X40522967Y-38361955D01*
X40403044Y-38242032D01*
X40403040Y-38242029D01*
X40258705Y-38153001D01*
X40258699Y-38152998D01*
X40258697Y-38152997D01*
X40151124Y-38117351D01*
X40097709Y-38099651D01*
X39998346Y-38089500D01*
X39401662Y-38089500D01*
X39401644Y-38089501D01*
X39302292Y-38099650D01*
X39302289Y-38099651D01*
X39141305Y-38152996D01*
X39141294Y-38153001D01*
X38996959Y-38242029D01*
X38996955Y-38242032D01*
X38985807Y-38253181D01*
X38924484Y-38286666D01*
X38898126Y-38289500D01*
X37844500Y-38289500D01*
X37777461Y-38269815D01*
X37731706Y-38217011D01*
X37720500Y-38165500D01*
X37720500Y-38074321D01*
X37737113Y-38012321D01*
X37797179Y-37908284D01*
X37855674Y-37728256D01*
X37875460Y-37540000D01*
X37855674Y-37351744D01*
X37797179Y-37171716D01*
X37702533Y-37007784D01*
X37575871Y-36867112D01*
X37552316Y-36849998D01*
X37422734Y-36755851D01*
X37422729Y-36755848D01*
X37249807Y-36678857D01*
X37249802Y-36678855D01*
X37104001Y-36647865D01*
X37064646Y-36639500D01*
X36875354Y-36639500D01*
X36842897Y-36646398D01*
X36690197Y-36678855D01*
X36690192Y-36678857D01*
X36517270Y-36755848D01*
X36517265Y-36755851D01*
X36364129Y-36867111D01*
X36237466Y-37007785D01*
X36142821Y-37171715D01*
X36142818Y-37171722D01*
X36084327Y-37351740D01*
X36084326Y-37351744D01*
X36064540Y-37540000D01*
X36084326Y-37728256D01*
X36084327Y-37728259D01*
X36142818Y-37908277D01*
X36142821Y-37908284D01*
X36201760Y-38010370D01*
X36202887Y-38012321D01*
X36219500Y-38074321D01*
X36219500Y-38131722D01*
X36199815Y-38198761D01*
X36160597Y-38237260D01*
X36049612Y-38305716D01*
X36049607Y-38305719D01*
X36017679Y-38337648D01*
X35956355Y-38371133D01*
X35886664Y-38366147D01*
X35842319Y-38337647D01*
X35810391Y-38305719D01*
X35810390Y-38305718D01*
X35810387Y-38305716D01*
X35667295Y-38217455D01*
X35667289Y-38217452D01*
X35667287Y-38217451D01*
X35507685Y-38164564D01*
X35507683Y-38164563D01*
X35409181Y-38154500D01*
X35409174Y-38154500D01*
X34875826Y-38154500D01*
X34875818Y-38154500D01*
X34777316Y-38164563D01*
X34777315Y-38164564D01*
X34753864Y-38172335D01*
X34617715Y-38217450D01*
X34617704Y-38217455D01*
X34474612Y-38305716D01*
X34474608Y-38305719D01*
X34437147Y-38343181D01*
X34375824Y-38376666D01*
X34349466Y-38379500D01*
X33521874Y-38379500D01*
X33454835Y-38359815D01*
X33434193Y-38343181D01*
X33393044Y-38302032D01*
X33393040Y-38302029D01*
X33248705Y-38213001D01*
X33248699Y-38212998D01*
X33248697Y-38212997D01*
X33235349Y-38208574D01*
X33087709Y-38159651D01*
X32988346Y-38149500D01*
X32391662Y-38149500D01*
X32391644Y-38149501D01*
X32292292Y-38159650D01*
X32292289Y-38159651D01*
X32131305Y-38212996D01*
X32131294Y-38213001D01*
X31986959Y-38302029D01*
X31986955Y-38302032D01*
X31975807Y-38313181D01*
X31914484Y-38346666D01*
X31888126Y-38349500D01*
X30691874Y-38349500D01*
X30624835Y-38329815D01*
X30604193Y-38313181D01*
X30593044Y-38302032D01*
X30593040Y-38302029D01*
X30448705Y-38213001D01*
X30448699Y-38212998D01*
X30448697Y-38212997D01*
X30435349Y-38208574D01*
X30287709Y-38159651D01*
X30188346Y-38149500D01*
X29591662Y-38149500D01*
X29591644Y-38149501D01*
X29492292Y-38159650D01*
X29492289Y-38159651D01*
X29331305Y-38212996D01*
X29331294Y-38213001D01*
X29186959Y-38302029D01*
X29186955Y-38302032D01*
X29175807Y-38313181D01*
X29114484Y-38346666D01*
X29088126Y-38349500D01*
X23933756Y-38349500D01*
X23915786Y-38348191D01*
X23892023Y-38344710D01*
X23847026Y-38348648D01*
X23839982Y-38349264D01*
X23834581Y-38349500D01*
X23826340Y-38349500D01*
X23804630Y-38352037D01*
X23793775Y-38353306D01*
X23778470Y-38354645D01*
X23717250Y-38360001D01*
X23710183Y-38361460D01*
X23710171Y-38361404D01*
X23702814Y-38363035D01*
X23702828Y-38363092D01*
X23695794Y-38364759D01*
X23623626Y-38391025D01*
X23550716Y-38415185D01*
X23544177Y-38418235D01*
X23544152Y-38418183D01*
X23537359Y-38421471D01*
X23537385Y-38421522D01*
X23530935Y-38424761D01*
X23466767Y-38466964D01*
X23401398Y-38507285D01*
X23395728Y-38511769D01*
X23395692Y-38511723D01*
X23389849Y-38516484D01*
X23389886Y-38516528D01*
X23384361Y-38521164D01*
X23384355Y-38521169D01*
X23384355Y-38521170D01*
X23361948Y-38544920D01*
X23331665Y-38577017D01*
X22287020Y-39621661D01*
X22225697Y-39655146D01*
X22186737Y-39657338D01*
X22110011Y-39649500D01*
X21509998Y-39649500D01*
X21509980Y-39649501D01*
X21407203Y-39660000D01*
X21407200Y-39660001D01*
X21240668Y-39715185D01*
X21240663Y-39715187D01*
X21091342Y-39807289D01*
X20967289Y-39931342D01*
X20915539Y-40015243D01*
X20863591Y-40061967D01*
X20794628Y-40073190D01*
X20730546Y-40045346D01*
X20704461Y-40015243D01*
X20699395Y-40007029D01*
X20652712Y-39931344D01*
X20596818Y-39875450D01*
X20563334Y-39814128D01*
X20560500Y-39787770D01*
X20560500Y-39143705D01*
X20561809Y-39125735D01*
X20562129Y-39123547D01*
X20565289Y-39101977D01*
X20560735Y-39049931D01*
X20560500Y-39044528D01*
X20560500Y-39036297D01*
X20560500Y-39036291D01*
X20556693Y-39003724D01*
X20549999Y-38927203D01*
X20549999Y-38927201D01*
X20548539Y-38920129D01*
X20548597Y-38920116D01*
X20546965Y-38912757D01*
X20546906Y-38912772D01*
X20545242Y-38905753D01*
X20545241Y-38905745D01*
X20518974Y-38833576D01*
X20494814Y-38760666D01*
X20494809Y-38760659D01*
X20491760Y-38754118D01*
X20491815Y-38754091D01*
X20488533Y-38747313D01*
X20488480Y-38747340D01*
X20485235Y-38740880D01*
X20443028Y-38676708D01*
X20402710Y-38611342D01*
X20398234Y-38605682D01*
X20398281Y-38605644D01*
X20393519Y-38599799D01*
X20393474Y-38599838D01*
X20388834Y-38594309D01*
X20388832Y-38594307D01*
X20388830Y-38594304D01*
X20352453Y-38559984D01*
X20332965Y-38541597D01*
X18935729Y-37144361D01*
X18923949Y-37130730D01*
X18916482Y-37120701D01*
X18909612Y-37111472D01*
X18877379Y-37084425D01*
X18869587Y-37077886D01*
X18865612Y-37074244D01*
X18862690Y-37071322D01*
X18859780Y-37068411D01*
X18834040Y-37048059D01*
X18834039Y-37048059D01*
X18775214Y-36998698D01*
X18775213Y-36998697D01*
X18775209Y-36998694D01*
X18769180Y-36994729D01*
X18769212Y-36994680D01*
X18762853Y-36990628D01*
X18762822Y-36990679D01*
X18756680Y-36986891D01*
X18756678Y-36986890D01*
X18756677Y-36986889D01*
X18717474Y-36968608D01*
X18687058Y-36954424D01*
X18628986Y-36925260D01*
X18618433Y-36919960D01*
X18618431Y-36919959D01*
X18618430Y-36919959D01*
X18611645Y-36917489D01*
X18611665Y-36917433D01*
X18604549Y-36914959D01*
X18604531Y-36915015D01*
X18597671Y-36912742D01*
X18562959Y-36905575D01*
X18522434Y-36897207D01*
X18473472Y-36885603D01*
X18447719Y-36879499D01*
X18440547Y-36878661D01*
X18440553Y-36878601D01*
X18433055Y-36877835D01*
X18433050Y-36877895D01*
X18425860Y-36877265D01*
X18349083Y-36879500D01*
X15916729Y-36879500D01*
X15873396Y-36871682D01*
X15777482Y-36835908D01*
X15777483Y-36835908D01*
X15717883Y-36829501D01*
X15717881Y-36829500D01*
X15717873Y-36829500D01*
X15717865Y-36829500D01*
X15632230Y-36829500D01*
X15565191Y-36809815D01*
X15544549Y-36793181D01*
X15493548Y-36742180D01*
X15460063Y-36680857D01*
X15465047Y-36611165D01*
X15506919Y-36555232D01*
X15572383Y-36530815D01*
X15581229Y-36530499D01*
X15717871Y-36530499D01*
X15717872Y-36530499D01*
X15777483Y-36524091D01*
X15912331Y-36473796D01*
X16027546Y-36387546D01*
X16113796Y-36272331D01*
X16164091Y-36137483D01*
X16170500Y-36077873D01*
X16170499Y-35760250D01*
X16190183Y-35693212D01*
X16242987Y-35647457D01*
X16256194Y-35642316D01*
X16259793Y-35641145D01*
X16259803Y-35641144D01*
X16432730Y-35564151D01*
X16585871Y-35452888D01*
X16712533Y-35312216D01*
X16807179Y-35148284D01*
X16865674Y-34968256D01*
X16885460Y-34780000D01*
X16865674Y-34591744D01*
X16807179Y-34411716D01*
X16712533Y-34247784D01*
X16585871Y-34107112D01*
X16585870Y-34107111D01*
X16432734Y-33995851D01*
X16432729Y-33995848D01*
X16259807Y-33918857D01*
X16259802Y-33918855D01*
X16114001Y-33887865D01*
X16074646Y-33879500D01*
X15885354Y-33879500D01*
X15852897Y-33886398D01*
X15700197Y-33918855D01*
X15700192Y-33918857D01*
X15527270Y-33995848D01*
X15527265Y-33995851D01*
X15374129Y-34107111D01*
X15246649Y-34248692D01*
X15187162Y-34285341D01*
X15117305Y-34284010D01*
X15059257Y-34245124D01*
X15031447Y-34181027D01*
X15030499Y-34165720D01*
X15030499Y-33757229D01*
X15050184Y-33690190D01*
X15066818Y-33669548D01*
X15254548Y-33481819D01*
X15315871Y-33448334D01*
X15342229Y-33445500D01*
X15461613Y-33445500D01*
X15461616Y-33445500D01*
X15532196Y-33439086D01*
X15694606Y-33388478D01*
X15840185Y-33300472D01*
X15870084Y-33270573D01*
X15933839Y-33206819D01*
X15995162Y-33173334D01*
X16021520Y-33170500D01*
X17766952Y-33170500D01*
X17770697Y-33170613D01*
X17778042Y-33171057D01*
X17832606Y-33174358D01*
X17870314Y-33167447D01*
X17893621Y-33163177D01*
X17897325Y-33162613D01*
X17915170Y-33160446D01*
X17958872Y-33155140D01*
X17968335Y-33151550D01*
X17989961Y-33145522D01*
X17990893Y-33145351D01*
X17999932Y-33143695D01*
X18056512Y-33118229D01*
X18059942Y-33116809D01*
X18117930Y-33094818D01*
X18126266Y-33089062D01*
X18145821Y-33078034D01*
X18155057Y-33073878D01*
X18203896Y-33035613D01*
X18206876Y-33033421D01*
X18257929Y-32998183D01*
X18299065Y-32951748D01*
X18301599Y-32949056D01*
X18805238Y-32445417D01*
X18866559Y-32411934D01*
X18936251Y-32416918D01*
X18992183Y-32458789D01*
X19017452Y-32492544D01*
X19017455Y-32492547D01*
X19132664Y-32578793D01*
X19132671Y-32578797D01*
X19267517Y-32629091D01*
X19267516Y-32629091D01*
X19274444Y-32629835D01*
X19327127Y-32635500D01*
X21172872Y-32635499D01*
X21232483Y-32629091D01*
X21367331Y-32578796D01*
X21482546Y-32492546D01*
X21568796Y-32377331D01*
X21619091Y-32242483D01*
X21625500Y-32182873D01*
X21625499Y-31637128D01*
X21625499Y-31637127D01*
X21625498Y-31637111D01*
X21621320Y-31598253D01*
X21621320Y-31571745D01*
X21625500Y-31532873D01*
X21625499Y-30987128D01*
X21625499Y-30987127D01*
X21625498Y-30987111D01*
X21621320Y-30948253D01*
X21621320Y-30921745D01*
X21625500Y-30882873D01*
X21625499Y-30337128D01*
X21625499Y-30337127D01*
X21625498Y-30337111D01*
X21621320Y-30298253D01*
X21621320Y-30271745D01*
X21625500Y-30232873D01*
X21625499Y-29687128D01*
X21619091Y-29627517D01*
X21616938Y-29621745D01*
X21568797Y-29492671D01*
X21568795Y-29492668D01*
X21561258Y-29482600D01*
X21487678Y-29384309D01*
X21463261Y-29318848D01*
X21478112Y-29250574D01*
X21487673Y-29235696D01*
X21568796Y-29127331D01*
X21619091Y-28992483D01*
X21625500Y-28932873D01*
X21625499Y-28387128D01*
X21625499Y-28387127D01*
X21625498Y-28387111D01*
X21621320Y-28348253D01*
X21621320Y-28321745D01*
X21625500Y-28282873D01*
X21625499Y-27737128D01*
X21625499Y-27737127D01*
X21625498Y-27737111D01*
X21621320Y-27698253D01*
X21621320Y-27671745D01*
X21625500Y-27632873D01*
X21625499Y-27087128D01*
X21625499Y-27087127D01*
X21625498Y-27087111D01*
X21621320Y-27048253D01*
X21621320Y-27021745D01*
X21625500Y-26982873D01*
X21625500Y-26884500D01*
X21645185Y-26817461D01*
X21697989Y-26771706D01*
X21749500Y-26760500D01*
X22251064Y-26760500D01*
X22254809Y-26760613D01*
X22262154Y-26761057D01*
X22316718Y-26764358D01*
X22354426Y-26757447D01*
X22377733Y-26753177D01*
X22381437Y-26752613D01*
X22399282Y-26750446D01*
X22442984Y-26745140D01*
X22452447Y-26741550D01*
X22474073Y-26735522D01*
X22475005Y-26735351D01*
X22484044Y-26733695D01*
X22540624Y-26708229D01*
X22544054Y-26706809D01*
X22602042Y-26684818D01*
X22610378Y-26679062D01*
X22629933Y-26668034D01*
X22639169Y-26663878D01*
X22688008Y-26625613D01*
X22690988Y-26623421D01*
X22742041Y-26588183D01*
X22783177Y-26541748D01*
X22785711Y-26539056D01*
X25862821Y-23461946D01*
X25924142Y-23428463D01*
X25993834Y-23433447D01*
X26049767Y-23475319D01*
X26074184Y-23540783D01*
X26074500Y-23549628D01*
X26074500Y-23732868D01*
X26074501Y-23732878D01*
X26078679Y-23771745D01*
X26078679Y-23798250D01*
X26074500Y-23837122D01*
X26074500Y-24382869D01*
X26074501Y-24382878D01*
X26078679Y-24421745D01*
X26078679Y-24448250D01*
X26074500Y-24487122D01*
X26074500Y-25032869D01*
X26074501Y-25032878D01*
X26078679Y-25071745D01*
X26078679Y-25098250D01*
X26074500Y-25137122D01*
X26074500Y-25682869D01*
X26074501Y-25682878D01*
X26078679Y-25721745D01*
X26078679Y-25748250D01*
X26074500Y-25787122D01*
X26074500Y-26332869D01*
X26074501Y-26332878D01*
X26078679Y-26371745D01*
X26078679Y-26398250D01*
X26074500Y-26437122D01*
X26074500Y-26982869D01*
X26074501Y-26982878D01*
X26078679Y-27021745D01*
X26078679Y-27048250D01*
X26074500Y-27087122D01*
X26074500Y-27632869D01*
X26074501Y-27632878D01*
X26078679Y-27671745D01*
X26078679Y-27698250D01*
X26074500Y-27737122D01*
X26074500Y-28282869D01*
X26074501Y-28282878D01*
X26078679Y-28321745D01*
X26078679Y-28348250D01*
X26074500Y-28387122D01*
X26074500Y-28932869D01*
X26074501Y-28932878D01*
X26078679Y-28971745D01*
X26078679Y-28998250D01*
X26074500Y-29037122D01*
X26074500Y-29582869D01*
X26074501Y-29582878D01*
X26078679Y-29621745D01*
X26078679Y-29648250D01*
X26074500Y-29687122D01*
X26074500Y-30232869D01*
X26074501Y-30232878D01*
X26078679Y-30271745D01*
X26078679Y-30298250D01*
X26074500Y-30337122D01*
X26074500Y-30882869D01*
X26074501Y-30882878D01*
X26078679Y-30921745D01*
X26078679Y-30948250D01*
X26074500Y-30987122D01*
X26074500Y-31532869D01*
X26074501Y-31532878D01*
X26078679Y-31571745D01*
X26078679Y-31598250D01*
X26074500Y-31637122D01*
X26074500Y-32182870D01*
X26074501Y-32182876D01*
X26080908Y-32242483D01*
X26131202Y-32377328D01*
X26131206Y-32377335D01*
X26217452Y-32492544D01*
X26217455Y-32492547D01*
X26332664Y-32578793D01*
X26332671Y-32578797D01*
X26467517Y-32629091D01*
X26467516Y-32629091D01*
X26474444Y-32629835D01*
X26527127Y-32635500D01*
X28372872Y-32635499D01*
X28432483Y-32629091D01*
X28461367Y-32618317D01*
X28504700Y-32610500D01*
X31688481Y-32610500D01*
X31755520Y-32630185D01*
X31776162Y-32646819D01*
X33043180Y-33913838D01*
X33076665Y-33975161D01*
X33079499Y-34001518D01*
X33079499Y-34191612D01*
X33085913Y-34262192D01*
X33085913Y-34262194D01*
X33085914Y-34262196D01*
X33136522Y-34424606D01*
X33215357Y-34555015D01*
X33224530Y-34570188D01*
X33344811Y-34690469D01*
X33344813Y-34690470D01*
X33344815Y-34690472D01*
X33490394Y-34778478D01*
X33652804Y-34829086D01*
X33723384Y-34835500D01*
X33842770Y-34835500D01*
X33909809Y-34855185D01*
X33930451Y-34871819D01*
X34329269Y-35270637D01*
X34341049Y-35284268D01*
X34355389Y-35303530D01*
X34355391Y-35303532D01*
X34395409Y-35337110D01*
X34399399Y-35340766D01*
X34405227Y-35346594D01*
X34430947Y-35366931D01*
X34489788Y-35416304D01*
X34495818Y-35420270D01*
X34495785Y-35420319D01*
X34502143Y-35424369D01*
X34502175Y-35424319D01*
X34508320Y-35428109D01*
X34508323Y-35428111D01*
X34577936Y-35460572D01*
X34646567Y-35495040D01*
X34646572Y-35495041D01*
X34653361Y-35497513D01*
X34653340Y-35497570D01*
X34660455Y-35500043D01*
X34660475Y-35499986D01*
X34667330Y-35502258D01*
X34742558Y-35517790D01*
X34817279Y-35535500D01*
X34817289Y-35535500D01*
X34824452Y-35536338D01*
X34824444Y-35536397D01*
X34831945Y-35537164D01*
X34831951Y-35537105D01*
X34839140Y-35537734D01*
X34839144Y-35537733D01*
X34839145Y-35537734D01*
X34915918Y-35535500D01*
X37956295Y-35535500D01*
X37974265Y-35536809D01*
X37998023Y-35540289D01*
X38050068Y-35535735D01*
X38055470Y-35535500D01*
X38063704Y-35535500D01*
X38063709Y-35535500D01*
X38075327Y-35534141D01*
X38096276Y-35531693D01*
X38109028Y-35530577D01*
X38172797Y-35524999D01*
X38172805Y-35524996D01*
X38179866Y-35523539D01*
X38179878Y-35523598D01*
X38187243Y-35521965D01*
X38187229Y-35521906D01*
X38194246Y-35520241D01*
X38194255Y-35520241D01*
X38266423Y-35493974D01*
X38339334Y-35469814D01*
X38339343Y-35469807D01*
X38345882Y-35466760D01*
X38345908Y-35466816D01*
X38352690Y-35463532D01*
X38352663Y-35463478D01*
X38359106Y-35460240D01*
X38359117Y-35460237D01*
X38423283Y-35418034D01*
X38488656Y-35377712D01*
X38488662Y-35377705D01*
X38494325Y-35373229D01*
X38494362Y-35373277D01*
X38500204Y-35368518D01*
X38500164Y-35368471D01*
X38505686Y-35363836D01*
X38505696Y-35363830D01*
X38554391Y-35312216D01*
X38558386Y-35307982D01*
X39144548Y-34721819D01*
X39205871Y-34688334D01*
X39232229Y-34685500D01*
X39351613Y-34685500D01*
X39351616Y-34685500D01*
X39422196Y-34679086D01*
X39584606Y-34628478D01*
X39730185Y-34540472D01*
X39850472Y-34420185D01*
X39938478Y-34274606D01*
X39989086Y-34112196D01*
X39995500Y-34041616D01*
X39995500Y-33378384D01*
X39989086Y-33307804D01*
X39938478Y-33145394D01*
X39850472Y-32999815D01*
X39850470Y-32999813D01*
X39850469Y-32999811D01*
X39730189Y-32879531D01*
X39730185Y-32879528D01*
X39608747Y-32806115D01*
X39561560Y-32754587D01*
X39549722Y-32685728D01*
X39576991Y-32621399D01*
X39608745Y-32593885D01*
X39730185Y-32520472D01*
X39850472Y-32400185D01*
X39938478Y-32254606D01*
X39989086Y-32092196D01*
X39995500Y-32021616D01*
X39995500Y-31358384D01*
X39989086Y-31287804D01*
X39938478Y-31125394D01*
X39850472Y-30979815D01*
X39850470Y-30979813D01*
X39850469Y-30979811D01*
X39730188Y-30859530D01*
X39584606Y-30771522D01*
X39556381Y-30762727D01*
X39422196Y-30720914D01*
X39422194Y-30720913D01*
X39422192Y-30720913D01*
X39372778Y-30716423D01*
X39351616Y-30714500D01*
X38931230Y-30714500D01*
X38864191Y-30694815D01*
X38818436Y-30642011D01*
X38808492Y-30572853D01*
X38837517Y-30509297D01*
X38843549Y-30502819D01*
X39144549Y-30201819D01*
X39205872Y-30168334D01*
X39232230Y-30165500D01*
X39351613Y-30165500D01*
X39351616Y-30165500D01*
X39422196Y-30159086D01*
X39584606Y-30108478D01*
X39730185Y-30020472D01*
X39850472Y-29900185D01*
X39938478Y-29754606D01*
X39989086Y-29592196D01*
X39995500Y-29521616D01*
X39995500Y-28858384D01*
X39989086Y-28787804D01*
X39938478Y-28625394D01*
X39850472Y-28479815D01*
X39850470Y-28479813D01*
X39850469Y-28479811D01*
X39730188Y-28359530D01*
X39714420Y-28349998D01*
X39584606Y-28271522D01*
X39422196Y-28220914D01*
X39422194Y-28220913D01*
X39422192Y-28220913D01*
X39372778Y-28216423D01*
X39351616Y-28214500D01*
X38838384Y-28214500D01*
X38819145Y-28216248D01*
X38767807Y-28220913D01*
X38605393Y-28271522D01*
X38459811Y-28359530D01*
X38339530Y-28479811D01*
X38251522Y-28625393D01*
X38200913Y-28787807D01*
X38194500Y-28858386D01*
X38194500Y-28977769D01*
X38174815Y-29044808D01*
X38158181Y-29065450D01*
X38123828Y-29099803D01*
X38062505Y-29133288D01*
X37992813Y-29128304D01*
X37936880Y-29086432D01*
X37919189Y-29047434D01*
X37917682Y-29047924D01*
X37903483Y-29004225D01*
X37857179Y-28861716D01*
X37855434Y-28858694D01*
X37797113Y-28757677D01*
X37780500Y-28695677D01*
X37780500Y-28203705D01*
X37781809Y-28185735D01*
X37783552Y-28173834D01*
X37785289Y-28161977D01*
X37784686Y-28155088D01*
X37780736Y-28109934D01*
X37780500Y-28104528D01*
X37780500Y-28096297D01*
X37780500Y-28096291D01*
X37776693Y-28063724D01*
X37769999Y-27987203D01*
X37769999Y-27987201D01*
X37768539Y-27980129D01*
X37768597Y-27980116D01*
X37766965Y-27972757D01*
X37766906Y-27972772D01*
X37765241Y-27965751D01*
X37765241Y-27965745D01*
X37742699Y-27903810D01*
X37738974Y-27893575D01*
X37714813Y-27820663D01*
X37711764Y-27814124D01*
X37711817Y-27814099D01*
X37708531Y-27807311D01*
X37708479Y-27807338D01*
X37705236Y-27800882D01*
X37680187Y-27762797D01*
X37663034Y-27736716D01*
X37639310Y-27698253D01*
X37622714Y-27671347D01*
X37618234Y-27665681D01*
X37618280Y-27665643D01*
X37613519Y-27659799D01*
X37613474Y-27659838D01*
X37608834Y-27654308D01*
X37552982Y-27601613D01*
X36566819Y-26615450D01*
X36533334Y-26554127D01*
X36530500Y-26527769D01*
X36530500Y-26408386D01*
X36528375Y-26384999D01*
X36524086Y-26337804D01*
X36473478Y-26175394D01*
X36385472Y-26029815D01*
X36385470Y-26029813D01*
X36385469Y-26029811D01*
X36265188Y-25909530D01*
X36119606Y-25821522D01*
X36069177Y-25805808D01*
X35957196Y-25770914D01*
X35957194Y-25770913D01*
X35957192Y-25770913D01*
X35907778Y-25766423D01*
X35886616Y-25764500D01*
X35373384Y-25764500D01*
X35354145Y-25766248D01*
X35302807Y-25770913D01*
X35140393Y-25821522D01*
X34994811Y-25909530D01*
X34994810Y-25909531D01*
X34892681Y-26011661D01*
X34831358Y-26045146D01*
X34761666Y-26040162D01*
X34717319Y-26011661D01*
X34615188Y-25909530D01*
X34469606Y-25821522D01*
X34419177Y-25805808D01*
X34307196Y-25770914D01*
X34307194Y-25770913D01*
X34307192Y-25770913D01*
X34257778Y-25766423D01*
X34236616Y-25764500D01*
X33723384Y-25764500D01*
X33704144Y-25766248D01*
X33652807Y-25770913D01*
X33490393Y-25821522D01*
X33344811Y-25909530D01*
X33224530Y-26029811D01*
X33136522Y-26175393D01*
X33085913Y-26337807D01*
X33079499Y-26408387D01*
X33079499Y-26598481D01*
X33059814Y-26665520D01*
X33043180Y-26686161D01*
X30506162Y-29223181D01*
X30444839Y-29256666D01*
X30418481Y-29259500D01*
X28949499Y-29259500D01*
X28882460Y-29239815D01*
X28836705Y-29187011D01*
X28825499Y-29135500D01*
X28825499Y-29037128D01*
X28825498Y-29037111D01*
X28821320Y-28998253D01*
X28821320Y-28971745D01*
X28825500Y-28932873D01*
X28825500Y-28838077D01*
X28845185Y-28771039D01*
X28897989Y-28725284D01*
X28933870Y-28716336D01*
X28933756Y-28715710D01*
X29002149Y-28703177D01*
X29005853Y-28702613D01*
X29023698Y-28700446D01*
X29067400Y-28695140D01*
X29076863Y-28691550D01*
X29098489Y-28685522D01*
X29099421Y-28685351D01*
X29108460Y-28683695D01*
X29165040Y-28658229D01*
X29168470Y-28656809D01*
X29226458Y-28634818D01*
X29234794Y-28629062D01*
X29254349Y-28618034D01*
X29263585Y-28613878D01*
X29312424Y-28575613D01*
X29315404Y-28573421D01*
X29366457Y-28538183D01*
X29407593Y-28491748D01*
X29410127Y-28489056D01*
X32597239Y-25301945D01*
X32658560Y-25268462D01*
X32658626Y-25268447D01*
X32814067Y-25235408D01*
X32814071Y-25235406D01*
X32814072Y-25235406D01*
X32953263Y-25173433D01*
X32986994Y-25158415D01*
X33140135Y-25047152D01*
X33266797Y-24906480D01*
X33361443Y-24742548D01*
X33419938Y-24562520D01*
X33439724Y-24374264D01*
X33419938Y-24186008D01*
X33361443Y-24005980D01*
X33266797Y-23842048D01*
X33140135Y-23701376D01*
X33140134Y-23701375D01*
X32986998Y-23590115D01*
X32986993Y-23590112D01*
X32814071Y-23513121D01*
X32814066Y-23513119D01*
X32668265Y-23482129D01*
X32628910Y-23473764D01*
X32439618Y-23473764D01*
X32407161Y-23480662D01*
X32254461Y-23513119D01*
X32254456Y-23513121D01*
X32081534Y-23590112D01*
X32081529Y-23590115D01*
X31928393Y-23701375D01*
X31801729Y-23842049D01*
X31751887Y-23928380D01*
X31701320Y-23976596D01*
X31632713Y-23989819D01*
X31567848Y-23963851D01*
X31527320Y-23906937D01*
X31520500Y-23866380D01*
X31520500Y-23711518D01*
X31540185Y-23644479D01*
X31556819Y-23623837D01*
X32522557Y-22658099D01*
X33520093Y-21660562D01*
X33581414Y-21627079D01*
X33642367Y-21629169D01*
X33757426Y-21662597D01*
X33757429Y-21662597D01*
X33757431Y-21662598D01*
X33769722Y-21663565D01*
X33794304Y-21665500D01*
X33794306Y-21665500D01*
X35375696Y-21665500D01*
X35394131Y-21664049D01*
X35412569Y-21662598D01*
X35412571Y-21662597D01*
X35412573Y-21662597D01*
X35506924Y-21635185D01*
X35570398Y-21616744D01*
X35711865Y-21533081D01*
X35828081Y-21416865D01*
X35911744Y-21275398D01*
X35957598Y-21117569D01*
X35960500Y-21080694D01*
X35960500Y-20649306D01*
X35957598Y-20612431D01*
X35955624Y-20605638D01*
X35911745Y-20454606D01*
X35911744Y-20454603D01*
X35911744Y-20454602D01*
X35828081Y-20313135D01*
X35828078Y-20313132D01*
X35823298Y-20306969D01*
X35825750Y-20305066D01*
X35799155Y-20256421D01*
X35804104Y-20186726D01*
X35824940Y-20154304D01*
X35823298Y-20153031D01*
X35828075Y-20146870D01*
X35828081Y-20146865D01*
X35911744Y-20005398D01*
X35911744Y-20005396D01*
X35911746Y-20005394D01*
X35911745Y-20005393D01*
X35912005Y-20004500D01*
X35957598Y-19847569D01*
X35960500Y-19810694D01*
X35960500Y-19379306D01*
X35957598Y-19342431D01*
X35951711Y-19322169D01*
X35911745Y-19184606D01*
X35911744Y-19184603D01*
X35911744Y-19184602D01*
X35828081Y-19043135D01*
X35828078Y-19043132D01*
X35823298Y-19036969D01*
X35825750Y-19035066D01*
X35799155Y-18986421D01*
X35804104Y-18916726D01*
X35824940Y-18884304D01*
X35823298Y-18883031D01*
X35828075Y-18876870D01*
X35828081Y-18876865D01*
X35911744Y-18735398D01*
X35952701Y-18594424D01*
X35957597Y-18577573D01*
X35957598Y-18577567D01*
X35960500Y-18540696D01*
X35960500Y-18109304D01*
X35957598Y-18072432D01*
X35957597Y-18072426D01*
X35914224Y-17923137D01*
X35911744Y-17914602D01*
X35828081Y-17773135D01*
X35828078Y-17773132D01*
X35823298Y-17766969D01*
X35825742Y-17765072D01*
X35799142Y-17716357D01*
X35804126Y-17646665D01*
X35824944Y-17614307D01*
X35823298Y-17613031D01*
X35828075Y-17606870D01*
X35828081Y-17606865D01*
X35911744Y-17465398D01*
X35957598Y-17307569D01*
X35960500Y-17270694D01*
X35960500Y-16839306D01*
X35960111Y-16834368D01*
X35957598Y-16802432D01*
X35957597Y-16802426D01*
X35911745Y-16644606D01*
X35911744Y-16644603D01*
X35911744Y-16644602D01*
X35828081Y-16503135D01*
X35828078Y-16503132D01*
X35823298Y-16496969D01*
X35825742Y-16495072D01*
X35799142Y-16446357D01*
X35804126Y-16376665D01*
X35824944Y-16344307D01*
X35823298Y-16343031D01*
X35828075Y-16336870D01*
X35828081Y-16336865D01*
X35911744Y-16195398D01*
X35957598Y-16037569D01*
X35960500Y-16000694D01*
X35960500Y-15569306D01*
X35957598Y-15532431D01*
X35911744Y-15374602D01*
X35828081Y-15233135D01*
X35828078Y-15233132D01*
X35823298Y-15226969D01*
X35825742Y-15225072D01*
X35799142Y-15176357D01*
X35804126Y-15106665D01*
X35824944Y-15074307D01*
X35823298Y-15073031D01*
X35828075Y-15066870D01*
X35828081Y-15066865D01*
X35911744Y-14925398D01*
X35957598Y-14767569D01*
X35960500Y-14730694D01*
X35960500Y-14299306D01*
X35959767Y-14289998D01*
X35957598Y-14262432D01*
X35957597Y-14262426D01*
X35911745Y-14104606D01*
X35911744Y-14104603D01*
X35911744Y-14104602D01*
X35828081Y-13963135D01*
X35828078Y-13963132D01*
X35823298Y-13956969D01*
X35825742Y-13955072D01*
X35799142Y-13906357D01*
X35804126Y-13836665D01*
X35824944Y-13804307D01*
X35823298Y-13803031D01*
X35828075Y-13796870D01*
X35828081Y-13796865D01*
X35911744Y-13655398D01*
X35957598Y-13497569D01*
X35960500Y-13460694D01*
X35960500Y-13029306D01*
X35959085Y-13011332D01*
X35957598Y-12992432D01*
X35957597Y-12992426D01*
X35911745Y-12834606D01*
X35911744Y-12834603D01*
X35911744Y-12834602D01*
X35828081Y-12693135D01*
X35828079Y-12693133D01*
X35828076Y-12693129D01*
X35711870Y-12576923D01*
X35711862Y-12576917D01*
X35633681Y-12530681D01*
X35570398Y-12493256D01*
X35570397Y-12493255D01*
X35570396Y-12493255D01*
X35570393Y-12493254D01*
X35412573Y-12447402D01*
X35412567Y-12447401D01*
X35375696Y-12444500D01*
X35375694Y-12444500D01*
X33794306Y-12444500D01*
X33794304Y-12444500D01*
X33757432Y-12447401D01*
X33757426Y-12447402D01*
X33599606Y-12493254D01*
X33599603Y-12493255D01*
X33542152Y-12527232D01*
X33479031Y-12544500D01*
X31718048Y-12544500D01*
X31714303Y-12544387D01*
X31652396Y-12540642D01*
X31652389Y-12540642D01*
X31591386Y-12551821D01*
X31587685Y-12552384D01*
X31526128Y-12559859D01*
X31526121Y-12559861D01*
X31516647Y-12563454D01*
X31495049Y-12569475D01*
X31485069Y-12571304D01*
X31428519Y-12596755D01*
X31425060Y-12598188D01*
X31367071Y-12620181D01*
X31367063Y-12620185D01*
X31358721Y-12625943D01*
X31339189Y-12636960D01*
X31329946Y-12641120D01*
X31281135Y-12679360D01*
X31278120Y-12681579D01*
X31227072Y-12716816D01*
X31227065Y-12716822D01*
X31185935Y-12763248D01*
X31183368Y-12765974D01*
X21251160Y-22698181D01*
X21189837Y-22731666D01*
X21163479Y-22734500D01*
X19327129Y-22734500D01*
X19327123Y-22734501D01*
X19267516Y-22740908D01*
X19132671Y-22791202D01*
X19132664Y-22791206D01*
X19017455Y-22877452D01*
X19017452Y-22877455D01*
X18931206Y-22992664D01*
X18931202Y-22992671D01*
X18880910Y-23127513D01*
X18880909Y-23127517D01*
X18874500Y-23187127D01*
X18874500Y-23187134D01*
X18874500Y-23187135D01*
X18874500Y-23732869D01*
X18874501Y-23732878D01*
X18878679Y-23771745D01*
X18878679Y-23798250D01*
X18874500Y-23837122D01*
X18874500Y-24382869D01*
X18874501Y-24382878D01*
X18878679Y-24421745D01*
X18878679Y-24448250D01*
X18874500Y-24487122D01*
X18874500Y-25032869D01*
X18874501Y-25032878D01*
X18878679Y-25071745D01*
X18878679Y-25098250D01*
X18874500Y-25137122D01*
X18874500Y-25682869D01*
X18874501Y-25682878D01*
X18878679Y-25721745D01*
X18878679Y-25748250D01*
X18874500Y-25787122D01*
X18874500Y-26332869D01*
X18874501Y-26332878D01*
X18878679Y-26371745D01*
X18878679Y-26398250D01*
X18874500Y-26437122D01*
X18874500Y-26982869D01*
X18874501Y-26982878D01*
X18878679Y-27021745D01*
X18878679Y-27048250D01*
X18874500Y-27087122D01*
X18874500Y-27632869D01*
X18874501Y-27632878D01*
X18878679Y-27671745D01*
X18878679Y-27698251D01*
X18874500Y-27737123D01*
X18874500Y-27835500D01*
X18854815Y-27902539D01*
X18802011Y-27948294D01*
X18750500Y-27959500D01*
X18553364Y-27959500D01*
X18486325Y-27939815D01*
X18440570Y-27887011D01*
X18430043Y-27848462D01*
X18429911Y-27847203D01*
X18415674Y-27711744D01*
X18357179Y-27531716D01*
X18262533Y-27367784D01*
X18135871Y-27227112D01*
X18116493Y-27213033D01*
X17982734Y-27115851D01*
X17982729Y-27115848D01*
X17809807Y-27038857D01*
X17809802Y-27038855D01*
X17664000Y-27007865D01*
X17624646Y-26999500D01*
X17435354Y-26999500D01*
X17402897Y-27006398D01*
X17250197Y-27038855D01*
X17250192Y-27038857D01*
X17077270Y-27115848D01*
X17077265Y-27115851D01*
X16924129Y-27227111D01*
X16797466Y-27367785D01*
X16702821Y-27531715D01*
X16702818Y-27531722D01*
X16644327Y-27711740D01*
X16644326Y-27711744D01*
X16624540Y-27900000D01*
X16643316Y-28078651D01*
X16644326Y-28088255D01*
X16666041Y-28155088D01*
X16668035Y-28224930D01*
X16653649Y-28258500D01*
X16618000Y-28316298D01*
X16617996Y-28316305D01*
X16564651Y-28477290D01*
X16554500Y-28576647D01*
X16554500Y-29123337D01*
X16554501Y-29123355D01*
X16564650Y-29222707D01*
X16564651Y-29222710D01*
X16617996Y-29383694D01*
X16618001Y-29383705D01*
X16707029Y-29528040D01*
X16707032Y-29528044D01*
X16826955Y-29647967D01*
X16826959Y-29647970D01*
X16971294Y-29736998D01*
X16971297Y-29736999D01*
X16971303Y-29737003D01*
X17132292Y-29790349D01*
X17231655Y-29800500D01*
X17828344Y-29800499D01*
X17828352Y-29800498D01*
X17828355Y-29800498D01*
X17886944Y-29794513D01*
X17927708Y-29790349D01*
X18088697Y-29737003D01*
X18233044Y-29647968D01*
X18352968Y-29528044D01*
X18419979Y-29419402D01*
X18471928Y-29372678D01*
X18525518Y-29360500D01*
X18801906Y-29360500D01*
X18868945Y-29380185D01*
X18914700Y-29432989D01*
X18924644Y-29502147D01*
X18918088Y-29527833D01*
X18880908Y-29627517D01*
X18877467Y-29659528D01*
X18874501Y-29687123D01*
X18874500Y-29687135D01*
X18874500Y-29785500D01*
X18854815Y-29852539D01*
X18802011Y-29898294D01*
X18750500Y-29909500D01*
X18701931Y-29909500D01*
X18698186Y-29909387D01*
X18636279Y-29905642D01*
X18636272Y-29905642D01*
X18575269Y-29916821D01*
X18571568Y-29917384D01*
X18510011Y-29924859D01*
X18510004Y-29924861D01*
X18500530Y-29928454D01*
X18478932Y-29934475D01*
X18468952Y-29936304D01*
X18412402Y-29961755D01*
X18408943Y-29963188D01*
X18350954Y-29985181D01*
X18350949Y-29985184D01*
X18342605Y-29990943D01*
X18323070Y-30001961D01*
X18313830Y-30006120D01*
X18313828Y-30006121D01*
X18265019Y-30044359D01*
X18262005Y-30046576D01*
X18210953Y-30081817D01*
X18210951Y-30081818D01*
X18169825Y-30128240D01*
X18167258Y-30130966D01*
X17785045Y-30513181D01*
X17723722Y-30546666D01*
X17697364Y-30549500D01*
X16601920Y-30549500D01*
X16534881Y-30529815D01*
X16529035Y-30525818D01*
X16432734Y-30455851D01*
X16432729Y-30455848D01*
X16259807Y-30378857D01*
X16259803Y-30378856D01*
X16194669Y-30365011D01*
X16133188Y-30331818D01*
X16132770Y-30331402D01*
X16131819Y-30330451D01*
X16098334Y-30269128D01*
X16095500Y-30242770D01*
X16095500Y-30158386D01*
X16092887Y-30129634D01*
X16089086Y-30087804D01*
X16038478Y-29925394D01*
X15950472Y-29779815D01*
X15950470Y-29779813D01*
X15950469Y-29779811D01*
X15830188Y-29659530D01*
X15830181Y-29659526D01*
X15684606Y-29571522D01*
X15522196Y-29520914D01*
X15522194Y-29520913D01*
X15522192Y-29520913D01*
X15472778Y-29516423D01*
X15451616Y-29514500D01*
X14938384Y-29514500D01*
X14919145Y-29516248D01*
X14867807Y-29520913D01*
X14705393Y-29571522D01*
X14559813Y-29659529D01*
X14457680Y-29761662D01*
X14396357Y-29795146D01*
X14326665Y-29790162D01*
X14282319Y-29761662D01*
X14180185Y-29659528D01*
X14180184Y-29659527D01*
X14180183Y-29659526D01*
X14180180Y-29659524D01*
X14170348Y-29653580D01*
X14123161Y-29602052D01*
X14110500Y-29547465D01*
X14110500Y-29294850D01*
X14127113Y-29232850D01*
X14187179Y-29128813D01*
X14245674Y-28948785D01*
X14265460Y-28760529D01*
X14245674Y-28572273D01*
X14187179Y-28392245D01*
X14092533Y-28228313D01*
X13965871Y-28087641D01*
X13953503Y-28078655D01*
X13812734Y-27976380D01*
X13812729Y-27976377D01*
X13639807Y-27899386D01*
X13639802Y-27899384D01*
X13494001Y-27868394D01*
X13454646Y-27860029D01*
X13265354Y-27860029D01*
X13232897Y-27866927D01*
X13080197Y-27899384D01*
X13080192Y-27899386D01*
X12907270Y-27976377D01*
X12907265Y-27976380D01*
X12754129Y-28087640D01*
X12627466Y-28228314D01*
X12532821Y-28392244D01*
X12532818Y-28392251D01*
X12480890Y-28552071D01*
X12474326Y-28572273D01*
X12454540Y-28760529D01*
X12474326Y-28948785D01*
X12474327Y-28948788D01*
X12532818Y-29128806D01*
X12532820Y-29128810D01*
X12532821Y-29128813D01*
X12550817Y-29159983D01*
X12592887Y-29232851D01*
X12609499Y-29294850D01*
X12609500Y-29708009D01*
X12589816Y-29775048D01*
X12537012Y-29820803D01*
X12467853Y-29830747D01*
X12404297Y-29801722D01*
X12397819Y-29795690D01*
X11576490Y-28974361D01*
X11564710Y-28960730D01*
X11555817Y-28948785D01*
X11550373Y-28941472D01*
X11540131Y-28932878D01*
X11510348Y-28907886D01*
X11506373Y-28904244D01*
X11503451Y-28901322D01*
X11500541Y-28898411D01*
X11474801Y-28878059D01*
X11432825Y-28842837D01*
X11415975Y-28828698D01*
X11415974Y-28828697D01*
X11415970Y-28828694D01*
X11409941Y-28824729D01*
X11409973Y-28824680D01*
X11403614Y-28820628D01*
X11403583Y-28820679D01*
X11397441Y-28816891D01*
X11397439Y-28816890D01*
X11397438Y-28816889D01*
X11335073Y-28787807D01*
X11327819Y-28784424D01*
X11293655Y-28767267D01*
X11259194Y-28749960D01*
X11259192Y-28749959D01*
X11259191Y-28749959D01*
X11252406Y-28747489D01*
X11252426Y-28747433D01*
X11245310Y-28744959D01*
X11245292Y-28745015D01*
X11238432Y-28742742D01*
X11210602Y-28736996D01*
X11163195Y-28727207D01*
X11108980Y-28714358D01*
X11088480Y-28709499D01*
X11081308Y-28708661D01*
X11081314Y-28708601D01*
X11073816Y-28707835D01*
X11073811Y-28707895D01*
X11066621Y-28707265D01*
X10989844Y-28709500D01*
X10262230Y-28709500D01*
X10195191Y-28689815D01*
X10174549Y-28673181D01*
X10118657Y-28617289D01*
X10118656Y-28617288D01*
X9990406Y-28538183D01*
X9969336Y-28525187D01*
X9969331Y-28525185D01*
X9898340Y-28501661D01*
X9802797Y-28470001D01*
X9802795Y-28470000D01*
X9700010Y-28459500D01*
X6599998Y-28459500D01*
X6599981Y-28459501D01*
X6497203Y-28470000D01*
X6497200Y-28470001D01*
X6330668Y-28525185D01*
X6330663Y-28525187D01*
X6181342Y-28617289D01*
X6057289Y-28741342D01*
X5965187Y-28890663D01*
X5965185Y-28890668D01*
X5945927Y-28948785D01*
X5910001Y-29057203D01*
X5910001Y-29057204D01*
X5910000Y-29057204D01*
X5899500Y-29159983D01*
X5899500Y-29760001D01*
X5899501Y-29760019D01*
X5910000Y-29862796D01*
X5910001Y-29862799D01*
X5965185Y-30029331D01*
X5965187Y-30029336D01*
X5975821Y-30046576D01*
X6057288Y-30178656D01*
X6181344Y-30302712D01*
X6228533Y-30331818D01*
X6265243Y-30354461D01*
X6311967Y-30406409D01*
X6323190Y-30475372D01*
X6295346Y-30539454D01*
X6265243Y-30565539D01*
X6181342Y-30617289D01*
X6057289Y-30741342D01*
X5965187Y-30890663D01*
X5965185Y-30890668D01*
X5945681Y-30949528D01*
X5910001Y-31057203D01*
X5910001Y-31057204D01*
X5910000Y-31057204D01*
X5899500Y-31159983D01*
X5899500Y-31760001D01*
X5899501Y-31760019D01*
X5910000Y-31862796D01*
X5910001Y-31862799D01*
X5965185Y-32029331D01*
X5965187Y-32029336D01*
X5982571Y-32057520D01*
X6057288Y-32178656D01*
X6181344Y-32302712D01*
X6265243Y-32354461D01*
X6311967Y-32406409D01*
X6323190Y-32475372D01*
X6295346Y-32539454D01*
X6265243Y-32565539D01*
X6181342Y-32617289D01*
X6057289Y-32741342D01*
X5965187Y-32890663D01*
X5965185Y-32890666D01*
X5965186Y-32890666D01*
X5910001Y-33057203D01*
X5910001Y-33057204D01*
X5910000Y-33057204D01*
X5899500Y-33159983D01*
X5899500Y-33760001D01*
X500Y-33760001D01*
X500Y-27898988D01*
X20185Y-27831949D01*
X72989Y-27786194D01*
X142147Y-27776250D01*
X205703Y-27805275D01*
X242206Y-27859984D01*
X265186Y-27929335D01*
X265187Y-27929337D01*
X357286Y-28078651D01*
X357289Y-28078655D01*
X481344Y-28202710D01*
X481348Y-28202713D01*
X630662Y-28294812D01*
X630664Y-28294813D01*
X630666Y-28294814D01*
X797203Y-28349999D01*
X899992Y-28360500D01*
X899997Y-28360500D01*
X3900003Y-28360500D01*
X3900008Y-28360500D01*
X4002797Y-28349999D01*
X4169334Y-28294814D01*
X4318655Y-28202711D01*
X4442711Y-28078655D01*
X4534814Y-27929334D01*
X4589999Y-27762797D01*
X4600500Y-27660008D01*
X4600500Y-26559992D01*
X4589999Y-26457203D01*
X4534814Y-26290666D01*
X4532936Y-26287622D01*
X4442713Y-26141348D01*
X4442710Y-26141344D01*
X4318655Y-26017289D01*
X4318651Y-26017286D01*
X4169337Y-25925187D01*
X4169335Y-25925186D01*
X4086065Y-25897593D01*
X4002797Y-25870001D01*
X4002795Y-25870000D01*
X3900015Y-25859500D01*
X3900008Y-25859500D01*
X899992Y-25859500D01*
X899984Y-25859500D01*
X797204Y-25870000D01*
X797203Y-25870001D01*
X630664Y-25925186D01*
X630662Y-25925187D01*
X481348Y-26017286D01*
X481344Y-26017289D01*
X357289Y-26141344D01*
X357286Y-26141348D01*
X265187Y-26290662D01*
X265186Y-26290665D01*
X242206Y-26360015D01*
X202433Y-26417460D01*
X137917Y-26444283D01*
X69142Y-26431968D01*
X17942Y-26384425D01*
X500Y-26321011D01*
X500Y-15590001D01*
X6369500Y-15590001D01*
X6369501Y-15590018D01*
X6380000Y-15692796D01*
X6380001Y-15692799D01*
X6435185Y-15859331D01*
X6435187Y-15859336D01*
X6470069Y-15915888D01*
X6527288Y-16008656D01*
X6651344Y-16132712D01*
X6800666Y-16224814D01*
X6967203Y-16279999D01*
X7069991Y-16290500D01*
X8670008Y-16290499D01*
X8772797Y-16279999D01*
X8939334Y-16224814D01*
X9088656Y-16132712D01*
X9212712Y-16008656D01*
X9304814Y-15859334D01*
X9359999Y-15692797D01*
X9370500Y-15590009D01*
X9370499Y-14289992D01*
X9359999Y-14187203D01*
X9304814Y-14020666D01*
X9212712Y-13871344D01*
X9088656Y-13747288D01*
X8939334Y-13655186D01*
X8939332Y-13655185D01*
X8933187Y-13651395D01*
X8934290Y-13649605D01*
X8889649Y-13610290D01*
X8870500Y-13544091D01*
X8870500Y-13178282D01*
X8890185Y-13111243D01*
X8906819Y-13090601D01*
X11780601Y-10216819D01*
X11841924Y-10183334D01*
X11868282Y-10180500D01*
X11895843Y-10180500D01*
X11895848Y-10180500D01*
X11997775Y-10170087D01*
X12162925Y-10115362D01*
X12311003Y-10024026D01*
X12434026Y-9901003D01*
X12434458Y-9900301D01*
X12434881Y-9899921D01*
X12438507Y-9895336D01*
X12439290Y-9895955D01*
X12486402Y-9853575D01*
X12555364Y-9842349D01*
X12619448Y-9870188D01*
X12641342Y-9895455D01*
X12641493Y-9895336D01*
X12644143Y-9898687D01*
X12645540Y-9900299D01*
X12645974Y-9901003D01*
X12645975Y-9901004D01*
X12768996Y-10024025D01*
X12769000Y-10024028D01*
X12917066Y-10115357D01*
X12917069Y-10115358D01*
X12917075Y-10115362D01*
X13082225Y-10170087D01*
X13184152Y-10180500D01*
X13184157Y-10180500D01*
X13770843Y-10180500D01*
X13770848Y-10180500D01*
X13872775Y-10170087D01*
X14037925Y-10115362D01*
X14186003Y-10024026D01*
X14193210Y-10016818D01*
X14254533Y-9983334D01*
X14280891Y-9980500D01*
X16302326Y-9980500D01*
X16367421Y-9998960D01*
X16510666Y-10087314D01*
X16677203Y-10142499D01*
X16779991Y-10153000D01*
X17480008Y-10152999D01*
X17480016Y-10152998D01*
X17480019Y-10152998D01*
X17536302Y-10147248D01*
X17582797Y-10142499D01*
X17683002Y-10109294D01*
X17722007Y-10103000D01*
X19923483Y-10103000D01*
X19941997Y-10104883D01*
X19941999Y-10104864D01*
X19948255Y-10105500D01*
X19948259Y-10105500D01*
X20009599Y-10105500D01*
X20014305Y-10105678D01*
X20049063Y-10108325D01*
X20075476Y-10110337D01*
X20075476Y-10110336D01*
X20075477Y-10110337D01*
X20109560Y-10105996D01*
X20117390Y-10105500D01*
X22162361Y-10105500D01*
X22188803Y-10109209D01*
X22188881Y-10108775D01*
X22195078Y-10109885D01*
X22195082Y-10109886D01*
X22377948Y-10123811D01*
X22397975Y-10125337D01*
X22397976Y-10125337D01*
X22599828Y-10099630D01*
X22599834Y-10099627D01*
X22603793Y-10098710D01*
X22631824Y-10095500D01*
X22639169Y-10095500D01*
X22639174Y-10095500D01*
X22737685Y-10085436D01*
X22897287Y-10032549D01*
X23040391Y-9944281D01*
X23072319Y-9912352D01*
X23133642Y-9878868D01*
X23203334Y-9883852D01*
X23247681Y-9912353D01*
X23279608Y-9944280D01*
X23279612Y-9944283D01*
X23422704Y-10032544D01*
X23422707Y-10032545D01*
X23422713Y-10032549D01*
X23582315Y-10085436D01*
X23680826Y-10095500D01*
X23711495Y-10095500D01*
X23736456Y-10098038D01*
X23820757Y-10115362D01*
X23845759Y-10120500D01*
X26127284Y-10120500D01*
X26216358Y-10122757D01*
X26216358Y-10122756D01*
X26216363Y-10122757D01*
X26276753Y-10111932D01*
X26281412Y-10111280D01*
X26323607Y-10106988D01*
X26342438Y-10105074D01*
X26375227Y-10094786D01*
X26382840Y-10092918D01*
X26416653Y-10086858D01*
X26448101Y-10074295D01*
X26481497Y-10066090D01*
X26537708Y-10060349D01*
X26698697Y-10007003D01*
X26843044Y-9917968D01*
X26962968Y-9798044D01*
X27052003Y-9653697D01*
X27058012Y-9635561D01*
X27088036Y-9586883D01*
X27598101Y-9076819D01*
X27659425Y-9043334D01*
X27685783Y-9040500D01*
X49678047Y-9040500D01*
X49745086Y-9060185D01*
X49790841Y-9112989D01*
X49800785Y-9182147D01*
X49771760Y-9245703D01*
X49743144Y-9270038D01*
X49666959Y-9317029D01*
X49666955Y-9317032D01*
X49547032Y-9436955D01*
X49547029Y-9436959D01*
X49458001Y-9581294D01*
X49457996Y-9581305D01*
X49404651Y-9742290D01*
X49404650Y-9742297D01*
X49399200Y-9795638D01*
X49395884Y-9814113D01*
X49350937Y-9987712D01*
X49340631Y-10190936D01*
X49359901Y-10316723D01*
X49350595Y-10385970D01*
X49305329Y-10439193D01*
X49238473Y-10459495D01*
X49237331Y-10459500D01*
X46928763Y-10459500D01*
X46910793Y-10458191D01*
X46887030Y-10454710D01*
X46841591Y-10458686D01*
X46834989Y-10459264D01*
X46829588Y-10459500D01*
X46821347Y-10459500D01*
X46799637Y-10462037D01*
X46788782Y-10463306D01*
X46773477Y-10464645D01*
X46712257Y-10470001D01*
X46705190Y-10471460D01*
X46705178Y-10471404D01*
X46697821Y-10473035D01*
X46697835Y-10473092D01*
X46690801Y-10474759D01*
X46618633Y-10501025D01*
X46545733Y-10525181D01*
X46539184Y-10528236D01*
X46539159Y-10528183D01*
X46532366Y-10531471D01*
X46532392Y-10531523D01*
X46525938Y-10534764D01*
X46461766Y-10576971D01*
X46396405Y-10617285D01*
X46390741Y-10621765D01*
X46390705Y-10621719D01*
X46384856Y-10626484D01*
X46384893Y-10626528D01*
X46379361Y-10631169D01*
X46358819Y-10652942D01*
X46298494Y-10688195D01*
X46294411Y-10689135D01*
X46231628Y-10702480D01*
X46231626Y-10702481D01*
X46058704Y-10779472D01*
X46058699Y-10779475D01*
X45905563Y-10890735D01*
X45778900Y-11031409D01*
X45684255Y-11195339D01*
X45684252Y-11195346D01*
X45641812Y-11325964D01*
X45625760Y-11375368D01*
X45605974Y-11563624D01*
X45625760Y-11751880D01*
X45625761Y-11751883D01*
X45655480Y-11843350D01*
X45657475Y-11913192D01*
X45621394Y-11973024D01*
X45558693Y-12003852D01*
X45529215Y-12004234D01*
X45529196Y-12004921D01*
X45521973Y-12004710D01*
X45476903Y-12008654D01*
X45469931Y-12009264D01*
X45464530Y-12009500D01*
X45456289Y-12009500D01*
X45435438Y-12011937D01*
X45423724Y-12013306D01*
X45408419Y-12014645D01*
X45347199Y-12020001D01*
X45340132Y-12021460D01*
X45340120Y-12021404D01*
X45332763Y-12023035D01*
X45332777Y-12023092D01*
X45325743Y-12024759D01*
X45253575Y-12051025D01*
X45180675Y-12075181D01*
X45174126Y-12078236D01*
X45174101Y-12078183D01*
X45167308Y-12081471D01*
X45167334Y-12081523D01*
X45160880Y-12084764D01*
X45096708Y-12126971D01*
X45031347Y-12167285D01*
X45025683Y-12171765D01*
X45025647Y-12171719D01*
X45019798Y-12176484D01*
X45019835Y-12176528D01*
X45014310Y-12181164D01*
X45014304Y-12181169D01*
X45014304Y-12181170D01*
X45000066Y-12196261D01*
X44961598Y-12237034D01*
X43944358Y-13254272D01*
X43930729Y-13266051D01*
X43911468Y-13280390D01*
X43877898Y-13320397D01*
X43874253Y-13324376D01*
X43868409Y-13330222D01*
X43848059Y-13355959D01*
X43798695Y-13414789D01*
X43794729Y-13420819D01*
X43794682Y-13420788D01*
X43790630Y-13427147D01*
X43790679Y-13427177D01*
X43786889Y-13433321D01*
X43754424Y-13502941D01*
X43719960Y-13571566D01*
X43717488Y-13578357D01*
X43717432Y-13578336D01*
X43714960Y-13585450D01*
X43715015Y-13585469D01*
X43712742Y-13592327D01*
X43708860Y-13611130D01*
X43697207Y-13667565D01*
X43688809Y-13703000D01*
X43679498Y-13742286D01*
X43678661Y-13749454D01*
X43678601Y-13749447D01*
X43677835Y-13756945D01*
X43677895Y-13756951D01*
X43677265Y-13764140D01*
X43679500Y-13840916D01*
X43679500Y-14325824D01*
X43666505Y-14370078D01*
X43677477Y-14391868D01*
X43679500Y-14414175D01*
X43679500Y-14645500D01*
X43659815Y-14712539D01*
X43607011Y-14758294D01*
X43555500Y-14769500D01*
X43517708Y-14769500D01*
X43450669Y-14749815D01*
X43404914Y-14697011D01*
X43394970Y-14627853D01*
X43399777Y-14607182D01*
X43404326Y-14593181D01*
X43415674Y-14558256D01*
X43432179Y-14401212D01*
X43444022Y-14372428D01*
X43436523Y-14360759D01*
X43432179Y-14338786D01*
X43415674Y-14181744D01*
X43357179Y-14001716D01*
X43262533Y-13837784D01*
X43135871Y-13697112D01*
X43135870Y-13697111D01*
X42982734Y-13585851D01*
X42982729Y-13585848D01*
X42809807Y-13508857D01*
X42809802Y-13508855D01*
X42664000Y-13477865D01*
X42624646Y-13469500D01*
X42441157Y-13469500D01*
X42374118Y-13449815D01*
X42328363Y-13397011D01*
X42317836Y-13332539D01*
X42318079Y-13330223D01*
X42325460Y-13260000D01*
X42305674Y-13071744D01*
X42247179Y-12891716D01*
X42152533Y-12727784D01*
X42025871Y-12587112D01*
X42025870Y-12587111D01*
X41872734Y-12475851D01*
X41872729Y-12475848D01*
X41699807Y-12398857D01*
X41699802Y-12398855D01*
X41554001Y-12367865D01*
X41514646Y-12359500D01*
X41325354Y-12359500D01*
X41292897Y-12366398D01*
X41140197Y-12398855D01*
X41140192Y-12398857D01*
X40967272Y-12475848D01*
X40963737Y-12477889D01*
X40901740Y-12494500D01*
X40742328Y-12494500D01*
X40707733Y-12489576D01*
X40562573Y-12447402D01*
X40562567Y-12447401D01*
X40525696Y-12444500D01*
X40525694Y-12444500D01*
X38944306Y-12444500D01*
X38944304Y-12444500D01*
X38907432Y-12447401D01*
X38907426Y-12447402D01*
X38749606Y-12493254D01*
X38749603Y-12493255D01*
X38608137Y-12576917D01*
X38608129Y-12576923D01*
X38491923Y-12693129D01*
X38491917Y-12693137D01*
X38408255Y-12834603D01*
X38408254Y-12834606D01*
X38362402Y-12992426D01*
X38362401Y-12992432D01*
X38359500Y-13029304D01*
X38359500Y-13460696D01*
X38362401Y-13497567D01*
X38362402Y-13497573D01*
X38408254Y-13655393D01*
X38408255Y-13655396D01*
X38408256Y-13655398D01*
X38436408Y-13703000D01*
X38491917Y-13796862D01*
X38496702Y-13803031D01*
X38494256Y-13804927D01*
X38520857Y-13853642D01*
X38515873Y-13923334D01*
X38495069Y-13955703D01*
X38496702Y-13956969D01*
X38491917Y-13963137D01*
X38408255Y-14104603D01*
X38408254Y-14104606D01*
X38362402Y-14262426D01*
X38362401Y-14262432D01*
X38359500Y-14299304D01*
X38359500Y-14730696D01*
X38362401Y-14767567D01*
X38362402Y-14767573D01*
X38408254Y-14925393D01*
X38408255Y-14925396D01*
X38408256Y-14925398D01*
X38410868Y-14929815D01*
X38491917Y-15066862D01*
X38496702Y-15073031D01*
X38494256Y-15074927D01*
X38520857Y-15123642D01*
X38515873Y-15193334D01*
X38495069Y-15225703D01*
X38496702Y-15226969D01*
X38491917Y-15233137D01*
X38408255Y-15374603D01*
X38408254Y-15374606D01*
X38362402Y-15532426D01*
X38362401Y-15532432D01*
X38359500Y-15569304D01*
X38359500Y-16000696D01*
X38362401Y-16037567D01*
X38362402Y-16037573D01*
X38408254Y-16195393D01*
X38408255Y-16195396D01*
X38491917Y-16336862D01*
X38496702Y-16343031D01*
X38494256Y-16344927D01*
X38520857Y-16393642D01*
X38515873Y-16463334D01*
X38495069Y-16495703D01*
X38496702Y-16496969D01*
X38491917Y-16503137D01*
X38408255Y-16644603D01*
X38408254Y-16644606D01*
X38362402Y-16802426D01*
X38362401Y-16802432D01*
X38359500Y-16839304D01*
X38359500Y-17270696D01*
X38362401Y-17307567D01*
X38362402Y-17307573D01*
X38408254Y-17465393D01*
X38408255Y-17465396D01*
X38408256Y-17465398D01*
X38445681Y-17528681D01*
X38491917Y-17606862D01*
X38496702Y-17613031D01*
X38494256Y-17614927D01*
X38520857Y-17663642D01*
X38515873Y-17733334D01*
X38495069Y-17765703D01*
X38496702Y-17766969D01*
X38491917Y-17773137D01*
X38408255Y-17914603D01*
X38408254Y-17914606D01*
X38362402Y-18072426D01*
X38362401Y-18072432D01*
X38359500Y-18109304D01*
X38359500Y-18540696D01*
X38362401Y-18577567D01*
X38362402Y-18577573D01*
X38408254Y-18735393D01*
X38408255Y-18735396D01*
X38491917Y-18876862D01*
X38496702Y-18883031D01*
X38494256Y-18884927D01*
X38520857Y-18933642D01*
X38515873Y-19003334D01*
X38495069Y-19035703D01*
X38496702Y-19036969D01*
X38491917Y-19043137D01*
X38408255Y-19184603D01*
X38408254Y-19184606D01*
X38362402Y-19342426D01*
X38362401Y-19342432D01*
X38359500Y-19379304D01*
X38359500Y-19810696D01*
X38362401Y-19847567D01*
X38362402Y-19847573D01*
X38408254Y-20005393D01*
X38408254Y-20005394D01*
X38408255Y-20005396D01*
X38408256Y-20005398D01*
X38459972Y-20092845D01*
X38491917Y-20146862D01*
X38496702Y-20153031D01*
X38494256Y-20154927D01*
X38520857Y-20203642D01*
X38515873Y-20273334D01*
X38495069Y-20305703D01*
X38496702Y-20306969D01*
X38491917Y-20313137D01*
X38408255Y-20454603D01*
X38408254Y-20454606D01*
X38362402Y-20612426D01*
X38362401Y-20612432D01*
X38359500Y-20649304D01*
X38359500Y-21080696D01*
X38362401Y-21117567D01*
X38362402Y-21117573D01*
X38408254Y-21275393D01*
X38408255Y-21275396D01*
X38491917Y-21416862D01*
X38496702Y-21423031D01*
X38494256Y-21424927D01*
X38520857Y-21473642D01*
X38515873Y-21543334D01*
X38495069Y-21575703D01*
X38496702Y-21576969D01*
X38491917Y-21583137D01*
X38408255Y-21724603D01*
X38408254Y-21724606D01*
X38362402Y-21882426D01*
X38362401Y-21882432D01*
X38359500Y-21919304D01*
X38359500Y-22350696D01*
X38362401Y-22387567D01*
X38362402Y-22387573D01*
X38408254Y-22545393D01*
X38408255Y-22545396D01*
X38491917Y-22686862D01*
X38491923Y-22686870D01*
X38608129Y-22803076D01*
X38608133Y-22803079D01*
X38608135Y-22803081D01*
X38749602Y-22886744D01*
X38791224Y-22898836D01*
X38907426Y-22932597D01*
X38907429Y-22932597D01*
X38907431Y-22932598D01*
X38919722Y-22933565D01*
X38944304Y-22935500D01*
X38944306Y-22935500D01*
X39422770Y-22935500D01*
X39489809Y-22955185D01*
X39510451Y-22971819D01*
X43963181Y-27424548D01*
X43996666Y-27485871D01*
X43999500Y-27512229D01*
X43999500Y-40526294D01*
X43998191Y-40544263D01*
X43994710Y-40568025D01*
X43999264Y-40620064D01*
X43999500Y-40625470D01*
X43999500Y-40633709D01*
X44003306Y-40666274D01*
X44010000Y-40742791D01*
X44011461Y-40749867D01*
X44011403Y-40749878D01*
X44013034Y-40757237D01*
X44013092Y-40757224D01*
X44014757Y-40764250D01*
X44041025Y-40836424D01*
X44065185Y-40909331D01*
X44068236Y-40915874D01*
X44068182Y-40915898D01*
X44071470Y-40922688D01*
X44071521Y-40922663D01*
X44074761Y-40929113D01*
X44074762Y-40929114D01*
X44074763Y-40929117D01*
X44116898Y-40993181D01*
X44116965Y-40993283D01*
X44157287Y-41058655D01*
X44161766Y-41064319D01*
X44161719Y-41064356D01*
X44166482Y-41070202D01*
X44166528Y-41070164D01*
X44171173Y-41075700D01*
X44227018Y-41128386D01*
X45364267Y-42265634D01*
X45376048Y-42279266D01*
X45390390Y-42298530D01*
X45430420Y-42332119D01*
X45434392Y-42335759D01*
X45440223Y-42341590D01*
X45440222Y-42341590D01*
X45462027Y-42358830D01*
X45465944Y-42361927D01*
X45524786Y-42411302D01*
X45524794Y-42411306D01*
X45530824Y-42415273D01*
X45530790Y-42415323D01*
X45537137Y-42419366D01*
X45537169Y-42419316D01*
X45543318Y-42423108D01*
X45543320Y-42423109D01*
X45543323Y-42423111D01*
X45612930Y-42455569D01*
X45681567Y-42490040D01*
X45681576Y-42490042D01*
X45688355Y-42492510D01*
X45688334Y-42492567D01*
X45695451Y-42495040D01*
X45695470Y-42494984D01*
X45702330Y-42497257D01*
X45777531Y-42512784D01*
X45777532Y-42512784D01*
X45852279Y-42530500D01*
X45852288Y-42530500D01*
X45859452Y-42531338D01*
X45859445Y-42531397D01*
X45866946Y-42532163D01*
X45866952Y-42532104D01*
X45874140Y-42532733D01*
X45874143Y-42532732D01*
X45874144Y-42532733D01*
X45950898Y-42530500D01*
X49181295Y-42530500D01*
X49199265Y-42531809D01*
X49223023Y-42535289D01*
X49275068Y-42530735D01*
X49280470Y-42530500D01*
X49288704Y-42530500D01*
X49288709Y-42530500D01*
X49300327Y-42529141D01*
X49321276Y-42526693D01*
X49334028Y-42525577D01*
X49397797Y-42519999D01*
X49397805Y-42519996D01*
X49404866Y-42518539D01*
X49404878Y-42518598D01*
X49412243Y-42516965D01*
X49412229Y-42516906D01*
X49419246Y-42515241D01*
X49419255Y-42515241D01*
X49491423Y-42488974D01*
X49564334Y-42464814D01*
X49564343Y-42464807D01*
X49570882Y-42461760D01*
X49570908Y-42461816D01*
X49577690Y-42458532D01*
X49577663Y-42458478D01*
X49584106Y-42455240D01*
X49584117Y-42455237D01*
X49648283Y-42413034D01*
X49713656Y-42372712D01*
X49713662Y-42372705D01*
X49719325Y-42368229D01*
X49719363Y-42368277D01*
X49725200Y-42363522D01*
X49725161Y-42363475D01*
X49730696Y-42358830D01*
X49783385Y-42302982D01*
X50219549Y-41866819D01*
X50280872Y-41833334D01*
X50307230Y-41830500D01*
X52569784Y-41830500D01*
X52658858Y-41832757D01*
X52658858Y-41832756D01*
X52658863Y-41832757D01*
X52719253Y-41821932D01*
X52723912Y-41821280D01*
X52766107Y-41816988D01*
X52784938Y-41815074D01*
X52817727Y-41804786D01*
X52825340Y-41802918D01*
X52859153Y-41796858D01*
X52916121Y-41774101D01*
X52920553Y-41772524D01*
X52932633Y-41768734D01*
X52979088Y-41754159D01*
X53009127Y-41737484D01*
X53016208Y-41734122D01*
X53048117Y-41721377D01*
X53099354Y-41687608D01*
X53103351Y-41685187D01*
X53157002Y-41655409D01*
X53169284Y-41644863D01*
X53211053Y-41621241D01*
X53237287Y-41612549D01*
X53380391Y-41524281D01*
X53412318Y-41492353D01*
X53473642Y-41458868D01*
X53543334Y-41463852D01*
X53587681Y-41492353D01*
X53619608Y-41524280D01*
X53619612Y-41524283D01*
X53762704Y-41612544D01*
X53762707Y-41612545D01*
X53762713Y-41612549D01*
X53922315Y-41665436D01*
X54020826Y-41675500D01*
X54051495Y-41675500D01*
X54076456Y-41678038D01*
X54117263Y-41686424D01*
X54185759Y-41700500D01*
X56756717Y-41700500D01*
X56823756Y-41720185D01*
X56844398Y-41736819D01*
X58076066Y-42968487D01*
X58137441Y-43033053D01*
X58187794Y-43068100D01*
X58191537Y-43070922D01*
X58217211Y-43091856D01*
X58239095Y-43109700D01*
X58259553Y-43120385D01*
X58269545Y-43125605D01*
X58276255Y-43129670D01*
X58304451Y-43149295D01*
X58360822Y-43173486D01*
X58365071Y-43175503D01*
X58419451Y-43203910D01*
X58452480Y-43213359D01*
X58459872Y-43215992D01*
X58486230Y-43227303D01*
X58491442Y-43229540D01*
X58551529Y-43241887D01*
X58556095Y-43243009D01*
X58582631Y-43250601D01*
X58615082Y-43259887D01*
X58649339Y-43262495D01*
X58657114Y-43263586D01*
X58690755Y-43270500D01*
X58690759Y-43270500D01*
X58752099Y-43270500D01*
X58756805Y-43270678D01*
X58784096Y-43272757D01*
X58817976Y-43275337D01*
X58817976Y-43275336D01*
X58817977Y-43275337D01*
X58852060Y-43270996D01*
X58859890Y-43270500D01*
X62467284Y-43270500D01*
X62556358Y-43272757D01*
X62556358Y-43272756D01*
X62556363Y-43272757D01*
X62616753Y-43261932D01*
X62621412Y-43261280D01*
X62663607Y-43256988D01*
X62682438Y-43255074D01*
X62715227Y-43244786D01*
X62722840Y-43242918D01*
X62756653Y-43236858D01*
X62813621Y-43214101D01*
X62818053Y-43212524D01*
X62876588Y-43194159D01*
X62906627Y-43177484D01*
X62913708Y-43174122D01*
X62945617Y-43161377D01*
X62996854Y-43127608D01*
X63000851Y-43125187D01*
X63054502Y-43095409D01*
X63080568Y-43073030D01*
X63086843Y-43068300D01*
X63087160Y-43068091D01*
X63115519Y-43049402D01*
X63158917Y-43006002D01*
X63162336Y-43002834D01*
X63208895Y-42962866D01*
X63229931Y-42935688D01*
X63235101Y-42929818D01*
X67278102Y-38886817D01*
X67339425Y-38853333D01*
X67365783Y-38850499D01*
X67925002Y-38850499D01*
X67925008Y-38850499D01*
X68027797Y-38839999D01*
X68194334Y-38784814D01*
X68343656Y-38692712D01*
X68467712Y-38568656D01*
X68559814Y-38419334D01*
X68614999Y-38252797D01*
X68625500Y-38150009D01*
X68625499Y-36849992D01*
X68624060Y-36835909D01*
X68614999Y-36747203D01*
X68614998Y-36747200D01*
X68592351Y-36678856D01*
X68559814Y-36580666D01*
X68467712Y-36431344D01*
X68343656Y-36307288D01*
X68227492Y-36235638D01*
X68188879Y-36211821D01*
X68142155Y-36159873D01*
X68130932Y-36090910D01*
X68158776Y-36026828D01*
X68166295Y-36018601D01*
X68239327Y-35945569D01*
X68313495Y-35871401D01*
X68449035Y-35677830D01*
X68548903Y-35463663D01*
X68610063Y-35235408D01*
X68630659Y-35000000D01*
X68610063Y-34764592D01*
X68549417Y-34538256D01*
X68548905Y-34536344D01*
X68548904Y-34536343D01*
X68548903Y-34536337D01*
X68449035Y-34322171D01*
X68449034Y-34322169D01*
X68313494Y-34128597D01*
X68146403Y-33961506D01*
X68053801Y-33896666D01*
X67989401Y-33851573D01*
X67945778Y-33796999D01*
X67938584Y-33727500D01*
X67970106Y-33665145D01*
X67989398Y-33648428D01*
X68146401Y-33538495D01*
X68313495Y-33371401D01*
X68449035Y-33177830D01*
X68548903Y-32963663D01*
X68610063Y-32735408D01*
X68630659Y-32500000D01*
X68610063Y-32264592D01*
X68554563Y-32057459D01*
X68548905Y-32036344D01*
X68548904Y-32036343D01*
X68548903Y-32036337D01*
X68449035Y-31822171D01*
X68447304Y-31819698D01*
X68313494Y-31628597D01*
X68146402Y-31461505D01*
X67952830Y-31325965D01*
X67952828Y-31325964D01*
X67806654Y-31257802D01*
X67738663Y-31226097D01*
X67738659Y-31226096D01*
X67738655Y-31226094D01*
X67510413Y-31164938D01*
X67510403Y-31164936D01*
X67333966Y-31149500D01*
X66966034Y-31149500D01*
X66789596Y-31164936D01*
X66789586Y-31164938D01*
X66561344Y-31226094D01*
X66561335Y-31226098D01*
X66347171Y-31325964D01*
X66347169Y-31325965D01*
X66153604Y-31461500D01*
X66144107Y-31470997D01*
X66082783Y-31504479D01*
X66078305Y-31505367D01*
X66063254Y-31508065D01*
X66058587Y-31508719D01*
X65997563Y-31514925D01*
X65997562Y-31514925D01*
X65964786Y-31525208D01*
X65957159Y-31527080D01*
X65923350Y-31533140D01*
X65923347Y-31533141D01*
X65866368Y-31555899D01*
X65861931Y-31557478D01*
X65803417Y-31575838D01*
X65803406Y-31575843D01*
X65773382Y-31592507D01*
X65766290Y-31595875D01*
X65740262Y-31606273D01*
X65734383Y-31608622D01*
X65734382Y-31608622D01*
X65734381Y-31608623D01*
X65734373Y-31608627D01*
X65683155Y-31642383D01*
X65679126Y-31644824D01*
X65625502Y-31674588D01*
X65625499Y-31674590D01*
X65599427Y-31696970D01*
X65593160Y-31701695D01*
X65564482Y-31720598D01*
X65564475Y-31720603D01*
X65521116Y-31763962D01*
X65517661Y-31767164D01*
X65471106Y-31807132D01*
X65471105Y-31807133D01*
X65450076Y-31834300D01*
X65444884Y-31840194D01*
X63421899Y-33863181D01*
X63360576Y-33896666D01*
X63334218Y-33899500D01*
X59488282Y-33899500D01*
X59421243Y-33879815D01*
X59400601Y-33863181D01*
X58212553Y-32675133D01*
X58179068Y-32613810D01*
X58176876Y-32600053D01*
X58176246Y-32593882D01*
X58172499Y-32557203D01*
X58117314Y-32390666D01*
X58025212Y-32241344D01*
X57901156Y-32117288D01*
X57769910Y-32036335D01*
X57751836Y-32025187D01*
X57751831Y-32025185D01*
X57741051Y-32021613D01*
X57585297Y-31970001D01*
X57585295Y-31970000D01*
X57482510Y-31959500D01*
X56782498Y-31959500D01*
X56782482Y-31959501D01*
X56707995Y-31967111D01*
X56687747Y-31969179D01*
X56681449Y-31969500D01*
X54236757Y-31969500D01*
X54085063Y-31984925D01*
X54076424Y-31987635D01*
X54072672Y-31988813D01*
X54035552Y-31994500D01*
X54020818Y-31994500D01*
X53922316Y-32004563D01*
X53922315Y-32004564D01*
X53870865Y-32021613D01*
X53762715Y-32057450D01*
X53762704Y-32057455D01*
X53619612Y-32145716D01*
X53587678Y-32177649D01*
X53526354Y-32211132D01*
X53456662Y-32206146D01*
X53412318Y-32177646D01*
X53380391Y-32145719D01*
X53380387Y-32145716D01*
X53237295Y-32057455D01*
X53237289Y-32057452D01*
X53237287Y-32057451D01*
X53077685Y-32004564D01*
X53077683Y-32004563D01*
X52979181Y-31994500D01*
X52979174Y-31994500D01*
X52948505Y-31994500D01*
X52923544Y-31991962D01*
X52814241Y-31969500D01*
X51612229Y-31969500D01*
X51545190Y-31949815D01*
X51524548Y-31933181D01*
X50578495Y-30987128D01*
X49612829Y-30021461D01*
X49601049Y-30007830D01*
X49588477Y-29990943D01*
X49586712Y-29988572D01*
X49586710Y-29988570D01*
X49546687Y-29954986D01*
X49542712Y-29951344D01*
X49539790Y-29948422D01*
X49536880Y-29945511D01*
X49511140Y-29925159D01*
X49481377Y-29900185D01*
X49452314Y-29875798D01*
X49452313Y-29875797D01*
X49452309Y-29875794D01*
X49446280Y-29871829D01*
X49446312Y-29871780D01*
X49439953Y-29867728D01*
X49439922Y-29867779D01*
X49433780Y-29863991D01*
X49433778Y-29863990D01*
X49433777Y-29863989D01*
X49375924Y-29837011D01*
X49364158Y-29831524D01*
X49329994Y-29814367D01*
X49295533Y-29797060D01*
X49295531Y-29797059D01*
X49295530Y-29797059D01*
X49288745Y-29794589D01*
X49288765Y-29794533D01*
X49281649Y-29792059D01*
X49281631Y-29792115D01*
X49274771Y-29789842D01*
X49246941Y-29784096D01*
X49199534Y-29774307D01*
X49146180Y-29761662D01*
X49124819Y-29756599D01*
X49117647Y-29755761D01*
X49117653Y-29755701D01*
X49110155Y-29754935D01*
X49110150Y-29754995D01*
X49102960Y-29754365D01*
X49026183Y-29756600D01*
X46899337Y-29756600D01*
X46832298Y-29736915D01*
X46826452Y-29732918D01*
X46812734Y-29722951D01*
X46812729Y-29722948D01*
X46639807Y-29645957D01*
X46639802Y-29645955D01*
X46494001Y-29614965D01*
X46454646Y-29606600D01*
X46324500Y-29606600D01*
X46257461Y-29586915D01*
X46211706Y-29534111D01*
X46200500Y-29482600D01*
X46200500Y-23263756D01*
X46201809Y-23245786D01*
X46202129Y-23243598D01*
X46205289Y-23222028D01*
X46200735Y-23169982D01*
X46200500Y-23164579D01*
X46200500Y-23156348D01*
X46200500Y-23156342D01*
X46196693Y-23123775D01*
X46189999Y-23047252D01*
X46188539Y-23040180D01*
X46188597Y-23040167D01*
X46186965Y-23032808D01*
X46186906Y-23032823D01*
X46185241Y-23025802D01*
X46185241Y-23025796D01*
X46159541Y-22955185D01*
X46158974Y-22953626D01*
X46134813Y-22880714D01*
X46131764Y-22874175D01*
X46131817Y-22874150D01*
X46128532Y-22867364D01*
X46128480Y-22867391D01*
X46122727Y-22855937D01*
X46110228Y-22787194D01*
X46136877Y-22722607D01*
X46194216Y-22682680D01*
X46264037Y-22680091D01*
X46321216Y-22712600D01*
X46984254Y-23375638D01*
X46996035Y-23389270D01*
X47010372Y-23408528D01*
X47050393Y-23442111D01*
X47054381Y-23445766D01*
X47060200Y-23451585D01*
X47060204Y-23451588D01*
X47060207Y-23451591D01*
X47085943Y-23471940D01*
X47144770Y-23521302D01*
X47144771Y-23521302D01*
X47144773Y-23521304D01*
X47150802Y-23525270D01*
X47150769Y-23525319D01*
X47157131Y-23529372D01*
X47157163Y-23529321D01*
X47163303Y-23533108D01*
X47163307Y-23533111D01*
X47179760Y-23540783D01*
X47232925Y-23565575D01*
X47281783Y-23590112D01*
X47301551Y-23600040D01*
X47301553Y-23600040D01*
X47308341Y-23602511D01*
X47308320Y-23602567D01*
X47315441Y-23605043D01*
X47315460Y-23604986D01*
X47322306Y-23607254D01*
X47322311Y-23607257D01*
X47322316Y-23607258D01*
X47322319Y-23607259D01*
X47397549Y-23622792D01*
X47472263Y-23640500D01*
X47472266Y-23640500D01*
X47472270Y-23640501D01*
X47479437Y-23641339D01*
X47479430Y-23641398D01*
X47486928Y-23642164D01*
X47486934Y-23642105D01*
X47494123Y-23642734D01*
X47494127Y-23642733D01*
X47494128Y-23642734D01*
X47570901Y-23640500D01*
X49438975Y-23640500D01*
X49506014Y-23660185D01*
X49526656Y-23676819D01*
X49593628Y-23743791D01*
X49627113Y-23805114D01*
X49622129Y-23874806D01*
X49593630Y-23919152D01*
X49547029Y-23965754D01*
X49458001Y-24110089D01*
X49457996Y-24110100D01*
X49404651Y-24271085D01*
X49404650Y-24271092D01*
X49399200Y-24324433D01*
X49395884Y-24342908D01*
X49350937Y-24516507D01*
X49340631Y-24719731D01*
X49371443Y-24920861D01*
X49371444Y-24920866D01*
X49391280Y-24974429D01*
X49398356Y-25004889D01*
X49404651Y-25066504D01*
X49457996Y-25227489D01*
X49458001Y-25227500D01*
X49547029Y-25371835D01*
X49547032Y-25371839D01*
X49666955Y-25491762D01*
X49666959Y-25491765D01*
X49811294Y-25580793D01*
X49811297Y-25580794D01*
X49811303Y-25580798D01*
X49972292Y-25634144D01*
X50071655Y-25644295D01*
X50108993Y-25644294D01*
X50133953Y-25646831D01*
X50243259Y-25669295D01*
X52803243Y-25669295D01*
X52853807Y-25664152D01*
X52954938Y-25653869D01*
X52967327Y-25649981D01*
X53004448Y-25644295D01*
X53019169Y-25644295D01*
X53019174Y-25644295D01*
X53117685Y-25634231D01*
X53277287Y-25581344D01*
X53420391Y-25493076D01*
X53452318Y-25461148D01*
X53513642Y-25427663D01*
X53583334Y-25432647D01*
X53627681Y-25461148D01*
X53659608Y-25493075D01*
X53659612Y-25493078D01*
X53802704Y-25581339D01*
X53802707Y-25581340D01*
X53802713Y-25581344D01*
X53962315Y-25634231D01*
X54060826Y-25644295D01*
X54091495Y-25644295D01*
X54116456Y-25646833D01*
X54150694Y-25653869D01*
X54225759Y-25669295D01*
X56522892Y-25669295D01*
X56561895Y-25675589D01*
X56595059Y-25686578D01*
X56659703Y-25707999D01*
X56702553Y-25712376D01*
X56767244Y-25738771D01*
X56777632Y-25748053D01*
X57461548Y-26431968D01*
X58138048Y-27108468D01*
X58199441Y-27173053D01*
X58199444Y-27173055D01*
X58199447Y-27173058D01*
X58224012Y-27190155D01*
X58249803Y-27208106D01*
X58253544Y-27210926D01*
X58301093Y-27249698D01*
X58331545Y-27265604D01*
X58338258Y-27269672D01*
X58366451Y-27289295D01*
X58422829Y-27313489D01*
X58427078Y-27315507D01*
X58481451Y-27343909D01*
X58508425Y-27351627D01*
X58514474Y-27353358D01*
X58521868Y-27355990D01*
X58553442Y-27369540D01*
X58553445Y-27369540D01*
X58553446Y-27369541D01*
X58613522Y-27381887D01*
X58618100Y-27383010D01*
X58620204Y-27383612D01*
X58677082Y-27399887D01*
X58711339Y-27402495D01*
X58719114Y-27403586D01*
X58752755Y-27410500D01*
X58752759Y-27410500D01*
X58814098Y-27410500D01*
X58818804Y-27410678D01*
X58846095Y-27412757D01*
X58879975Y-27415337D01*
X58879975Y-27415336D01*
X58879976Y-27415337D01*
X58914059Y-27410996D01*
X58921889Y-27410500D01*
X62527284Y-27410500D01*
X62616358Y-27412757D01*
X62616358Y-27412756D01*
X62616363Y-27412757D01*
X62676753Y-27401932D01*
X62681412Y-27401280D01*
X62723607Y-27396988D01*
X62742438Y-27395074D01*
X62775227Y-27384786D01*
X62782840Y-27382918D01*
X62816653Y-27376858D01*
X62873621Y-27354101D01*
X62878053Y-27352524D01*
X62880912Y-27351627D01*
X62936588Y-27334159D01*
X62966627Y-27317484D01*
X62973708Y-27314122D01*
X63005617Y-27301377D01*
X63056854Y-27267608D01*
X63060851Y-27265187D01*
X63114502Y-27235409D01*
X63140568Y-27213030D01*
X63146843Y-27208300D01*
X63174376Y-27190155D01*
X63175519Y-27189402D01*
X63218892Y-27146027D01*
X63222350Y-27142823D01*
X63225613Y-27140020D01*
X63268895Y-27102866D01*
X63289928Y-27075691D01*
X63295098Y-27069821D01*
X65462821Y-24902098D01*
X65524142Y-24868615D01*
X65593834Y-24873599D01*
X65649767Y-24915471D01*
X65674184Y-24980935D01*
X65674500Y-24989781D01*
X65674500Y-25650001D01*
X65674501Y-25650019D01*
X65685000Y-25752796D01*
X65685001Y-25752799D01*
X65736937Y-25909528D01*
X65740186Y-25919334D01*
X65740187Y-25919336D01*
X65740191Y-25919343D01*
X65751875Y-25938287D01*
X65770314Y-26005680D01*
X65749390Y-26072343D01*
X65734016Y-26091062D01*
X61881899Y-29943181D01*
X61820576Y-29976666D01*
X61794218Y-29979500D01*
X60258283Y-29979500D01*
X60191244Y-29959815D01*
X60170602Y-29943181D01*
X58192553Y-27965133D01*
X58159068Y-27903810D01*
X58156876Y-27890053D01*
X58156565Y-27887011D01*
X58152499Y-27847203D01*
X58097314Y-27680666D01*
X58005212Y-27531344D01*
X57881156Y-27407288D01*
X57763392Y-27334651D01*
X57731836Y-27315187D01*
X57731831Y-27315185D01*
X57690158Y-27301376D01*
X57565297Y-27260001D01*
X57565295Y-27260000D01*
X57462510Y-27249500D01*
X56762498Y-27249500D01*
X56762480Y-27249501D01*
X56659703Y-27260000D01*
X56659700Y-27260001D01*
X56559497Y-27293206D01*
X56520493Y-27299500D01*
X54276757Y-27299500D01*
X54125063Y-27314925D01*
X54116896Y-27317488D01*
X54112672Y-27318813D01*
X54075552Y-27324500D01*
X54060818Y-27324500D01*
X53962316Y-27334563D01*
X53962315Y-27334564D01*
X53898652Y-27355660D01*
X53802715Y-27387450D01*
X53802707Y-27387454D01*
X53783089Y-27399554D01*
X53715696Y-27417991D01*
X53649033Y-27397065D01*
X53614463Y-27362252D01*
X53610110Y-27355646D01*
X53607675Y-27351627D01*
X53603391Y-27343909D01*
X53577909Y-27297998D01*
X53555534Y-27271934D01*
X53550806Y-27265663D01*
X53531904Y-27236984D01*
X53531899Y-27236978D01*
X53503021Y-27208101D01*
X53488519Y-27193599D01*
X53485328Y-27190155D01*
X53470645Y-27173051D01*
X53445366Y-27143605D01*
X53418194Y-27122572D01*
X53412307Y-27117387D01*
X52604361Y-26309441D01*
X52600282Y-26304940D01*
X52570885Y-26269119D01*
X52570883Y-26269117D01*
X52535124Y-26239770D01*
X52532907Y-26237860D01*
X52531593Y-26236673D01*
X52531580Y-26236660D01*
X52493422Y-26205546D01*
X52418538Y-26144090D01*
X52418532Y-26144085D01*
X52418298Y-26143929D01*
X52413573Y-26140436D01*
X52413415Y-26140307D01*
X52413405Y-26140301D01*
X52327407Y-26095379D01*
X52277411Y-26068656D01*
X52244727Y-26051186D01*
X52244726Y-26051185D01*
X52244725Y-26051185D01*
X52237967Y-26048385D01*
X52233093Y-26046108D01*
X52233052Y-26046092D01*
X52205233Y-26038132D01*
X52142827Y-26020275D01*
X52132974Y-26017286D01*
X52056138Y-25993977D01*
X52050164Y-25992789D01*
X52050210Y-25992553D01*
X52037479Y-25990124D01*
X52037414Y-25990112D01*
X51947010Y-25983228D01*
X51860001Y-25974659D01*
X51860000Y-25974659D01*
X51859634Y-25974695D01*
X51838075Y-25974933D01*
X51834527Y-25974662D01*
X51747739Y-25985715D01*
X51663868Y-25993976D01*
X51663861Y-25993977D01*
X51660076Y-25995125D01*
X51639787Y-25999462D01*
X51632677Y-26000368D01*
X51632668Y-26000370D01*
X51552877Y-26027644D01*
X51475273Y-26051186D01*
X51475265Y-26051189D01*
X51468615Y-26054743D01*
X51450298Y-26062706D01*
X51440133Y-26066181D01*
X51440131Y-26066182D01*
X51370193Y-26107351D01*
X51301464Y-26144088D01*
X51301462Y-26144089D01*
X51292860Y-26151148D01*
X51277115Y-26162143D01*
X51264776Y-26169407D01*
X51208006Y-26220696D01*
X51205775Y-26222617D01*
X51149113Y-26269120D01*
X51139789Y-26280481D01*
X51127074Y-26293815D01*
X51113791Y-26305816D01*
X51113788Y-26305819D01*
X51070496Y-26364773D01*
X51068450Y-26367407D01*
X51024094Y-26421456D01*
X51024092Y-26421459D01*
X51024090Y-26421462D01*
X51015469Y-26437590D01*
X51006063Y-26452521D01*
X50993352Y-26469830D01*
X50964216Y-26533237D01*
X50962559Y-26536575D01*
X50931184Y-26595277D01*
X50923614Y-26620229D01*
X50920621Y-26628120D01*
X50908396Y-26654729D01*
X50908393Y-26654737D01*
X50893383Y-26719415D01*
X50892318Y-26723396D01*
X50873978Y-26783857D01*
X50873975Y-26783872D01*
X50871088Y-26813181D01*
X50869781Y-26821122D01*
X50862396Y-26852945D01*
X50862396Y-26852947D01*
X50860799Y-26915968D01*
X50860520Y-26920474D01*
X50854659Y-26979997D01*
X50854659Y-26980004D01*
X50857876Y-27012677D01*
X50858155Y-27020328D01*
X50857243Y-27056360D01*
X50857243Y-27056372D01*
X50867766Y-27115081D01*
X50868440Y-27119942D01*
X50872716Y-27163343D01*
X50859698Y-27231990D01*
X50811635Y-27282701D01*
X50749313Y-27299500D01*
X50294257Y-27299500D01*
X50142563Y-27314925D01*
X50142557Y-27314926D01*
X50130164Y-27318815D01*
X50093053Y-27324500D01*
X50071664Y-27324500D01*
X50071643Y-27324501D01*
X49972292Y-27334650D01*
X49972289Y-27334651D01*
X49811305Y-27387996D01*
X49811294Y-27388001D01*
X49666959Y-27477029D01*
X49666955Y-27477032D01*
X49547032Y-27596955D01*
X49547029Y-27596959D01*
X49458001Y-27741294D01*
X49457996Y-27741305D01*
X49404651Y-27902290D01*
X49404650Y-27902297D01*
X49399200Y-27955638D01*
X49395884Y-27974113D01*
X49350937Y-28147712D01*
X49340631Y-28350936D01*
X49371443Y-28552066D01*
X49371444Y-28552071D01*
X49391280Y-28605634D01*
X49398356Y-28636094D01*
X49404651Y-28697709D01*
X49457996Y-28858694D01*
X49458001Y-28858705D01*
X49547029Y-29003040D01*
X49547032Y-29003044D01*
X49666955Y-29122967D01*
X49666959Y-29122970D01*
X49811294Y-29211998D01*
X49811297Y-29211999D01*
X49811303Y-29212003D01*
X49972292Y-29265349D01*
X50071655Y-29275500D01*
X50108993Y-29275499D01*
X50133953Y-29278036D01*
X50243259Y-29300500D01*
X52725571Y-29300500D01*
X52728711Y-29300580D01*
X52755568Y-29301941D01*
X52803436Y-29304369D01*
X52877395Y-29293038D01*
X52880492Y-29292643D01*
X52954938Y-29285074D01*
X52967323Y-29281187D01*
X53004446Y-29275500D01*
X53019169Y-29275500D01*
X53019174Y-29275500D01*
X53117685Y-29265436D01*
X53277287Y-29212549D01*
X53420391Y-29124281D01*
X53452319Y-29092353D01*
X53513642Y-29058868D01*
X53583334Y-29063852D01*
X53627681Y-29092353D01*
X53659608Y-29124280D01*
X53659612Y-29124283D01*
X53802704Y-29212544D01*
X53802707Y-29212545D01*
X53802713Y-29212549D01*
X53962315Y-29265436D01*
X54060826Y-29275500D01*
X54091495Y-29275500D01*
X54116456Y-29278038D01*
X54225759Y-29300500D01*
X56520493Y-29300500D01*
X56559496Y-29306794D01*
X56592947Y-29317878D01*
X56659703Y-29339999D01*
X56702553Y-29344376D01*
X56767244Y-29370771D01*
X56777631Y-29380052D01*
X59076066Y-31678487D01*
X59137441Y-31743053D01*
X59137444Y-31743055D01*
X59137447Y-31743058D01*
X59160929Y-31759401D01*
X59187795Y-31778100D01*
X59191550Y-31780932D01*
X59239093Y-31819698D01*
X59269545Y-31835604D01*
X59276256Y-31839671D01*
X59304451Y-31859295D01*
X59360832Y-31883490D01*
X59365067Y-31885501D01*
X59419451Y-31913909D01*
X59452473Y-31923356D01*
X59459865Y-31925989D01*
X59491440Y-31939539D01*
X59491441Y-31939540D01*
X59504554Y-31942234D01*
X59551555Y-31951892D01*
X59556095Y-31953006D01*
X59615082Y-31969886D01*
X59649341Y-31972494D01*
X59657109Y-31973585D01*
X59690755Y-31980500D01*
X59690759Y-31980500D01*
X59752101Y-31980500D01*
X59756808Y-31980678D01*
X59784097Y-31982757D01*
X59817975Y-31985337D01*
X59817975Y-31985336D01*
X59817976Y-31985337D01*
X59852059Y-31980996D01*
X59859889Y-31980500D01*
X62247284Y-31980500D01*
X62336358Y-31982757D01*
X62336358Y-31982756D01*
X62336363Y-31982757D01*
X62396753Y-31971932D01*
X62401412Y-31971280D01*
X62443607Y-31966988D01*
X62462438Y-31965074D01*
X62495227Y-31954786D01*
X62502840Y-31952918D01*
X62536653Y-31946858D01*
X62593621Y-31924101D01*
X62598053Y-31922524D01*
X62656588Y-31904159D01*
X62686627Y-31887484D01*
X62693708Y-31884122D01*
X62725617Y-31871377D01*
X62776854Y-31837608D01*
X62780851Y-31835187D01*
X62834502Y-31805409D01*
X62860568Y-31783030D01*
X62866843Y-31778300D01*
X62867156Y-31778094D01*
X62895519Y-31759402D01*
X62938917Y-31716002D01*
X62942336Y-31712834D01*
X62988895Y-31672866D01*
X63009931Y-31645688D01*
X63015101Y-31639818D01*
X67948487Y-26706433D01*
X68013053Y-26645059D01*
X68048112Y-26594686D01*
X68050925Y-26590957D01*
X68089698Y-26543407D01*
X68105607Y-26512948D01*
X68109667Y-26506248D01*
X68129295Y-26478049D01*
X68153492Y-26421660D01*
X68155498Y-26417435D01*
X68183909Y-26363049D01*
X68193362Y-26330010D01*
X68195984Y-26322643D01*
X68203191Y-26305849D01*
X68247720Y-26252010D01*
X68252021Y-26249231D01*
X68343656Y-26192712D01*
X68467712Y-26068656D01*
X68559814Y-25919334D01*
X68614999Y-25752797D01*
X68625500Y-25650009D01*
X68625499Y-24349992D01*
X68623745Y-24332826D01*
X68614999Y-24247203D01*
X68614998Y-24247200D01*
X68594721Y-24186008D01*
X68559814Y-24080666D01*
X68467712Y-23931344D01*
X68343656Y-23807288D01*
X68260902Y-23756245D01*
X68188879Y-23711821D01*
X68142155Y-23659873D01*
X68130932Y-23590910D01*
X68158776Y-23526828D01*
X68166295Y-23518601D01*
X68239130Y-23445766D01*
X68313495Y-23371401D01*
X68449035Y-23177830D01*
X68548903Y-22963663D01*
X68610063Y-22735408D01*
X68630659Y-22500000D01*
X68610063Y-22264592D01*
X68548903Y-22036337D01*
X68449035Y-21822171D01*
X68436509Y-21804281D01*
X68313494Y-21628597D01*
X68146403Y-21461506D01*
X68082644Y-21416862D01*
X67989401Y-21351573D01*
X67945778Y-21296999D01*
X67938584Y-21227500D01*
X67970106Y-21165145D01*
X67989398Y-21148428D01*
X68146401Y-21038495D01*
X68313495Y-20871401D01*
X68449035Y-20677830D01*
X68548903Y-20463663D01*
X68610063Y-20235408D01*
X68630659Y-20000000D01*
X68628645Y-19976986D01*
X68622422Y-19905849D01*
X68610063Y-19764592D01*
X68548903Y-19536337D01*
X68449035Y-19322171D01*
X68382202Y-19226722D01*
X68313494Y-19128597D01*
X68146402Y-18961505D01*
X67989403Y-18851574D01*
X67945778Y-18796997D01*
X67938584Y-18727499D01*
X67970107Y-18665144D01*
X67989391Y-18648433D01*
X68146401Y-18538495D01*
X68313495Y-18371401D01*
X68449035Y-18177830D01*
X68548903Y-17963663D01*
X68610063Y-17735408D01*
X68630659Y-17500000D01*
X68610063Y-17264592D01*
X68548903Y-17036337D01*
X68449035Y-16822171D01*
X68435210Y-16802426D01*
X68313494Y-16628597D01*
X68146403Y-16461506D01*
X68085963Y-16419186D01*
X67989401Y-16351573D01*
X67945778Y-16296999D01*
X67938584Y-16227500D01*
X67970106Y-16165145D01*
X67989398Y-16148428D01*
X68146401Y-16038495D01*
X68313495Y-15871401D01*
X68449035Y-15677830D01*
X68548903Y-15463663D01*
X68610063Y-15235408D01*
X68630659Y-15000000D01*
X68610063Y-14764592D01*
X68561750Y-14584282D01*
X68548905Y-14536344D01*
X68548904Y-14536343D01*
X68548903Y-14536337D01*
X68449035Y-14322171D01*
X68449034Y-14322169D01*
X68313494Y-14128597D01*
X68146402Y-13961505D01*
X67989403Y-13851574D01*
X67945778Y-13796997D01*
X67938584Y-13727499D01*
X67970107Y-13665144D01*
X67989391Y-13648433D01*
X68146401Y-13538495D01*
X68313495Y-13371401D01*
X68449035Y-13177830D01*
X68548903Y-12963663D01*
X68610063Y-12735408D01*
X68630659Y-12500000D01*
X68628724Y-12477889D01*
X68620149Y-12379871D01*
X68610063Y-12264592D01*
X68551871Y-12047413D01*
X68548905Y-12036344D01*
X68548904Y-12036343D01*
X68548903Y-12036337D01*
X68449035Y-11822171D01*
X68435411Y-11802713D01*
X68313494Y-11628597D01*
X68146402Y-11461505D01*
X67952830Y-11325965D01*
X67952828Y-11325964D01*
X67845745Y-11276030D01*
X67738663Y-11226097D01*
X67738659Y-11226096D01*
X67738655Y-11226094D01*
X67510413Y-11164938D01*
X67510403Y-11164936D01*
X67357506Y-11151559D01*
X67292437Y-11126106D01*
X67280633Y-11115712D01*
X67266451Y-11101531D01*
X67205061Y-11036949D01*
X67205060Y-11036948D01*
X67205059Y-11036947D01*
X67177204Y-11017559D01*
X67154709Y-11001902D01*
X67150946Y-10999064D01*
X67103413Y-10960305D01*
X67103406Y-10960300D01*
X67072959Y-10944397D01*
X67066251Y-10940334D01*
X67038049Y-10920705D01*
X67038046Y-10920703D01*
X67038045Y-10920703D01*
X67038041Y-10920701D01*
X66981680Y-10896514D01*
X66977424Y-10894493D01*
X66923057Y-10866094D01*
X66923050Y-10866091D01*
X66923049Y-10866091D01*
X66917008Y-10864362D01*
X66890030Y-10856642D01*
X66882630Y-10854008D01*
X66851057Y-10840459D01*
X66851058Y-10840459D01*
X66790966Y-10828109D01*
X66786391Y-10826986D01*
X66727420Y-10810113D01*
X66727425Y-10810113D01*
X66693158Y-10807503D01*
X66685380Y-10806412D01*
X66651742Y-10799500D01*
X66651741Y-10799500D01*
X66590402Y-10799500D01*
X66585695Y-10799321D01*
X66580121Y-10798896D01*
X66524524Y-10794662D01*
X66504589Y-10797201D01*
X66490440Y-10799003D01*
X66482611Y-10799500D01*
X59238282Y-10799500D01*
X59171243Y-10779815D01*
X59150601Y-10763181D01*
X58192553Y-9805133D01*
X58159068Y-9743810D01*
X58156876Y-9730053D01*
X58152499Y-9687203D01*
X58097314Y-9520666D01*
X58005212Y-9371344D01*
X57881156Y-9247288D01*
X57746936Y-9164501D01*
X57731836Y-9155187D01*
X57731831Y-9155185D01*
X57730362Y-9154698D01*
X57565297Y-9100001D01*
X57565295Y-9100000D01*
X57462510Y-9089500D01*
X56762498Y-9089500D01*
X56762480Y-9089501D01*
X56659703Y-9100000D01*
X56659700Y-9100001D01*
X56559497Y-9133206D01*
X56520493Y-9139500D01*
X54276757Y-9139500D01*
X54125063Y-9154925D01*
X54116424Y-9157635D01*
X54112672Y-9158813D01*
X54075552Y-9164500D01*
X54060818Y-9164500D01*
X53962316Y-9174563D01*
X53962315Y-9174564D01*
X53883219Y-9200773D01*
X53802715Y-9227450D01*
X53802704Y-9227455D01*
X53659612Y-9315716D01*
X53659607Y-9315719D01*
X53627680Y-9347647D01*
X53566356Y-9381132D01*
X53496665Y-9376146D01*
X53452320Y-9347647D01*
X53420392Y-9315719D01*
X53420387Y-9315716D01*
X53277295Y-9227455D01*
X53277289Y-9227452D01*
X53277287Y-9227451D01*
X53117685Y-9174564D01*
X53117683Y-9174563D01*
X53019181Y-9164500D01*
X53019174Y-9164500D01*
X52988505Y-9164500D01*
X52963544Y-9161962D01*
X52854241Y-9139500D01*
X52470452Y-9139500D01*
X52403413Y-9119815D01*
X52357658Y-9067011D01*
X52347714Y-8997853D01*
X52376739Y-8934297D01*
X52411997Y-8906142D01*
X52468538Y-8875922D01*
X52468546Y-8875914D01*
X52473605Y-8872536D01*
X52473738Y-8872736D01*
X52483834Y-8865872D01*
X52484486Y-8865417D01*
X52484502Y-8865409D01*
X52552987Y-8806615D01*
X52620883Y-8750895D01*
X52621130Y-8750593D01*
X52636243Y-8735142D01*
X52638895Y-8732866D01*
X52692290Y-8663884D01*
X52745910Y-8598550D01*
X52747789Y-8595033D01*
X52759092Y-8577585D01*
X52763448Y-8571958D01*
X52797903Y-8501716D01*
X52800517Y-8496388D01*
X52838813Y-8424740D01*
X52838814Y-8424739D01*
X52841007Y-8417505D01*
X52848341Y-8398889D01*
X52853060Y-8389271D01*
X52873378Y-8310794D01*
X52896024Y-8236144D01*
X52897115Y-8225055D01*
X52900475Y-8206140D01*
X52904063Y-8192285D01*
X52907935Y-8115905D01*
X52908154Y-8112972D01*
X52908308Y-8111412D01*
X52915341Y-8040012D01*
X52913900Y-8025385D01*
X52913461Y-8006951D01*
X52914369Y-7989064D01*
X52903290Y-7916751D01*
X52902876Y-7913448D01*
X52896099Y-7844642D01*
X52896024Y-7843880D01*
X52890721Y-7826400D01*
X52886811Y-7809178D01*
X52885603Y-7801294D01*
X52883556Y-7787929D01*
X52859297Y-7722428D01*
X52858118Y-7718924D01*
X52838814Y-7655285D01*
X52826530Y-7632303D01*
X52823072Y-7624618D01*
X52812886Y-7597113D01*
X52777711Y-7540679D01*
X52775649Y-7537112D01*
X52745911Y-7481475D01*
X52745909Y-7481472D01*
X52727256Y-7458744D01*
X52722565Y-7452206D01*
X52705252Y-7424429D01*
X52661743Y-7378658D01*
X52658753Y-7375274D01*
X52620885Y-7329131D01*
X52620883Y-7329129D01*
X52595547Y-7308336D01*
X52589948Y-7303130D01*
X52565059Y-7276947D01*
X52515992Y-7242795D01*
X52512076Y-7239833D01*
X52468538Y-7204101D01*
X52468536Y-7204100D01*
X52436664Y-7187063D01*
X52430470Y-7183270D01*
X52398053Y-7160708D01*
X52398054Y-7160708D01*
X52398049Y-7160705D01*
X52346208Y-7138457D01*
X52341432Y-7136161D01*
X52294730Y-7111199D01*
X52294727Y-7111198D01*
X52256935Y-7099733D01*
X52250486Y-7097380D01*
X52211058Y-7080459D01*
X52159092Y-7069779D01*
X52153575Y-7068379D01*
X52106136Y-7053989D01*
X52106128Y-7053987D01*
X52063480Y-7049786D01*
X52057074Y-7048815D01*
X52011743Y-7039500D01*
X52011741Y-7039500D01*
X51962078Y-7039500D01*
X51955997Y-7039201D01*
X51910000Y-7034671D01*
X51864003Y-7039201D01*
X51857922Y-7039500D01*
X27232717Y-7039500D01*
X27143637Y-7037243D01*
X27143628Y-7037243D01*
X27083260Y-7048064D01*
X27078595Y-7048718D01*
X27017563Y-7054925D01*
X27017555Y-7054927D01*
X26984781Y-7065210D01*
X26977154Y-7067082D01*
X26943350Y-7073141D01*
X26886384Y-7095894D01*
X26881948Y-7097473D01*
X26823414Y-7115840D01*
X26823412Y-7115841D01*
X26793385Y-7132506D01*
X26786293Y-7135874D01*
X26754383Y-7148621D01*
X26703154Y-7182383D01*
X26699126Y-7184824D01*
X26645502Y-7214588D01*
X26645499Y-7214590D01*
X26619427Y-7236970D01*
X26613160Y-7241695D01*
X26584482Y-7260598D01*
X26584475Y-7260603D01*
X26541116Y-7303962D01*
X26537661Y-7307164D01*
X26491106Y-7347132D01*
X26491105Y-7347133D01*
X26470076Y-7374300D01*
X26464884Y-7380194D01*
X25761899Y-8083181D01*
X25700576Y-8116666D01*
X25674218Y-8119500D01*
X23896757Y-8119500D01*
X23745063Y-8134925D01*
X23736424Y-8137635D01*
X23732672Y-8138813D01*
X23695552Y-8144500D01*
X23680818Y-8144500D01*
X23582316Y-8154563D01*
X23582315Y-8154564D01*
X23503219Y-8180773D01*
X23422715Y-8207450D01*
X23422704Y-8207455D01*
X23279612Y-8295716D01*
X23279608Y-8295719D01*
X23247681Y-8327647D01*
X23186358Y-8361132D01*
X23116666Y-8356148D01*
X23072319Y-8327647D01*
X23040391Y-8295719D01*
X23040387Y-8295716D01*
X22897295Y-8207455D01*
X22897289Y-8207452D01*
X22897287Y-8207451D01*
X22737685Y-8154564D01*
X22737682Y-8154563D01*
X22671539Y-8147806D01*
X22665355Y-8146857D01*
X22598467Y-8133110D01*
X22593891Y-8131987D01*
X22534920Y-8115113D01*
X22500658Y-8112503D01*
X22492880Y-8111412D01*
X22459242Y-8104500D01*
X22459241Y-8104500D01*
X22397902Y-8104500D01*
X22393195Y-8104321D01*
X22387621Y-8103896D01*
X22332024Y-8099662D01*
X22312089Y-8102201D01*
X22297940Y-8104003D01*
X22290111Y-8104500D01*
X20174017Y-8104500D01*
X20155502Y-8102616D01*
X20155501Y-8102636D01*
X20149245Y-8102000D01*
X20149241Y-8102000D01*
X20087902Y-8102000D01*
X20083195Y-8101821D01*
X20077621Y-8101396D01*
X20022024Y-8097162D01*
X20002402Y-8099662D01*
X19987940Y-8101503D01*
X19980111Y-8102000D01*
X17722007Y-8102000D01*
X17683003Y-8095706D01*
X17589324Y-8064664D01*
X17582797Y-8062501D01*
X17582795Y-8062500D01*
X17480016Y-8052000D01*
X17480009Y-8052000D01*
X17418590Y-8052000D01*
X17384475Y-8047215D01*
X17380550Y-8046091D01*
X17380549Y-8046091D01*
X17367015Y-8042218D01*
X17347530Y-8036642D01*
X17340130Y-8034008D01*
X17308557Y-8020459D01*
X17308558Y-8020459D01*
X17248466Y-8008109D01*
X17243891Y-8006986D01*
X17184920Y-7990113D01*
X17184925Y-7990113D01*
X17150658Y-7987503D01*
X17142880Y-7986412D01*
X17109242Y-7979500D01*
X17109241Y-7979500D01*
X17047902Y-7979500D01*
X17043195Y-7979321D01*
X17037621Y-7978896D01*
X16982024Y-7974662D01*
X16962089Y-7977201D01*
X16947940Y-7979003D01*
X16940111Y-7979500D01*
X14280891Y-7979500D01*
X14213852Y-7959815D01*
X14193210Y-7943181D01*
X14186003Y-7935974D01*
X14185999Y-7935971D01*
X14037933Y-7844642D01*
X14037927Y-7844639D01*
X14037925Y-7844638D01*
X14035653Y-7843885D01*
X13872776Y-7789913D01*
X13770855Y-7779500D01*
X13770848Y-7779500D01*
X13184152Y-7779500D01*
X13184144Y-7779500D01*
X13082223Y-7789913D01*
X12917077Y-7844637D01*
X12917066Y-7844642D01*
X12769000Y-7935971D01*
X12768996Y-7935974D01*
X12645974Y-8058996D01*
X12645971Y-8059000D01*
X12645538Y-8059703D01*
X12645114Y-8060083D01*
X12641493Y-8064664D01*
X12640710Y-8064045D01*
X12593590Y-8106428D01*
X12524628Y-8117649D01*
X12460546Y-8089806D01*
X12438657Y-8064544D01*
X12438507Y-8064664D01*
X12435859Y-8061315D01*
X12434462Y-8059703D01*
X12434028Y-8059000D01*
X12434025Y-8058996D01*
X12311003Y-7935974D01*
X12310999Y-7935971D01*
X12162933Y-7844642D01*
X12162927Y-7844639D01*
X12162925Y-7844638D01*
X12160653Y-7843885D01*
X11997776Y-7789913D01*
X11895855Y-7779500D01*
X11895848Y-7779500D01*
X11309152Y-7779500D01*
X11309144Y-7779500D01*
X11207223Y-7789913D01*
X11042077Y-7844637D01*
X11042066Y-7844642D01*
X10894000Y-7935971D01*
X10893996Y-7935974D01*
X10770974Y-8058996D01*
X10770971Y-8059000D01*
X10679642Y-8207066D01*
X10679637Y-8207077D01*
X10624913Y-8372223D01*
X10614500Y-8474144D01*
X10614500Y-8501716D01*
X10594815Y-8568755D01*
X10578181Y-8589397D01*
X7171532Y-11996046D01*
X7106946Y-12057442D01*
X7071899Y-12107794D01*
X7069062Y-12111556D01*
X7030302Y-12159092D01*
X7030299Y-12159097D01*
X7014392Y-12189547D01*
X7010324Y-12196261D01*
X6990702Y-12224454D01*
X6966509Y-12280830D01*
X6964488Y-12285084D01*
X6936091Y-12339451D01*
X6936090Y-12339452D01*
X6926640Y-12372475D01*
X6924007Y-12379871D01*
X6910459Y-12411443D01*
X6898113Y-12471519D01*
X6896990Y-12476095D01*
X6880113Y-12535077D01*
X6880113Y-12535079D01*
X6877503Y-12569341D01*
X6876414Y-12577108D01*
X6871520Y-12600928D01*
X6869500Y-12610758D01*
X6869500Y-12672097D01*
X6869321Y-12676806D01*
X6864662Y-12737973D01*
X6869002Y-12772049D01*
X6869499Y-12779889D01*
X6869499Y-13544091D01*
X6849814Y-13611130D01*
X6805732Y-13649642D01*
X6806813Y-13651395D01*
X6800667Y-13655185D01*
X6800666Y-13655186D01*
X6732693Y-13697112D01*
X6651342Y-13747289D01*
X6527289Y-13871342D01*
X6435187Y-14020663D01*
X6435185Y-14020668D01*
X6433002Y-14027257D01*
X6380001Y-14187203D01*
X6380001Y-14187204D01*
X6380000Y-14187204D01*
X6369500Y-14289983D01*
X6369500Y-15590001D01*
X500Y-15590001D01*
X500Y-133982D01*
X20185Y-66943D01*
X72989Y-21188D01*
X124476Y-9983D01*
X71250000Y-500D01*
X74875500Y-500D01*
X74942539Y-20185D01*
G37*
%TD.AperFunction*%
%TD*%
M02*
