%TF.GenerationSoftware,KiCad,Pcbnew,7.0.7*%
%TF.CreationDate,2024-02-03T17:25:47+00:00*%
%TF.ProjectId,LPF_Relay,4c50465f-5265-46c6-9179-2e6b69636164,rev?*%
%TF.SameCoordinates,Original*%
%TF.FileFunction,Copper,L2,Bot*%
%TF.FilePolarity,Positive*%
%FSLAX46Y46*%
G04 Gerber Fmt 4.6, Leading zero omitted, Abs format (unit mm)*
G04 Created by KiCad (PCBNEW 7.0.7) date 2024-02-03 17:25:47*
%MOMM*%
%LPD*%
G01*
G04 APERTURE LIST*
G04 Aperture macros list*
%AMRoundRect*
0 Rectangle with rounded corners*
0 $1 Rounding radius*
0 $2 $3 $4 $5 $6 $7 $8 $9 X,Y pos of 4 corners*
0 Add a 4 corners polygon primitive as box body*
4,1,4,$2,$3,$4,$5,$6,$7,$8,$9,$2,$3,0*
0 Add four circle primitives for the rounded corners*
1,1,$1+$1,$2,$3*
1,1,$1+$1,$4,$5*
1,1,$1+$1,$6,$7*
1,1,$1+$1,$8,$9*
0 Add four rect primitives between the rounded corners*
20,1,$1+$1,$2,$3,$4,$5,0*
20,1,$1+$1,$4,$5,$6,$7,0*
20,1,$1+$1,$6,$7,$8,$9,0*
20,1,$1+$1,$8,$9,$2,$3,0*%
G04 Aperture macros list end*
%TA.AperFunction,ComponentPad*%
%ADD10RoundRect,0.250000X0.725000X-0.600000X0.725000X0.600000X-0.725000X0.600000X-0.725000X-0.600000X0*%
%TD*%
%TA.AperFunction,ComponentPad*%
%ADD11O,1.950000X1.700000*%
%TD*%
%TA.AperFunction,ComponentPad*%
%ADD12C,5.600000*%
%TD*%
%TA.AperFunction,ComponentPad*%
%ADD13RoundRect,0.250000X-0.750000X0.600000X-0.750000X-0.600000X0.750000X-0.600000X0.750000X0.600000X0*%
%TD*%
%TA.AperFunction,ComponentPad*%
%ADD14O,2.000000X1.700000*%
%TD*%
%TA.AperFunction,ViaPad*%
%ADD15C,0.800000*%
%TD*%
%TA.AperFunction,ViaPad*%
%ADD16C,1.000000*%
%TD*%
%TA.AperFunction,Conductor*%
%ADD17C,0.500000*%
%TD*%
%TA.AperFunction,Conductor*%
%ADD18C,1.000000*%
%TD*%
G04 APERTURE END LIST*
D10*
%TO.P,J5,1,Pin_1*%
%TO.N,Net-(D11-K)*%
X67150000Y-25000000D03*
D11*
%TO.P,J5,2,Pin_2*%
%TO.N,Net-(D10-K)*%
X67150000Y-22500000D03*
%TO.P,J5,3,Pin_3*%
%TO.N,Net-(D9-K)*%
X67150000Y-20000000D03*
%TO.P,J5,4,Pin_4*%
%TO.N,Net-(D8-K)*%
X67150000Y-17500000D03*
%TO.P,J5,5,Pin_5*%
%TO.N,Net-(D7-K)*%
X67150000Y-15000000D03*
%TO.P,J5,6,Pin_6*%
%TO.N,Net-(D5-K)*%
X67150000Y-12500000D03*
%TD*%
D12*
%TO.P,H1,1,1*%
%TO.N,GND*%
X5000000Y-45000000D03*
%TD*%
%TO.P,H2,1,1*%
%TO.N,GND*%
X5000000Y-5000000D03*
%TD*%
D10*
%TO.P,J4,1,Pin_1*%
%TO.N,Net-(D6-K)*%
X67150000Y-37500000D03*
D11*
%TO.P,J4,2,Pin_2*%
%TO.N,Net-(D4-K)*%
X67150000Y-35000000D03*
%TO.P,J4,3,Pin_3*%
%TO.N,Net-(D3-K)*%
X67150000Y-32500000D03*
%TD*%
D13*
%TO.P,J3,1,Pin_1*%
%TO.N,Net-(J3-Pin_1)*%
X7870000Y-14940000D03*
D14*
%TO.P,J3,2,Pin_2*%
%TO.N,GND*%
X7870000Y-17440000D03*
%TD*%
D12*
%TO.P,H4,1,1*%
%TO.N,GND*%
X70000000Y-45000000D03*
%TD*%
%TO.P,H3,1,1*%
%TO.N,GND*%
X70000000Y-5000000D03*
%TD*%
D15*
%TO.N,Net-(J1-Pin_3)*%
X10600000Y-34350000D03*
X11986551Y-37675760D03*
X21180000Y-44820000D03*
D16*
%TO.N,GND*%
X61360000Y-36740000D03*
D15*
X13467208Y-27766290D03*
X12140000Y-35030000D03*
X18650000Y-29520000D03*
D16*
X47644253Y-32685747D03*
X15380000Y-11820000D03*
X47528795Y-24668795D03*
X61406000Y-21036000D03*
X61360000Y-40680000D03*
X47470000Y-40830000D03*
X27760000Y-10670000D03*
X47440000Y-13730000D03*
D15*
X30360000Y-21080000D03*
D16*
X47520000Y-36580000D03*
D15*
X34590000Y-23130000D03*
D16*
X61350000Y-33010000D03*
X47470000Y-10140000D03*
X61372000Y-24668000D03*
X47500000Y-28300000D03*
X47470000Y-20950000D03*
D15*
X42000000Y-33710000D03*
D16*
X61428000Y-13772000D03*
D15*
X42000000Y-31690000D03*
D16*
X61406000Y-17404000D03*
D15*
X41940000Y-29190000D03*
D16*
X61350000Y-28300000D03*
X47538676Y-17384102D03*
X61460000Y-10140000D03*
D15*
%TO.N,+3.3V*%
X17530000Y-27900000D03*
X37030000Y-31470000D03*
X13360000Y-32470000D03*
X36970000Y-37540000D03*
X13360000Y-28760529D03*
X37030000Y-29230000D03*
X36990000Y-33860000D03*
D16*
%TO.N,Net-(U2-COM)*%
X51910000Y-8040012D03*
X51860000Y-26980000D03*
X51860000Y-38990000D03*
D15*
%TO.N,Net-(U2-O1)*%
X45359984Y-20690000D03*
X41420000Y-13260000D03*
%TO.N,Net-(U2-O2)*%
X45930000Y-19180000D03*
X42530000Y-14370000D03*
%TO.N,Net-(U2-O3)*%
X46320000Y-15700000D03*
X43480000Y-15670000D03*
%TO.N,Net-(U2-O7)*%
X46360000Y-30507100D03*
X43607232Y-24805149D03*
%TO.N,Net-(U2-O5)*%
X46511434Y-11563624D03*
X45890000Y-13840000D03*
%TO.N,Net-(J1-Pin_1)*%
X15980000Y-34780000D03*
X15980000Y-31240000D03*
X17380000Y-39330000D03*
%TO.N,Net-(U1-GPA0)*%
X32534264Y-24374264D03*
X32525000Y-19595000D03*
%TD*%
D17*
%TO.N,Net-(J1-Pin_3)*%
X15760000Y-44820000D02*
X21180000Y-44820000D01*
X10600000Y-36289209D02*
X11986551Y-37675760D01*
X11986551Y-37675760D02*
X11986551Y-41046551D01*
X10600000Y-36120000D02*
X10600000Y-36289209D01*
X10600000Y-34350000D02*
X10600000Y-36120000D01*
X11986551Y-41046551D02*
X15760000Y-44820000D01*
D18*
%TO.N,GND*%
X47538676Y-13828676D02*
X47538676Y-17384102D01*
X47460000Y-28340000D02*
X47460000Y-32501494D01*
D17*
X11600000Y-34490000D02*
X11600000Y-29318447D01*
D18*
X61406000Y-24634000D02*
X61372000Y-24668000D01*
X15380000Y-11820000D02*
X11820000Y-11820000D01*
X47480000Y-32850000D02*
X47644253Y-32685747D01*
X61360000Y-40680000D02*
X61360000Y-36740000D01*
X61372000Y-28278000D02*
X61350000Y-28300000D01*
D17*
X41940000Y-29190000D02*
X39382254Y-29190000D01*
D18*
X61406000Y-21036000D02*
X61406000Y-24634000D01*
D17*
X46648506Y-31690000D02*
X47644253Y-32685747D01*
D18*
X47470000Y-36630000D02*
X47520000Y-36580000D01*
X61360000Y-40680000D02*
X65680000Y-45000000D01*
X61460000Y-10140000D02*
X61460000Y-7720000D01*
X61360000Y-36740000D02*
X61360000Y-33020000D01*
X61428000Y-17382000D02*
X61406000Y-17404000D01*
D17*
X7870000Y-17440000D02*
X7870000Y-22169082D01*
D18*
X47500000Y-28300000D02*
X47460000Y-28340000D01*
X47440000Y-13730000D02*
X47611434Y-13558566D01*
D17*
X13152157Y-27766290D02*
X13467208Y-27766290D01*
D18*
X47611434Y-13558566D02*
X47611434Y-10281434D01*
D17*
X7870000Y-22169082D02*
X13467208Y-27766290D01*
X41940000Y-29190000D02*
X41940000Y-31630000D01*
D18*
X61350000Y-28300000D02*
X61350000Y-33010000D01*
X11820000Y-11820000D02*
X5000000Y-5000000D01*
X47528795Y-24668795D02*
X47528795Y-28271205D01*
X28300000Y-10130000D02*
X47460000Y-10130000D01*
X47470000Y-20950000D02*
X47470000Y-24610000D01*
X64180000Y-5000000D02*
X70000000Y-5000000D01*
X47611434Y-10281434D02*
X47470000Y-10140000D01*
D17*
X41940000Y-31630000D02*
X42000000Y-31690000D01*
D18*
X61460000Y-13740000D02*
X61428000Y-13772000D01*
X27760000Y-10670000D02*
X28300000Y-10130000D01*
D17*
X12140000Y-35030000D02*
X11600000Y-34490000D01*
D18*
X47470000Y-24610000D02*
X47528795Y-24668795D01*
X61372000Y-24668000D02*
X61372000Y-28278000D01*
X47460000Y-10130000D02*
X47470000Y-10140000D01*
X47460000Y-32501494D02*
X47644253Y-32685747D01*
D17*
X39382254Y-29190000D02*
X34590000Y-24397746D01*
X42000000Y-31690000D02*
X46648506Y-31690000D01*
D18*
X47520000Y-36580000D02*
X47480000Y-36540000D01*
X47440000Y-13730000D02*
X47538676Y-13828676D01*
X47470000Y-40830000D02*
X47470000Y-36630000D01*
X47470000Y-20950000D02*
X47534909Y-20885091D01*
X61428000Y-13772000D02*
X61428000Y-17382000D01*
X61360000Y-33020000D02*
X61350000Y-33010000D01*
X47534909Y-17387869D02*
X47538676Y-17384102D01*
X47528795Y-28271205D02*
X47500000Y-28300000D01*
X47480000Y-36540000D02*
X47480000Y-32850000D01*
X61460000Y-7720000D02*
X64180000Y-5000000D01*
D17*
X11600000Y-29318447D02*
X13152157Y-27766290D01*
X34590000Y-24397746D02*
X34590000Y-23130000D01*
D18*
X65680000Y-45000000D02*
X70000000Y-45000000D01*
X61406000Y-17404000D02*
X61406000Y-21036000D01*
X47534909Y-20885091D02*
X47534909Y-17387869D01*
X61460000Y-10140000D02*
X61460000Y-13740000D01*
D17*
X42000000Y-31690000D02*
X42000000Y-33710000D01*
%TO.N,+3.3V*%
X37030000Y-33820000D02*
X36990000Y-33860000D01*
X36970000Y-37540000D02*
X36970000Y-33880000D01*
X37030000Y-31470000D02*
X37030000Y-29230000D01*
X17530000Y-27900000D02*
X35700000Y-27900000D01*
X13360000Y-32470000D02*
X13210000Y-32320000D01*
X37030000Y-31470000D02*
X37030000Y-33820000D01*
X17530000Y-27900000D02*
X16669471Y-28760529D01*
X13210000Y-28910529D02*
X13360000Y-28760529D01*
X16669471Y-28760529D02*
X13360000Y-28760529D01*
X35700000Y-27900000D02*
X37030000Y-29230000D01*
X13210000Y-32320000D02*
X13210000Y-28910529D01*
X36970000Y-33880000D02*
X36990000Y-33860000D01*
D18*
%TO.N,Net-(U2-COM)*%
X51860000Y-8090012D02*
X51910000Y-8040012D01*
X51860000Y-26980000D02*
X51860000Y-8090012D01*
X51860000Y-38990000D02*
X51860000Y-26980000D01*
D17*
%TO.N,Net-(U2-O1)*%
X41420000Y-17700000D02*
X44410000Y-20690000D01*
X44410000Y-20690000D02*
X45359984Y-20690000D01*
X41420000Y-13260000D02*
X41420000Y-17700000D01*
%TO.N,Net-(U2-O2)*%
X42530000Y-16320000D02*
X45390000Y-19180000D01*
X42530000Y-14370000D02*
X42530000Y-16320000D01*
X45390000Y-19180000D02*
X45930000Y-19180000D01*
%TO.N,Net-(U2-O3)*%
X46290000Y-15670000D02*
X46320000Y-15700000D01*
X43480000Y-15670000D02*
X46290000Y-15670000D01*
%TO.N,Net-(U2-O7)*%
X44310000Y-25507917D02*
X43607232Y-24805149D01*
X44310000Y-28340000D02*
X44310000Y-25507917D01*
X46360000Y-30507100D02*
X46360000Y-30390000D01*
X46360000Y-30390000D02*
X44310000Y-28340000D01*
%TO.N,Net-(U2-O5)*%
X45890000Y-12185058D02*
X46511434Y-11563624D01*
X45890000Y-13840000D02*
X45890000Y-12185058D01*
%TO.N,Net-(J1-Pin_1)*%
X15980000Y-34780000D02*
X15980000Y-31240000D01*
X17380000Y-39330000D02*
X17380000Y-36180000D01*
X17380000Y-36180000D02*
X15980000Y-34780000D01*
%TO.N,Net-(U1-GPA0)*%
X32525000Y-19595000D02*
X32525000Y-24365000D01*
X32525000Y-24365000D02*
X32534264Y-24374264D01*
%TD*%
%TA.AperFunction,Conductor*%
%TO.N,GND*%
G36*
X74942539Y-20185D02*
G01*
X74988294Y-72989D01*
X74999500Y-124500D01*
X74999500Y-2499500D01*
X74990024Y-49865991D01*
X74970326Y-49933026D01*
X74917513Y-49978771D01*
X74865991Y-49989966D01*
X124467Y-49970035D01*
X57433Y-49950333D01*
X11692Y-49897516D01*
X500Y-49846035D01*
X500Y-34350000D01*
X9694540Y-34350000D01*
X9714326Y-34538256D01*
X9714327Y-34538259D01*
X9772818Y-34718277D01*
X9772821Y-34718284D01*
X9799553Y-34764586D01*
X9832887Y-34822321D01*
X9849500Y-34884321D01*
X9849500Y-36225503D01*
X9848191Y-36243472D01*
X9844710Y-36267234D01*
X9849264Y-36319273D01*
X9849500Y-36324679D01*
X9849500Y-36332918D01*
X9853306Y-36365483D01*
X9860000Y-36442000D01*
X9861461Y-36449076D01*
X9861403Y-36449087D01*
X9863034Y-36456446D01*
X9863092Y-36456433D01*
X9864757Y-36463459D01*
X9891025Y-36535633D01*
X9915185Y-36608540D01*
X9918236Y-36615083D01*
X9918182Y-36615107D01*
X9921470Y-36621897D01*
X9921521Y-36621872D01*
X9924761Y-36628322D01*
X9924762Y-36628323D01*
X9924763Y-36628326D01*
X9966964Y-36692492D01*
X9966965Y-36692492D01*
X10007287Y-36757864D01*
X10011766Y-36763528D01*
X10011719Y-36763565D01*
X10016482Y-36769411D01*
X10016528Y-36769373D01*
X10021173Y-36774909D01*
X10077018Y-36827595D01*
X11073779Y-37824355D01*
X11104029Y-37873718D01*
X11159369Y-38044037D01*
X11159372Y-38044044D01*
X11219438Y-38148081D01*
X11236051Y-38210081D01*
X11236051Y-40982845D01*
X11234742Y-41000814D01*
X11231261Y-41024576D01*
X11235815Y-41076615D01*
X11236051Y-41082021D01*
X11236051Y-41090260D01*
X11239857Y-41122825D01*
X11246551Y-41199342D01*
X11248012Y-41206418D01*
X11247954Y-41206429D01*
X11249585Y-41213788D01*
X11249643Y-41213775D01*
X11251308Y-41220801D01*
X11277576Y-41292975D01*
X11301736Y-41365882D01*
X11304787Y-41372425D01*
X11304733Y-41372449D01*
X11308021Y-41379239D01*
X11308072Y-41379214D01*
X11311312Y-41385664D01*
X11311313Y-41385665D01*
X11311314Y-41385668D01*
X11353516Y-41449834D01*
X11393838Y-41515206D01*
X11398317Y-41520870D01*
X11398270Y-41520907D01*
X11403033Y-41526753D01*
X11403079Y-41526715D01*
X11407724Y-41532251D01*
X11463568Y-41584936D01*
X15184270Y-45305638D01*
X15196051Y-45319270D01*
X15210388Y-45338528D01*
X15250409Y-45372111D01*
X15254397Y-45375766D01*
X15260216Y-45381585D01*
X15260220Y-45381588D01*
X15260223Y-45381591D01*
X15285959Y-45401940D01*
X15344786Y-45451302D01*
X15344787Y-45451302D01*
X15344789Y-45451304D01*
X15350818Y-45455270D01*
X15350785Y-45455319D01*
X15357147Y-45459372D01*
X15357179Y-45459321D01*
X15363319Y-45463108D01*
X15363323Y-45463111D01*
X15398132Y-45479343D01*
X15432941Y-45495575D01*
X15501565Y-45530039D01*
X15501567Y-45530040D01*
X15501569Y-45530040D01*
X15508357Y-45532511D01*
X15508336Y-45532567D01*
X15515457Y-45535043D01*
X15515476Y-45534986D01*
X15522322Y-45537254D01*
X15522327Y-45537257D01*
X15522332Y-45537258D01*
X15522335Y-45537259D01*
X15597564Y-45552792D01*
X15597565Y-45552792D01*
X15672279Y-45570500D01*
X15672282Y-45570500D01*
X15672286Y-45570501D01*
X15679453Y-45571339D01*
X15679446Y-45571398D01*
X15686944Y-45572164D01*
X15686950Y-45572105D01*
X15694139Y-45572734D01*
X15694143Y-45572733D01*
X15694144Y-45572734D01*
X15770917Y-45570500D01*
X20640663Y-45570500D01*
X20707702Y-45590185D01*
X20713548Y-45594182D01*
X20727265Y-45604148D01*
X20727270Y-45604151D01*
X20900192Y-45681142D01*
X20900197Y-45681144D01*
X21085354Y-45720500D01*
X21085355Y-45720500D01*
X21274644Y-45720500D01*
X21274646Y-45720500D01*
X21459803Y-45681144D01*
X21632730Y-45604151D01*
X21785871Y-45492888D01*
X21912533Y-45352216D01*
X22007179Y-45188284D01*
X22065674Y-45008256D01*
X22085460Y-44820000D01*
X22065674Y-44631744D01*
X22007179Y-44451716D01*
X21912533Y-44287784D01*
X21785871Y-44147112D01*
X21785870Y-44147111D01*
X21632734Y-44035851D01*
X21632729Y-44035848D01*
X21459807Y-43958857D01*
X21459802Y-43958855D01*
X21314000Y-43927865D01*
X21274646Y-43919500D01*
X21085354Y-43919500D01*
X21052897Y-43926398D01*
X20900197Y-43958855D01*
X20900192Y-43958857D01*
X20727270Y-44035848D01*
X20727265Y-44035851D01*
X20713548Y-44045818D01*
X20647742Y-44069298D01*
X20640663Y-44069500D01*
X16122229Y-44069500D01*
X16055190Y-44049815D01*
X16034548Y-44033181D01*
X12773370Y-40772002D01*
X12739885Y-40710679D01*
X12737051Y-40684321D01*
X12737051Y-39468648D01*
X12737051Y-38210077D01*
X12753661Y-38148085D01*
X12813730Y-38044044D01*
X12872225Y-37864016D01*
X12892011Y-37675760D01*
X12872225Y-37487504D01*
X12813730Y-37307476D01*
X12719084Y-37143544D01*
X12592422Y-37002872D01*
X12592421Y-37002871D01*
X12439285Y-36891611D01*
X12439280Y-36891608D01*
X12266358Y-36814617D01*
X12266354Y-36814616D01*
X12201220Y-36800771D01*
X12139739Y-36767578D01*
X12139321Y-36767162D01*
X11386819Y-36014660D01*
X11353334Y-35953337D01*
X11350500Y-35926979D01*
X11350500Y-34884321D01*
X11367113Y-34822321D01*
X11391547Y-34780000D01*
X15074540Y-34780000D01*
X15094326Y-34968256D01*
X15094327Y-34968259D01*
X15152818Y-35148277D01*
X15152821Y-35148284D01*
X15247467Y-35312216D01*
X15374128Y-35452887D01*
X15374129Y-35452888D01*
X15527265Y-35564148D01*
X15527270Y-35564151D01*
X15700191Y-35641142D01*
X15700193Y-35641142D01*
X15700197Y-35641144D01*
X15765329Y-35654987D01*
X15826809Y-35688178D01*
X15827228Y-35688596D01*
X16593180Y-36454548D01*
X16626665Y-36515871D01*
X16629499Y-36542229D01*
X16629499Y-38795677D01*
X16612887Y-38857676D01*
X16552820Y-38961716D01*
X16511248Y-39089663D01*
X16494326Y-39141744D01*
X16474540Y-39330000D01*
X16494326Y-39518256D01*
X16494327Y-39518259D01*
X16552818Y-39698277D01*
X16552821Y-39698284D01*
X16647467Y-39862216D01*
X16757178Y-39984062D01*
X16774129Y-40002888D01*
X16927265Y-40114148D01*
X16927270Y-40114151D01*
X17100192Y-40191142D01*
X17100197Y-40191144D01*
X17285354Y-40230500D01*
X17285355Y-40230500D01*
X17474644Y-40230500D01*
X17474646Y-40230500D01*
X17659803Y-40191144D01*
X17832730Y-40114151D01*
X17985871Y-40002888D01*
X18112533Y-39862216D01*
X18207179Y-39698284D01*
X18265674Y-39518256D01*
X18285460Y-39330000D01*
X18265674Y-39141744D01*
X18216369Y-38990000D01*
X50854659Y-38990000D01*
X50859189Y-39035999D01*
X50859408Y-39038938D01*
X50859499Y-39040736D01*
X50859500Y-39040742D01*
X50864474Y-39089663D01*
X50869603Y-39141740D01*
X50873976Y-39186130D01*
X50874034Y-39186419D01*
X50874904Y-39192228D01*
X50874924Y-39192429D01*
X50874927Y-39192444D01*
X50903965Y-39284992D01*
X50931184Y-39374722D01*
X50933980Y-39381473D01*
X50935816Y-39386528D01*
X50935844Y-39386595D01*
X50981387Y-39468647D01*
X50981387Y-39468648D01*
X51024089Y-39548537D01*
X51027474Y-39553602D01*
X51027271Y-39553737D01*
X51034454Y-39564304D01*
X51034593Y-39564505D01*
X51093656Y-39633305D01*
X51149117Y-39700884D01*
X51149395Y-39701112D01*
X51164810Y-39716188D01*
X51167134Y-39718895D01*
X51167138Y-39718898D01*
X51167140Y-39718900D01*
X51194734Y-39740259D01*
X51236326Y-39772454D01*
X51301462Y-39825910D01*
X51304939Y-39827768D01*
X51322392Y-39839074D01*
X51328041Y-39843447D01*
X51328044Y-39843449D01*
X51403757Y-39880588D01*
X51475271Y-39918813D01*
X51475273Y-39918814D01*
X51482477Y-39920999D01*
X51501093Y-39928333D01*
X51510729Y-39933060D01*
X51589287Y-39953400D01*
X51663868Y-39976024D01*
X51672956Y-39976918D01*
X51674926Y-39977113D01*
X51693854Y-39980474D01*
X51707711Y-39984062D01*
X51707715Y-39984063D01*
X51784133Y-39987938D01*
X51787034Y-39988154D01*
X51860000Y-39995341D01*
X51874630Y-39993899D01*
X51893056Y-39993462D01*
X51910936Y-39994369D01*
X51983253Y-39983289D01*
X51986525Y-39982879D01*
X52056132Y-39976024D01*
X52073632Y-39970714D01*
X52090837Y-39966808D01*
X52112071Y-39963556D01*
X52177515Y-39939317D01*
X52181019Y-39938138D01*
X52244727Y-39918814D01*
X52267730Y-39906517D01*
X52275421Y-39903057D01*
X52302887Y-39892886D01*
X52302891Y-39892883D01*
X52302894Y-39892882D01*
X52359238Y-39857762D01*
X52362801Y-39855701D01*
X52418538Y-39825910D01*
X52441310Y-39807220D01*
X52447840Y-39802535D01*
X52475571Y-39785252D01*
X52521288Y-39741793D01*
X52524631Y-39738839D01*
X52570883Y-39700883D01*
X52591717Y-39675495D01*
X52596915Y-39669904D01*
X52623053Y-39645059D01*
X52657143Y-39596079D01*
X52660088Y-39592185D01*
X52695910Y-39548538D01*
X52712989Y-39516582D01*
X52716770Y-39510410D01*
X52739295Y-39478049D01*
X52761504Y-39426293D01*
X52763783Y-39421554D01*
X52788814Y-39374727D01*
X52800309Y-39336828D01*
X52802656Y-39330398D01*
X52819540Y-39291058D01*
X52830196Y-39239201D01*
X52831587Y-39233723D01*
X52846024Y-39186132D01*
X52850237Y-39143345D01*
X52851202Y-39136982D01*
X52860500Y-39091741D01*
X52860500Y-39042200D01*
X52860799Y-39036119D01*
X52865341Y-38989999D01*
X52860799Y-38943878D01*
X52860500Y-38937798D01*
X52860500Y-35000000D01*
X65669341Y-35000000D01*
X65689936Y-35235403D01*
X65689938Y-35235413D01*
X65751094Y-35463655D01*
X65751096Y-35463659D01*
X65751097Y-35463663D01*
X65797954Y-35564148D01*
X65850964Y-35677828D01*
X65850965Y-35677830D01*
X65986505Y-35871402D01*
X66133704Y-36018601D01*
X66167189Y-36079924D01*
X66162205Y-36149616D01*
X66120333Y-36205549D01*
X66111120Y-36211820D01*
X65956347Y-36307285D01*
X65956343Y-36307288D01*
X65832289Y-36431342D01*
X65740187Y-36580663D01*
X65740185Y-36580668D01*
X65726523Y-36621897D01*
X65685001Y-36747203D01*
X65685001Y-36747204D01*
X65685000Y-36747204D01*
X65674500Y-36849983D01*
X65674500Y-38150001D01*
X65674501Y-38150018D01*
X65685000Y-38252796D01*
X65685001Y-38252799D01*
X65708644Y-38324148D01*
X65740186Y-38419334D01*
X65832288Y-38568656D01*
X65956344Y-38692712D01*
X66105666Y-38784814D01*
X66272203Y-38839999D01*
X66374991Y-38850500D01*
X67925008Y-38850499D01*
X68027797Y-38839999D01*
X68194334Y-38784814D01*
X68343656Y-38692712D01*
X68467712Y-38568656D01*
X68559814Y-38419334D01*
X68614999Y-38252797D01*
X68625500Y-38150009D01*
X68625499Y-36849992D01*
X68614999Y-36747203D01*
X68559814Y-36580666D01*
X68467712Y-36431344D01*
X68343656Y-36307288D01*
X68240193Y-36243472D01*
X68188879Y-36211821D01*
X68142155Y-36159873D01*
X68130932Y-36090910D01*
X68158776Y-36026828D01*
X68166295Y-36018601D01*
X68231559Y-35953337D01*
X68313495Y-35871401D01*
X68449035Y-35677830D01*
X68548903Y-35463663D01*
X68610063Y-35235408D01*
X68630659Y-35000000D01*
X68610063Y-34764592D01*
X68548903Y-34536337D01*
X68449035Y-34322171D01*
X68449034Y-34322169D01*
X68313494Y-34128597D01*
X68146403Y-33961506D01*
X68090187Y-33922144D01*
X67989401Y-33851573D01*
X67945778Y-33796999D01*
X67938584Y-33727500D01*
X67970106Y-33665145D01*
X67989398Y-33648428D01*
X68146401Y-33538495D01*
X68313495Y-33371401D01*
X68449035Y-33177830D01*
X68548903Y-32963663D01*
X68610063Y-32735408D01*
X68630659Y-32500000D01*
X68610063Y-32264592D01*
X68548903Y-32036337D01*
X68449035Y-31822171D01*
X68449034Y-31822169D01*
X68313494Y-31628597D01*
X68146402Y-31461505D01*
X67952830Y-31325965D01*
X67952828Y-31325964D01*
X67845746Y-31276031D01*
X67738663Y-31226097D01*
X67738659Y-31226096D01*
X67738655Y-31226094D01*
X67510413Y-31164938D01*
X67510403Y-31164936D01*
X67333966Y-31149500D01*
X66966034Y-31149500D01*
X66789596Y-31164936D01*
X66789586Y-31164938D01*
X66561344Y-31226094D01*
X66561335Y-31226098D01*
X66347171Y-31325964D01*
X66347169Y-31325965D01*
X66153597Y-31461505D01*
X65986506Y-31628597D01*
X65986501Y-31628604D01*
X65850967Y-31822165D01*
X65850965Y-31822169D01*
X65751098Y-32036335D01*
X65751094Y-32036344D01*
X65689938Y-32264586D01*
X65689936Y-32264596D01*
X65669341Y-32499999D01*
X65669341Y-32500000D01*
X65689936Y-32735403D01*
X65689938Y-32735413D01*
X65751094Y-32963655D01*
X65751096Y-32963659D01*
X65751097Y-32963663D01*
X65769074Y-33002214D01*
X65850964Y-33177828D01*
X65850965Y-33177830D01*
X65986505Y-33371402D01*
X66153597Y-33538494D01*
X66310595Y-33648425D01*
X66354220Y-33703002D01*
X66361414Y-33772500D01*
X66329891Y-33834855D01*
X66310595Y-33851575D01*
X66153597Y-33961505D01*
X65986506Y-34128597D01*
X65986501Y-34128604D01*
X65850967Y-34322165D01*
X65850965Y-34322169D01*
X65751098Y-34536335D01*
X65751094Y-34536344D01*
X65689938Y-34764586D01*
X65689936Y-34764596D01*
X65669341Y-34999999D01*
X65669341Y-35000000D01*
X52860500Y-35000000D01*
X52860500Y-27032200D01*
X52860799Y-27026119D01*
X52865341Y-26979999D01*
X52860799Y-26933878D01*
X52860500Y-26927798D01*
X52860500Y-22500000D01*
X65669341Y-22500000D01*
X65689936Y-22735403D01*
X65689938Y-22735413D01*
X65751094Y-22963655D01*
X65751096Y-22963659D01*
X65751097Y-22963663D01*
X65801030Y-23070745D01*
X65850964Y-23177828D01*
X65850965Y-23177830D01*
X65986505Y-23371402D01*
X66133704Y-23518601D01*
X66167189Y-23579924D01*
X66162205Y-23649616D01*
X66120333Y-23705549D01*
X66111120Y-23711820D01*
X65956347Y-23807285D01*
X65956343Y-23807288D01*
X65832289Y-23931342D01*
X65740187Y-24080663D01*
X65740185Y-24080666D01*
X65740186Y-24080666D01*
X65685001Y-24247203D01*
X65685001Y-24247204D01*
X65685000Y-24247204D01*
X65674500Y-24349983D01*
X65674500Y-25650001D01*
X65674501Y-25650018D01*
X65685000Y-25752796D01*
X65685001Y-25752799D01*
X65694832Y-25782466D01*
X65740186Y-25919334D01*
X65832288Y-26068656D01*
X65956344Y-26192712D01*
X66105666Y-26284814D01*
X66272203Y-26339999D01*
X66374991Y-26350500D01*
X67925008Y-26350499D01*
X68027797Y-26339999D01*
X68194334Y-26284814D01*
X68343656Y-26192712D01*
X68467712Y-26068656D01*
X68559814Y-25919334D01*
X68614999Y-25752797D01*
X68625500Y-25650009D01*
X68625499Y-24349992D01*
X68614999Y-24247203D01*
X68559814Y-24080666D01*
X68467712Y-23931344D01*
X68343656Y-23807288D01*
X68262658Y-23757328D01*
X68188879Y-23711821D01*
X68142155Y-23659873D01*
X68130932Y-23590910D01*
X68158776Y-23526828D01*
X68166295Y-23518601D01*
X68166295Y-23518600D01*
X68313495Y-23371401D01*
X68449035Y-23177830D01*
X68548903Y-22963663D01*
X68610063Y-22735408D01*
X68630659Y-22500000D01*
X68610063Y-22264592D01*
X68548903Y-22036337D01*
X68449035Y-21822171D01*
X68449034Y-21822169D01*
X68313494Y-21628597D01*
X68146403Y-21461506D01*
X68068926Y-21407257D01*
X67989401Y-21351573D01*
X67945778Y-21296999D01*
X67938584Y-21227500D01*
X67970106Y-21165145D01*
X67989398Y-21148428D01*
X68146401Y-21038495D01*
X68313495Y-20871401D01*
X68449035Y-20677830D01*
X68548903Y-20463663D01*
X68610063Y-20235408D01*
X68630659Y-20000000D01*
X68610063Y-19764592D01*
X68548903Y-19536337D01*
X68449035Y-19322171D01*
X68449034Y-19322169D01*
X68313494Y-19128597D01*
X68146402Y-18961505D01*
X67989403Y-18851574D01*
X67945778Y-18796997D01*
X67938584Y-18727499D01*
X67970107Y-18665144D01*
X67989391Y-18648433D01*
X68146401Y-18538495D01*
X68313495Y-18371401D01*
X68449035Y-18177830D01*
X68548903Y-17963663D01*
X68610063Y-17735408D01*
X68630659Y-17500000D01*
X68610063Y-17264592D01*
X68548903Y-17036337D01*
X68449035Y-16822171D01*
X68449034Y-16822169D01*
X68313494Y-16628597D01*
X68146403Y-16461506D01*
X68019842Y-16372888D01*
X67989401Y-16351573D01*
X67945778Y-16296999D01*
X67938584Y-16227500D01*
X67970106Y-16165145D01*
X67989398Y-16148428D01*
X68146401Y-16038495D01*
X68313495Y-15871401D01*
X68449035Y-15677830D01*
X68548903Y-15463663D01*
X68610063Y-15235408D01*
X68630659Y-15000000D01*
X68610063Y-14764592D01*
X68548903Y-14536337D01*
X68449035Y-14322171D01*
X68449034Y-14322169D01*
X68313494Y-14128597D01*
X68146402Y-13961505D01*
X67989403Y-13851574D01*
X67945778Y-13796997D01*
X67938584Y-13727499D01*
X67970107Y-13665144D01*
X67989391Y-13648433D01*
X68146401Y-13538495D01*
X68313495Y-13371401D01*
X68449035Y-13177830D01*
X68548903Y-12963663D01*
X68610063Y-12735408D01*
X68630659Y-12500000D01*
X68630302Y-12495925D01*
X68621810Y-12398855D01*
X68610063Y-12264592D01*
X68548903Y-12036337D01*
X68449035Y-11822171D01*
X68449034Y-11822169D01*
X68313494Y-11628597D01*
X68146402Y-11461505D01*
X67952830Y-11325965D01*
X67952828Y-11325964D01*
X67845745Y-11276030D01*
X67738663Y-11226097D01*
X67738659Y-11226096D01*
X67738655Y-11226094D01*
X67510413Y-11164938D01*
X67510403Y-11164936D01*
X67333966Y-11149500D01*
X66966034Y-11149500D01*
X66789596Y-11164936D01*
X66789586Y-11164938D01*
X66561344Y-11226094D01*
X66561335Y-11226098D01*
X66347171Y-11325964D01*
X66347169Y-11325965D01*
X66153597Y-11461505D01*
X65986506Y-11628597D01*
X65986501Y-11628604D01*
X65850967Y-11822165D01*
X65850965Y-11822169D01*
X65751098Y-12036335D01*
X65751094Y-12036344D01*
X65689938Y-12264586D01*
X65689936Y-12264596D01*
X65669341Y-12499999D01*
X65669341Y-12500000D01*
X65689936Y-12735403D01*
X65689938Y-12735413D01*
X65751094Y-12963655D01*
X65751096Y-12963659D01*
X65751097Y-12963663D01*
X65801030Y-13070745D01*
X65850964Y-13177828D01*
X65850965Y-13177830D01*
X65986505Y-13371402D01*
X66153596Y-13538493D01*
X66153599Y-13538495D01*
X66310593Y-13648423D01*
X66310595Y-13648424D01*
X66354220Y-13703000D01*
X66361414Y-13772499D01*
X66329891Y-13834854D01*
X66310596Y-13851574D01*
X66153594Y-13961508D01*
X65986506Y-14128597D01*
X65986501Y-14128604D01*
X65850967Y-14322165D01*
X65850965Y-14322169D01*
X65751098Y-14536335D01*
X65751094Y-14536344D01*
X65689938Y-14764586D01*
X65689936Y-14764596D01*
X65669341Y-14999999D01*
X65669341Y-15000000D01*
X65689936Y-15235403D01*
X65689938Y-15235413D01*
X65751094Y-15463655D01*
X65751096Y-15463659D01*
X65751097Y-15463663D01*
X65773516Y-15511740D01*
X65850964Y-15677828D01*
X65850965Y-15677830D01*
X65986505Y-15871402D01*
X66153596Y-16038493D01*
X66153599Y-16038495D01*
X66288155Y-16132712D01*
X66310595Y-16148424D01*
X66354220Y-16203000D01*
X66361414Y-16272499D01*
X66329891Y-16334854D01*
X66310596Y-16351574D01*
X66153594Y-16461508D01*
X65986506Y-16628597D01*
X65986501Y-16628604D01*
X65850967Y-16822165D01*
X65850965Y-16822169D01*
X65751098Y-17036335D01*
X65751094Y-17036344D01*
X65689938Y-17264586D01*
X65689936Y-17264596D01*
X65669341Y-17499999D01*
X65669341Y-17500000D01*
X65689936Y-17735403D01*
X65689938Y-17735413D01*
X65751094Y-17963655D01*
X65751096Y-17963659D01*
X65751097Y-17963663D01*
X65783284Y-18032688D01*
X65850964Y-18177828D01*
X65850965Y-18177830D01*
X65986505Y-18371402D01*
X66153597Y-18538494D01*
X66310595Y-18648425D01*
X66354220Y-18703002D01*
X66361414Y-18772500D01*
X66329891Y-18834855D01*
X66310595Y-18851575D01*
X66153597Y-18961505D01*
X65986506Y-19128597D01*
X65986501Y-19128604D01*
X65850967Y-19322165D01*
X65850965Y-19322169D01*
X65751098Y-19536335D01*
X65751094Y-19536344D01*
X65689938Y-19764586D01*
X65689936Y-19764596D01*
X65669341Y-19999999D01*
X65669341Y-20000000D01*
X65689936Y-20235403D01*
X65689938Y-20235413D01*
X65751094Y-20463655D01*
X65751096Y-20463659D01*
X65751097Y-20463663D01*
X65768853Y-20501740D01*
X65850964Y-20677828D01*
X65850965Y-20677830D01*
X65986505Y-20871402D01*
X66153597Y-21038494D01*
X66310595Y-21148425D01*
X66354220Y-21203002D01*
X66361414Y-21272500D01*
X66329891Y-21334855D01*
X66310595Y-21351575D01*
X66153597Y-21461505D01*
X65986506Y-21628597D01*
X65986501Y-21628604D01*
X65850967Y-21822165D01*
X65850965Y-21822169D01*
X65751098Y-22036335D01*
X65751094Y-22036344D01*
X65689938Y-22264586D01*
X65689936Y-22264596D01*
X65669341Y-22499999D01*
X65669341Y-22500000D01*
X52860500Y-22500000D01*
X52860500Y-8372469D01*
X52865283Y-8338360D01*
X52869724Y-8322839D01*
X52896023Y-8236147D01*
X52897212Y-8230171D01*
X52897451Y-8230218D01*
X52899843Y-8217674D01*
X52899884Y-8217439D01*
X52899887Y-8217430D01*
X52906771Y-8127023D01*
X52915341Y-8040012D01*
X52915306Y-8039666D01*
X52915067Y-8018076D01*
X52915337Y-8014535D01*
X52904284Y-7927748D01*
X52896024Y-7843880D01*
X52894879Y-7840105D01*
X52890532Y-7819770D01*
X52889630Y-7812684D01*
X52881519Y-7788954D01*
X52862356Y-7732889D01*
X52841032Y-7662596D01*
X52838814Y-7655285D01*
X52835261Y-7648637D01*
X52827288Y-7630298D01*
X52823816Y-7620140D01*
X52782644Y-7550198D01*
X52745910Y-7481474D01*
X52738863Y-7472887D01*
X52727857Y-7457128D01*
X52720592Y-7444787D01*
X52720590Y-7444784D01*
X52669293Y-7388006D01*
X52667372Y-7385775D01*
X52650268Y-7364934D01*
X52620883Y-7329129D01*
X52620881Y-7329127D01*
X52620880Y-7329126D01*
X52616300Y-7325368D01*
X52609522Y-7319805D01*
X52596189Y-7307091D01*
X52584179Y-7293798D01*
X52525218Y-7250503D01*
X52522585Y-7248457D01*
X52468539Y-7204103D01*
X52468538Y-7204102D01*
X52452413Y-7195483D01*
X52437478Y-7186074D01*
X52420172Y-7173366D01*
X52420163Y-7173360D01*
X52356767Y-7144231D01*
X52353426Y-7142573D01*
X52332672Y-7131480D01*
X52294727Y-7111198D01*
X52294724Y-7111197D01*
X52269773Y-7103628D01*
X52261876Y-7100632D01*
X52235271Y-7088407D01*
X52235264Y-7088405D01*
X52170588Y-7073396D01*
X52166606Y-7072331D01*
X52106135Y-7053988D01*
X52106128Y-7053987D01*
X52076820Y-7051100D01*
X52068876Y-7049793D01*
X52037050Y-7042408D01*
X52037052Y-7042408D01*
X51974030Y-7040811D01*
X51969524Y-7040532D01*
X51910002Y-7034671D01*
X51909995Y-7034671D01*
X51877320Y-7037888D01*
X51869670Y-7038167D01*
X51833639Y-7037255D01*
X51833627Y-7037255D01*
X51774918Y-7047778D01*
X51770057Y-7048452D01*
X51713871Y-7053987D01*
X51713865Y-7053988D01*
X51679207Y-7064501D01*
X51672147Y-7066198D01*
X51633350Y-7073153D01*
X51633343Y-7073155D01*
X51581077Y-7094032D01*
X51576076Y-7095786D01*
X51525273Y-7111197D01*
X51490361Y-7129858D01*
X51484131Y-7132756D01*
X51444384Y-7148633D01*
X51400191Y-7177758D01*
X51395299Y-7180669D01*
X51351461Y-7204102D01*
X51318246Y-7231361D01*
X51313029Y-7235204D01*
X51274485Y-7260607D01*
X51274483Y-7260608D01*
X51239449Y-7295641D01*
X51234941Y-7299727D01*
X51199116Y-7329128D01*
X51169730Y-7364934D01*
X51165669Y-7369418D01*
X51162381Y-7372710D01*
X51161538Y-7373552D01*
X51096946Y-7434954D01*
X51061899Y-7485306D01*
X51059062Y-7489068D01*
X51020302Y-7536604D01*
X51020299Y-7536609D01*
X51004392Y-7567059D01*
X51000324Y-7573773D01*
X50980702Y-7601966D01*
X50956509Y-7658342D01*
X50954488Y-7662596D01*
X50926091Y-7716963D01*
X50926090Y-7716964D01*
X50916640Y-7749987D01*
X50914007Y-7757383D01*
X50900459Y-7788955D01*
X50888113Y-7849031D01*
X50886990Y-7853607D01*
X50870113Y-7912589D01*
X50870113Y-7912591D01*
X50867503Y-7946853D01*
X50866414Y-7954620D01*
X50860980Y-7981064D01*
X50859500Y-7988270D01*
X50859500Y-8049609D01*
X50859321Y-8054318D01*
X50854662Y-8115486D01*
X50856132Y-8127023D01*
X50859003Y-8149572D01*
X50859500Y-8157400D01*
X50859500Y-26927798D01*
X50859201Y-26933878D01*
X50854659Y-26979999D01*
X50859201Y-27026119D01*
X50859500Y-27032200D01*
X50859500Y-38937798D01*
X50859201Y-38943878D01*
X50854659Y-38989999D01*
X50854659Y-38990000D01*
X18216369Y-38990000D01*
X18207179Y-38961716D01*
X18207178Y-38961714D01*
X18147113Y-38857677D01*
X18130500Y-38795677D01*
X18130500Y-36243705D01*
X18131809Y-36225735D01*
X18133847Y-36211820D01*
X18135289Y-36201977D01*
X18130735Y-36149931D01*
X18130500Y-36144528D01*
X18130500Y-36136297D01*
X18130500Y-36136291D01*
X18126693Y-36103724D01*
X18119999Y-36027203D01*
X18119999Y-36027201D01*
X18118539Y-36020129D01*
X18118597Y-36020116D01*
X18116965Y-36012757D01*
X18116906Y-36012772D01*
X18115241Y-36005751D01*
X18115241Y-36005745D01*
X18105267Y-35978341D01*
X18088974Y-35933575D01*
X18064813Y-35860663D01*
X18061764Y-35854124D01*
X18061817Y-35854099D01*
X18058531Y-35847311D01*
X18058479Y-35847338D01*
X18055236Y-35840882D01*
X18013034Y-35776716D01*
X17972714Y-35711347D01*
X17968234Y-35705681D01*
X17968280Y-35705643D01*
X17963519Y-35699799D01*
X17963474Y-35699838D01*
X17958834Y-35694308D01*
X17902982Y-35641613D01*
X16892770Y-34631402D01*
X16862521Y-34582041D01*
X16807179Y-34411716D01*
X16795921Y-34392216D01*
X16747113Y-34307677D01*
X16730500Y-34245677D01*
X16730500Y-31774321D01*
X16747113Y-31712321D01*
X16807179Y-31608284D01*
X16865674Y-31428256D01*
X16885460Y-31240000D01*
X16865674Y-31051744D01*
X16807179Y-30871716D01*
X16712533Y-30707784D01*
X16585871Y-30567112D01*
X16585870Y-30567111D01*
X16432734Y-30455851D01*
X16432729Y-30455848D01*
X16259807Y-30378857D01*
X16259802Y-30378855D01*
X16114001Y-30347865D01*
X16074646Y-30339500D01*
X15885354Y-30339500D01*
X15852897Y-30346398D01*
X15700197Y-30378855D01*
X15700192Y-30378857D01*
X15527270Y-30455848D01*
X15527265Y-30455851D01*
X15374129Y-30567111D01*
X15247466Y-30707785D01*
X15152821Y-30871715D01*
X15152818Y-30871722D01*
X15098364Y-31039316D01*
X15094326Y-31051744D01*
X15074540Y-31240000D01*
X15094326Y-31428256D01*
X15094327Y-31428259D01*
X15152818Y-31608277D01*
X15152821Y-31608284D01*
X15212887Y-31712321D01*
X15229500Y-31774321D01*
X15229499Y-34245677D01*
X15212887Y-34307676D01*
X15152820Y-34411716D01*
X15111705Y-34538256D01*
X15094326Y-34591744D01*
X15074540Y-34780000D01*
X11391547Y-34780000D01*
X11427179Y-34718284D01*
X11485674Y-34538256D01*
X11505460Y-34350000D01*
X11485674Y-34161744D01*
X11427179Y-33981716D01*
X11332533Y-33817784D01*
X11205871Y-33677112D01*
X11166387Y-33648425D01*
X11052734Y-33565851D01*
X11052729Y-33565848D01*
X10879807Y-33488857D01*
X10879802Y-33488855D01*
X10729729Y-33456957D01*
X10694646Y-33449500D01*
X10505354Y-33449500D01*
X10472897Y-33456398D01*
X10320197Y-33488855D01*
X10320192Y-33488857D01*
X10147270Y-33565848D01*
X10147265Y-33565851D01*
X9994129Y-33677111D01*
X9867466Y-33817785D01*
X9772821Y-33981715D01*
X9772818Y-33981722D01*
X9714327Y-34161740D01*
X9714326Y-34161744D01*
X9694540Y-34350000D01*
X500Y-34350000D01*
X500Y-32470000D01*
X12454540Y-32470000D01*
X12474326Y-32658256D01*
X12474327Y-32658259D01*
X12532818Y-32838277D01*
X12532821Y-32838284D01*
X12627467Y-33002216D01*
X12754128Y-33142888D01*
X12754129Y-33142888D01*
X12907265Y-33254148D01*
X12907270Y-33254151D01*
X13080192Y-33331142D01*
X13080197Y-33331144D01*
X13265354Y-33370500D01*
X13265355Y-33370500D01*
X13454644Y-33370500D01*
X13454646Y-33370500D01*
X13639803Y-33331144D01*
X13812730Y-33254151D01*
X13965871Y-33142888D01*
X14092533Y-33002216D01*
X14187179Y-32838284D01*
X14245674Y-32658256D01*
X14265460Y-32470000D01*
X14245674Y-32281744D01*
X14187179Y-32101716D01*
X14092533Y-31937784D01*
X14002943Y-31838284D01*
X13992350Y-31826519D01*
X13962120Y-31763527D01*
X13960500Y-31743547D01*
X13960500Y-29635029D01*
X13980185Y-29567990D01*
X14032989Y-29522235D01*
X14084500Y-29511029D01*
X16605766Y-29511029D01*
X16623736Y-29512338D01*
X16647494Y-29515818D01*
X16699539Y-29511264D01*
X16704941Y-29511029D01*
X16713175Y-29511029D01*
X16713180Y-29511029D01*
X16724798Y-29509670D01*
X16745747Y-29507222D01*
X16758499Y-29506106D01*
X16822268Y-29500528D01*
X16822276Y-29500525D01*
X16829337Y-29499068D01*
X16829349Y-29499127D01*
X16836714Y-29497494D01*
X16836700Y-29497435D01*
X16843717Y-29495770D01*
X16843726Y-29495770D01*
X16915894Y-29469503D01*
X16988805Y-29445343D01*
X16988814Y-29445336D01*
X16995353Y-29442289D01*
X16995379Y-29442345D01*
X17002161Y-29439061D01*
X17002134Y-29439007D01*
X17008577Y-29435769D01*
X17008588Y-29435766D01*
X17072754Y-29393563D01*
X17138127Y-29353241D01*
X17138133Y-29353234D01*
X17143796Y-29348758D01*
X17143834Y-29348806D01*
X17149671Y-29344051D01*
X17149632Y-29344004D01*
X17155167Y-29339359D01*
X17207856Y-29283512D01*
X17449627Y-29041740D01*
X17682771Y-28808595D01*
X17744092Y-28775112D01*
X17744448Y-28775034D01*
X17809803Y-28761144D01*
X17982730Y-28684151D01*
X17989659Y-28679117D01*
X17996452Y-28674182D01*
X18062258Y-28650702D01*
X18069337Y-28650500D01*
X35337770Y-28650500D01*
X35404809Y-28670185D01*
X35425451Y-28686819D01*
X36117228Y-29378596D01*
X36147478Y-29427958D01*
X36202819Y-29598280D01*
X36202821Y-29598284D01*
X36262887Y-29702321D01*
X36279500Y-29764321D01*
X36279500Y-30935677D01*
X36262887Y-30997677D01*
X36202821Y-31101714D01*
X36144327Y-31281740D01*
X36144326Y-31281744D01*
X36124540Y-31470000D01*
X36144326Y-31658256D01*
X36144327Y-31658259D01*
X36202818Y-31838277D01*
X36202821Y-31838284D01*
X36260267Y-31937784D01*
X36262887Y-31942321D01*
X36279500Y-32004321D01*
X36279500Y-33257168D01*
X36260460Y-33322009D01*
X36260716Y-33322157D01*
X36260107Y-33323211D01*
X36259815Y-33324207D01*
X36257997Y-33326865D01*
X36162821Y-33491715D01*
X36162818Y-33491722D01*
X36106470Y-33665145D01*
X36104326Y-33671744D01*
X36084540Y-33860000D01*
X36104326Y-34048256D01*
X36104327Y-34048259D01*
X36162818Y-34228277D01*
X36162821Y-34228284D01*
X36202887Y-34297680D01*
X36219500Y-34359680D01*
X36219500Y-37005677D01*
X36202887Y-37067677D01*
X36142821Y-37171714D01*
X36084327Y-37351740D01*
X36084326Y-37351744D01*
X36064540Y-37540000D01*
X36084326Y-37728256D01*
X36084327Y-37728259D01*
X36142818Y-37908277D01*
X36142821Y-37908284D01*
X36237467Y-38072216D01*
X36331686Y-38176856D01*
X36364129Y-38212888D01*
X36517265Y-38324148D01*
X36517270Y-38324151D01*
X36690192Y-38401142D01*
X36690197Y-38401144D01*
X36875354Y-38440500D01*
X36875355Y-38440500D01*
X37064644Y-38440500D01*
X37064646Y-38440500D01*
X37249803Y-38401144D01*
X37422730Y-38324151D01*
X37575871Y-38212888D01*
X37702533Y-38072216D01*
X37797179Y-37908284D01*
X37855674Y-37728256D01*
X37875460Y-37540000D01*
X37855674Y-37351744D01*
X37797179Y-37171716D01*
X37737113Y-37067677D01*
X37720500Y-37005677D01*
X37720500Y-34428962D01*
X37737113Y-34366962D01*
X37817179Y-34228284D01*
X37875674Y-34048256D01*
X37895460Y-33860000D01*
X37875674Y-33671744D01*
X37817179Y-33491716D01*
X37817178Y-33491714D01*
X37797112Y-33456957D01*
X37780500Y-33394959D01*
X37780500Y-32004321D01*
X37797113Y-31942321D01*
X37799732Y-31937785D01*
X37857179Y-31838284D01*
X37915674Y-31658256D01*
X37935460Y-31470000D01*
X37915674Y-31281744D01*
X37857179Y-31101716D01*
X37821153Y-31039316D01*
X37797113Y-30997677D01*
X37780500Y-30935677D01*
X37780500Y-29764321D01*
X37797113Y-29702321D01*
X37812270Y-29676068D01*
X37857179Y-29598284D01*
X37915674Y-29418256D01*
X37935460Y-29230000D01*
X37915674Y-29041744D01*
X37857179Y-28861716D01*
X37762533Y-28697784D01*
X37635871Y-28557112D01*
X37635870Y-28557111D01*
X37482734Y-28445851D01*
X37482729Y-28445848D01*
X37309807Y-28368857D01*
X37309803Y-28368856D01*
X37244669Y-28355011D01*
X37183188Y-28321818D01*
X37182770Y-28321402D01*
X36275729Y-27414361D01*
X36263949Y-27400730D01*
X36256482Y-27390701D01*
X36249612Y-27381472D01*
X36249610Y-27381470D01*
X36209587Y-27347886D01*
X36205612Y-27344244D01*
X36202690Y-27341322D01*
X36199780Y-27338411D01*
X36174040Y-27318059D01*
X36115209Y-27268694D01*
X36109180Y-27264729D01*
X36109212Y-27264680D01*
X36102853Y-27260628D01*
X36102822Y-27260679D01*
X36096680Y-27256891D01*
X36096678Y-27256890D01*
X36096677Y-27256889D01*
X36057474Y-27238608D01*
X36027058Y-27224424D01*
X35992894Y-27207267D01*
X35958433Y-27189960D01*
X35958431Y-27189959D01*
X35958430Y-27189959D01*
X35951645Y-27187489D01*
X35951665Y-27187433D01*
X35944549Y-27184959D01*
X35944531Y-27185015D01*
X35937671Y-27182742D01*
X35909841Y-27176996D01*
X35862434Y-27167207D01*
X35813472Y-27155603D01*
X35787719Y-27149499D01*
X35780547Y-27148661D01*
X35780553Y-27148601D01*
X35773055Y-27147835D01*
X35773050Y-27147895D01*
X35765860Y-27147265D01*
X35689083Y-27149500D01*
X18069337Y-27149500D01*
X18002298Y-27129815D01*
X17996452Y-27125818D01*
X17982734Y-27115851D01*
X17982729Y-27115848D01*
X17809807Y-27038857D01*
X17809802Y-27038855D01*
X17664000Y-27007865D01*
X17624646Y-26999500D01*
X17435354Y-26999500D01*
X17402897Y-27006398D01*
X17250197Y-27038855D01*
X17250192Y-27038857D01*
X17077270Y-27115848D01*
X17077265Y-27115851D01*
X16924129Y-27227111D01*
X16797466Y-27367785D01*
X16702821Y-27531715D01*
X16702818Y-27531722D01*
X16647479Y-27702039D01*
X16617229Y-27751402D01*
X16394922Y-27973710D01*
X16333599Y-28007195D01*
X16307241Y-28010029D01*
X13899337Y-28010029D01*
X13832298Y-27990344D01*
X13826452Y-27986347D01*
X13812734Y-27976380D01*
X13812729Y-27976377D01*
X13639807Y-27899386D01*
X13639802Y-27899384D01*
X13494001Y-27868394D01*
X13454646Y-27860029D01*
X13265354Y-27860029D01*
X13232897Y-27866927D01*
X13080197Y-27899384D01*
X13080192Y-27899386D01*
X12907270Y-27976377D01*
X12907265Y-27976380D01*
X12754129Y-28087640D01*
X12627466Y-28228314D01*
X12532821Y-28392244D01*
X12532818Y-28392251D01*
X12493177Y-28514255D01*
X12474326Y-28572273D01*
X12456353Y-28743283D01*
X12454540Y-28760530D01*
X12458896Y-28801983D01*
X12458823Y-28815589D01*
X12459500Y-28815589D01*
X12459500Y-28821184D01*
X12458753Y-28828487D01*
X12458750Y-28829220D01*
X12458675Y-28829867D01*
X12458613Y-28829859D01*
X12457835Y-28837474D01*
X12457895Y-28837480D01*
X12457265Y-28844669D01*
X12459500Y-28921445D01*
X12459500Y-32256294D01*
X12458191Y-32274263D01*
X12454710Y-32298025D01*
X12459264Y-32350064D01*
X12459500Y-32355470D01*
X12459500Y-32363720D01*
X12461172Y-32378024D01*
X12461331Y-32405374D01*
X12454540Y-32469998D01*
X12454540Y-32470000D01*
X500Y-32470000D01*
X500Y-19595000D01*
X31619540Y-19595000D01*
X31639326Y-19783256D01*
X31639327Y-19783259D01*
X31697818Y-19963277D01*
X31697820Y-19963281D01*
X31697821Y-19963284D01*
X31719019Y-20000000D01*
X31757887Y-20067322D01*
X31774499Y-20129321D01*
X31774500Y-23855987D01*
X31757887Y-23917987D01*
X31707085Y-24005978D01*
X31648591Y-24186004D01*
X31648590Y-24186008D01*
X31628804Y-24374264D01*
X31648590Y-24562520D01*
X31648591Y-24562523D01*
X31707082Y-24742541D01*
X31707085Y-24742548D01*
X31801731Y-24906480D01*
X31858502Y-24969530D01*
X31928393Y-25047152D01*
X32081529Y-25158412D01*
X32081534Y-25158415D01*
X32254456Y-25235406D01*
X32254461Y-25235408D01*
X32439618Y-25274764D01*
X32439619Y-25274764D01*
X32628908Y-25274764D01*
X32628910Y-25274764D01*
X32814067Y-25235408D01*
X32986994Y-25158415D01*
X33140135Y-25047152D01*
X33266797Y-24906480D01*
X33325300Y-24805149D01*
X42701772Y-24805149D01*
X42721558Y-24993405D01*
X42721559Y-24993408D01*
X42780050Y-25173426D01*
X42780053Y-25173433D01*
X42874699Y-25337365D01*
X42890686Y-25355120D01*
X43001361Y-25478037D01*
X43154497Y-25589297D01*
X43154502Y-25589300D01*
X43327423Y-25666291D01*
X43327425Y-25666291D01*
X43327429Y-25666293D01*
X43392561Y-25680136D01*
X43454041Y-25713327D01*
X43454460Y-25713745D01*
X43523181Y-25782466D01*
X43556666Y-25843789D01*
X43559500Y-25870147D01*
X43559500Y-28276294D01*
X43558191Y-28294263D01*
X43554710Y-28318025D01*
X43559264Y-28370064D01*
X43559500Y-28375470D01*
X43559500Y-28383709D01*
X43560497Y-28392244D01*
X43563306Y-28416274D01*
X43570000Y-28492791D01*
X43571461Y-28499867D01*
X43571403Y-28499878D01*
X43573034Y-28507237D01*
X43573092Y-28507224D01*
X43574757Y-28514250D01*
X43601025Y-28586424D01*
X43625185Y-28659331D01*
X43628236Y-28665874D01*
X43628182Y-28665898D01*
X43631470Y-28672688D01*
X43631521Y-28672663D01*
X43634761Y-28679113D01*
X43634762Y-28679114D01*
X43634763Y-28679117D01*
X43647041Y-28697785D01*
X43676965Y-28743283D01*
X43717287Y-28808655D01*
X43721766Y-28814319D01*
X43721719Y-28814356D01*
X43726482Y-28820202D01*
X43726528Y-28820164D01*
X43731173Y-28825700D01*
X43787017Y-28878385D01*
X45428047Y-30519415D01*
X45461532Y-30580738D01*
X45463687Y-30594134D01*
X45474326Y-30695357D01*
X45474327Y-30695360D01*
X45532818Y-30875377D01*
X45532821Y-30875384D01*
X45627467Y-31039316D01*
X45740576Y-31164936D01*
X45754129Y-31179988D01*
X45907265Y-31291248D01*
X45907270Y-31291251D01*
X46080192Y-31368242D01*
X46080197Y-31368244D01*
X46265354Y-31407600D01*
X46265355Y-31407600D01*
X46454644Y-31407600D01*
X46454646Y-31407600D01*
X46639803Y-31368244D01*
X46812730Y-31291251D01*
X46965871Y-31179988D01*
X47092533Y-31039316D01*
X47187179Y-30875384D01*
X47245674Y-30695356D01*
X47265460Y-30507100D01*
X47245674Y-30318844D01*
X47187179Y-30138816D01*
X47092533Y-29974884D01*
X46965871Y-29834212D01*
X46965870Y-29834211D01*
X46812734Y-29722951D01*
X46812729Y-29722948D01*
X46728429Y-29685415D01*
X46691184Y-29659817D01*
X45096819Y-28065451D01*
X45063334Y-28004128D01*
X45060500Y-27977770D01*
X45060500Y-26878258D01*
X45060500Y-25571608D01*
X45061808Y-25553655D01*
X45065289Y-25529894D01*
X45060735Y-25477848D01*
X45060500Y-25472445D01*
X45060500Y-25464214D01*
X45060500Y-25464208D01*
X45056693Y-25431641D01*
X45049999Y-25355120D01*
X45049999Y-25355118D01*
X45048539Y-25348046D01*
X45048597Y-25348033D01*
X45046965Y-25340674D01*
X45046906Y-25340689D01*
X45045241Y-25333668D01*
X45045241Y-25333662D01*
X45018974Y-25261493D01*
X44994814Y-25188583D01*
X44994813Y-25188582D01*
X44994813Y-25188580D01*
X44991764Y-25182041D01*
X44991817Y-25182016D01*
X44988531Y-25175228D01*
X44988479Y-25175255D01*
X44985236Y-25168799D01*
X44978406Y-25158415D01*
X44943034Y-25104633D01*
X44902712Y-25039261D01*
X44902710Y-25039259D01*
X44898234Y-25033598D01*
X44898280Y-25033560D01*
X44893519Y-25027716D01*
X44893474Y-25027755D01*
X44888834Y-25022225D01*
X44832982Y-24969530D01*
X44520002Y-24656551D01*
X44489753Y-24607190D01*
X44434411Y-24436865D01*
X44339765Y-24272933D01*
X44213103Y-24132261D01*
X44213102Y-24132260D01*
X44059966Y-24021000D01*
X44059961Y-24020997D01*
X43887039Y-23944006D01*
X43887034Y-23944004D01*
X43741233Y-23913014D01*
X43701878Y-23904649D01*
X43512586Y-23904649D01*
X43480129Y-23911547D01*
X43327429Y-23944004D01*
X43327424Y-23944006D01*
X43154502Y-24020997D01*
X43154497Y-24021000D01*
X43001361Y-24132260D01*
X42874698Y-24272934D01*
X42780053Y-24436864D01*
X42780050Y-24436871D01*
X42724711Y-24607188D01*
X42721558Y-24616893D01*
X42701772Y-24805149D01*
X33325300Y-24805149D01*
X33361443Y-24742548D01*
X33419938Y-24562520D01*
X33439724Y-24374264D01*
X33419938Y-24186008D01*
X33361443Y-24005980D01*
X33361440Y-24005974D01*
X33292113Y-23885895D01*
X33275500Y-23823896D01*
X33275500Y-20129321D01*
X33292113Y-20067321D01*
X33306016Y-20043240D01*
X33352179Y-19963284D01*
X33410674Y-19783256D01*
X33430460Y-19595000D01*
X33410674Y-19406744D01*
X33352179Y-19226716D01*
X33257533Y-19062784D01*
X33130871Y-18922112D01*
X33130870Y-18922111D01*
X32977734Y-18810851D01*
X32977729Y-18810848D01*
X32804807Y-18733857D01*
X32804802Y-18733855D01*
X32659001Y-18702865D01*
X32619646Y-18694500D01*
X32430354Y-18694500D01*
X32397897Y-18701398D01*
X32245197Y-18733855D01*
X32245192Y-18733857D01*
X32072270Y-18810848D01*
X32072265Y-18810851D01*
X31919129Y-18922111D01*
X31792466Y-19062785D01*
X31697821Y-19226715D01*
X31697818Y-19226722D01*
X31639327Y-19406740D01*
X31639326Y-19406744D01*
X31619540Y-19595000D01*
X500Y-19595000D01*
X500Y-15590001D01*
X6369500Y-15590001D01*
X6369501Y-15590018D01*
X6380000Y-15692796D01*
X6380001Y-15692799D01*
X6435185Y-15859331D01*
X6435187Y-15859336D01*
X6453025Y-15888256D01*
X6527288Y-16008656D01*
X6651344Y-16132712D01*
X6800666Y-16224814D01*
X6967203Y-16279999D01*
X7069991Y-16290500D01*
X8670008Y-16290499D01*
X8772797Y-16279999D01*
X8939334Y-16224814D01*
X9088656Y-16132712D01*
X9212712Y-16008656D01*
X9304814Y-15859334D01*
X9359999Y-15692797D01*
X9370500Y-15590009D01*
X9370499Y-14289992D01*
X9359999Y-14187203D01*
X9304814Y-14020666D01*
X9212712Y-13871344D01*
X9088656Y-13747288D01*
X8939334Y-13655186D01*
X8772797Y-13600001D01*
X8772795Y-13600000D01*
X8670010Y-13589500D01*
X7069998Y-13589500D01*
X7069981Y-13589501D01*
X6967203Y-13600000D01*
X6967200Y-13600001D01*
X6800668Y-13655185D01*
X6800663Y-13655187D01*
X6651342Y-13747289D01*
X6527289Y-13871342D01*
X6435187Y-14020663D01*
X6435185Y-14020666D01*
X6435186Y-14020666D01*
X6380001Y-14187203D01*
X6380001Y-14187204D01*
X6380000Y-14187204D01*
X6369500Y-14289983D01*
X6369500Y-15590001D01*
X500Y-15590001D01*
X500Y-13260000D01*
X40514540Y-13260000D01*
X40534326Y-13448256D01*
X40534327Y-13448259D01*
X40592818Y-13628277D01*
X40592821Y-13628284D01*
X40608353Y-13655187D01*
X40652887Y-13732321D01*
X40669500Y-13794321D01*
X40669500Y-17636294D01*
X40668191Y-17654263D01*
X40664710Y-17678025D01*
X40669264Y-17730064D01*
X40669500Y-17735470D01*
X40669500Y-17743709D01*
X40673306Y-17776274D01*
X40680000Y-17852791D01*
X40681461Y-17859867D01*
X40681403Y-17859878D01*
X40683034Y-17867237D01*
X40683092Y-17867224D01*
X40684757Y-17874250D01*
X40711025Y-17946424D01*
X40735185Y-18019331D01*
X40738236Y-18025874D01*
X40738182Y-18025898D01*
X40741470Y-18032688D01*
X40741521Y-18032663D01*
X40744761Y-18039113D01*
X40744762Y-18039114D01*
X40744763Y-18039117D01*
X40786965Y-18103282D01*
X40786965Y-18103283D01*
X40827287Y-18168655D01*
X40831766Y-18174319D01*
X40831719Y-18174356D01*
X40836482Y-18180202D01*
X40836528Y-18180164D01*
X40841173Y-18185700D01*
X40897018Y-18238386D01*
X43834267Y-21175634D01*
X43846048Y-21189266D01*
X43860390Y-21208530D01*
X43900420Y-21242119D01*
X43904392Y-21245759D01*
X43908633Y-21250000D01*
X43910224Y-21251591D01*
X43910227Y-21251594D01*
X43935947Y-21271931D01*
X43994788Y-21321304D01*
X44000818Y-21325270D01*
X44000785Y-21325319D01*
X44007143Y-21329369D01*
X44007175Y-21329319D01*
X44013320Y-21333109D01*
X44013323Y-21333111D01*
X44082936Y-21365572D01*
X44151567Y-21400040D01*
X44151572Y-21400041D01*
X44158361Y-21402513D01*
X44158340Y-21402570D01*
X44165455Y-21405043D01*
X44165475Y-21404986D01*
X44172330Y-21407258D01*
X44247558Y-21422790D01*
X44322279Y-21440500D01*
X44322289Y-21440500D01*
X44329452Y-21441338D01*
X44329444Y-21441397D01*
X44336945Y-21442164D01*
X44336951Y-21442105D01*
X44344140Y-21442734D01*
X44344144Y-21442733D01*
X44344145Y-21442734D01*
X44420918Y-21440500D01*
X44820647Y-21440500D01*
X44887686Y-21460185D01*
X44893532Y-21464182D01*
X44907249Y-21474148D01*
X44907254Y-21474151D01*
X45080176Y-21551142D01*
X45080181Y-21551144D01*
X45265338Y-21590500D01*
X45265339Y-21590500D01*
X45454628Y-21590500D01*
X45454630Y-21590500D01*
X45639787Y-21551144D01*
X45812714Y-21474151D01*
X45965855Y-21362888D01*
X46092517Y-21222216D01*
X46187163Y-21058284D01*
X46245658Y-20878256D01*
X46265444Y-20690000D01*
X46245658Y-20501744D01*
X46187163Y-20321716D01*
X46130690Y-20223903D01*
X46114218Y-20156004D01*
X46137071Y-20089977D01*
X46191992Y-20046786D01*
X46203655Y-20043240D01*
X46203626Y-20043151D01*
X46209796Y-20041145D01*
X46209803Y-20041144D01*
X46382730Y-19964151D01*
X46535871Y-19852888D01*
X46662533Y-19712216D01*
X46757179Y-19548284D01*
X46815674Y-19368256D01*
X46835460Y-19180000D01*
X46815674Y-18991744D01*
X46757179Y-18811716D01*
X46662533Y-18647784D01*
X46535871Y-18507112D01*
X46535870Y-18507111D01*
X46382734Y-18395851D01*
X46382729Y-18395848D01*
X46209807Y-18318857D01*
X46209802Y-18318855D01*
X46064000Y-18287865D01*
X46024646Y-18279500D01*
X45835354Y-18279500D01*
X45835353Y-18279500D01*
X45666590Y-18315371D01*
X45596923Y-18310055D01*
X45553129Y-18281762D01*
X43915376Y-16644008D01*
X43881891Y-16582685D01*
X43886875Y-16512993D01*
X43928747Y-16457060D01*
X43930176Y-16456006D01*
X43932728Y-16454151D01*
X43932730Y-16454151D01*
X43939372Y-16449324D01*
X43946456Y-16444179D01*
X44012264Y-16420702D01*
X44019337Y-16420500D01*
X45739372Y-16420500D01*
X45806411Y-16440185D01*
X45812248Y-16444175D01*
X45836102Y-16461506D01*
X45867270Y-16484151D01*
X46040192Y-16561142D01*
X46040197Y-16561144D01*
X46225354Y-16600500D01*
X46225355Y-16600500D01*
X46414644Y-16600500D01*
X46414646Y-16600500D01*
X46599803Y-16561144D01*
X46772730Y-16484151D01*
X46925871Y-16372888D01*
X47052533Y-16232216D01*
X47147179Y-16068284D01*
X47205674Y-15888256D01*
X47225460Y-15700000D01*
X47205674Y-15511744D01*
X47147179Y-15331716D01*
X47052533Y-15167784D01*
X46925871Y-15027112D01*
X46925870Y-15027111D01*
X46772734Y-14915851D01*
X46772729Y-14915848D01*
X46599807Y-14838857D01*
X46599802Y-14838855D01*
X46444709Y-14805890D01*
X46383227Y-14772698D01*
X46349451Y-14711535D01*
X46354103Y-14641820D01*
X46395708Y-14585688D01*
X46397605Y-14584282D01*
X46495871Y-14512888D01*
X46622533Y-14372216D01*
X46717179Y-14208284D01*
X46775674Y-14028256D01*
X46795460Y-13840000D01*
X46775674Y-13651744D01*
X46717179Y-13471716D01*
X46703636Y-13448259D01*
X46657113Y-13367677D01*
X46640500Y-13305677D01*
X46640500Y-12557220D01*
X46660185Y-12490181D01*
X46712989Y-12444426D01*
X46738712Y-12435931D01*
X46791237Y-12424768D01*
X46791241Y-12424766D01*
X46791242Y-12424766D01*
X46849492Y-12398830D01*
X46964164Y-12347775D01*
X47117305Y-12236512D01*
X47243967Y-12095840D01*
X47338613Y-11931908D01*
X47397108Y-11751880D01*
X47416894Y-11563624D01*
X47397108Y-11375368D01*
X47338613Y-11195340D01*
X47243967Y-11031408D01*
X47117305Y-10890736D01*
X47117304Y-10890735D01*
X46964168Y-10779475D01*
X46964163Y-10779472D01*
X46791241Y-10702481D01*
X46791236Y-10702479D01*
X46645435Y-10671489D01*
X46606080Y-10663124D01*
X46416788Y-10663124D01*
X46384331Y-10670022D01*
X46231631Y-10702479D01*
X46231626Y-10702481D01*
X46058704Y-10779472D01*
X46058699Y-10779475D01*
X45905563Y-10890735D01*
X45778900Y-11031409D01*
X45684255Y-11195339D01*
X45684253Y-11195343D01*
X45628913Y-11365663D01*
X45598663Y-11415025D01*
X45404358Y-11609330D01*
X45390729Y-11621109D01*
X45371468Y-11635448D01*
X45337898Y-11675455D01*
X45334253Y-11679434D01*
X45328409Y-11685280D01*
X45308059Y-11711017D01*
X45258695Y-11769847D01*
X45254729Y-11775877D01*
X45254682Y-11775846D01*
X45250630Y-11782205D01*
X45250679Y-11782235D01*
X45246889Y-11788379D01*
X45214424Y-11857999D01*
X45179960Y-11926624D01*
X45177488Y-11933415D01*
X45177432Y-11933394D01*
X45174960Y-11940508D01*
X45175015Y-11940527D01*
X45172742Y-11947385D01*
X45164974Y-11985004D01*
X45157207Y-12022623D01*
X45144001Y-12078342D01*
X45139498Y-12097344D01*
X45138661Y-12104512D01*
X45138601Y-12104505D01*
X45137835Y-12112003D01*
X45137895Y-12112009D01*
X45137265Y-12119198D01*
X45139500Y-12195974D01*
X45139500Y-13305677D01*
X45122887Y-13367677D01*
X45062821Y-13471714D01*
X45004327Y-13651740D01*
X45004326Y-13651744D01*
X44984540Y-13840000D01*
X45004326Y-14028256D01*
X45004327Y-14028259D01*
X45062818Y-14208277D01*
X45062821Y-14208284D01*
X45157467Y-14372216D01*
X45284128Y-14512887D01*
X45284129Y-14512888D01*
X45437265Y-14624148D01*
X45437270Y-14624151D01*
X45567695Y-14682221D01*
X45620932Y-14727471D01*
X45641253Y-14794320D01*
X45622207Y-14861544D01*
X45569841Y-14907799D01*
X45517259Y-14919500D01*
X44019337Y-14919500D01*
X43952298Y-14899815D01*
X43946452Y-14895818D01*
X43932734Y-14885851D01*
X43932729Y-14885848D01*
X43759807Y-14808857D01*
X43759802Y-14808855D01*
X43614000Y-14777865D01*
X43574646Y-14769500D01*
X43517708Y-14769500D01*
X43450669Y-14749815D01*
X43404914Y-14697011D01*
X43394970Y-14627853D01*
X43399777Y-14607182D01*
X43401418Y-14602130D01*
X43415674Y-14558256D01*
X43435460Y-14370000D01*
X43415674Y-14181744D01*
X43357179Y-14001716D01*
X43262533Y-13837784D01*
X43135871Y-13697112D01*
X43135870Y-13697111D01*
X42982734Y-13585851D01*
X42982729Y-13585848D01*
X42809807Y-13508857D01*
X42809802Y-13508855D01*
X42664000Y-13477865D01*
X42624646Y-13469500D01*
X42441157Y-13469500D01*
X42374118Y-13449815D01*
X42328363Y-13397011D01*
X42317836Y-13332539D01*
X42320659Y-13305677D01*
X42325460Y-13260000D01*
X42305674Y-13071744D01*
X42247179Y-12891716D01*
X42152533Y-12727784D01*
X42025871Y-12587112D01*
X42025870Y-12587111D01*
X41872734Y-12475851D01*
X41872729Y-12475848D01*
X41699807Y-12398857D01*
X41699802Y-12398855D01*
X41554001Y-12367865D01*
X41514646Y-12359500D01*
X41325354Y-12359500D01*
X41292897Y-12366398D01*
X41140197Y-12398855D01*
X41140192Y-12398857D01*
X40967270Y-12475848D01*
X40967265Y-12475851D01*
X40814129Y-12587111D01*
X40687466Y-12727785D01*
X40592821Y-12891715D01*
X40592818Y-12891722D01*
X40534327Y-13071740D01*
X40534326Y-13071744D01*
X40514540Y-13260000D01*
X500Y-13260000D01*
X500Y-133982D01*
X20185Y-66943D01*
X72989Y-21188D01*
X124476Y-9983D01*
X71250000Y-500D01*
X74875500Y-500D01*
X74942539Y-20185D01*
G37*
%TD.AperFunction*%
%TD*%
M02*
