M48
; DRILL file {KiCad 7.0.7} date Sat Feb  3 17:25:47 2024
; FORMAT={-:-/ absolute / inch / decimal}
; #@! TF.CreationDate,2024-02-03T17:25:47+00:00
; #@! TF.GenerationSoftware,Kicad,Pcbnew,7.0.7
; #@! TF.FileFunction,Plated,1,2,PTH
FMAT,2
INCH
; #@! TA.AperFunction,Plated,PTH,ViaDrill
T1C0.0157
; #@! TA.AperFunction,Plated,PTH,ViaDrill
T2C0.0236
; #@! TA.AperFunction,Plated,PTH,ComponentDrill
T3C0.0374
; #@! TA.AperFunction,Plated,PTH,ComponentDrill
T4C0.0394
; #@! TA.AperFunction,Plated,PTH,ComponentDrill
T5C0.1260
%
G90
G05
T1
X0.4173Y-1.3524
X0.4719Y-1.4833
X0.478Y-1.3791
X0.526Y-1.1323
X0.526Y-1.2783
X0.5302Y-1.0932
X0.6291Y-1.2299
X0.6291Y-1.3693
X0.6843Y-1.5484
X0.6902Y-1.0984
X0.7343Y-1.1622
X0.8339Y-1.7646
X1.1953Y-0.8299
X1.2805Y-0.7715
X1.2809Y-0.9596
X1.3618Y-0.9106
X1.4555Y-1.478
X1.4563Y-1.3331
X1.4579Y-1.1508
X1.4579Y-1.239
X1.6307Y-0.522
X1.6512Y-1.1492
X1.6535Y-1.2476
X1.6535Y-1.3272
X1.6744Y-0.5657
X1.7118Y-0.6169
X1.7168Y-0.9766
X1.7858Y-0.8146
X1.8067Y-0.5449
X1.8083Y-0.7551
X1.8236Y-0.6181
X1.8252Y-1.2011
X1.8312Y-0.4553
T2
X0.6055Y-0.4654
X1.0929Y-0.4201
X1.8677Y-0.5406
X1.8689Y-0.3992
X1.8689Y-0.8248
X1.8689Y-1.6075
X1.8701Y-1.1142
X1.8709Y-1.4402
X1.8712Y-0.9712
X1.8716Y-0.6844
X1.8758Y-1.2868
X2.0417Y-1.0622
X2.0417Y-1.535
X2.0437Y-0.3165
X2.4154Y-1.1142
X2.4154Y-1.2996
X2.4157Y-1.4465
X2.4157Y-1.6016
X2.4162Y-0.9712
X2.4176Y-0.6852
X2.4176Y-0.8282
X2.4184Y-0.5422
X2.4197Y-0.3992
T3
X2.6437Y-0.4921
X2.6437Y-0.5906
X2.6437Y-0.689
X2.6437Y-0.7874
X2.6437Y-0.8858
X2.6437Y-0.9843
X2.6437Y-1.2795
X2.6437Y-1.378
X2.6437Y-1.4764
T4
X0.3098Y-0.5882
X0.3098Y-0.6866
T5
X0.1969Y-0.1969
X0.1969Y-1.7717
X2.7559Y-0.1969
X2.7559Y-1.7717
T0
M30
