M48
; DRILL file {KiCad (6.0.1)} date Fri Feb 11 18:29:42 2022
; FORMAT={-:-/ absolute / metric / decimal}
; #@! TF.CreationDate,2022-02-11T18:29:42+00:00
; #@! TF.GenerationSoftware,Kicad,Pcbnew,(6.0.1)
; #@! TF.FileFunction,MixedPlating,1,2
FMAT,2
METRIC
; #@! TA.AperFunction,Plated,PTH,ViaDrill
T1C0.400
; #@! TA.AperFunction,Plated,PTH,ViaDrill
T2C0.500
; #@! TA.AperFunction,Plated,PTH,ComponentDrill
T3C0.800
; #@! TA.AperFunction,NonPlated,NPTH,ComponentDrill
T4C2.700
%
G90
G05
T1
X101.244Y-132.969
X101.321Y-124.181
X103.683Y-132.944
X103.784Y-124.181
X105.08Y-130.759
X105.08Y-132.207
X105.181Y-125.298
X105.181Y-126.543
X106.604Y-126.467
X106.782Y-130.81
X109.499Y-126.441
X109.576Y-131.039
X110.693Y-138.836
X110.719Y-136.474
X110.896Y-128.397
X111.354Y-134.95
X112.827Y-132.537
X112.827Y-134.95
X112.852Y-130.073
X113.767Y-127.838
X115.0Y-109.8
X115.849Y-126.619
X117.018Y-131.318
X117.043Y-133.325
X117.145Y-135.026
X117.704Y-127.559
X117.78Y-129.896
X118.643Y-135.026
X119.151Y-127.483
X119.253Y-138.938
X119.278Y-129.896
X119.278Y-136.423
X120.5Y-109.9
X120.701Y-126.695
X121.31Y-130.658
X123.088Y-126.619
X123.114Y-130.607
X124.892Y-130.556
X124.943Y-132.105
X124.968Y-125.324
X124.968Y-126.721
X126.086Y-124.46
X126.441Y-132.867
X128.727Y-124.358
X128.88Y-132.791
T2
X109.8Y-110.15
X118.643Y-107.747
X119.507Y-111.836
X123.215Y-118.161
T3
X108.392Y-121.109
X108.392Y-128.729
X116.012Y-128.729
X121.092Y-121.109
X121.092Y-128.729
T4
X104.0Y-104.0
X104.0Y-136.0
X126.0Y-104.0
X126.0Y-136.0
T0
M30
