%TF.GenerationSoftware,KiCad,Pcbnew,(6.0.1)*%
%TF.CreationDate,2022-02-11T18:29:38+00:00*%
%TF.ProjectId,Relay_RF_G6E,52656c61-795f-4524-965f-4736452e6b69,rev?*%
%TF.SameCoordinates,Original*%
%TF.FileFunction,Copper,L1,Top*%
%TF.FilePolarity,Positive*%
%FSLAX46Y46*%
G04 Gerber Fmt 4.6, Leading zero omitted, Abs format (unit mm)*
G04 Created by KiCad (PCBNEW (6.0.1)) date 2022-02-11 18:29:38*
%MOMM*%
%LPD*%
G01*
G04 APERTURE LIST*
G04 Aperture macros list*
%AMRoundRect*
0 Rectangle with rounded corners*
0 $1 Rounding radius*
0 $2 $3 $4 $5 $6 $7 $8 $9 X,Y pos of 4 corners*
0 Add a 4 corners polygon primitive as box body*
4,1,4,$2,$3,$4,$5,$6,$7,$8,$9,$2,$3,0*
0 Add four circle primitives for the rounded corners*
1,1,$1+$1,$2,$3*
1,1,$1+$1,$4,$5*
1,1,$1+$1,$6,$7*
1,1,$1+$1,$8,$9*
0 Add four rect primitives between the rounded corners*
20,1,$1+$1,$2,$3,$4,$5,0*
20,1,$1+$1,$4,$5,$6,$7,0*
20,1,$1+$1,$6,$7,$8,$9,0*
20,1,$1+$1,$8,$9,$2,$3,0*%
G04 Aperture macros list end*
%TA.AperFunction,SMDPad,CuDef*%
%ADD10R,3.600000X1.270000*%
%TD*%
%TA.AperFunction,SMDPad,CuDef*%
%ADD11R,4.200000X1.350000*%
%TD*%
%TA.AperFunction,SMDPad,CuDef*%
%ADD12RoundRect,0.200000X0.200000X0.275000X-0.200000X0.275000X-0.200000X-0.275000X0.200000X-0.275000X0*%
%TD*%
%TA.AperFunction,SMDPad,CuDef*%
%ADD13RoundRect,0.200000X0.275000X-0.200000X0.275000X0.200000X-0.275000X0.200000X-0.275000X-0.200000X0*%
%TD*%
%TA.AperFunction,SMDPad,CuDef*%
%ADD14RoundRect,0.225000X0.225000X0.250000X-0.225000X0.250000X-0.225000X-0.250000X0.225000X-0.250000X0*%
%TD*%
%TA.AperFunction,SMDPad,CuDef*%
%ADD15RoundRect,0.200000X-0.275000X0.200000X-0.275000X-0.200000X0.275000X-0.200000X0.275000X0.200000X0*%
%TD*%
%TA.AperFunction,SMDPad,CuDef*%
%ADD16RoundRect,0.225000X0.250000X-0.225000X0.250000X0.225000X-0.250000X0.225000X-0.250000X-0.225000X0*%
%TD*%
%TA.AperFunction,ComponentPad*%
%ADD17R,1.501140X1.501140*%
%TD*%
%TA.AperFunction,ComponentPad*%
%ADD18C,1.501140*%
%TD*%
%TA.AperFunction,SMDPad,CuDef*%
%ADD19RoundRect,0.250000X-0.250000X-2.500000X0.250000X-2.500000X0.250000X2.500000X-0.250000X2.500000X0*%
%TD*%
%TA.AperFunction,SMDPad,CuDef*%
%ADD20RoundRect,0.250000X-0.550000X-1.250000X0.550000X-1.250000X0.550000X1.250000X-0.550000X1.250000X0*%
%TD*%
%TA.AperFunction,SMDPad,CuDef*%
%ADD21RoundRect,0.218750X-0.218750X-0.256250X0.218750X-0.256250X0.218750X0.256250X-0.218750X0.256250X0*%
%TD*%
%TA.AperFunction,SMDPad,CuDef*%
%ADD22RoundRect,0.150000X-0.587500X-0.150000X0.587500X-0.150000X0.587500X0.150000X-0.587500X0.150000X0*%
%TD*%
%TA.AperFunction,SMDPad,CuDef*%
%ADD23R,1.270000X3.600000*%
%TD*%
%TA.AperFunction,SMDPad,CuDef*%
%ADD24R,1.350000X4.200000*%
%TD*%
%TA.AperFunction,SMDPad,CuDef*%
%ADD25R,0.900000X1.200000*%
%TD*%
%TA.AperFunction,ViaPad*%
%ADD26C,0.800000*%
%TD*%
%TA.AperFunction,ViaPad*%
%ADD27C,1.000000*%
%TD*%
%TA.AperFunction,Conductor*%
%ADD28C,0.500000*%
%TD*%
%TA.AperFunction,Conductor*%
%ADD29C,1.000000*%
%TD*%
%TA.AperFunction,Conductor*%
%ADD30C,2.000000*%
%TD*%
%TA.AperFunction,Conductor*%
%ADD31C,2.850000*%
%TD*%
%TA.AperFunction,Conductor*%
%ADD32C,0.293000*%
%TD*%
G04 APERTURE END LIST*
D10*
%TO.P,J2,1,In*%
%TO.N,Net-(J2-Pad1)*%
X102023900Y-128701800D03*
D11*
%TO.P,J2,2,Ext*%
%TO.N,GND*%
X102223900Y-131526800D03*
X102223900Y-125876800D03*
%TD*%
D12*
%TO.P,R2,1*%
%TO.N,Net-(C2-Pad1)*%
X108851200Y-115620800D03*
%TO.P,R2,2*%
%TO.N,Net-(D2-Pad1)*%
X107201200Y-115620800D03*
%TD*%
D13*
%TO.P,R1,1*%
%TO.N,Net-(J1-Pad2)*%
X122200000Y-110875000D03*
%TO.P,R1,2*%
%TO.N,GND*%
X122200000Y-109225000D03*
%TD*%
D14*
%TO.P,C2,1*%
%TO.N,Net-(C2-Pad1)*%
X117449600Y-112699700D03*
%TO.P,C2,2*%
%TO.N,Net-(C1-Pad1)*%
X115899600Y-112699700D03*
%TD*%
D15*
%TO.P,R3,1*%
%TO.N,Net-(J1-Pad2)*%
X124250000Y-109275000D03*
%TO.P,R3,2*%
%TO.N,Net-(Q1-Pad1)*%
X124250000Y-110925000D03*
%TD*%
D16*
%TO.P,C1,1*%
%TO.N,Net-(C1-Pad1)*%
X107650000Y-110800000D03*
%TO.P,C1,2*%
%TO.N,GND*%
X107650000Y-109250000D03*
%TD*%
D17*
%TO.P,K1,1*%
%TO.N,Net-(C1-Pad1)*%
X121091700Y-121108900D03*
D18*
%TO.P,K1,6*%
%TO.N,Net-(C2-Pad1)*%
X108391700Y-121108900D03*
%TO.P,K1,7*%
%TO.N,Net-(J2-Pad1)*%
X108391700Y-128728900D03*
%TO.P,K1,10*%
%TO.N,Net-(J3-Pad1)*%
X116011700Y-128728900D03*
%TO.P,K1,12*%
%TO.N,Net-(J4-Pad1)*%
X121091700Y-128728900D03*
%TD*%
D19*
%TO.P,J1,1,Pin_1*%
%TO.N,Net-(C1-Pad1)*%
X113000000Y-105500000D03*
%TO.P,J1,2,Pin_2*%
%TO.N,Net-(J1-Pad2)*%
X115000000Y-105500000D03*
%TO.P,J1,3,Pin_3*%
%TO.N,GND*%
X117000000Y-105500000D03*
D20*
%TO.P,J1,MP*%
%TO.N,N/C*%
X119400000Y-103250000D03*
X110600000Y-103250000D03*
%TD*%
D10*
%TO.P,J4,1,In*%
%TO.N,Net-(J4-Pad1)*%
X128023900Y-128625600D03*
D11*
%TO.P,J4,2,Ext*%
%TO.N,GND*%
X127823900Y-125800600D03*
X127823900Y-131450600D03*
%TD*%
D21*
%TO.P,D2,1,K*%
%TO.N,Net-(D2-Pad1)*%
X107201200Y-113520800D03*
%TO.P,D2,2,A*%
%TO.N,Net-(C1-Pad1)*%
X108776200Y-113520800D03*
%TD*%
D22*
%TO.P,Q1,1,B*%
%TO.N,Net-(Q1-Pad1)*%
X122400000Y-114150000D03*
%TO.P,Q1,2,E*%
%TO.N,GND*%
X122400000Y-116050000D03*
%TO.P,Q1,3,C*%
%TO.N,Net-(C2-Pad1)*%
X124275000Y-115100000D03*
%TD*%
D23*
%TO.P,J3,1,In*%
%TO.N,Net-(J3-Pad1)*%
X115000000Y-138000000D03*
D24*
%TO.P,J3,2,Ext*%
%TO.N,GND*%
X117825000Y-137800000D03*
X112175000Y-137800000D03*
%TD*%
D25*
%TO.P,D1,1,K*%
%TO.N,Net-(C1-Pad1)*%
X115024600Y-114949700D03*
%TO.P,D1,2,A*%
%TO.N,Net-(C2-Pad1)*%
X118324600Y-114949700D03*
%TD*%
D26*
%TO.N,GND*%
X111353600Y-134950200D03*
X117043200Y-133324600D03*
X123088400Y-126619000D03*
X118643400Y-135026400D03*
D27*
X118643400Y-107746800D03*
D26*
X110693200Y-138836400D03*
X112826800Y-132537200D03*
X128727200Y-124358400D03*
X103784400Y-124180600D03*
X119278400Y-136423400D03*
X117703600Y-127558800D03*
X105079800Y-130759200D03*
X124942600Y-132105400D03*
X124968000Y-126720600D03*
X121310400Y-130657600D03*
X124968000Y-125323600D03*
X120700800Y-126695200D03*
X126085600Y-124460000D03*
X112826800Y-134950200D03*
X128879600Y-132791200D03*
X112852200Y-130073400D03*
X110896400Y-128397000D03*
X106603800Y-126466600D03*
X106781600Y-130810000D03*
X103682800Y-132943600D03*
X119278400Y-129895600D03*
X124891800Y-130556000D03*
X119253000Y-138938000D03*
X117779800Y-129895600D03*
X105181400Y-125298200D03*
X110718600Y-136474200D03*
X119151400Y-127482600D03*
X123113800Y-130606800D03*
X105181400Y-126542800D03*
X101244400Y-132969000D03*
X101320600Y-124180600D03*
X117144800Y-135026400D03*
X105079800Y-132207000D03*
D27*
X109800000Y-110150000D03*
D26*
X115849400Y-126619000D03*
X117017800Y-131318000D03*
X109575600Y-131038600D03*
D27*
X119507000Y-111836200D03*
D26*
X109499400Y-126441200D03*
X113766600Y-127838200D03*
X126441200Y-132867400D03*
%TO.N,Net-(J1-Pad2)*%
X120500000Y-109900000D03*
X115000000Y-109800000D03*
D27*
%TO.N,Net-(C2-Pad1)*%
X123215400Y-118160800D03*
%TD*%
D28*
%TO.N,GND*%
X107650000Y-109250000D02*
X108900000Y-109250000D01*
D29*
X119507000Y-111836200D02*
X117000000Y-109329200D01*
D28*
X108900000Y-109250000D02*
X109800000Y-110150000D01*
D29*
X117000000Y-109329200D02*
X117000000Y-105500000D01*
D28*
%TO.N,Net-(J1-Pad2)*%
X121225000Y-109900000D02*
X122200000Y-110875000D01*
X122200000Y-110875000D02*
X122650000Y-110875000D01*
X122650000Y-110875000D02*
X124250000Y-109275000D01*
X120500000Y-109900000D02*
X121225000Y-109900000D01*
X115000000Y-105500000D02*
X115000000Y-109800000D01*
D30*
%TO.N,Net-(J2-Pad1)*%
X102023900Y-128701800D02*
X108364600Y-128701800D01*
D31*
X108364600Y-128701800D02*
X108391700Y-128728900D01*
D30*
%TO.N,Net-(J3-Pad1)*%
X115000000Y-138000000D02*
X115000000Y-130569027D01*
X115585787Y-129154813D02*
X116011700Y-128728900D01*
X115000001Y-130569027D02*
G75*
G02*
X115585788Y-129154814I1999999J0D01*
G01*
%TO.N,Net-(J4-Pad1)*%
X121195000Y-128625600D02*
X121091700Y-128728900D01*
X128023900Y-128625600D02*
X121195000Y-128625600D01*
D32*
%TO.N,Net-(D2-Pad1)*%
X107201200Y-113520800D02*
X107201200Y-115620800D01*
%TO.N,Net-(Q1-Pad1)*%
X122400000Y-114150000D02*
X124250000Y-112300000D01*
X124250000Y-112300000D02*
X124250000Y-110925000D01*
D29*
%TO.N,Net-(C1-Pad1)*%
X117857700Y-121108900D02*
X121091700Y-121108900D01*
X115024600Y-114949700D02*
X115024600Y-115150200D01*
D32*
X110729200Y-113520800D02*
X110850000Y-113400000D01*
X108776200Y-113520800D02*
X110729200Y-113520800D01*
D29*
X113000000Y-111250000D02*
X113461800Y-111711800D01*
D28*
X107650000Y-110800000D02*
X110250000Y-113400000D01*
D29*
X113000000Y-105500000D02*
X113000000Y-111250000D01*
D28*
X110250000Y-113400000D02*
X110850000Y-113400000D01*
D29*
X113000000Y-111250000D02*
X110850000Y-113400000D01*
X115024600Y-115150200D02*
X113461800Y-116713000D01*
X113461800Y-116713000D02*
X117857700Y-121108900D01*
D28*
X115899600Y-114274700D02*
X115024600Y-115149700D01*
X115899600Y-112699700D02*
X115899600Y-114274700D01*
D29*
X113461800Y-111711800D02*
X113461800Y-116713000D01*
%TO.N,Net-(C2-Pad1)*%
X124275000Y-117329800D02*
X123444000Y-118160800D01*
X123215400Y-118160800D02*
X121535700Y-118160800D01*
D32*
X108391700Y-116080300D02*
X108391700Y-121108900D01*
D28*
X117449600Y-114274700D02*
X118324600Y-115149700D01*
D29*
X124275000Y-115100000D02*
X124275000Y-117329800D01*
X123444000Y-118160800D02*
X123215400Y-118160800D01*
D32*
X108851200Y-115620800D02*
X108391700Y-116080300D01*
D29*
X121535700Y-118160800D02*
X118324600Y-114949700D01*
D28*
X117449600Y-112699700D02*
X117449600Y-114274700D01*
%TD*%
%TA.AperFunction,Conductor*%
%TO.N,GND*%
G36*
X129442121Y-100520002D02*
G01*
X129488614Y-100573658D01*
X129500000Y-100626000D01*
X129500000Y-127364100D01*
X129479998Y-127432221D01*
X129426342Y-127478714D01*
X129374000Y-127490100D01*
X129058110Y-127490100D01*
X128989989Y-127470098D01*
X128978818Y-127462022D01*
X128975169Y-127459067D01*
X128971432Y-127455496D01*
X128902394Y-127408401D01*
X128771879Y-127319370D01*
X128771880Y-127319370D01*
X128767600Y-127316451D01*
X128584347Y-127231388D01*
X128548491Y-127214744D01*
X128548487Y-127214743D01*
X128543796Y-127212565D01*
X128306029Y-127146626D01*
X128300892Y-127146077D01*
X128107943Y-127125456D01*
X128107935Y-127125456D01*
X128104608Y-127125100D01*
X121310732Y-127125100D01*
X121292979Y-127123843D01*
X121284294Y-127122607D01*
X121279132Y-127122724D01*
X121279129Y-127122724D01*
X121175850Y-127125068D01*
X121172991Y-127125100D01*
X121132446Y-127125100D01*
X121129891Y-127125310D01*
X121129867Y-127125311D01*
X121120161Y-127126109D01*
X121112702Y-127126501D01*
X121037618Y-127128205D01*
X121032546Y-127129163D01*
X121032540Y-127129164D01*
X121000153Y-127135284D01*
X120987084Y-127137051D01*
X120954241Y-127139751D01*
X120954236Y-127139752D01*
X120949089Y-127140175D01*
X120925592Y-127146077D01*
X120876254Y-127158469D01*
X120868955Y-127160074D01*
X120800250Y-127173056D01*
X120800244Y-127173058D01*
X120795167Y-127174017D01*
X120759359Y-127187121D01*
X120746766Y-127190995D01*
X120714799Y-127199024D01*
X120714798Y-127199025D01*
X120709783Y-127200284D01*
X120649181Y-127226635D01*
X120640911Y-127230231D01*
X120633970Y-127233007D01*
X120573262Y-127255223D01*
X120563455Y-127258812D01*
X120530262Y-127277592D01*
X120518485Y-127283463D01*
X120483507Y-127298672D01*
X120479159Y-127301485D01*
X120420457Y-127339461D01*
X120414062Y-127343334D01*
X120353204Y-127377765D01*
X120353200Y-127377768D01*
X120348703Y-127380312D01*
X120344679Y-127383559D01*
X120344673Y-127383563D01*
X120319023Y-127404259D01*
X120308349Y-127411986D01*
X120276339Y-127432695D01*
X120220797Y-127483235D01*
X120215129Y-127488092D01*
X120193674Y-127505403D01*
X120193666Y-127505410D01*
X120191055Y-127507517D01*
X120162309Y-127536263D01*
X120158014Y-127540362D01*
X120093842Y-127598754D01*
X120090643Y-127602805D01*
X120090640Y-127602808D01*
X120075960Y-127621397D01*
X120066172Y-127632401D01*
X119986454Y-127712119D01*
X119867461Y-127852431D01*
X119740749Y-128064150D01*
X119738856Y-128068957D01*
X119738854Y-128068960D01*
X119729497Y-128092715D01*
X119650319Y-128293722D01*
X119649238Y-128298764D01*
X119649236Y-128298771D01*
X119599680Y-128529926D01*
X119598597Y-128534980D01*
X119598354Y-128540141D01*
X119598353Y-128540146D01*
X119592785Y-128658214D01*
X119586974Y-128781447D01*
X119615762Y-129026501D01*
X119617196Y-129031469D01*
X119673066Y-129225036D01*
X119684186Y-129263564D01*
X119686410Y-129268227D01*
X119686412Y-129268232D01*
X119788183Y-129481599D01*
X119788186Y-129481604D01*
X119790411Y-129486269D01*
X119931582Y-129688633D01*
X120103909Y-129865223D01*
X120302765Y-130011297D01*
X120522806Y-130122931D01*
X120758127Y-130197127D01*
X120880267Y-130214510D01*
X120997289Y-130231165D01*
X120997292Y-130231165D01*
X121002406Y-130231893D01*
X121007568Y-130231776D01*
X121007571Y-130231776D01*
X121148206Y-130228584D01*
X121249082Y-130226295D01*
X121254154Y-130225337D01*
X121254160Y-130225336D01*
X121471454Y-130184277D01*
X121491533Y-130180483D01*
X121619172Y-130133774D01*
X121662473Y-130126100D01*
X128086454Y-130126100D01*
X128089027Y-130125888D01*
X128089038Y-130125888D01*
X128264660Y-130111449D01*
X128264666Y-130111448D01*
X128269811Y-130111025D01*
X128509117Y-130050916D01*
X128735393Y-129952528D01*
X128865610Y-129868287D01*
X128938218Y-129821315D01*
X128938221Y-129821313D01*
X128942561Y-129818505D01*
X128969596Y-129793905D01*
X129033441Y-129762853D01*
X129054395Y-129761099D01*
X129374000Y-129761099D01*
X129442121Y-129781101D01*
X129488614Y-129834757D01*
X129500000Y-129887099D01*
X129500000Y-139374000D01*
X129479998Y-139442121D01*
X129426342Y-139488614D01*
X129374000Y-139500000D01*
X116261500Y-139500000D01*
X116193379Y-139479998D01*
X116146886Y-139426342D01*
X116135500Y-139374000D01*
X116135500Y-139034210D01*
X116155502Y-138966089D01*
X116163578Y-138954918D01*
X116166533Y-138951269D01*
X116170104Y-138947532D01*
X116189799Y-138918661D01*
X116306230Y-138747979D01*
X116309149Y-138743700D01*
X116413035Y-138519896D01*
X116478974Y-138282129D01*
X116500500Y-138080708D01*
X116500500Y-136042095D01*
X124145028Y-136042095D01*
X124170534Y-136309431D01*
X124234364Y-136570285D01*
X124335182Y-136819192D01*
X124470875Y-137050938D01*
X124473728Y-137054505D01*
X124585225Y-137193925D01*
X124638601Y-137260669D01*
X124834846Y-137443991D01*
X124927039Y-137507948D01*
X125051746Y-137594461D01*
X125051751Y-137594464D01*
X125055499Y-137597064D01*
X125059584Y-137599096D01*
X125059587Y-137599098D01*
X125175719Y-137656872D01*
X125295938Y-137716680D01*
X125300272Y-137718101D01*
X125300275Y-137718102D01*
X125546793Y-137798915D01*
X125546798Y-137798916D01*
X125551126Y-137800335D01*
X125555617Y-137801115D01*
X125555618Y-137801115D01*
X125811936Y-137845620D01*
X125811944Y-137845621D01*
X125815717Y-137846276D01*
X125819554Y-137846467D01*
X125898996Y-137850422D01*
X125899004Y-137850422D01*
X125900567Y-137850500D01*
X126068223Y-137850500D01*
X126070491Y-137850335D01*
X126070503Y-137850335D01*
X126200823Y-137840879D01*
X126267846Y-137836016D01*
X126272301Y-137835032D01*
X126272304Y-137835032D01*
X126525620Y-137779105D01*
X126525624Y-137779104D01*
X126530080Y-137778120D01*
X126697617Y-137714646D01*
X126776941Y-137684593D01*
X126776944Y-137684592D01*
X126781211Y-137682975D01*
X127015976Y-137552574D01*
X127158254Y-137443991D01*
X127225833Y-137392417D01*
X127225837Y-137392413D01*
X127229458Y-137389650D01*
X127417185Y-137197614D01*
X127575225Y-136980491D01*
X127662313Y-136814963D01*
X127698140Y-136746868D01*
X127698143Y-136746862D01*
X127700265Y-136742828D01*
X127759703Y-136574515D01*
X127788165Y-136493916D01*
X127788165Y-136493915D01*
X127789688Y-136489603D01*
X127841620Y-136226122D01*
X127841847Y-136221566D01*
X127854745Y-135962474D01*
X127854745Y-135962468D01*
X127854972Y-135957905D01*
X127829466Y-135690569D01*
X127765636Y-135429715D01*
X127664818Y-135180808D01*
X127529125Y-134949062D01*
X127418211Y-134810371D01*
X127364251Y-134742897D01*
X127364250Y-134742895D01*
X127361399Y-134739331D01*
X127165154Y-134556009D01*
X127005436Y-134445208D01*
X126948254Y-134405539D01*
X126948249Y-134405536D01*
X126944501Y-134402936D01*
X126940416Y-134400904D01*
X126940413Y-134400902D01*
X126768560Y-134315407D01*
X126704062Y-134283320D01*
X126699728Y-134281899D01*
X126699725Y-134281898D01*
X126453207Y-134201085D01*
X126453202Y-134201084D01*
X126448874Y-134199665D01*
X126444382Y-134198885D01*
X126188064Y-134154380D01*
X126188056Y-134154379D01*
X126184283Y-134153724D01*
X126175622Y-134153293D01*
X126101004Y-134149578D01*
X126100996Y-134149578D01*
X126099433Y-134149500D01*
X125931777Y-134149500D01*
X125929509Y-134149665D01*
X125929497Y-134149665D01*
X125799177Y-134159121D01*
X125732154Y-134163984D01*
X125727699Y-134164968D01*
X125727696Y-134164968D01*
X125474380Y-134220895D01*
X125474376Y-134220896D01*
X125469920Y-134221880D01*
X125344354Y-134269453D01*
X125223059Y-134315407D01*
X125223056Y-134315408D01*
X125218789Y-134317025D01*
X124984024Y-134447426D01*
X124980392Y-134450198D01*
X124774167Y-134607583D01*
X124774163Y-134607587D01*
X124770542Y-134610350D01*
X124582815Y-134802386D01*
X124424775Y-135019509D01*
X124422651Y-135023547D01*
X124301860Y-135253132D01*
X124301857Y-135253138D01*
X124299735Y-135257172D01*
X124298215Y-135261477D01*
X124298213Y-135261481D01*
X124238804Y-135429715D01*
X124210312Y-135510397D01*
X124158380Y-135773878D01*
X124158153Y-135778431D01*
X124158153Y-135778434D01*
X124148992Y-135962474D01*
X124145028Y-136042095D01*
X116500500Y-136042095D01*
X116500500Y-130676243D01*
X116501578Y-130659797D01*
X116503408Y-130645899D01*
X116503408Y-130645893D01*
X116503845Y-130642577D01*
X116504446Y-130618001D01*
X116505561Y-130572392D01*
X116505561Y-130572387D01*
X116505643Y-130569027D01*
X116504236Y-130551911D01*
X116504419Y-130529247D01*
X116508884Y-130483921D01*
X116513701Y-130459706D01*
X116534922Y-130389751D01*
X116544374Y-130366931D01*
X116578831Y-130302466D01*
X116592554Y-130281928D01*
X116615096Y-130254461D01*
X116622626Y-130246354D01*
X116624108Y-130245158D01*
X116675932Y-130186992D01*
X116680912Y-130181716D01*
X117115113Y-129747514D01*
X117116946Y-129745681D01*
X117235939Y-129605369D01*
X117362651Y-129393650D01*
X117453081Y-129164078D01*
X117454162Y-129159036D01*
X117454164Y-129159029D01*
X117503720Y-128927874D01*
X117503721Y-128927868D01*
X117504803Y-128922820D01*
X117505174Y-128914968D01*
X117511470Y-128781447D01*
X117516426Y-128676353D01*
X117487638Y-128431299D01*
X117419214Y-128194236D01*
X117416990Y-128189573D01*
X117416988Y-128189568D01*
X117315217Y-127976201D01*
X117315214Y-127976196D01*
X117312989Y-127971531D01*
X117171818Y-127769167D01*
X116999491Y-127592577D01*
X116800635Y-127446503D01*
X116788411Y-127440301D01*
X116638211Y-127364100D01*
X116580594Y-127334869D01*
X116345273Y-127260673D01*
X116223134Y-127243290D01*
X116106111Y-127226635D01*
X116106108Y-127226635D01*
X116100994Y-127225907D01*
X116095832Y-127226024D01*
X116095829Y-127226024D01*
X115955194Y-127229216D01*
X115854318Y-127231505D01*
X115849246Y-127232463D01*
X115849240Y-127232464D01*
X115664001Y-127267466D01*
X115611867Y-127277317D01*
X115380155Y-127362111D01*
X115375659Y-127364655D01*
X115375654Y-127364657D01*
X115174060Y-127478714D01*
X115165403Y-127483612D01*
X115161376Y-127486861D01*
X115161375Y-127486862D01*
X115129755Y-127512376D01*
X115007755Y-127610817D01*
X115005379Y-127613193D01*
X114600587Y-128017986D01*
X114588194Y-128028854D01*
X114574416Y-128039426D01*
X114521137Y-128090162D01*
X114504351Y-128109955D01*
X114501684Y-128112996D01*
X114290815Y-128345655D01*
X114288971Y-128348141D01*
X114288968Y-128348145D01*
X114227297Y-128431299D01*
X114085932Y-128621908D01*
X113909112Y-128916912D01*
X113762060Y-129227828D01*
X113704449Y-129388840D01*
X113687830Y-129435288D01*
X113646191Y-129551660D01*
X113604786Y-129716956D01*
X113567648Y-129865223D01*
X113562621Y-129885290D01*
X113512155Y-130225504D01*
X113512003Y-130228588D01*
X113512003Y-130228593D01*
X113499204Y-130489131D01*
X113498643Y-130496334D01*
X113494806Y-130532241D01*
X113495103Y-130537394D01*
X113495103Y-130537397D01*
X113495650Y-130546880D01*
X113495707Y-130560312D01*
X113495279Y-130569027D01*
X113494045Y-130568966D01*
X113494034Y-130569195D01*
X113496927Y-130569028D01*
X113499291Y-130610025D01*
X113499500Y-130617278D01*
X113499500Y-138062554D01*
X113499712Y-138065127D01*
X113499712Y-138065138D01*
X113514151Y-138240760D01*
X113514152Y-138240766D01*
X113514575Y-138245911D01*
X113574684Y-138485217D01*
X113673072Y-138711493D01*
X113807095Y-138918661D01*
X113810576Y-138922486D01*
X113831695Y-138945696D01*
X113862747Y-139009541D01*
X113864501Y-139030495D01*
X113864501Y-139374000D01*
X113844499Y-139442121D01*
X113790843Y-139488614D01*
X113738501Y-139500000D01*
X100626000Y-139500000D01*
X100557879Y-139479998D01*
X100511386Y-139426342D01*
X100500000Y-139374000D01*
X100500000Y-136042095D01*
X102145028Y-136042095D01*
X102170534Y-136309431D01*
X102234364Y-136570285D01*
X102335182Y-136819192D01*
X102470875Y-137050938D01*
X102473728Y-137054505D01*
X102585225Y-137193925D01*
X102638601Y-137260669D01*
X102834846Y-137443991D01*
X102927039Y-137507948D01*
X103051746Y-137594461D01*
X103051751Y-137594464D01*
X103055499Y-137597064D01*
X103059584Y-137599096D01*
X103059587Y-137599098D01*
X103175719Y-137656872D01*
X103295938Y-137716680D01*
X103300272Y-137718101D01*
X103300275Y-137718102D01*
X103546793Y-137798915D01*
X103546798Y-137798916D01*
X103551126Y-137800335D01*
X103555617Y-137801115D01*
X103555618Y-137801115D01*
X103811936Y-137845620D01*
X103811944Y-137845621D01*
X103815717Y-137846276D01*
X103819554Y-137846467D01*
X103898996Y-137850422D01*
X103899004Y-137850422D01*
X103900567Y-137850500D01*
X104068223Y-137850500D01*
X104070491Y-137850335D01*
X104070503Y-137850335D01*
X104200823Y-137840879D01*
X104267846Y-137836016D01*
X104272301Y-137835032D01*
X104272304Y-137835032D01*
X104525620Y-137779105D01*
X104525624Y-137779104D01*
X104530080Y-137778120D01*
X104697617Y-137714646D01*
X104776941Y-137684593D01*
X104776944Y-137684592D01*
X104781211Y-137682975D01*
X105015976Y-137552574D01*
X105158254Y-137443991D01*
X105225833Y-137392417D01*
X105225837Y-137392413D01*
X105229458Y-137389650D01*
X105417185Y-137197614D01*
X105575225Y-136980491D01*
X105662313Y-136814963D01*
X105698140Y-136746868D01*
X105698143Y-136746862D01*
X105700265Y-136742828D01*
X105759703Y-136574515D01*
X105788165Y-136493916D01*
X105788165Y-136493915D01*
X105789688Y-136489603D01*
X105841620Y-136226122D01*
X105841847Y-136221566D01*
X105854745Y-135962474D01*
X105854745Y-135962468D01*
X105854972Y-135957905D01*
X105829466Y-135690569D01*
X105765636Y-135429715D01*
X105664818Y-135180808D01*
X105529125Y-134949062D01*
X105418211Y-134810371D01*
X105364251Y-134742897D01*
X105364250Y-134742895D01*
X105361399Y-134739331D01*
X105165154Y-134556009D01*
X105005436Y-134445208D01*
X104948254Y-134405539D01*
X104948249Y-134405536D01*
X104944501Y-134402936D01*
X104940416Y-134400904D01*
X104940413Y-134400902D01*
X104768560Y-134315407D01*
X104704062Y-134283320D01*
X104699728Y-134281899D01*
X104699725Y-134281898D01*
X104453207Y-134201085D01*
X104453202Y-134201084D01*
X104448874Y-134199665D01*
X104444382Y-134198885D01*
X104188064Y-134154380D01*
X104188056Y-134154379D01*
X104184283Y-134153724D01*
X104175622Y-134153293D01*
X104101004Y-134149578D01*
X104100996Y-134149578D01*
X104099433Y-134149500D01*
X103931777Y-134149500D01*
X103929509Y-134149665D01*
X103929497Y-134149665D01*
X103799177Y-134159121D01*
X103732154Y-134163984D01*
X103727699Y-134164968D01*
X103727696Y-134164968D01*
X103474380Y-134220895D01*
X103474376Y-134220896D01*
X103469920Y-134221880D01*
X103344354Y-134269453D01*
X103223059Y-134315407D01*
X103223056Y-134315408D01*
X103218789Y-134317025D01*
X102984024Y-134447426D01*
X102980392Y-134450198D01*
X102774167Y-134607583D01*
X102774163Y-134607587D01*
X102770542Y-134610350D01*
X102582815Y-134802386D01*
X102424775Y-135019509D01*
X102422651Y-135023547D01*
X102301860Y-135253132D01*
X102301857Y-135253138D01*
X102299735Y-135257172D01*
X102298215Y-135261477D01*
X102298213Y-135261481D01*
X102238804Y-135429715D01*
X102210312Y-135510397D01*
X102158380Y-135773878D01*
X102158153Y-135778431D01*
X102158153Y-135778434D01*
X102148992Y-135962474D01*
X102145028Y-136042095D01*
X100500000Y-136042095D01*
X100500000Y-129963300D01*
X100520002Y-129895179D01*
X100573658Y-129848686D01*
X100626000Y-129837300D01*
X100989690Y-129837300D01*
X101057811Y-129857302D01*
X101068982Y-129865378D01*
X101072631Y-129868333D01*
X101076368Y-129871904D01*
X101080640Y-129874818D01*
X101080641Y-129874819D01*
X101110488Y-129895179D01*
X101280200Y-130010949D01*
X101361860Y-130048854D01*
X101499309Y-130112656D01*
X101499313Y-130112657D01*
X101504004Y-130114835D01*
X101741771Y-130180774D01*
X101746908Y-130181323D01*
X101939857Y-130201944D01*
X101939865Y-130201944D01*
X101943192Y-130202300D01*
X107104548Y-130202300D01*
X107172669Y-130222302D01*
X107187128Y-130233134D01*
X107232638Y-130272625D01*
X107461714Y-130420538D01*
X107465755Y-130422401D01*
X107465757Y-130422402D01*
X107705302Y-130532834D01*
X107705306Y-130532835D01*
X107709346Y-130534698D01*
X107713614Y-130535974D01*
X107713613Y-130535974D01*
X107966318Y-130611549D01*
X107966321Y-130611550D01*
X107970592Y-130612827D01*
X107974996Y-130613489D01*
X107975000Y-130613490D01*
X108235837Y-130652705D01*
X108235839Y-130652705D01*
X108240241Y-130653367D01*
X108244698Y-130653402D01*
X108508452Y-130655473D01*
X108512912Y-130655508D01*
X108517325Y-130654915D01*
X108517329Y-130654915D01*
X108778756Y-130619802D01*
X108778755Y-130619802D01*
X108783164Y-130619210D01*
X109021771Y-130551915D01*
X109041322Y-130546401D01*
X109041323Y-130546401D01*
X109045605Y-130545193D01*
X109156111Y-130496339D01*
X109290934Y-130436735D01*
X109290939Y-130436732D01*
X109295000Y-130434937D01*
X109526371Y-130290641D01*
X109536737Y-130281928D01*
X109731696Y-130118047D01*
X109735102Y-130115184D01*
X109917030Y-129912066D01*
X109933713Y-129887099D01*
X110029530Y-129743698D01*
X110068522Y-129685342D01*
X110105028Y-129609319D01*
X110184629Y-129443550D01*
X110184631Y-129443545D01*
X110186557Y-129439534D01*
X110268781Y-129179547D01*
X110294255Y-129026501D01*
X110312819Y-128914968D01*
X110312819Y-128914963D01*
X110313551Y-128910568D01*
X110319974Y-128637965D01*
X110287925Y-128367176D01*
X110220536Y-128113017D01*
X110219180Y-128107901D01*
X110219178Y-128107896D01*
X110218040Y-128103603D01*
X110212349Y-128090162D01*
X110113450Y-127856605D01*
X110113449Y-127856603D01*
X110111715Y-127852508D01*
X110027194Y-127712119D01*
X109973371Y-127622719D01*
X109973370Y-127622717D01*
X109971071Y-127618899D01*
X109868282Y-127492643D01*
X109825506Y-127440101D01*
X109825500Y-127440095D01*
X109823475Y-127437607D01*
X109677020Y-127291152D01*
X109675345Y-127289698D01*
X109675338Y-127289692D01*
X109527021Y-127160989D01*
X109527014Y-127160984D01*
X109523662Y-127158075D01*
X109294586Y-127010162D01*
X109290543Y-127008298D01*
X109050998Y-126897866D01*
X109050994Y-126897865D01*
X109046954Y-126896002D01*
X108785708Y-126817872D01*
X108516059Y-126777333D01*
X108408446Y-126776488D01*
X108247849Y-126775226D01*
X108247848Y-126775226D01*
X108243388Y-126775191D01*
X108238975Y-126775784D01*
X108238971Y-126775784D01*
X108026337Y-126804344D01*
X107973136Y-126811490D01*
X107710695Y-126885507D01*
X107706628Y-126887305D01*
X107465366Y-126993965D01*
X107465361Y-126993968D01*
X107461300Y-126995763D01*
X107229929Y-127140059D01*
X107192225Y-127171752D01*
X107127212Y-127200272D01*
X107111152Y-127201300D01*
X101961346Y-127201300D01*
X101958773Y-127201512D01*
X101958762Y-127201512D01*
X101783140Y-127215951D01*
X101783134Y-127215952D01*
X101777989Y-127216375D01*
X101538683Y-127276484D01*
X101312407Y-127374872D01*
X101308059Y-127377685D01*
X101109582Y-127506085D01*
X101109579Y-127506087D01*
X101105239Y-127508895D01*
X101082141Y-127529913D01*
X101078204Y-127533495D01*
X101014359Y-127564547D01*
X100993405Y-127566301D01*
X100626000Y-127566301D01*
X100557879Y-127546299D01*
X100511386Y-127492643D01*
X100500000Y-127440301D01*
X100500000Y-113216765D01*
X106263200Y-113216765D01*
X106263201Y-113824834D01*
X106273607Y-113925135D01*
X106275786Y-113931666D01*
X106275787Y-113931671D01*
X106295966Y-113992154D01*
X106326686Y-114084232D01*
X106414942Y-114226852D01*
X106506772Y-114318522D01*
X106517218Y-114328950D01*
X106551297Y-114391233D01*
X106554200Y-114418123D01*
X106554200Y-114749905D01*
X106534198Y-114818026D01*
X106517295Y-114839000D01*
X106445903Y-114910392D01*
X106358073Y-115055417D01*
X106307371Y-115217206D01*
X106300700Y-115289807D01*
X106300701Y-115951792D01*
X106300964Y-115954650D01*
X106300964Y-115954659D01*
X106304013Y-115987844D01*
X106307371Y-116024394D01*
X106309370Y-116030772D01*
X106309370Y-116030773D01*
X106327024Y-116087105D01*
X106358073Y-116186183D01*
X106445903Y-116331208D01*
X106565792Y-116451097D01*
X106710817Y-116538927D01*
X106718064Y-116541198D01*
X106718066Y-116541199D01*
X106783306Y-116561644D01*
X106872606Y-116589629D01*
X106945207Y-116596300D01*
X106948105Y-116596300D01*
X107201864Y-116596299D01*
X107457192Y-116596299D01*
X107460050Y-116596036D01*
X107460059Y-116596036D01*
X107495443Y-116592785D01*
X107529794Y-116589629D01*
X107581022Y-116573575D01*
X107652005Y-116572290D01*
X107712416Y-116609587D01*
X107743073Y-116673624D01*
X107744700Y-116693809D01*
X107744700Y-119969068D01*
X107724698Y-120037189D01*
X107690971Y-120072281D01*
X107588967Y-120143705D01*
X107588964Y-120143707D01*
X107584456Y-120146864D01*
X107429664Y-120301656D01*
X107304103Y-120480976D01*
X107301780Y-120485958D01*
X107301777Y-120485963D01*
X107213911Y-120674392D01*
X107211588Y-120679374D01*
X107154930Y-120890824D01*
X107135851Y-121108900D01*
X107154930Y-121326976D01*
X107211588Y-121538426D01*
X107213910Y-121543406D01*
X107213911Y-121543408D01*
X107301777Y-121731837D01*
X107301780Y-121731842D01*
X107304103Y-121736824D01*
X107307259Y-121741331D01*
X107307260Y-121741333D01*
X107425606Y-121910348D01*
X107429664Y-121916144D01*
X107584456Y-122070936D01*
X107588964Y-122074093D01*
X107588967Y-122074095D01*
X107645186Y-122113460D01*
X107763775Y-122196497D01*
X107768757Y-122198820D01*
X107768762Y-122198823D01*
X107957192Y-122286689D01*
X107962174Y-122289012D01*
X107967482Y-122290434D01*
X107967484Y-122290435D01*
X108168309Y-122344246D01*
X108168311Y-122344246D01*
X108173624Y-122345670D01*
X108391700Y-122364749D01*
X108609776Y-122345670D01*
X108615089Y-122344246D01*
X108615091Y-122344246D01*
X108815916Y-122290435D01*
X108815918Y-122290434D01*
X108821226Y-122289012D01*
X108826208Y-122286689D01*
X109014638Y-122198823D01*
X109014643Y-122198820D01*
X109019625Y-122196497D01*
X109138214Y-122113460D01*
X109194433Y-122074095D01*
X109194436Y-122074093D01*
X109198944Y-122070936D01*
X109353736Y-121916144D01*
X109357795Y-121910348D01*
X109476140Y-121741333D01*
X109476141Y-121741331D01*
X109479297Y-121736824D01*
X109481620Y-121731842D01*
X109481623Y-121731837D01*
X109569489Y-121543408D01*
X109569490Y-121543406D01*
X109571812Y-121538426D01*
X109628470Y-121326976D01*
X109647549Y-121108900D01*
X109628470Y-120890824D01*
X109571812Y-120679374D01*
X109569489Y-120674392D01*
X109481623Y-120485963D01*
X109481620Y-120485958D01*
X109479297Y-120480976D01*
X109353736Y-120301656D01*
X109198944Y-120146864D01*
X109194436Y-120143707D01*
X109194433Y-120143705D01*
X109092429Y-120072281D01*
X109048101Y-120016824D01*
X109038700Y-119969068D01*
X109038700Y-116717547D01*
X109058702Y-116649426D01*
X109112358Y-116602933D01*
X109153171Y-116592076D01*
X109173132Y-116590242D01*
X109173141Y-116590240D01*
X109179794Y-116589629D01*
X109231022Y-116573575D01*
X109334334Y-116541199D01*
X109334336Y-116541198D01*
X109341583Y-116538927D01*
X109486608Y-116451097D01*
X109606497Y-116331208D01*
X109694327Y-116186183D01*
X109745029Y-116024394D01*
X109751700Y-115951793D01*
X109751699Y-115289808D01*
X109751434Y-115286916D01*
X109745640Y-115223860D01*
X109745029Y-115217206D01*
X109694327Y-115055417D01*
X109606497Y-114910392D01*
X109486608Y-114790503D01*
X109341583Y-114702673D01*
X109275849Y-114682073D01*
X109216827Y-114642615D01*
X109188507Y-114577511D01*
X109199881Y-114507431D01*
X109247337Y-114454626D01*
X109273654Y-114442315D01*
X109295182Y-114435133D01*
X109295184Y-114435132D01*
X109302132Y-114432814D01*
X109444752Y-114344558D01*
X109523560Y-114265613D01*
X109558071Y-114231042D01*
X109563243Y-114225861D01*
X109567085Y-114219629D01*
X109570181Y-114215708D01*
X109628097Y-114174645D01*
X109669063Y-114167800D01*
X110163979Y-114167800D01*
X110232100Y-114187802D01*
X110238750Y-114192383D01*
X110270388Y-114215708D01*
X110338077Y-114265613D01*
X110343867Y-114268288D01*
X110343868Y-114268289D01*
X110389429Y-114289341D01*
X110522589Y-114350870D01*
X110598915Y-114368772D01*
X110714267Y-114395828D01*
X110714270Y-114395828D01*
X110720476Y-114397284D01*
X110762051Y-114398445D01*
X110917271Y-114402782D01*
X110917274Y-114402782D01*
X110923653Y-114402960D01*
X111017422Y-114386426D01*
X111117540Y-114368772D01*
X111117544Y-114368771D01*
X111123821Y-114367664D01*
X111312805Y-114292840D01*
X111357489Y-114263600D01*
X111478833Y-114184195D01*
X111478837Y-114184192D01*
X111482882Y-114181545D01*
X111487838Y-114177083D01*
X112246205Y-113418716D01*
X112308517Y-113384690D01*
X112379332Y-113389755D01*
X112436168Y-113432302D01*
X112460979Y-113498822D01*
X112461300Y-113507811D01*
X112461300Y-116669565D01*
X112460929Y-116679232D01*
X112456440Y-116737571D01*
X112457239Y-116743895D01*
X112457239Y-116743901D01*
X112458313Y-116752404D01*
X112459257Y-116771707D01*
X112458840Y-116786653D01*
X112459948Y-116792938D01*
X112459949Y-116792948D01*
X112469316Y-116846066D01*
X112470585Y-116855208D01*
X112476680Y-116915216D01*
X112478590Y-116921312D01*
X112479778Y-116927100D01*
X112481115Y-116932890D01*
X112481915Y-116939224D01*
X112483971Y-116945264D01*
X112483972Y-116945267D01*
X112486732Y-116953373D01*
X112491541Y-116972103D01*
X112494136Y-116986821D01*
X112496487Y-116992758D01*
X112516338Y-117042898D01*
X112519420Y-117051601D01*
X112537462Y-117109172D01*
X112540555Y-117114752D01*
X112542880Y-117120177D01*
X112545362Y-117125598D01*
X112547418Y-117131637D01*
X112554982Y-117144529D01*
X112563454Y-117161899D01*
X112568960Y-117175805D01*
X112572459Y-117181152D01*
X112601986Y-117226274D01*
X112606754Y-117234178D01*
X112636003Y-117286944D01*
X112640158Y-117291792D01*
X112643541Y-117296659D01*
X112647042Y-117301443D01*
X112650272Y-117306948D01*
X112654543Y-117311691D01*
X112660269Y-117318050D01*
X112672071Y-117333375D01*
X112680255Y-117345882D01*
X112684717Y-117350838D01*
X112723629Y-117389750D01*
X112730202Y-117396848D01*
X112768277Y-117441271D01*
X112773319Y-117445182D01*
X112777568Y-117449229D01*
X112782008Y-117453255D01*
X112786278Y-117457997D01*
X112799970Y-117468091D01*
X112814285Y-117480406D01*
X117138811Y-121804932D01*
X117141263Y-121807453D01*
X117200581Y-121870180D01*
X117205811Y-121873842D01*
X117205812Y-121873843D01*
X117249992Y-121904778D01*
X117257357Y-121910348D01*
X117299156Y-121944439D01*
X117299160Y-121944442D01*
X117304103Y-121948473D01*
X117329613Y-121961810D01*
X117343500Y-121970253D01*
X117367079Y-121986763D01*
X117422440Y-122010720D01*
X117430772Y-122014695D01*
X117478573Y-122039684D01*
X117478576Y-122039685D01*
X117484230Y-122042641D01*
X117490357Y-122044398D01*
X117490360Y-122044399D01*
X117504058Y-122048326D01*
X117511901Y-122050575D01*
X117527205Y-122056055D01*
X117553619Y-122067486D01*
X117596981Y-122076545D01*
X117612667Y-122079822D01*
X117621630Y-122082040D01*
X117635660Y-122086063D01*
X117679613Y-122098666D01*
X117708312Y-122100874D01*
X117724405Y-122103165D01*
X117752580Y-122109051D01*
X117757419Y-122109305D01*
X117757422Y-122109305D01*
X117757571Y-122109313D01*
X117757587Y-122109313D01*
X117759239Y-122109400D01*
X117814264Y-122109400D01*
X117823931Y-122109771D01*
X117875910Y-122113771D01*
X117875914Y-122113771D01*
X117882270Y-122114260D01*
X117912872Y-122110394D01*
X117928665Y-122109400D01*
X119839903Y-122109400D01*
X119908024Y-122129402D01*
X119940729Y-122159835D01*
X119983584Y-122217016D01*
X119990765Y-122222398D01*
X120091124Y-122297614D01*
X120091127Y-122297616D01*
X120098306Y-122302996D01*
X120187691Y-122336504D01*
X120225155Y-122350549D01*
X120225157Y-122350549D01*
X120232550Y-122353321D01*
X120240400Y-122354174D01*
X120240401Y-122354174D01*
X120290347Y-122359600D01*
X120293753Y-122359970D01*
X121091583Y-122359970D01*
X121889646Y-122359969D01*
X121893040Y-122359600D01*
X121893046Y-122359600D01*
X121942992Y-122354175D01*
X121942996Y-122354174D01*
X121950850Y-122353321D01*
X122085094Y-122302996D01*
X122092273Y-122297616D01*
X122092276Y-122297614D01*
X122192635Y-122222398D01*
X122199816Y-122217016D01*
X122265480Y-122129402D01*
X122280414Y-122109476D01*
X122280416Y-122109473D01*
X122285796Y-122102294D01*
X122329106Y-121986763D01*
X122333349Y-121975445D01*
X122333349Y-121975443D01*
X122336121Y-121968050D01*
X122342770Y-121906847D01*
X122342769Y-120310954D01*
X122336121Y-120249750D01*
X122285796Y-120115506D01*
X122280416Y-120108327D01*
X122280414Y-120108324D01*
X122205198Y-120007965D01*
X122199816Y-120000784D01*
X122157498Y-119969068D01*
X122092276Y-119920186D01*
X122092273Y-119920184D01*
X122085094Y-119914804D01*
X121995709Y-119881296D01*
X121958245Y-119867251D01*
X121958243Y-119867251D01*
X121950850Y-119864479D01*
X121943000Y-119863626D01*
X121942999Y-119863626D01*
X121893044Y-119858199D01*
X121893043Y-119858199D01*
X121889647Y-119857830D01*
X121091817Y-119857830D01*
X120293754Y-119857831D01*
X120290360Y-119858200D01*
X120290354Y-119858200D01*
X120240408Y-119863625D01*
X120240404Y-119863626D01*
X120232550Y-119864479D01*
X120098306Y-119914804D01*
X120091127Y-119920184D01*
X120091124Y-119920186D01*
X120025902Y-119969068D01*
X119983584Y-120000784D01*
X119978202Y-120007965D01*
X119940729Y-120057965D01*
X119883870Y-120100480D01*
X119839903Y-120108400D01*
X118324310Y-120108400D01*
X118256189Y-120088398D01*
X118235215Y-120071495D01*
X114965815Y-116802095D01*
X114931789Y-116739783D01*
X114936854Y-116668968D01*
X114965815Y-116623905D01*
X115510722Y-116078998D01*
X115570673Y-116045510D01*
X115575323Y-116044404D01*
X115583180Y-116043551D01*
X115717424Y-115993226D01*
X115724603Y-115987846D01*
X115724606Y-115987844D01*
X115824965Y-115912628D01*
X115832146Y-115907246D01*
X115837528Y-115900065D01*
X115912744Y-115799706D01*
X115912746Y-115799703D01*
X115918126Y-115792524D01*
X115968451Y-115658280D01*
X115975100Y-115597077D01*
X115975100Y-115497143D01*
X115980928Y-115459500D01*
X115983186Y-115454281D01*
X115984490Y-115448037D01*
X115984492Y-115448032D01*
X115995520Y-115395240D01*
X115997738Y-115386276D01*
X116012607Y-115334420D01*
X116014366Y-115328287D01*
X116016574Y-115299588D01*
X116018865Y-115283495D01*
X116024751Y-115255320D01*
X116025005Y-115250477D01*
X116025423Y-115247257D01*
X116054032Y-115182280D01*
X116061279Y-115174389D01*
X116383293Y-114852375D01*
X116397705Y-114839989D01*
X116409029Y-114831656D01*
X116409033Y-114831653D01*
X116414924Y-114827317D01*
X116448735Y-114787519D01*
X116455665Y-114780003D01*
X116461271Y-114774397D01*
X116463534Y-114771536D01*
X116463539Y-114771531D01*
X116478717Y-114752346D01*
X116481506Y-114748945D01*
X116523491Y-114699526D01*
X116523493Y-114699524D01*
X116528232Y-114693945D01*
X116531563Y-114687422D01*
X116534856Y-114682484D01*
X116537940Y-114677491D01*
X116542481Y-114671751D01*
X116559191Y-114635998D01*
X116606155Y-114582754D01*
X116674449Y-114563353D01*
X116742391Y-114583954D01*
X116778711Y-114620264D01*
X116813548Y-114673400D01*
X116815895Y-114677119D01*
X116850448Y-114734061D01*
X116850453Y-114734068D01*
X116853361Y-114738860D01*
X116857073Y-114743062D01*
X116857074Y-114743064D01*
X116860685Y-114747152D01*
X116860660Y-114747174D01*
X116863406Y-114750269D01*
X116865909Y-114753263D01*
X116869923Y-114759385D01*
X116875236Y-114764418D01*
X116925550Y-114812081D01*
X116927992Y-114814459D01*
X117337196Y-115223663D01*
X117371222Y-115285975D01*
X117374101Y-115312758D01*
X117374101Y-115597076D01*
X117380749Y-115658280D01*
X117431074Y-115792524D01*
X117436454Y-115799703D01*
X117436456Y-115799706D01*
X117511672Y-115900065D01*
X117517054Y-115907246D01*
X117524235Y-115912628D01*
X117624594Y-115987844D01*
X117624597Y-115987846D01*
X117631776Y-115993226D01*
X117697144Y-116017731D01*
X117758625Y-116040779D01*
X117758627Y-116040779D01*
X117766020Y-116043551D01*
X117773870Y-116044404D01*
X117773871Y-116044404D01*
X117823826Y-116049831D01*
X117827223Y-116050200D01*
X117957989Y-116050200D01*
X118026110Y-116070202D01*
X118047084Y-116087105D01*
X120816794Y-118856814D01*
X120819246Y-118859335D01*
X120878581Y-118922080D01*
X120927995Y-118956680D01*
X120935360Y-118962250D01*
X120982103Y-119000373D01*
X121007613Y-119013710D01*
X121021500Y-119022153D01*
X121045079Y-119038663D01*
X121100440Y-119062620D01*
X121108772Y-119066595D01*
X121156573Y-119091584D01*
X121156576Y-119091585D01*
X121162230Y-119094541D01*
X121168357Y-119096298D01*
X121168360Y-119096299D01*
X121182058Y-119100226D01*
X121189901Y-119102475D01*
X121205205Y-119107955D01*
X121231619Y-119119386D01*
X121263824Y-119126114D01*
X121290667Y-119131722D01*
X121299630Y-119133940D01*
X121311394Y-119137313D01*
X121357613Y-119150566D01*
X121386312Y-119152774D01*
X121402405Y-119155065D01*
X121430580Y-119160951D01*
X121435419Y-119161205D01*
X121435422Y-119161205D01*
X121435571Y-119161213D01*
X121435587Y-119161213D01*
X121437239Y-119161300D01*
X121492264Y-119161300D01*
X121501931Y-119161671D01*
X121553910Y-119165671D01*
X121553914Y-119165671D01*
X121560270Y-119166160D01*
X121590872Y-119162294D01*
X121606665Y-119161300D01*
X123148104Y-119161300D01*
X123163023Y-119162186D01*
X123194346Y-119165921D01*
X123200481Y-119165449D01*
X123200483Y-119165449D01*
X123249579Y-119161671D01*
X123259246Y-119161300D01*
X123427830Y-119161300D01*
X123431349Y-119161349D01*
X123511271Y-119163582D01*
X123511274Y-119163582D01*
X123517653Y-119163760D01*
X123523938Y-119162652D01*
X123523948Y-119162651D01*
X123577066Y-119153284D01*
X123586208Y-119152015D01*
X123646216Y-119145920D01*
X123673693Y-119137309D01*
X123689479Y-119133462D01*
X123693985Y-119132667D01*
X123711535Y-119129573D01*
X123711541Y-119129571D01*
X123717821Y-119128464D01*
X123773898Y-119106262D01*
X123782601Y-119103180D01*
X123834085Y-119087046D01*
X123834089Y-119087044D01*
X123840172Y-119085138D01*
X123865342Y-119071185D01*
X123880049Y-119064233D01*
X123884123Y-119062620D01*
X123906805Y-119053640D01*
X123957277Y-119020612D01*
X123965181Y-119015844D01*
X124012363Y-118989691D01*
X124012366Y-118989689D01*
X124017944Y-118986597D01*
X124039797Y-118967867D01*
X124052800Y-118958104D01*
X124072835Y-118944993D01*
X124076882Y-118942345D01*
X124080475Y-118939110D01*
X124080479Y-118939107D01*
X124080604Y-118938994D01*
X124081838Y-118937883D01*
X124120750Y-118898971D01*
X124127848Y-118892398D01*
X124172271Y-118854323D01*
X124191182Y-118829943D01*
X124201647Y-118818074D01*
X124971032Y-118048689D01*
X124973554Y-118046236D01*
X125031639Y-117991308D01*
X125031640Y-117991307D01*
X125036280Y-117986919D01*
X125070878Y-117937508D01*
X125076448Y-117930143D01*
X125110539Y-117888344D01*
X125110542Y-117888340D01*
X125114573Y-117883397D01*
X125127910Y-117857887D01*
X125136353Y-117844000D01*
X125149202Y-117825649D01*
X125152863Y-117820421D01*
X125176822Y-117765056D01*
X125180795Y-117756728D01*
X125205784Y-117708927D01*
X125205785Y-117708924D01*
X125208741Y-117703270D01*
X125216675Y-117675599D01*
X125222155Y-117660295D01*
X125233586Y-117633881D01*
X125245922Y-117574833D01*
X125248140Y-117565870D01*
X125263007Y-117514020D01*
X125264766Y-117507887D01*
X125266974Y-117479188D01*
X125269265Y-117463095D01*
X125275151Y-117434920D01*
X125275500Y-117428261D01*
X125275500Y-117373236D01*
X125275871Y-117363569D01*
X125279871Y-117311590D01*
X125279871Y-117311586D01*
X125280360Y-117305230D01*
X125276494Y-117274627D01*
X125275500Y-117258835D01*
X125275500Y-115809136D01*
X125295502Y-115741015D01*
X125312405Y-115720041D01*
X125380581Y-115651865D01*
X125410972Y-115600476D01*
X125460209Y-115517221D01*
X125460209Y-115517220D01*
X125464244Y-115510398D01*
X125510098Y-115352569D01*
X125512009Y-115328287D01*
X125512807Y-115318153D01*
X125512808Y-115318140D01*
X125513000Y-115315694D01*
X125513000Y-114884306D01*
X125512808Y-114881860D01*
X125512807Y-114881847D01*
X125510603Y-114853850D01*
X125510098Y-114847431D01*
X125489545Y-114776688D01*
X125466456Y-114697215D01*
X125466455Y-114697214D01*
X125464244Y-114689602D01*
X125460035Y-114682484D01*
X125384615Y-114554956D01*
X125380581Y-114548135D01*
X125264365Y-114431919D01*
X125248876Y-114422759D01*
X125129721Y-114352291D01*
X125129720Y-114352291D01*
X125122898Y-114348256D01*
X125115286Y-114346045D01*
X125115285Y-114346044D01*
X124971254Y-114304199D01*
X124971255Y-114304199D01*
X124965069Y-114302402D01*
X124951916Y-114301367D01*
X124930653Y-114299693D01*
X124930640Y-114299692D01*
X124928194Y-114299500D01*
X124918546Y-114299500D01*
X124850425Y-114279498D01*
X124841321Y-114273060D01*
X124812963Y-114251064D01*
X124812960Y-114251062D01*
X124807919Y-114247152D01*
X124625545Y-114157413D01*
X124619367Y-114155804D01*
X124619365Y-114155803D01*
X124435034Y-114107788D01*
X124435031Y-114107788D01*
X124428852Y-114106178D01*
X124347672Y-114101924D01*
X124232256Y-114095875D01*
X124232252Y-114095875D01*
X124225874Y-114095541D01*
X124024903Y-114125935D01*
X123834148Y-114196119D01*
X123828726Y-114199481D01*
X123822984Y-114202281D01*
X123822216Y-114200705D01*
X123761953Y-114217341D01*
X123694166Y-114196235D01*
X123648551Y-114141831D01*
X123638000Y-114091358D01*
X123638000Y-113934306D01*
X123637808Y-113931860D01*
X123637807Y-113931847D01*
X123635098Y-113897431D01*
X123636884Y-113897290D01*
X123643415Y-113835292D01*
X123670832Y-113794164D01*
X124650544Y-112814452D01*
X124659096Y-112806669D01*
X124665691Y-112802484D01*
X124713337Y-112751746D01*
X124716091Y-112748905D01*
X124736280Y-112728716D01*
X124738889Y-112725353D01*
X124746596Y-112716329D01*
X124768327Y-112693188D01*
X124777594Y-112683319D01*
X124781410Y-112676377D01*
X124781414Y-112676372D01*
X124787660Y-112665010D01*
X124798514Y-112648485D01*
X124806468Y-112638231D01*
X124806469Y-112638230D01*
X124811326Y-112631968D01*
X124829314Y-112590401D01*
X124834535Y-112579744D01*
X124852526Y-112547018D01*
X124852526Y-112547017D01*
X124856346Y-112540069D01*
X124858317Y-112532392D01*
X124858319Y-112532387D01*
X124861542Y-112519832D01*
X124867948Y-112501120D01*
X124873100Y-112489215D01*
X124876248Y-112481941D01*
X124883332Y-112437217D01*
X124885739Y-112425595D01*
X124895029Y-112389414D01*
X124895030Y-112389409D01*
X124897000Y-112381735D01*
X124897000Y-112360834D01*
X124898551Y-112341124D01*
X124900580Y-112328313D01*
X124901820Y-112320484D01*
X124897559Y-112275407D01*
X124897000Y-112263550D01*
X124897000Y-111789695D01*
X124917002Y-111721574D01*
X124949062Y-111690362D01*
X124947931Y-111688920D01*
X124953907Y-111684234D01*
X124960408Y-111680297D01*
X125080297Y-111560408D01*
X125168127Y-111415383D01*
X125218829Y-111253594D01*
X125225500Y-111180993D01*
X125225499Y-110669008D01*
X125224530Y-110658455D01*
X125219440Y-110603060D01*
X125218829Y-110596406D01*
X125215830Y-110586837D01*
X125170399Y-110441866D01*
X125170398Y-110441864D01*
X125168127Y-110434617D01*
X125080297Y-110289592D01*
X124979800Y-110189095D01*
X124945774Y-110126783D01*
X124950839Y-110055968D01*
X124979800Y-110010905D01*
X125080297Y-109910408D01*
X125168127Y-109765383D01*
X125218829Y-109603594D01*
X125225500Y-109530993D01*
X125225499Y-109019008D01*
X125225234Y-109016116D01*
X125219440Y-108953060D01*
X125218829Y-108946406D01*
X125168127Y-108784617D01*
X125080297Y-108639592D01*
X124960408Y-108519703D01*
X124815383Y-108431873D01*
X124808136Y-108429602D01*
X124808134Y-108429601D01*
X124742894Y-108409156D01*
X124653594Y-108381171D01*
X124580993Y-108374500D01*
X124578095Y-108374500D01*
X124249142Y-108374501D01*
X123919008Y-108374501D01*
X123916150Y-108374764D01*
X123916141Y-108374764D01*
X123880757Y-108378015D01*
X123846406Y-108381171D01*
X123840028Y-108383170D01*
X123840027Y-108383170D01*
X123691866Y-108429601D01*
X123691864Y-108429602D01*
X123684617Y-108431873D01*
X123539592Y-108519703D01*
X123419703Y-108639592D01*
X123331873Y-108784617D01*
X123281171Y-108946406D01*
X123274500Y-109019007D01*
X123274500Y-109136941D01*
X123254498Y-109205062D01*
X123237596Y-109226036D01*
X122526038Y-109937595D01*
X122463725Y-109971620D01*
X122436942Y-109974500D01*
X122413057Y-109974500D01*
X122344936Y-109954498D01*
X122323962Y-109937595D01*
X121802678Y-109416311D01*
X121790291Y-109401898D01*
X121781959Y-109390575D01*
X121781955Y-109390571D01*
X121777617Y-109384676D01*
X121737800Y-109350849D01*
X121730296Y-109343929D01*
X121724697Y-109338330D01*
X121702649Y-109320886D01*
X121699273Y-109318117D01*
X121649825Y-109276108D01*
X121649822Y-109276106D01*
X121644245Y-109271368D01*
X121637726Y-109268040D01*
X121632816Y-109264765D01*
X121627796Y-109261664D01*
X121622051Y-109257119D01*
X121556651Y-109226553D01*
X121552705Y-109224625D01*
X121494903Y-109195110D01*
X121488384Y-109191781D01*
X121481275Y-109190042D01*
X121475740Y-109187983D01*
X121470132Y-109186117D01*
X121463507Y-109183021D01*
X121456347Y-109181532D01*
X121456345Y-109181531D01*
X121392807Y-109168315D01*
X121388518Y-109167344D01*
X121371903Y-109163279D01*
X121318394Y-109150185D01*
X121312794Y-109149838D01*
X121312790Y-109149837D01*
X121307352Y-109149500D01*
X121307354Y-109149468D01*
X121303224Y-109149221D01*
X121299344Y-109148875D01*
X121292169Y-109147382D01*
X121284848Y-109147580D01*
X121284847Y-109147580D01*
X121215600Y-109149454D01*
X121212192Y-109149500D01*
X121039986Y-109149500D01*
X120971865Y-109129498D01*
X120965924Y-109125435D01*
X120958073Y-109119730D01*
X120958067Y-109119727D01*
X120952730Y-109115849D01*
X120779803Y-109038856D01*
X120681788Y-109018022D01*
X120601103Y-109000872D01*
X120601099Y-109000872D01*
X120594646Y-108999500D01*
X120405354Y-108999500D01*
X120398901Y-109000872D01*
X120398897Y-109000872D01*
X120318212Y-109018022D01*
X120220197Y-109038856D01*
X120047270Y-109115849D01*
X120041929Y-109119729D01*
X120041928Y-109119730D01*
X120018239Y-109136941D01*
X119894129Y-109227112D01*
X119889716Y-109232014D01*
X119889714Y-109232015D01*
X119791657Y-109340918D01*
X119767467Y-109367784D01*
X119672821Y-109531716D01*
X119614326Y-109711744D01*
X119613636Y-109718305D01*
X119613636Y-109718307D01*
X119599813Y-109849828D01*
X119594540Y-109900000D01*
X119595230Y-109906565D01*
X119605780Y-110006940D01*
X119614326Y-110088256D01*
X119672821Y-110268284D01*
X119676124Y-110274006D01*
X119676125Y-110274007D01*
X119706429Y-110326495D01*
X119767467Y-110432216D01*
X119771885Y-110437123D01*
X119771886Y-110437124D01*
X119852626Y-110526794D01*
X119894129Y-110572888D01*
X120047270Y-110684151D01*
X120220197Y-110761144D01*
X120318212Y-110781978D01*
X120398897Y-110799128D01*
X120398901Y-110799128D01*
X120405354Y-110800500D01*
X120594646Y-110800500D01*
X120601099Y-110799128D01*
X120601103Y-110799128D01*
X120687224Y-110780822D01*
X120779803Y-110761144D01*
X120785836Y-110758458D01*
X120785842Y-110758456D01*
X120870198Y-110720898D01*
X120940565Y-110711463D01*
X121004862Y-110741569D01*
X121010542Y-110746909D01*
X121187596Y-110923963D01*
X121221622Y-110986275D01*
X121224501Y-111013058D01*
X121224501Y-111130992D01*
X121224764Y-111133850D01*
X121224764Y-111133859D01*
X121225644Y-111143437D01*
X121231171Y-111203594D01*
X121233170Y-111209972D01*
X121233170Y-111209973D01*
X121270128Y-111327904D01*
X121281873Y-111365383D01*
X121369703Y-111510408D01*
X121489592Y-111630297D01*
X121634617Y-111718127D01*
X121641864Y-111720398D01*
X121641866Y-111720399D01*
X121707106Y-111740844D01*
X121796406Y-111768829D01*
X121869007Y-111775500D01*
X121871905Y-111775500D01*
X122200858Y-111775499D01*
X122530992Y-111775499D01*
X122533850Y-111775236D01*
X122533859Y-111775236D01*
X122569243Y-111771985D01*
X122603594Y-111768829D01*
X122609979Y-111766828D01*
X122758134Y-111720399D01*
X122758136Y-111720398D01*
X122765383Y-111718127D01*
X122910408Y-111630297D01*
X122984222Y-111556483D01*
X123004232Y-111540206D01*
X123048699Y-111511052D01*
X123052419Y-111508705D01*
X123109361Y-111474152D01*
X123109368Y-111474147D01*
X123114160Y-111471239D01*
X123122452Y-111463915D01*
X123122474Y-111463940D01*
X123125569Y-111461194D01*
X123128563Y-111458691D01*
X123134685Y-111454677D01*
X123155844Y-111432341D01*
X123217213Y-111396643D01*
X123288140Y-111399790D01*
X123346106Y-111440784D01*
X123355089Y-111453717D01*
X123419703Y-111560408D01*
X123539592Y-111680297D01*
X123546093Y-111684234D01*
X123552069Y-111688920D01*
X123550499Y-111690922D01*
X123590171Y-111734302D01*
X123603000Y-111789695D01*
X123603000Y-111979814D01*
X123582998Y-112047935D01*
X123566095Y-112068909D01*
X122322409Y-113312595D01*
X122260097Y-113346621D01*
X122233314Y-113349500D01*
X121746806Y-113349500D01*
X121744360Y-113349692D01*
X121744347Y-113349693D01*
X121723084Y-113351367D01*
X121709931Y-113352402D01*
X121703745Y-113354199D01*
X121703746Y-113354199D01*
X121559715Y-113396044D01*
X121559714Y-113396045D01*
X121552102Y-113398256D01*
X121545280Y-113402291D01*
X121545279Y-113402291D01*
X121526606Y-113413334D01*
X121410635Y-113481919D01*
X121294419Y-113598135D01*
X121210756Y-113739602D01*
X121208545Y-113747214D01*
X121208544Y-113747215D01*
X121180105Y-113845101D01*
X121164902Y-113897431D01*
X121164397Y-113903850D01*
X121162193Y-113931847D01*
X121162192Y-113931860D01*
X121162000Y-113934306D01*
X121162000Y-114365694D01*
X121162192Y-114368140D01*
X121162193Y-114368153D01*
X121162242Y-114368772D01*
X121164902Y-114402569D01*
X121166699Y-114408754D01*
X121205565Y-114542529D01*
X121210756Y-114560398D01*
X121214791Y-114567220D01*
X121214791Y-114567221D01*
X121260967Y-114645300D01*
X121294419Y-114701865D01*
X121410635Y-114818081D01*
X121417456Y-114822115D01*
X121447680Y-114839989D01*
X121552102Y-114901744D01*
X121559714Y-114903955D01*
X121559715Y-114903956D01*
X121632238Y-114925026D01*
X121709931Y-114947598D01*
X121723084Y-114948633D01*
X121744347Y-114950307D01*
X121744360Y-114950308D01*
X121746806Y-114950500D01*
X122911000Y-114950500D01*
X122979121Y-114970502D01*
X123025614Y-115024158D01*
X123037000Y-115076500D01*
X123037000Y-115315694D01*
X123037192Y-115318140D01*
X123037193Y-115318153D01*
X123037991Y-115328287D01*
X123039902Y-115352569D01*
X123085756Y-115510398D01*
X123089791Y-115517220D01*
X123089791Y-115517221D01*
X123139028Y-115600476D01*
X123169419Y-115651865D01*
X123237595Y-115720041D01*
X123271621Y-115782353D01*
X123274500Y-115809136D01*
X123274500Y-116863190D01*
X123254498Y-116931311D01*
X123237595Y-116952285D01*
X123066485Y-117123395D01*
X123004173Y-117157421D01*
X122977390Y-117160300D01*
X122002311Y-117160300D01*
X121934190Y-117140298D01*
X121913216Y-117123395D01*
X119312004Y-114522184D01*
X119277979Y-114459872D01*
X119275099Y-114433089D01*
X119275099Y-114302324D01*
X119274730Y-114298924D01*
X119269305Y-114248978D01*
X119269304Y-114248974D01*
X119268451Y-114241120D01*
X119218126Y-114106876D01*
X119212746Y-114099697D01*
X119212744Y-114099694D01*
X119137528Y-113999335D01*
X119132146Y-113992154D01*
X119124965Y-113986772D01*
X119024606Y-113911556D01*
X119024603Y-113911554D01*
X119017424Y-113906174D01*
X118928039Y-113872666D01*
X118890575Y-113858621D01*
X118890573Y-113858621D01*
X118883180Y-113855849D01*
X118875330Y-113854996D01*
X118875329Y-113854996D01*
X118825374Y-113849569D01*
X118825373Y-113849569D01*
X118821977Y-113849200D01*
X118805562Y-113849200D01*
X118326099Y-113849201D01*
X118257979Y-113829199D01*
X118211486Y-113775544D01*
X118200100Y-113723201D01*
X118200100Y-113502352D01*
X118220102Y-113434231D01*
X118236927Y-113413334D01*
X118242660Y-113407591D01*
X118247831Y-113402411D01*
X118255632Y-113389755D01*
X118332763Y-113264627D01*
X118332764Y-113264625D01*
X118336603Y-113258397D01*
X118389863Y-113097824D01*
X118400100Y-112997907D01*
X118400099Y-112401494D01*
X118397227Y-112373806D01*
X118394852Y-112350917D01*
X118389603Y-112300328D01*
X118336063Y-112139848D01*
X118247040Y-111995989D01*
X118127311Y-111876469D01*
X117983297Y-111787697D01*
X117822724Y-111734437D01*
X117815888Y-111733737D01*
X117815885Y-111733736D01*
X117765803Y-111728605D01*
X117722807Y-111724200D01*
X117451707Y-111724200D01*
X117176394Y-111724201D01*
X117173150Y-111724538D01*
X117173142Y-111724538D01*
X117128720Y-111729147D01*
X117075228Y-111734697D01*
X116914748Y-111788237D01*
X116835801Y-111837091D01*
X116777116Y-111873406D01*
X116777113Y-111873409D01*
X116770889Y-111877260D01*
X116763685Y-111884477D01*
X116761952Y-111885425D01*
X116759979Y-111886989D01*
X116759711Y-111886651D01*
X116701403Y-111918558D01*
X116630583Y-111913557D01*
X116585490Y-111884634D01*
X116582491Y-111881640D01*
X116577311Y-111876469D01*
X116433297Y-111787697D01*
X116272724Y-111734437D01*
X116265888Y-111733737D01*
X116265885Y-111733736D01*
X116215803Y-111728605D01*
X116172807Y-111724200D01*
X115901707Y-111724200D01*
X115626394Y-111724201D01*
X115623150Y-111724538D01*
X115623142Y-111724538D01*
X115578720Y-111729147D01*
X115525228Y-111734697D01*
X115364748Y-111788237D01*
X115220889Y-111877260D01*
X115101369Y-111996989D01*
X115097529Y-112003219D01*
X115097528Y-112003220D01*
X115057037Y-112068909D01*
X115012597Y-112141003D01*
X114959337Y-112301576D01*
X114958637Y-112308412D01*
X114958636Y-112308415D01*
X114955285Y-112341124D01*
X114949100Y-112401493D01*
X114949101Y-112997906D01*
X114959597Y-113099072D01*
X115013137Y-113259552D01*
X115102160Y-113403411D01*
X115107343Y-113408585D01*
X115112119Y-113413353D01*
X115146198Y-113475637D01*
X115149100Y-113502525D01*
X115149100Y-113723200D01*
X115129098Y-113791321D01*
X115075442Y-113837814D01*
X115023100Y-113849200D01*
X114730252Y-113849201D01*
X114588300Y-113849201D01*
X114520180Y-113829199D01*
X114473686Y-113775544D01*
X114462300Y-113723201D01*
X114462300Y-111727970D01*
X114462349Y-111724451D01*
X114464582Y-111644529D01*
X114464582Y-111644526D01*
X114464760Y-111638147D01*
X114463652Y-111631862D01*
X114463651Y-111631852D01*
X114454284Y-111578734D01*
X114453014Y-111569585D01*
X114452082Y-111560408D01*
X114446920Y-111509584D01*
X114438309Y-111482107D01*
X114434461Y-111466319D01*
X114430573Y-111444269D01*
X114429464Y-111437979D01*
X114407262Y-111381900D01*
X114404181Y-111373201D01*
X114394115Y-111341082D01*
X114386138Y-111315628D01*
X114372189Y-111290464D01*
X114365239Y-111275762D01*
X114356992Y-111254933D01*
X114356992Y-111254932D01*
X114354641Y-111248995D01*
X114321615Y-111198527D01*
X114316844Y-111190620D01*
X114290691Y-111143437D01*
X114290689Y-111143434D01*
X114287597Y-111137856D01*
X114268868Y-111116005D01*
X114259103Y-111102999D01*
X114245998Y-111082972D01*
X114245997Y-111082970D01*
X114243345Y-111078918D01*
X114238883Y-111073962D01*
X114199978Y-111035057D01*
X114193405Y-111027960D01*
X114159477Y-110988376D01*
X114155323Y-110983529D01*
X114150282Y-110979618D01*
X114150279Y-110979616D01*
X114130942Y-110964617D01*
X114119074Y-110954153D01*
X114037405Y-110872484D01*
X114003379Y-110810172D01*
X114000500Y-110783389D01*
X114000500Y-110340054D01*
X114020502Y-110271933D01*
X114074158Y-110225440D01*
X114144432Y-110215336D01*
X114209012Y-110244830D01*
X114235619Y-110277054D01*
X114267467Y-110332216D01*
X114271885Y-110337123D01*
X114271886Y-110337124D01*
X114366197Y-110441866D01*
X114394129Y-110472888D01*
X114399468Y-110476767D01*
X114468325Y-110526794D01*
X114547270Y-110584151D01*
X114720197Y-110661144D01*
X114810179Y-110680270D01*
X114898897Y-110699128D01*
X114898901Y-110699128D01*
X114905354Y-110700500D01*
X115094646Y-110700500D01*
X115101099Y-110699128D01*
X115101103Y-110699128D01*
X115189821Y-110680270D01*
X115279803Y-110661144D01*
X115452730Y-110584151D01*
X115531676Y-110526794D01*
X115600532Y-110476767D01*
X115605871Y-110472888D01*
X115633804Y-110441866D01*
X115728114Y-110337124D01*
X115728115Y-110337123D01*
X115732533Y-110332216D01*
X115827179Y-110168284D01*
X115885674Y-109988256D01*
X115887423Y-109971620D01*
X115904770Y-109806565D01*
X115905460Y-109800000D01*
X115885674Y-109611744D01*
X115827179Y-109431716D01*
X115800021Y-109384676D01*
X115774757Y-109340918D01*
X115767381Y-109328143D01*
X115750500Y-109265143D01*
X115750500Y-108613082D01*
X115770502Y-108544961D01*
X115787321Y-108524072D01*
X115842984Y-108468311D01*
X115934814Y-108319334D01*
X115989910Y-108153228D01*
X116000500Y-108049866D01*
X116000500Y-104549866D01*
X118099500Y-104549866D01*
X118099837Y-104553112D01*
X118099837Y-104553116D01*
X118109515Y-104646383D01*
X118110359Y-104654519D01*
X118165744Y-104820529D01*
X118257834Y-104969345D01*
X118381689Y-105092984D01*
X118530666Y-105184814D01*
X118537614Y-105187119D01*
X118537615Y-105187119D01*
X118690241Y-105237744D01*
X118690243Y-105237745D01*
X118696772Y-105239910D01*
X118800134Y-105250500D01*
X119999866Y-105250500D01*
X120003112Y-105250163D01*
X120003116Y-105250163D01*
X120097661Y-105240353D01*
X120097665Y-105240352D01*
X120104519Y-105239641D01*
X120111055Y-105237460D01*
X120111057Y-105237460D01*
X120263581Y-105186574D01*
X120270529Y-105184256D01*
X120419345Y-105092166D01*
X120542984Y-104968311D01*
X120634814Y-104819334D01*
X120637119Y-104812385D01*
X120687744Y-104659759D01*
X120687745Y-104659757D01*
X120689910Y-104653228D01*
X120700500Y-104549866D01*
X120700500Y-104042095D01*
X124145028Y-104042095D01*
X124170534Y-104309431D01*
X124234364Y-104570285D01*
X124236076Y-104574511D01*
X124236077Y-104574515D01*
X124302506Y-104738519D01*
X124335182Y-104819192D01*
X124470875Y-105050938D01*
X124473728Y-105054505D01*
X124630469Y-105250500D01*
X124638601Y-105260669D01*
X124834846Y-105443991D01*
X124927039Y-105507948D01*
X125051746Y-105594461D01*
X125051751Y-105594464D01*
X125055499Y-105597064D01*
X125059584Y-105599096D01*
X125059587Y-105599098D01*
X125175719Y-105656872D01*
X125295938Y-105716680D01*
X125300272Y-105718101D01*
X125300275Y-105718102D01*
X125546793Y-105798915D01*
X125546798Y-105798916D01*
X125551126Y-105800335D01*
X125555617Y-105801115D01*
X125555618Y-105801115D01*
X125811936Y-105845620D01*
X125811944Y-105845621D01*
X125815717Y-105846276D01*
X125819554Y-105846467D01*
X125898996Y-105850422D01*
X125899004Y-105850422D01*
X125900567Y-105850500D01*
X126068223Y-105850500D01*
X126070491Y-105850335D01*
X126070503Y-105850335D01*
X126200823Y-105840879D01*
X126267846Y-105836016D01*
X126272301Y-105835032D01*
X126272304Y-105835032D01*
X126525620Y-105779105D01*
X126525624Y-105779104D01*
X126530080Y-105778120D01*
X126697617Y-105714646D01*
X126776941Y-105684593D01*
X126776944Y-105684592D01*
X126781211Y-105682975D01*
X127015976Y-105552574D01*
X127158254Y-105443991D01*
X127225833Y-105392417D01*
X127225837Y-105392413D01*
X127229458Y-105389650D01*
X127417185Y-105197614D01*
X127490548Y-105096825D01*
X127572538Y-104984183D01*
X127572540Y-104984180D01*
X127575225Y-104980491D01*
X127634659Y-104867525D01*
X127698140Y-104746868D01*
X127698143Y-104746862D01*
X127700265Y-104742828D01*
X127729142Y-104661057D01*
X127788165Y-104493916D01*
X127788165Y-104493915D01*
X127789688Y-104489603D01*
X127841620Y-104226122D01*
X127841847Y-104221566D01*
X127854745Y-103962474D01*
X127854745Y-103962468D01*
X127854972Y-103957905D01*
X127829466Y-103690569D01*
X127765636Y-103429715D01*
X127664818Y-103180808D01*
X127529125Y-102949062D01*
X127418211Y-102810371D01*
X127364251Y-102742897D01*
X127364250Y-102742895D01*
X127361399Y-102739331D01*
X127165154Y-102556009D01*
X127005436Y-102445208D01*
X126948254Y-102405539D01*
X126948249Y-102405536D01*
X126944501Y-102402936D01*
X126940416Y-102400904D01*
X126940413Y-102400902D01*
X126768560Y-102315407D01*
X126704062Y-102283320D01*
X126699728Y-102281899D01*
X126699725Y-102281898D01*
X126453207Y-102201085D01*
X126453202Y-102201084D01*
X126448874Y-102199665D01*
X126444382Y-102198885D01*
X126188064Y-102154380D01*
X126188056Y-102154379D01*
X126184283Y-102153724D01*
X126175622Y-102153293D01*
X126101004Y-102149578D01*
X126100996Y-102149578D01*
X126099433Y-102149500D01*
X125931777Y-102149500D01*
X125929509Y-102149665D01*
X125929497Y-102149665D01*
X125799177Y-102159121D01*
X125732154Y-102163984D01*
X125727699Y-102164968D01*
X125727696Y-102164968D01*
X125474380Y-102220895D01*
X125474376Y-102220896D01*
X125469920Y-102221880D01*
X125363349Y-102262256D01*
X125223059Y-102315407D01*
X125223056Y-102315408D01*
X125218789Y-102317025D01*
X124984024Y-102447426D01*
X124980392Y-102450198D01*
X124774167Y-102607583D01*
X124774163Y-102607587D01*
X124770542Y-102610350D01*
X124767357Y-102613608D01*
X124767356Y-102613609D01*
X124710948Y-102671312D01*
X124582815Y-102802386D01*
X124580130Y-102806075D01*
X124472895Y-102953400D01*
X124424775Y-103019509D01*
X124422651Y-103023547D01*
X124301860Y-103253132D01*
X124301857Y-103253138D01*
X124299735Y-103257172D01*
X124298215Y-103261477D01*
X124298213Y-103261481D01*
X124238804Y-103429715D01*
X124210312Y-103510397D01*
X124158380Y-103773878D01*
X124158153Y-103778431D01*
X124158153Y-103778434D01*
X124148992Y-103962474D01*
X124145028Y-104042095D01*
X120700500Y-104042095D01*
X120700500Y-101950134D01*
X120700163Y-101946884D01*
X120690353Y-101852339D01*
X120690352Y-101852335D01*
X120689641Y-101845481D01*
X120634256Y-101679471D01*
X120542166Y-101530655D01*
X120418311Y-101407016D01*
X120269334Y-101315186D01*
X120262385Y-101312881D01*
X120109759Y-101262256D01*
X120109757Y-101262255D01*
X120103228Y-101260090D01*
X119999866Y-101249500D01*
X118800134Y-101249500D01*
X118796888Y-101249837D01*
X118796884Y-101249837D01*
X118702339Y-101259647D01*
X118702335Y-101259648D01*
X118695481Y-101260359D01*
X118688945Y-101262540D01*
X118688943Y-101262540D01*
X118549860Y-101308942D01*
X118529471Y-101315744D01*
X118380655Y-101407834D01*
X118257016Y-101531689D01*
X118165186Y-101680666D01*
X118110090Y-101846772D01*
X118099500Y-101950134D01*
X118099500Y-104549866D01*
X116000500Y-104549866D01*
X116000500Y-102950134D01*
X115989641Y-102845481D01*
X115975264Y-102802386D01*
X115936574Y-102686419D01*
X115934256Y-102679471D01*
X115842166Y-102530655D01*
X115718311Y-102407016D01*
X115569334Y-102315186D01*
X115562385Y-102312881D01*
X115409759Y-102262256D01*
X115409757Y-102262255D01*
X115403228Y-102260090D01*
X115299866Y-102249500D01*
X114700134Y-102249500D01*
X114696888Y-102249837D01*
X114696884Y-102249837D01*
X114602339Y-102259647D01*
X114602335Y-102259648D01*
X114595481Y-102260359D01*
X114588945Y-102262540D01*
X114588943Y-102262540D01*
X114530920Y-102281898D01*
X114429471Y-102315744D01*
X114280655Y-102407834D01*
X114157016Y-102531689D01*
X114153177Y-102537917D01*
X114153175Y-102537920D01*
X114107268Y-102612395D01*
X114054496Y-102659888D01*
X113984424Y-102671312D01*
X113919300Y-102643038D01*
X113892864Y-102612582D01*
X113846020Y-102536883D01*
X113842166Y-102530655D01*
X113718311Y-102407016D01*
X113569334Y-102315186D01*
X113562385Y-102312881D01*
X113409759Y-102262256D01*
X113409757Y-102262255D01*
X113403228Y-102260090D01*
X113299866Y-102249500D01*
X112700134Y-102249500D01*
X112696888Y-102249837D01*
X112696884Y-102249837D01*
X112602339Y-102259647D01*
X112602335Y-102259648D01*
X112595481Y-102260359D01*
X112588945Y-102262540D01*
X112588943Y-102262540D01*
X112530920Y-102281898D01*
X112429471Y-102315744D01*
X112280655Y-102407834D01*
X112157016Y-102531689D01*
X112133759Y-102569418D01*
X112080989Y-102616911D01*
X112010917Y-102628335D01*
X111945793Y-102600062D01*
X111906293Y-102541068D01*
X111900500Y-102503302D01*
X111900500Y-101950134D01*
X111900163Y-101946884D01*
X111890353Y-101852339D01*
X111890352Y-101852335D01*
X111889641Y-101845481D01*
X111834256Y-101679471D01*
X111742166Y-101530655D01*
X111618311Y-101407016D01*
X111469334Y-101315186D01*
X111462385Y-101312881D01*
X111309759Y-101262256D01*
X111309757Y-101262255D01*
X111303228Y-101260090D01*
X111199866Y-101249500D01*
X110000134Y-101249500D01*
X109996888Y-101249837D01*
X109996884Y-101249837D01*
X109902339Y-101259647D01*
X109902335Y-101259648D01*
X109895481Y-101260359D01*
X109888945Y-101262540D01*
X109888943Y-101262540D01*
X109749860Y-101308942D01*
X109729471Y-101315744D01*
X109580655Y-101407834D01*
X109457016Y-101531689D01*
X109365186Y-101680666D01*
X109310090Y-101846772D01*
X109299500Y-101950134D01*
X109299500Y-104549866D01*
X109299837Y-104553112D01*
X109299837Y-104553116D01*
X109309515Y-104646383D01*
X109310359Y-104654519D01*
X109365744Y-104820529D01*
X109457834Y-104969345D01*
X109581689Y-105092984D01*
X109730666Y-105184814D01*
X109737614Y-105187119D01*
X109737615Y-105187119D01*
X109890241Y-105237744D01*
X109890243Y-105237745D01*
X109896772Y-105239910D01*
X110000134Y-105250500D01*
X111199866Y-105250500D01*
X111203112Y-105250163D01*
X111203116Y-105250163D01*
X111297661Y-105240353D01*
X111297665Y-105240352D01*
X111304519Y-105239641D01*
X111311055Y-105237460D01*
X111311057Y-105237460D01*
X111463581Y-105186574D01*
X111470529Y-105184256D01*
X111619345Y-105092166D01*
X111742984Y-104968311D01*
X111766241Y-104930582D01*
X111819011Y-104883089D01*
X111889083Y-104871665D01*
X111954207Y-104899938D01*
X111993707Y-104958932D01*
X111999500Y-104996698D01*
X111999500Y-110783389D01*
X111979498Y-110851510D01*
X111962595Y-110872484D01*
X110462318Y-112372761D01*
X110400006Y-112406787D01*
X110329191Y-112401722D01*
X110284128Y-112372761D01*
X108662404Y-110751037D01*
X108628378Y-110688725D01*
X108625499Y-110661942D01*
X108625499Y-110526794D01*
X108615003Y-110425628D01*
X108561463Y-110265148D01*
X108472440Y-110121289D01*
X108352711Y-110001769D01*
X108208697Y-109912997D01*
X108048124Y-109859737D01*
X108041288Y-109859037D01*
X108041285Y-109859036D01*
X107991203Y-109853905D01*
X107948207Y-109849500D01*
X107652300Y-109849500D01*
X107351794Y-109849501D01*
X107348550Y-109849838D01*
X107348542Y-109849838D01*
X107304120Y-109854447D01*
X107250628Y-109859997D01*
X107090148Y-109913537D01*
X106946289Y-110002560D01*
X106826769Y-110122289D01*
X106822929Y-110128519D01*
X106822928Y-110128520D01*
X106769414Y-110215336D01*
X106737997Y-110266303D01*
X106684737Y-110426876D01*
X106674500Y-110526793D01*
X106674501Y-111073206D01*
X106674838Y-111076450D01*
X106674838Y-111076458D01*
X106678941Y-111116005D01*
X106684997Y-111174372D01*
X106738537Y-111334852D01*
X106827560Y-111478711D01*
X106947289Y-111598231D01*
X107091303Y-111687003D01*
X107251876Y-111740263D01*
X107258712Y-111740963D01*
X107258715Y-111740964D01*
X107308797Y-111746095D01*
X107351793Y-111750500D01*
X107486943Y-111750500D01*
X107555064Y-111770502D01*
X107576038Y-111787405D01*
X108228657Y-112440024D01*
X108262683Y-112502336D01*
X108257618Y-112573151D01*
X108215071Y-112629987D01*
X108205865Y-112636263D01*
X108159411Y-112665010D01*
X108107648Y-112697042D01*
X108088395Y-112716329D01*
X108077823Y-112726919D01*
X108015540Y-112760998D01*
X107944720Y-112755995D01*
X107899633Y-112727074D01*
X107873945Y-112701430D01*
X107873935Y-112701422D01*
X107868761Y-112696257D01*
X107847772Y-112683319D01*
X107771431Y-112636263D01*
X107725987Y-112608251D01*
X107566798Y-112555450D01*
X107559965Y-112554750D01*
X107559961Y-112554749D01*
X107507354Y-112549359D01*
X107467735Y-112545300D01*
X107203256Y-112545300D01*
X106934666Y-112545301D01*
X106834365Y-112555707D01*
X106827834Y-112557886D01*
X106827829Y-112557887D01*
X106691115Y-112603499D01*
X106675268Y-112608786D01*
X106532648Y-112697042D01*
X106414157Y-112815739D01*
X106326151Y-112958513D01*
X106323846Y-112965461D01*
X106323846Y-112965462D01*
X106312023Y-113001106D01*
X106273350Y-113117702D01*
X106263200Y-113216765D01*
X100500000Y-113216765D01*
X100500000Y-104042095D01*
X102145028Y-104042095D01*
X102170534Y-104309431D01*
X102234364Y-104570285D01*
X102236076Y-104574511D01*
X102236077Y-104574515D01*
X102302506Y-104738519D01*
X102335182Y-104819192D01*
X102470875Y-105050938D01*
X102473728Y-105054505D01*
X102630469Y-105250500D01*
X102638601Y-105260669D01*
X102834846Y-105443991D01*
X102927039Y-105507948D01*
X103051746Y-105594461D01*
X103051751Y-105594464D01*
X103055499Y-105597064D01*
X103059584Y-105599096D01*
X103059587Y-105599098D01*
X103175719Y-105656872D01*
X103295938Y-105716680D01*
X103300272Y-105718101D01*
X103300275Y-105718102D01*
X103546793Y-105798915D01*
X103546798Y-105798916D01*
X103551126Y-105800335D01*
X103555617Y-105801115D01*
X103555618Y-105801115D01*
X103811936Y-105845620D01*
X103811944Y-105845621D01*
X103815717Y-105846276D01*
X103819554Y-105846467D01*
X103898996Y-105850422D01*
X103899004Y-105850422D01*
X103900567Y-105850500D01*
X104068223Y-105850500D01*
X104070491Y-105850335D01*
X104070503Y-105850335D01*
X104200823Y-105840879D01*
X104267846Y-105836016D01*
X104272301Y-105835032D01*
X104272304Y-105835032D01*
X104525620Y-105779105D01*
X104525624Y-105779104D01*
X104530080Y-105778120D01*
X104697617Y-105714646D01*
X104776941Y-105684593D01*
X104776944Y-105684592D01*
X104781211Y-105682975D01*
X105015976Y-105552574D01*
X105158254Y-105443991D01*
X105225833Y-105392417D01*
X105225837Y-105392413D01*
X105229458Y-105389650D01*
X105417185Y-105197614D01*
X105490548Y-105096825D01*
X105572538Y-104984183D01*
X105572540Y-104984180D01*
X105575225Y-104980491D01*
X105634659Y-104867525D01*
X105698140Y-104746868D01*
X105698143Y-104746862D01*
X105700265Y-104742828D01*
X105729142Y-104661057D01*
X105788165Y-104493916D01*
X105788165Y-104493915D01*
X105789688Y-104489603D01*
X105841620Y-104226122D01*
X105841847Y-104221566D01*
X105854745Y-103962474D01*
X105854745Y-103962468D01*
X105854972Y-103957905D01*
X105829466Y-103690569D01*
X105765636Y-103429715D01*
X105664818Y-103180808D01*
X105529125Y-102949062D01*
X105418211Y-102810371D01*
X105364251Y-102742897D01*
X105364250Y-102742895D01*
X105361399Y-102739331D01*
X105165154Y-102556009D01*
X105005436Y-102445208D01*
X104948254Y-102405539D01*
X104948249Y-102405536D01*
X104944501Y-102402936D01*
X104940416Y-102400904D01*
X104940413Y-102400902D01*
X104768560Y-102315407D01*
X104704062Y-102283320D01*
X104699728Y-102281899D01*
X104699725Y-102281898D01*
X104453207Y-102201085D01*
X104453202Y-102201084D01*
X104448874Y-102199665D01*
X104444382Y-102198885D01*
X104188064Y-102154380D01*
X104188056Y-102154379D01*
X104184283Y-102153724D01*
X104175622Y-102153293D01*
X104101004Y-102149578D01*
X104100996Y-102149578D01*
X104099433Y-102149500D01*
X103931777Y-102149500D01*
X103929509Y-102149665D01*
X103929497Y-102149665D01*
X103799177Y-102159121D01*
X103732154Y-102163984D01*
X103727699Y-102164968D01*
X103727696Y-102164968D01*
X103474380Y-102220895D01*
X103474376Y-102220896D01*
X103469920Y-102221880D01*
X103363349Y-102262256D01*
X103223059Y-102315407D01*
X103223056Y-102315408D01*
X103218789Y-102317025D01*
X102984024Y-102447426D01*
X102980392Y-102450198D01*
X102774167Y-102607583D01*
X102774163Y-102607587D01*
X102770542Y-102610350D01*
X102767357Y-102613608D01*
X102767356Y-102613609D01*
X102710948Y-102671312D01*
X102582815Y-102802386D01*
X102580130Y-102806075D01*
X102472895Y-102953400D01*
X102424775Y-103019509D01*
X102422651Y-103023547D01*
X102301860Y-103253132D01*
X102301857Y-103253138D01*
X102299735Y-103257172D01*
X102298215Y-103261477D01*
X102298213Y-103261481D01*
X102238804Y-103429715D01*
X102210312Y-103510397D01*
X102158380Y-103773878D01*
X102158153Y-103778431D01*
X102158153Y-103778434D01*
X102148992Y-103962474D01*
X102145028Y-104042095D01*
X100500000Y-104042095D01*
X100500000Y-100626000D01*
X100520002Y-100557879D01*
X100573658Y-100511386D01*
X100626000Y-100500000D01*
X129374000Y-100500000D01*
X129442121Y-100520002D01*
G37*
%TD.AperFunction*%
%TD*%
M02*
