%TF.GenerationSoftware,KiCad,Pcbnew,(6.0.1)*%
%TF.CreationDate,2022-02-12T11:42:24+00:00*%
%TF.ProjectId,LowPass_7mm,4c6f7750-6173-4735-9f37-6d6d2e6b6963,rev?*%
%TF.SameCoordinates,Original*%
%TF.FileFunction,Copper,L1,Top*%
%TF.FilePolarity,Positive*%
%FSLAX46Y46*%
G04 Gerber Fmt 4.6, Leading zero omitted, Abs format (unit mm)*
G04 Created by KiCad (PCBNEW (6.0.1)) date 2022-02-12 11:42:24*
%MOMM*%
%LPD*%
G01*
G04 APERTURE LIST*
G04 Aperture macros list*
%AMRoundRect*
0 Rectangle with rounded corners*
0 $1 Rounding radius*
0 $2 $3 $4 $5 $6 $7 $8 $9 X,Y pos of 4 corners*
0 Add a 4 corners polygon primitive as box body*
4,1,4,$2,$3,$4,$5,$6,$7,$8,$9,$2,$3,0*
0 Add four circle primitives for the rounded corners*
1,1,$1+$1,$2,$3*
1,1,$1+$1,$4,$5*
1,1,$1+$1,$6,$7*
1,1,$1+$1,$8,$9*
0 Add four rect primitives between the rounded corners*
20,1,$1+$1,$2,$3,$4,$5,0*
20,1,$1+$1,$4,$5,$6,$7,0*
20,1,$1+$1,$6,$7,$8,$9,0*
20,1,$1+$1,$8,$9,$2,$3,0*%
G04 Aperture macros list end*
%TA.AperFunction,SMDPad,CuDef*%
%ADD10RoundRect,0.225000X0.250000X-0.225000X0.250000X0.225000X-0.250000X0.225000X-0.250000X-0.225000X0*%
%TD*%
%TA.AperFunction,SMDPad,CuDef*%
%ADD11R,1.500000X0.600000*%
%TD*%
%TA.AperFunction,SMDPad,CuDef*%
%ADD12R,0.600000X1.500000*%
%TD*%
%TA.AperFunction,SMDPad,CuDef*%
%ADD13RoundRect,0.225000X-0.250000X0.225000X-0.250000X-0.225000X0.250000X-0.225000X0.250000X0.225000X0*%
%TD*%
%TA.AperFunction,SMDPad,CuDef*%
%ADD14RoundRect,0.225000X0.225000X0.250000X-0.225000X0.250000X-0.225000X-0.250000X0.225000X-0.250000X0*%
%TD*%
%TA.AperFunction,SMDPad,CuDef*%
%ADD15R,3.600000X1.270000*%
%TD*%
%TA.AperFunction,SMDPad,CuDef*%
%ADD16R,4.200000X1.350000*%
%TD*%
%TA.AperFunction,SMDPad,CuDef*%
%ADD17RoundRect,0.225000X-0.225000X-0.250000X0.225000X-0.250000X0.225000X0.250000X-0.225000X0.250000X0*%
%TD*%
%TA.AperFunction,ViaPad*%
%ADD18C,0.800000*%
%TD*%
%TA.AperFunction,Conductor*%
%ADD19C,1.500000*%
%TD*%
G04 APERTURE END LIST*
D10*
%TO.P,C4,1*%
%TO.N,Net-(C3-Pad1)*%
X113411000Y-113500200D03*
%TO.P,C4,2*%
%TO.N,GND*%
X113411000Y-111950200D03*
%TD*%
D11*
%TO.P,L1,1,1*%
%TO.N,Net-(C1-Pad1)*%
X106481200Y-112189600D03*
%TO.P,L1,2,2*%
%TO.N,Net-(C3-Pad1)*%
X113381200Y-115089600D03*
%TD*%
D12*
%TO.P,L2,1,1*%
%TO.N,Net-(C3-Pad1)*%
X115328700Y-116759400D03*
%TO.P,L2,2,2*%
%TO.N,Net-(C5-Pad1)*%
X118228700Y-109859400D03*
%TD*%
D10*
%TO.P,C1,1*%
%TO.N,Net-(C1-Pad1)*%
X106714800Y-110491400D03*
%TO.P,C1,2*%
%TO.N,GND*%
X106714800Y-108941400D03*
%TD*%
D11*
%TO.P,L3,1,1*%
%TO.N,Net-(C5-Pad1)*%
X121010000Y-109548000D03*
%TO.P,L3,2,2*%
%TO.N,Net-(C7-Pad1)*%
X127910000Y-112448000D03*
%TD*%
D13*
%TO.P,C8,1*%
%TO.N,Net-(C7-Pad1)*%
X127508000Y-114924200D03*
%TO.P,C8,2*%
%TO.N,GND*%
X127508000Y-116474200D03*
%TD*%
%TO.P,C2,1*%
%TO.N,Net-(C1-Pad1)*%
X106765600Y-113665800D03*
%TO.P,C2,2*%
%TO.N,GND*%
X106765600Y-115215800D03*
%TD*%
%TO.P,C6,1*%
%TO.N,Net-(C5-Pad1)*%
X120636400Y-112610600D03*
%TO.P,C6,2*%
%TO.N,GND*%
X120636400Y-114160600D03*
%TD*%
D14*
%TO.P,C5,1*%
%TO.N,Net-(C5-Pad1)*%
X116678300Y-109702600D03*
%TO.P,C5,2*%
%TO.N,GND*%
X115128300Y-109702600D03*
%TD*%
D15*
%TO.P,J2,1,In*%
%TO.N,Net-(C7-Pad1)*%
X133000000Y-112500000D03*
D16*
%TO.P,J2,2,Ext*%
%TO.N,GND*%
X132800000Y-109675000D03*
X132800000Y-115325000D03*
%TD*%
D15*
%TO.P,J1,1,In*%
%TO.N,Net-(C1-Pad1)*%
X102000000Y-112500000D03*
D16*
%TO.P,J1,2,Ext*%
%TO.N,GND*%
X102200000Y-109675000D03*
X102200000Y-115325000D03*
%TD*%
D10*
%TO.P,C7,1*%
%TO.N,Net-(C7-Pad1)*%
X127508000Y-109946400D03*
%TO.P,C7,2*%
%TO.N,GND*%
X127508000Y-108396400D03*
%TD*%
D17*
%TO.P,C3,1*%
%TO.N,Net-(C3-Pad1)*%
X116791100Y-117017800D03*
%TO.P,C3,2*%
%TO.N,GND*%
X118341100Y-117017800D03*
%TD*%
D18*
%TO.N,GND*%
X118135400Y-111734600D03*
X115163600Y-114782600D03*
X115112800Y-111556800D03*
X125679200Y-112496600D03*
X122961400Y-109067600D03*
X111353600Y-112369600D03*
X125704600Y-106781600D03*
X113588800Y-110337600D03*
X113893600Y-118719600D03*
X130784600Y-108231600D03*
X125679200Y-109651800D03*
X100660200Y-107492800D03*
X100685600Y-116840000D03*
X108331000Y-112826800D03*
X118556700Y-114249200D03*
X129387600Y-117883600D03*
X106807000Y-116662200D03*
X108254800Y-108737400D03*
X112090200Y-118237000D03*
X105410000Y-115062000D03*
X111379000Y-110083600D03*
X102387400Y-116890800D03*
X102133400Y-107442000D03*
X130708400Y-116969200D03*
X108315000Y-115025000D03*
X125780800Y-114657800D03*
X120661800Y-115570000D03*
X117566100Y-108051600D03*
X112344200Y-121031000D03*
X111379000Y-115189000D03*
X104114600Y-116814600D03*
X122809000Y-112649000D03*
X125806200Y-118137600D03*
X111810800Y-116636800D03*
X122885200Y-110871000D03*
X125933200Y-108204000D03*
X127127000Y-106883200D03*
X116255800Y-118745000D03*
X122211200Y-114249200D03*
X125831600Y-116611400D03*
X103759000Y-107543600D03*
X108280200Y-110871000D03*
X105308400Y-109270800D03*
X127330200Y-118086800D03*
X106629200Y-107289600D03*
X120331600Y-117144800D03*
X114681000Y-108229400D03*
X121666000Y-108204000D03*
X119507000Y-108254800D03*
X118429700Y-118618000D03*
X129133600Y-107291800D03*
%TD*%
D19*
%TO.N,Net-(C7-Pad1)*%
X129577700Y-112448000D02*
X129600900Y-112424800D01*
X127910000Y-112448000D02*
X129577700Y-112448000D01*
%TO.N,Net-(C5-Pad1)*%
X121010000Y-112237000D02*
X120636400Y-112610600D01*
X121010000Y-109548000D02*
X121010000Y-112237000D01*
X120698600Y-109859400D02*
X118228700Y-109859400D01*
X121010000Y-109548000D02*
X120698600Y-109859400D01*
%TO.N,Net-(C1-Pad1)*%
X106481200Y-112189600D02*
X102310400Y-112189600D01*
X102310400Y-112189600D02*
X102000000Y-112500000D01*
X106481200Y-113381400D02*
X106765600Y-113665800D01*
X106481200Y-112189600D02*
X106481200Y-113381400D01*
X106481200Y-110725000D02*
X106714800Y-110491400D01*
X106481200Y-112189600D02*
X106481200Y-110725000D01*
%TO.N,Net-(C3-Pad1)*%
X113381200Y-116858500D02*
X113502100Y-116979400D01*
X113381200Y-115089600D02*
X113381200Y-116858500D01*
X113411000Y-115059800D02*
X113381200Y-115089600D01*
X113411000Y-113500200D02*
X113411000Y-115059800D01*
%TO.N,GND*%
X128124180Y-116623720D02*
X125882400Y-116623720D01*
X128047980Y-108246880D02*
X125882400Y-108246880D01*
%TO.N,Net-(C3-Pad1)*%
X113502100Y-116979400D02*
X114734300Y-116979400D01*
X116791100Y-117017800D02*
X115587100Y-117017800D01*
X115587100Y-117017800D02*
X115328700Y-116759400D01*
%TO.N,Net-(C5-Pad1)*%
X116817100Y-109626400D02*
X117995700Y-109626400D01*
X117995700Y-109626400D02*
X118228700Y-109859400D01*
%TO.N,Net-(C7-Pad1)*%
X127508000Y-114924200D02*
X127508000Y-112928400D01*
X129649500Y-112473400D02*
X129727900Y-112395000D01*
X129727900Y-112395000D02*
X133027700Y-112395000D01*
X127508000Y-112928400D02*
X128011600Y-112424800D01*
X129600900Y-112424800D02*
X129649500Y-112473400D01*
X127508000Y-109946400D02*
X127508000Y-111921200D01*
X127508000Y-111921200D02*
X128011600Y-112424800D01*
%TD*%
%TA.AperFunction,Conductor*%
%TO.N,GND*%
G36*
X134442121Y-100520002D02*
G01*
X134488614Y-100573658D01*
X134500000Y-100626000D01*
X134500000Y-108366000D01*
X134479998Y-108434121D01*
X134426342Y-108480614D01*
X134374000Y-108492000D01*
X133072115Y-108492000D01*
X133056876Y-108496475D01*
X133055671Y-108497865D01*
X133054000Y-108505548D01*
X133054000Y-110839884D01*
X133058475Y-110855123D01*
X133059865Y-110856328D01*
X133067548Y-110857999D01*
X134374000Y-110857999D01*
X134442121Y-110878001D01*
X134488614Y-110931657D01*
X134500000Y-110983999D01*
X134500000Y-111238500D01*
X134479998Y-111306621D01*
X134426342Y-111353114D01*
X134374000Y-111364500D01*
X133774572Y-111364500D01*
X133707616Y-111345237D01*
X133661120Y-111316070D01*
X133597710Y-111276293D01*
X133390595Y-111193034D01*
X133385107Y-111191897D01*
X133385102Y-111191896D01*
X133192566Y-111152024D01*
X133172010Y-111147767D01*
X133167397Y-111147501D01*
X133117174Y-111144605D01*
X133117170Y-111144605D01*
X133115351Y-111144500D01*
X129818754Y-111144500D01*
X129802308Y-111143422D01*
X129786037Y-111141280D01*
X129780477Y-111140548D01*
X129774877Y-111140812D01*
X129774876Y-111140812D01*
X129699642Y-111144360D01*
X129693707Y-111144500D01*
X129671270Y-111144500D01*
X129668486Y-111144748D01*
X129668474Y-111144749D01*
X129645439Y-111146805D01*
X129640176Y-111147164D01*
X129604103Y-111148865D01*
X129557502Y-111151063D01*
X129552039Y-111152314D01*
X129552033Y-111152315D01*
X129540189Y-111155028D01*
X129523255Y-111157710D01*
X129505561Y-111159289D01*
X129500145Y-111160771D01*
X129500143Y-111160771D01*
X129425723Y-111181130D01*
X129420609Y-111182415D01*
X129368627Y-111194320D01*
X129340500Y-111197500D01*
X128884500Y-111197500D01*
X128816379Y-111177498D01*
X128769886Y-111123842D01*
X128758500Y-111071500D01*
X128758500Y-110394669D01*
X130192001Y-110394669D01*
X130192371Y-110401490D01*
X130197895Y-110452352D01*
X130201521Y-110467604D01*
X130246676Y-110588054D01*
X130255214Y-110603649D01*
X130331715Y-110705724D01*
X130344276Y-110718285D01*
X130446351Y-110794786D01*
X130461946Y-110803324D01*
X130582394Y-110848478D01*
X130597649Y-110852105D01*
X130648514Y-110857631D01*
X130655328Y-110858000D01*
X132527885Y-110858000D01*
X132543124Y-110853525D01*
X132544329Y-110852135D01*
X132546000Y-110844452D01*
X132546000Y-109947115D01*
X132541525Y-109931876D01*
X132540135Y-109930671D01*
X132532452Y-109929000D01*
X130210116Y-109929000D01*
X130194877Y-109933475D01*
X130193672Y-109934865D01*
X130192001Y-109942548D01*
X130192001Y-110394669D01*
X128758500Y-110394669D01*
X128758500Y-109889770D01*
X128755904Y-109860676D01*
X128752041Y-109817403D01*
X128743711Y-109724061D01*
X128684808Y-109508749D01*
X128676526Y-109491384D01*
X128636331Y-109407114D01*
X128634314Y-109402885D01*
X130192000Y-109402885D01*
X130196475Y-109418124D01*
X130197865Y-109419329D01*
X130205548Y-109421000D01*
X132527885Y-109421000D01*
X132543124Y-109416525D01*
X132544329Y-109415135D01*
X132546000Y-109407452D01*
X132546000Y-108510116D01*
X132541525Y-108494877D01*
X132540135Y-108493672D01*
X132532452Y-108492001D01*
X130655331Y-108492001D01*
X130648510Y-108492371D01*
X130597648Y-108497895D01*
X130582396Y-108501521D01*
X130461946Y-108546676D01*
X130446351Y-108555214D01*
X130344276Y-108631715D01*
X130331715Y-108644276D01*
X130255214Y-108746351D01*
X130246676Y-108761946D01*
X130201522Y-108882394D01*
X130197895Y-108897649D01*
X130192369Y-108948514D01*
X130192000Y-108955328D01*
X130192000Y-109402885D01*
X128634314Y-109402885D01*
X128588708Y-109307271D01*
X128458448Y-109125995D01*
X128436985Y-109105196D01*
X128401985Y-109043426D01*
X128405937Y-108972540D01*
X128417410Y-108948596D01*
X128423004Y-108939520D01*
X128429151Y-108926339D01*
X128478491Y-108777586D01*
X128481358Y-108764210D01*
X128490672Y-108673303D01*
X128490929Y-108668274D01*
X128486525Y-108653276D01*
X128485135Y-108652071D01*
X128477452Y-108650400D01*
X126543115Y-108650400D01*
X126527876Y-108654875D01*
X126526671Y-108656265D01*
X126525000Y-108663948D01*
X126525000Y-108666838D01*
X126525337Y-108673353D01*
X126534894Y-108765457D01*
X126537788Y-108778856D01*
X126587381Y-108927507D01*
X126593554Y-108940683D01*
X126599713Y-108950637D01*
X126618550Y-109019089D01*
X126597388Y-109086858D01*
X126585762Y-109101738D01*
X126511691Y-109183141D01*
X126511686Y-109183148D01*
X126507914Y-109187293D01*
X126389293Y-109376390D01*
X126306034Y-109583505D01*
X126304897Y-109588993D01*
X126304896Y-109588998D01*
X126278048Y-109718642D01*
X126260767Y-109802090D01*
X126257500Y-109858749D01*
X126257500Y-111830338D01*
X126256422Y-111846785D01*
X126253547Y-111868622D01*
X126253812Y-111874234D01*
X126257360Y-111949471D01*
X126257500Y-111955407D01*
X126257500Y-111977830D01*
X126257750Y-111980628D01*
X126259804Y-112003652D01*
X126260163Y-112008913D01*
X126264063Y-112091598D01*
X126265314Y-112097061D01*
X126265315Y-112097067D01*
X126268028Y-112108911D01*
X126270710Y-112125845D01*
X126272289Y-112143539D01*
X126273771Y-112148955D01*
X126273771Y-112148957D01*
X126294131Y-112223381D01*
X126295417Y-112228499D01*
X126299257Y-112245266D01*
X126313897Y-112309187D01*
X126316095Y-112314341D01*
X126316099Y-112314352D01*
X126320866Y-112325526D01*
X126326505Y-112341716D01*
X126331192Y-112358851D01*
X126333610Y-112363920D01*
X126338461Y-112374091D01*
X126349734Y-112444187D01*
X126343508Y-112470393D01*
X126338775Y-112483759D01*
X126336910Y-112488697D01*
X126324871Y-112518646D01*
X126306034Y-112565505D01*
X126304898Y-112570991D01*
X126304896Y-112570997D01*
X126302430Y-112582906D01*
X126297825Y-112599402D01*
X126291892Y-112616156D01*
X126287880Y-112640658D01*
X126278514Y-112697849D01*
X126277552Y-112703037D01*
X126265826Y-112759663D01*
X126260767Y-112784090D01*
X126260501Y-112788701D01*
X126260501Y-112788702D01*
X126259177Y-112811661D01*
X126257730Y-112824764D01*
X126256726Y-112830898D01*
X126256726Y-112830904D01*
X126255818Y-112836446D01*
X126255906Y-112842060D01*
X126255906Y-112842062D01*
X126257484Y-112942505D01*
X126257500Y-112944484D01*
X126257500Y-114980830D01*
X126257749Y-114983617D01*
X126257749Y-114983623D01*
X126260431Y-115013674D01*
X126272289Y-115146539D01*
X126273770Y-115151953D01*
X126273771Y-115151958D01*
X126289275Y-115208629D01*
X126331192Y-115361851D01*
X126427292Y-115563329D01*
X126557552Y-115744605D01*
X126561584Y-115748512D01*
X126579015Y-115765404D01*
X126614015Y-115827174D01*
X126610063Y-115898060D01*
X126598590Y-115922004D01*
X126592996Y-115931080D01*
X126586849Y-115944261D01*
X126537509Y-116093014D01*
X126534642Y-116106390D01*
X126525328Y-116197297D01*
X126525071Y-116202326D01*
X126529475Y-116217324D01*
X126530865Y-116218529D01*
X126538548Y-116220200D01*
X128472885Y-116220200D01*
X128488124Y-116215725D01*
X128489329Y-116214335D01*
X128491000Y-116206652D01*
X128491000Y-116203762D01*
X128490663Y-116197247D01*
X128481106Y-116105143D01*
X128478212Y-116091744D01*
X128462507Y-116044669D01*
X130192001Y-116044669D01*
X130192371Y-116051490D01*
X130197895Y-116102352D01*
X130201521Y-116117604D01*
X130246676Y-116238054D01*
X130255214Y-116253649D01*
X130331715Y-116355724D01*
X130344276Y-116368285D01*
X130446351Y-116444786D01*
X130461946Y-116453324D01*
X130582394Y-116498478D01*
X130597649Y-116502105D01*
X130648514Y-116507631D01*
X130655328Y-116508000D01*
X132527885Y-116508000D01*
X132543124Y-116503525D01*
X132544329Y-116502135D01*
X132546000Y-116494452D01*
X132546000Y-115597115D01*
X132541525Y-115581876D01*
X132540135Y-115580671D01*
X132532452Y-115579000D01*
X130210116Y-115579000D01*
X130194877Y-115583475D01*
X130193672Y-115584865D01*
X130192001Y-115592548D01*
X130192001Y-116044669D01*
X128462507Y-116044669D01*
X128428619Y-115943093D01*
X128422446Y-115929917D01*
X128416287Y-115919963D01*
X128397450Y-115851511D01*
X128418612Y-115783742D01*
X128430238Y-115768862D01*
X128504309Y-115687459D01*
X128504314Y-115687452D01*
X128508086Y-115683307D01*
X128626707Y-115494210D01*
X128709966Y-115287095D01*
X128727152Y-115204110D01*
X128754296Y-115073034D01*
X128755233Y-115068510D01*
X128756134Y-115052885D01*
X130192000Y-115052885D01*
X130196475Y-115068124D01*
X130197865Y-115069329D01*
X130205548Y-115071000D01*
X132527885Y-115071000D01*
X132543124Y-115066525D01*
X132544329Y-115065135D01*
X132546000Y-115057452D01*
X132546000Y-114160116D01*
X132541525Y-114144877D01*
X132540135Y-114143672D01*
X132532452Y-114142001D01*
X130655331Y-114142001D01*
X130648510Y-114142371D01*
X130597648Y-114147895D01*
X130582396Y-114151521D01*
X130461946Y-114196676D01*
X130446351Y-114205214D01*
X130344276Y-114281715D01*
X130331715Y-114294276D01*
X130255214Y-114396351D01*
X130246676Y-114411946D01*
X130201522Y-114532394D01*
X130197895Y-114547649D01*
X130192369Y-114598514D01*
X130192000Y-114605328D01*
X130192000Y-115052885D01*
X128756134Y-115052885D01*
X128758395Y-115013674D01*
X128758395Y-115013670D01*
X128758500Y-115011851D01*
X128758500Y-113824500D01*
X128778502Y-113756379D01*
X128832158Y-113709886D01*
X128884500Y-113698500D01*
X129365709Y-113698500D01*
X129382156Y-113699578D01*
X129464830Y-113710463D01*
X129468744Y-113711041D01*
X129552006Y-113724675D01*
X129552008Y-113724675D01*
X129557546Y-113725582D01*
X129563160Y-113725494D01*
X129563164Y-113725494D01*
X129568057Y-113725417D01*
X129586481Y-113726479D01*
X129591348Y-113727120D01*
X129591359Y-113727120D01*
X129596922Y-113727853D01*
X129651664Y-113725271D01*
X129686822Y-113723613D01*
X129690779Y-113723489D01*
X129752487Y-113722520D01*
X129780741Y-113722076D01*
X129786236Y-113720998D01*
X129786244Y-113720997D01*
X129791073Y-113720049D01*
X129809398Y-113717832D01*
X129814285Y-113717602D01*
X129814289Y-113717601D01*
X129819898Y-113717337D01*
X129825372Y-113716083D01*
X129825374Y-113716083D01*
X129864945Y-113707020D01*
X129907604Y-113697250D01*
X129911466Y-113696429D01*
X129994278Y-113680182D01*
X129999788Y-113679101D01*
X130009591Y-113675279D01*
X130027227Y-113669853D01*
X130037487Y-113667503D01*
X130042648Y-113665302D01*
X130042653Y-113665300D01*
X130065386Y-113655603D01*
X130114821Y-113645500D01*
X133084330Y-113645500D01*
X133087117Y-113645251D01*
X133087123Y-113645251D01*
X133190794Y-113635998D01*
X133201995Y-113635499D01*
X134374000Y-113635499D01*
X134442121Y-113655501D01*
X134488614Y-113709157D01*
X134500000Y-113761499D01*
X134500000Y-114016000D01*
X134479998Y-114084121D01*
X134426342Y-114130614D01*
X134374000Y-114142000D01*
X133072115Y-114142000D01*
X133056876Y-114146475D01*
X133055671Y-114147865D01*
X133054000Y-114155548D01*
X133054000Y-116489884D01*
X133058475Y-116505123D01*
X133059865Y-116506328D01*
X133067548Y-116507999D01*
X134374000Y-116507999D01*
X134442121Y-116528001D01*
X134488614Y-116581657D01*
X134500000Y-116633999D01*
X134500000Y-124374000D01*
X134479998Y-124442121D01*
X134426342Y-124488614D01*
X134374000Y-124500000D01*
X100626000Y-124500000D01*
X100557879Y-124479998D01*
X100511386Y-124426342D01*
X100500000Y-124374000D01*
X100500000Y-122000000D01*
X101394551Y-122000000D01*
X101414317Y-122251148D01*
X101473127Y-122496111D01*
X101569534Y-122728859D01*
X101701164Y-122943659D01*
X101704376Y-122947419D01*
X101704379Y-122947424D01*
X101849256Y-123117052D01*
X101864776Y-123135224D01*
X101868538Y-123138437D01*
X102052576Y-123295621D01*
X102052581Y-123295624D01*
X102056341Y-123298836D01*
X102271141Y-123430466D01*
X102275711Y-123432359D01*
X102275715Y-123432361D01*
X102499316Y-123524979D01*
X102503889Y-123526873D01*
X102588289Y-123547135D01*
X102744039Y-123584528D01*
X102744045Y-123584529D01*
X102748852Y-123585683D01*
X102837149Y-123592632D01*
X102934661Y-123600307D01*
X102934670Y-123600307D01*
X102937118Y-123600500D01*
X103062882Y-123600500D01*
X103065330Y-123600307D01*
X103065339Y-123600307D01*
X103162851Y-123592632D01*
X103251148Y-123585683D01*
X103255955Y-123584529D01*
X103255961Y-123584528D01*
X103411711Y-123547135D01*
X103496111Y-123526873D01*
X103500684Y-123524979D01*
X103724285Y-123432361D01*
X103724289Y-123432359D01*
X103728859Y-123430466D01*
X103943659Y-123298836D01*
X103947419Y-123295624D01*
X103947424Y-123295621D01*
X104131462Y-123138437D01*
X104135224Y-123135224D01*
X104150744Y-123117052D01*
X104295621Y-122947424D01*
X104295624Y-122947419D01*
X104298836Y-122943659D01*
X104430466Y-122728859D01*
X104526873Y-122496111D01*
X104585683Y-122251148D01*
X104605449Y-122000000D01*
X130394551Y-122000000D01*
X130414317Y-122251148D01*
X130473127Y-122496111D01*
X130569534Y-122728859D01*
X130701164Y-122943659D01*
X130704376Y-122947419D01*
X130704379Y-122947424D01*
X130849256Y-123117052D01*
X130864776Y-123135224D01*
X130868538Y-123138437D01*
X131052576Y-123295621D01*
X131052581Y-123295624D01*
X131056341Y-123298836D01*
X131271141Y-123430466D01*
X131275711Y-123432359D01*
X131275715Y-123432361D01*
X131499316Y-123524979D01*
X131503889Y-123526873D01*
X131588289Y-123547135D01*
X131744039Y-123584528D01*
X131744045Y-123584529D01*
X131748852Y-123585683D01*
X131837149Y-123592632D01*
X131934661Y-123600307D01*
X131934670Y-123600307D01*
X131937118Y-123600500D01*
X132062882Y-123600500D01*
X132065330Y-123600307D01*
X132065339Y-123600307D01*
X132162851Y-123592632D01*
X132251148Y-123585683D01*
X132255955Y-123584529D01*
X132255961Y-123584528D01*
X132411711Y-123547135D01*
X132496111Y-123526873D01*
X132500684Y-123524979D01*
X132724285Y-123432361D01*
X132724289Y-123432359D01*
X132728859Y-123430466D01*
X132943659Y-123298836D01*
X132947419Y-123295624D01*
X132947424Y-123295621D01*
X133131462Y-123138437D01*
X133135224Y-123135224D01*
X133150744Y-123117052D01*
X133295621Y-122947424D01*
X133295624Y-122947419D01*
X133298836Y-122943659D01*
X133430466Y-122728859D01*
X133526873Y-122496111D01*
X133585683Y-122251148D01*
X133605449Y-122000000D01*
X133585683Y-121748852D01*
X133526873Y-121503889D01*
X133430466Y-121271141D01*
X133298836Y-121056341D01*
X133295624Y-121052581D01*
X133295621Y-121052576D01*
X133138437Y-120868538D01*
X133135224Y-120864776D01*
X133117052Y-120849256D01*
X132947424Y-120704379D01*
X132947419Y-120704376D01*
X132943659Y-120701164D01*
X132728859Y-120569534D01*
X132724289Y-120567641D01*
X132724285Y-120567639D01*
X132500684Y-120475021D01*
X132500682Y-120475020D01*
X132496111Y-120473127D01*
X132411711Y-120452865D01*
X132255961Y-120415472D01*
X132255955Y-120415471D01*
X132251148Y-120414317D01*
X132162851Y-120407368D01*
X132065339Y-120399693D01*
X132065330Y-120399693D01*
X132062882Y-120399500D01*
X131937118Y-120399500D01*
X131934670Y-120399693D01*
X131934661Y-120399693D01*
X131837149Y-120407368D01*
X131748852Y-120414317D01*
X131744045Y-120415471D01*
X131744039Y-120415472D01*
X131588289Y-120452865D01*
X131503889Y-120473127D01*
X131499318Y-120475020D01*
X131499316Y-120475021D01*
X131275715Y-120567639D01*
X131275711Y-120567641D01*
X131271141Y-120569534D01*
X131056341Y-120701164D01*
X131052581Y-120704376D01*
X131052576Y-120704379D01*
X130882948Y-120849256D01*
X130864776Y-120864776D01*
X130861563Y-120868538D01*
X130704379Y-121052576D01*
X130704376Y-121052581D01*
X130701164Y-121056341D01*
X130569534Y-121271141D01*
X130473127Y-121503889D01*
X130414317Y-121748852D01*
X130394551Y-122000000D01*
X104605449Y-122000000D01*
X104585683Y-121748852D01*
X104526873Y-121503889D01*
X104430466Y-121271141D01*
X104298836Y-121056341D01*
X104295624Y-121052581D01*
X104295621Y-121052576D01*
X104138437Y-120868538D01*
X104135224Y-120864776D01*
X104117052Y-120849256D01*
X103947424Y-120704379D01*
X103947419Y-120704376D01*
X103943659Y-120701164D01*
X103728859Y-120569534D01*
X103724289Y-120567641D01*
X103724285Y-120567639D01*
X103500684Y-120475021D01*
X103500682Y-120475020D01*
X103496111Y-120473127D01*
X103411711Y-120452865D01*
X103255961Y-120415472D01*
X103255955Y-120415471D01*
X103251148Y-120414317D01*
X103162851Y-120407368D01*
X103065339Y-120399693D01*
X103065330Y-120399693D01*
X103062882Y-120399500D01*
X102937118Y-120399500D01*
X102934670Y-120399693D01*
X102934661Y-120399693D01*
X102837149Y-120407368D01*
X102748852Y-120414317D01*
X102744045Y-120415471D01*
X102744039Y-120415472D01*
X102588289Y-120452865D01*
X102503889Y-120473127D01*
X102499318Y-120475020D01*
X102499316Y-120475021D01*
X102275715Y-120567639D01*
X102275711Y-120567641D01*
X102271141Y-120569534D01*
X102056341Y-120701164D01*
X102052581Y-120704376D01*
X102052576Y-120704379D01*
X101882948Y-120849256D01*
X101864776Y-120864776D01*
X101861563Y-120868538D01*
X101704379Y-121052576D01*
X101704376Y-121052581D01*
X101701164Y-121056341D01*
X101569534Y-121271141D01*
X101473127Y-121503889D01*
X101414317Y-121748852D01*
X101394551Y-122000000D01*
X100500000Y-122000000D01*
X100500000Y-116805922D01*
X112126747Y-116805922D01*
X112127012Y-116811534D01*
X112130560Y-116886771D01*
X112130700Y-116892707D01*
X112130700Y-116915130D01*
X112130950Y-116917928D01*
X112133004Y-116940952D01*
X112133363Y-116946213D01*
X112137263Y-117028898D01*
X112138514Y-117034361D01*
X112138515Y-117034367D01*
X112141228Y-117046211D01*
X112143910Y-117063145D01*
X112145489Y-117080839D01*
X112146971Y-117086255D01*
X112146971Y-117086257D01*
X112167331Y-117160681D01*
X112168617Y-117165799D01*
X112187097Y-117246487D01*
X112189295Y-117251641D01*
X112189299Y-117251652D01*
X112194066Y-117262826D01*
X112199705Y-117279016D01*
X112204392Y-117296151D01*
X112240035Y-117370877D01*
X112242193Y-117375657D01*
X112274676Y-117451813D01*
X112284436Y-117466671D01*
X112292842Y-117481591D01*
X112300492Y-117497629D01*
X112303763Y-117502182D01*
X112303766Y-117502186D01*
X112348789Y-117564841D01*
X112351777Y-117569187D01*
X112397231Y-117638384D01*
X112400306Y-117641835D01*
X112415598Y-117658999D01*
X112423840Y-117669286D01*
X112430752Y-117678905D01*
X112483861Y-117730371D01*
X112506991Y-117752786D01*
X112508401Y-117754175D01*
X112553610Y-117799384D01*
X112564477Y-117811774D01*
X112577890Y-117829254D01*
X112600703Y-117850012D01*
X112637776Y-117883746D01*
X112642071Y-117887845D01*
X112657906Y-117903680D01*
X112677809Y-117920321D01*
X112681766Y-117923774D01*
X112742993Y-117979486D01*
X112747747Y-117982468D01*
X112747748Y-117982469D01*
X112758038Y-117988924D01*
X112771896Y-117998991D01*
X112785537Y-118010397D01*
X112790411Y-118013177D01*
X112857443Y-118051412D01*
X112861949Y-118054108D01*
X112932090Y-118098107D01*
X112948588Y-118104739D01*
X112964001Y-118112191D01*
X112979437Y-118120995D01*
X113033682Y-118140204D01*
X113057461Y-118148625D01*
X113062397Y-118150490D01*
X113139205Y-118181366D01*
X113144691Y-118182502D01*
X113144697Y-118182504D01*
X113156606Y-118184970D01*
X113173102Y-118189575D01*
X113189856Y-118195508D01*
X113195393Y-118196415D01*
X113195394Y-118196415D01*
X113271544Y-118208885D01*
X113276733Y-118209847D01*
X113353265Y-118225696D01*
X113357790Y-118226633D01*
X113362400Y-118226899D01*
X113362401Y-118226899D01*
X113385361Y-118228223D01*
X113398467Y-118229670D01*
X113404602Y-118230675D01*
X113404609Y-118230676D01*
X113410145Y-118231582D01*
X113415759Y-118231494D01*
X113415761Y-118231494D01*
X113516204Y-118229916D01*
X113518183Y-118229900D01*
X114790930Y-118229900D01*
X114793717Y-118229651D01*
X114793723Y-118229651D01*
X114864120Y-118223368D01*
X114956639Y-118215111D01*
X115068063Y-118184629D01*
X115139046Y-118185947D01*
X115148306Y-118189256D01*
X115218991Y-118217671D01*
X115219001Y-118217674D01*
X115224205Y-118219766D01*
X115229699Y-118220904D01*
X115229703Y-118220905D01*
X115241597Y-118223368D01*
X115258108Y-118227978D01*
X115262886Y-118229670D01*
X115274857Y-118233909D01*
X115346063Y-118245569D01*
X115356550Y-118247286D01*
X115361741Y-118248248D01*
X115442790Y-118265033D01*
X115447400Y-118265299D01*
X115447401Y-118265299D01*
X115470362Y-118266623D01*
X115483468Y-118268070D01*
X115489603Y-118269075D01*
X115489610Y-118269076D01*
X115495146Y-118269982D01*
X115500760Y-118269894D01*
X115500762Y-118269894D01*
X115601205Y-118268316D01*
X115603184Y-118268300D01*
X116847730Y-118268300D01*
X116850517Y-118268051D01*
X116850523Y-118268051D01*
X116920097Y-118261841D01*
X117013439Y-118253511D01*
X117018853Y-118252030D01*
X117018858Y-118252029D01*
X117176563Y-118208885D01*
X117228751Y-118194608D01*
X117233809Y-118192196D01*
X117233813Y-118192194D01*
X117379159Y-118122867D01*
X117430229Y-118098508D01*
X117611505Y-117968248D01*
X117632304Y-117946785D01*
X117694074Y-117911785D01*
X117764960Y-117915737D01*
X117788904Y-117927210D01*
X117797980Y-117932804D01*
X117811161Y-117938951D01*
X117959914Y-117988291D01*
X117973290Y-117991158D01*
X118064197Y-118000472D01*
X118069226Y-118000729D01*
X118084224Y-117996325D01*
X118085429Y-117994935D01*
X118087100Y-117987252D01*
X118087100Y-117982685D01*
X118595100Y-117982685D01*
X118599575Y-117997924D01*
X118600965Y-117999129D01*
X118608648Y-118000800D01*
X118611538Y-118000800D01*
X118618053Y-118000463D01*
X118710157Y-117990906D01*
X118723556Y-117988012D01*
X118872207Y-117938419D01*
X118885386Y-117932245D01*
X119018273Y-117850012D01*
X119029674Y-117840976D01*
X119140086Y-117730371D01*
X119149098Y-117718960D01*
X119231104Y-117585920D01*
X119237251Y-117572739D01*
X119286591Y-117423986D01*
X119289458Y-117410610D01*
X119298772Y-117319703D01*
X119299100Y-117313287D01*
X119299100Y-117289915D01*
X119294625Y-117274676D01*
X119293235Y-117273471D01*
X119285552Y-117271800D01*
X118613215Y-117271800D01*
X118597976Y-117276275D01*
X118596771Y-117277665D01*
X118595100Y-117285348D01*
X118595100Y-117982685D01*
X118087100Y-117982685D01*
X118087100Y-116745685D01*
X118595100Y-116745685D01*
X118599575Y-116760924D01*
X118600965Y-116762129D01*
X118608648Y-116763800D01*
X119280985Y-116763800D01*
X119296224Y-116759325D01*
X119297429Y-116757935D01*
X119299100Y-116750252D01*
X119299100Y-116744638D01*
X126525000Y-116744638D01*
X126525337Y-116751153D01*
X126534894Y-116843257D01*
X126537788Y-116856656D01*
X126587381Y-117005307D01*
X126593555Y-117018486D01*
X126675788Y-117151373D01*
X126684824Y-117162774D01*
X126795429Y-117273186D01*
X126806840Y-117282198D01*
X126939880Y-117364204D01*
X126953061Y-117370351D01*
X127101814Y-117419691D01*
X127115190Y-117422558D01*
X127206097Y-117431872D01*
X127212513Y-117432200D01*
X127235885Y-117432200D01*
X127251124Y-117427725D01*
X127252329Y-117426335D01*
X127254000Y-117418652D01*
X127254000Y-117414085D01*
X127762000Y-117414085D01*
X127766475Y-117429324D01*
X127767865Y-117430529D01*
X127775548Y-117432200D01*
X127803438Y-117432200D01*
X127809953Y-117431863D01*
X127902057Y-117422306D01*
X127915456Y-117419412D01*
X128064107Y-117369819D01*
X128077286Y-117363645D01*
X128210173Y-117281412D01*
X128221574Y-117272376D01*
X128331986Y-117161771D01*
X128340998Y-117150360D01*
X128423004Y-117017320D01*
X128429151Y-117004139D01*
X128478491Y-116855386D01*
X128481358Y-116842010D01*
X128490672Y-116751103D01*
X128490929Y-116746074D01*
X128486525Y-116731076D01*
X128485135Y-116729871D01*
X128477452Y-116728200D01*
X127780115Y-116728200D01*
X127764876Y-116732675D01*
X127763671Y-116734065D01*
X127762000Y-116741748D01*
X127762000Y-117414085D01*
X127254000Y-117414085D01*
X127254000Y-116746315D01*
X127249525Y-116731076D01*
X127248135Y-116729871D01*
X127240452Y-116728200D01*
X126543115Y-116728200D01*
X126527876Y-116732675D01*
X126526671Y-116734065D01*
X126525000Y-116741748D01*
X126525000Y-116744638D01*
X119299100Y-116744638D01*
X119299100Y-116722362D01*
X119298763Y-116715847D01*
X119289206Y-116623743D01*
X119286312Y-116610344D01*
X119236719Y-116461693D01*
X119230545Y-116448514D01*
X119148312Y-116315627D01*
X119139276Y-116304226D01*
X119028671Y-116193814D01*
X119017260Y-116184802D01*
X118884220Y-116102796D01*
X118871039Y-116096649D01*
X118722286Y-116047309D01*
X118708910Y-116044442D01*
X118618003Y-116035128D01*
X118612974Y-116034871D01*
X118597976Y-116039275D01*
X118596771Y-116040665D01*
X118595100Y-116048348D01*
X118595100Y-116745685D01*
X118087100Y-116745685D01*
X118087100Y-116052915D01*
X118082625Y-116037676D01*
X118081235Y-116036471D01*
X118073552Y-116034800D01*
X118070662Y-116034800D01*
X118064147Y-116035137D01*
X117972043Y-116044694D01*
X117958644Y-116047588D01*
X117809993Y-116097181D01*
X117796817Y-116103354D01*
X117786863Y-116109513D01*
X117718411Y-116128350D01*
X117650642Y-116107188D01*
X117635762Y-116095562D01*
X117554359Y-116021491D01*
X117554352Y-116021486D01*
X117550207Y-116017714D01*
X117361110Y-115899093D01*
X117204109Y-115835979D01*
X117159197Y-115817925D01*
X117159195Y-115817924D01*
X117153995Y-115815834D01*
X117148507Y-115814697D01*
X117148502Y-115814696D01*
X116983945Y-115780618D01*
X116935410Y-115770567D01*
X116930797Y-115770301D01*
X116880574Y-115767405D01*
X116880570Y-115767405D01*
X116878751Y-115767300D01*
X116137519Y-115767300D01*
X116069398Y-115747298D01*
X116056701Y-115737967D01*
X116052084Y-115734107D01*
X116032076Y-115713005D01*
X116012931Y-115687459D01*
X115986246Y-115651854D01*
X115914731Y-115598256D01*
X115878706Y-115571256D01*
X115878703Y-115571254D01*
X115871524Y-115565874D01*
X115778808Y-115531117D01*
X115744675Y-115518321D01*
X115744673Y-115518321D01*
X115737280Y-115515549D01*
X115729430Y-115514696D01*
X115729429Y-115514696D01*
X115679474Y-115509269D01*
X115679473Y-115509269D01*
X115676077Y-115508900D01*
X115441172Y-115508900D01*
X115431817Y-115508140D01*
X115431788Y-115508536D01*
X115426196Y-115508125D01*
X115420654Y-115507218D01*
X115415040Y-115507306D01*
X115415037Y-115507306D01*
X115314561Y-115508885D01*
X115312581Y-115508901D01*
X114981324Y-115508901D01*
X114977930Y-115509270D01*
X114977924Y-115509270D01*
X114927978Y-115514695D01*
X114927974Y-115514696D01*
X114920120Y-115515549D01*
X114819103Y-115553418D01*
X114801929Y-115559856D01*
X114731122Y-115565039D01*
X114668753Y-115531117D01*
X114634624Y-115468862D01*
X114631700Y-115441874D01*
X114631700Y-115354254D01*
X114633356Y-115333895D01*
X114640485Y-115290355D01*
X114641443Y-115285185D01*
X114658233Y-115204110D01*
X114659823Y-115176538D01*
X114661270Y-115163432D01*
X114662275Y-115157296D01*
X114662275Y-115157291D01*
X114663182Y-115151754D01*
X114662444Y-115104724D01*
X114661516Y-115045665D01*
X114661500Y-115043687D01*
X114661500Y-114431038D01*
X119653400Y-114431038D01*
X119653737Y-114437553D01*
X119663294Y-114529657D01*
X119666188Y-114543056D01*
X119715781Y-114691707D01*
X119721955Y-114704886D01*
X119804188Y-114837773D01*
X119813224Y-114849174D01*
X119923829Y-114959586D01*
X119935240Y-114968598D01*
X120068280Y-115050604D01*
X120081461Y-115056751D01*
X120230214Y-115106091D01*
X120243590Y-115108958D01*
X120334497Y-115118272D01*
X120340913Y-115118600D01*
X120364285Y-115118600D01*
X120379524Y-115114125D01*
X120380729Y-115112735D01*
X120382400Y-115105052D01*
X120382400Y-115100485D01*
X120890400Y-115100485D01*
X120894875Y-115115724D01*
X120896265Y-115116929D01*
X120903948Y-115118600D01*
X120931838Y-115118600D01*
X120938353Y-115118263D01*
X121030457Y-115108706D01*
X121043856Y-115105812D01*
X121192507Y-115056219D01*
X121205686Y-115050045D01*
X121338573Y-114967812D01*
X121349974Y-114958776D01*
X121460386Y-114848171D01*
X121469398Y-114836760D01*
X121551404Y-114703720D01*
X121557551Y-114690539D01*
X121606891Y-114541786D01*
X121609758Y-114528410D01*
X121619072Y-114437503D01*
X121619329Y-114432474D01*
X121614925Y-114417476D01*
X121613535Y-114416271D01*
X121605852Y-114414600D01*
X120908515Y-114414600D01*
X120893276Y-114419075D01*
X120892071Y-114420465D01*
X120890400Y-114428148D01*
X120890400Y-115100485D01*
X120382400Y-115100485D01*
X120382400Y-114432715D01*
X120377925Y-114417476D01*
X120376535Y-114416271D01*
X120368852Y-114414600D01*
X119671515Y-114414600D01*
X119656276Y-114419075D01*
X119655071Y-114420465D01*
X119653400Y-114428148D01*
X119653400Y-114431038D01*
X114661500Y-114431038D01*
X114661500Y-113443570D01*
X114661191Y-113440100D01*
X114654344Y-113363389D01*
X114646711Y-113277861D01*
X114587808Y-113062549D01*
X114585320Y-113057331D01*
X114524676Y-112930190D01*
X114491708Y-112861071D01*
X114361448Y-112679795D01*
X114339985Y-112658996D01*
X114304985Y-112597226D01*
X114308937Y-112526340D01*
X114320410Y-112502396D01*
X114326004Y-112493320D01*
X114332151Y-112480139D01*
X114381491Y-112331386D01*
X114384358Y-112318010D01*
X114393672Y-112227103D01*
X114393929Y-112222074D01*
X114389525Y-112207076D01*
X114388135Y-112205871D01*
X114380452Y-112204200D01*
X112446115Y-112204200D01*
X112430876Y-112208675D01*
X112429671Y-112210065D01*
X112428000Y-112217748D01*
X112428000Y-112220638D01*
X112428337Y-112227153D01*
X112437894Y-112319257D01*
X112440788Y-112332656D01*
X112490381Y-112481307D01*
X112496554Y-112494483D01*
X112502713Y-112504437D01*
X112521550Y-112572889D01*
X112500388Y-112640658D01*
X112488762Y-112655538D01*
X112414691Y-112736941D01*
X112414686Y-112736948D01*
X112410914Y-112741093D01*
X112292293Y-112930190D01*
X112209034Y-113137305D01*
X112207897Y-113142793D01*
X112207896Y-113142798D01*
X112199055Y-113185490D01*
X112163767Y-113355890D01*
X112160500Y-113412549D01*
X112160500Y-114596423D01*
X112152482Y-114640652D01*
X112140913Y-114671514D01*
X112137349Y-114681020D01*
X112130700Y-114742223D01*
X112130700Y-114977128D01*
X112129940Y-114986484D01*
X112130336Y-114986513D01*
X112129925Y-114992104D01*
X112129018Y-114997646D01*
X112129106Y-115003260D01*
X112129106Y-115003263D01*
X112130684Y-115103705D01*
X112130700Y-115105684D01*
X112130700Y-116767638D01*
X112129622Y-116784085D01*
X112126747Y-116805922D01*
X100500000Y-116805922D01*
X100500000Y-116634000D01*
X100520002Y-116565879D01*
X100573658Y-116519386D01*
X100626000Y-116508000D01*
X101927885Y-116508000D01*
X101943124Y-116503525D01*
X101944329Y-116502135D01*
X101946000Y-116494452D01*
X101946000Y-116489884D01*
X102454000Y-116489884D01*
X102458475Y-116505123D01*
X102459865Y-116506328D01*
X102467548Y-116507999D01*
X104344669Y-116507999D01*
X104351490Y-116507629D01*
X104402352Y-116502105D01*
X104417604Y-116498479D01*
X104538054Y-116453324D01*
X104553649Y-116444786D01*
X104655724Y-116368285D01*
X104668285Y-116355724D01*
X104744786Y-116253649D01*
X104753324Y-116238054D01*
X104798478Y-116117606D01*
X104802105Y-116102351D01*
X104807631Y-116051486D01*
X104808000Y-116044672D01*
X104808000Y-115597115D01*
X104803525Y-115581876D01*
X104802135Y-115580671D01*
X104794452Y-115579000D01*
X102472115Y-115579000D01*
X102456876Y-115583475D01*
X102455671Y-115584865D01*
X102454000Y-115592548D01*
X102454000Y-116489884D01*
X101946000Y-116489884D01*
X101946000Y-115486238D01*
X105782600Y-115486238D01*
X105782937Y-115492753D01*
X105792494Y-115584857D01*
X105795388Y-115598256D01*
X105844981Y-115746907D01*
X105851155Y-115760086D01*
X105933388Y-115892973D01*
X105942424Y-115904374D01*
X106053029Y-116014786D01*
X106064440Y-116023798D01*
X106197480Y-116105804D01*
X106210661Y-116111951D01*
X106359414Y-116161291D01*
X106372790Y-116164158D01*
X106463697Y-116173472D01*
X106470113Y-116173800D01*
X106493485Y-116173800D01*
X106508724Y-116169325D01*
X106509929Y-116167935D01*
X106511600Y-116160252D01*
X106511600Y-116155685D01*
X107019600Y-116155685D01*
X107024075Y-116170924D01*
X107025465Y-116172129D01*
X107033148Y-116173800D01*
X107061038Y-116173800D01*
X107067553Y-116173463D01*
X107159657Y-116163906D01*
X107173056Y-116161012D01*
X107321707Y-116111419D01*
X107334886Y-116105245D01*
X107467773Y-116023012D01*
X107479174Y-116013976D01*
X107589586Y-115903371D01*
X107598598Y-115891960D01*
X107680604Y-115758920D01*
X107686751Y-115745739D01*
X107736091Y-115596986D01*
X107738958Y-115583610D01*
X107748272Y-115492703D01*
X107748529Y-115487674D01*
X107744125Y-115472676D01*
X107742735Y-115471471D01*
X107735052Y-115469800D01*
X107037715Y-115469800D01*
X107022476Y-115474275D01*
X107021271Y-115475665D01*
X107019600Y-115483348D01*
X107019600Y-116155685D01*
X106511600Y-116155685D01*
X106511600Y-115487915D01*
X106507125Y-115472676D01*
X106505735Y-115471471D01*
X106498052Y-115469800D01*
X105800715Y-115469800D01*
X105785476Y-115474275D01*
X105784271Y-115475665D01*
X105782600Y-115483348D01*
X105782600Y-115486238D01*
X101946000Y-115486238D01*
X101946000Y-115052885D01*
X102454000Y-115052885D01*
X102458475Y-115068124D01*
X102459865Y-115069329D01*
X102467548Y-115071000D01*
X104789884Y-115071000D01*
X104805123Y-115066525D01*
X104806328Y-115065135D01*
X104807999Y-115057452D01*
X104807999Y-114605331D01*
X104807629Y-114598510D01*
X104802105Y-114547648D01*
X104798479Y-114532396D01*
X104753324Y-114411946D01*
X104744786Y-114396351D01*
X104668285Y-114294276D01*
X104655724Y-114281715D01*
X104553649Y-114205214D01*
X104538054Y-114196676D01*
X104417606Y-114151522D01*
X104402351Y-114147895D01*
X104351486Y-114142369D01*
X104344672Y-114142000D01*
X102472115Y-114142000D01*
X102456876Y-114146475D01*
X102455671Y-114147865D01*
X102454000Y-114155548D01*
X102454000Y-115052885D01*
X101946000Y-115052885D01*
X101946000Y-114160116D01*
X101941525Y-114144877D01*
X101940135Y-114143672D01*
X101932452Y-114142001D01*
X100626000Y-114142001D01*
X100557879Y-114121999D01*
X100511386Y-114068343D01*
X100500000Y-114016001D01*
X100500000Y-113761500D01*
X100520002Y-113693379D01*
X100573658Y-113646886D01*
X100626000Y-113635500D01*
X101440698Y-113635500D01*
X101499656Y-113650145D01*
X101513453Y-113657450D01*
X101726109Y-113725316D01*
X101731667Y-113726048D01*
X101731668Y-113726048D01*
X101941852Y-113753720D01*
X101941856Y-113753720D01*
X101947422Y-113754453D01*
X102170398Y-113743937D01*
X102387987Y-113694103D01*
X102393148Y-113691902D01*
X102393153Y-113691900D01*
X102501695Y-113645602D01*
X102551130Y-113635499D01*
X103847376Y-113635499D01*
X103850770Y-113635130D01*
X103850776Y-113635130D01*
X103900722Y-113629705D01*
X103900726Y-113629704D01*
X103908580Y-113628851D01*
X104042824Y-113578526D01*
X104050003Y-113573146D01*
X104050006Y-113573144D01*
X104150365Y-113497928D01*
X104157546Y-113492546D01*
X104162927Y-113485366D01*
X104169277Y-113479016D01*
X104171494Y-113481233D01*
X104215906Y-113448022D01*
X104259879Y-113440100D01*
X105112549Y-113440100D01*
X105180670Y-113460102D01*
X105227163Y-113513758D01*
X105237082Y-113547965D01*
X105237263Y-113551798D01*
X105238514Y-113557262D01*
X105238515Y-113557266D01*
X105241228Y-113569111D01*
X105243910Y-113586045D01*
X105245489Y-113603739D01*
X105246971Y-113609155D01*
X105246971Y-113609157D01*
X105267331Y-113683581D01*
X105268617Y-113688699D01*
X105280981Y-113742685D01*
X105287097Y-113769387D01*
X105289295Y-113774541D01*
X105289299Y-113774552D01*
X105294066Y-113785726D01*
X105299705Y-113801916D01*
X105304392Y-113819051D01*
X105340035Y-113893777D01*
X105342193Y-113898557D01*
X105374676Y-113974713D01*
X105384436Y-113989571D01*
X105392842Y-114004491D01*
X105400492Y-114020529D01*
X105403763Y-114025082D01*
X105403766Y-114025086D01*
X105448789Y-114087741D01*
X105451779Y-114092090D01*
X105494622Y-114157312D01*
X105497231Y-114161284D01*
X105500306Y-114164735D01*
X105515598Y-114181899D01*
X105523840Y-114192186D01*
X105530752Y-114201805D01*
X105534779Y-114205707D01*
X105606991Y-114275686D01*
X105608401Y-114277075D01*
X105838671Y-114507345D01*
X105872697Y-114569657D01*
X105867632Y-114640472D01*
X105856836Y-114662556D01*
X105850596Y-114672680D01*
X105844449Y-114685861D01*
X105795109Y-114834614D01*
X105792242Y-114847990D01*
X105782928Y-114938897D01*
X105782671Y-114943926D01*
X105787075Y-114958924D01*
X105788465Y-114960129D01*
X105796148Y-114961800D01*
X107730485Y-114961800D01*
X107745724Y-114957325D01*
X107746929Y-114955935D01*
X107748600Y-114948252D01*
X107748600Y-114945362D01*
X107748263Y-114938847D01*
X107738706Y-114846743D01*
X107735812Y-114833344D01*
X107686219Y-114684693D01*
X107680045Y-114671514D01*
X107676124Y-114665177D01*
X107657288Y-114596725D01*
X107678451Y-114528956D01*
X107684117Y-114521130D01*
X107815130Y-114354045D01*
X107815133Y-114354041D01*
X107818596Y-114349624D01*
X107923049Y-114152347D01*
X107990915Y-113939691D01*
X107996331Y-113898557D01*
X108008687Y-113804703D01*
X108020052Y-113718377D01*
X108019166Y-113699578D01*
X108014046Y-113591010D01*
X108009537Y-113495402D01*
X107959703Y-113277812D01*
X107957413Y-113272442D01*
X107874328Y-113077654D01*
X107874328Y-113077653D01*
X107872124Y-113072487D01*
X107752388Y-112890206D01*
X107731700Y-112821030D01*
X107731700Y-112230693D01*
X107731909Y-112223440D01*
X107735811Y-112155769D01*
X107735811Y-112155766D01*
X107736134Y-112150162D01*
X107732613Y-112121065D01*
X107731700Y-112105929D01*
X107731700Y-111678326D01*
X112428071Y-111678326D01*
X112432475Y-111693324D01*
X112433865Y-111694529D01*
X112441548Y-111696200D01*
X113138885Y-111696200D01*
X113154124Y-111691725D01*
X113155329Y-111690335D01*
X113157000Y-111682652D01*
X113157000Y-111678085D01*
X113665000Y-111678085D01*
X113669475Y-111693324D01*
X113670865Y-111694529D01*
X113678548Y-111696200D01*
X114375885Y-111696200D01*
X114391124Y-111691725D01*
X114392329Y-111690335D01*
X114394000Y-111682652D01*
X114394000Y-111679762D01*
X114393663Y-111673247D01*
X114384106Y-111581143D01*
X114381212Y-111567744D01*
X114331619Y-111419093D01*
X114325445Y-111405914D01*
X114243212Y-111273027D01*
X114234176Y-111261626D01*
X114123571Y-111151214D01*
X114112160Y-111142202D01*
X113979120Y-111060196D01*
X113965939Y-111054049D01*
X113817186Y-111004709D01*
X113803810Y-111001842D01*
X113712903Y-110992528D01*
X113706486Y-110992200D01*
X113683115Y-110992200D01*
X113667876Y-110996675D01*
X113666671Y-110998065D01*
X113665000Y-111005748D01*
X113665000Y-111678085D01*
X113157000Y-111678085D01*
X113157000Y-111010315D01*
X113152525Y-110995076D01*
X113151135Y-110993871D01*
X113143452Y-110992200D01*
X113115562Y-110992200D01*
X113109047Y-110992537D01*
X113016943Y-111002094D01*
X113003544Y-111004988D01*
X112854893Y-111054581D01*
X112841714Y-111060755D01*
X112708827Y-111142988D01*
X112697426Y-111152024D01*
X112587014Y-111262629D01*
X112578002Y-111274040D01*
X112495996Y-111407080D01*
X112489849Y-111420261D01*
X112440509Y-111569014D01*
X112437642Y-111582390D01*
X112428328Y-111673297D01*
X112428071Y-111678326D01*
X107731700Y-111678326D01*
X107731700Y-111266086D01*
X107748252Y-111203658D01*
X107853619Y-111018930D01*
X107853619Y-111018929D01*
X107856395Y-111014063D01*
X107858264Y-111008786D01*
X107858266Y-111008781D01*
X107929035Y-110808934D01*
X107929036Y-110808931D01*
X107930908Y-110803644D01*
X107966982Y-110583354D01*
X107965586Y-110494449D01*
X107963564Y-110365772D01*
X107963476Y-110360159D01*
X107951508Y-110299159D01*
X107921581Y-110146621D01*
X107921581Y-110146619D01*
X107920500Y-110141112D01*
X107897699Y-110082629D01*
X107870674Y-110013314D01*
X107864718Y-109998038D01*
X114170300Y-109998038D01*
X114170637Y-110004553D01*
X114180194Y-110096657D01*
X114183088Y-110110056D01*
X114232681Y-110258707D01*
X114238855Y-110271886D01*
X114321088Y-110404773D01*
X114330124Y-110416174D01*
X114440729Y-110526586D01*
X114452140Y-110535598D01*
X114585180Y-110617604D01*
X114598361Y-110623751D01*
X114747114Y-110673091D01*
X114760490Y-110675958D01*
X114851397Y-110685272D01*
X114856426Y-110685529D01*
X114871424Y-110681125D01*
X114872629Y-110679735D01*
X114874300Y-110672052D01*
X114874300Y-110667485D01*
X115382300Y-110667485D01*
X115386775Y-110682724D01*
X115388165Y-110683929D01*
X115395848Y-110685600D01*
X115398738Y-110685600D01*
X115405253Y-110685263D01*
X115497357Y-110675706D01*
X115510756Y-110672812D01*
X115659407Y-110623219D01*
X115672586Y-110617045D01*
X115811701Y-110530958D01*
X115812893Y-110532884D01*
X115868516Y-110510373D01*
X115938279Y-110523548D01*
X115965763Y-110542564D01*
X116053840Y-110622708D01*
X116053846Y-110622713D01*
X116057993Y-110626486D01*
X116247090Y-110745107D01*
X116454205Y-110828366D01*
X116459693Y-110829503D01*
X116459698Y-110829504D01*
X116597301Y-110858000D01*
X116672790Y-110873633D01*
X116677403Y-110873899D01*
X116727626Y-110876795D01*
X116727630Y-110876795D01*
X116729449Y-110876900D01*
X117440641Y-110876900D01*
X117508762Y-110896902D01*
X117541467Y-110927335D01*
X117552187Y-110941639D01*
X117571154Y-110966946D01*
X117578335Y-110972328D01*
X117678694Y-111047544D01*
X117678697Y-111047546D01*
X117685876Y-111052926D01*
X117766302Y-111083076D01*
X117812725Y-111100479D01*
X117812727Y-111100479D01*
X117820120Y-111103251D01*
X117827970Y-111104104D01*
X117827971Y-111104104D01*
X117877926Y-111109531D01*
X117881323Y-111109900D01*
X118116224Y-111109900D01*
X118125581Y-111110661D01*
X118125610Y-111110265D01*
X118131213Y-111110676D01*
X118136746Y-111111582D01*
X118142355Y-111111494D01*
X118142357Y-111111494D01*
X118242805Y-111109916D01*
X118244784Y-111109900D01*
X119633500Y-111109900D01*
X119701621Y-111129902D01*
X119748114Y-111183558D01*
X119759500Y-111235900D01*
X119759500Y-111666836D01*
X119739498Y-111734957D01*
X119722595Y-111755931D01*
X119712120Y-111766406D01*
X119605403Y-111894038D01*
X119494805Y-112087937D01*
X119492936Y-112093214D01*
X119492934Y-112093219D01*
X119422165Y-112293066D01*
X119420292Y-112298356D01*
X119419385Y-112303895D01*
X119390333Y-112481307D01*
X119384218Y-112518646D01*
X119384306Y-112524260D01*
X119384306Y-112524262D01*
X119385040Y-112570997D01*
X119387724Y-112741841D01*
X119388804Y-112747346D01*
X119429262Y-112953562D01*
X119430699Y-112960888D01*
X119432737Y-112966114D01*
X119432738Y-112966119D01*
X119508802Y-113161210D01*
X119511786Y-113168863D01*
X119514717Y-113173646D01*
X119625485Y-113354406D01*
X119625488Y-113354410D01*
X119628419Y-113359193D01*
X119632154Y-113363385D01*
X119632157Y-113363389D01*
X119715059Y-113456436D01*
X119745441Y-113520603D01*
X119736308Y-113591010D01*
X119728243Y-113606370D01*
X119721398Y-113617475D01*
X119715249Y-113630661D01*
X119665909Y-113779414D01*
X119663042Y-113792790D01*
X119653728Y-113883697D01*
X119653471Y-113888726D01*
X119657875Y-113903724D01*
X119659265Y-113904929D01*
X119666948Y-113906600D01*
X121601285Y-113906600D01*
X121616524Y-113902125D01*
X121617729Y-113900735D01*
X121619400Y-113893052D01*
X121619400Y-113890162D01*
X121619063Y-113883647D01*
X121609506Y-113791543D01*
X121606612Y-113778144D01*
X121557019Y-113629493D01*
X121550846Y-113616317D01*
X121545364Y-113607457D01*
X121526527Y-113539005D01*
X121547689Y-113471236D01*
X121563414Y-113452060D01*
X121829984Y-113185490D01*
X121842375Y-113174622D01*
X121855410Y-113164620D01*
X121859854Y-113161210D01*
X121914346Y-113101324D01*
X121918445Y-113097029D01*
X121934280Y-113081194D01*
X121950917Y-113061296D01*
X121954376Y-113057331D01*
X122006311Y-113000256D01*
X122006313Y-113000254D01*
X122010086Y-112996107D01*
X122019530Y-112981052D01*
X122029600Y-112967193D01*
X122037397Y-112957868D01*
X122037398Y-112957866D01*
X122040997Y-112953562D01*
X122077134Y-112890207D01*
X122082008Y-112881663D01*
X122084704Y-112877157D01*
X122128707Y-112807010D01*
X122135335Y-112790521D01*
X122142795Y-112775091D01*
X122148814Y-112764539D01*
X122148815Y-112764537D01*
X122151595Y-112759663D01*
X122173485Y-112697849D01*
X122179225Y-112681639D01*
X122181090Y-112676703D01*
X122209876Y-112605094D01*
X122211966Y-112599895D01*
X122213102Y-112594409D01*
X122213104Y-112594403D01*
X122215570Y-112582494D01*
X122220175Y-112565998D01*
X122226108Y-112549244D01*
X122237233Y-112481307D01*
X122239486Y-112467551D01*
X122240448Y-112462363D01*
X122256296Y-112385834D01*
X122257233Y-112381310D01*
X122258823Y-112353739D01*
X122260270Y-112340636D01*
X122261274Y-112334502D01*
X122261274Y-112334496D01*
X122262182Y-112328954D01*
X122261872Y-112309187D01*
X122260516Y-112222895D01*
X122260500Y-112220916D01*
X122260500Y-109660476D01*
X122261260Y-109651122D01*
X122260864Y-109651093D01*
X122261275Y-109645491D01*
X122262182Y-109639954D01*
X122260516Y-109533894D01*
X122260500Y-109531916D01*
X122260500Y-109491370D01*
X122260499Y-109491363D01*
X122260499Y-109200624D01*
X122259932Y-109195400D01*
X122254705Y-109147278D01*
X122254704Y-109147274D01*
X122253851Y-109139420D01*
X122203526Y-109005176D01*
X122198146Y-108997997D01*
X122198144Y-108997994D01*
X122122938Y-108897649D01*
X122117546Y-108890454D01*
X122110365Y-108885072D01*
X122110360Y-108885067D01*
X122055875Y-108844232D01*
X122024011Y-108809246D01*
X122020919Y-108804200D01*
X122020914Y-108804194D01*
X122017981Y-108799407D01*
X121991720Y-108769933D01*
X121983481Y-108759649D01*
X121963724Y-108732154D01*
X121960448Y-108727595D01*
X121918970Y-108687400D01*
X121916536Y-108685041D01*
X121910145Y-108678377D01*
X121869485Y-108632741D01*
X121865070Y-108629279D01*
X121838426Y-108608386D01*
X121828492Y-108599720D01*
X121824037Y-108595403D01*
X121800146Y-108572251D01*
X121795487Y-108569121D01*
X121795483Y-108569117D01*
X121749390Y-108538144D01*
X121741918Y-108532715D01*
X121693824Y-108495004D01*
X121658935Y-108476531D01*
X121647631Y-108469765D01*
X121628894Y-108457175D01*
X121614868Y-108447750D01*
X121609740Y-108445499D01*
X121609731Y-108445494D01*
X121558898Y-108423181D01*
X121550604Y-108419172D01*
X121496547Y-108390550D01*
X121487865Y-108387779D01*
X121458929Y-108378544D01*
X121446594Y-108373883D01*
X121410471Y-108358026D01*
X121388054Y-108352644D01*
X121351039Y-108343757D01*
X121342147Y-108341275D01*
X121312019Y-108331661D01*
X121283891Y-108322684D01*
X121244758Y-108317532D01*
X121231802Y-108315131D01*
X121193415Y-108305915D01*
X121132383Y-108302396D01*
X121123195Y-108301527D01*
X121109949Y-108299783D01*
X121068148Y-108294280D01*
X121068145Y-108294280D01*
X121062578Y-108293547D01*
X121023146Y-108295407D01*
X121009962Y-108295338D01*
X120996240Y-108294547D01*
X120976168Y-108293389D01*
X120976165Y-108293389D01*
X120970562Y-108293066D01*
X120909864Y-108300411D01*
X120900677Y-108301182D01*
X120867925Y-108302727D01*
X120839602Y-108304063D01*
X120801118Y-108312877D01*
X120788140Y-108315141D01*
X120748956Y-108319883D01*
X120690515Y-108337861D01*
X120681607Y-108340248D01*
X120622013Y-108353897D01*
X120616855Y-108356097D01*
X120616852Y-108356098D01*
X120585711Y-108369381D01*
X120573326Y-108373913D01*
X120540965Y-108383868D01*
X120540960Y-108383870D01*
X120535600Y-108385519D01*
X120481268Y-108413562D01*
X120472928Y-108417487D01*
X120416687Y-108441476D01*
X120411996Y-108444557D01*
X120411995Y-108444558D01*
X120383697Y-108463146D01*
X120372314Y-108469798D01*
X120337241Y-108487901D01*
X120316591Y-108503746D01*
X120288739Y-108525117D01*
X120281214Y-108530465D01*
X120233971Y-108561498D01*
X120233965Y-108561503D01*
X120230116Y-108564031D01*
X120220890Y-108572251D01*
X120215584Y-108576978D01*
X120151415Y-108607359D01*
X120131767Y-108608900D01*
X118769332Y-108608900D01*
X118706905Y-108592348D01*
X118640354Y-108554387D01*
X118635857Y-108551696D01*
X118565710Y-108507693D01*
X118549221Y-108501065D01*
X118533791Y-108493605D01*
X118523239Y-108487586D01*
X118523237Y-108487585D01*
X118518363Y-108484805D01*
X118440339Y-108457175D01*
X118435403Y-108455310D01*
X118363794Y-108426524D01*
X118358595Y-108424434D01*
X118353109Y-108423298D01*
X118353103Y-108423296D01*
X118341194Y-108420830D01*
X118324698Y-108416225D01*
X118307944Y-108410292D01*
X118251496Y-108401048D01*
X118226251Y-108396914D01*
X118221063Y-108395952D01*
X118160948Y-108383503D01*
X118140010Y-108379167D01*
X118135399Y-108378901D01*
X118135398Y-108378901D01*
X118112439Y-108377577D01*
X118099336Y-108376130D01*
X118093202Y-108375126D01*
X118093196Y-108375126D01*
X118087654Y-108374218D01*
X118082040Y-108374306D01*
X118082038Y-108374306D01*
X117981595Y-108375884D01*
X117979616Y-108375900D01*
X116760470Y-108375900D01*
X116757683Y-108376149D01*
X116757677Y-108376149D01*
X116688103Y-108382359D01*
X116594761Y-108390689D01*
X116589347Y-108392170D01*
X116589342Y-108392171D01*
X116482775Y-108421325D01*
X116379449Y-108449592D01*
X116374391Y-108452004D01*
X116374387Y-108452006D01*
X116289765Y-108492369D01*
X116177971Y-108545692D01*
X115996695Y-108675952D01*
X115992791Y-108679980D01*
X115992787Y-108679984D01*
X115877760Y-108798682D01*
X115815990Y-108833681D01*
X115745104Y-108829728D01*
X115721161Y-108818256D01*
X115671420Y-108787596D01*
X115658239Y-108781449D01*
X115509486Y-108732109D01*
X115496110Y-108729242D01*
X115405203Y-108719928D01*
X115400174Y-108719671D01*
X115385176Y-108724075D01*
X115383971Y-108725465D01*
X115382300Y-108733148D01*
X115382300Y-110667485D01*
X114874300Y-110667485D01*
X114874300Y-109974715D01*
X114869825Y-109959476D01*
X114868435Y-109958271D01*
X114860752Y-109956600D01*
X114188415Y-109956600D01*
X114173176Y-109961075D01*
X114171971Y-109962465D01*
X114170300Y-109970148D01*
X114170300Y-109998038D01*
X107864718Y-109998038D01*
X107839414Y-109933137D01*
X107811414Y-109887444D01*
X107725715Y-109747594D01*
X107725712Y-109747590D01*
X107722781Y-109742807D01*
X107719046Y-109738615D01*
X107719043Y-109738611D01*
X107636141Y-109645564D01*
X107605759Y-109581397D01*
X107614892Y-109510990D01*
X107622957Y-109495630D01*
X107629802Y-109484525D01*
X107635951Y-109471339D01*
X107649502Y-109430485D01*
X114170300Y-109430485D01*
X114174775Y-109445724D01*
X114176165Y-109446929D01*
X114183848Y-109448600D01*
X114856185Y-109448600D01*
X114871424Y-109444125D01*
X114872629Y-109442735D01*
X114874300Y-109435052D01*
X114874300Y-108737715D01*
X114869825Y-108722476D01*
X114868435Y-108721271D01*
X114860752Y-108719600D01*
X114857862Y-108719600D01*
X114851347Y-108719937D01*
X114759243Y-108729494D01*
X114745844Y-108732388D01*
X114597193Y-108781981D01*
X114584014Y-108788155D01*
X114451127Y-108870388D01*
X114439726Y-108879424D01*
X114329314Y-108990029D01*
X114320302Y-109001440D01*
X114238296Y-109134480D01*
X114232149Y-109147661D01*
X114182809Y-109296414D01*
X114179942Y-109309790D01*
X114170628Y-109400697D01*
X114170300Y-109407114D01*
X114170300Y-109430485D01*
X107649502Y-109430485D01*
X107685291Y-109322586D01*
X107688158Y-109309210D01*
X107697472Y-109218303D01*
X107697729Y-109213274D01*
X107693325Y-109198276D01*
X107691935Y-109197071D01*
X107684252Y-109195400D01*
X105749915Y-109195400D01*
X105734676Y-109199875D01*
X105733471Y-109201265D01*
X105731800Y-109208948D01*
X105731800Y-109211838D01*
X105732137Y-109218353D01*
X105741694Y-109310457D01*
X105744588Y-109323856D01*
X105794181Y-109472507D01*
X105800354Y-109485683D01*
X105805836Y-109494543D01*
X105824673Y-109562995D01*
X105803511Y-109630764D01*
X105787786Y-109649940D01*
X105661216Y-109776510D01*
X105648826Y-109787377D01*
X105631346Y-109800790D01*
X105625966Y-109806703D01*
X105576854Y-109860676D01*
X105572755Y-109864971D01*
X105556920Y-109880806D01*
X105540283Y-109900704D01*
X105536832Y-109904659D01*
X105481114Y-109965893D01*
X105471670Y-109980948D01*
X105461601Y-109994806D01*
X105450203Y-110008438D01*
X105447422Y-110013314D01*
X105409192Y-110080337D01*
X105406496Y-110084843D01*
X105362493Y-110154990D01*
X105355865Y-110171479D01*
X105348405Y-110186909D01*
X105339605Y-110202337D01*
X105337733Y-110207624D01*
X105311975Y-110280361D01*
X105310110Y-110285297D01*
X105279234Y-110362105D01*
X105278098Y-110367591D01*
X105278096Y-110367597D01*
X105275630Y-110379506D01*
X105271025Y-110396002D01*
X105265092Y-110412756D01*
X105258608Y-110452351D01*
X105251714Y-110494449D01*
X105250752Y-110499637D01*
X105238303Y-110559752D01*
X105233967Y-110580690D01*
X105233701Y-110585301D01*
X105233701Y-110585302D01*
X105232377Y-110608261D01*
X105230930Y-110621364D01*
X105229926Y-110627498D01*
X105229926Y-110627504D01*
X105229018Y-110633046D01*
X105229106Y-110638660D01*
X105229106Y-110638662D01*
X105230684Y-110739105D01*
X105230700Y-110741084D01*
X105230700Y-110813100D01*
X105210698Y-110881221D01*
X105157042Y-110927714D01*
X105104700Y-110939100D01*
X104739099Y-110939100D01*
X104670978Y-110919098D01*
X104624485Y-110865442D01*
X104614381Y-110795168D01*
X104643875Y-110730588D01*
X104650004Y-110724005D01*
X104668285Y-110705724D01*
X104744786Y-110603649D01*
X104753324Y-110588054D01*
X104798478Y-110467606D01*
X104802105Y-110452351D01*
X104807631Y-110401486D01*
X104808000Y-110394672D01*
X104808000Y-109947115D01*
X104803525Y-109931876D01*
X104802135Y-109930671D01*
X104794452Y-109929000D01*
X102072000Y-109929000D01*
X102003879Y-109908998D01*
X101957386Y-109855342D01*
X101946000Y-109803000D01*
X101946000Y-109402885D01*
X102454000Y-109402885D01*
X102458475Y-109418124D01*
X102459865Y-109419329D01*
X102467548Y-109421000D01*
X104789884Y-109421000D01*
X104805123Y-109416525D01*
X104806328Y-109415135D01*
X104807999Y-109407452D01*
X104807999Y-108955331D01*
X104807629Y-108948510D01*
X104802105Y-108897648D01*
X104798479Y-108882396D01*
X104753324Y-108761946D01*
X104744786Y-108746351D01*
X104687209Y-108669526D01*
X105731871Y-108669526D01*
X105736275Y-108684524D01*
X105737665Y-108685729D01*
X105745348Y-108687400D01*
X106442685Y-108687400D01*
X106457924Y-108682925D01*
X106459129Y-108681535D01*
X106460800Y-108673852D01*
X106460800Y-108669285D01*
X106968800Y-108669285D01*
X106973275Y-108684524D01*
X106974665Y-108685729D01*
X106982348Y-108687400D01*
X107679685Y-108687400D01*
X107694924Y-108682925D01*
X107696129Y-108681535D01*
X107697800Y-108673852D01*
X107697800Y-108670962D01*
X107697463Y-108664447D01*
X107687906Y-108572343D01*
X107685012Y-108558944D01*
X107635419Y-108410292D01*
X107629245Y-108397114D01*
X107547012Y-108264227D01*
X107537976Y-108252826D01*
X107427371Y-108142414D01*
X107415960Y-108133402D01*
X107401560Y-108124526D01*
X126525071Y-108124526D01*
X126529475Y-108139524D01*
X126530865Y-108140729D01*
X126538548Y-108142400D01*
X127235885Y-108142400D01*
X127251124Y-108137925D01*
X127252329Y-108136535D01*
X127254000Y-108128852D01*
X127254000Y-108124285D01*
X127762000Y-108124285D01*
X127766475Y-108139524D01*
X127767865Y-108140729D01*
X127775548Y-108142400D01*
X128472885Y-108142400D01*
X128488124Y-108137925D01*
X128489329Y-108136535D01*
X128491000Y-108128852D01*
X128491000Y-108125962D01*
X128490663Y-108119447D01*
X128481106Y-108027343D01*
X128478212Y-108013944D01*
X128428619Y-107865293D01*
X128422445Y-107852114D01*
X128340212Y-107719227D01*
X128331176Y-107707826D01*
X128220571Y-107597414D01*
X128209160Y-107588402D01*
X128076120Y-107506396D01*
X128062939Y-107500249D01*
X127914186Y-107450909D01*
X127900810Y-107448042D01*
X127809903Y-107438728D01*
X127803486Y-107438400D01*
X127780115Y-107438400D01*
X127764876Y-107442875D01*
X127763671Y-107444265D01*
X127762000Y-107451948D01*
X127762000Y-108124285D01*
X127254000Y-108124285D01*
X127254000Y-107456515D01*
X127249525Y-107441276D01*
X127248135Y-107440071D01*
X127240452Y-107438400D01*
X127212562Y-107438400D01*
X127206047Y-107438737D01*
X127113943Y-107448294D01*
X127100544Y-107451188D01*
X126951893Y-107500781D01*
X126938714Y-107506955D01*
X126805827Y-107589188D01*
X126794426Y-107598224D01*
X126684014Y-107708829D01*
X126675002Y-107720240D01*
X126592996Y-107853280D01*
X126586849Y-107866461D01*
X126537509Y-108015214D01*
X126534642Y-108028590D01*
X126525328Y-108119497D01*
X126525071Y-108124526D01*
X107401560Y-108124526D01*
X107282920Y-108051396D01*
X107269739Y-108045249D01*
X107120986Y-107995909D01*
X107107610Y-107993042D01*
X107016703Y-107983728D01*
X107010286Y-107983400D01*
X106986915Y-107983400D01*
X106971676Y-107987875D01*
X106970471Y-107989265D01*
X106968800Y-107996948D01*
X106968800Y-108669285D01*
X106460800Y-108669285D01*
X106460800Y-108001515D01*
X106456325Y-107986276D01*
X106454935Y-107985071D01*
X106447252Y-107983400D01*
X106419362Y-107983400D01*
X106412847Y-107983737D01*
X106320743Y-107993294D01*
X106307344Y-107996188D01*
X106158693Y-108045781D01*
X106145514Y-108051955D01*
X106012627Y-108134188D01*
X106001226Y-108143224D01*
X105890814Y-108253829D01*
X105881802Y-108265240D01*
X105799796Y-108398280D01*
X105793649Y-108411461D01*
X105744309Y-108560214D01*
X105741442Y-108573590D01*
X105732128Y-108664497D01*
X105731871Y-108669526D01*
X104687209Y-108669526D01*
X104668285Y-108644276D01*
X104655724Y-108631715D01*
X104553649Y-108555214D01*
X104538054Y-108546676D01*
X104417606Y-108501522D01*
X104402351Y-108497895D01*
X104351486Y-108492369D01*
X104344672Y-108492000D01*
X102472115Y-108492000D01*
X102456876Y-108496475D01*
X102455671Y-108497865D01*
X102454000Y-108505548D01*
X102454000Y-109402885D01*
X101946000Y-109402885D01*
X101946000Y-108510116D01*
X101941525Y-108494877D01*
X101940135Y-108493672D01*
X101932452Y-108492001D01*
X100626000Y-108492001D01*
X100557879Y-108471999D01*
X100511386Y-108418343D01*
X100500000Y-108366001D01*
X100500000Y-103000000D01*
X101394551Y-103000000D01*
X101414317Y-103251148D01*
X101473127Y-103496111D01*
X101569534Y-103728859D01*
X101701164Y-103943659D01*
X101704376Y-103947419D01*
X101704379Y-103947424D01*
X101849256Y-104117052D01*
X101864776Y-104135224D01*
X101868538Y-104138437D01*
X102052576Y-104295621D01*
X102052581Y-104295624D01*
X102056341Y-104298836D01*
X102271141Y-104430466D01*
X102275711Y-104432359D01*
X102275715Y-104432361D01*
X102499316Y-104524979D01*
X102503889Y-104526873D01*
X102588289Y-104547135D01*
X102744039Y-104584528D01*
X102744045Y-104584529D01*
X102748852Y-104585683D01*
X102837149Y-104592632D01*
X102934661Y-104600307D01*
X102934670Y-104600307D01*
X102937118Y-104600500D01*
X103062882Y-104600500D01*
X103065330Y-104600307D01*
X103065339Y-104600307D01*
X103162851Y-104592632D01*
X103251148Y-104585683D01*
X103255955Y-104584529D01*
X103255961Y-104584528D01*
X103411711Y-104547135D01*
X103496111Y-104526873D01*
X103500684Y-104524979D01*
X103724285Y-104432361D01*
X103724289Y-104432359D01*
X103728859Y-104430466D01*
X103943659Y-104298836D01*
X103947419Y-104295624D01*
X103947424Y-104295621D01*
X104131462Y-104138437D01*
X104135224Y-104135224D01*
X104150744Y-104117052D01*
X104295621Y-103947424D01*
X104295624Y-103947419D01*
X104298836Y-103943659D01*
X104430466Y-103728859D01*
X104526873Y-103496111D01*
X104585683Y-103251148D01*
X104605449Y-103000000D01*
X130394551Y-103000000D01*
X130414317Y-103251148D01*
X130473127Y-103496111D01*
X130569534Y-103728859D01*
X130701164Y-103943659D01*
X130704376Y-103947419D01*
X130704379Y-103947424D01*
X130849256Y-104117052D01*
X130864776Y-104135224D01*
X130868538Y-104138437D01*
X131052576Y-104295621D01*
X131052581Y-104295624D01*
X131056341Y-104298836D01*
X131271141Y-104430466D01*
X131275711Y-104432359D01*
X131275715Y-104432361D01*
X131499316Y-104524979D01*
X131503889Y-104526873D01*
X131588289Y-104547135D01*
X131744039Y-104584528D01*
X131744045Y-104584529D01*
X131748852Y-104585683D01*
X131837149Y-104592632D01*
X131934661Y-104600307D01*
X131934670Y-104600307D01*
X131937118Y-104600500D01*
X132062882Y-104600500D01*
X132065330Y-104600307D01*
X132065339Y-104600307D01*
X132162851Y-104592632D01*
X132251148Y-104585683D01*
X132255955Y-104584529D01*
X132255961Y-104584528D01*
X132411711Y-104547135D01*
X132496111Y-104526873D01*
X132500684Y-104524979D01*
X132724285Y-104432361D01*
X132724289Y-104432359D01*
X132728859Y-104430466D01*
X132943659Y-104298836D01*
X132947419Y-104295624D01*
X132947424Y-104295621D01*
X133131462Y-104138437D01*
X133135224Y-104135224D01*
X133150744Y-104117052D01*
X133295621Y-103947424D01*
X133295624Y-103947419D01*
X133298836Y-103943659D01*
X133430466Y-103728859D01*
X133526873Y-103496111D01*
X133585683Y-103251148D01*
X133605449Y-103000000D01*
X133585683Y-102748852D01*
X133526873Y-102503889D01*
X133430466Y-102271141D01*
X133298836Y-102056341D01*
X133295624Y-102052581D01*
X133295621Y-102052576D01*
X133138437Y-101868538D01*
X133135224Y-101864776D01*
X133117052Y-101849256D01*
X132947424Y-101704379D01*
X132947419Y-101704376D01*
X132943659Y-101701164D01*
X132728859Y-101569534D01*
X132724289Y-101567641D01*
X132724285Y-101567639D01*
X132500684Y-101475021D01*
X132500682Y-101475020D01*
X132496111Y-101473127D01*
X132411711Y-101452865D01*
X132255961Y-101415472D01*
X132255955Y-101415471D01*
X132251148Y-101414317D01*
X132162851Y-101407368D01*
X132065339Y-101399693D01*
X132065330Y-101399693D01*
X132062882Y-101399500D01*
X131937118Y-101399500D01*
X131934670Y-101399693D01*
X131934661Y-101399693D01*
X131837149Y-101407368D01*
X131748852Y-101414317D01*
X131744045Y-101415471D01*
X131744039Y-101415472D01*
X131588289Y-101452865D01*
X131503889Y-101473127D01*
X131499318Y-101475020D01*
X131499316Y-101475021D01*
X131275715Y-101567639D01*
X131275711Y-101567641D01*
X131271141Y-101569534D01*
X131056341Y-101701164D01*
X131052581Y-101704376D01*
X131052576Y-101704379D01*
X130882948Y-101849256D01*
X130864776Y-101864776D01*
X130861563Y-101868538D01*
X130704379Y-102052576D01*
X130704376Y-102052581D01*
X130701164Y-102056341D01*
X130569534Y-102271141D01*
X130473127Y-102503889D01*
X130414317Y-102748852D01*
X130394551Y-103000000D01*
X104605449Y-103000000D01*
X104585683Y-102748852D01*
X104526873Y-102503889D01*
X104430466Y-102271141D01*
X104298836Y-102056341D01*
X104295624Y-102052581D01*
X104295621Y-102052576D01*
X104138437Y-101868538D01*
X104135224Y-101864776D01*
X104117052Y-101849256D01*
X103947424Y-101704379D01*
X103947419Y-101704376D01*
X103943659Y-101701164D01*
X103728859Y-101569534D01*
X103724289Y-101567641D01*
X103724285Y-101567639D01*
X103500684Y-101475021D01*
X103500682Y-101475020D01*
X103496111Y-101473127D01*
X103411711Y-101452865D01*
X103255961Y-101415472D01*
X103255955Y-101415471D01*
X103251148Y-101414317D01*
X103162851Y-101407368D01*
X103065339Y-101399693D01*
X103065330Y-101399693D01*
X103062882Y-101399500D01*
X102937118Y-101399500D01*
X102934670Y-101399693D01*
X102934661Y-101399693D01*
X102837149Y-101407368D01*
X102748852Y-101414317D01*
X102744045Y-101415471D01*
X102744039Y-101415472D01*
X102588289Y-101452865D01*
X102503889Y-101473127D01*
X102499318Y-101475020D01*
X102499316Y-101475021D01*
X102275715Y-101567639D01*
X102275711Y-101567641D01*
X102271141Y-101569534D01*
X102056341Y-101701164D01*
X102052581Y-101704376D01*
X102052576Y-101704379D01*
X101882948Y-101849256D01*
X101864776Y-101864776D01*
X101861563Y-101868538D01*
X101704379Y-102052576D01*
X101704376Y-102052581D01*
X101701164Y-102056341D01*
X101569534Y-102271141D01*
X101473127Y-102503889D01*
X101414317Y-102748852D01*
X101394551Y-103000000D01*
X100500000Y-103000000D01*
X100500000Y-100626000D01*
X100520002Y-100557879D01*
X100573658Y-100511386D01*
X100626000Y-100500000D01*
X134374000Y-100500000D01*
X134442121Y-100520002D01*
G37*
%TD.AperFunction*%
%TD*%
M02*
