M48
; DRILL file {KiCad (6.0.1)} date Sat Feb 12 11:42:31 2022
; FORMAT={-:-/ absolute / metric / decimal}
; #@! TF.CreationDate,2022-02-12T11:42:31+00:00
; #@! TF.GenerationSoftware,Kicad,Pcbnew,(6.0.1)
; #@! TF.FileFunction,MixedPlating,1,2
FMAT,2
METRIC
; #@! TA.AperFunction,Plated,PTH,ViaDrill
T1C0.400
; #@! TA.AperFunction,NonPlated,NPTH,ComponentDrill
T2C2.200
%
G90
G05
T1
X100.66Y-107.493
X100.686Y-116.84
X102.133Y-107.442
X102.387Y-116.891
X103.759Y-107.544
X104.115Y-116.815
X105.308Y-109.271
X105.41Y-115.062
X106.629Y-107.29
X106.807Y-116.662
X108.255Y-108.737
X108.28Y-110.871
X108.315Y-115.025
X108.331Y-112.827
X111.354Y-112.37
X111.379Y-110.084
X111.379Y-115.189
X111.811Y-116.637
X112.09Y-118.237
X112.344Y-121.031
X113.589Y-110.338
X113.894Y-118.72
X114.681Y-108.229
X115.113Y-111.557
X115.164Y-114.783
X116.256Y-118.745
X117.566Y-108.052
X118.135Y-111.735
X118.43Y-118.618
X118.557Y-114.249
X119.507Y-108.255
X120.332Y-117.145
X120.662Y-115.57
X121.666Y-108.204
X122.211Y-114.249
X122.809Y-112.649
X122.885Y-110.871
X122.961Y-109.068
X125.679Y-109.652
X125.679Y-112.497
X125.705Y-106.782
X125.781Y-114.658
X125.806Y-118.138
X125.832Y-116.611
X125.933Y-108.204
X127.127Y-106.883
X127.33Y-118.087
X129.134Y-107.292
X129.388Y-117.884
X130.708Y-116.969
X130.785Y-108.232
T2
X103.0Y-103.0
X103.0Y-122.0
X132.0Y-103.0
X132.0Y-122.0
T0
M30
