M48
; DRILL file {KiCad 8.0.3} date 2024-07-08T19:31:20+0100
; FORMAT={-:-/ absolute / inch / decimal}
; #@! TF.CreationDate,2024-07-08T19:31:20+01:00
; #@! TF.GenerationSoftware,Kicad,Pcbnew,8.0.3
; #@! TF.FileFunction,Plated,1,4,PTH
FMAT,2
INCH
; #@! TA.AperFunction,Plated,PTH,ComponentDrill
T1C0.0118
; #@! TA.AperFunction,Plated,PTH,ViaDrill
T2C0.0157
; #@! TA.AperFunction,Plated,PTH,ViaDrill
T3C0.0197
; #@! TA.AperFunction,Plated,PTH,ComponentDrill
T4C0.0197
; #@! TA.AperFunction,Plated,PTH,ComponentDrill
T5C0.0300
; #@! TA.AperFunction,Plated,PTH,ComponentDrill
T6C0.0315
; #@! TA.AperFunction,Plated,PTH,ComponentDrill
T7C0.0374
; #@! TA.AperFunction,Plated,PTH,ComponentDrill
T8C0.0394
; #@! TA.AperFunction,Plated,PTH,ComponentDrill
T9C0.0591
; #@! TA.AperFunction,Plated,PTH,ComponentDrill
T10C0.0787
; #@! TA.AperFunction,Plated,PTH,ComponentDrill
T11C0.1260
%
G90
G05
T1
X3.5953Y-2.3776
X3.5953Y-2.4169
X3.5953Y-2.4563
X3.6465Y-2.3776
X3.6465Y-2.4169
X3.6465Y-2.4563
T2
X1.7268Y-1.6118
X1.7594Y-2.5016
X1.776Y-1.3079
X1.7791Y-1.663
X1.8354Y-2.1563
X1.9142Y-1.3339
X1.9248Y-1.6512
X1.9496Y-1.4713
X1.9677Y-1.9315
X2.1248Y-1.8531
X2.1754Y-0.8435
X2.198Y-1.2752
X2.3156Y-1.2175
X2.326Y-1.9654
X2.3382Y-1.1299
X2.339Y-2.1512
X2.3504Y-3.9268
X2.3508Y-3.8685
X2.3516Y-2.4307
X2.3543Y-3.8051
X2.3555Y-1.7122
X2.3799Y-1.2457
X2.4012Y-2.613
X2.4122Y-4.2642
X2.4217Y-4.0787
X2.4299Y-4.4512
X2.4317Y-2.3406
X2.4348Y-1.8772
X2.4634Y-3.3378
X2.4642Y-3.5055
X2.4673Y-3.6559
X2.472Y-3.9276
X2.4732Y-3.8449
X2.4732Y-3.885
X2.4764Y-3.8024
X2.5266Y-1.1175
X2.5268Y-1.0205
X2.5513Y-1.3928
X2.5938Y-1.4411
X2.6236Y-3.9299
X2.624Y-3.8886
X2.626Y-3.8461
X2.6272Y-3.8055
X2.6319Y-1.1213
X2.6366Y-4.4425
X2.637Y-3.5008
X2.637Y-3.6626
X2.6378Y-4.2642
X2.6429Y-4.0831
X2.6453Y-1.1604
X2.6488Y-3.3299
X2.6611Y-1.227
X2.699Y-1.5406
X2.7115Y-1.29
X2.7299Y-1.1604
X2.7469Y-1.702
X2.7669Y-2.9374
X2.7854Y-1.4218
X2.8264Y-3.8205
X2.8402Y-4.087
X2.8402Y-4.4472
X2.8425Y-4.2614
X2.8462Y-1.4058
X2.8472Y-3.3323
X2.8554Y-1.2784
X2.8583Y-3.5063
X2.863Y-3.6476
X2.8816Y-3.0525
X2.8827Y-1.4612
X2.9134Y-3.8488
X2.9134Y-3.9165
X2.9235Y-1.5066
X2.9488Y-1.6796
X3.0268Y-1.426
X3.0307Y-1.1571
X3.0346Y-1.4963
X3.0618Y-3.0717
X3.0717Y-2.4374
X3.0847Y-1.8677
X3.1465Y-1.3594
X3.1614Y-1.1465
X3.1754Y-2.0547
X3.1874Y-1.5547
X3.1986Y-2.2476
X3.252Y-1.2026
X3.3063Y-1.7453
X3.4079Y-1.3476
X3.4193Y-2.4484
X3.4559Y-2.2976
X3.5406Y-1.5165
X3.6Y-1.1421
X3.6177Y-2.3394
X3.6193Y-2.4961
X3.6566Y-1.3234
X3.7327Y-1.1961
X3.7731Y-2.0659
X3.7789Y-1.2675
X3.8087Y-2.1385
X3.8138Y-1.8287
X3.8232Y-1.6138
X3.9078Y-2.4382
X3.9163Y-1.8501
X3.9295Y-1.4299
X4.0153Y-1.791
X4.2003Y-1.8225
X4.224Y-1.9902
X4.2406Y-2.0354
X4.2988Y-1.7886
X4.4021Y-2.0908
X4.5059Y-1.7071
X4.5339Y-1.3165
X4.5496Y-1.8701
T3
X1.0425Y-3.0256
X1.0425Y-3.2098
X1.0425Y-3.4386
X1.0425Y-3.6425
X1.0425Y-3.9213
X1.0425Y-4.1587
X1.0425Y-4.3709
X1.0425Y-4.5606
X1.2366Y-3.024
X1.2366Y-3.2083
X1.2366Y-3.437
X1.2366Y-3.6409
X1.2366Y-3.9197
X1.2366Y-4.1571
X1.2366Y-4.3693
X1.2366Y-4.5591
X1.8429Y-2.7886
X1.8429Y-2.9295
X1.8429Y-3.0433
X1.8429Y-3.1531
X1.8469Y-3.7949
X1.848Y-3.4236
X1.848Y-3.6024
X1.848Y-4.1118
X1.848Y-4.2811
X1.848Y-4.4449
X1.848Y-4.5917
X1.8488Y-3.2972
X1.8508Y-3.9319
X2.0276Y-3.7925
X2.0287Y-3.4213
X2.0287Y-3.6
X2.0287Y-4.1094
X2.0287Y-4.2787
X2.0287Y-4.4425
X2.0287Y-4.5894
X2.0295Y-3.2949
X2.0315Y-3.9295
X2.0319Y-2.789
X2.0319Y-2.9295
X2.0319Y-3.0437
X2.0319Y-3.1535
X2.2091Y-3.4177
X2.2091Y-3.5961
X2.2091Y-3.7953
X2.2091Y-3.9311
X2.2091Y-4.1094
X2.2091Y-4.2657
X2.2091Y-4.435
X2.2091Y-4.5819
X2.2098Y-3.3004
X2.2161Y-2.7846
X2.2161Y-2.9295
X2.2161Y-3.0394
X2.2161Y-3.1492
X2.4008Y-2.7823
X2.4008Y-2.9295
X2.4008Y-3.037
X2.4008Y-3.1469
X2.4787Y-3.1472
X2.4795Y-3.0386
X2.5024Y-2.9295
X2.5831Y-2.9295
X2.5866Y-2.7776
X2.8563Y-4.6413
X3.0142Y-3.4724
X3.0165Y-3.2429
X3.0177Y-3.7012
X3.0185Y-4.5232
X3.0217Y-3.1335
X3.0335Y-4.2575
X3.035Y-3.8016
X3.0425Y-3.9543
X3.0425Y-4.0693
X3.1587Y-3.1339
X3.1591Y-3.2429
X3.1642Y-3.4724
X3.1748Y-3.7012
X3.1768Y-4.5122
X3.1913Y-4.0638
X3.1933Y-4.2591
X3.2858Y-3.2429
X3.2862Y-3.1331
X3.3421Y-4.4992
X3.3441Y-3.4724
X3.3461Y-3.7012
X3.3461Y-4.2685
X3.3496Y-4.0583
X3.385Y-3.2429
X3.3866Y-3.1335
X3.4854Y-3.2429
X3.4854Y-4.4992
X3.4858Y-3.1323
X3.4874Y-4.263
X3.4949Y-4.0528
X3.5024Y-3.4724
X3.5039Y-3.7012
X3.6016Y-4.0299
X3.6016Y-4.1591
X3.6016Y-4.2909
X3.6016Y-4.3984
X3.6016Y-4.552
X3.602Y-3.2311
X3.6031Y-3.3776
X3.6043Y-3.5213
X3.6106Y-3.6752
X3.7433Y-4.028
X3.7433Y-4.1531
X3.7484Y-3.5201
X3.7496Y-3.6724
X3.752Y-3.2276
X3.7555Y-3.3748
X3.9106Y-3.2248
X3.9106Y-3.3776
X3.9106Y-3.5189
X3.9106Y-3.6701
X3.9185Y-4.0248
X3.9185Y-4.1575
X3.9185Y-4.2803
X3.9185Y-4.3917
X3.9185Y-4.5035
X3.9421Y-2.9169
X3.9437Y-3.111
X4.0815Y-4.0236
X4.0815Y-4.1563
X4.0815Y-4.2791
X4.0815Y-4.3906
X4.0992Y-3.2287
X4.0992Y-3.3815
X4.0992Y-3.5228
X4.0992Y-3.674
X4.1264Y-2.9169
X4.128Y-3.111
X4.3551Y-2.9169
X4.3567Y-3.111
X4.5591Y-2.9169
X4.5606Y-3.111
X4.678Y-3.326
X4.678Y-3.5102
X4.678Y-3.739
X4.678Y-3.9429
X4.678Y-4.2217
X4.8378Y-2.9169
X4.8394Y-3.111
X4.872Y-3.3244
X4.872Y-3.5087
X4.872Y-3.7374
X4.872Y-3.9413
X4.872Y-4.2201
T4
X3.3913Y-3.8343
X3.3913Y-3.8839
X3.4209Y-3.7937
X3.4209Y-3.9244
X3.4681Y-3.7783
X3.4681Y-3.9398
X3.5205Y-3.7783
X3.5205Y-3.9398
X3.5732Y-3.7783
X3.5732Y-3.9398
X3.6256Y-3.7783
X3.6256Y-3.9398
X3.6728Y-3.7937
X3.6728Y-3.9244
X3.7024Y-3.8343
X3.7024Y-3.8839
X3.785Y-3.8343
X3.785Y-3.8839
X3.8146Y-3.7937
X3.8146Y-3.9244
X3.8618Y-3.7783
X3.8618Y-3.9398
X3.9142Y-3.7783
X3.9142Y-3.9398
X3.9669Y-3.7783
X3.9669Y-3.9398
X4.0193Y-3.7783
X4.0193Y-3.9398
X4.0665Y-3.7937
X4.0665Y-3.9244
X4.0961Y-3.8343
X4.0961Y-3.8839
T5
X1.3929Y-3.7049
X1.3929Y-3.9214
X1.3976Y-3.0169
X1.3976Y-3.2335
X1.3976Y-3.45
X1.3976Y-4.1441
X1.3976Y-4.3606
X1.3976Y-4.5772
X1.4814Y-3.7049
X1.4814Y-3.9214
X1.4862Y-3.0169
X1.4862Y-3.2335
X1.4862Y-3.45
X1.4862Y-4.1441
X1.4862Y-4.3606
X1.4862Y-4.5772
X1.57Y-3.7049
X1.57Y-3.9214
X1.5748Y-3.0169
X1.5748Y-3.2335
X1.5748Y-3.45
X1.5748Y-4.1441
X1.5748Y-4.3606
X1.5748Y-4.5772
X1.6586Y-3.7049
X1.6586Y-3.9214
X1.6634Y-3.0169
X1.6634Y-3.2335
X1.6634Y-3.45
X1.6634Y-4.1441
X1.6634Y-4.3606
X1.6634Y-4.5772
X1.7472Y-3.7049
X1.7472Y-3.9214
X1.752Y-3.0169
X1.752Y-3.2335
X1.752Y-3.45
X1.752Y-4.1441
X1.752Y-4.3606
X1.752Y-4.5772
X4.2126Y-3.7809
X4.2126Y-3.9974
X4.2126Y-4.2139
X4.2174Y-3.3094
X4.2174Y-3.526
X4.3012Y-3.7809
X4.3012Y-3.9974
X4.3012Y-4.2139
X4.306Y-3.3094
X4.306Y-3.526
X4.3898Y-3.7809
X4.3898Y-3.9974
X4.3898Y-4.2139
X4.3945Y-3.3094
X4.3945Y-3.526
X4.4783Y-3.7809
X4.4783Y-3.9974
X4.4783Y-4.2139
X4.4831Y-3.3094
X4.4831Y-3.526
X4.5669Y-3.7809
X4.5669Y-3.9974
X4.5669Y-4.2139
X4.5717Y-3.3094
X4.5717Y-3.526
T6
X3.6685Y-3.0165
X3.7437Y-3.0165
X3.8189Y-3.0165
T7
X1.3583Y-1.3386
X1.3583Y-1.437
X1.3583Y-1.5354
X1.3583Y-1.6339
X1.3583Y-1.9685
X1.3583Y-2.0669
X1.3583Y-2.1654
X1.3583Y-2.2638
T8
X4.5394Y-2.2752
X4.5394Y-2.3736
T9
X1.4488Y-3.5868
X1.4488Y-3.823
X1.4535Y-3.1154
X1.4535Y-3.3516
X1.4535Y-4.2425
X1.4535Y-4.4787
X1.6488Y-3.5868
X1.6488Y-3.823
X1.6535Y-3.1154
X1.6535Y-3.3516
X1.6535Y-4.2425
X1.6535Y-4.4787
X4.311Y-3.8793
X4.311Y-4.1155
X4.3158Y-3.4079
X4.3158Y-3.6441
X4.511Y-3.8793
X4.511Y-4.1155
X4.5158Y-3.4079
X4.5158Y-3.6441
T11
X1.2205Y-1.0236
X1.2205Y-2.7559
X4.685Y-1.0236
X4.685Y-2.7559
X4.685Y-4.4882
T10
G00X3.6256Y-3.8591
M15
G01X3.4681Y-3.8591
M16
G05
G00X4.0193Y-3.8591
M15
G01X3.8618Y-3.8591
M16
G05
M30
