%TF.GenerationSoftware,KiCad,Pcbnew,8.0.3*%
%TF.CreationDate,2024-07-08T19:31:20+01:00*%
%TF.ProjectId,PA_Power,50415f50-6f77-4657-922e-6b696361645f,rev?*%
%TF.SameCoordinates,Original*%
%TF.FileFunction,Copper,L4,Bot*%
%TF.FilePolarity,Positive*%
%FSLAX46Y46*%
G04 Gerber Fmt 4.6, Leading zero omitted, Abs format (unit mm)*
G04 Created by KiCad (PCBNEW 8.0.3) date 2024-07-08 19:31:20*
%MOMM*%
%LPD*%
G01*
G04 APERTURE LIST*
G04 Aperture macros list*
%AMRoundRect*
0 Rectangle with rounded corners*
0 $1 Rounding radius*
0 $2 $3 $4 $5 $6 $7 $8 $9 X,Y pos of 4 corners*
0 Add a 4 corners polygon primitive as box body*
4,1,4,$2,$3,$4,$5,$6,$7,$8,$9,$2,$3,0*
0 Add four circle primitives for the rounded corners*
1,1,$1+$1,$2,$3*
1,1,$1+$1,$4,$5*
1,1,$1+$1,$6,$7*
1,1,$1+$1,$8,$9*
0 Add four rect primitives between the rounded corners*
20,1,$1+$1,$2,$3,$4,$5,0*
20,1,$1+$1,$4,$5,$6,$7,0*
20,1,$1+$1,$6,$7,$8,$9,0*
20,1,$1+$1,$8,$9,$2,$3,0*%
%AMHorizOval*
0 Thick line with rounded ends*
0 $1 width*
0 $2 $3 position (X,Y) of the first rounded end (center of the circle)*
0 $4 $5 position (X,Y) of the second rounded end (center of the circle)*
0 Add line between two ends*
20,1,$1,$2,$3,$4,$5,0*
0 Add two circle primitives to create the rounded ends*
1,1,$1,$2,$3*
1,1,$1,$4,$5*%
G04 Aperture macros list end*
%TA.AperFunction,ComponentPad*%
%ADD10C,5.600000*%
%TD*%
%TA.AperFunction,ComponentPad*%
%ADD11O,1.950000X1.700000*%
%TD*%
%TA.AperFunction,ComponentPad*%
%ADD12RoundRect,0.250000X-0.725000X0.600000X-0.725000X-0.600000X0.725000X-0.600000X0.725000X0.600000X0*%
%TD*%
%TA.AperFunction,HeatsinkPad*%
%ADD13C,0.500000*%
%TD*%
%TA.AperFunction,HeatsinkPad*%
%ADD14R,1.800000X2.500000*%
%TD*%
%TA.AperFunction,ComponentPad*%
%ADD15O,2.000000X1.700000*%
%TD*%
%TA.AperFunction,ComponentPad*%
%ADD16RoundRect,0.250000X0.750000X-0.600000X0.750000X0.600000X-0.750000X0.600000X-0.750000X-0.600000X0*%
%TD*%
%TA.AperFunction,ComponentPad*%
%ADD17C,1.524000*%
%TD*%
%TA.AperFunction,ComponentPad*%
%ADD18C,2.500000*%
%TD*%
%TA.AperFunction,SMDPad,CuDef*%
%ADD19R,11.800000X25.800000*%
%TD*%
%TA.AperFunction,ComponentPad*%
%ADD20HorizOval,0.800000X0.000000X0.000000X0.000000X0.000000X0*%
%TD*%
%TA.AperFunction,ComponentPad*%
%ADD21HorizOval,0.800000X0.000000X0.000000X0.000000X0.000000X0*%
%TD*%
%TA.AperFunction,ComponentPad*%
%ADD22C,0.800000*%
%TD*%
%TA.AperFunction,ComponentPad*%
%ADD23O,9.000000X6.000000*%
%TD*%
%TA.AperFunction,ComponentPad*%
%ADD24C,1.500000*%
%TD*%
%TA.AperFunction,ComponentPad*%
%ADD25R,1.500000X1.500000*%
%TD*%
%TA.AperFunction,SMDPad,CuDef*%
%ADD26R,11.800000X13.800000*%
%TD*%
%TA.AperFunction,ViaPad*%
%ADD27C,1.000000*%
%TD*%
%TA.AperFunction,ViaPad*%
%ADD28C,0.800000*%
%TD*%
%TA.AperFunction,Conductor*%
%ADD29C,0.500000*%
%TD*%
%TA.AperFunction,Conductor*%
%ADD30C,0.250000*%
%TD*%
%TA.AperFunction,Conductor*%
%ADD31C,1.000000*%
%TD*%
G04 APERTURE END LIST*
D10*
%TO.P,H5,1,1*%
%TO.N,GND*%
X119000000Y-70000000D03*
%TD*%
D11*
%TO.P,J5,4,Pin_4*%
%TO.N,GND*%
X34500000Y-57500000D03*
%TO.P,J5,3,Pin_3*%
%TO.N,Net-(D8-A1)*%
X34500000Y-55000000D03*
%TO.P,J5,2,Pin_2*%
%TO.N,Net-(D7-A1)*%
X34500000Y-52500000D03*
D12*
%TO.P,J5,1,Pin_1*%
%TO.N,Net-(D6-A1)*%
X34500000Y-50000000D03*
%TD*%
D11*
%TO.P,J6,4,Pin_4*%
%TO.N,GND*%
X34500000Y-41500000D03*
%TO.P,J6,3,Pin_3*%
%TO.N,Net-(D8-A1)*%
X34500000Y-39000000D03*
%TO.P,J6,2,Pin_2*%
%TO.N,Net-(D7-A1)*%
X34500000Y-36500000D03*
D12*
%TO.P,J6,1,Pin_1*%
%TO.N,Net-(D6-A1)*%
X34500000Y-34000000D03*
%TD*%
D13*
%TO.P,U3,9,EP*%
%TO.N,GND*%
X92620000Y-62390000D03*
X92620000Y-61390000D03*
X92620000Y-60390000D03*
D14*
X91970000Y-61390000D03*
D13*
X91320000Y-62390000D03*
X91320000Y-61390000D03*
X91320000Y-60390000D03*
%TD*%
D15*
%TO.P,J7,2,Pin_2*%
%TO.N,GND*%
X115300000Y-57790000D03*
D16*
%TO.P,J7,1,Pin_1*%
%TO.N,Net-(D9-A1)*%
X115300000Y-60290000D03*
%TD*%
D17*
%TO.P,J4,1,Pin_1*%
%TO.N,Net-(D5-A1)*%
X116121400Y-89560000D03*
X116121400Y-84060000D03*
X116000000Y-107033800D03*
X116000000Y-101533800D03*
X116000000Y-96033800D03*
D18*
X114701400Y-92560000D03*
X114701400Y-86560000D03*
X114580000Y-104533800D03*
X114580000Y-98533800D03*
D17*
X113871400Y-89560000D03*
X113871400Y-84060000D03*
X113750000Y-107033800D03*
X113750000Y-101533800D03*
X113750000Y-96033800D03*
X111621400Y-89560000D03*
X111621400Y-84060000D03*
X111500000Y-107033800D03*
X111500000Y-101533800D03*
X111500000Y-96033800D03*
D19*
X111500000Y-95533800D03*
D18*
X109621400Y-92560000D03*
X109621400Y-86560000D03*
X109500000Y-104533800D03*
X109500000Y-98533800D03*
D17*
X109371400Y-89560000D03*
X109371400Y-84060000D03*
X109250000Y-107033800D03*
X109250000Y-101533800D03*
X109250000Y-96033800D03*
X107121400Y-89560000D03*
X107121400Y-84060000D03*
X107000000Y-107033800D03*
X107000000Y-101533800D03*
X107000000Y-96033800D03*
%TD*%
D10*
%TO.P,H2,1,1*%
%TO.N,GND*%
X31000000Y-70000000D03*
%TD*%
D17*
%TO.P,J1,1,Pin_1*%
%TO.N,Net-(D1-A1)*%
X44500000Y-87630000D03*
X44500000Y-82130000D03*
X44500000Y-76630000D03*
X44378600Y-99603800D03*
X44378600Y-94103800D03*
X42250000Y-87630000D03*
X42250000Y-82130000D03*
X42250000Y-76630000D03*
X42128600Y-99603800D03*
X42128600Y-94103800D03*
D18*
X42000000Y-85130000D03*
X42000000Y-79130000D03*
X41878600Y-97103800D03*
X41878600Y-91103800D03*
D19*
X40000000Y-88130000D03*
D17*
X40000000Y-87630000D03*
X40000000Y-82130000D03*
X40000000Y-76630000D03*
X39878600Y-99603800D03*
X39878600Y-94103800D03*
X37750000Y-87630000D03*
X37750000Y-82130000D03*
X37750000Y-76630000D03*
X37628600Y-99603800D03*
X37628600Y-94103800D03*
D18*
X36920000Y-85130000D03*
X36920000Y-79130000D03*
X36798600Y-97103800D03*
X36798600Y-91103800D03*
D17*
X35500000Y-87630000D03*
X35500000Y-82130000D03*
X35500000Y-76630000D03*
X35378600Y-99603800D03*
X35378600Y-94103800D03*
%TD*%
D20*
%TO.P,U4,5,IP-*%
%TO.N,Net-(D5-A1)*%
X96140000Y-97390000D03*
D21*
X96140000Y-98650000D03*
D22*
X96890000Y-96360000D03*
X96890000Y-99680000D03*
X98090000Y-95970000D03*
X98090000Y-100070000D03*
X99420000Y-95970000D03*
X99420000Y-100070000D03*
D23*
X100090000Y-98020000D03*
D22*
X100760000Y-95970000D03*
X100760000Y-100070000D03*
X102090000Y-95970000D03*
X102090000Y-100070000D03*
X103290000Y-96360000D03*
X103290000Y-99680000D03*
X104040000Y-97390000D03*
X104040000Y-98650000D03*
%TO.P,U4,4,IP+*%
%TO.N,Net-(Q2-D)*%
X86140000Y-97390000D03*
X86140000Y-98650000D03*
X86890000Y-96360000D03*
X86890000Y-99680000D03*
X88090000Y-95970000D03*
X88090000Y-100070000D03*
X89420000Y-95970000D03*
X89420000Y-100070000D03*
D23*
X90090000Y-98020000D03*
D22*
X90760000Y-95970000D03*
X90760000Y-100070000D03*
X92090000Y-95970000D03*
X92090000Y-100070000D03*
X93290000Y-96360000D03*
X93290000Y-99680000D03*
D21*
X94040000Y-97390000D03*
D20*
X94040000Y-98650000D03*
D24*
%TO.P,U4,3,VIOUT*%
%TO.N,/PA_Current*%
X93180000Y-76620000D03*
%TO.P,U4,2,GND*%
%TO.N,GND*%
X95090000Y-76620000D03*
D25*
%TO.P,U4,1,VCC*%
%TO.N,+3.3V*%
X97000000Y-76620000D03*
%TD*%
D10*
%TO.P,H3,1,1*%
%TO.N,GND*%
X119000000Y-26000000D03*
%TD*%
%TO.P,H4,1,1*%
%TO.N,GND*%
X31000000Y-26000000D03*
%TD*%
D17*
%TO.P,J2,1,Pin_1*%
%TO.N,GND*%
X44500000Y-116260000D03*
X44500000Y-110760000D03*
X44500000Y-105260000D03*
X42250000Y-116260000D03*
X42250000Y-110760000D03*
X42250000Y-105260000D03*
D18*
X42000000Y-113760000D03*
X42000000Y-107760000D03*
D17*
X40000000Y-116260000D03*
X40000000Y-110760000D03*
D26*
X40000000Y-110760000D03*
D17*
X40000000Y-105260000D03*
X37750000Y-116260000D03*
X37750000Y-110760000D03*
X37750000Y-105260000D03*
D18*
X36920000Y-113760000D03*
X36920000Y-107760000D03*
D17*
X35500000Y-116260000D03*
X35500000Y-110760000D03*
X35500000Y-105260000D03*
%TD*%
D10*
%TO.P,H1,1,1*%
%TO.N,GND*%
X119000000Y-114000000D03*
%TD*%
D27*
%TO.N,Net-(D1-A1)*%
X62980000Y-77180000D03*
X62960000Y-79940000D03*
X63560000Y-74410000D03*
D28*
%TO.N,GND*%
X83980000Y-44330000D03*
X87780000Y-58360000D03*
X91930000Y-63400000D03*
X91890000Y-59420000D03*
%TO.N,Net-(J3-Pin_2)*%
X82600000Y-30545000D03*
X66849416Y-28481769D03*
X64175000Y-28385000D03*
X73220000Y-37113984D03*
%TO.N,Net-(J3-Pin_1)*%
X89930000Y-38520000D03*
X86560000Y-34230000D03*
%TO.N,+3.3V*%
X59080000Y-49920000D03*
X76980000Y-29390000D03*
X99257500Y-61930000D03*
X92877500Y-33615000D03*
X91440000Y-29010000D03*
X95836956Y-52475000D03*
X80300000Y-29120000D03*
X64180000Y-25920000D03*
X80960000Y-39490000D03*
X59830000Y-43490000D03*
X74000000Y-97760002D03*
X68554746Y-39130762D03*
X99475000Y-46992500D03*
%TO.N,GND*%
X96870000Y-46450000D03*
D27*
X103670000Y-111520000D03*
X46940000Y-116630000D03*
X118820000Y-84480000D03*
D28*
X114450000Y-43360000D03*
X107290000Y-50550000D03*
D27*
X99530000Y-111550000D03*
X123750000Y-100110000D03*
X100170000Y-79020000D03*
X26480000Y-76850000D03*
X118820000Y-100150000D03*
X122920000Y-79020000D03*
D28*
X59390000Y-28700000D03*
X115560000Y-47500000D03*
D27*
X118820000Y-89160000D03*
D28*
X65881992Y-36603008D03*
D27*
X51530000Y-108680000D03*
X115840000Y-79020000D03*
D28*
X55255000Y-21425000D03*
X79920000Y-34530000D03*
D27*
X123750000Y-94930000D03*
X56110000Y-104380000D03*
X46940000Y-112900000D03*
D28*
X111812500Y-53107546D03*
D27*
X56110000Y-116380000D03*
X118820000Y-94970000D03*
X31410000Y-115800000D03*
X56110000Y-108350000D03*
X104850000Y-79020000D03*
X80230000Y-79600000D03*
D28*
X99810000Y-36320000D03*
D27*
X51530000Y-104380000D03*
D28*
X106687142Y-46290658D03*
D27*
X104810000Y-74090000D03*
X123750000Y-89120000D03*
X115800000Y-74090000D03*
D28*
X78020000Y-61910000D03*
D27*
X123750000Y-107190000D03*
D28*
X77080000Y-38005000D03*
D27*
X122880000Y-74090000D03*
X31410000Y-87300000D03*
X110660000Y-79020000D03*
X83470000Y-79580000D03*
X123750000Y-84440000D03*
X26480000Y-99600000D03*
D28*
X86850000Y-62190000D03*
X115160000Y-33440000D03*
D27*
X31410000Y-99560000D03*
X91480000Y-111720000D03*
X76750000Y-79590000D03*
D28*
X67591212Y-31165014D03*
D27*
X72550000Y-117890000D03*
X31410000Y-81490000D03*
X31410000Y-92480000D03*
X31410000Y-76810000D03*
X26480000Y-111020000D03*
X56110000Y-112650000D03*
X51530000Y-116570000D03*
X86020000Y-79590000D03*
X26480000Y-87340000D03*
X100130000Y-74090000D03*
D28*
X101987500Y-45492500D03*
D27*
X118820000Y-107230000D03*
D28*
X78352233Y-47438859D03*
D27*
X26480000Y-81530000D03*
D28*
X109190000Y-45430000D03*
D27*
X46940000Y-104440000D03*
X110620000Y-74090000D03*
X91480000Y-115620000D03*
X31410000Y-110980000D03*
X46940000Y-108740000D03*
X51530000Y-112840000D03*
X26480000Y-105630000D03*
X88540000Y-79560000D03*
X26480000Y-115840000D03*
X99530000Y-114390000D03*
X26480000Y-92520000D03*
X31410000Y-105590000D03*
D28*
X53970000Y-47070000D03*
%TO.N,/PA_Current*%
X74898287Y-42660699D03*
%TO.N,/PA_Voltage*%
X76880000Y-36220000D03*
X60990000Y-66370000D03*
X74257412Y-38268604D03*
X69770000Y-43230000D03*
%TO.N,/Vgg_Voltage*%
X107710000Y-51700000D03*
X72294156Y-35706937D03*
%TO.N,+12V*%
X61844364Y-47680508D03*
X97110000Y-40990000D03*
X80655000Y-52188161D03*
X61765000Y-59450000D03*
%TO.N,/Vgg_On*%
X94810000Y-30380000D03*
X67190000Y-29475000D03*
X69340000Y-29475000D03*
X58815000Y-30925000D03*
D27*
%TO.N,Net-(D1-A1)*%
X56110000Y-91340000D03*
X56130000Y-83830000D03*
X51610000Y-77310000D03*
X46910000Y-96390000D03*
X51550000Y-83690000D03*
X65700000Y-70550000D03*
X51610000Y-70840000D03*
X47010000Y-99870000D03*
D28*
X62790000Y-99760000D03*
X62820000Y-98680000D03*
D27*
X46960000Y-83750000D03*
X56110000Y-86810000D03*
X46810000Y-80090000D03*
X51600000Y-99810000D03*
X51610000Y-80100000D03*
X51500000Y-96330000D03*
X51610000Y-74410000D03*
D28*
X66640000Y-99820000D03*
X66730000Y-96660000D03*
D27*
X56290000Y-77200000D03*
X46810000Y-77300000D03*
X60980000Y-70670000D03*
X46940000Y-86960000D03*
X51530000Y-86900000D03*
D28*
X59700000Y-99740000D03*
D27*
X46810000Y-70830000D03*
X60980000Y-79930000D03*
X56290000Y-70730000D03*
X46940000Y-91500000D03*
X56290000Y-74410000D03*
X56290000Y-79990000D03*
X56110000Y-99850000D03*
X46810000Y-74410000D03*
X51530000Y-91440000D03*
X56110000Y-96400000D03*
X65610000Y-74410000D03*
D28*
X62820000Y-97660000D03*
X59800000Y-96650000D03*
X66650000Y-98770000D03*
X66700000Y-97690000D03*
X62900000Y-96580000D03*
X59710000Y-98260000D03*
D27*
X60980000Y-77140000D03*
X60980000Y-74410000D03*
%TO.N,Net-(D5-A1)*%
X103670000Y-108690000D03*
X91520000Y-85790000D03*
X104120000Y-85890000D03*
X99330000Y-89380000D03*
X104120000Y-89480000D03*
X91710000Y-93350000D03*
X103670000Y-105570000D03*
X95390000Y-85720000D03*
X104120000Y-82010000D03*
X99330000Y-85790000D03*
X95300000Y-81980000D03*
X91490000Y-82070000D03*
X95210000Y-89410000D03*
X91480000Y-105640000D03*
X91480000Y-102360000D03*
X95080000Y-102310000D03*
X99530000Y-108720000D03*
X104120000Y-93320000D03*
X103670000Y-102200000D03*
X95240000Y-93280000D03*
X91550000Y-89440000D03*
X91480000Y-108990000D03*
X99330000Y-81910000D03*
X99530000Y-105600000D03*
X99330000Y-93220000D03*
X95080000Y-105490000D03*
X99530000Y-102230000D03*
D28*
%TO.N,Net-(D7-A1)*%
X43860965Y-40940966D03*
X45110000Y-33220000D03*
%TO.N,Net-(D8-A1)*%
X45190000Y-42240000D03*
X48620000Y-33880000D03*
D27*
%TO.N,Net-(Q2-D)*%
X84890000Y-114280000D03*
X76620000Y-82370000D03*
X76560000Y-88200000D03*
D28*
X67278654Y-84578654D03*
X67000000Y-108310000D03*
X61270000Y-108310000D03*
D27*
X84940000Y-88200000D03*
X85080000Y-103080000D03*
D28*
X72200000Y-108240000D03*
X72320000Y-84640000D03*
D27*
X77280000Y-100440000D03*
D28*
X62670000Y-92860000D03*
X66980000Y-93030000D03*
D27*
X77050000Y-108140000D03*
X77280000Y-103360000D03*
X89000000Y-94010000D03*
D28*
X66980000Y-88920000D03*
X62590000Y-89040000D03*
D27*
X85980000Y-82370000D03*
X80690000Y-114610000D03*
X81060000Y-103220000D03*
X84990000Y-94010000D03*
X80640000Y-94010000D03*
X88960000Y-88200000D03*
D28*
X72140000Y-103810000D03*
X61720000Y-113060000D03*
D27*
X76650000Y-94010000D03*
D28*
X72600000Y-89060000D03*
D27*
X88530000Y-114280000D03*
X83460000Y-82370000D03*
X88580000Y-108280000D03*
D28*
X72140000Y-112960000D03*
D27*
X76670000Y-114890000D03*
X88530000Y-82370000D03*
X80240000Y-82370000D03*
X88770000Y-102940000D03*
X84990000Y-108420000D03*
X77090000Y-96560000D03*
D28*
X67130000Y-103710000D03*
X62570000Y-84780000D03*
D27*
X81110000Y-108180000D03*
D28*
X66970000Y-112840000D03*
X72720000Y-92650000D03*
X61510000Y-103600000D03*
D27*
X80370000Y-88200000D03*
D28*
%TO.N,Net-(U5-AIN3)*%
X70748814Y-36112798D03*
X70280000Y-74610000D03*
X74000000Y-99480000D03*
%TO.N,Net-(U3-EN)*%
X81245000Y-57090000D03*
X44690000Y-63540000D03*
%TO.N,Net-(C11-Pad1)*%
X59410000Y-54640000D03*
X59730000Y-61740000D03*
%TO.N,Net-(C16-Pad1)*%
X48890000Y-41940000D03*
X49980000Y-49060000D03*
%TO.N,Net-(C21-Pad1)*%
X49520000Y-37370000D03*
X46620000Y-54770000D03*
%TO.N,/HV_On*%
X55830000Y-32390000D03*
X77769858Y-78020318D03*
%TO.N,/Vgg Cntrl*%
X95985005Y-32194995D03*
X60449968Y-31641242D03*
X68873008Y-32766992D03*
X72528008Y-32471992D03*
%TO.N,/12V_Good*%
X96740000Y-54316992D03*
X64801992Y-35378008D03*
%TO.N,Net-(D2-A)*%
X73193603Y-77533603D03*
X71790000Y-97040000D03*
%TD*%
D29*
%TO.N,+3.3V*%
X99257500Y-73112500D02*
X99257500Y-61930000D01*
X97000000Y-75370000D02*
X99257500Y-73112500D01*
X97000000Y-76620000D02*
X97000000Y-75370000D01*
D30*
%TO.N,/HV_On*%
X68542187Y-38082797D02*
X77577233Y-47117843D01*
X55830000Y-32390000D02*
X61522797Y-38082797D01*
X61522797Y-38082797D02*
X68542187Y-38082797D01*
%TO.N,Net-(U5-AIN3)*%
X70163899Y-39022327D02*
X70163899Y-37507797D01*
X74577271Y-43435699D02*
X70163899Y-39022327D01*
X79880000Y-47879188D02*
X75436511Y-43435699D01*
X79880000Y-77200000D02*
X79880000Y-47879188D01*
%TO.N,/HV_On*%
X79280000Y-76510176D02*
X77769858Y-78020318D01*
%TO.N,Net-(U5-AIN3)*%
X78334682Y-78745318D02*
X79880000Y-77200000D01*
%TO.N,/HV_On*%
X77577233Y-47117843D02*
X77577233Y-47759875D01*
%TO.N,Net-(U5-AIN3)*%
X73334235Y-74610000D02*
X77469553Y-78745318D01*
X70280000Y-74610000D02*
X73334235Y-74610000D01*
%TO.N,/HV_On*%
X77577233Y-47759875D02*
X79280000Y-49462642D01*
%TO.N,Net-(U5-AIN3)*%
X75436511Y-43435699D02*
X74577271Y-43435699D01*
X77469553Y-78745318D02*
X78334682Y-78745318D01*
%TO.N,/HV_On*%
X79280000Y-49462642D02*
X79280000Y-76510176D01*
%TO.N,/12V_Good*%
X95986992Y-54316992D02*
X96740000Y-54316992D01*
X93856396Y-52190000D02*
X93860000Y-52190000D01*
X93860000Y-52190000D02*
X95986992Y-54316992D01*
X83877095Y-42210699D02*
X93856396Y-52190000D01*
X71523814Y-38087418D02*
X75647095Y-42210699D01*
X71110040Y-35378008D02*
X71523814Y-35791782D01*
X64801992Y-35378008D02*
X71110040Y-35378008D01*
X71523814Y-35791782D02*
X71523814Y-38087418D01*
X75647095Y-42210699D02*
X83877095Y-42210699D01*
%TO.N,/PA_Current*%
X74898287Y-42660699D02*
X83690699Y-42660699D01*
X83690699Y-42660699D02*
X97390000Y-56360000D01*
%TO.N,/Vgg_Voltage*%
X73993808Y-39081016D02*
X72294156Y-37381364D01*
X79523808Y-39081016D02*
X73993808Y-39081016D01*
X82203491Y-41760699D02*
X79523808Y-39081016D01*
%TO.N,/PA_Current*%
X97390000Y-56360000D02*
X97390000Y-72410000D01*
%TO.N,/Vgg_Voltage*%
X84063491Y-41760699D02*
X82203491Y-41760699D01*
X94002792Y-51700000D02*
X84063491Y-41760699D01*
X107710000Y-51700000D02*
X94002792Y-51700000D01*
X72294156Y-37381364D02*
X72294156Y-35706937D01*
%TO.N,/PA_Current*%
X97390000Y-72410000D02*
X93180000Y-76620000D01*
%TO.N,Net-(J3-Pin_2)*%
X64175000Y-28385000D02*
X65965000Y-28385000D01*
X82285000Y-30860000D02*
X82600000Y-30545000D01*
X66849416Y-28481769D02*
X67251769Y-28481769D01*
X69630000Y-30860000D02*
X82285000Y-30860000D01*
X66061769Y-28481769D02*
X66849416Y-28481769D01*
X67251769Y-28481769D02*
X73220000Y-34450000D01*
X65965000Y-28385000D02*
X66061769Y-28481769D01*
X73220000Y-34450000D02*
X73220000Y-37113984D01*
%TO.N,Net-(J3-Pin_1)*%
X89450000Y-38520000D02*
X86720000Y-35790000D01*
X89930000Y-38520000D02*
X89450000Y-38520000D01*
X86720000Y-35790000D02*
X86560000Y-35630000D01*
X86560000Y-35630000D02*
X86560000Y-34230000D01*
%TO.N,+3.3V*%
X59080000Y-44240000D02*
X59830000Y-43490000D01*
X59080000Y-49920000D02*
X59080000Y-44250000D01*
X59080000Y-44250000D02*
X59080000Y-44240000D01*
D31*
%TO.N,GND*%
X32130000Y-57500000D02*
X34500000Y-57500000D01*
X29000000Y-54370000D02*
X32130000Y-57500000D01*
X29000000Y-24000000D02*
X29000000Y-54370000D01*
D30*
%TO.N,/PA_Voltage*%
X60990000Y-51920000D02*
X60990000Y-66370000D01*
X76880000Y-36220000D02*
X74831396Y-38268604D01*
X74831396Y-38268604D02*
X74257412Y-38268604D01*
X69680000Y-43230000D02*
X60990000Y-51920000D01*
X69770000Y-43230000D02*
X69680000Y-43230000D01*
D29*
%TO.N,+12V*%
X61930000Y-47766144D02*
X61844364Y-47680508D01*
D30*
%TO.N,/Vgg_On*%
X81688984Y-30360000D02*
X70225000Y-30360000D01*
X91233984Y-30360000D02*
X90643984Y-29770000D01*
X59380000Y-30360000D02*
X66305000Y-30360000D01*
X90643984Y-29770000D02*
X82278984Y-29770000D01*
X70225000Y-30360000D02*
X69340000Y-29475000D01*
X66305000Y-30360000D02*
X67190000Y-29475000D01*
X58815000Y-30925000D02*
X59380000Y-30360000D01*
X94790000Y-30360000D02*
X91233984Y-30360000D01*
X82278984Y-29770000D02*
X81688984Y-30360000D01*
D29*
%TO.N,Net-(U5-AIN3)*%
X70163899Y-36697713D02*
X70163899Y-37507797D01*
X70748814Y-36112798D02*
X70163899Y-36697713D01*
D30*
%TO.N,Net-(C11-Pad1)*%
X59730000Y-54960000D02*
X59410000Y-54640000D01*
X59730000Y-61740000D02*
X59730000Y-55260000D01*
X59730000Y-55260000D02*
X59730000Y-54960000D01*
D31*
%TO.N,Net-(C16-Pad1)*%
X49980000Y-43010000D02*
X48910000Y-41940000D01*
X49980000Y-49060000D02*
X49980000Y-43010000D01*
X48910000Y-41940000D02*
X48890000Y-41940000D01*
%TO.N,Net-(C21-Pad1)*%
X48790000Y-37370000D02*
X49520000Y-37370000D01*
X46620000Y-39540000D02*
X48790000Y-37370000D01*
X46620000Y-54770000D02*
X46620000Y-39540000D01*
D30*
%TO.N,/Vgg Cntrl*%
X67586396Y-31940000D02*
X68413388Y-32766992D01*
X68413388Y-32766992D02*
X68873008Y-32766992D01*
X95985005Y-32194995D02*
X95110010Y-31320000D01*
X60449968Y-31641242D02*
X60748726Y-31940000D01*
X73680000Y-31320000D02*
X72528008Y-32471992D01*
X95110010Y-31320000D02*
X73680000Y-31320000D01*
X60748726Y-31940000D02*
X67586396Y-31940000D01*
%TD*%
%TA.AperFunction,Conductor*%
%TO.N,Net-(D1-A1)*%
G36*
X66324130Y-69910040D02*
G01*
X66370221Y-69962551D01*
X66381745Y-70013021D01*
X66529873Y-80451070D01*
X66528843Y-80468868D01*
X66514068Y-80582143D01*
X66485878Y-80646073D01*
X66427600Y-80684614D01*
X66391230Y-80690105D01*
X57342549Y-80698863D01*
X57330000Y-74920000D01*
X45919935Y-75013270D01*
X45988295Y-70141480D01*
X46008918Y-70074726D01*
X46062359Y-70029716D01*
X46111490Y-70019225D01*
X66256967Y-69890784D01*
X66324130Y-69910040D01*
G37*
%TD.AperFunction*%
%TD*%
%TA.AperFunction,Conductor*%
%TO.N,Net-(D1-A1)*%
G36*
X57342549Y-80698863D02*
G01*
X57342549Y-80698864D01*
X57375350Y-95803802D01*
X57385942Y-100681363D01*
X57385941Y-100681364D01*
X57389730Y-102426034D01*
X57370191Y-102493116D01*
X57317486Y-102538985D01*
X57266033Y-102550303D01*
X32974574Y-102609695D01*
X32907487Y-102590174D01*
X32861603Y-102537482D01*
X32850271Y-102485425D01*
X32909729Y-75174135D01*
X32929560Y-75107142D01*
X32982463Y-75061502D01*
X33034137Y-75050409D01*
X33847776Y-75053089D01*
X38979959Y-75070000D01*
X38979970Y-75069999D01*
X38980000Y-75070000D01*
X57330000Y-74920000D01*
X57342549Y-80698863D01*
G37*
%TD.AperFunction*%
%TD*%
%TA.AperFunction,Conductor*%
%TO.N,Net-(Q2-D)*%
G36*
X70210000Y-115569999D02*
G01*
X58853460Y-115520537D01*
X58786507Y-115500560D01*
X58740982Y-115447558D01*
X58730000Y-115396538D01*
X58730000Y-101283360D01*
X58749685Y-101216321D01*
X58802489Y-101170566D01*
X58853356Y-101159362D01*
X70251977Y-101100454D01*
X70210000Y-115569999D01*
G37*
%TD.AperFunction*%
%TD*%
%TA.AperFunction,Conductor*%
%TO.N,Net-(Q2-D)*%
G36*
X70309999Y-81100008D02*
G01*
X70309998Y-81100453D01*
X70269181Y-95170184D01*
X70269180Y-95170185D01*
X70269181Y-95170185D01*
X68479212Y-95180967D01*
X68412055Y-95161686D01*
X68390925Y-95144791D01*
X68342181Y-95096203D01*
X68342177Y-95096200D01*
X68194374Y-94992810D01*
X68194372Y-94992809D01*
X68027286Y-94924908D01*
X68027281Y-94924906D01*
X68027275Y-94924904D01*
X67994626Y-94915734D01*
X67960004Y-94906010D01*
X67912169Y-94894142D01*
X67816003Y-94884454D01*
X67732705Y-94876063D01*
X67732699Y-94876063D01*
X58809271Y-94981330D01*
X58742004Y-94962438D01*
X58695629Y-94910177D01*
X58683814Y-94856107D01*
X58815274Y-81625584D01*
X58835624Y-81558745D01*
X58888880Y-81513517D01*
X58939145Y-81502818D01*
X66392010Y-81495605D01*
X66511478Y-81486579D01*
X66547848Y-81481088D01*
X66711281Y-81438507D01*
X66871926Y-81356481D01*
X66930204Y-81317940D01*
X67008908Y-81258666D01*
X67107867Y-81152844D01*
X67168032Y-81117326D01*
X67197888Y-81113542D01*
X70308988Y-81100004D01*
X70309999Y-81100008D01*
G37*
%TD.AperFunction*%
%TD*%
%TA.AperFunction,Conductor*%
%TO.N,GND*%
G36*
X67955816Y-30498076D02*
G01*
X67974715Y-30513570D01*
X68819420Y-31358275D01*
X68852905Y-31419598D01*
X68847921Y-31489290D01*
X68806049Y-31545223D01*
X68754524Y-31567845D01*
X68623792Y-31592283D01*
X68554277Y-31585252D01*
X68513326Y-31558075D01*
X68176371Y-31221119D01*
X68176363Y-31221113D01*
X68024787Y-31119833D01*
X68024783Y-31119831D01*
X67856358Y-31050068D01*
X67856348Y-31050065D01*
X67677552Y-31014500D01*
X67677550Y-31014500D01*
X67258717Y-31014500D01*
X67191678Y-30994815D01*
X67145923Y-30942011D01*
X67135979Y-30872853D01*
X67165004Y-30809297D01*
X67171021Y-30802833D01*
X67270542Y-30703312D01*
X67331861Y-30669830D01*
X67335347Y-30669124D01*
X67519940Y-30634618D01*
X67727401Y-30554247D01*
X67821758Y-30495823D01*
X67889117Y-30477268D01*
X67955816Y-30498076D01*
G37*
%TD.AperFunction*%
%TA.AperFunction,Conductor*%
G36*
X124943039Y-20019685D02*
G01*
X124988794Y-20072489D01*
X125000000Y-20124000D01*
X125000000Y-119876000D01*
X124980315Y-119943039D01*
X124927511Y-119988794D01*
X124876000Y-120000000D01*
X50055000Y-120000000D01*
X25183888Y-119990049D01*
X25116857Y-119970338D01*
X25071123Y-119917515D01*
X25059938Y-119866111D01*
X25058233Y-116457428D01*
X25051245Y-102483670D01*
X32044773Y-102483670D01*
X32063202Y-102656760D01*
X32074528Y-102708784D01*
X32084781Y-102750503D01*
X32151660Y-102918025D01*
X32254134Y-103066453D01*
X32254146Y-103066469D01*
X32299999Y-103119125D01*
X32300023Y-103119152D01*
X32369148Y-103189358D01*
X32369151Y-103189361D01*
X32515970Y-103294123D01*
X32515976Y-103294127D01*
X32682436Y-103363597D01*
X32749523Y-103383118D01*
X32797254Y-103395435D01*
X32976543Y-103415193D01*
X57268002Y-103355801D01*
X57439080Y-103336995D01*
X57490533Y-103325677D01*
X57530289Y-103315867D01*
X57697826Y-103249036D01*
X57730081Y-103226780D01*
X57796437Y-103204912D01*
X57864085Y-103222389D01*
X57911546Y-103273665D01*
X57924500Y-103328845D01*
X57924500Y-115396539D01*
X57942536Y-115566038D01*
X57953516Y-115617052D01*
X57962734Y-115655307D01*
X58028471Y-115823268D01*
X58028474Y-115823274D01*
X58092928Y-115918001D01*
X58129941Y-115972400D01*
X58129943Y-115972403D01*
X58129945Y-115972405D01*
X58129948Y-115972410D01*
X58175452Y-116025387D01*
X58175478Y-116025416D01*
X58244096Y-116096061D01*
X58244102Y-116096066D01*
X58244104Y-116096068D01*
X58390217Y-116201833D01*
X58556200Y-116272434D01*
X58623153Y-116292411D01*
X58670801Y-116305053D01*
X58849952Y-116326029D01*
X70206244Y-116375489D01*
X70206243Y-116375511D01*
X70206344Y-116375489D01*
X86786415Y-116461487D01*
X89361960Y-116474846D01*
X89361960Y-116474845D01*
X89361976Y-116474846D01*
X89532809Y-116457428D01*
X89584239Y-116446552D01*
X89623717Y-116437159D01*
X89791821Y-116371767D01*
X89941159Y-116270608D01*
X89994255Y-116225193D01*
X90065077Y-116156686D01*
X90171141Y-116010791D01*
X90242081Y-115844952D01*
X90262195Y-115778040D01*
X90274933Y-115730426D01*
X90296277Y-115551319D01*
X90326522Y-110834269D01*
X90346636Y-110767360D01*
X90399732Y-110721945D01*
X90462918Y-110711689D01*
X90584774Y-110723938D01*
X117797212Y-110396913D01*
X117893165Y-110385729D01*
X117963341Y-110377551D01*
X117963342Y-110377550D01*
X117963348Y-110377550D01*
X118013330Y-110366371D01*
X118048362Y-110357707D01*
X118216067Y-110291297D01*
X118364789Y-110189235D01*
X118417609Y-110143499D01*
X118488015Y-110074565D01*
X118593193Y-109928029D01*
X118663127Y-109761764D01*
X118682835Y-109694732D01*
X118695284Y-109647040D01*
X118715543Y-109467807D01*
X118715984Y-108211360D01*
X118711383Y-108125108D01*
X118708549Y-108098706D01*
X118682796Y-107965633D01*
X118614620Y-107798639D01*
X118581135Y-107737316D01*
X118581128Y-107737303D01*
X118556204Y-107694805D01*
X118556203Y-107694804D01*
X118556201Y-107694800D01*
X118443740Y-107553777D01*
X118443724Y-107553761D01*
X118442570Y-107552469D01*
X118433458Y-107540968D01*
X118395902Y-107487332D01*
X118385095Y-107468614D01*
X118357657Y-107409773D01*
X118350264Y-107389461D01*
X118333464Y-107326762D01*
X118329711Y-107305474D01*
X118324054Y-107240803D01*
X118324054Y-107219192D01*
X118329711Y-107154522D01*
X118333463Y-107133240D01*
X118350264Y-107070533D01*
X118357657Y-107050224D01*
X118385098Y-106991377D01*
X118395896Y-106972674D01*
X118433351Y-106919182D01*
X118443427Y-106906857D01*
X118443324Y-106906765D01*
X118501942Y-106841517D01*
X118501961Y-106841496D01*
X118518571Y-106820892D01*
X118594326Y-106708823D01*
X118664260Y-106542558D01*
X118683968Y-106475526D01*
X118696417Y-106427835D01*
X118716676Y-106248601D01*
X118718475Y-101133851D01*
X118713874Y-101047599D01*
X118711040Y-101021197D01*
X118685287Y-100888124D01*
X118617111Y-100721130D01*
X118583626Y-100659807D01*
X118583619Y-100659794D01*
X118558695Y-100617296D01*
X118558694Y-100617295D01*
X118558692Y-100617291D01*
X118446231Y-100476268D01*
X118443911Y-100473672D01*
X118444065Y-100473533D01*
X118433138Y-100460511D01*
X118395902Y-100407332D01*
X118385095Y-100388614D01*
X118357657Y-100329773D01*
X118350264Y-100309461D01*
X118344694Y-100288674D01*
X118333463Y-100246759D01*
X118329711Y-100225474D01*
X118327607Y-100201425D01*
X118324054Y-100160801D01*
X118324054Y-100139192D01*
X118329711Y-100074522D01*
X118333463Y-100053240D01*
X118350264Y-99990533D01*
X118357657Y-99970224D01*
X118385098Y-99911377D01*
X118395898Y-99892670D01*
X118433136Y-99839488D01*
X118445870Y-99824320D01*
X118445817Y-99824272D01*
X118445823Y-99824265D01*
X118445790Y-99824234D01*
X118446883Y-99823079D01*
X118446926Y-99823037D01*
X118504466Y-99758989D01*
X118521076Y-99738384D01*
X118596819Y-99626330D01*
X118666753Y-99460065D01*
X118686461Y-99393033D01*
X118698910Y-99345342D01*
X118719169Y-99166108D01*
X118720298Y-95955674D01*
X118715697Y-95869422D01*
X118712863Y-95843020D01*
X118687110Y-95709947D01*
X118618934Y-95542953D01*
X118585449Y-95481630D01*
X118585442Y-95481617D01*
X118560518Y-95439119D01*
X118560517Y-95439118D01*
X118560515Y-95439114D01*
X118448054Y-95298091D01*
X118447032Y-95297069D01*
X118433138Y-95280511D01*
X118395902Y-95227332D01*
X118385095Y-95208614D01*
X118357657Y-95149773D01*
X118350264Y-95129461D01*
X118333464Y-95066762D01*
X118329711Y-95045474D01*
X118324054Y-94980803D01*
X118324054Y-94959192D01*
X118329711Y-94894522D01*
X118333463Y-94873240D01*
X118350264Y-94810533D01*
X118357657Y-94790224D01*
X118385098Y-94731377D01*
X118395898Y-94712670D01*
X118433134Y-94659492D01*
X118447040Y-94642923D01*
X118447302Y-94642660D01*
X118448750Y-94641213D01*
X118506290Y-94577165D01*
X118522900Y-94556560D01*
X118598643Y-94444506D01*
X118668577Y-94278241D01*
X118688285Y-94211209D01*
X118700734Y-94163518D01*
X118720993Y-93984284D01*
X118722342Y-90147718D01*
X118717741Y-90061466D01*
X118714907Y-90035064D01*
X118689154Y-89901991D01*
X118620978Y-89734997D01*
X118587493Y-89673674D01*
X118587486Y-89673661D01*
X118562562Y-89631163D01*
X118562561Y-89631162D01*
X118562559Y-89631158D01*
X118450098Y-89490135D01*
X118447032Y-89487069D01*
X118433138Y-89470511D01*
X118395902Y-89417332D01*
X118385095Y-89398614D01*
X118357657Y-89339773D01*
X118350264Y-89319461D01*
X118333464Y-89256762D01*
X118329711Y-89235474D01*
X118324054Y-89170803D01*
X118324054Y-89149192D01*
X118329711Y-89084522D01*
X118333463Y-89063240D01*
X118350264Y-89000533D01*
X118357657Y-88980224D01*
X118385098Y-88921377D01*
X118395893Y-88902678D01*
X118433142Y-88849480D01*
X118447040Y-88832922D01*
X118450795Y-88829168D01*
X118508335Y-88765120D01*
X118524945Y-88744515D01*
X118600688Y-88632461D01*
X118670622Y-88466196D01*
X118690330Y-88399164D01*
X118702779Y-88351473D01*
X118723038Y-88172239D01*
X118723989Y-85469365D01*
X118719388Y-85383113D01*
X118716554Y-85356711D01*
X118690801Y-85223638D01*
X118622625Y-85056644D01*
X118589140Y-84995321D01*
X118589133Y-84995308D01*
X118564209Y-84952810D01*
X118564208Y-84952809D01*
X118564206Y-84952805D01*
X118451745Y-84811782D01*
X118447032Y-84807069D01*
X118433138Y-84790511D01*
X118395902Y-84737332D01*
X118385095Y-84718614D01*
X118357657Y-84659773D01*
X118350264Y-84639461D01*
X118333464Y-84576762D01*
X118329711Y-84555474D01*
X118324054Y-84490803D01*
X118324054Y-84469192D01*
X118329711Y-84404522D01*
X118333463Y-84383240D01*
X118350264Y-84320533D01*
X118357657Y-84300224D01*
X118385098Y-84241377D01*
X118395898Y-84222670D01*
X118433134Y-84169492D01*
X118447027Y-84152934D01*
X118452443Y-84147520D01*
X118509983Y-84083472D01*
X118526593Y-84062867D01*
X118602336Y-83950813D01*
X118672270Y-83784548D01*
X118691978Y-83717516D01*
X118704427Y-83669825D01*
X118724686Y-83490592D01*
X118725456Y-81304959D01*
X118706640Y-81131592D01*
X118695171Y-81079464D01*
X118684746Y-81037484D01*
X118617427Y-80870142D01*
X118617426Y-80870140D01*
X118617425Y-80870138D01*
X118514567Y-80721985D01*
X118514566Y-80721984D01*
X118514560Y-80721975D01*
X118468538Y-80669404D01*
X118420684Y-80621058D01*
X118399217Y-80599371D01*
X118399216Y-80599370D01*
X118399214Y-80599368D01*
X118252109Y-80494988D01*
X118252106Y-80494986D01*
X118252105Y-80494986D01*
X118252103Y-80494985D01*
X118085464Y-80425959D01*
X118085458Y-80425958D01*
X118018331Y-80406618D01*
X117970574Y-80394427D01*
X117791247Y-80375144D01*
X117791239Y-80375143D01*
X117791235Y-80375143D01*
X117791232Y-80375143D01*
X117791217Y-80375142D01*
X90479681Y-80513880D01*
X90479651Y-80513881D01*
X90309306Y-80532988D01*
X90309302Y-80532989D01*
X90258047Y-80544360D01*
X90218962Y-80554062D01*
X90218950Y-80554066D01*
X90051488Y-80621058D01*
X90051478Y-80621063D01*
X89998910Y-80657409D01*
X89932573Y-80679343D01*
X89878829Y-80669077D01*
X89811552Y-80639741D01*
X89736702Y-80607102D01*
X89669936Y-80586522D01*
X89669933Y-80586521D01*
X89669926Y-80586519D01*
X89622414Y-80573451D01*
X89443462Y-80550855D01*
X76695692Y-80380008D01*
X70321809Y-80294585D01*
X70314979Y-80294523D01*
X70314002Y-80294518D01*
X70313976Y-80294510D01*
X70313925Y-80294517D01*
X70313586Y-80294516D01*
X70313059Y-80294513D01*
X70312936Y-80294513D01*
X70312188Y-80294510D01*
X70312175Y-80294510D01*
X70312161Y-80294510D01*
X70305523Y-80294511D01*
X67456200Y-80306909D01*
X67389075Y-80287516D01*
X67343091Y-80234912D01*
X67331672Y-80184673D01*
X67187164Y-70001591D01*
X67167034Y-69833713D01*
X67155510Y-69783243D01*
X67146198Y-69746472D01*
X67078660Y-69579218D01*
X66975599Y-69431187D01*
X66929508Y-69378676D01*
X66929503Y-69378670D01*
X66860101Y-69308737D01*
X66776374Y-69249491D01*
X66712861Y-69204548D01*
X66607129Y-69160912D01*
X66546127Y-69135736D01*
X66478964Y-69116480D01*
X66431197Y-69104353D01*
X66251839Y-69085300D01*
X66251814Y-69085299D01*
X46106361Y-69213740D01*
X46106334Y-69213742D01*
X45943295Y-69231482D01*
X45943266Y-69231487D01*
X45894161Y-69241973D01*
X45862159Y-69249491D01*
X45693562Y-69313601D01*
X45543461Y-69413619D01*
X45490019Y-69458629D01*
X45418685Y-69526587D01*
X45311514Y-69671666D01*
X45239305Y-69836969D01*
X45218690Y-69903698D01*
X45205581Y-69951245D01*
X45182875Y-70130167D01*
X45182874Y-70130184D01*
X45127268Y-74092971D01*
X45106645Y-74159727D01*
X45053204Y-74204737D01*
X45004294Y-74215227D01*
X38978733Y-74264483D01*
X38977310Y-74264486D01*
X33850515Y-74247592D01*
X33850125Y-74247592D01*
X33036791Y-74244912D01*
X33036788Y-74244913D01*
X32865069Y-74262852D01*
X32813388Y-74273946D01*
X32773031Y-74283705D01*
X32605206Y-74349808D01*
X32456287Y-74451608D01*
X32403396Y-74497239D01*
X32403386Y-74497247D01*
X32332881Y-74566027D01*
X32227429Y-74712372D01*
X32227428Y-74712374D01*
X32157185Y-74878516D01*
X32137358Y-74945496D01*
X32124817Y-74993182D01*
X32104231Y-75172377D01*
X32044773Y-102483670D01*
X25051245Y-102483670D01*
X25031772Y-63539999D01*
X43484357Y-63539999D01*
X43484357Y-63540000D01*
X43504884Y-63761535D01*
X43504885Y-63761537D01*
X43565769Y-63975523D01*
X43565775Y-63975538D01*
X43664938Y-64174683D01*
X43664943Y-64174691D01*
X43799020Y-64352238D01*
X43963437Y-64502123D01*
X43963439Y-64502125D01*
X44152595Y-64619245D01*
X44152596Y-64619245D01*
X44152599Y-64619247D01*
X44360060Y-64699618D01*
X44578757Y-64740500D01*
X44578759Y-64740500D01*
X44801241Y-64740500D01*
X44801243Y-64740500D01*
X45019940Y-64699618D01*
X45227401Y-64619247D01*
X45416562Y-64502124D01*
X45580981Y-64352236D01*
X45715058Y-64174689D01*
X45814229Y-63975528D01*
X45875115Y-63761536D01*
X45895643Y-63540000D01*
X45875115Y-63318464D01*
X45814229Y-63104472D01*
X45814224Y-63104461D01*
X45715061Y-62905316D01*
X45715056Y-62905308D01*
X45580979Y-62727761D01*
X45416562Y-62577876D01*
X45416560Y-62577874D01*
X45227404Y-62460754D01*
X45227398Y-62460752D01*
X45019940Y-62380382D01*
X44801243Y-62339500D01*
X44578757Y-62339500D01*
X44360060Y-62380382D01*
X44228864Y-62431207D01*
X44152601Y-62460752D01*
X44152595Y-62460754D01*
X43963439Y-62577874D01*
X43963437Y-62577876D01*
X43799020Y-62727761D01*
X43664943Y-62905308D01*
X43664938Y-62905316D01*
X43565775Y-63104461D01*
X43565769Y-63104476D01*
X43504885Y-63318462D01*
X43504884Y-63318464D01*
X43484357Y-63539999D01*
X25031772Y-63539999D01*
X25024676Y-49348395D01*
X32724500Y-49348395D01*
X32724500Y-50651604D01*
X32739699Y-50805932D01*
X32765817Y-50892031D01*
X32799768Y-51003954D01*
X32897315Y-51186450D01*
X32897317Y-51186452D01*
X33028586Y-51346406D01*
X33028588Y-51346407D01*
X33028590Y-51346410D01*
X33028687Y-51346489D01*
X33028725Y-51346545D01*
X33032893Y-51350713D01*
X33032102Y-51351503D01*
X33068024Y-51404232D01*
X33069899Y-51474076D01*
X33050345Y-51515231D01*
X32963368Y-51634945D01*
X32845422Y-51866423D01*
X32765140Y-52113506D01*
X32724500Y-52370097D01*
X32724500Y-52629902D01*
X32765140Y-52886493D01*
X32845422Y-53133576D01*
X32913613Y-53267406D01*
X32958177Y-53354868D01*
X32963368Y-53365054D01*
X33116066Y-53575225D01*
X33116071Y-53575231D01*
X33203159Y-53662319D01*
X33236644Y-53723642D01*
X33231660Y-53793334D01*
X33203159Y-53837681D01*
X33116071Y-53924768D01*
X33116066Y-53924774D01*
X32963368Y-54134945D01*
X32845422Y-54366423D01*
X32765140Y-54613506D01*
X32724500Y-54870097D01*
X32724500Y-55129902D01*
X32765140Y-55386493D01*
X32845422Y-55633576D01*
X32963368Y-55865054D01*
X33069225Y-56010754D01*
X33116069Y-56075229D01*
X33299771Y-56258931D01*
X33509949Y-56411634D01*
X33657445Y-56486787D01*
X33741423Y-56529577D01*
X33741425Y-56529577D01*
X33741428Y-56529579D01*
X33988507Y-56609860D01*
X34120706Y-56630797D01*
X34245098Y-56650500D01*
X34245103Y-56650500D01*
X34754902Y-56650500D01*
X34868298Y-56632539D01*
X35011493Y-56609860D01*
X35258572Y-56529579D01*
X35490051Y-56411634D01*
X35700229Y-56258931D01*
X35883931Y-56075229D01*
X36036634Y-55865051D01*
X36154579Y-55633572D01*
X36234860Y-55386493D01*
X36258562Y-55236840D01*
X36275500Y-55129902D01*
X36275500Y-54870097D01*
X36253947Y-54734021D01*
X36234860Y-54613507D01*
X36154579Y-54366428D01*
X36154577Y-54366425D01*
X36154577Y-54366423D01*
X36111787Y-54282445D01*
X36036634Y-54134949D01*
X35883931Y-53924771D01*
X35796841Y-53837681D01*
X35763356Y-53776358D01*
X35768340Y-53706666D01*
X35796841Y-53662319D01*
X35825903Y-53633257D01*
X35883931Y-53575229D01*
X36036634Y-53365051D01*
X36154579Y-53133572D01*
X36234860Y-52886493D01*
X36270396Y-52662124D01*
X36275500Y-52629902D01*
X36275500Y-52370097D01*
X36253947Y-52234021D01*
X36234860Y-52113507D01*
X36154579Y-51866428D01*
X36154577Y-51866425D01*
X36154577Y-51866423D01*
X36096597Y-51752633D01*
X36036634Y-51634949D01*
X35977438Y-51553472D01*
X35949655Y-51515232D01*
X35926175Y-51449426D01*
X35942000Y-51381372D01*
X35967459Y-51351076D01*
X35967102Y-51350719D01*
X35971219Y-51346601D01*
X35971314Y-51346489D01*
X35971331Y-51346474D01*
X35971410Y-51346410D01*
X36102685Y-51186450D01*
X36200232Y-51003954D01*
X36260300Y-50805934D01*
X36275500Y-50651608D01*
X36275500Y-49348392D01*
X36260300Y-49194066D01*
X36200232Y-48996046D01*
X36102685Y-48813550D01*
X36050702Y-48750209D01*
X35971410Y-48653589D01*
X35811452Y-48522317D01*
X35811453Y-48522317D01*
X35811450Y-48522315D01*
X35628954Y-48424768D01*
X35430934Y-48364700D01*
X35430932Y-48364699D01*
X35430934Y-48364699D01*
X35311805Y-48352966D01*
X35276608Y-48349500D01*
X33723392Y-48349500D01*
X33685298Y-48353251D01*
X33569067Y-48364699D01*
X33371043Y-48424769D01*
X33260898Y-48483643D01*
X33188550Y-48522315D01*
X33188548Y-48522316D01*
X33188547Y-48522317D01*
X33028589Y-48653589D01*
X32897317Y-48813547D01*
X32799769Y-48996043D01*
X32739699Y-49194067D01*
X32724500Y-49348395D01*
X25024676Y-49348395D01*
X25020472Y-40940965D01*
X42655322Y-40940965D01*
X42655322Y-40940966D01*
X42675849Y-41162501D01*
X42675850Y-41162503D01*
X42736734Y-41376489D01*
X42736740Y-41376504D01*
X42835903Y-41575649D01*
X42835908Y-41575657D01*
X42969985Y-41753204D01*
X43134402Y-41903089D01*
X43134404Y-41903091D01*
X43323560Y-42020211D01*
X43323561Y-42020211D01*
X43323564Y-42020213D01*
X43531025Y-42100584D01*
X43749722Y-42141466D01*
X43749724Y-42141466D01*
X43862186Y-42141466D01*
X43929225Y-42161151D01*
X43974980Y-42213955D01*
X43985657Y-42254025D01*
X44004884Y-42461535D01*
X44004885Y-42461537D01*
X44065769Y-42675523D01*
X44065775Y-42675538D01*
X44164938Y-42874683D01*
X44164943Y-42874691D01*
X44299020Y-43052238D01*
X44463437Y-43202123D01*
X44463439Y-43202125D01*
X44652595Y-43319245D01*
X44652596Y-43319245D01*
X44652599Y-43319247D01*
X44860060Y-43399618D01*
X45078757Y-43440500D01*
X45078759Y-43440500D01*
X45195500Y-43440500D01*
X45262539Y-43460185D01*
X45308294Y-43512989D01*
X45319500Y-43564500D01*
X45319500Y-54872351D01*
X45351522Y-55074534D01*
X45414781Y-55269223D01*
X45507715Y-55451613D01*
X45628028Y-55617213D01*
X45772786Y-55761971D01*
X45925462Y-55872894D01*
X45938390Y-55882287D01*
X46015562Y-55921608D01*
X46120776Y-55975218D01*
X46120778Y-55975218D01*
X46120781Y-55975220D01*
X46225137Y-56009127D01*
X46315465Y-56038477D01*
X46416557Y-56054488D01*
X46517648Y-56070500D01*
X46517649Y-56070500D01*
X46722351Y-56070500D01*
X46722352Y-56070500D01*
X46924534Y-56038477D01*
X47119219Y-55975220D01*
X47301610Y-55882287D01*
X47394590Y-55814732D01*
X47467213Y-55761971D01*
X47467215Y-55761968D01*
X47467219Y-55761966D01*
X47611966Y-55617219D01*
X47611968Y-55617215D01*
X47611971Y-55617213D01*
X47664732Y-55544590D01*
X47732287Y-55451610D01*
X47825220Y-55269219D01*
X47888477Y-55074534D01*
X47920500Y-54872352D01*
X47920500Y-54639999D01*
X58204357Y-54639999D01*
X58204357Y-54640000D01*
X58224884Y-54861535D01*
X58224885Y-54861537D01*
X58285769Y-55075523D01*
X58285775Y-55075538D01*
X58384938Y-55274683D01*
X58384943Y-55274691D01*
X58519020Y-55452238D01*
X58683436Y-55602123D01*
X58683438Y-55602124D01*
X58745777Y-55640722D01*
X58792412Y-55692749D01*
X58804500Y-55746149D01*
X58804500Y-60931914D01*
X58784815Y-60998953D01*
X58779454Y-61006641D01*
X58704943Y-61105308D01*
X58704938Y-61105316D01*
X58605775Y-61304461D01*
X58605769Y-61304476D01*
X58544885Y-61518462D01*
X58544884Y-61518464D01*
X58524357Y-61739999D01*
X58524357Y-61740000D01*
X58544884Y-61961535D01*
X58544885Y-61961537D01*
X58605769Y-62175523D01*
X58605775Y-62175538D01*
X58704938Y-62374683D01*
X58704943Y-62374691D01*
X58839020Y-62552238D01*
X59003437Y-62702123D01*
X59003439Y-62702125D01*
X59192595Y-62819245D01*
X59192596Y-62819245D01*
X59192599Y-62819247D01*
X59400060Y-62899618D01*
X59618757Y-62940500D01*
X59618759Y-62940500D01*
X59841240Y-62940500D01*
X59841243Y-62940500D01*
X59917717Y-62926204D01*
X59987229Y-62933235D01*
X60041908Y-62976732D01*
X60064391Y-63042886D01*
X60064500Y-63048093D01*
X60064500Y-65561914D01*
X60044815Y-65628953D01*
X60039454Y-65636641D01*
X59964943Y-65735308D01*
X59964938Y-65735316D01*
X59865775Y-65934461D01*
X59865769Y-65934476D01*
X59804885Y-66148462D01*
X59804884Y-66148464D01*
X59784357Y-66369999D01*
X59784357Y-66370000D01*
X59804884Y-66591535D01*
X59804885Y-66591537D01*
X59865769Y-66805523D01*
X59865775Y-66805538D01*
X59964938Y-67004683D01*
X59964943Y-67004691D01*
X60099020Y-67182238D01*
X60263437Y-67332123D01*
X60263439Y-67332125D01*
X60452595Y-67449245D01*
X60452596Y-67449245D01*
X60452599Y-67449247D01*
X60660060Y-67529618D01*
X60878757Y-67570500D01*
X60878759Y-67570500D01*
X61101241Y-67570500D01*
X61101243Y-67570500D01*
X61319940Y-67529618D01*
X61527401Y-67449247D01*
X61716562Y-67332124D01*
X61880981Y-67182236D01*
X62015058Y-67004689D01*
X62114229Y-66805528D01*
X62175115Y-66591536D01*
X62195643Y-66370000D01*
X62175115Y-66148464D01*
X62114229Y-65934472D01*
X62114224Y-65934461D01*
X62015061Y-65735316D01*
X62015056Y-65735308D01*
X61940546Y-65636641D01*
X61915854Y-65571279D01*
X61915500Y-65561914D01*
X61915500Y-60746129D01*
X61935185Y-60679090D01*
X61987989Y-60633335D01*
X62016709Y-60624241D01*
X62094940Y-60609618D01*
X62302401Y-60529247D01*
X62491562Y-60412124D01*
X62655981Y-60262236D01*
X62790058Y-60084689D01*
X62889229Y-59885528D01*
X62950115Y-59671536D01*
X62970643Y-59450000D01*
X62950115Y-59228464D01*
X62889229Y-59014472D01*
X62853934Y-58943590D01*
X62790061Y-58815316D01*
X62790056Y-58815308D01*
X62655979Y-58637761D01*
X62491562Y-58487876D01*
X62491560Y-58487874D01*
X62302404Y-58370754D01*
X62302398Y-58370752D01*
X62094940Y-58290382D01*
X62094935Y-58290381D01*
X62094930Y-58290379D01*
X62016714Y-58275758D01*
X61954433Y-58244090D01*
X61919161Y-58183778D01*
X61915500Y-58153870D01*
X61915500Y-52354717D01*
X61935185Y-52287678D01*
X61951819Y-52267036D01*
X69752036Y-44466819D01*
X69813359Y-44433334D01*
X69839717Y-44430500D01*
X69881241Y-44430500D01*
X69881243Y-44430500D01*
X70099940Y-44389618D01*
X70307401Y-44309247D01*
X70496562Y-44192124D01*
X70660981Y-44042236D01*
X70795058Y-43864689D01*
X70894229Y-43665528D01*
X70955115Y-43451536D01*
X70975643Y-43230000D01*
X70964741Y-43112352D01*
X70955115Y-43008464D01*
X70955114Y-43008462D01*
X70949401Y-42988384D01*
X70894229Y-42794472D01*
X70849909Y-42705466D01*
X70795061Y-42595316D01*
X70795056Y-42595308D01*
X70660979Y-42417761D01*
X70496562Y-42267876D01*
X70496560Y-42267874D01*
X70307404Y-42150754D01*
X70307398Y-42150752D01*
X70304471Y-42149618D01*
X70099940Y-42070382D01*
X69881243Y-42029500D01*
X69658757Y-42029500D01*
X69440060Y-42070382D01*
X69362100Y-42100584D01*
X69232601Y-42150752D01*
X69232595Y-42150754D01*
X69043439Y-42267874D01*
X69043437Y-42267876D01*
X68879020Y-42417761D01*
X68744943Y-42595308D01*
X68744938Y-42595316D01*
X68645775Y-42794461D01*
X68645770Y-42794474D01*
X68590598Y-42988384D01*
X68559013Y-43042130D01*
X62438794Y-49162351D01*
X60400028Y-51201117D01*
X60336684Y-51264461D01*
X60271115Y-51330029D01*
X60271113Y-51330032D01*
X60169833Y-51481608D01*
X60169831Y-51481612D01*
X60100068Y-51650037D01*
X60100065Y-51650047D01*
X60064500Y-51828843D01*
X60064500Y-53425099D01*
X60044815Y-53492138D01*
X59992011Y-53537893D01*
X59922853Y-53547837D01*
X59895707Y-53540726D01*
X59782826Y-53496996D01*
X59739940Y-53480382D01*
X59521243Y-53439500D01*
X59298757Y-53439500D01*
X59080060Y-53480382D01*
X59017144Y-53504756D01*
X58872601Y-53560752D01*
X58872595Y-53560754D01*
X58683439Y-53677874D01*
X58683437Y-53677876D01*
X58519020Y-53827761D01*
X58384943Y-54005308D01*
X58384938Y-54005316D01*
X58285775Y-54204461D01*
X58285769Y-54204476D01*
X58224885Y-54418462D01*
X58224884Y-54418464D01*
X58204357Y-54639999D01*
X47920500Y-54639999D01*
X47920500Y-43089047D01*
X47940185Y-43022008D01*
X47992989Y-42976253D01*
X48062147Y-42966309D01*
X48125703Y-42995334D01*
X48132181Y-43001366D01*
X48643181Y-43512366D01*
X48676666Y-43573689D01*
X48679500Y-43600047D01*
X48679500Y-49162351D01*
X48711522Y-49364534D01*
X48774781Y-49559223D01*
X48867715Y-49741613D01*
X48988028Y-49907213D01*
X49132786Y-50051971D01*
X49256066Y-50141537D01*
X49298390Y-50172287D01*
X49414607Y-50231503D01*
X49480776Y-50265218D01*
X49480778Y-50265218D01*
X49480781Y-50265220D01*
X49585137Y-50299127D01*
X49675465Y-50328477D01*
X49776557Y-50344488D01*
X49877648Y-50360500D01*
X49877649Y-50360500D01*
X50082351Y-50360500D01*
X50082352Y-50360500D01*
X50284534Y-50328477D01*
X50479219Y-50265220D01*
X50661610Y-50172287D01*
X50754590Y-50104732D01*
X50827213Y-50051971D01*
X50827215Y-50051968D01*
X50827219Y-50051966D01*
X50959186Y-49919999D01*
X57874357Y-49919999D01*
X57874357Y-49920000D01*
X57894884Y-50141535D01*
X57894885Y-50141537D01*
X57955769Y-50355523D01*
X57955775Y-50355538D01*
X58054938Y-50554683D01*
X58054943Y-50554691D01*
X58189020Y-50732238D01*
X58353437Y-50882123D01*
X58353439Y-50882125D01*
X58542595Y-50999245D01*
X58542596Y-50999245D01*
X58542599Y-50999247D01*
X58750060Y-51079618D01*
X58968757Y-51120500D01*
X58968759Y-51120500D01*
X59191241Y-51120500D01*
X59191243Y-51120500D01*
X59409940Y-51079618D01*
X59617401Y-50999247D01*
X59806562Y-50882124D01*
X59964794Y-50737876D01*
X59970979Y-50732238D01*
X60055169Y-50620753D01*
X60105058Y-50554689D01*
X60204229Y-50355528D01*
X60265115Y-50141536D01*
X60285643Y-49920000D01*
X60265115Y-49698464D01*
X60204229Y-49484472D01*
X60144507Y-49364534D01*
X60105061Y-49285316D01*
X60105056Y-49285308D01*
X60030546Y-49186641D01*
X60005854Y-49121279D01*
X60005500Y-49111914D01*
X60005500Y-47680507D01*
X60638721Y-47680507D01*
X60638721Y-47680508D01*
X60659248Y-47902043D01*
X60659249Y-47902045D01*
X60720133Y-48116031D01*
X60720139Y-48116046D01*
X60819302Y-48315191D01*
X60819307Y-48315199D01*
X60953384Y-48492746D01*
X61117801Y-48642631D01*
X61117803Y-48642633D01*
X61306959Y-48759753D01*
X61306960Y-48759753D01*
X61306963Y-48759755D01*
X61514424Y-48840126D01*
X61733121Y-48881008D01*
X61733123Y-48881008D01*
X61955605Y-48881008D01*
X61955607Y-48881008D01*
X62174304Y-48840126D01*
X62381765Y-48759755D01*
X62570926Y-48642632D01*
X62735345Y-48492744D01*
X62869422Y-48315197D01*
X62968593Y-48116036D01*
X63029479Y-47902044D01*
X63050007Y-47680508D01*
X63029479Y-47458972D01*
X62968593Y-47244980D01*
X62968588Y-47244969D01*
X62869425Y-47045824D01*
X62869420Y-47045816D01*
X62735343Y-46868269D01*
X62570926Y-46718384D01*
X62570924Y-46718382D01*
X62381768Y-46601262D01*
X62381762Y-46601260D01*
X62174304Y-46520890D01*
X61955607Y-46480008D01*
X61733121Y-46480008D01*
X61514424Y-46520890D01*
X61421286Y-46556972D01*
X61306965Y-46601260D01*
X61306959Y-46601262D01*
X61117803Y-46718382D01*
X61117801Y-46718384D01*
X60953384Y-46868269D01*
X60819307Y-47045816D01*
X60819302Y-47045824D01*
X60720139Y-47244969D01*
X60720133Y-47244984D01*
X60659249Y-47458970D01*
X60659248Y-47458972D01*
X60638721Y-47680507D01*
X60005500Y-47680507D01*
X60005500Y-44781456D01*
X60025185Y-44714417D01*
X60077989Y-44668662D01*
X60106710Y-44659568D01*
X60159940Y-44649618D01*
X60367401Y-44569247D01*
X60556562Y-44452124D01*
X60720981Y-44302236D01*
X60855058Y-44124689D01*
X60954229Y-43925528D01*
X61015115Y-43711536D01*
X61035643Y-43490000D01*
X61015115Y-43268464D01*
X60954229Y-43054472D01*
X60953116Y-43052236D01*
X60855061Y-42855316D01*
X60855056Y-42855308D01*
X60720979Y-42677761D01*
X60556562Y-42527876D01*
X60556560Y-42527874D01*
X60367404Y-42410754D01*
X60367398Y-42410752D01*
X60159940Y-42330382D01*
X59941243Y-42289500D01*
X59718757Y-42289500D01*
X59500060Y-42330382D01*
X59368864Y-42381207D01*
X59292601Y-42410752D01*
X59292595Y-42410754D01*
X59103439Y-42527874D01*
X59103437Y-42527876D01*
X58939020Y-42677761D01*
X58804943Y-42855308D01*
X58804938Y-42855316D01*
X58705775Y-43054461D01*
X58705769Y-43054476D01*
X58644885Y-43268462D01*
X58644884Y-43268464D01*
X58639028Y-43331665D01*
X58613241Y-43396602D01*
X58603239Y-43407903D01*
X58490028Y-43521116D01*
X58490027Y-43521117D01*
X58361119Y-43650024D01*
X58361113Y-43650032D01*
X58259833Y-43801608D01*
X58259831Y-43801612D01*
X58190068Y-43970037D01*
X58190065Y-43970047D01*
X58154500Y-44148843D01*
X58154500Y-49111914D01*
X58134815Y-49178953D01*
X58129454Y-49186641D01*
X58054943Y-49285308D01*
X58054938Y-49285316D01*
X57955775Y-49484461D01*
X57955769Y-49484476D01*
X57894885Y-49698462D01*
X57894884Y-49698464D01*
X57874357Y-49919999D01*
X50959186Y-49919999D01*
X50971966Y-49907219D01*
X50971968Y-49907215D01*
X50971971Y-49907213D01*
X51042833Y-49809678D01*
X51092287Y-49741610D01*
X51185220Y-49559219D01*
X51248477Y-49364534D01*
X51280500Y-49162352D01*
X51280500Y-43117487D01*
X51280501Y-43117462D01*
X51280501Y-42907650D01*
X51272211Y-42855311D01*
X51248477Y-42705466D01*
X51248476Y-42705462D01*
X51248476Y-42705461D01*
X51185222Y-42510784D01*
X51185221Y-42510781D01*
X51092287Y-42328390D01*
X51038258Y-42254025D01*
X50971967Y-42162782D01*
X49757219Y-40948034D01*
X49591611Y-40827713D01*
X49475327Y-40768464D01*
X49475325Y-40768462D01*
X49431255Y-40746008D01*
X49409219Y-40734780D01*
X49311876Y-40703151D01*
X49288003Y-40695394D01*
X49214535Y-40671522D01*
X49039995Y-40643878D01*
X49012352Y-40639500D01*
X48787648Y-40639500D01*
X48763329Y-40643351D01*
X48585465Y-40671522D01*
X48390776Y-40734781D01*
X48208387Y-40827714D01*
X48117384Y-40893831D01*
X48051578Y-40917310D01*
X47983524Y-40901484D01*
X47934830Y-40851378D01*
X47920500Y-40793512D01*
X47920500Y-40130047D01*
X47940185Y-40063008D01*
X47956819Y-40042366D01*
X49292366Y-38706819D01*
X49353689Y-38673334D01*
X49380047Y-38670500D01*
X49622351Y-38670500D01*
X49622352Y-38670500D01*
X49824534Y-38638477D01*
X50019219Y-38575220D01*
X50201610Y-38482287D01*
X50361078Y-38366428D01*
X50367213Y-38361971D01*
X50367215Y-38361968D01*
X50367219Y-38361966D01*
X50511966Y-38217219D01*
X50511968Y-38217215D01*
X50511971Y-38217213D01*
X50571741Y-38134945D01*
X50632287Y-38051610D01*
X50725220Y-37869219D01*
X50788477Y-37674534D01*
X50820500Y-37472352D01*
X50820500Y-37267648D01*
X50788477Y-37065466D01*
X50725220Y-36870781D01*
X50725218Y-36870778D01*
X50725218Y-36870776D01*
X50691503Y-36804607D01*
X50632287Y-36688390D01*
X50608408Y-36655523D01*
X50511971Y-36522786D01*
X50367213Y-36378028D01*
X50201613Y-36257715D01*
X50201612Y-36257714D01*
X50201610Y-36257713D01*
X50127592Y-36219999D01*
X50019223Y-36164781D01*
X49824534Y-36101522D01*
X49649995Y-36073878D01*
X49622352Y-36069500D01*
X48687648Y-36069500D01*
X48663329Y-36073351D01*
X48485465Y-36101522D01*
X48290776Y-36164781D01*
X48108386Y-36257715D01*
X47994949Y-36340132D01*
X47994948Y-36340133D01*
X47942784Y-36378030D01*
X45628036Y-38692778D01*
X45507716Y-38858384D01*
X45507714Y-38858387D01*
X45470628Y-38931173D01*
X45414781Y-39040776D01*
X45410335Y-39054461D01*
X45391158Y-39113481D01*
X45385543Y-39130762D01*
X45351522Y-39235464D01*
X45351522Y-39235465D01*
X45342273Y-39293867D01*
X45342273Y-39293868D01*
X45319500Y-39437648D01*
X45319500Y-40915500D01*
X45299815Y-40982539D01*
X45247011Y-41028294D01*
X45195500Y-41039500D01*
X45188779Y-41039500D01*
X45121740Y-41019815D01*
X45075985Y-40967011D01*
X45065308Y-40926941D01*
X45062949Y-40901484D01*
X45046080Y-40719430D01*
X44985194Y-40505438D01*
X44938485Y-40411634D01*
X44886026Y-40306282D01*
X44886021Y-40306274D01*
X44751944Y-40128727D01*
X44587527Y-39978842D01*
X44587525Y-39978840D01*
X44398369Y-39861720D01*
X44398363Y-39861718D01*
X44190905Y-39781348D01*
X43972208Y-39740466D01*
X43749722Y-39740466D01*
X43531025Y-39781348D01*
X43404454Y-39830382D01*
X43323566Y-39861718D01*
X43323560Y-39861720D01*
X43134404Y-39978840D01*
X43134402Y-39978842D01*
X42969985Y-40128727D01*
X42835908Y-40306274D01*
X42835903Y-40306282D01*
X42736740Y-40505427D01*
X42736734Y-40505442D01*
X42675850Y-40719428D01*
X42675849Y-40719430D01*
X42655322Y-40940965D01*
X25020472Y-40940965D01*
X25016675Y-33348392D01*
X32724500Y-33348392D01*
X32724500Y-34651608D01*
X32728700Y-34694247D01*
X32739699Y-34805932D01*
X32769734Y-34904944D01*
X32799768Y-35003954D01*
X32897315Y-35186450D01*
X32897317Y-35186452D01*
X33028586Y-35346406D01*
X33028588Y-35346407D01*
X33028590Y-35346410D01*
X33028687Y-35346489D01*
X33028725Y-35346545D01*
X33032893Y-35350713D01*
X33032102Y-35351503D01*
X33068024Y-35404232D01*
X33069899Y-35474076D01*
X33050345Y-35515231D01*
X32963368Y-35634945D01*
X32845422Y-35866423D01*
X32765140Y-36113506D01*
X32724500Y-36370097D01*
X32724500Y-36629902D01*
X32765140Y-36886493D01*
X32845422Y-37133576D01*
X32913736Y-37267648D01*
X32954933Y-37348501D01*
X32963368Y-37365054D01*
X33116066Y-37575225D01*
X33116071Y-37575231D01*
X33203159Y-37662319D01*
X33236644Y-37723642D01*
X33231660Y-37793334D01*
X33203159Y-37837681D01*
X33116071Y-37924768D01*
X33116066Y-37924774D01*
X32963368Y-38134945D01*
X32845422Y-38366423D01*
X32765140Y-38613506D01*
X32724500Y-38870097D01*
X32724500Y-39129902D01*
X32765140Y-39386493D01*
X32845422Y-39633576D01*
X32885146Y-39711537D01*
X32963366Y-39865051D01*
X33116069Y-40075229D01*
X33299771Y-40258931D01*
X33509949Y-40411634D01*
X33657445Y-40486787D01*
X33741423Y-40529577D01*
X33741425Y-40529577D01*
X33741428Y-40529579D01*
X33988507Y-40609860D01*
X34120706Y-40630797D01*
X34245098Y-40650500D01*
X34245103Y-40650500D01*
X34754902Y-40650500D01*
X34868298Y-40632539D01*
X35011493Y-40609860D01*
X35258572Y-40529579D01*
X35490051Y-40411634D01*
X35700229Y-40258931D01*
X35883931Y-40075229D01*
X36036634Y-39865051D01*
X36154579Y-39633572D01*
X36234860Y-39386493D01*
X36258780Y-39235464D01*
X36275500Y-39129902D01*
X36275500Y-38870097D01*
X36249639Y-38706819D01*
X36234860Y-38613507D01*
X36154579Y-38366428D01*
X36154577Y-38366425D01*
X36154577Y-38366423D01*
X36111787Y-38282445D01*
X36036634Y-38134949D01*
X35883931Y-37924771D01*
X35796841Y-37837681D01*
X35763356Y-37776358D01*
X35768340Y-37706666D01*
X35796841Y-37662319D01*
X35883931Y-37575229D01*
X36036634Y-37365051D01*
X36154579Y-37133572D01*
X36234860Y-36886493D01*
X36266236Y-36688390D01*
X36275500Y-36629902D01*
X36275500Y-36370097D01*
X36247014Y-36190246D01*
X36234860Y-36113507D01*
X36154579Y-35866428D01*
X36154577Y-35866425D01*
X36154577Y-35866423D01*
X36111787Y-35782445D01*
X36036634Y-35634949D01*
X35949655Y-35515232D01*
X35926175Y-35449426D01*
X35942000Y-35381372D01*
X35967459Y-35351076D01*
X35967102Y-35350719D01*
X35971219Y-35346601D01*
X35971314Y-35346489D01*
X35971331Y-35346474D01*
X35971410Y-35346410D01*
X36102685Y-35186450D01*
X36200232Y-35003954D01*
X36260300Y-34805934D01*
X36275500Y-34651608D01*
X36275500Y-33348392D01*
X36262854Y-33219999D01*
X43904357Y-33219999D01*
X43904357Y-33220000D01*
X43924884Y-33441535D01*
X43924885Y-33441537D01*
X43985769Y-33655523D01*
X43985775Y-33655538D01*
X44084938Y-33854683D01*
X44084943Y-33854691D01*
X44219020Y-34032238D01*
X44295036Y-34101535D01*
X44378374Y-34177508D01*
X44383437Y-34182123D01*
X44383439Y-34182125D01*
X44572595Y-34299245D01*
X44572596Y-34299245D01*
X44572599Y-34299247D01*
X44780060Y-34379618D01*
X44998757Y-34420500D01*
X44998759Y-34420500D01*
X45221241Y-34420500D01*
X45221243Y-34420500D01*
X45439940Y-34379618D01*
X45647401Y-34299247D01*
X45836562Y-34182124D01*
X46000981Y-34032236D01*
X46115945Y-33879999D01*
X47414357Y-33879999D01*
X47414357Y-33880000D01*
X47434884Y-34101535D01*
X47434885Y-34101537D01*
X47495769Y-34315523D01*
X47495775Y-34315538D01*
X47594938Y-34514683D01*
X47594943Y-34514691D01*
X47729020Y-34692238D01*
X47893437Y-34842123D01*
X47893439Y-34842125D01*
X48082595Y-34959245D01*
X48082596Y-34959245D01*
X48082599Y-34959247D01*
X48290060Y-35039618D01*
X48508757Y-35080500D01*
X48508759Y-35080500D01*
X48731241Y-35080500D01*
X48731243Y-35080500D01*
X48949940Y-35039618D01*
X49157401Y-34959247D01*
X49346562Y-34842124D01*
X49510981Y-34692236D01*
X49645058Y-34514689D01*
X49744229Y-34315528D01*
X49805115Y-34101536D01*
X49825643Y-33880000D01*
X49823792Y-33860029D01*
X49805115Y-33658464D01*
X49805114Y-33658462D01*
X49804279Y-33655528D01*
X49744229Y-33444472D01*
X49742768Y-33441537D01*
X49645061Y-33245316D01*
X49645056Y-33245308D01*
X49510979Y-33067761D01*
X49346562Y-32917876D01*
X49346560Y-32917874D01*
X49157404Y-32800754D01*
X49157398Y-32800752D01*
X49123392Y-32787578D01*
X48949940Y-32720382D01*
X48731243Y-32679500D01*
X48508757Y-32679500D01*
X48290060Y-32720382D01*
X48169746Y-32766992D01*
X48082601Y-32800752D01*
X48082595Y-32800754D01*
X47893439Y-32917874D01*
X47893437Y-32917876D01*
X47729020Y-33067761D01*
X47594943Y-33245308D01*
X47594938Y-33245316D01*
X47495775Y-33444461D01*
X47495769Y-33444476D01*
X47434885Y-33658462D01*
X47434884Y-33658464D01*
X47414357Y-33879999D01*
X46115945Y-33879999D01*
X46135058Y-33854689D01*
X46234229Y-33655528D01*
X46295115Y-33441536D01*
X46315643Y-33220000D01*
X46301536Y-33067764D01*
X46295115Y-32998464D01*
X46295114Y-32998462D01*
X46292287Y-32988527D01*
X46234229Y-32784472D01*
X46225525Y-32766992D01*
X46135061Y-32585316D01*
X46135056Y-32585308D01*
X46000979Y-32407761D01*
X45981495Y-32389999D01*
X54624357Y-32389999D01*
X54624357Y-32390000D01*
X54644884Y-32611535D01*
X54644885Y-32611537D01*
X54705769Y-32825523D01*
X54705775Y-32825538D01*
X54804938Y-33024683D01*
X54804943Y-33024691D01*
X54939020Y-33202238D01*
X55091088Y-33340866D01*
X55099347Y-33348395D01*
X55103437Y-33352123D01*
X55103439Y-33352125D01*
X55292595Y-33469245D01*
X55292596Y-33469245D01*
X55292599Y-33469247D01*
X55500060Y-33549618D01*
X55684567Y-33584108D01*
X55746845Y-33615775D01*
X55749460Y-33618315D01*
X60803914Y-38672769D01*
X60872680Y-38741535D01*
X60932826Y-38801681D01*
X60932829Y-38801683D01*
X61084405Y-38902963D01*
X61084409Y-38902965D01*
X61133739Y-38923398D01*
X61133740Y-38923398D01*
X61252839Y-38972731D01*
X61431638Y-39008296D01*
X61431642Y-39008297D01*
X61431643Y-39008297D01*
X67225103Y-39008297D01*
X67292142Y-39027982D01*
X67337897Y-39080786D01*
X67347547Y-39125149D01*
X67348574Y-39125054D01*
X67369630Y-39352297D01*
X67369631Y-39352299D01*
X67430515Y-39566285D01*
X67430521Y-39566300D01*
X67529684Y-39765445D01*
X67529689Y-39765453D01*
X67663766Y-39943000D01*
X67828183Y-40092885D01*
X67828185Y-40092887D01*
X68017341Y-40210007D01*
X68017342Y-40210007D01*
X68017345Y-40210009D01*
X68224806Y-40290380D01*
X68443503Y-40331262D01*
X68443505Y-40331262D01*
X68665987Y-40331262D01*
X68665989Y-40331262D01*
X68884686Y-40290380D01*
X69092147Y-40210009D01*
X69174402Y-40159078D01*
X69241760Y-40140522D01*
X69308460Y-40161330D01*
X69327360Y-40176824D01*
X76615414Y-47464878D01*
X76648899Y-47526201D01*
X76651733Y-47552559D01*
X76651733Y-47668721D01*
X76651733Y-47851029D01*
X76651733Y-47851031D01*
X76651732Y-47851031D01*
X76687298Y-48029827D01*
X76687301Y-48029837D01*
X76757064Y-48198262D01*
X76757066Y-48198266D01*
X76858346Y-48349842D01*
X76858352Y-48349850D01*
X78318181Y-49809678D01*
X78351666Y-49871001D01*
X78354500Y-49897359D01*
X78354500Y-76075459D01*
X78334815Y-76142498D01*
X78318181Y-76163140D01*
X77689318Y-76792002D01*
X77627995Y-76825487D01*
X77624431Y-76826208D01*
X77439918Y-76860700D01*
X77341277Y-76898914D01*
X77232459Y-76941070D01*
X77232453Y-76941072D01*
X77156440Y-76988138D01*
X77089079Y-77006693D01*
X77022380Y-76985885D01*
X77003482Y-76970392D01*
X73924210Y-73891119D01*
X73924202Y-73891113D01*
X73772626Y-73789833D01*
X73772622Y-73789831D01*
X73604197Y-73720068D01*
X73604187Y-73720065D01*
X73425391Y-73684500D01*
X73425389Y-73684500D01*
X71094775Y-73684500D01*
X71027736Y-73664815D01*
X71011239Y-73652139D01*
X71006564Y-73647877D01*
X70817404Y-73530754D01*
X70817398Y-73530752D01*
X70609940Y-73450382D01*
X70391243Y-73409500D01*
X70168757Y-73409500D01*
X69950060Y-73450382D01*
X69818864Y-73501207D01*
X69742601Y-73530752D01*
X69742595Y-73530754D01*
X69553439Y-73647874D01*
X69553437Y-73647876D01*
X69389020Y-73797761D01*
X69254943Y-73975308D01*
X69254938Y-73975316D01*
X69155775Y-74174461D01*
X69155769Y-74174476D01*
X69094885Y-74388462D01*
X69094884Y-74388464D01*
X69074357Y-74609999D01*
X69074357Y-74610000D01*
X69094884Y-74831535D01*
X69094885Y-74831537D01*
X69155769Y-75045523D01*
X69155775Y-75045538D01*
X69254938Y-75244683D01*
X69254943Y-75244691D01*
X69389020Y-75422238D01*
X69534857Y-75555185D01*
X69553103Y-75571819D01*
X69553437Y-75572123D01*
X69553439Y-75572125D01*
X69742595Y-75689245D01*
X69742596Y-75689245D01*
X69742599Y-75689247D01*
X69950060Y-75769618D01*
X70168757Y-75810500D01*
X70168759Y-75810500D01*
X70391241Y-75810500D01*
X70391243Y-75810500D01*
X70609940Y-75769618D01*
X70817401Y-75689247D01*
X71006562Y-75572124D01*
X71007617Y-75571162D01*
X71011239Y-75567861D01*
X71074044Y-75537245D01*
X71094775Y-75535500D01*
X72899518Y-75535500D01*
X72966557Y-75555185D01*
X72987199Y-75571819D01*
X73567331Y-76151951D01*
X73600816Y-76213274D01*
X73595832Y-76282966D01*
X73553960Y-76338899D01*
X73488496Y-76363316D01*
X73456868Y-76361521D01*
X73304846Y-76333103D01*
X73082360Y-76333103D01*
X72863663Y-76373985D01*
X72732467Y-76424810D01*
X72656204Y-76454355D01*
X72656198Y-76454357D01*
X72467042Y-76571477D01*
X72467040Y-76571479D01*
X72302623Y-76721364D01*
X72168546Y-76898911D01*
X72168541Y-76898919D01*
X72069378Y-77098064D01*
X72069372Y-77098079D01*
X72008488Y-77312065D01*
X72008487Y-77312067D01*
X71987960Y-77533602D01*
X71987960Y-77533603D01*
X72008487Y-77755138D01*
X72008488Y-77755140D01*
X72069372Y-77969126D01*
X72069378Y-77969141D01*
X72168541Y-78168286D01*
X72168546Y-78168294D01*
X72302623Y-78345841D01*
X72467040Y-78495726D01*
X72467042Y-78495728D01*
X72656198Y-78612848D01*
X72656199Y-78612848D01*
X72656202Y-78612850D01*
X72863663Y-78693221D01*
X73082360Y-78734103D01*
X73082362Y-78734103D01*
X73304844Y-78734103D01*
X73304846Y-78734103D01*
X73523543Y-78693221D01*
X73731004Y-78612850D01*
X73920165Y-78495727D01*
X74084584Y-78345839D01*
X74218661Y-78168292D01*
X74317832Y-77969131D01*
X74378718Y-77755139D01*
X74399246Y-77533603D01*
X74378718Y-77312067D01*
X74370698Y-77283879D01*
X74371284Y-77214014D01*
X74409551Y-77155555D01*
X74473348Y-77127064D01*
X74542420Y-77137588D01*
X74577645Y-77162265D01*
X76750670Y-79335290D01*
X76879578Y-79464198D01*
X76879582Y-79464202D01*
X76879585Y-79464204D01*
X77031161Y-79565484D01*
X77031165Y-79565486D01*
X77080495Y-79585919D01*
X77080496Y-79585919D01*
X77199595Y-79635252D01*
X77378394Y-79670817D01*
X77378398Y-79670818D01*
X77378399Y-79670818D01*
X78425838Y-79670818D01*
X78546127Y-79646890D01*
X78604640Y-79635251D01*
X78773071Y-79565485D01*
X78773073Y-79565484D01*
X78848354Y-79515182D01*
X78924654Y-79464201D01*
X80469969Y-77918884D01*
X80469972Y-77918883D01*
X80598883Y-77789972D01*
X80700167Y-77638389D01*
X80723553Y-77581929D01*
X80769934Y-77469958D01*
X80805500Y-77291154D01*
X80805500Y-77108846D01*
X80805500Y-58378465D01*
X80825185Y-58311426D01*
X80877989Y-58265671D01*
X80947147Y-58255727D01*
X80952255Y-58256571D01*
X81133757Y-58290500D01*
X81133759Y-58290500D01*
X81356241Y-58290500D01*
X81356243Y-58290500D01*
X81574940Y-58249618D01*
X81782401Y-58169247D01*
X81971562Y-58052124D01*
X82135981Y-57902236D01*
X82270058Y-57724689D01*
X82369229Y-57525528D01*
X82430115Y-57311536D01*
X82450643Y-57090000D01*
X82430115Y-56868464D01*
X82369229Y-56654472D01*
X82369224Y-56654461D01*
X82270061Y-56455316D01*
X82270056Y-56455308D01*
X82135979Y-56277761D01*
X81971562Y-56127876D01*
X81971560Y-56127874D01*
X81782404Y-56010754D01*
X81782398Y-56010752D01*
X81574940Y-55930382D01*
X81356243Y-55889500D01*
X81133757Y-55889500D01*
X81042017Y-55906649D01*
X80952285Y-55923423D01*
X80882770Y-55916392D01*
X80828091Y-55872894D01*
X80805609Y-55806740D01*
X80805500Y-55801534D01*
X80805500Y-53484290D01*
X80825185Y-53417251D01*
X80877989Y-53371496D01*
X80906709Y-53362402D01*
X80984940Y-53347779D01*
X81192401Y-53267408D01*
X81381562Y-53150285D01*
X81545981Y-53000397D01*
X81680058Y-52822850D01*
X81779229Y-52623689D01*
X81840115Y-52409697D01*
X81860643Y-52188161D01*
X81855765Y-52135523D01*
X81840115Y-51966625D01*
X81840114Y-51966623D01*
X81827285Y-51921535D01*
X81779229Y-51752633D01*
X81753021Y-51700000D01*
X81680061Y-51553477D01*
X81680056Y-51553469D01*
X81545979Y-51375922D01*
X81381562Y-51226037D01*
X81381560Y-51226035D01*
X81192404Y-51108915D01*
X81192398Y-51108913D01*
X80984940Y-51028543D01*
X80984935Y-51028542D01*
X80984930Y-51028540D01*
X80906714Y-51013919D01*
X80844433Y-50982251D01*
X80809161Y-50921939D01*
X80805500Y-50892031D01*
X80805500Y-47788031D01*
X80769934Y-47609235D01*
X80769933Y-47609234D01*
X80769933Y-47609230D01*
X80746459Y-47552559D01*
X80700168Y-47440800D01*
X80700166Y-47440796D01*
X80598886Y-47289220D01*
X80598884Y-47289217D01*
X80554636Y-47244969D01*
X80469972Y-47160305D01*
X77107547Y-43797880D01*
X77074062Y-43736557D01*
X77079046Y-43666865D01*
X77120918Y-43610932D01*
X77186382Y-43586515D01*
X77195228Y-43586199D01*
X83255982Y-43586199D01*
X83323021Y-43605884D01*
X83343663Y-43622518D01*
X96428181Y-56707036D01*
X96461666Y-56768359D01*
X96464500Y-56794717D01*
X96464500Y-71975282D01*
X96444815Y-72042321D01*
X96428181Y-72062963D01*
X93448880Y-75042263D01*
X93387557Y-75075748D01*
X93351471Y-75078200D01*
X93180000Y-75064706D01*
X92936702Y-75083853D01*
X92699380Y-75140830D01*
X92473910Y-75234222D01*
X92265826Y-75361737D01*
X92265823Y-75361738D01*
X92080241Y-75520241D01*
X91921738Y-75705823D01*
X91921737Y-75705826D01*
X91794222Y-75913910D01*
X91700830Y-76139380D01*
X91643853Y-76376702D01*
X91624706Y-76620000D01*
X91643853Y-76863297D01*
X91643853Y-76863300D01*
X91643854Y-76863302D01*
X91700216Y-77098064D01*
X91700830Y-77100619D01*
X91794222Y-77326089D01*
X91921737Y-77534173D01*
X91921738Y-77534176D01*
X91921741Y-77534179D01*
X92080241Y-77719759D01*
X92223897Y-77842453D01*
X92265823Y-77878261D01*
X92265826Y-77878262D01*
X92473910Y-78005777D01*
X92699381Y-78099169D01*
X92699378Y-78099169D01*
X92699384Y-78099170D01*
X92699388Y-78099172D01*
X92936698Y-78156146D01*
X93180000Y-78175294D01*
X93423302Y-78156146D01*
X93660612Y-78099172D01*
X93886089Y-78005777D01*
X94094179Y-77878259D01*
X94279759Y-77719759D01*
X94438259Y-77534179D01*
X94565777Y-77326089D01*
X94659172Y-77100612D01*
X94716146Y-76863302D01*
X94735294Y-76620000D01*
X94721798Y-76448524D01*
X94736162Y-76380151D01*
X94757732Y-76351121D01*
X95237819Y-75871035D01*
X95299142Y-75837550D01*
X95368834Y-75842534D01*
X95424767Y-75884406D01*
X95449184Y-75949870D01*
X95449500Y-75958716D01*
X95449500Y-77414960D01*
X95464630Y-77549249D01*
X95464631Y-77549254D01*
X95524211Y-77719523D01*
X95620184Y-77872262D01*
X95747738Y-77999816D01*
X95900478Y-78095789D01*
X96070745Y-78155368D01*
X96070750Y-78155369D01*
X96161246Y-78165565D01*
X96205040Y-78170499D01*
X96205043Y-78170500D01*
X96205046Y-78170500D01*
X97794957Y-78170500D01*
X97794958Y-78170499D01*
X97862104Y-78162934D01*
X97929249Y-78155369D01*
X97929252Y-78155368D01*
X97929255Y-78155368D01*
X98099522Y-78095789D01*
X98252262Y-77999816D01*
X98379816Y-77872262D01*
X98475789Y-77719522D01*
X98535368Y-77549255D01*
X98537068Y-77534173D01*
X98550499Y-77414960D01*
X98550500Y-77414956D01*
X98550500Y-75825043D01*
X98550499Y-75825039D01*
X98535369Y-75690750D01*
X98535368Y-75690745D01*
X98510327Y-75619182D01*
X98475789Y-75520478D01*
X98475612Y-75520196D01*
X98474128Y-75517833D01*
X98473577Y-75515882D01*
X98472769Y-75514205D01*
X98473063Y-75514063D01*
X98455132Y-75450596D01*
X98475502Y-75383761D01*
X98491439Y-75364190D01*
X99927151Y-73928479D01*
X99927155Y-73928477D01*
X100073477Y-73782155D01*
X100188441Y-73610098D01*
X100267630Y-73418920D01*
X100308000Y-73215965D01*
X100308000Y-62542758D01*
X100321000Y-62487486D01*
X100381729Y-62365528D01*
X100442615Y-62151536D01*
X100463143Y-61930000D01*
X100462707Y-61925300D01*
X100442615Y-61708464D01*
X100442614Y-61708462D01*
X100381730Y-61494476D01*
X100381729Y-61494472D01*
X100381724Y-61494461D01*
X100282561Y-61295316D01*
X100282556Y-61295308D01*
X100148479Y-61117761D01*
X99984062Y-60967876D01*
X99984060Y-60967874D01*
X99794904Y-60850754D01*
X99794898Y-60850752D01*
X99587440Y-60770382D01*
X99368743Y-60729500D01*
X99146257Y-60729500D01*
X98927560Y-60770382D01*
X98796364Y-60821207D01*
X98720101Y-60850752D01*
X98720095Y-60850754D01*
X98530941Y-60967873D01*
X98523037Y-60975079D01*
X98460232Y-61005695D01*
X98390845Y-60997496D01*
X98336906Y-60953085D01*
X98315539Y-60886562D01*
X98315500Y-60883440D01*
X98315500Y-59638392D01*
X113499500Y-59638392D01*
X113499500Y-60941608D01*
X113502087Y-60967873D01*
X113514699Y-61095932D01*
X113517544Y-61105311D01*
X113574768Y-61293954D01*
X113672315Y-61476450D01*
X113706793Y-61518462D01*
X113803589Y-61636410D01*
X113900209Y-61715702D01*
X113963550Y-61767685D01*
X114146046Y-61865232D01*
X114344066Y-61925300D01*
X114344065Y-61925300D01*
X114382647Y-61929100D01*
X114498392Y-61940500D01*
X114498395Y-61940500D01*
X116101605Y-61940500D01*
X116101608Y-61940500D01*
X116255934Y-61925300D01*
X116453954Y-61865232D01*
X116636450Y-61767685D01*
X116796410Y-61636410D01*
X116927685Y-61476450D01*
X117025232Y-61293954D01*
X117085300Y-61095934D01*
X117100500Y-60941608D01*
X117100500Y-59638392D01*
X117085300Y-59484066D01*
X117025232Y-59286046D01*
X116927685Y-59103550D01*
X116875702Y-59040209D01*
X116796410Y-58943589D01*
X116678677Y-58846969D01*
X116636450Y-58812315D01*
X116453954Y-58714768D01*
X116255934Y-58654700D01*
X116255932Y-58654699D01*
X116255934Y-58654699D01*
X116136805Y-58642966D01*
X116101608Y-58639500D01*
X114498392Y-58639500D01*
X114460298Y-58643251D01*
X114344067Y-58654699D01*
X114146043Y-58714769D01*
X114035898Y-58773643D01*
X113963550Y-58812315D01*
X113963548Y-58812316D01*
X113963547Y-58812317D01*
X113803589Y-58943589D01*
X113672317Y-59103547D01*
X113574769Y-59286043D01*
X113514699Y-59484067D01*
X113503251Y-59600298D01*
X113499500Y-59638392D01*
X98315500Y-59638392D01*
X98315500Y-56268843D01*
X98279934Y-56090047D01*
X98279933Y-56090046D01*
X98279933Y-56090042D01*
X98273796Y-56075225D01*
X98210168Y-55921612D01*
X98210166Y-55921608D01*
X98108886Y-55770032D01*
X98108884Y-55770029D01*
X98085004Y-55746149D01*
X97979972Y-55641117D01*
X97637018Y-55298163D01*
X97603533Y-55236840D01*
X97608517Y-55167148D01*
X97628455Y-55134504D01*
X97627526Y-55133803D01*
X97630981Y-55129228D01*
X97765058Y-54951681D01*
X97864229Y-54752520D01*
X97925115Y-54538528D01*
X97945643Y-54316992D01*
X97925115Y-54095456D01*
X97864229Y-53881464D01*
X97842428Y-53837681D01*
X97765061Y-53682308D01*
X97765056Y-53682300D01*
X97630979Y-53504753D01*
X97466562Y-53354868D01*
X97466560Y-53354866D01*
X97277404Y-53237746D01*
X97277398Y-53237744D01*
X97069940Y-53157374D01*
X97069935Y-53157373D01*
X97069931Y-53157372D01*
X97019403Y-53147926D01*
X96957123Y-53116258D01*
X96921851Y-53055945D01*
X96924785Y-52986137D01*
X96931190Y-52970766D01*
X96961180Y-52910538D01*
X96961179Y-52910538D01*
X96961185Y-52910528D01*
X97016657Y-52715565D01*
X97053936Y-52656472D01*
X97117246Y-52626915D01*
X97135923Y-52625500D01*
X106895225Y-52625500D01*
X106962264Y-52645185D01*
X106978761Y-52657861D01*
X106983435Y-52662122D01*
X107172595Y-52779245D01*
X107172596Y-52779245D01*
X107172599Y-52779247D01*
X107380060Y-52859618D01*
X107598757Y-52900500D01*
X107598759Y-52900500D01*
X107821241Y-52900500D01*
X107821243Y-52900500D01*
X108039940Y-52859618D01*
X108247401Y-52779247D01*
X108436562Y-52662124D01*
X108600981Y-52512236D01*
X108735058Y-52334689D01*
X108834229Y-52135528D01*
X108895115Y-51921536D01*
X108915643Y-51700000D01*
X108895115Y-51478464D01*
X108834229Y-51264472D01*
X108815090Y-51226035D01*
X108735061Y-51065316D01*
X108735056Y-51065308D01*
X108600979Y-50887761D01*
X108436562Y-50737876D01*
X108436560Y-50737874D01*
X108247404Y-50620754D01*
X108247398Y-50620752D01*
X108039940Y-50540382D01*
X107821243Y-50499500D01*
X107598757Y-50499500D01*
X107380060Y-50540382D01*
X107248864Y-50591207D01*
X107172601Y-50620752D01*
X107172595Y-50620754D01*
X106983435Y-50737877D01*
X106978761Y-50742139D01*
X106915956Y-50772755D01*
X106895225Y-50774500D01*
X94437509Y-50774500D01*
X94370470Y-50754815D01*
X94349828Y-50738181D01*
X90604146Y-46992499D01*
X98269357Y-46992499D01*
X98269357Y-46992500D01*
X98289884Y-47214035D01*
X98289885Y-47214037D01*
X98350769Y-47428023D01*
X98350775Y-47428038D01*
X98449938Y-47627183D01*
X98449943Y-47627191D01*
X98584020Y-47804738D01*
X98748437Y-47954623D01*
X98748439Y-47954625D01*
X98937595Y-48071745D01*
X98937596Y-48071745D01*
X98937599Y-48071747D01*
X99145060Y-48152118D01*
X99363757Y-48193000D01*
X99363759Y-48193000D01*
X99586241Y-48193000D01*
X99586243Y-48193000D01*
X99804940Y-48152118D01*
X100012401Y-48071747D01*
X100201562Y-47954624D01*
X100365981Y-47804736D01*
X100500058Y-47627189D01*
X100599229Y-47428028D01*
X100660115Y-47214036D01*
X100680643Y-46992500D01*
X100669131Y-46868269D01*
X100660115Y-46770964D01*
X100660114Y-46770962D01*
X100645154Y-46718384D01*
X100599229Y-46556972D01*
X100599224Y-46556961D01*
X100500061Y-46357816D01*
X100500056Y-46357808D01*
X100365979Y-46180261D01*
X100201562Y-46030376D01*
X100201560Y-46030374D01*
X100012404Y-45913254D01*
X100012398Y-45913252D01*
X99804940Y-45832882D01*
X99586243Y-45792000D01*
X99363757Y-45792000D01*
X99145060Y-45832882D01*
X99013864Y-45883707D01*
X98937601Y-45913252D01*
X98937595Y-45913254D01*
X98748439Y-46030374D01*
X98748437Y-46030376D01*
X98584020Y-46180261D01*
X98449943Y-46357808D01*
X98449938Y-46357816D01*
X98350775Y-46556961D01*
X98350769Y-46556976D01*
X98289885Y-46770962D01*
X98289884Y-46770964D01*
X98269357Y-46992499D01*
X90604146Y-46992499D01*
X84653466Y-41041818D01*
X84653458Y-41041812D01*
X84575914Y-40989999D01*
X95904357Y-40989999D01*
X95904357Y-40990000D01*
X95924884Y-41211535D01*
X95924885Y-41211537D01*
X95985769Y-41425523D01*
X95985775Y-41425538D01*
X96084938Y-41624683D01*
X96084943Y-41624691D01*
X96219020Y-41802238D01*
X96383437Y-41952123D01*
X96383439Y-41952125D01*
X96572595Y-42069245D01*
X96572596Y-42069245D01*
X96572599Y-42069247D01*
X96780060Y-42149618D01*
X96998757Y-42190500D01*
X96998759Y-42190500D01*
X97221241Y-42190500D01*
X97221243Y-42190500D01*
X97439940Y-42149618D01*
X97647401Y-42069247D01*
X97836562Y-41952124D01*
X98000981Y-41802236D01*
X98135058Y-41624689D01*
X98234229Y-41425528D01*
X98295115Y-41211536D01*
X98315643Y-40990000D01*
X98295115Y-40768464D01*
X98234229Y-40554472D01*
X98209813Y-40505438D01*
X98135061Y-40355316D01*
X98135056Y-40355308D01*
X98000979Y-40177761D01*
X97836562Y-40027876D01*
X97836560Y-40027874D01*
X97647404Y-39910754D01*
X97647398Y-39910752D01*
X97439940Y-39830382D01*
X97221243Y-39789500D01*
X96998757Y-39789500D01*
X96780060Y-39830382D01*
X96648864Y-39881207D01*
X96572601Y-39910752D01*
X96572595Y-39910754D01*
X96383439Y-40027874D01*
X96383437Y-40027876D01*
X96219020Y-40177761D01*
X96084943Y-40355308D01*
X96084938Y-40355316D01*
X95985775Y-40554461D01*
X95985769Y-40554476D01*
X95924885Y-40768462D01*
X95924884Y-40768464D01*
X95904357Y-40989999D01*
X84575914Y-40989999D01*
X84501882Y-40940532D01*
X84501878Y-40940530D01*
X84333453Y-40870767D01*
X84333443Y-40870764D01*
X84154647Y-40835199D01*
X84154645Y-40835199D01*
X82638208Y-40835199D01*
X82571169Y-40815514D01*
X82550527Y-40798880D01*
X82012004Y-40260357D01*
X81978519Y-40199034D01*
X81983503Y-40129342D01*
X81988681Y-40117412D01*
X82084229Y-39925528D01*
X82145115Y-39711536D01*
X82165643Y-39490000D01*
X82145115Y-39268464D01*
X82084229Y-39054472D01*
X82077412Y-39040781D01*
X81985061Y-38855316D01*
X81985056Y-38855308D01*
X81850979Y-38677761D01*
X81686562Y-38527876D01*
X81686560Y-38527874D01*
X81497404Y-38410754D01*
X81497398Y-38410752D01*
X81289940Y-38330382D01*
X81071243Y-38289500D01*
X80848757Y-38289500D01*
X80630060Y-38330382D01*
X80564463Y-38355794D01*
X80422602Y-38410751D01*
X80345407Y-38458548D01*
X80278046Y-38477102D01*
X80211347Y-38456294D01*
X80192449Y-38440801D01*
X80113783Y-38362135D01*
X80113775Y-38362129D01*
X79962199Y-38260849D01*
X79962195Y-38260847D01*
X79793770Y-38191084D01*
X79793760Y-38191081D01*
X79614964Y-38155516D01*
X79614962Y-38155516D01*
X76552701Y-38155516D01*
X76485662Y-38135831D01*
X76439907Y-38083027D01*
X76429963Y-38013869D01*
X76458988Y-37950313D01*
X76465020Y-37943835D01*
X76572654Y-37836199D01*
X76960539Y-37448314D01*
X77021860Y-37414831D01*
X77025386Y-37414117D01*
X77209940Y-37379618D01*
X77417401Y-37299247D01*
X77606562Y-37182124D01*
X77770981Y-37032236D01*
X77905058Y-36854689D01*
X78004229Y-36655528D01*
X78065115Y-36441536D01*
X78085643Y-36220000D01*
X78075102Y-36106248D01*
X78065115Y-35998464D01*
X78065114Y-35998462D01*
X78037088Y-35899962D01*
X78004229Y-35784472D01*
X78004224Y-35784461D01*
X77905061Y-35585316D01*
X77905056Y-35585308D01*
X77770979Y-35407761D01*
X77606562Y-35257876D01*
X77606560Y-35257874D01*
X77417404Y-35140754D01*
X77417398Y-35140752D01*
X77209940Y-35060382D01*
X76991243Y-35019500D01*
X76768757Y-35019500D01*
X76550060Y-35060382D01*
X76498130Y-35080500D01*
X76342601Y-35140752D01*
X76342595Y-35140754D01*
X76153439Y-35257874D01*
X76153437Y-35257876D01*
X75989020Y-35407761D01*
X75854943Y-35585308D01*
X75854938Y-35585316D01*
X75755775Y-35784461D01*
X75755769Y-35784476D01*
X75694885Y-35998462D01*
X75694885Y-35998464D01*
X75689028Y-36061667D01*
X75663241Y-36126604D01*
X75653238Y-36137906D01*
X74712685Y-37078458D01*
X74651362Y-37111943D01*
X74591079Y-37110046D01*
X74587352Y-37108985D01*
X74514365Y-37095341D01*
X74452085Y-37063672D01*
X74416812Y-37003359D01*
X74413681Y-36984894D01*
X74405115Y-36892448D01*
X74344229Y-36678456D01*
X74344224Y-36678445D01*
X74245061Y-36479300D01*
X74245056Y-36479292D01*
X74170546Y-36380625D01*
X74145854Y-36315263D01*
X74145500Y-36305898D01*
X74145500Y-34358843D01*
X74119870Y-34229999D01*
X85354357Y-34229999D01*
X85354357Y-34230000D01*
X85374884Y-34451535D01*
X85374885Y-34451537D01*
X85435769Y-34665523D01*
X85435775Y-34665538D01*
X85534938Y-34864683D01*
X85534943Y-34864691D01*
X85569997Y-34911109D01*
X85609454Y-34963359D01*
X85634146Y-35028719D01*
X85634500Y-35038085D01*
X85634500Y-35538846D01*
X85634500Y-35721154D01*
X85634500Y-35721156D01*
X85634499Y-35721156D01*
X85670065Y-35899952D01*
X85670068Y-35899962D01*
X85739831Y-36068387D01*
X85739833Y-36068391D01*
X85841113Y-36219967D01*
X85841115Y-36219970D01*
X85841116Y-36219971D01*
X85841117Y-36219972D01*
X86001117Y-36379972D01*
X88731117Y-39109972D01*
X88856609Y-39235464D01*
X88860029Y-39238884D01*
X88860032Y-39238886D01*
X89011600Y-39340160D01*
X89011602Y-39340161D01*
X89011611Y-39340167D01*
X89057737Y-39359272D01*
X89093821Y-39382194D01*
X89203438Y-39482124D01*
X89203440Y-39482125D01*
X89203441Y-39482126D01*
X89392595Y-39599245D01*
X89392596Y-39599245D01*
X89392599Y-39599247D01*
X89600060Y-39679618D01*
X89818757Y-39720500D01*
X89818759Y-39720500D01*
X90041241Y-39720500D01*
X90041243Y-39720500D01*
X90259940Y-39679618D01*
X90467401Y-39599247D01*
X90656562Y-39482124D01*
X90820981Y-39332236D01*
X90955058Y-39154689D01*
X91054229Y-38955528D01*
X91115115Y-38741536D01*
X91135643Y-38520000D01*
X91132148Y-38482287D01*
X91115115Y-38298464D01*
X91115114Y-38298462D01*
X91112564Y-38289500D01*
X91054229Y-38084472D01*
X91054224Y-38084461D01*
X90955061Y-37885316D01*
X90955056Y-37885308D01*
X90820979Y-37707761D01*
X90656562Y-37557876D01*
X90656560Y-37557874D01*
X90467404Y-37440754D01*
X90467398Y-37440752D01*
X90259940Y-37360382D01*
X90041243Y-37319500D01*
X89818757Y-37319500D01*
X89787997Y-37325250D01*
X89663613Y-37348501D01*
X89594098Y-37341470D01*
X89553148Y-37314293D01*
X87521819Y-35282964D01*
X87488334Y-35221641D01*
X87485500Y-35195283D01*
X87485500Y-35038085D01*
X87505185Y-34971046D01*
X87510539Y-34963367D01*
X87585058Y-34864689D01*
X87684229Y-34665528D01*
X87745115Y-34451536D01*
X87765643Y-34230000D01*
X87745115Y-34008464D01*
X87684229Y-33794472D01*
X87684224Y-33794461D01*
X87585061Y-33595316D01*
X87585056Y-33595308D01*
X87450979Y-33417761D01*
X87286562Y-33267876D01*
X87286560Y-33267874D01*
X87097404Y-33150754D01*
X87097398Y-33150752D01*
X86889940Y-33070382D01*
X86671243Y-33029500D01*
X86448757Y-33029500D01*
X86230060Y-33070382D01*
X86136377Y-33106675D01*
X86022601Y-33150752D01*
X86022595Y-33150754D01*
X85833439Y-33267874D01*
X85833437Y-33267876D01*
X85669020Y-33417761D01*
X85534943Y-33595308D01*
X85534938Y-33595316D01*
X85435775Y-33794461D01*
X85435769Y-33794476D01*
X85374885Y-34008462D01*
X85374884Y-34008464D01*
X85354357Y-34229999D01*
X74119870Y-34229999D01*
X74109934Y-34180047D01*
X74109933Y-34180046D01*
X74109933Y-34180042D01*
X74108883Y-34177508D01*
X74040168Y-34011612D01*
X74040166Y-34011608D01*
X73938886Y-33860032D01*
X73938884Y-33860029D01*
X73915390Y-33836535D01*
X73809972Y-33731117D01*
X73471234Y-33392379D01*
X73437749Y-33331056D01*
X73442733Y-33261364D01*
X73459958Y-33229975D01*
X73553066Y-33106681D01*
X73652237Y-32907520D01*
X73713123Y-32693528D01*
X73718979Y-32630324D01*
X73744764Y-32565387D01*
X73754752Y-32554101D01*
X74027037Y-32281816D01*
X74088359Y-32248334D01*
X74114717Y-32245500D01*
X92425987Y-32245500D01*
X92493026Y-32265185D01*
X92538781Y-32317989D01*
X92548725Y-32387147D01*
X92519700Y-32450703D01*
X92470782Y-32485125D01*
X92376193Y-32521769D01*
X92340101Y-32535752D01*
X92340095Y-32535754D01*
X92150939Y-32652874D01*
X92150937Y-32652876D01*
X91986520Y-32802761D01*
X91852443Y-32980308D01*
X91852438Y-32980316D01*
X91753275Y-33179461D01*
X91753269Y-33179476D01*
X91692385Y-33393462D01*
X91692384Y-33393464D01*
X91671857Y-33614999D01*
X91671857Y-33615000D01*
X91692384Y-33836535D01*
X91692385Y-33836537D01*
X91753269Y-34050523D01*
X91753275Y-34050538D01*
X91852438Y-34249683D01*
X91852443Y-34249691D01*
X91986520Y-34427238D01*
X92150937Y-34577123D01*
X92150939Y-34577125D01*
X92340095Y-34694245D01*
X92340096Y-34694245D01*
X92340099Y-34694247D01*
X92547560Y-34774618D01*
X92766257Y-34815500D01*
X92766259Y-34815500D01*
X92988741Y-34815500D01*
X92988743Y-34815500D01*
X93207440Y-34774618D01*
X93414901Y-34694247D01*
X93604062Y-34577124D01*
X93743782Y-34449751D01*
X93768479Y-34427238D01*
X93773568Y-34420500D01*
X93902558Y-34249689D01*
X94001729Y-34050528D01*
X94062615Y-33836536D01*
X94083143Y-33615000D01*
X94081669Y-33599098D01*
X94062615Y-33393464D01*
X94062614Y-33393462D01*
X94052229Y-33356964D01*
X94001729Y-33179472D01*
X93990599Y-33157120D01*
X93902561Y-32980316D01*
X93902556Y-32980308D01*
X93768479Y-32802761D01*
X93604062Y-32652876D01*
X93604060Y-32652874D01*
X93414904Y-32535754D01*
X93414898Y-32535752D01*
X93284217Y-32485125D01*
X93228818Y-32442554D01*
X93205227Y-32376787D01*
X93220938Y-32308707D01*
X93270962Y-32259928D01*
X93329013Y-32245500D01*
X94671001Y-32245500D01*
X94738040Y-32265185D01*
X94783795Y-32317989D01*
X94794472Y-32358059D01*
X94799889Y-32416530D01*
X94799890Y-32416532D01*
X94860774Y-32630518D01*
X94860780Y-32630533D01*
X94959943Y-32829678D01*
X94959948Y-32829686D01*
X95094025Y-33007233D01*
X95258442Y-33157118D01*
X95258444Y-33157120D01*
X95447600Y-33274240D01*
X95447601Y-33274240D01*
X95447604Y-33274242D01*
X95655065Y-33354613D01*
X95873762Y-33395495D01*
X95873764Y-33395495D01*
X96096246Y-33395495D01*
X96096248Y-33395495D01*
X96314945Y-33354613D01*
X96522406Y-33274242D01*
X96711567Y-33157119D01*
X96875986Y-33007231D01*
X97010063Y-32829684D01*
X97109234Y-32630523D01*
X97170120Y-32416531D01*
X97190648Y-32194995D01*
X97188189Y-32168463D01*
X97170120Y-31973459D01*
X97170119Y-31973457D01*
X97164718Y-31954476D01*
X97109234Y-31759467D01*
X97109229Y-31759456D01*
X97010066Y-31560311D01*
X97010061Y-31560303D01*
X96875984Y-31382756D01*
X96711567Y-31232871D01*
X96711565Y-31232869D01*
X96522409Y-31115749D01*
X96522403Y-31115747D01*
X96314945Y-31035377D01*
X96130438Y-31000886D01*
X96068159Y-30969219D01*
X96065544Y-30966679D01*
X95981362Y-30882497D01*
X95947877Y-30821174D01*
X95949777Y-30760882D01*
X95966114Y-30703464D01*
X95995115Y-30601536D01*
X96015643Y-30380000D01*
X95995115Y-30158464D01*
X95934229Y-29944472D01*
X95885073Y-29845754D01*
X95835061Y-29745316D01*
X95835056Y-29745308D01*
X95700979Y-29567761D01*
X95536562Y-29417876D01*
X95536560Y-29417874D01*
X95347404Y-29300754D01*
X95347398Y-29300752D01*
X95343028Y-29299059D01*
X95139940Y-29220382D01*
X94921243Y-29179500D01*
X94698757Y-29179500D01*
X94480060Y-29220382D01*
X94394666Y-29253464D01*
X94272601Y-29300752D01*
X94272595Y-29300754D01*
X94086586Y-29415927D01*
X94021309Y-29434500D01*
X92731569Y-29434500D01*
X92664530Y-29414815D01*
X92618775Y-29362011D01*
X92608831Y-29292853D01*
X92612303Y-29276566D01*
X92620949Y-29246177D01*
X92625115Y-29231536D01*
X92645643Y-29010000D01*
X92625115Y-28788464D01*
X92564229Y-28574472D01*
X92521184Y-28488026D01*
X92465061Y-28375316D01*
X92465056Y-28375308D01*
X92330979Y-28197761D01*
X92166562Y-28047876D01*
X92166560Y-28047874D01*
X91977404Y-27930754D01*
X91977398Y-27930752D01*
X91769940Y-27850382D01*
X91551243Y-27809500D01*
X91328757Y-27809500D01*
X91110060Y-27850382D01*
X90978864Y-27901207D01*
X90902601Y-27930752D01*
X90902595Y-27930754D01*
X90713439Y-28047874D01*
X90713437Y-28047876D01*
X90549020Y-28197761D01*
X90414943Y-28375308D01*
X90414938Y-28375316D01*
X90315775Y-28574461D01*
X90315770Y-28574474D01*
X90264567Y-28754435D01*
X90227288Y-28813528D01*
X90163978Y-28843085D01*
X90145301Y-28844500D01*
X82187828Y-28844500D01*
X82009031Y-28880065D01*
X82009021Y-28880068D01*
X81840596Y-28949831D01*
X81840592Y-28949833D01*
X81683946Y-29054501D01*
X81682458Y-29052275D01*
X81628671Y-29074980D01*
X81559830Y-29063038D01*
X81508373Y-29015773D01*
X81491115Y-28963226D01*
X81485115Y-28898464D01*
X81424229Y-28684472D01*
X81413420Y-28662764D01*
X81325061Y-28485316D01*
X81325056Y-28485308D01*
X81190979Y-28307761D01*
X81026562Y-28157876D01*
X81026560Y-28157874D01*
X80837404Y-28040754D01*
X80837398Y-28040752D01*
X80629940Y-27960382D01*
X80411243Y-27919500D01*
X80188757Y-27919500D01*
X79970060Y-27960382D01*
X79838864Y-28011207D01*
X79762601Y-28040752D01*
X79762595Y-28040754D01*
X79573439Y-28157874D01*
X79573437Y-28157876D01*
X79409020Y-28307761D01*
X79274943Y-28485308D01*
X79274938Y-28485316D01*
X79175775Y-28684461D01*
X79175769Y-28684476D01*
X79114885Y-28898462D01*
X79114884Y-28898464D01*
X79094357Y-29119999D01*
X79094357Y-29120000D01*
X79110949Y-29299059D01*
X79097534Y-29367629D01*
X79049177Y-29418060D01*
X78987478Y-29434500D01*
X78302808Y-29434500D01*
X78235769Y-29414815D01*
X78190014Y-29362011D01*
X78179337Y-29321941D01*
X78165115Y-29168464D01*
X78165114Y-29168462D01*
X78151325Y-29120000D01*
X78104229Y-28954472D01*
X78104224Y-28954461D01*
X78005061Y-28755316D01*
X78005056Y-28755308D01*
X77870979Y-28577761D01*
X77706562Y-28427876D01*
X77706560Y-28427874D01*
X77517404Y-28310754D01*
X77517398Y-28310752D01*
X77309940Y-28230382D01*
X77091243Y-28189500D01*
X76868757Y-28189500D01*
X76650060Y-28230382D01*
X76536179Y-28274500D01*
X76442601Y-28310752D01*
X76442595Y-28310754D01*
X76253439Y-28427874D01*
X76253437Y-28427876D01*
X76089020Y-28577761D01*
X75954943Y-28755308D01*
X75954938Y-28755316D01*
X75855775Y-28954461D01*
X75855769Y-28954476D01*
X75794885Y-29168462D01*
X75794884Y-29168464D01*
X75780663Y-29321941D01*
X75754877Y-29386879D01*
X75698076Y-29427566D01*
X75657192Y-29434500D01*
X70659717Y-29434500D01*
X70592678Y-29414815D01*
X70572036Y-29398181D01*
X70566761Y-29392906D01*
X70533276Y-29331583D01*
X70530971Y-29316665D01*
X70529497Y-29300754D01*
X70525115Y-29253464D01*
X70464229Y-29039472D01*
X70464224Y-29039461D01*
X70365061Y-28840316D01*
X70365056Y-28840308D01*
X70230979Y-28662761D01*
X70066562Y-28512876D01*
X70066560Y-28512874D01*
X69877404Y-28395754D01*
X69877398Y-28395752D01*
X69849644Y-28385000D01*
X69669940Y-28315382D01*
X69451243Y-28274500D01*
X69228757Y-28274500D01*
X69010060Y-28315382D01*
X68878864Y-28366207D01*
X68802601Y-28395752D01*
X68802595Y-28395755D01*
X68683538Y-28469471D01*
X68616177Y-28488026D01*
X68549478Y-28467218D01*
X68530580Y-28451725D01*
X67841744Y-27762888D01*
X67841743Y-27762887D01*
X67826996Y-27753034D01*
X67796903Y-27732926D01*
X67766841Y-27704551D01*
X67740396Y-27669532D01*
X67740396Y-27669531D01*
X67575978Y-27519645D01*
X67575976Y-27519643D01*
X67386820Y-27402523D01*
X67386814Y-27402521D01*
X67179356Y-27322151D01*
X66960659Y-27281269D01*
X66738173Y-27281269D01*
X66519476Y-27322151D01*
X66388280Y-27372976D01*
X66312017Y-27402521D01*
X66312011Y-27402524D01*
X66221699Y-27458442D01*
X66154338Y-27476997D01*
X66132231Y-27474632D01*
X66056158Y-27459500D01*
X66056154Y-27459500D01*
X64989775Y-27459500D01*
X64922736Y-27439815D01*
X64906239Y-27427139D01*
X64901564Y-27422877D01*
X64712404Y-27305754D01*
X64712398Y-27305751D01*
X64617776Y-27269095D01*
X64562374Y-27226522D01*
X64538784Y-27160755D01*
X64554495Y-27092675D01*
X64604519Y-27043896D01*
X64617767Y-27037845D01*
X64717401Y-26999247D01*
X64906562Y-26882124D01*
X65070981Y-26732236D01*
X65205058Y-26554689D01*
X65304229Y-26355528D01*
X65365115Y-26141536D01*
X65385643Y-25920000D01*
X65365115Y-25698464D01*
X65304229Y-25484472D01*
X65304224Y-25484461D01*
X65205061Y-25285316D01*
X65205056Y-25285308D01*
X65070979Y-25107761D01*
X64906562Y-24957876D01*
X64906560Y-24957874D01*
X64717404Y-24840754D01*
X64717398Y-24840752D01*
X64509940Y-24760382D01*
X64291243Y-24719500D01*
X64068757Y-24719500D01*
X63850060Y-24760382D01*
X63718864Y-24811207D01*
X63642601Y-24840752D01*
X63642595Y-24840754D01*
X63453439Y-24957874D01*
X63453437Y-24957876D01*
X63289020Y-25107761D01*
X63154943Y-25285308D01*
X63154938Y-25285316D01*
X63055775Y-25484461D01*
X63055769Y-25484476D01*
X62994885Y-25698462D01*
X62994884Y-25698464D01*
X62974357Y-25919999D01*
X62974357Y-25920000D01*
X62994884Y-26141535D01*
X62994885Y-26141537D01*
X63055769Y-26355523D01*
X63055775Y-26355538D01*
X63154938Y-26554683D01*
X63154943Y-26554691D01*
X63289020Y-26732238D01*
X63453437Y-26882123D01*
X63453439Y-26882125D01*
X63642595Y-26999245D01*
X63642597Y-26999246D01*
X63642599Y-26999247D01*
X63737222Y-27035904D01*
X63792624Y-27078477D01*
X63816215Y-27144243D01*
X63800504Y-27212324D01*
X63750480Y-27261103D01*
X63737223Y-27267157D01*
X63637610Y-27305747D01*
X63637595Y-27305754D01*
X63448439Y-27422874D01*
X63448437Y-27422876D01*
X63284020Y-27572761D01*
X63149943Y-27750308D01*
X63149938Y-27750316D01*
X63050775Y-27949461D01*
X63050769Y-27949476D01*
X62989885Y-28163462D01*
X62989884Y-28163464D01*
X62969357Y-28384999D01*
X62969357Y-28385000D01*
X62989884Y-28606535D01*
X62989885Y-28606537D01*
X63050769Y-28820523D01*
X63050775Y-28820538D01*
X63149938Y-29019683D01*
X63149943Y-29019691D01*
X63284020Y-29197238D01*
X63307742Y-29218863D01*
X63344024Y-29278574D01*
X63342263Y-29348422D01*
X63303019Y-29406229D01*
X63238753Y-29433644D01*
X63224204Y-29434500D01*
X59288841Y-29434500D01*
X59110049Y-29470063D01*
X59110049Y-29470064D01*
X59110046Y-29470065D01*
X59110042Y-29470066D01*
X58990943Y-29519398D01*
X58990941Y-29519399D01*
X58990940Y-29519398D01*
X58941611Y-29539833D01*
X58790025Y-29641118D01*
X58790024Y-29641119D01*
X58734460Y-29696684D01*
X58673137Y-29730169D01*
X58669573Y-29730890D01*
X58485060Y-29765382D01*
X58353864Y-29816207D01*
X58277601Y-29845752D01*
X58277595Y-29845754D01*
X58088439Y-29962874D01*
X58088437Y-29962876D01*
X57924020Y-30112761D01*
X57789943Y-30290308D01*
X57789938Y-30290316D01*
X57690775Y-30489461D01*
X57690769Y-30489476D01*
X57629885Y-30703462D01*
X57629884Y-30703464D01*
X57609357Y-30924999D01*
X57609357Y-30925000D01*
X57629884Y-31146535D01*
X57629885Y-31146537D01*
X57690769Y-31360523D01*
X57690775Y-31360538D01*
X57789938Y-31559683D01*
X57789943Y-31559691D01*
X57924020Y-31737238D01*
X58088437Y-31887123D01*
X58088439Y-31887125D01*
X58277595Y-32004245D01*
X58277596Y-32004245D01*
X58277599Y-32004247D01*
X58485060Y-32084618D01*
X58703757Y-32125500D01*
X58703759Y-32125500D01*
X58926241Y-32125500D01*
X58926243Y-32125500D01*
X59144940Y-32084618D01*
X59194372Y-32065467D01*
X59263991Y-32059605D01*
X59325732Y-32092314D01*
X59350164Y-32125822D01*
X59424906Y-32275925D01*
X59424911Y-32275933D01*
X59558988Y-32453480D01*
X59723405Y-32603365D01*
X59723407Y-32603367D01*
X59912563Y-32720487D01*
X59912564Y-32720487D01*
X59912567Y-32720489D01*
X60120028Y-32800860D01*
X60338725Y-32841742D01*
X60525918Y-32841742D01*
X60550110Y-32844125D01*
X60657569Y-32865501D01*
X60657572Y-32865501D01*
X60845994Y-32865501D01*
X60846014Y-32865500D01*
X67151679Y-32865500D01*
X67218718Y-32885185D01*
X67239360Y-32901819D01*
X67694505Y-33356964D01*
X67779076Y-33441535D01*
X67823417Y-33485876D01*
X67823420Y-33485878D01*
X67963129Y-33579228D01*
X67974999Y-33587159D01*
X67975005Y-33587161D01*
X67975006Y-33587162D01*
X67983771Y-33590793D01*
X68019860Y-33613718D01*
X68146445Y-33729115D01*
X68146447Y-33729117D01*
X68335603Y-33846237D01*
X68335604Y-33846237D01*
X68335607Y-33846239D01*
X68543068Y-33926610D01*
X68761765Y-33967492D01*
X68761767Y-33967492D01*
X68984249Y-33967492D01*
X68984251Y-33967492D01*
X69202948Y-33926610D01*
X69410409Y-33846239D01*
X69599570Y-33729116D01*
X69763989Y-33579228D01*
X69898066Y-33401681D01*
X69997237Y-33202520D01*
X70058123Y-32988528D01*
X70066956Y-32893202D01*
X70092742Y-32828266D01*
X70149542Y-32787578D01*
X70219323Y-32784058D01*
X70278108Y-32816963D01*
X71861545Y-34400400D01*
X71895030Y-34461723D01*
X71890046Y-34531415D01*
X71848174Y-34587348D01*
X71818659Y-34603707D01*
X71751410Y-34629760D01*
X71750452Y-34627289D01*
X71692647Y-34637486D01*
X71637492Y-34617351D01*
X71617072Y-34603707D01*
X71548429Y-34557841D01*
X71548428Y-34557840D01*
X71548426Y-34557839D01*
X71380002Y-34488076D01*
X71379992Y-34488073D01*
X71201196Y-34452508D01*
X71201194Y-34452508D01*
X65616767Y-34452508D01*
X65549728Y-34432823D01*
X65533231Y-34420147D01*
X65528556Y-34415885D01*
X65339396Y-34298762D01*
X65339390Y-34298760D01*
X65131932Y-34218390D01*
X64913235Y-34177508D01*
X64690749Y-34177508D01*
X64472052Y-34218390D01*
X64391255Y-34249691D01*
X64264593Y-34298760D01*
X64264587Y-34298762D01*
X64075431Y-34415882D01*
X64075429Y-34415884D01*
X63911012Y-34565769D01*
X63776935Y-34743316D01*
X63776930Y-34743324D01*
X63677767Y-34942469D01*
X63677761Y-34942484D01*
X63616877Y-35156470D01*
X63616876Y-35156472D01*
X63596349Y-35378007D01*
X63596349Y-35378008D01*
X63616876Y-35599543D01*
X63616877Y-35599545D01*
X63677761Y-35813531D01*
X63677767Y-35813546D01*
X63776930Y-36012691D01*
X63776935Y-36012699D01*
X63911012Y-36190246D01*
X64075429Y-36340131D01*
X64075431Y-36340133D01*
X64264587Y-36457253D01*
X64264588Y-36457253D01*
X64264591Y-36457255D01*
X64472052Y-36537626D01*
X64690749Y-36578508D01*
X64690751Y-36578508D01*
X64913233Y-36578508D01*
X64913235Y-36578508D01*
X65131932Y-36537626D01*
X65339393Y-36457255D01*
X65528554Y-36340132D01*
X65529609Y-36339170D01*
X65533231Y-36335869D01*
X65596036Y-36305253D01*
X65616767Y-36303508D01*
X69020136Y-36303508D01*
X69087175Y-36323193D01*
X69132930Y-36375997D01*
X69142874Y-36445155D01*
X69141753Y-36451699D01*
X69113399Y-36594243D01*
X69113399Y-37132067D01*
X69093714Y-37199106D01*
X69040910Y-37244861D01*
X68971752Y-37254805D01*
X68941947Y-37246629D01*
X68904327Y-37231046D01*
X68812145Y-37192864D01*
X68812140Y-37192863D01*
X68812139Y-37192862D01*
X68633343Y-37157297D01*
X68633341Y-37157297D01*
X61957514Y-37157297D01*
X61890475Y-37137612D01*
X61869833Y-37120978D01*
X57056761Y-32307906D01*
X57023276Y-32246583D01*
X57020971Y-32231665D01*
X57017573Y-32194994D01*
X57015115Y-32168464D01*
X56954229Y-31954472D01*
X56920694Y-31887125D01*
X56855061Y-31755316D01*
X56855056Y-31755308D01*
X56720979Y-31577761D01*
X56556562Y-31427876D01*
X56556560Y-31427874D01*
X56367404Y-31310754D01*
X56367398Y-31310752D01*
X56159940Y-31230382D01*
X55941243Y-31189500D01*
X55718757Y-31189500D01*
X55500060Y-31230382D01*
X55368864Y-31281207D01*
X55292601Y-31310752D01*
X55292595Y-31310754D01*
X55103439Y-31427874D01*
X55103437Y-31427876D01*
X54939020Y-31577761D01*
X54804943Y-31755308D01*
X54804938Y-31755316D01*
X54705775Y-31954461D01*
X54705769Y-31954476D01*
X54644885Y-32168462D01*
X54644884Y-32168464D01*
X54624357Y-32389999D01*
X45981495Y-32389999D01*
X45836562Y-32257876D01*
X45836560Y-32257874D01*
X45647404Y-32140754D01*
X45647398Y-32140752D01*
X45439940Y-32060382D01*
X45221243Y-32019500D01*
X44998757Y-32019500D01*
X44780060Y-32060382D01*
X44648864Y-32111207D01*
X44572601Y-32140752D01*
X44572595Y-32140754D01*
X44383439Y-32257874D01*
X44383437Y-32257876D01*
X44219020Y-32407761D01*
X44084943Y-32585308D01*
X44084938Y-32585316D01*
X43985775Y-32784461D01*
X43985769Y-32784476D01*
X43924885Y-32998462D01*
X43924884Y-32998464D01*
X43904357Y-33219999D01*
X36262854Y-33219999D01*
X36260300Y-33194066D01*
X36200232Y-32996046D01*
X36102685Y-32813550D01*
X36050702Y-32750209D01*
X35971410Y-32653589D01*
X35850160Y-32554083D01*
X35811450Y-32522315D01*
X35628954Y-32424768D01*
X35430934Y-32364700D01*
X35430932Y-32364699D01*
X35430934Y-32364699D01*
X35311805Y-32352966D01*
X35276608Y-32349500D01*
X33723392Y-32349500D01*
X33685298Y-32353251D01*
X33569067Y-32364699D01*
X33371043Y-32424769D01*
X33260898Y-32483643D01*
X33188550Y-32522315D01*
X33188548Y-32522316D01*
X33188547Y-32522317D01*
X33028589Y-32653589D01*
X32897317Y-32813547D01*
X32897315Y-32813550D01*
X32888691Y-32829684D01*
X32799769Y-32996043D01*
X32739699Y-33194067D01*
X32728251Y-33310298D01*
X32724500Y-33348392D01*
X25016675Y-33348392D01*
X25010062Y-20124061D01*
X25029713Y-20057013D01*
X25082494Y-20011231D01*
X25134062Y-20000000D01*
X124876000Y-20000000D01*
X124943039Y-20019685D01*
G37*
%TD.AperFunction*%
%TD*%
%TA.AperFunction,Conductor*%
%TO.N,Net-(D1-A1)*%
G36*
X67809473Y-95700399D02*
G01*
X67855848Y-95752660D01*
X67867648Y-95807780D01*
X67787055Y-100186602D01*
X67766140Y-100253268D01*
X67712503Y-100298043D01*
X67663717Y-100308318D01*
X58849192Y-100353873D01*
X58849181Y-100353873D01*
X58680096Y-100372716D01*
X58680077Y-100372719D01*
X58629221Y-100383921D01*
X58591376Y-100393222D01*
X58591375Y-100393222D01*
X58591365Y-100393226D01*
X58423684Y-100459695D01*
X58423683Y-100459696D01*
X58274998Y-100561809D01*
X58274995Y-100561812D01*
X58222213Y-100607546D01*
X58222190Y-100607568D01*
X58190890Y-100638235D01*
X58129228Y-100671091D01*
X58105439Y-100673655D01*
X57385942Y-100681363D01*
X57375350Y-95803802D01*
X67742207Y-95681507D01*
X67809473Y-95700399D01*
G37*
%TD.AperFunction*%
%TD*%
%TA.AperFunction,Conductor*%
%TO.N,Net-(D5-A1)*%
G36*
X117862465Y-81199976D02*
G01*
X117908487Y-81252547D01*
X117919956Y-81304675D01*
X117919186Y-83490308D01*
X117899478Y-83557340D01*
X117882868Y-83577945D01*
X117819951Y-83640862D01*
X117689432Y-83827265D01*
X117689431Y-83827267D01*
X117593261Y-84033502D01*
X117593258Y-84033511D01*
X117534366Y-84253302D01*
X117534364Y-84253313D01*
X117514532Y-84479998D01*
X117514532Y-84480001D01*
X117534364Y-84706686D01*
X117534366Y-84706697D01*
X117593258Y-84926488D01*
X117593261Y-84926497D01*
X117689431Y-85132732D01*
X117689432Y-85132734D01*
X117819954Y-85319141D01*
X117882170Y-85381357D01*
X117915655Y-85442680D01*
X117918489Y-85469082D01*
X117917538Y-88171956D01*
X117897830Y-88238988D01*
X117881220Y-88259593D01*
X117819951Y-88320862D01*
X117689432Y-88507265D01*
X117689431Y-88507267D01*
X117593261Y-88713502D01*
X117593258Y-88713511D01*
X117534366Y-88933302D01*
X117534364Y-88933313D01*
X117514532Y-89159998D01*
X117514532Y-89160001D01*
X117534364Y-89386686D01*
X117534366Y-89386697D01*
X117593258Y-89606488D01*
X117593261Y-89606497D01*
X117689431Y-89812732D01*
X117689432Y-89812734D01*
X117819954Y-89999141D01*
X117880523Y-90059710D01*
X117914008Y-90121033D01*
X117916842Y-90147435D01*
X117915493Y-93984001D01*
X117895785Y-94051033D01*
X117879175Y-94071638D01*
X117819951Y-94130862D01*
X117689432Y-94317265D01*
X117689431Y-94317267D01*
X117593261Y-94523502D01*
X117593258Y-94523511D01*
X117534366Y-94743302D01*
X117534364Y-94743313D01*
X117514532Y-94969998D01*
X117514532Y-94970001D01*
X117534364Y-95196686D01*
X117534366Y-95196697D01*
X117593258Y-95416488D01*
X117593261Y-95416497D01*
X117689431Y-95622732D01*
X117689432Y-95622734D01*
X117819954Y-95809141D01*
X117878479Y-95867666D01*
X117911964Y-95928989D01*
X117914798Y-95955391D01*
X117913669Y-99165825D01*
X117893961Y-99232857D01*
X117877351Y-99253462D01*
X117819951Y-99310862D01*
X117689432Y-99497265D01*
X117689431Y-99497267D01*
X117593261Y-99703502D01*
X117593258Y-99703511D01*
X117534366Y-99923302D01*
X117534364Y-99923313D01*
X117514532Y-100149998D01*
X117514532Y-100150001D01*
X117534364Y-100376686D01*
X117534366Y-100376697D01*
X117593258Y-100596488D01*
X117593261Y-100596497D01*
X117689431Y-100802732D01*
X117689432Y-100802734D01*
X117819954Y-100989141D01*
X117876656Y-101045843D01*
X117910141Y-101107166D01*
X117912975Y-101133568D01*
X117911176Y-106248318D01*
X117891468Y-106315350D01*
X117874858Y-106335954D01*
X117819954Y-106390858D01*
X117689432Y-106577265D01*
X117689431Y-106577267D01*
X117593261Y-106783502D01*
X117593258Y-106783511D01*
X117534366Y-107003302D01*
X117534364Y-107003313D01*
X117514532Y-107229998D01*
X117514532Y-107230001D01*
X117534364Y-107456686D01*
X117534366Y-107456697D01*
X117593258Y-107676488D01*
X117593261Y-107676497D01*
X117689431Y-107882732D01*
X117689432Y-107882734D01*
X117819954Y-108069141D01*
X117874165Y-108123352D01*
X117907650Y-108184675D01*
X117910484Y-108211077D01*
X117910043Y-109467524D01*
X117890335Y-109534556D01*
X117837515Y-109580292D01*
X117787533Y-109591471D01*
X90575095Y-109918496D01*
X90507824Y-109899618D01*
X90461438Y-109847368D01*
X90449606Y-109794895D01*
X90448966Y-109591471D01*
X90424903Y-101944888D01*
X90444376Y-101877789D01*
X90497036Y-101831868D01*
X90548902Y-101820500D01*
X91776704Y-101820500D01*
X91776707Y-101820500D01*
X92148322Y-101783899D01*
X92514560Y-101711049D01*
X92871894Y-101602653D01*
X93216883Y-101459754D01*
X93546204Y-101283729D01*
X93856685Y-101076271D01*
X94145338Y-100839381D01*
X94409381Y-100575338D01*
X94646271Y-100286685D01*
X94853729Y-99976204D01*
X95029754Y-99646883D01*
X95172653Y-99301894D01*
X95281049Y-98944560D01*
X95353899Y-98578322D01*
X95390500Y-98206707D01*
X95390500Y-97833293D01*
X95353899Y-97461678D01*
X95281049Y-97095440D01*
X95172653Y-96738106D01*
X95029754Y-96393117D01*
X94853729Y-96063796D01*
X94646271Y-95753315D01*
X94646267Y-95753309D01*
X94409376Y-95464656D01*
X94145343Y-95200623D01*
X93856690Y-94963732D01*
X93546210Y-94756275D01*
X93546209Y-94756274D01*
X93546204Y-94756271D01*
X93546199Y-94756268D01*
X93546192Y-94756264D01*
X93216890Y-94580250D01*
X93216883Y-94580246D01*
X93216876Y-94580243D01*
X92871895Y-94437347D01*
X92662119Y-94373712D01*
X92514560Y-94328951D01*
X92514557Y-94328950D01*
X92514556Y-94328950D01*
X92148324Y-94256101D01*
X92148311Y-94256099D01*
X91867293Y-94228422D01*
X91776707Y-94219500D01*
X90524203Y-94219500D01*
X90457164Y-94199815D01*
X90411409Y-94147011D01*
X90400204Y-94095890D01*
X90381562Y-88171956D01*
X90360389Y-81443757D01*
X90379862Y-81376658D01*
X90432522Y-81330737D01*
X90483756Y-81319371D01*
X117795327Y-81180633D01*
X117862465Y-81199976D01*
G37*
%TD.AperFunction*%
%TD*%
%TA.AperFunction,Conductor*%
%TO.N,Net-(Q2-D)*%
G36*
X70311015Y-81100013D02*
G01*
X89432664Y-81356283D01*
X89499430Y-81376863D01*
X89544474Y-81430276D01*
X89554998Y-81479881D01*
X89576066Y-88174491D01*
X89594707Y-94098420D01*
X89607103Y-94211209D01*
X89613383Y-94268350D01*
X89615551Y-94278241D01*
X89623875Y-94316218D01*
X89626747Y-94343561D01*
X89490794Y-115546154D01*
X89470680Y-115613066D01*
X89417584Y-115658481D01*
X89366154Y-115669357D01*
X70210052Y-115569999D01*
X70210052Y-115570000D01*
X70210000Y-115569999D01*
X70263756Y-97039999D01*
X70584357Y-97039999D01*
X70584357Y-97040000D01*
X70604884Y-97261535D01*
X70604885Y-97261537D01*
X70665769Y-97475523D01*
X70665775Y-97475538D01*
X70764938Y-97674683D01*
X70764943Y-97674691D01*
X70899020Y-97852238D01*
X71063437Y-98002123D01*
X71063439Y-98002125D01*
X71252595Y-98119245D01*
X71252596Y-98119245D01*
X71252599Y-98119247D01*
X71460060Y-98199618D01*
X71678757Y-98240500D01*
X71678759Y-98240500D01*
X71901241Y-98240500D01*
X71901243Y-98240500D01*
X72119940Y-98199618D01*
X72327401Y-98119247D01*
X72516562Y-98002124D01*
X72610218Y-97916744D01*
X72673021Y-97886129D01*
X72742408Y-97894326D01*
X72796348Y-97938736D01*
X72811878Y-97976433D01*
X72813316Y-97976024D01*
X72875769Y-98195525D01*
X72875775Y-98195540D01*
X72974938Y-98394685D01*
X72974943Y-98394693D01*
X73088657Y-98545274D01*
X73113349Y-98610635D01*
X73098784Y-98678970D01*
X73088657Y-98694728D01*
X72974943Y-98845308D01*
X72974938Y-98845316D01*
X72875775Y-99044461D01*
X72875769Y-99044476D01*
X72814885Y-99258462D01*
X72814884Y-99258464D01*
X72794357Y-99479999D01*
X72794357Y-99480000D01*
X72814884Y-99701535D01*
X72814885Y-99701537D01*
X72875769Y-99915523D01*
X72875775Y-99915538D01*
X72974938Y-100114683D01*
X72974943Y-100114691D01*
X73109020Y-100292238D01*
X73273437Y-100442123D01*
X73273439Y-100442125D01*
X73462595Y-100559245D01*
X73462596Y-100559245D01*
X73462599Y-100559247D01*
X73670060Y-100639618D01*
X73888757Y-100680500D01*
X73888759Y-100680500D01*
X74111241Y-100680500D01*
X74111243Y-100680500D01*
X74329940Y-100639618D01*
X74537401Y-100559247D01*
X74726562Y-100442124D01*
X74890981Y-100292236D01*
X75025058Y-100114689D01*
X75124229Y-99915528D01*
X75185115Y-99701536D01*
X75205643Y-99480000D01*
X75197584Y-99393033D01*
X75185115Y-99258464D01*
X75185114Y-99258462D01*
X75124230Y-99044476D01*
X75124229Y-99044472D01*
X75124224Y-99044461D01*
X75025061Y-98845316D01*
X75025056Y-98845308D01*
X74911343Y-98694728D01*
X74886651Y-98629367D01*
X74901216Y-98561032D01*
X74911343Y-98545274D01*
X75025058Y-98394691D01*
X75124229Y-98195530D01*
X75185115Y-97981538D01*
X75205643Y-97760002D01*
X75185115Y-97538466D01*
X75124229Y-97324474D01*
X75092890Y-97261537D01*
X75025061Y-97125318D01*
X75025056Y-97125310D01*
X74890979Y-96947763D01*
X74726562Y-96797878D01*
X74726560Y-96797876D01*
X74537404Y-96680756D01*
X74537398Y-96680754D01*
X74329940Y-96600384D01*
X74111243Y-96559502D01*
X73888757Y-96559502D01*
X73670060Y-96600384D01*
X73538864Y-96651209D01*
X73462601Y-96680754D01*
X73462595Y-96680756D01*
X73273441Y-96797875D01*
X73179782Y-96883256D01*
X73116977Y-96913872D01*
X73047590Y-96905674D01*
X72993650Y-96861264D01*
X72978131Y-96823566D01*
X72976684Y-96823978D01*
X72914230Y-96604476D01*
X72914229Y-96604472D01*
X72914224Y-96604461D01*
X72815061Y-96405316D01*
X72815056Y-96405308D01*
X72680979Y-96227761D01*
X72516562Y-96077876D01*
X72516560Y-96077874D01*
X72327404Y-95960754D01*
X72327398Y-95960752D01*
X72119940Y-95880382D01*
X71901243Y-95839500D01*
X71678757Y-95839500D01*
X71460060Y-95880382D01*
X71328864Y-95931207D01*
X71252601Y-95960752D01*
X71252595Y-95960754D01*
X71063439Y-96077874D01*
X71063437Y-96077876D01*
X70899020Y-96227761D01*
X70764943Y-96405308D01*
X70764938Y-96405316D01*
X70665775Y-96604461D01*
X70665769Y-96604476D01*
X70604885Y-96818462D01*
X70604884Y-96818464D01*
X70584357Y-97039999D01*
X70263756Y-97039999D01*
X70309999Y-81100008D01*
X70311015Y-81100013D01*
G37*
%TD.AperFunction*%
%TD*%
M02*
