%TF.GenerationSoftware,KiCad,Pcbnew,8.0.3*%
%TF.CreationDate,2024-07-08T19:31:20+01:00*%
%TF.ProjectId,PA_Power,50415f50-6f77-4657-922e-6b696361645f,rev?*%
%TF.SameCoordinates,Original*%
%TF.FileFunction,Copper,L3,Inr*%
%TF.FilePolarity,Positive*%
%FSLAX46Y46*%
G04 Gerber Fmt 4.6, Leading zero omitted, Abs format (unit mm)*
G04 Created by KiCad (PCBNEW 8.0.3) date 2024-07-08 19:31:20*
%MOMM*%
%LPD*%
G01*
G04 APERTURE LIST*
G04 Aperture macros list*
%AMRoundRect*
0 Rectangle with rounded corners*
0 $1 Rounding radius*
0 $2 $3 $4 $5 $6 $7 $8 $9 X,Y pos of 4 corners*
0 Add a 4 corners polygon primitive as box body*
4,1,4,$2,$3,$4,$5,$6,$7,$8,$9,$2,$3,0*
0 Add four circle primitives for the rounded corners*
1,1,$1+$1,$2,$3*
1,1,$1+$1,$4,$5*
1,1,$1+$1,$6,$7*
1,1,$1+$1,$8,$9*
0 Add four rect primitives between the rounded corners*
20,1,$1+$1,$2,$3,$4,$5,0*
20,1,$1+$1,$4,$5,$6,$7,0*
20,1,$1+$1,$6,$7,$8,$9,0*
20,1,$1+$1,$8,$9,$2,$3,0*%
%AMHorizOval*
0 Thick line with rounded ends*
0 $1 width*
0 $2 $3 position (X,Y) of the first rounded end (center of the circle)*
0 $4 $5 position (X,Y) of the second rounded end (center of the circle)*
0 Add line between two ends*
20,1,$1,$2,$3,$4,$5,0*
0 Add two circle primitives to create the rounded ends*
1,1,$1,$2,$3*
1,1,$1,$4,$5*%
G04 Aperture macros list end*
%TA.AperFunction,ComponentPad*%
%ADD10C,5.600000*%
%TD*%
%TA.AperFunction,ComponentPad*%
%ADD11O,1.950000X1.700000*%
%TD*%
%TA.AperFunction,ComponentPad*%
%ADD12RoundRect,0.250000X-0.725000X0.600000X-0.725000X-0.600000X0.725000X-0.600000X0.725000X0.600000X0*%
%TD*%
%TA.AperFunction,HeatsinkPad*%
%ADD13C,0.500000*%
%TD*%
%TA.AperFunction,ComponentPad*%
%ADD14O,2.000000X1.700000*%
%TD*%
%TA.AperFunction,ComponentPad*%
%ADD15RoundRect,0.250000X0.750000X-0.600000X0.750000X0.600000X-0.750000X0.600000X-0.750000X-0.600000X0*%
%TD*%
%TA.AperFunction,ComponentPad*%
%ADD16C,1.524000*%
%TD*%
%TA.AperFunction,ComponentPad*%
%ADD17C,2.500000*%
%TD*%
%TA.AperFunction,ComponentPad*%
%ADD18HorizOval,0.800000X0.000000X0.000000X0.000000X0.000000X0*%
%TD*%
%TA.AperFunction,ComponentPad*%
%ADD19HorizOval,0.800000X0.000000X0.000000X0.000000X0.000000X0*%
%TD*%
%TA.AperFunction,ComponentPad*%
%ADD20C,0.800000*%
%TD*%
%TA.AperFunction,ComponentPad*%
%ADD21O,9.000000X6.000000*%
%TD*%
%TA.AperFunction,ComponentPad*%
%ADD22C,1.500000*%
%TD*%
%TA.AperFunction,ComponentPad*%
%ADD23R,1.500000X1.500000*%
%TD*%
%TA.AperFunction,ViaPad*%
%ADD24C,1.000000*%
%TD*%
%TA.AperFunction,ViaPad*%
%ADD25C,0.800000*%
%TD*%
%TA.AperFunction,Conductor*%
%ADD26C,0.500000*%
%TD*%
%TA.AperFunction,Conductor*%
%ADD27C,1.000000*%
%TD*%
%TA.AperFunction,Conductor*%
%ADD28C,0.250000*%
%TD*%
G04 APERTURE END LIST*
D10*
%TO.N,GND*%
%TO.C,H5*%
X119000000Y-70000000D03*
%TD*%
D11*
%TO.N,GND*%
%TO.C,J5*%
X34500000Y-57500000D03*
%TO.N,Net-(D8-A1)*%
X34500000Y-55000000D03*
%TO.N,Net-(D7-A1)*%
X34500000Y-52500000D03*
D12*
%TO.N,Net-(D6-A1)*%
X34500000Y-50000000D03*
%TD*%
D11*
%TO.N,GND*%
%TO.C,J6*%
X34500000Y-41500000D03*
%TO.N,Net-(D8-A1)*%
X34500000Y-39000000D03*
%TO.N,Net-(D7-A1)*%
X34500000Y-36500000D03*
D12*
%TO.N,Net-(D6-A1)*%
X34500000Y-34000000D03*
%TD*%
D13*
%TO.N,GND*%
%TO.C,U3*%
X92620000Y-62390000D03*
X92620000Y-61390000D03*
X92620000Y-60390000D03*
X91320000Y-62390000D03*
X91320000Y-61390000D03*
X91320000Y-60390000D03*
%TD*%
D14*
%TO.N,GND*%
%TO.C,J7*%
X115300000Y-57790000D03*
D15*
%TO.N,Net-(D9-A1)*%
X115300000Y-60290000D03*
%TD*%
D16*
%TO.N,Net-(D5-A1)*%
%TO.C,J4*%
X116121400Y-89560000D03*
X116121400Y-84060000D03*
X116000000Y-107033800D03*
X116000000Y-101533800D03*
X116000000Y-96033800D03*
D17*
X114701400Y-92560000D03*
X114701400Y-86560000D03*
X114580000Y-104533800D03*
X114580000Y-98533800D03*
D16*
X113871400Y-89560000D03*
X113871400Y-84060000D03*
X113750000Y-107033800D03*
X113750000Y-101533800D03*
X113750000Y-96033800D03*
X111621400Y-89560000D03*
X111621400Y-84060000D03*
X111500000Y-107033800D03*
X111500000Y-101533800D03*
X111500000Y-96033800D03*
D17*
X109621400Y-92560000D03*
X109621400Y-86560000D03*
X109500000Y-104533800D03*
X109500000Y-98533800D03*
D16*
X109371400Y-89560000D03*
X109371400Y-84060000D03*
X109250000Y-107033800D03*
X109250000Y-101533800D03*
X109250000Y-96033800D03*
X107121400Y-89560000D03*
X107121400Y-84060000D03*
X107000000Y-107033800D03*
X107000000Y-101533800D03*
X107000000Y-96033800D03*
%TD*%
D10*
%TO.N,GND*%
%TO.C,H2*%
X31000000Y-70000000D03*
%TD*%
D16*
%TO.N,Net-(D1-A1)*%
%TO.C,J1*%
X44500000Y-87630000D03*
X44500000Y-82130000D03*
X44500000Y-76630000D03*
X44378600Y-99603800D03*
X44378600Y-94103800D03*
X42250000Y-87630000D03*
X42250000Y-82130000D03*
X42250000Y-76630000D03*
X42128600Y-99603800D03*
X42128600Y-94103800D03*
D17*
X42000000Y-85130000D03*
X42000000Y-79130000D03*
X41878600Y-97103800D03*
X41878600Y-91103800D03*
D16*
X40000000Y-87630000D03*
X40000000Y-82130000D03*
X40000000Y-76630000D03*
X39878600Y-99603800D03*
X39878600Y-94103800D03*
X37750000Y-87630000D03*
X37750000Y-82130000D03*
X37750000Y-76630000D03*
X37628600Y-99603800D03*
X37628600Y-94103800D03*
D17*
X36920000Y-85130000D03*
X36920000Y-79130000D03*
X36798600Y-97103800D03*
X36798600Y-91103800D03*
D16*
X35500000Y-87630000D03*
X35500000Y-82130000D03*
X35500000Y-76630000D03*
X35378600Y-99603800D03*
X35378600Y-94103800D03*
%TD*%
D18*
%TO.N,Net-(D5-A1)*%
%TO.C,U4*%
X96140000Y-97390000D03*
D19*
X96140000Y-98650000D03*
D20*
X96890000Y-96360000D03*
X96890000Y-99680000D03*
X98090000Y-95970000D03*
X98090000Y-100070000D03*
X99420000Y-95970000D03*
X99420000Y-100070000D03*
D21*
X100090000Y-98020000D03*
D20*
X100760000Y-95970000D03*
X100760000Y-100070000D03*
X102090000Y-95970000D03*
X102090000Y-100070000D03*
X103290000Y-96360000D03*
X103290000Y-99680000D03*
X104040000Y-97390000D03*
X104040000Y-98650000D03*
%TO.N,Net-(Q2-D)*%
X86140000Y-97390000D03*
X86140000Y-98650000D03*
X86890000Y-96360000D03*
X86890000Y-99680000D03*
X88090000Y-95970000D03*
X88090000Y-100070000D03*
X89420000Y-95970000D03*
X89420000Y-100070000D03*
D21*
X90090000Y-98020000D03*
D20*
X90760000Y-95970000D03*
X90760000Y-100070000D03*
X92090000Y-95970000D03*
X92090000Y-100070000D03*
X93290000Y-96360000D03*
X93290000Y-99680000D03*
D19*
X94040000Y-97390000D03*
D18*
X94040000Y-98650000D03*
D22*
%TO.N,/PA_Current*%
X93180000Y-76620000D03*
%TO.N,GND*%
X95090000Y-76620000D03*
D23*
%TO.N,+3.3V*%
X97000000Y-76620000D03*
%TD*%
D10*
%TO.N,GND*%
%TO.C,H3*%
X119000000Y-26000000D03*
%TD*%
%TO.N,GND*%
%TO.C,H4*%
X31000000Y-26000000D03*
%TD*%
D16*
%TO.N,GND*%
%TO.C,J2*%
X44500000Y-116260000D03*
X44500000Y-110760000D03*
X44500000Y-105260000D03*
X42250000Y-116260000D03*
X42250000Y-110760000D03*
X42250000Y-105260000D03*
D17*
X42000000Y-113760000D03*
X42000000Y-107760000D03*
D16*
X40000000Y-116260000D03*
X40000000Y-110760000D03*
X40000000Y-105260000D03*
X37750000Y-116260000D03*
X37750000Y-110760000D03*
X37750000Y-105260000D03*
D17*
X36920000Y-113760000D03*
X36920000Y-107760000D03*
D16*
X35500000Y-116260000D03*
X35500000Y-110760000D03*
X35500000Y-105260000D03*
%TD*%
D10*
%TO.N,GND*%
%TO.C,H1*%
X119000000Y-114000000D03*
%TD*%
D24*
%TO.N,Net-(D1-A1)*%
X62980000Y-77180000D03*
X62960000Y-79940000D03*
X63560000Y-74410000D03*
D25*
%TO.N,GND*%
X83980000Y-44330000D03*
X87780000Y-58360000D03*
X91930000Y-63400000D03*
X91890000Y-59420000D03*
%TO.N,Net-(J3-Pin_2)*%
X82600000Y-30545000D03*
X66849416Y-28481769D03*
X64175000Y-28385000D03*
X73220000Y-37113984D03*
%TO.N,Net-(J3-Pin_1)*%
X89930000Y-38520000D03*
X86560000Y-34230000D03*
%TO.N,+3.3V*%
X59080000Y-49920000D03*
X76980000Y-29390000D03*
X99257500Y-61930000D03*
X92877500Y-33615000D03*
X91440000Y-29010000D03*
X95836956Y-52475000D03*
X80300000Y-29120000D03*
X64180000Y-25920000D03*
X80960000Y-39490000D03*
X59830000Y-43490000D03*
X74000000Y-97760002D03*
X68554746Y-39130762D03*
X99475000Y-46992500D03*
%TO.N,GND*%
X96870000Y-46450000D03*
D24*
X103670000Y-111520000D03*
X46940000Y-116630000D03*
X118820000Y-84480000D03*
D25*
X114450000Y-43360000D03*
X107290000Y-50550000D03*
D24*
X99530000Y-111550000D03*
X123750000Y-100110000D03*
X100170000Y-79020000D03*
X26480000Y-76850000D03*
X118820000Y-100150000D03*
X122920000Y-79020000D03*
D25*
X59390000Y-28700000D03*
X115560000Y-47500000D03*
D24*
X118820000Y-89160000D03*
D25*
X65881992Y-36603008D03*
D24*
X51530000Y-108680000D03*
X115840000Y-79020000D03*
D25*
X55255000Y-21425000D03*
X79920000Y-34530000D03*
D24*
X123750000Y-94930000D03*
X56110000Y-104380000D03*
X46940000Y-112900000D03*
D25*
X111812500Y-53107546D03*
D24*
X56110000Y-116380000D03*
X118820000Y-94970000D03*
X31410000Y-115800000D03*
X56110000Y-108350000D03*
X104850000Y-79020000D03*
X80230000Y-79600000D03*
D25*
X99810000Y-36320000D03*
D24*
X51530000Y-104380000D03*
D25*
X106687142Y-46290658D03*
D24*
X104810000Y-74090000D03*
X123750000Y-89120000D03*
X115800000Y-74090000D03*
D25*
X78020000Y-61910000D03*
D24*
X123750000Y-107190000D03*
D25*
X77080000Y-38005000D03*
D24*
X122880000Y-74090000D03*
X31410000Y-87300000D03*
X110660000Y-79020000D03*
X83470000Y-79580000D03*
X123750000Y-84440000D03*
X26480000Y-99600000D03*
D25*
X86850000Y-62190000D03*
X115160000Y-33440000D03*
D24*
X31410000Y-99560000D03*
X91480000Y-111720000D03*
X76750000Y-79590000D03*
D25*
X67591212Y-31165014D03*
D24*
X72550000Y-117890000D03*
X31410000Y-81490000D03*
X31410000Y-92480000D03*
X31410000Y-76810000D03*
X26480000Y-111020000D03*
X56110000Y-112650000D03*
X51530000Y-116570000D03*
X86020000Y-79590000D03*
X26480000Y-87340000D03*
X100130000Y-74090000D03*
D25*
X101987500Y-45492500D03*
D24*
X118820000Y-107230000D03*
D25*
X78352233Y-47438859D03*
D24*
X26480000Y-81530000D03*
D25*
X109190000Y-45430000D03*
D24*
X46940000Y-104440000D03*
X110620000Y-74090000D03*
X91480000Y-115620000D03*
X31410000Y-110980000D03*
X46940000Y-108740000D03*
X51530000Y-112840000D03*
X26480000Y-105630000D03*
X88540000Y-79560000D03*
X26480000Y-115840000D03*
X99530000Y-114390000D03*
X26480000Y-92520000D03*
X31410000Y-105590000D03*
D25*
X53970000Y-47070000D03*
%TO.N,/PA_Current*%
X74898287Y-42660699D03*
%TO.N,/PA_Voltage*%
X76880000Y-36220000D03*
X60990000Y-66370000D03*
X74257412Y-38268604D03*
X69770000Y-43230000D03*
%TO.N,/Vgg_Voltage*%
X107710000Y-51700000D03*
X72294156Y-35706937D03*
%TO.N,+12V*%
X61844364Y-47680508D03*
X97110000Y-40990000D03*
X80655000Y-52188161D03*
X61765000Y-59450000D03*
%TO.N,/Vgg_On*%
X94810000Y-30380000D03*
X67190000Y-29475000D03*
X69340000Y-29475000D03*
X58815000Y-30925000D03*
D24*
%TO.N,Net-(D1-A1)*%
X56110000Y-91340000D03*
X56130000Y-83830000D03*
X51610000Y-77310000D03*
X46910000Y-96390000D03*
X51550000Y-83690000D03*
X65700000Y-70550000D03*
X51610000Y-70840000D03*
X47010000Y-99870000D03*
D25*
X62790000Y-99760000D03*
X62820000Y-98680000D03*
D24*
X46960000Y-83750000D03*
X56110000Y-86810000D03*
X46810000Y-80090000D03*
X51600000Y-99810000D03*
X51610000Y-80100000D03*
X51500000Y-96330000D03*
X51610000Y-74410000D03*
D25*
X66640000Y-99820000D03*
X66730000Y-96660000D03*
D24*
X56290000Y-77200000D03*
X46810000Y-77300000D03*
X60980000Y-70670000D03*
X46940000Y-86960000D03*
X51530000Y-86900000D03*
D25*
X59700000Y-99740000D03*
D24*
X46810000Y-70830000D03*
X60980000Y-79930000D03*
X56290000Y-70730000D03*
X46940000Y-91500000D03*
X56290000Y-74410000D03*
X56290000Y-79990000D03*
X56110000Y-99850000D03*
X46810000Y-74410000D03*
X51530000Y-91440000D03*
X56110000Y-96400000D03*
X65610000Y-74410000D03*
D25*
X62820000Y-97660000D03*
X59800000Y-96650000D03*
X66650000Y-98770000D03*
X66700000Y-97690000D03*
X62900000Y-96580000D03*
X59710000Y-98260000D03*
D24*
X60980000Y-77140000D03*
X60980000Y-74410000D03*
%TO.N,Net-(D5-A1)*%
X103670000Y-108690000D03*
X91520000Y-85790000D03*
X104120000Y-85890000D03*
X99330000Y-89380000D03*
X104120000Y-89480000D03*
X91710000Y-93350000D03*
X103670000Y-105570000D03*
X95390000Y-85720000D03*
X104120000Y-82010000D03*
X99330000Y-85790000D03*
X95300000Y-81980000D03*
X91490000Y-82070000D03*
X95210000Y-89410000D03*
X91480000Y-105640000D03*
X91480000Y-102360000D03*
X95080000Y-102310000D03*
X99530000Y-108720000D03*
X104120000Y-93320000D03*
X103670000Y-102200000D03*
X95240000Y-93280000D03*
X91550000Y-89440000D03*
X91480000Y-108990000D03*
X99330000Y-81910000D03*
X99530000Y-105600000D03*
X99330000Y-93220000D03*
X95080000Y-105490000D03*
X99530000Y-102230000D03*
D25*
%TO.N,Net-(D7-A1)*%
X43860965Y-40940966D03*
X45110000Y-33220000D03*
%TO.N,Net-(D8-A1)*%
X45190000Y-42240000D03*
X48620000Y-33880000D03*
D24*
%TO.N,Net-(Q2-D)*%
X84890000Y-114280000D03*
X76620000Y-82370000D03*
X76560000Y-88200000D03*
D25*
X67278654Y-84578654D03*
X67000000Y-108310000D03*
X61270000Y-108310000D03*
D24*
X84940000Y-88200000D03*
X85080000Y-103080000D03*
D25*
X72200000Y-108240000D03*
X72320000Y-84640000D03*
D24*
X77280000Y-100440000D03*
D25*
X62670000Y-92860000D03*
X66980000Y-93030000D03*
D24*
X77050000Y-108140000D03*
X77280000Y-103360000D03*
X89000000Y-94010000D03*
D25*
X66980000Y-88920000D03*
X62590000Y-89040000D03*
D24*
X85980000Y-82370000D03*
X80690000Y-114610000D03*
X81060000Y-103220000D03*
X84990000Y-94010000D03*
X80640000Y-94010000D03*
X88960000Y-88200000D03*
D25*
X72140000Y-103810000D03*
X61720000Y-113060000D03*
D24*
X76650000Y-94010000D03*
D25*
X72600000Y-89060000D03*
D24*
X88530000Y-114280000D03*
X83460000Y-82370000D03*
X88580000Y-108280000D03*
D25*
X72140000Y-112960000D03*
D24*
X76670000Y-114890000D03*
X88530000Y-82370000D03*
X80240000Y-82370000D03*
X88770000Y-102940000D03*
X84990000Y-108420000D03*
X77090000Y-96560000D03*
D25*
X67130000Y-103710000D03*
X62570000Y-84780000D03*
D24*
X81110000Y-108180000D03*
D25*
X66970000Y-112840000D03*
X72720000Y-92650000D03*
X61510000Y-103600000D03*
D24*
X80370000Y-88200000D03*
D25*
%TO.N,Net-(U5-AIN3)*%
X70748814Y-36112798D03*
X70280000Y-74610000D03*
X74000000Y-99480000D03*
%TO.N,Net-(U3-EN)*%
X81245000Y-57090000D03*
X44690000Y-63540000D03*
%TO.N,Net-(C11-Pad1)*%
X59410000Y-54640000D03*
X59730000Y-61740000D03*
%TO.N,Net-(C16-Pad1)*%
X48890000Y-41940000D03*
X49980000Y-49060000D03*
%TO.N,Net-(C21-Pad1)*%
X49520000Y-37370000D03*
X46620000Y-54770000D03*
%TO.N,/HV_On*%
X55830000Y-32390000D03*
X77769858Y-78020318D03*
%TO.N,/Vgg Cntrl*%
X95985005Y-32194995D03*
X60449968Y-31641242D03*
X68873008Y-32766992D03*
X72528008Y-32471992D03*
%TO.N,/12V_Good*%
X96740000Y-54316992D03*
X64801992Y-35378008D03*
%TO.N,Net-(D2-A)*%
X73193603Y-77533603D03*
X71790000Y-97040000D03*
%TD*%
D26*
%TO.N,+3.3V*%
X99257500Y-61777500D02*
X99257500Y-61930000D01*
X95836956Y-58356956D02*
X99257500Y-61777500D01*
X95836956Y-52475000D02*
X95836956Y-58356956D01*
D27*
%TO.N,+12V*%
X86730000Y-51370000D02*
X81473161Y-51370000D01*
X97110000Y-40990000D02*
X86730000Y-51370000D01*
X79596839Y-52188161D02*
X80655000Y-52188161D01*
X75089186Y-47680508D02*
X79596839Y-52188161D01*
X61844364Y-47680508D02*
X75089186Y-47680508D01*
X81473161Y-51370000D02*
X80655000Y-52188161D01*
%TO.N,Net-(U3-EN)*%
X74795000Y-63540000D02*
X81245000Y-57090000D01*
X44690000Y-63540000D02*
X74795000Y-63540000D01*
D26*
%TO.N,+3.3V*%
X91330000Y-29120000D02*
X91440000Y-29010000D01*
X92877500Y-33615000D02*
X93090000Y-33615000D01*
X86187207Y-33330000D02*
X92592500Y-33330000D01*
X73510000Y-25920000D02*
X76980000Y-29390000D01*
X99475000Y-40000000D02*
X99475000Y-46992500D01*
X91440000Y-32177500D02*
X91440000Y-29010000D01*
X74000000Y-97760002D02*
X73970002Y-97760002D01*
X93090000Y-33615000D02*
X99475000Y-40000000D01*
X92877500Y-33615000D02*
X91440000Y-32177500D01*
X92592500Y-33330000D02*
X92877500Y-33615000D01*
D28*
X72299238Y-39130762D02*
X68554746Y-39130762D01*
D26*
X76580000Y-75420000D02*
X88870000Y-75420000D01*
D28*
X74578428Y-37493604D02*
X73936396Y-37493604D01*
D26*
X80300000Y-29120000D02*
X79960000Y-29460000D01*
D28*
X76574824Y-39490000D02*
X74578428Y-37493604D01*
D26*
X64180000Y-25920000D02*
X73510000Y-25920000D01*
X95836956Y-51233044D02*
X99475000Y-47595000D01*
D28*
X73936396Y-37493604D02*
X72299238Y-39130762D01*
X80960000Y-39490000D02*
X76574824Y-39490000D01*
D26*
X73970002Y-97760002D02*
X69610000Y-93400000D01*
X91650000Y-78200000D02*
X95420000Y-78200000D01*
X79960000Y-29460000D02*
X77050000Y-29460000D01*
X80960000Y-39490000D02*
X80960000Y-38557207D01*
X95836956Y-52475000D02*
X95836956Y-51233044D01*
X80960000Y-38557207D02*
X86187207Y-33330000D01*
X99475000Y-47595000D02*
X99475000Y-46992500D01*
X88870000Y-75420000D02*
X91650000Y-78200000D01*
X69610000Y-93400000D02*
X69610000Y-82390000D01*
X80300000Y-29120000D02*
X91330000Y-29120000D01*
X69610000Y-82390000D02*
X76580000Y-75420000D01*
X77050000Y-29460000D02*
X76980000Y-29390000D01*
X95420000Y-78200000D02*
X97000000Y-76620000D01*
D27*
%TO.N,+12V*%
X62256928Y-48093072D02*
X62256928Y-59463072D01*
D26*
X61844364Y-47680508D02*
X62256928Y-48093072D01*
X62256928Y-59463072D02*
X61778072Y-59463072D01*
X61778072Y-59463072D02*
X61765000Y-59450000D01*
D27*
%TO.N,Net-(D7-A1)*%
X34970000Y-52500000D02*
X43860965Y-43609035D01*
X34500000Y-52500000D02*
X34970000Y-52500000D01*
X45110000Y-33220000D02*
X43610000Y-34720000D01*
X34500000Y-36500000D02*
X39419999Y-36500000D01*
X43610000Y-40690001D02*
X43860965Y-40940966D01*
X43610000Y-34720000D02*
X43610000Y-40690001D01*
X39419999Y-36500000D02*
X43860965Y-40940966D01*
X43860965Y-43609035D02*
X43860965Y-40940966D01*
%TO.N,Net-(D8-A1)*%
X46860000Y-40570000D02*
X45190000Y-42240000D01*
X48620000Y-35120000D02*
X46860000Y-36880000D01*
X46860000Y-36880000D02*
X46860000Y-40570000D01*
X48620000Y-33880000D02*
X48620000Y-35120000D01*
D26*
%TO.N,Net-(U5-AIN3)*%
X68210000Y-94662082D02*
X73027918Y-99480000D01*
X68210000Y-76680000D02*
X68210000Y-94662082D01*
X73027918Y-99480000D02*
X74000000Y-99480000D01*
X70280000Y-74610000D02*
X68210000Y-76680000D01*
%TO.N,Net-(D2-A)*%
X68910000Y-94160000D02*
X68910000Y-81817206D01*
X71790000Y-97040000D02*
X68910000Y-94160000D01*
X68910000Y-81817206D02*
X73193603Y-77533603D01*
%TD*%
%TA.AperFunction,Conductor*%
%TO.N,Net-(D1-A1)*%
G36*
X66324130Y-69910040D02*
G01*
X66370221Y-69962551D01*
X66381745Y-70013021D01*
X66529873Y-80451070D01*
X66528843Y-80468868D01*
X66514068Y-80582143D01*
X66485878Y-80646073D01*
X66427600Y-80684614D01*
X66391230Y-80690105D01*
X57342549Y-80698863D01*
X57330000Y-74920000D01*
X45919935Y-75013270D01*
X45988295Y-70141480D01*
X46008918Y-70074726D01*
X46062359Y-70029716D01*
X46111490Y-70019225D01*
X66256967Y-69890784D01*
X66324130Y-69910040D01*
G37*
%TD.AperFunction*%
%TD*%
%TA.AperFunction,Conductor*%
%TO.N,Net-(D1-A1)*%
G36*
X57342549Y-80698863D02*
G01*
X57342549Y-80698864D01*
X57375350Y-95803802D01*
X57385942Y-100681363D01*
X57385941Y-100681364D01*
X57389730Y-102426034D01*
X57370191Y-102493116D01*
X57317486Y-102538985D01*
X57266033Y-102550303D01*
X32974574Y-102609695D01*
X32907487Y-102590174D01*
X32861603Y-102537482D01*
X32850271Y-102485425D01*
X32909729Y-75174135D01*
X32929560Y-75107142D01*
X32982463Y-75061502D01*
X33034137Y-75050409D01*
X33847776Y-75053089D01*
X38979959Y-75070000D01*
X38979970Y-75069999D01*
X38980000Y-75070000D01*
X57330000Y-74920000D01*
X57342549Y-80698863D01*
G37*
%TD.AperFunction*%
%TD*%
%TA.AperFunction,Conductor*%
%TO.N,Net-(Q2-D)*%
G36*
X70210000Y-115569999D02*
G01*
X58853460Y-115520537D01*
X58786507Y-115500560D01*
X58740982Y-115447558D01*
X58730000Y-115396538D01*
X58730000Y-101283360D01*
X58749685Y-101216321D01*
X58802489Y-101170566D01*
X58853356Y-101159362D01*
X70251977Y-101100454D01*
X70210000Y-115569999D01*
G37*
%TD.AperFunction*%
%TD*%
%TA.AperFunction,Conductor*%
%TO.N,Net-(Q2-D)*%
G36*
X67094609Y-81284866D02*
G01*
X67144158Y-81334127D01*
X67159500Y-81393871D01*
X67159500Y-94760279D01*
X67139815Y-94827318D01*
X67087011Y-94873073D01*
X67036963Y-94884270D01*
X58809271Y-94981330D01*
X58742004Y-94962438D01*
X58695629Y-94910177D01*
X58683814Y-94856107D01*
X58684100Y-94827318D01*
X58815274Y-81625584D01*
X58835624Y-81558745D01*
X58888880Y-81513517D01*
X58939145Y-81502818D01*
X66392010Y-81495605D01*
X66511478Y-81486579D01*
X66547848Y-81481088D01*
X66711281Y-81438507D01*
X66871926Y-81356481D01*
X66930204Y-81317940D01*
X66960902Y-81294819D01*
X67026293Y-81270213D01*
X67094609Y-81284866D01*
G37*
%TD.AperFunction*%
%TD*%
%TA.AperFunction,Conductor*%
%TO.N,GND*%
G36*
X124943039Y-20019685D02*
G01*
X124988794Y-20072489D01*
X125000000Y-20124000D01*
X125000000Y-119876000D01*
X124980315Y-119943039D01*
X124927511Y-119988794D01*
X124876000Y-120000000D01*
X50055000Y-120000000D01*
X25183888Y-119990049D01*
X25116857Y-119970338D01*
X25071123Y-119917515D01*
X25059938Y-119866111D01*
X25058233Y-116457428D01*
X25051245Y-102483670D01*
X32044773Y-102483670D01*
X32063202Y-102656760D01*
X32074528Y-102708784D01*
X32084781Y-102750503D01*
X32151660Y-102918025D01*
X32254134Y-103066453D01*
X32254146Y-103066469D01*
X32299999Y-103119125D01*
X32300023Y-103119152D01*
X32369148Y-103189358D01*
X32369151Y-103189361D01*
X32515970Y-103294123D01*
X32515976Y-103294127D01*
X32682436Y-103363597D01*
X32749523Y-103383118D01*
X32797254Y-103395435D01*
X32976543Y-103415193D01*
X57268002Y-103355801D01*
X57439080Y-103336995D01*
X57490533Y-103325677D01*
X57530289Y-103315867D01*
X57697826Y-103249036D01*
X57730081Y-103226780D01*
X57796437Y-103204912D01*
X57864085Y-103222389D01*
X57911546Y-103273665D01*
X57924500Y-103328845D01*
X57924500Y-115396539D01*
X57942536Y-115566038D01*
X57953516Y-115617052D01*
X57962734Y-115655307D01*
X58028471Y-115823268D01*
X58028474Y-115823274D01*
X58092928Y-115918001D01*
X58129941Y-115972400D01*
X58129943Y-115972403D01*
X58129945Y-115972405D01*
X58129948Y-115972410D01*
X58175452Y-116025387D01*
X58175478Y-116025416D01*
X58244096Y-116096061D01*
X58244102Y-116096066D01*
X58244104Y-116096068D01*
X58390217Y-116201833D01*
X58556200Y-116272434D01*
X58623153Y-116292411D01*
X58670801Y-116305053D01*
X58849952Y-116326029D01*
X70206244Y-116375489D01*
X70206243Y-116375511D01*
X70206344Y-116375489D01*
X86786415Y-116461487D01*
X89361960Y-116474846D01*
X89361960Y-116474845D01*
X89361976Y-116474846D01*
X89532809Y-116457428D01*
X89584239Y-116446552D01*
X89623717Y-116437159D01*
X89791821Y-116371767D01*
X89941159Y-116270608D01*
X89994255Y-116225193D01*
X90065077Y-116156686D01*
X90171141Y-116010791D01*
X90242081Y-115844952D01*
X90262195Y-115778040D01*
X90274933Y-115730426D01*
X90296277Y-115551319D01*
X90326522Y-110834269D01*
X90346636Y-110767360D01*
X90399732Y-110721945D01*
X90462918Y-110711689D01*
X90584774Y-110723938D01*
X117797212Y-110396913D01*
X117893165Y-110385729D01*
X117963341Y-110377551D01*
X117963342Y-110377550D01*
X117963348Y-110377550D01*
X118013330Y-110366371D01*
X118048362Y-110357707D01*
X118216067Y-110291297D01*
X118364789Y-110189235D01*
X118417609Y-110143499D01*
X118488015Y-110074565D01*
X118593193Y-109928029D01*
X118663127Y-109761764D01*
X118682835Y-109694732D01*
X118695284Y-109647040D01*
X118715543Y-109467807D01*
X118715984Y-108211360D01*
X118711383Y-108125108D01*
X118708549Y-108098706D01*
X118682796Y-107965633D01*
X118614620Y-107798639D01*
X118581135Y-107737316D01*
X118581128Y-107737303D01*
X118556204Y-107694805D01*
X118556203Y-107694804D01*
X118556201Y-107694800D01*
X118443740Y-107553777D01*
X118443724Y-107553761D01*
X118442570Y-107552469D01*
X118433458Y-107540968D01*
X118395902Y-107487332D01*
X118385095Y-107468614D01*
X118357657Y-107409773D01*
X118350264Y-107389461D01*
X118333464Y-107326762D01*
X118329711Y-107305474D01*
X118324054Y-107240803D01*
X118324054Y-107219192D01*
X118329711Y-107154522D01*
X118333463Y-107133240D01*
X118350264Y-107070533D01*
X118357657Y-107050224D01*
X118385098Y-106991377D01*
X118395896Y-106972674D01*
X118433351Y-106919182D01*
X118443427Y-106906857D01*
X118443324Y-106906765D01*
X118501942Y-106841517D01*
X118501961Y-106841496D01*
X118518571Y-106820892D01*
X118594326Y-106708823D01*
X118664260Y-106542558D01*
X118683968Y-106475526D01*
X118696417Y-106427835D01*
X118716676Y-106248601D01*
X118718475Y-101133851D01*
X118713874Y-101047599D01*
X118711040Y-101021197D01*
X118685287Y-100888124D01*
X118617111Y-100721130D01*
X118583626Y-100659807D01*
X118583619Y-100659794D01*
X118558695Y-100617296D01*
X118558694Y-100617295D01*
X118558692Y-100617291D01*
X118446231Y-100476268D01*
X118443911Y-100473672D01*
X118444065Y-100473533D01*
X118433138Y-100460511D01*
X118395902Y-100407332D01*
X118385095Y-100388614D01*
X118357657Y-100329773D01*
X118350264Y-100309461D01*
X118344694Y-100288674D01*
X118333463Y-100246759D01*
X118329711Y-100225474D01*
X118327607Y-100201425D01*
X118324054Y-100160801D01*
X118324054Y-100139192D01*
X118329711Y-100074522D01*
X118333463Y-100053240D01*
X118350264Y-99990533D01*
X118357657Y-99970224D01*
X118385098Y-99911377D01*
X118395898Y-99892670D01*
X118433136Y-99839488D01*
X118445870Y-99824320D01*
X118445817Y-99824272D01*
X118445823Y-99824265D01*
X118445790Y-99824234D01*
X118446883Y-99823079D01*
X118446926Y-99823037D01*
X118504466Y-99758989D01*
X118521076Y-99738384D01*
X118596819Y-99626330D01*
X118666753Y-99460065D01*
X118686461Y-99393033D01*
X118698910Y-99345342D01*
X118719169Y-99166108D01*
X118720298Y-95955674D01*
X118715697Y-95869422D01*
X118712863Y-95843020D01*
X118687110Y-95709947D01*
X118618934Y-95542953D01*
X118585449Y-95481630D01*
X118585442Y-95481617D01*
X118560518Y-95439119D01*
X118560517Y-95439118D01*
X118560515Y-95439114D01*
X118448054Y-95298091D01*
X118447032Y-95297069D01*
X118433138Y-95280511D01*
X118395902Y-95227332D01*
X118385095Y-95208614D01*
X118357657Y-95149773D01*
X118350264Y-95129461D01*
X118333464Y-95066762D01*
X118329711Y-95045474D01*
X118324054Y-94980803D01*
X118324054Y-94959192D01*
X118329711Y-94894522D01*
X118333463Y-94873240D01*
X118350264Y-94810533D01*
X118357657Y-94790224D01*
X118385098Y-94731377D01*
X118395898Y-94712670D01*
X118433134Y-94659492D01*
X118447040Y-94642923D01*
X118447302Y-94642660D01*
X118448750Y-94641213D01*
X118506290Y-94577165D01*
X118522900Y-94556560D01*
X118598643Y-94444506D01*
X118668577Y-94278241D01*
X118688285Y-94211209D01*
X118700734Y-94163518D01*
X118720993Y-93984284D01*
X118722342Y-90147718D01*
X118717741Y-90061466D01*
X118714907Y-90035064D01*
X118689154Y-89901991D01*
X118620978Y-89734997D01*
X118587493Y-89673674D01*
X118587486Y-89673661D01*
X118562562Y-89631163D01*
X118562561Y-89631162D01*
X118562559Y-89631158D01*
X118450098Y-89490135D01*
X118447032Y-89487069D01*
X118433138Y-89470511D01*
X118395902Y-89417332D01*
X118385095Y-89398614D01*
X118357657Y-89339773D01*
X118350264Y-89319461D01*
X118333464Y-89256762D01*
X118329711Y-89235474D01*
X118324054Y-89170803D01*
X118324054Y-89149192D01*
X118329711Y-89084522D01*
X118333463Y-89063240D01*
X118350264Y-89000533D01*
X118357657Y-88980224D01*
X118385098Y-88921377D01*
X118395893Y-88902678D01*
X118433142Y-88849480D01*
X118447040Y-88832922D01*
X118450795Y-88829168D01*
X118508335Y-88765120D01*
X118524945Y-88744515D01*
X118600688Y-88632461D01*
X118670622Y-88466196D01*
X118690330Y-88399164D01*
X118702779Y-88351473D01*
X118723038Y-88172239D01*
X118723989Y-85469365D01*
X118719388Y-85383113D01*
X118716554Y-85356711D01*
X118690801Y-85223638D01*
X118622625Y-85056644D01*
X118589140Y-84995321D01*
X118589133Y-84995308D01*
X118564209Y-84952810D01*
X118564208Y-84952809D01*
X118564206Y-84952805D01*
X118451745Y-84811782D01*
X118447032Y-84807069D01*
X118433138Y-84790511D01*
X118395902Y-84737332D01*
X118385095Y-84718614D01*
X118357657Y-84659773D01*
X118350264Y-84639461D01*
X118333464Y-84576762D01*
X118329711Y-84555474D01*
X118324054Y-84490803D01*
X118324054Y-84469192D01*
X118329711Y-84404522D01*
X118333463Y-84383240D01*
X118350264Y-84320533D01*
X118357657Y-84300224D01*
X118385098Y-84241377D01*
X118395898Y-84222670D01*
X118433134Y-84169492D01*
X118447027Y-84152934D01*
X118452443Y-84147520D01*
X118509983Y-84083472D01*
X118526593Y-84062867D01*
X118602336Y-83950813D01*
X118672270Y-83784548D01*
X118691978Y-83717516D01*
X118704427Y-83669825D01*
X118724686Y-83490592D01*
X118725456Y-81304959D01*
X118706640Y-81131592D01*
X118695171Y-81079464D01*
X118684746Y-81037484D01*
X118617427Y-80870142D01*
X118617426Y-80870140D01*
X118617425Y-80870138D01*
X118514567Y-80721985D01*
X118514566Y-80721984D01*
X118514560Y-80721975D01*
X118468538Y-80669404D01*
X118420684Y-80621058D01*
X118399217Y-80599371D01*
X118399216Y-80599370D01*
X118399214Y-80599368D01*
X118252109Y-80494988D01*
X118252106Y-80494986D01*
X118252105Y-80494986D01*
X118252103Y-80494985D01*
X118085464Y-80425959D01*
X118085458Y-80425958D01*
X118018331Y-80406618D01*
X117970574Y-80394427D01*
X117791247Y-80375144D01*
X117791239Y-80375143D01*
X117791235Y-80375143D01*
X117791232Y-80375143D01*
X117791217Y-80375142D01*
X90479681Y-80513880D01*
X90479651Y-80513881D01*
X90309306Y-80532988D01*
X90309302Y-80532989D01*
X90258047Y-80544360D01*
X90218962Y-80554062D01*
X90218950Y-80554066D01*
X90051488Y-80621058D01*
X90051478Y-80621063D01*
X89998910Y-80657409D01*
X89932573Y-80679343D01*
X89878829Y-80669077D01*
X89811552Y-80639741D01*
X89736702Y-80607102D01*
X89669936Y-80586522D01*
X89669933Y-80586521D01*
X89669926Y-80586519D01*
X89622414Y-80573451D01*
X89443462Y-80550855D01*
X73446852Y-80336466D01*
X73380083Y-80315885D01*
X73335039Y-80262472D01*
X73326024Y-80193187D01*
X73355898Y-80130026D01*
X73360814Y-80124815D01*
X75465314Y-78020317D01*
X76564215Y-78020317D01*
X76564215Y-78020318D01*
X76584742Y-78241853D01*
X76584743Y-78241855D01*
X76645627Y-78455841D01*
X76645633Y-78455856D01*
X76744796Y-78655001D01*
X76744801Y-78655009D01*
X76878878Y-78832556D01*
X77043295Y-78982441D01*
X77043297Y-78982443D01*
X77232453Y-79099563D01*
X77232454Y-79099563D01*
X77232457Y-79099565D01*
X77439918Y-79179936D01*
X77658615Y-79220818D01*
X77658617Y-79220818D01*
X77881099Y-79220818D01*
X77881101Y-79220818D01*
X78099798Y-79179936D01*
X78307259Y-79099565D01*
X78496420Y-78982442D01*
X78660839Y-78832554D01*
X78794916Y-78655007D01*
X78894087Y-78455846D01*
X78954973Y-78241854D01*
X78975501Y-78020318D01*
X78954973Y-77798782D01*
X78894087Y-77584790D01*
X78876393Y-77549255D01*
X78794919Y-77385634D01*
X78794914Y-77385626D01*
X78660837Y-77208079D01*
X78496420Y-77058194D01*
X78496418Y-77058192D01*
X78307262Y-76941072D01*
X78307256Y-76941070D01*
X78099798Y-76860700D01*
X77881101Y-76819818D01*
X77658615Y-76819818D01*
X77439918Y-76860700D01*
X77308722Y-76911525D01*
X77232459Y-76941070D01*
X77232453Y-76941072D01*
X77043297Y-77058192D01*
X77043295Y-77058194D01*
X76878878Y-77208079D01*
X76744801Y-77385626D01*
X76744796Y-77385634D01*
X76645633Y-77584779D01*
X76645627Y-77584794D01*
X76584743Y-77798780D01*
X76584742Y-77798782D01*
X76564215Y-78020317D01*
X75465314Y-78020317D01*
X76978813Y-76506819D01*
X77040136Y-76473334D01*
X77066494Y-76470500D01*
X88383507Y-76470500D01*
X88450546Y-76490185D01*
X88471188Y-76506819D01*
X90980341Y-79015974D01*
X90980345Y-79015977D01*
X91152395Y-79130938D01*
X91152408Y-79130945D01*
X91343575Y-79210128D01*
X91343580Y-79210130D01*
X91343584Y-79210130D01*
X91343585Y-79210131D01*
X91546532Y-79250501D01*
X91546535Y-79250501D01*
X91759579Y-79250501D01*
X91759599Y-79250500D01*
X95523466Y-79250500D01*
X95523467Y-79250499D01*
X95726420Y-79210130D01*
X95917598Y-79130941D01*
X95963975Y-79099953D01*
X96089655Y-79015977D01*
X96235977Y-78869655D01*
X96235978Y-78869653D01*
X96243044Y-78862587D01*
X96243046Y-78862583D01*
X96898812Y-78206819D01*
X96960135Y-78173334D01*
X96986493Y-78170500D01*
X97794957Y-78170500D01*
X97794958Y-78170499D01*
X97862104Y-78162934D01*
X97929249Y-78155369D01*
X97929252Y-78155368D01*
X97929255Y-78155368D01*
X98099522Y-78095789D01*
X98252262Y-77999816D01*
X98379816Y-77872262D01*
X98475789Y-77719522D01*
X98535368Y-77549255D01*
X98550500Y-77414954D01*
X98550500Y-75825046D01*
X98543470Y-75762651D01*
X98535369Y-75690750D01*
X98535368Y-75690745D01*
X98475788Y-75520476D01*
X98379815Y-75367737D01*
X98252262Y-75240184D01*
X98099523Y-75144211D01*
X97929254Y-75084631D01*
X97929249Y-75084630D01*
X97794960Y-75069500D01*
X97794954Y-75069500D01*
X96205046Y-75069500D01*
X96205039Y-75069500D01*
X96070750Y-75084630D01*
X96070745Y-75084631D01*
X95900476Y-75144211D01*
X95747737Y-75240184D01*
X95620184Y-75367737D01*
X95524211Y-75520476D01*
X95464631Y-75690745D01*
X95464630Y-75690750D01*
X95449500Y-75825039D01*
X95449500Y-76633507D01*
X95429815Y-76700546D01*
X95413181Y-76721188D01*
X95021188Y-77113181D01*
X94959865Y-77146666D01*
X94933507Y-77149500D01*
X94804728Y-77149500D01*
X94737689Y-77129815D01*
X94691934Y-77077011D01*
X94681990Y-77007853D01*
X94684150Y-76996572D01*
X94716146Y-76863302D01*
X94735294Y-76620000D01*
X94716146Y-76376698D01*
X94659172Y-76139388D01*
X94605721Y-76010345D01*
X94565777Y-75913910D01*
X94438262Y-75705826D01*
X94438261Y-75705823D01*
X94402453Y-75663897D01*
X94279759Y-75520241D01*
X94101201Y-75367738D01*
X94094176Y-75361738D01*
X94094173Y-75361737D01*
X93886089Y-75234222D01*
X93660618Y-75140830D01*
X93660621Y-75140830D01*
X93554992Y-75115470D01*
X93423302Y-75083854D01*
X93423300Y-75083853D01*
X93423297Y-75083853D01*
X93180000Y-75064706D01*
X92936702Y-75083853D01*
X92699380Y-75140830D01*
X92473910Y-75234222D01*
X92265826Y-75361737D01*
X92265823Y-75361738D01*
X92080241Y-75520241D01*
X91921738Y-75705823D01*
X91921737Y-75705826D01*
X91794222Y-75913910D01*
X91700830Y-76139380D01*
X91643853Y-76376702D01*
X91640769Y-76415888D01*
X91615884Y-76481176D01*
X91559652Y-76522646D01*
X91489927Y-76527132D01*
X91429470Y-76493838D01*
X89693047Y-74757416D01*
X89693044Y-74757412D01*
X89693044Y-74757413D01*
X89685977Y-74750346D01*
X89685977Y-74750345D01*
X89539655Y-74604023D01*
X89367598Y-74489059D01*
X89277169Y-74451602D01*
X89176420Y-74409870D01*
X89176412Y-74409868D01*
X88973469Y-74369500D01*
X88973465Y-74369500D01*
X76689600Y-74369500D01*
X76689580Y-74369499D01*
X76683466Y-74369499D01*
X76476535Y-74369499D01*
X76476533Y-74369499D01*
X76307253Y-74403172D01*
X76273580Y-74409870D01*
X76273579Y-74409870D01*
X76273576Y-74409871D01*
X76239239Y-74424093D01*
X76217585Y-74433063D01*
X76182275Y-74447688D01*
X76082404Y-74489056D01*
X76082395Y-74489061D01*
X75910345Y-74604022D01*
X75910341Y-74604025D01*
X74003649Y-76510717D01*
X73942326Y-76544202D01*
X73872634Y-76539218D01*
X73850696Y-76528466D01*
X73731004Y-76454356D01*
X73523543Y-76373985D01*
X73304846Y-76333103D01*
X73082360Y-76333103D01*
X72863663Y-76373985D01*
X72755499Y-76415888D01*
X72656204Y-76454355D01*
X72656198Y-76454357D01*
X72467042Y-76571477D01*
X72467040Y-76571479D01*
X72302623Y-76721364D01*
X72168546Y-76898911D01*
X72168539Y-76898923D01*
X72069378Y-77098065D01*
X72069371Y-77098083D01*
X72048709Y-77170703D01*
X72017124Y-77224449D01*
X69472181Y-79769393D01*
X69410858Y-79802878D01*
X69341166Y-79797894D01*
X69285233Y-79756022D01*
X69260816Y-79690558D01*
X69260500Y-79681712D01*
X69260500Y-77166492D01*
X69280185Y-77099453D01*
X69296814Y-77078816D01*
X70585034Y-75790595D01*
X70627914Y-75762654D01*
X70817401Y-75689247D01*
X71006562Y-75572124D01*
X71170981Y-75422236D01*
X71305058Y-75244689D01*
X71404229Y-75045528D01*
X71465115Y-74831536D01*
X71485643Y-74610000D01*
X71465115Y-74388464D01*
X71404229Y-74174472D01*
X71396887Y-74159727D01*
X71305061Y-73975316D01*
X71305056Y-73975308D01*
X71170979Y-73797761D01*
X71006562Y-73647876D01*
X71006560Y-73647874D01*
X70817404Y-73530754D01*
X70817398Y-73530752D01*
X70609940Y-73450382D01*
X70391243Y-73409500D01*
X70168757Y-73409500D01*
X69950060Y-73450382D01*
X69818864Y-73501207D01*
X69742601Y-73530752D01*
X69742595Y-73530754D01*
X69553439Y-73647874D01*
X69553437Y-73647876D01*
X69389020Y-73797761D01*
X69254943Y-73975308D01*
X69254936Y-73975320D01*
X69155775Y-74174462D01*
X69155768Y-74174480D01*
X69135106Y-74247100D01*
X69103521Y-74300846D01*
X67540348Y-75864020D01*
X67540344Y-75864024D01*
X67481640Y-75922727D01*
X67420317Y-75956211D01*
X67350625Y-75951226D01*
X67294692Y-75909355D01*
X67270276Y-75843890D01*
X67269972Y-75836805D01*
X67252562Y-74609999D01*
X67187164Y-70001591D01*
X67167034Y-69833713D01*
X67155510Y-69783243D01*
X67146198Y-69746472D01*
X67078660Y-69579218D01*
X66975599Y-69431187D01*
X66929508Y-69378676D01*
X66929503Y-69378670D01*
X66860101Y-69308737D01*
X66776374Y-69249491D01*
X66712861Y-69204548D01*
X66607129Y-69160912D01*
X66546127Y-69135736D01*
X66478964Y-69116480D01*
X66431197Y-69104353D01*
X66251839Y-69085300D01*
X66251814Y-69085299D01*
X46106361Y-69213740D01*
X46106334Y-69213742D01*
X45943295Y-69231482D01*
X45943266Y-69231487D01*
X45894161Y-69241973D01*
X45862159Y-69249491D01*
X45693562Y-69313601D01*
X45543461Y-69413619D01*
X45490019Y-69458629D01*
X45418685Y-69526587D01*
X45311514Y-69671666D01*
X45239305Y-69836969D01*
X45218690Y-69903698D01*
X45205581Y-69951245D01*
X45182875Y-70130167D01*
X45182874Y-70130184D01*
X45127268Y-74092971D01*
X45106645Y-74159727D01*
X45053204Y-74204737D01*
X45004294Y-74215227D01*
X38978733Y-74264483D01*
X38977310Y-74264486D01*
X33850515Y-74247592D01*
X33850125Y-74247592D01*
X33036791Y-74244912D01*
X33036788Y-74244913D01*
X32865069Y-74262852D01*
X32813388Y-74273946D01*
X32773031Y-74283705D01*
X32605206Y-74349808D01*
X32456287Y-74451608D01*
X32403396Y-74497239D01*
X32403386Y-74497247D01*
X32332881Y-74566027D01*
X32227429Y-74712372D01*
X32227428Y-74712374D01*
X32157185Y-74878516D01*
X32137358Y-74945496D01*
X32124817Y-74993182D01*
X32104231Y-75172377D01*
X32044773Y-102483670D01*
X25051245Y-102483670D01*
X25033187Y-66369999D01*
X59784357Y-66369999D01*
X59784357Y-66370000D01*
X59804884Y-66591535D01*
X59804885Y-66591537D01*
X59865769Y-66805523D01*
X59865775Y-66805538D01*
X59964938Y-67004683D01*
X59964943Y-67004691D01*
X60099020Y-67182238D01*
X60263437Y-67332123D01*
X60263439Y-67332125D01*
X60452595Y-67449245D01*
X60452596Y-67449245D01*
X60452599Y-67449247D01*
X60660060Y-67529618D01*
X60878757Y-67570500D01*
X60878759Y-67570500D01*
X61101241Y-67570500D01*
X61101243Y-67570500D01*
X61319940Y-67529618D01*
X61527401Y-67449247D01*
X61716562Y-67332124D01*
X61880981Y-67182236D01*
X62015058Y-67004689D01*
X62114229Y-66805528D01*
X62175115Y-66591536D01*
X62195643Y-66370000D01*
X62175115Y-66148464D01*
X62114229Y-65934472D01*
X62114224Y-65934461D01*
X62015061Y-65735316D01*
X62015056Y-65735308D01*
X61880979Y-65557761D01*
X61716562Y-65407876D01*
X61716560Y-65407874D01*
X61527404Y-65290754D01*
X61527398Y-65290752D01*
X61319940Y-65210382D01*
X61101243Y-65169500D01*
X60878757Y-65169500D01*
X60660060Y-65210382D01*
X60528864Y-65261207D01*
X60452601Y-65290752D01*
X60452595Y-65290754D01*
X60263439Y-65407874D01*
X60263437Y-65407876D01*
X60099020Y-65557761D01*
X59964943Y-65735308D01*
X59964938Y-65735316D01*
X59865775Y-65934461D01*
X59865769Y-65934476D01*
X59804885Y-66148462D01*
X59804884Y-66148464D01*
X59784357Y-66369999D01*
X25033187Y-66369999D01*
X25031721Y-63437648D01*
X43389500Y-63437648D01*
X43389500Y-63642351D01*
X43421522Y-63844534D01*
X43484781Y-64039223D01*
X43577715Y-64221613D01*
X43698028Y-64387213D01*
X43842786Y-64531971D01*
X43997749Y-64644556D01*
X44008390Y-64652287D01*
X44124607Y-64711503D01*
X44190776Y-64745218D01*
X44190778Y-64745218D01*
X44190781Y-64745220D01*
X44288116Y-64776846D01*
X44385465Y-64808477D01*
X44486557Y-64824488D01*
X44587648Y-64840500D01*
X44587649Y-64840500D01*
X74897351Y-64840500D01*
X74897352Y-64840500D01*
X75099535Y-64808477D01*
X75196876Y-64776848D01*
X75294219Y-64745220D01*
X75385414Y-64698753D01*
X75476611Y-64652287D01*
X75642219Y-64531966D01*
X82236966Y-57937219D01*
X82357286Y-57771611D01*
X82450220Y-57589218D01*
X82513476Y-57394535D01*
X82545500Y-57192352D01*
X82545500Y-56987649D01*
X82513476Y-56785466D01*
X82513475Y-56785462D01*
X82513475Y-56785461D01*
X82450221Y-56590784D01*
X82450220Y-56590781D01*
X82357286Y-56408390D01*
X82248699Y-56258931D01*
X82236966Y-56242782D01*
X82092218Y-56098034D01*
X81926610Y-55977714D01*
X81926611Y-55977714D01*
X81926609Y-55977713D01*
X81744218Y-55884779D01*
X81744215Y-55884778D01*
X81549536Y-55821524D01*
X81411231Y-55799618D01*
X81347351Y-55789500D01*
X81142648Y-55789500D01*
X81078768Y-55799618D01*
X80940463Y-55821524D01*
X80940460Y-55821524D01*
X80745784Y-55884778D01*
X80563390Y-55977713D01*
X80563388Y-55977714D01*
X80397784Y-56098030D01*
X80397782Y-56098032D01*
X74292634Y-62203181D01*
X74231311Y-62236666D01*
X74204953Y-62239500D01*
X61000230Y-62239500D01*
X60933191Y-62219815D01*
X60887436Y-62167011D01*
X60877492Y-62097853D01*
X60880964Y-62081566D01*
X60915114Y-61961538D01*
X60915115Y-61961535D01*
X60935643Y-61740000D01*
X60935643Y-61739999D01*
X60915115Y-61518464D01*
X60915114Y-61518462D01*
X60908289Y-61494476D01*
X60854229Y-61304472D01*
X60849670Y-61295316D01*
X60755061Y-61105316D01*
X60755056Y-61105308D01*
X60620979Y-60927761D01*
X60456562Y-60777876D01*
X60456560Y-60777874D01*
X60267404Y-60660754D01*
X60267398Y-60660752D01*
X60059940Y-60580382D01*
X59841243Y-60539500D01*
X59618757Y-60539500D01*
X59400060Y-60580382D01*
X59268864Y-60631207D01*
X59192601Y-60660752D01*
X59192595Y-60660754D01*
X59003439Y-60777874D01*
X59003437Y-60777876D01*
X58839020Y-60927761D01*
X58704943Y-61105308D01*
X58704938Y-61105316D01*
X58605775Y-61304461D01*
X58605769Y-61304476D01*
X58544885Y-61518462D01*
X58544884Y-61518464D01*
X58524357Y-61739999D01*
X58524357Y-61740000D01*
X58544884Y-61961535D01*
X58544885Y-61961538D01*
X58579036Y-62081566D01*
X58578449Y-62151433D01*
X58540182Y-62209892D01*
X58476385Y-62238382D01*
X58459770Y-62239500D01*
X44587648Y-62239500D01*
X44563329Y-62243351D01*
X44385465Y-62271522D01*
X44190776Y-62334781D01*
X44008386Y-62427715D01*
X43842786Y-62548028D01*
X43698028Y-62692786D01*
X43577715Y-62858386D01*
X43484781Y-63040776D01*
X43421522Y-63235465D01*
X43389500Y-63437648D01*
X25031721Y-63437648D01*
X25016675Y-33348392D01*
X32724500Y-33348392D01*
X32724500Y-34651608D01*
X32728700Y-34694247D01*
X32739699Y-34805932D01*
X32766625Y-34894696D01*
X32799768Y-35003954D01*
X32897315Y-35186450D01*
X32934304Y-35231522D01*
X33028586Y-35346406D01*
X33028588Y-35346407D01*
X33028590Y-35346410D01*
X33028687Y-35346489D01*
X33028725Y-35346545D01*
X33032893Y-35350713D01*
X33032102Y-35351503D01*
X33068024Y-35404232D01*
X33069899Y-35474076D01*
X33050345Y-35515231D01*
X32963368Y-35634945D01*
X32845422Y-35866423D01*
X32765140Y-36113506D01*
X32724500Y-36370097D01*
X32724500Y-36629902D01*
X32765140Y-36886493D01*
X32845422Y-37133576D01*
X32905230Y-37250954D01*
X32962702Y-37363748D01*
X32963368Y-37365054D01*
X33116066Y-37575225D01*
X33116071Y-37575231D01*
X33203159Y-37662319D01*
X33236644Y-37723642D01*
X33231660Y-37793334D01*
X33203159Y-37837681D01*
X33116071Y-37924768D01*
X33116066Y-37924774D01*
X32963368Y-38134945D01*
X32845422Y-38366423D01*
X32765140Y-38613506D01*
X32724500Y-38870097D01*
X32724500Y-39129902D01*
X32765140Y-39386493D01*
X32845422Y-39633576D01*
X32889713Y-39720500D01*
X32955516Y-39849645D01*
X32963368Y-39865054D01*
X33110551Y-40067634D01*
X33116069Y-40075229D01*
X33299771Y-40258931D01*
X33509949Y-40411634D01*
X33657445Y-40486787D01*
X33741423Y-40529577D01*
X33741425Y-40529577D01*
X33741428Y-40529579D01*
X33988507Y-40609860D01*
X34120706Y-40630797D01*
X34245098Y-40650500D01*
X34245103Y-40650500D01*
X34754902Y-40650500D01*
X34868298Y-40632539D01*
X35011493Y-40609860D01*
X35258572Y-40529579D01*
X35490051Y-40411634D01*
X35700229Y-40258931D01*
X35883931Y-40075229D01*
X36036634Y-39865051D01*
X36154579Y-39633572D01*
X36234860Y-39386493D01*
X36261247Y-39219891D01*
X36275500Y-39129902D01*
X36275500Y-38870097D01*
X36253947Y-38734021D01*
X36234860Y-38613507D01*
X36154579Y-38366428D01*
X36154577Y-38366425D01*
X36154577Y-38366423D01*
X36060728Y-38182236D01*
X36036634Y-38134949D01*
X35936687Y-37997383D01*
X35913208Y-37931579D01*
X35929033Y-37863525D01*
X35979139Y-37814830D01*
X36037006Y-37800500D01*
X38829952Y-37800500D01*
X38896991Y-37820185D01*
X38917633Y-37836819D01*
X42524146Y-41443332D01*
X42557631Y-41504655D01*
X42560465Y-41531013D01*
X42560465Y-43018988D01*
X42540780Y-43086027D01*
X42524146Y-43106669D01*
X36447654Y-49183160D01*
X36386331Y-49216645D01*
X36316639Y-49211661D01*
X36260706Y-49169789D01*
X36241314Y-49131477D01*
X36200232Y-48996046D01*
X36102685Y-48813550D01*
X35995644Y-48683119D01*
X35971410Y-48653589D01*
X35853677Y-48556969D01*
X35811450Y-48522315D01*
X35628954Y-48424768D01*
X35430934Y-48364700D01*
X35430932Y-48364699D01*
X35430934Y-48364699D01*
X35311805Y-48352966D01*
X35276608Y-48349500D01*
X33723392Y-48349500D01*
X33685298Y-48353251D01*
X33569067Y-48364699D01*
X33371043Y-48424769D01*
X33260898Y-48483643D01*
X33188550Y-48522315D01*
X33188548Y-48522316D01*
X33188547Y-48522317D01*
X33028589Y-48653589D01*
X32897317Y-48813547D01*
X32799769Y-48996043D01*
X32739699Y-49194067D01*
X32724500Y-49348395D01*
X32724500Y-50651604D01*
X32739699Y-50805932D01*
X32769734Y-50904944D01*
X32799768Y-51003954D01*
X32897315Y-51186450D01*
X32897317Y-51186452D01*
X33028586Y-51346406D01*
X33028588Y-51346407D01*
X33028590Y-51346410D01*
X33028687Y-51346489D01*
X33028725Y-51346545D01*
X33032893Y-51350713D01*
X33032102Y-51351503D01*
X33068024Y-51404232D01*
X33069899Y-51474076D01*
X33050345Y-51515231D01*
X32963368Y-51634945D01*
X32845422Y-51866423D01*
X32765140Y-52113506D01*
X32724500Y-52370097D01*
X32724500Y-52629902D01*
X32765140Y-52886493D01*
X32845422Y-53133576D01*
X32926534Y-53292764D01*
X32958177Y-53354868D01*
X32963368Y-53365054D01*
X33116066Y-53575225D01*
X33116071Y-53575231D01*
X33203159Y-53662319D01*
X33236644Y-53723642D01*
X33231660Y-53793334D01*
X33203159Y-53837681D01*
X33116071Y-53924768D01*
X33116066Y-53924774D01*
X32963368Y-54134945D01*
X32845422Y-54366423D01*
X32765140Y-54613506D01*
X32724500Y-54870097D01*
X32724500Y-55129902D01*
X32765140Y-55386493D01*
X32845422Y-55633576D01*
X32895635Y-55732123D01*
X32955313Y-55849247D01*
X32963368Y-55865054D01*
X33045220Y-55977714D01*
X33116069Y-56075229D01*
X33299771Y-56258931D01*
X33509949Y-56411634D01*
X33657445Y-56486787D01*
X33741423Y-56529577D01*
X33741425Y-56529577D01*
X33741428Y-56529579D01*
X33988507Y-56609860D01*
X34120706Y-56630797D01*
X34245098Y-56650500D01*
X34245103Y-56650500D01*
X34754902Y-56650500D01*
X34868298Y-56632539D01*
X35011493Y-56609860D01*
X35258572Y-56529579D01*
X35490051Y-56411634D01*
X35700229Y-56258931D01*
X35883931Y-56075229D01*
X36036634Y-55865051D01*
X36154579Y-55633572D01*
X36234860Y-55386493D01*
X36263520Y-55205538D01*
X36275500Y-55129902D01*
X36275500Y-54870097D01*
X36259646Y-54769999D01*
X45414357Y-54769999D01*
X45414357Y-54770000D01*
X45434884Y-54991535D01*
X45434885Y-54991537D01*
X45495769Y-55205523D01*
X45495775Y-55205538D01*
X45594938Y-55404683D01*
X45594943Y-55404691D01*
X45729020Y-55582238D01*
X45893437Y-55732123D01*
X45893439Y-55732125D01*
X46082595Y-55849245D01*
X46082596Y-55849245D01*
X46082599Y-55849247D01*
X46290060Y-55929618D01*
X46508757Y-55970500D01*
X46508759Y-55970500D01*
X46731241Y-55970500D01*
X46731243Y-55970500D01*
X46949940Y-55929618D01*
X47157401Y-55849247D01*
X47346562Y-55732124D01*
X47510981Y-55582236D01*
X47645058Y-55404689D01*
X47744229Y-55205528D01*
X47805115Y-54991536D01*
X47825643Y-54770000D01*
X47813597Y-54639999D01*
X58204357Y-54639999D01*
X58204357Y-54640000D01*
X58224884Y-54861535D01*
X58224885Y-54861537D01*
X58285769Y-55075523D01*
X58285775Y-55075538D01*
X58384938Y-55274683D01*
X58384943Y-55274691D01*
X58519020Y-55452238D01*
X58683437Y-55602123D01*
X58683439Y-55602125D01*
X58872595Y-55719245D01*
X58872596Y-55719245D01*
X58872599Y-55719247D01*
X59080060Y-55799618D01*
X59298757Y-55840500D01*
X59298759Y-55840500D01*
X59521241Y-55840500D01*
X59521243Y-55840500D01*
X59739940Y-55799618D01*
X59947401Y-55719247D01*
X60136562Y-55602124D01*
X60300981Y-55452236D01*
X60435058Y-55274689D01*
X60534229Y-55075528D01*
X60595115Y-54861536D01*
X60615643Y-54640000D01*
X60606240Y-54538529D01*
X60595115Y-54418464D01*
X60595114Y-54418462D01*
X60566243Y-54316992D01*
X60534229Y-54204472D01*
X60534224Y-54204461D01*
X60435061Y-54005316D01*
X60435056Y-54005308D01*
X60300979Y-53827761D01*
X60136562Y-53677876D01*
X60136560Y-53677874D01*
X59947404Y-53560754D01*
X59947398Y-53560752D01*
X59739940Y-53480382D01*
X59521243Y-53439500D01*
X59298757Y-53439500D01*
X59080060Y-53480382D01*
X59017144Y-53504756D01*
X58872601Y-53560752D01*
X58872595Y-53560754D01*
X58683439Y-53677874D01*
X58683437Y-53677876D01*
X58519020Y-53827761D01*
X58384943Y-54005308D01*
X58384938Y-54005316D01*
X58285775Y-54204461D01*
X58285769Y-54204476D01*
X58224885Y-54418462D01*
X58224884Y-54418464D01*
X58204357Y-54639999D01*
X47813597Y-54639999D01*
X47805115Y-54548464D01*
X47744229Y-54334472D01*
X47735525Y-54316992D01*
X47645061Y-54135316D01*
X47645056Y-54135308D01*
X47510979Y-53957761D01*
X47346562Y-53807876D01*
X47346560Y-53807874D01*
X47157404Y-53690754D01*
X47157398Y-53690752D01*
X46949940Y-53610382D01*
X46731243Y-53569500D01*
X46508757Y-53569500D01*
X46290060Y-53610382D01*
X46158864Y-53661207D01*
X46082601Y-53690752D01*
X46082595Y-53690754D01*
X45893439Y-53807874D01*
X45893437Y-53807876D01*
X45729020Y-53957761D01*
X45594943Y-54135308D01*
X45594938Y-54135316D01*
X45495775Y-54334461D01*
X45495769Y-54334476D01*
X45434885Y-54548462D01*
X45434884Y-54548464D01*
X45414357Y-54769999D01*
X36259646Y-54769999D01*
X36253947Y-54734021D01*
X36234860Y-54613507D01*
X36154579Y-54366428D01*
X36154577Y-54366425D01*
X36154577Y-54366423D01*
X36111787Y-54282445D01*
X36036634Y-54134949D01*
X35883931Y-53924771D01*
X35796841Y-53837681D01*
X35763356Y-53776358D01*
X35768340Y-53706666D01*
X35796841Y-53662319D01*
X35883931Y-53575229D01*
X36036634Y-53365051D01*
X36123812Y-53193953D01*
X36146612Y-53162571D01*
X40249185Y-49059999D01*
X48774357Y-49059999D01*
X48774357Y-49060000D01*
X48794884Y-49281535D01*
X48794885Y-49281537D01*
X48855769Y-49495523D01*
X48855775Y-49495538D01*
X48954938Y-49694683D01*
X48954943Y-49694691D01*
X49089020Y-49872238D01*
X49253437Y-50022123D01*
X49253439Y-50022125D01*
X49442595Y-50139245D01*
X49442596Y-50139245D01*
X49442599Y-50139247D01*
X49650060Y-50219618D01*
X49868757Y-50260500D01*
X49868759Y-50260500D01*
X50091241Y-50260500D01*
X50091243Y-50260500D01*
X50309940Y-50219618D01*
X50517401Y-50139247D01*
X50706562Y-50022124D01*
X50818588Y-49919999D01*
X57874357Y-49919999D01*
X57874357Y-49920000D01*
X57894884Y-50141535D01*
X57894885Y-50141537D01*
X57955769Y-50355523D01*
X57955775Y-50355538D01*
X58054938Y-50554683D01*
X58054943Y-50554691D01*
X58189020Y-50732238D01*
X58353437Y-50882123D01*
X58353439Y-50882125D01*
X58542595Y-50999245D01*
X58542596Y-50999245D01*
X58542599Y-50999247D01*
X58750060Y-51079618D01*
X58968757Y-51120500D01*
X58968759Y-51120500D01*
X59191241Y-51120500D01*
X59191243Y-51120500D01*
X59409940Y-51079618D01*
X59617401Y-50999247D01*
X59806562Y-50882124D01*
X59964794Y-50737876D01*
X59970979Y-50732238D01*
X60055169Y-50620753D01*
X60105058Y-50554689D01*
X60204229Y-50355528D01*
X60265115Y-50141536D01*
X60285643Y-49920000D01*
X60265115Y-49698464D01*
X60204229Y-49484472D01*
X60204224Y-49484461D01*
X60105061Y-49285316D01*
X60105056Y-49285308D01*
X59970979Y-49107761D01*
X59806562Y-48957876D01*
X59806560Y-48957874D01*
X59617404Y-48840754D01*
X59617398Y-48840752D01*
X59611487Y-48838462D01*
X59409940Y-48760382D01*
X59191243Y-48719500D01*
X58968757Y-48719500D01*
X58750060Y-48760382D01*
X58618864Y-48811207D01*
X58542601Y-48840752D01*
X58542595Y-48840754D01*
X58353439Y-48957874D01*
X58353437Y-48957876D01*
X58189020Y-49107761D01*
X58054943Y-49285308D01*
X58054938Y-49285316D01*
X57955775Y-49484461D01*
X57955769Y-49484476D01*
X57894885Y-49698462D01*
X57894884Y-49698464D01*
X57874357Y-49919999D01*
X50818588Y-49919999D01*
X50870981Y-49872236D01*
X51005058Y-49694689D01*
X51104229Y-49495528D01*
X51165115Y-49281536D01*
X51185643Y-49060000D01*
X51180147Y-49000693D01*
X51165115Y-48838464D01*
X51165114Y-48838462D01*
X51142898Y-48760382D01*
X51104229Y-48624472D01*
X51089772Y-48595438D01*
X51005061Y-48425316D01*
X51005056Y-48425308D01*
X50870979Y-48247761D01*
X50706562Y-48097876D01*
X50706560Y-48097874D01*
X50517404Y-47980754D01*
X50517398Y-47980752D01*
X50309940Y-47900382D01*
X50091243Y-47859500D01*
X49868757Y-47859500D01*
X49650060Y-47900382D01*
X49518864Y-47951207D01*
X49442601Y-47980752D01*
X49442595Y-47980754D01*
X49253439Y-48097874D01*
X49253437Y-48097876D01*
X49089020Y-48247761D01*
X48954943Y-48425308D01*
X48954938Y-48425316D01*
X48855775Y-48624461D01*
X48855769Y-48624476D01*
X48794885Y-48838462D01*
X48794884Y-48838464D01*
X48774357Y-49059999D01*
X40249185Y-49059999D01*
X41731028Y-47578156D01*
X60543864Y-47578156D01*
X60543864Y-47782859D01*
X60575886Y-47985042D01*
X60639145Y-48179731D01*
X60732079Y-48362121D01*
X60852392Y-48527721D01*
X60920109Y-48595438D01*
X60953594Y-48656761D01*
X60956428Y-48683119D01*
X60956428Y-58507886D01*
X60936743Y-58574925D01*
X60915967Y-58599522D01*
X60874021Y-58637761D01*
X60739943Y-58815308D01*
X60739938Y-58815316D01*
X60640775Y-59014461D01*
X60640769Y-59014476D01*
X60579885Y-59228462D01*
X60579884Y-59228464D01*
X60559357Y-59449999D01*
X60559357Y-59450000D01*
X60579884Y-59671535D01*
X60579885Y-59671537D01*
X60640769Y-59885523D01*
X60640775Y-59885538D01*
X60739938Y-60084683D01*
X60739943Y-60084691D01*
X60874020Y-60262238D01*
X61038437Y-60412123D01*
X61038439Y-60412125D01*
X61227595Y-60529245D01*
X61227596Y-60529245D01*
X61227599Y-60529247D01*
X61435060Y-60609618D01*
X61653757Y-60650500D01*
X61693020Y-60650500D01*
X61749316Y-60664016D01*
X61757705Y-60668290D01*
X61757709Y-60668292D01*
X61952394Y-60731549D01*
X62154576Y-60763572D01*
X62154577Y-60763572D01*
X62359279Y-60763572D01*
X62359280Y-60763572D01*
X62561462Y-60731549D01*
X62756147Y-60668292D01*
X62938538Y-60575359D01*
X63031518Y-60507804D01*
X63104141Y-60455043D01*
X63104143Y-60455040D01*
X63104147Y-60455038D01*
X63248894Y-60310291D01*
X63248896Y-60310287D01*
X63248899Y-60310285D01*
X63301660Y-60237662D01*
X63369215Y-60144682D01*
X63462148Y-59962291D01*
X63525405Y-59767606D01*
X63557428Y-59565424D01*
X63557428Y-49105008D01*
X63577113Y-49037969D01*
X63629917Y-48992214D01*
X63681428Y-48981008D01*
X74499139Y-48981008D01*
X74566178Y-49000693D01*
X74586820Y-49017327D01*
X78749620Y-53180127D01*
X78915228Y-53300448D01*
X79006424Y-53346914D01*
X79097620Y-53393381D01*
X79136276Y-53405941D01*
X79292304Y-53456638D01*
X79494487Y-53488661D01*
X79494488Y-53488661D01*
X80757351Y-53488661D01*
X80757352Y-53488661D01*
X80959535Y-53456638D01*
X81115563Y-53405941D01*
X81154219Y-53393381D01*
X81245414Y-53346914D01*
X81336611Y-53300448D01*
X81502219Y-53180127D01*
X81975527Y-52706819D01*
X82036850Y-52673334D01*
X82063208Y-52670500D01*
X86832351Y-52670500D01*
X86832352Y-52670500D01*
X87034535Y-52638477D01*
X87151772Y-52600384D01*
X87151773Y-52600384D01*
X87229214Y-52575222D01*
X87229216Y-52575220D01*
X87229219Y-52575220D01*
X87352832Y-52512236D01*
X87411611Y-52482287D01*
X87577219Y-52361966D01*
X98101966Y-41837218D01*
X98200182Y-41702035D01*
X98255512Y-41659369D01*
X98325125Y-41653390D01*
X98386920Y-41685996D01*
X98421277Y-41746834D01*
X98424500Y-41774920D01*
X98424500Y-46379740D01*
X98411500Y-46435012D01*
X98350775Y-46556961D01*
X98350769Y-46556976D01*
X98289885Y-46770962D01*
X98289884Y-46770964D01*
X98269357Y-46992499D01*
X98269357Y-46992500D01*
X98289884Y-47214033D01*
X98290545Y-47217565D01*
X98290371Y-47219282D01*
X98290414Y-47219744D01*
X98290323Y-47219752D01*
X98283513Y-47287080D01*
X98256337Y-47328030D01*
X96626494Y-48957874D01*
X95167304Y-50417064D01*
X95167301Y-50417067D01*
X95094140Y-50490228D01*
X95020979Y-50563388D01*
X94906014Y-50735447D01*
X94826826Y-50926623D01*
X94826824Y-50926631D01*
X94786456Y-51129574D01*
X94786456Y-51862240D01*
X94773456Y-51917512D01*
X94712731Y-52039461D01*
X94712725Y-52039476D01*
X94651841Y-52253462D01*
X94651840Y-52253464D01*
X94631313Y-52474999D01*
X94631313Y-52475000D01*
X94651840Y-52696535D01*
X94651841Y-52696537D01*
X94712725Y-52910523D01*
X94712726Y-52910525D01*
X94712727Y-52910528D01*
X94773456Y-53032486D01*
X94786456Y-53087758D01*
X94786456Y-58460425D01*
X94825100Y-58654699D01*
X94826826Y-58663376D01*
X94906015Y-58854554D01*
X95020979Y-59026611D01*
X95167301Y-59172933D01*
X95167302Y-59172933D01*
X95174369Y-59180000D01*
X95174368Y-59180000D01*
X95174372Y-59180003D01*
X98033217Y-62038849D01*
X98066702Y-62100172D01*
X98069007Y-62115087D01*
X98072385Y-62151536D01*
X98072385Y-62151537D01*
X98133269Y-62365523D01*
X98133275Y-62365538D01*
X98232438Y-62564683D01*
X98232443Y-62564691D01*
X98366520Y-62742238D01*
X98530937Y-62892123D01*
X98530939Y-62892125D01*
X98720095Y-63009245D01*
X98720096Y-63009245D01*
X98720099Y-63009247D01*
X98927560Y-63089618D01*
X99146257Y-63130500D01*
X99146259Y-63130500D01*
X99368741Y-63130500D01*
X99368743Y-63130500D01*
X99587440Y-63089618D01*
X99794901Y-63009247D01*
X99984062Y-62892124D01*
X100148481Y-62742236D01*
X100282558Y-62564689D01*
X100381729Y-62365528D01*
X100442615Y-62151536D01*
X100463143Y-61930000D01*
X100462707Y-61925300D01*
X100442615Y-61708464D01*
X100442614Y-61708462D01*
X100381730Y-61494476D01*
X100381729Y-61494472D01*
X100381724Y-61494461D01*
X100282561Y-61295316D01*
X100282556Y-61295308D01*
X100148479Y-61117761D01*
X99984063Y-60967877D01*
X99984062Y-60967876D01*
X99863542Y-60893253D01*
X99841139Y-60875507D01*
X98604027Y-59638395D01*
X113499500Y-59638395D01*
X113499500Y-60941604D01*
X113514699Y-61095932D01*
X113517544Y-61105311D01*
X113574768Y-61293954D01*
X113672315Y-61476450D01*
X113706793Y-61518462D01*
X113803589Y-61636410D01*
X113900209Y-61715702D01*
X113963550Y-61767685D01*
X114146046Y-61865232D01*
X114344066Y-61925300D01*
X114344065Y-61925300D01*
X114382647Y-61929100D01*
X114498392Y-61940500D01*
X114498395Y-61940500D01*
X116101605Y-61940500D01*
X116101608Y-61940500D01*
X116255934Y-61925300D01*
X116453954Y-61865232D01*
X116636450Y-61767685D01*
X116796410Y-61636410D01*
X116927685Y-61476450D01*
X117025232Y-61293954D01*
X117085300Y-61095934D01*
X117100500Y-60941608D01*
X117100500Y-59638392D01*
X117085300Y-59484066D01*
X117025232Y-59286046D01*
X116927685Y-59103550D01*
X116864543Y-59026611D01*
X116796410Y-58943589D01*
X116678677Y-58846969D01*
X116636450Y-58812315D01*
X116453954Y-58714768D01*
X116255934Y-58654700D01*
X116255932Y-58654699D01*
X116255934Y-58654699D01*
X116136805Y-58642966D01*
X116101608Y-58639500D01*
X114498392Y-58639500D01*
X114460298Y-58643251D01*
X114344067Y-58654699D01*
X114146043Y-58714769D01*
X114035898Y-58773643D01*
X113963550Y-58812315D01*
X113963548Y-58812316D01*
X113963547Y-58812317D01*
X113803589Y-58943589D01*
X113672317Y-59103547D01*
X113574769Y-59286043D01*
X113514699Y-59484067D01*
X113499500Y-59638395D01*
X98604027Y-59638395D01*
X96923775Y-57958143D01*
X96890290Y-57896820D01*
X96887456Y-57870462D01*
X96887456Y-55613690D01*
X96907141Y-55546651D01*
X96959945Y-55500896D01*
X96988665Y-55491802D01*
X97069940Y-55476610D01*
X97277401Y-55396239D01*
X97466562Y-55279116D01*
X97630981Y-55129228D01*
X97765058Y-54951681D01*
X97864229Y-54752520D01*
X97925115Y-54538528D01*
X97945643Y-54316992D01*
X97925115Y-54095456D01*
X97864229Y-53881464D01*
X97842428Y-53837681D01*
X97765061Y-53682308D01*
X97765056Y-53682300D01*
X97630979Y-53504753D01*
X97466562Y-53354868D01*
X97466560Y-53354866D01*
X97277404Y-53237746D01*
X97277398Y-53237744D01*
X97069940Y-53157374D01*
X97069935Y-53157373D01*
X97069929Y-53157371D01*
X97019403Y-53147926D01*
X96957122Y-53116258D01*
X96921850Y-53055945D01*
X96924784Y-52986137D01*
X96931185Y-52970774D01*
X96961185Y-52910528D01*
X97022071Y-52696536D01*
X97042599Y-52475000D01*
X97032878Y-52370097D01*
X97022071Y-52253464D01*
X97022070Y-52253462D01*
X96961186Y-52039476D01*
X96961185Y-52039472D01*
X96900456Y-51917512D01*
X96887456Y-51862240D01*
X96887456Y-51719536D01*
X96893193Y-51699999D01*
X106504357Y-51699999D01*
X106504357Y-51700000D01*
X106524884Y-51921535D01*
X106524885Y-51921537D01*
X106585769Y-52135523D01*
X106585775Y-52135538D01*
X106684938Y-52334683D01*
X106684943Y-52334691D01*
X106819019Y-52512236D01*
X106819019Y-52512237D01*
X106983437Y-52662123D01*
X106983439Y-52662125D01*
X107172595Y-52779245D01*
X107172596Y-52779245D01*
X107172599Y-52779247D01*
X107380060Y-52859618D01*
X107598757Y-52900500D01*
X107598759Y-52900500D01*
X107821241Y-52900500D01*
X107821243Y-52900500D01*
X108039940Y-52859618D01*
X108247401Y-52779247D01*
X108436562Y-52662124D01*
X108587629Y-52524407D01*
X108600980Y-52512237D01*
X108600981Y-52512236D01*
X108629101Y-52474999D01*
X108735058Y-52334689D01*
X108834229Y-52135528D01*
X108895115Y-51921536D01*
X108915643Y-51700000D01*
X108895115Y-51478464D01*
X108834229Y-51264472D01*
X108834224Y-51264461D01*
X108735061Y-51065316D01*
X108735056Y-51065308D01*
X108600979Y-50887761D01*
X108436562Y-50737876D01*
X108436560Y-50737874D01*
X108247404Y-50620754D01*
X108247398Y-50620752D01*
X108039940Y-50540382D01*
X107821243Y-50499500D01*
X107598757Y-50499500D01*
X107380060Y-50540382D01*
X107248864Y-50591207D01*
X107172601Y-50620752D01*
X107172595Y-50620754D01*
X106983439Y-50737874D01*
X106983437Y-50737876D01*
X106819020Y-50887761D01*
X106684943Y-51065308D01*
X106684938Y-51065316D01*
X106585775Y-51264461D01*
X106585769Y-51264476D01*
X106524885Y-51478462D01*
X106524884Y-51478464D01*
X106504357Y-51699999D01*
X96893193Y-51699999D01*
X96907141Y-51652497D01*
X96923770Y-51631860D01*
X100144651Y-48410979D01*
X100144655Y-48410977D01*
X100290977Y-48264655D01*
X100405941Y-48092598D01*
X100485130Y-47901420D01*
X100525500Y-47698465D01*
X100525500Y-47605258D01*
X100538500Y-47549986D01*
X100599229Y-47428028D01*
X100660115Y-47214036D01*
X100680643Y-46992500D01*
X100660115Y-46770964D01*
X100599229Y-46556972D01*
X100581262Y-46520890D01*
X100538500Y-46435012D01*
X100525500Y-46379740D01*
X100525500Y-40109600D01*
X100525501Y-40109579D01*
X100525501Y-39896532D01*
X100485131Y-39693585D01*
X100485129Y-39693579D01*
X100479347Y-39679621D01*
X100479345Y-39679615D01*
X100443661Y-39593465D01*
X100432403Y-39566285D01*
X100405942Y-39502402D01*
X100405940Y-39502400D01*
X100405940Y-39502398D01*
X100290977Y-39330345D01*
X100290974Y-39330341D01*
X93913047Y-32952416D01*
X93913045Y-32952413D01*
X93790253Y-32829621D01*
X93778979Y-32816666D01*
X93768479Y-32802761D01*
X93604062Y-32652876D01*
X93604060Y-32652874D01*
X93414904Y-32535754D01*
X93414898Y-32535751D01*
X93295815Y-32489618D01*
X93225418Y-32462346D01*
X93182533Y-32434402D01*
X92526819Y-31778688D01*
X92493334Y-31717365D01*
X92490500Y-31691007D01*
X92490500Y-30379999D01*
X93604357Y-30379999D01*
X93604357Y-30380000D01*
X93624884Y-30601535D01*
X93624885Y-30601537D01*
X93685769Y-30815523D01*
X93685775Y-30815538D01*
X93784938Y-31014683D01*
X93784943Y-31014691D01*
X93919020Y-31192238D01*
X94083437Y-31342123D01*
X94083439Y-31342125D01*
X94272595Y-31459245D01*
X94272596Y-31459245D01*
X94272599Y-31459247D01*
X94480060Y-31539618D01*
X94698757Y-31580500D01*
X94698759Y-31580500D01*
X94749624Y-31580500D01*
X94816663Y-31600185D01*
X94862418Y-31652989D01*
X94872362Y-31722147D01*
X94862435Y-31753966D01*
X94862846Y-31754125D01*
X94860771Y-31759478D01*
X94799890Y-31973456D01*
X94799889Y-31973459D01*
X94779362Y-32194994D01*
X94779362Y-32194995D01*
X94799889Y-32416530D01*
X94799890Y-32416532D01*
X94860774Y-32630518D01*
X94860780Y-32630533D01*
X94959943Y-32829678D01*
X94959948Y-32829686D01*
X95094025Y-33007233D01*
X95258442Y-33157118D01*
X95258444Y-33157120D01*
X95447600Y-33274240D01*
X95447601Y-33274240D01*
X95447604Y-33274242D01*
X95655065Y-33354613D01*
X95873762Y-33395495D01*
X95873764Y-33395495D01*
X96096246Y-33395495D01*
X96096248Y-33395495D01*
X96314945Y-33354613D01*
X96522406Y-33274242D01*
X96711567Y-33157119D01*
X96875986Y-33007231D01*
X97010063Y-32829684D01*
X97109234Y-32630523D01*
X97170120Y-32416531D01*
X97190648Y-32194995D01*
X97184208Y-32125500D01*
X97170120Y-31973459D01*
X97170119Y-31973457D01*
X97164798Y-31954756D01*
X97109234Y-31759467D01*
X97109229Y-31759456D01*
X97010066Y-31560311D01*
X97010061Y-31560303D01*
X96875984Y-31382756D01*
X96711567Y-31232871D01*
X96711565Y-31232869D01*
X96522409Y-31115749D01*
X96522403Y-31115747D01*
X96314945Y-31035377D01*
X96096248Y-30994495D01*
X96045380Y-30994495D01*
X95978341Y-30974810D01*
X95932586Y-30922006D01*
X95922642Y-30852848D01*
X95932568Y-30821034D01*
X95932157Y-30820875D01*
X95934224Y-30815536D01*
X95934229Y-30815528D01*
X95995115Y-30601536D01*
X96015643Y-30380000D01*
X96007047Y-30287238D01*
X95995115Y-30158464D01*
X95995114Y-30158462D01*
X95981235Y-30109683D01*
X95934229Y-29944472D01*
X95917327Y-29910528D01*
X95835061Y-29745316D01*
X95835056Y-29745308D01*
X95700979Y-29567761D01*
X95536562Y-29417876D01*
X95536560Y-29417874D01*
X95347404Y-29300754D01*
X95347398Y-29300752D01*
X95139940Y-29220382D01*
X94921243Y-29179500D01*
X94698757Y-29179500D01*
X94480060Y-29220382D01*
X94451266Y-29231537D01*
X94272601Y-29300752D01*
X94272595Y-29300754D01*
X94083439Y-29417874D01*
X94083437Y-29417876D01*
X93919020Y-29567761D01*
X93784943Y-29745308D01*
X93784938Y-29745316D01*
X93685775Y-29944461D01*
X93685769Y-29944476D01*
X93624885Y-30158462D01*
X93624884Y-30158464D01*
X93604357Y-30379999D01*
X92490500Y-30379999D01*
X92490500Y-29622758D01*
X92503500Y-29567486D01*
X92514887Y-29544618D01*
X92564229Y-29445528D01*
X92625115Y-29231536D01*
X92645643Y-29010000D01*
X92637052Y-28917292D01*
X92625115Y-28788464D01*
X92625114Y-28788462D01*
X92589349Y-28662762D01*
X92564229Y-28574472D01*
X92533557Y-28512874D01*
X92465061Y-28375316D01*
X92465056Y-28375308D01*
X92330979Y-28197761D01*
X92166562Y-28047876D01*
X92166560Y-28047874D01*
X91977404Y-27930754D01*
X91977398Y-27930752D01*
X91769940Y-27850382D01*
X91551243Y-27809500D01*
X91328757Y-27809500D01*
X91110060Y-27850382D01*
X90978864Y-27901207D01*
X90902601Y-27930752D01*
X90902595Y-27930754D01*
X90708563Y-28050894D01*
X90707156Y-28048621D01*
X90652200Y-28069176D01*
X90643242Y-28069500D01*
X80919110Y-28069500D01*
X80853833Y-28050927D01*
X80837404Y-28040754D01*
X80837398Y-28040752D01*
X80629940Y-27960382D01*
X80411243Y-27919500D01*
X80188757Y-27919500D01*
X79970060Y-27960382D01*
X79838864Y-28011207D01*
X79762601Y-28040752D01*
X79762595Y-28040754D01*
X79573439Y-28157874D01*
X79573437Y-28157876D01*
X79409018Y-28307763D01*
X79409016Y-28307766D01*
X79369401Y-28360226D01*
X79313293Y-28401863D01*
X79270447Y-28409500D01*
X77712164Y-28409500D01*
X77646887Y-28390927D01*
X77517404Y-28310754D01*
X77517398Y-28310751D01*
X77386989Y-28260231D01*
X77327918Y-28237346D01*
X77285033Y-28209402D01*
X74330317Y-25254686D01*
X74330297Y-25254664D01*
X74179657Y-25104024D01*
X74093626Y-25046541D01*
X74007598Y-24989059D01*
X73816420Y-24909870D01*
X73816412Y-24909868D01*
X73613469Y-24869500D01*
X73613465Y-24869500D01*
X64799110Y-24869500D01*
X64733833Y-24850927D01*
X64717404Y-24840754D01*
X64717398Y-24840752D01*
X64509940Y-24760382D01*
X64291243Y-24719500D01*
X64068757Y-24719500D01*
X63850060Y-24760382D01*
X63718864Y-24811207D01*
X63642601Y-24840752D01*
X63642595Y-24840754D01*
X63453439Y-24957874D01*
X63453437Y-24957876D01*
X63289020Y-25107761D01*
X63154943Y-25285308D01*
X63154938Y-25285316D01*
X63055775Y-25484461D01*
X63055769Y-25484476D01*
X62994885Y-25698462D01*
X62994884Y-25698464D01*
X62974357Y-25919999D01*
X62974357Y-25920000D01*
X62994884Y-26141535D01*
X62994885Y-26141537D01*
X63055769Y-26355523D01*
X63055775Y-26355538D01*
X63154938Y-26554683D01*
X63154943Y-26554691D01*
X63289020Y-26732238D01*
X63453437Y-26882123D01*
X63453439Y-26882125D01*
X63642595Y-26999245D01*
X63642597Y-26999246D01*
X63642599Y-26999247D01*
X63737222Y-27035904D01*
X63792624Y-27078477D01*
X63816215Y-27144243D01*
X63800504Y-27212324D01*
X63750480Y-27261103D01*
X63737223Y-27267157D01*
X63637610Y-27305747D01*
X63637595Y-27305754D01*
X63448439Y-27422874D01*
X63448437Y-27422876D01*
X63284020Y-27572761D01*
X63149943Y-27750308D01*
X63149938Y-27750316D01*
X63050775Y-27949461D01*
X63050769Y-27949476D01*
X62989885Y-28163462D01*
X62989884Y-28163464D01*
X62969357Y-28384999D01*
X62969357Y-28385000D01*
X62989884Y-28606535D01*
X62989885Y-28606537D01*
X63050769Y-28820523D01*
X63050775Y-28820538D01*
X63149938Y-29019683D01*
X63149943Y-29019691D01*
X63284020Y-29197238D01*
X63448437Y-29347123D01*
X63448439Y-29347125D01*
X63637595Y-29464245D01*
X63637596Y-29464245D01*
X63637599Y-29464247D01*
X63845060Y-29544618D01*
X64063757Y-29585500D01*
X64063759Y-29585500D01*
X64286241Y-29585500D01*
X64286243Y-29585500D01*
X64504940Y-29544618D01*
X64712401Y-29464247D01*
X64901562Y-29347124D01*
X65065981Y-29197236D01*
X65200058Y-29019689D01*
X65299229Y-28820528D01*
X65360115Y-28606536D01*
X65371676Y-28481768D01*
X65643773Y-28481768D01*
X65643773Y-28481769D01*
X65664300Y-28703304D01*
X65664301Y-28703306D01*
X65725185Y-28917292D01*
X65725191Y-28917307D01*
X65824354Y-29116452D01*
X65824359Y-29116460D01*
X65871965Y-29179500D01*
X65927818Y-29253462D01*
X65958437Y-29294007D01*
X65960306Y-29296057D01*
X65960889Y-29297254D01*
X65961890Y-29298579D01*
X65961630Y-29298774D01*
X65990921Y-29358863D01*
X65992137Y-29391032D01*
X65984357Y-29474998D01*
X65984357Y-29475000D01*
X66004884Y-29696535D01*
X66004885Y-29696537D01*
X66065769Y-29910523D01*
X66065775Y-29910538D01*
X66164938Y-30109683D01*
X66164943Y-30109691D01*
X66299020Y-30287238D01*
X66463437Y-30437123D01*
X66463439Y-30437125D01*
X66652595Y-30554245D01*
X66652596Y-30554245D01*
X66652599Y-30554247D01*
X66860060Y-30634618D01*
X67078757Y-30675500D01*
X67078759Y-30675500D01*
X67301241Y-30675500D01*
X67301243Y-30675500D01*
X67519940Y-30634618D01*
X67727401Y-30554247D01*
X67916562Y-30437124D01*
X68080981Y-30287236D01*
X68130207Y-30222049D01*
X68166046Y-30174592D01*
X68222155Y-30132955D01*
X68291866Y-30128263D01*
X68353049Y-30162006D01*
X68363954Y-30174592D01*
X68449017Y-30287234D01*
X68449019Y-30287237D01*
X68613437Y-30437123D01*
X68613439Y-30437125D01*
X68802595Y-30554245D01*
X68802596Y-30554245D01*
X68802599Y-30554247D01*
X69010060Y-30634618D01*
X69228757Y-30675500D01*
X69228759Y-30675500D01*
X69451241Y-30675500D01*
X69451243Y-30675500D01*
X69669940Y-30634618D01*
X69877401Y-30554247D01*
X70066562Y-30437124D01*
X70225212Y-30292495D01*
X70230979Y-30287238D01*
X70230983Y-30287234D01*
X70365058Y-30109689D01*
X70464229Y-29910528D01*
X70525115Y-29696536D01*
X70545643Y-29475000D01*
X70544646Y-29464245D01*
X70525115Y-29253464D01*
X70525114Y-29253462D01*
X70518875Y-29231535D01*
X70464229Y-29039472D01*
X70464224Y-29039461D01*
X70365061Y-28840316D01*
X70365056Y-28840308D01*
X70230979Y-28662761D01*
X70066562Y-28512876D01*
X70066560Y-28512874D01*
X69877404Y-28395754D01*
X69877398Y-28395752D01*
X69669940Y-28315382D01*
X69451243Y-28274500D01*
X69228757Y-28274500D01*
X69010060Y-28315382D01*
X68894305Y-28360226D01*
X68802601Y-28395752D01*
X68802595Y-28395754D01*
X68613439Y-28512874D01*
X68613437Y-28512876D01*
X68449020Y-28662762D01*
X68363953Y-28775408D01*
X68307843Y-28817044D01*
X68238131Y-28821735D01*
X68176950Y-28787993D01*
X68166049Y-28775413D01*
X68080981Y-28662764D01*
X68080974Y-28662757D01*
X68079109Y-28660711D01*
X68078524Y-28659512D01*
X68077526Y-28658190D01*
X68077784Y-28657994D01*
X68048494Y-28597906D01*
X68047278Y-28565738D01*
X68055059Y-28481769D01*
X68047088Y-28395752D01*
X68034531Y-28260233D01*
X68034530Y-28260231D01*
X68028019Y-28237348D01*
X67973645Y-28046241D01*
X67970913Y-28040754D01*
X67874477Y-27847085D01*
X67874472Y-27847077D01*
X67740395Y-27669530D01*
X67575978Y-27519645D01*
X67575976Y-27519643D01*
X67386820Y-27402523D01*
X67386814Y-27402521D01*
X67179356Y-27322151D01*
X66960659Y-27281269D01*
X66738173Y-27281269D01*
X66519476Y-27322151D01*
X66388280Y-27372976D01*
X66312017Y-27402521D01*
X66312011Y-27402523D01*
X66122855Y-27519643D01*
X66122853Y-27519645D01*
X65958436Y-27669530D01*
X65824359Y-27847077D01*
X65824354Y-27847085D01*
X65725191Y-28046230D01*
X65725185Y-28046245D01*
X65664301Y-28260231D01*
X65664300Y-28260233D01*
X65643773Y-28481768D01*
X65371676Y-28481768D01*
X65380643Y-28385000D01*
X65360115Y-28163464D01*
X65299229Y-27949472D01*
X65299224Y-27949461D01*
X65200061Y-27750316D01*
X65200056Y-27750308D01*
X65065979Y-27572761D01*
X64901562Y-27422876D01*
X64901560Y-27422874D01*
X64712404Y-27305754D01*
X64712398Y-27305751D01*
X64617776Y-27269095D01*
X64562374Y-27226522D01*
X64538784Y-27160755D01*
X64554495Y-27092675D01*
X64604519Y-27043896D01*
X64617767Y-27037845D01*
X64717401Y-26999247D01*
X64733833Y-26989073D01*
X64799110Y-26970500D01*
X73023507Y-26970500D01*
X73090546Y-26990185D01*
X73111188Y-27006819D01*
X75803521Y-29699152D01*
X75835106Y-29752898D01*
X75855770Y-29825525D01*
X75855775Y-29825538D01*
X75954938Y-30024683D01*
X75954943Y-30024691D01*
X76089020Y-30202238D01*
X76253437Y-30352123D01*
X76253439Y-30352125D01*
X76442595Y-30469245D01*
X76442596Y-30469245D01*
X76442599Y-30469247D01*
X76650060Y-30549618D01*
X76868757Y-30590500D01*
X76868759Y-30590500D01*
X77091241Y-30590500D01*
X77091243Y-30590500D01*
X77309940Y-30549618D01*
X77389302Y-30518873D01*
X77434095Y-30510500D01*
X80063466Y-30510500D01*
X80063467Y-30510499D01*
X80266420Y-30470130D01*
X80457598Y-30390941D01*
X80479923Y-30376024D01*
X80604937Y-30292492D01*
X80629029Y-30279970D01*
X80629935Y-30279618D01*
X80629940Y-30279618D01*
X80837401Y-30199247D01*
X80853833Y-30189073D01*
X80919110Y-30170500D01*
X81294205Y-30170500D01*
X81361244Y-30190185D01*
X81406999Y-30242989D01*
X81416943Y-30312147D01*
X81415738Y-30317794D01*
X81415938Y-30317832D01*
X81414884Y-30323464D01*
X81394357Y-30544999D01*
X81394357Y-30545000D01*
X81414884Y-30766535D01*
X81414885Y-30766537D01*
X81475769Y-30980523D01*
X81475775Y-30980538D01*
X81574938Y-31179683D01*
X81574943Y-31179691D01*
X81709020Y-31357238D01*
X81873437Y-31507123D01*
X81873439Y-31507125D01*
X82062595Y-31624245D01*
X82062596Y-31624245D01*
X82062599Y-31624247D01*
X82270060Y-31704618D01*
X82488757Y-31745500D01*
X82488759Y-31745500D01*
X82711241Y-31745500D01*
X82711243Y-31745500D01*
X82929940Y-31704618D01*
X83137401Y-31624247D01*
X83326562Y-31507124D01*
X83487370Y-31360528D01*
X83490979Y-31357238D01*
X83502394Y-31342123D01*
X83625058Y-31179689D01*
X83724229Y-30980528D01*
X83785115Y-30766536D01*
X83805643Y-30545000D01*
X83799770Y-30481624D01*
X83785115Y-30323464D01*
X83784062Y-30317832D01*
X83786630Y-30317351D01*
X83787102Y-30258611D01*
X83825347Y-30200138D01*
X83889134Y-30171624D01*
X83905795Y-30170500D01*
X90265500Y-30170500D01*
X90332539Y-30190185D01*
X90378294Y-30242989D01*
X90389500Y-30294500D01*
X90389500Y-32155500D01*
X90369815Y-32222539D01*
X90317011Y-32268294D01*
X90265500Y-32279500D01*
X86083737Y-32279500D01*
X85880794Y-32319868D01*
X85880786Y-32319870D01*
X85689610Y-32399058D01*
X85517551Y-32514023D01*
X85452075Y-32579500D01*
X85371230Y-32660345D01*
X85371227Y-32660348D01*
X80290348Y-37741227D01*
X80290345Y-37741230D01*
X80238358Y-37793217D01*
X80144023Y-37887551D01*
X80029058Y-38059610D01*
X79949870Y-38250786D01*
X79949868Y-38250794D01*
X79908311Y-38459717D01*
X79906871Y-38459430D01*
X79883445Y-38517443D01*
X79826409Y-38557801D01*
X79786204Y-38564500D01*
X77009541Y-38564500D01*
X76942502Y-38544815D01*
X76921860Y-38528181D01*
X75168403Y-36774723D01*
X75168395Y-36774717D01*
X75016819Y-36673437D01*
X75016815Y-36673435D01*
X74848390Y-36603672D01*
X74848380Y-36603669D01*
X74669584Y-36568104D01*
X74669582Y-36568104D01*
X74366058Y-36568104D01*
X74299019Y-36548419D01*
X74255058Y-36499377D01*
X74245059Y-36479297D01*
X74245056Y-36479292D01*
X74110979Y-36301745D01*
X74021307Y-36219999D01*
X75674357Y-36219999D01*
X75674357Y-36220000D01*
X75694884Y-36441535D01*
X75694885Y-36441537D01*
X75755769Y-36655523D01*
X75755775Y-36655538D01*
X75854938Y-36854683D01*
X75854943Y-36854691D01*
X75989020Y-37032238D01*
X76153437Y-37182123D01*
X76153439Y-37182125D01*
X76342595Y-37299245D01*
X76342596Y-37299245D01*
X76342599Y-37299247D01*
X76550060Y-37379618D01*
X76768757Y-37420500D01*
X76768759Y-37420500D01*
X76991241Y-37420500D01*
X76991243Y-37420500D01*
X77209940Y-37379618D01*
X77417401Y-37299247D01*
X77606562Y-37182124D01*
X77770981Y-37032236D01*
X77905058Y-36854689D01*
X78004229Y-36655528D01*
X78065115Y-36441536D01*
X78085643Y-36220000D01*
X78083640Y-36198389D01*
X78065115Y-35998464D01*
X78065114Y-35998462D01*
X78057352Y-35971182D01*
X78004229Y-35784472D01*
X77965621Y-35706937D01*
X77905061Y-35585316D01*
X77905056Y-35585308D01*
X77770979Y-35407761D01*
X77606562Y-35257876D01*
X77606560Y-35257874D01*
X77417404Y-35140754D01*
X77417398Y-35140752D01*
X77209940Y-35060382D01*
X76991243Y-35019500D01*
X76768757Y-35019500D01*
X76550060Y-35060382D01*
X76418864Y-35111207D01*
X76342601Y-35140752D01*
X76342595Y-35140754D01*
X76153439Y-35257874D01*
X76153437Y-35257876D01*
X75989020Y-35407761D01*
X75854943Y-35585308D01*
X75854938Y-35585316D01*
X75755775Y-35784461D01*
X75755769Y-35784476D01*
X75694885Y-35998462D01*
X75694884Y-35998464D01*
X75674357Y-36219999D01*
X74021307Y-36219999D01*
X73946562Y-36151860D01*
X73946560Y-36151858D01*
X73757404Y-36034738D01*
X73757398Y-36034735D01*
X73626087Y-35983865D01*
X73566719Y-35960866D01*
X73511319Y-35918294D01*
X73487728Y-35852527D01*
X73488042Y-35833808D01*
X73499799Y-35706937D01*
X73493128Y-35634949D01*
X73479271Y-35485401D01*
X73479270Y-35485399D01*
X73477197Y-35478114D01*
X73418385Y-35271409D01*
X73418380Y-35271398D01*
X73319217Y-35072253D01*
X73319212Y-35072245D01*
X73185135Y-34894698D01*
X73020718Y-34744813D01*
X73020716Y-34744811D01*
X72831560Y-34627691D01*
X72831554Y-34627689D01*
X72805638Y-34617649D01*
X72624096Y-34547319D01*
X72405399Y-34506437D01*
X72182913Y-34506437D01*
X71964216Y-34547319D01*
X71833020Y-34598144D01*
X71756757Y-34627689D01*
X71756751Y-34627691D01*
X71567595Y-34744811D01*
X71567593Y-34744813D01*
X71403178Y-34894696D01*
X71389886Y-34912298D01*
X71359014Y-34953180D01*
X71352011Y-34962453D01*
X71295901Y-35004088D01*
X71226189Y-35008779D01*
X71208264Y-35003352D01*
X71102690Y-34962453D01*
X71078754Y-34953180D01*
X70860057Y-34912298D01*
X70637571Y-34912298D01*
X70418874Y-34953180D01*
X70394938Y-34962453D01*
X70211415Y-35033550D01*
X70211409Y-35033552D01*
X70022253Y-35150672D01*
X70022251Y-35150674D01*
X69857834Y-35300559D01*
X69723757Y-35478106D01*
X69723752Y-35478114D01*
X69624589Y-35677259D01*
X69624583Y-35677274D01*
X69563699Y-35891260D01*
X69563698Y-35891262D01*
X69543171Y-36112797D01*
X69543171Y-36112798D01*
X69563698Y-36334333D01*
X69563699Y-36334335D01*
X69624583Y-36548321D01*
X69624589Y-36548336D01*
X69723752Y-36747481D01*
X69723757Y-36747489D01*
X69857834Y-36925036D01*
X70022251Y-37074921D01*
X70022253Y-37074923D01*
X70211409Y-37192043D01*
X70211410Y-37192043D01*
X70211413Y-37192045D01*
X70418874Y-37272416D01*
X70637571Y-37313298D01*
X70637573Y-37313298D01*
X70860055Y-37313298D01*
X70860057Y-37313298D01*
X71078754Y-37272416D01*
X71286215Y-37192045D01*
X71475376Y-37074922D01*
X71639795Y-36925034D01*
X71690958Y-36857281D01*
X71747066Y-36815647D01*
X71816778Y-36810954D01*
X71834706Y-36816383D01*
X71947435Y-36860055D01*
X72002837Y-36902628D01*
X72026427Y-36968395D01*
X72026112Y-36987122D01*
X72014357Y-37113982D01*
X72014357Y-37113984D01*
X72034884Y-37335519D01*
X72034885Y-37335521D01*
X72095769Y-37549507D01*
X72095775Y-37549522D01*
X72194942Y-37748673D01*
X72206298Y-37763711D01*
X72230990Y-37829073D01*
X72216425Y-37897407D01*
X72195025Y-37926119D01*
X71952202Y-38168943D01*
X71890879Y-38202428D01*
X71864521Y-38205262D01*
X69369521Y-38205262D01*
X69302482Y-38185577D01*
X69285985Y-38172901D01*
X69281310Y-38168639D01*
X69092150Y-38051516D01*
X69092144Y-38051514D01*
X68884686Y-37971144D01*
X68665989Y-37930262D01*
X68443503Y-37930262D01*
X68224806Y-37971144D01*
X68093610Y-38021969D01*
X68017347Y-38051514D01*
X68017341Y-38051516D01*
X67828185Y-38168636D01*
X67828183Y-38168638D01*
X67663766Y-38318523D01*
X67529689Y-38496070D01*
X67529684Y-38496078D01*
X67430521Y-38695223D01*
X67430515Y-38695238D01*
X67369631Y-38909224D01*
X67369630Y-38909226D01*
X67349103Y-39130761D01*
X67349103Y-39130762D01*
X67369630Y-39352297D01*
X67369631Y-39352299D01*
X67430515Y-39566285D01*
X67430521Y-39566300D01*
X67529684Y-39765445D01*
X67529689Y-39765453D01*
X67663766Y-39943000D01*
X67828183Y-40092885D01*
X67828185Y-40092887D01*
X68017341Y-40210007D01*
X68017342Y-40210007D01*
X68017345Y-40210009D01*
X68224806Y-40290380D01*
X68443503Y-40331262D01*
X68443505Y-40331262D01*
X68665987Y-40331262D01*
X68665989Y-40331262D01*
X68884686Y-40290380D01*
X69092147Y-40210009D01*
X69281308Y-40092886D01*
X69282363Y-40091924D01*
X69285985Y-40088623D01*
X69348790Y-40058007D01*
X69369521Y-40056262D01*
X72390394Y-40056262D01*
X72515807Y-40031315D01*
X72569196Y-40020695D01*
X72737627Y-39950929D01*
X72737629Y-39950928D01*
X72847203Y-39877713D01*
X72889210Y-39849645D01*
X73447366Y-39291487D01*
X73508687Y-39258004D01*
X73578378Y-39262988D01*
X73600322Y-39273743D01*
X73720007Y-39347849D01*
X73720008Y-39347849D01*
X73720011Y-39347851D01*
X73927472Y-39428222D01*
X74146169Y-39469104D01*
X74146171Y-39469104D01*
X74368653Y-39469104D01*
X74368655Y-39469104D01*
X74587352Y-39428222D01*
X74794813Y-39347851D01*
X74914504Y-39273741D01*
X74981859Y-39255187D01*
X75048559Y-39275995D01*
X75067458Y-39291489D01*
X75855941Y-40079972D01*
X75948953Y-40172984D01*
X75984853Y-40208884D01*
X75984856Y-40208886D01*
X76136432Y-40310166D01*
X76136436Y-40310168D01*
X76295298Y-40375970D01*
X76304866Y-40379933D01*
X76304870Y-40379933D01*
X76304871Y-40379934D01*
X76483667Y-40415500D01*
X76483670Y-40415500D01*
X80145225Y-40415500D01*
X80212264Y-40435185D01*
X80228761Y-40447861D01*
X80233435Y-40452122D01*
X80422595Y-40569245D01*
X80422596Y-40569245D01*
X80422599Y-40569247D01*
X80630060Y-40649618D01*
X80848757Y-40690500D01*
X80848759Y-40690500D01*
X81071241Y-40690500D01*
X81071243Y-40690500D01*
X81289940Y-40649618D01*
X81497401Y-40569247D01*
X81686562Y-40452124D01*
X81842282Y-40310166D01*
X81850979Y-40302238D01*
X81859935Y-40290379D01*
X81985058Y-40124689D01*
X82084229Y-39925528D01*
X82145115Y-39711536D01*
X82165643Y-39490000D01*
X82145115Y-39268464D01*
X82084229Y-39054472D01*
X82078833Y-39043636D01*
X82066571Y-38974853D01*
X82093444Y-38910358D01*
X82102142Y-38900694D01*
X82482837Y-38519999D01*
X88724357Y-38519999D01*
X88724357Y-38520000D01*
X88744884Y-38741535D01*
X88744885Y-38741537D01*
X88805769Y-38955523D01*
X88805775Y-38955538D01*
X88904938Y-39154683D01*
X88904943Y-39154691D01*
X89039020Y-39332238D01*
X89203437Y-39482123D01*
X89203439Y-39482125D01*
X89392595Y-39599245D01*
X89392596Y-39599245D01*
X89392599Y-39599247D01*
X89600060Y-39679618D01*
X89818757Y-39720500D01*
X89818759Y-39720500D01*
X90041241Y-39720500D01*
X90041243Y-39720500D01*
X90259940Y-39679618D01*
X90467401Y-39599247D01*
X90656562Y-39482124D01*
X90820981Y-39332236D01*
X90955058Y-39154689D01*
X91054229Y-38955528D01*
X91115115Y-38741536D01*
X91135643Y-38520000D01*
X91130030Y-38459430D01*
X91115115Y-38298464D01*
X91115114Y-38298462D01*
X91101551Y-38250794D01*
X91054229Y-38084472D01*
X91054224Y-38084461D01*
X90955061Y-37885316D01*
X90955056Y-37885308D01*
X90820979Y-37707761D01*
X90656562Y-37557876D01*
X90656560Y-37557874D01*
X90467404Y-37440754D01*
X90467398Y-37440752D01*
X90259940Y-37360382D01*
X90041243Y-37319500D01*
X89818757Y-37319500D01*
X89600060Y-37360382D01*
X89468864Y-37411207D01*
X89392601Y-37440752D01*
X89392595Y-37440754D01*
X89203439Y-37557874D01*
X89203437Y-37557876D01*
X89039020Y-37707761D01*
X88904943Y-37885308D01*
X88904938Y-37885316D01*
X88805775Y-38084461D01*
X88805769Y-38084476D01*
X88744885Y-38298462D01*
X88744884Y-38298464D01*
X88724357Y-38519999D01*
X82482837Y-38519999D01*
X85749953Y-35252883D01*
X85811274Y-35219400D01*
X85880966Y-35224384D01*
X85902909Y-35235139D01*
X86022595Y-35309245D01*
X86022596Y-35309245D01*
X86022599Y-35309247D01*
X86230060Y-35389618D01*
X86448757Y-35430500D01*
X86448759Y-35430500D01*
X86671241Y-35430500D01*
X86671243Y-35430500D01*
X86889940Y-35389618D01*
X87097401Y-35309247D01*
X87286562Y-35192124D01*
X87450981Y-35042236D01*
X87585058Y-34864689D01*
X87684229Y-34665528D01*
X87739701Y-34470565D01*
X87776980Y-34411472D01*
X87840290Y-34381915D01*
X87858967Y-34380500D01*
X91889481Y-34380500D01*
X91956520Y-34400185D01*
X91981884Y-34423702D01*
X91982656Y-34422999D01*
X91986518Y-34427236D01*
X92150937Y-34577123D01*
X92150939Y-34577125D01*
X92340095Y-34694245D01*
X92340096Y-34694245D01*
X92340099Y-34694247D01*
X92547560Y-34774618D01*
X92766257Y-34815500D01*
X92766259Y-34815500D01*
X92771892Y-34816553D01*
X92771578Y-34818231D01*
X92829161Y-34841092D01*
X92840471Y-34851102D01*
X97496809Y-39507440D01*
X97530294Y-39568763D01*
X97525310Y-39638455D01*
X97483438Y-39694388D01*
X97417974Y-39718805D01*
X97389730Y-39717594D01*
X97238143Y-39693585D01*
X97212352Y-39689500D01*
X97007649Y-39689500D01*
X96981883Y-39693581D01*
X96805464Y-39721523D01*
X96610784Y-39784777D01*
X96610781Y-39784778D01*
X96428389Y-39877713D01*
X96262779Y-39998036D01*
X86227634Y-50033181D01*
X86166311Y-50066666D01*
X86139953Y-50069500D01*
X81370809Y-50069500D01*
X81346490Y-50073351D01*
X81168626Y-50101522D01*
X80973937Y-50164781D01*
X80791550Y-50257713D01*
X80761002Y-50279908D01*
X80730453Y-50302103D01*
X80730452Y-50302104D01*
X80625945Y-50378030D01*
X80213600Y-50790375D01*
X80152277Y-50823860D01*
X80082585Y-50818876D01*
X80038238Y-50790375D01*
X75936407Y-46688544D01*
X75936405Y-46688542D01*
X75853601Y-46628381D01*
X75770795Y-46568219D01*
X75677904Y-46520890D01*
X75588407Y-46475289D01*
X75588406Y-46475288D01*
X75588405Y-46475288D01*
X75461217Y-46433962D01*
X75393721Y-46412031D01*
X75393718Y-46412030D01*
X75238406Y-46387431D01*
X75191538Y-46380008D01*
X61742012Y-46380008D01*
X61717693Y-46383859D01*
X61539829Y-46412030D01*
X61345140Y-46475289D01*
X61162750Y-46568223D01*
X60997150Y-46688536D01*
X60852392Y-46833294D01*
X60732079Y-46998894D01*
X60639145Y-47181284D01*
X60575886Y-47375973D01*
X60543864Y-47578156D01*
X41731028Y-47578156D01*
X44852931Y-44456254D01*
X44973252Y-44290646D01*
X45057811Y-44124689D01*
X45066185Y-44108254D01*
X45087636Y-44042236D01*
X45120567Y-43940883D01*
X45129442Y-43913570D01*
X45161465Y-43711387D01*
X45161465Y-43664500D01*
X45181150Y-43597461D01*
X45233954Y-43551706D01*
X45285465Y-43540500D01*
X45292351Y-43540500D01*
X45292352Y-43540500D01*
X45494535Y-43508477D01*
X45551404Y-43489999D01*
X58624357Y-43489999D01*
X58624357Y-43490000D01*
X58644884Y-43711535D01*
X58644885Y-43711537D01*
X58705769Y-43925523D01*
X58705775Y-43925538D01*
X58804938Y-44124683D01*
X58804942Y-44124689D01*
X58939020Y-44302238D01*
X59103437Y-44452123D01*
X59103439Y-44452125D01*
X59292595Y-44569245D01*
X59292596Y-44569245D01*
X59292599Y-44569247D01*
X59500060Y-44649618D01*
X59718757Y-44690500D01*
X59718759Y-44690500D01*
X59941241Y-44690500D01*
X59941243Y-44690500D01*
X60159940Y-44649618D01*
X60367401Y-44569247D01*
X60556562Y-44452124D01*
X60720981Y-44302236D01*
X60855058Y-44124689D01*
X60954229Y-43925528D01*
X61015115Y-43711536D01*
X61035643Y-43490000D01*
X61015115Y-43268464D01*
X61004171Y-43229999D01*
X68564357Y-43229999D01*
X68564357Y-43230000D01*
X68584884Y-43451535D01*
X68584885Y-43451537D01*
X68645769Y-43665523D01*
X68645775Y-43665538D01*
X68744938Y-43864683D01*
X68744943Y-43864691D01*
X68879020Y-44042238D01*
X69043437Y-44192123D01*
X69043439Y-44192125D01*
X69232595Y-44309245D01*
X69232596Y-44309245D01*
X69232599Y-44309247D01*
X69440060Y-44389618D01*
X69658757Y-44430500D01*
X69658759Y-44430500D01*
X69881241Y-44430500D01*
X69881243Y-44430500D01*
X70099940Y-44389618D01*
X70307401Y-44309247D01*
X70496562Y-44192124D01*
X70660981Y-44042236D01*
X70795058Y-43864689D01*
X70894229Y-43665528D01*
X70955115Y-43451536D01*
X70975643Y-43230000D01*
X70960849Y-43070350D01*
X70955115Y-43008464D01*
X70955114Y-43008462D01*
X70924858Y-42902124D01*
X70894229Y-42794472D01*
X70836115Y-42677764D01*
X70827617Y-42660698D01*
X73692644Y-42660698D01*
X73692644Y-42660699D01*
X73713171Y-42882234D01*
X73713172Y-42882236D01*
X73774056Y-43096222D01*
X73774062Y-43096237D01*
X73873225Y-43295382D01*
X73873230Y-43295390D01*
X74007307Y-43472937D01*
X74171724Y-43622822D01*
X74171726Y-43622824D01*
X74360882Y-43739944D01*
X74360883Y-43739944D01*
X74360886Y-43739946D01*
X74568347Y-43820317D01*
X74787044Y-43861199D01*
X74787046Y-43861199D01*
X75009528Y-43861199D01*
X75009530Y-43861199D01*
X75228227Y-43820317D01*
X75435688Y-43739946D01*
X75624849Y-43622823D01*
X75789268Y-43472935D01*
X75923345Y-43295388D01*
X76022516Y-43096227D01*
X76083402Y-42882235D01*
X76103930Y-42660699D01*
X76097871Y-42595316D01*
X76083402Y-42439163D01*
X76083401Y-42439161D01*
X76077312Y-42417761D01*
X76022516Y-42225171D01*
X75990830Y-42161537D01*
X75923348Y-42026015D01*
X75923343Y-42026007D01*
X75789266Y-41848460D01*
X75624849Y-41698575D01*
X75624847Y-41698573D01*
X75435691Y-41581453D01*
X75435685Y-41581451D01*
X75228227Y-41501081D01*
X75009530Y-41460199D01*
X74787044Y-41460199D01*
X74568347Y-41501081D01*
X74491084Y-41531013D01*
X74360888Y-41581451D01*
X74360882Y-41581453D01*
X74171726Y-41698573D01*
X74171724Y-41698575D01*
X74007307Y-41848460D01*
X73873230Y-42026007D01*
X73873225Y-42026015D01*
X73774062Y-42225160D01*
X73774056Y-42225175D01*
X73713172Y-42439161D01*
X73713171Y-42439163D01*
X73692644Y-42660698D01*
X70827617Y-42660698D01*
X70795061Y-42595316D01*
X70795056Y-42595308D01*
X70660979Y-42417761D01*
X70496562Y-42267876D01*
X70496560Y-42267874D01*
X70307404Y-42150754D01*
X70307398Y-42150752D01*
X70099940Y-42070382D01*
X69881243Y-42029500D01*
X69658757Y-42029500D01*
X69440060Y-42070382D01*
X69308864Y-42121207D01*
X69232601Y-42150752D01*
X69232595Y-42150754D01*
X69043439Y-42267874D01*
X69043437Y-42267876D01*
X68879020Y-42417761D01*
X68744943Y-42595308D01*
X68744938Y-42595316D01*
X68645775Y-42794461D01*
X68645769Y-42794476D01*
X68584885Y-43008462D01*
X68584884Y-43008464D01*
X68564357Y-43229999D01*
X61004171Y-43229999D01*
X60954229Y-43054472D01*
X60878369Y-42902125D01*
X60855061Y-42855316D01*
X60855056Y-42855308D01*
X60720979Y-42677761D01*
X60556562Y-42527876D01*
X60556560Y-42527874D01*
X60367404Y-42410754D01*
X60367398Y-42410752D01*
X60159940Y-42330382D01*
X59941243Y-42289500D01*
X59718757Y-42289500D01*
X59500060Y-42330382D01*
X59383538Y-42375523D01*
X59292601Y-42410752D01*
X59292595Y-42410754D01*
X59103439Y-42527874D01*
X59103437Y-42527876D01*
X58939020Y-42677761D01*
X58804943Y-42855308D01*
X58804938Y-42855316D01*
X58705775Y-43054461D01*
X58705769Y-43054476D01*
X58644885Y-43268462D01*
X58644884Y-43268464D01*
X58624357Y-43489999D01*
X45551404Y-43489999D01*
X45689218Y-43445220D01*
X45871611Y-43352287D01*
X46037219Y-43231966D01*
X47477792Y-41791390D01*
X47539113Y-41757907D01*
X47608804Y-41762891D01*
X47664738Y-41804762D01*
X47689155Y-41870227D01*
X47688942Y-41890513D01*
X47684357Y-41939997D01*
X47684357Y-41940000D01*
X47704884Y-42161535D01*
X47704885Y-42161537D01*
X47765769Y-42375523D01*
X47765775Y-42375538D01*
X47864938Y-42574683D01*
X47864943Y-42574691D01*
X47999020Y-42752238D01*
X48163437Y-42902123D01*
X48163439Y-42902125D01*
X48352595Y-43019245D01*
X48352596Y-43019245D01*
X48352599Y-43019247D01*
X48560060Y-43099618D01*
X48778757Y-43140500D01*
X48778759Y-43140500D01*
X49001241Y-43140500D01*
X49001243Y-43140500D01*
X49219940Y-43099618D01*
X49427401Y-43019247D01*
X49616562Y-42902124D01*
X49780981Y-42752236D01*
X49915058Y-42574689D01*
X50014229Y-42375528D01*
X50075115Y-42161536D01*
X50095643Y-41940000D01*
X50091057Y-41890513D01*
X50075115Y-41718464D01*
X50075114Y-41718462D01*
X50070440Y-41702035D01*
X50014229Y-41504472D01*
X50014224Y-41504461D01*
X49915061Y-41305316D01*
X49915056Y-41305308D01*
X49780979Y-41127761D01*
X49616562Y-40977876D01*
X49616560Y-40977874D01*
X49427404Y-40860754D01*
X49427398Y-40860752D01*
X49219940Y-40780382D01*
X49001243Y-40739500D01*
X48778757Y-40739500D01*
X48560060Y-40780382D01*
X48471137Y-40814831D01*
X48352601Y-40860752D01*
X48352592Y-40860756D01*
X48336610Y-40870652D01*
X48269249Y-40889206D01*
X48202550Y-40868397D01*
X48157690Y-40814831D01*
X48148862Y-40745826D01*
X48153043Y-40719430D01*
X48160500Y-40672352D01*
X48160500Y-37860256D01*
X48180185Y-37793217D01*
X48232989Y-37747462D01*
X48302147Y-37737518D01*
X48365703Y-37766543D01*
X48395500Y-37804984D01*
X48494938Y-38004683D01*
X48494943Y-38004691D01*
X48629020Y-38182238D01*
X48793437Y-38332123D01*
X48793439Y-38332125D01*
X48982595Y-38449245D01*
X48982596Y-38449245D01*
X48982599Y-38449247D01*
X49190060Y-38529618D01*
X49408757Y-38570500D01*
X49408759Y-38570500D01*
X49631241Y-38570500D01*
X49631243Y-38570500D01*
X49849940Y-38529618D01*
X50057401Y-38449247D01*
X50246562Y-38332124D01*
X50410981Y-38182236D01*
X50545058Y-38004689D01*
X50644229Y-37805528D01*
X50705115Y-37591536D01*
X50725643Y-37370000D01*
X50725184Y-37365051D01*
X50705115Y-37148464D01*
X50705114Y-37148462D01*
X50700877Y-37133572D01*
X50644229Y-36934472D01*
X50639530Y-36925036D01*
X50545058Y-36735311D01*
X50545056Y-36735308D01*
X50410979Y-36557761D01*
X50246562Y-36407876D01*
X50246560Y-36407874D01*
X50057404Y-36290754D01*
X50057398Y-36290752D01*
X49849940Y-36210382D01*
X49675815Y-36177832D01*
X49613536Y-36146165D01*
X49578263Y-36085852D01*
X49581197Y-36016044D01*
X49609108Y-35971182D01*
X49608803Y-35970922D01*
X49610524Y-35968906D01*
X49610929Y-35968255D01*
X49611966Y-35967219D01*
X49672126Y-35884414D01*
X49732287Y-35801611D01*
X49741026Y-35784461D01*
X49795641Y-35677270D01*
X49796910Y-35674780D01*
X49825220Y-35619219D01*
X49868700Y-35485401D01*
X49888477Y-35424535D01*
X49895846Y-35378007D01*
X63596349Y-35378007D01*
X63596349Y-35378008D01*
X63616876Y-35599543D01*
X63616877Y-35599545D01*
X63677761Y-35813531D01*
X63677767Y-35813546D01*
X63776930Y-36012691D01*
X63776935Y-36012699D01*
X63911012Y-36190246D01*
X64075429Y-36340131D01*
X64075431Y-36340133D01*
X64264587Y-36457253D01*
X64264588Y-36457253D01*
X64264591Y-36457255D01*
X64472052Y-36537626D01*
X64690749Y-36578508D01*
X64690751Y-36578508D01*
X64913233Y-36578508D01*
X64913235Y-36578508D01*
X65131932Y-36537626D01*
X65339393Y-36457255D01*
X65528554Y-36340132D01*
X65670883Y-36210382D01*
X65692971Y-36190246D01*
X65721961Y-36151858D01*
X65827050Y-36012697D01*
X65926221Y-35813536D01*
X65987107Y-35599544D01*
X66007635Y-35378008D01*
X66002464Y-35322208D01*
X65987107Y-35156472D01*
X65987106Y-35156470D01*
X65985456Y-35150672D01*
X65926221Y-34942480D01*
X65926216Y-34942469D01*
X65827053Y-34743324D01*
X65827048Y-34743316D01*
X65692971Y-34565769D01*
X65528554Y-34415884D01*
X65528552Y-34415882D01*
X65339396Y-34298762D01*
X65339390Y-34298760D01*
X65131932Y-34218390D01*
X64913235Y-34177508D01*
X64690749Y-34177508D01*
X64472052Y-34218390D01*
X64340856Y-34269215D01*
X64264593Y-34298760D01*
X64264587Y-34298762D01*
X64075431Y-34415882D01*
X64075429Y-34415884D01*
X63911012Y-34565769D01*
X63776935Y-34743316D01*
X63776930Y-34743324D01*
X63677767Y-34942469D01*
X63677761Y-34942484D01*
X63616877Y-35156470D01*
X63616876Y-35156472D01*
X63596349Y-35378007D01*
X49895846Y-35378007D01*
X49912730Y-35271409D01*
X49915185Y-35255908D01*
X49915185Y-35255907D01*
X49917228Y-35243008D01*
X49920500Y-35222352D01*
X49920500Y-33777648D01*
X49903845Y-33672492D01*
X49888477Y-33575465D01*
X49842550Y-33434117D01*
X49825220Y-33380781D01*
X49825218Y-33380778D01*
X49825218Y-33380776D01*
X49791503Y-33314607D01*
X49732287Y-33198390D01*
X49702302Y-33157119D01*
X49611971Y-33032786D01*
X49467213Y-32888028D01*
X49301613Y-32767715D01*
X49301612Y-32767714D01*
X49301610Y-32767713D01*
X49208924Y-32720487D01*
X49119223Y-32674781D01*
X48924534Y-32611522D01*
X48749995Y-32583878D01*
X48722352Y-32579500D01*
X48517648Y-32579500D01*
X48493329Y-32583351D01*
X48315465Y-32611522D01*
X48120776Y-32674781D01*
X47938386Y-32767715D01*
X47772786Y-32888028D01*
X47628028Y-33032786D01*
X47507715Y-33198386D01*
X47414781Y-33380776D01*
X47351522Y-33575465D01*
X47319500Y-33777648D01*
X47319500Y-34529953D01*
X47299815Y-34596992D01*
X47283181Y-34617634D01*
X45868036Y-36032778D01*
X45747713Y-36198388D01*
X45713531Y-36265475D01*
X45713530Y-36265474D01*
X45654781Y-36380777D01*
X45654780Y-36380781D01*
X45643294Y-36416132D01*
X45591522Y-36575468D01*
X45566206Y-36735310D01*
X45566206Y-36735311D01*
X45559500Y-36777649D01*
X45559500Y-39979953D01*
X45539815Y-40046992D01*
X45523181Y-40067634D01*
X45214844Y-40375970D01*
X45153521Y-40409455D01*
X45083829Y-40404471D01*
X45027896Y-40362599D01*
X45016678Y-40344583D01*
X44998236Y-40308388D01*
X44998236Y-40308389D01*
X44973252Y-40259355D01*
X44934181Y-40205579D01*
X44910702Y-40139773D01*
X44910500Y-40132694D01*
X44910500Y-35310047D01*
X44930185Y-35243008D01*
X44946819Y-35222366D01*
X45517581Y-34651604D01*
X46101966Y-34067219D01*
X46222287Y-33901611D01*
X46315220Y-33719218D01*
X46361928Y-33575465D01*
X46378475Y-33524539D01*
X46378475Y-33524538D01*
X46378476Y-33524535D01*
X46410500Y-33322352D01*
X46410500Y-33117649D01*
X46378476Y-32915466D01*
X46378475Y-32915462D01*
X46378475Y-32915461D01*
X46315221Y-32720784D01*
X46315219Y-32720781D01*
X46315071Y-32720489D01*
X46222287Y-32538390D01*
X46114475Y-32389999D01*
X54624357Y-32389999D01*
X54624357Y-32390000D01*
X54644884Y-32611535D01*
X54644885Y-32611537D01*
X54705769Y-32825523D01*
X54705775Y-32825538D01*
X54804938Y-33024683D01*
X54804943Y-33024691D01*
X54939020Y-33202238D01*
X55070780Y-33322352D01*
X55099347Y-33348395D01*
X55103437Y-33352123D01*
X55103439Y-33352125D01*
X55292595Y-33469245D01*
X55292596Y-33469245D01*
X55292599Y-33469247D01*
X55500060Y-33549618D01*
X55718757Y-33590500D01*
X55718759Y-33590500D01*
X55941241Y-33590500D01*
X55941243Y-33590500D01*
X56159940Y-33549618D01*
X56367401Y-33469247D01*
X56556562Y-33352124D01*
X56696282Y-33224751D01*
X56720979Y-33202238D01*
X56727150Y-33194067D01*
X56855058Y-33024689D01*
X56954229Y-32825528D01*
X57015115Y-32611536D01*
X57035643Y-32390000D01*
X57024365Y-32268294D01*
X57015115Y-32168464D01*
X57015114Y-32168462D01*
X57004827Y-32132308D01*
X56954229Y-31954472D01*
X56954224Y-31954461D01*
X56855061Y-31755316D01*
X56855056Y-31755308D01*
X56720979Y-31577761D01*
X56556562Y-31427876D01*
X56556560Y-31427874D01*
X56367404Y-31310754D01*
X56367398Y-31310752D01*
X56159940Y-31230382D01*
X55941243Y-31189500D01*
X55718757Y-31189500D01*
X55500060Y-31230382D01*
X55393943Y-31271492D01*
X55292601Y-31310752D01*
X55292595Y-31310754D01*
X55103439Y-31427874D01*
X55103437Y-31427876D01*
X54939020Y-31577761D01*
X54804943Y-31755308D01*
X54804938Y-31755316D01*
X54705775Y-31954461D01*
X54705769Y-31954476D01*
X54644885Y-32168462D01*
X54644884Y-32168464D01*
X54624357Y-32389999D01*
X46114475Y-32389999D01*
X46101966Y-32372782D01*
X45957218Y-32228034D01*
X45791610Y-32107713D01*
X45609218Y-32014780D01*
X45609215Y-32014778D01*
X45414536Y-31951524D01*
X45279745Y-31930174D01*
X45212351Y-31919500D01*
X45007648Y-31919500D01*
X44940253Y-31930174D01*
X44805463Y-31951524D01*
X44805460Y-31951524D01*
X44610785Y-32014778D01*
X44428387Y-32107714D01*
X44428384Y-32107716D01*
X44262778Y-32228036D01*
X42618036Y-33872778D01*
X42497716Y-34038384D01*
X42497710Y-34038393D01*
X42491527Y-34050527D01*
X42491528Y-34050528D01*
X42404778Y-34220784D01*
X42404777Y-34220787D01*
X42401786Y-34229995D01*
X42401785Y-34230000D01*
X42341524Y-34415460D01*
X42341523Y-34415463D01*
X42341034Y-34418547D01*
X42339659Y-34427236D01*
X42309500Y-34617649D01*
X42309500Y-37250954D01*
X42289815Y-37317993D01*
X42237011Y-37363748D01*
X42167853Y-37373692D01*
X42104297Y-37344667D01*
X42097819Y-37338635D01*
X40267220Y-35508036D01*
X40267218Y-35508034D01*
X40101610Y-35387713D01*
X39973052Y-35322210D01*
X39973049Y-35322208D01*
X39919220Y-35294781D01*
X39919219Y-35294780D01*
X39919218Y-35294780D01*
X39799579Y-35255907D01*
X39799578Y-35255906D01*
X39724531Y-35231522D01*
X39569219Y-35206923D01*
X39522351Y-35199500D01*
X39522350Y-35199500D01*
X36302592Y-35199500D01*
X36235553Y-35179815D01*
X36189798Y-35127011D01*
X36179854Y-35057853D01*
X36193234Y-35017046D01*
X36200232Y-35003954D01*
X36260300Y-34805934D01*
X36275500Y-34651608D01*
X36275500Y-33348392D01*
X36260300Y-33194066D01*
X36200232Y-32996046D01*
X36102685Y-32813550D01*
X36050702Y-32750209D01*
X35971410Y-32653589D01*
X35853677Y-32556969D01*
X35811450Y-32522315D01*
X35628954Y-32424768D01*
X35430934Y-32364700D01*
X35430932Y-32364699D01*
X35430934Y-32364699D01*
X35311805Y-32352966D01*
X35276608Y-32349500D01*
X33723392Y-32349500D01*
X33685298Y-32353251D01*
X33569067Y-32364699D01*
X33371043Y-32424769D01*
X33300739Y-32462348D01*
X33188550Y-32522315D01*
X33188548Y-32522316D01*
X33188547Y-32522317D01*
X33028589Y-32653589D01*
X32897317Y-32813547D01*
X32897315Y-32813550D01*
X32888691Y-32829684D01*
X32799769Y-32996043D01*
X32739699Y-33194067D01*
X32730819Y-33284230D01*
X32724500Y-33348392D01*
X25016675Y-33348392D01*
X25015463Y-30924999D01*
X57609357Y-30924999D01*
X57609357Y-30925000D01*
X57629884Y-31146535D01*
X57629885Y-31146537D01*
X57690769Y-31360523D01*
X57690775Y-31360538D01*
X57789938Y-31559683D01*
X57789943Y-31559691D01*
X57924020Y-31737238D01*
X58088437Y-31887123D01*
X58088439Y-31887125D01*
X58277595Y-32004245D01*
X58277596Y-32004245D01*
X58277599Y-32004247D01*
X58485060Y-32084618D01*
X58703757Y-32125500D01*
X58703759Y-32125500D01*
X58926241Y-32125500D01*
X58926243Y-32125500D01*
X59144940Y-32084618D01*
X59194372Y-32065467D01*
X59263991Y-32059605D01*
X59325732Y-32092314D01*
X59350164Y-32125822D01*
X59424906Y-32275925D01*
X59424911Y-32275933D01*
X59558988Y-32453480D01*
X59723405Y-32603365D01*
X59723407Y-32603367D01*
X59912563Y-32720487D01*
X59912564Y-32720487D01*
X59912567Y-32720489D01*
X60120028Y-32800860D01*
X60338725Y-32841742D01*
X60338727Y-32841742D01*
X60561209Y-32841742D01*
X60561211Y-32841742D01*
X60779908Y-32800860D01*
X60867334Y-32766991D01*
X67667365Y-32766991D01*
X67667365Y-32766992D01*
X67687892Y-32988527D01*
X67687893Y-32988529D01*
X67748777Y-33202515D01*
X67748783Y-33202530D01*
X67847946Y-33401675D01*
X67847951Y-33401683D01*
X67982028Y-33579230D01*
X68146445Y-33729115D01*
X68146447Y-33729117D01*
X68335603Y-33846237D01*
X68335604Y-33846237D01*
X68335607Y-33846239D01*
X68543068Y-33926610D01*
X68761765Y-33967492D01*
X68761767Y-33967492D01*
X68984249Y-33967492D01*
X68984251Y-33967492D01*
X69202948Y-33926610D01*
X69410409Y-33846239D01*
X69599570Y-33729116D01*
X69763989Y-33579228D01*
X69898066Y-33401681D01*
X69997237Y-33202520D01*
X70058123Y-32988528D01*
X70078651Y-32766992D01*
X70066005Y-32630523D01*
X70058123Y-32545456D01*
X70058122Y-32545454D01*
X70056112Y-32538390D01*
X70037220Y-32471991D01*
X71322365Y-32471991D01*
X71322365Y-32471992D01*
X71342892Y-32693527D01*
X71342893Y-32693529D01*
X71403777Y-32907515D01*
X71403783Y-32907530D01*
X71502946Y-33106675D01*
X71502951Y-33106683D01*
X71637028Y-33284230D01*
X71801445Y-33434115D01*
X71801447Y-33434117D01*
X71990603Y-33551237D01*
X71990604Y-33551237D01*
X71990607Y-33551239D01*
X72198068Y-33631610D01*
X72416765Y-33672492D01*
X72416767Y-33672492D01*
X72639249Y-33672492D01*
X72639251Y-33672492D01*
X72857948Y-33631610D01*
X73065409Y-33551239D01*
X73254570Y-33434116D01*
X73418989Y-33284228D01*
X73553066Y-33106681D01*
X73652237Y-32907520D01*
X73713123Y-32693528D01*
X73733651Y-32471992D01*
X73731935Y-32453478D01*
X73713123Y-32250456D01*
X73713122Y-32250454D01*
X73697342Y-32194994D01*
X73652237Y-32036464D01*
X73652232Y-32036453D01*
X73553069Y-31837308D01*
X73553064Y-31837300D01*
X73418987Y-31659753D01*
X73254570Y-31509868D01*
X73254568Y-31509866D01*
X73065412Y-31392746D01*
X73065406Y-31392744D01*
X72857948Y-31312374D01*
X72639251Y-31271492D01*
X72416765Y-31271492D01*
X72198068Y-31312374D01*
X72073743Y-31360538D01*
X71990609Y-31392744D01*
X71990603Y-31392746D01*
X71801447Y-31509866D01*
X71801445Y-31509868D01*
X71637028Y-31659753D01*
X71502951Y-31837300D01*
X71502946Y-31837308D01*
X71403783Y-32036453D01*
X71403777Y-32036468D01*
X71342893Y-32250454D01*
X71342892Y-32250456D01*
X71322365Y-32471991D01*
X70037220Y-32471991D01*
X69997237Y-32331464D01*
X69945735Y-32228034D01*
X69898069Y-32132308D01*
X69898064Y-32132300D01*
X69763987Y-31954753D01*
X69599570Y-31804868D01*
X69599568Y-31804866D01*
X69410412Y-31687746D01*
X69410406Y-31687744D01*
X69202948Y-31607374D01*
X68984251Y-31566492D01*
X68761765Y-31566492D01*
X68543068Y-31607374D01*
X68455645Y-31641242D01*
X68335609Y-31687744D01*
X68335603Y-31687746D01*
X68146447Y-31804866D01*
X68146445Y-31804868D01*
X67982028Y-31954753D01*
X67847951Y-32132300D01*
X67847946Y-32132308D01*
X67748783Y-32331453D01*
X67748777Y-32331468D01*
X67687893Y-32545454D01*
X67687892Y-32545456D01*
X67667365Y-32766991D01*
X60867334Y-32766991D01*
X60987369Y-32720489D01*
X61176530Y-32603366D01*
X61331219Y-32462348D01*
X61340947Y-32453480D01*
X61362629Y-32424769D01*
X61475026Y-32275931D01*
X61574197Y-32076770D01*
X61635083Y-31862778D01*
X61655611Y-31641242D01*
X61635083Y-31419706D01*
X61574197Y-31205714D01*
X61567486Y-31192236D01*
X61475029Y-31006558D01*
X61475024Y-31006550D01*
X61340947Y-30829003D01*
X61176530Y-30679118D01*
X61176528Y-30679116D01*
X60987372Y-30561996D01*
X60987366Y-30561994D01*
X60779908Y-30481624D01*
X60561211Y-30440742D01*
X60338725Y-30440742D01*
X60173699Y-30471590D01*
X60120022Y-30481625D01*
X60070596Y-30500773D01*
X60000972Y-30506634D01*
X59939232Y-30473924D01*
X59914803Y-30440418D01*
X59840061Y-30290316D01*
X59840056Y-30290308D01*
X59705979Y-30112761D01*
X59541562Y-29962876D01*
X59541560Y-29962874D01*
X59352404Y-29845754D01*
X59352398Y-29845752D01*
X59144940Y-29765382D01*
X58926243Y-29724500D01*
X58703757Y-29724500D01*
X58485060Y-29765382D01*
X58353864Y-29816207D01*
X58277601Y-29845752D01*
X58277595Y-29845754D01*
X58088439Y-29962874D01*
X58088437Y-29962876D01*
X57924020Y-30112761D01*
X57789943Y-30290308D01*
X57789938Y-30290316D01*
X57690775Y-30489461D01*
X57690769Y-30489476D01*
X57629885Y-30703462D01*
X57629884Y-30703464D01*
X57609357Y-30924999D01*
X25015463Y-30924999D01*
X25010062Y-20124061D01*
X25029713Y-20057013D01*
X25082494Y-20011231D01*
X25134062Y-20000000D01*
X124876000Y-20000000D01*
X124943039Y-20019685D01*
G37*
%TD.AperFunction*%
%TD*%
%TA.AperFunction,Conductor*%
%TO.N,Net-(D1-A1)*%
G36*
X67758824Y-95700996D02*
G01*
X67780701Y-95718414D01*
X67830423Y-95768136D01*
X67863908Y-95829459D01*
X67866721Y-95858099D01*
X67787055Y-100186602D01*
X67766140Y-100253268D01*
X67712503Y-100298043D01*
X67663717Y-100308318D01*
X58849192Y-100353873D01*
X58849181Y-100353873D01*
X58680096Y-100372716D01*
X58680077Y-100372719D01*
X58629221Y-100383921D01*
X58591376Y-100393222D01*
X58591375Y-100393222D01*
X58591365Y-100393226D01*
X58423684Y-100459695D01*
X58423683Y-100459696D01*
X58274998Y-100561809D01*
X58274995Y-100561812D01*
X58222213Y-100607546D01*
X58222190Y-100607568D01*
X58190890Y-100638235D01*
X58129228Y-100671091D01*
X58105439Y-100673655D01*
X57385942Y-100681363D01*
X57375350Y-95803802D01*
X67691560Y-95682105D01*
X67758824Y-95700996D01*
G37*
%TD.AperFunction*%
%TD*%
%TA.AperFunction,Conductor*%
%TO.N,Net-(D5-A1)*%
G36*
X117862465Y-81199976D02*
G01*
X117908487Y-81252547D01*
X117919956Y-81304675D01*
X117919186Y-83490308D01*
X117899478Y-83557340D01*
X117882868Y-83577945D01*
X117819951Y-83640862D01*
X117689432Y-83827265D01*
X117689431Y-83827267D01*
X117593261Y-84033502D01*
X117593258Y-84033511D01*
X117534366Y-84253302D01*
X117534364Y-84253313D01*
X117514532Y-84479998D01*
X117514532Y-84480001D01*
X117534364Y-84706686D01*
X117534366Y-84706697D01*
X117593258Y-84926488D01*
X117593261Y-84926497D01*
X117689431Y-85132732D01*
X117689432Y-85132734D01*
X117819954Y-85319141D01*
X117882170Y-85381357D01*
X117915655Y-85442680D01*
X117918489Y-85469082D01*
X117917538Y-88171956D01*
X117897830Y-88238988D01*
X117881220Y-88259593D01*
X117819951Y-88320862D01*
X117689432Y-88507265D01*
X117689431Y-88507267D01*
X117593261Y-88713502D01*
X117593258Y-88713511D01*
X117534366Y-88933302D01*
X117534364Y-88933313D01*
X117514532Y-89159998D01*
X117514532Y-89160001D01*
X117534364Y-89386686D01*
X117534366Y-89386697D01*
X117593258Y-89606488D01*
X117593261Y-89606497D01*
X117689431Y-89812732D01*
X117689432Y-89812734D01*
X117819954Y-89999141D01*
X117880523Y-90059710D01*
X117914008Y-90121033D01*
X117916842Y-90147435D01*
X117915493Y-93984001D01*
X117895785Y-94051033D01*
X117879175Y-94071638D01*
X117819951Y-94130862D01*
X117689432Y-94317265D01*
X117689431Y-94317267D01*
X117593261Y-94523502D01*
X117593258Y-94523511D01*
X117534366Y-94743302D01*
X117534364Y-94743313D01*
X117514532Y-94969998D01*
X117514532Y-94970001D01*
X117534364Y-95196686D01*
X117534366Y-95196697D01*
X117593258Y-95416488D01*
X117593261Y-95416497D01*
X117689431Y-95622732D01*
X117689432Y-95622734D01*
X117819954Y-95809141D01*
X117878479Y-95867666D01*
X117911964Y-95928989D01*
X117914798Y-95955391D01*
X117913669Y-99165825D01*
X117893961Y-99232857D01*
X117877351Y-99253462D01*
X117819951Y-99310862D01*
X117689432Y-99497265D01*
X117689431Y-99497267D01*
X117593261Y-99703502D01*
X117593258Y-99703511D01*
X117534366Y-99923302D01*
X117534364Y-99923313D01*
X117514532Y-100149998D01*
X117514532Y-100150001D01*
X117534364Y-100376686D01*
X117534366Y-100376697D01*
X117593258Y-100596488D01*
X117593261Y-100596497D01*
X117689431Y-100802732D01*
X117689432Y-100802734D01*
X117819954Y-100989141D01*
X117876656Y-101045843D01*
X117910141Y-101107166D01*
X117912975Y-101133568D01*
X117911176Y-106248318D01*
X117891468Y-106315350D01*
X117874858Y-106335954D01*
X117819954Y-106390858D01*
X117689432Y-106577265D01*
X117689431Y-106577267D01*
X117593261Y-106783502D01*
X117593258Y-106783511D01*
X117534366Y-107003302D01*
X117534364Y-107003313D01*
X117514532Y-107229998D01*
X117514532Y-107230001D01*
X117534364Y-107456686D01*
X117534366Y-107456697D01*
X117593258Y-107676488D01*
X117593261Y-107676497D01*
X117689431Y-107882732D01*
X117689432Y-107882734D01*
X117819954Y-108069141D01*
X117874165Y-108123352D01*
X117907650Y-108184675D01*
X117910484Y-108211077D01*
X117910043Y-109467524D01*
X117890335Y-109534556D01*
X117837515Y-109580292D01*
X117787533Y-109591471D01*
X90575095Y-109918496D01*
X90507824Y-109899618D01*
X90461438Y-109847368D01*
X90449606Y-109794895D01*
X90448966Y-109591471D01*
X90424903Y-101944888D01*
X90444376Y-101877789D01*
X90497036Y-101831868D01*
X90548902Y-101820500D01*
X91776704Y-101820500D01*
X91776707Y-101820500D01*
X92148322Y-101783899D01*
X92514560Y-101711049D01*
X92871894Y-101602653D01*
X93216883Y-101459754D01*
X93546204Y-101283729D01*
X93856685Y-101076271D01*
X94145338Y-100839381D01*
X94409381Y-100575338D01*
X94646271Y-100286685D01*
X94853729Y-99976204D01*
X95029754Y-99646883D01*
X95172653Y-99301894D01*
X95281049Y-98944560D01*
X95353899Y-98578322D01*
X95390500Y-98206707D01*
X95390500Y-97833293D01*
X95353899Y-97461678D01*
X95281049Y-97095440D01*
X95172653Y-96738106D01*
X95029754Y-96393117D01*
X94853729Y-96063796D01*
X94646271Y-95753315D01*
X94646267Y-95753309D01*
X94409376Y-95464656D01*
X94145343Y-95200623D01*
X93856690Y-94963732D01*
X93546210Y-94756275D01*
X93546209Y-94756274D01*
X93546204Y-94756271D01*
X93546199Y-94756268D01*
X93546192Y-94756264D01*
X93216890Y-94580250D01*
X93216883Y-94580246D01*
X93216876Y-94580243D01*
X92871895Y-94437347D01*
X92662119Y-94373712D01*
X92514560Y-94328951D01*
X92514557Y-94328950D01*
X92514556Y-94328950D01*
X92148324Y-94256101D01*
X92148311Y-94256099D01*
X91867293Y-94228422D01*
X91776707Y-94219500D01*
X90524203Y-94219500D01*
X90457164Y-94199815D01*
X90411409Y-94147011D01*
X90400204Y-94095890D01*
X90381562Y-88171956D01*
X90360389Y-81443757D01*
X90379862Y-81376658D01*
X90432522Y-81330737D01*
X90483756Y-81319371D01*
X117795327Y-81180633D01*
X117862465Y-81199976D01*
G37*
%TD.AperFunction*%
%TD*%
%TA.AperFunction,Conductor*%
%TO.N,Net-(Q2-D)*%
G36*
X89432664Y-81356283D02*
G01*
X89499430Y-81376863D01*
X89544474Y-81430276D01*
X89554998Y-81479881D01*
X89576066Y-88174491D01*
X89594707Y-94098420D01*
X89601968Y-94164484D01*
X89613383Y-94268350D01*
X89615551Y-94278241D01*
X89623875Y-94316218D01*
X89626747Y-94343561D01*
X89490794Y-115546154D01*
X89470680Y-115613066D01*
X89417584Y-115658481D01*
X89366154Y-115669357D01*
X70210052Y-115569999D01*
X70210052Y-115570000D01*
X70210000Y-115569999D01*
X70259532Y-98496240D01*
X70279409Y-98429263D01*
X70332346Y-98383662D01*
X70401533Y-98373919D01*
X70465004Y-98403128D01*
X70471211Y-98408924D01*
X72208815Y-100146528D01*
X72208844Y-100146559D01*
X72358260Y-100295975D01*
X72358263Y-100295977D01*
X72530320Y-100410941D01*
X72721498Y-100490130D01*
X72924448Y-100530499D01*
X72924452Y-100530500D01*
X72924453Y-100530500D01*
X73380890Y-100530500D01*
X73446167Y-100549073D01*
X73462595Y-100559245D01*
X73462596Y-100559245D01*
X73462599Y-100559247D01*
X73670060Y-100639618D01*
X73888757Y-100680500D01*
X73888759Y-100680500D01*
X74111241Y-100680500D01*
X74111243Y-100680500D01*
X74329940Y-100639618D01*
X74537401Y-100559247D01*
X74726562Y-100442124D01*
X74890981Y-100292236D01*
X75025058Y-100114689D01*
X75124229Y-99915528D01*
X75185115Y-99701536D01*
X75205643Y-99480000D01*
X75197584Y-99393033D01*
X75185115Y-99258464D01*
X75185114Y-99258462D01*
X75124230Y-99044476D01*
X75124229Y-99044472D01*
X75124224Y-99044461D01*
X75025061Y-98845316D01*
X75025056Y-98845308D01*
X74911343Y-98694728D01*
X74886651Y-98629367D01*
X74901216Y-98561032D01*
X74911343Y-98545274D01*
X74948372Y-98496240D01*
X75025058Y-98394691D01*
X75124229Y-98195530D01*
X75185115Y-97981538D01*
X75205643Y-97760002D01*
X75185115Y-97538466D01*
X75124229Y-97324474D01*
X75107757Y-97291393D01*
X75025061Y-97125318D01*
X75025056Y-97125310D01*
X74890979Y-96947763D01*
X74726562Y-96797878D01*
X74726560Y-96797876D01*
X74537404Y-96680756D01*
X74537398Y-96680753D01*
X74395536Y-96625796D01*
X74329940Y-96600384D01*
X74329938Y-96600383D01*
X74329937Y-96600383D01*
X74326987Y-96599832D01*
X74325953Y-96599638D01*
X74263675Y-96567968D01*
X74261064Y-96565432D01*
X70696819Y-93001187D01*
X70663334Y-92939864D01*
X70660500Y-92913506D01*
X70660500Y-82876492D01*
X70680185Y-82809453D01*
X70696814Y-82788816D01*
X72321175Y-81164455D01*
X72382494Y-81130973D01*
X72410503Y-81128151D01*
X89432664Y-81356283D01*
G37*
%TD.AperFunction*%
%TD*%
M02*
