%TF.GenerationSoftware,KiCad,Pcbnew,(6.0.0)*%
%TF.CreationDate,2022-01-16T13:33:15+00:00*%
%TF.ProjectId,Relay_RF,52656c61-795f-4524-962e-6b696361645f,rev?*%
%TF.SameCoordinates,Original*%
%TF.FileFunction,Copper,L3,Inr*%
%TF.FilePolarity,Positive*%
%FSLAX46Y46*%
G04 Gerber Fmt 4.6, Leading zero omitted, Abs format (unit mm)*
G04 Created by KiCad (PCBNEW (6.0.0)) date 2022-01-16 13:33:15*
%MOMM*%
%LPD*%
G01*
G04 APERTURE LIST*
%TA.AperFunction,ViaPad*%
%ADD10C,0.800000*%
%TD*%
%TA.AperFunction,Conductor*%
%ADD11C,0.500000*%
%TD*%
G04 APERTURE END LIST*
D10*
%TO.N,GND*%
X123650000Y-117750000D03*
X127400000Y-109100000D03*
X119000000Y-126350000D03*
X101100000Y-124800000D03*
X116500000Y-118650000D03*
X124450000Y-112350000D03*
X120800000Y-122400000D03*
X124700000Y-125800000D03*
X116500000Y-120250000D03*
X104150000Y-124850000D03*
X113300000Y-128250000D03*
X113300000Y-131450000D03*
X116500000Y-123450000D03*
X107100000Y-119100000D03*
X116500000Y-129850000D03*
X128850000Y-131750000D03*
X116500000Y-125050000D03*
X104200000Y-115500000D03*
X106800000Y-123550000D03*
X128850000Y-122400000D03*
X127450000Y-131700000D03*
X123150000Y-113000000D03*
X106000000Y-121300000D03*
X113300000Y-123450000D03*
X116500000Y-121850000D03*
X113300000Y-129850000D03*
X108800000Y-120950000D03*
X122300000Y-129400000D03*
X122100000Y-113900000D03*
X123350000Y-119100000D03*
X104850000Y-118750000D03*
X114900000Y-123450000D03*
X104850000Y-117200000D03*
X114900000Y-121850000D03*
X123150000Y-128450000D03*
X113300000Y-125050000D03*
X127400000Y-118400000D03*
X116500000Y-126650000D03*
X114900000Y-118650000D03*
X121350000Y-115250000D03*
X125900000Y-122400000D03*
X116500000Y-131450000D03*
X114900000Y-120250000D03*
X113300000Y-121850000D03*
X114900000Y-125050000D03*
X102600000Y-124850000D03*
X122150000Y-126300000D03*
X124450000Y-110450000D03*
X114900000Y-131450000D03*
X107200000Y-124800000D03*
X102650000Y-115500000D03*
X124750000Y-124250000D03*
X128850000Y-109100000D03*
X124750000Y-129950000D03*
X109050000Y-122250000D03*
X121000000Y-127350000D03*
X125900000Y-131750000D03*
X128850000Y-118350000D03*
X123650000Y-116250000D03*
X106650000Y-122250000D03*
X125900000Y-109100000D03*
X108000000Y-125700000D03*
X123400000Y-125850000D03*
X113300000Y-126650000D03*
X127450000Y-122400000D03*
X109200000Y-126200000D03*
X108050000Y-119850000D03*
X114900000Y-129850000D03*
X124750000Y-128250000D03*
X101050000Y-115500000D03*
X118900000Y-107000000D03*
X113300000Y-120250000D03*
X121600000Y-121200000D03*
X114900000Y-126650000D03*
X121300000Y-116700000D03*
X113300000Y-118650000D03*
X120950000Y-130000000D03*
X116500000Y-128250000D03*
X109150000Y-123550000D03*
X119000000Y-123600000D03*
X104850000Y-121250000D03*
X114900000Y-128250000D03*
X122600000Y-120250000D03*
X121000000Y-118300000D03*
X106050000Y-118800000D03*
X124500000Y-115200000D03*
X104850000Y-122750000D03*
X125900000Y-118400000D03*
%TO.N,Net-(C1-Pad1)*%
X111250000Y-116900000D03*
X118250000Y-134750000D03*
X111250000Y-111600000D03*
%TO.N,Net-(D1-Pad1)*%
X111800000Y-134750000D03*
X109900000Y-114550000D03*
%TD*%
D11*
%TO.N,Net-(C1-Pad1)*%
X111300000Y-132400000D02*
X111300000Y-116950000D01*
X118250000Y-134750000D02*
X113650000Y-134750000D01*
X113650000Y-134750000D02*
X111300000Y-132400000D01*
X111250000Y-111600000D02*
X111250000Y-116900000D01*
X111300000Y-116950000D02*
X111250000Y-116900000D01*
%TO.N,Net-(D1-Pad1)*%
X110450000Y-115100000D02*
X109900000Y-114550000D01*
X110450000Y-133550000D02*
X110450000Y-117301391D01*
X111800000Y-134750000D02*
X111650000Y-134750000D01*
X110400489Y-117251880D02*
X110400489Y-116548120D01*
X111650000Y-134750000D02*
X110450000Y-133550000D01*
X110450000Y-116498609D02*
X110450000Y-115100000D01*
X110450000Y-117301391D02*
X110400489Y-117251880D01*
X110400489Y-116548120D02*
X110450000Y-116498609D01*
%TD*%
%TA.AperFunction,Conductor*%
%TO.N,GND*%
G36*
X129434121Y-100528002D02*
G01*
X129480614Y-100581658D01*
X129492000Y-100634000D01*
X129492000Y-139366000D01*
X129471998Y-139434121D01*
X129418342Y-139480614D01*
X129366000Y-139492000D01*
X100634000Y-139492000D01*
X100565879Y-139471998D01*
X100519386Y-139418342D01*
X100508000Y-139366000D01*
X100508000Y-136042277D01*
X102137009Y-136042277D01*
X102162625Y-136310769D01*
X102163710Y-136315203D01*
X102163711Y-136315209D01*
X102225645Y-136568312D01*
X102226731Y-136572750D01*
X102327985Y-136822733D01*
X102464265Y-137055482D01*
X102467118Y-137059049D01*
X102584686Y-137206060D01*
X102632716Y-137266119D01*
X102829809Y-137450234D01*
X103051416Y-137603968D01*
X103055499Y-137605999D01*
X103055502Y-137606001D01*
X103171013Y-137663466D01*
X103292894Y-137724101D01*
X103297228Y-137725522D01*
X103297231Y-137725523D01*
X103544853Y-137806698D01*
X103544859Y-137806699D01*
X103549186Y-137808118D01*
X103553677Y-137808898D01*
X103553678Y-137808898D01*
X103811140Y-137853601D01*
X103811148Y-137853602D01*
X103814921Y-137854257D01*
X103818758Y-137854448D01*
X103898578Y-137858422D01*
X103898586Y-137858422D01*
X103900149Y-137858500D01*
X104068512Y-137858500D01*
X104070780Y-137858335D01*
X104070792Y-137858335D01*
X104201884Y-137848823D01*
X104269004Y-137843953D01*
X104273459Y-137842969D01*
X104273462Y-137842969D01*
X104527912Y-137786791D01*
X104527916Y-137786790D01*
X104532372Y-137785806D01*
X104658480Y-137738028D01*
X104780318Y-137691868D01*
X104780321Y-137691867D01*
X104784588Y-137690250D01*
X105020368Y-137559286D01*
X105234773Y-137395657D01*
X105423312Y-137202792D01*
X105582034Y-136984730D01*
X105665190Y-136826676D01*
X105705490Y-136750079D01*
X105705493Y-136750073D01*
X105707615Y-136746039D01*
X105770378Y-136568312D01*
X105795902Y-136496033D01*
X105795902Y-136496032D01*
X105797425Y-136491720D01*
X105849581Y-136227100D01*
X105858782Y-136042277D01*
X124137009Y-136042277D01*
X124162625Y-136310769D01*
X124163710Y-136315203D01*
X124163711Y-136315209D01*
X124225645Y-136568312D01*
X124226731Y-136572750D01*
X124327985Y-136822733D01*
X124464265Y-137055482D01*
X124467118Y-137059049D01*
X124584686Y-137206060D01*
X124632716Y-137266119D01*
X124829809Y-137450234D01*
X125051416Y-137603968D01*
X125055499Y-137605999D01*
X125055502Y-137606001D01*
X125171013Y-137663466D01*
X125292894Y-137724101D01*
X125297228Y-137725522D01*
X125297231Y-137725523D01*
X125544853Y-137806698D01*
X125544859Y-137806699D01*
X125549186Y-137808118D01*
X125553677Y-137808898D01*
X125553678Y-137808898D01*
X125811140Y-137853601D01*
X125811148Y-137853602D01*
X125814921Y-137854257D01*
X125818758Y-137854448D01*
X125898578Y-137858422D01*
X125898586Y-137858422D01*
X125900149Y-137858500D01*
X126068512Y-137858500D01*
X126070780Y-137858335D01*
X126070792Y-137858335D01*
X126201884Y-137848823D01*
X126269004Y-137843953D01*
X126273459Y-137842969D01*
X126273462Y-137842969D01*
X126527912Y-137786791D01*
X126527916Y-137786790D01*
X126532372Y-137785806D01*
X126658480Y-137738028D01*
X126780318Y-137691868D01*
X126780321Y-137691867D01*
X126784588Y-137690250D01*
X127020368Y-137559286D01*
X127234773Y-137395657D01*
X127423312Y-137202792D01*
X127582034Y-136984730D01*
X127665190Y-136826676D01*
X127705490Y-136750079D01*
X127705493Y-136750073D01*
X127707615Y-136746039D01*
X127770378Y-136568312D01*
X127795902Y-136496033D01*
X127795902Y-136496032D01*
X127797425Y-136491720D01*
X127849581Y-136227100D01*
X127858782Y-136042277D01*
X127862764Y-135962292D01*
X127862764Y-135962286D01*
X127862991Y-135957723D01*
X127837375Y-135689231D01*
X127829856Y-135658500D01*
X127774355Y-135431688D01*
X127773269Y-135427250D01*
X127672015Y-135177267D01*
X127535735Y-134944518D01*
X127417928Y-134797208D01*
X127370136Y-134737447D01*
X127370135Y-134737445D01*
X127367284Y-134733881D01*
X127170191Y-134549766D01*
X126948584Y-134396032D01*
X126944501Y-134394001D01*
X126944498Y-134393999D01*
X126779606Y-134311967D01*
X126707106Y-134275899D01*
X126702772Y-134274478D01*
X126702769Y-134274477D01*
X126455147Y-134193302D01*
X126455141Y-134193301D01*
X126450814Y-134191882D01*
X126446322Y-134191102D01*
X126188860Y-134146399D01*
X126188852Y-134146398D01*
X126185079Y-134145743D01*
X126173817Y-134145182D01*
X126101422Y-134141578D01*
X126101414Y-134141578D01*
X126099851Y-134141500D01*
X125931488Y-134141500D01*
X125929220Y-134141665D01*
X125929208Y-134141665D01*
X125798116Y-134151177D01*
X125730996Y-134156047D01*
X125726541Y-134157031D01*
X125726538Y-134157031D01*
X125472088Y-134213209D01*
X125472084Y-134213210D01*
X125467628Y-134214194D01*
X125341520Y-134261972D01*
X125219682Y-134308132D01*
X125219679Y-134308133D01*
X125215412Y-134309750D01*
X124979632Y-134440714D01*
X124765227Y-134604343D01*
X124576688Y-134797208D01*
X124417966Y-135015270D01*
X124383991Y-135079847D01*
X124294510Y-135249921D01*
X124294507Y-135249927D01*
X124292385Y-135253961D01*
X124290865Y-135258266D01*
X124290863Y-135258270D01*
X124204098Y-135503967D01*
X124202575Y-135508280D01*
X124150419Y-135772900D01*
X124150192Y-135777453D01*
X124150192Y-135777456D01*
X124140991Y-135962292D01*
X124137009Y-136042277D01*
X105858782Y-136042277D01*
X105862764Y-135962292D01*
X105862764Y-135962286D01*
X105862991Y-135957723D01*
X105837375Y-135689231D01*
X105829856Y-135658500D01*
X105774355Y-135431688D01*
X105773269Y-135427250D01*
X105672015Y-135177267D01*
X105535735Y-134944518D01*
X105417928Y-134797208D01*
X105370136Y-134737447D01*
X105370135Y-134737445D01*
X105367284Y-134733881D01*
X105170191Y-134549766D01*
X104948584Y-134396032D01*
X104944501Y-134394001D01*
X104944498Y-134393999D01*
X104779606Y-134311967D01*
X104707106Y-134275899D01*
X104702772Y-134274478D01*
X104702769Y-134274477D01*
X104455147Y-134193302D01*
X104455141Y-134193301D01*
X104450814Y-134191882D01*
X104446322Y-134191102D01*
X104188860Y-134146399D01*
X104188852Y-134146398D01*
X104185079Y-134145743D01*
X104173817Y-134145182D01*
X104101422Y-134141578D01*
X104101414Y-134141578D01*
X104099851Y-134141500D01*
X103931488Y-134141500D01*
X103929220Y-134141665D01*
X103929208Y-134141665D01*
X103798116Y-134151177D01*
X103730996Y-134156047D01*
X103726541Y-134157031D01*
X103726538Y-134157031D01*
X103472088Y-134213209D01*
X103472084Y-134213210D01*
X103467628Y-134214194D01*
X103341520Y-134261972D01*
X103219682Y-134308132D01*
X103219679Y-134308133D01*
X103215412Y-134309750D01*
X102979632Y-134440714D01*
X102765227Y-134604343D01*
X102576688Y-134797208D01*
X102417966Y-135015270D01*
X102383991Y-135079847D01*
X102294510Y-135249921D01*
X102294507Y-135249927D01*
X102292385Y-135253961D01*
X102290865Y-135258266D01*
X102290863Y-135258270D01*
X102204098Y-135503967D01*
X102202575Y-135508280D01*
X102150419Y-135772900D01*
X102150192Y-135777453D01*
X102150192Y-135777456D01*
X102140991Y-135962292D01*
X102137009Y-136042277D01*
X100508000Y-136042277D01*
X100508000Y-114550000D01*
X108986496Y-114550000D01*
X109006458Y-114739928D01*
X109065473Y-114921556D01*
X109160960Y-115086944D01*
X109288747Y-115228866D01*
X109443248Y-115341118D01*
X109449274Y-115343801D01*
X109449281Y-115343805D01*
X109616748Y-115418365D01*
X109670844Y-115464345D01*
X109691500Y-115533472D01*
X109691500Y-116243458D01*
X109684589Y-116281870D01*
X109684726Y-116281904D01*
X109684505Y-116282808D01*
X109684332Y-116283300D01*
X109684186Y-116284109D01*
X109682980Y-116289040D01*
X109680879Y-116294689D01*
X109678966Y-116300441D01*
X109675867Y-116307070D01*
X109674377Y-116314232D01*
X109674377Y-116314233D01*
X109661003Y-116378532D01*
X109660033Y-116382816D01*
X109642681Y-116453730D01*
X109641989Y-116464884D01*
X109641953Y-116464882D01*
X109641714Y-116468875D01*
X109641340Y-116473067D01*
X109639849Y-116480235D01*
X109640047Y-116487552D01*
X109641943Y-116557641D01*
X109641989Y-116561048D01*
X109641989Y-117184810D01*
X109640556Y-117203760D01*
X109637290Y-117225229D01*
X109637883Y-117232521D01*
X109637883Y-117232524D01*
X109641574Y-117277898D01*
X109641989Y-117288113D01*
X109641989Y-117296173D01*
X109642414Y-117299817D01*
X109645278Y-117324387D01*
X109645711Y-117328762D01*
X109651629Y-117401517D01*
X109653885Y-117408481D01*
X109655076Y-117414440D01*
X109656460Y-117420294D01*
X109657307Y-117427561D01*
X109659803Y-117434436D01*
X109682219Y-117496193D01*
X109683638Y-117500326D01*
X109685365Y-117505655D01*
X109691500Y-117544492D01*
X109691500Y-133482930D01*
X109690067Y-133501880D01*
X109686801Y-133523349D01*
X109687394Y-133530641D01*
X109687394Y-133530644D01*
X109691085Y-133576018D01*
X109691500Y-133586233D01*
X109691500Y-133594293D01*
X109691925Y-133597937D01*
X109694789Y-133622507D01*
X109695222Y-133626882D01*
X109701140Y-133699637D01*
X109703396Y-133706601D01*
X109704587Y-133712560D01*
X109705971Y-133718415D01*
X109706818Y-133725681D01*
X109731735Y-133794327D01*
X109733152Y-133798455D01*
X109755649Y-133867899D01*
X109759445Y-133874154D01*
X109761951Y-133879628D01*
X109764670Y-133885058D01*
X109767167Y-133891937D01*
X109771180Y-133898057D01*
X109771180Y-133898058D01*
X109807186Y-133952976D01*
X109809523Y-133956680D01*
X109847405Y-134019107D01*
X109851121Y-134023315D01*
X109851122Y-134023316D01*
X109854803Y-134027484D01*
X109854776Y-134027508D01*
X109857429Y-134030500D01*
X109860132Y-134033733D01*
X109864144Y-134039852D01*
X109869456Y-134044884D01*
X109920383Y-134093128D01*
X109922825Y-134095506D01*
X110976415Y-135149096D01*
X110996439Y-135175191D01*
X111060960Y-135286944D01*
X111065378Y-135291851D01*
X111065379Y-135291852D01*
X111083489Y-135311965D01*
X111188747Y-135428866D01*
X111272800Y-135489934D01*
X111337904Y-135537235D01*
X111343248Y-135541118D01*
X111349276Y-135543802D01*
X111349278Y-135543803D01*
X111511681Y-135616109D01*
X111517712Y-135618794D01*
X111611112Y-135638647D01*
X111698056Y-135657128D01*
X111698061Y-135657128D01*
X111704513Y-135658500D01*
X111895487Y-135658500D01*
X111901939Y-135657128D01*
X111901944Y-135657128D01*
X111988888Y-135638647D01*
X112082288Y-135618794D01*
X112088319Y-135616109D01*
X112250722Y-135543803D01*
X112250724Y-135543802D01*
X112256752Y-135541118D01*
X112262097Y-135537235D01*
X112327200Y-135489934D01*
X112411253Y-135428866D01*
X112516511Y-135311965D01*
X112534621Y-135291852D01*
X112534622Y-135291851D01*
X112539040Y-135286944D01*
X112634527Y-135121556D01*
X112648079Y-135079846D01*
X112688152Y-135021241D01*
X112753549Y-134993604D01*
X112823506Y-135005711D01*
X112857007Y-135029688D01*
X113066230Y-135238911D01*
X113078616Y-135253323D01*
X113087149Y-135264918D01*
X113087154Y-135264923D01*
X113091492Y-135270818D01*
X113097070Y-135275557D01*
X113097073Y-135275560D01*
X113131768Y-135305035D01*
X113139284Y-135311965D01*
X113144979Y-135317660D01*
X113147861Y-135319940D01*
X113167251Y-135335281D01*
X113170655Y-135338072D01*
X113220703Y-135380591D01*
X113226285Y-135385333D01*
X113232801Y-135388661D01*
X113237850Y-135392028D01*
X113242979Y-135395195D01*
X113248716Y-135399734D01*
X113314875Y-135430655D01*
X113318769Y-135432558D01*
X113383808Y-135465769D01*
X113390917Y-135467508D01*
X113396551Y-135469604D01*
X113402321Y-135471523D01*
X113408950Y-135474622D01*
X113416113Y-135476112D01*
X113416116Y-135476113D01*
X113466830Y-135486661D01*
X113480435Y-135489491D01*
X113484701Y-135490457D01*
X113555610Y-135507808D01*
X113561212Y-135508156D01*
X113561215Y-135508156D01*
X113566764Y-135508500D01*
X113566762Y-135508535D01*
X113570734Y-135508775D01*
X113574955Y-135509152D01*
X113582115Y-135510641D01*
X113659542Y-135508546D01*
X113662950Y-135508500D01*
X117707413Y-135508500D01*
X117781472Y-135532563D01*
X117787902Y-135537235D01*
X117787909Y-135537239D01*
X117793248Y-135541118D01*
X117799276Y-135543802D01*
X117799278Y-135543803D01*
X117961681Y-135616109D01*
X117967712Y-135618794D01*
X118061112Y-135638647D01*
X118148056Y-135657128D01*
X118148061Y-135657128D01*
X118154513Y-135658500D01*
X118345487Y-135658500D01*
X118351939Y-135657128D01*
X118351944Y-135657128D01*
X118438888Y-135638647D01*
X118532288Y-135618794D01*
X118538319Y-135616109D01*
X118700722Y-135543803D01*
X118700724Y-135543802D01*
X118706752Y-135541118D01*
X118712097Y-135537235D01*
X118777200Y-135489934D01*
X118861253Y-135428866D01*
X118966511Y-135311965D01*
X118984621Y-135291852D01*
X118984622Y-135291851D01*
X118989040Y-135286944D01*
X119084527Y-135121556D01*
X119143542Y-134939928D01*
X119163504Y-134750000D01*
X119161482Y-134730760D01*
X119144232Y-134566635D01*
X119144232Y-134566633D01*
X119143542Y-134560072D01*
X119084527Y-134378444D01*
X118989040Y-134213056D01*
X118971254Y-134193302D01*
X118865675Y-134076045D01*
X118865674Y-134076044D01*
X118861253Y-134071134D01*
X118751647Y-133991500D01*
X118712094Y-133962763D01*
X118712093Y-133962762D01*
X118706752Y-133958882D01*
X118700724Y-133956198D01*
X118700722Y-133956197D01*
X118538319Y-133883891D01*
X118538318Y-133883891D01*
X118532288Y-133881206D01*
X118436926Y-133860936D01*
X118351944Y-133842872D01*
X118351939Y-133842872D01*
X118345487Y-133841500D01*
X118154513Y-133841500D01*
X118148061Y-133842872D01*
X118148056Y-133842872D01*
X118063074Y-133860936D01*
X117967712Y-133881206D01*
X117961682Y-133883891D01*
X117961681Y-133883891D01*
X117799278Y-133956197D01*
X117799276Y-133956198D01*
X117793248Y-133958882D01*
X117787909Y-133962761D01*
X117787902Y-133962765D01*
X117781472Y-133967437D01*
X117707413Y-133991500D01*
X114016371Y-133991500D01*
X113948250Y-133971498D01*
X113927276Y-133954595D01*
X112095405Y-132122724D01*
X112061379Y-132060412D01*
X112058500Y-132033629D01*
X112058500Y-117350397D01*
X112075380Y-117287398D01*
X112084527Y-117271556D01*
X112143542Y-117089928D01*
X112163504Y-116900000D01*
X112143542Y-116710072D01*
X112084527Y-116528444D01*
X112025381Y-116426000D01*
X112008500Y-116363001D01*
X112008500Y-112136999D01*
X112025381Y-112073999D01*
X112081223Y-111977279D01*
X112081224Y-111977278D01*
X112084527Y-111971556D01*
X112143542Y-111789928D01*
X112163504Y-111600000D01*
X112143542Y-111410072D01*
X112084527Y-111228444D01*
X111989040Y-111063056D01*
X111861253Y-110921134D01*
X111706752Y-110808882D01*
X111700724Y-110806198D01*
X111700722Y-110806197D01*
X111538319Y-110733891D01*
X111538318Y-110733891D01*
X111532288Y-110731206D01*
X111438888Y-110711353D01*
X111351944Y-110692872D01*
X111351939Y-110692872D01*
X111345487Y-110691500D01*
X111154513Y-110691500D01*
X111148061Y-110692872D01*
X111148056Y-110692872D01*
X111061112Y-110711353D01*
X110967712Y-110731206D01*
X110961682Y-110733891D01*
X110961681Y-110733891D01*
X110799278Y-110806197D01*
X110799276Y-110806198D01*
X110793248Y-110808882D01*
X110638747Y-110921134D01*
X110510960Y-111063056D01*
X110415473Y-111228444D01*
X110356458Y-111410072D01*
X110336496Y-111600000D01*
X110356458Y-111789928D01*
X110415473Y-111971556D01*
X110418776Y-111977278D01*
X110418777Y-111977279D01*
X110474619Y-112073999D01*
X110491500Y-112136999D01*
X110491500Y-113624852D01*
X110471498Y-113692973D01*
X110417842Y-113739466D01*
X110347568Y-113749570D01*
X110314252Y-113739959D01*
X110188323Y-113683892D01*
X110188315Y-113683889D01*
X110182288Y-113681206D01*
X110088887Y-113661353D01*
X110001944Y-113642872D01*
X110001939Y-113642872D01*
X109995487Y-113641500D01*
X109804513Y-113641500D01*
X109798061Y-113642872D01*
X109798056Y-113642872D01*
X109711113Y-113661353D01*
X109617712Y-113681206D01*
X109611682Y-113683891D01*
X109611681Y-113683891D01*
X109449278Y-113756197D01*
X109449276Y-113756198D01*
X109443248Y-113758882D01*
X109288747Y-113871134D01*
X109160960Y-114013056D01*
X109065473Y-114178444D01*
X109006458Y-114360072D01*
X108986496Y-114550000D01*
X100508000Y-114550000D01*
X100508000Y-104042277D01*
X102137009Y-104042277D01*
X102162625Y-104310769D01*
X102163710Y-104315203D01*
X102163711Y-104315209D01*
X102225645Y-104568312D01*
X102226731Y-104572750D01*
X102327985Y-104822733D01*
X102464265Y-105055482D01*
X102467118Y-105059049D01*
X102584686Y-105206060D01*
X102632716Y-105266119D01*
X102829809Y-105450234D01*
X103051416Y-105603968D01*
X103055499Y-105605999D01*
X103055502Y-105606001D01*
X103171013Y-105663466D01*
X103292894Y-105724101D01*
X103297228Y-105725522D01*
X103297231Y-105725523D01*
X103544853Y-105806698D01*
X103544859Y-105806699D01*
X103549186Y-105808118D01*
X103553677Y-105808898D01*
X103553678Y-105808898D01*
X103811140Y-105853601D01*
X103811148Y-105853602D01*
X103814921Y-105854257D01*
X103818758Y-105854448D01*
X103898578Y-105858422D01*
X103898586Y-105858422D01*
X103900149Y-105858500D01*
X104068512Y-105858500D01*
X104070780Y-105858335D01*
X104070792Y-105858335D01*
X104201884Y-105848823D01*
X104269004Y-105843953D01*
X104273459Y-105842969D01*
X104273462Y-105842969D01*
X104527912Y-105786791D01*
X104527916Y-105786790D01*
X104532372Y-105785806D01*
X104658480Y-105738028D01*
X104780318Y-105691868D01*
X104780321Y-105691867D01*
X104784588Y-105690250D01*
X105020368Y-105559286D01*
X105234773Y-105395657D01*
X105423312Y-105202792D01*
X105582034Y-104984730D01*
X105665190Y-104826676D01*
X105705490Y-104750079D01*
X105705493Y-104750073D01*
X105707615Y-104746039D01*
X105770378Y-104568312D01*
X105795902Y-104496033D01*
X105795902Y-104496032D01*
X105797425Y-104491720D01*
X105849581Y-104227100D01*
X105858782Y-104042277D01*
X124137009Y-104042277D01*
X124162625Y-104310769D01*
X124163710Y-104315203D01*
X124163711Y-104315209D01*
X124225645Y-104568312D01*
X124226731Y-104572750D01*
X124327985Y-104822733D01*
X124464265Y-105055482D01*
X124467118Y-105059049D01*
X124584686Y-105206060D01*
X124632716Y-105266119D01*
X124829809Y-105450234D01*
X125051416Y-105603968D01*
X125055499Y-105605999D01*
X125055502Y-105606001D01*
X125171013Y-105663466D01*
X125292894Y-105724101D01*
X125297228Y-105725522D01*
X125297231Y-105725523D01*
X125544853Y-105806698D01*
X125544859Y-105806699D01*
X125549186Y-105808118D01*
X125553677Y-105808898D01*
X125553678Y-105808898D01*
X125811140Y-105853601D01*
X125811148Y-105853602D01*
X125814921Y-105854257D01*
X125818758Y-105854448D01*
X125898578Y-105858422D01*
X125898586Y-105858422D01*
X125900149Y-105858500D01*
X126068512Y-105858500D01*
X126070780Y-105858335D01*
X126070792Y-105858335D01*
X126201884Y-105848823D01*
X126269004Y-105843953D01*
X126273459Y-105842969D01*
X126273462Y-105842969D01*
X126527912Y-105786791D01*
X126527916Y-105786790D01*
X126532372Y-105785806D01*
X126658480Y-105738028D01*
X126780318Y-105691868D01*
X126780321Y-105691867D01*
X126784588Y-105690250D01*
X127020368Y-105559286D01*
X127234773Y-105395657D01*
X127423312Y-105202792D01*
X127582034Y-104984730D01*
X127665190Y-104826676D01*
X127705490Y-104750079D01*
X127705493Y-104750073D01*
X127707615Y-104746039D01*
X127770378Y-104568312D01*
X127795902Y-104496033D01*
X127795902Y-104496032D01*
X127797425Y-104491720D01*
X127849581Y-104227100D01*
X127858782Y-104042277D01*
X127862764Y-103962292D01*
X127862764Y-103962286D01*
X127862991Y-103957723D01*
X127837375Y-103689231D01*
X127792042Y-103503967D01*
X127774355Y-103431688D01*
X127773269Y-103427250D01*
X127672015Y-103177267D01*
X127535735Y-102944518D01*
X127417928Y-102797208D01*
X127370136Y-102737447D01*
X127370135Y-102737445D01*
X127367284Y-102733881D01*
X127170191Y-102549766D01*
X126948584Y-102396032D01*
X126944501Y-102394001D01*
X126944498Y-102393999D01*
X126779606Y-102311967D01*
X126707106Y-102275899D01*
X126702772Y-102274478D01*
X126702769Y-102274477D01*
X126455147Y-102193302D01*
X126455141Y-102193301D01*
X126450814Y-102191882D01*
X126446322Y-102191102D01*
X126188860Y-102146399D01*
X126188852Y-102146398D01*
X126185079Y-102145743D01*
X126173817Y-102145182D01*
X126101422Y-102141578D01*
X126101414Y-102141578D01*
X126099851Y-102141500D01*
X125931488Y-102141500D01*
X125929220Y-102141665D01*
X125929208Y-102141665D01*
X125798116Y-102151177D01*
X125730996Y-102156047D01*
X125726541Y-102157031D01*
X125726538Y-102157031D01*
X125472088Y-102213209D01*
X125472084Y-102213210D01*
X125467628Y-102214194D01*
X125341520Y-102261972D01*
X125219682Y-102308132D01*
X125219679Y-102308133D01*
X125215412Y-102309750D01*
X124979632Y-102440714D01*
X124765227Y-102604343D01*
X124576688Y-102797208D01*
X124417966Y-103015270D01*
X124415844Y-103019304D01*
X124294510Y-103249921D01*
X124294507Y-103249927D01*
X124292385Y-103253961D01*
X124290865Y-103258266D01*
X124290863Y-103258270D01*
X124204098Y-103503967D01*
X124202575Y-103508280D01*
X124150419Y-103772900D01*
X124150192Y-103777453D01*
X124150192Y-103777456D01*
X124140991Y-103962292D01*
X124137009Y-104042277D01*
X105858782Y-104042277D01*
X105862764Y-103962292D01*
X105862764Y-103962286D01*
X105862991Y-103957723D01*
X105837375Y-103689231D01*
X105792042Y-103503967D01*
X105774355Y-103431688D01*
X105773269Y-103427250D01*
X105672015Y-103177267D01*
X105535735Y-102944518D01*
X105417928Y-102797208D01*
X105370136Y-102737447D01*
X105370135Y-102737445D01*
X105367284Y-102733881D01*
X105170191Y-102549766D01*
X104948584Y-102396032D01*
X104944501Y-102394001D01*
X104944498Y-102393999D01*
X104779606Y-102311967D01*
X104707106Y-102275899D01*
X104702772Y-102274478D01*
X104702769Y-102274477D01*
X104455147Y-102193302D01*
X104455141Y-102193301D01*
X104450814Y-102191882D01*
X104446322Y-102191102D01*
X104188860Y-102146399D01*
X104188852Y-102146398D01*
X104185079Y-102145743D01*
X104173817Y-102145182D01*
X104101422Y-102141578D01*
X104101414Y-102141578D01*
X104099851Y-102141500D01*
X103931488Y-102141500D01*
X103929220Y-102141665D01*
X103929208Y-102141665D01*
X103798116Y-102151177D01*
X103730996Y-102156047D01*
X103726541Y-102157031D01*
X103726538Y-102157031D01*
X103472088Y-102213209D01*
X103472084Y-102213210D01*
X103467628Y-102214194D01*
X103341520Y-102261972D01*
X103219682Y-102308132D01*
X103219679Y-102308133D01*
X103215412Y-102309750D01*
X102979632Y-102440714D01*
X102765227Y-102604343D01*
X102576688Y-102797208D01*
X102417966Y-103015270D01*
X102415844Y-103019304D01*
X102294510Y-103249921D01*
X102294507Y-103249927D01*
X102292385Y-103253961D01*
X102290865Y-103258266D01*
X102290863Y-103258270D01*
X102204098Y-103503967D01*
X102202575Y-103508280D01*
X102150419Y-103772900D01*
X102150192Y-103777453D01*
X102150192Y-103777456D01*
X102140991Y-103962292D01*
X102137009Y-104042277D01*
X100508000Y-104042277D01*
X100508000Y-100634000D01*
X100528002Y-100565879D01*
X100581658Y-100519386D01*
X100634000Y-100508000D01*
X129366000Y-100508000D01*
X129434121Y-100528002D01*
G37*
%TD.AperFunction*%
%TD*%
M02*
