M48
; DRILL file {KiCad (6.0.0)} date Sun Jan 16 13:33:28 2022
; FORMAT={-:-/ absolute / metric / decimal}
; #@! TF.CreationDate,2022-01-16T13:33:28+00:00
; #@! TF.GenerationSoftware,Kicad,Pcbnew,(6.0.0)
; #@! TF.FileFunction,MixedPlating,1,4
FMAT,2
METRIC
; #@! TA.AperFunction,Plated,PTH,ViaDrill
T1C0.300
; #@! TA.AperFunction,Plated,PTH,ViaDrill
T2C0.400
; #@! TA.AperFunction,NonPlated,NPTH,ComponentDrill
T3C2.700
%
G90
G05
T1
X101.05Y-115.5
X101.1Y-124.8
X102.6Y-124.85
X102.65Y-115.5
X104.15Y-124.85
X104.2Y-115.5
X104.85Y-117.2
X104.85Y-118.75
X104.85Y-121.25
X104.85Y-122.75
X106.0Y-121.3
X106.05Y-118.8
X106.65Y-122.25
X106.8Y-123.55
X107.1Y-119.1
X107.2Y-124.8
X108.0Y-125.7
X108.05Y-119.85
X108.8Y-120.95
X109.05Y-122.25
X109.15Y-123.55
X109.2Y-126.2
X113.3Y-118.65
X113.3Y-120.25
X113.3Y-121.85
X113.3Y-123.45
X113.3Y-125.05
X113.3Y-126.65
X113.3Y-128.25
X113.3Y-129.85
X113.3Y-131.45
X114.9Y-118.65
X114.9Y-120.25
X114.9Y-121.85
X114.9Y-123.45
X114.9Y-125.05
X114.9Y-126.65
X114.9Y-128.25
X114.9Y-129.85
X114.9Y-131.45
X116.5Y-118.65
X116.5Y-120.25
X116.5Y-121.85
X116.5Y-123.45
X116.5Y-125.05
X116.5Y-126.65
X116.5Y-128.25
X116.5Y-129.85
X116.5Y-131.45
X119.0Y-123.6
X119.0Y-126.35
X120.8Y-122.4
X120.95Y-130.0
X121.0Y-118.3
X121.0Y-127.35
X121.3Y-116.7
X121.35Y-115.25
X121.6Y-121.2
X122.1Y-113.9
X122.15Y-126.3
X122.3Y-129.4
X122.6Y-120.25
X123.15Y-113.0
X123.15Y-128.45
X123.35Y-119.1
X123.4Y-125.85
X123.65Y-116.25
X123.65Y-117.75
X124.45Y-110.45
X124.45Y-112.35
X124.5Y-115.2
X124.7Y-125.8
X124.75Y-124.25
X124.75Y-128.25
X124.75Y-129.95
X125.9Y-109.1
X125.9Y-118.4
X125.9Y-122.4
X125.9Y-131.75
X127.4Y-109.1
X127.4Y-118.4
X127.45Y-122.4
X127.45Y-131.7
X128.85Y-109.1
X128.85Y-118.35
X128.85Y-122.4
X128.85Y-131.75
T2
X109.9Y-114.55
X111.25Y-111.6
X111.25Y-116.9
X111.8Y-134.75
X118.25Y-134.75
X118.9Y-107.0
T3
X104.0Y-104.0
X104.0Y-136.0
X126.0Y-104.0
X126.0Y-136.0
T0
M30
