%TF.GenerationSoftware,KiCad,Pcbnew,(6.0.0)*%
%TF.CreationDate,2022-01-16T13:33:15+00:00*%
%TF.ProjectId,Relay_RF,52656c61-795f-4524-962e-6b696361645f,rev?*%
%TF.SameCoordinates,Original*%
%TF.FileFunction,Legend,Top*%
%TF.FilePolarity,Positive*%
%FSLAX46Y46*%
G04 Gerber Fmt 4.6, Leading zero omitted, Abs format (unit mm)*
G04 Created by KiCad (PCBNEW (6.0.0)) date 2022-01-16 13:33:15*
%MOMM*%
%LPD*%
G01*
G04 APERTURE LIST*
%ADD10C,0.150000*%
%ADD11C,0.120000*%
G04 APERTURE END LIST*
D10*
%TO.C,H1*%
X103238095Y-101102380D02*
X103238095Y-100102380D01*
X103238095Y-100578571D02*
X103809523Y-100578571D01*
X103809523Y-101102380D02*
X103809523Y-100102380D01*
X104809523Y-101102380D02*
X104238095Y-101102380D01*
X104523809Y-101102380D02*
X104523809Y-100102380D01*
X104428571Y-100245238D01*
X104333333Y-100340476D01*
X104238095Y-100388095D01*
%TO.C,J2*%
X105102380Y-120383333D02*
X105816666Y-120383333D01*
X105959523Y-120430952D01*
X106054761Y-120526190D01*
X106102380Y-120669047D01*
X106102380Y-120764285D01*
X105197619Y-119954761D02*
X105150000Y-119907142D01*
X105102380Y-119811904D01*
X105102380Y-119573809D01*
X105150000Y-119478571D01*
X105197619Y-119430952D01*
X105292857Y-119383333D01*
X105388095Y-119383333D01*
X105530952Y-119430952D01*
X106102380Y-120002380D01*
X106102380Y-119383333D01*
%TO.C,R2*%
X108433333Y-115052380D02*
X108100000Y-114576190D01*
X107861904Y-115052380D02*
X107861904Y-114052380D01*
X108242857Y-114052380D01*
X108338095Y-114100000D01*
X108385714Y-114147619D01*
X108433333Y-114242857D01*
X108433333Y-114385714D01*
X108385714Y-114480952D01*
X108338095Y-114528571D01*
X108242857Y-114576190D01*
X107861904Y-114576190D01*
X108814285Y-114147619D02*
X108861904Y-114100000D01*
X108957142Y-114052380D01*
X109195238Y-114052380D01*
X109290476Y-114100000D01*
X109338095Y-114147619D01*
X109385714Y-114242857D01*
X109385714Y-114338095D01*
X109338095Y-114480952D01*
X108766666Y-115052380D01*
X109385714Y-115052380D01*
%TO.C,K1*%
X116711904Y-116902380D02*
X116711904Y-115902380D01*
X117283333Y-116902380D02*
X116854761Y-116330952D01*
X117283333Y-115902380D02*
X116711904Y-116473809D01*
X118235714Y-116902380D02*
X117664285Y-116902380D01*
X117950000Y-116902380D02*
X117950000Y-115902380D01*
X117854761Y-116045238D01*
X117759523Y-116140476D01*
X117664285Y-116188095D01*
%TO.C,R1*%
X120333333Y-113852380D02*
X120000000Y-113376190D01*
X119761904Y-113852380D02*
X119761904Y-112852380D01*
X120142857Y-112852380D01*
X120238095Y-112900000D01*
X120285714Y-112947619D01*
X120333333Y-113042857D01*
X120333333Y-113185714D01*
X120285714Y-113280952D01*
X120238095Y-113328571D01*
X120142857Y-113376190D01*
X119761904Y-113376190D01*
X121285714Y-113852380D02*
X120714285Y-113852380D01*
X121000000Y-113852380D02*
X121000000Y-112852380D01*
X120904761Y-112995238D01*
X120809523Y-113090476D01*
X120714285Y-113138095D01*
%TO.C,C2*%
X119533333Y-137907142D02*
X119485714Y-137954761D01*
X119342857Y-138002380D01*
X119247619Y-138002380D01*
X119104761Y-137954761D01*
X119009523Y-137859523D01*
X118961904Y-137764285D01*
X118914285Y-137573809D01*
X118914285Y-137430952D01*
X118961904Y-137240476D01*
X119009523Y-137145238D01*
X119104761Y-137050000D01*
X119247619Y-137002380D01*
X119342857Y-137002380D01*
X119485714Y-137050000D01*
X119533333Y-137097619D01*
X119914285Y-137097619D02*
X119961904Y-137050000D01*
X120057142Y-137002380D01*
X120295238Y-137002380D01*
X120390476Y-137050000D01*
X120438095Y-137097619D01*
X120485714Y-137192857D01*
X120485714Y-137288095D01*
X120438095Y-137430952D01*
X119866666Y-138002380D01*
X120485714Y-138002380D01*
%TO.C,R3*%
X117983333Y-113902380D02*
X117650000Y-113426190D01*
X117411904Y-113902380D02*
X117411904Y-112902380D01*
X117792857Y-112902380D01*
X117888095Y-112950000D01*
X117935714Y-112997619D01*
X117983333Y-113092857D01*
X117983333Y-113235714D01*
X117935714Y-113330952D01*
X117888095Y-113378571D01*
X117792857Y-113426190D01*
X117411904Y-113426190D01*
X118316666Y-112902380D02*
X118935714Y-112902380D01*
X118602380Y-113283333D01*
X118745238Y-113283333D01*
X118840476Y-113330952D01*
X118888095Y-113378571D01*
X118935714Y-113473809D01*
X118935714Y-113711904D01*
X118888095Y-113807142D01*
X118840476Y-113854761D01*
X118745238Y-113902380D01*
X118459523Y-113902380D01*
X118364285Y-113854761D01*
X118316666Y-113807142D01*
%TO.C,C1*%
X105558333Y-112687142D02*
X105510714Y-112734761D01*
X105367857Y-112782380D01*
X105272619Y-112782380D01*
X105129761Y-112734761D01*
X105034523Y-112639523D01*
X104986904Y-112544285D01*
X104939285Y-112353809D01*
X104939285Y-112210952D01*
X104986904Y-112020476D01*
X105034523Y-111925238D01*
X105129761Y-111830000D01*
X105272619Y-111782380D01*
X105367857Y-111782380D01*
X105510714Y-111830000D01*
X105558333Y-111877619D01*
X106510714Y-112782380D02*
X105939285Y-112782380D01*
X106225000Y-112782380D02*
X106225000Y-111782380D01*
X106129761Y-111925238D01*
X106034523Y-112020476D01*
X105939285Y-112068095D01*
%TO.C,H4*%
X125238095Y-133102380D02*
X125238095Y-132102380D01*
X125238095Y-132578571D02*
X125809523Y-132578571D01*
X125809523Y-133102380D02*
X125809523Y-132102380D01*
X126714285Y-132435714D02*
X126714285Y-133102380D01*
X126476190Y-132054761D02*
X126238095Y-132769047D01*
X126857142Y-132769047D01*
%TO.C,H2*%
X103238095Y-133102380D02*
X103238095Y-132102380D01*
X103238095Y-132578571D02*
X103809523Y-132578571D01*
X103809523Y-133102380D02*
X103809523Y-132102380D01*
X104238095Y-132197619D02*
X104285714Y-132150000D01*
X104380952Y-132102380D01*
X104619047Y-132102380D01*
X104714285Y-132150000D01*
X104761904Y-132197619D01*
X104809523Y-132292857D01*
X104809523Y-132388095D01*
X104761904Y-132530952D01*
X104190476Y-133102380D01*
X104809523Y-133102380D01*
%TO.C,J1*%
X121616666Y-106602380D02*
X121616666Y-107316666D01*
X121569047Y-107459523D01*
X121473809Y-107554761D01*
X121330952Y-107602380D01*
X121235714Y-107602380D01*
X122616666Y-107602380D02*
X122045238Y-107602380D01*
X122330952Y-107602380D02*
X122330952Y-106602380D01*
X122235714Y-106745238D01*
X122140476Y-106840476D01*
X122045238Y-106888095D01*
%TO.C,J4*%
X123802380Y-127333333D02*
X124516666Y-127333333D01*
X124659523Y-127380952D01*
X124754761Y-127476190D01*
X124802380Y-127619047D01*
X124802380Y-127714285D01*
X124135714Y-126428571D02*
X124802380Y-126428571D01*
X123754761Y-126666666D02*
X124469047Y-126904761D01*
X124469047Y-126285714D01*
%TO.C,D1*%
X118961904Y-135302380D02*
X118961904Y-134302380D01*
X119200000Y-134302380D01*
X119342857Y-134350000D01*
X119438095Y-134445238D01*
X119485714Y-134540476D01*
X119533333Y-134730952D01*
X119533333Y-134873809D01*
X119485714Y-135064285D01*
X119438095Y-135159523D01*
X119342857Y-135254761D01*
X119200000Y-135302380D01*
X118961904Y-135302380D01*
X120485714Y-135302380D02*
X119914285Y-135302380D01*
X120200000Y-135302380D02*
X120200000Y-134302380D01*
X120104761Y-134445238D01*
X120009523Y-134540476D01*
X119914285Y-134588095D01*
%TO.C,D2*%
X108624404Y-110022380D02*
X108624404Y-109022380D01*
X108862500Y-109022380D01*
X109005357Y-109070000D01*
X109100595Y-109165238D01*
X109148214Y-109260476D01*
X109195833Y-109450952D01*
X109195833Y-109593809D01*
X109148214Y-109784285D01*
X109100595Y-109879523D01*
X109005357Y-109974761D01*
X108862500Y-110022380D01*
X108624404Y-110022380D01*
X109576785Y-109117619D02*
X109624404Y-109070000D01*
X109719642Y-109022380D01*
X109957738Y-109022380D01*
X110052976Y-109070000D01*
X110100595Y-109117619D01*
X110148214Y-109212857D01*
X110148214Y-109308095D01*
X110100595Y-109450952D01*
X109529166Y-110022380D01*
X110148214Y-110022380D01*
%TO.C,Q1*%
X114204761Y-110597619D02*
X114109523Y-110550000D01*
X114014285Y-110454761D01*
X113871428Y-110311904D01*
X113776190Y-110264285D01*
X113680952Y-110264285D01*
X113728571Y-110502380D02*
X113633333Y-110454761D01*
X113538095Y-110359523D01*
X113490476Y-110169047D01*
X113490476Y-109835714D01*
X113538095Y-109645238D01*
X113633333Y-109550000D01*
X113728571Y-109502380D01*
X113919047Y-109502380D01*
X114014285Y-109550000D01*
X114109523Y-109645238D01*
X114157142Y-109835714D01*
X114157142Y-110169047D01*
X114109523Y-110359523D01*
X114014285Y-110454761D01*
X113919047Y-110502380D01*
X113728571Y-110502380D01*
X115109523Y-110502380D02*
X114538095Y-110502380D01*
X114823809Y-110502380D02*
X114823809Y-109502380D01*
X114728571Y-109645238D01*
X114633333Y-109740476D01*
X114538095Y-109788095D01*
%TO.C,H3*%
X125238095Y-101102380D02*
X125238095Y-100102380D01*
X125238095Y-100578571D02*
X125809523Y-100578571D01*
X125809523Y-101102380D02*
X125809523Y-100102380D01*
X126190476Y-100102380D02*
X126809523Y-100102380D01*
X126476190Y-100483333D01*
X126619047Y-100483333D01*
X126714285Y-100530952D01*
X126761904Y-100578571D01*
X126809523Y-100673809D01*
X126809523Y-100911904D01*
X126761904Y-101007142D01*
X126714285Y-101054761D01*
X126619047Y-101102380D01*
X126333333Y-101102380D01*
X126238095Y-101054761D01*
X126190476Y-101007142D01*
%TO.C,J3*%
X123802380Y-114033333D02*
X124516666Y-114033333D01*
X124659523Y-114080952D01*
X124754761Y-114176190D01*
X124802380Y-114319047D01*
X124802380Y-114414285D01*
X123802380Y-113652380D02*
X123802380Y-113033333D01*
X124183333Y-113366666D01*
X124183333Y-113223809D01*
X124230952Y-113128571D01*
X124278571Y-113080952D01*
X124373809Y-113033333D01*
X124611904Y-113033333D01*
X124707142Y-113080952D01*
X124754761Y-113128571D01*
X124802380Y-113223809D01*
X124802380Y-113509523D01*
X124754761Y-113604761D01*
X124707142Y-113652380D01*
D11*
%TO.C,J2*%
X104910000Y-120300000D02*
X104910000Y-119800000D01*
X103860000Y-120890000D02*
X103860000Y-122000000D01*
X104910000Y-119800000D02*
X104410000Y-120050000D01*
X104410000Y-120050000D02*
X104910000Y-120300000D01*
X100150000Y-118100000D02*
X100150000Y-119210000D01*
X103860000Y-118100000D02*
X103860000Y-119210000D01*
X100150000Y-120890000D02*
X100150000Y-122000000D01*
%TO.C,R2*%
X109637258Y-113622500D02*
X109162742Y-113622500D01*
X109637258Y-112577500D02*
X109162742Y-112577500D01*
D10*
%TO.C,K1*%
X118800000Y-132400000D02*
X111300000Y-132400000D01*
X111100000Y-117400000D02*
X111600000Y-117400000D01*
X118800000Y-117600000D02*
X111300000Y-117600000D01*
X118800000Y-132100000D02*
X118800000Y-132400000D01*
X111600000Y-117400000D02*
X111700000Y-117400000D01*
X118800000Y-118000000D02*
X118800000Y-117600000D01*
X118800000Y-132100000D02*
X118800000Y-132000000D01*
X111300000Y-132400000D02*
X111300000Y-132000000D01*
X111100000Y-118000000D02*
X111100000Y-117400000D01*
X111300000Y-117600000D02*
X111300000Y-118000000D01*
D11*
%TO.C,R1*%
X120922500Y-111387258D02*
X120922500Y-110912742D01*
X119877500Y-111387258D02*
X119877500Y-110912742D01*
%TO.C,C2*%
X115440580Y-137040000D02*
X115159420Y-137040000D01*
X115440580Y-138060000D02*
X115159420Y-138060000D01*
%TO.C,R3*%
X118622500Y-110912742D02*
X118622500Y-111387258D01*
X117577500Y-110912742D02*
X117577500Y-111387258D01*
%TO.C,C1*%
X105865580Y-111410000D02*
X105584420Y-111410000D01*
X105865580Y-110390000D02*
X105584420Y-110390000D01*
%TO.C,J1*%
X112240000Y-105860000D02*
X112240000Y-108250000D01*
X109915000Y-105010000D02*
X109915000Y-105860000D01*
X109915000Y-101490000D02*
X109915000Y-100640000D01*
X120085000Y-100640000D02*
X120085000Y-101490000D01*
X120085000Y-105010000D02*
X120085000Y-105860000D01*
X120085000Y-105860000D02*
X117760000Y-105860000D01*
X109915000Y-100640000D02*
X120085000Y-100640000D01*
X109915000Y-105860000D02*
X112240000Y-105860000D01*
%TO.C,J4*%
X129850000Y-128950000D02*
X129850000Y-127840000D01*
X125090000Y-127250000D02*
X125590000Y-127000000D01*
X126140000Y-128950000D02*
X126140000Y-127840000D01*
X129850000Y-126160000D02*
X129850000Y-125050000D01*
X125590000Y-127000000D02*
X125090000Y-126750000D01*
X125090000Y-126750000D02*
X125090000Y-127250000D01*
X126140000Y-126160000D02*
X126140000Y-125050000D01*
%TO.C,D1*%
X113050000Y-135750000D02*
X116950000Y-135750000D01*
X113050000Y-133750000D02*
X113050000Y-135750000D01*
X113050000Y-133750000D02*
X116950000Y-133750000D01*
%TO.C,D2*%
X110162500Y-110265000D02*
X107877500Y-110265000D01*
X107877500Y-111735000D02*
X110162500Y-111735000D01*
X107877500Y-110265000D02*
X107877500Y-111735000D01*
%TO.C,Q1*%
X114200000Y-114160000D02*
X113550000Y-114160000D01*
X114200000Y-111040000D02*
X112525000Y-111040000D01*
X114200000Y-114160000D02*
X114850000Y-114160000D01*
X114200000Y-111040000D02*
X114850000Y-111040000D01*
%TO.C,J3*%
X125090000Y-113450000D02*
X125090000Y-113950000D01*
X129850000Y-115650000D02*
X129850000Y-114540000D01*
X129850000Y-112860000D02*
X129850000Y-111750000D01*
X126140000Y-115650000D02*
X126140000Y-114540000D01*
X125090000Y-113950000D02*
X125590000Y-113700000D01*
X126140000Y-112860000D02*
X126140000Y-111750000D01*
X125590000Y-113700000D02*
X125090000Y-113450000D01*
%TD*%
M02*
