%TF.GenerationSoftware,KiCad,Pcbnew,(6.0.0)*%
%TF.CreationDate,2022-01-16T13:33:15+00:00*%
%TF.ProjectId,Relay_RF,52656c61-795f-4524-962e-6b696361645f,rev?*%
%TF.SameCoordinates,Original*%
%TF.FileFunction,Copper,L4,Bot*%
%TF.FilePolarity,Positive*%
%FSLAX46Y46*%
G04 Gerber Fmt 4.6, Leading zero omitted, Abs format (unit mm)*
G04 Created by KiCad (PCBNEW (6.0.0)) date 2022-01-16 13:33:15*
%MOMM*%
%LPD*%
G01*
G04 APERTURE LIST*
%TA.AperFunction,SMDPad,CuDef*%
%ADD10R,4.200000X1.350000*%
%TD*%
%TA.AperFunction,ViaPad*%
%ADD11C,0.800000*%
%TD*%
G04 APERTURE END LIST*
D10*
%TO.P,J2,2,Ext*%
%TO.N,GND*%
X102150000Y-122875000D03*
X102150000Y-117225000D03*
%TD*%
%TO.P,J4,2,Ext*%
%TO.N,GND*%
X127850000Y-124175000D03*
X127850000Y-129825000D03*
%TD*%
%TO.P,J3,2,Ext*%
%TO.N,GND*%
X127850000Y-116525000D03*
X127850000Y-110875000D03*
%TD*%
D11*
%TO.N,GND*%
X123650000Y-117750000D03*
X127400000Y-109100000D03*
X119000000Y-126350000D03*
X101100000Y-124800000D03*
X116500000Y-118650000D03*
X124450000Y-112350000D03*
X120800000Y-122400000D03*
X124700000Y-125800000D03*
X116500000Y-120250000D03*
X104150000Y-124850000D03*
X113300000Y-128250000D03*
X113300000Y-131450000D03*
X116500000Y-123450000D03*
X107100000Y-119100000D03*
X116500000Y-129850000D03*
X128850000Y-131750000D03*
X116500000Y-125050000D03*
X104200000Y-115500000D03*
X106800000Y-123550000D03*
X128850000Y-122400000D03*
X127450000Y-131700000D03*
X123150000Y-113000000D03*
X106000000Y-121300000D03*
X113300000Y-123450000D03*
X116500000Y-121850000D03*
X113300000Y-129850000D03*
X108800000Y-120950000D03*
X122300000Y-129400000D03*
X122100000Y-113900000D03*
X123350000Y-119100000D03*
X104850000Y-118750000D03*
X114900000Y-123450000D03*
X104850000Y-117200000D03*
X114900000Y-121850000D03*
X123150000Y-128450000D03*
X113300000Y-125050000D03*
X127400000Y-118400000D03*
X116500000Y-126650000D03*
X114900000Y-118650000D03*
X121350000Y-115250000D03*
X125900000Y-122400000D03*
X116500000Y-131450000D03*
X114900000Y-120250000D03*
X113300000Y-121850000D03*
X114900000Y-125050000D03*
X102600000Y-124850000D03*
X122150000Y-126300000D03*
X124450000Y-110450000D03*
X114900000Y-131450000D03*
X107200000Y-124800000D03*
X102650000Y-115500000D03*
X124750000Y-124250000D03*
X128850000Y-109100000D03*
X124750000Y-129950000D03*
X109050000Y-122250000D03*
X121000000Y-127350000D03*
X125900000Y-131750000D03*
X128850000Y-118350000D03*
X123650000Y-116250000D03*
X106650000Y-122250000D03*
X125900000Y-109100000D03*
X108000000Y-125700000D03*
X123400000Y-125850000D03*
X113300000Y-126650000D03*
X127450000Y-122400000D03*
X109200000Y-126200000D03*
X108050000Y-119850000D03*
X114900000Y-129850000D03*
X124750000Y-128250000D03*
X101050000Y-115500000D03*
X118900000Y-107000000D03*
X113300000Y-120250000D03*
X121600000Y-121200000D03*
X114900000Y-126650000D03*
X121300000Y-116700000D03*
X113300000Y-118650000D03*
X120950000Y-130000000D03*
X116500000Y-128250000D03*
X109150000Y-123550000D03*
X119000000Y-123600000D03*
X104850000Y-121250000D03*
X114900000Y-128250000D03*
X122600000Y-120250000D03*
X121000000Y-118300000D03*
X106050000Y-118800000D03*
X124500000Y-115200000D03*
X104850000Y-122750000D03*
X125900000Y-118400000D03*
%TO.N,Net-(C1-Pad1)*%
X111250000Y-116900000D03*
X118250000Y-134750000D03*
X111250000Y-111600000D03*
%TO.N,Net-(D1-Pad1)*%
X111800000Y-134750000D03*
X109900000Y-114550000D03*
%TD*%
%TA.AperFunction,Conductor*%
%TO.N,GND*%
G36*
X129434121Y-100528002D02*
G01*
X129480614Y-100581658D01*
X129492000Y-100634000D01*
X129492000Y-139366000D01*
X129471998Y-139434121D01*
X129418342Y-139480614D01*
X129366000Y-139492000D01*
X100634000Y-139492000D01*
X100565879Y-139471998D01*
X100519386Y-139418342D01*
X100508000Y-139366000D01*
X100508000Y-136042277D01*
X102137009Y-136042277D01*
X102162625Y-136310769D01*
X102163710Y-136315203D01*
X102163711Y-136315209D01*
X102225645Y-136568312D01*
X102226731Y-136572750D01*
X102327985Y-136822733D01*
X102464265Y-137055482D01*
X102467118Y-137059049D01*
X102584686Y-137206060D01*
X102632716Y-137266119D01*
X102829809Y-137450234D01*
X103051416Y-137603968D01*
X103055499Y-137605999D01*
X103055502Y-137606001D01*
X103171013Y-137663466D01*
X103292894Y-137724101D01*
X103297228Y-137725522D01*
X103297231Y-137725523D01*
X103544853Y-137806698D01*
X103544859Y-137806699D01*
X103549186Y-137808118D01*
X103553677Y-137808898D01*
X103553678Y-137808898D01*
X103811140Y-137853601D01*
X103811148Y-137853602D01*
X103814921Y-137854257D01*
X103818758Y-137854448D01*
X103898578Y-137858422D01*
X103898586Y-137858422D01*
X103900149Y-137858500D01*
X104068512Y-137858500D01*
X104070780Y-137858335D01*
X104070792Y-137858335D01*
X104201884Y-137848823D01*
X104269004Y-137843953D01*
X104273459Y-137842969D01*
X104273462Y-137842969D01*
X104527912Y-137786791D01*
X104527916Y-137786790D01*
X104532372Y-137785806D01*
X104658480Y-137738028D01*
X104780318Y-137691868D01*
X104780321Y-137691867D01*
X104784588Y-137690250D01*
X105020368Y-137559286D01*
X105234773Y-137395657D01*
X105423312Y-137202792D01*
X105582034Y-136984730D01*
X105665190Y-136826676D01*
X105705490Y-136750079D01*
X105705493Y-136750073D01*
X105707615Y-136746039D01*
X105770378Y-136568312D01*
X105795902Y-136496033D01*
X105795902Y-136496032D01*
X105797425Y-136491720D01*
X105849581Y-136227100D01*
X105858782Y-136042277D01*
X124137009Y-136042277D01*
X124162625Y-136310769D01*
X124163710Y-136315203D01*
X124163711Y-136315209D01*
X124225645Y-136568312D01*
X124226731Y-136572750D01*
X124327985Y-136822733D01*
X124464265Y-137055482D01*
X124467118Y-137059049D01*
X124584686Y-137206060D01*
X124632716Y-137266119D01*
X124829809Y-137450234D01*
X125051416Y-137603968D01*
X125055499Y-137605999D01*
X125055502Y-137606001D01*
X125171013Y-137663466D01*
X125292894Y-137724101D01*
X125297228Y-137725522D01*
X125297231Y-137725523D01*
X125544853Y-137806698D01*
X125544859Y-137806699D01*
X125549186Y-137808118D01*
X125553677Y-137808898D01*
X125553678Y-137808898D01*
X125811140Y-137853601D01*
X125811148Y-137853602D01*
X125814921Y-137854257D01*
X125818758Y-137854448D01*
X125898578Y-137858422D01*
X125898586Y-137858422D01*
X125900149Y-137858500D01*
X126068512Y-137858500D01*
X126070780Y-137858335D01*
X126070792Y-137858335D01*
X126201884Y-137848823D01*
X126269004Y-137843953D01*
X126273459Y-137842969D01*
X126273462Y-137842969D01*
X126527912Y-137786791D01*
X126527916Y-137786790D01*
X126532372Y-137785806D01*
X126658480Y-137738028D01*
X126780318Y-137691868D01*
X126780321Y-137691867D01*
X126784588Y-137690250D01*
X127020368Y-137559286D01*
X127234773Y-137395657D01*
X127423312Y-137202792D01*
X127582034Y-136984730D01*
X127665190Y-136826676D01*
X127705490Y-136750079D01*
X127705493Y-136750073D01*
X127707615Y-136746039D01*
X127770378Y-136568312D01*
X127795902Y-136496033D01*
X127795902Y-136496032D01*
X127797425Y-136491720D01*
X127849581Y-136227100D01*
X127858782Y-136042277D01*
X127862764Y-135962292D01*
X127862764Y-135962286D01*
X127862991Y-135957723D01*
X127837375Y-135689231D01*
X127829856Y-135658500D01*
X127774355Y-135431688D01*
X127773269Y-135427250D01*
X127672015Y-135177267D01*
X127535735Y-134944518D01*
X127417928Y-134797208D01*
X127370136Y-134737447D01*
X127370135Y-134737445D01*
X127367284Y-134733881D01*
X127170191Y-134549766D01*
X126948584Y-134396032D01*
X126944501Y-134394001D01*
X126944498Y-134393999D01*
X126779606Y-134311967D01*
X126707106Y-134275899D01*
X126702772Y-134274478D01*
X126702769Y-134274477D01*
X126455147Y-134193302D01*
X126455141Y-134193301D01*
X126450814Y-134191882D01*
X126446322Y-134191102D01*
X126188860Y-134146399D01*
X126188852Y-134146398D01*
X126185079Y-134145743D01*
X126173817Y-134145182D01*
X126101422Y-134141578D01*
X126101414Y-134141578D01*
X126099851Y-134141500D01*
X125931488Y-134141500D01*
X125929220Y-134141665D01*
X125929208Y-134141665D01*
X125798116Y-134151177D01*
X125730996Y-134156047D01*
X125726541Y-134157031D01*
X125726538Y-134157031D01*
X125472088Y-134213209D01*
X125472084Y-134213210D01*
X125467628Y-134214194D01*
X125341520Y-134261972D01*
X125219682Y-134308132D01*
X125219679Y-134308133D01*
X125215412Y-134309750D01*
X124979632Y-134440714D01*
X124765227Y-134604343D01*
X124576688Y-134797208D01*
X124417966Y-135015270D01*
X124415844Y-135019304D01*
X124294510Y-135249921D01*
X124294507Y-135249927D01*
X124292385Y-135253961D01*
X124290865Y-135258266D01*
X124290863Y-135258270D01*
X124229248Y-135432749D01*
X124202575Y-135508280D01*
X124150419Y-135772900D01*
X124150192Y-135777453D01*
X124150192Y-135777456D01*
X124140991Y-135962292D01*
X124137009Y-136042277D01*
X105858782Y-136042277D01*
X105862764Y-135962292D01*
X105862764Y-135962286D01*
X105862991Y-135957723D01*
X105837375Y-135689231D01*
X105829856Y-135658500D01*
X105774355Y-135431688D01*
X105773269Y-135427250D01*
X105672015Y-135177267D01*
X105535735Y-134944518D01*
X105417928Y-134797208D01*
X105380175Y-134750000D01*
X110886496Y-134750000D01*
X110906458Y-134939928D01*
X110965473Y-135121556D01*
X111060960Y-135286944D01*
X111188747Y-135428866D01*
X111287843Y-135500864D01*
X111298051Y-135508280D01*
X111343248Y-135541118D01*
X111349276Y-135543802D01*
X111349278Y-135543803D01*
X111511681Y-135616109D01*
X111517712Y-135618794D01*
X111611112Y-135638647D01*
X111698056Y-135657128D01*
X111698061Y-135657128D01*
X111704513Y-135658500D01*
X111895487Y-135658500D01*
X111901939Y-135657128D01*
X111901944Y-135657128D01*
X111988888Y-135638647D01*
X112082288Y-135618794D01*
X112088319Y-135616109D01*
X112250722Y-135543803D01*
X112250724Y-135543802D01*
X112256752Y-135541118D01*
X112301950Y-135508280D01*
X112312157Y-135500864D01*
X112411253Y-135428866D01*
X112539040Y-135286944D01*
X112634527Y-135121556D01*
X112693542Y-134939928D01*
X112713504Y-134750000D01*
X117336496Y-134750000D01*
X117356458Y-134939928D01*
X117415473Y-135121556D01*
X117510960Y-135286944D01*
X117638747Y-135428866D01*
X117737843Y-135500864D01*
X117748051Y-135508280D01*
X117793248Y-135541118D01*
X117799276Y-135543802D01*
X117799278Y-135543803D01*
X117961681Y-135616109D01*
X117967712Y-135618794D01*
X118061112Y-135638647D01*
X118148056Y-135657128D01*
X118148061Y-135657128D01*
X118154513Y-135658500D01*
X118345487Y-135658500D01*
X118351939Y-135657128D01*
X118351944Y-135657128D01*
X118438888Y-135638647D01*
X118532288Y-135618794D01*
X118538319Y-135616109D01*
X118700722Y-135543803D01*
X118700724Y-135543802D01*
X118706752Y-135541118D01*
X118751950Y-135508280D01*
X118762157Y-135500864D01*
X118861253Y-135428866D01*
X118989040Y-135286944D01*
X119084527Y-135121556D01*
X119143542Y-134939928D01*
X119163504Y-134750000D01*
X119161482Y-134730760D01*
X119144232Y-134566635D01*
X119144232Y-134566633D01*
X119143542Y-134560072D01*
X119084527Y-134378444D01*
X118989040Y-134213056D01*
X118971254Y-134193302D01*
X118865675Y-134076045D01*
X118865674Y-134076044D01*
X118861253Y-134071134D01*
X118706752Y-133958882D01*
X118700724Y-133956198D01*
X118700722Y-133956197D01*
X118538319Y-133883891D01*
X118538318Y-133883891D01*
X118532288Y-133881206D01*
X118438888Y-133861353D01*
X118351944Y-133842872D01*
X118351939Y-133842872D01*
X118345487Y-133841500D01*
X118154513Y-133841500D01*
X118148061Y-133842872D01*
X118148056Y-133842872D01*
X118061112Y-133861353D01*
X117967712Y-133881206D01*
X117961682Y-133883891D01*
X117961681Y-133883891D01*
X117799278Y-133956197D01*
X117799276Y-133956198D01*
X117793248Y-133958882D01*
X117638747Y-134071134D01*
X117634326Y-134076044D01*
X117634325Y-134076045D01*
X117528747Y-134193302D01*
X117510960Y-134213056D01*
X117415473Y-134378444D01*
X117356458Y-134560072D01*
X117355768Y-134566633D01*
X117355768Y-134566635D01*
X117338518Y-134730760D01*
X117336496Y-134750000D01*
X112713504Y-134750000D01*
X112711482Y-134730760D01*
X112694232Y-134566635D01*
X112694232Y-134566633D01*
X112693542Y-134560072D01*
X112634527Y-134378444D01*
X112539040Y-134213056D01*
X112521254Y-134193302D01*
X112415675Y-134076045D01*
X112415674Y-134076044D01*
X112411253Y-134071134D01*
X112256752Y-133958882D01*
X112250724Y-133956198D01*
X112250722Y-133956197D01*
X112088319Y-133883891D01*
X112088318Y-133883891D01*
X112082288Y-133881206D01*
X111988888Y-133861353D01*
X111901944Y-133842872D01*
X111901939Y-133842872D01*
X111895487Y-133841500D01*
X111704513Y-133841500D01*
X111698061Y-133842872D01*
X111698056Y-133842872D01*
X111611112Y-133861353D01*
X111517712Y-133881206D01*
X111511682Y-133883891D01*
X111511681Y-133883891D01*
X111349278Y-133956197D01*
X111349276Y-133956198D01*
X111343248Y-133958882D01*
X111188747Y-134071134D01*
X111184326Y-134076044D01*
X111184325Y-134076045D01*
X111078747Y-134193302D01*
X111060960Y-134213056D01*
X110965473Y-134378444D01*
X110906458Y-134560072D01*
X110905768Y-134566633D01*
X110905768Y-134566635D01*
X110888518Y-134730760D01*
X110886496Y-134750000D01*
X105380175Y-134750000D01*
X105370136Y-134737447D01*
X105370135Y-134737445D01*
X105367284Y-134733881D01*
X105170191Y-134549766D01*
X104948584Y-134396032D01*
X104944501Y-134394001D01*
X104944498Y-134393999D01*
X104779606Y-134311967D01*
X104707106Y-134275899D01*
X104702772Y-134274478D01*
X104702769Y-134274477D01*
X104455147Y-134193302D01*
X104455141Y-134193301D01*
X104450814Y-134191882D01*
X104446322Y-134191102D01*
X104188860Y-134146399D01*
X104188852Y-134146398D01*
X104185079Y-134145743D01*
X104173817Y-134145182D01*
X104101422Y-134141578D01*
X104101414Y-134141578D01*
X104099851Y-134141500D01*
X103931488Y-134141500D01*
X103929220Y-134141665D01*
X103929208Y-134141665D01*
X103798116Y-134151177D01*
X103730996Y-134156047D01*
X103726541Y-134157031D01*
X103726538Y-134157031D01*
X103472088Y-134213209D01*
X103472084Y-134213210D01*
X103467628Y-134214194D01*
X103341520Y-134261972D01*
X103219682Y-134308132D01*
X103219679Y-134308133D01*
X103215412Y-134309750D01*
X102979632Y-134440714D01*
X102765227Y-134604343D01*
X102576688Y-134797208D01*
X102417966Y-135015270D01*
X102415844Y-135019304D01*
X102294510Y-135249921D01*
X102294507Y-135249927D01*
X102292385Y-135253961D01*
X102290865Y-135258266D01*
X102290863Y-135258270D01*
X102229248Y-135432749D01*
X102202575Y-135508280D01*
X102150419Y-135772900D01*
X102150192Y-135777453D01*
X102150192Y-135777456D01*
X102140991Y-135962292D01*
X102137009Y-136042277D01*
X100508000Y-136042277D01*
X100508000Y-116900000D01*
X110336496Y-116900000D01*
X110356458Y-117089928D01*
X110415473Y-117271556D01*
X110510960Y-117436944D01*
X110638747Y-117578866D01*
X110793248Y-117691118D01*
X110799276Y-117693802D01*
X110799278Y-117693803D01*
X110961681Y-117766109D01*
X110967712Y-117768794D01*
X111061112Y-117788647D01*
X111148056Y-117807128D01*
X111148061Y-117807128D01*
X111154513Y-117808500D01*
X111345487Y-117808500D01*
X111351939Y-117807128D01*
X111351944Y-117807128D01*
X111438888Y-117788647D01*
X111532288Y-117768794D01*
X111538319Y-117766109D01*
X111700722Y-117693803D01*
X111700724Y-117693802D01*
X111706752Y-117691118D01*
X111861253Y-117578866D01*
X111989040Y-117436944D01*
X112084527Y-117271556D01*
X112143542Y-117089928D01*
X112163504Y-116900000D01*
X112143542Y-116710072D01*
X112084527Y-116528444D01*
X111989040Y-116363056D01*
X111861253Y-116221134D01*
X111706752Y-116108882D01*
X111700724Y-116106198D01*
X111700722Y-116106197D01*
X111538319Y-116033891D01*
X111538318Y-116033891D01*
X111532288Y-116031206D01*
X111438887Y-116011353D01*
X111351944Y-115992872D01*
X111351939Y-115992872D01*
X111345487Y-115991500D01*
X111154513Y-115991500D01*
X111148061Y-115992872D01*
X111148056Y-115992872D01*
X111061113Y-116011353D01*
X110967712Y-116031206D01*
X110961682Y-116033891D01*
X110961681Y-116033891D01*
X110799278Y-116106197D01*
X110799276Y-116106198D01*
X110793248Y-116108882D01*
X110638747Y-116221134D01*
X110510960Y-116363056D01*
X110415473Y-116528444D01*
X110356458Y-116710072D01*
X110336496Y-116900000D01*
X100508000Y-116900000D01*
X100508000Y-114550000D01*
X108986496Y-114550000D01*
X109006458Y-114739928D01*
X109065473Y-114921556D01*
X109160960Y-115086944D01*
X109288747Y-115228866D01*
X109443248Y-115341118D01*
X109449276Y-115343802D01*
X109449278Y-115343803D01*
X109611681Y-115416109D01*
X109617712Y-115418794D01*
X109711112Y-115438647D01*
X109798056Y-115457128D01*
X109798061Y-115457128D01*
X109804513Y-115458500D01*
X109995487Y-115458500D01*
X110001939Y-115457128D01*
X110001944Y-115457128D01*
X110088888Y-115438647D01*
X110182288Y-115418794D01*
X110188319Y-115416109D01*
X110350722Y-115343803D01*
X110350724Y-115343802D01*
X110356752Y-115341118D01*
X110511253Y-115228866D01*
X110639040Y-115086944D01*
X110734527Y-114921556D01*
X110793542Y-114739928D01*
X110813504Y-114550000D01*
X110793542Y-114360072D01*
X110734527Y-114178444D01*
X110639040Y-114013056D01*
X110511253Y-113871134D01*
X110356752Y-113758882D01*
X110350724Y-113756198D01*
X110350722Y-113756197D01*
X110188319Y-113683891D01*
X110188318Y-113683891D01*
X110182288Y-113681206D01*
X110088887Y-113661353D01*
X110001944Y-113642872D01*
X110001939Y-113642872D01*
X109995487Y-113641500D01*
X109804513Y-113641500D01*
X109798061Y-113642872D01*
X109798056Y-113642872D01*
X109711113Y-113661353D01*
X109617712Y-113681206D01*
X109611682Y-113683891D01*
X109611681Y-113683891D01*
X109449278Y-113756197D01*
X109449276Y-113756198D01*
X109443248Y-113758882D01*
X109288747Y-113871134D01*
X109160960Y-114013056D01*
X109065473Y-114178444D01*
X109006458Y-114360072D01*
X108986496Y-114550000D01*
X100508000Y-114550000D01*
X100508000Y-111600000D01*
X110336496Y-111600000D01*
X110356458Y-111789928D01*
X110415473Y-111971556D01*
X110510960Y-112136944D01*
X110638747Y-112278866D01*
X110793248Y-112391118D01*
X110799276Y-112393802D01*
X110799278Y-112393803D01*
X110961681Y-112466109D01*
X110967712Y-112468794D01*
X111061113Y-112488647D01*
X111148056Y-112507128D01*
X111148061Y-112507128D01*
X111154513Y-112508500D01*
X111345487Y-112508500D01*
X111351939Y-112507128D01*
X111351944Y-112507128D01*
X111438887Y-112488647D01*
X111532288Y-112468794D01*
X111538319Y-112466109D01*
X111700722Y-112393803D01*
X111700724Y-112393802D01*
X111706752Y-112391118D01*
X111861253Y-112278866D01*
X111989040Y-112136944D01*
X112084527Y-111971556D01*
X112143542Y-111789928D01*
X112163504Y-111600000D01*
X112143542Y-111410072D01*
X112084527Y-111228444D01*
X111989040Y-111063056D01*
X111861253Y-110921134D01*
X111706752Y-110808882D01*
X111700724Y-110806198D01*
X111700722Y-110806197D01*
X111538319Y-110733891D01*
X111538318Y-110733891D01*
X111532288Y-110731206D01*
X111438888Y-110711353D01*
X111351944Y-110692872D01*
X111351939Y-110692872D01*
X111345487Y-110691500D01*
X111154513Y-110691500D01*
X111148061Y-110692872D01*
X111148056Y-110692872D01*
X111061112Y-110711353D01*
X110967712Y-110731206D01*
X110961682Y-110733891D01*
X110961681Y-110733891D01*
X110799278Y-110806197D01*
X110799276Y-110806198D01*
X110793248Y-110808882D01*
X110638747Y-110921134D01*
X110510960Y-111063056D01*
X110415473Y-111228444D01*
X110356458Y-111410072D01*
X110336496Y-111600000D01*
X100508000Y-111600000D01*
X100508000Y-104042277D01*
X102137009Y-104042277D01*
X102162625Y-104310769D01*
X102163710Y-104315203D01*
X102163711Y-104315209D01*
X102225645Y-104568312D01*
X102226731Y-104572750D01*
X102327985Y-104822733D01*
X102464265Y-105055482D01*
X102467118Y-105059049D01*
X102584686Y-105206060D01*
X102632716Y-105266119D01*
X102829809Y-105450234D01*
X103051416Y-105603968D01*
X103055499Y-105605999D01*
X103055502Y-105606001D01*
X103171013Y-105663466D01*
X103292894Y-105724101D01*
X103297228Y-105725522D01*
X103297231Y-105725523D01*
X103544853Y-105806698D01*
X103544859Y-105806699D01*
X103549186Y-105808118D01*
X103553677Y-105808898D01*
X103553678Y-105808898D01*
X103811140Y-105853601D01*
X103811148Y-105853602D01*
X103814921Y-105854257D01*
X103818758Y-105854448D01*
X103898578Y-105858422D01*
X103898586Y-105858422D01*
X103900149Y-105858500D01*
X104068512Y-105858500D01*
X104070780Y-105858335D01*
X104070792Y-105858335D01*
X104201884Y-105848823D01*
X104269004Y-105843953D01*
X104273459Y-105842969D01*
X104273462Y-105842969D01*
X104527912Y-105786791D01*
X104527916Y-105786790D01*
X104532372Y-105785806D01*
X104658480Y-105738028D01*
X104780318Y-105691868D01*
X104780321Y-105691867D01*
X104784588Y-105690250D01*
X105020368Y-105559286D01*
X105234773Y-105395657D01*
X105423312Y-105202792D01*
X105582034Y-104984730D01*
X105665190Y-104826676D01*
X105705490Y-104750079D01*
X105705493Y-104750073D01*
X105707615Y-104746039D01*
X105770378Y-104568312D01*
X105795902Y-104496033D01*
X105795902Y-104496032D01*
X105797425Y-104491720D01*
X105849581Y-104227100D01*
X105858782Y-104042277D01*
X124137009Y-104042277D01*
X124162625Y-104310769D01*
X124163710Y-104315203D01*
X124163711Y-104315209D01*
X124225645Y-104568312D01*
X124226731Y-104572750D01*
X124327985Y-104822733D01*
X124464265Y-105055482D01*
X124467118Y-105059049D01*
X124584686Y-105206060D01*
X124632716Y-105266119D01*
X124829809Y-105450234D01*
X125051416Y-105603968D01*
X125055499Y-105605999D01*
X125055502Y-105606001D01*
X125171013Y-105663466D01*
X125292894Y-105724101D01*
X125297228Y-105725522D01*
X125297231Y-105725523D01*
X125544853Y-105806698D01*
X125544859Y-105806699D01*
X125549186Y-105808118D01*
X125553677Y-105808898D01*
X125553678Y-105808898D01*
X125811140Y-105853601D01*
X125811148Y-105853602D01*
X125814921Y-105854257D01*
X125818758Y-105854448D01*
X125898578Y-105858422D01*
X125898586Y-105858422D01*
X125900149Y-105858500D01*
X126068512Y-105858500D01*
X126070780Y-105858335D01*
X126070792Y-105858335D01*
X126201884Y-105848823D01*
X126269004Y-105843953D01*
X126273459Y-105842969D01*
X126273462Y-105842969D01*
X126527912Y-105786791D01*
X126527916Y-105786790D01*
X126532372Y-105785806D01*
X126658480Y-105738028D01*
X126780318Y-105691868D01*
X126780321Y-105691867D01*
X126784588Y-105690250D01*
X127020368Y-105559286D01*
X127234773Y-105395657D01*
X127423312Y-105202792D01*
X127582034Y-104984730D01*
X127665190Y-104826676D01*
X127705490Y-104750079D01*
X127705493Y-104750073D01*
X127707615Y-104746039D01*
X127770378Y-104568312D01*
X127795902Y-104496033D01*
X127795902Y-104496032D01*
X127797425Y-104491720D01*
X127849581Y-104227100D01*
X127858782Y-104042277D01*
X127862764Y-103962292D01*
X127862764Y-103962286D01*
X127862991Y-103957723D01*
X127837375Y-103689231D01*
X127792042Y-103503967D01*
X127774355Y-103431688D01*
X127773269Y-103427250D01*
X127672015Y-103177267D01*
X127535735Y-102944518D01*
X127417928Y-102797208D01*
X127370136Y-102737447D01*
X127370135Y-102737445D01*
X127367284Y-102733881D01*
X127170191Y-102549766D01*
X126948584Y-102396032D01*
X126944501Y-102394001D01*
X126944498Y-102393999D01*
X126779606Y-102311967D01*
X126707106Y-102275899D01*
X126702772Y-102274478D01*
X126702769Y-102274477D01*
X126455147Y-102193302D01*
X126455141Y-102193301D01*
X126450814Y-102191882D01*
X126446322Y-102191102D01*
X126188860Y-102146399D01*
X126188852Y-102146398D01*
X126185079Y-102145743D01*
X126173817Y-102145182D01*
X126101422Y-102141578D01*
X126101414Y-102141578D01*
X126099851Y-102141500D01*
X125931488Y-102141500D01*
X125929220Y-102141665D01*
X125929208Y-102141665D01*
X125798116Y-102151177D01*
X125730996Y-102156047D01*
X125726541Y-102157031D01*
X125726538Y-102157031D01*
X125472088Y-102213209D01*
X125472084Y-102213210D01*
X125467628Y-102214194D01*
X125341520Y-102261972D01*
X125219682Y-102308132D01*
X125219679Y-102308133D01*
X125215412Y-102309750D01*
X124979632Y-102440714D01*
X124765227Y-102604343D01*
X124576688Y-102797208D01*
X124417966Y-103015270D01*
X124415844Y-103019304D01*
X124294510Y-103249921D01*
X124294507Y-103249927D01*
X124292385Y-103253961D01*
X124290865Y-103258266D01*
X124290863Y-103258270D01*
X124204098Y-103503967D01*
X124202575Y-103508280D01*
X124150419Y-103772900D01*
X124150192Y-103777453D01*
X124150192Y-103777456D01*
X124140991Y-103962292D01*
X124137009Y-104042277D01*
X105858782Y-104042277D01*
X105862764Y-103962292D01*
X105862764Y-103962286D01*
X105862991Y-103957723D01*
X105837375Y-103689231D01*
X105792042Y-103503967D01*
X105774355Y-103431688D01*
X105773269Y-103427250D01*
X105672015Y-103177267D01*
X105535735Y-102944518D01*
X105417928Y-102797208D01*
X105370136Y-102737447D01*
X105370135Y-102737445D01*
X105367284Y-102733881D01*
X105170191Y-102549766D01*
X104948584Y-102396032D01*
X104944501Y-102394001D01*
X104944498Y-102393999D01*
X104779606Y-102311967D01*
X104707106Y-102275899D01*
X104702772Y-102274478D01*
X104702769Y-102274477D01*
X104455147Y-102193302D01*
X104455141Y-102193301D01*
X104450814Y-102191882D01*
X104446322Y-102191102D01*
X104188860Y-102146399D01*
X104188852Y-102146398D01*
X104185079Y-102145743D01*
X104173817Y-102145182D01*
X104101422Y-102141578D01*
X104101414Y-102141578D01*
X104099851Y-102141500D01*
X103931488Y-102141500D01*
X103929220Y-102141665D01*
X103929208Y-102141665D01*
X103798116Y-102151177D01*
X103730996Y-102156047D01*
X103726541Y-102157031D01*
X103726538Y-102157031D01*
X103472088Y-102213209D01*
X103472084Y-102213210D01*
X103467628Y-102214194D01*
X103341520Y-102261972D01*
X103219682Y-102308132D01*
X103219679Y-102308133D01*
X103215412Y-102309750D01*
X102979632Y-102440714D01*
X102765227Y-102604343D01*
X102576688Y-102797208D01*
X102417966Y-103015270D01*
X102415844Y-103019304D01*
X102294510Y-103249921D01*
X102294507Y-103249927D01*
X102292385Y-103253961D01*
X102290865Y-103258266D01*
X102290863Y-103258270D01*
X102204098Y-103503967D01*
X102202575Y-103508280D01*
X102150419Y-103772900D01*
X102150192Y-103777453D01*
X102150192Y-103777456D01*
X102140991Y-103962292D01*
X102137009Y-104042277D01*
X100508000Y-104042277D01*
X100508000Y-100634000D01*
X100528002Y-100565879D01*
X100581658Y-100519386D01*
X100634000Y-100508000D01*
X129366000Y-100508000D01*
X129434121Y-100528002D01*
G37*
%TD.AperFunction*%
%TD*%
M02*
