%TF.GenerationSoftware,KiCad,Pcbnew,(6.0.1)*%
%TF.CreationDate,2022-02-12T12:27:59+00:00*%
%TF.ProjectId,LowPass_10mm,4c6f7750-6173-4735-9f31-306d6d2e6b69,rev?*%
%TF.SameCoordinates,Original*%
%TF.FileFunction,Copper,L1,Top*%
%TF.FilePolarity,Positive*%
%FSLAX46Y46*%
G04 Gerber Fmt 4.6, Leading zero omitted, Abs format (unit mm)*
G04 Created by KiCad (PCBNEW (6.0.1)) date 2022-02-12 12:27:59*
%MOMM*%
%LPD*%
G01*
G04 APERTURE LIST*
G04 Aperture macros list*
%AMRoundRect*
0 Rectangle with rounded corners*
0 $1 Rounding radius*
0 $2 $3 $4 $5 $6 $7 $8 $9 X,Y pos of 4 corners*
0 Add a 4 corners polygon primitive as box body*
4,1,4,$2,$3,$4,$5,$6,$7,$8,$9,$2,$3,0*
0 Add four circle primitives for the rounded corners*
1,1,$1+$1,$2,$3*
1,1,$1+$1,$4,$5*
1,1,$1+$1,$6,$7*
1,1,$1+$1,$8,$9*
0 Add four rect primitives between the rounded corners*
20,1,$1+$1,$2,$3,$4,$5,0*
20,1,$1+$1,$4,$5,$6,$7,0*
20,1,$1+$1,$6,$7,$8,$9,0*
20,1,$1+$1,$8,$9,$2,$3,0*%
G04 Aperture macros list end*
%TA.AperFunction,ComponentPad*%
%ADD10C,2.250000*%
%TD*%
%TA.AperFunction,SMDPad,CuDef*%
%ADD11RoundRect,0.225000X0.225000X0.250000X-0.225000X0.250000X-0.225000X-0.250000X0.225000X-0.250000X0*%
%TD*%
%TA.AperFunction,SMDPad,CuDef*%
%ADD12RoundRect,0.225000X0.250000X-0.225000X0.250000X0.225000X-0.250000X0.225000X-0.250000X-0.225000X0*%
%TD*%
%TA.AperFunction,SMDPad,CuDef*%
%ADD13RoundRect,0.225000X-0.250000X0.225000X-0.250000X-0.225000X0.250000X-0.225000X0.250000X0.225000X0*%
%TD*%
%TA.AperFunction,SMDPad,CuDef*%
%ADD14RoundRect,0.225000X-0.225000X-0.250000X0.225000X-0.250000X0.225000X0.250000X-0.225000X0.250000X0*%
%TD*%
%TA.AperFunction,SMDPad,CuDef*%
%ADD15R,3.600000X1.270000*%
%TD*%
%TA.AperFunction,SMDPad,CuDef*%
%ADD16R,4.200000X1.350000*%
%TD*%
%TA.AperFunction,Conductor*%
%ADD17C,2.930000*%
%TD*%
G04 APERTURE END LIST*
D10*
%TO.P,L3,1,1*%
%TO.N,Net-(C5-Pad1)*%
X121010800Y-119755800D03*
%TO.P,L3,2,2*%
%TO.N,Net-(C7-Pad1)*%
X128010800Y-112755800D03*
%TD*%
%TO.P,L2,1,1*%
%TO.N,Net-(C3-Pad1)*%
X113898800Y-102240200D03*
%TO.P,L2,2,2*%
%TO.N,Net-(C5-Pad1)*%
X120898800Y-109240200D03*
%TD*%
%TO.P,L1,2,2*%
%TO.N,Net-(C3-Pad1)*%
X116377600Y-112781200D03*
%TO.P,L1,1,1*%
%TO.N,Net-(C1-Pad1)*%
X109377600Y-119781200D03*
%TD*%
D11*
%TO.P,C4,1*%
%TO.N,Net-(C3-Pad1)*%
X111265000Y-107213400D03*
%TO.P,C4,2*%
%TO.N,GND*%
X109715000Y-107213400D03*
%TD*%
D12*
%TO.P,C1,1*%
%TO.N,Net-(C1-Pad1)*%
X106248200Y-111595200D03*
%TO.P,C1,2*%
%TO.N,GND*%
X106248200Y-110045200D03*
%TD*%
%TO.P,C8,1*%
%TO.N,Net-(C7-Pad1)*%
X125526800Y-109307000D03*
%TO.P,C8,2*%
%TO.N,GND*%
X125526800Y-107757000D03*
%TD*%
D13*
%TO.P,C2,1*%
%TO.N,Net-(C1-Pad1)*%
X106222800Y-113448800D03*
%TO.P,C2,2*%
%TO.N,GND*%
X106222800Y-114998800D03*
%TD*%
D14*
%TO.P,C6,1*%
%TO.N,Net-(C5-Pad1)*%
X121983200Y-122504200D03*
%TO.P,C6,2*%
%TO.N,GND*%
X123533200Y-122504200D03*
%TD*%
D11*
%TO.P,C5,1*%
%TO.N,Net-(C5-Pad1)*%
X120002600Y-122453400D03*
%TO.P,C5,2*%
%TO.N,GND*%
X118452600Y-122453400D03*
%TD*%
D15*
%TO.P,J2,1,In*%
%TO.N,Net-(C7-Pad1)*%
X133000000Y-112500000D03*
D16*
%TO.P,J2,2,Ext*%
%TO.N,GND*%
X132800000Y-109675000D03*
X132800000Y-115325000D03*
%TD*%
D15*
%TO.P,J1,1,In*%
%TO.N,Net-(C1-Pad1)*%
X102000000Y-112500000D03*
D16*
%TO.P,J1,2,Ext*%
%TO.N,GND*%
X102200000Y-109675000D03*
X102200000Y-115325000D03*
%TD*%
D12*
%TO.P,C7,1*%
%TO.N,Net-(C7-Pad1)*%
X127508000Y-109309200D03*
%TO.P,C7,2*%
%TO.N,GND*%
X127508000Y-107759200D03*
%TD*%
D11*
%TO.P,C3,1*%
%TO.N,Net-(C3-Pad1)*%
X111265000Y-105511600D03*
%TO.P,C3,2*%
%TO.N,GND*%
X109715000Y-105511600D03*
%TD*%
D17*
%TO.N,Net-(C5-Pad1)*%
X121010800Y-119755800D02*
X121010800Y-122738000D01*
%TO.N,Net-(C1-Pad1)*%
X109377600Y-114279800D02*
X109377600Y-119781200D01*
X107597800Y-112500000D02*
X109377600Y-114279800D01*
X102000000Y-112500000D02*
X107597800Y-112500000D01*
%TO.N,Net-(C7-Pad1)*%
X127330200Y-110261400D02*
X125374400Y-110261400D01*
X129568800Y-112500000D02*
X127330200Y-110261400D01*
X130095400Y-112500000D02*
X129568800Y-112500000D01*
X130095400Y-112500000D02*
X128266600Y-112500000D01*
X133000000Y-112500000D02*
X130095400Y-112500000D01*
%TO.N,Net-(C3-Pad1)*%
X112268000Y-103871000D02*
X112268000Y-108671600D01*
X112268000Y-108671600D02*
X116377600Y-112781200D01*
X113898800Y-102240200D02*
X112268000Y-103871000D01*
%TO.N,Net-(C7-Pad1)*%
X128266600Y-112500000D02*
X128010800Y-112755800D01*
%TO.N,Net-(C5-Pad1)*%
X121010800Y-109352200D02*
X120898800Y-109240200D01*
X121010800Y-119755800D02*
X121010800Y-109352200D01*
%TD*%
%TA.AperFunction,Conductor*%
%TO.N,GND*%
G36*
X112636771Y-100520002D02*
G01*
X112683264Y-100573658D01*
X112693368Y-100643932D01*
X112663874Y-100708512D01*
X112648209Y-100723705D01*
X112580693Y-100778671D01*
X110898663Y-102460701D01*
X110896540Y-102462776D01*
X110810541Y-102544815D01*
X110756803Y-102612982D01*
X110754883Y-102615417D01*
X110751098Y-102619992D01*
X110695121Y-102684499D01*
X110695118Y-102684504D01*
X110692205Y-102687860D01*
X110689796Y-102691591D01*
X110670217Y-102721913D01*
X110663322Y-102731561D01*
X110638220Y-102763403D01*
X110600182Y-102828891D01*
X110593073Y-102841130D01*
X110589970Y-102846193D01*
X110541219Y-102921694D01*
X110539354Y-102925739D01*
X110539352Y-102925743D01*
X110524246Y-102958511D01*
X110518774Y-102969045D01*
X110503658Y-102995070D01*
X110498418Y-103004091D01*
X110496748Y-103008214D01*
X110464677Y-103087395D01*
X110462331Y-103092817D01*
X110424688Y-103174471D01*
X110413070Y-103213319D01*
X110409144Y-103224500D01*
X110393923Y-103262076D01*
X110392851Y-103266393D01*
X110392849Y-103266398D01*
X110372256Y-103349302D01*
X110370689Y-103355030D01*
X110344935Y-103441144D01*
X110344274Y-103445543D01*
X110338908Y-103481231D01*
X110336592Y-103492871D01*
X110327896Y-103527880D01*
X110327895Y-103527888D01*
X110326821Y-103532210D01*
X110326367Y-103536639D01*
X110326367Y-103536640D01*
X110317659Y-103621624D01*
X110316915Y-103627511D01*
X110304444Y-103710471D01*
X110303553Y-103716395D01*
X110303518Y-103720853D01*
X110303235Y-103756925D01*
X110302891Y-103763166D01*
X110302992Y-103763171D01*
X110302828Y-103766386D01*
X110302500Y-103769585D01*
X110302500Y-103849988D01*
X110302496Y-103850978D01*
X110301367Y-103994730D01*
X110301960Y-103999148D01*
X110302240Y-104003590D01*
X110301967Y-104003607D01*
X110302500Y-104011586D01*
X110302500Y-108642689D01*
X110302465Y-108645658D01*
X110299666Y-108764425D01*
X110310236Y-108853735D01*
X110310790Y-108859603D01*
X110317138Y-108949249D01*
X110323471Y-108978662D01*
X110325667Y-108988864D01*
X110327616Y-109000571D01*
X110332382Y-109040839D01*
X110333522Y-109045138D01*
X110355420Y-109127727D01*
X110356806Y-109133501D01*
X110365956Y-109175999D01*
X110375721Y-109221358D01*
X110377261Y-109225532D01*
X110389750Y-109259385D01*
X110393329Y-109270701D01*
X110403719Y-109309886D01*
X110405451Y-109313977D01*
X110405452Y-109313979D01*
X110438770Y-109392662D01*
X110440955Y-109398182D01*
X110472061Y-109482498D01*
X110491307Y-109518167D01*
X110496444Y-109528866D01*
X110510514Y-109562094D01*
X110510521Y-109562108D01*
X110512253Y-109566198D01*
X110514551Y-109570015D01*
X110558610Y-109643196D01*
X110561552Y-109648354D01*
X110604234Y-109727458D01*
X110606880Y-109731040D01*
X110606886Y-109731050D01*
X110628317Y-109760065D01*
X110634900Y-109769915D01*
X110655818Y-109804660D01*
X110658629Y-109808113D01*
X110658632Y-109808117D01*
X110712572Y-109874372D01*
X110716210Y-109879062D01*
X110769604Y-109951351D01*
X110772728Y-109954524D01*
X110772731Y-109954528D01*
X110798036Y-109980233D01*
X110802206Y-109984889D01*
X110802281Y-109984821D01*
X110804432Y-109987204D01*
X110806470Y-109989707D01*
X110863255Y-110046492D01*
X110863952Y-110047193D01*
X110964871Y-110149710D01*
X110968414Y-110152414D01*
X110971751Y-110155356D01*
X110971571Y-110155560D01*
X110977595Y-110160832D01*
X115037925Y-114221161D01*
X115039600Y-114222615D01*
X115039607Y-114222621D01*
X115191101Y-114354081D01*
X115191108Y-114354086D01*
X115194460Y-114356995D01*
X115428294Y-114507981D01*
X115432329Y-114509841D01*
X115432336Y-114509845D01*
X115677027Y-114622648D01*
X115677031Y-114622649D01*
X115681071Y-114624512D01*
X115841885Y-114672606D01*
X115943470Y-114702987D01*
X115943473Y-114702988D01*
X115947744Y-114704265D01*
X115952148Y-114704927D01*
X115952152Y-114704928D01*
X116218590Y-114744985D01*
X116218594Y-114744985D01*
X116222995Y-114745647D01*
X116257904Y-114745921D01*
X116496869Y-114747798D01*
X116496870Y-114747798D01*
X116501330Y-114747833D01*
X116505743Y-114747240D01*
X116505747Y-114747240D01*
X116677769Y-114724134D01*
X116777197Y-114710779D01*
X117045090Y-114635225D01*
X117299665Y-114522679D01*
X117461112Y-114421992D01*
X117532065Y-114377742D01*
X117532067Y-114377741D01*
X117535844Y-114375385D01*
X117748911Y-114196283D01*
X117808476Y-114129780D01*
X117931643Y-113992267D01*
X117931646Y-113992263D01*
X117934617Y-113988946D01*
X117950807Y-113964717D01*
X118048896Y-113817916D01*
X118089257Y-113757512D01*
X118120714Y-113692003D01*
X118207816Y-113510613D01*
X118207818Y-113510608D01*
X118209744Y-113506597D01*
X118220344Y-113473080D01*
X118292333Y-113245453D01*
X118292334Y-113245450D01*
X118293675Y-113241209D01*
X118297148Y-113220347D01*
X118338644Y-112971041D01*
X118338644Y-112971040D01*
X118339376Y-112966643D01*
X118345934Y-112688375D01*
X118313218Y-112411961D01*
X118241881Y-112142914D01*
X118240147Y-112138820D01*
X118240145Y-112138813D01*
X118136233Y-111893417D01*
X118133347Y-111886602D01*
X118032358Y-111718859D01*
X117992076Y-111651950D01*
X117992075Y-111651948D01*
X117989782Y-111648140D01*
X117839130Y-111463093D01*
X114270405Y-107894369D01*
X114236379Y-107832057D01*
X114233500Y-107805274D01*
X114233500Y-104737327D01*
X114253502Y-104669206D01*
X114270405Y-104648232D01*
X115338761Y-103579876D01*
X115340221Y-103578194D01*
X115471681Y-103426700D01*
X115471686Y-103426693D01*
X115474595Y-103423341D01*
X115625581Y-103189506D01*
X115627441Y-103185471D01*
X115627445Y-103185464D01*
X115712945Y-103000000D01*
X130394551Y-103000000D01*
X130414317Y-103251148D01*
X130415471Y-103255955D01*
X130415472Y-103255961D01*
X130439257Y-103355030D01*
X130473127Y-103496111D01*
X130475020Y-103500682D01*
X130475021Y-103500684D01*
X130566218Y-103720853D01*
X130569534Y-103728859D01*
X130701164Y-103943659D01*
X130704376Y-103947419D01*
X130704379Y-103947424D01*
X130751987Y-104003165D01*
X130864776Y-104135224D01*
X130868538Y-104138437D01*
X131052576Y-104295621D01*
X131052581Y-104295624D01*
X131056341Y-104298836D01*
X131271141Y-104430466D01*
X131275711Y-104432359D01*
X131275715Y-104432361D01*
X131499316Y-104524979D01*
X131503889Y-104526873D01*
X131588289Y-104547135D01*
X131744039Y-104584528D01*
X131744045Y-104584529D01*
X131748852Y-104585683D01*
X131837149Y-104592632D01*
X131934661Y-104600307D01*
X131934670Y-104600307D01*
X131937118Y-104600500D01*
X132062882Y-104600500D01*
X132065330Y-104600307D01*
X132065339Y-104600307D01*
X132162851Y-104592632D01*
X132251148Y-104585683D01*
X132255955Y-104584529D01*
X132255961Y-104584528D01*
X132411711Y-104547135D01*
X132496111Y-104526873D01*
X132500684Y-104524979D01*
X132724285Y-104432361D01*
X132724289Y-104432359D01*
X132728859Y-104430466D01*
X132943659Y-104298836D01*
X132947419Y-104295624D01*
X132947424Y-104295621D01*
X133131462Y-104138437D01*
X133135224Y-104135224D01*
X133248013Y-104003165D01*
X133295621Y-103947424D01*
X133295624Y-103947419D01*
X133298836Y-103943659D01*
X133430466Y-103728859D01*
X133433783Y-103720853D01*
X133524979Y-103500684D01*
X133524980Y-103500682D01*
X133526873Y-103496111D01*
X133560743Y-103355030D01*
X133584528Y-103255961D01*
X133584529Y-103255955D01*
X133585683Y-103251148D01*
X133605449Y-103000000D01*
X133585683Y-102748852D01*
X133580413Y-102726898D01*
X133528028Y-102508701D01*
X133526873Y-102503889D01*
X133430466Y-102271141D01*
X133298836Y-102056341D01*
X133295624Y-102052581D01*
X133295621Y-102052576D01*
X133138437Y-101868538D01*
X133135224Y-101864776D01*
X133101899Y-101836314D01*
X132947424Y-101704379D01*
X132947419Y-101704376D01*
X132943659Y-101701164D01*
X132728859Y-101569534D01*
X132724289Y-101567641D01*
X132724285Y-101567639D01*
X132500684Y-101475021D01*
X132500682Y-101475020D01*
X132496111Y-101473127D01*
X132411711Y-101452865D01*
X132255961Y-101415472D01*
X132255955Y-101415471D01*
X132251148Y-101414317D01*
X132162851Y-101407368D01*
X132065339Y-101399693D01*
X132065330Y-101399693D01*
X132062882Y-101399500D01*
X131937118Y-101399500D01*
X131934670Y-101399693D01*
X131934661Y-101399693D01*
X131837149Y-101407368D01*
X131748852Y-101414317D01*
X131744045Y-101415471D01*
X131744039Y-101415472D01*
X131588289Y-101452865D01*
X131503889Y-101473127D01*
X131499318Y-101475020D01*
X131499316Y-101475021D01*
X131275715Y-101567639D01*
X131275711Y-101567641D01*
X131271141Y-101569534D01*
X131056341Y-101701164D01*
X131052581Y-101704376D01*
X131052576Y-101704379D01*
X130898101Y-101836314D01*
X130864776Y-101864776D01*
X130861563Y-101868538D01*
X130704379Y-102052576D01*
X130704376Y-102052581D01*
X130701164Y-102056341D01*
X130569534Y-102271141D01*
X130473127Y-102503889D01*
X130471972Y-102508701D01*
X130419588Y-102726898D01*
X130414317Y-102748852D01*
X130394551Y-103000000D01*
X115712945Y-103000000D01*
X115740248Y-102940774D01*
X115740249Y-102940770D01*
X115742112Y-102936730D01*
X115792795Y-102767257D01*
X115820586Y-102674330D01*
X115820587Y-102674327D01*
X115821864Y-102670056D01*
X115829729Y-102617746D01*
X115862584Y-102399211D01*
X115862584Y-102399207D01*
X115863246Y-102394806D01*
X115865433Y-102116470D01*
X115831626Y-101864776D01*
X115828972Y-101845016D01*
X115828971Y-101845011D01*
X115828379Y-101840604D01*
X115752825Y-101572710D01*
X115708800Y-101473127D01*
X115642077Y-101322201D01*
X115642074Y-101322196D01*
X115640279Y-101318135D01*
X115492985Y-101081957D01*
X115313883Y-100868890D01*
X115310572Y-100865925D01*
X115310560Y-100865912D01*
X115147492Y-100719856D01*
X115110094Y-100659508D01*
X115111260Y-100588521D01*
X115150620Y-100529433D01*
X115215676Y-100501005D01*
X115231557Y-100500000D01*
X134374000Y-100500000D01*
X134442121Y-100520002D01*
X134488614Y-100573658D01*
X134500000Y-100626000D01*
X134500000Y-110919790D01*
X134479998Y-110987911D01*
X134426342Y-111034404D01*
X134356068Y-111044508D01*
X134295994Y-111018740D01*
X134111093Y-110872976D01*
X134111090Y-110872974D01*
X134107597Y-110870220D01*
X133954625Y-110781367D01*
X133870756Y-110732652D01*
X133870750Y-110732649D01*
X133866909Y-110730418D01*
X133656213Y-110645077D01*
X133613050Y-110627594D01*
X133613047Y-110627593D01*
X133608924Y-110625923D01*
X133604611Y-110624852D01*
X133604606Y-110624850D01*
X133343111Y-110559894D01*
X133343106Y-110559893D01*
X133338790Y-110558821D01*
X133334362Y-110558367D01*
X133334360Y-110558367D01*
X133249368Y-110549659D01*
X133101415Y-110534500D01*
X130435126Y-110534500D01*
X130367005Y-110514498D01*
X130346031Y-110497595D01*
X128740499Y-108892063D01*
X128738424Y-108889940D01*
X128659457Y-108807161D01*
X128659455Y-108807159D01*
X128656385Y-108803941D01*
X128585783Y-108748283D01*
X128581208Y-108744498D01*
X128516701Y-108688521D01*
X128516696Y-108688518D01*
X128513340Y-108685605D01*
X128479285Y-108663615D01*
X128469639Y-108656722D01*
X128437797Y-108631620D01*
X128360070Y-108586473D01*
X128355007Y-108583370D01*
X128283254Y-108537039D01*
X128283253Y-108537038D01*
X128279506Y-108534619D01*
X128275461Y-108532754D01*
X128275457Y-108532752D01*
X128242689Y-108517646D01*
X128232155Y-108512174D01*
X128211886Y-108500401D01*
X128197109Y-108491818D01*
X128192992Y-108490150D01*
X128192985Y-108490147D01*
X128155978Y-108475158D01*
X128137165Y-108465634D01*
X128072927Y-108426037D01*
X128072926Y-108426036D01*
X128066697Y-108422197D01*
X127906124Y-108368937D01*
X127899290Y-108368237D01*
X127899286Y-108368236D01*
X127851435Y-108363334D01*
X127828174Y-108358707D01*
X127821891Y-108356828D01*
X127760056Y-108338335D01*
X127735008Y-108334569D01*
X127719969Y-108332308D01*
X127708329Y-108329992D01*
X127673320Y-108321296D01*
X127673312Y-108321295D01*
X127668990Y-108320221D01*
X127664561Y-108319767D01*
X127664560Y-108319767D01*
X127579576Y-108311059D01*
X127573689Y-108310315D01*
X127489215Y-108297616D01*
X127484805Y-108296953D01*
X127444268Y-108296635D01*
X127438034Y-108296291D01*
X127438029Y-108296392D01*
X127434814Y-108296228D01*
X127431615Y-108295900D01*
X127351212Y-108295900D01*
X127350222Y-108295896D01*
X127317626Y-108295640D01*
X127206470Y-108294767D01*
X127202052Y-108295360D01*
X127197610Y-108295640D01*
X127197593Y-108295367D01*
X127189614Y-108295900D01*
X125303487Y-108295900D01*
X125096751Y-108310538D01*
X125092396Y-108311476D01*
X125092393Y-108311476D01*
X124828989Y-108368185D01*
X124828987Y-108368185D01*
X124824642Y-108369121D01*
X124563502Y-108465461D01*
X124559584Y-108467575D01*
X124435330Y-108534619D01*
X124318542Y-108597634D01*
X124255533Y-108644173D01*
X124098750Y-108759975D01*
X124094649Y-108763004D01*
X124091480Y-108766123D01*
X124091476Y-108766127D01*
X124002507Y-108853710D01*
X123896290Y-108958271D01*
X123893591Y-108961808D01*
X123893588Y-108961811D01*
X123837781Y-109034936D01*
X123727424Y-109179539D01*
X123725246Y-109183427D01*
X123725246Y-109183428D01*
X123641468Y-109333025D01*
X123591419Y-109422393D01*
X123589818Y-109426532D01*
X123589814Y-109426540D01*
X123520765Y-109605024D01*
X123490990Y-109681987D01*
X123489987Y-109686312D01*
X123489986Y-109686317D01*
X123480450Y-109727458D01*
X123428139Y-109953143D01*
X123404122Y-110230448D01*
X123404366Y-110234883D01*
X123404366Y-110234887D01*
X123418824Y-110497595D01*
X123419417Y-110508372D01*
X123473719Y-110781367D01*
X123565945Y-111043988D01*
X123694255Y-111290994D01*
X123696843Y-111294615D01*
X123819030Y-111465600D01*
X123856087Y-111517457D01*
X123859159Y-111520677D01*
X123977457Y-111644685D01*
X124048215Y-111718859D01*
X124266803Y-111891180D01*
X124374917Y-111953977D01*
X124503644Y-112028748D01*
X124503650Y-112028751D01*
X124507491Y-112030982D01*
X124511614Y-112032652D01*
X124761350Y-112133806D01*
X124761353Y-112133807D01*
X124765476Y-112135477D01*
X124769789Y-112136548D01*
X124769794Y-112136550D01*
X125031289Y-112201506D01*
X125031294Y-112201507D01*
X125035610Y-112202579D01*
X125040038Y-112203033D01*
X125040040Y-112203033D01*
X125113198Y-112210529D01*
X125272985Y-112226900D01*
X125956266Y-112226900D01*
X126024387Y-112246902D01*
X126070880Y-112300558D01*
X126080866Y-112371633D01*
X126046353Y-112601195D01*
X126044167Y-112879530D01*
X126044760Y-112883943D01*
X126044760Y-112883947D01*
X126060355Y-113000049D01*
X126081221Y-113155397D01*
X126156775Y-113423290D01*
X126269321Y-113677865D01*
X126356664Y-113817916D01*
X126411764Y-113906265D01*
X126416615Y-113914044D01*
X126595717Y-114127111D01*
X126599033Y-114130081D01*
X126799733Y-114309843D01*
X126799737Y-114309846D01*
X126803054Y-114312817D01*
X126806758Y-114315292D01*
X126806762Y-114315295D01*
X126872779Y-114359406D01*
X127034488Y-114467457D01*
X127038506Y-114469386D01*
X127038507Y-114469387D01*
X127281386Y-114586016D01*
X127281391Y-114586018D01*
X127285402Y-114587944D01*
X127289646Y-114589286D01*
X127289648Y-114589287D01*
X127546547Y-114670533D01*
X127546550Y-114670534D01*
X127550791Y-114671875D01*
X127555177Y-114672605D01*
X127555181Y-114672606D01*
X127784521Y-114710779D01*
X127825357Y-114717576D01*
X128103625Y-114724134D01*
X128226675Y-114709570D01*
X128375624Y-114691941D01*
X128375630Y-114691940D01*
X128380039Y-114691418D01*
X128384331Y-114690280D01*
X128384336Y-114690279D01*
X128549987Y-114646357D01*
X128649086Y-114620081D01*
X128653180Y-114618347D01*
X128653187Y-114618345D01*
X128901301Y-114513282D01*
X128901303Y-114513281D01*
X128905398Y-114511547D01*
X128951895Y-114483554D01*
X129016883Y-114465500D01*
X129547854Y-114465500D01*
X129548844Y-114465504D01*
X129688075Y-114466598D01*
X129692530Y-114466633D01*
X129696948Y-114466040D01*
X129701390Y-114465760D01*
X129701407Y-114466033D01*
X129709386Y-114465500D01*
X133070913Y-114465500D01*
X133277649Y-114450862D01*
X133282004Y-114449924D01*
X133282007Y-114449924D01*
X133545411Y-114393215D01*
X133545413Y-114393215D01*
X133549758Y-114392279D01*
X133810898Y-114295939D01*
X134055858Y-114163766D01*
X134176823Y-114074420D01*
X134276165Y-114001045D01*
X134276168Y-114001042D01*
X134279751Y-113998396D01*
X134282920Y-113995276D01*
X134282931Y-113995267D01*
X134285605Y-113992634D01*
X134348182Y-113959098D01*
X134418956Y-113964717D01*
X134475456Y-114007707D01*
X134499745Y-114074420D01*
X134500000Y-114082424D01*
X134500000Y-124374000D01*
X134479998Y-124442121D01*
X134426342Y-124488614D01*
X134374000Y-124500000D01*
X122318884Y-124500000D01*
X122250763Y-124479998D01*
X122204270Y-124426342D01*
X122194166Y-124356068D01*
X122223660Y-124291488D01*
X122245626Y-124271486D01*
X122263226Y-124258908D01*
X122263228Y-124258906D01*
X122266857Y-124256313D01*
X122468259Y-124064185D01*
X122640580Y-123845597D01*
X122703377Y-123737483D01*
X122778148Y-123608756D01*
X122778151Y-123608750D01*
X122780382Y-123604909D01*
X122884877Y-123346924D01*
X122896181Y-123301420D01*
X122950906Y-123081111D01*
X122950907Y-123081106D01*
X122951979Y-123076790D01*
X122976300Y-122839415D01*
X122976300Y-122000000D01*
X130394551Y-122000000D01*
X130414317Y-122251148D01*
X130473127Y-122496111D01*
X130569534Y-122728859D01*
X130701164Y-122943659D01*
X130704376Y-122947419D01*
X130704379Y-122947424D01*
X130818559Y-123081111D01*
X130864776Y-123135224D01*
X130868538Y-123138437D01*
X131052576Y-123295621D01*
X131052581Y-123295624D01*
X131056341Y-123298836D01*
X131271141Y-123430466D01*
X131275711Y-123432359D01*
X131275715Y-123432361D01*
X131499316Y-123524979D01*
X131503889Y-123526873D01*
X131578232Y-123544721D01*
X131744039Y-123584528D01*
X131744045Y-123584529D01*
X131748852Y-123585683D01*
X131837149Y-123592632D01*
X131934661Y-123600307D01*
X131934670Y-123600307D01*
X131937118Y-123600500D01*
X132062882Y-123600500D01*
X132065330Y-123600307D01*
X132065339Y-123600307D01*
X132162851Y-123592632D01*
X132251148Y-123585683D01*
X132255955Y-123584529D01*
X132255961Y-123584528D01*
X132421768Y-123544721D01*
X132496111Y-123526873D01*
X132500684Y-123524979D01*
X132724285Y-123432361D01*
X132724289Y-123432359D01*
X132728859Y-123430466D01*
X132943659Y-123298836D01*
X132947419Y-123295624D01*
X132947424Y-123295621D01*
X133131462Y-123138437D01*
X133135224Y-123135224D01*
X133181441Y-123081111D01*
X133295621Y-122947424D01*
X133295624Y-122947419D01*
X133298836Y-122943659D01*
X133430466Y-122728859D01*
X133526873Y-122496111D01*
X133585683Y-122251148D01*
X133605449Y-122000000D01*
X133585683Y-121748852D01*
X133582701Y-121736428D01*
X133528028Y-121508701D01*
X133526873Y-121503889D01*
X133430466Y-121271141D01*
X133298836Y-121056341D01*
X133295624Y-121052581D01*
X133295621Y-121052576D01*
X133138437Y-120868538D01*
X133135224Y-120864776D01*
X133098185Y-120833142D01*
X132947424Y-120704379D01*
X132947419Y-120704376D01*
X132943659Y-120701164D01*
X132728859Y-120569534D01*
X132724289Y-120567641D01*
X132724285Y-120567639D01*
X132500684Y-120475021D01*
X132500682Y-120475020D01*
X132496111Y-120473127D01*
X132411711Y-120452865D01*
X132255961Y-120415472D01*
X132255955Y-120415471D01*
X132251148Y-120414317D01*
X132162851Y-120407368D01*
X132065339Y-120399693D01*
X132065330Y-120399693D01*
X132062882Y-120399500D01*
X131937118Y-120399500D01*
X131934670Y-120399693D01*
X131934661Y-120399693D01*
X131837149Y-120407368D01*
X131748852Y-120414317D01*
X131744045Y-120415471D01*
X131744039Y-120415472D01*
X131588289Y-120452865D01*
X131503889Y-120473127D01*
X131499318Y-120475020D01*
X131499316Y-120475021D01*
X131275715Y-120567639D01*
X131275711Y-120567641D01*
X131271141Y-120569534D01*
X131056341Y-120701164D01*
X131052581Y-120704376D01*
X131052576Y-120704379D01*
X130901815Y-120833142D01*
X130864776Y-120864776D01*
X130861563Y-120868538D01*
X130704379Y-121052576D01*
X130704376Y-121052581D01*
X130701164Y-121056341D01*
X130569534Y-121271141D01*
X130473127Y-121503889D01*
X130471972Y-121508701D01*
X130417300Y-121736428D01*
X130414317Y-121748852D01*
X130394551Y-122000000D01*
X122976300Y-122000000D01*
X122976300Y-109381111D01*
X122976335Y-109378142D01*
X122979029Y-109263825D01*
X122979134Y-109259375D01*
X122968564Y-109170065D01*
X122968008Y-109164179D01*
X122961977Y-109078993D01*
X122961976Y-109078986D01*
X122961662Y-109074551D01*
X122953131Y-109034927D01*
X122951184Y-109023227D01*
X122946941Y-108987379D01*
X122946941Y-108987378D01*
X122946418Y-108982961D01*
X122923380Y-108896073D01*
X122921994Y-108890299D01*
X122904015Y-108806789D01*
X122904015Y-108806787D01*
X122903079Y-108802442D01*
X122890683Y-108768841D01*
X122889050Y-108764415D01*
X122885470Y-108753097D01*
X122876220Y-108718209D01*
X122876219Y-108718206D01*
X122875081Y-108713914D01*
X122864329Y-108688521D01*
X122840030Y-108631138D01*
X122837845Y-108625618D01*
X122808280Y-108545479D01*
X122806739Y-108541302D01*
X122787493Y-108505632D01*
X122782356Y-108494934D01*
X122768286Y-108461706D01*
X122768279Y-108461692D01*
X122766547Y-108457602D01*
X122720182Y-108380590D01*
X122717248Y-108375446D01*
X122676685Y-108300269D01*
X122676684Y-108300268D01*
X122674566Y-108296342D01*
X122671920Y-108292760D01*
X122671914Y-108292750D01*
X122650483Y-108263735D01*
X122643900Y-108253885D01*
X122622982Y-108219140D01*
X122566228Y-108149428D01*
X122562590Y-108144738D01*
X122511842Y-108076032D01*
X122509196Y-108072449D01*
X122480764Y-108043567D01*
X122476590Y-108038906D01*
X122476515Y-108038974D01*
X122474361Y-108036588D01*
X122472330Y-108034093D01*
X122415495Y-107977259D01*
X122414798Y-107976557D01*
X122317049Y-107877259D01*
X122317046Y-107877256D01*
X122313929Y-107874090D01*
X122310392Y-107871390D01*
X122307051Y-107868445D01*
X122307231Y-107868241D01*
X122301209Y-107862972D01*
X122240040Y-107801804D01*
X122238475Y-107800239D01*
X122233368Y-107795807D01*
X122085299Y-107667319D01*
X122085292Y-107667314D01*
X122081940Y-107664405D01*
X121848106Y-107513419D01*
X121844071Y-107511559D01*
X121844064Y-107511555D01*
X121599373Y-107398752D01*
X121599369Y-107398751D01*
X121595329Y-107396888D01*
X121419694Y-107344361D01*
X121332930Y-107318413D01*
X121332927Y-107318412D01*
X121328656Y-107317135D01*
X121324252Y-107316473D01*
X121324248Y-107316472D01*
X121057810Y-107276415D01*
X121057806Y-107276415D01*
X121053405Y-107275753D01*
X121018496Y-107275479D01*
X120779531Y-107273602D01*
X120779530Y-107273602D01*
X120775070Y-107273567D01*
X120770657Y-107274160D01*
X120770653Y-107274160D01*
X120616973Y-107294802D01*
X120499203Y-107310621D01*
X120231310Y-107386175D01*
X119976735Y-107498721D01*
X119740556Y-107646015D01*
X119527489Y-107825117D01*
X119524519Y-107828433D01*
X119344757Y-108029133D01*
X119344754Y-108029137D01*
X119341783Y-108032454D01*
X119187143Y-108263888D01*
X119185214Y-108267906D01*
X119185213Y-108267907D01*
X119071059Y-108505633D01*
X119066656Y-108514802D01*
X119065314Y-108519046D01*
X119065313Y-108519048D01*
X118986315Y-108768841D01*
X118982725Y-108780191D01*
X118981995Y-108784577D01*
X118981994Y-108784581D01*
X118953084Y-108958271D01*
X118937024Y-109054757D01*
X118930466Y-109333025D01*
X118941534Y-109426540D01*
X118958516Y-109570015D01*
X118963182Y-109609439D01*
X118964320Y-109613731D01*
X118964321Y-109613736D01*
X119014944Y-109804660D01*
X119034519Y-109878486D01*
X119036254Y-109882583D01*
X119037697Y-109886797D01*
X119036697Y-109887140D01*
X119045300Y-109929523D01*
X119045300Y-122808913D01*
X119059938Y-123015649D01*
X119060876Y-123020004D01*
X119060876Y-123020007D01*
X119086373Y-123138437D01*
X119118521Y-123287758D01*
X119214861Y-123548898D01*
X119347034Y-123793858D01*
X119512404Y-124017751D01*
X119515523Y-124020920D01*
X119515527Y-124020924D01*
X119558114Y-124064185D01*
X119707671Y-124216110D01*
X119711208Y-124218809D01*
X119711211Y-124218812D01*
X119783312Y-124273837D01*
X119825329Y-124331065D01*
X119829737Y-124401924D01*
X119795135Y-124463918D01*
X119732510Y-124497364D01*
X119706870Y-124500000D01*
X100626000Y-124500000D01*
X100557879Y-124479998D01*
X100511386Y-124426342D01*
X100500000Y-124374000D01*
X100500000Y-122000000D01*
X101394551Y-122000000D01*
X101414317Y-122251148D01*
X101473127Y-122496111D01*
X101569534Y-122728859D01*
X101701164Y-122943659D01*
X101704376Y-122947419D01*
X101704379Y-122947424D01*
X101818559Y-123081111D01*
X101864776Y-123135224D01*
X101868538Y-123138437D01*
X102052576Y-123295621D01*
X102052581Y-123295624D01*
X102056341Y-123298836D01*
X102271141Y-123430466D01*
X102275711Y-123432359D01*
X102275715Y-123432361D01*
X102499316Y-123524979D01*
X102503889Y-123526873D01*
X102578232Y-123544721D01*
X102744039Y-123584528D01*
X102744045Y-123584529D01*
X102748852Y-123585683D01*
X102837149Y-123592632D01*
X102934661Y-123600307D01*
X102934670Y-123600307D01*
X102937118Y-123600500D01*
X103062882Y-123600500D01*
X103065330Y-123600307D01*
X103065339Y-123600307D01*
X103162851Y-123592632D01*
X103251148Y-123585683D01*
X103255955Y-123584529D01*
X103255961Y-123584528D01*
X103421768Y-123544721D01*
X103496111Y-123526873D01*
X103500684Y-123524979D01*
X103724285Y-123432361D01*
X103724289Y-123432359D01*
X103728859Y-123430466D01*
X103943659Y-123298836D01*
X103947419Y-123295624D01*
X103947424Y-123295621D01*
X104131462Y-123138437D01*
X104135224Y-123135224D01*
X104181441Y-123081111D01*
X104295621Y-122947424D01*
X104295624Y-122947419D01*
X104298836Y-122943659D01*
X104430466Y-122728859D01*
X104526873Y-122496111D01*
X104585683Y-122251148D01*
X104605449Y-122000000D01*
X104585683Y-121748852D01*
X104582701Y-121736428D01*
X104528028Y-121508701D01*
X104526873Y-121503889D01*
X104430466Y-121271141D01*
X104298836Y-121056341D01*
X104295624Y-121052581D01*
X104295621Y-121052576D01*
X104138437Y-120868538D01*
X104135224Y-120864776D01*
X104098185Y-120833142D01*
X103947424Y-120704379D01*
X103947419Y-120704376D01*
X103943659Y-120701164D01*
X103728859Y-120569534D01*
X103724289Y-120567641D01*
X103724285Y-120567639D01*
X103500684Y-120475021D01*
X103500682Y-120475020D01*
X103496111Y-120473127D01*
X103411711Y-120452865D01*
X103255961Y-120415472D01*
X103255955Y-120415471D01*
X103251148Y-120414317D01*
X103162851Y-120407368D01*
X103065339Y-120399693D01*
X103065330Y-120399693D01*
X103062882Y-120399500D01*
X102937118Y-120399500D01*
X102934670Y-120399693D01*
X102934661Y-120399693D01*
X102837149Y-120407368D01*
X102748852Y-120414317D01*
X102744045Y-120415471D01*
X102744039Y-120415472D01*
X102588289Y-120452865D01*
X102503889Y-120473127D01*
X102499318Y-120475020D01*
X102499316Y-120475021D01*
X102275715Y-120567639D01*
X102275711Y-120567641D01*
X102271141Y-120569534D01*
X102056341Y-120701164D01*
X102052581Y-120704376D01*
X102052576Y-120704379D01*
X101901815Y-120833142D01*
X101864776Y-120864776D01*
X101861563Y-120868538D01*
X101704379Y-121052576D01*
X101704376Y-121052581D01*
X101701164Y-121056341D01*
X101569534Y-121271141D01*
X101473127Y-121503889D01*
X101471972Y-121508701D01*
X101417300Y-121736428D01*
X101414317Y-121748852D01*
X101394551Y-122000000D01*
X100500000Y-122000000D01*
X100500000Y-114080210D01*
X100520002Y-114012089D01*
X100573658Y-113965596D01*
X100643932Y-113955492D01*
X100704006Y-113981260D01*
X100822179Y-114074420D01*
X100892403Y-114129780D01*
X100983269Y-114182559D01*
X101129244Y-114267348D01*
X101129250Y-114267351D01*
X101133091Y-114269582D01*
X101137214Y-114271252D01*
X101386950Y-114372406D01*
X101386953Y-114372407D01*
X101391076Y-114374077D01*
X101395389Y-114375148D01*
X101395394Y-114375150D01*
X101656889Y-114440106D01*
X101656894Y-114440107D01*
X101661210Y-114441179D01*
X101665638Y-114441633D01*
X101665640Y-114441633D01*
X101738798Y-114449129D01*
X101898585Y-114465500D01*
X106731473Y-114465500D01*
X106799594Y-114485502D01*
X106820568Y-114502405D01*
X107375195Y-115057032D01*
X107409221Y-115119344D01*
X107412100Y-115146127D01*
X107412100Y-119852113D01*
X107426738Y-120058849D01*
X107485321Y-120330958D01*
X107581661Y-120592098D01*
X107713834Y-120837058D01*
X107879204Y-121060951D01*
X107882323Y-121064120D01*
X107882327Y-121064124D01*
X107924914Y-121107385D01*
X108074471Y-121259310D01*
X108078008Y-121262009D01*
X108078011Y-121262012D01*
X108130541Y-121302101D01*
X108295739Y-121428176D01*
X108299627Y-121430354D01*
X108299628Y-121430354D01*
X108358631Y-121463397D01*
X108538593Y-121564181D01*
X108542732Y-121565782D01*
X108542740Y-121565786D01*
X108735139Y-121640219D01*
X108798187Y-121664610D01*
X108802512Y-121665613D01*
X108802517Y-121665614D01*
X108876443Y-121682749D01*
X109069343Y-121727461D01*
X109346648Y-121751478D01*
X109351083Y-121751234D01*
X109351087Y-121751234D01*
X109620129Y-121736428D01*
X109620136Y-121736427D01*
X109624572Y-121736183D01*
X109897567Y-121681881D01*
X110160188Y-121589655D01*
X110407194Y-121461345D01*
X110520425Y-121380429D01*
X110630036Y-121302101D01*
X110630040Y-121302098D01*
X110633657Y-121299513D01*
X110835059Y-121107385D01*
X110871975Y-121060558D01*
X111004624Y-120892293D01*
X111007380Y-120888797D01*
X111114498Y-120704379D01*
X111144948Y-120651956D01*
X111144951Y-120651950D01*
X111147182Y-120648109D01*
X111247801Y-120399693D01*
X111250006Y-120394250D01*
X111250007Y-120394247D01*
X111251677Y-120390124D01*
X111265338Y-120335132D01*
X111317706Y-120124311D01*
X111317707Y-120124306D01*
X111318779Y-120119990D01*
X111343100Y-119882615D01*
X111343100Y-114308686D01*
X111343135Y-114305718D01*
X111345828Y-114191424D01*
X111345933Y-114186975D01*
X111335365Y-114097679D01*
X111334809Y-114091793D01*
X111329166Y-114012089D01*
X111328462Y-114002151D01*
X111319932Y-113962530D01*
X111317984Y-113950829D01*
X111313741Y-113914977D01*
X111313740Y-113914972D01*
X111313218Y-113910561D01*
X111290179Y-113823668D01*
X111288798Y-113817916D01*
X111270815Y-113734388D01*
X111270814Y-113734384D01*
X111269879Y-113730042D01*
X111268339Y-113725867D01*
X111255846Y-113692003D01*
X111252267Y-113680685D01*
X111243026Y-113645832D01*
X111243021Y-113645818D01*
X111241880Y-113641514D01*
X111206838Y-113558758D01*
X111204653Y-113553239D01*
X111188927Y-113510613D01*
X111173539Y-113468902D01*
X111154291Y-113433229D01*
X111149152Y-113422528D01*
X111135084Y-113389304D01*
X111135084Y-113389303D01*
X111133347Y-113385202D01*
X111086985Y-113308195D01*
X111084051Y-113303051D01*
X111043488Y-113227873D01*
X111043482Y-113227863D01*
X111041366Y-113223942D01*
X111038720Y-113220360D01*
X111038712Y-113220347D01*
X111017285Y-113191338D01*
X111010690Y-113181468D01*
X110992082Y-113150560D01*
X110992074Y-113150548D01*
X110989781Y-113146740D01*
X110933032Y-113077035D01*
X110929402Y-113072355D01*
X110875996Y-113000049D01*
X110847560Y-112971163D01*
X110843395Y-112966513D01*
X110843320Y-112966580D01*
X110841156Y-112964184D01*
X110839129Y-112961693D01*
X110782407Y-112904971D01*
X110781709Y-112904269D01*
X110752964Y-112875069D01*
X110680729Y-112801690D01*
X110677188Y-112798988D01*
X110673845Y-112796040D01*
X110674027Y-112795834D01*
X110667997Y-112790561D01*
X109008099Y-111130663D01*
X109006024Y-111128540D01*
X108927057Y-111045761D01*
X108927055Y-111045759D01*
X108923985Y-111042541D01*
X108853383Y-110986883D01*
X108848808Y-110983098D01*
X108784301Y-110927121D01*
X108784296Y-110927118D01*
X108780940Y-110924205D01*
X108746885Y-110902215D01*
X108737239Y-110895322D01*
X108705397Y-110870220D01*
X108627670Y-110825073D01*
X108622607Y-110821970D01*
X108550854Y-110775639D01*
X108550853Y-110775638D01*
X108547106Y-110773219D01*
X108543061Y-110771354D01*
X108543057Y-110771352D01*
X108510289Y-110756246D01*
X108499755Y-110750774D01*
X108468556Y-110732652D01*
X108468551Y-110732649D01*
X108464709Y-110730418D01*
X108381393Y-110696672D01*
X108375983Y-110694331D01*
X108294329Y-110656688D01*
X108255481Y-110645070D01*
X108244300Y-110641144D01*
X108206724Y-110625923D01*
X108202407Y-110624851D01*
X108202402Y-110624849D01*
X108119498Y-110604256D01*
X108113770Y-110602689D01*
X108075615Y-110591278D01*
X108027656Y-110576935D01*
X108002608Y-110573169D01*
X107987569Y-110570908D01*
X107975929Y-110568592D01*
X107940920Y-110559896D01*
X107940912Y-110559895D01*
X107936590Y-110558821D01*
X107932161Y-110558367D01*
X107932160Y-110558367D01*
X107847176Y-110549659D01*
X107841289Y-110548915D01*
X107756815Y-110536216D01*
X107752405Y-110535553D01*
X107711868Y-110535235D01*
X107705634Y-110534891D01*
X107705629Y-110534992D01*
X107702414Y-110534828D01*
X107699215Y-110534500D01*
X107618812Y-110534500D01*
X107617822Y-110534496D01*
X107585226Y-110534240D01*
X107474070Y-110533367D01*
X107469652Y-110533960D01*
X107465210Y-110534240D01*
X107465193Y-110533967D01*
X107457214Y-110534500D01*
X101929087Y-110534500D01*
X101722351Y-110549138D01*
X101717996Y-110550076D01*
X101717993Y-110550076D01*
X101454589Y-110606785D01*
X101454587Y-110606785D01*
X101450242Y-110607721D01*
X101189102Y-110704061D01*
X101185184Y-110706175D01*
X101053917Y-110777003D01*
X100944142Y-110836234D01*
X100864150Y-110895317D01*
X100738788Y-110987911D01*
X100720249Y-111001604D01*
X100717080Y-111004724D01*
X100717069Y-111004733D01*
X100714395Y-111007366D01*
X100651818Y-111040902D01*
X100581044Y-111035283D01*
X100524544Y-110992293D01*
X100500255Y-110925580D01*
X100500000Y-110917576D01*
X100500000Y-103000000D01*
X101394551Y-103000000D01*
X101414317Y-103251148D01*
X101415471Y-103255955D01*
X101415472Y-103255961D01*
X101439257Y-103355030D01*
X101473127Y-103496111D01*
X101475020Y-103500682D01*
X101475021Y-103500684D01*
X101566218Y-103720853D01*
X101569534Y-103728859D01*
X101701164Y-103943659D01*
X101704376Y-103947419D01*
X101704379Y-103947424D01*
X101751987Y-104003165D01*
X101864776Y-104135224D01*
X101868538Y-104138437D01*
X102052576Y-104295621D01*
X102052581Y-104295624D01*
X102056341Y-104298836D01*
X102271141Y-104430466D01*
X102275711Y-104432359D01*
X102275715Y-104432361D01*
X102499316Y-104524979D01*
X102503889Y-104526873D01*
X102588289Y-104547135D01*
X102744039Y-104584528D01*
X102744045Y-104584529D01*
X102748852Y-104585683D01*
X102837149Y-104592632D01*
X102934661Y-104600307D01*
X102934670Y-104600307D01*
X102937118Y-104600500D01*
X103062882Y-104600500D01*
X103065330Y-104600307D01*
X103065339Y-104600307D01*
X103162851Y-104592632D01*
X103251148Y-104585683D01*
X103255955Y-104584529D01*
X103255961Y-104584528D01*
X103411711Y-104547135D01*
X103496111Y-104526873D01*
X103500684Y-104524979D01*
X103724285Y-104432361D01*
X103724289Y-104432359D01*
X103728859Y-104430466D01*
X103943659Y-104298836D01*
X103947419Y-104295624D01*
X103947424Y-104295621D01*
X104131462Y-104138437D01*
X104135224Y-104135224D01*
X104248013Y-104003165D01*
X104295621Y-103947424D01*
X104295624Y-103947419D01*
X104298836Y-103943659D01*
X104430466Y-103728859D01*
X104433783Y-103720853D01*
X104524979Y-103500684D01*
X104524980Y-103500682D01*
X104526873Y-103496111D01*
X104560743Y-103355030D01*
X104584528Y-103255961D01*
X104584529Y-103255955D01*
X104585683Y-103251148D01*
X104605449Y-103000000D01*
X104585683Y-102748852D01*
X104580413Y-102726898D01*
X104528028Y-102508701D01*
X104526873Y-102503889D01*
X104430466Y-102271141D01*
X104298836Y-102056341D01*
X104295624Y-102052581D01*
X104295621Y-102052576D01*
X104138437Y-101868538D01*
X104135224Y-101864776D01*
X104101899Y-101836314D01*
X103947424Y-101704379D01*
X103947419Y-101704376D01*
X103943659Y-101701164D01*
X103728859Y-101569534D01*
X103724289Y-101567641D01*
X103724285Y-101567639D01*
X103500684Y-101475021D01*
X103500682Y-101475020D01*
X103496111Y-101473127D01*
X103411711Y-101452865D01*
X103255961Y-101415472D01*
X103255955Y-101415471D01*
X103251148Y-101414317D01*
X103162851Y-101407368D01*
X103065339Y-101399693D01*
X103065330Y-101399693D01*
X103062882Y-101399500D01*
X102937118Y-101399500D01*
X102934670Y-101399693D01*
X102934661Y-101399693D01*
X102837149Y-101407368D01*
X102748852Y-101414317D01*
X102744045Y-101415471D01*
X102744039Y-101415472D01*
X102588289Y-101452865D01*
X102503889Y-101473127D01*
X102499318Y-101475020D01*
X102499316Y-101475021D01*
X102275715Y-101567639D01*
X102275711Y-101567641D01*
X102271141Y-101569534D01*
X102056341Y-101701164D01*
X102052581Y-101704376D01*
X102052576Y-101704379D01*
X101898101Y-101836314D01*
X101864776Y-101864776D01*
X101861563Y-101868538D01*
X101704379Y-102052576D01*
X101704376Y-102052581D01*
X101701164Y-102056341D01*
X101569534Y-102271141D01*
X101473127Y-102503889D01*
X101471972Y-102508701D01*
X101419588Y-102726898D01*
X101414317Y-102748852D01*
X101394551Y-103000000D01*
X100500000Y-103000000D01*
X100500000Y-100626000D01*
X100520002Y-100557879D01*
X100573658Y-100511386D01*
X100626000Y-100500000D01*
X112568650Y-100500000D01*
X112636771Y-100520002D01*
G37*
%TD.AperFunction*%
%TD*%
M02*
