<?xml version="1.0" standalone="no"?>
<!DOCTYPE svg PUBLIC "-//W3C//DTD SVG 1.1//EN" "http://www.w3.org/Graphics/SVG/1.1/DTD/svg11.dtd">
<!--Generator: Xara Designer (www.xara.com), SVG filter version: 6.1.0.18-->
<svg stroke-width="0.501" stroke-linejoin="bevel" fill-rule="evenodd" xmlns:xlink="http://www.w3.org/1999/xlink" xmlns="http://www.w3.org/2000/svg" version="1.1" overflow="visible" width="744.094pt" height="744.094pt" viewBox="0 0 744.094 744.094">
 <defs>
	</defs>
 <g id="Document" fill="none" stroke="black" font-family="Times New Roman" font-size="16" transform="scale(1 -1)">
  <g id="Spread" transform="translate(0 -744.094)">
   <g id="Layer 1">
    <path d="M 445.111,355.509 L 445.111,386.313 L 465.131,386.313 C 467.701,386.313 468.986,385.029 468.986,382.462 L 468.986,359.615 C 468.986,356.877 467.7,355.509 465.131,355.509 L 445.111,355.509 Z M 362.303,356.536 L 362.303,361.796 C 362.303,363.509 363.159,364.366 364.872,364.366 L 383.61,364.366 C 385.321,364.366 386.176,363.509 386.176,361.796 L 386.176,356.536 C 386.176,354.825 385.321,353.97 383.61,353.97 L 364.872,353.97 C 363.159,353.97 362.303,354.825 362.303,356.536 Z M 491.186,350.374 L 491.186,390.934 C 491.186,402.743 485.325,408.647 473.604,408.647 L 445.111,408.647 L 445.111,430.852 L 422.907,430.852 L 422.907,333.305 L 473.219,333.305 C 485.198,333.305 491.186,338.995 491.186,350.374 Z M 408.382,351.017 L 408.382,390.934 C 408.382,402.743 402.391,408.647 390.411,408.647 L 343.179,408.647 L 343.179,387.597 L 382.325,387.597 C 384.893,387.597 386.176,386.313 386.176,383.746 L 386.176,378.099 C 384.807,378.697 383.396,378.996 381.942,378.996 L 356.654,378.996 C 345.702,378.996 340.226,373.177 340.226,361.542 L 340.226,350.374 C 340.226,338.995 345.702,333.305 356.654,333.305 L 391.053,333.305 C 402.605,333.305 408.382,339.208 408.382,351.017 Z M 328.309,333.305 L 328.309,357.821 L 293.014,357.821 L 293.014,430.852 L 270.808,430.852 L 270.808,333.305 L 328.309,333.305 Z M 236.596,333.305 L 236.596,382.592 C 236.596,385.158 237.88,386.442 240.447,386.442 L 256.879,386.442 L 256.879,408.647 L 231.979,408.647 C 225.816,408.647 221.323,407.171 218.501,404.219 C 215.677,401.267 214.266,396.838 214.266,390.934 L 214.266,333.305 L 236.596,333.305 Z M 192.367,302.152 L 192.367,462.004 L 513.086,462.004 L 513.086,302.152 L 192.367,302.152 Z M 253.572,244.818 L 253.572,291.43 L 304.882,291.43 L 304.882,244.818 C 304.882,239.823 308.931,235.773 313.927,235.773 L 318.026,235.773 C 323.022,235.773 327.072,239.823 327.072,244.818 L 327.072,291.43 L 378.382,291.43 L 378.382,244.818 C 378.382,239.823 382.432,235.773 387.427,235.773 L 391.525,235.773 C 396.521,235.773 400.57,239.823 400.57,244.818 L 400.57,291.43 L 451.881,291.43 L 451.881,244.818 C 451.881,239.823 455.931,235.773 460.926,235.773 L 465.024,235.773 C 470.02,235.773 474.069,239.823 474.069,244.818 L 474.069,291.43 L 518.446,291.43 C 521.408,291.43 523.807,293.831 523.807,296.791 L 523.807,467.366 C 523.807,470.326 521.408,472.726 518.446,472.726 L 474.069,472.726 L 474.069,519.339 C 474.069,524.335 470.02,528.384 465.024,528.384 L 460.926,528.384 C 455.931,528.384 451.881,524.335 451.881,519.339 L 451.881,472.726 L 400.57,472.726 L 400.57,519.339 C 400.57,524.335 396.521,528.384 391.525,528.384 L 387.427,528.384 C 382.432,528.384 378.382,524.335 378.382,519.339 L 378.382,472.726 L 327.072,472.726 L 327.072,519.339 C 327.072,524.335 323.022,528.384 318.026,528.384 L 313.927,528.384 C 308.931,528.384 304.882,524.335 304.882,519.339 L 304.882,472.726 L 253.572,472.726 L 253.572,519.339 C 253.572,524.335 249.522,528.384 244.527,528.384 L 240.428,528.384 C 235.432,528.384 231.383,524.335 231.383,519.339 L 231.383,472.726 L 187.006,472.726 C 184.046,472.726 181.645,470.326 181.645,467.366 L 181.645,296.791 C 181.645,293.831 184.046,291.43 187.006,291.43 L 231.383,291.43 L 231.383,244.818 C 231.383,239.823 235.432,235.773 240.428,235.773 L 244.527,235.773 C 249.522,235.773 253.572,239.823 253.572,244.818 Z M 351.711,114.062 L 121.125,247.191 C 120.497,247.554 120.11,248.224 120.11,248.949 L 120.11,515.208 C 120.11,515.933 120.497,516.603 121.125,516.966 L 351.711,650.095 L 353.741,650.095 L 584.328,516.966 C 584.955,516.603 585.343,515.933 585.343,515.208 L 585.343,248.949 C 585.343,248.224 584.955,247.554 584.328,247.191 L 353.741,114.062 C 353.427,113.881 353.076,113.79 352.726,113.79 C 352.375,113.79 352.024,113.881 351.711,114.062 Z" stroke-width="0.25" stroke="none" fill-rule="nonzero" stroke-linejoin="miter" fill="#000000" marker-start="none" marker-end="none"/>
   </g>
  </g>
 </g>
</svg>
