%TF.GenerationSoftware,KiCad,Pcbnew,(6.0.1)*%
%TF.CreationDate,2022-02-11T18:33:40+00:00*%
%TF.ProjectId,Relay_RF_G2RL,52656c61-795f-4524-965f-4732524c2e6b,rev?*%
%TF.SameCoordinates,Original*%
%TF.FileFunction,Legend,Top*%
%TF.FilePolarity,Positive*%
%FSLAX46Y46*%
G04 Gerber Fmt 4.6, Leading zero omitted, Abs format (unit mm)*
G04 Created by KiCad (PCBNEW (6.0.1)) date 2022-02-11 18:33:40*
%MOMM*%
%LPD*%
G01*
G04 APERTURE LIST*
%ADD10C,0.150000*%
%ADD11C,0.300000*%
%ADD12C,0.120000*%
G04 APERTURE END LIST*
D10*
X101798714Y-112258400D02*
X101703476Y-112210780D01*
X101560619Y-112210780D01*
X101417761Y-112258400D01*
X101322523Y-112353638D01*
X101274904Y-112448876D01*
X101227285Y-112639352D01*
X101227285Y-112782209D01*
X101274904Y-112972685D01*
X101322523Y-113067923D01*
X101417761Y-113163161D01*
X101560619Y-113210780D01*
X101655857Y-113210780D01*
X101798714Y-113163161D01*
X101846333Y-113115542D01*
X101846333Y-112782209D01*
X101655857Y-112782209D01*
X102227285Y-112306019D02*
X102274904Y-112258400D01*
X102370142Y-112210780D01*
X102608238Y-112210780D01*
X102703476Y-112258400D01*
X102751095Y-112306019D01*
X102798714Y-112401257D01*
X102798714Y-112496495D01*
X102751095Y-112639352D01*
X102179666Y-113210780D01*
X102798714Y-113210780D01*
X103798714Y-113210780D02*
X103465380Y-112734590D01*
X103227285Y-113210780D02*
X103227285Y-112210780D01*
X103608238Y-112210780D01*
X103703476Y-112258400D01*
X103751095Y-112306019D01*
X103798714Y-112401257D01*
X103798714Y-112544114D01*
X103751095Y-112639352D01*
X103703476Y-112686971D01*
X103608238Y-112734590D01*
X103227285Y-112734590D01*
X104703476Y-113210780D02*
X104227285Y-113210780D01*
X104227285Y-112210780D01*
X105036809Y-112829828D02*
X105798714Y-112829828D01*
X106227285Y-112306019D02*
X106274904Y-112258400D01*
X106370142Y-112210780D01*
X106608238Y-112210780D01*
X106703476Y-112258400D01*
X106751095Y-112306019D01*
X106798714Y-112401257D01*
X106798714Y-112496495D01*
X106751095Y-112639352D01*
X106179666Y-113210780D01*
X106798714Y-113210780D01*
X101489190Y-114820780D02*
X101155857Y-114344590D01*
X100917761Y-114820780D02*
X100917761Y-113820780D01*
X101298714Y-113820780D01*
X101393952Y-113868400D01*
X101441571Y-113916019D01*
X101489190Y-114011257D01*
X101489190Y-114154114D01*
X101441571Y-114249352D01*
X101393952Y-114296971D01*
X101298714Y-114344590D01*
X100917761Y-114344590D01*
X102251095Y-114296971D02*
X101917761Y-114296971D01*
X101917761Y-114820780D02*
X101917761Y-113820780D01*
X102393952Y-113820780D01*
X104108238Y-114820780D02*
X103774904Y-114344590D01*
X103536809Y-114820780D02*
X103536809Y-113820780D01*
X103917761Y-113820780D01*
X104013000Y-113868400D01*
X104060619Y-113916019D01*
X104108238Y-114011257D01*
X104108238Y-114154114D01*
X104060619Y-114249352D01*
X104013000Y-114296971D01*
X103917761Y-114344590D01*
X103536809Y-114344590D01*
X104917761Y-114773161D02*
X104822523Y-114820780D01*
X104632047Y-114820780D01*
X104536809Y-114773161D01*
X104489190Y-114677923D01*
X104489190Y-114296971D01*
X104536809Y-114201733D01*
X104632047Y-114154114D01*
X104822523Y-114154114D01*
X104917761Y-114201733D01*
X104965380Y-114296971D01*
X104965380Y-114392209D01*
X104489190Y-114487447D01*
X105536809Y-114820780D02*
X105441571Y-114773161D01*
X105393952Y-114677923D01*
X105393952Y-113820780D01*
X106346333Y-114820780D02*
X106346333Y-114296971D01*
X106298714Y-114201733D01*
X106203476Y-114154114D01*
X106013000Y-114154114D01*
X105917761Y-114201733D01*
X106346333Y-114773161D02*
X106251095Y-114820780D01*
X106013000Y-114820780D01*
X105917761Y-114773161D01*
X105870142Y-114677923D01*
X105870142Y-114582685D01*
X105917761Y-114487447D01*
X106013000Y-114439828D01*
X106251095Y-114439828D01*
X106346333Y-114392209D01*
X106727285Y-114154114D02*
X106965380Y-114820780D01*
X107203476Y-114154114D02*
X106965380Y-114820780D01*
X106870142Y-115058876D01*
X106822523Y-115106495D01*
X106727285Y-115154114D01*
D11*
X121950314Y-133825371D02*
X121950314Y-132325371D01*
X122807457Y-133825371D01*
X122807457Y-132325371D01*
X123807457Y-132325371D02*
X124093171Y-132325371D01*
X124236028Y-132396800D01*
X124378885Y-132539657D01*
X124450314Y-132825371D01*
X124450314Y-133325371D01*
X124378885Y-133611085D01*
X124236028Y-133753942D01*
X124093171Y-133825371D01*
X123807457Y-133825371D01*
X123664600Y-133753942D01*
X123521742Y-133611085D01*
X123450314Y-133325371D01*
X123450314Y-132825371D01*
X123521742Y-132539657D01*
X123664600Y-132396800D01*
X123807457Y-132325371D01*
X101666028Y-131244114D02*
X101594600Y-131315542D01*
X101380314Y-131386971D01*
X101237457Y-131386971D01*
X101023171Y-131315542D01*
X100880314Y-131172685D01*
X100808885Y-131029828D01*
X100737457Y-130744114D01*
X100737457Y-130529828D01*
X100808885Y-130244114D01*
X100880314Y-130101257D01*
X101023171Y-129958400D01*
X101237457Y-129886971D01*
X101380314Y-129886971D01*
X101594600Y-129958400D01*
X101666028Y-130029828D01*
X102594600Y-129886971D02*
X102880314Y-129886971D01*
X103023171Y-129958400D01*
X103166028Y-130101257D01*
X103237457Y-130386971D01*
X103237457Y-130886971D01*
X103166028Y-131172685D01*
X103023171Y-131315542D01*
X102880314Y-131386971D01*
X102594600Y-131386971D01*
X102451742Y-131315542D01*
X102308885Y-131172685D01*
X102237457Y-130886971D01*
X102237457Y-130386971D01*
X102308885Y-130101257D01*
X102451742Y-129958400D01*
X102594600Y-129886971D01*
X103880314Y-131386971D02*
X103880314Y-129886971D01*
X104380314Y-130958400D01*
X104880314Y-129886971D01*
X104880314Y-131386971D01*
X121884428Y-120769771D02*
X121884428Y-119269771D01*
X122741571Y-120769771D01*
X122741571Y-119269771D01*
X124313000Y-120626914D02*
X124241571Y-120698342D01*
X124027285Y-120769771D01*
X123884428Y-120769771D01*
X123670142Y-120698342D01*
X123527285Y-120555485D01*
X123455857Y-120412628D01*
X123384428Y-120126914D01*
X123384428Y-119912628D01*
X123455857Y-119626914D01*
X123527285Y-119484057D01*
X123670142Y-119341200D01*
X123884428Y-119269771D01*
X124027285Y-119269771D01*
X124241571Y-119341200D01*
X124313000Y-119412628D01*
D10*
%TO.C,J2*%
X105052380Y-137083333D02*
X105766666Y-137083333D01*
X105909523Y-137130952D01*
X106004761Y-137226190D01*
X106052380Y-137369047D01*
X106052380Y-137464285D01*
X105147619Y-136654761D02*
X105100000Y-136607142D01*
X105052380Y-136511904D01*
X105052380Y-136273809D01*
X105100000Y-136178571D01*
X105147619Y-136130952D01*
X105242857Y-136083333D01*
X105338095Y-136083333D01*
X105480952Y-136130952D01*
X106052380Y-136702380D01*
X106052380Y-136083333D01*
%TO.C,R2*%
X103083333Y-124702380D02*
X102750000Y-124226190D01*
X102511904Y-124702380D02*
X102511904Y-123702380D01*
X102892857Y-123702380D01*
X102988095Y-123750000D01*
X103035714Y-123797619D01*
X103083333Y-123892857D01*
X103083333Y-124035714D01*
X103035714Y-124130952D01*
X102988095Y-124178571D01*
X102892857Y-124226190D01*
X102511904Y-124226190D01*
X103464285Y-123797619D02*
X103511904Y-123750000D01*
X103607142Y-123702380D01*
X103845238Y-123702380D01*
X103940476Y-123750000D01*
X103988095Y-123797619D01*
X104035714Y-123892857D01*
X104035714Y-123988095D01*
X103988095Y-124130952D01*
X103416666Y-124702380D01*
X104035714Y-124702380D01*
%TO.C,R1*%
X122133333Y-112752380D02*
X121800000Y-112276190D01*
X121561904Y-112752380D02*
X121561904Y-111752380D01*
X121942857Y-111752380D01*
X122038095Y-111800000D01*
X122085714Y-111847619D01*
X122133333Y-111942857D01*
X122133333Y-112085714D01*
X122085714Y-112180952D01*
X122038095Y-112228571D01*
X121942857Y-112276190D01*
X121561904Y-112276190D01*
X123085714Y-112752380D02*
X122514285Y-112752380D01*
X122800000Y-112752380D02*
X122800000Y-111752380D01*
X122704761Y-111895238D01*
X122609523Y-111990476D01*
X122514285Y-112038095D01*
%TO.C,C2*%
X117483333Y-113407142D02*
X117435714Y-113454761D01*
X117292857Y-113502380D01*
X117197619Y-113502380D01*
X117054761Y-113454761D01*
X116959523Y-113359523D01*
X116911904Y-113264285D01*
X116864285Y-113073809D01*
X116864285Y-112930952D01*
X116911904Y-112740476D01*
X116959523Y-112645238D01*
X117054761Y-112550000D01*
X117197619Y-112502380D01*
X117292857Y-112502380D01*
X117435714Y-112550000D01*
X117483333Y-112597619D01*
X117864285Y-112597619D02*
X117911904Y-112550000D01*
X118007142Y-112502380D01*
X118245238Y-112502380D01*
X118340476Y-112550000D01*
X118388095Y-112597619D01*
X118435714Y-112692857D01*
X118435714Y-112788095D01*
X118388095Y-112930952D01*
X117816666Y-113502380D01*
X118435714Y-113502380D01*
%TO.C,R3*%
X124133333Y-112852380D02*
X123800000Y-112376190D01*
X123561904Y-112852380D02*
X123561904Y-111852380D01*
X123942857Y-111852380D01*
X124038095Y-111900000D01*
X124085714Y-111947619D01*
X124133333Y-112042857D01*
X124133333Y-112185714D01*
X124085714Y-112280952D01*
X124038095Y-112328571D01*
X123942857Y-112376190D01*
X123561904Y-112376190D01*
X124466666Y-111852380D02*
X125085714Y-111852380D01*
X124752380Y-112233333D01*
X124895238Y-112233333D01*
X124990476Y-112280952D01*
X125038095Y-112328571D01*
X125085714Y-112423809D01*
X125085714Y-112661904D01*
X125038095Y-112757142D01*
X124990476Y-112804761D01*
X124895238Y-112852380D01*
X124609523Y-112852380D01*
X124514285Y-112804761D01*
X124466666Y-112757142D01*
%TO.C,C1*%
X105783333Y-110407142D02*
X105735714Y-110454761D01*
X105592857Y-110502380D01*
X105497619Y-110502380D01*
X105354761Y-110454761D01*
X105259523Y-110359523D01*
X105211904Y-110264285D01*
X105164285Y-110073809D01*
X105164285Y-109930952D01*
X105211904Y-109740476D01*
X105259523Y-109645238D01*
X105354761Y-109550000D01*
X105497619Y-109502380D01*
X105592857Y-109502380D01*
X105735714Y-109550000D01*
X105783333Y-109597619D01*
X106735714Y-110502380D02*
X106164285Y-110502380D01*
X106450000Y-110502380D02*
X106450000Y-109502380D01*
X106354761Y-109645238D01*
X106259523Y-109740476D01*
X106164285Y-109788095D01*
%TO.C,J1*%
X121616666Y-106602380D02*
X121616666Y-107316666D01*
X121569047Y-107459523D01*
X121473809Y-107554761D01*
X121330952Y-107602380D01*
X121235714Y-107602380D01*
X122616666Y-107602380D02*
X122045238Y-107602380D01*
X122330952Y-107602380D02*
X122330952Y-106602380D01*
X122235714Y-106745238D01*
X122140476Y-106840476D01*
X122045238Y-106888095D01*
%TO.C,J4*%
X123852380Y-137833333D02*
X124566666Y-137833333D01*
X124709523Y-137880952D01*
X124804761Y-137976190D01*
X124852380Y-138119047D01*
X124852380Y-138214285D01*
X124185714Y-136928571D02*
X124852380Y-136928571D01*
X123804761Y-137166666D02*
X124519047Y-137404761D01*
X124519047Y-136785714D01*
%TO.C,D2*%
X102599404Y-119622380D02*
X102599404Y-118622380D01*
X102837500Y-118622380D01*
X102980357Y-118670000D01*
X103075595Y-118765238D01*
X103123214Y-118860476D01*
X103170833Y-119050952D01*
X103170833Y-119193809D01*
X103123214Y-119384285D01*
X103075595Y-119479523D01*
X102980357Y-119574761D01*
X102837500Y-119622380D01*
X102599404Y-119622380D01*
X103551785Y-118717619D02*
X103599404Y-118670000D01*
X103694642Y-118622380D01*
X103932738Y-118622380D01*
X104027976Y-118670000D01*
X104075595Y-118717619D01*
X104123214Y-118812857D01*
X104123214Y-118908095D01*
X104075595Y-119050952D01*
X103504166Y-119622380D01*
X104123214Y-119622380D01*
%TO.C,Q1*%
X126454761Y-115247619D02*
X126359523Y-115200000D01*
X126264285Y-115104761D01*
X126121428Y-114961904D01*
X126026190Y-114914285D01*
X125930952Y-114914285D01*
X125978571Y-115152380D02*
X125883333Y-115104761D01*
X125788095Y-115009523D01*
X125740476Y-114819047D01*
X125740476Y-114485714D01*
X125788095Y-114295238D01*
X125883333Y-114200000D01*
X125978571Y-114152380D01*
X126169047Y-114152380D01*
X126264285Y-114200000D01*
X126359523Y-114295238D01*
X126407142Y-114485714D01*
X126407142Y-114819047D01*
X126359523Y-115009523D01*
X126264285Y-115104761D01*
X126169047Y-115152380D01*
X125978571Y-115152380D01*
X127359523Y-115152380D02*
X126788095Y-115152380D01*
X127073809Y-115152380D02*
X127073809Y-114152380D01*
X126978571Y-114295238D01*
X126883333Y-114390476D01*
X126788095Y-114438095D01*
%TO.C,RL1*%
X114028571Y-148302380D02*
X113695238Y-147826190D01*
X113457142Y-148302380D02*
X113457142Y-147302380D01*
X113838095Y-147302380D01*
X113933333Y-147350000D01*
X113980952Y-147397619D01*
X114028571Y-147492857D01*
X114028571Y-147635714D01*
X113980952Y-147730952D01*
X113933333Y-147778571D01*
X113838095Y-147826190D01*
X113457142Y-147826190D01*
X114933333Y-148302380D02*
X114457142Y-148302380D01*
X114457142Y-147302380D01*
X115790476Y-148302380D02*
X115219047Y-148302380D01*
X115504761Y-148302380D02*
X115504761Y-147302380D01*
X115409523Y-147445238D01*
X115314285Y-147540476D01*
X115219047Y-147588095D01*
%TO.C,J3*%
X123852380Y-125333333D02*
X124566666Y-125333333D01*
X124709523Y-125380952D01*
X124804761Y-125476190D01*
X124852380Y-125619047D01*
X124852380Y-125714285D01*
X123852380Y-124952380D02*
X123852380Y-124333333D01*
X124233333Y-124666666D01*
X124233333Y-124523809D01*
X124280952Y-124428571D01*
X124328571Y-124380952D01*
X124423809Y-124333333D01*
X124661904Y-124333333D01*
X124757142Y-124380952D01*
X124804761Y-124428571D01*
X124852380Y-124523809D01*
X124852380Y-124809523D01*
X124804761Y-124904761D01*
X124757142Y-124952380D01*
%TO.C,D1*%
X117661904Y-115752380D02*
X117661904Y-114752380D01*
X117900000Y-114752380D01*
X118042857Y-114800000D01*
X118138095Y-114895238D01*
X118185714Y-114990476D01*
X118233333Y-115180952D01*
X118233333Y-115323809D01*
X118185714Y-115514285D01*
X118138095Y-115609523D01*
X118042857Y-115704761D01*
X117900000Y-115752380D01*
X117661904Y-115752380D01*
X119185714Y-115752380D02*
X118614285Y-115752380D01*
X118900000Y-115752380D02*
X118900000Y-114752380D01*
X118804761Y-114895238D01*
X118709523Y-114990476D01*
X118614285Y-115038095D01*
D12*
%TO.C,J2*%
X104860000Y-137000000D02*
X104860000Y-136500000D01*
X103810000Y-137590000D02*
X103810000Y-138700000D01*
X104860000Y-136500000D02*
X104360000Y-136750000D01*
X104360000Y-136750000D02*
X104860000Y-137000000D01*
X100100000Y-134800000D02*
X100100000Y-135910000D01*
X103810000Y-134800000D02*
X103810000Y-135910000D01*
X100100000Y-137590000D02*
X100100000Y-138700000D01*
%TO.C,R2*%
X103612258Y-123222500D02*
X103137742Y-123222500D01*
X103612258Y-122177500D02*
X103137742Y-122177500D01*
%TO.C,R1*%
X122722500Y-110287258D02*
X122722500Y-109812742D01*
X121677500Y-110287258D02*
X121677500Y-109812742D01*
%TO.C,C2*%
X115090580Y-112490000D02*
X114809420Y-112490000D01*
X115090580Y-113510000D02*
X114809420Y-113510000D01*
%TO.C,R3*%
X124772500Y-109862742D02*
X124772500Y-110337258D01*
X123727500Y-109862742D02*
X123727500Y-110337258D01*
%TO.C,C1*%
X107140000Y-110165580D02*
X107140000Y-109884420D01*
X108160000Y-110165580D02*
X108160000Y-109884420D01*
%TO.C,J1*%
X112240000Y-105860000D02*
X112240000Y-108250000D01*
X109915000Y-105010000D02*
X109915000Y-105860000D01*
X109915000Y-101490000D02*
X109915000Y-100640000D01*
X120085000Y-100640000D02*
X120085000Y-101490000D01*
X120085000Y-105010000D02*
X120085000Y-105860000D01*
X120085000Y-105860000D02*
X117760000Y-105860000D01*
X109915000Y-100640000D02*
X120085000Y-100640000D01*
X109915000Y-105860000D02*
X112240000Y-105860000D01*
%TO.C,J4*%
X129900000Y-139450000D02*
X129900000Y-138340000D01*
X125140000Y-137750000D02*
X125640000Y-137500000D01*
X126190000Y-139450000D02*
X126190000Y-138340000D01*
X129900000Y-136660000D02*
X129900000Y-135550000D01*
X125640000Y-137500000D02*
X125140000Y-137250000D01*
X125140000Y-137250000D02*
X125140000Y-137750000D01*
X126190000Y-136660000D02*
X126190000Y-135550000D01*
%TO.C,D2*%
X104137500Y-119865000D02*
X101852500Y-119865000D01*
X101852500Y-121335000D02*
X104137500Y-121335000D01*
X101852500Y-119865000D02*
X101852500Y-121335000D01*
%TO.C,Q1*%
X123337500Y-116660000D02*
X122687500Y-116660000D01*
X123337500Y-113540000D02*
X121662500Y-113540000D01*
X123337500Y-116660000D02*
X123987500Y-116660000D01*
X123337500Y-113540000D02*
X123987500Y-113540000D01*
%TO.C,RL1*%
X114250000Y-120300000D02*
X114950000Y-119900000D01*
X114950000Y-119500000D02*
X114250000Y-119500000D01*
X120950000Y-117700000D02*
X108250000Y-117700000D01*
X120950000Y-146700000D02*
X120950000Y-117700000D01*
X108250000Y-117700000D02*
X108250000Y-146700000D01*
X108010000Y-117460000D02*
X110200000Y-117460000D01*
X114250000Y-120700000D02*
X114950000Y-120700000D01*
X108010000Y-119800000D02*
X108010000Y-117460000D01*
X114250000Y-119500000D02*
X114250000Y-120700000D01*
X108250000Y-146700000D02*
X120950000Y-146700000D01*
X114950000Y-120700000D02*
X114950000Y-119500000D01*
%TO.C,J3*%
X125140000Y-124750000D02*
X125140000Y-125250000D01*
X129900000Y-126950000D02*
X129900000Y-125840000D01*
X129900000Y-124160000D02*
X129900000Y-123050000D01*
X126190000Y-126950000D02*
X126190000Y-125840000D01*
X125140000Y-125250000D02*
X125640000Y-125000000D01*
X126190000Y-124160000D02*
X126190000Y-123050000D01*
X125640000Y-125000000D02*
X125140000Y-124750000D01*
%TO.C,D1*%
X112700000Y-116250000D02*
X116600000Y-116250000D01*
X112700000Y-114250000D02*
X116600000Y-114250000D01*
X112700000Y-114250000D02*
X112700000Y-116250000D01*
%TD*%
M02*
