M48
; DRILL file {KiCad (6.0.1)} date Fri Feb 11 18:33:46 2022
; FORMAT={-:-/ absolute / metric / decimal}
; #@! TF.CreationDate,2022-02-11T18:33:46+00:00
; #@! TF.GenerationSoftware,Kicad,Pcbnew,(6.0.1)
; #@! TF.FileFunction,MixedPlating,1,2
FMAT,2
METRIC
; #@! TA.AperFunction,Plated,PTH,ViaDrill
T1C0.300
; #@! TA.AperFunction,Plated,PTH,ViaDrill
T2C0.400
; #@! TA.AperFunction,Plated,PTH,ComponentDrill
T3C1.500
; #@! TA.AperFunction,NonPlated,NPTH,ComponentDrill
T4C2.700
%
G90
G05
T1
X100.9Y-141.55
X101.05Y-132.5
X103.2Y-132.5
X103.25Y-141.5
X104.9Y-139.45
X105.05Y-141.25
X105.2Y-132.7
X105.25Y-134.45
X107.15Y-142.25
X107.25Y-135.0
X122.3Y-128.05
X124.8Y-122.05
X124.95Y-128.05
X125.8Y-120.45
X125.8Y-129.6
X125.85Y-133.25
X126.1Y-142.65
X127.432Y-114.046
X127.75Y-120.4
X127.9Y-133.25
X128.0Y-129.6
X129.05Y-142.65
T2
X108.75Y-136.5
X109.2Y-133.2
X109.8Y-110.15
X109.8Y-142.35
X110.4Y-137.5
X111.55Y-130.9
X112.35Y-142.4
X112.45Y-137.55
X113.25Y-135.75
X113.3Y-128.65
X114.95Y-142.25
X115.0Y-109.8
X115.15Y-133.8
X115.25Y-126.65
X115.5Y-137.6
X115.85Y-146.6
X115.9Y-144.15
X116.8Y-125.0
X117.05Y-132.0
X117.35Y-142.5
X117.45Y-137.65
X117.75Y-147.75
X118.3Y-110.7
X118.3Y-123.55
X118.9Y-130.3
X119.05Y-137.6
X119.1Y-142.5
X120.45Y-122.35
X120.45Y-138.45
X120.45Y-141.75
X120.45Y-147.8
X120.5Y-109.9
X120.5Y-140.15
X120.55Y-128.85
X121.5Y-137.45
X122.55Y-146.55
X122.7Y-136.15
X122.8Y-122.1
X123.35Y-135.05
X124.0Y-144.65
X124.85Y-141.8
X124.9Y-140.25
X125.05Y-134.6
T3
X110.85Y-120.1
X110.85Y-135.1
X110.85Y-140.1
X110.85Y-145.1
X118.35Y-120.1
X118.35Y-135.1
X118.35Y-140.1
X118.35Y-145.1
T4
X104.0Y-104.0
X104.0Y-146.0
X126.0Y-104.0
X126.0Y-146.0
T0
M30
