%TF.GenerationSoftware,KiCad,Pcbnew,(6.0.1)*%
%TF.CreationDate,2022-02-11T18:33:40+00:00*%
%TF.ProjectId,Relay_RF_G2RL,52656c61-795f-4524-965f-4732524c2e6b,rev?*%
%TF.SameCoordinates,Original*%
%TF.FileFunction,Copper,L1,Top*%
%TF.FilePolarity,Positive*%
%FSLAX46Y46*%
G04 Gerber Fmt 4.6, Leading zero omitted, Abs format (unit mm)*
G04 Created by KiCad (PCBNEW (6.0.1)) date 2022-02-11 18:33:40*
%MOMM*%
%LPD*%
G01*
G04 APERTURE LIST*
G04 Aperture macros list*
%AMRoundRect*
0 Rectangle with rounded corners*
0 $1 Rounding radius*
0 $2 $3 $4 $5 $6 $7 $8 $9 X,Y pos of 4 corners*
0 Add a 4 corners polygon primitive as box body*
4,1,4,$2,$3,$4,$5,$6,$7,$8,$9,$2,$3,0*
0 Add four circle primitives for the rounded corners*
1,1,$1+$1,$2,$3*
1,1,$1+$1,$4,$5*
1,1,$1+$1,$6,$7*
1,1,$1+$1,$8,$9*
0 Add four rect primitives between the rounded corners*
20,1,$1+$1,$2,$3,$4,$5,0*
20,1,$1+$1,$4,$5,$6,$7,0*
20,1,$1+$1,$6,$7,$8,$9,0*
20,1,$1+$1,$8,$9,$2,$3,0*%
G04 Aperture macros list end*
%TA.AperFunction,SMDPad,CuDef*%
%ADD10R,3.600000X1.270000*%
%TD*%
%TA.AperFunction,SMDPad,CuDef*%
%ADD11R,4.200000X1.350000*%
%TD*%
%TA.AperFunction,SMDPad,CuDef*%
%ADD12RoundRect,0.200000X0.200000X0.275000X-0.200000X0.275000X-0.200000X-0.275000X0.200000X-0.275000X0*%
%TD*%
%TA.AperFunction,SMDPad,CuDef*%
%ADD13RoundRect,0.200000X0.275000X-0.200000X0.275000X0.200000X-0.275000X0.200000X-0.275000X-0.200000X0*%
%TD*%
%TA.AperFunction,SMDPad,CuDef*%
%ADD14RoundRect,0.225000X0.225000X0.250000X-0.225000X0.250000X-0.225000X-0.250000X0.225000X-0.250000X0*%
%TD*%
%TA.AperFunction,SMDPad,CuDef*%
%ADD15RoundRect,0.200000X-0.275000X0.200000X-0.275000X-0.200000X0.275000X-0.200000X0.275000X0.200000X0*%
%TD*%
%TA.AperFunction,SMDPad,CuDef*%
%ADD16RoundRect,0.225000X0.250000X-0.225000X0.250000X0.225000X-0.250000X0.225000X-0.250000X-0.225000X0*%
%TD*%
%TA.AperFunction,SMDPad,CuDef*%
%ADD17RoundRect,0.250000X-0.250000X-2.500000X0.250000X-2.500000X0.250000X2.500000X-0.250000X2.500000X0*%
%TD*%
%TA.AperFunction,SMDPad,CuDef*%
%ADD18RoundRect,0.250000X-0.550000X-1.250000X0.550000X-1.250000X0.550000X1.250000X-0.550000X1.250000X0*%
%TD*%
%TA.AperFunction,SMDPad,CuDef*%
%ADD19RoundRect,0.218750X-0.218750X-0.256250X0.218750X-0.256250X0.218750X0.256250X-0.218750X0.256250X0*%
%TD*%
%TA.AperFunction,SMDPad,CuDef*%
%ADD20RoundRect,0.150000X-0.587500X-0.150000X0.587500X-0.150000X0.587500X0.150000X-0.587500X0.150000X0*%
%TD*%
%TA.AperFunction,ComponentPad*%
%ADD21R,2.500000X2.500000*%
%TD*%
%TA.AperFunction,ComponentPad*%
%ADD22O,2.500000X2.500000*%
%TD*%
%TA.AperFunction,SMDPad,CuDef*%
%ADD23R,0.900000X1.200000*%
%TD*%
%TA.AperFunction,ViaPad*%
%ADD24C,0.800000*%
%TD*%
%TA.AperFunction,Conductor*%
%ADD25C,0.500000*%
%TD*%
%TA.AperFunction,Conductor*%
%ADD26C,1.000000*%
%TD*%
%TA.AperFunction,Conductor*%
%ADD27C,2.000000*%
%TD*%
%TA.AperFunction,Conductor*%
%ADD28C,0.293000*%
%TD*%
G04 APERTURE END LIST*
D10*
%TO.P,J2,1,In*%
%TO.N,Net-(J2-Pad1)*%
X101900000Y-136750000D03*
D11*
%TO.P,J2,2,Ext*%
%TO.N,GND*%
X102100000Y-139575000D03*
X102100000Y-133925000D03*
%TD*%
D12*
%TO.P,R2,1*%
%TO.N,Net-(C2-Pad1)*%
X104200000Y-122700000D03*
%TO.P,R2,2*%
%TO.N,Net-(D2-Pad1)*%
X102550000Y-122700000D03*
%TD*%
D13*
%TO.P,R1,1*%
%TO.N,Net-(J1-Pad2)*%
X122200000Y-110875000D03*
%TO.P,R1,2*%
%TO.N,GND*%
X122200000Y-109225000D03*
%TD*%
D14*
%TO.P,C2,1*%
%TO.N,Net-(C2-Pad1)*%
X115725000Y-113000000D03*
%TO.P,C2,2*%
%TO.N,Net-(C1-Pad1)*%
X114175000Y-113000000D03*
%TD*%
D15*
%TO.P,R3,1*%
%TO.N,Net-(J1-Pad2)*%
X124250000Y-109275000D03*
%TO.P,R3,2*%
%TO.N,Net-(Q1-Pad1)*%
X124250000Y-110925000D03*
%TD*%
D16*
%TO.P,C1,1*%
%TO.N,Net-(C1-Pad1)*%
X107650000Y-110800000D03*
%TO.P,C1,2*%
%TO.N,GND*%
X107650000Y-109250000D03*
%TD*%
D17*
%TO.P,J1,1,Pin_1*%
%TO.N,Net-(C1-Pad1)*%
X113000000Y-105500000D03*
%TO.P,J1,2,Pin_2*%
%TO.N,Net-(J1-Pad2)*%
X115000000Y-105500000D03*
%TO.P,J1,3,Pin_3*%
%TO.N,GND*%
X117000000Y-105500000D03*
D18*
%TO.P,J1,MP*%
%TO.N,N/C*%
X119400000Y-103250000D03*
X110600000Y-103250000D03*
%TD*%
D10*
%TO.P,J4,1,In*%
%TO.N,Net-(J4-Pad1)*%
X128100000Y-137500000D03*
D11*
%TO.P,J4,2,Ext*%
%TO.N,GND*%
X127900000Y-134675000D03*
X127900000Y-140325000D03*
%TD*%
D19*
%TO.P,D2,1,K*%
%TO.N,Net-(D2-Pad1)*%
X102550000Y-120600000D03*
%TO.P,D2,2,A*%
%TO.N,Net-(C1-Pad1)*%
X104125000Y-120600000D03*
%TD*%
D20*
%TO.P,Q1,1,B*%
%TO.N,Net-(Q1-Pad1)*%
X122400000Y-114150000D03*
%TO.P,Q1,2,E*%
%TO.N,GND*%
X122400000Y-116050000D03*
%TO.P,Q1,3,C*%
%TO.N,Net-(C2-Pad1)*%
X124275000Y-115100000D03*
%TD*%
D21*
%TO.P,RL1,1*%
%TO.N,Net-(C1-Pad1)*%
X110850000Y-120100000D03*
D22*
%TO.P,RL1,2*%
%TO.N,Net-(J3-Pad1)*%
X110850000Y-135100000D03*
%TO.P,RL1,3*%
%TO.N,Net-(J2-Pad1)*%
X110850000Y-140100000D03*
%TO.P,RL1,4*%
%TO.N,unconnected-(RL1-Pad4)*%
X110850000Y-145100000D03*
%TO.P,RL1,5*%
%TO.N,Net-(J4-Pad1)*%
X118350000Y-145100000D03*
%TO.P,RL1,6*%
%TO.N,Net-(J2-Pad1)*%
X118350000Y-140100000D03*
%TO.P,RL1,7*%
%TO.N,unconnected-(RL1-Pad7)*%
X118350000Y-135100000D03*
%TO.P,RL1,8*%
%TO.N,Net-(C2-Pad1)*%
X118350000Y-120100000D03*
%TD*%
D10*
%TO.P,J3,1,In*%
%TO.N,Net-(J3-Pad1)*%
X128100000Y-125000000D03*
D11*
%TO.P,J3,2,Ext*%
%TO.N,GND*%
X127900000Y-122175000D03*
X127900000Y-127825000D03*
%TD*%
D23*
%TO.P,D1,1,K*%
%TO.N,Net-(C1-Pad1)*%
X113300000Y-115250000D03*
%TO.P,D1,2,A*%
%TO.N,Net-(C2-Pad1)*%
X116600000Y-115250000D03*
%TD*%
D24*
%TO.N,GND*%
X121500000Y-137450000D03*
X127750000Y-120400000D03*
X100900000Y-141550000D03*
X120550000Y-128850000D03*
X115150000Y-133800000D03*
X105050000Y-141250000D03*
X120450000Y-122350000D03*
X129050000Y-142650000D03*
X103200000Y-132500000D03*
X110400000Y-137500000D03*
X127900000Y-133250000D03*
X120450000Y-147800000D03*
X124850000Y-141800000D03*
X118300000Y-123550000D03*
X117050000Y-132000000D03*
X105250000Y-134450000D03*
X105200000Y-132700000D03*
X116800000Y-125000000D03*
X124950000Y-128050000D03*
X125800000Y-129600000D03*
X112350000Y-142400000D03*
X120500000Y-140150000D03*
X111550000Y-130900000D03*
X123350000Y-135050000D03*
X115850000Y-146600000D03*
X125850000Y-133250000D03*
X113250000Y-135750000D03*
X109800000Y-142350000D03*
X120450000Y-141750000D03*
X122700000Y-136150000D03*
X117450000Y-137650000D03*
X103250000Y-141500000D03*
X112450000Y-137550000D03*
X120450000Y-138450000D03*
X124800000Y-122050000D03*
X107250000Y-135000000D03*
X127431800Y-114046000D03*
X126100000Y-142650000D03*
X128000000Y-129600000D03*
X124900000Y-140250000D03*
X125800000Y-120450000D03*
X122800000Y-122100000D03*
X109200000Y-133200000D03*
X115250000Y-126650000D03*
X118900000Y-130300000D03*
X119050000Y-137600000D03*
X117750000Y-147750000D03*
X117350000Y-142500000D03*
X101050000Y-132500000D03*
X122550000Y-146550000D03*
X114950000Y-142250000D03*
X109800000Y-110150000D03*
X108750000Y-136500000D03*
X113300000Y-128650000D03*
X107150000Y-142250000D03*
X119100000Y-142500000D03*
X118300000Y-110700000D03*
X115900000Y-144150000D03*
X115500000Y-137600000D03*
X125050000Y-134600000D03*
X124000000Y-144650000D03*
X104900000Y-139450000D03*
X122300000Y-128050000D03*
%TO.N,Net-(J1-Pad2)*%
X120500000Y-109900000D03*
X115000000Y-109800000D03*
%TD*%
D25*
%TO.N,GND*%
X107650000Y-109250000D02*
X108900000Y-109250000D01*
X108900000Y-109250000D02*
X109800000Y-110150000D01*
D26*
X117000000Y-105500000D02*
X117000000Y-109300000D01*
X117000000Y-109400000D02*
X118300000Y-110700000D01*
X117000000Y-109300000D02*
X117000000Y-109400000D01*
D25*
%TO.N,Net-(J1-Pad2)*%
X121225000Y-109900000D02*
X122200000Y-110875000D01*
X122200000Y-110875000D02*
X122650000Y-110875000D01*
X122650000Y-110875000D02*
X124250000Y-109275000D01*
X120500000Y-109900000D02*
X121225000Y-109900000D01*
X115000000Y-105500000D02*
X115000000Y-109800000D01*
D27*
%TO.N,Net-(J2-Pad1)*%
X110242641Y-140100000D02*
X110850000Y-140100000D01*
X106528680Y-137628680D02*
X108121321Y-139221321D01*
X101900000Y-136750000D02*
X104407359Y-136750000D01*
X110850000Y-140100000D02*
X118350000Y-140100000D01*
X110242641Y-140100000D02*
G75*
G02*
X108121321Y-139221321I-1J2999998D01*
G01*
X104407359Y-136750001D02*
G75*
G02*
X106528679Y-137628681I3J-2999993D01*
G01*
%TO.N,Net-(J3-Pad1)*%
X118150000Y-127800000D02*
X118150000Y-127750000D01*
X118150000Y-127750000D02*
X120021321Y-125878679D01*
X110850000Y-135100000D02*
X118150000Y-127800000D01*
X122142641Y-125000000D02*
X128100000Y-125000000D01*
X122142641Y-125000000D02*
G75*
G03*
X120021321Y-125878679I-1J-2999998D01*
G01*
%TO.N,Net-(J4-Pad1)*%
X125943619Y-137500000D02*
X128100000Y-137500000D01*
X118350000Y-145100000D02*
X120400000Y-145100000D01*
X122600000Y-141657359D02*
X122600000Y-140843619D01*
X123478680Y-138722298D02*
X123822299Y-138378679D01*
X120400000Y-145100000D02*
X121721321Y-143778679D01*
X123478680Y-138722298D02*
G75*
G03*
X122600000Y-140843619I2121325J-2121323D01*
G01*
X121721321Y-143778679D02*
G75*
G03*
X122600000Y-141657359I-2121319J2121319D01*
G01*
X123822299Y-138378679D02*
G75*
G02*
X125943619Y-137500000I2121319J-2121319D01*
G01*
D28*
%TO.N,Net-(D2-Pad1)*%
X102550000Y-120600000D02*
X102550000Y-122700000D01*
%TO.N,Net-(Q1-Pad1)*%
X122400000Y-114150000D02*
X124250000Y-112300000D01*
X124250000Y-112300000D02*
X124250000Y-110925000D01*
D25*
%TO.N,Net-(C1-Pad1)*%
X104625000Y-120100000D02*
X110850000Y-120100000D01*
X107650000Y-110800000D02*
X110250000Y-113400000D01*
D26*
X113000000Y-105500000D02*
X113000000Y-111250000D01*
X113300000Y-115450000D02*
X113300000Y-117650000D01*
D25*
X110250000Y-113400000D02*
X110850000Y-113400000D01*
D26*
X113300000Y-117650000D02*
X110850000Y-120100000D01*
X113000000Y-111250000D02*
X110850000Y-113400000D01*
X110850000Y-113400000D02*
X110850000Y-120100000D01*
D25*
X114175000Y-114575000D02*
X113300000Y-115450000D01*
X114175000Y-113000000D02*
X114175000Y-114575000D01*
X104125000Y-120600000D02*
X104625000Y-120100000D01*
%TO.N,Net-(C2-Pad1)*%
X104200000Y-122700000D02*
X115750000Y-122700000D01*
X115725000Y-114575000D02*
X116600000Y-115450000D01*
D26*
X122900000Y-120100000D02*
X124275000Y-118725000D01*
X118350000Y-120100000D02*
X122900000Y-120100000D01*
X116600000Y-115450000D02*
X116600000Y-118350000D01*
D25*
X115750000Y-122700000D02*
X118350000Y-120100000D01*
X115725000Y-113000000D02*
X115725000Y-114575000D01*
D26*
X116600000Y-118350000D02*
X118350000Y-120100000D01*
X124275000Y-118725000D02*
X124275000Y-115100000D01*
%TD*%
%TA.AperFunction,Conductor*%
%TO.N,GND*%
G36*
X129442121Y-100520002D02*
G01*
X129488614Y-100573658D01*
X129500000Y-100626000D01*
X129500000Y-123738500D01*
X129479998Y-123806621D01*
X129426342Y-123853114D01*
X129374000Y-123864500D01*
X129134210Y-123864500D01*
X129066089Y-123844498D01*
X129054918Y-123836422D01*
X129051269Y-123833467D01*
X129047532Y-123829896D01*
X128843700Y-123690851D01*
X128678552Y-123614192D01*
X128624591Y-123589144D01*
X128624587Y-123589143D01*
X128619896Y-123586965D01*
X128382129Y-123521026D01*
X128376992Y-123520477D01*
X128184043Y-123499856D01*
X128184035Y-123499856D01*
X128180708Y-123499500D01*
X122249858Y-123499500D01*
X122233412Y-123498422D01*
X122219514Y-123496592D01*
X122219508Y-123496592D01*
X122216192Y-123496155D01*
X122212840Y-123496073D01*
X122212839Y-123496073D01*
X122146007Y-123494439D01*
X122146002Y-123494439D01*
X122142642Y-123494357D01*
X122139284Y-123494633D01*
X122139285Y-123494633D01*
X122122884Y-123495981D01*
X122118058Y-123496285D01*
X121752783Y-123512233D01*
X121752772Y-123512234D01*
X121750023Y-123512354D01*
X121508664Y-123544130D01*
X121363118Y-123563291D01*
X121363113Y-123563292D01*
X121360393Y-123563650D01*
X120976717Y-123648709D01*
X120974092Y-123649537D01*
X120974087Y-123649538D01*
X120604541Y-123766055D01*
X120604533Y-123766058D01*
X120601913Y-123766884D01*
X120238836Y-123917275D01*
X119890247Y-124098739D01*
X119558801Y-124309893D01*
X119556633Y-124311557D01*
X119556621Y-124311565D01*
X119249212Y-124547450D01*
X119247020Y-124549132D01*
X119244992Y-124550990D01*
X119244984Y-124550997D01*
X119034641Y-124743741D01*
X119026219Y-124750808D01*
X119012612Y-124761248D01*
X119012596Y-124761262D01*
X119009950Y-124763292D01*
X118956671Y-124814029D01*
X118919409Y-124857967D01*
X118912418Y-124865555D01*
X117170826Y-126607147D01*
X117157384Y-126618812D01*
X117154507Y-126620972D01*
X117154504Y-126620974D01*
X117150364Y-126624083D01*
X117146788Y-126627825D01*
X117146787Y-126627826D01*
X117075412Y-126702516D01*
X117073413Y-126704560D01*
X117044754Y-126733219D01*
X117043094Y-126735177D01*
X117043087Y-126735184D01*
X117036782Y-126742619D01*
X117031781Y-126748173D01*
X116979896Y-126802468D01*
X116976982Y-126806740D01*
X116958410Y-126833965D01*
X116950420Y-126844454D01*
X116925761Y-126873531D01*
X116923108Y-126877964D01*
X116891010Y-126931595D01*
X116871989Y-126955983D01*
X110451397Y-133376576D01*
X110397560Y-133408447D01*
X110337572Y-133425932D01*
X110235243Y-133455758D01*
X110230990Y-133457718D01*
X110230989Y-133457719D01*
X110194634Y-133474479D01*
X109998961Y-133564686D01*
X109995056Y-133567246D01*
X109995051Y-133567249D01*
X109785288Y-133704775D01*
X109785283Y-133704779D01*
X109781375Y-133707341D01*
X109587265Y-133880591D01*
X109420895Y-134080629D01*
X109285920Y-134303061D01*
X109284111Y-134307375D01*
X109284110Y-134307377D01*
X109270338Y-134340221D01*
X109185305Y-134543001D01*
X109121261Y-134795177D01*
X109095194Y-135054049D01*
X109107677Y-135313930D01*
X109158435Y-135569112D01*
X109246355Y-135813989D01*
X109369504Y-136043180D01*
X109372299Y-136046923D01*
X109372301Y-136046926D01*
X109522385Y-136247913D01*
X109522390Y-136247919D01*
X109525177Y-136251651D01*
X109528486Y-136254931D01*
X109528491Y-136254937D01*
X109691190Y-136416222D01*
X109709954Y-136434823D01*
X109713716Y-136437581D01*
X109713719Y-136437584D01*
X109826332Y-136520155D01*
X109919775Y-136588670D01*
X109923910Y-136590846D01*
X109923914Y-136590848D01*
X110049774Y-136657066D01*
X110150033Y-136709815D01*
X110395667Y-136795594D01*
X110400260Y-136796466D01*
X110646693Y-136843253D01*
X110646696Y-136843253D01*
X110651282Y-136844124D01*
X110781272Y-136849231D01*
X110906595Y-136854156D01*
X110906601Y-136854156D01*
X110911263Y-136854339D01*
X111012489Y-136843253D01*
X111165245Y-136826524D01*
X111165250Y-136826523D01*
X111169898Y-136826014D01*
X111224779Y-136811565D01*
X111416982Y-136760962D01*
X111416984Y-136760961D01*
X111421505Y-136759771D01*
X111660557Y-136657066D01*
X111881803Y-136520155D01*
X112080382Y-136352046D01*
X112251931Y-136156431D01*
X112297504Y-136085581D01*
X112390155Y-135941538D01*
X112392683Y-135937608D01*
X112499544Y-135700385D01*
X112500814Y-135695882D01*
X112540862Y-135553885D01*
X112573036Y-135498992D01*
X113017979Y-135054049D01*
X116595194Y-135054049D01*
X116607677Y-135313930D01*
X116658435Y-135569112D01*
X116746355Y-135813989D01*
X116869504Y-136043180D01*
X116872299Y-136046923D01*
X116872301Y-136046926D01*
X117022385Y-136247913D01*
X117022390Y-136247919D01*
X117025177Y-136251651D01*
X117028486Y-136254931D01*
X117028491Y-136254937D01*
X117191190Y-136416222D01*
X117209954Y-136434823D01*
X117213716Y-136437581D01*
X117213719Y-136437584D01*
X117326332Y-136520155D01*
X117419775Y-136588670D01*
X117423910Y-136590846D01*
X117423914Y-136590848D01*
X117549774Y-136657066D01*
X117650033Y-136709815D01*
X117895667Y-136795594D01*
X117900260Y-136796466D01*
X118146693Y-136843253D01*
X118146696Y-136843253D01*
X118151282Y-136844124D01*
X118281272Y-136849231D01*
X118406595Y-136854156D01*
X118406601Y-136854156D01*
X118411263Y-136854339D01*
X118512489Y-136843253D01*
X118665245Y-136826524D01*
X118665250Y-136826523D01*
X118669898Y-136826014D01*
X118724779Y-136811565D01*
X118916982Y-136760962D01*
X118916984Y-136760961D01*
X118921505Y-136759771D01*
X119160557Y-136657066D01*
X119381803Y-136520155D01*
X119580382Y-136352046D01*
X119751931Y-136156431D01*
X119797504Y-136085581D01*
X119890155Y-135941538D01*
X119892683Y-135937608D01*
X119999544Y-135700385D01*
X120033018Y-135581695D01*
X120068898Y-135454476D01*
X120068899Y-135454473D01*
X120070168Y-135449972D01*
X120087434Y-135314246D01*
X120102604Y-135195001D01*
X120102604Y-135194997D01*
X120103002Y-135191871D01*
X120105408Y-135100000D01*
X120086126Y-134840534D01*
X120028705Y-134586768D01*
X120027012Y-134582414D01*
X119936098Y-134348630D01*
X119936097Y-134348628D01*
X119934405Y-134344277D01*
X119805299Y-134118388D01*
X119644223Y-133914064D01*
X119454714Y-133735792D01*
X119240937Y-133587489D01*
X119236747Y-133585423D01*
X119236744Y-133585421D01*
X119011775Y-133474479D01*
X119011772Y-133474478D01*
X119007587Y-133472414D01*
X118759792Y-133393094D01*
X118619569Y-133370257D01*
X118507606Y-133352023D01*
X118507605Y-133352023D01*
X118502994Y-133351272D01*
X118372915Y-133349569D01*
X118247512Y-133347927D01*
X118247509Y-133347927D01*
X118242835Y-133347866D01*
X117985030Y-133382952D01*
X117980544Y-133384260D01*
X117980542Y-133384260D01*
X117913893Y-133403686D01*
X117735243Y-133455758D01*
X117730990Y-133457718D01*
X117730989Y-133457719D01*
X117694634Y-133474479D01*
X117498961Y-133564686D01*
X117495056Y-133567246D01*
X117495051Y-133567249D01*
X117285288Y-133704775D01*
X117285283Y-133704779D01*
X117281375Y-133707341D01*
X117087265Y-133880591D01*
X116920895Y-134080629D01*
X116785920Y-134303061D01*
X116784111Y-134307375D01*
X116784110Y-134307377D01*
X116770338Y-134340221D01*
X116685305Y-134543001D01*
X116621261Y-134795177D01*
X116595194Y-135054049D01*
X113017979Y-135054049D01*
X119129174Y-128942853D01*
X119142616Y-128931188D01*
X119145493Y-128929028D01*
X119145496Y-128929026D01*
X119149636Y-128925917D01*
X119224588Y-128847484D01*
X119226587Y-128845440D01*
X119255246Y-128816781D01*
X119256906Y-128814823D01*
X119256913Y-128814816D01*
X119263218Y-128807381D01*
X119268219Y-128801827D01*
X119316531Y-128751271D01*
X119320104Y-128747532D01*
X119341591Y-128716034D01*
X119349581Y-128705545D01*
X119374239Y-128676469D01*
X119408990Y-128618405D01*
X119428011Y-128594017D01*
X121020510Y-127001517D01*
X121030482Y-126992553D01*
X121055616Y-126972273D01*
X121055619Y-126972270D01*
X121059642Y-126969024D01*
X121092903Y-126931692D01*
X121103903Y-126920778D01*
X121223594Y-126815812D01*
X121236669Y-126805779D01*
X121386022Y-126705985D01*
X121400295Y-126697744D01*
X121561404Y-126618293D01*
X121576632Y-126611986D01*
X121746719Y-126554250D01*
X121762638Y-126549984D01*
X121938820Y-126514939D01*
X121955161Y-126512788D01*
X122017265Y-126508717D01*
X122081779Y-126504489D01*
X122095535Y-126504772D01*
X122095541Y-126504519D01*
X122100722Y-126504646D01*
X122105854Y-126505194D01*
X122111006Y-126504897D01*
X122111010Y-126504897D01*
X122183634Y-126500709D01*
X122190887Y-126500500D01*
X128162554Y-126500500D01*
X128165127Y-126500288D01*
X128165138Y-126500288D01*
X128340760Y-126485849D01*
X128340766Y-126485848D01*
X128345911Y-126485425D01*
X128585217Y-126425316D01*
X128811493Y-126326928D01*
X128912631Y-126261499D01*
X129014318Y-126195715D01*
X129014321Y-126195713D01*
X129018661Y-126192905D01*
X129045696Y-126168305D01*
X129109541Y-126137253D01*
X129130495Y-126135499D01*
X129374000Y-126135499D01*
X129442121Y-126155501D01*
X129488614Y-126209157D01*
X129500000Y-126261499D01*
X129500000Y-136238500D01*
X129479998Y-136306621D01*
X129426342Y-136353114D01*
X129374000Y-136364500D01*
X129134210Y-136364500D01*
X129066089Y-136344498D01*
X129054918Y-136336422D01*
X129051269Y-136333467D01*
X129047532Y-136329896D01*
X128843700Y-136190851D01*
X128731798Y-136138908D01*
X128624591Y-136089144D01*
X128624587Y-136089143D01*
X128619896Y-136086965D01*
X128382129Y-136021026D01*
X128376992Y-136020477D01*
X128184043Y-135999856D01*
X128184035Y-135999856D01*
X128180708Y-135999500D01*
X126050836Y-135999500D01*
X126034390Y-135998422D01*
X126020492Y-135996592D01*
X126020486Y-135996592D01*
X126017170Y-135996155D01*
X126013818Y-135996073D01*
X126013817Y-135996073D01*
X125946985Y-135994439D01*
X125946980Y-135994439D01*
X125943620Y-135994357D01*
X125940262Y-135994633D01*
X125940263Y-135994633D01*
X125923862Y-135995981D01*
X125919036Y-135996285D01*
X125553761Y-136012233D01*
X125553750Y-136012234D01*
X125551001Y-136012354D01*
X125316855Y-136043180D01*
X125164096Y-136063291D01*
X125164091Y-136063292D01*
X125161371Y-136063650D01*
X124777695Y-136148709D01*
X124775070Y-136149537D01*
X124775065Y-136149538D01*
X124405519Y-136266055D01*
X124405511Y-136266058D01*
X124402891Y-136266884D01*
X124039814Y-136417275D01*
X123691225Y-136598739D01*
X123359779Y-136809893D01*
X123357611Y-136811557D01*
X123357599Y-136811565D01*
X123050190Y-137047450D01*
X123047998Y-137049132D01*
X123045970Y-137050990D01*
X123045962Y-137050997D01*
X122835619Y-137243741D01*
X122827197Y-137250808D01*
X122813590Y-137261248D01*
X122813574Y-137261262D01*
X122810928Y-137263292D01*
X122757649Y-137314029D01*
X122720387Y-137357967D01*
X122713396Y-137365555D01*
X122493486Y-137585465D01*
X122481094Y-137596333D01*
X122469979Y-137604862D01*
X122469974Y-137604867D01*
X122467308Y-137606912D01*
X122464878Y-137609226D01*
X122464871Y-137609232D01*
X122416460Y-137655333D01*
X122414029Y-137657648D01*
X122411858Y-137660208D01*
X122401184Y-137672793D01*
X122397987Y-137676419D01*
X122180671Y-137913578D01*
X122149132Y-137947997D01*
X122147473Y-137950159D01*
X122147468Y-137950165D01*
X122066082Y-138056230D01*
X121909894Y-138259779D01*
X121698740Y-138591225D01*
X121663341Y-138659226D01*
X121524823Y-138925316D01*
X121517276Y-138939813D01*
X121366885Y-139302890D01*
X121366059Y-139305510D01*
X121366056Y-139305518D01*
X121307084Y-139492552D01*
X121248709Y-139677694D01*
X121163650Y-140061370D01*
X121112354Y-140451000D01*
X121104111Y-140639798D01*
X121099789Y-140738791D01*
X121098831Y-140749742D01*
X121096155Y-140770068D01*
X121094357Y-140843618D01*
X121094633Y-140846973D01*
X121099076Y-140901016D01*
X121099500Y-140911340D01*
X121099500Y-141569934D01*
X121098787Y-141583324D01*
X121095403Y-141614992D01*
X121094806Y-141620574D01*
X121095103Y-141625727D01*
X121095103Y-141625731D01*
X121097684Y-141670497D01*
X121097623Y-141685989D01*
X121087212Y-141844838D01*
X121085061Y-141861180D01*
X121050016Y-142037362D01*
X121045750Y-142053281D01*
X120988014Y-142223368D01*
X120981707Y-142238596D01*
X120902256Y-142399705D01*
X120894015Y-142413978D01*
X120794224Y-142563326D01*
X120784191Y-142576401D01*
X120700520Y-142671810D01*
X120690592Y-142681339D01*
X120690767Y-142681522D01*
X120687018Y-142685092D01*
X120683000Y-142688334D01*
X120679568Y-142692187D01*
X120679566Y-142692188D01*
X120631170Y-142746507D01*
X120626189Y-142751783D01*
X119815378Y-143562595D01*
X119753065Y-143596620D01*
X119726282Y-143599500D01*
X119294672Y-143599500D01*
X119238944Y-143586506D01*
X119011775Y-143474479D01*
X119011772Y-143474478D01*
X119007587Y-143472414D01*
X118759792Y-143393094D01*
X118619569Y-143370257D01*
X118507606Y-143352023D01*
X118507605Y-143352023D01*
X118502994Y-143351272D01*
X118372914Y-143349569D01*
X118247512Y-143347927D01*
X118247509Y-143347927D01*
X118242835Y-143347866D01*
X117985030Y-143382952D01*
X117735243Y-143455758D01*
X117730990Y-143457718D01*
X117730989Y-143457719D01*
X117694634Y-143474479D01*
X117498961Y-143564686D01*
X117495056Y-143567246D01*
X117495051Y-143567249D01*
X117285288Y-143704775D01*
X117285283Y-143704779D01*
X117281375Y-143707341D01*
X117087265Y-143880591D01*
X116920895Y-144080629D01*
X116785920Y-144303061D01*
X116784111Y-144307375D01*
X116784110Y-144307377D01*
X116770338Y-144340221D01*
X116685305Y-144543001D01*
X116684154Y-144547533D01*
X116684153Y-144547536D01*
X116682001Y-144556009D01*
X116621261Y-144795177D01*
X116595194Y-145054049D01*
X116607677Y-145313930D01*
X116658435Y-145569112D01*
X116746355Y-145813989D01*
X116869504Y-146043180D01*
X116872299Y-146046923D01*
X116872301Y-146046926D01*
X117022385Y-146247913D01*
X117022390Y-146247919D01*
X117025177Y-146251651D01*
X117028486Y-146254931D01*
X117028491Y-146254937D01*
X117160850Y-146386146D01*
X117209954Y-146434823D01*
X117213716Y-146437581D01*
X117213719Y-146437584D01*
X117388654Y-146565851D01*
X117419775Y-146588670D01*
X117423910Y-146590846D01*
X117423914Y-146590848D01*
X117545106Y-146654610D01*
X117650033Y-146709815D01*
X117895667Y-146795594D01*
X117900260Y-146796466D01*
X118146693Y-146843253D01*
X118146696Y-146843253D01*
X118151282Y-146844124D01*
X118281272Y-146849231D01*
X118406595Y-146854156D01*
X118406601Y-146854156D01*
X118411263Y-146854339D01*
X118512489Y-146843253D01*
X118665245Y-146826524D01*
X118665250Y-146826523D01*
X118669898Y-146826014D01*
X118674422Y-146824823D01*
X118916982Y-146760962D01*
X118916984Y-146760961D01*
X118921505Y-146759771D01*
X118960941Y-146742828D01*
X119156263Y-146658911D01*
X119156265Y-146658910D01*
X119160557Y-146657066D01*
X119221499Y-146619354D01*
X119287799Y-146600500D01*
X120284268Y-146600500D01*
X120302021Y-146601757D01*
X120305588Y-146602265D01*
X120305593Y-146602265D01*
X120310706Y-146602993D01*
X120315868Y-146602876D01*
X120315871Y-146602876D01*
X120419150Y-146600532D01*
X120422009Y-146600500D01*
X120462554Y-146600500D01*
X120465109Y-146600290D01*
X120465133Y-146600289D01*
X120474839Y-146599491D01*
X120482298Y-146599099D01*
X120557382Y-146597395D01*
X120562454Y-146596437D01*
X120562460Y-146596436D01*
X120594847Y-146590316D01*
X120607916Y-146588549D01*
X120640759Y-146585849D01*
X120640764Y-146585848D01*
X120645911Y-146585425D01*
X120679273Y-146577045D01*
X120718746Y-146567131D01*
X120726045Y-146565526D01*
X120794753Y-146552543D01*
X120794754Y-146552543D01*
X120799833Y-146551583D01*
X120804684Y-146549808D01*
X120804687Y-146549807D01*
X120822414Y-146543320D01*
X120835637Y-146538481D01*
X120848236Y-146534605D01*
X120859657Y-146531736D01*
X120880206Y-146526575D01*
X120880210Y-146526574D01*
X120885217Y-146525316D01*
X120920267Y-146510076D01*
X120954087Y-146495371D01*
X120961027Y-146492595D01*
X121031545Y-146466789D01*
X121064723Y-146448017D01*
X121076528Y-146442131D01*
X121076998Y-146441927D01*
X121111493Y-146426928D01*
X121115828Y-146424124D01*
X121115831Y-146424122D01*
X121139841Y-146408589D01*
X121174545Y-146386138D01*
X121180927Y-146382273D01*
X121241795Y-146347836D01*
X121241803Y-146347831D01*
X121246297Y-146345288D01*
X121250319Y-146342043D01*
X121250326Y-146342038D01*
X121275977Y-146321341D01*
X121286651Y-146313614D01*
X121318661Y-146292905D01*
X121374203Y-146242365D01*
X121379871Y-146237508D01*
X121401326Y-146220197D01*
X121401334Y-146220190D01*
X121403945Y-146218083D01*
X121432702Y-146189326D01*
X121436998Y-146185227D01*
X121438151Y-146184178D01*
X121501158Y-146126846D01*
X121504357Y-146122795D01*
X121504361Y-146122791D01*
X121519038Y-146104206D01*
X121528825Y-146093203D01*
X121579933Y-146042095D01*
X124145028Y-146042095D01*
X124170534Y-146309431D01*
X124171619Y-146313865D01*
X124171620Y-146313871D01*
X124222856Y-146523256D01*
X124234364Y-146570285D01*
X124236076Y-146574511D01*
X124236077Y-146574515D01*
X124302506Y-146738519D01*
X124335182Y-146819192D01*
X124470875Y-147050938D01*
X124473728Y-147054505D01*
X124585225Y-147193925D01*
X124638601Y-147260669D01*
X124834846Y-147443991D01*
X124927039Y-147507948D01*
X125051746Y-147594461D01*
X125051751Y-147594464D01*
X125055499Y-147597064D01*
X125059584Y-147599096D01*
X125059587Y-147599098D01*
X125175719Y-147656872D01*
X125295938Y-147716680D01*
X125300272Y-147718101D01*
X125300275Y-147718102D01*
X125546793Y-147798915D01*
X125546798Y-147798916D01*
X125551126Y-147800335D01*
X125555617Y-147801115D01*
X125555618Y-147801115D01*
X125811936Y-147845620D01*
X125811944Y-147845621D01*
X125815717Y-147846276D01*
X125819554Y-147846467D01*
X125898996Y-147850422D01*
X125899004Y-147850422D01*
X125900567Y-147850500D01*
X126068223Y-147850500D01*
X126070491Y-147850335D01*
X126070503Y-147850335D01*
X126200823Y-147840879D01*
X126267846Y-147836016D01*
X126272301Y-147835032D01*
X126272304Y-147835032D01*
X126525620Y-147779105D01*
X126525624Y-147779104D01*
X126530080Y-147778120D01*
X126697617Y-147714646D01*
X126776941Y-147684593D01*
X126776944Y-147684592D01*
X126781211Y-147682975D01*
X127015976Y-147552574D01*
X127158254Y-147443991D01*
X127225833Y-147392417D01*
X127225837Y-147392413D01*
X127229458Y-147389650D01*
X127417185Y-147197614D01*
X127575225Y-146980491D01*
X127634659Y-146867525D01*
X127698140Y-146746868D01*
X127698143Y-146746862D01*
X127700265Y-146742828D01*
X127711379Y-146711358D01*
X127788165Y-146493916D01*
X127788165Y-146493915D01*
X127789688Y-146489603D01*
X127818773Y-146342038D01*
X127840739Y-146230594D01*
X127840740Y-146230588D01*
X127841620Y-146226122D01*
X127843656Y-146185227D01*
X127854745Y-145962474D01*
X127854745Y-145962468D01*
X127854972Y-145957905D01*
X127829466Y-145690569D01*
X127800822Y-145573507D01*
X127766721Y-145434149D01*
X127765636Y-145429715D01*
X127720597Y-145318518D01*
X127666531Y-145185037D01*
X127666531Y-145185036D01*
X127664818Y-145180808D01*
X127529125Y-144949062D01*
X127418211Y-144810371D01*
X127364251Y-144742897D01*
X127364250Y-144742895D01*
X127361399Y-144739331D01*
X127165154Y-144556009D01*
X127005436Y-144445208D01*
X126948254Y-144405539D01*
X126948249Y-144405536D01*
X126944501Y-144402936D01*
X126940416Y-144400904D01*
X126940413Y-144400902D01*
X126768560Y-144315407D01*
X126704062Y-144283320D01*
X126699728Y-144281899D01*
X126699725Y-144281898D01*
X126453207Y-144201085D01*
X126453202Y-144201084D01*
X126448874Y-144199665D01*
X126444382Y-144198885D01*
X126188064Y-144154380D01*
X126188056Y-144154379D01*
X126184283Y-144153724D01*
X126175622Y-144153293D01*
X126101004Y-144149578D01*
X126100996Y-144149578D01*
X126099433Y-144149500D01*
X125931777Y-144149500D01*
X125929509Y-144149665D01*
X125929497Y-144149665D01*
X125799177Y-144159121D01*
X125732154Y-144163984D01*
X125727699Y-144164968D01*
X125727696Y-144164968D01*
X125474380Y-144220895D01*
X125474376Y-144220896D01*
X125469920Y-144221880D01*
X125344355Y-144269452D01*
X125223059Y-144315407D01*
X125223056Y-144315408D01*
X125218789Y-144317025D01*
X124984024Y-144447426D01*
X124980392Y-144450198D01*
X124774167Y-144607583D01*
X124774163Y-144607587D01*
X124770542Y-144610350D01*
X124582815Y-144802386D01*
X124424775Y-145019509D01*
X124384084Y-145096851D01*
X124301860Y-145253132D01*
X124301857Y-145253138D01*
X124299735Y-145257172D01*
X124298215Y-145261477D01*
X124298213Y-145261481D01*
X124238804Y-145429715D01*
X124210312Y-145510397D01*
X124158380Y-145773878D01*
X124158153Y-145778431D01*
X124158153Y-145778434D01*
X124148992Y-145962474D01*
X124145028Y-146042095D01*
X121579933Y-146042095D01*
X122706514Y-144915513D01*
X122718906Y-144904645D01*
X122730026Y-144896112D01*
X122730030Y-144896109D01*
X122732692Y-144894066D01*
X122735119Y-144891755D01*
X122783545Y-144845640D01*
X122783552Y-144845633D01*
X122785971Y-144843329D01*
X122798794Y-144828209D01*
X122801991Y-144824584D01*
X123023897Y-144582414D01*
X123050868Y-144552980D01*
X123164004Y-144405539D01*
X123288435Y-144243379D01*
X123288443Y-144243367D01*
X123290107Y-144241199D01*
X123501261Y-143909753D01*
X123682725Y-143561164D01*
X123833116Y-143198087D01*
X123951291Y-142823283D01*
X124036350Y-142439607D01*
X124040629Y-142407109D01*
X124063788Y-142231193D01*
X124087646Y-142049977D01*
X124100211Y-141762185D01*
X124101169Y-141751234D01*
X124103408Y-141734227D01*
X124103845Y-141730908D01*
X124104943Y-141685989D01*
X124105561Y-141660722D01*
X124105561Y-141660718D01*
X124105643Y-141657358D01*
X124100924Y-141599960D01*
X124100500Y-141589636D01*
X124100500Y-140931046D01*
X124101213Y-140917656D01*
X124104646Y-140885538D01*
X124104646Y-140885532D01*
X124105194Y-140880406D01*
X124103267Y-140846973D01*
X124102316Y-140830485D01*
X124102377Y-140814992D01*
X124112789Y-140656138D01*
X124114940Y-140639798D01*
X124149984Y-140463618D01*
X124154250Y-140447698D01*
X124155053Y-140445334D01*
X124204796Y-140298794D01*
X124211987Y-140277610D01*
X124218294Y-140262382D01*
X124297747Y-140101269D01*
X124305983Y-140087005D01*
X124405786Y-139937637D01*
X124415801Y-139924584D01*
X124499480Y-139829166D01*
X124509405Y-139819639D01*
X124509231Y-139819456D01*
X124512973Y-139815893D01*
X124517002Y-139812642D01*
X124520443Y-139808780D01*
X124520447Y-139808776D01*
X124568832Y-139754468D01*
X124573814Y-139749191D01*
X124821489Y-139501516D01*
X124831461Y-139492552D01*
X124860620Y-139469024D01*
X124893881Y-139431692D01*
X124904881Y-139420778D01*
X125024572Y-139315812D01*
X125037647Y-139305779D01*
X125187000Y-139205985D01*
X125201273Y-139197744D01*
X125362382Y-139118293D01*
X125377610Y-139111986D01*
X125547697Y-139054250D01*
X125563616Y-139049984D01*
X125739798Y-139014939D01*
X125756139Y-139012788D01*
X125818243Y-139008717D01*
X125882757Y-139004489D01*
X125896513Y-139004772D01*
X125896519Y-139004519D01*
X125901700Y-139004646D01*
X125906832Y-139005194D01*
X125911984Y-139004897D01*
X125911988Y-139004897D01*
X125984612Y-139000709D01*
X125991865Y-139000500D01*
X128162554Y-139000500D01*
X128165127Y-139000288D01*
X128165138Y-139000288D01*
X128340760Y-138985849D01*
X128340766Y-138985848D01*
X128345911Y-138985425D01*
X128585217Y-138925316D01*
X128811493Y-138826928D01*
X128970894Y-138723807D01*
X129014318Y-138695715D01*
X129014321Y-138695713D01*
X129018661Y-138692905D01*
X129045696Y-138668305D01*
X129109541Y-138637253D01*
X129130495Y-138635499D01*
X129374000Y-138635499D01*
X129442121Y-138655501D01*
X129488614Y-138709157D01*
X129500000Y-138761499D01*
X129500000Y-149374000D01*
X129479998Y-149442121D01*
X129426342Y-149488614D01*
X129374000Y-149500000D01*
X100626000Y-149500000D01*
X100557879Y-149479998D01*
X100511386Y-149426342D01*
X100500000Y-149374000D01*
X100500000Y-146042095D01*
X102145028Y-146042095D01*
X102170534Y-146309431D01*
X102171619Y-146313865D01*
X102171620Y-146313871D01*
X102222856Y-146523256D01*
X102234364Y-146570285D01*
X102236076Y-146574511D01*
X102236077Y-146574515D01*
X102302506Y-146738519D01*
X102335182Y-146819192D01*
X102470875Y-147050938D01*
X102473728Y-147054505D01*
X102585225Y-147193925D01*
X102638601Y-147260669D01*
X102834846Y-147443991D01*
X102927039Y-147507948D01*
X103051746Y-147594461D01*
X103051751Y-147594464D01*
X103055499Y-147597064D01*
X103059584Y-147599096D01*
X103059587Y-147599098D01*
X103175719Y-147656872D01*
X103295938Y-147716680D01*
X103300272Y-147718101D01*
X103300275Y-147718102D01*
X103546793Y-147798915D01*
X103546798Y-147798916D01*
X103551126Y-147800335D01*
X103555617Y-147801115D01*
X103555618Y-147801115D01*
X103811936Y-147845620D01*
X103811944Y-147845621D01*
X103815717Y-147846276D01*
X103819554Y-147846467D01*
X103898996Y-147850422D01*
X103899004Y-147850422D01*
X103900567Y-147850500D01*
X104068223Y-147850500D01*
X104070491Y-147850335D01*
X104070503Y-147850335D01*
X104200823Y-147840879D01*
X104267846Y-147836016D01*
X104272301Y-147835032D01*
X104272304Y-147835032D01*
X104525620Y-147779105D01*
X104525624Y-147779104D01*
X104530080Y-147778120D01*
X104697617Y-147714646D01*
X104776941Y-147684593D01*
X104776944Y-147684592D01*
X104781211Y-147682975D01*
X105015976Y-147552574D01*
X105158254Y-147443991D01*
X105225833Y-147392417D01*
X105225837Y-147392413D01*
X105229458Y-147389650D01*
X105417185Y-147197614D01*
X105575225Y-146980491D01*
X105634659Y-146867525D01*
X105698140Y-146746868D01*
X105698143Y-146746862D01*
X105700265Y-146742828D01*
X105711379Y-146711358D01*
X105788165Y-146493916D01*
X105788165Y-146493915D01*
X105789688Y-146489603D01*
X105818773Y-146342038D01*
X105840739Y-146230594D01*
X105840740Y-146230588D01*
X105841620Y-146226122D01*
X105843656Y-146185227D01*
X105854745Y-145962474D01*
X105854745Y-145962468D01*
X105854972Y-145957905D01*
X105829466Y-145690569D01*
X105800822Y-145573507D01*
X105766721Y-145434149D01*
X105765636Y-145429715D01*
X105720597Y-145318518D01*
X105666531Y-145185037D01*
X105666531Y-145185036D01*
X105664818Y-145180808D01*
X105590597Y-145054049D01*
X109095194Y-145054049D01*
X109107677Y-145313930D01*
X109158435Y-145569112D01*
X109246355Y-145813989D01*
X109369504Y-146043180D01*
X109372299Y-146046923D01*
X109372301Y-146046926D01*
X109522385Y-146247913D01*
X109522390Y-146247919D01*
X109525177Y-146251651D01*
X109528486Y-146254931D01*
X109528491Y-146254937D01*
X109660850Y-146386146D01*
X109709954Y-146434823D01*
X109713716Y-146437581D01*
X109713719Y-146437584D01*
X109888654Y-146565851D01*
X109919775Y-146588670D01*
X109923910Y-146590846D01*
X109923914Y-146590848D01*
X110045106Y-146654610D01*
X110150033Y-146709815D01*
X110395667Y-146795594D01*
X110400260Y-146796466D01*
X110646693Y-146843253D01*
X110646696Y-146843253D01*
X110651282Y-146844124D01*
X110781272Y-146849231D01*
X110906595Y-146854156D01*
X110906601Y-146854156D01*
X110911263Y-146854339D01*
X111012489Y-146843253D01*
X111165245Y-146826524D01*
X111165250Y-146826523D01*
X111169898Y-146826014D01*
X111174422Y-146824823D01*
X111416982Y-146760962D01*
X111416984Y-146760961D01*
X111421505Y-146759771D01*
X111460941Y-146742828D01*
X111656263Y-146658911D01*
X111656265Y-146658910D01*
X111660557Y-146657066D01*
X111858454Y-146534604D01*
X111877820Y-146522620D01*
X111877822Y-146522618D01*
X111881803Y-146520155D01*
X111986486Y-146431535D01*
X112076809Y-146355071D01*
X112076811Y-146355069D01*
X112080382Y-146352046D01*
X112251931Y-146156431D01*
X112285524Y-146104206D01*
X112376689Y-145962474D01*
X112392683Y-145937608D01*
X112499544Y-145700385D01*
X112503565Y-145686129D01*
X112568898Y-145454476D01*
X112568899Y-145454473D01*
X112570168Y-145449972D01*
X112586891Y-145318518D01*
X112602604Y-145195001D01*
X112602604Y-145194997D01*
X112603002Y-145191871D01*
X112605408Y-145100000D01*
X112601647Y-145049395D01*
X112586472Y-144845186D01*
X112586471Y-144845182D01*
X112586126Y-144840534D01*
X112528705Y-144586768D01*
X112517953Y-144559120D01*
X112436098Y-144348630D01*
X112436097Y-144348628D01*
X112434405Y-144344277D01*
X112417905Y-144315407D01*
X112352564Y-144201085D01*
X112305299Y-144118388D01*
X112144223Y-143914064D01*
X111954714Y-143735792D01*
X111758251Y-143599500D01*
X111744779Y-143590154D01*
X111744776Y-143590152D01*
X111740937Y-143587489D01*
X111736747Y-143585423D01*
X111736744Y-143585421D01*
X111511775Y-143474479D01*
X111511772Y-143474478D01*
X111507587Y-143472414D01*
X111259792Y-143393094D01*
X111119569Y-143370257D01*
X111007606Y-143352023D01*
X111007605Y-143352023D01*
X111002994Y-143351272D01*
X110872914Y-143349569D01*
X110747512Y-143347927D01*
X110747509Y-143347927D01*
X110742835Y-143347866D01*
X110485030Y-143382952D01*
X110235243Y-143455758D01*
X110230990Y-143457718D01*
X110230989Y-143457719D01*
X110194634Y-143474479D01*
X109998961Y-143564686D01*
X109995056Y-143567246D01*
X109995051Y-143567249D01*
X109785288Y-143704775D01*
X109785283Y-143704779D01*
X109781375Y-143707341D01*
X109587265Y-143880591D01*
X109420895Y-144080629D01*
X109285920Y-144303061D01*
X109284111Y-144307375D01*
X109284110Y-144307377D01*
X109270338Y-144340221D01*
X109185305Y-144543001D01*
X109184154Y-144547533D01*
X109184153Y-144547536D01*
X109182001Y-144556009D01*
X109121261Y-144795177D01*
X109095194Y-145054049D01*
X105590597Y-145054049D01*
X105529125Y-144949062D01*
X105418211Y-144810371D01*
X105364251Y-144742897D01*
X105364250Y-144742895D01*
X105361399Y-144739331D01*
X105165154Y-144556009D01*
X105005436Y-144445208D01*
X104948254Y-144405539D01*
X104948249Y-144405536D01*
X104944501Y-144402936D01*
X104940416Y-144400904D01*
X104940413Y-144400902D01*
X104768560Y-144315407D01*
X104704062Y-144283320D01*
X104699728Y-144281899D01*
X104699725Y-144281898D01*
X104453207Y-144201085D01*
X104453202Y-144201084D01*
X104448874Y-144199665D01*
X104444382Y-144198885D01*
X104188064Y-144154380D01*
X104188056Y-144154379D01*
X104184283Y-144153724D01*
X104175622Y-144153293D01*
X104101004Y-144149578D01*
X104100996Y-144149578D01*
X104099433Y-144149500D01*
X103931777Y-144149500D01*
X103929509Y-144149665D01*
X103929497Y-144149665D01*
X103799177Y-144159121D01*
X103732154Y-144163984D01*
X103727699Y-144164968D01*
X103727696Y-144164968D01*
X103474380Y-144220895D01*
X103474376Y-144220896D01*
X103469920Y-144221880D01*
X103344355Y-144269452D01*
X103223059Y-144315407D01*
X103223056Y-144315408D01*
X103218789Y-144317025D01*
X102984024Y-144447426D01*
X102980392Y-144450198D01*
X102774167Y-144607583D01*
X102774163Y-144607587D01*
X102770542Y-144610350D01*
X102582815Y-144802386D01*
X102424775Y-145019509D01*
X102384084Y-145096851D01*
X102301860Y-145253132D01*
X102301857Y-145253138D01*
X102299735Y-145257172D01*
X102298215Y-145261477D01*
X102298213Y-145261481D01*
X102238804Y-145429715D01*
X102210312Y-145510397D01*
X102158380Y-145773878D01*
X102158153Y-145778431D01*
X102158153Y-145778434D01*
X102148992Y-145962474D01*
X102145028Y-146042095D01*
X100500000Y-146042095D01*
X100500000Y-138011500D01*
X100520002Y-137943379D01*
X100573658Y-137896886D01*
X100626000Y-137885500D01*
X100865790Y-137885500D01*
X100933911Y-137905502D01*
X100945082Y-137913578D01*
X100948731Y-137916533D01*
X100952468Y-137920104D01*
X100956740Y-137923018D01*
X100956741Y-137923019D01*
X100996536Y-137950165D01*
X101156300Y-138059149D01*
X101268202Y-138111092D01*
X101375409Y-138160856D01*
X101375413Y-138160857D01*
X101380104Y-138163035D01*
X101617871Y-138228974D01*
X101623008Y-138229523D01*
X101815957Y-138250144D01*
X101815965Y-138250144D01*
X101819292Y-138250500D01*
X104319935Y-138250500D01*
X104333325Y-138251213D01*
X104365443Y-138254646D01*
X104365449Y-138254646D01*
X104370575Y-138255194D01*
X104375727Y-138254897D01*
X104375732Y-138254897D01*
X104420489Y-138252316D01*
X104435983Y-138252377D01*
X104594840Y-138262789D01*
X104611181Y-138264940D01*
X104787363Y-138299985D01*
X104803282Y-138304251D01*
X104973371Y-138361988D01*
X104988598Y-138368295D01*
X105149701Y-138447742D01*
X105163975Y-138455983D01*
X105313331Y-138555780D01*
X105326406Y-138565813D01*
X105421809Y-138649478D01*
X105431333Y-138659401D01*
X105431517Y-138659226D01*
X105435089Y-138662977D01*
X105438335Y-138667000D01*
X105442197Y-138670441D01*
X105442199Y-138670443D01*
X105496503Y-138718826D01*
X105501779Y-138723807D01*
X106984487Y-140206514D01*
X106995355Y-140218906D01*
X107003888Y-140230026D01*
X107005934Y-140232692D01*
X107008243Y-140235117D01*
X107008245Y-140235119D01*
X107054360Y-140283545D01*
X107054367Y-140283552D01*
X107056671Y-140285971D01*
X107059222Y-140288134D01*
X107071791Y-140298794D01*
X107075416Y-140301991D01*
X107241045Y-140453760D01*
X107347020Y-140550868D01*
X107349212Y-140552550D01*
X107656621Y-140788435D01*
X107656633Y-140788443D01*
X107658801Y-140790107D01*
X107990247Y-141001261D01*
X108338836Y-141182725D01*
X108701913Y-141333116D01*
X108704533Y-141333942D01*
X108704541Y-141333945D01*
X109074087Y-141450462D01*
X109074092Y-141450463D01*
X109076717Y-141451291D01*
X109460393Y-141536350D01*
X109463113Y-141536708D01*
X109463118Y-141536709D01*
X109847286Y-141587286D01*
X109847294Y-141587287D01*
X109850023Y-141587646D01*
X109895769Y-141589643D01*
X109948941Y-141604015D01*
X109970661Y-141615442D01*
X110145890Y-141707635D01*
X110150033Y-141709815D01*
X110395667Y-141795594D01*
X110400260Y-141796466D01*
X110646693Y-141843253D01*
X110646696Y-141843253D01*
X110651282Y-141844124D01*
X110781273Y-141849232D01*
X110906595Y-141854156D01*
X110906601Y-141854156D01*
X110911263Y-141854339D01*
X110991994Y-141845498D01*
X111165245Y-141826524D01*
X111165250Y-141826523D01*
X111169898Y-141826014D01*
X111174422Y-141824823D01*
X111416982Y-141760962D01*
X111416984Y-141760961D01*
X111421505Y-141759771D01*
X111428686Y-141756686D01*
X111656263Y-141658911D01*
X111656265Y-141658910D01*
X111660557Y-141657066D01*
X111721499Y-141619354D01*
X111787799Y-141600500D01*
X117411137Y-141600500D01*
X117469804Y-141614992D01*
X117650033Y-141709815D01*
X117895667Y-141795594D01*
X117900260Y-141796466D01*
X118146693Y-141843253D01*
X118146696Y-141843253D01*
X118151282Y-141844124D01*
X118281273Y-141849232D01*
X118406595Y-141854156D01*
X118406601Y-141854156D01*
X118411263Y-141854339D01*
X118491994Y-141845498D01*
X118665245Y-141826524D01*
X118665250Y-141826523D01*
X118669898Y-141826014D01*
X118674422Y-141824823D01*
X118916982Y-141760962D01*
X118916984Y-141760961D01*
X118921505Y-141759771D01*
X118928686Y-141756686D01*
X119156263Y-141658911D01*
X119156265Y-141658910D01*
X119160557Y-141657066D01*
X119355632Y-141536350D01*
X119377820Y-141522620D01*
X119377822Y-141522618D01*
X119381803Y-141520155D01*
X119385380Y-141517127D01*
X119576809Y-141355071D01*
X119576811Y-141355069D01*
X119580382Y-141352046D01*
X119751931Y-141156431D01*
X119892683Y-140937608D01*
X119999544Y-140700385D01*
X120012023Y-140656138D01*
X120068898Y-140454476D01*
X120068899Y-140454473D01*
X120070168Y-140449972D01*
X120103002Y-140191871D01*
X120105408Y-140100000D01*
X120086126Y-139840534D01*
X120028705Y-139586768D01*
X119934405Y-139344277D01*
X119912253Y-139305518D01*
X119852741Y-139201395D01*
X119805299Y-139118388D01*
X119644223Y-138914064D01*
X119454714Y-138735792D01*
X119258251Y-138599500D01*
X119244779Y-138590154D01*
X119244776Y-138590152D01*
X119240937Y-138587489D01*
X119236747Y-138585423D01*
X119236744Y-138585421D01*
X119011775Y-138474479D01*
X119011772Y-138474478D01*
X119007587Y-138472414D01*
X118759792Y-138393094D01*
X118607520Y-138368295D01*
X118507606Y-138352023D01*
X118507605Y-138352023D01*
X118502994Y-138351272D01*
X118372914Y-138349569D01*
X118247512Y-138347927D01*
X118247509Y-138347927D01*
X118242835Y-138347866D01*
X117985030Y-138382952D01*
X117735243Y-138455758D01*
X117730990Y-138457718D01*
X117730989Y-138457719D01*
X117694634Y-138474479D01*
X117498961Y-138564686D01*
X117495052Y-138567249D01*
X117477324Y-138578872D01*
X117408239Y-138599500D01*
X111794672Y-138599500D01*
X111738944Y-138586506D01*
X111511775Y-138474479D01*
X111511772Y-138474478D01*
X111507587Y-138472414D01*
X111259792Y-138393094D01*
X111107520Y-138368295D01*
X111007606Y-138352023D01*
X111007605Y-138352023D01*
X111002994Y-138351272D01*
X110872914Y-138349569D01*
X110747512Y-138347927D01*
X110747509Y-138347927D01*
X110742835Y-138347866D01*
X110485030Y-138382952D01*
X110235243Y-138455758D01*
X110230990Y-138457718D01*
X110230989Y-138457719D01*
X110017279Y-138556241D01*
X109947042Y-138566596D01*
X109939946Y-138565394D01*
X109862638Y-138550016D01*
X109846719Y-138545750D01*
X109676632Y-138488014D01*
X109661404Y-138481707D01*
X109500295Y-138402256D01*
X109486022Y-138394015D01*
X109336674Y-138294224D01*
X109323599Y-138284191D01*
X109228190Y-138200520D01*
X109218661Y-138190592D01*
X109218478Y-138190767D01*
X109214908Y-138187018D01*
X109211666Y-138183000D01*
X109153476Y-138131155D01*
X109148200Y-138126173D01*
X107665515Y-136643488D01*
X107654647Y-136631096D01*
X107646114Y-136619976D01*
X107646111Y-136619972D01*
X107644068Y-136617310D01*
X107593331Y-136564031D01*
X107578189Y-136551189D01*
X107574560Y-136547990D01*
X107305018Y-136300999D01*
X107305010Y-136300992D01*
X107302982Y-136299134D01*
X107259873Y-136266055D01*
X106993380Y-136061567D01*
X106993368Y-136061559D01*
X106991200Y-136059895D01*
X106917143Y-136012715D01*
X106792560Y-135933347D01*
X106659754Y-135848740D01*
X106311165Y-135667276D01*
X105948087Y-135516884D01*
X105945467Y-135516058D01*
X105945459Y-135516055D01*
X105575914Y-135399538D01*
X105575909Y-135399537D01*
X105573284Y-135398709D01*
X105189606Y-135313650D01*
X105186887Y-135313292D01*
X105186881Y-135313291D01*
X105040359Y-135294002D01*
X104799976Y-135262355D01*
X104797227Y-135262235D01*
X104797216Y-135262234D01*
X104569259Y-135252282D01*
X104512188Y-135249790D01*
X104501244Y-135248832D01*
X104480907Y-135246155D01*
X104477555Y-135246073D01*
X104477554Y-135246073D01*
X104410721Y-135244439D01*
X104410717Y-135244439D01*
X104407357Y-135244357D01*
X104380161Y-135246593D01*
X104349959Y-135249076D01*
X104339635Y-135249500D01*
X101837446Y-135249500D01*
X101834873Y-135249712D01*
X101834862Y-135249712D01*
X101659240Y-135264151D01*
X101659234Y-135264152D01*
X101654089Y-135264575D01*
X101414783Y-135324684D01*
X101188507Y-135423072D01*
X101184159Y-135425885D01*
X100985682Y-135554285D01*
X100985679Y-135554287D01*
X100981339Y-135557095D01*
X100973166Y-135564532D01*
X100954304Y-135581695D01*
X100890459Y-135612747D01*
X100869505Y-135614501D01*
X100626000Y-135614501D01*
X100557879Y-135594499D01*
X100511386Y-135540843D01*
X100500000Y-135488501D01*
X100500000Y-120295965D01*
X101612000Y-120295965D01*
X101612001Y-120904034D01*
X101622407Y-121004335D01*
X101624586Y-121010866D01*
X101624587Y-121010871D01*
X101655311Y-121102960D01*
X101675486Y-121163432D01*
X101763742Y-121306052D01*
X101851569Y-121393726D01*
X101866018Y-121408150D01*
X101900097Y-121470433D01*
X101903000Y-121497323D01*
X101903000Y-121829105D01*
X101882998Y-121897226D01*
X101866095Y-121918200D01*
X101794703Y-121989592D01*
X101706873Y-122134617D01*
X101656171Y-122296406D01*
X101649500Y-122369007D01*
X101649501Y-123030992D01*
X101656171Y-123103594D01*
X101658170Y-123109972D01*
X101658170Y-123109973D01*
X101693539Y-123222833D01*
X101706873Y-123265383D01*
X101794703Y-123410408D01*
X101914592Y-123530297D01*
X102059617Y-123618127D01*
X102066864Y-123620398D01*
X102066866Y-123620399D01*
X102132106Y-123640844D01*
X102221406Y-123668829D01*
X102294007Y-123675500D01*
X102296905Y-123675500D01*
X102550664Y-123675499D01*
X102805992Y-123675499D01*
X102808850Y-123675236D01*
X102808859Y-123675236D01*
X102844243Y-123671985D01*
X102878594Y-123668829D01*
X102884979Y-123666828D01*
X103033134Y-123620399D01*
X103033136Y-123620398D01*
X103040383Y-123618127D01*
X103185408Y-123530297D01*
X103285905Y-123429800D01*
X103348217Y-123395774D01*
X103419032Y-123400839D01*
X103464095Y-123429800D01*
X103564592Y-123530297D01*
X103709617Y-123618127D01*
X103716864Y-123620398D01*
X103716866Y-123620399D01*
X103782106Y-123640844D01*
X103871406Y-123668829D01*
X103944007Y-123675500D01*
X103946905Y-123675500D01*
X104200664Y-123675499D01*
X104455992Y-123675499D01*
X104458850Y-123675236D01*
X104458859Y-123675236D01*
X104494243Y-123671985D01*
X104528594Y-123668829D01*
X104534979Y-123666828D01*
X104683134Y-123620399D01*
X104683136Y-123620398D01*
X104690383Y-123618127D01*
X104835408Y-123530297D01*
X104878300Y-123487405D01*
X104940612Y-123453379D01*
X104967395Y-123450500D01*
X115683546Y-123450500D01*
X115702496Y-123451933D01*
X115716396Y-123454048D01*
X115716400Y-123454048D01*
X115723630Y-123455148D01*
X115730922Y-123454555D01*
X115730925Y-123454555D01*
X115775675Y-123450915D01*
X115785889Y-123450500D01*
X115793822Y-123450500D01*
X115803118Y-123449416D01*
X115821736Y-123447246D01*
X115826111Y-123446813D01*
X115856274Y-123444360D01*
X115898059Y-123440961D01*
X115905021Y-123438706D01*
X115910816Y-123437548D01*
X115916558Y-123436191D01*
X115923828Y-123435343D01*
X115991736Y-123410694D01*
X115995864Y-123409277D01*
X116057583Y-123389283D01*
X116057585Y-123389282D01*
X116064546Y-123387027D01*
X116070800Y-123383232D01*
X116076179Y-123380769D01*
X116081455Y-123378127D01*
X116088331Y-123375631D01*
X116148709Y-123336046D01*
X116152419Y-123333705D01*
X116209361Y-123299152D01*
X116209368Y-123299147D01*
X116214160Y-123296239D01*
X116222452Y-123288915D01*
X116222474Y-123288940D01*
X116225569Y-123286194D01*
X116228563Y-123283691D01*
X116234685Y-123279677D01*
X116287384Y-123224047D01*
X116289761Y-123221606D01*
X117706391Y-121804976D01*
X117768703Y-121770950D01*
X117837027Y-121775116D01*
X117856376Y-121781873D01*
X117895667Y-121795594D01*
X117900260Y-121796466D01*
X118146693Y-121843253D01*
X118146696Y-121843253D01*
X118151282Y-121844124D01*
X118281273Y-121849232D01*
X118406595Y-121854156D01*
X118406601Y-121854156D01*
X118411263Y-121854339D01*
X118512489Y-121843253D01*
X118665245Y-121826524D01*
X118665250Y-121826523D01*
X118669898Y-121826014D01*
X118747557Y-121805568D01*
X118916982Y-121760962D01*
X118916984Y-121760961D01*
X118921505Y-121759771D01*
X118965224Y-121740988D01*
X119156263Y-121658911D01*
X119156265Y-121658910D01*
X119160557Y-121657066D01*
X119381803Y-121520155D01*
X119395327Y-121508706D01*
X119576809Y-121355071D01*
X119576811Y-121355069D01*
X119580382Y-121352046D01*
X119751931Y-121156431D01*
X119754454Y-121152508D01*
X119755841Y-121150668D01*
X119812813Y-121108304D01*
X119856466Y-121100500D01*
X122883830Y-121100500D01*
X122887349Y-121100549D01*
X122967271Y-121102782D01*
X122967274Y-121102782D01*
X122973653Y-121102960D01*
X122979938Y-121101852D01*
X122979948Y-121101851D01*
X123033066Y-121092484D01*
X123042208Y-121091215D01*
X123102216Y-121085120D01*
X123129693Y-121076509D01*
X123145479Y-121072662D01*
X123149703Y-121071917D01*
X123167535Y-121068773D01*
X123167541Y-121068771D01*
X123173821Y-121067664D01*
X123229898Y-121045462D01*
X123238601Y-121042380D01*
X123290085Y-121026246D01*
X123290089Y-121026244D01*
X123296172Y-121024338D01*
X123321342Y-121010385D01*
X123336049Y-121003433D01*
X123337303Y-121002937D01*
X123362805Y-120992840D01*
X123413277Y-120959812D01*
X123421181Y-120955044D01*
X123468363Y-120928891D01*
X123468366Y-120928889D01*
X123473944Y-120925797D01*
X123495797Y-120907067D01*
X123508800Y-120897304D01*
X123528835Y-120884193D01*
X123532882Y-120881545D01*
X123536475Y-120878310D01*
X123536479Y-120878307D01*
X123536604Y-120878194D01*
X123537838Y-120877083D01*
X123576750Y-120838171D01*
X123583848Y-120831598D01*
X123628271Y-120793523D01*
X123647182Y-120769143D01*
X123657647Y-120757274D01*
X124971032Y-119443889D01*
X124973554Y-119441436D01*
X125031639Y-119386508D01*
X125031640Y-119386507D01*
X125036280Y-119382119D01*
X125056664Y-119353009D01*
X125070882Y-119332703D01*
X125076434Y-119325361D01*
X125114574Y-119278596D01*
X125127912Y-119253083D01*
X125136353Y-119239200D01*
X125152863Y-119215621D01*
X125176816Y-119160270D01*
X125180791Y-119151936D01*
X125205787Y-119104122D01*
X125208742Y-119098470D01*
X125216676Y-119070801D01*
X125222158Y-119055490D01*
X125231049Y-119034945D01*
X125231051Y-119034940D01*
X125233586Y-119029081D01*
X125245920Y-118970042D01*
X125248132Y-118961099D01*
X125264767Y-118903087D01*
X125266975Y-118874387D01*
X125269267Y-118858285D01*
X125274160Y-118834865D01*
X125274161Y-118834861D01*
X125275151Y-118830120D01*
X125275500Y-118823461D01*
X125275500Y-118768437D01*
X125275871Y-118758771D01*
X125279871Y-118706789D01*
X125279871Y-118706786D01*
X125280360Y-118700429D01*
X125276494Y-118669827D01*
X125275500Y-118654035D01*
X125275500Y-115809136D01*
X125295502Y-115741015D01*
X125312405Y-115720041D01*
X125380581Y-115651865D01*
X125464244Y-115510398D01*
X125474830Y-115473963D01*
X125508301Y-115358754D01*
X125510098Y-115352569D01*
X125511133Y-115339416D01*
X125512807Y-115318153D01*
X125512808Y-115318140D01*
X125513000Y-115315694D01*
X125513000Y-114884306D01*
X125512808Y-114881860D01*
X125512807Y-114881847D01*
X125510603Y-114853850D01*
X125510098Y-114847431D01*
X125473964Y-114723059D01*
X125466456Y-114697215D01*
X125466455Y-114697214D01*
X125464244Y-114689602D01*
X125445172Y-114657352D01*
X125384615Y-114554956D01*
X125380581Y-114548135D01*
X125264365Y-114431919D01*
X125122898Y-114348256D01*
X125115286Y-114346045D01*
X125115285Y-114346044D01*
X124971254Y-114304199D01*
X124971255Y-114304199D01*
X124965069Y-114302402D01*
X124951916Y-114301367D01*
X124930653Y-114299693D01*
X124930640Y-114299692D01*
X124928194Y-114299500D01*
X124918546Y-114299500D01*
X124850425Y-114279498D01*
X124841321Y-114273060D01*
X124812963Y-114251064D01*
X124812960Y-114251062D01*
X124807919Y-114247152D01*
X124625545Y-114157413D01*
X124619367Y-114155804D01*
X124619365Y-114155803D01*
X124435034Y-114107788D01*
X124435031Y-114107788D01*
X124428852Y-114106178D01*
X124347672Y-114101924D01*
X124232256Y-114095875D01*
X124232252Y-114095875D01*
X124225874Y-114095541D01*
X124024903Y-114125935D01*
X123834148Y-114196119D01*
X123828726Y-114199481D01*
X123822984Y-114202281D01*
X123822216Y-114200705D01*
X123761953Y-114217341D01*
X123694166Y-114196235D01*
X123648551Y-114141831D01*
X123638000Y-114091358D01*
X123638000Y-113934306D01*
X123637808Y-113931860D01*
X123637807Y-113931847D01*
X123635098Y-113897431D01*
X123636884Y-113897290D01*
X123643415Y-113835292D01*
X123670832Y-113794164D01*
X124650544Y-112814452D01*
X124659096Y-112806669D01*
X124665691Y-112802484D01*
X124713337Y-112751746D01*
X124716091Y-112748905D01*
X124736280Y-112728716D01*
X124738889Y-112725353D01*
X124746596Y-112716329D01*
X124772170Y-112689095D01*
X124777594Y-112683319D01*
X124781410Y-112676377D01*
X124781414Y-112676372D01*
X124787660Y-112665010D01*
X124798514Y-112648485D01*
X124806468Y-112638231D01*
X124806469Y-112638230D01*
X124811326Y-112631968D01*
X124829314Y-112590401D01*
X124834535Y-112579744D01*
X124852526Y-112547018D01*
X124852526Y-112547017D01*
X124856346Y-112540069D01*
X124858317Y-112532392D01*
X124858319Y-112532387D01*
X124861542Y-112519832D01*
X124867948Y-112501120D01*
X124873100Y-112489215D01*
X124876248Y-112481941D01*
X124883332Y-112437217D01*
X124885739Y-112425595D01*
X124895029Y-112389414D01*
X124895030Y-112389409D01*
X124897000Y-112381735D01*
X124897000Y-112360834D01*
X124898551Y-112341124D01*
X124900580Y-112328313D01*
X124901820Y-112320484D01*
X124897559Y-112275407D01*
X124897000Y-112263550D01*
X124897000Y-111789695D01*
X124917002Y-111721574D01*
X124949062Y-111690362D01*
X124947931Y-111688920D01*
X124953907Y-111684234D01*
X124960408Y-111680297D01*
X125080297Y-111560408D01*
X125168127Y-111415383D01*
X125178186Y-111383287D01*
X125207862Y-111288590D01*
X125218829Y-111253594D01*
X125225500Y-111180993D01*
X125225499Y-110669008D01*
X125224530Y-110658455D01*
X125219440Y-110603060D01*
X125218829Y-110596406D01*
X125215830Y-110586837D01*
X125170399Y-110441866D01*
X125170398Y-110441864D01*
X125168127Y-110434617D01*
X125080297Y-110289592D01*
X124979800Y-110189095D01*
X124945774Y-110126783D01*
X124950839Y-110055968D01*
X124979800Y-110010905D01*
X125080297Y-109910408D01*
X125168127Y-109765383D01*
X125218829Y-109603594D01*
X125225500Y-109530993D01*
X125225499Y-109019008D01*
X125225234Y-109016116D01*
X125219440Y-108953060D01*
X125218829Y-108946406D01*
X125168127Y-108784617D01*
X125080297Y-108639592D01*
X124960408Y-108519703D01*
X124815383Y-108431873D01*
X124808136Y-108429602D01*
X124808134Y-108429601D01*
X124742894Y-108409156D01*
X124653594Y-108381171D01*
X124580993Y-108374500D01*
X124578095Y-108374500D01*
X124249142Y-108374501D01*
X123919008Y-108374501D01*
X123916150Y-108374764D01*
X123916141Y-108374764D01*
X123880757Y-108378015D01*
X123846406Y-108381171D01*
X123840028Y-108383170D01*
X123840027Y-108383170D01*
X123691866Y-108429601D01*
X123691864Y-108429602D01*
X123684617Y-108431873D01*
X123539592Y-108519703D01*
X123419703Y-108639592D01*
X123331873Y-108784617D01*
X123281171Y-108946406D01*
X123274500Y-109019007D01*
X123274500Y-109136941D01*
X123254498Y-109205062D01*
X123237596Y-109226036D01*
X122526038Y-109937595D01*
X122463725Y-109971620D01*
X122436942Y-109974500D01*
X122413057Y-109974500D01*
X122344936Y-109954498D01*
X122323962Y-109937595D01*
X121802678Y-109416311D01*
X121790291Y-109401898D01*
X121781959Y-109390575D01*
X121781955Y-109390571D01*
X121777617Y-109384676D01*
X121737800Y-109350849D01*
X121730296Y-109343929D01*
X121724697Y-109338330D01*
X121702649Y-109320886D01*
X121699273Y-109318117D01*
X121649825Y-109276108D01*
X121649822Y-109276106D01*
X121644245Y-109271368D01*
X121637726Y-109268040D01*
X121632816Y-109264765D01*
X121627796Y-109261664D01*
X121622051Y-109257119D01*
X121556651Y-109226553D01*
X121552705Y-109224625D01*
X121494903Y-109195110D01*
X121488384Y-109191781D01*
X121481275Y-109190042D01*
X121475740Y-109187983D01*
X121470132Y-109186117D01*
X121463507Y-109183021D01*
X121456347Y-109181532D01*
X121456345Y-109181531D01*
X121392807Y-109168315D01*
X121388518Y-109167344D01*
X121371903Y-109163279D01*
X121318394Y-109150185D01*
X121312794Y-109149838D01*
X121312790Y-109149837D01*
X121307352Y-109149500D01*
X121307354Y-109149468D01*
X121303224Y-109149221D01*
X121299344Y-109148875D01*
X121292169Y-109147382D01*
X121284848Y-109147580D01*
X121284847Y-109147580D01*
X121215600Y-109149454D01*
X121212192Y-109149500D01*
X121039986Y-109149500D01*
X120971865Y-109129498D01*
X120965924Y-109125435D01*
X120958073Y-109119730D01*
X120958067Y-109119727D01*
X120952730Y-109115849D01*
X120779803Y-109038856D01*
X120681788Y-109018022D01*
X120601103Y-109000872D01*
X120601099Y-109000872D01*
X120594646Y-108999500D01*
X120405354Y-108999500D01*
X120398901Y-109000872D01*
X120398897Y-109000872D01*
X120318212Y-109018022D01*
X120220197Y-109038856D01*
X120047270Y-109115849D01*
X120041929Y-109119729D01*
X120041928Y-109119730D01*
X120018239Y-109136941D01*
X119894129Y-109227112D01*
X119889716Y-109232014D01*
X119889714Y-109232015D01*
X119791657Y-109340918D01*
X119767467Y-109367784D01*
X119672821Y-109531716D01*
X119614326Y-109711744D01*
X119613636Y-109718305D01*
X119613636Y-109718307D01*
X119599813Y-109849828D01*
X119594540Y-109900000D01*
X119595230Y-109906565D01*
X119605780Y-110006940D01*
X119614326Y-110088256D01*
X119672821Y-110268284D01*
X119676124Y-110274006D01*
X119676125Y-110274007D01*
X119706429Y-110326495D01*
X119767467Y-110432216D01*
X119771885Y-110437123D01*
X119771886Y-110437124D01*
X119852626Y-110526794D01*
X119894129Y-110572888D01*
X120047270Y-110684151D01*
X120220197Y-110761144D01*
X120318212Y-110781978D01*
X120398897Y-110799128D01*
X120398901Y-110799128D01*
X120405354Y-110800500D01*
X120594646Y-110800500D01*
X120601099Y-110799128D01*
X120601103Y-110799128D01*
X120687224Y-110780822D01*
X120779803Y-110761144D01*
X120785836Y-110758458D01*
X120785842Y-110758456D01*
X120870198Y-110720898D01*
X120940565Y-110711463D01*
X121004862Y-110741569D01*
X121010542Y-110746909D01*
X121187596Y-110923963D01*
X121221622Y-110986275D01*
X121224501Y-111013058D01*
X121224501Y-111130992D01*
X121231171Y-111203594D01*
X121233170Y-111209972D01*
X121233170Y-111209973D01*
X121278657Y-111355120D01*
X121281873Y-111365383D01*
X121369703Y-111510408D01*
X121489592Y-111630297D01*
X121634617Y-111718127D01*
X121641864Y-111720398D01*
X121641866Y-111720399D01*
X121706395Y-111740621D01*
X121796406Y-111768829D01*
X121869007Y-111775500D01*
X121871905Y-111775500D01*
X122200858Y-111775499D01*
X122530992Y-111775499D01*
X122533850Y-111775236D01*
X122533859Y-111775236D01*
X122569243Y-111771985D01*
X122603594Y-111768829D01*
X122618365Y-111764200D01*
X122758134Y-111720399D01*
X122758136Y-111720398D01*
X122765383Y-111718127D01*
X122910408Y-111630297D01*
X122984222Y-111556483D01*
X123004232Y-111540206D01*
X123048699Y-111511052D01*
X123052419Y-111508705D01*
X123109361Y-111474152D01*
X123109368Y-111474147D01*
X123114160Y-111471239D01*
X123122452Y-111463915D01*
X123122474Y-111463940D01*
X123125569Y-111461194D01*
X123128563Y-111458691D01*
X123134685Y-111454677D01*
X123155844Y-111432341D01*
X123217213Y-111396643D01*
X123288140Y-111399790D01*
X123346106Y-111440784D01*
X123355089Y-111453717D01*
X123419703Y-111560408D01*
X123539592Y-111680297D01*
X123546093Y-111684234D01*
X123552069Y-111688920D01*
X123550499Y-111690922D01*
X123590171Y-111734302D01*
X123603000Y-111789695D01*
X123603000Y-111979814D01*
X123582998Y-112047935D01*
X123566095Y-112068909D01*
X122322409Y-113312595D01*
X122260097Y-113346621D01*
X122233314Y-113349500D01*
X121746806Y-113349500D01*
X121744360Y-113349692D01*
X121744347Y-113349693D01*
X121723084Y-113351367D01*
X121709931Y-113352402D01*
X121703745Y-113354199D01*
X121703746Y-113354199D01*
X121559715Y-113396044D01*
X121559714Y-113396045D01*
X121552102Y-113398256D01*
X121410635Y-113481919D01*
X121294419Y-113598135D01*
X121210756Y-113739602D01*
X121208545Y-113747214D01*
X121208544Y-113747215D01*
X121199741Y-113777516D01*
X121164902Y-113897431D01*
X121164397Y-113903850D01*
X121162193Y-113931847D01*
X121162192Y-113931860D01*
X121162000Y-113934306D01*
X121162000Y-114365694D01*
X121162192Y-114368140D01*
X121162193Y-114368153D01*
X121163867Y-114389416D01*
X121164902Y-114402569D01*
X121166699Y-114408754D01*
X121205565Y-114542529D01*
X121210756Y-114560398D01*
X121214791Y-114567220D01*
X121214791Y-114567221D01*
X121233719Y-114599226D01*
X121294419Y-114701865D01*
X121410635Y-114818081D01*
X121417456Y-114822115D01*
X121444966Y-114838384D01*
X121552102Y-114901744D01*
X121559714Y-114903955D01*
X121559715Y-114903956D01*
X121562056Y-114904636D01*
X121709931Y-114947598D01*
X121723084Y-114948633D01*
X121744347Y-114950307D01*
X121744360Y-114950308D01*
X121746806Y-114950500D01*
X122911000Y-114950500D01*
X122979121Y-114970502D01*
X123025614Y-115024158D01*
X123037000Y-115076500D01*
X123037000Y-115315694D01*
X123037192Y-115318140D01*
X123037193Y-115318153D01*
X123038867Y-115339416D01*
X123039902Y-115352569D01*
X123041699Y-115358754D01*
X123075171Y-115473963D01*
X123085756Y-115510398D01*
X123169419Y-115651865D01*
X123237595Y-115720041D01*
X123271621Y-115782353D01*
X123274500Y-115809136D01*
X123274500Y-118258388D01*
X123254498Y-118326509D01*
X123237596Y-118347483D01*
X122522485Y-119062595D01*
X122460172Y-119096620D01*
X122433389Y-119099500D01*
X119851524Y-119099500D01*
X119783403Y-119079498D01*
X119752574Y-119051506D01*
X119647115Y-118917732D01*
X119647112Y-118917729D01*
X119644223Y-118914064D01*
X119454714Y-118735792D01*
X119258963Y-118599994D01*
X119244779Y-118590154D01*
X119244776Y-118590152D01*
X119240937Y-118587489D01*
X119236747Y-118585423D01*
X119236744Y-118585421D01*
X119011775Y-118474479D01*
X119011772Y-118474478D01*
X119007587Y-118472414D01*
X118759792Y-118393094D01*
X118596209Y-118366453D01*
X118507606Y-118352023D01*
X118507605Y-118352023D01*
X118502994Y-118351272D01*
X118372915Y-118349569D01*
X118247512Y-118347927D01*
X118247509Y-118347927D01*
X118242835Y-118347866D01*
X118102251Y-118366999D01*
X118032056Y-118356366D01*
X117996165Y-118331245D01*
X117637405Y-117972485D01*
X117603379Y-117910173D01*
X117600500Y-117883390D01*
X117600500Y-115399200D01*
X117585120Y-115247784D01*
X117556265Y-115155708D01*
X117550499Y-115118029D01*
X117550499Y-114602624D01*
X117546293Y-114563900D01*
X117544705Y-114549278D01*
X117544704Y-114549274D01*
X117543851Y-114541420D01*
X117493526Y-114407176D01*
X117488146Y-114399997D01*
X117488144Y-114399994D01*
X117412928Y-114299635D01*
X117407546Y-114292454D01*
X117352320Y-114251064D01*
X117300006Y-114211856D01*
X117300003Y-114211854D01*
X117292824Y-114206474D01*
X117169469Y-114160231D01*
X117165975Y-114158921D01*
X117165973Y-114158921D01*
X117158580Y-114156149D01*
X117150730Y-114155296D01*
X117150729Y-114155296D01*
X117100774Y-114149869D01*
X117100773Y-114149869D01*
X117097377Y-114149500D01*
X117080962Y-114149500D01*
X116601499Y-114149501D01*
X116533379Y-114129499D01*
X116486886Y-114075844D01*
X116475500Y-114023501D01*
X116475500Y-113802652D01*
X116495502Y-113734531D01*
X116512327Y-113713634D01*
X116518060Y-113707891D01*
X116523231Y-113702711D01*
X116527072Y-113696480D01*
X116608163Y-113564927D01*
X116608164Y-113564925D01*
X116612003Y-113558697D01*
X116665263Y-113398124D01*
X116669948Y-113352402D01*
X116675172Y-113301406D01*
X116675500Y-113298207D01*
X116675499Y-112701794D01*
X116674182Y-112689095D01*
X116668904Y-112638231D01*
X116665003Y-112600628D01*
X116611463Y-112440148D01*
X116522440Y-112296289D01*
X116501523Y-112275408D01*
X116407891Y-112181940D01*
X116402711Y-112176769D01*
X116258697Y-112087997D01*
X116098124Y-112034737D01*
X116091288Y-112034037D01*
X116091285Y-112034036D01*
X116041203Y-112028905D01*
X115998207Y-112024500D01*
X115727107Y-112024500D01*
X115451794Y-112024501D01*
X115448550Y-112024838D01*
X115448542Y-112024838D01*
X115404120Y-112029447D01*
X115350628Y-112034997D01*
X115190148Y-112088537D01*
X115111201Y-112137391D01*
X115052516Y-112173706D01*
X115052513Y-112173709D01*
X115046289Y-112177560D01*
X115039085Y-112184777D01*
X115037352Y-112185725D01*
X115035379Y-112187289D01*
X115035111Y-112186951D01*
X114976803Y-112218858D01*
X114905983Y-112213857D01*
X114860890Y-112184934D01*
X114857891Y-112181940D01*
X114852711Y-112176769D01*
X114708697Y-112087997D01*
X114548124Y-112034737D01*
X114541288Y-112034037D01*
X114541285Y-112034036D01*
X114491203Y-112028905D01*
X114448207Y-112024500D01*
X114381082Y-112024500D01*
X113924764Y-112024501D01*
X113856643Y-112004499D01*
X113810150Y-111950844D01*
X113800046Y-111880570D01*
X113827120Y-111818866D01*
X113835539Y-111808543D01*
X113839573Y-111803597D01*
X113852910Y-111778087D01*
X113861353Y-111764200D01*
X113877863Y-111740621D01*
X113901822Y-111685256D01*
X113905795Y-111676928D01*
X113930784Y-111629127D01*
X113930785Y-111629124D01*
X113933741Y-111623470D01*
X113941675Y-111595799D01*
X113947155Y-111580495D01*
X113958586Y-111554081D01*
X113970922Y-111495033D01*
X113973140Y-111486070D01*
X113980273Y-111461194D01*
X113989766Y-111428087D01*
X113991974Y-111399388D01*
X113994265Y-111383295D01*
X114000151Y-111355120D01*
X114000500Y-111348461D01*
X114000500Y-111293436D01*
X114000871Y-111283769D01*
X114004871Y-111231790D01*
X114004871Y-111231786D01*
X114005360Y-111225430D01*
X114001494Y-111194827D01*
X114000500Y-111179035D01*
X114000500Y-110340054D01*
X114020502Y-110271933D01*
X114074158Y-110225440D01*
X114144432Y-110215336D01*
X114209012Y-110244830D01*
X114235619Y-110277054D01*
X114267467Y-110332216D01*
X114271885Y-110337123D01*
X114271886Y-110337124D01*
X114366197Y-110441866D01*
X114394129Y-110472888D01*
X114399468Y-110476767D01*
X114468325Y-110526794D01*
X114547270Y-110584151D01*
X114720197Y-110661144D01*
X114810179Y-110680270D01*
X114898897Y-110699128D01*
X114898901Y-110699128D01*
X114905354Y-110700500D01*
X115094646Y-110700500D01*
X115101099Y-110699128D01*
X115101103Y-110699128D01*
X115189821Y-110680270D01*
X115279803Y-110661144D01*
X115452730Y-110584151D01*
X115531676Y-110526794D01*
X115600532Y-110476767D01*
X115605871Y-110472888D01*
X115633804Y-110441866D01*
X115728114Y-110337124D01*
X115728115Y-110337123D01*
X115732533Y-110332216D01*
X115827179Y-110168284D01*
X115885674Y-109988256D01*
X115887423Y-109971620D01*
X115904770Y-109806565D01*
X115905460Y-109800000D01*
X115885674Y-109611744D01*
X115827179Y-109431716D01*
X115800021Y-109384676D01*
X115774757Y-109340918D01*
X115767381Y-109328143D01*
X115750500Y-109265143D01*
X115750500Y-108613082D01*
X115770502Y-108544961D01*
X115787321Y-108524072D01*
X115842984Y-108468311D01*
X115934814Y-108319334D01*
X115989910Y-108153228D01*
X116000500Y-108049866D01*
X116000500Y-104549866D01*
X118099500Y-104549866D01*
X118099837Y-104553112D01*
X118099837Y-104553116D01*
X118109515Y-104646383D01*
X118110359Y-104654519D01*
X118165744Y-104820529D01*
X118257834Y-104969345D01*
X118381689Y-105092984D01*
X118530666Y-105184814D01*
X118537614Y-105187119D01*
X118537615Y-105187119D01*
X118690241Y-105237744D01*
X118690243Y-105237745D01*
X118696772Y-105239910D01*
X118800134Y-105250500D01*
X119999866Y-105250500D01*
X120003112Y-105250163D01*
X120003116Y-105250163D01*
X120097661Y-105240353D01*
X120097665Y-105240352D01*
X120104519Y-105239641D01*
X120111055Y-105237460D01*
X120111057Y-105237460D01*
X120263581Y-105186574D01*
X120270529Y-105184256D01*
X120419345Y-105092166D01*
X120542984Y-104968311D01*
X120634814Y-104819334D01*
X120637119Y-104812385D01*
X120687744Y-104659759D01*
X120687745Y-104659757D01*
X120689910Y-104653228D01*
X120700500Y-104549866D01*
X120700500Y-104042095D01*
X124145028Y-104042095D01*
X124170534Y-104309431D01*
X124234364Y-104570285D01*
X124236076Y-104574511D01*
X124236077Y-104574515D01*
X124302506Y-104738519D01*
X124335182Y-104819192D01*
X124470875Y-105050938D01*
X124473728Y-105054505D01*
X124630469Y-105250500D01*
X124638601Y-105260669D01*
X124834846Y-105443991D01*
X124927039Y-105507948D01*
X125051746Y-105594461D01*
X125051751Y-105594464D01*
X125055499Y-105597064D01*
X125059584Y-105599096D01*
X125059587Y-105599098D01*
X125175719Y-105656872D01*
X125295938Y-105716680D01*
X125300272Y-105718101D01*
X125300275Y-105718102D01*
X125546793Y-105798915D01*
X125546798Y-105798916D01*
X125551126Y-105800335D01*
X125555617Y-105801115D01*
X125555618Y-105801115D01*
X125811936Y-105845620D01*
X125811944Y-105845621D01*
X125815717Y-105846276D01*
X125819554Y-105846467D01*
X125898996Y-105850422D01*
X125899004Y-105850422D01*
X125900567Y-105850500D01*
X126068223Y-105850500D01*
X126070491Y-105850335D01*
X126070503Y-105850335D01*
X126200823Y-105840879D01*
X126267846Y-105836016D01*
X126272301Y-105835032D01*
X126272304Y-105835032D01*
X126525620Y-105779105D01*
X126525624Y-105779104D01*
X126530080Y-105778120D01*
X126697617Y-105714646D01*
X126776941Y-105684593D01*
X126776944Y-105684592D01*
X126781211Y-105682975D01*
X127015976Y-105552574D01*
X127158254Y-105443991D01*
X127225833Y-105392417D01*
X127225837Y-105392413D01*
X127229458Y-105389650D01*
X127417185Y-105197614D01*
X127490548Y-105096825D01*
X127572538Y-104984183D01*
X127572540Y-104984180D01*
X127575225Y-104980491D01*
X127634659Y-104867525D01*
X127698140Y-104746868D01*
X127698143Y-104746862D01*
X127700265Y-104742828D01*
X127729142Y-104661057D01*
X127788165Y-104493916D01*
X127788165Y-104493915D01*
X127789688Y-104489603D01*
X127841620Y-104226122D01*
X127841847Y-104221566D01*
X127854745Y-103962474D01*
X127854745Y-103962468D01*
X127854972Y-103957905D01*
X127829466Y-103690569D01*
X127765636Y-103429715D01*
X127664818Y-103180808D01*
X127529125Y-102949062D01*
X127418211Y-102810371D01*
X127364251Y-102742897D01*
X127364250Y-102742895D01*
X127361399Y-102739331D01*
X127165154Y-102556009D01*
X127005436Y-102445208D01*
X126948254Y-102405539D01*
X126948249Y-102405536D01*
X126944501Y-102402936D01*
X126940416Y-102400904D01*
X126940413Y-102400902D01*
X126768560Y-102315407D01*
X126704062Y-102283320D01*
X126699728Y-102281899D01*
X126699725Y-102281898D01*
X126453207Y-102201085D01*
X126453202Y-102201084D01*
X126448874Y-102199665D01*
X126444382Y-102198885D01*
X126188064Y-102154380D01*
X126188056Y-102154379D01*
X126184283Y-102153724D01*
X126175622Y-102153293D01*
X126101004Y-102149578D01*
X126100996Y-102149578D01*
X126099433Y-102149500D01*
X125931777Y-102149500D01*
X125929509Y-102149665D01*
X125929497Y-102149665D01*
X125799177Y-102159121D01*
X125732154Y-102163984D01*
X125727699Y-102164968D01*
X125727696Y-102164968D01*
X125474380Y-102220895D01*
X125474376Y-102220896D01*
X125469920Y-102221880D01*
X125363349Y-102262256D01*
X125223059Y-102315407D01*
X125223056Y-102315408D01*
X125218789Y-102317025D01*
X124984024Y-102447426D01*
X124980392Y-102450198D01*
X124774167Y-102607583D01*
X124774163Y-102607587D01*
X124770542Y-102610350D01*
X124767357Y-102613608D01*
X124767356Y-102613609D01*
X124710948Y-102671312D01*
X124582815Y-102802386D01*
X124580130Y-102806075D01*
X124472895Y-102953400D01*
X124424775Y-103019509D01*
X124422651Y-103023547D01*
X124301860Y-103253132D01*
X124301857Y-103253138D01*
X124299735Y-103257172D01*
X124298215Y-103261477D01*
X124298213Y-103261481D01*
X124238804Y-103429715D01*
X124210312Y-103510397D01*
X124158380Y-103773878D01*
X124158153Y-103778431D01*
X124158153Y-103778434D01*
X124148992Y-103962474D01*
X124145028Y-104042095D01*
X120700500Y-104042095D01*
X120700500Y-101950134D01*
X120700163Y-101946884D01*
X120690353Y-101852339D01*
X120690352Y-101852335D01*
X120689641Y-101845481D01*
X120634256Y-101679471D01*
X120542166Y-101530655D01*
X120418311Y-101407016D01*
X120269334Y-101315186D01*
X120262385Y-101312881D01*
X120109759Y-101262256D01*
X120109757Y-101262255D01*
X120103228Y-101260090D01*
X119999866Y-101249500D01*
X118800134Y-101249500D01*
X118796888Y-101249837D01*
X118796884Y-101249837D01*
X118702339Y-101259647D01*
X118702335Y-101259648D01*
X118695481Y-101260359D01*
X118688945Y-101262540D01*
X118688943Y-101262540D01*
X118549860Y-101308942D01*
X118529471Y-101315744D01*
X118380655Y-101407834D01*
X118257016Y-101531689D01*
X118165186Y-101680666D01*
X118110090Y-101846772D01*
X118099500Y-101950134D01*
X118099500Y-104549866D01*
X116000500Y-104549866D01*
X116000500Y-102950134D01*
X115989641Y-102845481D01*
X115975264Y-102802386D01*
X115936574Y-102686419D01*
X115934256Y-102679471D01*
X115842166Y-102530655D01*
X115718311Y-102407016D01*
X115569334Y-102315186D01*
X115562385Y-102312881D01*
X115409759Y-102262256D01*
X115409757Y-102262255D01*
X115403228Y-102260090D01*
X115299866Y-102249500D01*
X114700134Y-102249500D01*
X114696888Y-102249837D01*
X114696884Y-102249837D01*
X114602339Y-102259647D01*
X114602335Y-102259648D01*
X114595481Y-102260359D01*
X114588945Y-102262540D01*
X114588943Y-102262540D01*
X114530920Y-102281898D01*
X114429471Y-102315744D01*
X114280655Y-102407834D01*
X114157016Y-102531689D01*
X114153177Y-102537917D01*
X114153175Y-102537920D01*
X114107268Y-102612395D01*
X114054496Y-102659888D01*
X113984424Y-102671312D01*
X113919300Y-102643038D01*
X113892864Y-102612582D01*
X113846020Y-102536883D01*
X113842166Y-102530655D01*
X113718311Y-102407016D01*
X113569334Y-102315186D01*
X113562385Y-102312881D01*
X113409759Y-102262256D01*
X113409757Y-102262255D01*
X113403228Y-102260090D01*
X113299866Y-102249500D01*
X112700134Y-102249500D01*
X112696888Y-102249837D01*
X112696884Y-102249837D01*
X112602339Y-102259647D01*
X112602335Y-102259648D01*
X112595481Y-102260359D01*
X112588945Y-102262540D01*
X112588943Y-102262540D01*
X112530920Y-102281898D01*
X112429471Y-102315744D01*
X112280655Y-102407834D01*
X112157016Y-102531689D01*
X112133759Y-102569418D01*
X112080989Y-102616911D01*
X112010917Y-102628335D01*
X111945793Y-102600062D01*
X111906293Y-102541068D01*
X111900500Y-102503302D01*
X111900500Y-101950134D01*
X111900163Y-101946884D01*
X111890353Y-101852339D01*
X111890352Y-101852335D01*
X111889641Y-101845481D01*
X111834256Y-101679471D01*
X111742166Y-101530655D01*
X111618311Y-101407016D01*
X111469334Y-101315186D01*
X111462385Y-101312881D01*
X111309759Y-101262256D01*
X111309757Y-101262255D01*
X111303228Y-101260090D01*
X111199866Y-101249500D01*
X110000134Y-101249500D01*
X109996888Y-101249837D01*
X109996884Y-101249837D01*
X109902339Y-101259647D01*
X109902335Y-101259648D01*
X109895481Y-101260359D01*
X109888945Y-101262540D01*
X109888943Y-101262540D01*
X109749860Y-101308942D01*
X109729471Y-101315744D01*
X109580655Y-101407834D01*
X109457016Y-101531689D01*
X109365186Y-101680666D01*
X109310090Y-101846772D01*
X109299500Y-101950134D01*
X109299500Y-104549866D01*
X109299837Y-104553112D01*
X109299837Y-104553116D01*
X109309515Y-104646383D01*
X109310359Y-104654519D01*
X109365744Y-104820529D01*
X109457834Y-104969345D01*
X109581689Y-105092984D01*
X109730666Y-105184814D01*
X109737614Y-105187119D01*
X109737615Y-105187119D01*
X109890241Y-105237744D01*
X109890243Y-105237745D01*
X109896772Y-105239910D01*
X110000134Y-105250500D01*
X111199866Y-105250500D01*
X111203112Y-105250163D01*
X111203116Y-105250163D01*
X111297661Y-105240353D01*
X111297665Y-105240352D01*
X111304519Y-105239641D01*
X111311055Y-105237460D01*
X111311057Y-105237460D01*
X111463581Y-105186574D01*
X111470529Y-105184256D01*
X111619345Y-105092166D01*
X111742984Y-104968311D01*
X111766241Y-104930582D01*
X111819011Y-104883089D01*
X111889083Y-104871665D01*
X111954207Y-104899938D01*
X111993707Y-104958932D01*
X111999500Y-104996698D01*
X111999500Y-110783389D01*
X111979498Y-110851510D01*
X111962595Y-110872484D01*
X110462318Y-112372761D01*
X110400006Y-112406787D01*
X110329191Y-112401722D01*
X110284128Y-112372761D01*
X108662404Y-110751037D01*
X108628378Y-110688725D01*
X108625499Y-110661942D01*
X108625499Y-110526794D01*
X108615003Y-110425628D01*
X108561463Y-110265148D01*
X108472440Y-110121289D01*
X108352711Y-110001769D01*
X108208697Y-109912997D01*
X108048124Y-109859737D01*
X108041288Y-109859037D01*
X108041285Y-109859036D01*
X107991203Y-109853905D01*
X107948207Y-109849500D01*
X107652300Y-109849500D01*
X107351794Y-109849501D01*
X107348550Y-109849838D01*
X107348542Y-109849838D01*
X107304120Y-109854447D01*
X107250628Y-109859997D01*
X107090148Y-109913537D01*
X106946289Y-110002560D01*
X106826769Y-110122289D01*
X106822929Y-110128519D01*
X106822928Y-110128520D01*
X106769414Y-110215336D01*
X106737997Y-110266303D01*
X106684737Y-110426876D01*
X106674500Y-110526793D01*
X106674501Y-111073206D01*
X106684997Y-111174372D01*
X106738537Y-111334852D01*
X106827560Y-111478711D01*
X106947289Y-111598231D01*
X106953519Y-111602071D01*
X106953520Y-111602072D01*
X107081597Y-111681020D01*
X107091303Y-111687003D01*
X107251876Y-111740263D01*
X107258712Y-111740963D01*
X107258715Y-111740964D01*
X107306397Y-111745849D01*
X107351793Y-111750500D01*
X107486943Y-111750500D01*
X107555064Y-111770502D01*
X107576038Y-111787405D01*
X109672322Y-113883689D01*
X109684709Y-113898102D01*
X109693041Y-113909425D01*
X109693045Y-113909429D01*
X109697383Y-113915324D01*
X109737200Y-113949151D01*
X109744704Y-113956071D01*
X109750303Y-113961670D01*
X109772351Y-113979114D01*
X109775724Y-113981880D01*
X109805080Y-114006819D01*
X109844044Y-114066167D01*
X109849500Y-114102844D01*
X109849500Y-118223501D01*
X109829498Y-118291622D01*
X109775842Y-118338115D01*
X109723500Y-118349501D01*
X109552624Y-118349501D01*
X109549230Y-118349870D01*
X109549224Y-118349870D01*
X109499278Y-118355295D01*
X109499274Y-118355296D01*
X109491420Y-118356149D01*
X109357176Y-118406474D01*
X109349997Y-118411854D01*
X109349994Y-118411856D01*
X109271092Y-118470991D01*
X109242454Y-118492454D01*
X109237072Y-118499635D01*
X109161856Y-118599994D01*
X109161854Y-118599997D01*
X109156474Y-118607176D01*
X109106149Y-118741420D01*
X109105296Y-118749270D01*
X109105296Y-118749271D01*
X109101301Y-118786049D01*
X109099500Y-118802623D01*
X109099500Y-119223500D01*
X109079498Y-119291621D01*
X109025842Y-119338114D01*
X108973500Y-119349500D01*
X104691454Y-119349500D01*
X104672505Y-119348067D01*
X104671352Y-119347892D01*
X104651370Y-119344852D01*
X104644078Y-119345445D01*
X104644075Y-119345445D01*
X104599325Y-119349085D01*
X104589111Y-119349500D01*
X104581178Y-119349500D01*
X104571882Y-119350584D01*
X104553264Y-119352754D01*
X104548889Y-119353187D01*
X104518726Y-119355640D01*
X104476941Y-119359039D01*
X104469979Y-119361294D01*
X104464184Y-119362452D01*
X104458442Y-119363809D01*
X104451172Y-119364657D01*
X104383264Y-119389306D01*
X104379136Y-119390723D01*
X104317417Y-119410717D01*
X104317415Y-119410718D01*
X104310454Y-119412973D01*
X104304200Y-119416768D01*
X104298821Y-119419231D01*
X104293545Y-119421873D01*
X104286669Y-119424369D01*
X104226301Y-119463948D01*
X104222581Y-119466295D01*
X104165639Y-119500848D01*
X104165632Y-119500853D01*
X104160840Y-119503761D01*
X104152548Y-119511085D01*
X104152526Y-119511060D01*
X104149431Y-119513806D01*
X104146437Y-119516309D01*
X104140315Y-119520323D01*
X104135282Y-119525636D01*
X104087617Y-119575952D01*
X104085239Y-119578394D01*
X104076037Y-119587596D01*
X104013725Y-119621622D01*
X103986942Y-119624501D01*
X103858466Y-119624501D01*
X103758165Y-119634907D01*
X103751634Y-119637086D01*
X103751629Y-119637087D01*
X103614915Y-119682699D01*
X103599068Y-119687986D01*
X103456448Y-119776242D01*
X103451275Y-119781424D01*
X103426623Y-119806119D01*
X103364340Y-119840198D01*
X103293520Y-119835195D01*
X103248433Y-119806274D01*
X103222745Y-119780630D01*
X103222735Y-119780622D01*
X103217561Y-119775457D01*
X103074787Y-119687451D01*
X102915598Y-119634650D01*
X102908765Y-119633950D01*
X102908761Y-119633949D01*
X102856154Y-119628559D01*
X102816535Y-119624500D01*
X102552056Y-119624500D01*
X102283466Y-119624501D01*
X102183165Y-119634907D01*
X102176634Y-119637086D01*
X102176629Y-119637087D01*
X102039915Y-119682699D01*
X102024068Y-119687986D01*
X101881448Y-119776242D01*
X101762957Y-119894939D01*
X101674951Y-120037713D01*
X101672646Y-120044661D01*
X101672646Y-120044662D01*
X101667983Y-120058720D01*
X101622150Y-120196902D01*
X101612000Y-120295965D01*
X100500000Y-120295965D01*
X100500000Y-104042095D01*
X102145028Y-104042095D01*
X102170534Y-104309431D01*
X102234364Y-104570285D01*
X102236076Y-104574511D01*
X102236077Y-104574515D01*
X102302506Y-104738519D01*
X102335182Y-104819192D01*
X102470875Y-105050938D01*
X102473728Y-105054505D01*
X102630469Y-105250500D01*
X102638601Y-105260669D01*
X102834846Y-105443991D01*
X102927039Y-105507948D01*
X103051746Y-105594461D01*
X103051751Y-105594464D01*
X103055499Y-105597064D01*
X103059584Y-105599096D01*
X103059587Y-105599098D01*
X103175719Y-105656872D01*
X103295938Y-105716680D01*
X103300272Y-105718101D01*
X103300275Y-105718102D01*
X103546793Y-105798915D01*
X103546798Y-105798916D01*
X103551126Y-105800335D01*
X103555617Y-105801115D01*
X103555618Y-105801115D01*
X103811936Y-105845620D01*
X103811944Y-105845621D01*
X103815717Y-105846276D01*
X103819554Y-105846467D01*
X103898996Y-105850422D01*
X103899004Y-105850422D01*
X103900567Y-105850500D01*
X104068223Y-105850500D01*
X104070491Y-105850335D01*
X104070503Y-105850335D01*
X104200823Y-105840879D01*
X104267846Y-105836016D01*
X104272301Y-105835032D01*
X104272304Y-105835032D01*
X104525620Y-105779105D01*
X104525624Y-105779104D01*
X104530080Y-105778120D01*
X104697617Y-105714646D01*
X104776941Y-105684593D01*
X104776944Y-105684592D01*
X104781211Y-105682975D01*
X105015976Y-105552574D01*
X105158254Y-105443991D01*
X105225833Y-105392417D01*
X105225837Y-105392413D01*
X105229458Y-105389650D01*
X105417185Y-105197614D01*
X105490548Y-105096825D01*
X105572538Y-104984183D01*
X105572540Y-104984180D01*
X105575225Y-104980491D01*
X105634659Y-104867525D01*
X105698140Y-104746868D01*
X105698143Y-104746862D01*
X105700265Y-104742828D01*
X105729142Y-104661057D01*
X105788165Y-104493916D01*
X105788165Y-104493915D01*
X105789688Y-104489603D01*
X105841620Y-104226122D01*
X105841847Y-104221566D01*
X105854745Y-103962474D01*
X105854745Y-103962468D01*
X105854972Y-103957905D01*
X105829466Y-103690569D01*
X105765636Y-103429715D01*
X105664818Y-103180808D01*
X105529125Y-102949062D01*
X105418211Y-102810371D01*
X105364251Y-102742897D01*
X105364250Y-102742895D01*
X105361399Y-102739331D01*
X105165154Y-102556009D01*
X105005436Y-102445208D01*
X104948254Y-102405539D01*
X104948249Y-102405536D01*
X104944501Y-102402936D01*
X104940416Y-102400904D01*
X104940413Y-102400902D01*
X104768560Y-102315407D01*
X104704062Y-102283320D01*
X104699728Y-102281899D01*
X104699725Y-102281898D01*
X104453207Y-102201085D01*
X104453202Y-102201084D01*
X104448874Y-102199665D01*
X104444382Y-102198885D01*
X104188064Y-102154380D01*
X104188056Y-102154379D01*
X104184283Y-102153724D01*
X104175622Y-102153293D01*
X104101004Y-102149578D01*
X104100996Y-102149578D01*
X104099433Y-102149500D01*
X103931777Y-102149500D01*
X103929509Y-102149665D01*
X103929497Y-102149665D01*
X103799177Y-102159121D01*
X103732154Y-102163984D01*
X103727699Y-102164968D01*
X103727696Y-102164968D01*
X103474380Y-102220895D01*
X103474376Y-102220896D01*
X103469920Y-102221880D01*
X103363349Y-102262256D01*
X103223059Y-102315407D01*
X103223056Y-102315408D01*
X103218789Y-102317025D01*
X102984024Y-102447426D01*
X102980392Y-102450198D01*
X102774167Y-102607583D01*
X102774163Y-102607587D01*
X102770542Y-102610350D01*
X102767357Y-102613608D01*
X102767356Y-102613609D01*
X102710948Y-102671312D01*
X102582815Y-102802386D01*
X102580130Y-102806075D01*
X102472895Y-102953400D01*
X102424775Y-103019509D01*
X102422651Y-103023547D01*
X102301860Y-103253132D01*
X102301857Y-103253138D01*
X102299735Y-103257172D01*
X102298215Y-103261477D01*
X102298213Y-103261481D01*
X102238804Y-103429715D01*
X102210312Y-103510397D01*
X102158380Y-103773878D01*
X102158153Y-103778431D01*
X102158153Y-103778434D01*
X102148992Y-103962474D01*
X102145028Y-104042095D01*
X100500000Y-104042095D01*
X100500000Y-100626000D01*
X100520002Y-100557879D01*
X100573658Y-100511386D01*
X100626000Y-100500000D01*
X129374000Y-100500000D01*
X129442121Y-100520002D01*
G37*
%TD.AperFunction*%
%TD*%
M02*
