0
SECTION
2
HEADER
9
$INSUNITS
70
4
9
$ACADVER
1
AC1014
9
$HANDSEED
5
FFFF
0
ENDSEC
0
SECTION
2
TABLES
0
TABLE
2
VPORT
5
8
100
AcDbSymbolTable
0
ENDTAB
0
TABLE
2
LTYPE
5
5
100
AcDbSymbolTable
0
LTYPE
5
14
100
AcDbSymbolTableRecord
100
AcDbLinetypeTableRecord
2
BYBLOCK
70
0
0
LTYPE
5
15
100
AcDbSymbolTableRecord
100
AcDbLinetypeTableRecord
2
BYLAYER
70
0
0
ENDTAB
0
TABLE
2
LAYER
5
2
100
AcDbSymbolTable
70
2
0
LAYER
5
50
100
AcDbSymbolTableRecord
100
AcDbLayerTableRecord
2
0
70
0
6
CONTINUOUS
0
ENDTAB
0
TABLE
2
STYLE
5
3
100
AcDbSymbolTable
70
1
0
STYLE
5
11
100
AcDbSymbolTableRecord
100
AcDbTextStyleTableRecord
2
STANDARD
70
0
0
ENDTAB
0
TABLE
2
VIEW
5
6
100
AcDbSymbolTable
70
0
0
ENDTAB
0
TABLE
2
UCS
5
7
100
AcDbSymbolTable
70
0
0
ENDTAB
0
TABLE
2
APPID
5
9
100
AcDbSymbolTable
70
2
0
APPID
5
12
100
AcDbSymbolTableRecord
100
AcDbRegAppTableRecord
2
ACAD
70
0
0
ENDTAB
0
TABLE
2
DIMSTYLE
5
A
100
AcDbSymbolTable
70
1
0
ENDTAB
0
TABLE
2
BLOCK_RECORD
5
1
100
AcDbSymbolTable
70
1
0
BLOCK_RECORD
5
1F
100
AcDbSymbolTableRecord
100
AcDbBlockTableRecord
2
*MODEL_SPACE
0
BLOCK_RECORD
5
1B
100
AcDbSymbolTableRecord
100
AcDbBlockTableRecord
2
*PAPER_SPACE
0
ENDTAB
0
ENDSEC
0
SECTION
2
BLOCKS
0
BLOCK
5
20
100
AcDbEntity
100
AcDbBlockBegin
2
*MODEL_SPACE
0
ENDBLK
5
21
100
AcDbEntity
100
AcDbBlockEnd
0
BLOCK
5
1C
100
AcDbEntity
100
AcDbBlockBegin
2
*PAPER_SPACE
0
ENDBLK
5
1D
100
AcDbEntity
100
AcDbBlockEnd
0
ENDSEC
0
SECTION
2
ENTITIES
0
LWPOLYLINE
5
100
100
AcDbEntity
8
0
100
AcDbPolyline
90
16
70
1
43
0.0
10
2.9808805970638197
20
6.3500000000000023
10
-4.9999999999999964
20
6.3500000000000023
42
-0.99999999999999989
10
-4.9999999999999991
20
13.650000000000002
10
12.999999999999998
20
13.649999999999995
42
0.99999999999999989
10
13.000000000000005
20
26.349999999999998
10
6.1207609946319247e-16
20
26.350000000000001
42
-0.4142135623730947
10
-3.6500000000000039
20
30
10
-6.3500000000000023
20
30.000000000000004
42
0.41421356237309515
10
1.7983139997822632e-15
20
23.650000000000006
10
13.000000000000005
20
23.650000000000013
42
-0.99999999999999989
10
13
20
16.349999999999994
10
-5
20
16.350000000000001
42
0.99999999999999989
10
-4.9999999999999964
20
3.6500000000000021
10
3.0220226701375799
20
3.6500000000000021
42
-0.43358437080377338
10
6.6506144111277186
20
0.040725084945369139
10
9.3493855888722841
20
-0.04072508494536841
42
0.43096713721033941
0
LWPOLYLINE
5
101
100
AcDbEntity
8
0
100
AcDbPolyline
90
12
70
1
43
0.0
10
3.0000000000000004
20
7.8000000000000007
10
-4.9999999999999973
20
7.799999999999998
42
-0.99999999999999989
10
-4.9999999999999991
20
12.200000000000003
10
13.000000000000004
20
12.199999999999996
42
0.99999999999999989
10
13.000000000000007
20
27.799999999999997
10
0
20
27.799999999999997
10
0
20
26.800000000000001
10
13.000000000000005
20
26.800000000000015
42
-0.99999999999999989
10
13
20
13.199999999999996
10
-5
20
13.200000000000001
42
0.99999999999999989
10
-4.9999999999999991
20
6.7999999999999972
10
3.0000000000000004
20
6.8000000000000007
0
LWPOLYLINE
5
102
100
AcDbEntity
8
0
100
AcDbPolyline
90
12
70
1
43
0.0
10
3.0000000000000004
20
3.1999999999999993
10
-4.9999999999999982
20
3.1999999999999962
42
-0.99999999999999989
10
-5.0000000000000009
20
16.800000000000001
10
13.000000000000004
20
16.799999999999997
42
0.99999999999999989
10
13.000000000000007
20
23.199999999999999
10
0
20
23.199999999999999
10
0
20
22.200000000000003
10
13.000000000000007
20
22.20000000000001
42
-0.99999999999999989
10
12.999999999999998
20
17.799999999999997
10
-5
20
17.800000000000004
42
0.99999999999999989
10
-5
20
2.1999999999999997
10
3.0000000000000004
20
2.2000000000000002
0
ENDSEC
0
SECTION
2
OBJECTS
0
DICTIONARY
5
C
100
AcDbDictionary
3
ACAD_GROUP
350
D
3
ACAD_MLINESTYLE
350
17
0
DICTIONARY
5
D
100
AcDbDictionary
0
DICTIONARY
5
1A
330
C
100
AcDbDictionary
0
DICTIONARY
5
17
100
AcDbDictionary
0
ENDSEC
0
EOF
